<svg xmlns="http://www.w3.org/2000/svg" xmlns:xlink="http://www.w3.org/1999/xlink" contentStyleType="text/css" data-diagram-type="SEQUENCE" height="655px" preserveAspectRatio="none" style="width:1535px;height:655px;background:#FFFFFF;" version="1.1" viewBox="0 0 1535 655" width="1535px" zoomAndPan="magnify"><?plantuml 1.2026.3?><defs/><g><g class="title" data-source-line="12"><text fill="#000000" font-family="sans-serif" font-size="14" font-weight="700" lengthAdjust="spacing" textLength="306.1885" x="610.9272" y="28.5352">Rasterize cycle diff pumls to SVG (current)</text></g><rect fill="none" height="46.6211" style="stroke:#000000;stroke-width:1.5;" width="396.1455" x="185.1606" y="255.707"/><rect fill="none" height="148.8633" style="stroke:#000000;stroke-width:1.5;" width="662.8418" x="856.2012" y="345.6387"/><g class="participant-lifeline" data-entity-uid="part1" data-qualified-name="Dev" data-source-line="14" id="part1-lifeline"><g><title>Developer</title><rect fill="#000000" fill-opacity="0.00000" height="448.6582" width="8" x="38.1592" y="121.4648"/><line style="stroke:#181818;stroke-width:0.5;stroke-dasharray:5,5;" x1="42" x2="42" y1="121.4648" y2="570.123"/></g></g><g class="participant-lifeline" data-entity-uid="part2" data-qualified-name="Trigger" data-source-line="15" id="part2-lifeline"><g><title>.mdd-cycle close</title><rect fill="#000000" fill-opacity="0.00000" height="448.6582" width="8" x="257.5718" y="121.4648"/><line style="stroke:#181818;stroke-width:0.5;stroke-dasharray:5,5;" x1="261.1606" x2="261.1606" y1="121.4648" y2="570.123"/></g></g><g class="participant-lifeline" data-entity-uid="part3" data-qualified-name="Rend" data-source-line="16" id="part3-lifeline"><g><title>render_cycle_diffs</title><rect fill="#000000" fill-opacity="0.00000" height="448.6582" width="8" x="499.1313" y="121.4648"/><line style="stroke:#181818;stroke-width:0.5;stroke-dasharray:5,5;" x1="502.9565" x2="502.9565" y1="121.4648" y2="570.123"/></g></g><g class="participant-lifeline" data-entity-uid="part4" data-qualified-name="Core" data-source-line="17" id="part4-lifeline"><g><title>Project..cycle_diff_puml_files</title><rect fill="#000000" fill-opacity="0.00000" height="448.6582" width="8" x="747.2798" y="121.4648"/><line style="stroke:#181818;stroke-width:0.5;stroke-dasharray:5,5;" x1="750.3584" x2="750.3584" y1="121.4648" y2="570.123"/></g></g><g class="participant-lifeline" data-entity-uid="part5" data-qualified-name="Paths" data-source-line="18" id="part5-lifeline"><g><title>render_paths</title><rect fill="#000000" fill-opacity="0.00000" height="448.6582" width="8" x="941.939" y="121.4648"/><line style="stroke:#181818;stroke-width:0.5;stroke-dasharray:5,5;" x1="945.2012" x2="945.2012" y1="121.4648" y2="570.123"/></g></g><g class="participant-lifeline" data-entity-uid="part6" data-qualified-name="Store" data-source-line="19" id="part6-lifeline"><g><title>.mdd.cycles..N..</title><rect fill="#000000" fill-opacity="0.00000" height="448.6582" width="8" x="1221.9502" y="121.4648"/><line style="stroke:#181818;stroke-width:0.5;stroke-dasharray:5,5;" x1="1225.7559" x2="1225.7559" y1="121.4648" y2="570.123"/></g></g><g class="participant-lifeline" data-entity-uid="part7" data-qualified-name="Out" data-source-line="20" id="part7-lifeline"><g><title>.mdd.rendered.cycles..N..</title><rect fill="#000000" fill-opacity="0.00000" height="448.6582" width="8" x="1402.5938" y="121.4648"/><line style="stroke:#181818;stroke-width:0.5;stroke-dasharray:5,5;" x1="1406.1445" x2="1406.1445" y1="121.4648" y2="570.123"/></g></g><g class="participant participant-head" data-entity-uid="part1" data-qualified-name="Dev" data-source-line="14" id="part1-head"><text fill="#000000" font-family="sans-serif" font-size="14" lengthAdjust="spacing" textLength="68.3184" x="5" y="118.5117">Developer</text><ellipse cx="42.1592" cy="53.4766" fill="#E2E2F0" rx="8" ry="8" style="stroke:#181818;stroke-width:0.5;"/><path d="M42.1592,61.4766 L42.1592,88.4766 M29.1592,69.4766 L55.1592,69.4766 M42.1592,88.4766 L29.1592,103.4766 M42.1592,88.4766 L55.1592,103.4766" fill="none" style="stroke:#181818;stroke-width:0.5;"/></g><g class="participant participant-tail" data-entity-uid="part1" data-qualified-name="Dev" data-source-line="14" id="part1-tail"><text fill="#000000" font-family="sans-serif" font-size="14" lengthAdjust="spacing" textLength="68.3184" x="5" y="582.6582">Developer</text><ellipse cx="42.1592" cy="594.1113" fill="#E2E2F0" rx="8" ry="8" style="stroke:#181818;stroke-width:0.5;"/><path d="M42.1592,602.1113 L42.1592,629.1113 M29.1592,610.1113 L55.1592,610.1113 M42.1592,629.1113 L29.1592,644.1113 M42.1592,629.1113 L55.1592,644.1113" fill="none" style="stroke:#181818;stroke-width:0.5;"/></g><g class="participant participant-head" data-entity-uid="part2" data-qualified-name="Trigger" data-source-line="15" id="part2-head"><rect fill="#E2E2F0" height="46.9766" rx="2.5" ry="2.5" style="stroke:#181818;stroke-width:0.5;" width="132.8223" x="195.1606" y="73.4883"/><text fill="#000000" font-family="sans-serif" font-size="14" lengthAdjust="spacing" textLength="118.8223" x="202.1606" y="94.0234">/mdd-cycle close</text><text fill="#000000" font-family="sans-serif" font-size="14" lengthAdjust="spacing" textLength="109.4502" x="206.8467" y="110.5117">or /mdd-render</text></g><g class="participant participant-tail" data-entity-uid="part2" data-qualified-name="Trigger" data-source-line="15" id="part2-tail"><rect fill="#E2E2F0" height="46.9766" rx="2.5" ry="2.5" style="stroke:#181818;stroke-width:0.5;" width="132.8223" x="195.1606" y="569.123"/><text fill="#000000" font-family="sans-serif" font-size="14" lengthAdjust="spacing" textLength="118.8223" x="202.1606" y="589.6582">/mdd-cycle close</text><text fill="#000000" font-family="sans-serif" font-size="14" lengthAdjust="spacing" textLength="109.4502" x="206.8467" y="606.1465">or /mdd-render</text></g><g class="participant participant-head" data-entity-uid="part3" data-qualified-name="Rend" data-source-line="16" id="part3-head"><rect fill="#E2E2F0" height="46.9766" rx="2.5" ry="2.5" style="stroke:#181818;stroke-width:0.5;" width="136.3496" x="434.9565" y="73.4883"/><text fill="#000000" font-family="sans-serif" font-size="14" lengthAdjust="spacing" textLength="122.3496" x="441.9565" y="94.0234">render_cycle_diffs</text><text fill="#000000" font-family="sans-serif" font-size="14" lengthAdjust="spacing" textLength="92.4561" x="456.9033" y="110.5117">(mdd-render)</text></g><g class="participant participant-tail" data-entity-uid="part3" data-qualified-name="Rend" data-source-line="16" id="part3-tail"><rect fill="#E2E2F0" height="46.9766" rx="2.5" ry="2.5" style="stroke:#181818;stroke-width:0.5;" width="136.3496" x="434.9565" y="569.123"/><text fill="#000000" font-family="sans-serif" font-size="14" lengthAdjust="spacing" textLength="122.3496" x="441.9565" y="589.6582">render_cycle_diffs</text><text fill="#000000" font-family="sans-serif" font-size="14" lengthAdjust="spacing" textLength="92.4561" x="456.9033" y="606.1465">(mdd-render)</text></g><g class="participant participant-head" data-entity-uid="part4" data-qualified-name="Core" data-source-line="17" id="part4-head"><rect fill="#E2E2F0" height="46.9766" rx="2.5" ry="2.5" style="stroke:#181818;stroke-width:0.5;" width="209.8428" x="646.3584" y="73.4883"/><text fill="#000000" font-family="sans-serif" font-size="14" lengthAdjust="spacing" textLength="195.8428" x="653.3584" y="94.0234">Project::cycle_diff_puml_files</text><text fill="#000000" font-family="sans-serif" font-size="14" lengthAdjust="spacing" textLength="148.8389" x="676.8604" y="110.5117">(WalkDir .mdd/cycles)</text></g><g class="participant participant-tail" data-entity-uid="part4" data-qualified-name="Core" data-source-line="17" id="part4-tail"><rect fill="#E2E2F0" height="46.9766" rx="2.5" ry="2.5" style="stroke:#181818;stroke-width:0.5;" width="209.8428" x="646.3584" y="569.123"/><text fill="#000000" font-family="sans-serif" font-size="14" lengthAdjust="spacing" textLength="195.8428" x="653.3584" y="589.6582">Project::cycle_diff_puml_files</text><text fill="#000000" font-family="sans-serif" font-size="14" lengthAdjust="spacing" textLength="148.8389" x="676.8604" y="606.1465">(WalkDir .mdd/cycles)</text></g><g class="participant participant-head" data-entity-uid="part5" data-qualified-name="Paths" data-source-line="18" id="part5-head"><rect fill="#E2E2F0" height="46.9766" rx="2.5" ry="2.5" style="stroke:#181818;stroke-width:0.5;" width="159.4756" x="866.2012" y="73.4883"/><text fill="#000000" font-family="sans-serif" font-size="14" lengthAdjust="spacing" textLength="89.1611" x="901.3584" y="94.0234">render_paths</text><text fill="#000000" font-family="sans-serif" font-size="14" lengthAdjust="spacing" textLength="145.4756" x="873.2012" y="110.5117">+ PlantUmlCommand</text></g><g class="participant participant-tail" data-entity-uid="part5" data-qualified-name="Paths" data-source-line="18" id="part5-tail"><rect fill="#E2E2F0" height="46.9766" rx="2.5" ry="2.5" style="stroke:#181818;stroke-width:0.5;" width="159.4756" x="866.2012" y="569.123"/><text fill="#000000" font-family="sans-serif" font-size="14" lengthAdjust="spacing" textLength="89.1611" x="901.3584" y="589.6582">render_paths</text><text fill="#000000" font-family="sans-serif" font-size="14" lengthAdjust="spacing" textLength="145.4756" x="873.2012" y="606.1465">+ PlantUmlCommand</text></g><g class="participant participant-head" data-entity-uid="part6" data-qualified-name="Store" data-source-line="19" id="part6-head"><text fill="#000000" font-family="sans-serif" font-size="14" lengthAdjust="spacing" textLength="130.3887" x="1157.7559" y="102.0234">.mdd/cycles/&lt;N&gt;/</text><text fill="#000000" font-family="sans-serif" font-size="14" lengthAdjust="spacing" textLength="106.4629" x="1169.7188" y="118.5117">&lt;rel&gt;.diff.puml</text><path d="M1207.9502,52.4883 C1207.9502,42.4883 1225.9502,42.4883 1225.9502,42.4883 C1225.9502,42.4883 1243.9502,42.4883 1243.9502,52.4883 L1243.9502,78.4883 C1243.9502,88.4883 1225.9502,88.4883 1225.9502,88.4883 C1225.9502,88.4883 1207.9502,88.4883 1207.9502,78.4883 L1207.9502,52.4883" fill="#E2E2F0" style="stroke:#181818;stroke-width:0.5;"/><path d="M1207.9502,52.4883 C1207.9502,62.4883 1225.9502,62.4883 1225.9502,62.4883 C1225.9502,62.4883 1243.9502,62.4883 1243.9502,52.4883" fill="none" style="stroke:#181818;stroke-width:0.5;"/></g><g class="participant participant-tail" data-entity-uid="part6" data-qualified-name="Store" data-source-line="19" id="part6-tail"><text fill="#000000" font-family="sans-serif" font-size="14" lengthAdjust="spacing" textLength="130.3887" x="1157.7559" y="582.6582">.mdd/cycles/&lt;N&gt;/</text><text fill="#000000" font-family="sans-serif" font-size="14" lengthAdjust="spacing" textLength="106.4629" x="1169.7188" y="599.1465">&lt;rel&gt;.diff.puml</text><path d="M1207.9502,612.0996 C1207.9502,602.0996 1225.9502,602.0996 1225.9502,602.0996 C1225.9502,602.0996 1243.9502,602.0996 1243.9502,612.0996 L1243.9502,638.0996 C1243.9502,648.0996 1225.9502,648.0996 1225.9502,648.0996 C1225.9502,648.0996 1207.9502,648.0996 1207.9502,638.0996 L1207.9502,612.0996" fill="#E2E2F0" style="stroke:#181818;stroke-width:0.5;"/><path d="M1207.9502,612.0996 C1207.9502,622.0996 1225.9502,622.0996 1225.9502,622.0996 C1225.9502,622.0996 1243.9502,622.0996 1243.9502,612.0996" fill="none" style="stroke:#181818;stroke-width:0.5;"/></g><g class="participant participant-head" data-entity-uid="part7" data-qualified-name="Out" data-source-line="20" id="part7-head"><text fill="#000000" font-family="sans-serif" font-size="14" lengthAdjust="spacing" textLength="198.8984" x="1304.1445" y="102.0234">.mdd/rendered/cycles/&lt;N&gt;/</text><text fill="#000000" font-family="sans-serif" font-size="14" lengthAdjust="spacing" textLength="94.958" x="1356.1147" y="118.5117">&lt;rel&gt;.diff.svg</text><path d="M1388.5938,52.4883 C1388.5938,42.4883 1406.5938,42.4883 1406.5938,42.4883 C1406.5938,42.4883 1424.5938,42.4883 1424.5938,52.4883 L1424.5938,78.4883 C1424.5938,88.4883 1406.5938,88.4883 1406.5938,88.4883 C1406.5938,88.4883 1388.5938,88.4883 1388.5938,78.4883 L1388.5938,52.4883" fill="#E2E2F0" style="stroke:#181818;stroke-width:0.5;"/><path d="M1388.5938,52.4883 C1388.5938,62.4883 1406.5938,62.4883 1406.5938,62.4883 C1406.5938,62.4883 1424.5938,62.4883 1424.5938,52.4883" fill="none" style="stroke:#181818;stroke-width:0.5;"/></g><g class="participant participant-tail" data-entity-uid="part7" data-qualified-name="Out" data-source-line="20" id="part7-tail"><text fill="#000000" font-family="sans-serif" font-size="14" lengthAdjust="spacing" textLength="198.8984" x="1304.1445" y="582.6582">.mdd/rendered/cycles/&lt;N&gt;/</text><text fill="#000000" font-family="sans-serif" font-size="14" lengthAdjust="spacing" textLength="94.958" x="1356.1147" y="599.1465">&lt;rel&gt;.diff.svg</text><path d="M1388.5938,612.0996 C1388.5938,602.0996 1406.5938,602.0996 1406.5938,602.0996 C1406.5938,602.0996 1424.5938,602.0996 1424.5938,612.0996 L1424.5938,638.0996 C1424.5938,648.0996 1406.5938,648.0996 1406.5938,648.0996 C1406.5938,648.0996 1388.5938,648.0996 1388.5938,638.0996 L1388.5938,612.0996" fill="#E2E2F0" style="stroke:#181818;stroke-width:0.5;"/><path d="M1388.5938,612.0996 C1388.5938,622.0996 1406.5938,622.0996 1406.5938,622.0996 C1406.5938,622.0996 1424.5938,622.0996 1424.5938,612.0996" fill="none" style="stroke:#181818;stroke-width:0.5;"/></g><g class="message" data-entity-1="part1" data-entity-2="part2" data-source-line="22" id="msg1"><polygon fill="#181818" points="249.5718,148.7754,259.5718,152.7754,249.5718,156.7754,253.5718,152.7754" style="stroke:#181818;stroke-width:1;"/><line style="stroke:#181818;stroke-width:1;" x1="42.1592" x2="255.5718" y1="152.7754" y2="152.7754"/><text fill="#000000" font-family="sans-serif" font-size="13" lengthAdjust="spacing" textLength="195.4126" x="49.1592" y="148.0332">close cycle N (or /mdd-render)</text></g><g class="message" data-entity-1="part2" data-entity-2="part3" data-source-line="23" id="msg2"><polygon fill="#181818" points="491.1313,178.0859,501.1313,182.0859,491.1313,186.0859,495.1313,182.0859" style="stroke:#181818;stroke-width:1;"/><line style="stroke:#181818;stroke-width:1;" x1="261.5718" x2="497.1313" y1="182.0859" y2="182.0859"/><text fill="#000000" font-family="sans-serif" font-size="13" lengthAdjust="spacing" textLength="166.2705" x="268.5718" y="177.3438">render_cycle_diffs(project)</text></g><g class="message" data-entity-1="part3" data-entity-2="part4" data-source-line="24" id="msg3"><polygon fill="#181818" points="739.2798,207.3965,749.2798,211.3965,739.2798,215.3965,743.2798,211.3965" style="stroke:#181818;stroke-width:1;"/><line style="stroke:#181818;stroke-width:1;" x1="503.1313" x2="745.2798" y1="211.3965" y2="211.3965"/><text fill="#000000" font-family="sans-serif" font-size="13" lengthAdjust="spacing" textLength="138.874" x="510.1313" y="206.6543">cycle_diff_puml_files()</text></g><g class="message" data-entity-1="part4" data-entity-2="part3" data-source-line="25" id="msg4"><polygon fill="#181818" points="514.1313,236.707,504.1313,240.707,514.1313,244.707,510.1313,240.707" style="stroke:#181818;stroke-width:1;"/><line style="stroke:#181818;stroke-width:1;stroke-dasharray:2,2;" x1="508.1313" x2="750.2798" y1="240.707" y2="240.707"/><text fill="#000000" font-family="sans-serif" font-size="13" lengthAdjust="spacing" textLength="224.1484" x="520.1313" y="235.9648">sorted Vec&lt;PathBuf&gt; of *.diff.puml</text></g><path d="M185.1606,255.707 L252.3457,255.707 L252.3457,263.0176 L242.3457,273.0176 L185.1606,273.0176 L185.1606,255.707" fill="#EEEEEE" style="stroke:#000000;stroke-width:1.5;"/><rect fill="none" height="46.6211" style="stroke:#000000;stroke-width:1.5;" width="396.1455" x="185.1606" y="255.707"/><text fill="#000000" font-family="sans-serif" font-size="13" font-weight="700" lengthAdjust="spacing" textLength="22.1851" x="200.1606" y="269.2754">opt</text><text fill="#000000" font-family="sans-serif" font-size="11" font-weight="700" lengthAdjust="spacing" textLength="105.5581" x="267.3457" y="268.3418">[no diff pumls yet]</text><g class="message" data-entity-1="part3" data-entity-2="part2" data-source-line="27" id="msg5"><polygon fill="#181818" points="272.5718,290.3281,262.5718,294.3281,272.5718,298.3281,268.5718,294.3281" style="stroke:#181818;stroke-width:1;"/><line style="stroke:#181818;stroke-width:1;stroke-dasharray:2,2;" x1="266.5718" x2="502.1313" y1="294.3281" y2="294.3281"/><text fill="#000000" font-family="sans-serif" font-size="13" lengthAdjust="spacing" textLength="217.5596" x="278.5718" y="289.5859">empty RenderReport (not an error)</text></g><g class="message" data-entity-1="part3" data-entity-2="part5" data-source-line="29" id="msg6"><polygon fill="#181818" points="933.939,326.6387,943.939,330.6387,933.939,334.6387,937.939,330.6387" style="stroke:#181818;stroke-width:1;"/><line style="stroke:#181818;stroke-width:1;" x1="503.1313" x2="939.939" y1="330.6387" y2="330.6387"/><text fill="#000000" font-family="sans-serif" font-size="13" lengthAdjust="spacing" textLength="256.4453" x="510.1313" y="325.8965">render_paths(project, plantuml, sources)</text></g><path d="M856.2012,345.6387 L930.6479,345.6387 L930.6479,352.9492 L920.6479,362.9492 L856.2012,362.9492 L856.2012,345.6387" fill="#EEEEEE" style="stroke:#000000;stroke-width:1.5;"/><rect fill="none" height="148.8633" style="stroke:#000000;stroke-width:1.5;" width="662.8418" x="856.2012" y="345.6387"/><text fill="#000000" font-family="sans-serif" font-size="13" font-weight="700" lengthAdjust="spacing" textLength="29.4468" x="871.2012" y="359.207">loop</text><text fill="#000000" font-family="sans-serif" font-size="11" font-weight="700" lengthAdjust="spacing" textLength="124.4697" x="945.6479" y="358.2734">[each &lt;rel&gt;.diff.puml]</text><g class="message" data-entity-1="part5" data-entity-2="part6" data-source-line="31" id="msg7"><polygon fill="#181818" points="1213.9502,380.2598,1223.9502,384.2598,1213.9502,388.2598,1217.9502,384.2598" style="stroke:#181818;stroke-width:1;"/><line style="stroke:#181818;stroke-width:1;" x1="945.939" x2="1219.9502" y1="384.2598" y2="384.2598"/><text fill="#000000" font-family="sans-serif" font-size="13" lengthAdjust="spacing" textLength="73.9375" x="952.939" y="379.5176">read source</text></g><g class="message" data-entity-1="part5" data-entity-2="part5" data-source-line="32" id="msg8"><line style="stroke:#181818;stroke-width:1;" x1="945.939" x2="987.939" y1="444.1914" y2="444.1914"/><line style="stroke:#181818;stroke-width:1;" x1="987.939" x2="987.939" y1="444.1914" y2="457.1914"/><line style="stroke:#181818;stroke-width:1;" x1="946.939" x2="987.939" y1="457.1914" y2="457.1914"/><polygon fill="#181818" points="956.939,453.1914,946.939,457.1914,956.939,461.1914,952.939,457.1914" style="stroke:#181818;stroke-width:1;"/><text fill="#000000" font-family="sans-serif" font-size="13" lengthAdjust="spacing" textLength="235.2378" x="952.939" y="408.8281">out = Project::rendered_svg_path(rel)</text><text fill="#000000" font-family="sans-serif" font-size="13" lengthAdjust="spacing" textLength="266.0112" x="952.939" y="424.1387">(.mdd/cycles/ -&gt; .mdd/rendered/cycles/,</text><text fill="#000000" font-family="sans-serif" font-size="13" lengthAdjust="spacing" textLength="143.3682" x="952.939" y="439.4492">.diff.puml -&gt; .diff.svg)</text></g><g class="message" data-entity-1="part5" data-entity-2="part7" data-source-line="33" id="msg9"><polygon fill="#181818" points="1394.5938,482.502,1404.5938,486.502,1394.5938,490.502,1398.5938,486.502" style="stroke:#181818;stroke-width:1;"/><line style="stroke:#181818;stroke-width:1;" x1="945.939" x2="1400.5938" y1="486.502" y2="486.502"/><text fill="#000000" font-family="sans-serif" font-size="13" lengthAdjust="spacing" textLength="291.4463" x="952.939" y="481.7598">java -jar plantuml -tsvg -pipe -&gt; write mirror</text></g><g class="message" data-entity-1="part5" data-entity-2="part3" data-source-line="35" id="msg10"><polygon fill="#181818" points="514.1313,518.8125,504.1313,522.8125,514.1313,526.8125,510.1313,522.8125" style="stroke:#181818;stroke-width:1;"/><line style="stroke:#181818;stroke-width:1;stroke-dasharray:2,2;" x1="508.1313" x2="944.939" y1="522.8125" y2="522.8125"/><text fill="#000000" font-family="sans-serif" font-size="13" lengthAdjust="spacing" textLength="197.7612" x="520.1313" y="518.0703">rendered project-relative paths</text></g><g class="message" data-entity-1="part3" data-entity-2="part1" data-source-line="36" id="msg11"><polygon fill="#181818" points="53.1592,548.123,43.1592,552.123,53.1592,556.123,49.1592,552.123" style="stroke:#181818;stroke-width:1;"/><line style="stroke:#181818;stroke-width:1;stroke-dasharray:2,2;" x1="47.1592" x2="502.1313" y1="552.123" y2="552.123"/><text fill="#000000" font-family="sans-serif" font-size="13" lengthAdjust="spacing" textLength="163.6807" x="59.1592" y="547.3809">RenderReport { rendered }</text></g><?plantuml-src XLHTRzem57tthxZYfSc6QRN7g4Fj2gqgRLq7Q_U2XDpa0kuIEx8T49lsttVj92LGrZqHVE-v7-SS-mGuvx1PwHnv8KeeZLwZ4Yh51D9jcYEubN0WbJCwgrBC04MwWWkPUI0xWOkG5Kt7t_XaV3SQJ_ZezlgQJnzl-d1sTlOXzZaoEvOGGWONqSDqN1-ERYzl9fTVA42XgyeOL8vRcI4iShq1OK4MPOu57TCaKa6HPNDAoj0aIVqx3_FCCxbOs8IgeAeADC8Xu1hD5WO4EGqvzlJyRdXwRZ0V3dpweAoA7DPI4EhUw6TCNPBigirzUBwG10IXCZ32EZJo5zQCE0tIsIwqdWUpkLqlvwLmAoYaCTh0HjAtMo4Oj3fVqoRtkL3kuSjdI7LHKF518E0YGviUPxPtQVbJ9NENmEkrOIFod_O_E_Jz1Af5-_4ibBAavS8w7KRSokXgkMg6BFAhUiP0miP8Hn2_J22stVaV31CJ3Gc3NioSTEIloGkFjTzy8lZ6rdDAsqAKraw86HEf8m9x8z8oroMQdlS4_MEbC4wcigGHeNTAe_2wMffhYpD5e71OpnTGturSBj7i8r-JELFH3XW7v8I-zs5lKqqbVf0Y8scwxgjhNMc3HqS8YipK-qFQ0-hU1racd7WI5g5tQEgPEh1rG4sTRtQ0EgRO7fmq2-YlbMECg0O-RBc3fEQtKUuEedsUOzOc4iQp1iVi6fKrUp4BAPJgIO7c_JaaCufP2FDTIQkDVmuUCJttn7og5aFG2tYtMv_fqe7INMzjqJ6eA_2zZR0etJO4q4omfDeGAUt8xe3UkJ7pyhUZ1YLsQmNLseNwK7hjg5sVPgnCIgApNEkolc874j4qTJ6g6fGALKNMGBlXjgck77nyuy69g4DCxklQm-EF2j-VgSwbzrcj_76tDzc0EZ-BjG3-BCpBYi2TlztSlo4-BxmCpMKFZ3KL3fr0mZLqaMbouUGQ8R38NhJnfals5VczG__v2m00?></g></svg>