<svg xmlns="http://www.w3.org/2000/svg" xmlns:xlink="http://www.w3.org/1999/xlink" contentStyleType="text/css" data-diagram-type="SEQUENCE" height="1151px" preserveAspectRatio="none" style="width:1836px;height:1151px;background:#FFFFFF;" version="1.1" viewBox="0 0 1836 1151" width="1836px" zoomAndPan="magnify"><?plantuml 1.2026.3?><defs/><g><g class="title" data-source-line="16"><text fill="#000000" font-family="sans-serif" font-size="14" font-weight="700" lengthAdjust="spacing" textLength="345.6729" x="742.0146" y="28.5352">/mdd-deploy guidance and inspection (current)</text></g><rect fill="none" height="597.0293" style="stroke:#000000;stroke-width:1.5;" width="1381.5566" x="10" y="211.0859"/><rect fill="none" height="126.5527" style="stroke:#000000;stroke-width:1.5;" width="756.0884" x="20" y="353.5938"/><g class="participant-lifeline" data-entity-uid="part1" data-qualified-name="Op" data-source-line="18" id="part1-lifeline"><g><title>Operator</title><rect fill="#000000" fill-opacity="0.00000" height="945.4453" width="8" x="59.2559" y="121.4648"/><line style="stroke:#181818;stroke-width:0.5;stroke-dasharray:5,5;" x1="63" x2="63" y1="121.4648" y2="1066.9102"/></g></g><g class="participant-lifeline" data-entity-uid="part2" data-qualified-name="Dep" data-source-line="19" id="part2-lifeline"><g><title>.mdd-deploy</title><rect fill="#000000" fill-opacity="0.00000" height="945.4453" width="8" x="448.2397" y="121.4648"/><line style="stroke:#181818;stroke-width:0.5;stroke-dasharray:5,5;" x1="451.48" x2="451.48" y1="121.4648" y2="1066.9102"/></g></g><g class="participant-lifeline" data-entity-uid="part3" data-qualified-name="Models" data-source-line="20" id="part3-lifeline"><g><title>.mdd.models.</title><rect fill="#000000" fill-opacity="0.00000" height="945.4453" width="8" x="741.1392" y="121.4648"/><line style="stroke:#181818;stroke-width:0.5;stroke-dasharray:5,5;" x1="744.8936" x2="744.8936" y1="121.4648" y2="1066.9102"/></g></g><g class="participant-lifeline" data-entity-uid="part4" data-qualified-name="Target" data-source-line="21" id="part4-lifeline"><g><title>...atlas-ate-server</title><rect fill="#000000" fill-opacity="0.00000" height="945.4453" width="8" x="931.6934" y="121.4648"/><line style="stroke:#181818;stroke-width:0.5;stroke-dasharray:5,5;" x1="935.3848" x2="935.3848" y1="121.4648" y2="1066.9102"/></g></g><g class="participant-lifeline" data-entity-uid="part5" data-qualified-name="Store" data-source-line="22" id="part5-lifeline"><g><title>.mdd.deploy.</title><rect fill="#000000" fill-opacity="0.00000" height="945.4453" width="8" x="1110.8511" y="121.4648"/><line style="stroke:#181818;stroke-width:0.5;stroke-dasharray:5,5;" x1="1114.002" x2="1114.002" y1="121.4648" y2="1066.9102"/></g></g><g class="participant-lifeline" data-entity-uid="part6" data-qualified-name="Infra" data-source-line="23" id="part6-lifeline"><g><title>...atlas-ate-server.</title><rect fill="#000000" fill-opacity="0.00000" height="945.4453" width="8" x="1290.1284" y="121.4648"/><line style="stroke:#181818;stroke-width:0.5;stroke-dasharray:5,5;" x1="1293.7002" x2="1293.7002" y1="121.4648" y2="1066.9102"/></g></g><g class="participant-lifeline" data-entity-uid="part7" data-qualified-name="Render" data-source-line="24" id="part7-lifeline"><g><title>.mdd-render</title><rect fill="#000000" fill-opacity="0.00000" height="945.4453" width="8" x="1439.9028" y="121.4648"/><line style="stroke:#181818;stroke-width:0.5;stroke-dasharray:5,5;" x1="1443.5566" x2="1443.5566" y1="121.4648" y2="1066.9102"/></g></g><g class="participant-lifeline" data-entity-uid="part8" data-qualified-name="Rendered" data-source-line="25" id="part8-lifeline"><g><title>.mdd.rendered.deploy.</title><rect fill="#000000" fill-opacity="0.00000" height="945.4453" width="8" x="1736.8521" y="121.4648"/><line style="stroke:#181818;stroke-width:0.5;stroke-dasharray:5,5;" x1="1740.002" x2="1740.002" y1="121.4648" y2="1066.9102"/></g></g><g class="participant participant-head" data-entity-uid="part1" data-qualified-name="Op" data-source-line="18" id="part1-head"><text fill="#000000" font-family="sans-serif" font-size="14" lengthAdjust="spacing" textLength="60.5117" x="30" y="118.5117">Operator</text><ellipse cx="63.2559" cy="53.4766" fill="#E2E2F0" rx="8" ry="8" style="stroke:#181818;stroke-width:0.5;"/><path d="M63.2559,61.4766 L63.2559,88.4766 M50.2559,69.4766 L76.2559,69.4766 M63.2559,88.4766 L50.2559,103.4766 M63.2559,88.4766 L76.2559,103.4766" fill="none" style="stroke:#181818;stroke-width:0.5;"/></g><g class="participant participant-tail" data-entity-uid="part1" data-qualified-name="Op" data-source-line="18" id="part1-tail"><text fill="#000000" font-family="sans-serif" font-size="14" lengthAdjust="spacing" textLength="60.5117" x="30" y="1079.4453">Operator</text><ellipse cx="63.2559" cy="1090.8984" fill="#E2E2F0" rx="8" ry="8" style="stroke:#181818;stroke-width:0.5;"/><path d="M63.2559,1098.8984 L63.2559,1125.8984 M50.2559,1106.8984 L76.2559,1106.8984 M63.2559,1125.8984 L50.2559,1140.8984 M63.2559,1125.8984 L76.2559,1140.8984" fill="none" style="stroke:#181818;stroke-width:0.5;"/></g><g class="participant participant-head" data-entity-uid="part2" data-qualified-name="Dep" data-source-line="19" id="part2-head"><rect fill="#E2E2F0" height="46.9766" rx="2.5" ry="2.5" style="stroke:#181818;stroke-width:0.5;" width="105.5195" x="399.48" y="73.4883"/><text fill="#000000" font-family="sans-serif" font-size="14" lengthAdjust="spacing" textLength="91.5195" x="406.48" y="94.0234">/mdd-deploy</text><text fill="#000000" font-family="sans-serif" font-size="14" lengthAdjust="spacing" textLength="79.6113" x="412.4341" y="110.5117">(utility skill)</text></g><g class="participant participant-tail" data-entity-uid="part2" data-qualified-name="Dep" data-source-line="19" id="part2-tail"><rect fill="#E2E2F0" height="46.9766" rx="2.5" ry="2.5" style="stroke:#181818;stroke-width:0.5;" width="105.5195" x="399.48" y="1065.9102"/><text fill="#000000" font-family="sans-serif" font-size="14" lengthAdjust="spacing" textLength="91.5195" x="406.48" y="1086.4453">/mdd-deploy</text><text fill="#000000" font-family="sans-serif" font-size="14" lengthAdjust="spacing" textLength="79.6113" x="412.4341" y="1102.9336">(utility skill)</text></g><g class="participant participant-head" data-entity-uid="part3" data-qualified-name="Models" data-source-line="20" id="part3-head"><rect fill="#E2E2F0" height="46.9766" rx="2.5" ry="2.5" style="stroke:#181818;stroke-width:0.5;" width="186.4912" x="651.8936" y="73.4883"/><text fill="#000000" font-family="sans-serif" font-size="14" lengthAdjust="spacing" textLength="99.2715" x="695.5034" y="94.0234">.mdd/models/</text><text fill="#000000" font-family="sans-serif" font-size="14" lengthAdjust="spacing" textLength="172.4912" x="658.8936" y="110.5117">components + use-cases</text></g><g class="participant participant-tail" data-entity-uid="part3" data-qualified-name="Models" data-source-line="20" id="part3-tail"><rect fill="#E2E2F0" height="46.9766" rx="2.5" ry="2.5" style="stroke:#181818;stroke-width:0.5;" width="186.4912" x="651.8936" y="1065.9102"/><text fill="#000000" font-family="sans-serif" font-size="14" lengthAdjust="spacing" textLength="99.2715" x="695.5034" y="1086.4453">.mdd/models/</text><text fill="#000000" font-family="sans-serif" font-size="14" lengthAdjust="spacing" textLength="172.4912" x="658.8936" y="1102.9336">components + use-cases</text></g><g class="participant participant-head" data-entity-uid="part4" data-qualified-name="Target" data-source-line="21" id="part4-head"><rect fill="#E2E2F0" height="46.9766" rx="2.5" ry="2.5" style="stroke:#181818;stroke-width:0.5;" width="174.6172" x="848.3848" y="73.4883"/><text fill="#000000" font-family="sans-serif" font-size="14" lengthAdjust="spacing" textLength="126.4922" x="872.4473" y="94.0234">../atlas-ate-server</text><text fill="#000000" font-family="sans-serif" font-size="14" lengthAdjust="spacing" textLength="160.6172" x="855.3848" y="110.5117">(target repo, read-only)</text></g><g class="participant participant-tail" data-entity-uid="part4" data-qualified-name="Target" data-source-line="21" id="part4-tail"><rect fill="#E2E2F0" height="46.9766" rx="2.5" ry="2.5" style="stroke:#181818;stroke-width:0.5;" width="174.6172" x="848.3848" y="1065.9102"/><text fill="#000000" font-family="sans-serif" font-size="14" lengthAdjust="spacing" textLength="126.4922" x="872.4473" y="1086.4453">../atlas-ate-server</text><text fill="#000000" font-family="sans-serif" font-size="14" lengthAdjust="spacing" textLength="160.6172" x="855.3848" y="1102.9336">(target repo, read-only)</text></g><g class="participant participant-head" data-entity-uid="part5" data-qualified-name="Store" data-source-line="22" id="part5-head"><text fill="#000000" font-family="sans-serif" font-size="14" lengthAdjust="spacing" textLength="95.1904" x="1064.2559" y="102.0234">.mdd/deploy/</text><text fill="#000000" font-family="sans-serif" font-size="14" lengthAdjust="spacing" textLength="157.6982" x="1033.002" y="118.5117">azure-container-apps/</text><path d="M1096.8511,52.4883 C1096.8511,42.4883 1114.8511,42.4883 1114.8511,42.4883 C1114.8511,42.4883 1132.8511,42.4883 1132.8511,52.4883 L1132.8511,78.4883 C1132.8511,88.4883 1114.8511,88.4883 1114.8511,88.4883 C1114.8511,88.4883 1096.8511,88.4883 1096.8511,78.4883 L1096.8511,52.4883" fill="#E2E2F0" style="stroke:#181818;stroke-width:0.5;"/><path d="M1096.8511,52.4883 C1096.8511,62.4883 1114.8511,62.4883 1114.8511,62.4883 C1114.8511,62.4883 1132.8511,62.4883 1132.8511,52.4883" fill="none" style="stroke:#181818;stroke-width:0.5;"/></g><g class="participant participant-tail" data-entity-uid="part5" data-qualified-name="Store" data-source-line="22" id="part5-tail"><text fill="#000000" font-family="sans-serif" font-size="14" lengthAdjust="spacing" textLength="95.1904" x="1064.2559" y="1079.4453">.mdd/deploy/</text><text fill="#000000" font-family="sans-serif" font-size="14" lengthAdjust="spacing" textLength="157.6982" x="1033.002" y="1095.9336">azure-container-apps/</text><path d="M1096.8511,1108.8867 C1096.8511,1098.8867 1114.8511,1098.8867 1114.8511,1098.8867 C1114.8511,1098.8867 1132.8511,1098.8867 1132.8511,1108.8867 L1132.8511,1134.8867 C1132.8511,1144.8867 1114.8511,1144.8867 1114.8511,1144.8867 C1114.8511,1144.8867 1096.8511,1144.8867 1096.8511,1134.8867 L1096.8511,1108.8867" fill="#E2E2F0" style="stroke:#181818;stroke-width:0.5;"/><path d="M1096.8511,1108.8867 C1096.8511,1118.8867 1114.8511,1118.8867 1114.8511,1118.8867 C1114.8511,1118.8867 1132.8511,1118.8867 1132.8511,1108.8867" fill="none" style="stroke:#181818;stroke-width:0.5;"/></g><g class="participant participant-head" data-entity-uid="part6" data-qualified-name="Infra" data-source-line="23" id="part6-head"><rect fill="#E2E2F0" height="46.9766" rx="2.5" ry="2.5" style="stroke:#181818;stroke-width:0.5;" width="174.8564" x="1206.7002" y="73.4883"/><text fill="#000000" font-family="sans-serif" font-size="14" lengthAdjust="spacing" textLength="133.834" x="1227.2114" y="94.0234">../atlas-ate-server/</text><text fill="#000000" font-family="sans-serif" font-size="14" lengthAdjust="spacing" textLength="160.8564" x="1213.7002" y="110.5117">infra/ (generated Bicep)</text></g><g class="participant participant-tail" data-entity-uid="part6" data-qualified-name="Infra" data-source-line="23" id="part6-tail"><rect fill="#E2E2F0" height="46.9766" rx="2.5" ry="2.5" style="stroke:#181818;stroke-width:0.5;" width="174.8564" x="1206.7002" y="1065.9102"/><text fill="#000000" font-family="sans-serif" font-size="14" lengthAdjust="spacing" textLength="133.834" x="1227.2114" y="1086.4453">../atlas-ate-server/</text><text fill="#000000" font-family="sans-serif" font-size="14" lengthAdjust="spacing" textLength="160.8564" x="1213.7002" y="1102.9336">infra/ (generated Bicep)</text></g><g class="participant participant-head" data-entity-uid="part7" data-qualified-name="Render" data-source-line="24" id="part7-head"><rect fill="#E2E2F0" height="30.4883" rx="2.5" ry="2.5" style="stroke:#181818;stroke-width:0.5;" width="104.6924" x="1391.5566" y="89.9766"/><text fill="#000000" font-family="sans-serif" font-size="14" lengthAdjust="spacing" textLength="90.6924" x="1398.5566" y="110.5117">/mdd-render</text></g><g class="participant participant-tail" data-entity-uid="part7" data-qualified-name="Render" data-source-line="24" id="part7-tail"><rect fill="#E2E2F0" height="30.4883" rx="2.5" ry="2.5" style="stroke:#181818;stroke-width:0.5;" width="104.6924" x="1391.5566" y="1065.9102"/><text fill="#000000" font-family="sans-serif" font-size="14" lengthAdjust="spacing" textLength="90.6924" x="1398.5566" y="1086.4453">/mdd-render</text></g><g class="participant participant-head" data-entity-uid="part8" data-qualified-name="Rendered" data-source-line="25" id="part8-head"><text fill="#000000" font-family="sans-serif" font-size="14" lengthAdjust="spacing" textLength="163.7002" x="1656.002" y="118.5117">.mdd/rendered/deploy/</text><path d="M1722.8521,68.9766 C1722.8521,58.9766 1740.8521,58.9766 1740.8521,58.9766 C1740.8521,58.9766 1758.8521,58.9766 1758.8521,68.9766 L1758.8521,94.9766 C1758.8521,104.9766 1740.8521,104.9766 1740.8521,104.9766 C1740.8521,104.9766 1722.8521,104.9766 1722.8521,94.9766 L1722.8521,68.9766" fill="#E2E2F0" style="stroke:#181818;stroke-width:0.5;"/><path d="M1722.8521,68.9766 C1722.8521,78.9766 1740.8521,78.9766 1740.8521,78.9766 C1740.8521,78.9766 1758.8521,78.9766 1758.8521,68.9766" fill="none" style="stroke:#181818;stroke-width:0.5;"/></g><g class="participant participant-tail" data-entity-uid="part8" data-qualified-name="Rendered" data-source-line="25" id="part8-tail"><text fill="#000000" font-family="sans-serif" font-size="14" lengthAdjust="spacing" textLength="163.7002" x="1656.002" y="1079.4453">.mdd/rendered/deploy/</text><path d="M1722.8521,1092.3984 C1722.8521,1082.3984 1740.8521,1082.3984 1740.8521,1082.3984 C1740.8521,1082.3984 1758.8521,1082.3984 1758.8521,1092.3984 L1758.8521,1118.3984 C1758.8521,1128.3984 1740.8521,1128.3984 1740.8521,1128.3984 C1740.8521,1128.3984 1722.8521,1128.3984 1722.8521,1118.3984 L1722.8521,1092.3984" fill="#E2E2F0" style="stroke:#181818;stroke-width:0.5;"/><path d="M1722.8521,1092.3984 C1722.8521,1102.3984 1740.8521,1102.3984 1740.8521,1102.3984 C1740.8521,1102.3984 1758.8521,1102.3984 1758.8521,1092.3984" fill="none" style="stroke:#181818;stroke-width:0.5;"/></g><rect fill="#EEEEEE" height="3" style="stroke:#EEEEEE;stroke-width:1;" width="1830.7021" x="0" y="152.1201"/><line style="stroke:#000000;stroke-width:1;" x1="0" x2="1830.7021" y1="152.1201" y2="152.1201"/><line style="stroke:#000000;stroke-width:1;" x1="0" x2="1830.7021" y1="155.1201" y2="155.1201"/><rect fill="#EEEEEE" height="23.3105" style="stroke:#000000;stroke-width:2;" width="184.625" x="823.0386" y="141.4648"/><text fill="#000000" font-family="sans-serif" font-size="13" font-weight="700" lengthAdjust="spacing" textLength="166.3403" x="829.0386" y="158.0332">SEQ-DEPLOY-GUIDANCE</text><g class="message" data-entity-1="part1" data-entity-2="part2" data-source-line="28" id="msg1"><polygon fill="#181818" points="440.2397,192.0859,450.2397,196.0859,440.2397,200.0859,444.2397,196.0859" style="stroke:#181818;stroke-width:1;"/><line style="stroke:#181818;stroke-width:1;" x1="63.2559" x2="446.2397" y1="196.0859" y2="196.0859"/><text fill="#000000" font-family="sans-serif" font-size="13" lengthAdjust="spacing" textLength="258.9717" x="70.2559" y="191.3438">/mdd-deploy &lt;deployment description&gt;</text></g><path d="M10,211.0859 L72.1387,211.0859 L72.1387,218.3965 L62.1387,228.3965 L10,228.3965 L10,211.0859" fill="#EEEEEE" style="stroke:#000000;stroke-width:1.5;"/><rect fill="none" height="597.0293" style="stroke:#000000;stroke-width:1.5;" width="1381.5566" x="10" y="211.0859"/><text fill="#000000" font-family="sans-serif" font-size="13" font-weight="700" lengthAdjust="spacing" textLength="17.1387" x="25" y="224.6543">alt</text><text fill="#000000" font-family="sans-serif" font-size="11" font-weight="700" lengthAdjust="spacing" textLength="187.9131" x="87.1387" y="223.7207">[target != azure-container-apps]</text><g class="message" data-entity-1="part2" data-entity-2="part1" data-source-line="30" id="msg2"><polygon fill="#181818" points="74.2559,245.707,64.2559,249.707,74.2559,253.707,70.2559,249.707" style="stroke:#181818;stroke-width:1;"/><line style="stroke:#181818;stroke-width:1;stroke-dasharray:2,2;" x1="68.2559" x2="451.2397" y1="249.707" y2="249.707"/><text fill="#000000" font-family="sans-serif" font-size="13" lengthAdjust="spacing" textLength="364.9839" x="80.2559" y="244.9648">not yet supported (v1 = azure-container-apps only); stop</text></g><line style="stroke:#000000;stroke-width:1;stroke-dasharray:2,2;" x1="10" x2="1391.5566" y1="258.707" y2="258.707"/><text fill="#000000" font-family="sans-serif" font-size="11" font-weight="700" lengthAdjust="spacing" textLength="193.2144" x="15" y="269.3418">[target == azure-container-apps]</text><g class="message" data-entity-1="part2" data-entity-2="part3" data-source-line="32" id="msg3"><polygon fill="#181818" points="733.1392,289.9727,743.1392,293.9727,733.1392,297.9727,737.1392,293.9727" style="stroke:#181818;stroke-width:1;"/><line style="stroke:#181818;stroke-width:1;" x1="452.2397" x2="739.1392" y1="293.9727" y2="293.9727"/><text fill="#000000" font-family="sans-serif" font-size="13" lengthAdjust="spacing" textLength="268.8994" x="459.2397" y="289.2305">read components + use-cases (the "what")</text></g><g class="message" data-entity-1="part2" data-entity-2="part4" data-source-line="33" id="msg4"><polygon fill="#181818" points="923.6934,334.5938,933.6934,338.5938,923.6934,342.5938,927.6934,338.5938" style="stroke:#181818;stroke-width:1;"/><line style="stroke:#181818;stroke-width:1;" x1="452.2397" x2="929.6934" y1="338.5938" y2="338.5938"/><text fill="#000000" font-family="sans-serif" font-size="13" lengthAdjust="spacing" textLength="303.0244" x="459.2397" y="318.541">read README, Dockerfile, docker-compose.yml,</text><text fill="#000000" font-family="sans-serif" font-size="13" lengthAdjust="spacing" textLength="199.6084" x="459.2397" y="333.8516">.env.example, src (READ-ONLY)</text></g><path d="M20,353.5938 L87.1851,353.5938 L87.1851,360.9043 L77.1851,370.9043 L20,370.9043 L20,353.5938" fill="#EEEEEE" style="stroke:#000000;stroke-width:1.5;"/><rect fill="none" height="126.5527" style="stroke:#000000;stroke-width:1.5;" width="756.0884" x="20" y="353.5938"/><text fill="#000000" font-family="sans-serif" font-size="13" font-weight="700" lengthAdjust="spacing" textLength="22.1851" x="35" y="367.1621">opt</text><text fill="#000000" font-family="sans-serif" font-size="11" font-weight="700" lengthAdjust="spacing" textLength="287.8853" x="102.1851" y="366.2285">[topology or security choice genuinely ambiguous]</text><g class="message" data-entity-1="part2" data-entity-2="part1" data-source-line="35" id="msg5"><polygon fill="#181818" points="74.2559,388.2148,64.2559,392.2148,74.2559,396.2148,70.2559,392.2148" style="stroke:#181818;stroke-width:1;"/><line style="stroke:#181818;stroke-width:1;" x1="68.2559" x2="451.2397" y1="392.2148" y2="392.2148"/><text fill="#000000" font-family="sans-serif" font-size="13" lengthAdjust="spacing" textLength="157.6821" x="80.2559" y="387.4727">ask clarifying question(s)</text></g><g class="message" data-entity-1="part1" data-entity-2="part2" data-source-line="36" id="msg6"><polygon fill="#181818" points="440.2397,417.5254,450.2397,421.5254,440.2397,425.5254,444.2397,421.5254" style="stroke:#181818;stroke-width:1;"/><line style="stroke:#181818;stroke-width:1;stroke-dasharray:2,2;" x1="63.2559" x2="446.2397" y1="421.5254" y2="421.5254"/><text fill="#000000" font-family="sans-serif" font-size="13" lengthAdjust="spacing" textLength="44.4526" x="70.2559" y="416.7832">answer</text></g><path d="M457,434.5254 L457,474.5254 L766,474.5254 L766,444.5254 L756,434.5254 L457,434.5254" fill="#FEFFDD" style="stroke:#181818;stroke-width:0.5;"/><path d="M756,434.5254 L756,444.5254 L766,444.5254 L756,434.5254" fill="#FEFFDD" style="stroke:#181818;stroke-width:0.5;"/><text fill="#000000" font-family="sans-serif" font-size="13" lengthAdjust="spacing" textLength="288.0884" x="463" y="452.0938">Mandatory pause. The skill NEVER guesses an</text><text fill="#000000" font-family="sans-serif" font-size="13" lengthAdjust="spacing" textLength="246.5303" x="463" y="467.4043">ambiguous topology/security decision.</text><g class="message" data-entity-1="part2" data-entity-2="part5" data-source-line="42" id="msg7"><polygon fill="#181818" points="1102.8511,519.7676,1112.8511,523.7676,1102.8511,527.7676,1106.8511,523.7676" style="stroke:#181818;stroke-width:1;"/><line style="stroke:#181818;stroke-width:1;" x1="452.2397" x2="1108.8511" y1="523.7676" y2="523.7676"/><text fill="#000000" font-family="sans-serif" font-size="13" lengthAdjust="spacing" textLength="297.5591" x="459.2397" y="503.7148">write diagram.puml (UML deployment diagram;</text><text fill="#000000" font-family="sans-serif" font-size="13" lengthAdjust="spacing" textLength="263.9482" x="459.2397" y="519.0254">documentation-only security stereotypes)</text></g><g class="message" data-entity-1="part2" data-entity-2="part6" data-source-line="43" id="msg8"><polygon fill="#181818" points="1282.1284,579.6992,1292.1284,583.6992,1282.1284,587.6992,1286.1284,583.6992" style="stroke:#181818;stroke-width:1;"/><line style="stroke:#181818;stroke-width:1;" x1="452.2397" x2="1288.1284" y1="583.6992" y2="583.6992"/><text fill="#000000" font-family="sans-serif" font-size="13" lengthAdjust="spacing" textLength="249.7041" x="459.2397" y="548.3359">generate infra/main.bicep (+ modules):</text><text fill="#000000" font-family="sans-serif" font-size="13" lengthAdjust="spacing" textLength="335.0737" x="459.2397" y="563.6465">Container Apps, ACR, Azure DB for PostgreSQL (TLS),</text><text fill="#000000" font-family="sans-serif" font-size="13" lengthAdjust="spacing" textLength="328.1992" x="459.2397" y="578.957">Key Vault + secret refs, ingress 8080, migration job</text></g><g class="message" data-entity-1="part2" data-entity-2="part5" data-source-line="44" id="msg9"><polygon fill="#181818" points="1102.8511,639.6309,1112.8511,643.6309,1102.8511,647.6309,1106.8511,643.6309" style="stroke:#181818;stroke-width:1;"/><line style="stroke:#181818;stroke-width:1;" x1="452.2397" x2="1108.8511" y1="643.6309" y2="643.6309"/><text fill="#000000" font-family="sans-serif" font-size="13" lengthAdjust="spacing" textLength="336.1021" x="459.2397" y="608.2676">write runbook.md (numbered steps; exact command,</text><text fill="#000000" font-family="sans-serif" font-size="13" lengthAdjust="spacing" textLength="348.7466" x="459.2397" y="623.5781">location, env/secret; STOP before every state-changing</text><text fill="#000000" font-family="sans-serif" font-size="13" lengthAdjust="spacing" textLength="300.7139" x="459.2397" y="638.8887">or go-live step incl. the billing production gate)</text></g><path d="M457,656.6309 L457,757.6309 L775,757.6309 L775,666.6309 L765,656.6309 L457,656.6309" fill="#FEFFDD" style="stroke:#181818;stroke-width:0.5;"/><path d="M765,656.6309 L765,666.6309 L775,666.6309 L765,656.6309" fill="#FEFFDD" style="stroke:#181818;stroke-width:0.5;"/><text fill="#000000" font-family="sans-serif" font-size="13" lengthAdjust="spacing" textLength="291.0591" x="463" y="674.1992">Enforces every atlas-ate-server invariant from</text><text fill="#000000" font-family="sans-serif" font-size="13" lengthAdjust="spacing" textLength="295.585" x="463" y="689.5098">.mdd/docs/deploy-profile.md: Key-Vault-only</text><text fill="#000000" font-family="sans-serif" font-size="13" lengthAdjust="spacing" textLength="297.9019" x="463" y="704.8203">secrets, App Attest required, billing production</text><text fill="#000000" font-family="sans-serif" font-size="13" lengthAdjust="spacing" textLength="267.4077" x="463" y="720.1309">multi-factor gate, BYOK never touches the</text><text fill="#000000" font-family="sans-serif" font-size="13" lengthAdjust="spacing" textLength="291.478" x="463" y="735.4414">server, DB TLS + at-rest, pre-traffic migration</text><text fill="#000000" font-family="sans-serif" font-size="13" lengthAdjust="spacing" textLength="161.8271" x="463" y="750.752">job, non-root, port 8080.</text><g class="message" data-entity-1="part2" data-entity-2="part1" data-source-line="53" id="msg10"><polygon fill="#181818" points="74.2559,796.1152,64.2559,800.1152,74.2559,804.1152,70.2559,800.1152" style="stroke:#181818;stroke-width:1;"/><line style="stroke:#181818;stroke-width:1;stroke-dasharray:2,2;" x1="68.2559" x2="451.2397" y1="800.1152" y2="800.1152"/><text fill="#000000" font-family="sans-serif" font-size="13" lengthAdjust="spacing" textLength="246.2256" x="80.2559" y="780.0625">report written files; review the diagram</text><text fill="#000000" font-family="sans-serif" font-size="13" lengthAdjust="spacing" textLength="317.6812" x="80.2559" y="795.373">and run the runbook yourself. Executes NOTHING.</text></g><rect fill="#EEEEEE" height="3" style="stroke:#EEEEEE;stroke-width:1;" width="1830.7021" x="0" y="835.7705"/><line style="stroke:#000000;stroke-width:1;" x1="0" x2="1830.7021" y1="835.7705" y2="835.7705"/><line style="stroke:#000000;stroke-width:1;" x1="0" x2="1830.7021" y1="838.7705" y2="838.7705"/><rect fill="#EEEEEE" height="23.3105" style="stroke:#000000;stroke-width:2;" width="169.8477" x="830.4272" y="825.1152"/><text fill="#000000" font-family="sans-serif" font-size="13" font-weight="700" lengthAdjust="spacing" textLength="151.563" x="836.4272" y="841.6836">SEQ-DEPLOY-INSPECT</text><g class="message" data-entity-1="part1" data-entity-2="part7" data-source-line="57" id="msg11"><polygon fill="#181818" points="1431.9028,875.7363,1441.9028,879.7363,1431.9028,883.7363,1435.9028,879.7363" style="stroke:#181818;stroke-width:1;"/><line style="stroke:#181818;stroke-width:1;" x1="63.2559" x2="1437.9028" y1="879.7363" y2="879.7363"/><text fill="#000000" font-family="sans-serif" font-size="13" lengthAdjust="spacing" textLength="84.2144" x="70.2559" y="874.9941">/mdd-render</text></g><g class="message" data-entity-1="part7" data-entity-2="part5" data-source-line="58" id="msg12"><polygon fill="#181818" points="1125.8511,905.0469,1115.8511,909.0469,1125.8511,913.0469,1121.8511,909.0469" style="stroke:#181818;stroke-width:1;"/><line style="stroke:#181818;stroke-width:1;" x1="1119.8511" x2="1442.9028" y1="909.0469" y2="909.0469"/><text fill="#000000" font-family="sans-serif" font-size="13" lengthAdjust="spacing" textLength="182.2983" x="1131.8511" y="904.3047">read .mdd/deploy/**/*.puml</text></g><g class="message" data-entity-1="part7" data-entity-2="part8" data-source-line="59" id="msg13"><polygon fill="#181818" points="1728.8521,949.668,1738.8521,953.668,1728.8521,957.668,1732.8521,953.668" style="stroke:#181818;stroke-width:1;"/><line style="stroke:#181818;stroke-width:1;" x1="1443.9028" x2="1734.8521" y1="953.668" y2="953.668"/><text fill="#000000" font-family="sans-serif" font-size="13" lengthAdjust="spacing" textLength="238.5068" x="1450.9028" y="933.6152">write .mdd/rendered/deploy/**/*.svg</text><text fill="#000000" font-family="sans-serif" font-size="13" lengthAdjust="spacing" textLength="272.9492" x="1450.9028" y="948.9258">(deterministic mirror; additive, non-gating)</text></g><g class="message" data-entity-1="part7" data-entity-2="part1" data-source-line="60" id="msg14"><polygon fill="#181818" points="74.2559,978.9785,64.2559,982.9785,74.2559,986.9785,70.2559,982.9785" style="stroke:#181818;stroke-width:1;"/><line style="stroke:#181818;stroke-width:1;stroke-dasharray:2,2;" x1="68.2559" x2="1442.9028" y1="982.9785" y2="982.9785"/><text fill="#000000" font-family="sans-serif" font-size="13" lengthAdjust="spacing" textLength="108.9258" x="80.2559" y="978.2363">rendered SVG list</text></g><path d="M947,995.9785 L947,1050.9785 L1280,1050.9785 L1280,1005.9785 L1270,995.9785 L947,995.9785" fill="#FEFFDD" style="stroke:#181818;stroke-width:0.5;"/><path d="M1270,995.9785 L1270,1005.9785 L1280,1005.9785 L1270,995.9785" fill="#FEFFDD" style="stroke:#181818;stroke-width:0.5;"/><text fill="#000000" font-family="sans-serif" font-size="13" lengthAdjust="spacing" textLength="275.1138" x="953" y="1013.5469">.mdd/deploy/ is an inspection artifact only.</text><text fill="#000000" font-family="sans-serif" font-size="13" lengthAdjust="spacing" textLength="312.9966" x="953" y="1028.8574">/mdd-validate, /mdd-review and the /mdd-cycle</text><text fill="#000000" font-family="sans-serif" font-size="13" lengthAdjust="spacing" textLength="155.7144" x="953" y="1044.168">parity loop never read it.</text><?plantuml-src bLVBRjj65DtpAswzYPo8bBjg8DT174j8ZTYMOpa10XW8HkH8cfYSOMU6SfHLFw9Vs2_fkJFKCsg2Uc58v7sUSrzwHccQqjFSb3AjH4srDGkfXSvbd_9bNahoS-59QMzDqUIo82doERrM1Iicp-XraEgCX-_JmV3sQlGfVVlXSd1-Sp7iqid9oM_71sKkRyQtmulxBH5L7B9nu5Mh6jvOEUry60yFQkszswZXvKLZhTG-TQgGP1ljLILfMfed4evKLPUomciagpHvYU_2IzVlNmy6dwEvp-DtbrTNi2Hq0OGaoQzUwW8QU-9tmvl1y2wAPtGFIVUeof8cfbYISgmBA_Ahp1il9e0xDu1Qv3vO5JE4GLDJ8ZHtIihJarMmJS9wDOMK2m48c40M4sCULm5f6j-FRiVqprz_irfq04Ljg91rQPQS89nL5HIo0ChhGhhyC957v_y7bZvP-KKY1MrqAhurLgQSbL1QsbJKDR8MTYQzwq9G59HLHT6hJ25BHoyeoth2byAbC9uwQHVI1h7Kw7BPfLeqJfBH9Ag9cZNAura09Pg9oVKEUUqLIioigBAwgSek0Lff1Ujzxx2dzDIANWNbRA9oMQzyC2aCR3eJZ4CBEZntIUgfiJag0VhB5kGKxJHLO5NfXR1AQD-Dv5XP6-i3MIqr0ClFbPvbHyU7k5WtpC-fs2uvSbxMzB9FFO2JMYvHe2dmrAflA8SOx3Popv_tdWU4o1jKZaCc4AwKLiwhF8f6Et9NnorcL2bhZStel2YKLmlP3IK0hDh4lF808yGILGaC5Znj0XHAknfrey1k9uyjUfmaA7DZwMXKCrt67d6FZkgavXx8LGrGwMZBv8FkD5wLA8pOQiT1OI3tDBQAhlUWqGYrqV375OW2ItFXf0kQrq5cJ_dxae7RMDM1s-wcPAF_-_0kAGIw7APR_or-3_fWlGR5CLAMF_KE4x5agREgwuBUSEL6zvVyyW1aaSaWSXS-xaUuJ_MMg2oIvEoC3WmCEZjBHZMbhnXswkyG_llM-E4YjwfcmbybelJjNA1VpkWG80a5UodiZjWiEeQM47TDpTs4Z3kBN-cmBWKgJj4Ffax0frpvElknhrSj_zIFi-fmeL271yFH4rObgdoj6abVgTuDpmVN6AO3apzAosEXIqNud0QhJcPB3AO7dKczoEHNmLtU9MTpwh1kEhgv-iJMJGsaJ6rACriIMiDXW5YkztnkG3bFjWQ9bCjsHfg6qrb75R0Jxf7o4ZDfkaHlqf-DT4n3nnq7qL64ET8dj7j2PV1pG8w5gMPpJsOQceh2tpNQbvjp6UVpzgQx6NuStg7FfMEWX6urrg6jK-cjyoXahXoYoO8iYYtuJSB73RgXCn1UdCpRmvqw7wwljlTS-_BqGGFmXXy9pZRqvmO-dehI-6KjtHQ9eNNWPhqlzdS3TLuG1abJGgt_e2zMTKJdgACkdL_SuH-N60tUO9TRkZNEpwmSlx-YpltL-1YKlvDB-YWQjC0BZiU6CJA5DiYnG8vUdhmywMA-8eqm7x-OoNyXiLbArD5DDU5E3Ni05mIgAb-lVVWjJHxiyVfQzABdqx3XQ2AdR3Lk2ETvrkHpeMU8w44ZYvb9Iupuk66KpiiiRCS9EEUAgiEz66BbNSc07YwUOToRgrtqtUvVhqwQMbC5bJWxJUvwksiMp_i4ADC0PM0toCUyc8kwfdEFJSdm_jae8DCz475Ggc12fTEuVJY5BhtvD7f7ckD4qJRvNCRxBRhWOBjCCIW5Yy9Zk3hi-ngp1HVTT8hjkUOlw833k22jCIp85m7pd2KxHRypyzh3WPd6mKcSDMYrSg7aKy2_BNMi51tka_1mTHmkJMETBASP3LS7uSte_e_BcxTPmhsrDy_ResCppkFWfvrp8caVRjNXvghRFogsX5TBP5stFpmji5vt3v5uQfoIE71g7A_TR61hdOq_lgKI5f8aLADXBkEAfPs8-JONUliYMPtSOPCmHG63XIXnm71nj9048bQ_2iApyEC7yjY-F6LAO-gsY09EoWVi0zl_0W00?></g></svg>