<svg xmlns="http://www.w3.org/2000/svg" xmlns:xlink="http://www.w3.org/1999/xlink" contentStyleType="text/css" data-diagram-type="SEQUENCE" height="873px" preserveAspectRatio="none" style="width:1353px;height:873px;background:#FFFFFF;" version="1.1" viewBox="0 0 1353 873" width="1353px" zoomAndPan="magnify"><?plantuml 1.2026.3?><defs/><g><g class="title" data-source-line="11"><text fill="#000000" font-family="sans-serif" font-size="14" font-weight="700" lengthAdjust="spacing" textLength="263.8809" x="541.5159" y="28.5352">View an OCL constraint file (current)</text></g><rect fill="none" height="347.6367" style="stroke:#000000;stroke-width:1.5;" width="1327.9126" x="10" y="327.3281"/><rect fill="none" height="61.9316" style="stroke:#000000;stroke-width:1.5;" width="528.2378" x="30" y="351.6387"/><rect fill="none" height="196.1289" style="stroke:#000000;stroke-width:1.5;" width="1307.9126" x="20" y="471.8359"/><rect fill="none" height="75.9316" style="stroke:#000000;stroke-width:1.5;" width="1287.9126" x="30" y="525.457"/><g class="participant-lifeline" data-entity-uid="part1" data-qualified-name="Dev" data-source-line="13" id="part1-lifeline"><g><title>Developer</title><rect fill="#000000" fill-opacity="0.00000" height="667.0527" width="8" x="73.1592" y="121.4648"/><line style="stroke:#181818;stroke-width:0.5;stroke-dasharray:5,5;" x1="77" x2="77" y1="121.4648" y2="788.5176"/></g></g><g class="participant-lifeline" data-entity-uid="part2" data-qualified-name="Viewer" data-source-line="14" id="part2-lifeline"><g><title>MddViewer..update</title><rect fill="#000000" fill-opacity="0.00000" height="667.0527" width="8" x="259.4751" y="121.4648"/><line style="stroke:#181818;stroke-width:0.5;stroke-dasharray:5,5;" x1="263.0073" x2="263.0073" y1="121.4648" y2="788.5176"/></g></g><g class="participant-lifeline" data-entity-uid="part3" data-qualified-name="OV" data-source-line="15" id="part3-lifeline"><g><title>MddViewer..ocl_ui</title><rect fill="#000000" fill-opacity="0.00000" height="667.0527" width="8" x="470.7856" y="121.4648"/><line style="stroke:#181818;stroke-width:0.5;stroke-dasharray:5,5;" x1="474.3335" x2="474.3335" y1="121.4648" y2="788.5176"/></g></g><g class="participant-lifeline" data-entity-uid="part4" data-qualified-name="Ocl" data-source-line="16" id="part4-lifeline"><g><title>.mdd.constraints.</title><rect fill="#000000" fill-opacity="0.00000" height="667.0527" width="8" x="711.6597" y="121.4648"/><line style="stroke:#181818;stroke-width:0.5;stroke-dasharray:5,5;" x1="715.0562" x2="715.0562" y1="121.4648" y2="788.5176"/></g></g><g class="participant-lifeline" data-entity-uid="part5" data-qualified-name="Rend" data-source-line="17" id="part5-lifeline"><g><title>mdd_render..</title><rect fill="#000000" fill-opacity="0.00000" height="667.0527" width="8" x="864.9434" y="121.4648"/><line style="stroke:#181818;stroke-width:0.5;stroke-dasharray:5,5;" x1="868.2632" x2="868.2632" y1="121.4648" y2="788.5176"/></g></g><g class="participant-lifeline" data-entity-uid="part6" data-qualified-name="Out" data-source-line="18" id="part6-lifeline"><g><title>.mdd.rendered.constraints.</title><rect fill="#000000" fill-opacity="0.00000" height="667.0527" width="8" x="1052.4819" y="121.4648"/><line style="stroke:#181818;stroke-width:0.5;stroke-dasharray:5,5;" x1="1055.6235" x2="1055.6235" y1="121.4648" y2="788.5176"/></g></g><g class="participant-lifeline" data-entity-uid="part7" data-qualified-name="Page" data-source-line="19" id="part7-lifeline"><g><title>DiagramPage..load</title><rect fill="#000000" fill-opacity="0.00000" height="667.0527" width="8" x="1233.1265" y="121.4648"/><line style="stroke:#181818;stroke-width:0.5;stroke-dasharray:5,5;" x1="1236.3403" x2="1236.3403" y1="121.4648" y2="788.5176"/></g></g><g class="participant participant-head" data-entity-uid="part1" data-qualified-name="Dev" data-source-line="13" id="part1-head"><text fill="#000000" font-family="sans-serif" font-size="14" lengthAdjust="spacing" textLength="68.3184" x="40" y="118.5117">Developer</text><ellipse cx="77.1592" cy="53.4766" fill="#E2E2F0" rx="8" ry="8" style="stroke:#181818;stroke-width:0.5;"/><path d="M77.1592,61.4766 L77.1592,88.4766 M64.1592,69.4766 L90.1592,69.4766 M77.1592,88.4766 L64.1592,103.4766 M77.1592,88.4766 L90.1592,103.4766" fill="none" style="stroke:#181818;stroke-width:0.5;"/></g><g class="participant participant-tail" data-entity-uid="part1" data-qualified-name="Dev" data-source-line="13" id="part1-tail"><text fill="#000000" font-family="sans-serif" font-size="14" lengthAdjust="spacing" textLength="68.3184" x="40" y="801.0527">Developer</text><ellipse cx="77.1592" cy="812.5059" fill="#E2E2F0" rx="8" ry="8" style="stroke:#181818;stroke-width:0.5;"/><path d="M77.1592,820.5059 L77.1592,847.5059 M64.1592,828.5059 L90.1592,828.5059 M77.1592,847.5059 L64.1592,862.5059 M77.1592,847.5059 L90.1592,862.5059" fill="none" style="stroke:#181818;stroke-width:0.5;"/></g><g class="participant participant-head" data-entity-uid="part2" data-qualified-name="Viewer" data-source-line="14" id="part2-head"><rect fill="#E2E2F0" height="46.9766" rx="2.5" ry="2.5" style="stroke:#181818;stroke-width:0.5;" width="144.9355" x="191.0073" y="73.4883"/><text fill="#000000" font-family="sans-serif" font-size="14" lengthAdjust="spacing" textLength="130.9355" x="198.0073" y="94.0234">MddViewer::update</text><text fill="#000000" font-family="sans-serif" font-size="14" lengthAdjust="spacing" textLength="92.5244" x="217.2129" y="110.5117">(eframe::App)</text></g><g class="participant participant-tail" data-entity-uid="part2" data-qualified-name="Viewer" data-source-line="14" id="part2-tail"><rect fill="#E2E2F0" height="46.9766" rx="2.5" ry="2.5" style="stroke:#181818;stroke-width:0.5;" width="144.9355" x="191.0073" y="787.5176"/><text fill="#000000" font-family="sans-serif" font-size="14" lengthAdjust="spacing" textLength="130.9355" x="198.0073" y="808.0527">MddViewer::update</text><text fill="#000000" font-family="sans-serif" font-size="14" lengthAdjust="spacing" textLength="92.5244" x="217.2129" y="824.541">(eframe::App)</text></g><g class="participant participant-head" data-entity-uid="part3" data-qualified-name="OV" data-source-line="15" id="part3-head"><rect fill="#E2E2F0" height="46.9766" rx="2.5" ry="2.5" style="stroke:#181818;stroke-width:0.5;" width="146.9043" x="401.3335" y="73.4883"/><text fill="#000000" font-family="sans-serif" font-size="14" lengthAdjust="spacing" textLength="123.4092" x="413.0811" y="94.0234">MddViewer::ocl_ui</text><text fill="#000000" font-family="sans-serif" font-size="14" lengthAdjust="spacing" textLength="132.9043" x="408.3335" y="110.5117">OclView{sub_mode}</text></g><g class="participant participant-tail" data-entity-uid="part3" data-qualified-name="OV" data-source-line="15" id="part3-tail"><rect fill="#E2E2F0" height="46.9766" rx="2.5" ry="2.5" style="stroke:#181818;stroke-width:0.5;" width="146.9043" x="401.3335" y="787.5176"/><text fill="#000000" font-family="sans-serif" font-size="14" lengthAdjust="spacing" textLength="123.4092" x="413.0811" y="808.0527">MddViewer::ocl_ui</text><text fill="#000000" font-family="sans-serif" font-size="14" lengthAdjust="spacing" textLength="132.9043" x="408.3335" y="824.541">OclView{sub_mode}</text></g><g class="participant participant-head" data-entity-uid="part4" data-qualified-name="Ocl" data-source-line="16" id="part4-head"><text fill="#000000" font-family="sans-serif" font-size="14" lengthAdjust="spacing" textLength="125.207" x="650.0562" y="102.0234">.mdd/constraints/</text><text fill="#000000" font-family="sans-serif" font-size="14" lengthAdjust="spacing" textLength="83.7949" x="670.7622" y="118.5117">&lt;name&gt;.ocl</text><path d="M697.6597,52.4883 C697.6597,42.4883 715.6597,42.4883 715.6597,42.4883 C715.6597,42.4883 733.6597,42.4883 733.6597,52.4883 L733.6597,78.4883 C733.6597,88.4883 715.6597,88.4883 715.6597,88.4883 C715.6597,88.4883 697.6597,88.4883 697.6597,78.4883 L697.6597,52.4883" fill="#E2E2F0" style="stroke:#181818;stroke-width:0.5;"/><path d="M697.6597,52.4883 C697.6597,62.4883 715.6597,62.4883 715.6597,62.4883 C715.6597,62.4883 733.6597,62.4883 733.6597,52.4883" fill="none" style="stroke:#181818;stroke-width:0.5;"/></g><g class="participant participant-tail" data-entity-uid="part4" data-qualified-name="Ocl" data-source-line="16" id="part4-tail"><text fill="#000000" font-family="sans-serif" font-size="14" lengthAdjust="spacing" textLength="125.207" x="650.0562" y="801.0527">.mdd/constraints/</text><text fill="#000000" font-family="sans-serif" font-size="14" lengthAdjust="spacing" textLength="83.7949" x="670.7622" y="817.541">&lt;name&gt;.ocl</text><path d="M697.6597,830.4941 C697.6597,820.4941 715.6597,820.4941 715.6597,820.4941 C715.6597,820.4941 733.6597,820.4941 733.6597,830.4941 L733.6597,856.4941 C733.6597,866.4941 715.6597,866.4941 715.6597,866.4941 C715.6597,866.4941 697.6597,866.4941 697.6597,856.4941 L697.6597,830.4941" fill="#E2E2F0" style="stroke:#181818;stroke-width:0.5;"/><path d="M697.6597,830.4941 C697.6597,840.4941 715.6597,840.4941 715.6597,840.4941 C715.6597,840.4941 733.6597,840.4941 733.6597,830.4941" fill="none" style="stroke:#181818;stroke-width:0.5;"/></g><g class="participant participant-head" data-entity-uid="part5" data-qualified-name="Rend" data-source-line="17" id="part5-head"><rect fill="#E2E2F0" height="46.9766" rx="2.5" ry="2.5" style="stroke:#181818;stroke-width:0.5;" width="155.3604" x="791.2632" y="73.4883"/><text fill="#000000" font-family="sans-serif" font-size="14" lengthAdjust="spacing" textLength="91.1094" x="823.3887" y="94.0234">mdd_render::</text><text fill="#000000" font-family="sans-serif" font-size="14" lengthAdjust="spacing" textLength="141.3604" x="798.2632" y="110.5117">render_ocl_diagrams</text></g><g class="participant participant-tail" data-entity-uid="part5" data-qualified-name="Rend" data-source-line="17" id="part5-tail"><rect fill="#E2E2F0" height="46.9766" rx="2.5" ry="2.5" style="stroke:#181818;stroke-width:0.5;" width="155.3604" x="791.2632" y="787.5176"/><text fill="#000000" font-family="sans-serif" font-size="14" lengthAdjust="spacing" textLength="91.1094" x="823.3887" y="808.0527">mdd_render::</text><text fill="#000000" font-family="sans-serif" font-size="14" lengthAdjust="spacing" textLength="141.3604" x="798.2632" y="824.541">render_ocl_diagrams</text></g><g class="participant participant-head" data-entity-uid="part6" data-qualified-name="Out" data-source-line="18" id="part6-head"><text fill="#000000" font-family="sans-serif" font-size="14" lengthAdjust="spacing" textLength="193.7168" x="956.6235" y="102.0234">.mdd/rendered/constraints/</text><text fill="#000000" font-family="sans-serif" font-size="14" lengthAdjust="spacing" textLength="87.0898" x="1009.937" y="118.5117">&lt;name&gt;.svg</text><path d="M1038.4819,52.4883 C1038.4819,42.4883 1056.4819,42.4883 1056.4819,42.4883 C1056.4819,42.4883 1074.4819,42.4883 1074.4819,52.4883 L1074.4819,78.4883 C1074.4819,88.4883 1056.4819,88.4883 1056.4819,88.4883 C1056.4819,88.4883 1038.4819,88.4883 1038.4819,78.4883 L1038.4819,52.4883" fill="#E2E2F0" style="stroke:#181818;stroke-width:0.5;"/><path d="M1038.4819,52.4883 C1038.4819,62.4883 1056.4819,62.4883 1056.4819,62.4883 C1056.4819,62.4883 1074.4819,62.4883 1074.4819,52.4883" fill="none" style="stroke:#181818;stroke-width:0.5;"/></g><g class="participant participant-tail" data-entity-uid="part6" data-qualified-name="Out" data-source-line="18" id="part6-tail"><text fill="#000000" font-family="sans-serif" font-size="14" lengthAdjust="spacing" textLength="193.7168" x="956.6235" y="801.0527">.mdd/rendered/constraints/</text><text fill="#000000" font-family="sans-serif" font-size="14" lengthAdjust="spacing" textLength="87.0898" x="1009.937" y="817.541">&lt;name&gt;.svg</text><path d="M1038.4819,830.4941 C1038.4819,820.4941 1056.4819,820.4941 1056.4819,820.4941 C1056.4819,820.4941 1074.4819,820.4941 1074.4819,830.4941 L1074.4819,856.4941 C1074.4819,866.4941 1056.4819,866.4941 1056.4819,866.4941 C1056.4819,866.4941 1038.4819,866.4941 1038.4819,856.4941 L1038.4819,830.4941" fill="#E2E2F0" style="stroke:#181818;stroke-width:0.5;"/><path d="M1038.4819,830.4941 C1038.4819,840.4941 1056.4819,840.4941 1056.4819,840.4941 C1056.4819,840.4941 1074.4819,840.4941 1074.4819,830.4941" fill="none" style="stroke:#181818;stroke-width:0.5;"/></g><g class="participant participant-head" data-entity-uid="part7" data-qualified-name="Page" data-source-line="19" id="part7-head"><rect fill="#E2E2F0" height="46.9766" rx="2.5" ry="2.5" style="stroke:#181818;stroke-width:0.5;" width="141.5723" x="1166.3403" y="73.4883"/><text fill="#000000" font-family="sans-serif" font-size="14" lengthAdjust="spacing" textLength="127.5723" x="1173.3403" y="94.0234">DiagramPage::load</text><text fill="#000000" font-family="sans-serif" font-size="14" lengthAdjust="spacing" textLength="102.7783" x="1185.7373" y="110.5117">+ paint_canvas</text></g><g class="participant participant-tail" data-entity-uid="part7" data-qualified-name="Page" data-source-line="19" id="part7-tail"><rect fill="#E2E2F0" height="46.9766" rx="2.5" ry="2.5" style="stroke:#181818;stroke-width:0.5;" width="141.5723" x="1166.3403" y="787.5176"/><text fill="#000000" font-family="sans-serif" font-size="14" lengthAdjust="spacing" textLength="127.5723" x="1173.3403" y="808.0527">DiagramPage::load</text><text fill="#000000" font-family="sans-serif" font-size="14" lengthAdjust="spacing" textLength="102.7783" x="1185.7373" y="824.541">+ paint_canvas</text></g><g class="message" data-entity-1="part1" data-entity-2="part2" data-source-line="21" id="msg1"><polygon fill="#181818" points="251.4751,148.7754,261.4751,152.7754,251.4751,156.7754,255.4751,152.7754" style="stroke:#181818;stroke-width:1;"/><line style="stroke:#181818;stroke-width:1;" x1="77.1592" x2="257.4751" y1="152.7754" y2="152.7754"/><text fill="#000000" font-family="sans-serif" font-size="13" lengthAdjust="spacing" textLength="162.3159" x="84.1592" y="148.0332">select a .ocl file in the rail</text></g><g class="message" data-entity-1="part2" data-entity-2="part2" data-source-line="22" id="msg2"><line style="stroke:#181818;stroke-width:1;" x1="263.4751" x2="305.4751" y1="182.0859" y2="182.0859"/><line style="stroke:#181818;stroke-width:1;" x1="305.4751" x2="305.4751" y1="182.0859" y2="195.0859"/><line style="stroke:#181818;stroke-width:1;" x1="264.4751" x2="305.4751" y1="195.0859" y2="195.0859"/><polygon fill="#181818" points="274.4751,191.0859,264.4751,195.0859,274.4751,199.0859,270.4751,195.0859" style="stroke:#181818;stroke-width:1;"/><text fill="#000000" font-family="sans-serif" font-size="13" lengthAdjust="spacing" textLength="197.3105" x="270.4751" y="177.3438">kind == ModelKind::Constraint</text></g><g class="message" data-entity-1="part2" data-entity-2="part3" data-source-line="23" id="msg3"><polygon fill="#181818" points="462.7856,220.3965,472.7856,224.3965,462.7856,228.3965,466.7856,224.3965" style="stroke:#181818;stroke-width:1;"/><line style="stroke:#181818;stroke-width:1;" x1="263.4751" x2="468.7856" y1="224.3965" y2="224.3965"/><text fill="#000000" font-family="sans-serif" font-size="13" lengthAdjust="spacing" textLength="84.7285" x="270.4751" y="219.6543">ocl_ui(ui, ctx)</text></g><g class="message" data-entity-1="part3" data-entity-2="part4" data-source-line="24" id="msg4"><polygon fill="#181818" points="703.6597,249.707,713.6597,253.707,703.6597,257.707,707.6597,253.707" style="stroke:#181818;stroke-width:1;"/><line style="stroke:#181818;stroke-width:1;" x1="474.7856" x2="709.6597" y1="253.707" y2="253.707"/><text fill="#000000" font-family="sans-serif" font-size="13" lengthAdjust="spacing" textLength="216.874" x="481.7856" y="248.9648">read_to_string when loaded != file</text></g><g class="message" data-entity-1="part4" data-entity-2="part3" data-source-line="25" id="msg5"><polygon fill="#181818" points="485.7856,279.0176,475.7856,283.0176,485.7856,287.0176,481.7856,283.0176" style="stroke:#181818;stroke-width:1;"/><line style="stroke:#181818;stroke-width:1;stroke-dasharray:2,2;" x1="479.7856" x2="714.6597" y1="283.0176" y2="283.0176"/><text fill="#000000" font-family="sans-serif" font-size="13" lengthAdjust="spacing" textLength="194.1685" x="491.7856" y="278.2754">OCL source -&gt; OclView.source</text></g><g class="message" data-entity-1="part3" data-entity-2="part1" data-source-line="26" id="msg6"><polygon fill="#181818" points="88.1592,308.3281,78.1592,312.3281,88.1592,316.3281,84.1592,312.3281" style="stroke:#181818;stroke-width:1;"/><line style="stroke:#181818;stroke-width:1;" x1="82.1592" x2="473.7856" y1="312.3281" y2="312.3281"/><text fill="#000000" font-family="sans-serif" font-size="13" lengthAdjust="spacing" textLength="265.6875" x="94.1592" y="307.5859">"Source | Diagram" toggle (default Source)</text></g><path d="M10,327.3281 L72.1387,327.3281 L72.1387,334.6387 L62.1387,344.6387 L10,344.6387 L10,327.3281" fill="#EEEEEE" style="stroke:#000000;stroke-width:1.5;"/><rect fill="none" height="347.6367" style="stroke:#000000;stroke-width:1.5;" width="1327.9126" x="10" y="327.3281"/><text fill="#000000" font-family="sans-serif" font-size="13" font-weight="700" lengthAdjust="spacing" textLength="17.1387" x="25" y="340.8965">alt</text><text fill="#000000" font-family="sans-serif" font-size="11" font-weight="700" lengthAdjust="spacing" textLength="171.4453" x="87.1387" y="339.9629">[sub_mode = Source (default)]</text><path d="M30,351.6387 L104.4468,351.6387 L104.4468,358.9492 L94.4468,368.9492 L30,368.9492 L30,351.6387" fill="#EEEEEE" style="stroke:#000000;stroke-width:1.5;"/><rect fill="none" height="61.9316" style="stroke:#000000;stroke-width:1.5;" width="528.2378" x="30" y="351.6387"/><text fill="#000000" font-family="sans-serif" font-size="13" font-weight="700" lengthAdjust="spacing" textLength="29.4468" x="45" y="365.207">loop</text><text fill="#000000" font-family="sans-serif" font-size="11" font-weight="700" lengthAdjust="spacing" textLength="117.2832" x="119.4468" y="364.2734">[each painted frame]</text><g class="message" data-entity-1="part3" data-entity-2="part1" data-source-line="30" id="msg7"><polygon fill="#181818" points="88.1592,401.5703,78.1592,405.5703,88.1592,409.5703,84.1592,405.5703" style="stroke:#181818;stroke-width:1;"/><line style="stroke:#181818;stroke-width:1;" x1="82.1592" x2="473.7856" y1="405.5703" y2="405.5703"/><text fill="#000000" font-family="sans-serif" font-size="13" lengthAdjust="spacing" textLength="179.7974" x="94.1592" y="385.5176">ScrollArea of read-only lines</text><text fill="#000000" font-family="sans-serif" font-size="13" lengthAdjust="spacing" textLength="162.6396" x="94.1592" y="400.8281">(@id/context/inv colored)</text></g><line style="stroke:#000000;stroke-width:1;stroke-dasharray:2,2;" x1="10" x2="1337.9126" y1="421.5703" y2="421.5703"/><text fill="#000000" font-family="sans-serif" font-size="11" font-weight="700" lengthAdjust="spacing" textLength="129.9697" x="15" y="432.2051">[sub_mode = Diagram]</text><g class="message" data-entity-1="part3" data-entity-2="part6" data-source-line="33" id="msg8"><polygon fill="#181818" points="1044.4819,452.8359,1054.4819,456.8359,1044.4819,460.8359,1048.4819,456.8359" style="stroke:#181818;stroke-width:1;"/><line style="stroke:#181818;stroke-width:1;" x1="474.7856" x2="1050.4819" y1="456.8359" y2="456.8359"/><text fill="#000000" font-family="sans-serif" font-size="13" lengthAdjust="spacing" textLength="221.7998" x="481.7856" y="452.0938">Project::rendered_svg_path(file_rel)</text></g><path d="M20,471.8359 L82.1387,471.8359 L82.1387,479.1465 L72.1387,489.1465 L20,489.1465 L20,471.8359" fill="#EEEEEE" style="stroke:#000000;stroke-width:1.5;"/><rect fill="none" height="196.1289" style="stroke:#000000;stroke-width:1.5;" width="1307.9126" x="20" y="471.8359"/><text fill="#000000" font-family="sans-serif" font-size="13" font-weight="700" lengthAdjust="spacing" textLength="17.1387" x="35" y="485.4043">alt</text><text fill="#000000" font-family="sans-serif" font-size="11" font-weight="700" lengthAdjust="spacing" textLength="131.7959" x="97.1387" y="484.4707">[rendered SVG present]</text><g class="message" data-entity-1="part6" data-entity-2="part7" data-source-line="35" id="msg9"><polygon fill="#181818" points="1225.1265,506.457,1235.1265,510.457,1225.1265,514.457,1229.1265,510.457" style="stroke:#181818;stroke-width:1;"/><line style="stroke:#181818;stroke-width:1;stroke-dasharray:2,2;" x1="1056.4819" x2="1231.1265" y1="510.457" y2="510.457"/><text fill="#000000" font-family="sans-serif" font-size="13" lengthAdjust="spacing" textLength="148.3765" x="1063.4819" y="505.7148">DiagramPage::load(svg)</text></g><path d="M30,525.457 L104.4468,525.457 L104.4468,532.7676 L94.4468,542.7676 L30,542.7676 L30,525.457" fill="#EEEEEE" style="stroke:#000000;stroke-width:1.5;"/><rect fill="none" height="75.9316" style="stroke:#000000;stroke-width:1.5;" width="1287.9126" x="30" y="525.457"/><text fill="#000000" font-family="sans-serif" font-size="13" font-weight="700" lengthAdjust="spacing" textLength="29.4468" x="45" y="539.0254">loop</text><text fill="#000000" font-family="sans-serif" font-size="11" font-weight="700" lengthAdjust="spacing" textLength="117.2832" x="119.4468" y="538.0918">[each painted frame]</text><g class="message" data-entity-1="part3" data-entity-2="part7" data-source-line="37" id="msg10"><polygon fill="#181818" points="1225.1265,560.0781,1235.1265,564.0781,1225.1265,568.0781,1229.1265,564.0781" style="stroke:#181818;stroke-width:1;"/><line style="stroke:#181818;stroke-width:1;" x1="474.7856" x2="1231.1265" y1="564.0781" y2="564.0781"/><text fill="#000000" font-family="sans-serif" font-size="13" lengthAdjust="spacing" textLength="206.1592" x="481.7856" y="559.3359">paint_canvas (pan/zoom reused)</text></g><g class="message" data-entity-1="part7" data-entity-2="part1" data-source-line="38" id="msg11"><polygon fill="#181818" points="88.1592,589.3887,78.1592,593.3887,88.1592,597.3887,84.1592,593.3887" style="stroke:#181818;stroke-width:1;"/><line style="stroke:#181818;stroke-width:1;stroke-dasharray:2,2;" x1="82.1592" x2="1236.1265" y1="593.3887" y2="593.3887"/><text fill="#000000" font-family="sans-serif" font-size="13" lengthAdjust="spacing" textLength="205.0229" x="94.1592" y="588.6465">synthesized constraints diagram</text></g><line style="stroke:#000000;stroke-width:1;stroke-dasharray:2,2;" x1="20" x2="1327.9126" y1="609.3887" y2="609.3887"/><text fill="#000000" font-family="sans-serif" font-size="11" font-weight="700" lengthAdjust="spacing" textLength="78.6919" x="25" y="620.0234">[SVG missing]</text><g class="message" data-entity-1="part3" data-entity-2="part1" data-source-line="41" id="msg12"><polygon fill="#181818" points="88.1592,655.9648,78.1592,659.9648,88.1592,663.9648,84.1592,659.9648" style="stroke:#181818;stroke-width:1;"/><line style="stroke:#181818;stroke-width:1;" x1="82.1592" x2="473.7856" y1="659.9648" y2="659.9648"/><text fill="#000000" font-family="sans-serif" font-size="13" lengthAdjust="spacing" textLength="230.5723" x="94.1592" y="639.9121">"No rendered constraints diagram &#8212;</text><text fill="#000000" font-family="sans-serif" font-size="13" lengthAdjust="spacing" textLength="150.3887" x="94.1592" y="655.2227">run the render pipeline"</text></g><path d="M691,686.9648 L691,772.9648 L1045,772.9648 L1045,696.9648 L1035,686.9648 L691,686.9648" fill="#FEFFDD" style="stroke:#181818;stroke-width:0.5;"/><path d="M1035,686.9648 L1035,696.9648 L1045,696.9648 L1035,686.9648" fill="#FEFFDD" style="stroke:#181818;stroke-width:0.5;"/><text fill="#000000" font-family="sans-serif" font-size="13" lengthAdjust="spacing" textLength="209.3647" x="697" y="704.5332">render_ocl_diagrams enumerates</text><text fill="#000000" font-family="sans-serif" font-size="13" lengthAdjust="spacing" textLength="294.4551" x="697" y="719.8438">Project::constraint_files(); synthesize_ocl_puml</text><text fill="#000000" font-family="sans-serif" font-size="13" lengthAdjust="spacing" textLength="306.668" x="697" y="735.1543">builds a context/inv/@ref diagram; rasterized to</text><text fill="#000000" font-family="sans-serif" font-size="13" lengthAdjust="spacing" textLength="333.0996" x="697" y="750.4648">the .mdd/rendered/constraints/&lt;name&gt;.svg mirror.</text><text fill="#000000" font-family="sans-serif" font-size="13" lengthAdjust="spacing" textLength="284.5146" x="697" y="765.7754">Invoked by /mdd-render and the cycle close.</text><?plantuml-src VLNDZjis4BxhAQQwH48jUmyzQRl1Bf954RJffZ7gNWmON75iiw58WQJiRDe2UOW-OP-aCwIqbhER70nOvFnyyyqtmnTGLHKSzrPZrOeEEcSFQ8Hfi8RceT48OIy2A1ESbNs34b0qUxXMaXsp5t0ThOhbxM_Lwitj7zNTgrzcS75nyKF9bqgUtSGpXzlYz-Njz92EN_NEeGcLLn9Xg-qHX0VLTXfREaPP4qWqX0R1eyQ6Zc2h2Dy7PIGepo6iyS49mZg3jrAk51xHrRLjzAPNuFVsw470qlQkmSLh9NPEj13iRgVn4ePl2kEmz-Z7WtTYX_0zT1nsqmXp85WsuMYLSzOH3W8kaVyiLp_DOpNN4dtp1IdvZQ_kUwL33GCaXqBw66fE9qooXRj6C_2vZp1XQzs065ehJpZ9rrjz89pldFsJwAZh4SN67tQRJeHzmL7B6MZBQLI0WnBJikgQRq0GVx6yQ7DKONzMxGnGUoJYEYqQ9A5GadbUPa45Of-nKWIW2g5vv3zrfcXIJyii4qsWGlBNU41jEtGvTvU-iawue1hL2NBA9qthEoa2has1Mq9BK6-whenUoUAhZedQjHbu_Cltznjcxf_eVBVAAAwu5rHHFc-bN9n0-yNQ_6WesKlcBPat-ZmHUMmIptMzDkdVXbFAHAkFRk_f_CiyOtUUJqWjImdxS9xmIRlMvboCqOsliupuXEhbG13KmvnGvwAwOajKKYwbrzbWD_M8itHr1M-9CFqpVTJrQQWc3dSh64LSz6e6JVXOPdJ8LvIgZihU1BiXLsLsQNGPFSt8TrSHIiQ6rHYBvJCeFiMOpC0GcAkh8H-6uUzHoFammL18t8fUXs5SM7JqCROVhiOn6ktA30YIxT92YvJoIc6rqGt0DEkoSLRh6weAx3OMLrcZ7q0hWvv4IdkE-nhmOrWeSw19qBmOE0LB8GxG1CcuQyOar7LAyer1Pi98Tve3SbNJXKCh6prDMG9DaPZKkBNgfyDUKCWoMdwhz17N4ELiznMaoyKdQzkq9sKvU4JRwf4n_s18Q5vzei0JnODyB3rH0scxS1sjyfx4yeJy_5TxAlYPMF3Vvtzf5lj1sj4IEjKXToSVMq2_pDY0GE-RInCAyCm0atNVegFbuydWiIUdl1jkXY_AoqcDCKBNjvfSUCLBVcWcWbZmepVYlQJnym5Tv2POSealm5UNn6b532_Ed5pUc8FzGFxt3x0WpseectSvHqjFTwEjnpdN3bpw_m00?></g></svg>