<svg xmlns="http://www.w3.org/2000/svg" xmlns:xlink="http://www.w3.org/1999/xlink" contentStyleType="text/css" data-diagram-type="SEQUENCE" height="1086px" preserveAspectRatio="none" style="width:1581px;height:1086px;background:#FFFFFF;" version="1.1" viewBox="0 0 1581 1086" width="1581px" zoomAndPan="magnify"><?plantuml 1.2026.3?><defs/><g><g class="title" data-source-line="9"><text fill="#000000" font-family="sans-serif" font-size="14" font-weight="700" lengthAdjust="spacing" textLength="513.1465" x="530.4846" y="28.5352">mdd view &#8212; surface .mdd/deploy diagrams via a third source (current)</text></g><rect fill="none" height="101.9316" style="stroke:#000000;stroke-width:1.5;" width="428.4565" x="305.312" y="194.5977"/><rect fill="none" height="347.3477" style="stroke:#000000;stroke-width:1.5;" width="1039.9785" x="305.312" y="310.5293"/><g class="participant-lifeline" data-entity-uid="part1" data-qualified-name="Dev" data-source-line="11" id="part1-lifeline"><g><title>Developer</title><rect fill="#000000" fill-opacity="0.00000" height="884.9375" width="8" x="38.1592" y="118.9766"/><line style="stroke:#181818;stroke-width:0.5;stroke-dasharray:5,5;" x1="42" x2="42" y1="118.9766" y2="1003.9141"/></g></g><g class="participant-lifeline" data-entity-uid="part2" data-qualified-name="Cli" data-source-line="12" id="part2-lifeline"><g><title>mdd-cli</title><rect fill="#000000" fill-opacity="0.00000" height="884.9375" width="8" x="151.0391" y="118.9766"/><line style="stroke:#181818;stroke-width:0.5;stroke-dasharray:5,5;" x1="154.3184" x2="154.3184" y1="118.9766" y2="1003.9141"/></g></g><g class="participant-lifeline" data-entity-uid="part3" data-qualified-name="Viewer" data-source-line="13" id="part3-lifeline"><g><title>MddViewer..new..</title><rect fill="#000000" fill-opacity="0.00000" height="884.9375" width="8" x="378.4307" y="118.9766"/><line style="stroke:#181818;stroke-width:0.5;stroke-dasharray:5,5;" x1="382.312" x2="382.312" y1="118.9766" y2="1003.9141"/></g></g><g class="participant-lifeline" data-entity-uid="part4" data-qualified-name="Core" data-source-line="14" id="part4-lifeline"><g><title>Project..deploy_files..</title><rect fill="#000000" fill-opacity="0.00000" height="884.9375" width="8" x="724.7686" y="118.9766"/><line style="stroke:#181818;stroke-width:0.5;stroke-dasharray:5,5;" x1="728.2393" x2="728.2393" y1="118.9766" y2="1003.9141"/></g></g><g class="participant-lifeline" data-entity-uid="part5" data-qualified-name="RT" data-source-line="15" id="part5-lifeline"><g><title>render_sources.</title><rect fill="#000000" fill-opacity="0.00000" height="884.9375" width="8" x="998.4067" y="118.9766"/><line style="stroke:#181818;stroke-width:0.5;stroke-dasharray:5,5;" x1="1002.2407" x2="1002.2407" y1="118.9766" y2="1003.9141"/></g></g><g class="participant-lifeline" data-entity-uid="part6" data-qualified-name="Deploy" data-source-line="16" id="part6-lifeline"><g><title>.mdd.deploy......puml</title><rect fill="#000000" fill-opacity="0.00000" height="884.9375" width="8" x="1247.3804" y="118.9766"/><line style="stroke:#181818;stroke-width:0.5;stroke-dasharray:5,5;" x1="1250.4702" x2="1250.4702" y1="118.9766" y2="1003.9141"/></g></g><g class="participant-lifeline" data-entity-uid="part7" data-qualified-name="Rendered" data-source-line="17" id="part7-lifeline"><g><title>.mdd.rendered.deploy......svg</title><rect fill="#000000" fill-opacity="0.00000" height="884.9375" width="8" x="1453.7031" y="118.9766"/><line style="stroke:#181818;stroke-width:0.5;stroke-dasharray:5,5;" x1="1457.2905" x2="1457.2905" y1="118.9766" y2="1003.9141"/></g></g><g class="participant participant-head" data-entity-uid="part1" data-qualified-name="Dev" data-source-line="11" id="part1-head"><text fill="#000000" font-family="sans-serif" font-size="14" lengthAdjust="spacing" textLength="68.3184" x="5" y="116.0234">Developer</text><ellipse cx="42.1592" cy="50.9883" fill="#E2E2F0" rx="8" ry="8" style="stroke:#181818;stroke-width:0.5;"/><path d="M42.1592,58.9883 L42.1592,85.9883 M29.1592,66.9883 L55.1592,66.9883 M42.1592,85.9883 L29.1592,100.9883 M42.1592,85.9883 L55.1592,100.9883" fill="none" style="stroke:#181818;stroke-width:0.5;"/></g><g class="participant participant-tail" data-entity-uid="part1" data-qualified-name="Dev" data-source-line="11" id="part1-tail"><text fill="#000000" font-family="sans-serif" font-size="14" lengthAdjust="spacing" textLength="68.3184" x="5" y="1016.4492">Developer</text><ellipse cx="42.1592" cy="1027.9023" fill="#E2E2F0" rx="8" ry="8" style="stroke:#181818;stroke-width:0.5;"/><path d="M42.1592,1035.9023 L42.1592,1062.9023 M29.1592,1043.9023 L55.1592,1043.9023 M42.1592,1062.9023 L29.1592,1077.9023 M42.1592,1062.9023 L55.1592,1077.9023" fill="none" style="stroke:#181818;stroke-width:0.5;"/></g><g class="participant participant-head" data-entity-uid="part2" data-qualified-name="Cli" data-source-line="12" id="part2-head"><rect fill="#E2E2F0" height="46.9766" rx="2.5" ry="2.5" style="stroke:#181818;stroke-width:0.5;" width="131.4414" x="89.3184" y="71"/><text fill="#000000" font-family="sans-serif" font-size="14" lengthAdjust="spacing" textLength="54.0586" x="128.0098" y="91.5352">mdd-cli</text><text fill="#000000" font-family="sans-serif" font-size="14" lengthAdjust="spacing" textLength="117.4414" x="96.3184" y="108.0234">Commands::View</text></g><g class="participant participant-tail" data-entity-uid="part2" data-qualified-name="Cli" data-source-line="12" id="part2-tail"><rect fill="#E2E2F0" height="46.9766" rx="2.5" ry="2.5" style="stroke:#181818;stroke-width:0.5;" width="131.4414" x="89.3184" y="1002.9141"/><text fill="#000000" font-family="sans-serif" font-size="14" lengthAdjust="spacing" textLength="54.0586" x="128.0098" y="1023.4492">mdd-cli</text><text fill="#000000" font-family="sans-serif" font-size="14" lengthAdjust="spacing" textLength="117.4414" x="96.3184" y="1039.9375">Commands::View</text></g><g class="participant participant-head" data-entity-uid="part3" data-qualified-name="Viewer" data-source-line="13" id="part3-head"><rect fill="#E2E2F0" height="30.4883" rx="2.5" ry="2.5" style="stroke:#181818;stroke-width:0.5;" width="134.2373" x="315.312" y="87.4883"/><text fill="#000000" font-family="sans-serif" font-size="14" lengthAdjust="spacing" textLength="120.2373" x="322.312" y="108.0234">MddViewer::new()</text></g><g class="participant participant-tail" data-entity-uid="part3" data-qualified-name="Viewer" data-source-line="13" id="part3-tail"><rect fill="#E2E2F0" height="30.4883" rx="2.5" ry="2.5" style="stroke:#181818;stroke-width:0.5;" width="134.2373" x="315.312" y="1002.9141"/><text fill="#000000" font-family="sans-serif" font-size="14" lengthAdjust="spacing" textLength="120.2373" x="322.312" y="1023.4492">MddViewer::new()</text></g><g class="participant participant-head" data-entity-uid="part4" data-qualified-name="Core" data-source-line="14" id="part4-head"><rect fill="#E2E2F0" height="30.4883" rx="2.5" ry="2.5" style="stroke:#181818;stroke-width:0.5;" width="159.0586" x="649.2393" y="87.4883"/><text fill="#000000" font-family="sans-serif" font-size="14" lengthAdjust="spacing" textLength="145.0586" x="656.2393" y="108.0234">Project::deploy_files()</text></g><g class="participant participant-tail" data-entity-uid="part4" data-qualified-name="Core" data-source-line="14" id="part4-tail"><rect fill="#E2E2F0" height="30.4883" rx="2.5" ry="2.5" style="stroke:#181818;stroke-width:0.5;" width="159.0586" x="649.2393" y="1002.9141"/><text fill="#000000" font-family="sans-serif" font-size="14" lengthAdjust="spacing" textLength="145.0586" x="656.2393" y="1023.4492">Project::deploy_files()</text></g><g class="participant participant-head" data-entity-uid="part5" data-qualified-name="RT" data-source-line="15" id="part5-head"><rect fill="#E2E2F0" height="46.9766" rx="2.5" ry="2.5" style="stroke:#181818;stroke-width:0.5;" width="152.332" x="926.2407" y="71"/><text fill="#000000" font-family="sans-serif" font-size="14" lengthAdjust="spacing" textLength="108.3701" x="948.2217" y="91.5352">render_sources(</text><text fill="#000000" font-family="sans-serif" font-size="14" lengthAdjust="spacing" textLength="138.332" x="933.2407" y="108.0234">RenderTree::Deploy)</text></g><g class="participant participant-tail" data-entity-uid="part5" data-qualified-name="RT" data-source-line="15" id="part5-tail"><rect fill="#E2E2F0" height="46.9766" rx="2.5" ry="2.5" style="stroke:#181818;stroke-width:0.5;" width="152.332" x="926.2407" y="1002.9141"/><text fill="#000000" font-family="sans-serif" font-size="14" lengthAdjust="spacing" textLength="108.3701" x="948.2217" y="1023.4492">render_sources(</text><text fill="#000000" font-family="sans-serif" font-size="14" lengthAdjust="spacing" textLength="138.332" x="933.2407" y="1039.9375">RenderTree::Deploy)</text></g><g class="participant participant-head" data-entity-uid="part6" data-qualified-name="Deploy" data-source-line="16" id="part6-head"><text fill="#000000" font-family="sans-serif" font-size="14" lengthAdjust="spacing" textLength="161.8203" x="1167.4702" y="116.0234">.mdd/deploy/**/*.puml</text><path d="M1233.3804,66.4883 C1233.3804,56.4883 1251.3804,56.4883 1251.3804,56.4883 C1251.3804,56.4883 1269.3804,56.4883 1269.3804,66.4883 L1269.3804,92.4883 C1269.3804,102.4883 1251.3804,102.4883 1251.3804,102.4883 C1251.3804,102.4883 1233.3804,102.4883 1233.3804,92.4883 L1233.3804,66.4883" fill="#E2E2F0" style="stroke:#181818;stroke-width:0.5;"/><path d="M1233.3804,66.4883 C1233.3804,76.4883 1251.3804,76.4883 1251.3804,76.4883 C1251.3804,76.4883 1269.3804,76.4883 1269.3804,66.4883" fill="none" style="stroke:#181818;stroke-width:0.5;"/></g><g class="participant participant-tail" data-entity-uid="part6" data-qualified-name="Deploy" data-source-line="16" id="part6-tail"><text fill="#000000" font-family="sans-serif" font-size="14" lengthAdjust="spacing" textLength="161.8203" x="1167.4702" y="1016.4492">.mdd/deploy/**/*.puml</text><path d="M1233.3804,1029.4023 C1233.3804,1019.4023 1251.3804,1019.4023 1251.3804,1019.4023 C1251.3804,1019.4023 1269.3804,1019.4023 1269.3804,1029.4023 L1269.3804,1055.4023 C1269.3804,1065.4023 1251.3804,1065.4023 1251.3804,1065.4023 C1251.3804,1065.4023 1233.3804,1065.4023 1233.3804,1055.4023 L1233.3804,1029.4023" fill="#E2E2F0" style="stroke:#181818;stroke-width:0.5;"/><path d="M1233.3804,1029.4023 C1233.3804,1039.4023 1251.3804,1039.4023 1251.3804,1039.4023 C1251.3804,1039.4023 1269.3804,1039.4023 1269.3804,1029.4023" fill="none" style="stroke:#181818;stroke-width:0.5;"/></g><g class="participant participant-head" data-entity-uid="part7" data-qualified-name="Rendered" data-source-line="17" id="part7-head"><text fill="#000000" font-family="sans-serif" font-size="14" lengthAdjust="spacing" textLength="218.8252" x="1345.2905" y="116.0234">.mdd/rendered/deploy/**/*.svg</text><path d="M1439.7031,66.4883 C1439.7031,56.4883 1457.7031,56.4883 1457.7031,56.4883 C1457.7031,56.4883 1475.7031,56.4883 1475.7031,66.4883 L1475.7031,92.4883 C1475.7031,102.4883 1457.7031,102.4883 1457.7031,102.4883 C1457.7031,102.4883 1439.7031,102.4883 1439.7031,92.4883 L1439.7031,66.4883" fill="#E2E2F0" style="stroke:#181818;stroke-width:0.5;"/><path d="M1439.7031,66.4883 C1439.7031,76.4883 1457.7031,76.4883 1457.7031,76.4883 C1457.7031,76.4883 1475.7031,76.4883 1475.7031,66.4883" fill="none" style="stroke:#181818;stroke-width:0.5;"/></g><g class="participant participant-tail" data-entity-uid="part7" data-qualified-name="Rendered" data-source-line="17" id="part7-tail"><text fill="#000000" font-family="sans-serif" font-size="14" lengthAdjust="spacing" textLength="218.8252" x="1345.2905" y="1016.4492">.mdd/rendered/deploy/**/*.svg</text><path d="M1439.7031,1029.4023 C1439.7031,1019.4023 1457.7031,1019.4023 1457.7031,1019.4023 C1457.7031,1019.4023 1475.7031,1019.4023 1475.7031,1029.4023 L1475.7031,1055.4023 C1475.7031,1065.4023 1457.7031,1065.4023 1457.7031,1065.4023 C1457.7031,1065.4023 1439.7031,1065.4023 1439.7031,1055.4023 L1439.7031,1029.4023" fill="#E2E2F0" style="stroke:#181818;stroke-width:0.5;"/><path d="M1439.7031,1029.4023 C1439.7031,1039.4023 1457.7031,1039.4023 1457.7031,1039.4023 C1457.7031,1039.4023 1475.7031,1039.4023 1475.7031,1029.4023" fill="none" style="stroke:#181818;stroke-width:0.5;"/></g><g class="message" data-entity-1="part1" data-entity-2="part2" data-source-line="19" id="msg1"><polygon fill="#181818" points="143.0391,146.2871,153.0391,150.2871,143.0391,154.2871,147.0391,150.2871" style="stroke:#181818;stroke-width:1;"/><line style="stroke:#181818;stroke-width:1;" x1="42.1592" x2="149.0391" y1="150.2871" y2="150.2871"/><text fill="#000000" font-family="sans-serif" font-size="13" lengthAdjust="spacing" textLength="60.3599" x="49.1592" y="145.5449">mdd view</text></g><g class="message" data-entity-1="part2" data-entity-2="part3" data-source-line="20" id="msg2"><polygon fill="#181818" points="370.4307,175.5977,380.4307,179.5977,370.4307,183.5977,374.4307,179.5977" style="stroke:#181818;stroke-width:1;"/><line style="stroke:#181818;stroke-width:1;" x1="155.0391" x2="376.4307" y1="179.5977" y2="179.5977"/><text fill="#000000" font-family="sans-serif" font-size="13" lengthAdjust="spacing" textLength="203.3916" x="162.0391" y="174.8555">run(project) -&gt; MddViewer::new</text></g><path d="M305.312,194.5977 L612.0576,194.5977 L612.0576,201.9082 L602.0576,211.9082 L305.312,211.9082 L305.312,194.5977" fill="#EEEEEE" style="stroke:#000000;stroke-width:1.5;"/><rect fill="none" height="101.9316" style="stroke:#000000;stroke-width:1.5;" width="428.4565" x="305.312" y="194.5977"/><text fill="#000000" font-family="sans-serif" font-size="13" font-weight="700" lengthAdjust="spacing" textLength="261.7456" x="320.312" y="208.166">Two parity-gated sources (unchanged)</text><g class="message" data-entity-1="part3" data-entity-2="part3" data-source-line="23" id="msg3"><line style="stroke:#181818;stroke-width:1;" x1="382.4307" x2="424.4307" y1="233.2188" y2="233.2188"/><line style="stroke:#181818;stroke-width:1;" x1="424.4307" x2="424.4307" y1="233.2188" y2="246.2188"/><line style="stroke:#181818;stroke-width:1;" x1="383.4307" x2="424.4307" y1="246.2188" y2="246.2188"/><polygon fill="#181818" points="393.4307,242.2188,383.4307,246.2188,393.4307,250.2188,389.4307,246.2188" style="stroke:#181818;stroke-width:1;"/><text fill="#000000" font-family="sans-serif" font-size="13" lengthAdjust="spacing" textLength="332.3379" x="389.4307" y="228.4766">model_registry()  (.mdd/models + .mdd/constraints)</text></g><g class="message" data-entity-1="part3" data-entity-2="part3" data-source-line="24" id="msg4"><line style="stroke:#181818;stroke-width:1;" x1="382.4307" x2="424.4307" y1="275.5293" y2="275.5293"/><line style="stroke:#181818;stroke-width:1;" x1="424.4307" x2="424.4307" y1="275.5293" y2="288.5293"/><line style="stroke:#181818;stroke-width:1;" x1="383.4307" x2="424.4307" y1="288.5293" y2="288.5293"/><polygon fill="#181818" points="393.4307,284.5293,383.4307,288.5293,393.4307,292.5293,389.4307,288.5293" style="stroke:#181818;stroke-width:1;"/><text fill="#000000" font-family="sans-serif" font-size="13" lengthAdjust="spacing" textLength="187.9414" x="389.4307" y="270.7871">cycle_registry()  (.mdd/cycles)</text></g><path d="M305.312,310.5293 L632.5479,310.5293 L632.5479,317.8398 L622.5479,327.8398 L305.312,327.8398 L305.312,310.5293" fill="#EEEEEE" style="stroke:#000000;stroke-width:1.5;"/><rect fill="none" height="347.3477" style="stroke:#000000;stroke-width:1.5;" width="1039.9785" x="305.312" y="310.5293"/><text fill="#000000" font-family="sans-serif" font-size="13" font-weight="700" lengthAdjust="spacing" textLength="282.2358" x="320.312" y="324.0977">Third source &#8212; deploy_files() (NOT gated)</text><g class="message" data-entity-1="part3" data-entity-2="part4" data-source-line="28" id="msg5"><polygon fill="#181818" points="716.7686,345.1504,726.7686,349.1504,716.7686,353.1504,720.7686,349.1504" style="stroke:#181818;stroke-width:1;"/><line style="stroke:#181818;stroke-width:1;" x1="382.4307" x2="722.7686" y1="349.1504" y2="349.1504"/><text fill="#000000" font-family="sans-serif" font-size="13" lengthAdjust="spacing" textLength="131.5806" x="389.4307" y="344.4082">project.deploy_files()</text></g><g class="message" data-entity-1="part4" data-entity-2="part5" data-source-line="29" id="msg6"><polygon fill="#181818" points="990.4067,374.4609,1000.4067,378.4609,990.4067,382.4609,994.4067,378.4609" style="stroke:#181818;stroke-width:1;"/><line style="stroke:#181818;stroke-width:1;" x1="728.7686" x2="996.4067" y1="378.4609" y2="378.4609"/><text fill="#000000" font-family="sans-serif" font-size="13" lengthAdjust="spacing" textLength="229.0806" x="735.7686" y="373.7188">render_sources(RenderTree::Deploy)</text></g><g class="message" data-entity-1="part5" data-entity-2="part6" data-source-line="30" id="msg7"><polygon fill="#181818" points="1239.3804,403.7715,1249.3804,407.7715,1239.3804,411.7715,1243.3804,407.7715" style="stroke:#181818;stroke-width:1;"/><line style="stroke:#181818;stroke-width:1;" x1="1002.4067" x2="1245.3804" y1="407.7715" y2="407.7715"/><text fill="#000000" font-family="sans-serif" font-size="13" lengthAdjust="spacing" textLength="224.9736" x="1009.4067" y="403.0293">walk_suffix(".mdd/deploy", ".puml")</text></g><g class="message" data-entity-1="part6" data-entity-2="part5" data-source-line="31" id="msg8"><polygon fill="#181818" points="1013.4067,433.082,1003.4067,437.082,1013.4067,441.082,1009.4067,437.082" style="stroke:#181818;stroke-width:1;"/><line style="stroke:#181818;stroke-width:1;stroke-dasharray:2,2;" x1="1007.4067" x2="1250.3804" y1="437.082" y2="437.082"/><text fill="#000000" font-family="sans-serif" font-size="13" lengthAdjust="spacing" textLength="113.0264" x="1019.4067" y="432.3398">[diagram.puml ...]</text></g><g class="message" data-entity-1="part5" data-entity-2="part4" data-source-line="32" id="msg9"><polygon fill="#181818" points="739.7686,462.3926,729.7686,466.3926,739.7686,470.3926,735.7686,466.3926" style="stroke:#181818;stroke-width:1;"/><line style="stroke:#181818;stroke-width:1;stroke-dasharray:2,2;" x1="733.7686" x2="1001.4067" y1="466.3926" y2="466.3926"/><text fill="#000000" font-family="sans-serif" font-size="13" lengthAdjust="spacing" textLength="48.5278" x="745.7686" y="461.6504">sources</text></g><g class="message" data-entity-1="part4" data-entity-2="part4" data-source-line="33" id="msg10"><line style="stroke:#181818;stroke-width:1;" x1="728.7686" x2="770.7686" y1="526.3242" y2="526.3242"/><line style="stroke:#181818;stroke-width:1;" x1="770.7686" x2="770.7686" y1="526.3242" y2="539.3242"/><line style="stroke:#181818;stroke-width:1;" x1="729.7686" x2="770.7686" y1="539.3242" y2="539.3242"/><polygon fill="#181818" points="739.7686,535.3242,729.7686,539.3242,739.7686,543.3242,735.7686,539.3242" style="stroke:#181818;stroke-width:1;"/><text fill="#000000" font-family="sans-serif" font-size="13" lengthAdjust="spacing" textLength="156.6855" x="735.7686" y="490.9609">per file: extract_ids/refs,</text><text fill="#000000" font-family="sans-serif" font-size="13" lengthAdjust="spacing" textLength="149.9951" x="735.7686" y="506.2715">rendered_pages_for(rel)</text><text fill="#000000" font-family="sans-serif" font-size="13" lengthAdjust="spacing" textLength="259.6382" x="735.7686" y="521.582">-&gt; ModelFile{ kind=Other, side=Shared }</text></g><path d="M733,552.3242 L733,623.3242 L1039,623.3242 L1039,562.3242 L1029,552.3242 L733,552.3242" fill="#FEFFDD" style="stroke:#181818;stroke-width:0.5;"/><path d="M1029,552.3242 L1029,562.3242 L1039,562.3242 L1029,552.3242" fill="#FEFFDD" style="stroke:#181818;stroke-width:0.5;"/><text fill="#000000" font-family="sans-serif" font-size="13" lengthAdjust="spacing" textLength="285.2573" x="739" y="569.8926">Returned as a Vec&lt;ModelFile&gt;. NOT inserted</text><text fill="#000000" font-family="sans-serif" font-size="13" lengthAdjust="spacing" textLength="264.3037" x="739" y="585.2031">into ModelRegistry, so /mdd-validate and</text><text fill="#000000" font-family="sans-serif" font-size="13" lengthAdjust="spacing" textLength="270.7212" x="739" y="600.5137">/mdd-review (which read model_registry())</text><text fill="#000000" font-family="sans-serif" font-size="13" lengthAdjust="spacing" textLength="156.4443" x="739" y="615.8242">never see .mdd/deploy/.</text><g class="message" data-entity-1="part4" data-entity-2="part3" data-source-line="40" id="msg11"><polygon fill="#181818" points="393.4307,645.877,383.4307,649.877,393.4307,653.877,389.4307,649.877" style="stroke:#181818;stroke-width:1;"/><line style="stroke:#181818;stroke-width:1;stroke-dasharray:2,2;" x1="387.4307" x2="727.7686" y1="649.877" y2="649.877"/><text fill="#000000" font-family="sans-serif" font-size="13" lengthAdjust="spacing" textLength="230.5723" x="399.4307" y="645.1348">Vec&lt;ModelFile&gt; -&gt; self.deploy_files</text></g><g class="message" data-entity-1="part3" data-entity-2="part3" data-source-line="43" id="msg12"><line style="stroke:#181818;stroke-width:1;" x1="382.4307" x2="424.4307" y1="716.8086" y2="716.8086"/><line style="stroke:#181818;stroke-width:1;" x1="424.4307" x2="424.4307" y1="716.8086" y2="729.8086"/><line style="stroke:#181818;stroke-width:1;" x1="383.4307" x2="424.4307" y1="729.8086" y2="729.8086"/><polygon fill="#181818" points="393.4307,725.8086,383.4307,729.8086,393.4307,733.8086,389.4307,729.8086" style="stroke:#181818;stroke-width:1;"/><text fill="#000000" font-family="sans-serif" font-size="13" lengthAdjust="spacing" textLength="212.2085" x="389.4307" y="681.4453">update(): TreeNode::build(deploy)</text><text fill="#000000" font-family="sans-serif" font-size="13" lengthAdjust="spacing" textLength="316.7734" x="389.4307" y="696.7559">"DEPLOY &#183; /mdd-deploy &#183; utility, not parity-gated"</text><text fill="#000000" font-family="sans-serif" font-size="13" lengthAdjust="spacing" textLength="232.4194" x="389.4307" y="712.0664">(rendered in Directory AND By-cycle)</text></g><g class="message" data-entity-1="part1" data-entity-2="part3" data-source-line="44" id="msg13"><polygon fill="#181818" points="370.4307,755.1191,380.4307,759.1191,370.4307,763.1191,374.4307,759.1191" style="stroke:#181818;stroke-width:1;"/><line style="stroke:#181818;stroke-width:1;" x1="42.1592" x2="376.4307" y1="759.1191" y2="759.1191"/><text fill="#000000" font-family="sans-serif" font-size="13" lengthAdjust="spacing" textLength="101.7593" x="49.1592" y="754.377">click deploy leaf</text></g><g class="message" data-entity-1="part3" data-entity-2="part3" data-source-line="45" id="msg14"><line style="stroke:#181818;stroke-width:1;" x1="382.4307" x2="424.4307" y1="788.4297" y2="788.4297"/><line style="stroke:#181818;stroke-width:1;" x1="424.4307" x2="424.4307" y1="788.4297" y2="801.4297"/><line style="stroke:#181818;stroke-width:1;" x1="383.4307" x2="424.4307" y1="801.4297" y2="801.4297"/><polygon fill="#181818" points="393.4307,797.4297,383.4307,801.4297,393.4307,805.4297,389.4307,801.4297" style="stroke:#181818;stroke-width:1;"/><text fill="#000000" font-family="sans-serif" font-size="13" lengthAdjust="spacing" textLength="213.5796" x="389.4307" y="783.6875">lookup_file(path) -&gt; load_file(file)</text></g><g class="message" data-entity-1="part3" data-entity-2="part7" data-source-line="46" id="msg15"><polygon fill="#181818" points="1445.7031,826.7402,1455.7031,830.7402,1445.7031,834.7402,1449.7031,830.7402" style="stroke:#181818;stroke-width:1;"/><line style="stroke:#181818;stroke-width:1;" x1="382.4307" x2="1451.7031" y1="830.7402" y2="830.7402"/><text fill="#000000" font-family="sans-serif" font-size="13" lengthAdjust="spacing" textLength="246.6064" x="389.4307" y="825.998">read .mdd/rendered/deploy/&lt;rel&gt;.svg</text></g><g class="message" data-entity-1="part7" data-entity-2="part3" data-source-line="47" id="msg16"><polygon fill="#181818" points="393.4307,856.0508,383.4307,860.0508,393.4307,864.0508,389.4307,860.0508" style="stroke:#181818;stroke-width:1;"/><line style="stroke:#181818;stroke-width:1;stroke-dasharray:2,2;" x1="387.4307" x2="1456.7031" y1="860.0508" y2="860.0508"/><text fill="#000000" font-family="sans-serif" font-size="13" lengthAdjust="spacing" textLength="171.9263" x="399.4307" y="855.3086">SVG bytes -&gt; DiagramPage</text></g><g class="message" data-entity-1="part3" data-entity-2="part1" data-source-line="48" id="msg17"><polygon fill="#181818" points="53.1592,885.3613,43.1592,889.3613,53.1592,893.3613,49.1592,889.3613" style="stroke:#181818;stroke-width:1;"/><line style="stroke:#181818;stroke-width:1;stroke-dasharray:2,2;" x1="47.1592" x2="381.4307" y1="889.3613" y2="889.3613"/><text fill="#000000" font-family="sans-serif" font-size="13" lengthAdjust="spacing" textLength="248.7329" x="59.1592" y="884.6191">deployment diagram painted on canvas</text></g><path d="M1155,902.3613 L1155,988.3613 L1552,988.3613 L1552,912.3613 L1542,902.3613 L1155,902.3613" fill="#FEFFDD" style="stroke:#181818;stroke-width:0.5;"/><path d="M1542,902.3613 L1542,912.3613 L1552,912.3613 L1542,902.3613" fill="#FEFFDD" style="stroke:#181818;stroke-width:0.5;"/><text fill="#000000" font-family="sans-serif" font-size="13" lengthAdjust="spacing" textLength="289.0596" x="1184.0361" y="919.9297">No .svg mirror -&gt; the canvas shows the same</text><text fill="#000000" font-family="sans-serif" font-size="13" lengthAdjust="spacing" textLength="330.5732" x="1184.0361" y="935.2402">"No rendered output &#8212; run the render pipeline first"</text><text fill="#000000" font-family="sans-serif" font-size="13" lengthAdjust="spacing" textLength="314.2915" x="1184.0361" y="950.5508">placeholder as any unrendered model. The viewer</text><text fill="#000000" font-family="sans-serif" font-size="13" lengthAdjust="spacing" textLength="243.2041" x="1184.0361" y="965.8613">never rasterizes; `mdd render` covers</text><text fill="#000000" font-family="sans-serif" font-size="13" lengthAdjust="spacing" textLength="128.3369" x="1184.0361" y="981.1719">RenderTree::Deploy.</text><?plantuml-src XLRDZjis4BxhAGQ-h9HQSdfrao39saqMQBofrzcWw1OEBOrjTcbH9IaxRb6W3z5twRsFqYVf32bvPQ_J-c10vFpFDz_m0j8qXTrQAqmteeBAw2sMeinn2Fa-LmXkBHp8qXbTr3aMW29VmqjPi69q0I-zL7mp_ZwzlHf_J4VZzzzT_z27fq-_VfhmlInEB_snmMNyuMPyzdnq_IwTZYUZyJGTJzvSJSR-fa2RF_RJkzfK2ZTOEefjgVGkWtT5SIjnXsOuB74N9v0BfIodzZFcBYkmKde_Nqg5bYv5MO1rsg05oObImWXT6LXAL0KiqCe2mU1AMcVsNi_dRZDu7qmFXoUsuqrHf3dPJiWs6k78ci6oG3EtkZOv2KtzvymW3eSZhvt0Ft_ywQEmibnH1u8ew2KuKxirBBNf14c7Y5w58rhKKXKM1BpJ1QflAGweq416WGo2_E39ay6JhAet2dQIh8Lui9XNOiN96hqvEPkJmpZfmxqa1zVasVJ1r-9cBKYe3n-lPc-lFyoWgksQGcQqw130jAbM1dLLKFhS3ALByjEjLByDkpdq6Msb02xBXEmCXruW12mWrwLredHm4HIu-nSXF2KMgFg-5249hiL50Ci5N6gbHCLbVOk2Ba4igIs-c4P8bMx85so48uHRpN0GLOM2R10i5ffyim3r-nLb8VDxSc6rsb8sRcrqlLg3qlg-hdnM41-Wag-5BB49lvju4agbj2ZyGPycKURS4q7Ly4rhMz5sxvb1zIApswRA0aPIh8pOlATEPV0QSr7R0pG2ValSKfB63oudeEPjPDpL0tODRYMFos0hb6oQTOzOWLoLsd1VkoZAUZoKbxMX05tguM3nbng9ESZLaYgpve5aDELSrJZty1_mH6pzT0wioGTABZ9Z-sIgSyyJqxazFrv95ZdfgCwa0MpHpu2jpL9G29rGeGWLiXvIWdebJT4ELPo7398e4Zcn0FH6L2sbQMXw82pGLrG9usGkAqPSpyUdv5rvgJSRWfaT3fbilF2baiV2fqpafSB9iU0N22HOfMeSIvzGo5rvXaIywdGMKIF5GX0aUcSve4cI3qz5Jv7dTGXumN9p6KLK8KXVSEumFFGYuayw3RdIXQdBk27WX2-EAnD5AvgV2cOx3PIfTFjq9PZGcnGXhaiQedA5HH91QxLh_nJN0B5FmfzR-2e0mXC7JNhfx1ViU4O_OoSmVH9HseTWkpXYx9sI_-Hw1ZwDOr_SJ_9qVXsHfBydkUcCw_Q_su8qI9BampVfx8IwdzjwkPIVusxNUxGjGzDPgH5FMqy_DcCILaEMPJyrbXz2RgBenDZcGfbn0aF0prJVtCrbOGb0Izk_Ayyi4-AmvAva6BHRwZTFtyyxs-Lvs2xmExahjIDMaQkruote1mBeDqLN6oPMmIn_Y_cpWxqN6N3vPMdHK0Uy-EErr6UQ3vJKS1vl3Y_iJmCbGlp0oe-0bdZfGB4MyPWZwOwIz-4VYjP5st78N52BQda4YO2uCqXj5-hmT4l6GPqAt0jx3_x-AwJJy25zraugch8-XtOqSRsxCcuRnbjl90qoB-xXrMG4h_Uf7uIadVg7kV7xi76WK2pFXTpPZd4btDepmM7vnVoNTFHQZl5ZGAN_xtqO7SIFIdnp-mOMUtvuyOWyxCg37pyvMv9yU4kq6uCg8_sxKfVqXYotmaQHXwBcReS1wZzG8S14Wr_D6scCzZdmqoAeWbthdGtlEh5XFFH8_51hNRkgTfv7Y2l3ayJVGIKhLFH-e0aprlL8iLAqukZ9xbym1Fro3_LXp092Cw8dXB1eenQVHbXwxiXVqNu3dvYgWyudsj1qpNFzc5-og4Nmlm00?></g></svg>