<svg xmlns="http://www.w3.org/2000/svg" xmlns:xlink="http://www.w3.org/1999/xlink" contentStyleType="text/css" data-diagram-type="SEQUENCE" height="723px" preserveAspectRatio="none" style="width:1266px;height:723px;background:#FFFFFF;" version="1.1" viewBox="0 0 1266 723" width="1266px" zoomAndPan="magnify"><?plantuml 1.2026.3?><defs/><g><g class="title" data-source-line="11"><text fill="#000000" font-family="sans-serif" font-size="14" font-weight="700" lengthAdjust="spacing" textLength="327.8584" x="465.7764" y="28.5352">View a model file's PlantUML source (current)</text></g><rect fill="none" height="328.3711" style="stroke:#000000;stroke-width:1.5;" width="1240.4111" x="10" y="197.0859"/><rect fill="none" height="75.9316" style="stroke:#000000;stroke-width:1.5;" width="875.521" x="364.8901" y="366.5938"/><rect fill="none" height="61.9316" style="stroke:#000000;stroke-width:1.5;" width="509.8257" x="20" y="456.5254"/><g class="participant-lifeline" data-entity-uid="part1" data-qualified-name="Dev" data-source-line="13" id="part1-lifeline"><g><title>Developer</title><rect fill="#000000" fill-opacity="0.00000" height="517.5449" width="8" x="63.1592" y="121.4648"/><line style="stroke:#181818;stroke-width:0.5;stroke-dasharray:5,5;" x1="67" x2="67" y1="121.4648" y2="639.0098"/></g></g><g class="participant-lifeline" data-entity-uid="part2" data-qualified-name="Viewer" data-source-line="14" id="part2-lifeline"><g><title>MddViewer..update</title><rect fill="#000000" fill-opacity="0.00000" height="517.5449" width="8" x="443.3579" y="121.4648"/><line style="stroke:#181818;stroke-width:0.5;stroke-dasharray:5,5;" x1="446.8901" x2="446.8901" y1="121.4648" y2="639.0098"/></g></g><g class="participant-lifeline" data-entity-uid="part3" data-qualified-name="Mode" data-source-line="15" id="part3-lifeline"><g><title>self.view . View</title><rect fill="#000000" fill-opacity="0.00000" height="517.5449" width="8" x="765.2764" y="121.4648"/><line style="stroke:#181818;stroke-width:0.5;stroke-dasharray:5,5;" x1="768.5586" x2="768.5586" y1="121.4648" y2="639.0098"/></g></g><g class="participant-lifeline" data-entity-uid="part4" data-qualified-name="SV" data-source-line="16" id="part4-lifeline"><g><title>self.source_view</title><rect fill="#000000" fill-opacity="0.00000" height="517.5449" width="8" x="945.7407" y="121.4648"/><line style="stroke:#181818;stroke-width:0.5;stroke-dasharray:5,5;" x1="948.9941" x2="948.9941" y1="121.4648" y2="639.0098"/></g></g><g class="participant-lifeline" data-entity-uid="part5" data-qualified-name="Puml" data-source-line="17" id="part5-lifeline"><g><title>.mdd.models..side..</title><rect fill="#000000" fill-opacity="0.00000" height="517.5449" width="8" x="1144.4492" y="121.4648"/><line style="stroke:#181818;stroke-width:0.5;stroke-dasharray:5,5;" x1="1147.4873" x2="1147.4873" y1="121.4648" y2="639.0098"/></g></g><g class="participant participant-head" data-entity-uid="part1" data-qualified-name="Dev" data-source-line="13" id="part1-head"><text fill="#000000" font-family="sans-serif" font-size="14" lengthAdjust="spacing" textLength="68.3184" x="30" y="118.5117">Developer</text><ellipse cx="67.1592" cy="53.4766" fill="#E2E2F0" rx="8" ry="8" style="stroke:#181818;stroke-width:0.5;"/><path d="M67.1592,61.4766 L67.1592,88.4766 M54.1592,69.4766 L80.1592,69.4766 M67.1592,88.4766 L54.1592,103.4766 M67.1592,88.4766 L80.1592,103.4766" fill="none" style="stroke:#181818;stroke-width:0.5;"/></g><g class="participant participant-tail" data-entity-uid="part1" data-qualified-name="Dev" data-source-line="13" id="part1-tail"><text fill="#000000" font-family="sans-serif" font-size="14" lengthAdjust="spacing" textLength="68.3184" x="30" y="651.5449">Developer</text><ellipse cx="67.1592" cy="662.998" fill="#E2E2F0" rx="8" ry="8" style="stroke:#181818;stroke-width:0.5;"/><path d="M67.1592,670.998 L67.1592,697.998 M54.1592,678.998 L80.1592,678.998 M67.1592,697.998 L54.1592,712.998 M67.1592,697.998 L80.1592,712.998" fill="none" style="stroke:#181818;stroke-width:0.5;"/></g><g class="participant participant-head" data-entity-uid="part2" data-qualified-name="Viewer" data-source-line="14" id="part2-head"><rect fill="#E2E2F0" height="46.9766" rx="2.5" ry="2.5" style="stroke:#181818;stroke-width:0.5;" width="144.9355" x="374.8901" y="73.4883"/><text fill="#000000" font-family="sans-serif" font-size="14" lengthAdjust="spacing" textLength="130.9355" x="381.8901" y="94.0234">MddViewer::update</text><text fill="#000000" font-family="sans-serif" font-size="14" lengthAdjust="spacing" textLength="94.0283" x="400.3438" y="110.5117">(CentralPanel)</text></g><g class="participant participant-tail" data-entity-uid="part2" data-qualified-name="Viewer" data-source-line="14" id="part2-tail"><rect fill="#E2E2F0" height="46.9766" rx="2.5" ry="2.5" style="stroke:#181818;stroke-width:0.5;" width="144.9355" x="374.8901" y="638.0098"/><text fill="#000000" font-family="sans-serif" font-size="14" lengthAdjust="spacing" textLength="130.9355" x="381.8901" y="658.5449">MddViewer::update</text><text fill="#000000" font-family="sans-serif" font-size="14" lengthAdjust="spacing" textLength="94.0283" x="400.3438" y="675.0332">(CentralPanel)</text></g><g class="participant participant-head" data-entity-uid="part3" data-qualified-name="Mode" data-source-line="15" id="part3-head"><rect fill="#E2E2F0" height="46.9766" rx="2.5" ry="2.5" style="stroke:#181818;stroke-width:0.5;" width="127.4355" x="705.5586" y="73.4883"/><text fill="#000000" font-family="sans-serif" font-size="14" lengthAdjust="spacing" textLength="103.5166" x="717.5181" y="94.0234">self.view : View</text><text fill="#000000" font-family="sans-serif" font-size="14" lengthAdjust="spacing" textLength="113.4355" x="712.5586" y="110.5117">{Svg|Source|Diff}</text></g><g class="participant participant-tail" data-entity-uid="part3" data-qualified-name="Mode" data-source-line="15" id="part3-tail"><rect fill="#E2E2F0" height="46.9766" rx="2.5" ry="2.5" style="stroke:#181818;stroke-width:0.5;" width="127.4355" x="705.5586" y="638.0098"/><text fill="#000000" font-family="sans-serif" font-size="14" lengthAdjust="spacing" textLength="103.5166" x="717.5181" y="658.5449">self.view : View</text><text fill="#000000" font-family="sans-serif" font-size="14" lengthAdjust="spacing" textLength="113.4355" x="712.5586" y="675.0332">{Svg|Source|Diff}</text></g><g class="participant participant-head" data-entity-uid="part4" data-qualified-name="SV" data-source-line="16" id="part4-head"><rect fill="#E2E2F0" height="46.9766" rx="2.5" ry="2.5" style="stroke:#181818;stroke-width:0.5;" width="213.4932" x="842.9941" y="73.4883"/><text fill="#000000" font-family="sans-serif" font-size="14" lengthAdjust="spacing" textLength="110.5645" x="894.4585" y="94.0234">self.source_view</text><text fill="#000000" font-family="sans-serif" font-size="14" lengthAdjust="spacing" textLength="199.4932" x="849.9941" y="110.5117">SourceView { loaded, source }</text></g><g class="participant participant-tail" data-entity-uid="part4" data-qualified-name="SV" data-source-line="16" id="part4-tail"><rect fill="#E2E2F0" height="46.9766" rx="2.5" ry="2.5" style="stroke:#181818;stroke-width:0.5;" width="213.4932" x="842.9941" y="638.0098"/><text fill="#000000" font-family="sans-serif" font-size="14" lengthAdjust="spacing" textLength="110.5645" x="894.4585" y="658.5449">self.source_view</text><text fill="#000000" font-family="sans-serif" font-size="14" lengthAdjust="spacing" textLength="199.4932" x="849.9941" y="675.0332">SourceView { loaded, source }</text></g><g class="participant participant-head" data-entity-uid="part5" data-qualified-name="Puml" data-source-line="17" id="part5-head"><text fill="#000000" font-family="sans-serif" font-size="14" lengthAdjust="spacing" textLength="156.666" x="1067.1162" y="102.0234">.mdd/models/&lt;side&gt;/</text><text fill="#000000" font-family="sans-serif" font-size="14" lengthAdjust="spacing" textLength="157.9238" x="1066.4873" y="118.5117">&lt;kind&gt;/&lt;name&gt;.puml</text><path d="M1130.4492,52.4883 C1130.4492,42.4883 1148.4492,42.4883 1148.4492,42.4883 C1148.4492,42.4883 1166.4492,42.4883 1166.4492,52.4883 L1166.4492,78.4883 C1166.4492,88.4883 1148.4492,88.4883 1148.4492,88.4883 C1148.4492,88.4883 1130.4492,88.4883 1130.4492,78.4883 L1130.4492,52.4883" fill="#E2E2F0" style="stroke:#181818;stroke-width:0.5;"/><path d="M1130.4492,52.4883 C1130.4492,62.4883 1148.4492,62.4883 1148.4492,62.4883 C1148.4492,62.4883 1166.4492,62.4883 1166.4492,52.4883" fill="none" style="stroke:#181818;stroke-width:0.5;"/></g><g class="participant participant-tail" data-entity-uid="part5" data-qualified-name="Puml" data-source-line="17" id="part5-tail"><text fill="#000000" font-family="sans-serif" font-size="14" lengthAdjust="spacing" textLength="156.666" x="1067.1162" y="651.5449">.mdd/models/&lt;side&gt;/</text><text fill="#000000" font-family="sans-serif" font-size="14" lengthAdjust="spacing" textLength="157.9238" x="1066.4873" y="668.0332">&lt;kind&gt;/&lt;name&gt;.puml</text><path d="M1130.4492,680.9863 C1130.4492,670.9863 1148.4492,670.9863 1148.4492,670.9863 C1148.4492,670.9863 1166.4492,670.9863 1166.4492,680.9863 L1166.4492,706.9863 C1166.4492,716.9863 1148.4492,716.9863 1148.4492,716.9863 C1148.4492,716.9863 1130.4492,716.9863 1130.4492,706.9863 L1130.4492,680.9863" fill="#E2E2F0" style="stroke:#181818;stroke-width:0.5;"/><path d="M1130.4492,680.9863 C1130.4492,690.9863 1148.4492,690.9863 1148.4492,690.9863 C1148.4492,690.9863 1166.4492,690.9863 1166.4492,680.9863" fill="none" style="stroke:#181818;stroke-width:0.5;"/></g><g class="message" data-entity-1="part1" data-entity-2="part2" data-source-line="19" id="msg1"><polygon fill="#181818" points="435.3579,148.7754,445.3579,152.7754,435.3579,156.7754,439.3579,152.7754" style="stroke:#181818;stroke-width:1;"/><line style="stroke:#181818;stroke-width:1;" x1="67.1592" x2="441.3579" y1="152.7754" y2="152.7754"/><text fill="#000000" font-family="sans-serif" font-size="13" lengthAdjust="spacing" textLength="179.1055" x="74.1592" y="148.0332">select a model file in the rail</text></g><g class="message" data-entity-1="part2" data-entity-2="part1" data-source-line="20" id="msg2"><polygon fill="#181818" points="78.1592,178.0859,68.1592,182.0859,78.1592,186.0859,74.1592,182.0859" style="stroke:#181818;stroke-width:1;"/><line style="stroke:#181818;stroke-width:1;" x1="72.1592" x2="446.3579" y1="182.0859" y2="182.0859"/><text fill="#000000" font-family="sans-serif" font-size="13" lengthAdjust="spacing" textLength="321.7056" x="84.1592" y="177.3438">paint "Diagram | Source | Diff" selectable_label row</text></g><path d="M10,197.0859 L72.1387,197.0859 L72.1387,204.3965 L62.1387,214.3965 L10,214.3965 L10,197.0859" fill="#EEEEEE" style="stroke:#000000;stroke-width:1.5;"/><rect fill="none" height="328.3711" style="stroke:#000000;stroke-width:1.5;" width="1240.4111" x="10" y="197.0859"/><text fill="#000000" font-family="sans-serif" font-size="13" font-weight="700" lengthAdjust="spacing" textLength="17.1387" x="25" y="210.6543">alt</text><text fill="#000000" font-family="sans-serif" font-size="11" font-weight="700" lengthAdjust="spacing" textLength="154.3276" x="87.1387" y="209.7207">[self.view == Svg (default)]</text><g class="message" data-entity-1="part2" data-entity-2="part1" data-source-line="23" id="msg3"><polygon fill="#181818" points="78.1592,231.707,68.1592,235.707,78.1592,239.707,74.1592,235.707" style="stroke:#181818;stroke-width:1;"/><line style="stroke:#181818;stroke-width:1;" x1="72.1592" x2="446.3579" y1="235.707" y2="235.707"/><text fill="#000000" font-family="sans-serif" font-size="13" lengthAdjust="spacing" textLength="298.5747" x="84.1592" y="230.9648">paint_canvas (rendered SVG) &#8212; existing branch</text></g><line style="stroke:#000000;stroke-width:1;stroke-dasharray:2,2;" x1="10" x2="1250.4111" y1="244.707" y2="244.707"/><text fill="#000000" font-family="sans-serif" font-size="11" font-weight="700" lengthAdjust="spacing" textLength="120.2964" x="15" y="255.3418">[self.view == Source]</text><g class="message" data-entity-1="part1" data-entity-2="part2" data-source-line="25" id="msg4"><polygon fill="#181818" points="435.3579,275.9727,445.3579,279.9727,435.3579,283.9727,439.3579,279.9727" style="stroke:#181818;stroke-width:1;"/><line style="stroke:#181818;stroke-width:1;" x1="67.1592" x2="441.3579" y1="279.9727" y2="279.9727"/><text fill="#000000" font-family="sans-serif" font-size="13" lengthAdjust="spacing" textLength="84.5317" x="74.1592" y="275.2305">click "Source"</text></g><g class="message" data-entity-1="part2" data-entity-2="part3" data-source-line="26" id="msg5"><polygon fill="#181818" points="757.2764,305.2832,767.2764,309.2832,757.2764,313.2832,761.2764,309.2832" style="stroke:#181818;stroke-width:1;"/><line style="stroke:#181818;stroke-width:1;" x1="447.3579" x2="763.2764" y1="309.2832" y2="309.2832"/><text fill="#000000" font-family="sans-serif" font-size="13" lengthAdjust="spacing" textLength="152.8452" x="454.3579" y="304.541">self.view = View::Source</text></g><g class="message" data-entity-1="part2" data-entity-2="part2" data-source-line="27" id="msg6"><line style="stroke:#181818;stroke-width:1;" x1="447.3579" x2="489.3579" y1="338.5938" y2="338.5938"/><line style="stroke:#181818;stroke-width:1;" x1="489.3579" x2="489.3579" y1="338.5938" y2="351.5938"/><line style="stroke:#181818;stroke-width:1;" x1="448.3579" x2="489.3579" y1="351.5938" y2="351.5938"/><polygon fill="#181818" points="458.3579,347.5938,448.3579,351.5938,458.3579,355.5938,454.3579,351.5938" style="stroke:#181818;stroke-width:1;"/><text fill="#000000" font-family="sans-serif" font-size="13" lengthAdjust="spacing" textLength="307.9185" x="454.3579" y="333.8516">source_ui(ui)  (return before OCL/canvas branch)</text></g><path d="M364.8901,366.5938 L427.0288,366.5938 L427.0288,373.9043 L417.0288,383.9043 L364.8901,383.9043 L364.8901,366.5938" fill="#EEEEEE" style="stroke:#000000;stroke-width:1.5;"/><rect fill="none" height="75.9316" style="stroke:#000000;stroke-width:1.5;" width="875.521" x="364.8901" y="366.5938"/><text fill="#000000" font-family="sans-serif" font-size="13" font-weight="700" lengthAdjust="spacing" textLength="17.1387" x="379.8901" y="380.1621">alt</text><text fill="#000000" font-family="sans-serif" font-size="11" font-weight="700" lengthAdjust="spacing" textLength="237.0371" x="442.0288" y="379.2285">[self.source_view.loaded != selected path]</text><g class="message" data-entity-1="part2" data-entity-2="part5" data-source-line="29" id="msg7"><polygon fill="#181818" points="1136.4492,401.2148,1146.4492,405.2148,1136.4492,409.2148,1140.4492,405.2148" style="stroke:#181818;stroke-width:1;"/><line style="stroke:#181818;stroke-width:1;" x1="447.3579" x2="1142.4492" y1="405.2148" y2="405.2148"/><text fill="#000000" font-family="sans-serif" font-size="13" lengthAdjust="spacing" textLength="223.4438" x="454.3579" y="400.4727">fs::read_to_string(root.join(file_rel))</text></g><g class="message" data-entity-1="part5" data-entity-2="part4" data-source-line="30" id="msg8"><polygon fill="#181818" points="960.7407,430.5254,950.7407,434.5254,960.7407,438.5254,956.7407,434.5254" style="stroke:#181818;stroke-width:1;"/><line style="stroke:#181818;stroke-width:1;stroke-dasharray:2,2;" x1="954.7407" x2="1147.4492" y1="434.5254" y2="434.5254"/><text fill="#000000" font-family="sans-serif" font-size="13" lengthAdjust="spacing" textLength="172.9038" x="966.7407" y="429.7832">source text (loaded = path)</text></g><path d="M20,456.5254 L94.4468,456.5254 L94.4468,463.8359 L84.4468,473.8359 L20,473.8359 L20,456.5254" fill="#EEEEEE" style="stroke:#000000;stroke-width:1.5;"/><rect fill="none" height="61.9316" style="stroke:#000000;stroke-width:1.5;" width="509.8257" x="20" y="456.5254"/><text fill="#000000" font-family="sans-serif" font-size="13" font-weight="700" lengthAdjust="spacing" textLength="29.4468" x="35" y="470.0938">loop</text><text fill="#000000" font-family="sans-serif" font-size="11" font-weight="700" lengthAdjust="spacing" textLength="117.2832" x="109.4468" y="469.1602">[each painted frame]</text><g class="message" data-entity-1="part2" data-entity-2="part1" data-source-line="33" id="msg9"><polygon fill="#181818" points="78.1592,506.457,68.1592,510.457,78.1592,514.457,74.1592,510.457" style="stroke:#181818;stroke-width:1;"/><line style="stroke:#181818;stroke-width:1;" x1="72.1592" x2="446.3579" y1="510.457" y2="510.457"/><text fill="#000000" font-family="sans-serif" font-size="13" lengthAdjust="spacing" textLength="300.5933" x="84.1592" y="490.4043">ScrollArea::both of read-only monospace labels</text><text fill="#000000" font-family="sans-serif" font-size="13" lengthAdjust="spacing" textLength="356.1987" x="84.1592" y="505.7148">(' @ markers yellow, @start/@end blue, ' comments dim)</text></g><path d="M775,537.457 L775,623.457 L1122,623.457 L1122,547.457 L1112,537.457 L775,537.457" fill="#FEFFDD" style="stroke:#181818;stroke-width:0.5;"/><path d="M1112,537.457 L1112,547.457 L1122,547.457 L1112,537.457" fill="#FEFFDD" style="stroke:#181818;stroke-width:0.5;"/><text fill="#000000" font-family="sans-serif" font-size="13" lengthAdjust="spacing" textLength="325.1968" x="781" y="555.0254">source_ui caches (loaded, source) so the file is read</text><text fill="#000000" font-family="sans-serif" font-size="13" lengthAdjust="spacing" textLength="326.9678" x="781" y="570.3359">once per selection. It calls no DiagramPage / usvg /</text><text fill="#000000" font-family="sans-serif" font-size="13" lengthAdjust="spacing" textLength="323.7622" x="781" y="585.6465">resvg path &#8212; the text is read straight from disk, so</text><text fill="#000000" font-family="sans-serif" font-size="13" lengthAdjust="spacing" textLength="299.6792" x="781" y="600.957">Source works even when the SVG is unrendered</text><text fill="#000000" font-family="sans-serif" font-size="13" lengthAdjust="spacing" textLength="222.9487" x="781" y="616.2676">(OCL-PUML-SOURCE-NO-RENDER).</text><?plantuml-src TLRBRkCu4BpxAtfzYGnOqkmUbGSoI8p509F7n8Zt4i2c9ShcXY85ad8cI0ROZzWld2-P8YKxLiOvnB7DRdPNTNN9HnJ7CJsjjUHnnMggZTvmnLJECygVSyd9hPaZePpHHPFpWZZBrtGk2fyuEABp41LD9z_YsPV9F_7j_TNNU7fpVtSn6TEdJt_-DV91eZWO4SuCBwFxwUJG8Oul6cEuSh4L1QTIwYTYbaHLIrxXQ_GZ5EM6EMxJgYZYZU1FtAJMvAaKoyJO302ulmVHXibRfhYaIy5MXbNqIbFTc9pZpQKeIt9wjG9aev_6DCDDMTQT5yBMpENhCMvYgg2hefY5IbbcGyIy4MGuAuHQ-OAKr4qboQAaMAqTbKPN_fB7980wBxZDF-1i-DbIhWjUPDJK1O15eoFRRxzcc8SbzY4EooNF7LjAFfTiYGmWIkX2YlpHDzW5MuvB45ecdZKwxK4-tbNtUDIE0Mvf8Shzj7uUlRHdErgYHeoEmOrhZ3gc7mjQyb8R7bZAjGeKAPVcJ6qmsQM1zjO9zLcr8Rf5XP6N0aFIqAZNfTx6XcwY7F94oFAvruO_IwHce7KqRW5r90OvIw7yNSHNZG2Gt6WfFwDmbYsrMtl5iT17h9Lyfaeh3J9GFf0x1WofZITsWT4kg6BcaHixfiMvTSouHReuvwfOW4C306833hs85aSBf5PUnpQXQxqTvorR0PwXncvMgU5ufPn9cGn70oSSe7k-qL45bSX01WHoAvboq5771eXe5sSq6B3SuRRX9TzmgMjkXXuGFWrgD2ToKIEJXdkIRYV_eA9zrOr2MXlIptpJGXRE7zJBTBDwRVNmwWNv8-HUeTy3cNiZUb1jKW3uGkt0nbj8xItJsG3TiIMpd8O9TZuDFDZqn5l4MVgWJY3ouYmzKQpYPs4HG-8jtWm6m4tnMOS33RUYwh7fbU3r1c7AGHU859-PjR81cOStRtXmzJ02wVeh0u8eAdZ96eaH4HqiC--M8i8W2suWw-dixn7z_Ez_uj-5TLvoxS8CG01_Lo7qXQlV8ywz3T2mFH_sQli9jPmSz8HUx1k3-vjElbc_wjirlxdusjzjZtP7n-_hIN-SlYqw76UDyFsoVeeeMjeiynivTteE2m4JaT7Q9VzgeI8_nBc1P4SXEQJ4o9tETksIuzyTHLtDqr39HuDel4gjwzOPmXoyvM3O_5qhxQH-SmjTVkmL5ai5ZzXQ13rpAVt3fZMArDi4BMN3ntIqimROHhLjpVyDb7RmXmsQm2xGdbK6xxDRLDkz6U5_q7EhRHkwGrumKDX1HxVGAg4lBbYD9TLtepIO4QL8Qmt9ynM4w2yEN7ON7tZc-KQGs2tAapQFi5tyoi3F3jvk6cJjynkr5Jh28oXd_yaONz_4TvFhoydTAF4yaAVX5m00?></g></svg>