<svg xmlns="http://www.w3.org/2000/svg" xmlns:xlink="http://www.w3.org/1999/xlink" contentStyleType="text/css" data-diagram-type="SEQUENCE" height="869px" preserveAspectRatio="none" style="width:1033px;height:869px;background:#FFFFFF;" version="1.1" viewBox="0 0 1033 869" width="1033px" zoomAndPan="magnify"><?plantuml 1.2026.3?><defs/><g><g class="title" data-source-line="12"><text fill="#000000" font-family="sans-serif" font-size="14" font-weight="700" lengthAdjust="spacing" textLength="431.9424" x="297.0645" y="28.5352">Accumulate the whole-map baseline at cycle close (current)</text></g><rect fill="none" height="232.75" style="stroke:#000000;stroke-width:1.5;" width="965.7905" x="10" y="228.8848"/><rect fill="none" height="201.4395" style="stroke:#000000;stroke-width:1.5;" width="945.7905" x="20" y="253.1953"/><rect fill="none" height="46.6211" style="stroke:#000000;stroke-width:1.5;" width="820.2495" x="20" y="475.6348"/><g class="participant-lifeline" data-entity-uid="part1" data-qualified-name="Close" data-source-line="14" id="part1-lifeline"><g><title>.mdd-cycle</title><rect fill="#000000" fill-opacity="0.00000" height="630.4082" width="8" x="108.3013" y="137.9531"/><line style="stroke:#181818;stroke-width:0.5;stroke-dasharray:5,5;" x1="112" x2="112" y1="137.9531" y2="768.3613"/></g></g><g class="participant-lifeline" data-entity-uid="part2" data-qualified-name="Snap" data-source-line="15" id="part2-lifeline"><g><title>.mdd.cycles..N..</title><rect fill="#000000" fill-opacity="0.00000" height="630.4082" width="8" x="430.8252" y="137.9531"/><line style="stroke:#181818;stroke-width:0.5;stroke-dasharray:5,5;" x1="434.2271" x2="434.2271" y1="137.9531" y2="768.3613"/></g></g><g class="participant-lifeline" data-entity-uid="part3" data-qualified-name="Diff" data-source-line="16" id="part3-lifeline"><g><title>CycleDiff per</title><rect fill="#000000" fill-opacity="0.00000" height="630.4082" width="8" x="586.8745" y="137.9531"/><line style="stroke:#181818;stroke-width:0.5;stroke-dasharray:5,5;" x1="590.4233" x2="590.4233" y1="137.9531" y2="768.3613"/></g></g><g class="participant-lifeline" data-entity-uid="part4" data-qualified-name="Map" data-source-line="17" id="part4-lifeline"><g><title>.mdd.map.</title><rect fill="#000000" fill-opacity="0.00000" height="630.4082" width="8" x="744.2876" y="137.9531"/><line style="stroke:#181818;stroke-width:0.5;stroke-dasharray:5,5;" x1="747.3257" x2="747.3257" y1="137.9531" y2="768.3613"/></g></g><g class="participant-lifeline" data-entity-uid="part5" data-qualified-name="Render" data-source-line="18" id="part5-lifeline"><g><title>.mdd-render</title><rect fill="#000000" fill-opacity="0.00000" height="630.4082" width="8" x="965.7251" y="137.9531"/><line style="stroke:#181818;stroke-width:0.5;stroke-dasharray:5,5;" x1="969.3789" x2="969.3789" y1="137.9531" y2="768.3613"/></g></g><g class="participant participant-head" data-entity-uid="part1" data-qualified-name="Close" data-source-line="14" id="part1-head"><rect fill="#E2E2F0" height="46.9766" rx="2.5" ry="2.5" style="stroke:#181818;stroke-width:0.5;" width="164.6025" x="30" y="89.9766"/><text fill="#000000" font-family="sans-serif" font-size="14" lengthAdjust="spacing" textLength="79.6387" x="72.4819" y="110.5117">/mdd-cycle</text><text fill="#000000" font-family="sans-serif" font-size="14" lengthAdjust="spacing" textLength="150.6025" x="37" y="127">(Close step, SKILL.md)</text></g><g class="participant participant-tail" data-entity-uid="part1" data-qualified-name="Close" data-source-line="14" id="part1-tail"><rect fill="#E2E2F0" height="46.9766" rx="2.5" ry="2.5" style="stroke:#181818;stroke-width:0.5;" width="164.6025" x="30" y="767.3613"/><text fill="#000000" font-family="sans-serif" font-size="14" lengthAdjust="spacing" textLength="79.6387" x="72.4819" y="787.8965">/mdd-cycle</text><text fill="#000000" font-family="sans-serif" font-size="14" lengthAdjust="spacing" textLength="150.6025" x="37" y="804.3848">(Close step, SKILL.md)</text></g><g class="participant participant-head" data-entity-uid="part2" data-qualified-name="Snap" data-source-line="15" id="part2-head"><text fill="#000000" font-family="sans-serif" font-size="14" lengthAdjust="spacing" textLength="130.3887" x="366.6309" y="118.5117">.mdd/cycles/&lt;N&gt;/</text><text fill="#000000" font-family="sans-serif" font-size="14" lengthAdjust="spacing" textLength="155.1963" x="354.2271" y="135">before/, after/, whole/</text><path d="M416.8252,68.9766 C416.8252,58.9766 434.8252,58.9766 434.8252,58.9766 C434.8252,58.9766 452.8252,58.9766 452.8252,68.9766 L452.8252,94.9766 C452.8252,104.9766 434.8252,104.9766 434.8252,104.9766 C434.8252,104.9766 416.8252,104.9766 416.8252,94.9766 L416.8252,68.9766" fill="#E2E2F0" style="stroke:#181818;stroke-width:0.5;"/><path d="M416.8252,68.9766 C416.8252,78.9766 434.8252,78.9766 434.8252,78.9766 C434.8252,78.9766 452.8252,78.9766 452.8252,68.9766" fill="none" style="stroke:#181818;stroke-width:0.5;"/></g><g class="participant participant-tail" data-entity-uid="part2" data-qualified-name="Snap" data-source-line="15" id="part2-tail"><text fill="#000000" font-family="sans-serif" font-size="14" lengthAdjust="spacing" textLength="130.3887" x="366.6309" y="780.8965">.mdd/cycles/&lt;N&gt;/</text><text fill="#000000" font-family="sans-serif" font-size="14" lengthAdjust="spacing" textLength="155.1963" x="354.2271" y="797.3848">before/, after/, whole/</text><path d="M416.8252,810.3379 C416.8252,800.3379 434.8252,800.3379 434.8252,800.3379 C434.8252,800.3379 452.8252,800.3379 452.8252,810.3379 L452.8252,836.3379 C452.8252,846.3379 434.8252,846.3379 434.8252,846.3379 C434.8252,846.3379 416.8252,846.3379 416.8252,836.3379 L416.8252,810.3379" fill="#E2E2F0" style="stroke:#181818;stroke-width:0.5;"/><path d="M416.8252,810.3379 C416.8252,820.3379 434.8252,820.3379 434.8252,820.3379 C434.8252,820.3379 452.8252,820.3379 452.8252,810.3379" fill="none" style="stroke:#181818;stroke-width:0.5;"/></g><g class="participant participant-head" data-entity-uid="part3" data-qualified-name="Diff" data-source-line="16" id="part3-head"><rect fill="#E2E2F0" height="46.9766" style="stroke:#181818;stroke-width:0.5;" width="126.9023" x="529.4233" y="85.9766"/><rect fill="#E2E2F0" height="46.9766" style="stroke:#181818;stroke-width:0.5;" width="126.9023" x="525.4233" y="89.9766"/><text fill="#000000" font-family="sans-serif" font-size="14" lengthAdjust="spacing" textLength="87.6162" x="545.0664" y="110.5117">CycleDiff per</text><text fill="#000000" font-family="sans-serif" font-size="14" lengthAdjust="spacing" textLength="112.9023" x="532.4233" y="127">touched concept</text></g><g class="participant participant-tail" data-entity-uid="part3" data-qualified-name="Diff" data-source-line="16" id="part3-tail"><rect fill="#E2E2F0" height="46.9766" style="stroke:#181818;stroke-width:0.5;" width="126.9023" x="529.4233" y="767.3613"/><rect fill="#E2E2F0" height="46.9766" style="stroke:#181818;stroke-width:0.5;" width="126.9023" x="525.4233" y="771.3613"/><text fill="#000000" font-family="sans-serif" font-size="14" lengthAdjust="spacing" textLength="87.6162" x="545.0664" y="791.8965">CycleDiff per</text><text fill="#000000" font-family="sans-serif" font-size="14" lengthAdjust="spacing" textLength="112.9023" x="532.4233" y="808.3848">touched concept</text></g><g class="participant participant-head" data-entity-uid="part4" data-qualified-name="Map" data-source-line="17" id="part4-head"><text fill="#000000" font-family="sans-serif" font-size="14" lengthAdjust="spacing" textLength="79.4199" x="705.5776" y="102.0234">.mdd/map/</text><text fill="#000000" font-family="sans-serif" font-size="14" lengthAdjust="spacing" textLength="157.9238" x="666.3257" y="118.5117">&lt;kind&gt;/&lt;name&gt;.puml</text><text fill="#000000" font-family="sans-serif" font-size="14" lengthAdjust="spacing" textLength="103.2773" x="693.6489" y="135">+ manifest.yml</text><path d="M730.2876,52.4883 C730.2876,42.4883 748.2876,42.4883 748.2876,42.4883 C748.2876,42.4883 766.2876,42.4883 766.2876,52.4883 L766.2876,78.4883 C766.2876,88.4883 748.2876,88.4883 748.2876,88.4883 C748.2876,88.4883 730.2876,88.4883 730.2876,78.4883 L730.2876,52.4883" fill="#E2E2F0" style="stroke:#181818;stroke-width:0.5;"/><path d="M730.2876,52.4883 C730.2876,62.4883 748.2876,62.4883 748.2876,62.4883 C748.2876,62.4883 766.2876,62.4883 766.2876,52.4883" fill="none" style="stroke:#181818;stroke-width:0.5;"/></g><g class="participant participant-tail" data-entity-uid="part4" data-qualified-name="Map" data-source-line="17" id="part4-tail"><text fill="#000000" font-family="sans-serif" font-size="14" lengthAdjust="spacing" textLength="79.4199" x="705.5776" y="780.8965">.mdd/map/</text><text fill="#000000" font-family="sans-serif" font-size="14" lengthAdjust="spacing" textLength="157.9238" x="666.3257" y="797.3848">&lt;kind&gt;/&lt;name&gt;.puml</text><text fill="#000000" font-family="sans-serif" font-size="14" lengthAdjust="spacing" textLength="103.2773" x="693.6489" y="813.873">+ manifest.yml</text><path d="M730.2876,826.8262 C730.2876,816.8262 748.2876,816.8262 748.2876,816.8262 C748.2876,816.8262 766.2876,816.8262 766.2876,826.8262 L766.2876,852.8262 C766.2876,862.8262 748.2876,862.8262 748.2876,862.8262 C748.2876,862.8262 730.2876,862.8262 730.2876,852.8262 L730.2876,826.8262" fill="#E2E2F0" style="stroke:#181818;stroke-width:0.5;"/><path d="M730.2876,826.8262 C730.2876,836.8262 748.2876,836.8262 748.2876,836.8262 C748.2876,836.8262 766.2876,836.8262 766.2876,826.8262" fill="none" style="stroke:#181818;stroke-width:0.5;"/></g><g class="participant participant-head" data-entity-uid="part5" data-qualified-name="Render" data-source-line="18" id="part5-head"><rect fill="#E2E2F0" height="30.4883" rx="2.5" ry="2.5" style="stroke:#181818;stroke-width:0.5;" width="104.6924" x="917.3789" y="106.4648"/><text fill="#000000" font-family="sans-serif" font-size="14" lengthAdjust="spacing" textLength="90.6924" x="924.3789" y="127">/mdd-render</text></g><g class="participant participant-tail" data-entity-uid="part5" data-qualified-name="Render" data-source-line="18" id="part5-tail"><rect fill="#E2E2F0" height="30.4883" rx="2.5" ry="2.5" style="stroke:#181818;stroke-width:0.5;" width="104.6924" x="917.3789" y="767.3613"/><text fill="#000000" font-family="sans-serif" font-size="14" lengthAdjust="spacing" textLength="90.6924" x="924.3789" y="787.8965">/mdd-render</text></g><g class="message" data-entity-1="part1" data-entity-2="part2" data-source-line="20" id="msg1"><polygon fill="#181818" points="422.8252,180.5742,432.8252,184.5742,422.8252,188.5742,426.8252,184.5742" style="stroke:#181818;stroke-width:1;"/><line style="stroke:#181818;stroke-width:1;" x1="112.3013" x2="428.8252" y1="184.5742" y2="184.5742"/><text fill="#000000" font-family="sans-serif" font-size="13" lengthAdjust="spacing" textLength="237.0088" x="119.3013" y="164.5215">after the cycle's &lt;diagram&gt;.diff.puml</text><text fill="#000000" font-family="sans-serif" font-size="13" lengthAdjust="spacing" textLength="223.6724" x="119.3013" y="179.832">are written, read before/ and after/</text></g><g class="message" data-entity-1="part1" data-entity-2="part3" data-source-line="21" id="msg2"><polygon fill="#181818" points="578.8745,209.8848,588.8745,213.8848,578.8745,217.8848,582.8745,213.8848" style="stroke:#181818;stroke-width:1;"/><line style="stroke:#181818;stroke-width:1;" x1="112.3013" x2="584.8745" y1="213.8848" y2="213.8848"/><text fill="#000000" font-family="sans-serif" font-size="13" lengthAdjust="spacing" textLength="259.3145" x="119.3013" y="209.1426">@id add/remove/unchanged per concept</text></g><path d="M10,228.8848 L84.4468,228.8848 L84.4468,236.1953 L74.4468,246.1953 L10,246.1953 L10,228.8848" fill="#EEEEEE" style="stroke:#000000;stroke-width:1.5;"/><rect fill="none" height="232.75" style="stroke:#000000;stroke-width:1.5;" width="965.7905" x="10" y="228.8848"/><text fill="#000000" font-family="sans-serif" font-size="13" font-weight="700" lengthAdjust="spacing" textLength="29.4468" x="25" y="242.4531">loop</text><text fill="#000000" font-family="sans-serif" font-size="11" font-weight="700" lengthAdjust="spacing" textLength="254.0313" x="99.4468" y="241.5195">[for each concept &lt;kind&gt;/&lt;name&gt; in after/]</text><path d="M20,253.1953 L82.1387,253.1953 L82.1387,260.5059 L72.1387,270.5059 L20,270.5059 L20,253.1953" fill="#EEEEEE" style="stroke:#000000;stroke-width:1.5;"/><rect fill="none" height="201.4395" style="stroke:#000000;stroke-width:1.5;" width="945.7905" x="20" y="253.1953"/><text fill="#000000" font-family="sans-serif" font-size="13" font-weight="700" lengthAdjust="spacing" textLength="17.1387" x="35" y="266.7637">alt</text><text fill="#000000" font-family="sans-serif" font-size="11" font-weight="700" lengthAdjust="spacing" textLength="243.2515" x="97.1387" y="265.8301">[.mdd/map/&lt;kind&gt;/&lt;name&gt;.puml absent]</text><g class="message" data-entity-1="part1" data-entity-2="part4" data-source-line="25" id="msg3"><polygon fill="#181818" points="736.2876,303.127,746.2876,307.127,736.2876,311.127,740.2876,307.127" style="stroke:#181818;stroke-width:1;"/><line style="stroke:#181818;stroke-width:1;" x1="112.3013" x2="742.2876" y1="307.127" y2="307.127"/><text fill="#000000" font-family="sans-serif" font-size="13" lengthAdjust="spacing" textLength="133.5674" x="119.3013" y="287.0742">copy after/ verbatim;</text><text fill="#000000" font-family="sans-serif" font-size="13" lengthAdjust="spacing" textLength="234.9521" x="119.3013" y="302.3848">prepend ' @cycle(&lt;ID&gt;,&lt;N&gt;) per @id</text></g><line style="stroke:#000000;stroke-width:1;stroke-dasharray:2,2;" x1="20" x2="965.7905" y1="316.127" y2="316.127"/><text fill="#000000" font-family="sans-serif" font-size="11" font-weight="700" lengthAdjust="spacing" textLength="41.5723" x="25" y="326.7617">[exists]</text><g class="message" data-entity-1="part1" data-entity-2="part4" data-source-line="27" id="msg4"><polygon fill="#181818" points="736.2876,362.7031,746.2876,366.7031,736.2876,370.7031,740.2876,366.7031" style="stroke:#181818;stroke-width:1;"/><line style="stroke:#181818;stroke-width:1;" x1="112.3013" x2="742.2876" y1="366.7031" y2="366.7031"/><text fill="#000000" font-family="sans-serif" font-size="13" lengthAdjust="spacing" textLength="187.4463" x="119.3013" y="346.6504">insert added @ids from after/</text><text fill="#000000" font-family="sans-serif" font-size="13" lengthAdjust="spacing" textLength="174.1416" x="119.3013" y="361.9609">tagged ' @cycle(&lt;ID&gt;,&lt;N&gt;)</text></g><g class="message" data-entity-1="part1" data-entity-2="part4" data-source-line="28" id="msg5"><polygon fill="#181818" points="736.2876,407.3242,746.2876,411.3242,736.2876,415.3242,740.2876,411.3242" style="stroke:#181818;stroke-width:1;"/><line style="stroke:#181818;stroke-width:1;" x1="112.3013" x2="742.2876" y1="411.3242" y2="411.3242"/><text fill="#000000" font-family="sans-serif" font-size="13" lengthAdjust="spacing" textLength="207.0605" x="119.3013" y="391.2715">delete removed @ids + elements</text><text fill="#000000" font-family="sans-serif" font-size="13" lengthAdjust="spacing" textLength="149.3477" x="119.3013" y="406.582">(net cancel &#8212; no ghost)</text></g><path d="M753,424.3242 L753,449.3242 L955,449.3242 L955,434.3242 L945,424.3242 L753,424.3242" fill="#FEFFDD" style="stroke:#181818;stroke-width:0.5;"/><path d="M945,424.3242 L945,434.3242 L955,434.3242 L945,424.3242" fill="#FEFFDD" style="stroke:#181818;stroke-width:0.5;"/><text fill="#000000" font-family="sans-serif" font-size="13" lengthAdjust="spacing" textLength="181.7905" x="759" y="441.8926">unchanged @ids keep earlier</text><path d="M20,475.6348 L82.1387,475.6348 L82.1387,482.9453 L72.1387,492.9453 L20,492.9453 L20,475.6348" fill="#EEEEEE" style="stroke:#000000;stroke-width:1.5;"/><rect fill="none" height="46.6211" style="stroke:#000000;stroke-width:1.5;" width="820.2495" x="20" y="475.6348"/><text fill="#000000" font-family="sans-serif" font-size="13" font-weight="700" lengthAdjust="spacing" textLength="17.1387" x="35" y="489.2031">alt</text><text fill="#000000" font-family="sans-serif" font-size="11" font-weight="700" lengthAdjust="spacing" textLength="247.9619" x="97.1387" y="488.2695">[concept in before/ not after/ (file deleted)]</text><g class="message" data-entity-1="part1" data-entity-2="part4" data-source-line="37" id="msg6"><polygon fill="#181818" points="736.2876,510.2559,746.2876,514.2559,736.2876,518.2559,740.2876,514.2559" style="stroke:#181818;stroke-width:1;"/><line style="stroke:#181818;stroke-width:1;" x1="112.3013" x2="742.2876" y1="514.2559" y2="514.2559"/><text fill="#000000" font-family="sans-serif" font-size="13" lengthAdjust="spacing" textLength="271.1592" x="119.3013" y="509.5137">remove .mdd/map/&lt;kind&gt;/&lt;name&gt;.puml</text></g><g class="message" data-entity-1="part1" data-entity-2="part4" data-source-line="40" id="msg7"><polygon fill="#181818" points="736.2876,561.877,746.2876,565.877,736.2876,569.877,740.2876,565.877" style="stroke:#181818;stroke-width:1;"/><line style="stroke:#181818;stroke-width:1;" x1="112.3013" x2="742.2876" y1="565.877" y2="565.877"/><text fill="#000000" font-family="sans-serif" font-size="13" lengthAdjust="spacing" textLength="129.3271" x="119.3013" y="545.8242">rewrite manifest.yml</text><text fill="#000000" font-family="sans-serif" font-size="13" lengthAdjust="spacing" textLength="266.9888" x="119.3013" y="561.1348">(version, last_cycle=N, generated_at, files)</text></g><g class="message" data-entity-1="part1" data-entity-2="part2" data-source-line="41" id="msg8"><polygon fill="#181818" points="422.8252,591.1875,432.8252,595.1875,422.8252,599.1875,426.8252,595.1875" style="stroke:#181818;stroke-width:1;"/><line style="stroke:#181818;stroke-width:1;" x1="112.3013" x2="428.8252" y1="595.1875" y2="595.1875"/><text fill="#000000" font-family="sans-serif" font-size="13" lengthAdjust="spacing" textLength="298.5239" x="119.3013" y="590.4453">copy .mdd/map/ -&gt; .mdd/cycles/&lt;N&gt;/whole/</text></g><g class="message" data-entity-1="part1" data-entity-2="part5" data-source-line="42" id="msg9"><polygon fill="#181818" points="957.7251,620.498,967.7251,624.498,957.7251,628.498,961.7251,624.498" style="stroke:#181818;stroke-width:1;"/><line style="stroke:#181818;stroke-width:1;" x1="112.3013" x2="963.7251" y1="624.498" y2="624.498"/><text fill="#000000" font-family="sans-serif" font-size="13" lengthAdjust="spacing" textLength="84.2144" x="119.3013" y="619.7559">/mdd-render</text></g><g class="message" data-entity-1="part5" data-entity-2="part4" data-source-line="43" id="msg10"><polygon fill="#181818" points="759.2876,665.1191,749.2876,669.1191,759.2876,673.1191,755.2876,669.1191" style="stroke:#181818;stroke-width:1;"/><line style="stroke:#181818;stroke-width:1;" x1="753.2876" x2="968.7251" y1="669.1191" y2="669.1191"/><text fill="#000000" font-family="sans-serif" font-size="13" lengthAdjust="spacing" textLength="181.6509" x="765.2876" y="649.0664">rasterize .mdd/map/**.puml</text><text fill="#000000" font-family="sans-serif" font-size="13" lengthAdjust="spacing" textLength="197.4375" x="765.2876" y="664.377">-&gt; .mdd/rendered/map/**.svg</text></g><path d="M592,682.1191 L592,753.1191 L903,753.1191 L903,692.1191 L893,682.1191 L592,682.1191" fill="#FEFFDD" style="stroke:#181818;stroke-width:0.5;"/><path d="M893,682.1191 L893,692.1191 L903,692.1191 L893,682.1191" fill="#FEFFDD" style="stroke:#181818;stroke-width:0.5;"/><text fill="#000000" font-family="sans-serif" font-size="13" lengthAdjust="spacing" textLength="248.6948" x="598" y="699.6875">Inspection artifact only. /mdd-validate,</text><text fill="#000000" font-family="sans-serif" font-size="13" lengthAdjust="spacing" textLength="285.27" x="598" y="714.998">/mdd-review and the /mdd-cycle parity loop</text><text fill="#000000" font-family="sans-serif" font-size="13" lengthAdjust="spacing" textLength="290.1641" x="598" y="730.3086">never read .mdd/map/ (OCL-MAP-* constrain</text><text fill="#000000" font-family="sans-serif" font-size="13" lengthAdjust="spacing" textLength="225.5195" x="598" y="745.6191">WholeMap but are not parity gates).</text><?plantuml-src VLNRRkCs47tNLmpy4djNbpprmPiQCPm03Uhijas3HG430IsER28K9P2KlTcdVaI_i5_IuT2od3ZT04O4SJXppfapeml8iWpssqPZLeiMMjliq0XJuXJAbr8Z-Atme8otZUnAb82YtCArak5YSW7N73L-kFqz-_hBb-LjTZ__BPil5e_tZylvdxSfN5vU_ZG9WKh-RnIVMwp6Zm-tGm2zfVUBpbeqFdDA8bIwsODmeEfMOqsl2T3wXJ0YZBuUIQo5GwqCZi1XwLLZA4rJWKUw9JowwVJ-vkPfyTTYUVlqyElTSWdZlDIYarZaPIFnM-6UbTQkgANCc5_1ONaj0z9MTuvBhfl6Esz5sn8CEfG5LI_0MyGSvfk0Mbf5UWPP7QQWrNCG52c9HUS3gA769-37nYAuhcsrGWUDqP6THI6Z18iGUwEgAcTvhYMwyWVoZ-OkMtTA--b9gGi72qs8m7bieMgqT22W3Ayaz16Xnu8uMQp94oIbTy473UDfqJhbWlpqHA39CAr_em6CwNf8sBIA_bMsgK5K7cq1U-Mtq9ldn7Gfn6eIf6s2h2bqfjmAiw5NprHY4YBsLb4NeHP6LIHZ_bBh59mHhTjIGu0WCX1ExeghpxE23Lwa88oCCf2b95gmWZXOzPso7R5_-92F9ebNdf3DoxAhks0QPhq_inZGS4GIh1wCosZNIPAqmdfLgbOO3wD1-vKP3zgdS3JMAFYQJn8fl0W5OFIMnygiiIA712giP1en5NpxWIH8oaRhw7e7ewDPGfjMrBokt797k5zyAPo-hHXaM9chPsNahBWoeiPPtdQrNfcFhrJd1FTKz9nh59W3_k3798cqindZX6bamBhsbhkIIcoig6Uv30QF9GKDHEYuHvFo7C110-vcb678pMIdRynR32OY7NhwIQAR9jZVngNMk_WLRx9yNmD0w1EFdyi3OkseznG8S0Hqprnf1bvwy-_GheLNzQULQIssfCvn5CPNTpUpb3ezOQ34WfAXfapuZSRDlPTQ6OVMGvmrkk5E9urwBZQ1ztc5zt99rEZnE8ISxIC1u5thoBe6oUzXKZNy-_S_O1hOR1ldOpBJXBjgi-ND5dm1_3UepmcVaPOE2aiRpXuYZkZoF9-Sx8ESpuD28NV2Zqdu9Q4LVSEeHRqbAAoNULmf6il8I0Q0RxWUzjeF-XahdLtZzVDg3aYONLY83JbKqqfvOZ8_Vqw1FW9eQNt89-5J28ZSv6mGs1p3xgI3z_VNS36E54nFbrboU3aWxPVRgzqMXwgl4Q_YyTJjDad2VIHjxA67TyQrSQL0cFDAb9w_J7ailnDQqGB1b48FU7OAzpoUORg7tGUq9vH_WJ1t56mmrE2H7jYFlooM_1Nx4FeRFg_AK2n_tGElTKSTffKGEdr8jmaVzKcUz3xv3m00?></g></svg>