<svg xmlns="http://www.w3.org/2000/svg" xmlns:xlink="http://www.w3.org/1999/xlink" contentStyleType="text/css" data-diagram-type="DESCRIPTION" height="384px" preserveAspectRatio="none" style="width:420px;height:384px;background:#FFFFFF;" version="1.1" viewBox="0 0 420 384" width="420px" zoomAndPan="magnify"><?plantuml 1.2026.3?><defs/><g><g class="title" data-source-line="3"><text fill="#000000" font-family="sans-serif" font-size="14" font-weight="700" lengthAdjust="spacing" textLength="265.2139" x="74.069" y="23.5352">Architecture CLI + engine (objective)</text></g><!--entity Cli--><g class="entity" data-qualified-name="Cli" data-source-line="5" id="ent0002"><rect fill="#F1F1F1" height="62.9766" rx="2.5" ry="2.5" style="stroke:#181818;stroke-width:0.5;" width="139.1621" x="32.64" y="44.4883"/><rect fill="#F1F1F1" height="10" style="stroke:#181818;stroke-width:0.5;" width="15" x="151.8021" y="49.4883"/><rect fill="#F1F1F1" height="2" style="stroke:#181818;stroke-width:0.5;" width="4" x="149.8021" y="51.4883"/><rect fill="#F1F1F1" height="2" style="stroke:#181818;stroke-width:0.5;" width="4" x="149.8021" y="55.4883"/><text fill="#000000" font-family="sans-serif" font-size="14" lengthAdjust="spacing" textLength="99.1621" x="47.64" y="78.0234">mdd arch (CLI)</text><text fill="#000000" font-family="sans-serif" font-size="14" lengthAdjust="spacing" textLength="54.0586" x="47.64" y="94.5117">mdd-cli</text></g><!--entity Engine--><g class="entity" data-qualified-name="Engine" data-source-line="6" id="ent0003"><rect fill="#F1F1F1" height="62.9766" rx="2.5" ry="2.5" style="stroke:#181818;stroke-width:0.5;" width="188.5039" x="91.97" y="184.4683"/><rect fill="#F1F1F1" height="10" style="stroke:#181818;stroke-width:0.5;" width="15" x="260.4739" y="189.4683"/><rect fill="#F1F1F1" height="2" style="stroke:#181818;stroke-width:0.5;" width="4" x="258.4739" y="191.4683"/><rect fill="#F1F1F1" height="2" style="stroke:#181818;stroke-width:0.5;" width="4" x="258.4739" y="195.4683"/><text fill="#000000" font-family="sans-serif" font-size="14" lengthAdjust="spacing" textLength="148.5039" x="106.97" y="218.0034">architecture.rs engine</text><text fill="#000000" font-family="sans-serif" font-size="14" lengthAdjust="spacing" textLength="140.8818" x="106.97" y="234.4917">(parse / diff / check)</text></g><!--entity Validate--><g class="entity" data-qualified-name="Validate" data-source-line="7" id="ent0004"><rect fill="#F1F1F1" height="46.4883" rx="2.5" ry="2.5" style="stroke:#181818;stroke-width:0.5;" width="127.7734" x="206.33" y="52.7283"/><rect fill="#F1F1F1" height="10" style="stroke:#181818;stroke-width:0.5;" width="15" x="314.1034" y="57.7283"/><rect fill="#F1F1F1" height="2" style="stroke:#181818;stroke-width:0.5;" width="4" x="312.1034" y="59.7283"/><rect fill="#F1F1F1" height="2" style="stroke:#181818;stroke-width:0.5;" width="4" x="312.1034" y="63.7283"/><text fill="#000000" font-family="sans-serif" font-size="14" lengthAdjust="spacing" textLength="87.7734" x="221.33" y="86.2634">mdd validate</text></g><!--entity Spec--><g class="entity" data-qualified-name="Spec" data-source-line="8" id="ent0005"><rect fill="#F1F1F1" height="39.4883" rx="2.5" ry="2.5" style="stroke:#181818;stroke-width:0.5;" width="196.4414" x="7" y="327.9383"/><polygon fill="#F1F1F1" points="186.4414,332.9383,186.4414,346.9383,198.4414,346.9383,198.4414,338.9383,192.4414,332.9383,186.4414,332.9383" style="stroke:#181818;stroke-width:0.5;"/><line style="stroke:#181818;stroke-width:0.5;" x1="192.4414" x2="192.4414" y1="332.9383" y2="338.9383"/><line style="stroke:#181818;stroke-width:0.5;" x1="198.4414" x2="192.4414" y1="338.9383" y2="338.9383"/><text fill="#000000" font-family="sans-serif" font-size="14" lengthAdjust="spacing" textLength="166.4414" x="17" y="354.4734">.mdd/architecture/*.yml</text></g><!--entity Git--><g class="entity" data-qualified-name="Git" data-source-line="9" id="ent0006"><rect fill="#F1F1F1" height="46.4883" rx="2.5" ry="2.5" style="stroke:#181818;stroke-width:0.5;" width="58.0127" x="238.21" y="324.4383"/><rect fill="#F1F1F1" height="10" style="stroke:#181818;stroke-width:0.5;" width="15" x="276.2227" y="329.4383"/><rect fill="#F1F1F1" height="2" style="stroke:#181818;stroke-width:0.5;" width="4" x="274.2227" y="331.4383"/><rect fill="#F1F1F1" height="2" style="stroke:#181818;stroke-width:0.5;" width="4" x="274.2227" y="335.4383"/><text fill="#000000" font-family="sans-serif" font-size="14" lengthAdjust="spacing" textLength="18.0127" x="253.21" y="357.9734">git</text></g><!--link Cli to Engine--><g class="link" data-entity-1="ent0002" data-entity-2="ent0003" data-link-type="dependency" data-source-line="11" id="lnk7"><path d="M121.07,107.9383 C134.91,130.6683 150.4899,156.2634 164.3099,178.9634" fill="none" id="Cli-to-Engine" style="stroke:#181818;stroke-width:1;"/><polygon fill="#181818" points="167.43,184.0883,166.1665,174.3208,164.8299,179.8175,159.3332,178.481,167.43,184.0883" style="stroke:#181818;stroke-width:1;"/><text fill="#000000" font-family="sans-serif" font-size="13" lengthAdjust="spacing" textLength="74.769" x="150.25" y="151.0366">diff / status</text></g><!--link Engine to Spec--><g class="link" data-entity-1="ent0003" data-entity-2="ent0005" data-link-type="dependency" data-source-line="12" id="lnk8"><path d="M155.75,247.7083 C147.75,256.7983 139.59,267.0983 133.22,277.4383 C123.43,293.3383 117.7021,307.5678 112.8921,321.9578" fill="none" id="Engine-to-Spec" style="stroke:#181818;stroke-width:1;"/><polygon fill="#181818" points="110.99,327.6483,117.6368,320.3806,112.5751,322.9062,110.0495,317.8444,110.99,327.6483" style="stroke:#181818;stroke-width:1;"/><text fill="#000000" font-family="sans-serif" font-size="13" lengthAdjust="spacing" textLength="89.5146" x="134.22" y="291.0066">parse working</text></g><!--link Engine to Git--><g class="link" data-entity-1="ent0003" data-entity-2="ent0006" data-link-type="dependency" data-source-line="13" id="lnk9"><path d="M208.37,247.6583 C214.95,257.0883 222.04,267.5783 228.22,277.4383 C237.82,292.7583 244.9407,305.2589 252.4007,318.9589" fill="none" id="Engine-to-Git" style="stroke:#181818;stroke-width:1;"/><polygon fill="#181818" points="255.27,324.2283,254.4789,314.4112,252.8789,319.8371,247.453,318.237,255.27,324.2283" style="stroke:#181818;stroke-width:1;"/><text fill="#000000" font-family="sans-serif" font-size="13" lengthAdjust="spacing" textLength="164.9819" x="239.37" y="291.0066">read base at ref (git show)</text></g><!--link Validate to Engine--><g class="link" data-entity-1="ent0004" data-entity-2="ent0003" data-link-type="dependency" data-source-line="14" id="lnk10"><path d="M260.12,99.5783 C252.77,115.3383 242.22,136.6483 231.22,154.4683 C225.1,164.3783 221.3917,169.9021 214.4717,179.1621" fill="none" id="Validate-to-Engine" style="stroke:#181818;stroke-width:1;"/><polygon fill="#181818" points="210.88,183.9683,219.4717,179.1534,213.8731,179.9631,213.0634,174.3645,210.88,183.9683" style="stroke:#181818;stroke-width:1;"/><text fill="#000000" font-family="sans-serif" font-size="13" lengthAdjust="spacing" textLength="162.5" x="241.75" y="151.0366">check() as WARNING rules</text></g><?plantuml-src NL9DJzmm4BtdLuno8IuaUzy3OfLM51LGjQ3smW6lFScwE7PapuBuznrxarMMK-BvUE_DlBc06wEhzk5tlTcsF-ls_auK5t2ZCQgpw1MKptk4rq5ha47jNu6340-XamgXSXW9DMZJTQj8aWwHSplbXq4w7S4uuCPQMIDWj9manieH7p3Z6K951twWwurZn6Mm2N4DcqNWQKG5emmHhs1CNOcu4jD3xL6zfHTpWsGkfkyDrN7lFs0d8q90gJ681hwRICOfWYxu0Ku3FsytxQ-xnrkeaj2Os6GWmxCIN0BXC5f96FbVzkW8j5TYdOXurEDmvBqrhkT_ILbTp6hwt3Q3DhFKr2LjzA2ajRp7tMVQ3hnBQpHtDAKeo935ioLa1ovF2_ExVnmtxoYAWXS_UfUKbRDXK2LlNzpaGmaoGclDilJBoYVa5rVbJSCgpy6VB5faX1-vv2lVh3kN_9aUnMc3PSD5goNRwblpETXSdgnTuh5nENvhg2XOCDJrzKGBwrdHyUIAAPmgyeMiZpS27pwyiHdBFCDnEjt1yIBOfO0TL4m7wKv4CUi-9vmDOqL_Dzl7T2FXO37-1m00?></g></svg>