<svg xmlns="http://www.w3.org/2000/svg" xmlns:xlink="http://www.w3.org/1999/xlink" contentStyleType="text/css" data-diagram-type="DESCRIPTION" height="748px" preserveAspectRatio="none" style="width:2422px;height:748px;background:#FFFFFF;" version="1.1" viewBox="0 0 2422 748" width="2422px" zoomAndPan="magnify"><?plantuml 1.2026.3?><defs/><g><g class="title" data-source-line="16"><text fill="#000000" font-family="sans-serif" font-size="14" font-weight="700" lengthAdjust="spacing" textLength="281.7295" x="1066.7264" y="23.5352">Cycle tracking &#8212; ownership (objective)</text></g><!--cluster existing workflow skills--><g class="cluster" data-qualified-name="existing workflow skills" data-source-line="21" id="ent0004"><path d="M8.5,338.9483 L182.2988,338.9483 A3.75,3.75 0 0 1 184.7988,341.4483 L191.7988,361.4366 L864.5,361.4366 A2.5,2.5 0 0 1 867,363.9366 L867,433.9283 A2.5,2.5 0 0 1 864.5,436.4283 L8.5,436.4283 A2.5,2.5 0 0 1 6,433.9283 L6,341.4483 A2.5,2.5 0 0 1 8.5,338.9483" fill="none" style="stroke:#000000;stroke-width:1.5;"/><line style="stroke:#000000;stroke-width:1.5;" x1="6" x2="191.7988" y1="361.4366" y2="361.4366"/><text fill="#000000" font-family="sans-serif" font-size="14" font-weight="700" lengthAdjust="spacing" textLength="172.7988" x="10" y="354.4834">existing workflow skills</text></g><!--entity Gen--><g class="entity" data-qualified-name="existing workflow skills.Gen" data-source-line="22" id="ent0005"><rect fill="#F1F1F1" height="46.4883" rx="2.5" ry="2.5" style="stroke:#181818;stroke-width:0.5;" width="145.6494" x="187.18" y="373.9483"/><rect fill="#F1F1F1" height="10" style="stroke:#181818;stroke-width:0.5;" width="15" x="312.8294" y="378.9483"/><rect fill="#F1F1F1" height="2" style="stroke:#181818;stroke-width:0.5;" width="4" x="310.8294" y="380.9483"/><rect fill="#F1F1F1" height="2" style="stroke:#181818;stroke-width:0.5;" width="4" x="310.8294" y="384.9483"/><text fill="#000000" font-family="sans-serif" font-size="14" lengthAdjust="spacing" textLength="105.6494" x="202.18" y="407.4834">/mdd-generate</text></g><!--entity MapS--><g class="entity" data-qualified-name="existing workflow skills.MapS" data-source-line="23" id="ent0006"><rect fill="#F1F1F1" height="46.4883" rx="2.5" ry="2.5" style="stroke:#181818;stroke-width:0.5;" width="115.749" x="368.13" y="373.9483"/><rect fill="#F1F1F1" height="10" style="stroke:#181818;stroke-width:0.5;" width="15" x="463.879" y="378.9483"/><rect fill="#F1F1F1" height="2" style="stroke:#181818;stroke-width:0.5;" width="4" x="461.879" y="380.9483"/><rect fill="#F1F1F1" height="2" style="stroke:#181818;stroke-width:0.5;" width="4" x="461.879" y="384.9483"/><text fill="#000000" font-family="sans-serif" font-size="14" lengthAdjust="spacing" textLength="75.749" x="383.13" y="407.4834">/mdd-map</text></g><!--entity ValS--><g class="entity" data-qualified-name="existing workflow skills.ValS" data-source-line="24" id="ent0007"><rect fill="#F1F1F1" height="46.4883" rx="2.5" ry="2.5" style="stroke:#181818;stroke-width:0.5;" width="138.7861" x="518.61" y="373.9483"/><rect fill="#F1F1F1" height="10" style="stroke:#181818;stroke-width:0.5;" width="15" x="637.3961" y="378.9483"/><rect fill="#F1F1F1" height="2" style="stroke:#181818;stroke-width:0.5;" width="4" x="635.3961" y="380.9483"/><rect fill="#F1F1F1" height="2" style="stroke:#181818;stroke-width:0.5;" width="4" x="635.3961" y="384.9483"/><text fill="#000000" font-family="sans-serif" font-size="14" lengthAdjust="spacing" textLength="98.7861" x="533.61" y="407.4834">/mdd-validate</text></g><!--entity ImplS--><g class="entity" data-qualified-name="existing workflow skills.ImplS" data-source-line="25" id="ent0008"><rect fill="#F1F1F1" height="46.4883" rx="2.5" ry="2.5" style="stroke:#181818;stroke-width:0.5;" width="158.7061" x="692.65" y="373.9483"/><rect fill="#F1F1F1" height="10" style="stroke:#181818;stroke-width:0.5;" width="15" x="831.3561" y="378.9483"/><rect fill="#F1F1F1" height="2" style="stroke:#181818;stroke-width:0.5;" width="4" x="829.3561" y="380.9483"/><rect fill="#F1F1F1" height="2" style="stroke:#181818;stroke-width:0.5;" width="4" x="829.3561" y="384.9483"/><text fill="#000000" font-family="sans-serif" font-size="14" lengthAdjust="spacing" textLength="118.7061" x="707.65" y="407.4834">/mdd-implement</text></g><!--entity RevS--><g class="entity" data-qualified-name="existing workflow skills.RevS" data-source-line="26" id="ent0009"><rect fill="#F1F1F1" height="46.4883" rx="2.5" ry="2.5" style="stroke:#181818;stroke-width:0.5;" width="129.5439" x="22.23" y="373.9483"/><rect fill="#F1F1F1" height="10" style="stroke:#181818;stroke-width:0.5;" width="15" x="131.7739" y="378.9483"/><rect fill="#F1F1F1" height="2" style="stroke:#181818;stroke-width:0.5;" width="4" x="129.7739" y="380.9483"/><rect fill="#F1F1F1" height="2" style="stroke:#181818;stroke-width:0.5;" width="4" x="129.7739" y="384.9483"/><text fill="#000000" font-family="sans-serif" font-size="14" lengthAdjust="spacing" textLength="89.5439" x="37.23" y="407.4834">/mdd-review</text></g><!--entity Dev--><g class="entity" data-qualified-name="Dev" data-source-line="18" id="ent0002"><ellipse cx="1848.9992" cy="51.4883" fill="#F1F1F1" rx="8" ry="8" style="stroke:#181818;stroke-width:0.5;"/><path d="M1848.9992,59.4883 L1848.9992,86.4883 M1835.9992,67.4883 L1861.9992,67.4883 M1848.9992,86.4883 L1835.9992,101.4883 M1848.9992,86.4883 L1861.9992,101.4883" fill="none" style="stroke:#181818;stroke-width:0.5;"/><text fill="#000000" font-family="sans-serif" font-size="14" lengthAdjust="spacing" textLength="68.3184" x="1814.84" y="116.5234">Developer</text></g><!--entity Orch--><g class="entity" data-qualified-name="Orch" data-source-line="20" id="ent0003"><rect fill="#F1F1F1" height="62.9766" rx="2.5" ry="2.5" style="stroke:#181818;stroke-width:0.5;" width="171.3867" x="612.31" y="204.7283"/><rect fill="#F1F1F1" height="10" style="stroke:#181818;stroke-width:0.5;" width="15" x="763.6967" y="209.7283"/><rect fill="#F1F1F1" height="2" style="stroke:#181818;stroke-width:0.5;" width="4" x="761.6967" y="211.7283"/><rect fill="#F1F1F1" height="2" style="stroke:#181818;stroke-width:0.5;" width="4" x="761.6967" y="215.7283"/><text fill="#000000" font-family="sans-serif" font-size="14" lengthAdjust="spacing" textLength="79.6387" x="627.31" y="238.2634">/mdd-cycle</text><text fill="#000000" font-family="sans-serif" font-size="14" lengthAdjust="spacing" textLength="131.3867" x="627.31" y="254.7517">(orchestration skill)</text></g><!--entity Store--><g class="entity" data-qualified-name="Store" data-source-line="29" id="ent0010"><path d="M1366.46,513.9183 L1407.46,513.9183 A3.75,3.75 0 0 1 1409.96,516.4183 L1416.96,534.9183 L1591.5411,534.9183 A2.5,2.5 0 0 1 1594.0411,537.4183 L1594.0411,598.8831 A2.5,2.5 0 0 1 1591.5411,601.3831 L1366.46,601.3831 A2.5,2.5 0 0 1 1363.96,598.8831 L1363.96,516.4183 A2.5,2.5 0 0 1 1366.46,513.9183" fill="#F1F1F1" style="stroke:#181818;stroke-width:0.5;"/><line style="stroke:#181818;stroke-width:0.5;" x1="1363.96" x2="1416.96" y1="534.9183" y2="534.9183"/><text fill="#000000" font-family="sans-serif" font-size="14" lengthAdjust="spacing" textLength="128.7344" x="1373.96" y="555.4534">.mdd/cycles/&lt;n&gt;/</text><text fill="#000000" font-family="sans-serif" font-size="14" lengthAdjust="spacing" textLength="200.0811" x="1373.96" y="571.9417">manifest.yml, before/, after/,</text><text fill="#000000" font-family="sans-serif" font-size="14" lengthAdjust="spacing" textLength="144.7373" x="1373.96" y="588.43">&lt;diagram&gt;.diff.puml</text></g><!--entity Models--><g class="entity" data-qualified-name="Models" data-source-line="30" id="ent0011"><path d="M306.94,530.4083 L347.94,530.4083 A3.75,3.75 0 0 1 350.44,532.9083 L357.44,551.4083 L545.064,551.4083 A2.5,2.5 0 0 1 547.564,553.9083 L547.564,582.3966 A2.5,2.5 0 0 1 545.064,584.8966 L306.94,584.8966 A2.5,2.5 0 0 1 304.44,582.3966 L304.44,532.9083 A2.5,2.5 0 0 1 306.94,530.4083" fill="#F1F1F1" style="stroke:#181818;stroke-width:0.5;"/><line style="stroke:#181818;stroke-width:0.5;" x1="304.44" x2="357.44" y1="551.4083" y2="551.4083"/><text fill="#000000" font-family="sans-serif" font-size="14" lengthAdjust="spacing" textLength="213.124" x="314.44" y="571.9434">.mdd/models/, .mdd/trace.yml</text></g><!--entity Core--><g class="entity" data-qualified-name="Core" data-source-line="32" id="ent0012"><rect fill="#F1F1F1" height="79.4648" rx="2.5" ry="2.5" style="stroke:#181818;stroke-width:0.5;" width="214.665" x="1666.67" y="357.4583"/><rect fill="#F1F1F1" height="10" style="stroke:#181818;stroke-width:0.5;" width="15" x="1861.335" y="362.4583"/><rect fill="#F1F1F1" height="2" style="stroke:#181818;stroke-width:0.5;" width="4" x="1859.335" y="364.4583"/><rect fill="#F1F1F1" height="2" style="stroke:#181818;stroke-width:0.5;" width="4" x="1859.335" y="368.4583"/><text fill="#000000" font-family="sans-serif" font-size="14" lengthAdjust="spacing" textLength="68.0928" x="1681.67" y="390.9934">mdd-core</text><text fill="#000000" font-family="sans-serif" font-size="14" lengthAdjust="spacing" textLength="174.665" x="1681.67" y="407.4817">CycleRegistry, DescIndex,</text><text fill="#000000" font-family="sans-serif" font-size="14" lengthAdjust="spacing" textLength="70.3691" x="1681.67" y="423.97">DiffEngine</text></g><!--entity Viewer--><g class="entity" data-qualified-name="Viewer" data-source-line="33" id="ent0013"><rect fill="#F1F1F1" height="79.4648" rx="2.5" ry="2.5" style="stroke:#181818;stroke-width:0.5;" width="168.5908" x="1764.7" y="196.4783"/><rect fill="#F1F1F1" height="10" style="stroke:#181818;stroke-width:0.5;" width="15" x="1913.2908" y="201.4783"/><rect fill="#F1F1F1" height="2" style="stroke:#181818;stroke-width:0.5;" width="4" x="1911.2908" y="203.4783"/><rect fill="#F1F1F1" height="2" style="stroke:#181818;stroke-width:0.5;" width="4" x="1911.2908" y="207.4783"/><text fill="#000000" font-family="sans-serif" font-size="14" lengthAdjust="spacing" textLength="82.2021" x="1779.7" y="230.0134">mdd-viewer</text><text fill="#000000" font-family="sans-serif" font-size="14" lengthAdjust="spacing" textLength="128.5908" x="1779.7" y="246.5017">Tree rail, Diff view,</text><text fill="#000000" font-family="sans-serif" font-size="14" lengthAdjust="spacing" textLength="111.624" x="1779.7" y="262.99">Description card</text></g><!--entity Egui--><g class="entity" data-qualified-name="Egui" data-source-line="34" id="ent0014"><rect fill="#F1F1F1" height="46.4883" rx="2.5" ry="2.5" style="stroke:#181818;stroke-width:0.5;" width="168.1602" x="2021.92" y="373.9483"/><rect fill="#F1F1F1" height="10" style="stroke:#181818;stroke-width:0.5;" width="15" x="2170.0802" y="378.9483"/><rect fill="#F1F1F1" height="2" style="stroke:#181818;stroke-width:0.5;" width="4" x="2168.0802" y="380.9483"/><rect fill="#F1F1F1" height="2" style="stroke:#181818;stroke-width:0.5;" width="4" x="2168.0802" y="384.9483"/><text fill="#000000" font-family="sans-serif" font-size="14" lengthAdjust="spacing" textLength="128.1602" x="2036.92" y="407.4834">eframe / egui 0.30</text></g><g class="entity" data-qualified-name="GMN30" data-source-line="54" id="ent0031"><path d="M1337.39,662.3883 L1337.39,733.6305 A0,0 0 0 0 1337.39,733.6305 L1620.6117,733.6305 A0,0 0 0 0 1620.6117,733.6305 L1620.6117,672.3883 L1610.6117,662.3883 L1483,662.3883 L1479,601.6683 L1475,662.3883 L1337.39,662.3883 A0,0 0 0 0 1337.39,662.3883" fill="#FEFFDD" style="stroke:#181818;stroke-width:0.5;"/><path d="M1610.6117,662.3883 L1610.6117,672.3883 L1620.6117,672.3883 L1610.6117,662.3883" fill="#FEFFDD" style="stroke:#181818;stroke-width:0.5;"/><text fill="#000000" font-family="sans-serif" font-size="13" lengthAdjust="spacing" textLength="249.2217" x="1343.39" y="679.9566">Per-cycle history is durable: every cycle</text><text fill="#000000" font-family="sans-serif" font-size="13" lengthAdjust="spacing" textLength="252.5986" x="1343.39" y="695.2672">keeps its own folder, so any past cycle's</text><text fill="#000000" font-family="sans-serif" font-size="13" lengthAdjust="spacing" textLength="262.2217" x="1343.39" y="710.5777">diff can be reopened later (decision: keep</text><text fill="#000000" font-family="sans-serif" font-size="13" lengthAdjust="spacing" textLength="186.5005" x="1343.39" y="725.8883">per-cycle snapshots on disk).</text></g><g class="entity" data-qualified-name="GMN33" data-source-line="61" id="ent0034"><path d="M885.95,369.2183 L885.95,425.1499 A0,0 0 0 0 885.95,425.1499 L1186.0501,425.1499 A0,0 0 0 0 1186.0501,425.1499 L1186.0501,379.2183 L1176.0501,369.2183 L981.66,369.2183 L763.57,268.0483 L973.66,369.2183 L885.95,369.2183 A0,0 0 0 0 885.95,369.2183" fill="#FEFFDD" style="stroke:#181818;stroke-width:0.5;"/><path d="M1176.0501,369.2183 L1176.0501,379.2183 L1186.0501,379.2183 L1176.0501,369.2183" fill="#FEFFDD" style="stroke:#181818;stroke-width:0.5;"/><text fill="#000000" font-family="sans-serif" font-size="13" lengthAdjust="spacing" textLength="257.2896" x="891.95" y="386.7866">Owns the cycle boundary. No standalone</text><text fill="#000000" font-family="sans-serif" font-size="13" lengthAdjust="spacing" textLength="279.1001" x="891.95" y="402.0972">/mdd-map or /mdd-generate auto-opens a</text><text fill="#000000" font-family="sans-serif" font-size="13" lengthAdjust="spacing" textLength="161.2432" x="891.95" y="417.4077">cycle; only this skill does.</text></g><!--link Dev to Orch--><g class="link" data-entity-1="ent0002" data-entity-2="ent0003" data-link-type="dependency" data-source-line="36" id="lnk15"><path d="M1814.55,86.8183 C1658.76,107.5183 1023.5077,191.9478 789.7377,223.0178" fill="none" id="Dev-to-Orch" style="stroke:#181818;stroke-width:1;"/><polygon fill="#181818" points="783.79,223.8083,793.2385,226.5877,788.7464,223.1495,792.1845,218.6574,783.79,223.8083" style="stroke:#181818;stroke-width:1;"/><text fill="#000000" font-family="sans-serif" font-size="13" lengthAdjust="spacing" textLength="162.646" x="1343.41" y="163.0466">/mdd-cycle [description?]</text></g><!--link Orch to Gen--><g class="link" data-entity-1="ent0003" data-entity-2="ent0005" data-link-type="dependency" data-source-line="37" id="lnk16"><path d="M612.01,244.1883 C513.69,253.5983 360.22,273.0683 313,305.9483 C289.59,322.2483 277.0559,346.8762 269.2459,367.8262" fill="none" id="Orch-to-Gen" style="stroke:#181818;stroke-width:1;"/><polygon fill="#181818" points="267.15,373.4483,274.0418,366.4125,268.8965,368.7632,266.5458,363.618,267.15,373.4483" style="stroke:#181818;stroke-width:1;"/><text fill="#000000" font-family="sans-serif" font-size="13" lengthAdjust="spacing" textLength="153.5117" x="314" y="319.5166">entry (description given)</text></g><!--link Orch to MapS--><g class="link" data-entity-1="ent0003" data-entity-2="ent0006" data-link-type="dependency" data-source-line="38" id="lnk17"><path d="M611.98,254.3083 C573.69,264.8183 529.54,281.1683 495,305.9483 C470.16,323.7583 453.1371,347.9137 441.1871,368.2737" fill="none" id="Orch-to-MapS" style="stroke:#181818;stroke-width:1;"/><polygon fill="#181818" points="438.15,373.4483,446.1554,367.7112,440.6809,369.1362,439.256,363.6617,438.15,373.4483" style="stroke:#181818;stroke-width:1;"/><text fill="#000000" font-family="sans-serif" font-size="13" lengthAdjust="spacing" textLength="135.6621" x="496" y="319.5166">entry (no description)</text></g><!--link Orch to ValS--><g class="link" data-entity-1="ent0003" data-entity-2="ent0007" data-link-type="dependency" data-source-line="39" id="lnk18"><path d="M676.79,267.8683 C655.31,298.8983 626.0345,341.2246 606.8845,368.8946" fill="none" id="Orch-to-ValS" style="stroke:#181818;stroke-width:1;"/><polygon fill="#181818" points="603.47,373.8283,611.8809,368.7041,606.3154,369.7169,605.3027,364.1514,603.47,373.8283" style="stroke:#181818;stroke-width:1;"/><text fill="#000000" font-family="sans-serif" font-size="13" lengthAdjust="spacing" textLength="27.3901" x="650.59" y="319.5166">gate</text></g><!--link Orch to ImplS--><g class="link" data-entity-1="ent0003" data-entity-2="ent0008" data-link-type="dependency" data-source-line="40" id="lnk19"><path d="M712.27,267.8683 C726.72,298.8983 746.178,340.7187 759.058,368.3887" fill="none" id="Orch-to-ImplS" style="stroke:#181818;stroke-width:1;"/><polygon fill="#181818" points="761.59,373.8283,761.4183,363.9809,759.48,369.2953,754.1656,367.357,761.59,373.8283" style="stroke:#181818;stroke-width:1;"/><text fill="#000000" font-family="sans-serif" font-size="13" lengthAdjust="spacing" textLength="65.3809" x="738.22" y="319.5166">write code</text></g><!--link Orch to RevS--><g class="link" data-entity-1="ent0003" data-entity-2="ent0009" data-link-type="dependency" data-source-line="41" id="lnk20"><path d="M612.22,246.4783 C521.51,257.1783 374.57,277.0983 250,305.9483 C213.71,314.3483 202.96,313.5883 170,330.9483 C148.27,342.3883 131.0356,355.7547 115.2756,369.6847" fill="none" id="Orch-to-RevS" style="stroke:#181818;stroke-width:1;"/><polygon fill="#181818" points="110.78,373.6583,120.1725,370.695,114.5263,370.347,114.8744,364.7008,110.78,373.6583" style="stroke:#181818;stroke-width:1;"/><text fill="#000000" font-family="sans-serif" font-size="13" lengthAdjust="spacing" textLength="36.0928" x="251" y="319.5166">parity</text></g><!--link Orch to Store--><g class="link" data-entity-1="ent0003" data-entity-2="ent0010" data-link-type="dependency" data-source-line="42" id="lnk21"><path d="M784.14,244.6583 C910.19,256.9583 1137.17,284.8483 1204,330.9483 C1252.59,364.4583 1236.98,397.6683 1273,444.4283 C1287.86,463.7283 1290.99,470.0383 1311,483.9183 C1327.19,495.1583 1339.9833,502.6069 1358.2733,511.4069" fill="none" id="Orch-to-Store" style="stroke:#181818;stroke-width:1;"/><polygon fill="#181818" points="1363.68,514.0083,1357.3041,506.5017,1359.1744,511.8405,1353.8356,513.7107,1363.68,514.0083" style="stroke:#181818;stroke-width:1;"/><text fill="#000000" font-family="sans-serif" font-size="13" lengthAdjust="spacing" textLength="374.2959" x="1274" y="402.2566">open / snapshot before / close / snapshot after / write diff</text></g><!--link Gen to Models--><g class="link" data-entity-1="ent0005" data-entity-2="ent0011" data-link-type="dependency" data-source-line="43" id="lnk22"><path d="M266.64,420.7583 C273.03,439.4183 284.22,465.7283 301,483.9183 C318.45,502.8383 336.6663,536.444 358.5963,548.144" fill="none" id="Gen-to-Models" style="stroke:#181818;stroke-width:1;"/><polygon fill="#181818" points="363.89,550.9683,357.8323,543.2027,359.4786,548.6147,354.0666,550.261,363.89,550.9683" style="stroke:#181818;stroke-width:1;"/><text fill="#000000" font-family="sans-serif" font-size="13" lengthAdjust="spacing" textLength="115.0449" x="302" y="480.4866">objective + @desc</text></g><!--link MapS to Models--><g class="link" data-entity-1="ent0006" data-entity-2="ent0011" data-link-type="dependency" data-source-line="44" id="lnk23"><path d="M426,420.8883 C426,449.7383 426,514.4283 426,545.0183" fill="none" id="MapS-to-Models" style="stroke:#181818;stroke-width:1;"/><polygon fill="#181818" points="426,551.0183,430,542.0183,426,546.0183,422,542.0183,426,551.0183" style="stroke:#181818;stroke-width:1;"/><text fill="#000000" font-family="sans-serif" font-size="13" lengthAdjust="spacing" textLength="103.9683" x="427" y="480.4866">current + @desc</text></g><!--link Dev to Viewer--><g class="link" data-entity-1="ent0002" data-entity-2="ent0013" data-link-type="dependency" data-source-line="46" id="lnk24"><path d="M1849,119.6583 C1849,142.8283 1849,166.5483 1849,190.0383" fill="none" id="Dev-to-Viewer" style="stroke:#181818;stroke-width:1;"/><polygon fill="#181818" points="1849,196.0383,1853,187.0383,1849,191.0383,1845,187.0383,1849,196.0383" style="stroke:#181818;stroke-width:1;"/><text fill="#000000" font-family="sans-serif" font-size="13" lengthAdjust="spacing" textLength="60.3599" x="1850" y="163.0466">mdd view</text></g><!--link Viewer to Core--><g class="link" data-entity-1="ent0013" data-entity-2="ent0012" data-link-type="dependency" data-source-line="47" id="lnk25"><path d="M1764.47,264.5183 C1746.04,274.5583 1728.83,288.0283 1718,305.9483 C1707.79,322.8283 1712.1126,336.7147 1725.0126,352.5647" fill="none" id="Viewer-to-Core" style="stroke:#181818;stroke-width:1;"/><polygon fill="#181818" points="1728.8,357.2183,1726.2212,347.713,1725.6438,353.3403,1720.0165,352.7629,1728.8,357.2183" style="stroke:#181818;stroke-width:1;"/><text fill="#000000" font-family="sans-serif" font-size="13" lengthAdjust="spacing" textLength="215.8394" x="1719" y="319.5166">registry, cycles, descriptions, diffs</text></g><!--link Core to Store--><g class="link" data-entity-1="ent0012" data-entity-2="ent0010" data-link-type="dependency" data-source-line="48" id="lnk26"><path d="M1701.08,437.3583 C1658.08,460.4583 1608.8956,507.8789 1564.6656,531.6389" fill="none" id="Core-to-Store" style="stroke:#181818;stroke-width:1;"/><polygon fill="#181818" points="1559.38,534.4783,1569.2014,533.7429,1563.7847,532.1121,1565.4155,526.6954,1559.38,534.4783" style="stroke:#181818;stroke-width:1;"/><text fill="#000000" font-family="sans-serif" font-size="13" lengthAdjust="spacing" textLength="169.4761" x="1645.16" y="480.4866">read manifest + snapshots</text></g><!--link Core to Models--><g class="link" data-entity-1="ent0012" data-entity-2="ent0011" data-link-type="dependency" data-source-line="49" id="lnk27"><path d="M1667.87,437.3883 C1658.52,440.0583 1649.14,442.4583 1640,444.4283 C1535.09,467.0383 840.4311,544.7825 553.8311,567.5825" fill="none" id="Core-to-Models" style="stroke:#181818;stroke-width:1;"/><polygon fill="#181818" points="547.85,568.0583,557.1389,571.332,552.8343,567.6618,556.5044,563.3572,547.85,568.0583" style="stroke:#181818;stroke-width:1;"/><text fill="#000000" font-family="sans-serif" font-size="13" lengthAdjust="spacing" textLength="137.0078" x="1463.89" y="480.4866">scan models + @desc</text></g><!--link Viewer to Egui--><g class="link" data-entity-1="ent0013" data-entity-2="ent0014" data-link-type="dependency" data-source-line="50" id="lnk28"><path d="M1904.13,276.2583 C1925.93,291.2883 1951.37,308.3383 1975,322.9483 C2003.92,340.8283 2032.1249,356.6495 2057.9949,370.6695" fill="none" id="Viewer-to-Egui" style="stroke:#181818;stroke-width:1;"/><polygon fill="#181818" points="2063.27,373.5283,2057.2632,365.7233,2058.874,371.1459,2053.4514,372.7568,2063.27,373.5283" style="stroke:#181818;stroke-width:1;"/><text fill="#000000" font-family="sans-serif" font-size="13" lengthAdjust="spacing" textLength="156.5015" x="1976" y="319.5166">tree / diff / card widgets</text></g><!--link Egui to Dev--><g class="link" data-entity-1="ent0014" data-entity-2="ent0002" data-link-type="dependency" data-source-line="51" id="lnk29"><path d="M2123.41,373.6883 C2135.57,355.0483 2147.85,328.1183 2137,305.9483 C2083.42,196.4783 1953.0476,127.5969 1888.9576,98.9469" fill="none" id="Egui-to-Dev" style="stroke:#181818;stroke-width:1;"/><polygon fill="#181818" points="1883.48,96.4983,1890.064,103.823,1888.0447,98.5388,1893.3288,96.5195,1883.48,96.4983" style="stroke:#181818;stroke-width:1;"/><text fill="#000000" font-family="sans-serif" font-size="13" lengthAdjust="spacing" textLength="287.2822" x="2118.9" y="241.2766">tree rail + superposed diff + description card</text></g><?plantuml-src TLRHZk8s57tFLrpnCeCMo4fzOrVJLi2sI3l32fXjgquVJEA0Is97Te11gqhzY7vXlwJdse44XhuHt-FhS-yzFkQEVb3f_UZnIt_qs-Zpf3-RZtwUB9Rp7vUpUJUwkueki3gvMCPt7NkSZIUVsx6lqyalataTVPxwa9NP_VDYqfy_FuN0nMg0ZgUVFldDY24wM_qfaqhjPT-fL98vQ6dTHfMqCZkT2gkaeynOIev9Bgco8jaglHxGSYF9RLMUynQ7HCOc6-a0g9JHzAxUK6SvVg0YJVk9iVu8HwMm3dceuZGLBmkTCjbKkeGAORUW4JRjbJn86xOnlB9IngdAifYnLfN-mEVfmDVZ4_nFntlKOTgnf-Bf-Gg6v6IE9eJqKbVsIALHkkerXrvMqwFSc394t6xLzsdmQRWkLI6EQl1xvqxTox6UgSGtPz3ftY3gXm-60x2B_N4k9XIMAhSTKYbjJRaGMcLeD5gyaiWjO_mIMILjJ4wBqcqCAi6IrgOIbKnfmCqQbBiY9s4hbGcK-eR3bT90v3mmAqMAQGnfn0JcSgqmPjJ8rOTvoLSM1iOO2kV066TEz5ff36mZAcvCfRXwTwBjEHCwNw3b6C5RKbSIhpdLUdYU3j4RA_dOOtoIfmHTeV8UneAMbSQXVYwVU5V3pjT8ezdJSlBhajewIeHDcGV88k7eGlNqxz__j6x8lJdTdMuK-VAfCvPxcHiStI7X25zHb9YYD9fhx3JAUz7tbnV6IwZhTyqGY4eSATQIEl8LxUR33yPkizmS0jHrw5j4T9ryBS4EK_U9VfBw1gGGfOy-Yd9n8xmNkKfF6RwA_1P65MKOcmTDyNKBPIKttKFcSh-8_egYpEIGqgN8F-g7-4MVP3qu5fXUBP5UBUpUY_wOAh6sedXerEmpBzWyBlCM9fMvmsR_nSEJd3KKxMCNGpdf_4LVwNiCMKnrAbznV2DddsR4Xrxb2BfyqSj6XEEpyf3XIcIXltvFEvFCK2GyYkHwf-ZzuBlt7ZZ1LnH1JzJlFtY5qB1jPB-tDFpz7v47C18I031usdrRvsl8LdSR8AkXGMhJlXGj60i2i3K4qYnw0M3r0E-3LQB5JOmdZr3mnMRPZmthk2gQ6kEg1u-L9CVTRKU2NSJr8Io2Y8lptFrGETlfGiB_l8r4lgmBJBApbZjzGfoR6cO11BhgXnRLAnmS1RhsB8uWtbwxJVm5MYxou7QLxA1jupxxT0CzytE9q1GaVERO8i920CexNHoiBVPweeDArp3Ho2COoeKD6q_aSwzCyTqRwuiYl1hyq5MLASXazVqY-d9-W3QA7-mZAKVfpefLBY6RlSIAZmExbHAFey8p1BEaS3VXo0RsYvTLe0KUUUU0zJouv1K_D2m7aCi5pnfwJPG3iw7F273p2ZOlNVr4TWUHXBap-pSrU4Cbcjr-p0VqPF0V14-3o7490JpP9FxJq8MhajXLfiya7GbsF4xq0HJo8nAZ8U4VKMgaQ-Zy1m00?></g></svg>