<svg xmlns="http://www.w3.org/2000/svg" xmlns:xlink="http://www.w3.org/1999/xlink" contentStyleType="text/css" data-diagram-type="DESCRIPTION" height="1157px" preserveAspectRatio="none" style="width:2643px;height:1157px;background:#FFFFFF;" version="1.1" viewBox="0 0 2643 1157" width="2643px" zoomAndPan="magnify"><?plantuml 1.2026.3?><defs/><g><g class="title" data-source-line="23"><text fill="#000000" font-family="sans-serif" font-size="14" font-weight="700" lengthAdjust="spacing" textLength="281.7295" x="1177.5731" y="23.5352">Cycle tracking &#8212; ownership (objective)</text></g><!--cluster existing workflow skills--><g class="cluster" data-qualified-name="existing workflow skills" data-source-line="28" id="ent0004"><path d="M8.5,338.9483 L182.2988,338.9483 A3.75,3.75 0 0 1 184.7988,341.4483 L191.7988,361.4366 L1029.5,361.4366 A2.5,2.5 0 0 1 1032,363.9366 L1032,433.9283 A2.5,2.5 0 0 1 1029.5,436.4283 L8.5,436.4283 A2.5,2.5 0 0 1 6,433.9283 L6,341.4483 A2.5,2.5 0 0 1 8.5,338.9483" fill="none" style="stroke:#000000;stroke-width:1.5;"/><line style="stroke:#000000;stroke-width:1.5;" x1="6" x2="191.7988" y1="361.4366" y2="361.4366"/><text fill="#000000" font-family="sans-serif" font-size="14" font-weight="700" lengthAdjust="spacing" textLength="172.7988" x="10" y="354.4834">existing workflow skills</text></g><!--entity Gen--><g class="entity" data-qualified-name="existing workflow skills.Gen" data-source-line="29" id="ent0005"><rect fill="#F1F1F1" height="46.4883" rx="2.5" ry="2.5" style="stroke:#181818;stroke-width:0.5;" width="145.6494" x="705.18" y="373.9483"/><rect fill="#F1F1F1" height="10" style="stroke:#181818;stroke-width:0.5;" width="15" x="830.8294" y="378.9483"/><rect fill="#F1F1F1" height="2" style="stroke:#181818;stroke-width:0.5;" width="4" x="828.8294" y="380.9483"/><rect fill="#F1F1F1" height="2" style="stroke:#181818;stroke-width:0.5;" width="4" x="828.8294" y="384.9483"/><text fill="#000000" font-family="sans-serif" font-size="14" lengthAdjust="spacing" textLength="105.6494" x="720.18" y="407.4834">/mdd-generate</text></g><!--entity MapS--><g class="entity" data-qualified-name="existing workflow skills.MapS" data-source-line="30" id="ent0006"><rect fill="#F1F1F1" height="46.4883" rx="2.5" ry="2.5" style="stroke:#181818;stroke-width:0.5;" width="115.749" x="554.13" y="373.9483"/><rect fill="#F1F1F1" height="10" style="stroke:#181818;stroke-width:0.5;" width="15" x="649.879" y="378.9483"/><rect fill="#F1F1F1" height="2" style="stroke:#181818;stroke-width:0.5;" width="4" x="647.879" y="380.9483"/><rect fill="#F1F1F1" height="2" style="stroke:#181818;stroke-width:0.5;" width="4" x="647.879" y="384.9483"/><text fill="#000000" font-family="sans-serif" font-size="14" lengthAdjust="spacing" textLength="75.749" x="569.13" y="407.4834">/mdd-map</text></g><!--entity ValS--><g class="entity" data-qualified-name="existing workflow skills.ValS" data-source-line="31" id="ent0007"><rect fill="#F1F1F1" height="46.4883" rx="2.5" ry="2.5" style="stroke:#181818;stroke-width:0.5;" width="138.7861" x="21.61" y="373.9483"/><rect fill="#F1F1F1" height="10" style="stroke:#181818;stroke-width:0.5;" width="15" x="140.3961" y="378.9483"/><rect fill="#F1F1F1" height="2" style="stroke:#181818;stroke-width:0.5;" width="4" x="138.3961" y="380.9483"/><rect fill="#F1F1F1" height="2" style="stroke:#181818;stroke-width:0.5;" width="4" x="138.3961" y="384.9483"/><text fill="#000000" font-family="sans-serif" font-size="14" lengthAdjust="spacing" textLength="98.7861" x="36.61" y="407.4834">/mdd-validate</text></g><!--entity ImplS--><g class="entity" data-qualified-name="existing workflow skills.ImplS" data-source-line="32" id="ent0008"><rect fill="#F1F1F1" height="46.4883" rx="2.5" ry="2.5" style="stroke:#181818;stroke-width:0.5;" width="158.7061" x="195.65" y="373.9483"/><rect fill="#F1F1F1" height="10" style="stroke:#181818;stroke-width:0.5;" width="15" x="334.3561" y="378.9483"/><rect fill="#F1F1F1" height="2" style="stroke:#181818;stroke-width:0.5;" width="4" x="332.3561" y="380.9483"/><rect fill="#F1F1F1" height="2" style="stroke:#181818;stroke-width:0.5;" width="4" x="332.3561" y="384.9483"/><text fill="#000000" font-family="sans-serif" font-size="14" lengthAdjust="spacing" textLength="118.7061" x="210.65" y="407.4834">/mdd-implement</text></g><!--entity RevS--><g class="entity" data-qualified-name="existing workflow skills.RevS" data-source-line="33" id="ent0009"><rect fill="#F1F1F1" height="46.4883" rx="2.5" ry="2.5" style="stroke:#181818;stroke-width:0.5;" width="129.5439" x="389.23" y="373.9483"/><rect fill="#F1F1F1" height="10" style="stroke:#181818;stroke-width:0.5;" width="15" x="498.7739" y="378.9483"/><rect fill="#F1F1F1" height="2" style="stroke:#181818;stroke-width:0.5;" width="4" x="496.7739" y="380.9483"/><rect fill="#F1F1F1" height="2" style="stroke:#181818;stroke-width:0.5;" width="4" x="496.7739" y="384.9483"/><text fill="#000000" font-family="sans-serif" font-size="14" lengthAdjust="spacing" textLength="89.5439" x="404.23" y="407.4834">/mdd-review</text></g><!--entity RendS--><g class="entity" data-qualified-name="existing workflow skills.RendS" data-source-line="34" id="ent0010"><rect fill="#F1F1F1" height="46.4883" rx="2.5" ry="2.5" style="stroke:#181818;stroke-width:0.5;" width="130.6924" x="885.65" y="373.9483"/><rect fill="#F1F1F1" height="10" style="stroke:#181818;stroke-width:0.5;" width="15" x="996.3424" y="378.9483"/><rect fill="#F1F1F1" height="2" style="stroke:#181818;stroke-width:0.5;" width="4" x="994.3424" y="380.9483"/><rect fill="#F1F1F1" height="2" style="stroke:#181818;stroke-width:0.5;" width="4" x="994.3424" y="384.9483"/><text fill="#000000" font-family="sans-serif" font-size="14" lengthAdjust="spacing" textLength="90.6924" x="900.65" y="407.4834">/mdd-render</text></g><!--entity Dev--><g class="entity" data-qualified-name="Dev" data-source-line="25" id="ent0002"><ellipse cx="2086.9992" cy="51.4883" fill="#F1F1F1" rx="8" ry="8" style="stroke:#181818;stroke-width:0.5;"/><path d="M2086.9992,59.4883 L2086.9992,86.4883 M2073.9992,67.4883 L2099.9992,67.4883 M2086.9992,86.4883 L2073.9992,101.4883 M2086.9992,86.4883 L2099.9992,101.4883" fill="none" style="stroke:#181818;stroke-width:0.5;"/><text fill="#000000" font-family="sans-serif" font-size="14" lengthAdjust="spacing" textLength="68.3184" x="2052.84" y="116.5234">Developer</text></g><!--entity Orch--><g class="entity" data-qualified-name="Orch" data-source-line="27" id="ent0003"><rect fill="#F1F1F1" height="62.9766" rx="2.5" ry="2.5" style="stroke:#181818;stroke-width:0.5;" width="171.3867" x="703.31" y="204.7283"/><rect fill="#F1F1F1" height="10" style="stroke:#181818;stroke-width:0.5;" width="15" x="854.6967" y="209.7283"/><rect fill="#F1F1F1" height="2" style="stroke:#181818;stroke-width:0.5;" width="4" x="852.6967" y="211.7283"/><rect fill="#F1F1F1" height="2" style="stroke:#181818;stroke-width:0.5;" width="4" x="852.6967" y="215.7283"/><text fill="#000000" font-family="sans-serif" font-size="14" lengthAdjust="spacing" textLength="79.6387" x="718.31" y="238.2634">/mdd-cycle</text><text fill="#000000" font-family="sans-serif" font-size="14" lengthAdjust="spacing" textLength="131.3867" x="718.31" y="254.7517">(orchestration skill)</text></g><!--entity Store--><g class="entity" data-qualified-name="Store" data-source-line="37" id="ent0011"><path d="M1354.46,938.5683 L1395.46,938.5683 A3.75,3.75 0 0 1 1397.96,941.0683 L1404.96,959.5683 L1579.5411,959.5683 A2.5,2.5 0 0 1 1582.0411,962.0683 L1582.0411,1023.5331 A2.5,2.5 0 0 1 1579.5411,1026.0331 L1354.46,1026.0331 A2.5,2.5 0 0 1 1351.96,1023.5331 L1351.96,941.0683 A2.5,2.5 0 0 1 1354.46,938.5683" fill="#F1F1F1" style="stroke:#181818;stroke-width:0.5;"/><line style="stroke:#181818;stroke-width:0.5;" x1="1351.96" x2="1404.96" y1="959.5683" y2="959.5683"/><text fill="#000000" font-family="sans-serif" font-size="14" lengthAdjust="spacing" textLength="128.7344" x="1361.96" y="980.1034">.mdd/cycles/&lt;n&gt;/</text><text fill="#000000" font-family="sans-serif" font-size="14" lengthAdjust="spacing" textLength="200.0811" x="1361.96" y="996.5917">manifest.yml, before/, after/,</text><text fill="#000000" font-family="sans-serif" font-size="14" lengthAdjust="spacing" textLength="106.4629" x="1361.96" y="1013.08">&lt;rel&gt;.diff.puml</text></g><!--entity Rendered--><g class="entity" data-qualified-name="Rendered" data-source-line="38" id="ent0012"><path d="M1841.88,786.3483 L1882.88,786.3483 A3.75,3.75 0 0 1 1885.38,788.8483 L1892.38,807.3483 L2064.1241,807.3483 A2.5,2.5 0 0 1 2066.6241,809.8483 L2066.6241,854.8248 A2.5,2.5 0 0 1 2064.1241,857.3248 L1841.88,857.3248 A2.5,2.5 0 0 1 1839.38,854.8248 L1839.38,788.8483 A2.5,2.5 0 0 1 1841.88,786.3483" fill="#F1F1F1" style="stroke:#181818;stroke-width:0.5;"/><line style="stroke:#181818;stroke-width:0.5;" x1="1839.38" x2="1892.38" y1="807.3483" y2="807.3483"/><text fill="#000000" font-family="sans-serif" font-size="14" lengthAdjust="spacing" textLength="197.2441" x="1849.38" y="827.8834">.mdd/rendered/cycles/&lt;n&gt;/</text><text fill="#000000" font-family="sans-serif" font-size="14" lengthAdjust="spacing" textLength="94.958" x="1849.38" y="844.3717">&lt;rel&gt;.diff.svg</text></g><!--entity Models--><g class="entity" data-qualified-name="Models" data-source-line="39" id="ent0013"><path d="M667.94,955.0583 L708.94,955.0583 A3.75,3.75 0 0 1 711.44,957.5583 L718.44,976.0583 L906.064,976.0583 A2.5,2.5 0 0 1 908.564,978.5583 L908.564,1007.0466 A2.5,2.5 0 0 1 906.064,1009.5466 L667.94,1009.5466 A2.5,2.5 0 0 1 665.44,1007.0466 L665.44,957.5583 A2.5,2.5 0 0 1 667.94,955.0583" fill="#F1F1F1" style="stroke:#181818;stroke-width:0.5;"/><line style="stroke:#181818;stroke-width:0.5;" x1="665.44" x2="718.44" y1="976.0583" y2="976.0583"/><text fill="#000000" font-family="sans-serif" font-size="14" lengthAdjust="spacing" textLength="213.124" x="675.44" y="996.5934">.mdd/models/, .mdd/trace.yml</text></g><!--entity Core--><g class="entity" data-qualified-name="Core" data-source-line="41" id="ent0014"><rect fill="#F1F1F1" height="79.4648" rx="2.5" ry="2.5" style="stroke:#181818;stroke-width:0.5;" width="221.3574" x="1078.32" y="782.1083"/><rect fill="#F1F1F1" height="10" style="stroke:#181818;stroke-width:0.5;" width="15" x="1279.6774" y="787.1083"/><rect fill="#F1F1F1" height="2" style="stroke:#181818;stroke-width:0.5;" width="4" x="1277.6774" y="789.1083"/><rect fill="#F1F1F1" height="2" style="stroke:#181818;stroke-width:0.5;" width="4" x="1277.6774" y="793.1083"/><text fill="#000000" font-family="sans-serif" font-size="14" lengthAdjust="spacing" textLength="68.0928" x="1093.32" y="815.6434">mdd-core</text><text fill="#000000" font-family="sans-serif" font-size="14" lengthAdjust="spacing" textLength="174.665" x="1093.32" y="832.1317">CycleRegistry, DescIndex,</text><text fill="#000000" font-family="sans-serif" font-size="14" lengthAdjust="spacing" textLength="181.3574" x="1093.32" y="848.62">DiffEngine, Project tree set</text></g><!--entity RenderCli--><g class="entity" data-qualified-name="RenderCli" data-source-line="42" id="ent0015"><rect fill="#F1F1F1" height="62.9766" rx="2.5" ry="2.5" style="stroke:#181818;stroke-width:0.5;" width="199.373" x="1321.31" y="502.1583"/><rect fill="#F1F1F1" height="10" style="stroke:#181818;stroke-width:0.5;" width="15" x="1500.683" y="507.1583"/><rect fill="#F1F1F1" height="2" style="stroke:#181818;stroke-width:0.5;" width="4" x="1498.683" y="509.1583"/><rect fill="#F1F1F1" height="2" style="stroke:#181818;stroke-width:0.5;" width="4" x="1498.683" y="513.1583"/><text fill="#000000" font-family="sans-serif" font-size="14" lengthAdjust="spacing" textLength="79.6797" x="1336.31" y="535.6934">mdd render</text><text fill="#000000" font-family="sans-serif" font-size="14" lengthAdjust="spacing" textLength="159.373" x="1336.31" y="552.1817">(mdd-cli subcommand)</text></g><!--entity DiffRend--><g class="entity" data-qualified-name="DiffRend" data-source-line="43" id="ent0016"><rect fill="#F1F1F1" height="62.9766" rx="2.5" ry="2.5" style="stroke:#181818;stroke-width:0.5;" width="210.9395" x="1352.53" y="642.1283"/><rect fill="#F1F1F1" height="10" style="stroke:#181818;stroke-width:0.5;" width="15" x="1543.4695" y="647.1283"/><rect fill="#F1F1F1" height="2" style="stroke:#181818;stroke-width:0.5;" width="4" x="1541.4695" y="649.1283"/><rect fill="#F1F1F1" height="2" style="stroke:#181818;stroke-width:0.5;" width="4" x="1541.4695" y="653.1283"/><text fill="#000000" font-family="sans-serif" font-size="14" lengthAdjust="spacing" textLength="83.3506" x="1367.53" y="675.6634">mdd-render</text><text fill="#000000" font-family="sans-serif" font-size="14" lengthAdjust="spacing" textLength="170.9395" x="1367.53" y="692.1517">render engine (PlantUML)</text></g><!--entity Viewer--><g class="entity" data-qualified-name="Viewer" data-source-line="44" id="ent0017"><rect fill="#F1F1F1" height="79.4648" rx="2.5" ry="2.5" style="stroke:#181818;stroke-width:0.5;" width="168.5908" x="2002.7" y="196.4783"/><rect fill="#F1F1F1" height="10" style="stroke:#181818;stroke-width:0.5;" width="15" x="2151.2908" y="201.4783"/><rect fill="#F1F1F1" height="2" style="stroke:#181818;stroke-width:0.5;" width="4" x="2149.2908" y="203.4783"/><rect fill="#F1F1F1" height="2" style="stroke:#181818;stroke-width:0.5;" width="4" x="2149.2908" y="207.4783"/><text fill="#000000" font-family="sans-serif" font-size="14" lengthAdjust="spacing" textLength="82.2021" x="2017.7" y="230.0134">mdd-viewer</text><text fill="#000000" font-family="sans-serif" font-size="14" lengthAdjust="spacing" textLength="128.5908" x="2017.7" y="246.5017">Tree rail, Diff view,</text><text fill="#000000" font-family="sans-serif" font-size="14" lengthAdjust="spacing" textLength="111.624" x="2017.7" y="262.99">Description card</text></g><!--entity Egui--><g class="entity" data-qualified-name="Egui" data-source-line="45" id="ent0018"><rect fill="#F1F1F1" height="46.4883" rx="2.5" ry="2.5" style="stroke:#181818;stroke-width:0.5;" width="168.1602" x="2212.92" y="373.9483"/><rect fill="#F1F1F1" height="10" style="stroke:#181818;stroke-width:0.5;" width="15" x="2361.0802" y="378.9483"/><rect fill="#F1F1F1" height="2" style="stroke:#181818;stroke-width:0.5;" width="4" x="2359.0802" y="380.9483"/><rect fill="#F1F1F1" height="2" style="stroke:#181818;stroke-width:0.5;" width="4" x="2359.0802" y="384.9483"/><text fill="#000000" font-family="sans-serif" font-size="14" lengthAdjust="spacing" textLength="128.1602" x="2227.92" y="407.4834">eframe / egui 0.30</text></g><g class="entity" data-qualified-name="GMN41" data-source-line="72" id="ent0042"><path d="M1330.2,1087.0383 L1330.2,1142.9699 A0,0 0 0 0 1330.2,1142.9699 L1603.7986,1142.9699 A0,0 0 0 0 1603.7986,1142.9699 L1603.7986,1097.0383 L1593.7986,1087.0383 L1471,1087.0383 L1467,1026.4583 L1463,1087.0383 L1330.2,1087.0383 A0,0 0 0 0 1330.2,1087.0383" fill="#FEFFDD" style="stroke:#181818;stroke-width:0.5;"/><path d="M1593.7986,1087.0383 L1593.7986,1097.0383 L1603.7986,1097.0383 L1593.7986,1087.0383" fill="#FEFFDD" style="stroke:#181818;stroke-width:0.5;"/><text fill="#000000" font-family="sans-serif" font-size="13" lengthAdjust="spacing" textLength="249.2217" x="1336.2" y="1104.6066">Per-cycle history is durable: every cycle</text><text fill="#000000" font-family="sans-serif" font-size="13" lengthAdjust="spacing" textLength="252.5986" x="1336.2" y="1119.9172">keeps its own folder, so any past cycle's</text><text fill="#000000" font-family="sans-serif" font-size="13" lengthAdjust="spacing" textLength="167.2227" x="1336.2" y="1135.2277">diff can be reopened later.</text></g><g class="entity" data-qualified-name="GMN44" data-source-line="78" id="ent0045"><path d="M1776.97,946.6783 L1776.97,1017.9205 A0,0 0 0 0 1776.97,1017.9205 L2129.0257,1017.9205 A0,0 0 0 0 2129.0257,1017.9205 L2129.0257,956.6783 L2119.0257,946.6783 L1957,946.6783 L1953,857.6183 L1949,946.6783 L1776.97,946.6783 A0,0 0 0 0 1776.97,946.6783" fill="#FEFFDD" style="stroke:#181818;stroke-width:0.5;"/><path d="M2119.0257,946.6783 L2119.0257,956.6783 L2129.0257,956.6783 L2119.0257,946.6783" fill="#FEFFDD" style="stroke:#181818;stroke-width:0.5;"/><text fill="#000000" font-family="sans-serif" font-size="13" lengthAdjust="spacing" textLength="244.6958" x="1782.97" y="964.2466">Viewer has no PlantUML engine; it only</text><text fill="#000000" font-family="sans-serif" font-size="13" lengthAdjust="spacing" textLength="293.7441" x="1782.97" y="979.5572">consumes pre-rendered SVG. Every tree's path</text><text fill="#000000" font-family="sans-serif" font-size="13" lengthAdjust="spacing" textLength="331.0557" x="1782.97" y="994.8677">mirrors its source 1:1 (OCL-RENDER-PATH-MIRROR;</text><text fill="#000000" font-family="sans-serif" font-size="13" lengthAdjust="spacing" textLength="318.2588" x="1782.97" y="1010.1783">OCL-DIFF-SVG-PATH-DERIVED for the cycle case).</text></g><g class="entity" data-qualified-name="GMN47" data-source-line="85" id="ent0048"><path d="M1050.95,369.2183 L1050.95,425.1499 L1351.0501,425.1499 L1351.0501,379.2183 L1341.0501,369.2183 L1050.95,369.2183" fill="#FEFFDD" style="stroke:#181818;stroke-width:0.5;"/><path d="M1341.0501,369.2183 L1341.0501,379.2183 L1351.0501,379.2183 L1341.0501,369.2183" fill="#FEFFDD" style="stroke:#181818;stroke-width:1;"/><text fill="#000000" font-family="sans-serif" font-size="13" lengthAdjust="spacing" textLength="257.2896" x="1056.95" y="386.7866">Owns the cycle boundary. No standalone</text><text fill="#000000" font-family="sans-serif" font-size="13" lengthAdjust="spacing" textLength="279.1001" x="1056.95" y="402.0972">/mdd-map or /mdd-generate auto-opens a</text><text fill="#000000" font-family="sans-serif" font-size="13" lengthAdjust="spacing" textLength="161.2432" x="1056.95" y="417.4077">cycle; only this skill does.</text></g><!--link Dev to Orch--><g class="link" data-entity-1="ent0002" data-entity-2="ent0003" data-link-type="dependency" data-source-line="47" id="lnk19"><path d="M2052.62,86.2883 C1882.75,106.3083 1137.0288,194.1961 880.8288,224.3861" fill="none" id="Dev-to-Orch" style="stroke:#181818;stroke-width:1;"/><polygon fill="#181818" points="874.87,225.0883,884.2763,228.0075,879.8356,224.5031,883.34,220.0625,874.87,225.0883" style="stroke:#181818;stroke-width:1;"/><text fill="#000000" font-family="sans-serif" font-size="13" lengthAdjust="spacing" textLength="162.646" x="1516.71" y="163.0466">/mdd-cycle [description?]</text></g><!--link Orch to Gen--><g class="link" data-entity-1="ent0003" data-entity-2="ent0005" data-link-type="dependency" data-source-line="48" id="lnk20"><path d="M786.88,267.8683 C784.73,298.8983 781.8732,340.1725 779.9632,367.8425" fill="none" id="Orch-to-Gen" style="stroke:#181818;stroke-width:1;"/><polygon fill="#181818" points="779.55,373.8283,784.1603,365.1251,779.8943,368.8402,776.1793,364.5742,779.55,373.8283" style="stroke:#181818;stroke-width:1;"/><text fill="#000000" font-family="sans-serif" font-size="13" lengthAdjust="spacing" textLength="153.5117" x="785.16" y="319.5166">entry (description given)</text></g><!--link Orch to MapS--><g class="link" data-entity-1="ent0003" data-entity-2="ent0006" data-link-type="dependency" data-source-line="49" id="lnk21"><path d="M703.02,261.3383 C679.16,271.6783 655.13,286.0983 638,305.9483 C621.59,324.9483 616.1901,347.7858 613.9501,367.7158" fill="none" id="Orch-to-MapS" style="stroke:#181818;stroke-width:1;"/><polygon fill="#181818" points="613.28,373.6783,618.2602,365.1814,613.8385,368.7096,610.3102,364.2878,613.28,373.6783" style="stroke:#181818;stroke-width:1;"/><text fill="#000000" font-family="sans-serif" font-size="13" lengthAdjust="spacing" textLength="135.6621" x="639" y="319.5166">entry (no description)</text></g><!--link Orch to ValS--><g class="link" data-entity-1="ent0003" data-entity-2="ent0007" data-link-type="dependency" data-source-line="50" id="lnk22"><path d="M702.96,237.3883 C581.34,240.4883 354.35,256.8283 178,330.9483 C154.16,340.9683 135.4154,354.9745 118.9554,369.5245" fill="none" id="Orch-to-ValS" style="stroke:#181818;stroke-width:1;"/><polygon fill="#181818" points="114.46,373.4983,123.8524,370.5346,118.2062,370.1868,118.554,364.5406,114.46,373.4983" style="stroke:#181818;stroke-width:1;"/><text fill="#000000" font-family="sans-serif" font-size="13" lengthAdjust="spacing" textLength="27.3901" x="241.55" y="319.5166">gate</text></g><!--link Orch to ImplS--><g class="link" data-entity-1="ent0003" data-entity-2="ent0008" data-link-type="dependency" data-source-line="51" id="lnk23"><path d="M703,246.9183 C616.56,258.8583 480.89,283.6383 372,330.9483 C346.87,341.8583 326.0443,355.7743 307.4543,369.9243" fill="none" id="Orch-to-ImplS" style="stroke:#181818;stroke-width:1;"/><polygon fill="#181818" points="302.68,373.5583,312.2641,371.2901,306.6586,370.5299,307.4188,364.9244,302.68,373.5583" style="stroke:#181818;stroke-width:1;"/><text fill="#000000" font-family="sans-serif" font-size="13" lengthAdjust="spacing" textLength="65.3809" x="438.15" y="319.5166">write code</text></g><!--link Orch to RevS--><g class="link" data-entity-1="ent0003" data-entity-2="ent0009" data-link-type="dependency" data-source-line="52" id="lnk24"><path d="M702.86,258.3083 C651.82,273.3783 587.47,297.0483 537,330.9483 C517.37,344.1283 501.0857,356.779 485.1557,369.869" fill="none" id="Orch-to-RevS" style="stroke:#181818;stroke-width:1;"/><polygon fill="#181818" points="480.52,373.6783,490.013,371.0549,484.3831,370.5039,484.934,364.874,480.52,373.6783" style="stroke:#181818;stroke-width:1;"/><text fill="#000000" font-family="sans-serif" font-size="13" lengthAdjust="spacing" textLength="36.0928" x="575.67" y="319.5166">parity</text></g><!--link Orch to Store--><g class="link" data-entity-1="ent0003" data-entity-2="ent0011" data-link-type="dependency" data-source-line="53" id="lnk25"><path d="M875.18,238.4283 C1059.02,242.3983 1482.84,259.2983 1605,330.9483 C1635.83,349.0283 1652,360.4483 1652,396.1883 C1652,396.1883 1652,396.1883 1652,822.8383 C1652,873.9083 1615.9867,929.9643 1572.4967,956.0243" fill="none" id="Orch-to-Store" style="stroke:#181818;stroke-width:1;"/><polygon fill="#181818" points="1567.35,959.1083,1577.1261,957.9134,1571.6389,956.5383,1573.0141,951.0511,1567.35,959.1083" style="stroke:#181818;stroke-width:1;"/><text fill="#000000" font-family="sans-serif" font-size="13" lengthAdjust="spacing" textLength="410.5537" x="1653" y="608.6966">open / snapshot before / close / snapshot after / write diff puml</text></g><!--link Orch to RenderCli--><g class="link" data-entity-1="ent0003" data-entity-2="ent0015" data-link-type="dependency" data-source-line="54" id="lnk26"><path d="M875.03,239.8683 C1018.56,246.0683 1298.15,266.3383 1369,330.9483 C1417.23,374.9283 1423.3833,451.1589 1422.7633,495.8389" fill="none" id="Orch-to-RenderCli" style="stroke:#181818;stroke-width:1;"/><polygon fill="#181818" points="1422.68,501.8383,1426.8045,492.8946,1422.7494,496.8388,1418.8053,492.7836,1422.68,501.8383" style="stroke:#181818;stroke-width:1;"/><text fill="#000000" font-family="sans-serif" font-size="13" lengthAdjust="spacing" textLength="176.1919" x="1420.25" y="402.2566">on close, run `mdd render`</text></g><!--link RendS to RenderCli--><g class="link" data-entity-1="ent0010" data-entity-2="ent0015" data-link-type="dependency" data-source-line="55" id="lnk27"><path d="M978.74,420.8383 C1000.79,437.6483 1033.13,459.7183 1065,472.1583 C1147.79,504.4483 1242.0676,518.9539 1315.0676,525.9739" fill="none" id="RendS-to-RenderCli" style="stroke:#181818;stroke-width:1;"/><polygon fill="#181818" points="1321.04,526.5483,1312.4642,521.7051,1316.063,526.0697,1311.6984,529.6684,1321.04,526.5483" style="stroke:#181818;stroke-width:1;"/><text fill="#000000" font-family="sans-serif" font-size="13" lengthAdjust="spacing" textLength="328.561" x="1066" y="468.7266">thin wrapper: `mdd render [--only &lt;trees&gt;|paths]`</text></g><!--link RenderCli to DiffRend--><g class="link" data-entity-1="ent0015" data-entity-2="ent0016" data-link-type="dependency" data-source-line="56" id="lnk28"><path d="M1429.3,565.6083 C1435.4,588.3283 1442.0877,613.2626 1448.1677,635.9626" fill="none" id="RenderCli-to-DiffRend" style="stroke:#181818;stroke-width:1;"/><polygon fill="#181818" points="1449.72,641.7583,1451.2553,632.0298,1448.4264,636.9285,1443.5277,634.0996,1449.72,641.7583" style="stroke:#181818;stroke-width:1;"/><text fill="#000000" font-family="sans-serif" font-size="13" lengthAdjust="spacing" textLength="102.1147" x="1442.72" y="608.6966">drive the engine</text></g><!--link DiffRend to Core--><g class="link" data-entity-1="ent0016" data-entity-2="ent0014" data-link-type="dependency" data-source-line="57" id="lnk29"><path d="M1352.28,690.3683 C1296.39,700.6983 1235.24,715.8583 1215,735.1083 C1202.26,747.2183 1196.8959,759.4587 1193.5459,775.9287" fill="none" id="DiffRend-to-Core" style="stroke:#181818;stroke-width:1;"/><polygon fill="#181818" points="1192.35,781.8083,1198.0636,773.7861,1193.3466,776.9086,1190.2241,772.1916,1192.35,781.8083" style="stroke:#181818;stroke-width:1;"/><text fill="#000000" font-family="sans-serif" font-size="13" lengthAdjust="spacing" textLength="291.04" x="1216" y="748.6766">enumerate full tree set (Project, single source)</text></g><!--link DiffRend to Store--><g class="link" data-entity-1="ent0016" data-entity-2="ent0011" data-link-type="dependency" data-source-line="58" id="lnk30"><path d="M1493.23,705.5183 C1500.87,714.2383 1507.89,724.3183 1512,735.1083 C1519.97,756.0083 1501.41,760.9983 1494,782.1083 C1475.85,833.8083 1470.0955,912.0251 1468.1355,953.1751" fill="none" id="DiffRend-to-Store" style="stroke:#181818;stroke-width:1;"/><polygon fill="#181818" points="1467.85,959.1683,1472.2737,950.3688,1468.0879,954.1739,1464.2827,949.9882,1467.85,959.1683" style="stroke:#181818;stroke-width:1;"/><text fill="#000000" font-family="sans-serif" font-size="13" lengthAdjust="spacing" textLength="130.895" x="1495" y="826.9066">read &lt;rel&gt;.diff.puml</text></g><!--link DiffRend to Rendered--><g class="link" data-entity-1="ent0016" data-entity-2="ent0012" data-link-type="dependency" data-source-line="59" id="lnk31"><path d="M1562.67,705.5383 C1643.68,729.4683 1749.9558,760.8584 1833.2258,785.4584" fill="none" id="DiffRend-to-Rendered" style="stroke:#181818;stroke-width:1;"/><polygon fill="#181818" points="1838.98,787.1583,1831.482,780.7723,1834.1849,785.7417,1829.2155,788.4445,1838.98,787.1583" style="stroke:#181818;stroke-width:1;"/><text fill="#000000" font-family="sans-serif" font-size="13" lengthAdjust="spacing" textLength="262.4819" x="1706.5" y="748.6766">write &lt;rel&gt;.diff.svg (deterministic mirror)</text></g><!--link Gen to Models--><g class="link" data-entity-1="ent0005" data-entity-2="ent0013" data-link-type="dependency" data-source-line="60" id="lnk32"><path d="M780.41,420.5183 C783.08,447.1683 787,493.1083 787,532.6383 C787,532.6383 787,532.6383 787,822.8383 C787,869.1983 787,938.1783 787,969.6683" fill="none" id="Gen-to-Models" style="stroke:#181818;stroke-width:1;"/><polygon fill="#181818" points="787,975.6683,791,966.6683,787,970.6683,783,966.6683,787,975.6683" style="stroke:#181818;stroke-width:1;"/><text fill="#000000" font-family="sans-serif" font-size="13" lengthAdjust="spacing" textLength="115.0449" x="788" y="678.6866">objective + @desc</text></g><!--link MapS to Models--><g class="link" data-entity-1="ent0006" data-entity-2="ent0013" data-link-type="dependency" data-source-line="61" id="lnk33"><path d="M612,420.5483 C612,447.2283 612,493.1883 612,532.6383 C612,532.6383 612,532.6383 612,822.8383 C612,884.9383 667.951,946.6171 717.991,972.2771" fill="none" id="MapS-to-Models" style="stroke:#181818;stroke-width:1;"/><polygon fill="#181818" points="723.33,975.0148,717.1467,967.3489,718.8809,972.7333,713.4964,974.4675,723.33,975.0148" style="stroke:#181818;stroke-width:1;"/><text fill="#000000" font-family="sans-serif" font-size="13" lengthAdjust="spacing" textLength="103.9683" x="613" y="678.6866">current + @desc</text></g><!--link Dev to Viewer--><g class="link" data-entity-1="ent0002" data-entity-2="ent0017" data-link-type="dependency" data-source-line="63" id="lnk34"><path d="M2087,119.6583 C2087,142.8283 2087,166.5483 2087,190.0383" fill="none" id="Dev-to-Viewer" style="stroke:#181818;stroke-width:1;"/><polygon fill="#181818" points="2087,196.0383,2091,187.0383,2087,191.0383,2083,187.0383,2087,196.0383" style="stroke:#181818;stroke-width:1;"/><text fill="#000000" font-family="sans-serif" font-size="13" lengthAdjust="spacing" textLength="60.3599" x="2088" y="163.0466">mdd view</text></g><!--link Viewer to Core--><g class="link" data-entity-1="ent0017" data-entity-2="ent0014" data-link-type="dependency" data-source-line="64" id="lnk35"><path d="M2046.1,276.2083 C1961.21,354.5983 1756.45,530.7183 1549,612.1283 C1459.6,647.2183 1424.79,608.0483 1335,642.1283 C1265.17,668.6383 1232.58,670.5583 1195,735.1083 C1186.89,749.0283 1184.5561,760.4683 1184.5661,775.9683" fill="none" id="Viewer-to-Core" style="stroke:#181818;stroke-width:1;"/><polygon fill="#181818" points="1184.57,781.9683,1188.57,772.9683,1184.57,776.9683,1180.57,772.9683,1184.57,781.9683" style="stroke:#181818;stroke-width:1;"/><text fill="#000000" font-family="sans-serif" font-size="13" lengthAdjust="spacing" textLength="215.8394" x="1755.19" y="538.7066">registry, cycles, descriptions, diffs</text></g><!--link Core to Store--><g class="link" data-entity-1="ent0014" data-entity-2="ent0011" data-link-type="dependency" data-source-line="65" id="lnk36"><path d="M1218.89,861.7083 C1232.97,877.9383 1250.86,895.9283 1270,908.5683 C1294.72,924.8983 1317.9765,936.0696 1345.8765,946.5996" fill="none" id="Core-to-Store" style="stroke:#181818;stroke-width:1;"/><polygon fill="#181818" points="1351.49,948.7183,1344.4822,941.798,1346.8121,946.9527,1341.6573,949.2826,1351.49,948.7183" style="stroke:#181818;stroke-width:1;"/><text fill="#000000" font-family="sans-serif" font-size="13" lengthAdjust="spacing" textLength="169.4761" x="1271" y="905.1366">read manifest + snapshots</text></g><!--link Core to Models--><g class="link" data-entity-1="ent0014" data-entity-2="ent0013" data-link-type="dependency" data-source-line="66" id="lnk37"><path d="M1089.63,862.0083 C1016.51,890.8383 924.6118,948.0575 860.2918,973.4175" fill="none" id="Core-to-Models" style="stroke:#181818;stroke-width:1;"/><polygon fill="#181818" points="854.71,975.6183,864.5499,976.0383,859.3615,973.7843,861.6155,968.5959,854.71,975.6183" style="stroke:#181818;stroke-width:1;"/><text fill="#000000" font-family="sans-serif" font-size="13" lengthAdjust="spacing" textLength="137.0078" x="1013.07" y="905.1366">scan models + @desc</text></g><!--link Viewer to Rendered--><g class="link" data-entity-1="ent0017" data-entity-2="ent0012" data-link-type="dependency" data-source-line="67" id="lnk38"><path d="M2087,276.4083 C2087,308.5883 2087,355.3383 2087,396.1883 C2087,396.1883 2087,396.1883 2087,674.6183 C2087,721.7883 2053.4907,777.8445 2017.8207,803.5045" fill="none" id="Viewer-to-Rendered" style="stroke:#181818;stroke-width:1;"/><polygon fill="#181818" points="2012.95,807.0083,2022.5919,804.9997,2017.0089,804.0884,2017.9201,798.5055,2012.95,807.0083" style="stroke:#181818;stroke-width:1;"/><text fill="#000000" font-family="sans-serif" font-size="13" lengthAdjust="spacing" textLength="344.6206" x="2088" y="538.7066">load selected file's &lt;rel&gt;.diff.svg (Diagram sub-mode)</text></g><!--link Viewer to Egui--><g class="link" data-entity-1="ent0017" data-entity-2="ent0018" data-link-type="dependency" data-source-line="68" id="lnk39"><path d="M2105.75,276.0983 C2114.96,292.1483 2127.25,309.9883 2142,322.9483 C2166.93,344.8483 2194.0018,359.2841 2222.8818,371.1741" fill="none" id="Viewer-to-Egui" style="stroke:#181818;stroke-width:1;"/><polygon fill="#181818" points="2228.43,373.4583,2221.6305,366.3332,2223.8065,371.5548,2218.5849,373.7308,2228.43,373.4583" style="stroke:#181818;stroke-width:1;"/><text fill="#000000" font-family="sans-serif" font-size="13" lengthAdjust="spacing" textLength="200.6748" x="2143" y="319.5166">tree / diff toggle / card widgets</text></g><!--link Egui to Dev--><g class="link" data-entity-1="ent0018" data-entity-2="ent0002" data-link-type="dependency" data-source-line="69" id="lnk40"><path d="M2323.24,373.7383 C2340.85,355.8083 2358.98,329.8183 2348,305.9483 C2300.87,203.4683 2186.3819,133.1582 2126.9019,101.9182" fill="none" id="Egui-to-Dev" style="stroke:#181818;stroke-width:1;"/><polygon fill="#181818" points="2121.59,99.1283,2127.6979,106.8544,2126.0166,101.4532,2131.4178,99.7719,2121.59,99.1283" style="stroke:#181818;stroke-width:1;"/><text fill="#000000" font-family="sans-serif" font-size="13" lengthAdjust="spacing" textLength="296.0356" x="2331.84" y="241.2766">tree rail + Diagram/List diff + description card</text></g><!--link Orch to GMN47--><g class="link" data-entity-1="ent0003" data-entity-2="ent0048" data-link-type="association" data-source-line="85" id="lnk49"><path d="M869.17,268.1283 C916.54,286.3983 977.69,309.9883 1032,330.9483 C1064.13,343.3383 1099.69,357.0683 1129.87,368.7283" fill="none" id="Orch-GMN47" style="stroke:#181818;stroke-width:1;stroke-dasharray:7,7;"/></g><?plantuml-src VLVRRXit47tVhnZenHAYIuA-oO5RGr8I0RPbo9UsY0E4sgKarYjoGQxig1UW7z4lx9Vq3BcxsfMKlacSuV3CyCpXx1dzf9BswFgsD_frT3NfpUQZJvEx-_db_MpUYSuEh7TOdJIMyR-mNS_6awkwxN4w-NaoBwmFqxffFFtmeJUVt8mduH0hb-s7kqbl_d0J_1kh8OBVmp4RDhywdbv-d5zULuRnxBg8tflSV9pUS3ZOPelVP9oh5zbpAf5aNhMqRgqoMfYjJeHLqj7IM8ftSIefjo9-LdhLf_kr9FUiqfItE0GoDbvB1uTS6KrlYWr5bDqvRPAa5nlhZt2K2UiGXt8EasEvopyPQo9TJ1jXdu6ZIq8dmGVE27Th3SCbgRSRMHnbbYHVfDsHbJh1uYBbEBcLyjnlvOE32TjMIajg9nO9QrhilCDNU1IRlmQOgK84jrt4PhC1Wax0R8NBfLM_5xWt8QSN9LyHsdk45FZeGQAMom7dObNcOJvC-xxWFi7laAjBBQxhm8FmzVCb7fAJATBs1o297CbcHkcyMnrxKEukfSPamO8yUZuC_XeklCfteR2PsBhoUbEiBrNiIzflTKu0zJm7mZxG3VnnRa18B57kUKYPj0LaL4mjmGHmO24HMmxmIonHkW4vBJAtDiW4IrgRNEGoeJuNgvzjDoa9cwkbGAf760wQ2a0gHbafS7TkI2C6C9Sh1HxkFACAFiblp5pmRC-eCSwS13xaQv5pONB5sRiIjiTCgFm69SSL78CwwEO2Ky68X-aGjR6IZzqDolwHW2jKsgqmqCOanSNn_OIRHb7yXZTBXLslAb-JWBTOMR4PN24zkAxG4FjqV55eDBkvd_noJtNYnS8cXy1hMbDmxgXBklM-IoHAiL4Q9wkuQWI9SYhzOfubOx1ckrf_jw5gxJGa1VnRYqfB4Q-fJgZt-cBmtihqeiO94DrWYmkE8QxytWxtigADijROe57U2m2COw6HMLMmGItZ86GBWpB70hyQ2RJpIkgK8srUSHNvMcbwjI83xJld7fo_Mf24a2KtbJKRVuxHSgzzf_JB6U-Nygscq2M7X754KVai5J4KwrYz-Kf1MBYC6j9C__xzJqt6swOK-4uK-HQWrXXwcHf0Rv5mX7zH1D0Pa8BdhRtwFEbsKzLz5Jf-rmo6ACEHOYMf9RynCt3ugx7FonGr2ehJeZyYeiFWAwavUUa3VPJwXCj6PDvwBRAx4-ONaQgaZF0eqbC-QfE5rlLEK_mxvMKbjwjtcSkNqnxCWy939tVHNr6qD2dpfdL8tITTgbz_jq6J5qhIBVIl-wGFoEt3tl43s8nvYkMDpU1v1OaTczjPKrA7S_q_fePaGA6atjQuyfAVJ_f0GSSGZ2aE-0RaUy7iLZmkIUy3ZpYBPjIYYK2aOnderF2FyE8Uu2bt7ZpTjwdG-SFrLTZDc3Z2uUOWmK_wVg-tNcjvdLCvaCT08x-d7aak8RTG2fAhhQAt_H_UUiS9_aKHsePwlGlV23IilzcVQ-hxuvV8Ex0dc0x7y7otwmgzuccaitTaqkyzjQdBUSsDUG-t5VfWl-XvZjLNFFDGFzprtiO4XocC0FjbJp-iGn4qxT_eWhnO2UfPiuINSL0Smdma9dFzfE9MEQmE0RfajxeXhP7lfwCDTN4TrZVGvrxFw7H7xvbtxkBFJEHhzoN42RivLaaAXFA3NZ4rCN-YoiQEev1tASQIbbk8V2NaxOBbtLABdTdQ63hQ259MZuSGEkZkfcVPgjNj73nRxUOh6rwnJiIqyQpmVSi5BHKTGvH_qYDFc8PFlBMMELnwL7GDB8S7bvNR8IfMQWMnLVy7zUdM2SZ_WDX5tlce0hNfhnhszguLFXSBJK6bAemr8BLIfGPHgwc8vw4pTrIvOZJoiov7xTI3SRyohVXU1u6jONfYQgFxCLybAqntaNVq34AnXljX3GWRivSFyUPeo8eY3BGyokKvtdvybWHT9xgjPkErue-T7GyIoTP_gWoBZnTlX--pb9ZRUQ306qv1rBiy8mYDeH-3L_0yS_3rEBYG2vw1kNrHeHH4jls8ISTmZa1L3mQLN5WB7ckeLDQYLNYg8Uus_oHgj-Mf9hEoLpvDTFVuiKyJZvvBTSPVTVaQxe6v8OlGC_Hk-8xQiz5LESJSNjv_wbrFv_FP_1mxsE9dKiGCDZXD7oTZ_t6o_xw9XPET_qdEJoK8T_ghg4yt6B1pl3qYXSJ3iPmryFLAZT64n3OtFIwf8y4Lu43dlXwiJwuO21CZtHxEVm00?></g></svg>