<svg xmlns="http://www.w3.org/2000/svg" xmlns:xlink="http://www.w3.org/1999/xlink" contentStyleType="text/css" data-diagram-type="DESCRIPTION" height="659px" preserveAspectRatio="none" style="width:2797px;height:659px;background:#FFFFFF;" version="1.1" viewBox="0 0 2797 659" width="2797px" zoomAndPan="magnify"><?plantuml 1.2026.3?><defs/><g><g class="title" data-source-line="30"><text fill="#000000" font-family="sans-serif" font-size="14" font-weight="700" lengthAdjust="spacing" textLength="388.042" x="1201.27" y="23.5352">/mdd-deploy ownership &#8212; plan + execute (objective)</text></g><!--cluster canonical source of truth--><g class="cluster" data-qualified-name="canonical source of truth" data-source-line="44" id="ent0011"><path d="M2285.33,43.4883 L2466.8876,43.4883 A3.75,3.75 0 0 1 2469.3876,45.9883 L2476.3876,65.9766 L2636.33,65.9766 A2.5,2.5 0 0 1 2638.83,68.4766 L2638.83,171.4483 A2.5,2.5 0 0 1 2636.33,173.9483 L2285.33,173.9483 A2.5,2.5 0 0 1 2282.83,171.4483 L2282.83,45.9883 A2.5,2.5 0 0 1 2285.33,43.4883" fill="none" style="stroke:#000000;stroke-width:1.5;"/><line style="stroke:#000000;stroke-width:1.5;" x1="2282.83" x2="2476.3876" y1="65.9766" y2="65.9766"/><text fill="#000000" font-family="sans-serif" font-size="14" font-weight="700" lengthAdjust="spacing" textLength="180.5576" x="2286.83" y="59.0234">canonical source of truth</text></g><!--cluster existing gated MDD pipeline\n(unaffected)--><g class="cluster" data-qualified-name="existing gated MDD pipeline.n.unaffected." data-source-line="48" id="ent0013"><path d="M63.33,362.9283 L269.1142,362.9283 A3.75,3.75 0 0 1 271.6142,365.4283 L278.6142,401.9048 L336.33,401.9048 A2.5,2.5 0 0 1 338.83,404.4048 L338.83,490.3983 A2.5,2.5 0 0 1 336.33,492.8983 L63.33,492.8983 A2.5,2.5 0 0 1 60.83,490.3983 L60.83,365.4283 A2.5,2.5 0 0 1 63.33,362.9283" fill="none" style="stroke:#000000;stroke-width:1.5;"/><line style="stroke:#000000;stroke-width:1.5;" x1="60.83" x2="278.6142" y1="401.9048" y2="401.9048"/><text fill="#000000" font-family="sans-serif" font-size="14" font-weight="700" lengthAdjust="spacing" textLength="204.7842" x="64.83" y="378.4634">existing gated MDD pipeline</text><text fill="#000000" font-family="sans-serif" font-size="14" font-weight="700" lengthAdjust="spacing" textLength="87.4111" x="123.5165" y="394.9517">(unaffected)</text></g><!--entity Templates--><g class="entity" data-qualified-name="canonical source of truth.Templates" data-source-line="45" id="ent0012"><rect fill="#F1F1F1" height="79.4648" rx="2.5" ry="2.5" style="stroke:#181818;stroke-width:0.5;" width="324.3887" x="2298.63" y="78.4883"/><rect fill="#F1F1F1" height="10" style="stroke:#181818;stroke-width:0.5;" width="15" x="2603.0187" y="83.4883"/><rect fill="#F1F1F1" height="2" style="stroke:#181818;stroke-width:0.5;" width="4" x="2601.0187" y="85.4883"/><rect fill="#F1F1F1" height="2" style="stroke:#181818;stroke-width:0.5;" width="4" x="2601.0187" y="89.4883"/><text fill="#000000" font-family="sans-serif" font-size="14" lengthAdjust="spacing" textLength="235.1221" x="2313.63" y="112.0234">crates/mdd-core/src/templates.rs</text><text fill="#000000" font-family="sans-serif" font-size="14" lengthAdjust="spacing" textLength="284.3887" x="2313.63" y="128.5117">MDD_DEPLOY_SKILL + WORKFLOW_SKILLS</text><text fill="#000000" font-family="sans-serif" font-size="14" lengthAdjust="spacing" textLength="207.5732" x="2313.63" y="145">+ MDD_DEPLOY_PROFILE_DOC</text></g><!--entity Gate--><g class="entity" data-qualified-name="existing gated MDD pipeline.n.unaffected..Gate" data-source-line="49" id="ent0014"><rect fill="#F1F1F1" height="62.9766" rx="2.5" ry="2.5" style="stroke:#181818;stroke-width:0.5;" width="246.3975" x="76.63" y="413.9283"/><rect fill="#F1F1F1" height="10" style="stroke:#181818;stroke-width:0.5;" width="15" x="303.0275" y="418.9283"/><rect fill="#F1F1F1" height="2" style="stroke:#181818;stroke-width:0.5;" width="4" x="301.0275" y="420.9283"/><rect fill="#F1F1F1" height="2" style="stroke:#181818;stroke-width:0.5;" width="4" x="301.0275" y="424.9283"/><text fill="#000000" font-family="sans-serif" font-size="14" lengthAdjust="spacing" textLength="206.3975" x="91.63" y="447.4634">/mdd-cycle / /mdd-validate /</text><text fill="#000000" font-family="sans-serif" font-size="14" lengthAdjust="spacing" textLength="175.875" x="91.63" y="463.9517">/mdd-review (parity gate)</text></g><!--entity Op--><g class="entity" data-qualified-name="Op" data-source-line="32" id="ent0002"><ellipse cx="1221.8259" cy="88.4683" fill="#F1F1F1" rx="8" ry="8" style="stroke:#181818;stroke-width:0.5;"/><path d="M1221.8259,96.4683 L1221.8259,123.4683 M1208.8259,104.4683 L1234.8259,104.4683 M1221.8259,123.4683 L1208.8259,138.4683 M1221.8259,123.4683 L1234.8259,138.4683" fill="none" style="stroke:#181818;stroke-width:0.5;"/><text fill="#000000" font-family="sans-serif" font-size="14" lengthAdjust="spacing" textLength="60.5117" x="1191.57" y="153.5034">Operator</text></g><!--entity Skill--><g class="entity" data-qualified-name="Skill" data-source-line="34" id="ent0003"><rect fill="#F1F1F1" height="62.9766" rx="2.5" ry="2.5" style="stroke:#181818;stroke-width:0.5;" width="194.3008" x="2009.68" y="236.9483"/><rect fill="#F1F1F1" height="10" style="stroke:#181818;stroke-width:0.5;" width="15" x="2183.9808" y="241.9483"/><rect fill="#F1F1F1" height="2" style="stroke:#181818;stroke-width:0.5;" width="4" x="2181.9808" y="243.9483"/><rect fill="#F1F1F1" height="2" style="stroke:#181818;stroke-width:0.5;" width="4" x="2181.9808" y="247.9483"/><text fill="#000000" font-family="sans-serif" font-size="14" lengthAdjust="spacing" textLength="91.5195" x="2024.68" y="270.4834">/mdd-deploy</text><text fill="#000000" font-family="sans-serif" font-size="14" lengthAdjust="spacing" textLength="154.3008" x="2024.68" y="286.9717">(skill: plan + executor)</text></g><!--entity Render--><g class="entity" data-qualified-name="Render" data-source-line="35" id="ent0004"><rect fill="#F1F1F1" height="62.9766" rx="2.5" ry="2.5" style="stroke:#181818;stroke-width:0.5;" width="270.7061" x="634.47" y="236.9483"/><rect fill="#F1F1F1" height="10" style="stroke:#181818;stroke-width:0.5;" width="15" x="885.1761" y="241.9483"/><rect fill="#F1F1F1" height="2" style="stroke:#181818;stroke-width:0.5;" width="4" x="883.1761" y="243.9483"/><rect fill="#F1F1F1" height="2" style="stroke:#181818;stroke-width:0.5;" width="4" x="883.1761" y="247.9483"/><text fill="#000000" font-family="sans-serif" font-size="14" lengthAdjust="spacing" textLength="90.6924" x="649.47" y="270.4834">/mdd-render</text><text fill="#000000" font-family="sans-serif" font-size="14" lengthAdjust="spacing" textLength="230.7061" x="649.47" y="286.9717">(thin wrapper over `mdd render`)</text></g><!--entity Exec--><g class="entity" data-qualified-name="Exec" data-source-line="36" id="ent0005"><rect fill="#F1F1F1" height="62.9766" rx="2.5" ry="2.5" style="stroke:#181818;stroke-width:0.5;" width="315.0713" x="1559.29" y="413.9283"/><rect fill="#F1F1F1" height="10" style="stroke:#181818;stroke-width:0.5;" width="15" x="1854.3613" y="418.9283"/><rect fill="#F1F1F1" height="2" style="stroke:#181818;stroke-width:0.5;" width="4" x="1852.3613" y="420.9283"/><rect fill="#F1F1F1" height="2" style="stroke:#181818;stroke-width:0.5;" width="4" x="1852.3613" y="424.9283"/><text fill="#000000" font-family="sans-serif" font-size="14" lengthAdjust="spacing" textLength="116.7988" x="1574.29" y="447.4634">execution engine</text><text fill="#000000" font-family="sans-serif" font-size="14" lengthAdjust="spacing" textLength="275.0713" x="1574.29" y="463.9517">(agent -&gt; Bash: az / terraform / docker)</text></g><!--entity Store--><g class="entity" data-qualified-name="Store" data-source-line="38" id="ent0006"><path d="M877.88,565.8283 L918.88,565.8283 A3.75,3.75 0 0 1 921.38,568.3283 L928.38,586.8283 L1155.7687,586.8283 A2.5,2.5 0 0 1 1158.2687,589.3283 L1158.2687,634.3048 A2.5,2.5 0 0 1 1155.7687,636.8048 L877.88,636.8048 A2.5,2.5 0 0 1 875.38,634.3048 L875.38,568.3283 A2.5,2.5 0 0 1 877.88,565.8283" fill="#F1F1F1" style="stroke:#181818;stroke-width:0.5;"/><line style="stroke:#181818;stroke-width:0.5;" x1="875.38" x2="928.38" y1="586.8283" y2="586.8283"/><text fill="#000000" font-family="sans-serif" font-size="14" lengthAdjust="spacing" textLength="252.8887" x="885.38" y="607.3634">.mdd/deploy/azure-container-apps/</text><text fill="#000000" font-family="sans-serif" font-size="14" lengthAdjust="spacing" textLength="187.3662" x="885.38" y="623.8517">diagram.puml, runbook.md</text></g><!--entity Target--><g class="entity" data-qualified-name="Target" data-source-line="39" id="ent0007"><path d="M2246.49,565.8283 L2287.49,565.8283 A3.75,3.75 0 0 1 2289.99,568.3283 L2296.99,586.8283 L2451.1658,586.8283 A2.5,2.5 0 0 1 2453.6658,589.3283 L2453.6658,634.3048 A2.5,2.5 0 0 1 2451.1658,636.8048 L2246.49,636.8048 A2.5,2.5 0 0 1 2243.99,634.3048 L2243.99,568.3283 A2.5,2.5 0 0 1 2246.49,565.8283" fill="#F1F1F1" style="stroke:#181818;stroke-width:0.5;"/><line style="stroke:#181818;stroke-width:0.5;" x1="2243.99" x2="2296.99" y1="586.8283" y2="586.8283"/><text fill="#000000" font-family="sans-serif" font-size="14" lengthAdjust="spacing" textLength="133.834" x="2253.99" y="607.3634">../atlas-ate-server/</text><text fill="#000000" font-family="sans-serif" font-size="14" lengthAdjust="spacing" textLength="179.6758" x="2253.99" y="623.8517">infra/ (Bicep or Terraform)</text></g><!--entity Rendered--><g class="entity" data-qualified-name="Rendered" data-source-line="40" id="ent0008"><path d="M360.48,409.9283 L401.48,409.9283 A3.75,3.75 0 0 1 403.98,412.4283 L410.98,430.9283 L549.1802,430.9283 A2.5,2.5 0 0 1 551.6802,433.4283 L551.6802,478.4048 A2.5,2.5 0 0 1 549.1802,480.9048 L360.48,480.9048 A2.5,2.5 0 0 1 357.98,478.4048 L357.98,412.4283 A2.5,2.5 0 0 1 360.48,409.9283" fill="#F1F1F1" style="stroke:#181818;stroke-width:0.5;"/><line style="stroke:#181818;stroke-width:0.5;" x1="357.98" x2="410.98" y1="430.9283" y2="430.9283"/><text fill="#000000" font-family="sans-serif" font-size="14" lengthAdjust="spacing" textLength="163.7002" x="367.98" y="451.4634">.mdd/rendered/deploy/</text><text fill="#000000" font-family="sans-serif" font-size="14" lengthAdjust="spacing" textLength="55.125" x="367.98" y="467.9517">**/*.svg</text></g><!--entity ProfileDoc--><g class="entity" data-qualified-name="ProfileDoc" data-source-line="41" id="ent0009"><path d="M2549.58,418.1683 L2590.58,418.1683 A3.75,3.75 0 0 1 2593.08,420.6683 L2600.08,439.1683 L2780.082,439.1683 A2.5,2.5 0 0 1 2782.582,441.6683 L2782.582,470.1566 A2.5,2.5 0 0 1 2780.082,472.6566 L2549.58,472.6566 A2.5,2.5 0 0 1 2547.08,470.1566 L2547.08,420.6683 A2.5,2.5 0 0 1 2549.58,418.1683" fill="#F1F1F1" style="stroke:#181818;stroke-width:0.5;"/><line style="stroke:#181818;stroke-width:0.5;" x1="2547.08" x2="2600.08" y1="439.1683" y2="439.1683"/><text fill="#000000" font-family="sans-serif" font-size="14" lengthAdjust="spacing" textLength="205.502" x="2557.08" y="459.7034">.mdd/docs/deploy-profile.md</text></g><!--entity Az--><g class="entity" data-qualified-name="Az" data-source-line="42" id="ent0010"><path d="M1564.1884,578.5984 C1567.7981,572.8128 1573.4416,572.2213 1576.5597,579.0794 C1580.3683,573.5228 1584.9806,573.347 1588.9769,578.8692 C1591.4309,574.1962 1596.2293,572.743 1599.4419,578.0758 C1603.8018,572.9101 1607.7756,572.8215 1611.4756,578.7891 C1614.212,572.657 1618.7602,571.8187 1623.1905,577.0413 C1627.7495,571.3977 1632.5123,571.9287 1636.1258,578.0783 C1638.2356,571.7703 1643.6396,572.313 1647.1501,576.624 C1652.1957,571.2748 1656.1812,571.1262 1659.777,578.1085 C1664.1642,571.9443 1668.4716,573.4334 1672.0136,578.9909 C1674.8634,572.9442 1680.5795,573.9824 1683.6748,578.7257 C1686.6348,574.1329 1692.2012,574.2704 1694.9012,579.0376 C1697.5576,573.7982 1702.7935,572.8561 1706.2031,578.2359 C1712.6375,581.6251 1712.4164,585.3112 1707.7134,590.1162 C1714.5397,593.6158 1713.8114,597.4378 1708.7885,602.0086 C1713.7948,606.1323 1713.8113,611.5708 1707.7614,614.8073 C1714.2958,617.806 1714.151,623.2882 1708.2046,626.7499 C1703.3949,633.9562 1698.7462,633.1325 1694.5296,626.1773 C1692.2188,632.5517 1686.6389,631.7914 1683.2586,627.2852 C1681.1121,633.669 1676.6627,633.9731 1672.3144,629.506 C1668.7132,637.2992 1663.8635,637.6639 1658.7792,630.8836 C1655.2029,635.8468 1650.9863,636.2726 1647.2687,631.0432 C1644.0246,637.3759 1640.1962,637.3091 1635.5648,632.5006 C1631.46,637.1198 1628.0631,637.0139 1624.5693,631.8162 C1620.3256,636.5819 1614.576,636.7472 1612.0341,629.9683 C1608.538,635.1318 1603.3328,636.4795 1599.831,629.9743 C1594.5704,634.262 1591.2889,632.6859 1588.666,627.0167 C1585.4161,632.3169 1581.7073,633.0668 1577.6317,627.8861 C1572.0233,633.7551 1566.8524,632.2478 1564.1467,624.92 C1558.8044,623.5063 1556.845,619.3862 1560.9258,614.9333 C1554.7291,611.0273 1554.5103,606.6677 1560.0678,601.9829 C1554.7631,598.0139 1555.4513,593.3439 1561.4081,590.7144 C1556.9883,585.9303 1558.0547,580.9608 1564.1884,578.5984" fill="#F1F1F1" style="stroke:#181818;stroke-width:0.5;"/><text fill="#000000" font-family="sans-serif" font-size="14" lengthAdjust="spacing" textLength="128.4336" x="1570.61" y="598.3634">Azure subscription</text><text fill="#000000" font-family="sans-serif" font-size="14" lengthAdjust="spacing" textLength="37.3447" x="1570.61" y="614.8517">(LIVE)</text></g><g class="entity" data-qualified-name="GMN30" data-source-line="69" id="ent0031"><path d="M1909,409.7983 L1909,481.0405 A0,0 0 0 0 1909,481.0405 L2304.6577,481.0405 A0,0 0 0 0 2304.6577,481.0405 L2304.6577,419.7983 L2294.6577,409.7983 L2110.83,409.7983 L2106.83,300.3183 L2102.83,409.7983 L1909,409.7983 A0,0 0 0 0 1909,409.7983" fill="#FEFFDD" style="stroke:#181818;stroke-width:0.5;"/><path d="M2294.6577,409.7983 L2294.6577,419.7983 L2304.6577,419.7983 L2294.6577,409.7983" fill="#FEFFDD" style="stroke:#181818;stroke-width:0.5;"/><text fill="#000000" font-family="sans-serif" font-size="13" lengthAdjust="spacing" textLength="370.2524" x="1915" y="427.3666">Plans, then EXECUTES the runbook via CMP-DEPLOY-EXEC.</text><text fill="#000000" font-family="sans-serif" font-size="13" lengthAdjust="spacing" textLength="340.082" x="1915" y="442.6772">Now runs az / terraform / docker (the old "never runs</text><text fill="#000000" font-family="sans-serif" font-size="13" lengthAdjust="spacing" textLength="254.9854" x="1915" y="457.9877">az / docker / brew" non-goal is retired).</text><text fill="#000000" font-family="sans-serif" font-size="13" lengthAdjust="spacing" textLength="374.6577" x="1915" y="473.2983">Realizes USE-DEPLOY-GUIDANCE + USE-DEPLOY-EXECUTE.</text></g><g class="entity" data-qualified-name="GMN33" data-source-line="76" id="ent0034"><path d="M1785.95,558.0383 L1785.95,644.591 L2183.7024,644.591 L2183.7024,568.0383 L2173.7024,558.0383 L1785.95,558.0383" fill="#FEFFDD" style="stroke:#181818;stroke-width:0.5;"/><path d="M2173.7024,558.0383 L2173.7024,568.0383 L2183.7024,568.0383 L2173.7024,558.0383" fill="#FEFFDD" style="stroke:#181818;stroke-width:1;"/><text fill="#000000" font-family="sans-serif" font-size="13" lengthAdjust="spacing" textLength="334.1089" x="1791.95" y="575.6066">Manages auth, dry-runs before apply, pauses only at</text><text fill="#000000" font-family="sans-serif" font-size="13" lengthAdjust="spacing" textLength="299.5713" x="1791.95" y="590.9172">irreversible steps + go-live, halts on first error.</text><text fill="#000000" font-family="sans-serif" font-size="13" lengthAdjust="spacing" textLength="376.7524" x="1791.95" y="606.2277">Agent-driven Bash &#8212; NOT a new mdd CLI verb. Outside the</text><text fill="#000000" font-family="sans-serif" font-size="13" lengthAdjust="spacing" textLength="367.123" x="1791.95" y="621.5383">parity gate. Realizes USE-DEPLOY-EXECUTE; go-live gated</text><text fill="#000000" font-family="sans-serif" font-size="13" lengthAdjust="spacing" textLength="280.9663" x="1791.95" y="636.8488">by OCL-DEPLOY-EXEC-GOLIVE-CONFIRMED.</text></g><g class="entity" data-qualified-name="GMN36" data-source-line="84" id="ent0037"><path d="M6,565.6883 L6,636.9305 A0,0 0 0 0 6,636.9305 L393.6533,636.9305 A0,0 0 0 0 393.6533,636.9305 L393.6533,575.6883 L383.6533,565.6883 L203.83,565.6883 L199.83,477.1883 L195.83,565.6883 L6,565.6883 A0,0 0 0 0 6,565.6883" fill="#FEFFDD" style="stroke:#181818;stroke-width:0.5;"/><path d="M383.6533,565.6883 L383.6533,575.6883 L393.6533,575.6883 L383.6533,565.6883" fill="#FEFFDD" style="stroke:#181818;stroke-width:0.5;"/><text fill="#000000" font-family="sans-serif" font-size="13" lengthAdjust="spacing" textLength="354.707" x="12" y="583.2566">/mdd-deploy is still decoupled: no objective&lt;-&gt;current</text><text fill="#000000" font-family="sans-serif" font-size="13" lengthAdjust="spacing" textLength="366.6533" x="12" y="598.5672">parity, no @sec parity. A deployment has no code-derived</text><text fill="#000000" font-family="sans-serif" font-size="13" lengthAdjust="spacing" textLength="344.3794" x="12" y="613.8777">counterpart, so by design it is not routed into the gate</text><text fill="#000000" font-family="sans-serif" font-size="13" lengthAdjust="spacing" textLength="365.4409" x="12" y="629.1883">&#8212; executing it instead of guiding it does not change that.</text></g><!--link Op to Skill--><g class="link" data-entity-1="ent0002" data-entity-2="ent0003" data-link-type="dependency" data-source-line="52" id="lnk15"><path d="M1252.55,124.3583 C1372.39,144.4383 1805.6624,216.9971 2003.3424,250.1071" fill="none" id="Op-to-Skill" style="stroke:#181818;stroke-width:1;"/><polygon fill="#181818" points="2009.26,251.0983,2001.0444,245.6665,2004.3287,250.2723,1999.7229,253.5566,2009.26,251.0983" style="stroke:#181818;stroke-width:1;"/><text fill="#000000" font-family="sans-serif" font-size="13" lengthAdjust="spacing" textLength="180.4067" x="1744.59" y="203.5166">/mdd-deploy &lt;description&gt;</text></g><!--link Templates to Skill--><g class="link" data-entity-1="ent0012" data-entity-2="ent0003" data-link-type="dependency" data-source-line="53" id="lnk16"><path d="M2367.35,158.3583 C2308.97,182.7983 2240.3945,211.511 2186.1545,234.221" fill="none" id="Templates-to-Skill" style="stroke:#181818;stroke-width:1;stroke-dasharray:7,7;"/><polygon fill="#181818" points="2180.62,236.5383,2190.4665,236.752,2185.2321,234.6072,2187.3769,229.3728,2180.62,236.5383" style="stroke:#181818;stroke-width:1;"/><text fill="#000000" font-family="sans-serif" font-size="13" lengthAdjust="spacing" textLength="170.3013" x="2284.83" y="203.5166">materialized by `mdd init`</text></g><!--link Templates to ProfileDoc--><g class="link" data-entity-1="ent0012" data-entity-2="ent0009" data-link-type="dependency" data-source-line="54" id="lnk17"><path d="M2495.03,158.2283 C2529.53,198.9783 2582.71,265.7783 2618.83,329.9283 C2635.01,358.6683 2646.4404,409.587 2654.5204,433.377" fill="none" id="Templates-to-ProfileDoc" style="stroke:#181818;stroke-width:1;stroke-dasharray:7,7;"/><polygon fill="#181818" points="2656.45,439.0583,2657.3431,429.25,2654.842,434.3239,2649.7681,431.8228,2656.45,439.0583" style="stroke:#181818;stroke-width:1;"/><text fill="#000000" font-family="sans-serif" font-size="13" lengthAdjust="spacing" textLength="170.3013" x="2601.45" y="273.5066">materialized by `mdd init`</text></g><!--link Skill to Store--><g class="link" data-entity-1="ent0003" data-entity-2="ent0006" data-link-type="dependency" data-source-line="55" id="lnk18"><path d="M2009.27,281.2883 C1960.25,287.1183 1899.92,294.1383 1845.83,299.9283 C1720.39,313.3583 1381.42,278.8083 1280.83,354.9283 C1225.29,396.9583 1271.18,449.8283 1223.83,500.8983 C1197.74,529.0383 1167.4836,568.6331 1133.0536,583.9231" fill="none" id="Skill-to-Store" style="stroke:#181818;stroke-width:1;"/><polygon fill="#181818" points="1127.57,586.3583,1137.4189,586.3612,1132.1397,584.3289,1134.1719,579.0497,1127.57,586.3583" style="stroke:#181818;stroke-width:1;"/><text fill="#000000" font-family="sans-serif" font-size="13" lengthAdjust="spacing" textLength="259.3843" x="1281.83" y="450.4866">write diagram.puml + runbook.md (plan)</text></g><!--link Skill to Target--><g class="link" data-entity-1="ent0003" data-entity-2="ent0007" data-link-type="dependency" data-source-line="56" id="lnk19"><path d="M2204.3,286.5183 C2246.29,298.7483 2292.4,319.5783 2321.83,354.9283 C2371.73,414.8783 2365.2811,528.6858 2356.8311,580.7558" fill="none" id="Skill-to-Target" style="stroke:#181818;stroke-width:1;"/><polygon fill="#181818" points="2355.87,586.6783,2361.26,578.4352,2356.6709,581.7428,2353.3633,577.1538,2355.87,586.6783" style="stroke:#181818;stroke-width:1;"/><text fill="#000000" font-family="sans-serif" font-size="13" lengthAdjust="spacing" textLength="135.0527" x="2362.97" y="450.4866">generate infra/ (plan)</text></g><!--link Skill to ProfileDoc--><g class="link" data-entity-1="ent0003" data-entity-2="ent0009" data-link-type="dependency" data-source-line="57" id="lnk20"><path d="M2204.28,288.7183 C2321.68,312.0783 2505.12,349.0483 2519.83,354.9283 C2559.8,370.8883 2596.2792,415.1426 2624.5492,435.2326" fill="none" id="Skill-to-ProfileDoc" style="stroke:#181818;stroke-width:1;stroke-dasharray:7,7;"/><polygon fill="#181818" points="2629.44,438.7083,2624.4209,430.2343,2625.3643,435.8119,2619.7867,436.7554,2629.44,438.7083" style="stroke:#181818;stroke-width:1;"/><text fill="#000000" font-family="sans-serif" font-size="13" lengthAdjust="spacing" textLength="125.0742" x="2485.12" y="343.4966">follows conventions</text></g><!--link Skill to Exec--><g class="link" data-entity-1="ent0003" data-entity-2="ent0005" data-link-type="dependency" data-source-line="58" id="lnk21"><path d="M2009.43,287.0283 C1967.7,296.6183 1919.16,310.5583 1877.83,329.9283 C1830.93,351.8983 1787.9652,383.9663 1756.8152,409.7063" fill="none" id="Skill-to-Exec" style="stroke:#181818;stroke-width:1;"/><polygon fill="#181818" points="1752.19,413.5283,1761.6758,410.8789,1756.0444,410.3433,1756.5799,404.7119,1752.19,413.5283" style="stroke:#181818;stroke-width:1;"/><text fill="#000000" font-family="sans-serif" font-size="13" lengthAdjust="spacing" textLength="219.9272" x="1878.83" y="343.4966">drive execution (walk the runbook)</text></g><!--link Exec to Store--><g class="link" data-entity-1="ent0005" data-entity-2="ent0006" data-link-type="dependency" data-source-line="59" id="lnk22"><path d="M1626.99,477.2783 C1597.06,486.3783 1563.32,495.3683 1531.83,500.8983 C1459.9,513.5483 1439.97,499.7383 1367.83,511.0383 C1324.81,517.7783 1231.394,562.7897 1149.384,584.8497" fill="none" id="Exec-to-Store" style="stroke:#181818;stroke-width:1;"/><polygon fill="#181818" points="1143.59,586.4083,1153.3201,587.9332,1148.4184,585.1095,1151.242,580.2078,1143.59,586.4083" style="stroke:#181818;stroke-width:1;"/><text fill="#000000" font-family="sans-serif" font-size="13" lengthAdjust="spacing" textLength="249.1519" x="1368.83" y="524.6066">read runbook.md as the execution plan</text></g><!--link Exec to Target--><g class="link" data-entity-1="ent0005" data-entity-2="ent0007" data-link-type="dependency" data-source-line="60" id="lnk23"><path d="M1803.6,477.2583 C1831.46,486.1283 1862.67,494.9883 1891.83,500.8983 C1936.91,510.0383 1949.65,502.3783 1994.83,511.0383 C2021.63,516.1683 2027.33,521.5283 2053.83,528.0383 C2118.58,543.9483 2136.05,542.1983 2200.83,558.0383 C2214.71,561.4283 2223.4729,563.6741 2237.7929,567.5941" fill="none" id="Exec-to-Target" style="stroke:#181818;stroke-width:1;"/><polygon fill="#181818" points="2243.58,569.1783,2235.9555,562.944,2238.7574,567.8581,2233.8433,570.6601,2243.58,569.1783" style="stroke:#181818;stroke-width:1;"/><text fill="#000000" font-family="sans-serif" font-size="13" lengthAdjust="spacing" textLength="293.2871" x="2054.83" y="524.6066">apply infra/ (terraform apply / az deployment)</text></g><!--link Exec to Az--><g class="link" data-entity-1="ent0005" data-entity-2="ent0010" data-link-type="dependency" data-source-line="61" id="lnk24"><path d="M1660.88,477.2083 C1649.19,486.4583 1638.42,497.7483 1631.83,511.0383 C1622.94,528.9583 1622.7772,545.571 1625.7872,563.511" fill="none" id="Exec-to-Az" style="stroke:#181818;stroke-width:1;"/><polygon fill="#181818" points="1626.78,569.4283,1629.2356,559.8905,1625.9527,564.4972,1621.3459,561.2142,1626.78,569.4283" style="stroke:#181818;stroke-width:1;"/><text fill="#000000" font-family="sans-serif" font-size="13" lengthAdjust="spacing" textLength="325.8125" x="1632.83" y="524.6066">auth, apply, provision secrets, migrate, route traffic</text></g><!--link Op to Exec--><g class="link" data-entity-1="ent0002" data-entity-2="ent0005" data-link-type="dependency" data-source-line="62" id="lnk25"><path d="M1252.42,139.3183 C1336.1,194.2883 1564.2152,344.154 1664.7152,410.174" fill="none" id="Op-to-Exec" style="stroke:#181818;stroke-width:1;stroke-dasharray:7,7;"/><polygon fill="#181818" points="1669.73,413.4683,1664.404,405.1837,1665.551,410.7231,1660.0117,411.87,1669.73,413.4683" style="stroke:#181818;stroke-width:1;"/><text fill="#000000" font-family="sans-serif" font-size="13" lengthAdjust="spacing" textLength="342.4243" x="1495.04" y="273.5066">auth handshake + confirm irreversible steps &amp; go-live</text></g><!--link Op to Render--><g class="link" data-entity-1="ent0002" data-entity-2="ent0004" data-link-type="dependency" data-source-line="63" id="lnk26"><path d="M1191.25,124.9883 C1138.91,135.2683 1029.15,158.6783 939.83,189.9483 C902.63,202.9683 867.8526,218.4783 835.8926,233.9183" fill="none" id="Op-to-Render" style="stroke:#181818;stroke-width:1;"/><polygon fill="#181818" points="830.49,236.5283,840.3339,236.215,834.9921,234.3533,836.8539,229.0116,830.49,236.5283" style="stroke:#181818;stroke-width:1;"/><text fill="#000000" font-family="sans-serif" font-size="13" lengthAdjust="spacing" textLength="254.8457" x="940.83" y="203.5166">/mdd-render (or `mdd render` directly)</text></g><!--link Render to Store--><g class="link" data-entity-1="ent0004" data-entity-2="ent0006" data-link-type="dependency" data-source-line="64" id="lnk27"><path d="M764.55,300.1983 C758.14,348.0283 753.01,440.9683 796.83,500.8983 C818.04,529.9183 844.2483,548.1864 877.0083,562.9264" fill="none" id="Render-to-Store" style="stroke:#181818;stroke-width:1;"/><polygon fill="#181818" points="882.48,565.3883,875.9138,558.0476,877.9203,563.3367,872.6312,565.3432,882.48,565.3883" style="stroke:#181818;stroke-width:1;"/><text fill="#000000" font-family="sans-serif" font-size="13" lengthAdjust="spacing" textLength="421.8398" x="797.83" y="450.4866">`mdd render` reads .mdd/deploy/**/*.puml (Project-enumerated)</text></g><!--link Render to Rendered--><g class="link" data-entity-1="ent0004" data-entity-2="ent0008" data-link-type="dependency" data-source-line="65" id="lnk28"><path d="M634.06,278.2483 C558.65,286.2783 475.39,301.4583 451.83,329.9283 C433.82,351.6783 435.2862,399.6921 441.4262,424.6421" fill="none" id="Render-to-Rendered" style="stroke:#181818;stroke-width:1;"/><polygon fill="#181818" points="442.86,430.4683,444.5935,420.7732,441.6652,425.6131,436.8252,422.6849,442.86,430.4683" style="stroke:#181818;stroke-width:1;"/><text fill="#000000" font-family="sans-serif" font-size="13" lengthAdjust="spacing" textLength="290.9131" x="452.83" y="343.4966">write .mdd/rendered/deploy/**/*.svg (mirror)</text></g><!--link Gate to Store--><g class="link" data-entity-1="ent0014" data-entity-2="ent0006" data-link-type="dependency" data-source-line="66" id="lnk29"><path d="M270.54,477.2783 C292.7,485.9883 317.48,494.7583 340.83,500.8983 C522.08,548.6083 731.1282,574.7169 869.1882,588.1569" fill="none" id="Gate-to-Store" style="stroke:#181818;stroke-width:1;stroke-dasharray:7,7;"/><polygon fill="#181818" points="875.16,588.7383,866.5899,583.8851,870.1835,588.2538,865.8148,591.8474,875.16,588.7383" style="stroke:#181818;stroke-width:1;"/><text fill="#000000" font-family="sans-serif" font-size="13" lengthAdjust="spacing" textLength="194.1621" x="450.56" y="524.6066">NEVER reads (outside the gate)</text></g><!--link Exec to GMN33--><g class="link" data-entity-1="ent0005" data-entity-2="ent0034" data-link-type="association" data-source-line="76" id="lnk35"><path d="M1806.46,477.3483 C1833.63,485.8983 1863.73,494.5683 1891.83,500.8983 C1907.37,504.4083 1951.01,500.3383 1962.83,511.0383 C1975.85,522.8183 1981.74,540.9583 1984.23,557.8183" fill="none" id="Exec-GMN33" style="stroke:#181818;stroke-width:1;stroke-dasharray:7,7;"/></g><?plantuml-src hLZRRkF84NtNLnJya9N6ehJ9esSm68t4yGeZIuQasSq21ZmjiYKnfjW4kscF7GJ8H-GByoKvrKsAhOkz2P0dMsHtTTMfKwUg-HDzIkBsyEOs68MtazdlmUBhU3Bfj7uwURwSpSCppvU3-NMuFFDY7av7uVpCYzlvxCju4WQZsV3Cs_2leNjSo7NxsoAidrz_6uy6qs5uxjrukhWDXyjphzZSjsMpQpIxgJmBmkdrUCfly6ws-fkCJF8e0vt4ajHJ9WkzJN9QgJABHP58JMjLK7yNnq4iyrGzzsWeCfKbaKX9gxA89EoeDPcYD5kxs6mbwOSaJM4bVgP4KrG88xKr4gb2zdKHzOtSvIa_xXNwFU4Lp2HPOcY7XqKYqkG5X-DtaXb5lIWLPIpxlKZ5yWVPRFLsSO-MECmv1W-a996n8NOXAfJMGI5pHMCn9558AieiCCaEWPOcBussVjVUTYbJXZOuFUvPS8Q_3ARN8RMZvoYLzFFFV_bpvyeBRYEIJECySbYFPrEIsIR9P8y6QuH022_Bacp3WN4OZ-e14NqMUak82BwGUA4-OMaXWDiE_ySgUi1EOMqRUzXa_6j8WvUoO9nrkT9HaUGcKLcNdaJw0FjssKOYTUmx6rufzS3G07fjnBEcsRVbOZmAUIMiv4YiURQXalmX8fC-az2qal12qh__-IyI5QOxcHdQubscY9471mgmXI6Em12u3bl6Rb4Ph6JgoKC8dcYN2hNR8J589wAI8cRSjtZWmC6A7ICYQ5jYcGF_KonrT5AWNRhWX7jqfD8aAKTZZqH-QbfTNTsCHlTkyxtTZ8IKp2XDlytcNxzCPh-vvmlapHJFJ1thxI7N-jQmzexir-oZNL8Kgj0z6XkwdGoc2sfxkCM9s1HYHvTrIl1VaoPmibCVMNCeNE2NCFlr02K5t62sMA-JY1uJGKUQ0RAHJbOfym2eMZSBcI5FNMQvBMiEoijvxw9p5c1MEW2CmE9-5Ua78ugDD1_xI2_YqGzNTLIzlDobJMZOr4N5IHiQrgwJ0lpryuI5hbhhu69Lhb8KX70SaJzaL3AlRTruB6AM0-AfC6KXKf2i3ijQVuHGn4naXhAA_Z6HJwGZbKjgQx7Zu0secjL7GRu2M-TaOzs9l6_5e_CACaxhA-vv2NRWa9MONgylJ2fq0Bk1biKZ9w1Whi_3mIYOJIU_Et5KkKhLnh5D8sIR5eW3yYCoenr63KsIR5s8FhK_9v7C2GQMjLnqM5cViDr82nTA5zHnuB76yG63szl9E1pHkb2xPes3MjfbxtsTTBB8TjVGCGX294ejlLmakW7l5R1Sbwd0yhdqxbt_dMED5MgOKZYZKc1-v9AZmMJ8xNVi94VaxxL-u2zWrLPkP5RkAeXMptOZMwix3DqMYZiRRMMQGr3Fz3zhnHKmR72BOL_TYVBGQVsuSMdnggi1HE3q94CcHCv7iOi7tgD2upZX9cjJKk67A5y1q9iJzjMe8brv5EI5MYUfj0NdjSguod4ZVsxzVRN-7ZQexKbYTSmzZoDNG3Px1ALHVdhVmstJeQ7A3BeHWXhakQPJVUlQnNi6KxILqKEQQDEryVhjywZGTz3NrFKRp0vTYeld0EhGvPygKpjLwk1H1yYHvBn3vK0FWpA0G6kTG165QuHRaPe0k4hEPdSlv1iLMFbyG_HOGYkkDdwvDkxt-hP0HPhE_w69_syjVCpZK8R3jOK8VhmGr0Dqkpmm12L9GVVE7iDzDnSPf2RFq-UkQySGpbsk3EUFeTGUrhpcysGs_BfWaJX1NLjSyQQ2rU7yos2oNB3YSmHEzTS2V8lj7iZsR8aAoI38N1B3oPXWTELAU0yuLn437CGyNMGMtXujZaUNWoP6SrdDYATZBoVR92Ozd1IQwPPFjq9vkTV2jgf7uKwhXP48DN0nopaVghZWnZ7BMoteK0wP0NONdk6xh5qD7mSsLT6n6nVyxcIh4mTiVLiyd8cv_U7RE2Oh35a4AVXeqRjwZPREO8ZjhTPQfQna1nrVC4cXeLNH1_1Bz-yol-jtlQRl8aIiih5ssWbXu8q-PcqiRIyzTEbOZE-oMeuzL32C7iPnLYljXbltSwIYLfIgCgQBqv84a5oipgd1IwkLY-W1qD95T7JjsLzwBkZlBI8lENzqtRdBJaRJo-EPz2wxfFDgxU2gpRN-uRaeVq1sMKxST8Fzb2UvJ1r1oWnJ93Wkuyw9oyvPgzJzey4AiFjpLTihGeVIDVvZDsOv1Q2VvJjT7PJU1zRT2k6FhRtpc9gQzGVD33tTbW7V2ByVRMZI-FOkPzYwn0J5OfwMvEiJB6930NUyZOwLs5bhytuUyrUUE0L2fkf9-rtLCyh5XqLMwpmHR7Cli39NUTHfsPL-07QWz1m-Epits_RksmwmzxrH1VUypsBHD7RltC4BRxRDkMeYAAd7HBkMWtdVQ4mXoOQXWImeErMwomhJWO6fehNjY-zyUYiU9607DcWNktDzvazrYwafvIgzvbGrWBNLeLGYhuNaksodLQttaJjOoJ3gLuRJTZKw1is4UM2mLfqzdTwS6wdjHinEYwl4yRtoQ1h-6iuhLzh-LSrMLgkLeKlJIXc3iGvIuze8qIqohBidjyRcNdNkaeXzKrpDxGJmshpIjaDq2bNCE25sCVRPvTMIFgqA-NJXPbWbxFWB3W3tkCDdd6l9zGSifFnCesv9En93G8xZjIsAwCORVyvCDnKf-PgYtIS8OR3h3Aakcxc5nqNTt5BjrCZk3uvd43ied9zWUZHhKeQz_-reylvWAesn4w8r6qxyPS7rZ7jGC9nDlupdD-7e3PYi-DA1sDglFYmsiOnKcMCMk-BlD_i1vqFm4TTECDRi_UPlN_G95LtzvgyAV_05YFmlG5tqH0u4CfziClkvIzlFQLOIOlSDh-OsjdhZ7xgL_Jgs_p2qAPEuUXehwSn4K8wDj1z76Yp-0m00?></g></svg>