<svg xmlns="http://www.w3.org/2000/svg" xmlns:xlink="http://www.w3.org/1999/xlink" contentStyleType="text/css" data-diagram-type="DESCRIPTION" height="583px" preserveAspectRatio="none" style="width:1229px;height:583px;background:#FFFFFF;" version="1.1" viewBox="0 0 1229 583" width="1229px" zoomAndPan="magnify"><?plantuml 1.2026.3?><defs/><g><g class="title" data-source-line="5"><text fill="#000000" font-family="sans-serif" font-size="14" font-weight="700" lengthAdjust="spacing" textLength="382.6348" x="419.8826" y="23.5352">mdd-viewer render pipeline &#8212; ownership (objective)</text></g><!--cluster SVG rasterization (external crates)--><g class="cluster" data-qualified-name="SVG rasterization .external crates." data-source-line="12" id="ent0005"><path d="M827.9,182.4783 L1076.0396,182.4783 A3.75,3.75 0 0 1 1078.5396,184.9783 L1085.5396,204.9666 L1211.9,204.9666 A2.5,2.5 0 0 1 1214.4,207.4666 L1214.4,446.1783 A2.5,2.5 0 0 1 1211.9,448.6783 L827.9,448.6783 A2.5,2.5 0 0 1 825.4,446.1783 L825.4,184.9783 A2.5,2.5 0 0 1 827.9,182.4783" fill="none" style="stroke:#000000;stroke-width:1.5;"/><line style="stroke:#000000;stroke-width:1.5;" x1="825.4" x2="1085.5396" y1="204.9666" y2="204.9666"/><text fill="#000000" font-family="sans-serif" font-size="14" font-weight="700" lengthAdjust="spacing" textLength="247.1396" x="829.4" y="198.0134">SVG rasterization (external crates)</text></g><!--entity Usvg--><g class="entity" data-qualified-name="SVG rasterization .external crates..Usvg" data-source-line="13" id="ent0006"><rect fill="#F1F1F1" height="62.9766" rx="2.5" ry="2.5" style="stroke:#181818;stroke-width:0.5;" width="245.9736" x="841.41" y="217.4783"/><rect fill="#F1F1F1" height="10" style="stroke:#181818;stroke-width:0.5;" width="15" x="1067.3836" y="222.4783"/><rect fill="#F1F1F1" height="2" style="stroke:#181818;stroke-width:0.5;" width="4" x="1065.3836" y="224.4783"/><rect fill="#F1F1F1" height="2" style="stroke:#181818;stroke-width:0.5;" width="4" x="1065.3836" y="228.4783"/><text fill="#000000" font-family="sans-serif" font-size="14" lengthAdjust="spacing" textLength="67.2178" x="856.41" y="251.0134">usvg 0.44</text><text fill="#000000" font-family="sans-serif" font-size="14" lengthAdjust="spacing" textLength="205.9736" x="856.41" y="267.5017">Options { fontdb, font_family }</text></g><!--entity FontDb--><g class="entity" data-qualified-name="SVG rasterization .external crates..FontDb" data-source-line="14" id="ent0007"><rect fill="#F1F1F1" height="62.9766" rx="2.5" ry="2.5" style="stroke:#181818;stroke-width:0.5;" width="186.2686" x="841.27" y="369.6983"/><rect fill="#F1F1F1" height="10" style="stroke:#181818;stroke-width:0.5;" width="15" x="1007.5386" y="374.6983"/><rect fill="#F1F1F1" height="2" style="stroke:#181818;stroke-width:0.5;" width="4" x="1005.5386" y="376.6983"/><rect fill="#F1F1F1" height="2" style="stroke:#181818;stroke-width:0.5;" width="4" x="1005.5386" y="380.6983"/><text fill="#000000" font-family="sans-serif" font-size="14" lengthAdjust="spacing" textLength="92.6953" x="856.27" y="403.2334">FontDatabase</text><text fill="#000000" font-family="sans-serif" font-size="14" lengthAdjust="spacing" textLength="146.2686" x="856.27" y="419.7217">(system fonts loaded)</text></g><!--entity Resvg--><g class="entity" data-qualified-name="SVG rasterization .external crates..Resvg" data-source-line="15" id="ent0008"><rect fill="#F1F1F1" height="62.9766" rx="2.5" ry="2.5" style="stroke:#181818;stroke-width:0.5;" width="135.9014" x="1062.45" y="369.6983"/><rect fill="#F1F1F1" height="10" style="stroke:#181818;stroke-width:0.5;" width="15" x="1178.3514" y="374.6983"/><rect fill="#F1F1F1" height="2" style="stroke:#181818;stroke-width:0.5;" width="4" x="1176.3514" y="376.6983"/><rect fill="#F1F1F1" height="2" style="stroke:#181818;stroke-width:0.5;" width="4" x="1176.3514" y="380.6983"/><text fill="#000000" font-family="sans-serif" font-size="14" lengthAdjust="spacing" textLength="87.6162" x="1077.45" y="403.2334">resvg 0.44 +</text><text fill="#000000" font-family="sans-serif" font-size="14" lengthAdjust="spacing" textLength="95.9014" x="1077.45" y="419.7217">tiny-skia 0.11</text></g><!--entity Dev--><g class="entity" data-qualified-name="Dev" data-source-line="7" id="ent0002"><ellipse cx="131.3992" cy="51.4883" fill="#F1F1F1" rx="8" ry="8" style="stroke:#181818;stroke-width:0.5;"/><path d="M131.3992,59.4883 L131.3992,86.4883 M118.3992,67.4883 L144.3992,67.4883 M131.3992,86.4883 L118.3992,101.4883 M131.3992,86.4883 L144.3992,101.4883" fill="none" style="stroke:#181818;stroke-width:0.5;"/><text fill="#000000" font-family="sans-serif" font-size="14" lengthAdjust="spacing" textLength="68.3184" x="97.24" y="116.5234">Developer</text></g><!--entity Viewer--><g class="entity" data-qualified-name="Viewer" data-source-line="9" id="ent0003"><rect fill="#F1F1F1" height="79.4648" rx="2.5" ry="2.5" style="stroke:#181818;stroke-width:0.5;" width="211.9512" x="370.42" y="209.2383"/><rect fill="#F1F1F1" height="10" style="stroke:#181818;stroke-width:0.5;" width="15" x="562.3712" y="214.2383"/><rect fill="#F1F1F1" height="2" style="stroke:#181818;stroke-width:0.5;" width="4" x="560.3712" y="216.2383"/><rect fill="#F1F1F1" height="2" style="stroke:#181818;stroke-width:0.5;" width="4" x="560.3712" y="220.2383"/><text fill="#000000" font-family="sans-serif" font-size="14" lengthAdjust="spacing" textLength="82.2021" x="385.42" y="242.7734">mdd-viewer</text><text fill="#000000" font-family="sans-serif" font-size="14" lengthAdjust="spacing" textLength="171.9512" x="385.42" y="259.2617">MddViewer (eframe::App)</text><text fill="#000000" font-family="sans-serif" font-size="14" lengthAdjust="spacing" textLength="89.5234" x="385.42" y="275.75">DiagramPage</text></g><!--entity Rendered--><g class="entity" data-qualified-name="Rendered" data-source-line="10" id="ent0004"><path d="M282.92,365.6983 L323.92,365.6983 A3.75,3.75 0 0 1 326.42,368.1983 L333.42,386.6983 L439.8741,386.6983 A2.5,2.5 0 0 1 442.3741,389.1983 L442.3741,434.1748 A2.5,2.5 0 0 1 439.8741,436.6748 L282.92,436.6748 A2.5,2.5 0 0 1 280.42,434.1748 L280.42,368.1983 A2.5,2.5 0 0 1 282.92,365.6983" fill="#F1F1F1" style="stroke:#181818;stroke-width:0.5;"/><line style="stroke:#181818;stroke-width:0.5;" x1="280.42" x2="333.42" y1="386.6983" y2="386.6983"/><text fill="#000000" font-family="sans-serif" font-size="14" lengthAdjust="spacing" textLength="110.9746" x="290.42" y="407.2334">.mdd/rendered/</text><text fill="#000000" font-family="sans-serif" font-size="14" lengthAdjust="spacing" textLength="131.9541" x="290.42" y="423.7217">(pre-rendered SVG)</text></g><!--entity Egui--><g class="entity" data-qualified-name="Egui" data-source-line="17" id="ent0009"><rect fill="#F1F1F1" height="62.9766" rx="2.5" ry="2.5" style="stroke:#181818;stroke-width:0.5;" width="222.7998" x="7" y="369.6983"/><rect fill="#F1F1F1" height="10" style="stroke:#181818;stroke-width:0.5;" width="15" x="209.7998" y="374.6983"/><rect fill="#F1F1F1" height="2" style="stroke:#181818;stroke-width:0.5;" width="4" x="207.7998" y="376.6983"/><rect fill="#F1F1F1" height="2" style="stroke:#181818;stroke-width:0.5;" width="4" x="207.7998" y="380.6983"/><text fill="#000000" font-family="sans-serif" font-size="14" lengthAdjust="spacing" textLength="128.1602" x="22" y="403.2334">eframe / egui 0.30</text><text fill="#000000" font-family="sans-serif" font-size="14" lengthAdjust="spacing" textLength="182.7998" x="22" y="419.7217">(window, painter, textures)</text></g><g class="entity" data-qualified-name="GMN19" data-source-line="30" id="ent0020"><path d="M725.29,497.6783 L725.29,568.9205 A0,0 0 0 0 725.29,568.9205 L1143.5009,568.9205 A0,0 0 0 0 1143.5009,568.9205 L1143.5009,507.6783 L1133.5009,497.6783 L938.4,497.6783 L934.4,433.0183 L930.4,497.6783 L725.29,497.6783 A0,0 0 0 0 725.29,497.6783" fill="#FEFFDD" style="stroke:#181818;stroke-width:0.5;"/><path d="M1133.5009,497.6783 L1133.5009,507.6783 L1143.5009,507.6783 L1133.5009,497.6783" fill="#FEFFDD" style="stroke:#181818;stroke-width:0.5;"/><text fill="#000000" font-family="sans-serif" font-size="13" lengthAdjust="spacing" textLength="275.4185" x="731.29" y="515.2466">Objective: the font database is a first-class,</text><text fill="#000000" font-family="sans-serif" font-size="13" lengthAdjust="spacing" textLength="327.2661" x="731.29" y="530.5572">populated dependency of the usvg/resvg boundary.</text><text fill="#000000" font-family="sans-serif" font-size="13" lengthAdjust="spacing" textLength="271.1782" x="731.29" y="545.8677">It is independent of egui's `default_fonts`.</text><text fill="#000000" font-family="sans-serif" font-size="13" lengthAdjust="spacing" textLength="397.2109" x="731.29" y="561.1783">Invariant: DOM-FONT-DATABASE / OCL-FONTDB-POPULATED.</text></g><!--link Dev to Viewer--><g class="link" data-entity-1="ent0002" data-entity-2="ent0003" data-link-type="dependency" data-source-line="19" id="lnk10"><path d="M165.8,96.6883 C207.16,114.2683 278.47,145.2183 338.4,174.4783 C360.35,185.1983 378.6262,194.6441 399.9762,206.0341" fill="none" id="Dev-to-Viewer" style="stroke:#181818;stroke-width:1;"/><polygon fill="#181818" points="405.27,208.8583,399.2121,201.0928,400.8585,206.5048,395.4466,208.1512,405.27,208.8583" style="stroke:#181818;stroke-width:1;"/><text fill="#000000" font-family="sans-serif" font-size="13" lengthAdjust="spacing" textLength="60.3599" x="317.25" y="163.0466">mdd view</text></g><!--link Viewer to Rendered--><g class="link" data-entity-1="ent0003" data-entity-2="ent0004" data-link-type="dependency" data-source-line="20" id="lnk11"><path d="M384.98,289.1983 C374.38,297.4283 365.02,307.1883 358.4,318.6983 C350.43,332.5683 349.2643,365.124 351.3543,380.354" fill="none" id="Viewer-to-Rendered" style="stroke:#181818;stroke-width:1;"/><polygon fill="#181818" points="352.17,386.2983,354.9093,376.838,351.4902,381.3447,346.9835,377.9257,352.17,386.2983" style="stroke:#181818;stroke-width:1;"/><text fill="#000000" font-family="sans-serif" font-size="13" lengthAdjust="spacing" textLength="94.7515" x="359.4" y="332.2666">read SVG bytes</text></g><!--link Viewer to FontDb--><g class="link" data-entity-1="ent0003" data-entity-2="ent0007" data-link-type="dependency" data-source-line="21" id="lnk12"><path d="M475.21,288.8783 C476.82,305.5183 481.77,323.8183 494.4,335.6983 C543.05,381.4483 720.8934,394.6154 834.9834,398.4754" fill="none" id="Viewer-to-FontDb" style="stroke:#181818;stroke-width:1;"/><polygon fill="#181818" points="840.98,398.6783,832.1204,394.3762,835.9829,398.5092,831.8499,402.3717,840.98,398.6783" style="stroke:#181818;stroke-width:1;"/><text fill="#000000" font-family="sans-serif" font-size="13" lengthAdjust="spacing" textLength="159.2373" x="495.4" y="332.2666">load_system_fonts() once</text></g><!--link Usvg to FontDb--><g class="link" data-entity-1="ent0006" data-entity-2="ent0007" data-link-type="dependency" data-source-line="22" id="lnk13"><path d="M953.64,280.7883 C949.9,292.5283 945.99,306.1083 943.4,318.6983 C939.98,335.2883 938.3295,348.0817 936.9695,363.4317" fill="none" id="Usvg-to-FontDb" style="stroke:#181818;stroke-width:1;"/><polygon fill="#181818" points="936.44,369.4083,941.2187,360.7964,936.8813,364.4278,933.2499,360.0904,936.44,369.4083" style="stroke:#181818;stroke-width:1;"/><text fill="#000000" font-family="sans-serif" font-size="13" lengthAdjust="spacing" textLength="184.4121" x="944.4" y="332.2666">resolves &lt;text&gt; font families</text></g><!--link Viewer to Usvg--><g class="link" data-entity-1="ent0003" data-entity-2="ent0006" data-link-type="dependency" data-source-line="23" id="lnk14"><path d="M582.59,248.9683 C658.71,248.9683 755.47,248.9683 835.2,248.9683" fill="none" id="Viewer-to-Usvg" style="stroke:#181818;stroke-width:1;"/><polygon fill="#181818" points="841.2,248.9683,832.2,244.9683,836.2,248.9683,832.2,252.9683,841.2,248.9683" style="stroke:#181818;stroke-width:1;"/><text fill="#000000" font-family="sans-serif" font-size="13" lengthAdjust="spacing" textLength="219.4131" x="602.39" y="242.5366">Tree::from_data(opts WITH fontdb)</text></g><!--link Usvg to Resvg--><g class="link" data-entity-1="ent0006" data-entity-2="ent0008" data-link-type="dependency" data-source-line="24" id="lnk15"><path d="M1087.48,279.3583 C1105.61,288.9783 1122,301.7483 1133.4,318.6983 C1143.28,333.3783 1143.8981,347.2615 1140.8181,363.6515" fill="none" id="Usvg-to-Resvg" style="stroke:#181818;stroke-width:1;"/><polygon fill="#181818" points="1139.71,369.5483,1145.3034,361.4419,1140.6334,364.6343,1137.441,359.9644,1139.71,369.5483" style="stroke:#181818;stroke-width:1;"/><text fill="#000000" font-family="sans-serif" font-size="13" lengthAdjust="spacing" textLength="24.667" x="1141.05" y="332.2666">tree</text></g><!--link Resvg to Viewer--><g class="link" data-entity-1="ent0008" data-entity-2="ent0003" data-link-type="dependency" data-source-line="25" id="lnk16"><path d="M1062.31,370.5683 C1056.65,368.7183 1050.97,367.0583 1045.4,365.6983 C906.2,331.7383 864.45,365.9883 724.4,335.6983 C673.08,324.5983 623.3299,308.2199 577.9499,291.2499" fill="none" id="Resvg-to-Viewer" style="stroke:#181818;stroke-width:1;"/><polygon fill="#181818" points="572.33,289.1483,579.3588,296.0473,577.0133,290.8996,582.1609,288.5541,572.33,289.1483" style="stroke:#181818;stroke-width:1;"/><text fill="#000000" font-family="sans-serif" font-size="13" lengthAdjust="spacing" textLength="206.9844" x="725.4" y="332.2666">RGBA pixmap (glyphs rasterized)</text></g><!--link Viewer to Egui--><g class="link" data-entity-1="ent0003" data-entity-2="ent0009" data-link-type="dependency" data-source-line="26" id="lnk17"><path d="M370.02,280.7683 C359.37,283.5683 348.69,286.2683 338.4,288.6983 C270.12,304.8583 243.43,282.3683 183.4,318.6983 C163.27,330.8783 150.0835,346.667 138.7635,364.207" fill="none" id="Viewer-to-Egui" style="stroke:#181818;stroke-width:1;"/><polygon fill="#181818" points="135.51,369.2483,143.7512,363.8554,138.2213,365.0472,137.0295,359.5173,135.51,369.2483" style="stroke:#181818;stroke-width:1;"/><text fill="#000000" font-family="sans-serif" font-size="13" lengthAdjust="spacing" textLength="159.7324" x="184.4" y="332.2666">texture + painter.image()</text></g><!--link Egui to Dev--><g class="link" data-entity-1="ent0009" data-entity-2="ent0002" data-link-type="dependency" data-source-line="27" id="lnk18"><path d="M119.02,369.5083 C119.98,326.0783 122.05,244.1783 125.4,174.4783 C126.26,156.5283 127.1116,142.6144 128.2516,125.9044" fill="none" id="Egui-to-Dev" style="stroke:#181818;stroke-width:1;"/><polygon fill="#181818" points="128.66,119.9183,124.0567,128.6252,128.3197,124.9067,132.0381,129.1697,128.66,119.9183" style="stroke:#181818;stroke-width:1;"/><text fill="#000000" font-family="sans-serif" font-size="13" lengthAdjust="spacing" textLength="226.7383" x="126.4" y="254.0366">on-screen diagram with legible text</text></g><?plantuml-src TLJ1JXin4BtxAqQva8Xi0BMdg484Tg6HW4GXm2KIEElPuB9hMxQJa2AaVaI_i5_IiJSXYTIULcE_UJFp_6OFu4oAviNDC7dePu_PA1bbjobzXlrXTjs_pLhi0Cui5itxkon2ahJVknhrRkx2pM3w0tCl5vWuAH1oNHcjK7bOI5nsmRyW59f2mJsVSeSW7N05-6PAcKlV9WgZpRpa7WK8DAW4gdm5UgdeWFl8C7UB6KprN0bkLntcfIyHAY6IK0Gjs91bmKY3fLG8VtxzZWJMlKW3JRtfiSKOpxssq4XnWQKsQ1l07L34sBRrnfPwecw4UAYhDB6mlC9kjsTCQw9IoMSK3_aC8qcDOeKkGo-D3f4SrOsXE9gefh6OR6AuUxXgnQpH-eGnm_DNue86tO7bpgELFxcNMb7bDueKBo6t99IZr7S6Es8teaB7dQzV9sfWGew3zoYycBRZzwdWbInNy16htXDyd-2ICEdwZQXPjwBwLSnqK6ekKDJzHjnqFzVYfZeSJfINQfMuLydfvEHaFMIezx4hSQqb707EvfAGNuwfwb8gePTjC5mg6hWDdWQVspWmqMG4POmU2vBaTAqtT8CHejlO-YHSRcIbQuiywWtJ5Kct2wfd8KWOyAaU-IcEt6o1LZcoeDC-b9hHvG8TV0kzdTRcZjhAVVAOseMnHN9CONNr55QWgGq9-jWVVr-_JcjR8wf4APvIM1tipJcwEk-HnzygJfwUbIlpuZvzGi-pMpme5PXg-U1mesX7LcInPej5G406DRiqRE9oAgj0rAw6fVGlKE9CJcdL0WzZIdkaBVHULw2BhHC-Vm7_MtSef7K-oKlkN9iI_htmnUUg7zM6sYuyGDy79hB7Ei47VB3EWODdWGMVbxv-kkS8Lmjk9LU-2-dW9haSt8wJj3VkdVVkClBSuE8wdgNdoN0mlB_kZREqmuWOmen_0G00?></g></svg>