<svg xmlns="http://www.w3.org/2000/svg" xmlns:xlink="http://www.w3.org/1999/xlink" contentStyleType="text/css" data-diagram-type="DESCRIPTION" height="611px" preserveAspectRatio="none" style="width:2427px;height:611px;background:#FFFFFF;" version="1.1" viewBox="0 0 2427 611" width="2427px" zoomAndPan="magnify"><?plantuml 1.2026.3?><defs/><g><g class="title" data-source-line="12"><text fill="#000000" font-family="sans-serif" font-size="14" font-weight="700" lengthAdjust="spacing" textLength="382.6348" x="1018.7031" y="23.5352">mdd-viewer render pipeline &#8212; ownership (objective)</text></g><!--cluster SVG rasterization (external crates)--><g class="cluster" data-qualified-name="SVG rasterization .external crates." data-source-line="19" id="ent0005"><path d="M1925.43,182.4783 L2173.5696,182.4783 A3.75,3.75 0 0 1 2176.0696,184.9783 L2183.0696,204.9666 L2309.43,204.9666 A2.5,2.5 0 0 1 2311.93,207.4666 L2311.93,473.4183 A2.5,2.5 0 0 1 2309.43,475.9183 L1925.43,475.9183 A2.5,2.5 0 0 1 1922.93,473.4183 L1922.93,184.9783 A2.5,2.5 0 0 1 1925.43,182.4783" fill="none" style="stroke:#000000;stroke-width:1.5;"/><line style="stroke:#000000;stroke-width:1.5;" x1="1922.93" x2="2183.0696" y1="204.9666" y2="204.9666"/><text fill="#000000" font-family="sans-serif" font-size="14" font-weight="700" lengthAdjust="spacing" textLength="247.1396" x="1926.93" y="198.0134">SVG rasterization (external crates)</text></g><!--entity Usvg--><g class="entity" data-qualified-name="SVG rasterization .external crates..Usvg" data-source-line="20" id="ent0006"><rect fill="#F1F1F1" height="62.9766" rx="2.5" ry="2.5" style="stroke:#181818;stroke-width:0.5;" width="245.9736" x="1957.95" y="236.4783"/><rect fill="#F1F1F1" height="10" style="stroke:#181818;stroke-width:0.5;" width="15" x="2183.9236" y="241.4783"/><rect fill="#F1F1F1" height="2" style="stroke:#181818;stroke-width:0.5;" width="4" x="2181.9236" y="243.4783"/><rect fill="#F1F1F1" height="2" style="stroke:#181818;stroke-width:0.5;" width="4" x="2181.9236" y="247.4783"/><text fill="#000000" font-family="sans-serif" font-size="14" lengthAdjust="spacing" textLength="67.2178" x="1972.95" y="270.0134">usvg 0.44</text><text fill="#000000" font-family="sans-serif" font-size="14" lengthAdjust="spacing" textLength="205.9736" x="1972.95" y="286.5017">Options { fontdb, font_family }</text></g><!--entity FontDb--><g class="entity" data-qualified-name="SVG rasterization .external crates..FontDb" data-source-line="21" id="ent0007"><rect fill="#F1F1F1" height="62.9766" rx="2.5" ry="2.5" style="stroke:#181818;stroke-width:0.5;" width="186.2686" x="2109.8" y="396.9383"/><rect fill="#F1F1F1" height="10" style="stroke:#181818;stroke-width:0.5;" width="15" x="2276.0686" y="401.9383"/><rect fill="#F1F1F1" height="2" style="stroke:#181818;stroke-width:0.5;" width="4" x="2274.0686" y="403.9383"/><rect fill="#F1F1F1" height="2" style="stroke:#181818;stroke-width:0.5;" width="4" x="2274.0686" y="407.9383"/><text fill="#000000" font-family="sans-serif" font-size="14" lengthAdjust="spacing" textLength="92.6953" x="2124.8" y="430.4734">FontDatabase</text><text fill="#000000" font-family="sans-serif" font-size="14" lengthAdjust="spacing" textLength="146.2686" x="2124.8" y="446.9617">(system fonts loaded)</text></g><!--entity Resvg--><g class="entity" data-qualified-name="SVG rasterization .external crates..Resvg" data-source-line="22" id="ent0008"><rect fill="#F1F1F1" height="62.9766" rx="2.5" ry="2.5" style="stroke:#181818;stroke-width:0.5;" width="135.9014" x="1938.98" y="396.9383"/><rect fill="#F1F1F1" height="10" style="stroke:#181818;stroke-width:0.5;" width="15" x="2054.8814" y="401.9383"/><rect fill="#F1F1F1" height="2" style="stroke:#181818;stroke-width:0.5;" width="4" x="2052.8814" y="403.9383"/><rect fill="#F1F1F1" height="2" style="stroke:#181818;stroke-width:0.5;" width="4" x="2052.8814" y="407.9383"/><text fill="#000000" font-family="sans-serif" font-size="14" lengthAdjust="spacing" textLength="87.6162" x="1953.98" y="430.4734">resvg 0.44 +</text><text fill="#000000" font-family="sans-serif" font-size="14" lengthAdjust="spacing" textLength="95.9014" x="1953.98" y="446.9617">tiny-skia 0.11</text></g><!--entity Dev--><g class="entity" data-qualified-name="Dev" data-source-line="14" id="ent0002"><ellipse cx="1567.9292" cy="51.4883" fill="#F1F1F1" rx="8" ry="8" style="stroke:#181818;stroke-width:0.5;"/><path d="M1567.9292,59.4883 L1567.9292,86.4883 M1554.9292,67.4883 L1580.9292,67.4883 M1567.9292,86.4883 L1554.9292,101.4883 M1567.9292,86.4883 L1580.9292,101.4883" fill="none" style="stroke:#181818;stroke-width:0.5;"/><text fill="#000000" font-family="sans-serif" font-size="14" lengthAdjust="spacing" textLength="68.3184" x="1533.77" y="116.5234">Developer</text></g><!--entity Viewer--><g class="entity" data-qualified-name="Viewer" data-source-line="16" id="ent0003"><rect fill="#F1F1F1" height="79.4648" rx="2.5" ry="2.5" style="stroke:#181818;stroke-width:0.5;" width="211.9512" x="1350.96" y="228.2283"/><rect fill="#F1F1F1" height="10" style="stroke:#181818;stroke-width:0.5;" width="15" x="1542.9112" y="233.2283"/><rect fill="#F1F1F1" height="2" style="stroke:#181818;stroke-width:0.5;" width="4" x="1540.9112" y="235.2283"/><rect fill="#F1F1F1" height="2" style="stroke:#181818;stroke-width:0.5;" width="4" x="1540.9112" y="239.2283"/><text fill="#000000" font-family="sans-serif" font-size="14" lengthAdjust="spacing" textLength="82.2021" x="1365.96" y="261.7634">mdd-viewer</text><text fill="#000000" font-family="sans-serif" font-size="14" lengthAdjust="spacing" textLength="171.9512" x="1365.96" y="278.2517">MddViewer (eframe::App)</text><text fill="#000000" font-family="sans-serif" font-size="14" lengthAdjust="spacing" textLength="89.5234" x="1365.96" y="294.74">DiagramPage</text></g><!--entity Rendered--><g class="entity" data-qualified-name="Rendered" data-source-line="17" id="ent0004"><path d="M644.46,392.9383 L685.46,392.9383 A3.75,3.75 0 0 1 687.96,395.4383 L694.96,413.9383 L801.4141,413.9383 A2.5,2.5 0 0 1 803.9141,416.4383 L803.9141,461.4148 A2.5,2.5 0 0 1 801.4141,463.9148 L644.46,463.9148 A2.5,2.5 0 0 1 641.96,461.4148 L641.96,395.4383 A2.5,2.5 0 0 1 644.46,392.9383" fill="#F1F1F1" style="stroke:#181818;stroke-width:0.5;"/><line style="stroke:#181818;stroke-width:0.5;" x1="641.96" x2="694.96" y1="413.9383" y2="413.9383"/><text fill="#000000" font-family="sans-serif" font-size="14" lengthAdjust="spacing" textLength="110.9746" x="651.96" y="434.4734">.mdd/rendered/</text><text fill="#000000" font-family="sans-serif" font-size="14" lengthAdjust="spacing" textLength="131.9541" x="651.96" y="450.9617">(pre-rendered SVG)</text></g><!--entity Egui--><g class="entity" data-qualified-name="Egui" data-source-line="24" id="ent0009"><rect fill="#F1F1F1" height="62.9766" rx="2.5" ry="2.5" style="stroke:#181818;stroke-width:0.5;" width="222.7998" x="1412.53" y="396.9383"/><rect fill="#F1F1F1" height="10" style="stroke:#181818;stroke-width:0.5;" width="15" x="1615.3298" y="401.9383"/><rect fill="#F1F1F1" height="2" style="stroke:#181818;stroke-width:0.5;" width="4" x="1613.3298" y="403.9383"/><rect fill="#F1F1F1" height="2" style="stroke:#181818;stroke-width:0.5;" width="4" x="1613.3298" y="407.9383"/><text fill="#000000" font-family="sans-serif" font-size="14" lengthAdjust="spacing" textLength="128.1602" x="1427.53" y="430.4734">eframe / egui 0.30</text><text fill="#000000" font-family="sans-serif" font-size="14" lengthAdjust="spacing" textLength="182.7998" x="1427.53" y="446.9617">(window, painter, textures)</text></g><!--entity OclRend--><g class="entity" data-qualified-name="OclRend" data-source-line="25" id="ent0010"><rect fill="#F1F1F1" height="95.9531" rx="2.5" ry="2.5" style="stroke:#181818;stroke-width:0.5;" width="195.8662" x="7" y="219.9883"/><rect fill="#F1F1F1" height="10" style="stroke:#181818;stroke-width:0.5;" width="15" x="182.8662" y="224.9883"/><rect fill="#F1F1F1" height="2" style="stroke:#181818;stroke-width:0.5;" width="4" x="180.8662" y="226.9883"/><rect fill="#F1F1F1" height="2" style="stroke:#181818;stroke-width:0.5;" width="4" x="180.8662" y="230.9883"/><text fill="#000000" font-family="sans-serif" font-size="14" lengthAdjust="spacing" textLength="133.5332" x="22" y="253.5234">mdd-render engine</text><text fill="#000000" font-family="sans-serif" font-size="14" lengthAdjust="spacing" textLength="155.8662" x="22" y="270.0117">synthesize_ocl_puml +</text><text fill="#000000" font-family="sans-serif" font-size="14" lengthAdjust="spacing" textLength="141.3604" x="22" y="286.5">render_ocl_diagrams</text><text fill="#000000" font-family="sans-serif" font-size="14" lengthAdjust="spacing" textLength="129.4385" x="22" y="302.9883">(via `mdd render`)</text></g><!--entity Ocl--><g class="entity" data-qualified-name="Ocl" data-source-line="26" id="ent0011"><path d="M173.83,392.9383 L214.83,392.9383 A3.75,3.75 0 0 1 217.33,395.4383 L224.33,413.9383 L324.037,413.9383 A2.5,2.5 0 0 1 326.537,416.4383 L326.537,461.4148 A2.5,2.5 0 0 1 324.037,463.9148 L173.83,463.9148 A2.5,2.5 0 0 1 171.33,461.4148 L171.33,395.4383 A2.5,2.5 0 0 1 173.83,392.9383" fill="#F1F1F1" style="stroke:#181818;stroke-width:0.5;"/><line style="stroke:#181818;stroke-width:0.5;" x1="171.33" x2="224.33" y1="413.9383" y2="413.9383"/><text fill="#000000" font-family="sans-serif" font-size="14" lengthAdjust="spacing" textLength="125.207" x="181.33" y="434.4734">.mdd/constraints/</text><ellipse cx="186.83" cy="446.4148" fill="#000000" rx="2.5" ry="2.5"/><text fill="#000000" font-family="sans-serif" font-size="14" lengthAdjust="spacing" textLength="24.2471" x="193.33" y="450.9617">.ocl</text></g><g class="entity" data-qualified-name="GMN25" data-source-line="43" id="ent0026"><path d="M1993.83,524.9183 L1993.83,596.1605 A0,0 0 0 0 1993.83,596.1605 L2412.0409,596.1605 A0,0 0 0 0 2412.0409,596.1605 L2412.0409,534.9183 L2402.0409,524.9183 L2206.93,524.9183 L2202.93,460.2583 L2198.93,524.9183 L1993.83,524.9183 A0,0 0 0 0 1993.83,524.9183" fill="#FEFFDD" style="stroke:#181818;stroke-width:0.5;"/><path d="M2402.0409,524.9183 L2402.0409,534.9183 L2412.0409,534.9183 L2402.0409,524.9183" fill="#FEFFDD" style="stroke:#181818;stroke-width:0.5;"/><text fill="#000000" font-family="sans-serif" font-size="13" lengthAdjust="spacing" textLength="275.4185" x="1999.83" y="542.4866">Objective: the font database is a first-class,</text><text fill="#000000" font-family="sans-serif" font-size="13" lengthAdjust="spacing" textLength="327.2661" x="1999.83" y="557.7972">populated dependency of the usvg/resvg boundary.</text><text fill="#000000" font-family="sans-serif" font-size="13" lengthAdjust="spacing" textLength="271.1782" x="1999.83" y="573.1077">It is independent of egui's `default_fonts`.</text><text fill="#000000" font-family="sans-serif" font-size="13" lengthAdjust="spacing" textLength="397.2109" x="1999.83" y="588.4183">Invariant: DOM-FONT-DATABASE / OCL-FONTDB-POPULATED.</text></g><!--link Dev to Viewer--><g class="link" data-entity-1="ent0002" data-entity-2="ent0003" data-link-type="dependency" data-source-line="28" id="lnk12"><path d="M1545.47,119.6183 C1526.53,151.1383 1502.6105,190.9555 1483.4105,222.9055" fill="none" id="Dev-to-Viewer" style="stroke:#181818;stroke-width:1;"/><polygon fill="#181818" points="1480.32,228.0483,1488.3843,222.3944,1482.8954,223.7626,1481.5272,218.2737,1480.32,228.0483" style="stroke:#181818;stroke-width:1;"/><text fill="#000000" font-family="sans-serif" font-size="13" lengthAdjust="spacing" textLength="60.3599" x="1526.64" y="163.0466">mdd view</text></g><!--link Viewer to Rendered--><g class="link" data-entity-1="ent0003" data-entity-2="ent0004" data-link-type="dependency" data-source-line="29" id="lnk13"><path d="M1350.63,293.8183 C1289.21,308.4383 1210.55,327.6083 1140.93,345.9383 C1114.13,352.9983 1107.94,356.6983 1080.93,362.9383 C986.64,384.7383 882.8755,402.6058 810.0055,414.1958" fill="none" id="Viewer-to-Rendered" style="stroke:#181818;stroke-width:1;"/><polygon fill="#181818" points="804.08,415.1383,813.5966,417.6749,809.0179,414.3529,812.34,409.7743,804.08,415.1383" style="stroke:#181818;stroke-width:1;"/><text fill="#000000" font-family="sans-serif" font-size="13" lengthAdjust="spacing" textLength="94.7515" x="1141.93" y="359.5066">read SVG bytes</text></g><!--link Viewer to Rendered--><g class="link" data-entity-1="ent0003" data-entity-2="ent0004" data-link-type="dependency" data-source-line="32" id="lnk16"><path d="M1350.47,272.2883 C1155.6,279.4783 757.61,299.7083 715.93,345.9383 C704.71,358.3883 703.9006,391.8386 707.8206,407.9386" fill="none" id="Viewer-to-Rendered-1" style="stroke:#181818;stroke-width:1;"/><polygon fill="#181818" points="709.24,413.7683,710.9974,404.0775,708.0572,408.9102,703.2244,405.97,709.24,413.7683" style="stroke:#181818;stroke-width:1;"/><text fill="#000000" font-family="sans-serif" font-size="13" lengthAdjust="spacing" textLength="355.1006" x="716.93" y="359.5066">load constraints/&lt;name&gt;.svg (OCL Diagram sub-mode)</text></g><!--link OclRend to Ocl--><g class="link" data-entity-1="ent0010" data-entity-2="ent0011" data-link-type="dependency" data-source-line="30" id="lnk14"><path d="M55.58,316.0783 C45.26,331.4483 40.32,348.3183 50.93,362.9383 C78.33,400.6783 122.4611,415.8371 165.3911,422.5071" fill="none" id="OclRend-to-Ocl" style="stroke:#181818;stroke-width:1;"/><polygon fill="#181818" points="171.32,423.4283,163.0408,418.094,166.3793,422.6606,161.8126,425.9991,171.32,423.4283" style="stroke:#181818;stroke-width:1;"/><text fill="#000000" font-family="sans-serif" font-size="13" lengthAdjust="spacing" textLength="60.8169" x="51.93" y="359.5066">read *.ocl</text></g><!--link OclRend to Rendered--><g class="link" data-entity-1="ent0010" data-entity-2="ent0004" data-link-type="dependency" data-source-line="31" id="lnk15"><path d="M118.41,316.0683 C125.79,333.5283 136.82,351.7783 152.93,362.9383 C172.76,376.6683 483.0941,406.0212 635.7541,419.7412" fill="none" id="OclRend-to-Rendered" style="stroke:#181818;stroke-width:1;"/><polygon fill="#181818" points="641.73,420.2783,633.1242,415.4887,636.7501,419.8307,632.4081,423.4566,641.73,420.2783" style="stroke:#181818;stroke-width:1;"/><text fill="#000000" font-family="sans-serif" font-size="13" lengthAdjust="spacing" textLength="245.4194" x="153.93" y="359.5066">write constraints/&lt;name&gt;.svg (mirror)</text></g><!--link Viewer to Ocl--><g class="link" data-entity-1="ent0003" data-entity-2="ent0011" data-link-type="dependency" data-source-line="33" id="lnk17"><path d="M1350.73,273.2483 C1129.75,282.8083 627.13,308.0583 459.93,345.9383 C433.79,351.8583 381.0912,393.3615 332.4012,413.3315" fill="none" id="Viewer-to-Ocl" style="stroke:#181818;stroke-width:1;"/><polygon fill="#181818" points="326.85,415.6083,336.6947,415.8939,331.476,413.7109,333.659,408.4922,326.85,415.6083" style="stroke:#181818;stroke-width:1;"/><text fill="#000000" font-family="sans-serif" font-size="13" lengthAdjust="spacing" textLength="238.6465" x="460.93" y="359.5066">read raw text (OCL Source sub-mode)</text></g><!--link Viewer to FontDb--><g class="link" data-entity-1="ent0003" data-entity-2="ent0007" data-link-type="dependency" data-source-line="34" id="lnk18"><path d="M1563.23,297.6383 C1587.11,303.8583 1612.35,310.2683 1635.93,315.9383 C1731.04,338.8083 1754.52,346.4383 1850.93,362.9383 C1957.32,381.1483 1986.42,370.1683 2091.93,392.9383 C2097.65,394.1783 2097.6886,394.0759 2103.5686,395.5859" fill="none" id="Viewer-to-FontDb" style="stroke:#181818;stroke-width:1;"/><polygon fill="#181818" points="2109.38,397.0783,2101.6578,390.9654,2104.5371,395.8346,2099.6679,398.714,2109.38,397.0783" style="stroke:#181818;stroke-width:1;"/><text fill="#000000" font-family="sans-serif" font-size="13" lengthAdjust="spacing" textLength="159.2373" x="1851.93" y="359.5066">load_system_fonts() once</text></g><!--link Usvg to FontDb--><g class="link" data-entity-1="ent0006" data-entity-2="ent0007" data-link-type="dependency" data-source-line="35" id="lnk19"><path d="M2104.75,299.8883 C2126.24,327.8183 2154.0398,363.9241 2175.5198,391.8241" fill="none" id="Usvg-to-FontDb" style="stroke:#181818;stroke-width:1;"/><polygon fill="#181818" points="2179.18,396.5783,2176.8591,387.0068,2176.1298,392.6164,2170.5202,391.8871,2179.18,396.5783" style="stroke:#181818;stroke-width:1;"/><text fill="#000000" font-family="sans-serif" font-size="13" lengthAdjust="spacing" textLength="184.4121" x="2153.86" y="359.5066">resolves &lt;text&gt; font families</text></g><!--link Viewer to Usvg--><g class="link" data-entity-1="ent0003" data-entity-2="ent0006" data-link-type="dependency" data-source-line="36" id="lnk20"><path d="M1516.6,227.9283 C1550.12,207.8683 1593.61,185.6883 1635.93,175.3883 C1756.42,146.0783 1794.92,144.1883 1914.93,175.3883 C1960.12,187.1383 2001.1115,210.7999 2033.1815,232.6499" fill="none" id="Viewer-to-Usvg" style="stroke:#181818;stroke-width:1;"/><polygon fill="#181818" points="2038.14,236.0283,2032.9545,227.6551,2034.0079,233.213,2028.45,234.2664,2038.14,236.0283" style="stroke:#181818;stroke-width:1;"/><text fill="#000000" font-family="sans-serif" font-size="13" lengthAdjust="spacing" textLength="219.4131" x="1703.43" y="163.0466">Tree::from_data(opts WITH fontdb)</text></g><!--link Usvg to Resvg--><g class="link" data-entity-1="ent0006" data-entity-2="ent0008" data-link-type="dependency" data-source-line="37" id="lnk21"><path d="M2054.65,299.8183 C2044.38,313.2483 2033.31,329.6283 2025.93,345.9383 C2018.69,361.9583 2015.1346,375.1371 2012.2546,390.8071" fill="none" id="Usvg-to-Resvg" style="stroke:#181818;stroke-width:1;"/><polygon fill="#181818" points="2011.17,396.7083,2016.731,388.5796,2012.0738,391.7906,2008.8628,387.1335,2011.17,396.7083" style="stroke:#181818;stroke-width:1;"/><text fill="#000000" font-family="sans-serif" font-size="13" lengthAdjust="spacing" textLength="24.667" x="2026.93" y="359.5066">tree</text></g><!--link Resvg to Viewer--><g class="link" data-entity-1="ent0008" data-entity-2="ent0003" data-link-type="dependency" data-source-line="38" id="lnk22"><path d="M1938.64,420.6483 C1792.48,405.9883 1461.94,371.9283 1453.93,362.9383 C1440.91,348.3083 1439.6452,332.6457 1443.1652,313.8557" fill="none" id="Resvg-to-Viewer" style="stroke:#181818;stroke-width:1;"/><polygon fill="#181818" points="1444.27,307.9583,1438.6812,316.0679,1443.3493,312.8728,1446.5444,317.5409,1444.27,307.9583" style="stroke:#181818;stroke-width:1;"/><text fill="#000000" font-family="sans-serif" font-size="13" lengthAdjust="spacing" textLength="206.9844" x="1454.93" y="359.5066">RGBA pixmap (glyphs rasterized)</text></g><!--link Viewer to Egui--><g class="link" data-entity-1="ent0003" data-entity-2="ent0009" data-link-type="dependency" data-source-line="39" id="lnk23"><path d="M1350.48,282.5583 C1284.66,295.4983 1218.73,319.6383 1252.93,362.9383 C1273.09,388.4583 1340.9477,404.0697 1406.4377,413.9897" fill="none" id="Viewer-to-Egui" style="stroke:#181818;stroke-width:1;"/><polygon fill="#181818" points="1412.37,414.8883,1404.0706,409.5855,1407.4264,414.1395,1402.8724,417.4953,1412.37,414.8883" style="stroke:#181818;stroke-width:1;"/><text fill="#000000" font-family="sans-serif" font-size="13" lengthAdjust="spacing" textLength="159.7324" x="1253.93" y="359.5066">texture + painter.image()</text></g><!--link Egui to Dev--><g class="link" data-entity-1="ent0009" data-entity-2="ent0002" data-link-type="dependency" data-source-line="40" id="lnk24"><path d="M1635.41,421.5183 C1724.02,414.2083 1837.77,398.0883 1866.93,362.9383 C1917.53,301.9483 1759.3,362.1683 1694.93,315.9383 C1660.15,290.9583 1611.4516,184.984 1585.9716,125.474" fill="none" id="Egui-to-Dev" style="stroke:#181818;stroke-width:1;"/><polygon fill="#181818" points="1583.61,119.9583,1583.4753,129.8062,1585.578,124.5547,1590.8295,126.6574,1583.61,119.9583" style="stroke:#181818;stroke-width:1;"/><text fill="#000000" font-family="sans-serif" font-size="13" lengthAdjust="spacing" textLength="226.7383" x="1695.93" y="273.0266">on-screen diagram with legible text</text></g><?plantuml-src VLRDRk984BxxAKfS0ZiOCjevCQDeoS1aaPA04fAv82MDku3UsDrMTnl2Z4RQXzWdt2VPghO9E25x0Tok-khlgwyvWJ-KR7wzciJte-7tuKryCxmUqDTaD1bUZgw7hUZanMByzR9w7KujBfftjyFW60z6_OkR_jNjspVazN8u65_j0WolBtRm4btoFocqeP596QyLRj2UECWjnXQrH8iolhs_WCHeLsHeUs1HI0TyDjzwT22q12kSHwj-qADVOKOVrXJB5HHklUnQf4_OABy20Rd9YrHubB0mseCKNio5mqwZdkM-3PJPT8N0sPK90UgbqaX9aX7aWc2RRgifhgC47aoIFkH5bi87AEt3YLHYQKNcMZtmXTKEK2GhwD0hKDeRIcoI2ktlhYv3fTuAEdPGkRskKNaW7ue84kaiKrevhnBeK9RTNTkw1q3TBrfaUDRXHcJAMcCx8Nlbm6W4imXWtcBPG71ABrE4HyAhgdYalBACyqZC6grhKnju7g6LktQpA-Dnin9Z4IRM_8M9XnMcENKkLKy8IEvRC6HhGqGumfZF0IhP9fH4aXg7eGDyrZqOX5yf3HihSiQseQFKcRKIjSJBqOxdd8XQO-oKH2ucfqmrc-Ec5w1hXE3M20tudASgKRvD47lgICmPMoTKnqRJWV01WUa6SrDeAUpsS-ZmGgNKqoLw40InvuayEkU5DLb0UaEtDgs4aKM2ac3cst9ADDFZC_8hogWSr9j-ToAlV5g6AFUjSeTSvPXIBFZtxtz2OTQjL0vDi-jTAuf4ues5ne1GKqDzRu1mG4zHj6_fmIhFz9MKzsMK9YweHkpr-ddUckb1MVD4B360b5RHmgISIwFEvPbk7ae2htyhUDrK9r6KY-I9iA31qh1R5k6LqHJvcPwqI25XmZfo_Hd10GaQONAddK-VPdgSiu-3du4GSjuEtmyBaQbq2xz2r3iohmDy8vj1nHrArcqfVXOy7QH6I9Hbli5kNlSj1OgZmuUPzaflO_T4B3xjVFnO5SdnVXsskEmbT06NXIBBtqyfwaPfQJP45MOLsZPuAhomeM226PBfwp7LI3RJHuLifeye6OLxlMbbb76Iyb3gWppKefd-ZOLlPnn5H1-8uxEA0T1ZQeQzZAeJVhaRD9GtmFu2YAg0mOf-xmn2aDhB0uYDLHxX7OLibXBPUYSyZ_DTLzxvYjdWYdcS6Oare8CChTY42PLUjwQm2HvtAbbJnNueoVKGoDLiaU8c634ZwwOqTfEkINo-S8opKju2YnKrxG0ykFPWIjhGwx42FR08DarErFq-clvPxK5h7oFmaLnOJgBoeJQ_culpFgd9SoP8FPRfDb-v_VKbQvKn9ncf92fTcXLtEogZPMwsec30bioI7XKRkuJ2wXVD31TxYair9r5Zd2ZIXeOxDzwJcjBTzh9pBvV0Uu9FScsTZvDKEDScX-EIltWH--g_nKxoE-Goyen4YrWvUBRd9QK_38yI5w98VJcwns2kry8gklfxmDVWj_7rD1xqf_tp_ksGjfl_X_3Pu3oUZ2Ttb_tfSD29cD1Suty0?></g></svg>