<svg xmlns="http://www.w3.org/2000/svg" xmlns:xlink="http://www.w3.org/1999/xlink" contentStyleType="text/css" data-diagram-type="DESCRIPTION" height="736px" preserveAspectRatio="none" style="width:1349px;height:736px;background:#FFFFFF;" version="1.1" viewBox="0 0 1349 736" width="1349px" zoomAndPan="magnify"><?plantuml 1.2026.3?><defs/><g><g class="title" data-source-line="9"><text fill="#000000" font-family="sans-serif" font-size="14" font-weight="700" lengthAdjust="spacing" textLength="242.71" x="550.1043" y="23.5352">MDD init &#8212; ownership (objective)</text></g><!--entity Dev--><g class="entity" data-qualified-name="Dev" data-source-line="11" id="ent0002"><ellipse cx="686.3664" cy="51.4883" fill="#F1F1F1" rx="8" ry="8" style="stroke:#181818;stroke-width:0.5;"/><path d="M686.3664,59.4883 L686.3664,86.4883 M673.3664,67.4883 L699.3664,67.4883 M686.3664,86.4883 L673.3664,101.4883 M686.3664,86.4883 L699.3664,101.4883" fill="none" style="stroke:#181818;stroke-width:0.5;"/><text fill="#000000" font-family="sans-serif" font-size="14" lengthAdjust="spacing" textLength="124.6328" x="624.05" y="116.5234">Developer / Agent</text></g><!--entity Cli--><g class="entity" data-qualified-name="Cli" data-source-line="13" id="ent0003"><rect fill="#F1F1F1" height="79.4648" rx="2.5" ry="2.5" style="stroke:#181818;stroke-width:0.5;" width="179.6104" x="596.56" y="196.4683"/><rect fill="#F1F1F1" height="10" style="stroke:#181818;stroke-width:0.5;" width="15" x="756.1704" y="201.4683"/><rect fill="#F1F1F1" height="2" style="stroke:#181818;stroke-width:0.5;" width="4" x="754.1704" y="203.4683"/><rect fill="#F1F1F1" height="2" style="stroke:#181818;stroke-width:0.5;" width="4" x="754.1704" y="207.4683"/><text fill="#000000" font-family="sans-serif" font-size="14" lengthAdjust="spacing" textLength="121.3242" x="611.56" y="230.0034">mdd init [--force]</text><text fill="#000000" font-family="sans-serif" font-size="14" lengthAdjust="spacing" textLength="103.2363" x="611.56" y="246.4917">(CMP-INIT-CLI)</text><text fill="#000000" font-family="sans-serif" font-size="14" lengthAdjust="spacing" textLength="139.6104" x="611.56" y="262.98">mdd-cli/src/main.rs</text></g><!--entity Engine--><g class="entity" data-qualified-name="Engine" data-source-line="14" id="ent0004"><rect fill="#F1F1F1" height="79.4648" rx="2.5" ry="2.5" style="stroke:#181818;stroke-width:0.5;" width="268.7715" x="551.98" y="352.9383"/><rect fill="#F1F1F1" height="10" style="stroke:#181818;stroke-width:0.5;" width="15" x="800.7515" y="357.9383"/><rect fill="#F1F1F1" height="2" style="stroke:#181818;stroke-width:0.5;" width="4" x="798.7515" y="359.9383"/><rect fill="#F1F1F1" height="2" style="stroke:#181818;stroke-width:0.5;" width="4" x="798.7515" y="363.9383"/><text fill="#000000" font-family="sans-serif" font-size="14" lengthAdjust="spacing" textLength="228.7715" x="566.98" y="386.4734">Project::init_with_conflict_handler</text><text fill="#000000" font-family="sans-serif" font-size="14" lengthAdjust="spacing" textLength="132.0635" x="566.98" y="402.9617">(CMP-INIT-ENGINE)</text><text fill="#000000" font-family="sans-serif" font-size="14" lengthAdjust="spacing" textLength="137.0127" x="566.98" y="419.45">mdd-core/src/lib.rs</text></g><!--entity Text--><g class="entity" data-qualified-name="Text" data-source-line="15" id="ent0005"><rect fill="#F1F1F1" height="79.4648" rx="2.5" ry="2.5" style="stroke:#181818;stroke-width:0.5;" width="324.7236" x="7" y="509.3983"/><rect fill="#F1F1F1" height="10" style="stroke:#181818;stroke-width:0.5;" width="15" x="311.7236" y="514.3983"/><rect fill="#F1F1F1" height="2" style="stroke:#181818;stroke-width:0.5;" width="4" x="309.7236" y="516.3983"/><rect fill="#F1F1F1" height="2" style="stroke:#181818;stroke-width:0.5;" width="4" x="309.7236" y="520.3983"/><text fill="#000000" font-family="sans-serif" font-size="14" lengthAdjust="spacing" textLength="143.5068" x="22" y="542.9334">write_text_if_missing</text><text fill="#000000" font-family="sans-serif" font-size="14" lengthAdjust="spacing" textLength="284.7236" x="22" y="559.4217">(regenerable: docs, skills incl. mdd-ralph,</text><text fill="#000000" font-family="sans-serif" font-size="14" lengthAdjust="spacing" textLength="224.6016" x="22" y="575.91">blocks, .mdd/ralph/PROMPT.md)</text></g><!--entity Seed--><g class="entity" data-qualified-name="Seed" data-source-line="16" id="ent0006"><rect fill="#F1F1F1" height="62.9766" rx="2.5" ry="2.5" style="stroke:#181818;stroke-width:0.5;" width="292.8135" x="371.96" y="517.6483"/><rect fill="#F1F1F1" height="10" style="stroke:#181818;stroke-width:0.5;" width="15" x="644.7735" y="522.6483"/><rect fill="#F1F1F1" height="2" style="stroke:#181818;stroke-width:0.5;" width="4" x="642.7735" y="524.6483"/><rect fill="#F1F1F1" height="2" style="stroke:#181818;stroke-width:0.5;" width="4" x="642.7735" y="528.6483"/><text fill="#000000" font-family="sans-serif" font-size="14" lengthAdjust="spacing" textLength="191.9736" x="386.96" y="551.1834">write_text_create_if_missing</text><text fill="#000000" font-family="sans-serif" font-size="14" lengthAdjust="spacing" textLength="252.8135" x="386.96" y="567.6717">(seeded-once: .mdd/ralph/PLAN.md)</text></g><!--entity Yaml--><g class="entity" data-qualified-name="Yaml" data-source-line="17" id="ent0007"><rect fill="#F1F1F1" height="62.9766" rx="2.5" ry="2.5" style="stroke:#181818;stroke-width:0.5;" width="247.6826" x="734.52" y="517.6483"/><rect fill="#F1F1F1" height="10" style="stroke:#181818;stroke-width:0.5;" width="15" x="962.2026" y="522.6483"/><rect fill="#F1F1F1" height="2" style="stroke:#181818;stroke-width:0.5;" width="4" x="960.2026" y="524.6483"/><rect fill="#F1F1F1" height="2" style="stroke:#181818;stroke-width:0.5;" width="4" x="960.2026" y="528.6483"/><text fill="#000000" font-family="sans-serif" font-size="14" lengthAdjust="spacing" textLength="201.8994" x="749.52" y="551.1834">write_yaml_create_or_migrate</text><text fill="#000000" font-family="sans-serif" font-size="14" lengthAdjust="spacing" textLength="207.6826" x="749.52" y="567.6717">(state: config/trace/approvals)</text></g><!--entity Hook--><g class="entity" data-qualified-name="Hook" data-source-line="18" id="ent0008"><rect fill="#F1F1F1" height="62.9766" rx="2.5" ry="2.5" style="stroke:#181818;stroke-width:0.5;" width="208.4785" x="1025.12" y="517.6483"/><rect fill="#F1F1F1" height="10" style="stroke:#181818;stroke-width:0.5;" width="15" x="1213.5985" y="522.6483"/><rect fill="#F1F1F1" height="2" style="stroke:#181818;stroke-width:0.5;" width="4" x="1211.5985" y="524.6483"/><rect fill="#F1F1F1" height="2" style="stroke:#181818;stroke-width:0.5;" width="4" x="1211.5985" y="528.6483"/><text fill="#000000" font-family="sans-serif" font-size="14" lengthAdjust="spacing" textLength="168.4785" x="1040.12" y="551.1834">SessionStart hook merge</text><text fill="#000000" font-family="sans-serif" font-size="14" lengthAdjust="spacing" textLength="123.2314" x="1040.12" y="567.6717">(CMP-INIT-HOOK)</text></g><g class="entity" data-qualified-name="GMN16" data-source-line="29" id="ent0017"><path d="M283.65,649.8683 L283.65,721.1105 A0,0 0 0 0 283.65,721.1105 L679.0792,721.1105 A0,0 0 0 0 679.0792,721.1105 L679.0792,659.8683 L669.0792,649.8683 L494.99,649.8683 L509.87,580.9583 L486.99,649.8683 L283.65,649.8683 A0,0 0 0 0 283.65,649.8683" fill="#FEFFDD" style="stroke:#181818;stroke-width:0.5;"/><path d="M669.0792,649.8683 L669.0792,659.8683 L679.0792,659.8683 L669.0792,649.8683" fill="#FEFFDD" style="stroke:#181818;stroke-width:0.5;"/><text fill="#000000" font-family="sans-serif" font-size="13" lengthAdjust="spacing" textLength="374.4292" x="289.65" y="667.4366">SeededOnce (DOM-INIT-SEED-ONCE): never consulted with</text><text fill="#000000" font-family="sans-serif" font-size="13" lengthAdjust="spacing" textLength="306.249" x="289.65" y="682.7472">the conflict handler, so --force cannot overwrite</text><text fill="#000000" font-family="sans-serif" font-size="13" lengthAdjust="spacing" textLength="356.8525" x="289.65" y="698.0577">.mdd/ralph/PLAN.md. Created from the starter template</text><text fill="#000000" font-family="sans-serif" font-size="13" lengthAdjust="spacing" textLength="317.6621" x="289.65" y="713.3683">when missing; skipped otherwise; never migrated.</text></g><g class="entity" data-qualified-name="GMN19" data-source-line="36" id="ent0020"><path d="M714.12,649.8683 L714.12,721.1105 A0,0 0 0 0 714.12,721.1105 L1076.6112,721.1105 A0,0 0 0 0 1076.6112,721.1105 L1076.6112,659.8683 L1066.6112,649.8683 L889.74,649.8683 L866.85,580.9583 L881.74,649.8683 L714.12,649.8683 A0,0 0 0 0 714.12,649.8683" fill="#FEFFDD" style="stroke:#181818;stroke-width:0.5;"/><path d="M1066.6112,649.8683 L1066.6112,659.8683 L1076.6112,659.8683 L1066.6112,649.8683" fill="#FEFFDD" style="stroke:#181818;stroke-width:0.5;"/><text fill="#000000" font-family="sans-serif" font-size="13" lengthAdjust="spacing" textLength="333.3599" x="720.12" y="667.4366">Never consulted with the conflict handler, so --force</text><text fill="#000000" font-family="sans-serif" font-size="13" lengthAdjust="spacing" textLength="341.4912" x="720.12" y="682.7472">cannot overwrite config/trace/approvals. Create when</text><text fill="#000000" font-family="sans-serif" font-size="13" lengthAdjust="spacing" textLength="332.9917" x="720.12" y="698.0577">missing; round-trip migrate when on-disk version is</text><text fill="#000000" font-family="sans-serif" font-size="13" lengthAdjust="spacing" textLength="339.9995" x="720.12" y="713.3683">older; skip when equal or newer. Reports `migrated`.</text></g><!--link Dev to Cli--><g class="link" data-entity-1="ent0002" data-entity-2="ent0003" data-link-type="dependency" data-source-line="20" id="lnk9"><path d="M686.36,119.6483 C686.36,142.8283 686.36,166.5383 686.36,190.0383" fill="none" id="Dev-to-Cli" style="stroke:#181818;stroke-width:1;"/><polygon fill="#181818" points="686.36,196.0383,690.36,187.0383,686.36,191.0383,682.36,187.0383,686.36,196.0383" style="stroke:#181818;stroke-width:1;"/><text fill="#000000" font-family="sans-serif" font-size="13" lengthAdjust="spacing" textLength="112.6582" x="687.36" y="163.0366">mdd init [--force]</text></g><!--link Cli to Engine--><g class="link" data-entity-1="ent0003" data-entity-2="ent0004" data-link-type="dependency" data-source-line="21" id="lnk10"><path d="M686.36,276.1783 C686.36,299.5983 686.36,323.2883 686.36,346.7083" fill="none" id="Cli-to-Engine" style="stroke:#181818;stroke-width:1;"/><polygon fill="#181818" points="686.36,352.7083,690.36,343.7083,686.36,347.7083,682.36,343.7083,686.36,352.7083" style="stroke:#181818;stroke-width:1;"/><text fill="#000000" font-family="sans-serif" font-size="13" lengthAdjust="spacing" textLength="217.2676" x="687.36" y="319.5066">init_with_conflict_handler(handler)</text></g><!--link Cli to Cli--><g class="link" data-entity-1="ent0003" data-entity-2="ent0003" data-link-type="dependency" data-source-line="22" id="lnk11"><path d="M776.39,221.9083 C796.5,223.2283 811.17,227.9883 811.17,236.2083 C811.17,244.4183 802.4871,248.7853 782.3771,250.1053" fill="none" id="Cli-to-Cli" style="stroke:#181818;stroke-width:1;"/><polygon fill="#181818" points="776.39,250.4983,785.6327,253.9002,781.3793,250.1708,785.1087,245.9174,776.39,250.4983" style="stroke:#181818;stroke-width:1;"/><text fill="#000000" font-family="sans-serif" font-size="13" lengthAdjust="spacing" textLength="277.3354" x="817.17" y="241.2766">handler = force ? always Overwrite : prompt</text></g><!--link Engine to Text--><g class="link" data-entity-1="ent0004" data-entity-2="ent0005" data-link-type="dependency" data-source-line="23" id="lnk12"><path d="M551.51,395.7483 C423.12,400.5883 242.03,415.7683 190.36,462.3983 C177.39,474.1083 172.5946,486.4398 170.3946,503.1198" fill="none" id="Engine-to-Text" style="stroke:#181818;stroke-width:1;"/><polygon fill="#181818" points="169.61,509.0683,174.7525,500.6686,170.2638,504.1112,166.8212,499.6225,169.61,509.0683" style="stroke:#181818;stroke-width:1;"/><text fill="#000000" font-family="sans-serif" font-size="13" lengthAdjust="spacing" textLength="313.1426" x="191.36" y="475.9666">regenerable files (handler decides overwrite/skip)</text></g><!--link Engine to Seed--><g class="link" data-entity-1="ent0004" data-entity-2="ent0006" data-link-type="dependency" data-source-line="24" id="lnk13"><path d="M551.83,432.8483 C540.02,440.9283 529.49,450.6683 521.36,462.3983 C510.43,478.1983 509.0651,493.8875 511.0851,511.4675" fill="none" id="Engine-to-Seed" style="stroke:#181818;stroke-width:1;"/><polygon fill="#181818" points="511.77,517.4283,514.7165,508.0305,511.1992,512.461,506.7688,508.9437,511.77,517.4283" style="stroke:#181818;stroke-width:1;"/><text fill="#000000" font-family="sans-serif" font-size="13" lengthAdjust="spacing" textLength="283.5117" x="522.36" y="475.9666">.mdd/ralph/PLAN.md (create if missing only)</text></g><!--link Engine to Yaml--><g class="link" data-entity-1="ent0004" data-entity-2="ent0007" data-link-type="dependency" data-source-line="25" id="lnk14"><path d="M771.83,432.7083 C785.66,441.2783 799.11,451.1983 810.36,462.3983 C825.95,477.9283 835.5084,494.1293 843.6484,511.7893" fill="none" id="Engine-to-Yaml" style="stroke:#181818;stroke-width:1;"/><polygon fill="#181818" points="846.16,517.2383,846.0253,507.3903,844.067,512.6974,838.7599,510.7392,846.16,517.2383" style="stroke:#181818;stroke-width:1;"/><text fill="#000000" font-family="sans-serif" font-size="13" lengthAdjust="spacing" textLength="238.564" x="825.14" y="475.9666">state files (create or forward-migrate)</text></g><!--link Engine to Hook--><g class="link" data-entity-1="ent0004" data-entity-2="ent0008" data-link-type="dependency" data-source-line="26" id="lnk15"><path d="M820.81,406.3183 C915.17,417.2783 1031.51,435.6283 1072.36,462.3983 C1092.39,475.5283 1104.3799,493.0451 1113.8199,511.8651" fill="none" id="Engine-to-Hook" style="stroke:#181818;stroke-width:1;"/><polygon fill="#181818" points="1116.51,517.2283,1116.0502,507.3902,1114.2682,512.759,1108.8994,510.977,1116.51,517.2283" style="stroke:#181818;stroke-width:1;"/><text fill="#000000" font-family="sans-serif" font-size="13" lengthAdjust="spacing" textLength="241.7886" x="1092.13" y="475.9666">upsert SessionStart hook (idempotent)</text></g><?plantuml-src ZLRRRXit47tNLmpy4WdL9SrJ8QDjL5jDXDgIOQi5YgQmwLrAOasHAab94O80_OX-OR-aPyZTrSgIsxmjbfmpCsTcpl0LlLLvy-BwfZCQZwQTYwjHg_6AtkRIPmT_stGsNKXwMEOvAQC2_TRfpApBvEyFvDUFcLqkXU4Zofm8qlTmiPDfrVCkwos5Cbtd-nG0SP6k-dv_n3YVACBqwT5QJPzf8vmI9b1Jq4FXue5cMipRj5JEMQVCF8MHQIaCbNTQ5Fq7JqiHiWK9j-mIXumFoXRMUkcZ_yoQcLPPe0KCj7Jqprz_mvQ4tegTxqmsqcsT2hYehLyxITk5D2b8Kfwy36so079RvML4b1-L3noMCa4waGMraRHoThaAzypLVUKokKBeGcjFDyx-8RFGxyTBMnKMrStx8hWkZGBxCC03Uig0URkLA-iGYR5RkCtqEkS0mDbIpRa0ENrQYR3u_41Q6KcFqgiSAJd9PprR91cawVadjLh9dCbIx4PwQO88oXhIOYTT6mXFzRBz8hJA0NCUWvafBJihYw1tCRNaFrhRkSfW3380N3NJSFnkD1vspsAVrNil7PneltI03lm2mfvte7Kojg1MZ-Z0gaTIXHTIhwJpaUH4JI8uLmvkhDjHS59ISqzm5w0z9_HgqMed44zIeDrkX--6u-7ju8UhOQG4ECwkvujqwJx8Z-Y5sVrIUG-SPX5jYvhUHfTb-BdCK2XFjch33NeE9I8mMYRRYesqZue1EDiO66sjUvffzCNTJwEhAqHCQvC3kfjfiSvbhvlPN7wCLEpJwTtSJgvlfdoRiPsSeH4M1HyNLuEVBuSuwmsGvVIERw4Pn1njzgXjzkJRYLcpiK-5pPr4fjRS1U4mQjO-qLAwESYiolf-ClcfrQKVhIiCP2xpYSbIJnt4TZKOiy_cvUGwsTuDXvUToVXYs48vYt6gCPsAMIEyNzINPXZBwCvpO60boELAyqaSy-9wcwJ6S4VUcGuZKGwgJGqF7bKpMgQ0cgDT1bcsNgw12I2a7r8-_dcWEx7KPQ3MtHTpMmRQuK0xkPo9jGwdOXCiILlXyeurUaTeDfDtWaF0-mcCVDrD1zDXvthqxdOm7Kt6hGJ6uLhJoPL_8gJ5fM9riphdYQ-oxz9OAXQxvoKoHSe-9iXIWvx998RzjCgs2OrUQ3LeCCO66F3abCK581kfUIz0GsLFh22X6w4ndhSoh9tnDU73sYYqh7rObbB-sbJe6drEKZDvPEbWCR9RWuGNO6h6FdVO8_JwzTVVKBECxwiA1Z6okxXS059UVlE6chVLiFaLucsbRODLoJokJOR4UJxOHxnwJgKW0KZa-NytRBIB14VEKMJ4LLB5iyR_FP0EPnz9QutuQyD36oMYvbLhoicv10NY4RaiKG8i2BVhDe8A-75zUPaMFFVzdggcBVbhDHg2nP7EBZ4Lsa91gKS3G8Op4fxmjz70Us1b3NxHsV6BuOCvV71yC2SU2n7hGgiwr1VeVnsxM2W5_E4cYF13CqVkTGydrHgODShwbDlCjnFLFgfmTr-1zWTJAk8fSMr5lrFWl-3rg17WlDO2_HEoc31vDeynJuiCOuOaDYSdBY7-2jiwuWkANcSyIdeqVe_pHWEzWA7_Zkj8VJhkX0OVy8LK2TnvkRBLpgoC4cgvERyjtcZV5oyvsh_a-iLhh56uOMEk0Gxgiv1akldYAevFfLOTX4cd_ibLLUmRDIjrcrYd3woPO5ZxseuepJ1UfRmNDJkmP7PXkLvvYLeS5wQ9m54tA6B0k49hyGAq8M3rsLdg5AgB-QczsY-M7ihWiOAG9rS5Tb-gxXLji3acg4iNIRzVtiYmg--zyqhHgzVtUH5ZgTRTXeGoShf7ISTc9copuvp-DoFOFS_fnLMLieg1mwmA_MWz5--DunKCgxY4KxhfblnpBJJtX95RVc-a7UZtZ_s7VUR_0W00?></g></svg>