<svg xmlns="http://www.w3.org/2000/svg" xmlns:xlink="http://www.w3.org/1999/xlink" contentStyleType="text/css" data-diagram-type="DESCRIPTION" height="244px" preserveAspectRatio="none" style="width:1045px;height:244px;background:#FFFFFF;" version="1.1" viewBox="0 0 1045 244" width="1045px" zoomAndPan="magnify"><?plantuml 1.2026.3?><defs/><g><g class="title" data-source-line="4"><text fill="#000000" font-family="sans-serif" font-size="14" font-weight="700" lengthAdjust="spacing" textLength="295.0049" x="371.5076" y="23.5352">Greenfield kickoff component (objective)</text></g><!--entity Skill--><g class="entity" data-qualified-name="Skill" data-source-line="6" id="ent0002"><rect fill="#F1F1F1" height="46.4883" rx="2.5" ry="2.5" style="stroke:#181818;stroke-width:0.5;" width="164.5029" x="271.57" y="52.7283"/><rect fill="#F1F1F1" height="10" style="stroke:#181818;stroke-width:0.5;" width="15" x="416.0729" y="57.7283"/><rect fill="#F1F1F1" height="2" style="stroke:#181818;stroke-width:0.5;" width="4" x="414.0729" y="59.7283"/><rect fill="#F1F1F1" height="2" style="stroke:#181818;stroke-width:0.5;" width="4" x="414.0729" y="63.7283"/><text fill="#000000" font-family="sans-serif" font-size="14" lengthAdjust="spacing" textLength="124.5029" x="286.57" y="86.2634">/mdd-kickoff skill</text></g><!--entity Parser--><g class="entity" data-qualified-name="Parser" data-source-line="7" id="ent0003"><rect fill="#F1F1F1" height="62.9766" rx="2.5" ry="2.5" style="stroke:#181818;stroke-width:0.5;" width="239.5137" x="675.07" y="44.4883"/><rect fill="#F1F1F1" height="10" style="stroke:#181818;stroke-width:0.5;" width="15" x="894.5837" y="49.4883"/><rect fill="#F1F1F1" height="2" style="stroke:#181818;stroke-width:0.5;" width="4" x="892.5837" y="51.4883"/><rect fill="#F1F1F1" height="2" style="stroke:#181818;stroke-width:0.5;" width="4" x="892.5837" y="55.4883"/><text fill="#000000" font-family="sans-serif" font-size="14" lengthAdjust="spacing" textLength="154.0957" x="690.07" y="78.0234">PLAN @scope parser +</text><text fill="#000000" font-family="sans-serif" font-size="14" lengthAdjust="spacing" textLength="199.5137" x="690.07" y="94.5117">coverage validate (mdd-core)</text></g><!--entity Gen--><g class="entity" data-qualified-name="Gen" data-source-line="8" id="ent0004"><rect fill="#F1F1F1" height="46.4883" rx="2.5" ry="2.5" style="stroke:#181818;stroke-width:0.5;" width="145.6494" x="7" y="184.4583"/><rect fill="#F1F1F1" height="10" style="stroke:#181818;stroke-width:0.5;" width="15" x="132.6494" y="189.4583"/><rect fill="#F1F1F1" height="2" style="stroke:#181818;stroke-width:0.5;" width="4" x="130.6494" y="191.4583"/><rect fill="#F1F1F1" height="2" style="stroke:#181818;stroke-width:0.5;" width="4" x="130.6494" y="195.4583"/><text fill="#000000" font-family="sans-serif" font-size="14" lengthAdjust="spacing" textLength="105.6494" x="22" y="217.9934">/mdd-generate</text></g><!--entity Val--><g class="entity" data-qualified-name="Val" data-source-line="9" id="ent0005"><rect fill="#F1F1F1" height="46.4883" rx="2.5" ry="2.5" style="stroke:#181818;stroke-width:0.5;" width="138.7861" x="189.43" y="184.4583"/><rect fill="#F1F1F1" height="10" style="stroke:#181818;stroke-width:0.5;" width="15" x="308.2161" y="189.4583"/><rect fill="#F1F1F1" height="2" style="stroke:#181818;stroke-width:0.5;" width="4" x="306.2161" y="191.4583"/><rect fill="#F1F1F1" height="2" style="stroke:#181818;stroke-width:0.5;" width="4" x="306.2161" y="195.4583"/><text fill="#000000" font-family="sans-serif" font-size="14" lengthAdjust="spacing" textLength="98.7861" x="204.43" y="217.9934">/mdd-validate</text></g><!--entity Brief--><g class="entity" data-qualified-name="Brief" data-source-line="10" id="ent0006"><rect fill="#F1F1F1" height="39.4883" rx="2.5" ry="2.5" style="stroke:#181818;stroke-width:0.5;" width="169.3711" x="363.14" y="187.9583"/><polygon fill="#F1F1F1" points="515.5111,192.9583,515.5111,206.9583,527.5111,206.9583,527.5111,198.9583,521.5111,192.9583,515.5111,192.9583" style="stroke:#181818;stroke-width:0.5;"/><line style="stroke:#181818;stroke-width:0.5;" x1="521.5111" x2="521.5111" y1="192.9583" y2="198.9583"/><line style="stroke:#181818;stroke-width:0.5;" x1="527.5111" x2="521.5111" y1="198.9583" y2="198.9583"/><text fill="#000000" font-family="sans-serif" font-size="14" lengthAdjust="spacing" textLength="139.3711" x="373.14" y="214.4934">.mdd/docs/brief.md</text></g><!--entity Plan--><g class="entity" data-qualified-name="Plan" data-source-line="11" id="ent0007"><rect fill="#F1F1F1" height="39.4883" rx="2.5" ry="2.5" style="stroke:#181818;stroke-width:0.5;" width="176.3301" x="636.66" y="187.9583"/><polygon fill="#F1F1F1" points="795.9901,192.9583,795.9901,206.9583,807.9901,206.9583,807.9901,198.9583,801.9901,192.9583,795.9901,192.9583" style="stroke:#181818;stroke-width:0.5;"/><line style="stroke:#181818;stroke-width:0.5;" x1="801.9901" x2="801.9901" y1="192.9583" y2="198.9583"/><line style="stroke:#181818;stroke-width:0.5;" x1="807.9901" x2="801.9901" y1="198.9583" y2="198.9583"/><text fill="#000000" font-family="sans-serif" font-size="14" lengthAdjust="spacing" textLength="146.3301" x="646.66" y="214.4934">.mdd/ralph/PLAN.md</text></g><!--link Skill to Gen--><g class="link" data-entity-1="ent0002" data-entity-2="ent0004" data-link-type="dependency" data-source-line="13" id="lnk8"><path d="M271.16,91.1583 C231.87,100.3483 185.39,114.9383 147.82,137.4583 C127.74,149.4983 113.2401,164.2515 100.6901,179.4515" fill="none" id="Skill-to-Gen" style="stroke:#181818;stroke-width:1;"/><polygon fill="#181818" points="96.87,184.0783,105.6847,179.6849,100.0534,180.2227,99.5157,174.5914,96.87,184.0783" style="stroke:#181818;stroke-width:1;"/><text fill="#000000" font-family="sans-serif" font-size="13" lengthAdjust="spacing" textLength="140.4673" x="148.82" y="151.0266">generate full objective</text></g><!--link Skill to Val--><g class="link" data-entity-1="ent0002" data-entity-2="ent0005" data-link-type="dependency" data-source-line="14" id="lnk9"><path d="M337.28,99.5683 C319.84,123.3783 296.0949,155.8075 278.7249,179.5275" fill="none" id="Skill-to-Val" style="stroke:#181818;stroke-width:1;"/><polygon fill="#181818" points="275.18,184.3683,283.7246,179.4703,278.1341,180.3343,277.2701,174.7438,275.18,184.3683" style="stroke:#181818;stroke-width:1;"/><text fill="#000000" font-family="sans-serif" font-size="13" lengthAdjust="spacing" textLength="48.8896" x="310.17" y="151.0266">validate</text></g><!--link Skill to Brief--><g class="link" data-entity-1="ent0002" data-entity-2="ent0006" data-link-type="dependency" data-source-line="15" id="lnk10"><path d="M364,99.6983 C371.67,115.7083 383.03,137.2783 395.82,154.4583 C404.69,166.3683 411.8427,174.0835 421.7727,183.4835" fill="none" id="Skill-to-Brief" style="stroke:#181818;stroke-width:1;"/><polygon fill="#181818" points="426.13,187.6083,422.3438,178.5162,422.4989,184.171,416.8442,184.326,426.13,187.6083" style="stroke:#181818;stroke-width:1;"/><text fill="#000000" font-family="sans-serif" font-size="13" lengthAdjust="spacing" textLength="114.0356" x="396.82" y="151.0266">writes (signed off)</text></g><!--link Skill to Plan--><g class="link" data-entity-1="ent0002" data-entity-2="ent0007" data-link-type="dependency" data-source-line="16" id="lnk11"><path d="M420.43,99.6183 C450.01,110.2383 485.03,123.5983 515.82,137.4583 C530.51,144.0683 532.92,148.3683 547.82,154.4583 C579.71,167.4783 610.2493,177.1711 641.6493,185.9011" fill="none" id="Skill-to-Plan" style="stroke:#181818;stroke-width:1;"/><polygon fill="#181818" points="647.43,187.5083,639.8304,181.2437,642.6127,186.169,637.6874,188.9513,647.43,187.5083" style="stroke:#181818;stroke-width:1;"/><text fill="#000000" font-family="sans-serif" font-size="13" lengthAdjust="spacing" textLength="198.6372" x="548.82" y="151.0266">writes (@scope per model item)</text></g><!--link Parser to Plan--><g class="link" data-entity-1="ent0003" data-entity-2="ent0007" data-link-type="dependency" data-source-line="17" id="lnk12"><path d="M779.93,107.7683 C772.86,122.0883 764.14,139.2683 755.82,154.4583 C749.75,165.5583 745.6662,172.6049 739.7362,182.4049" fill="none" id="Parser-to-Plan" style="stroke:#181818;stroke-width:1;"/><polygon fill="#181818" points="736.63,187.5383,744.7116,181.909,739.2185,183.2605,737.8671,177.7674,736.63,187.5383" style="stroke:#181818;stroke-width:1;"/><text fill="#000000" font-family="sans-serif" font-size="13" lengthAdjust="spacing" textLength="263.25" x="765.77" y="151.0266">parse @scope; check ids exist + coverage</text></g><?plantuml-src RLB1JkCm4BtdAqQza0YQeBqW5GcL1O6gbgKIgpqX8MEFKsyTExATBlmzOxSfWUmjCtxptikREO6v4ldDmtgwNDmi7-_kYkm4vW8z7pRFOF9xWr0rGaotYc-jbE2tIcl80pQjPW7zRFPmU_jo67XvMYvMgpFm6zMsA21OABbcdS0Ac15KM85lLG6jxZm4uexKt3g4zUhw5ymzjor2ovn7boOYvjKfb6KZm7CcfTMYX4K0w_W6VN3HnDvYZGPZ2QVxUiUq4h6EHF-SYa2Y4PMmt5T7rcGijXtJxQQAHgWiuHgweBGAxo2TDG64jGvi5xmIc7oHpVXQayGba6_ZmLZWxrnZEOc1Fhx-HHxK3e7RfhK6YKKIIHok7QAH2hM0Fjg1J9vOuFpynqLHPa45Akx74v-qkUsrYYpxR4_6kvi0y_0KluQu_yH_-coutL6YDS8nohnVM95urWaw4kmtaJ3tQ4Q0dYy1_Z2TCHUKP9pUnnjAe9-n-0xxih6z8SrCbgNVW-dqAeh338wN8Jlg7wCQuCW3uNfRWuUaIq-7-yczgWrTDiLP351HTW3gWwGK6xfu3THkYcoVrd0WHNt8_HBeeFaMbF20Rye7kkD-0Hy0?></g></svg>