<svg xmlns="http://www.w3.org/2000/svg" xmlns:xlink="http://www.w3.org/1999/xlink" contentStyleType="text/css" data-diagram-type="DESCRIPTION" height="532px" preserveAspectRatio="none" style="width:808px;height:532px;background:#FFFFFF;" version="1.1" viewBox="0 0 808 532" width="808px" zoomAndPan="magnify"><?plantuml 1.2026.3?><defs/><g><g class="title" data-source-line="3"><text fill="#000000" font-family="sans-serif" font-size="14" font-weight="700" lengthAdjust="spacing" textLength="398.8291" x="201.4262" y="23.5352">MDD map skill &#8212; mockup-aware ownership (objective)</text></g><!--entity Dev--><g class="entity" data-qualified-name="Dev" data-source-line="5" id="ent0002"><ellipse cx="391.7564" cy="51.4883" fill="#F1F1F1" rx="8" ry="8" style="stroke:#181818;stroke-width:0.5;"/><path d="M391.7564,59.4883 L391.7564,86.4883 M378.7564,67.4883 L404.7564,67.4883 M391.7564,86.4883 L378.7564,101.4883 M391.7564,86.4883 L404.7564,101.4883" fill="none" style="stroke:#181818;stroke-width:0.5;"/><text fill="#000000" font-family="sans-serif" font-size="14" lengthAdjust="spacing" textLength="124.6328" x="329.44" y="116.5234">Developer / Agent</text></g><!--entity Map--><g class="entity" data-qualified-name="Map" data-source-line="7" id="ent0003"><rect fill="#F1F1F1" height="79.4648" rx="2.5" ry="2.5" style="stroke:#181818;stroke-width:0.5;" width="206.3662" x="288.57" y="196.4783"/><rect fill="#F1F1F1" height="10" style="stroke:#181818;stroke-width:0.5;" width="15" x="474.9362" y="201.4783"/><rect fill="#F1F1F1" height="2" style="stroke:#181818;stroke-width:0.5;" width="4" x="472.9362" y="203.4783"/><rect fill="#F1F1F1" height="2" style="stroke:#181818;stroke-width:0.5;" width="4" x="472.9362" y="207.4783"/><text fill="#000000" font-family="sans-serif" font-size="14" lengthAdjust="spacing" textLength="142.1328" x="303.57" y="230.0134">/mdd-map SKILL.md</text><text fill="#000000" font-family="sans-serif" font-size="14" lengthAdjust="spacing" textLength="119.8887" x="303.57" y="246.5017">(CMP-MAP-SKILL)</text><text fill="#000000" font-family="sans-serif" font-size="14" lengthAdjust="spacing" textLength="166.3662" x="303.57" y="262.99">.claude/skills/mdd-map</text></g><!--entity Uml--><g class="entity" data-qualified-name="Uml" data-source-line="8" id="ent0004"><rect fill="#F1F1F1" height="62.9766" rx="2.5" ry="2.5" style="stroke:#181818;stroke-width:0.5;" width="201.5059" x="7" y="352.9383"/><rect fill="#F1F1F1" height="10" style="stroke:#181818;stroke-width:0.5;" width="15" x="188.5059" y="357.9383"/><rect fill="#F1F1F1" height="2" style="stroke:#181818;stroke-width:0.5;" width="4" x="186.5059" y="359.9383"/><rect fill="#F1F1F1" height="2" style="stroke:#181818;stroke-width:0.5;" width="4" x="186.5059" y="363.9383"/><text fill="#000000" font-family="sans-serif" font-size="14" lengthAdjust="spacing" textLength="161.5059" x="22" y="386.4734">current/&lt;kind&gt;/*.puml</text><text fill="#000000" font-family="sans-serif" font-size="14" lengthAdjust="spacing" textLength="92.9072" x="22" y="402.9617">(5 UML kinds)</text></g><!--entity Mck--><g class="entity" data-qualified-name="Mck" data-source-line="9" id="ent0005"><rect fill="#F1F1F1" height="62.9766" rx="2.5" ry="2.5" style="stroke:#181818;stroke-width:0.5;" width="219.8604" x="281.82" y="352.9383"/><rect fill="#F1F1F1" height="10" style="stroke:#181818;stroke-width:0.5;" width="15" x="481.6804" y="357.9383"/><rect fill="#F1F1F1" height="2" style="stroke:#181818;stroke-width:0.5;" width="4" x="479.6804" y="359.9383"/><rect fill="#F1F1F1" height="2" style="stroke:#181818;stroke-width:0.5;" width="4" x="479.6804" y="363.9383"/><text fill="#000000" font-family="sans-serif" font-size="14" lengthAdjust="spacing" textLength="171.1787" x="296.82" y="386.4734">current/mockups/*.puml</text><text fill="#000000" font-family="sans-serif" font-size="14" lengthAdjust="spacing" textLength="179.8604" x="296.82" y="402.9617">(MCK-, whole-repo scope)</text></g><!--entity Validate--><g class="entity" data-qualified-name="Validate" data-source-line="10" id="ent0006"><rect fill="#F1F1F1" height="62.9766" rx="2.5" ry="2.5" style="stroke:#181818;stroke-width:0.5;" width="171.8516" x="622.83" y="352.9383"/><rect fill="#F1F1F1" height="10" style="stroke:#181818;stroke-width:0.5;" width="15" x="774.6816" y="357.9383"/><rect fill="#F1F1F1" height="2" style="stroke:#181818;stroke-width:0.5;" width="4" x="772.6816" y="359.9383"/><rect fill="#F1F1F1" height="2" style="stroke:#181818;stroke-width:0.5;" width="4" x="772.6816" y="363.9383"/><text fill="#000000" font-family="sans-serif" font-size="14" lengthAdjust="spacing" textLength="87.7734" x="637.83" y="386.4734">mdd validate</text><text fill="#000000" font-family="sans-serif" font-size="14" lengthAdjust="spacing" textLength="131.8516" x="637.83" y="402.9617">(deterministic gate)</text></g><g class="entity" data-qualified-name="GMN11" data-source-line="18" id="ent0012"><path d="M193.35,476.9183 L193.35,517.5394 A0,0 0 0 0 193.35,517.5394 L590.1566,517.5394 A0,0 0 0 0 590.1566,517.5394 L590.1566,486.9183 L580.1566,476.9183 L395.75,476.9183 L391.75,416.2883 L387.75,476.9183 L193.35,476.9183 A0,0 0 0 0 193.35,476.9183" fill="#FEFFDD" style="stroke:#181818;stroke-width:0.5;"/><path d="M580.1566,476.9183 L580.1566,486.9183 L590.1566,486.9183 L580.1566,476.9183" fill="#FEFFDD" style="stroke:#181818;stroke-width:0.5;"/><text fill="#000000" font-family="sans-serif" font-size="13" lengthAdjust="spacing" textLength="375.8066" x="199.35" y="494.4866">Whole-repo scope auto-includes mockups; feature/module</text><text fill="#000000" font-family="sans-serif" font-size="13" lengthAdjust="spacing" textLength="368.1895" x="199.35" y="509.7972">scope keeps them opt-in. UIC ids mirror app data-testids.</text></g><!--link Dev to Map--><g class="link" data-entity-1="ent0002" data-entity-2="ent0003" data-link-type="dependency" data-source-line="12" id="lnk7"><path d="M391.75,119.6583 C391.75,142.8283 391.75,166.5483 391.75,190.0383" fill="none" id="Dev-to-Map" style="stroke:#181818;stroke-width:1;"/><polygon fill="#181818" points="391.75,196.0383,395.75,187.0383,391.75,191.0383,387.75,187.0383,391.75,196.0383" style="stroke:#181818;stroke-width:1;"/><text fill="#000000" font-family="sans-serif" font-size="13" lengthAdjust="spacing" textLength="131.8154" x="392.75" y="163.0466">/mdd-map &lt;scope&gt;</text></g><!--link Map to Uml--><g class="link" data-entity-1="ent0003" data-entity-2="ent0004" data-link-type="dependency" data-source-line="13" id="lnk8"><path d="M288.36,243.1983 C237.26,251.1483 177.88,268.5383 136.75,305.9383 C123.47,318.0183 117.6618,330.9492 113.7518,346.9792" fill="none" id="Map-to-Uml" style="stroke:#181818;stroke-width:1;"/><polygon fill="#181818" points="112.33,352.8083,118.3488,345.0125,113.5149,347.9507,110.5767,343.1167,112.33,352.8083" style="stroke:#181818;stroke-width:1;"/><text fill="#000000" font-family="sans-serif" font-size="13" lengthAdjust="spacing" textLength="242.4614" x="137.75" y="319.5066">author use-cases (+ kinds on request)</text></g><!--link Map to Mck--><g class="link" data-entity-1="ent0003" data-entity-2="ent0005" data-link-type="dependency" data-source-line="14" id="lnk9"><path d="M389.41,276.0383 C388.78,290.7283 388.37,307.6083 388.75,322.9383 C388.99,332.6083 389.1482,337.1459 389.6282,346.6759" fill="none" id="Map-to-Mck" style="stroke:#181818;stroke-width:1;"/><polygon fill="#181818" points="389.93,352.6683,393.4722,343.4785,389.6785,347.6746,385.4823,343.8809,389.93,352.6683" style="stroke:#181818;stroke-width:1;"/><text fill="#000000" font-family="sans-serif" font-size="13" lengthAdjust="spacing" textLength="275.6025" x="389.75" y="319.5066">whole-repo -&gt; author mockups for UI apps</text></g><!--link Map to Validate--><g class="link" data-entity-1="ent0003" data-entity-2="ent0006" data-link-type="dependency" data-source-line="15" id="lnk10"><path d="M495.12,242.0183 C551.86,249.4083 620.49,266.6383 669.75,305.9383 C684.47,317.6783 692.0109,330.8074 698.0309,346.9274" fill="none" id="Map-to-Validate" style="stroke:#181818;stroke-width:1;"/><polygon fill="#181818" points="700.13,352.5483,700.7286,342.7176,698.3808,347.8643,693.2341,345.5164,700.13,352.5483" style="stroke:#181818;stroke-width:1;"/><text fill="#000000" font-family="sans-serif" font-size="13" lengthAdjust="spacing" textLength="53.1553" x="685.03" y="319.5066">hand off</text></g><?plantuml-src VLHDKzim4BtxLxp91T8Y-zGBPHWOk32G3bD8U-4Yf7MYnfPSIOxXrX_HNzXVqfK_8A5CBvx9hjxRjxjlSu0pemyl5hTYSNuhxgwlRcxcsG7ED0Mr7px2x7vDA6gjHIqRX8sfAcWgZJNHE0iPaQjAjfgAFXUcfqMFpskDFxz-8pA9N96DWfv8jP4qZ0tHjogn1CupaIPljjI_LQtt_1fRGnrAxseefod7_Te4g6TL4UWfajK19WPqpc_AodNeJ5n3edPgqpP2jd7jlB4hX4ZDCRgrgqXuQXo2SWrBQgCJnggAzOUfg0X64nONrm9tieeZMK3fFBHXu9OywrzUGJOSFbnUNS2maDfuFrJJCaeHAKGEpu-uh66z9SdOUYfgfrl-EGZO4375LC4raTMWCfjX2eu_7jPPqGOIIWO66EuvnnU7hss8K6jfLnG-zyyrHV8rRuOBAwGzR6LbM0nXbJwoyYJrCyXoAuf23qfz5jo2u0dRwAMAyAnlIAQneKw5WemcbC_vR9v54rd_ul8Ihuv8Evw6tadFqZjBFgnDWqFt-8DupLkQPndJynHdbxIbYlltA72UR3633E1ebYbNDywctSzUN3TPwS6-CUs3VTzyFTr2DhjiutQBapJ2q-93thHrnOoVi5pS37ETzxXbNRs76vVq2aoJE_h7KmF7GcrsELWMfbqmSdzHQJS3wjlu9Cju513YDFM0uzVpE-bBd6OfdD8ibTE3pJ5vX2tvSUW7VA2UVhRinFaBXgLXxnGuDZBiEdsqzmjiqiPOzfo6Ayiiiuu3Zov6Fb1Nzbq3t_z_PMEHpsyEWe6x9y7kgyTxoB5_OKdNtedb6VyH86dv2m00?></g></svg>