<svg xmlns="http://www.w3.org/2000/svg" xmlns:xlink="http://www.w3.org/1999/xlink" contentStyleType="text/css" data-diagram-type="DESCRIPTION" height="545px" preserveAspectRatio="none" style="width:1012px;height:545px;background:#FFFFFF;" version="1.1" viewBox="0 0 1012 545" width="1012px" zoomAndPan="magnify"><?plantuml 1.2026.3?><defs/><g><g class="title" data-source-line="8"><text fill="#000000" font-family="sans-serif" font-size="14" font-weight="700" lengthAdjust="spacing" textLength="355.9883" x="324.5182" y="23.5352">Agent session bootstrap &#8212; ownership (objective)</text></g><!--entity Agent--><g class="entity" data-qualified-name="Agent" data-source-line="10" id="ent0002"><ellipse cx="355.8566" cy="54.4783" fill="#F1F1F1" rx="8" ry="8" style="stroke:#181818;stroke-width:0.5;"/><path d="M355.8566,62.4783 L355.8566,89.4783 M342.8566,70.4783 L368.8566,70.4783 M355.8566,89.4783 L342.8566,104.4783 M355.8566,89.4783 L368.8566,104.4783" fill="none" style="stroke:#181818;stroke-width:0.5;"/><text fill="#000000" font-family="sans-serif" font-size="14" lengthAdjust="spacing" textLength="40.1133" x="335.8" y="119.5134">Agent</text></g><!--entity Cli--><g class="entity" data-qualified-name="Cli" data-source-line="12" id="ent0003"><rect fill="#F1F1F1" height="62.9766" rx="2.5" ry="2.5" style="stroke:#181818;stroke-width:0.5;" width="171.4346" x="205.14" y="209.1983"/><rect fill="#F1F1F1" height="10" style="stroke:#181818;stroke-width:0.5;" width="15" x="356.5746" y="214.1983"/><rect fill="#F1F1F1" height="2" style="stroke:#181818;stroke-width:0.5;" width="4" x="354.5746" y="216.1983"/><rect fill="#F1F1F1" height="2" style="stroke:#181818;stroke-width:0.5;" width="4" x="354.5746" y="220.1983"/><text fill="#000000" font-family="sans-serif" font-size="14" lengthAdjust="spacing" textLength="86.4404" x="220.14" y="242.7334">mdd context</text><text fill="#000000" font-family="sans-serif" font-size="14" lengthAdjust="spacing" textLength="131.4346" x="220.14" y="259.2217">(CMP-SESSION-CLI)</text></g><!--entity Init--><g class="entity" data-qualified-name="Init" data-source-line="13" id="ent0004"><rect fill="#F1F1F1" height="79.4648" rx="2.5" ry="2.5" style="stroke:#181818;stroke-width:0.5;" width="208.4785" x="590.62" y="44.4883"/><rect fill="#F1F1F1" height="10" style="stroke:#181818;stroke-width:0.5;" width="15" x="779.0985" y="49.4883"/><rect fill="#F1F1F1" height="2" style="stroke:#181818;stroke-width:0.5;" width="4" x="777.0985" y="51.4883"/><rect fill="#F1F1F1" height="2" style="stroke:#181818;stroke-width:0.5;" width="4" x="777.0985" y="55.4883"/><text fill="#000000" font-family="sans-serif" font-size="14" lengthAdjust="spacing" textLength="143.9033" x="605.62" y="78.0234">mdd init / mdd clean</text><text fill="#000000" font-family="sans-serif" font-size="14" lengthAdjust="spacing" textLength="168.4785" x="605.62" y="94.5117">SessionStart hook merge</text><text fill="#000000" font-family="sans-serif" font-size="14" lengthAdjust="spacing" textLength="123.2314" x="605.62" y="111">(CMP-INIT-HOOK)</text></g><!--entity Directive--><g class="entity" data-qualified-name="Directive" data-source-line="14" id="ent0005"><rect fill="#F1F1F1" height="79.4648" rx="2.5" ry="2.5" style="stroke:#181818;stroke-width:0.5;" width="251.2646" x="411.23" y="200.9583"/><rect fill="#F1F1F1" height="10" style="stroke:#181818;stroke-width:0.5;" width="15" x="642.4946" y="205.9583"/><rect fill="#F1F1F1" height="2" style="stroke:#181818;stroke-width:0.5;" width="4" x="640.4946" y="207.9583"/><rect fill="#F1F1F1" height="2" style="stroke:#181818;stroke-width:0.5;" width="4" x="640.4946" y="211.9583"/><text fill="#000000" font-family="sans-serif" font-size="14" lengthAdjust="spacing" textLength="132.4668" x="426.23" y="234.4934">entrypoint directive</text><text fill="#000000" font-family="sans-serif" font-size="14" lengthAdjust="spacing" textLength="181.2959" x="426.23" y="250.9817">CLAUDE.md + AGENTS.md</text><text fill="#000000" font-family="sans-serif" font-size="14" lengthAdjust="spacing" textLength="211.2646" x="426.23" y="267.47">(CMP-ENTRYPOINT-DIRECTIVE)</text></g><!--entity Gate--><g class="entity" data-qualified-name="Gate" data-source-line="15" id="ent0006"><rect fill="#F1F1F1" height="62.9766" rx="2.5" ry="2.5" style="stroke:#181818;stroke-width:0.5;" width="230.4697" x="73.62" y="361.4183"/><rect fill="#F1F1F1" height="10" style="stroke:#181818;stroke-width:0.5;" width="15" x="284.0897" y="366.4183"/><rect fill="#F1F1F1" height="2" style="stroke:#181818;stroke-width:0.5;" width="4" x="282.0897" y="368.4183"/><rect fill="#F1F1F1" height="2" style="stroke:#181818;stroke-width:0.5;" width="4" x="282.0897" y="372.4183"/><text fill="#000000" font-family="sans-serif" font-size="14" lengthAdjust="spacing" textLength="133.1709" x="88.62" y="394.9534">Project::map_status</text><text fill="#000000" font-family="sans-serif" font-size="14" lengthAdjust="spacing" textLength="190.4697" x="88.62" y="411.4417">(CMP-TRACE-GATE, reused)</text></g><!--entity Map--><g class="entity" data-qualified-name="Map" data-source-line="16" id="ent0007"><path d="M341.54,357.4183 L382.54,357.4183 A3.75,3.75 0 0 1 385.04,359.9183 L392.04,378.4183 L444.1757,378.4183 A2.5,2.5 0 0 1 446.6757,380.9183 L446.6757,425.8948 A2.5,2.5 0 0 1 444.1757,428.3948 L341.54,428.3948 A2.5,2.5 0 0 1 339.04,425.8948 L339.04,359.9183 A2.5,2.5 0 0 1 341.54,357.4183" fill="#F1F1F1" style="stroke:#181818;stroke-width:0.5;"/><line style="stroke:#181818;stroke-width:0.5;" x1="339.04" x2="392.04" y1="378.4183" y2="378.4183"/><text fill="#000000" font-family="sans-serif" font-size="14" lengthAdjust="spacing" textLength="77.6357" x="349.04" y="398.9534">whole-map</text><text fill="#000000" font-family="sans-serif" font-size="14" lengthAdjust="spacing" textLength="72.0781" x="349.04" y="415.4417">.mdd/map</text></g><!--entity Settings--><g class="entity" data-qualified-name="Settings" data-source-line="17" id="ent0008"><path d="M699.79,205.1983 L740.79,205.1983 A3.75,3.75 0 0 1 743.29,207.6983 L750.29,226.1983 L867.9345,226.1983 A2.5,2.5 0 0 1 870.4345,228.6983 L870.4345,273.6748 A2.5,2.5 0 0 1 867.9345,276.1748 L699.79,276.1748 A2.5,2.5 0 0 1 697.29,273.6748 L697.29,207.6983 A2.5,2.5 0 0 1 699.79,205.1983" fill="#F1F1F1" style="stroke:#181818;stroke-width:0.5;"/><line style="stroke:#181818;stroke-width:0.5;" x1="697.29" x2="750.29" y1="226.1983" y2="226.1983"/><text fill="#000000" font-family="sans-serif" font-size="14" lengthAdjust="spacing" textLength="54.0107" x="707.29" y="246.7334">settings</text><text fill="#000000" font-family="sans-serif" font-size="14" lengthAdjust="spacing" textLength="143.1445" x="707.29" y="263.2217">.claude/settings.json</text></g><g class="entity" data-qualified-name="GMN15" data-source-line="27" id="ent0016"><path d="M6,489.3983 L6,530.0194 A0,0 0 0 0 6,530.0194 L371.7158,530.0194 A0,0 0 0 0 371.7158,530.0194 L371.7158,499.3983 L361.7158,489.3983 L192.86,489.3983 L188.86,424.6683 L184.86,489.3983 L6,489.3983 A0,0 0 0 0 6,489.3983" fill="#FEFFDD" style="stroke:#181818;stroke-width:0.5;"/><path d="M361.7158,489.3983 L361.7158,499.3983 L371.7158,499.3983 L361.7158,489.3983" fill="#FEFFDD" style="stroke:#181818;stroke-width:0.5;"/><text fill="#000000" font-family="sans-serif" font-size="13" lengthAdjust="spacing" textLength="311.3145" x="12" y="506.9666">Freshness reuses the cycle-0013 git+syn engine;</text><text fill="#000000" font-family="sans-serif" font-size="13" lengthAdjust="spacing" textLength="344.7158" x="12" y="522.2772">the baseline is DOM-MAP-BASELINE (derived from git).</text></g><!--link Agent to Cli--><g class="link" data-entity-1="ent0002" data-entity-2="ent0003" data-link-type="dependency" data-source-line="19" id="lnk9"><path d="M335.32,101.1283 C320.81,113.6983 302.48,132.6483 293.86,153.9583 C286.88,171.2083 285.6686,186.0674 286.5986,202.8774" fill="none" id="Agent-to-Cli" style="stroke:#181818;stroke-width:1;"/><polygon fill="#181818" points="286.93,208.8683,290.4267,199.6611,286.6538,203.8759,282.4389,200.103,286.93,208.8683" style="stroke:#181818;stroke-width:1;"/><text fill="#000000" font-family="sans-serif" font-size="13" lengthAdjust="spacing" textLength="80.2661" x="294.86" y="167.5266">mdd context</text></g><!--link Agent to Directive--><g class="link" data-entity-1="ent0002" data-entity-2="ent0005" data-link-type="dependency" data-source-line="20" id="lnk10"><path d="M376.17,107.3283 C393.07,125.2383 418.1,150.7383 441.86,170.9583 C453.8,181.1183 462.3082,187.8347 475.1382,197.2247" fill="none" id="Agent-to-Directive" style="stroke:#181818;stroke-width:1;"/><polygon fill="#181818" points="479.98,200.7683,475.0797,192.225,475.9452,197.8153,470.3549,198.6807,479.98,200.7683" style="stroke:#181818;stroke-width:1;"/><text fill="#000000" font-family="sans-serif" font-size="13" lengthAdjust="spacing" textLength="134.7163" x="442.86" y="167.5266">reads at session start</text></g><!--link Cli to Gate--><g class="link" data-entity-1="ent0003" data-entity-2="ent0006" data-link-type="dependency" data-source-line="21" id="lnk11"><path d="M238.68,272.3683 C225.05,282.7983 211.71,295.6083 202.86,310.4183 C193.8,325.5783 190.6864,338.9972 189.4064,355.0672" fill="none" id="Cli-to-Gate" style="stroke:#181818;stroke-width:1;"/><polygon fill="#181818" points="188.93,361.0483,193.632,352.3943,189.327,356.0641,185.6572,351.7591,188.93,361.0483" style="stroke:#181818;stroke-width:1;"/><text fill="#000000" font-family="sans-serif" font-size="13" lengthAdjust="spacing" textLength="145.3931" x="203.86" y="323.9866">map_status() freshness</text></g><!--link Cli to Map--><g class="link" data-entity-1="ent0003" data-entity-2="ent0007" data-link-type="dependency" data-source-line="22" id="lnk12"><path d="M322.76,272.5483 C333.43,283.8583 344.89,297.1383 353.86,310.4183 C363.6,324.8483 369.7846,336.5992 376.4346,351.4992" fill="none" id="Cli-to-Map" style="stroke:#181818;stroke-width:1;"/><polygon fill="#181818" points="378.88,356.9783,378.8647,347.1294,376.8422,352.4124,371.5592,350.3899,378.88,356.9783" style="stroke:#181818;stroke-width:1;"/><text fill="#000000" font-family="sans-serif" font-size="13" lengthAdjust="spacing" textLength="146.9736" x="365.15" y="323.9866">TOC (concepts by kind)</text></g><!--link Init to Settings--><g class="link" data-entity-1="ent0004" data-entity-2="ent0008" data-link-type="dependency" data-source-line="23" id="lnk13"><path d="M725.35,124.2783 C732.15,133.7483 739.06,144.0083 744.86,153.9583 C754.33,170.1983 760.7894,204.6365 767.6494,220.5865" fill="none" id="Init-to-Settings" style="stroke:#181818;stroke-width:1;"/><polygon fill="#181818" points="770.02,226.0983,770.1386,216.2501,768.0445,221.5051,762.7895,219.4109,770.02,226.0983" style="stroke:#181818;stroke-width:1;"/><text fill="#000000" font-family="sans-serif" font-size="13" lengthAdjust="spacing" textLength="241.5347" x="754.49" y="167.5266">merge SessionStart hook (idempotent)</text></g><!--link Init to Directive--><g class="link" data-entity-1="ent0004" data-entity-2="ent0005" data-link-type="dependency" data-source-line="24" id="lnk14"><path d="M634.8,124.3283 C622.66,133.3983 610.4,143.4883 599.86,153.9583 C585.83,167.8783 575.953,180.2175 565.223,195.5975" fill="none" id="Init-to-Directive" style="stroke:#181818;stroke-width:1;"/><polygon fill="#181818" points="561.79,200.5183,570.2201,195.4258,564.6509,196.4176,563.659,190.8484,561.79,200.5183" style="stroke:#181818;stroke-width:1;"/><text fill="#000000" font-family="sans-serif" font-size="13" lengthAdjust="spacing" textLength="135.0464" x="600.86" y="167.5266">inject managed block</text></g><?plantuml-src TLNRRjiu47tNLmpy4Xkrd1IxJovGr5NKLBkn7LZk0Wi4S6c9jjbGf41ISRnF-n7xXVibdI5j-PBqKUJCcU4vPqPNy4cKtMJy4ETfdcVJIPpSPxte2ZwLt1QN5ttep3SSlbTb2OLMZh-uxy2LCpkejL1k27WJ5r90egkAgT8EXqc8Wu99QU71w1-ySCEXvTOAhHPxc6uFX0hPsd30LAWD8bfmM72xqPB75QjXFasWbaquNXbkDmg1u9cRKXHk03FU839Gt_FPA4dZkz4ylRA0kGlhc6iiLbffSv6_ON85Xk4XtJ05XiUYgYMly7L2hK6ulc_AS5PQ662ZrzJE0OdQ8em1f2_2mGqmkMKx2___-nymM1h1LtrGsk77cZa-w7YAzyndasmUVvrE_ppdlJr6rebmeH1vAx1dNp8F1EQE6GSRhP-62Fv7Za9PPvh2DOPZJichMZjy15JSh3de5TnEnwsc18_0JiEWaAmf-RNbZXvi1p-iLj2bIamngTUDJzuQuVW2fMLhNYwMKXTFdWGgtEi7QRmx9FSiLlgPwEClh71oHzowO1YIAlPFKXpLWxAffIYGc_0wUj07G2rDp1gtqVGOEhF16jnKmZyVloLfiYFxdFVEq4SriiNDCo_F6KydyzdV3zDiCezlircQpBE_qdFotuhOkxyKR6rOPUELCDPvHs3HM9kIp4DMRzKIYink0yFqhEH-zEqsHVluPupki4nENtj2mHDgaNQKJH8Pms7GPU59yqC6ru2nE1edPqYzK8Lig1DVw0WjXUBObfHqbUYIl_ZQsdiz005sPnfrCTVOKuCpkmEKR3-jOBtRBDRYL6Q7KwsyhHkdYGyqYvU9r6LI_8DgVijJf71qDnkDy_XBDildGOlfahWHpsYhhUB6RaGO9zzIMt2fjKC_uwXrYnsQ2cvktl_U6qHEEFmO_IAMnkw8sjM7KhqeGXzYaOxFx02p0IEA2es3eWYkSyB2etgr6trI8iLbXXVy-cZ-H_LgGiCCxZ6FK-yHCqm_XJpHkqHUVVkFwkYVTqU9zu1lcjfZtnu0JWkqc_Yu6lT0nyNPHtVZ39O1vWuD6Qsq99ztsfNyg0xRq0UDMTt67EOHGzxQBZu-tvz4KH0pZZyIkp244nbExjgtO4HOnfVsZ2YTGgbVmZbR_OULtqPXmnX42xoBrGfUupmiT_0aLDcBI1KVTMYJyFmYVIrkzxXiJn9F-mthu7pOemZdXwDtdTCLRLZFCi2NzjzamY-DfjgFG8mZy1kiXNjdTmgNwHe7_0DcKC2IMUu7NbY_vyUZX_ZpA4_liqaANHG56ocH12o503X775S1DV0J?></g></svg>