<svg xmlns="http://www.w3.org/2000/svg" xmlns:xlink="http://www.w3.org/1999/xlink" contentStyleType="text/css" data-diagram-type="DESCRIPTION" height="579px" preserveAspectRatio="none" style="width:1693px;height:579px;background:#FFFFFF;" version="1.1" viewBox="0 0 1693 579" width="1693px" zoomAndPan="magnify"><?plantuml 1.2026.3?><defs/><g><g class="title" data-source-line="7"><text fill="#000000" font-family="sans-serif" font-size="14" font-weight="700" lengthAdjust="spacing" textLength="326.5869" x="679.9635" y="23.5352">mdd-viewer UI shell &#8212; ownership (objective)</text></g><!--entity Dev--><g class="entity" data-qualified-name="Dev" data-source-line="9" id="ent0002"><ellipse cx="1128.8992" cy="51.4883" fill="#F1F1F1" rx="8" ry="8" style="stroke:#181818;stroke-width:0.5;"/><path d="M1128.8992,59.4883 L1128.8992,86.4883 M1115.8992,67.4883 L1141.8992,67.4883 M1128.8992,86.4883 L1115.8992,101.4883 M1128.8992,86.4883 L1141.8992,101.4883" fill="none" style="stroke:#181818;stroke-width:0.5;"/><text fill="#000000" font-family="sans-serif" font-size="14" lengthAdjust="spacing" textLength="68.3184" x="1094.74" y="116.5234">Developer</text></g><!--entity Viewer--><g class="entity" data-qualified-name="Viewer" data-source-line="11" id="ent0003"><rect fill="#F1F1F1" height="62.9766" rx="2.5" ry="2.5" style="stroke:#181818;stroke-width:0.5;" width="132.5244" x="771.64" y="196.4783"/><rect fill="#F1F1F1" height="10" style="stroke:#181818;stroke-width:0.5;" width="15" x="884.1644" y="201.4783"/><rect fill="#F1F1F1" height="2" style="stroke:#181818;stroke-width:0.5;" width="4" x="882.1644" y="203.4783"/><rect fill="#F1F1F1" height="2" style="stroke:#181818;stroke-width:0.5;" width="4" x="882.1644" y="207.4783"/><text fill="#000000" font-family="sans-serif" font-size="14" lengthAdjust="spacing" textLength="74.9971" x="786.64" y="230.0134">MddViewer</text><text fill="#000000" font-family="sans-serif" font-size="14" lengthAdjust="spacing" textLength="92.5244" x="786.64" y="246.5017">(eframe::App)</text></g><!--entity Left--><g class="entity" data-qualified-name="Left" data-source-line="12" id="ent0004"><rect fill="#F1F1F1" height="62.9766" rx="2.5" ry="2.5" style="stroke:#181818;stroke-width:0.5;" width="181.7979" x="7" y="344.6983"/><rect fill="#F1F1F1" height="10" style="stroke:#181818;stroke-width:0.5;" width="15" x="168.7979" y="349.6983"/><rect fill="#F1F1F1" height="2" style="stroke:#181818;stroke-width:0.5;" width="4" x="166.7979" y="351.6983"/><rect fill="#F1F1F1" height="2" style="stroke:#181818;stroke-width:0.5;" width="4" x="166.7979" y="355.6983"/><text fill="#000000" font-family="sans-serif" font-size="14" lengthAdjust="spacing" textLength="94.2813" x="22" y="378.2334">Left SidePanel</text><text fill="#000000" font-family="sans-serif" font-size="14" lengthAdjust="spacing" textLength="141.7979" x="22" y="394.7217">MODELS (collapsible)</text></g><!--entity Right--><g class="entity" data-qualified-name="Right" data-source-line="13" id="ent0005"><rect fill="#F1F1F1" height="62.9766" rx="2.5" ry="2.5" style="stroke:#181818;stroke-width:0.5;" width="243.6494" x="224.07" y="344.6983"/><rect fill="#F1F1F1" height="10" style="stroke:#181818;stroke-width:0.5;" width="15" x="447.7194" y="349.6983"/><rect fill="#F1F1F1" height="2" style="stroke:#181818;stroke-width:0.5;" width="4" x="445.7194" y="351.6983"/><rect fill="#F1F1F1" height="2" style="stroke:#181818;stroke-width:0.5;" width="4" x="445.7194" y="355.6983"/><text fill="#000000" font-family="sans-serif" font-size="14" lengthAdjust="spacing" textLength="104.1865" x="239.07" y="378.2334">Right SidePanel</text><text fill="#000000" font-family="sans-serif" font-size="14" lengthAdjust="spacing" textLength="203.6494" x="239.07" y="394.7217">MODEL CONTEXT (collapsible)</text></g><!--entity Toolbar--><g class="entity" data-qualified-name="Toolbar" data-source-line="14" id="ent0006"><rect fill="#F1F1F1" height="79.4648" rx="2.5" ry="2.5" style="stroke:#181818;stroke-width:0.5;" width="214.4736" x="502.66" y="336.4483"/><rect fill="#F1F1F1" height="10" style="stroke:#181818;stroke-width:0.5;" width="15" x="697.1336" y="341.4483"/><rect fill="#F1F1F1" height="2" style="stroke:#181818;stroke-width:0.5;" width="4" x="695.1336" y="343.4483"/><rect fill="#F1F1F1" height="2" style="stroke:#181818;stroke-width:0.5;" width="4" x="695.1336" y="347.4483"/><text fill="#000000" font-family="sans-serif" font-size="14" lengthAdjust="spacing" textLength="52.3701" x="517.66" y="369.9834">Toolbar</text><text fill="#000000" font-family="sans-serif" font-size="14" lengthAdjust="spacing" textLength="149.1123" x="517.66" y="386.4717">(PAGE selector only &#8212;</text><text fill="#000000" font-family="sans-serif" font-size="14" lengthAdjust="spacing" textLength="174.4736" x="517.66" y="402.96">no Reset/Zoom+/Zoom-)</text></g><!--entity Fisheye--><g class="entity" data-qualified-name="Fisheye" data-source-line="15" id="ent0007"><rect fill="#F1F1F1" height="62.9766" rx="2.5" ry="2.5" style="stroke:#181818;stroke-width:0.5;" width="181.4902" x="752.15" y="344.6983"/><rect fill="#F1F1F1" height="10" style="stroke:#181818;stroke-width:0.5;" width="15" x="913.6402" y="349.6983"/><rect fill="#F1F1F1" height="2" style="stroke:#181818;stroke-width:0.5;" width="4" x="911.6402" y="351.6983"/><rect fill="#F1F1F1" height="2" style="stroke:#181818;stroke-width:0.5;" width="4" x="911.6402" y="355.6983"/><text fill="#000000" font-family="sans-serif" font-size="14" lengthAdjust="spacing" textLength="141.4902" x="767.15" y="378.2334">Fisheye canvas stage</text><text fill="#000000" font-family="sans-serif" font-size="14" lengthAdjust="spacing" textLength="131.5098" x="767.15" y="394.7217">(center-fixed warp)</text></g><!--entity PL--><g class="entity" data-qualified-name="PL" data-source-line="16" id="ent0008"><rect fill="#F1F1F1" height="62.9766" rx="2.5" ry="2.5" style="stroke:#181818;stroke-width:0.5;" width="179.6924" x="152.05" y="497.0483"/><rect fill="#F1F1F1" height="10" style="stroke:#181818;stroke-width:0.5;" width="15" x="311.7424" y="502.0483"/><rect fill="#F1F1F1" height="2" style="stroke:#181818;stroke-width:0.5;" width="4" x="309.7424" y="504.0483"/><rect fill="#F1F1F1" height="2" style="stroke:#181818;stroke-width:0.5;" width="4" x="309.7424" y="508.0483"/><text fill="#000000" font-family="sans-serif" font-size="14" lengthAdjust="spacing" textLength="81.04" x="167.05" y="530.5834">PanelLayout</text><text fill="#000000" font-family="sans-serif" font-size="14" lengthAdjust="spacing" textLength="139.6924" x="167.05" y="547.0717">(left/right collapsed)</text></g><!--entity CV--><g class="entity" data-qualified-name="CV" data-source-line="17" id="ent0009"><rect fill="#F1F1F1" height="62.9766" rx="2.5" ry="2.5" style="stroke:#181818;stroke-width:0.5;" width="232.9238" x="424.44" y="497.0483"/><rect fill="#F1F1F1" height="10" style="stroke:#181818;stroke-width:0.5;" width="15" x="637.3638" y="502.0483"/><rect fill="#F1F1F1" height="2" style="stroke:#181818;stroke-width:0.5;" width="4" x="635.3638" y="504.0483"/><rect fill="#F1F1F1" height="2" style="stroke:#181818;stroke-width:0.5;" width="4" x="635.3638" y="508.0483"/><text fill="#000000" font-family="sans-serif" font-size="14" lengthAdjust="spacing" textLength="80.0078" x="439.44" y="530.5834">CanvasView</text><text fill="#000000" font-family="sans-serif" font-size="14" lengthAdjust="spacing" textLength="192.9238" x="439.44" y="547.0717">(zoom, pan, fisheye params)</text></g><!--entity Egui--><g class="entity" data-qualified-name="Egui" data-source-line="18" id="ent0010"><rect fill="#F1F1F1" height="46.4883" rx="2.5" ry="2.5" style="stroke:#181818;stroke-width:0.5;" width="168.1602" x="1151.82" y="505.2883"/><rect fill="#F1F1F1" height="10" style="stroke:#181818;stroke-width:0.5;" width="15" x="1299.9802" y="510.2883"/><rect fill="#F1F1F1" height="2" style="stroke:#181818;stroke-width:0.5;" width="4" x="1297.9802" y="512.2883"/><rect fill="#F1F1F1" height="2" style="stroke:#181818;stroke-width:0.5;" width="4" x="1297.9802" y="516.2883"/><text fill="#000000" font-family="sans-serif" font-size="14" lengthAdjust="spacing" textLength="128.1602" x="1166.82" y="538.8234">eframe / egui 0.30</text></g><!--entity Theme--><g class="entity" data-qualified-name="Theme" data-source-line="19" id="ent0011"><rect fill="#F1F1F1" height="62.9766" rx="2.5" ry="2.5" style="stroke:#181818;stroke-width:0.5;" width="190.3564" x="1176.72" y="344.6983"/><rect fill="#F1F1F1" height="10" style="stroke:#181818;stroke-width:0.5;" width="15" x="1347.0764" y="349.6983"/><rect fill="#F1F1F1" height="2" style="stroke:#181818;stroke-width:0.5;" width="4" x="1345.0764" y="351.6983"/><rect fill="#F1F1F1" height="2" style="stroke:#181818;stroke-width:0.5;" width="4" x="1345.0764" y="355.6983"/><text fill="#000000" font-family="sans-serif" font-size="14" lengthAdjust="spacing" textLength="101.6572" x="1191.72" y="378.2334">Theme module</text><text fill="#000000" font-family="sans-serif" font-size="14" lengthAdjust="spacing" textLength="150.3564" x="1191.72" y="394.7217">(CMP-VIEWER-THEME)</text></g><g class="entity" data-qualified-name="GMN24" data-source-line="35" id="ent0025"><path d="M692.01,492.9183 L692.01,564.1605 A0,0 0 0 0 692.01,564.1605 L1075.7913,564.1605 A0,0 0 0 0 1075.7913,564.1605 L1075.7913,502.9183 L1065.7913,492.9183 L878.37,492.9183 L851.29,407.9683 L870.37,492.9183 L692.01,492.9183 A0,0 0 0 0 692.01,492.9183" fill="#FEFFDD" style="stroke:#181818;stroke-width:0.5;"/><path d="M1065.7913,492.9183 L1065.7913,502.9183 L1075.7913,502.9183 L1065.7913,492.9183" fill="#FEFFDD" style="stroke:#181818;stroke-width:0.5;"/><text fill="#000000" font-family="sans-serif" font-size="13" lengthAdjust="spacing" textLength="333.6138" x="698.01" y="510.4866">Objective: the fisheye is a display-time stage layered</text><text fill="#000000" font-family="sans-serif" font-size="13" lengthAdjust="spacing" textLength="362.7813" x="698.01" y="525.7972">on the base zoom/pan placement. It does not change the</text><text fill="#000000" font-family="sans-serif" font-size="13" lengthAdjust="spacing" textLength="355.5894" x="698.01" y="541.1077">render/font pipeline (CMP-VIEWER-RENDER-PIPELINE); it</text><text fill="#000000" font-family="sans-serif" font-size="13" lengthAdjust="spacing" textLength="353.3296" x="698.01" y="556.4183">remaps where the already-rasterized texture is painted.</text></g><!--link Dev to Viewer--><g class="link" data-entity-1="ent0002" data-entity-2="ent0003" data-link-type="dependency" data-source-line="21" id="lnk12"><path d="M1094.37,99.3983 C1046.57,123.1783 964.8022,163.8462 905.4922,193.3462" fill="none" id="Dev-to-Viewer" style="stroke:#181818;stroke-width:1;"/><polygon fill="#181818" points="900.12,196.0183,909.9596,195.5917,904.5968,193.7916,906.3969,188.4288,900.12,196.0183" style="stroke:#181818;stroke-width:1;"/><text fill="#000000" font-family="sans-serif" font-size="13" lengthAdjust="spacing" textLength="60.3599" x="993.12" y="163.0466">mdd view</text></g><!--link Viewer to Theme--><g class="link" data-entity-1="ent0003" data-entity-2="ent0011" data-link-type="dependency" data-source-line="22" id="lnk13"><path d="M904.28,249.2483 C941.35,260.7283 988.3,275.5383 1029.9,289.4483 C1045.35,294.6183 1116.4771,319.8571 1179.4671,342.2671" fill="none" id="Viewer-to-Theme" style="stroke:#181818;stroke-width:1;"/><polygon fill="#181818" points="1185.12,344.2783,1177.9814,337.493,1180.4092,342.6023,1175.2999,345.0302,1185.12,344.2783" style="stroke:#181818;stroke-width:1;"/><text fill="#000000" font-family="sans-serif" font-size="13" lengthAdjust="spacing" textLength="296.4419" x="1077.28" y="303.0166">register_fonts() + apply_theme(ctx) each frame</text></g><!--link Theme to Egui--><g class="link" data-entity-1="ent0011" data-entity-2="ent0010" data-link-type="dependency" data-source-line="23" id="lnk14"><path d="M1250,407.8683 C1243.12,419.2583 1236.4,432.6483 1232.9,445.9183 C1227.76,465.3883 1228.413,482.427 1230.753,499.037" fill="none" id="Theme-to-Egui" style="stroke:#181818;stroke-width:1;"/><polygon fill="#181818" points="1231.59,504.9783,1234.2954,495.5083,1230.8925,500.0272,1226.3736,496.6243,1231.59,504.9783" style="stroke:#181818;stroke-width:1;"/><text fill="#000000" font-family="sans-serif" font-size="13" lengthAdjust="spacing" textLength="159.6055" x="1233.9" y="459.4866">FontDefinitions + Visuals</text></g><!--link Viewer to Left--><g class="link" data-entity-1="ent0003" data-entity-2="ent0004" data-link-type="dependency" data-source-line="24" id="lnk15"><path d="M771.26,228.4583 C622.88,228.3583 270.21,234.1483 166.9,289.4483 C143.99,301.7183 129.0987,320.0409 117.2187,339.3109" fill="none" id="Viewer-to-Left" style="stroke:#181818;stroke-width:1;"/><polygon fill="#181818" points="114.07,344.4183,122.198,338.8563,116.6939,340.1621,115.3882,334.658,114.07,344.4183" style="stroke:#181818;stroke-width:1;"/><text fill="#000000" font-family="sans-serif" font-size="13" lengthAdjust="spacing" textLength="222.1235" x="167.9" y="303.0166">draw + inner-edge collapse handle</text></g><!--link Viewer to Right--><g class="link" data-entity-1="ent0003" data-entity-2="ent0005" data-link-type="dependency" data-source-line="25" id="lnk16"><path d="M771.3,233.0883 C669.53,240.3083 480.9,257.5983 421.9,289.4483 C398.27,302.2083 381.8982,320.4522 368.4182,339.4822" fill="none" id="Viewer-to-Right" style="stroke:#181818;stroke-width:1;"/><polygon fill="#181818" points="364.95,344.3783,373.4163,339.3463,367.8401,340.2982,366.8882,334.722,364.95,344.3783" style="stroke:#181818;stroke-width:1;"/><text fill="#000000" font-family="sans-serif" font-size="13" lengthAdjust="spacing" textLength="222.1235" x="422.9" y="303.0166">draw + inner-edge collapse handle</text></g><!--link Left to PL--><g class="link" data-entity-1="ent0004" data-entity-2="ent0008" data-link-type="dependency" data-source-line="26" id="lnk17"><path d="M127.39,407.9683 C152.24,433.9183 183.4594,466.5256 208.2994,492.4556" fill="none" id="Left-to-PL" style="stroke:#181818;stroke-width:1;"/><polygon fill="#181818" points="212.45,496.7883,209.1126,487.5221,208.9912,493.1777,203.3356,493.0563,212.45,496.7883" style="stroke:#181818;stroke-width:1;"/><text fill="#000000" font-family="sans-serif" font-size="13" lengthAdjust="spacing" textLength="72.3315" x="179.52" y="459.4866">toggleLeft()</text></g><!--link Right to PL--><g class="link" data-entity-1="ent0005" data-entity-2="ent0008" data-link-type="dependency" data-source-line="27" id="lnk18"><path d="M324.6,407.9683 C306.66,433.9183 284.5238,465.9241 266.5838,491.8541" fill="none" id="Right-to-PL" style="stroke:#181818;stroke-width:1;"/><polygon fill="#181818" points="263.17,496.7883,271.5801,491.6629,266.0148,492.6765,265.0012,487.1112,263.17,496.7883" style="stroke:#181818;stroke-width:1;"/><text fill="#000000" font-family="sans-serif" font-size="13" lengthAdjust="spacing" textLength="81.5293" x="298.02" y="459.4866">toggleRight()</text></g><!--link Viewer to Toolbar--><g class="link" data-entity-1="ent0003" data-entity-2="ent0006" data-link-type="dependency" data-source-line="28" id="lnk19"><path d="M771.52,243.0783 C738.89,252.3683 700.36,267.0583 670.9,289.4483 C654.61,301.8283 644.0999,314.7128 633.8299,331.0028" fill="none" id="Viewer-to-Toolbar" style="stroke:#181818;stroke-width:1;"/><polygon fill="#181818" points="630.63,336.0783,638.8135,330.5982,633.2965,331.8487,632.0461,326.3318,630.63,336.0783" style="stroke:#181818;stroke-width:1;"/><text fill="#000000" font-family="sans-serif" font-size="13" lengthAdjust="spacing" textLength="154.3687" x="671.9" y="303.0166">draw (no zoom controls)</text></g><!--link Viewer to Fisheye--><g class="link" data-entity-1="ent0003" data-entity-2="ent0007" data-link-type="dependency" data-source-line="29" id="lnk20"><path d="M836.08,259.7283 C835.59,269.2483 835.14,279.7783 834.9,289.4483 C834.71,297.0083 834.46,298.9083 834.9,306.4483 C835.62,318.9283 836.3414,326.6539 837.8114,338.5039" fill="none" id="Viewer-to-Fisheye" style="stroke:#181818;stroke-width:1;"/><polygon fill="#181818" points="838.55,344.4583,841.4116,335.0343,837.9345,339.4963,833.4725,336.0192,838.55,344.4583" style="stroke:#181818;stroke-width:1;"/><text fill="#000000" font-family="sans-serif" font-size="13" lengthAdjust="spacing" textLength="141.2925" x="835.9" y="303.0166">warp rendered texture</text></g><!--link Fisheye to CV--><g class="link" data-entity-1="ent0007" data-entity-2="ent0009" data-link-type="dependency" data-source-line="30" id="lnk21"><path d="M756.6,408.1483 C709.61,425.1183 659.96,443.2383 654.9,445.9183 C627.89,460.1883 604.7072,476.4089 583.2572,492.9889" fill="none" id="Fisheye-to-CV" style="stroke:#181818;stroke-width:1;"/><polygon fill="#181818" points="578.51,496.6583,588.077,494.319,582.466,493.6005,583.1845,487.9894,578.51,496.6583" style="stroke:#181818;stroke-width:1;"/><text fill="#000000" font-family="sans-serif" font-size="13" lengthAdjust="spacing" textLength="197.0566" x="655.9" y="459.4866">focal = centre, strength, radius</text></g><!--link Viewer to Egui--><g class="link" data-entity-1="ent0003" data-entity-2="ent0010" data-link-type="dependency" data-source-line="31" id="lnk22"><path d="M904.34,243.6083 C931.67,252.6783 961.6,267.0483 981.9,289.4483 C1021.39,333.0383 983.21,370.7583 1020.9,415.9183 C1056.81,458.9383 1107.9756,485.3021 1154.1656,502.7121" fill="none" id="Viewer-to-Egui" style="stroke:#181818;stroke-width:1;"/><polygon fill="#181818" points="1159.78,504.8283,1152.7692,497.911,1155.1013,503.0648,1149.9476,505.3969,1159.78,504.8283" style="stroke:#181818;stroke-width:1;"/><text fill="#000000" font-family="sans-serif" font-size="13" lengthAdjust="spacing" textLength="136.2651" x="1021.9" y="381.2566">painter mesh / image</text></g><!--link Egui to Dev--><g class="link" data-entity-1="ent0010" data-entity-2="ent0002" data-link-type="dependency" data-source-line="32" id="lnk23"><path d="M1320.3,513.9483 C1349.89,504.6883 1380.15,489.1083 1397.9,462.9183 C1441.36,398.7883 1417.73,357.5983 1380.9,289.4483 C1330.68,196.5183 1225.1962,131.809 1168.7362,102.009" fill="none" id="Egui-to-Dev" style="stroke:#181818;stroke-width:1;"/><polygon fill="#181818" points="1163.43,99.2083,1169.5222,106.9468,1167.8519,101.5422,1173.2565,99.8718,1163.43,99.2083" style="stroke:#181818;stroke-width:1;"/><text fill="#000000" font-family="sans-serif" font-size="13" lengthAdjust="spacing" textLength="286.584" x="1390.93" y="303.0166">centre-magnified diagram, collapsible panels</text></g><?plantuml-src ZLN1Rjiu4BthAmQ-H4Ojky3UL6pHm5PR0tPYsAvR504AMXn9N52aGD9nt5C_Oh-mNz8X9IToaWNsOacSUOypmyVdA_WWU3nThfBTFFkQhPFDvson64PNyC5W4N_PP26GpERNdzRNoqs8SBJv2ym81jiA0Sk305kXbA0Bg3bFxWKUqQIGQobPOyLU8aWitCI8idAm4HnNJA6q8s3Wj9PxPk0eN0LAmq-jQzWVdDCgn7DK3arIY0VaK0ZQw8IGCtNFB5Z7IWHNCGT7PXfBhmW65KT3oGuVtC4WxB7Gz6YOK4weaaWL9-B6infMUmAiAK1qsBHi72MMp24nQkZrlVsSBRFnmC_aTlyFvaxSOsAf7-grRhIYMi5txoVXQsad0L_ctO1-__eth3VCE7eHbeZoKqxpoIkcIhHZs3wsC2aqqJMYGIcKNwof0zilPvtTpEYncg-onVmcU-VPAgDxBGaB-gXe6FlJopuY9nnj_NHabuLweB6LQ23MvsQ7KSHofmqCPdYFKjCG1q0dGLzHz3I3mPBpNQ2yKp66AQVfTTCCGt8RwQSlI1rFkhXJozjPjjX0t5DG2_M9VU3wKb4T4gQtDzlis_OLWW3eCsnR_L6Tg-jF6LWw-T2WLlBant2dI9HhjEWctqcQRy9lqf9rs3xTnrSKIjmNAlPQRGcwx3v1w6F1JlhW2DUxDbqho5leQj57JSDsVh04ybTeH1fJeySBGu9ZjMsHqrqVsPuEJDfx_7RyrzkGbD7NnPX8K2GLpG_Iz_DSIzqyV58KaHWWITvtvmofLrYu2b6tueCjOKgoBWLTFFF3gzt6GtW3h6dawOUNCCQvUnW2iho2K6VKmZo1hv3m7masmq8euGHP1i5tmXwOjFtDWhvIu8OTAK4e4dQ2lCJ7eG9TFownZscbzNz0WTr3LWlATxei9VgrU1Yr9CzYOP62_MbqBjXj5v-DCAVkZ9Rs8lciiJGewONXHUUupvtkAAtGEPFmT_1IWoDI9M5ALut0C2uE5wFgnXhSafPgj1M9GzIauoZ4V98_uRIZIoYaH26e02vOIQSqkd3-9bXz52djo8ir6NljxV4iVNXoqZHuurcoP5sC66qZsIbnWawzjNlwzDqIKAi0s3Cw2Z-j2Mq5b9wJH9GRmvoCN9E7qywTl_fy0hxgh_5_6-lm7GWNS3Lr1SUA2WXRCscGyLDYc9Um-Ddxrw7osndoSKJR-IBm3m00?></g></svg>