<svg xmlns="http://www.w3.org/2000/svg" xmlns:xlink="http://www.w3.org/1999/xlink" contentStyleType="text/css" data-diagram-type="DESCRIPTION" height="762px" preserveAspectRatio="none" style="width:2399px;height:762px;background:#FFFFFF;" version="1.1" viewBox="0 0 2399 762" width="2399px" zoomAndPan="magnify"><?plantuml 1.2026.3?><defs/><g><g class="title" data-source-line="18"><text fill="#000000" font-family="sans-serif" font-size="14" font-weight="700" lengthAdjust="spacing" textLength="650.918" x="870.9659" y="23.5352">mdd-viewer scan scope &#8212; .mdd/deploy surfaced via a third, non-gated source (objective)</text></g><!--cluster Parity-gated roots the viewer walks--><g class="cluster" data-qualified-name="Parity-gated roots the viewer walks" data-source-line="28" id="ent0008"><rect fill="#DDDDFF" height="121.98" rx="2.5" ry="2.5" style="stroke:#181818;stroke-width:1;" width="626" x="419.36" y="557.2583"/><text fill="#000000" font-family="sans-serif" font-size="14" font-weight="700" lengthAdjust="spacing" textLength="259.8408" x="602.4396" y="572.7934">Parity-gated roots the viewer walks</text></g><!--cluster Utility tree ? now in the viewer, still OUT of the parity gate--><g class="cluster" data-qualified-name="Utility tree . now in the viewer. still OUT of the parity gate" data-source-line="34" id="ent0012"><rect fill="#DDFFDD" height="138.46" rx="2.5" ry="2.5" style="stroke:#181818;stroke-width:1;" width="445" x="1069.36" y="549.0183"/><text fill="#000000" font-family="sans-serif" font-size="14" font-weight="700" lengthAdjust="spacing" textLength="429.6523" x="1077.0338" y="564.5534">Utility tree &#8212; now in the viewer, still OUT of the parity gate</text></g><!--cluster Trees only `mdd render` rasterizes (no viewer section)--><g class="cluster" data-qualified-name="Trees only .mdd render. rasterizes .no viewer section." data-source-line="38" id="ent0014"><rect fill="#FFDDDD" height="121.98" rx="2.5" ry="2.5" style="stroke:#181818;stroke-width:1;" width="427" x="1538.36" y="557.2583"/><text fill="#000000" font-family="sans-serif" font-size="14" font-weight="700" lengthAdjust="spacing" textLength="400.9619" x="1551.379" y="572.7934">Trees only `mdd render` rasterizes (no viewer section)</text></g><!--entity Models--><g class="entity" data-qualified-name="Parity-gated roots the viewer walks.Models" data-source-line="29" id="ent0009"><path d="M437.86,592.2583 L478.86,592.2583 A3.75,3.75 0 0 1 481.36,594.7583 L488.36,613.2583 L592.859,613.2583 A2.5,2.5 0 0 1 595.359,615.7583 L595.359,660.7348 A2.5,2.5 0 0 1 592.859,663.2348 L437.86,663.2348 A2.5,2.5 0 0 1 435.36,660.7348 L435.36,594.7583 A2.5,2.5 0 0 1 437.86,592.2583" fill="#F1F1F1" style="stroke:#181818;stroke-width:0.5;"/><line style="stroke:#181818;stroke-width:0.5;" x1="435.36" x2="488.36" y1="613.2583" y2="613.2583"/><text fill="#000000" font-family="sans-serif" font-size="14" lengthAdjust="spacing" textLength="99.2715" x="445.36" y="633.7934">.mdd/models/</text><text fill="#000000" font-family="sans-serif" font-size="14" lengthAdjust="spacing" textLength="129.999" x="445.36" y="650.2817">current + objective</text></g><!--entity Ocl--><g class="entity" data-qualified-name="Parity-gated roots the viewer walks.Ocl" data-source-line="30" id="ent0010"><path d="M633.26,592.2583 L674.26,592.2583 A3.75,3.75 0 0 1 676.76,594.7583 L683.76,613.2583 L783.467,613.2583 A2.5,2.5 0 0 1 785.967,615.7583 L785.967,660.7348 A2.5,2.5 0 0 1 783.467,663.2348 L633.26,663.2348 A2.5,2.5 0 0 1 630.76,660.7348 L630.76,594.7583 A2.5,2.5 0 0 1 633.26,592.2583" fill="#F1F1F1" style="stroke:#181818;stroke-width:0.5;"/><line style="stroke:#181818;stroke-width:0.5;" x1="630.76" x2="683.76" y1="613.2583" y2="613.2583"/><text fill="#000000" font-family="sans-serif" font-size="14" lengthAdjust="spacing" textLength="125.207" x="640.76" y="633.7934">.mdd/constraints/</text><ellipse cx="646.26" cy="645.7348" fill="#000000" rx="2.5" ry="2.5"/><text fill="#000000" font-family="sans-serif" font-size="14" lengthAdjust="spacing" textLength="24.2471" x="652.76" y="650.2817">.ocl</text></g><!--entity Cycles--><g class="entity" data-qualified-name="Parity-gated roots the viewer walks.Cycles" data-source-line="31" id="ent0011"><path d="M823.89,592.2583 L864.89,592.2583 A3.75,3.75 0 0 1 867.39,594.7583 L874.39,613.2583 L1026.8295,613.2583 A2.5,2.5 0 0 1 1029.3295,615.7583 L1029.3295,660.7348 A2.5,2.5 0 0 1 1026.8295,663.2348 L823.89,663.2348 A2.5,2.5 0 0 1 821.39,660.7348 L821.39,594.7583 A2.5,2.5 0 0 1 823.89,592.2583" fill="#F1F1F1" style="stroke:#181818;stroke-width:0.5;"/><line style="stroke:#181818;stroke-width:0.5;" x1="821.39" x2="874.39" y1="613.2583" y2="613.2583"/><text fill="#000000" font-family="sans-serif" font-size="14" lengthAdjust="spacing" textLength="90.4463" x="831.39" y="633.7934">.mdd/cycles/</text><text fill="#000000" font-family="sans-serif" font-size="14" lengthAdjust="spacing" textLength="177.9395" x="831.39" y="650.2817">&lt;N&gt;/manifest.yml + diffs</text></g><!--entity Deploy--><g class="entity" data-qualified-name="Utility tree . now in the viewer. still OUT of the parity gate.Deploy" data-source-line="35" id="ent0013"><path d="M1217.56,584.0183 L1258.56,584.0183 A3.75,3.75 0 0 1 1261.06,586.5183 L1268.06,605.0183 L1495.1547,605.0183 A2.5,2.5 0 0 1 1497.6547,607.5183 L1497.6547,668.9831 A2.5,2.5 0 0 1 1495.1547,671.4831 L1217.56,671.4831 A2.5,2.5 0 0 1 1215.06,668.9831 L1215.06,586.5183 A2.5,2.5 0 0 1 1217.56,584.0183" fill="#F1F1F1" style="stroke:#181818;stroke-width:0.5;"/><line style="stroke:#181818;stroke-width:0.5;" x1="1215.06" x2="1268.06" y1="605.0183" y2="605.0183"/><text fill="#000000" font-family="sans-serif" font-size="14" lengthAdjust="spacing" textLength="95.1904" x="1225.06" y="625.5534">.mdd/deploy/</text><text fill="#000000" font-family="sans-serif" font-size="14" lengthAdjust="spacing" textLength="252.5947" x="1225.06" y="642.0417">azure-container-apps/diagram.puml</text><text fill="#000000" font-family="sans-serif" font-size="14" lengthAdjust="spacing" textLength="242.4844" x="1225.06" y="658.53">-&gt; .mdd/rendered/deploy/**/*.svg</text></g><!--entity Map--><g class="entity" data-qualified-name="Trees only .mdd render. rasterizes .no viewer section..Map" data-source-line="39" id="ent0015"><path d="M1556.8,592.2583 L1597.8,592.2583 A3.75,3.75 0 0 1 1600.3,594.7583 L1607.3,613.2583 L1719.927,613.2583 A2.5,2.5 0 0 1 1722.427,615.7583 L1722.427,660.7348 A2.5,2.5 0 0 1 1719.927,663.2348 L1556.8,663.2348 A2.5,2.5 0 0 1 1554.3,660.7348 L1554.3,594.7583 A2.5,2.5 0 0 1 1556.8,592.2583" fill="#F1F1F1" style="stroke:#181818;stroke-width:0.5;"/><line style="stroke:#181818;stroke-width:0.5;" x1="1554.3" x2="1607.3" y1="613.2583" y2="613.2583"/><text fill="#000000" font-family="sans-serif" font-size="14" lengthAdjust="spacing" textLength="79.4199" x="1564.3" y="633.7934">.mdd/map/</text><text fill="#000000" font-family="sans-serif" font-size="14" lengthAdjust="spacing" textLength="138.127" x="1564.3" y="650.2817">whole-map baseline</text></g><!--entity ReviewD--><g class="entity" data-qualified-name="Trees only .mdd render. rasterizes .no viewer section..ReviewD" data-source-line="40" id="ent0016"><path d="M1760,592.2583 L1801,592.2583 A3.75,3.75 0 0 1 1803.5,594.7583 L1810.5,613.2583 L1946.7246,613.2583 A2.5,2.5 0 0 1 1949.2246,615.7583 L1949.2246,660.7348 A2.5,2.5 0 0 1 1946.7246,663.2348 L1760,663.2348 A2.5,2.5 0 0 1 1757.5,660.7348 L1757.5,594.7583 A2.5,2.5 0 0 1 1760,592.2583" fill="#F1F1F1" style="stroke:#181818;stroke-width:0.5;"/><line style="stroke:#181818;stroke-width:0.5;" x1="1757.5" x2="1810.5" y1="613.2583" y2="613.2583"/><text fill="#000000" font-family="sans-serif" font-size="14" lengthAdjust="spacing" textLength="161.7246" x="1767.5" y="633.7934">.mdd/rendered/review/</text><ellipse cx="1773" cy="645.7348" fill="#000000" rx="2.5" ry="2.5"/><text fill="#000000" font-family="sans-serif" font-size="14" lengthAdjust="spacing" textLength="66.6299" x="1779.5" y="650.2817">.diff.puml</text></g><!--entity Dev--><g class="entity" data-qualified-name="Dev" data-source-line="20" id="ent0002"><ellipse cx="610.3592" cy="51.4883" fill="#F1F1F1" rx="8" ry="8" style="stroke:#181818;stroke-width:0.5;"/><path d="M610.3592,59.4883 L610.3592,86.4883 M597.3592,67.4883 L623.3592,67.4883 M610.3592,86.4883 L597.3592,101.4883 M610.3592,86.4883 L623.3592,101.4883" fill="none" style="stroke:#181818;stroke-width:0.5;"/><text fill="#000000" font-family="sans-serif" font-size="14" lengthAdjust="spacing" textLength="68.3184" x="576.2" y="116.5234">Developer</text></g><!--entity Viewer--><g class="entity" data-qualified-name="Viewer" data-source-line="22" id="ent0003"><rect fill="#F1F1F1" height="79.4648" rx="2.5" ry="2.5" style="stroke:#181818;stroke-width:0.5;" width="160.2373" x="632.24" y="211.4783"/><rect fill="#F1F1F1" height="10" style="stroke:#181818;stroke-width:0.5;" width="15" x="772.4773" y="216.4783"/><rect fill="#F1F1F1" height="2" style="stroke:#181818;stroke-width:0.5;" width="4" x="770.4773" y="218.4783"/><rect fill="#F1F1F1" height="2" style="stroke:#181818;stroke-width:0.5;" width="4" x="770.4773" y="222.4783"/><text fill="#000000" font-family="sans-serif" font-size="14" lengthAdjust="spacing" textLength="82.2021" x="647.24" y="245.0134">mdd-viewer</text><text fill="#000000" font-family="sans-serif" font-size="14" lengthAdjust="spacing" textLength="120.2373" x="647.24" y="261.5017">MddViewer::new()</text><text fill="#000000" font-family="sans-serif" font-size="14" lengthAdjust="spacing" textLength="57.3193" x="647.24" y="277.99">(left rail)</text></g><!--entity MReg--><g class="entity" data-qualified-name="MReg" data-source-line="23" id="ent0004"><rect fill="#F1F1F1" height="62.9766" rx="2.5" ry="2.5" style="stroke:#181818;stroke-width:0.5;" width="257.7656" x="402.48" y="367.9483"/><rect fill="#F1F1F1" height="10" style="stroke:#181818;stroke-width:0.5;" width="15" x="640.2456" y="372.9483"/><rect fill="#F1F1F1" height="2" style="stroke:#181818;stroke-width:0.5;" width="4" x="638.2456" y="374.9483"/><rect fill="#F1F1F1" height="2" style="stroke:#181818;stroke-width:0.5;" width="4" x="638.2456" y="378.9483"/><text fill="#000000" font-family="sans-serif" font-size="14" lengthAdjust="spacing" textLength="165.5459" x="417.48" y="401.4834">Project::model_registry()</text><text fill="#000000" font-family="sans-serif" font-size="14" lengthAdjust="spacing" textLength="217.7656" x="417.48" y="417.9717">-&gt; model_and_constraint_files()</text></g><!--entity CReg--><g class="entity" data-qualified-name="CReg" data-source-line="24" id="ent0005"><rect fill="#F1F1F1" height="46.4883" rx="2.5" ry="2.5" style="stroke:#181818;stroke-width:0.5;" width="179.5557" x="702.58" y="376.1883"/><rect fill="#F1F1F1" height="10" style="stroke:#181818;stroke-width:0.5;" width="15" x="862.1357" y="381.1883"/><rect fill="#F1F1F1" height="2" style="stroke:#181818;stroke-width:0.5;" width="4" x="860.1357" y="383.1883"/><rect fill="#F1F1F1" height="2" style="stroke:#181818;stroke-width:0.5;" width="4" x="860.1357" y="387.1883"/><text fill="#000000" font-family="sans-serif" font-size="14" lengthAdjust="spacing" textLength="139.5557" x="717.58" y="409.7234">CycleRegistry::scan()</text></g><!--entity DepSrc--><g class="entity" data-qualified-name="DepSrc" data-source-line="25" id="ent0006"><rect fill="#F1F1F1" height="62.9766" rx="2.5" ry="2.5" style="stroke:#181818;stroke-width:0.5;" width="185.0586" x="955.83" y="49.7483"/><rect fill="#F1F1F1" height="10" style="stroke:#181818;stroke-width:0.5;" width="15" x="1120.8886" y="54.7483"/><rect fill="#F1F1F1" height="2" style="stroke:#181818;stroke-width:0.5;" width="4" x="1118.8886" y="56.7483"/><rect fill="#F1F1F1" height="2" style="stroke:#181818;stroke-width:0.5;" width="4" x="1118.8886" y="60.7483"/><text fill="#000000" font-family="sans-serif" font-size="14" lengthAdjust="spacing" textLength="145.0586" x="970.83" y="83.2834">Project::deploy_files()</text><text fill="#000000" font-family="sans-serif" font-size="14" lengthAdjust="spacing" textLength="129.9375" x="970.83" y="99.7717">(NEW, third source)</text></g><!--entity RT--><g class="entity" data-qualified-name="RT" data-source-line="26" id="ent0007"><rect fill="#F1F1F1" height="62.9766" rx="2.5" ry="2.5" style="stroke:#181818;stroke-width:0.5;" width="218.9512" x="1115.88" y="367.9483"/><rect fill="#F1F1F1" height="10" style="stroke:#181818;stroke-width:0.5;" width="15" x="1314.8312" y="372.9483"/><rect fill="#F1F1F1" height="2" style="stroke:#181818;stroke-width:0.5;" width="4" x="1312.8312" y="374.9483"/><rect fill="#F1F1F1" height="2" style="stroke:#181818;stroke-width:0.5;" width="4" x="1312.8312" y="378.9483"/><text fill="#000000" font-family="sans-serif" font-size="14" lengthAdjust="spacing" textLength="102.4639" x="1130.88" y="401.4834">RenderTree set</text><text fill="#000000" font-family="sans-serif" font-size="14" lengthAdjust="spacing" textLength="178.9512" x="1130.88" y="417.9717">(mdd render rasterization)</text></g><g class="entity" data-qualified-name="GMN32" data-source-line="61" id="ent0033"><path d="M1983.86,507.9183 L1983.86,747.5765 L2384.8497,747.5765 L2384.8497,517.9183 L2374.8497,507.9183 L1983.86,507.9183" fill="#FEFFDD" style="stroke:#181818;stroke-width:0.5;"/><path d="M2374.8497,507.9183 L2374.8497,517.9183 L2384.8497,517.9183 L2374.8497,507.9183" fill="#FEFFDD" style="stroke:#181818;stroke-width:1;"/><text fill="#000000" font-family="sans-serif" font-size="13" lengthAdjust="spacing" textLength="239.3193" x="1989.86" y="525.4866">Why it was invisible before, corrected:</text><text fill="#000000" font-family="sans-serif" font-size="13" lengthAdjust="spacing" textLength="4.1133" x="1989.86" y="540.7972">&#160;</text><text fill="#000000" font-family="sans-serif" font-size="13" lengthAdjust="spacing" textLength="267.6934" x="1989.86" y="556.1077">NOT because "the file does not exist" &#8212; in</text><text fill="#000000" font-family="sans-serif" font-size="13" lengthAdjust="spacing" textLength="280.0078" x="1989.86" y="571.4183">../atlas-ate-server the file DOES exist and is</text><text fill="#000000" font-family="sans-serif" font-size="13" lengthAdjust="spacing" textLength="123.5254" x="1989.86" y="586.7288">already rendered to</text><text fill="#000000" font-family="sans-serif" font-size="13" lengthAdjust="spacing" textLength="379.9897" x="1989.86" y="602.0394">.mdd/rendered/deploy/azure-container-apps/diagram.svg.</text><text fill="#000000" font-family="sans-serif" font-size="13" lengthAdjust="spacing" textLength="301.4185" x="1989.86" y="617.3499">The structural reason: MddViewer::new() loaded</text><text fill="#000000" font-family="sans-serif" font-size="13" lengthAdjust="spacing" textLength="343.5859" x="1989.86" y="632.6605">ONLY model_registry() + cycle_registry(); .mdd/deploy</text><text fill="#000000" font-family="sans-serif" font-size="13" lengthAdjust="spacing" textLength="344.3794" x="1989.86" y="647.971">was reachable solely as RenderTree::Deploy, which the</text><text fill="#000000" font-family="sans-serif" font-size="13" lengthAdjust="spacing" textLength="232.5845" x="1989.86" y="663.2816">interactive viewer never enumerated.</text><text fill="#000000" font-family="sans-serif" font-size="13" lengthAdjust="spacing" textLength="4.1133" x="1989.86" y="678.5921">&#160;</text><text fill="#000000" font-family="sans-serif" font-size="13" lengthAdjust="spacing" textLength="299.3682" x="1989.86" y="693.9027">Fix (this cycle): add the third source above. The</text><text fill="#000000" font-family="sans-serif" font-size="13" lengthAdjust="spacing" textLength="299.2539" x="1989.86" y="709.2132">DEPLOY section is labelled as a utility and stays</text><text fill="#000000" font-family="sans-serif" font-size="13" lengthAdjust="spacing" textLength="337.708" x="1989.86" y="724.5238">outside the gate &#8212; /mdd-deploy remains a sibling of</text><text fill="#000000" font-family="sans-serif" font-size="13" lengthAdjust="spacing" textLength="320.3345" x="1989.86" y="739.8343">/mdd-render, never read by validate/review/cycle.</text></g><g class="entity" data-qualified-name="GMN35" data-source-line="79" id="ent0036"><path d="M6,584.4683 L6,671.021 A0,0 0 0 0 6,671.021 L400.7183,671.021 A0,0 0 0 0 400.7183,671.021 L400.7183,594.4683 L390.7183,584.4683 L269.19,584.4683 L486.78,431.1883 L261.19,584.4683 L6,584.4683 A0,0 0 0 0 6,584.4683" fill="#FEFFDD" style="stroke:#181818;stroke-width:0.5;"/><path d="M390.7183,584.4683 L390.7183,594.4683 L400.7183,594.4683 L390.7183,584.4683" fill="#FEFFDD" style="stroke:#181818;stroke-width:0.5;"/><text fill="#000000" font-family="sans-serif" font-size="13" lengthAdjust="spacing" textLength="301.1265" x="12" y="602.0366">STILL exactly [.mdd/models, .mdd/constraints].</text><text fill="#000000" font-family="sans-serif" font-size="13" lengthAdjust="spacing" textLength="331.335" x="12" y="617.3472">Surfacing deploy in the viewer was done by adding a</text><text fill="#000000" font-family="sans-serif" font-size="13" lengthAdjust="spacing" textLength="373.7183" x="12" y="632.6577">THIRD viewer source (CMP-DEPLOY-VIEWER-SOURCE), NOT</text><text fill="#000000" font-family="sans-serif" font-size="13" lengthAdjust="spacing" textLength="350.0669" x="12" y="647.9683">by adding a root here and NOT by adding a RenderTree</text><text fill="#000000" font-family="sans-serif" font-size="13" lengthAdjust="spacing" textLength="303.0562" x="12" y="663.2788">variant &#8212; that keeps deploy ids out of ID parity.</text></g><!--link Dev to Viewer--><g class="link" data-entity-1="ent0002" data-entity-2="ent0003" data-link-type="dependency" data-source-line="43" id="lnk17"><path d="M600.61,119.6583 C597.57,139.1883 597.28,162.8283 607.36,181.4783 C613.52,192.8783 617.8683,198.8842 628.0083,207.2342" fill="none" id="Dev-to-Viewer" style="stroke:#181818;stroke-width:1;"/><polygon fill="#181818" points="632.64,211.0483,628.2352,202.2393,628.7802,207.8699,623.1497,208.415,632.64,211.0483" style="stroke:#181818;stroke-width:1;"/><text fill="#000000" font-family="sans-serif" font-size="13" lengthAdjust="spacing" textLength="60.3599" x="608.36" y="170.5466">mdd view</text></g><!--link Viewer to MReg--><g class="link" data-entity-1="ent0003" data-entity-2="ent0004" data-link-type="dependency" data-source-line="44" id="lnk18"><path d="M660.12,291.3583 C647.65,300.9183 634.45,311.1883 622.36,320.9483 C603.62,336.0583 587.7244,349.4606 570.9744,363.9006" fill="none" id="Viewer-to-MReg" style="stroke:#181818;stroke-width:1;"/><polygon fill="#181818" points="566.43,367.8183,575.8584,364.9714,570.217,364.5535,570.6348,358.9121,566.43,367.8183" style="stroke:#181818;stroke-width:1;"/><text fill="#000000" font-family="sans-serif" font-size="13" lengthAdjust="spacing" textLength="120.9038" x="623.36" y="334.5166">load (1 of 3, gated)</text></g><!--link Viewer to CReg--><g class="link" data-entity-1="ent0003" data-entity-2="ent0005" data-link-type="dependency" data-source-line="45" id="lnk19"><path d="M733.8,291.3983 C748.61,318.4683 764.9,348.2447 777.2,370.7247" fill="none" id="Viewer-to-CReg" style="stroke:#181818;stroke-width:1;"/><polygon fill="#181818" points="780.08,375.9883,779.2691,366.1729,777.68,371.6019,772.2509,370.0129,780.08,375.9883" style="stroke:#181818;stroke-width:1;"/><text fill="#000000" font-family="sans-serif" font-size="13" lengthAdjust="spacing" textLength="120.9038" x="758.15" y="334.5166">load (2 of 3, gated)</text></g><!--link Viewer to DepSrc--><g class="link" data-entity-1="ent0003" data-entity-2="ent0006" data-link-type="dependency" data-source-line="46" id="lnk20"><path d="M792.81,240.1283 C869.3,229.0683 977.3,209.1383 1009.36,181.4783 C1029.4,164.1883 1037.9585,141.1142 1042.7285,118.9342" fill="none" id="Viewer-to-DepSrc" style="stroke:#181818;stroke-width:1;"/><polygon fill="#181818" points="1043.99,113.0683,1038.1871,121.0261,1042.9387,117.9565,1046.0083,122.7081,1043.99,113.0683" style="stroke:#181818;stroke-width:1;"/><text fill="#000000" font-family="sans-serif" font-size="13" lengthAdjust="spacing" textLength="152.9404" x="1032.22" y="170.5466">load (3 of 3, NOT gated)</text></g><!--link DepSrc to Viewer--><g class="link" data-entity-1="ent0006" data-entity-2="ent0003" data-link-type="dependency" data-source-line="52" id="lnk26"><path d="M955.38,87.4883 C864.86,94.7883 736.5,111.6483 705.36,149.4783 C691.43,166.3983 691.3568,184.9795 696.3768,205.5395" fill="none" id="DepSrc-to-Viewer" style="stroke:#181818;stroke-width:1;stroke-dasharray:7,7;"/><polygon fill="#181818" points="697.8,211.3683,699.5511,201.6763,696.614,206.511,691.7794,203.5739,697.8,211.3683" style="stroke:#181818;stroke-width:1;"/><text fill="#000000" font-family="sans-serif" font-size="13" lengthAdjust="spacing" textLength="294.436" x="706.36" y="163.0466">ModelFile list -&gt; separate DEPLOY tree section</text><text fill="#000000" font-family="sans-serif" font-size="13" lengthAdjust="spacing" textLength="209.0537" x="749.0512" y="178.3572">(NOT pushed into ModelRegistry)</text></g><!--link MReg to Models--><g class="link" data-entity-1="ent0004" data-entity-2="ent0009" data-link-type="dependency" data-source-line="47" id="lnk21"><path d="M529.2,430.9583 C526.24,472.8183 521.3641,562.8833 518.2441,606.9133" fill="none" id="MReg-to-Models" style="stroke:#181818;stroke-width:1;"/><polygon fill="#181818" points="517.82,612.8983,522.4461,604.2035,518.1734,607.9108,514.4662,603.6381,517.82,612.8983" style="stroke:#181818;stroke-width:1;"/><text fill="#000000" font-family="sans-serif" font-size="13" lengthAdjust="spacing" textLength="48.4707" x="528.07" y="474.4866">WalkDir</text></g><!--link MReg to Ocl--><g class="link" data-entity-1="ent0004" data-entity-2="ent0010" data-link-type="dependency" data-source-line="48" id="lnk22"><path d="M559.94,431.3583 C568.31,440.7083 577.36,451.0983 585.36,460.9183 C621.24,504.9683 656.3628,569.3628 680.5628,603.3928" fill="none" id="MReg-to-Ocl" style="stroke:#181818;stroke-width:1;"/><polygon fill="#181818" points="684.04,608.2824,682.0839,598.6298,681.1423,604.2077,675.5644,603.2661,684.04,608.2824" style="stroke:#181818;stroke-width:1;"/><text fill="#000000" font-family="sans-serif" font-size="13" lengthAdjust="spacing" textLength="48.4707" x="596.85" y="474.4866">WalkDir</text></g><!--link CReg to Cycles--><g class="link" data-entity-1="ent0005" data-entity-2="ent0011" data-link-type="dependency" data-source-line="49" id="lnk23"><path d="M796.85,422.9183 C800.54,438.8083 806.59,460.3383 815.36,477.9183 C836.43,520.1883 865.6999,579.4117 890.0999,608.1917" fill="none" id="CReg-to-Cycles" style="stroke:#181818;stroke-width:1;"/><polygon fill="#181818" points="893.98,612.7683,891.2109,603.3167,890.7466,608.9545,885.1088,608.4901,893.98,612.7683" style="stroke:#181818;stroke-width:1;"/><text fill="#000000" font-family="sans-serif" font-size="13" lengthAdjust="spacing" textLength="93.9263" x="816.36" y="474.4866">scan manifests</text></g><!--link DepSrc to RT--><g class="link" data-entity-1="ent0006" data-entity-2="ent0007" data-link-type="dependency" data-source-line="50" id="lnk24"><path d="M1141.13,108.4883 C1161.16,118.2883 1180.24,131.5683 1193.36,149.4783 C1241.38,215.0383 1237.1538,311.2533 1230.9138,361.8933" fill="none" id="DepSrc-to-RT" style="stroke:#181818;stroke-width:1;"/><polygon fill="#181818" points="1230.18,367.8483,1235.2507,359.405,1230.7915,362.8858,1227.3107,358.4266,1230.18,367.8483" style="stroke:#181818;stroke-width:1;"/><text fill="#000000" font-family="sans-serif" font-size="13" lengthAdjust="spacing" textLength="148.5542" x="1234.83" y="256.2766">render_sources(Deploy)</text></g><!--link RT to Deploy--><g class="link" data-entity-1="ent0007" data-entity-2="ent0013" data-link-type="dependency" data-source-line="51" id="lnk25"><path d="M1243.03,430.9583 C1265.79,470.2883 1302.5039,554.7156 1328.3639,599.3856" fill="none" id="RT-to-Deploy" style="stroke:#181818;stroke-width:1;"/><polygon fill="#181818" points="1331.37,604.5783,1330.3226,594.7853,1328.8649,600.2511,1323.3991,598.7934,1331.37,604.5783" style="stroke:#181818;stroke-width:1;"/><text fill="#000000" font-family="sans-serif" font-size="13" lengthAdjust="spacing" textLength="219.3496" x="1268.73" y="474.4866">walk_suffix (single source of truth)</text></g><!--link RT to Models--><g class="link" data-entity-1="ent0007" data-entity-2="ent0009" data-link-type="dependency" data-source-line="54" id="lnk27"><path d="M1115.54,419.8483 C1065.47,429.9783 1005.8,443.8383 953.36,460.9183 C935.38,466.7783 932.66,473.1483 914.36,477.9183 C784.27,511.8583 731.96,444.6183 613.36,507.9183 C578.09,526.7483 553.6867,579.9692 536.9167,607.7992" fill="none" id="RT-to-Models" style="stroke:#181818;stroke-width:1;stroke-dasharray:7,7;"/><polygon fill="#181818" points="533.82,612.9383,541.8912,607.2942,536.4006,608.6557,535.0391,603.1652,533.82,612.9383" style="stroke:#181818;stroke-width:1;"/><text fill="#000000" font-family="sans-serif" font-size="13" lengthAdjust="spacing" textLength="44.9922" x="954.36" y="474.4866">Models</text></g><!--link RT to Cycles--><g class="link" data-entity-1="ent0007" data-entity-2="ent0011" data-link-type="dependency" data-source-line="55" id="lnk28"><path d="M1199.5,431.1183 C1186.17,446.0483 1169.21,463.7883 1152.36,477.9183 C1100,521.8283 1039.2878,581.6728 992.0078,609.7728" fill="none" id="RT-to-Cycles" style="stroke:#181818;stroke-width:1;stroke-dasharray:7,7;"/><polygon fill="#181818" points="986.85,612.8383,996.6304,611.6786,991.1482,610.2837,992.5431,604.8016,986.85,612.8383" style="stroke:#181818;stroke-width:1;"/><text fill="#000000" font-family="sans-serif" font-size="13" lengthAdjust="spacing" textLength="63.1274" x="1170.65" y="474.4866">CycleDiffs</text></g><!--link RT to Ocl--><g class="link" data-entity-1="ent0007" data-entity-2="ent0010" data-link-type="dependency" data-source-line="56" id="lnk29"><path d="M1133.36,431.3883 C1106.51,440.6483 1077.19,450.9883 1050.36,460.9183 C1031.09,468.0583 1027.21,472.6083 1007.36,477.9183 C919.26,501.5083 883.55,462.6783 804.36,507.9183 C770.16,527.4583 746.4261,580.1628 729.9261,607.6728" fill="none" id="RT-to-Ocl" style="stroke:#181818;stroke-width:1;stroke-dasharray:7,7;"/><polygon fill="#181818" points="726.84,612.8183,734.8995,607.1575,729.4118,608.5304,728.0389,603.0427,726.84,612.8183" style="stroke:#181818;stroke-width:1;"/><text fill="#000000" font-family="sans-serif" font-size="13" lengthAdjust="spacing" textLength="92.8662" x="1051.36" y="474.4866">OclConstraints</text></g><!--link RT to Map--><g class="link" data-entity-1="ent0007" data-entity-2="ent0015" data-link-type="dependency" data-source-line="57" id="lnk30"><path d="M1335.19,408.8183 C1387,416.6683 1447.91,431.8083 1496.36,460.9183 C1550.45,493.4283 1591.0595,569.7169 1615.0695,607.9569" fill="none" id="RT-to-Map" style="stroke:#181818;stroke-width:1;stroke-dasharray:7,7;"/><polygon fill="#181818" points="1618.26,613.0383,1616.8619,603.2892,1615.6013,608.8038,1610.0866,607.5432,1618.26,613.0383" style="stroke:#181818;stroke-width:1;"/><text fill="#000000" font-family="sans-serif" font-size="13" lengthAdjust="spacing" textLength="64.7334" x="1521.54" y="474.4866">WholeMap</text></g><!--link RT to ReviewD--><g class="link" data-entity-1="ent0007" data-entity-2="ent0016" data-link-type="dependency" data-source-line="58" id="lnk31"><path d="M1335.33,401.5983 C1445.58,407.5183 1616.33,429.9883 1740.36,507.9183 C1775.43,529.9583 1803.425,581.6167 1824.265,608.0467" fill="none" id="RT-to-ReviewD" style="stroke:#181818;stroke-width:1;stroke-dasharray:7,7;"/><polygon fill="#181818" points="1827.98,612.7583,1825.5485,603.2143,1824.8841,608.832,1819.2664,608.1677,1827.98,612.7583" style="stroke:#181818;stroke-width:1;"/><text fill="#000000" font-family="sans-serif" font-size="13" lengthAdjust="spacing" textLength="66.2632" x="1678.83" y="474.4866">ReviewDiff</text></g><!--link Deploy to GMN32--><g class="link" data-entity-1="ent0013" data-entity-2="ent0033" data-link-type="association" data-source-line="61" id="lnk34"><path d="M1394.79,604.7983 C1431.66,566.2683 1491.14,491.9783 1555.86,469.4183 C1638.12,440.7483 1864.51,444.0983 1947.86,469.4183 C1976.82,478.2183 2005.45,491.8683 2032.27,507.5483" fill="none" id="Deploy-GMN32" style="stroke:#181818;stroke-width:1;stroke-dasharray:7,7;"/></g><?plantuml-src ZLZTRY8v5hxdAIpc8f26Ghjpnwn6cm7IZPI424XdeyqeOweCUBgmItOL3BDQQHzYdt2VPBzZkugYGaPpaqxAvnoVyvs_ptt5_YwJpkZ-iVzrEdcUpFkBqSq3VimU9ztMLNLuFnjFxlhpoUVfOZb_SKBruz7Bw6xoyV5yyZ26wULyCkal9ilwqNZoU3TxgIwVFSr7_c8ZrfsdnSITzCVJcy_pc_l5sSbFyzap_Y6h5pISNVSz4JQ-766FjMUhNqMSoxqOilia-Ih5GPZXK8a3MnKoJIpBjuAbOfqpmsNAraRlsF8BhcHM5oOMbltlF_zbcT5a9jhfHAHlHcoapSsnq-rL9_4nJiNP2LU9CqvtbLA9o59zV5lBLDXEDs9BdA-biJdB3vhPd1zPnetCZ_qDpqNoWpEGRwL9cBICiqGaCgOJN9nogT9ZF-KhaQOYOHuHPYbShQ35Sr8IlsMfZ6MU7jdiQRcOZYVEgB-6qJLH-np62xK089zKlELg8vA8FVfeXaCF1m9zYxL2tF0ezy6npYv9-h4seekmP9goPvv-6qjpPTda7pUZvTsB2zbedTiXYo0zSDQimytzVR9f8__5mqTHGLAkX87tYEjXjcGy0JPiAunm2LlhD95gmoGmKEoWYpHXYU6RW58_YY8caNqOrsn0lkvvAXFOS_UxBqRiKIviEWvWDN6wq1JdE8se9kQX98P36tF5ZE2uLYDp8KYIiOFhmOuhkHOsZuwxrFbWXDNf7b2kn1eu3lWw5uPPnJEx1MXDRnez24_cGYN2B8qGzMn8N_A6MvYJltDNB8dU0MUcr-mNIE9gqlm5BUDIqlEHZELwZTzdSJewPQR7dhSw5VSywx6nJq-dbgl1zVNWEieAnDJ_qKViZOjI0fqoTq2JUM3smSnWymbwVn5SUmlDsJd5E1pwwxkC8wsvPLI7JAXYHsMY3UjO50G-ULMADJT5laL0exipz1vlvjFbInS38WSmI03L5nMK1qxO8irzuJXuoWGt4t8f2cJbOV9Sww3pWO12mp1WWiVRFnDenlCjEqZye7XBNDyolX7s3JK3WukldzbE6eFuVKtbXL7M3m_l_Yt1XE8lXFKpWuBSkpaPJ5ANOFPOWJQW1Wc39gV2AgTDPwNXXXkXrCOspBPWLuazh0b51No6MG_PE87X6wxJ7PIzY02ecGzRwG3X2MiEO7V-JOYCoOtIXbg-Ndta1Ge-r3nNbg92ugxeJwfqr-6x0WFOTITzzgexUCiIoJU6xooyt8cjFbmvj3NgOWLllj5jLwUPXEzM9g8vNgzyOLIBgE-4OhtBjA9Bo8KXOZoUpRW3LR7QIojNgPz9k1zvXgMLW39GBG-Vfyil6EqUN_AfET_Hc0ON9unla7PBDcBAfFM3p-LwO4qym4oDaExE-QRikkjh6ZH8Ql8mr_bu4_GQbKpjNfPoZzNhlnkrSkmfbvZWbS-AZNNcnteT8LkODOy5vP2ZFDsMx36bbT-TPPztT0byjzNYCKs2zXZrcCAcQTEmm5-jrYaVxTFrh-eSYKxtLNKgij1rslwuhjzOZwTYVLMOWHyZrV46xz4STNCNjaYG73KaFvWgy1b3fnTuX8Ub6oBF5YQkcwZj32joQ9xMmVdAy0RcorRBu4hk9clxiSPT_6glJvC3681ji-_6urlshnPp8nMVsxNbFtXLSM4CkVA9LOdpi3Y1fbgD8q3tEj9nwgInfDw9-atxglxsyEFvjls4HiTgyvWwgTQ_p-9w0eEXRd8ZZ-fGKI-gMd2zm7Ae3scpd7SW1NqxVXzqc5AlYlzU686-KZb24QRFiymEmlHnszELpgNrwHUitM_AXE9RmtlAPg0SzUrUvPFOcj9bbi94Htw_knrVy7d7CpXyeANVn-zinIsuc0f9ubbJllBNJtUN9OBRXUMBoAz_yXgjoFg8r3SL6rOpkXM-q24r28vIZNtG-Gl1_NtFmPnqwsAZkjXVFnJpFL09VXy4QUS7ONUVkzWJr679PKydABVQvr7vsHSJJjmOAslEjiAT939VuhYnwyD-R-4iU4ZpRkWQwCqMwxNyxICsqorjHr4DnTEYJp55Y8dzqJAdUO7eiy9kqSRlYGxcA3oZ2of0GdE6prNO9zfO7dcWpYbaPGtLDApePFarL0TEJZInrL8QlXkvsUOKUYXx1kKZKVxpvUdvSmyhrr1NY6JOWYY5Y4tA2uiMoTqx3BAExy4udas8jUsQNIg8Hz60voctVO3Mjy8GeQcqnZCmKwVXLgMaCSLJ8Yp7YfQ1Tf2PIotyXzsFrewWI6mAW1Kn21nFYGnPhPflMl0XgcAHG67sW2VMExhqYJKVgZ_Kbohq23j339IlN7cbzC9oNTeaeBr0p003z2In3-xcTJbAIjhdAJXUH8JxBHLlJgpCUT8TqjEjziuD1SrNUYySYOHEusaBtUhLo-bPN8JvJE3J8vhmhxCnQcINIaTV0dymWjuyf4vbGhn9hw4NdduKR2z4u9ZdwiXAMbgECXT0r88ibOm8LGacdEiTbQNRv8mjbjExEvG7m06K_wojkzwxX-xFbEk5OpRaKKakrVaUnViN-vfS0dOanwb2lapdusgA1_BpuN_1k0a7hPeDjx7z4vg0T0rIEpqL0DJsM6uSMvf0TQy6uk2syZTnR9WmEBsUAvp-3m00?></g></svg>