<svg xmlns="http://www.w3.org/2000/svg" xmlns:xlink="http://www.w3.org/1999/xlink" contentStyleType="text/css" data-diagram-type="DESCRIPTION" height="640px" preserveAspectRatio="none" style="width:2502px;height:640px;background:#FFFFFF;" version="1.1" viewBox="0 0 2502 640" width="2502px" zoomAndPan="magnify"><?plantuml 1.2026.3?><defs/><g><g class="title" data-source-line="10"><text fill="#000000" font-family="sans-serif" font-size="14" font-weight="700" lengthAdjust="spacing" textLength="326.5869" x="1084.3222" y="23.5352">mdd-viewer UI shell &#8212; ownership (objective)</text></g><!--entity Dev--><g class="entity" data-qualified-name="Dev" data-source-line="12" id="ent0002"><ellipse cx="41.3392" cy="51.4883" fill="#F1F1F1" rx="8" ry="8" style="stroke:#181818;stroke-width:0.5;"/><path d="M41.3392,59.4883 L41.3392,86.4883 M28.3392,67.4883 L54.3392,67.4883 M41.3392,86.4883 L28.3392,101.4883 M41.3392,86.4883 L54.3392,101.4883" fill="none" style="stroke:#181818;stroke-width:0.5;"/><text fill="#000000" font-family="sans-serif" font-size="14" lengthAdjust="spacing" textLength="68.3184" x="7.18" y="116.5234">Developer</text></g><!--entity Viewer--><g class="entity" data-qualified-name="Viewer" data-source-line="14" id="ent0003"><rect fill="#F1F1F1" height="62.9766" rx="2.5" ry="2.5" style="stroke:#181818;stroke-width:0.5;" width="132.5244" x="855.08" y="196.4683"/><rect fill="#F1F1F1" height="10" style="stroke:#181818;stroke-width:0.5;" width="15" x="967.6044" y="201.4683"/><rect fill="#F1F1F1" height="2" style="stroke:#181818;stroke-width:0.5;" width="4" x="965.6044" y="203.4683"/><rect fill="#F1F1F1" height="2" style="stroke:#181818;stroke-width:0.5;" width="4" x="965.6044" y="207.4683"/><text fill="#000000" font-family="sans-serif" font-size="14" lengthAdjust="spacing" textLength="74.9971" x="870.08" y="230.0034">MddViewer</text><text fill="#000000" font-family="sans-serif" font-size="14" lengthAdjust="spacing" textLength="92.5244" x="870.08" y="246.4917">(eframe::App)</text></g><!--entity Left--><g class="entity" data-qualified-name="Left" data-source-line="15" id="ent0004"><rect fill="#F1F1F1" height="62.9766" rx="2.5" ry="2.5" style="stroke:#181818;stroke-width:0.5;" width="181.7979" x="1358.44" y="359.6983"/><rect fill="#F1F1F1" height="10" style="stroke:#181818;stroke-width:0.5;" width="15" x="1520.2379" y="364.6983"/><rect fill="#F1F1F1" height="2" style="stroke:#181818;stroke-width:0.5;" width="4" x="1518.2379" y="366.6983"/><rect fill="#F1F1F1" height="2" style="stroke:#181818;stroke-width:0.5;" width="4" x="1518.2379" y="370.6983"/><text fill="#000000" font-family="sans-serif" font-size="14" lengthAdjust="spacing" textLength="94.2813" x="1373.44" y="393.2334">Left SidePanel</text><text fill="#000000" font-family="sans-serif" font-size="14" lengthAdjust="spacing" textLength="141.7979" x="1373.44" y="409.7217">MODELS (collapsible)</text></g><!--entity Right--><g class="entity" data-qualified-name="Right" data-source-line="16" id="ent0005"><rect fill="#F1F1F1" height="62.9766" rx="2.5" ry="2.5" style="stroke:#181818;stroke-width:0.5;" width="243.6494" x="1580.51" y="359.6983"/><rect fill="#F1F1F1" height="10" style="stroke:#181818;stroke-width:0.5;" width="15" x="1804.1594" y="364.6983"/><rect fill="#F1F1F1" height="2" style="stroke:#181818;stroke-width:0.5;" width="4" x="1802.1594" y="366.6983"/><rect fill="#F1F1F1" height="2" style="stroke:#181818;stroke-width:0.5;" width="4" x="1802.1594" y="370.6983"/><text fill="#000000" font-family="sans-serif" font-size="14" lengthAdjust="spacing" textLength="104.1865" x="1595.51" y="393.2334">Right SidePanel</text><text fill="#000000" font-family="sans-serif" font-size="14" lengthAdjust="spacing" textLength="203.6494" x="1595.51" y="409.7217">MODEL CONTEXT (collapsible)</text></g><!--entity Toolbar--><g class="entity" data-qualified-name="Toolbar" data-source-line="17" id="ent0006"><rect fill="#F1F1F1" height="79.4648" rx="2.5" ry="2.5" style="stroke:#181818;stroke-width:0.5;" width="214.4736" x="212.1" y="351.4483"/><rect fill="#F1F1F1" height="10" style="stroke:#181818;stroke-width:0.5;" width="15" x="406.5736" y="356.4483"/><rect fill="#F1F1F1" height="2" style="stroke:#181818;stroke-width:0.5;" width="4" x="404.5736" y="358.4483"/><rect fill="#F1F1F1" height="2" style="stroke:#181818;stroke-width:0.5;" width="4" x="404.5736" y="362.4483"/><text fill="#000000" font-family="sans-serif" font-size="14" lengthAdjust="spacing" textLength="52.3701" x="227.1" y="384.9834">Toolbar</text><text fill="#000000" font-family="sans-serif" font-size="14" lengthAdjust="spacing" textLength="149.1123" x="227.1" y="401.4717">(PAGE selector only &#8212;</text><text fill="#000000" font-family="sans-serif" font-size="14" lengthAdjust="spacing" textLength="174.4736" x="227.1" y="417.96">no Reset/Zoom+/Zoom-)</text></g><!--entity Fisheye--><g class="entity" data-qualified-name="Fisheye" data-source-line="18" id="ent0007"><rect fill="#F1F1F1" height="62.9766" rx="2.5" ry="2.5" style="stroke:#181818;stroke-width:0.5;" width="181.4902" x="1861.59" y="359.6983"/><rect fill="#F1F1F1" height="10" style="stroke:#181818;stroke-width:0.5;" width="15" x="2023.0802" y="364.6983"/><rect fill="#F1F1F1" height="2" style="stroke:#181818;stroke-width:0.5;" width="4" x="2021.0802" y="366.6983"/><rect fill="#F1F1F1" height="2" style="stroke:#181818;stroke-width:0.5;" width="4" x="2021.0802" y="370.6983"/><text fill="#000000" font-family="sans-serif" font-size="14" lengthAdjust="spacing" textLength="141.4902" x="1876.59" y="393.2334">Fisheye canvas stage</text><text fill="#000000" font-family="sans-serif" font-size="14" lengthAdjust="spacing" textLength="131.5098" x="1876.59" y="409.7217">(center-fixed warp)</text></g><!--entity PL--><g class="entity" data-qualified-name="PL" data-source-line="19" id="ent0008"><rect fill="#F1F1F1" height="62.9766" rx="2.5" ry="2.5" style="stroke:#181818;stroke-width:0.5;" width="179.6924" x="1621.49" y="535.0083"/><rect fill="#F1F1F1" height="10" style="stroke:#181818;stroke-width:0.5;" width="15" x="1781.1824" y="540.0083"/><rect fill="#F1F1F1" height="2" style="stroke:#181818;stroke-width:0.5;" width="4" x="1779.1824" y="542.0083"/><rect fill="#F1F1F1" height="2" style="stroke:#181818;stroke-width:0.5;" width="4" x="1779.1824" y="546.0083"/><text fill="#000000" font-family="sans-serif" font-size="14" lengthAdjust="spacing" textLength="81.04" x="1636.49" y="568.5434">PanelLayout</text><text fill="#000000" font-family="sans-serif" font-size="14" lengthAdjust="spacing" textLength="139.6924" x="1636.49" y="585.0317">(left/right collapsed)</text></g><!--entity CV--><g class="entity" data-qualified-name="CV" data-source-line="20" id="ent0009"><rect fill="#F1F1F1" height="62.9766" rx="2.5" ry="2.5" style="stroke:#181818;stroke-width:0.5;" width="232.9238" x="1835.88" y="535.0083"/><rect fill="#F1F1F1" height="10" style="stroke:#181818;stroke-width:0.5;" width="15" x="2048.8038" y="540.0083"/><rect fill="#F1F1F1" height="2" style="stroke:#181818;stroke-width:0.5;" width="4" x="2046.8038" y="542.0083"/><rect fill="#F1F1F1" height="2" style="stroke:#181818;stroke-width:0.5;" width="4" x="2046.8038" y="546.0083"/><text fill="#000000" font-family="sans-serif" font-size="14" lengthAdjust="spacing" textLength="80.0078" x="1850.88" y="568.5434">CanvasView</text><text fill="#000000" font-family="sans-serif" font-size="14" lengthAdjust="spacing" textLength="192.9238" x="1850.88" y="585.0317">(zoom, pan, fisheye params)</text></g><!--entity Egui--><g class="entity" data-qualified-name="Egui" data-source-line="21" id="ent0010"><rect fill="#F1F1F1" height="46.4883" rx="2.5" ry="2.5" style="stroke:#181818;stroke-width:0.5;" width="168.1602" x="346.26" y="543.2583"/><rect fill="#F1F1F1" height="10" style="stroke:#181818;stroke-width:0.5;" width="15" x="494.4202" y="548.2583"/><rect fill="#F1F1F1" height="2" style="stroke:#181818;stroke-width:0.5;" width="4" x="492.4202" y="550.2583"/><rect fill="#F1F1F1" height="2" style="stroke:#181818;stroke-width:0.5;" width="4" x="492.4202" y="554.2583"/><text fill="#000000" font-family="sans-serif" font-size="14" lengthAdjust="spacing" textLength="128.1602" x="361.26" y="576.7934">eframe / egui 0.30</text></g><!--entity Theme--><g class="entity" data-qualified-name="Theme" data-source-line="22" id="ent0011"><rect fill="#F1F1F1" height="62.9766" rx="2.5" ry="2.5" style="stroke:#181818;stroke-width:0.5;" width="190.3564" x="461.16" y="359.6983"/><rect fill="#F1F1F1" height="10" style="stroke:#181818;stroke-width:0.5;" width="15" x="631.5164" y="364.6983"/><rect fill="#F1F1F1" height="2" style="stroke:#181818;stroke-width:0.5;" width="4" x="629.5164" y="366.6983"/><rect fill="#F1F1F1" height="2" style="stroke:#181818;stroke-width:0.5;" width="4" x="629.5164" y="370.6983"/><text fill="#000000" font-family="sans-serif" font-size="14" lengthAdjust="spacing" textLength="101.6572" x="476.16" y="393.2334">Theme module</text><text fill="#000000" font-family="sans-serif" font-size="14" lengthAdjust="spacing" textLength="150.3564" x="476.16" y="409.7217">(CMP-VIEWER-THEME)</text></g><g class="entity" data-qualified-name="GMN24" data-source-line="38" id="ent0025"><path d="M2103.45,530.8783 L2103.45,602.1205 L2487.2313,602.1205 L2487.2313,540.8783 L2477.2313,530.8783 L2103.45,530.8783" fill="#FEFFDD" style="stroke:#181818;stroke-width:0.5;"/><path d="M2477.2313,530.8783 L2477.2313,540.8783 L2487.2313,540.8783 L2477.2313,530.8783" fill="#FEFFDD" style="stroke:#181818;stroke-width:1;"/><text fill="#000000" font-family="sans-serif" font-size="13" lengthAdjust="spacing" textLength="333.6138" x="2109.45" y="548.4466">Objective: the fisheye is a display-time stage layered</text><text fill="#000000" font-family="sans-serif" font-size="13" lengthAdjust="spacing" textLength="362.7813" x="2109.45" y="563.7572">on the base zoom/pan placement. It does not change the</text><text fill="#000000" font-family="sans-serif" font-size="13" lengthAdjust="spacing" textLength="355.5894" x="2109.45" y="579.0677">render/font pipeline (CMP-VIEWER-RENDER-PIPELINE); it</text><text fill="#000000" font-family="sans-serif" font-size="13" lengthAdjust="spacing" textLength="353.3296" x="2109.45" y="594.3783">remaps where the already-rasterized texture is painted.</text></g><!--entity Launch--><g class="entity" data-qualified-name="Launch" data-source-line="44" id="ent0027"><rect fill="#F1F1F1" height="79.4648" rx="2.5" ry="2.5" style="stroke:#181818;stroke-width:0.5;" width="377.4971" x="903.59" y="351.4483"/><rect fill="#F1F1F1" height="10" style="stroke:#181818;stroke-width:0.5;" width="15" x="1261.0871" y="356.4483"/><rect fill="#F1F1F1" height="2" style="stroke:#181818;stroke-width:0.5;" width="4" x="1259.0871" y="358.4483"/><rect fill="#F1F1F1" height="2" style="stroke:#181818;stroke-width:0.5;" width="4" x="1259.0871" y="362.4483"/><text fill="#000000" font-family="sans-serif" font-size="14" lengthAdjust="spacing" textLength="115.4727" x="918.59" y="384.9834">MockupLauncher</text><text fill="#000000" font-family="sans-serif" font-size="14" lengthAdjust="spacing" textLength="171.1309" x="918.59" y="401.4717">(CMP-MOCKUP-LAUNCH)</text><text fill="#000000" font-family="sans-serif" font-size="14" lengthAdjust="spacing" textLength="337.4971" x="918.59" y="417.96">probe :4317 &#183; spawn npm run dev &#183; open browser</text></g><!--entity Vite--><g class="entity" data-qualified-name="Vite" data-source-line="45" id="ent0028"><rect fill="#F1F1F1" height="62.9766" rx="2.5" ry="2.5" style="stroke:#181818;stroke-width:0.5;" width="307.2578" x="1279.71" y="535.0083"/><rect fill="#F1F1F1" height="10" style="stroke:#181818;stroke-width:0.5;" width="15" x="1566.9678" y="540.0083"/><rect fill="#F1F1F1" height="2" style="stroke:#181818;stroke-width:0.5;" width="4" x="1564.9678" y="542.0083"/><rect fill="#F1F1F1" height="2" style="stroke:#181818;stroke-width:0.5;" width="4" x="1564.9678" y="546.0083"/><text fill="#000000" font-family="sans-serif" font-size="14" lengthAdjust="spacing" textLength="86.3926" x="1294.71" y="568.5434">npm run dev</text><text fill="#000000" font-family="sans-serif" font-size="14" lengthAdjust="spacing" textLength="267.2578" x="1294.71" y="585.0317">(Vite dev server, :4317, cwd mockups/)</text></g><!--entity Browser--><g class="entity" data-qualified-name="Browser" data-source-line="46" id="ent0029"><rect fill="#F1F1F1" height="46.4883" rx="2.5" ry="2.5" style="stroke:#181818;stroke-width:0.5;" width="169.3291" x="549.67" y="543.2583"/><rect fill="#F1F1F1" height="10" style="stroke:#181818;stroke-width:0.5;" width="15" x="698.9991" y="548.2583"/><rect fill="#F1F1F1" height="2" style="stroke:#181818;stroke-width:0.5;" width="4" x="696.9991" y="550.2583"/><rect fill="#F1F1F1" height="2" style="stroke:#181818;stroke-width:0.5;" width="4" x="696.9991" y="554.2583"/><text fill="#000000" font-family="sans-serif" font-size="14" lengthAdjust="spacing" textLength="129.3291" x="564.67" y="576.7934">OS default browser</text></g><g class="entity" data-qualified-name="GMN33" data-source-line="53" id="ent0034"><path d="M754.02,507.9183 L754.02,625.0921 A0,0 0 0 0 754.02,625.0921 L1244.6513,625.0921 A0,0 0 0 0 1244.6513,625.0921 L1244.6513,517.9183 L1234.6513,507.9183 L1034.38,507.9183 L1071.47,431.0783 L1026.38,507.9183 L754.02,507.9183 A0,0 0 0 0 754.02,507.9183" fill="#FEFFDD" style="stroke:#181818;stroke-width:0.5;"/><path d="M1234.6513,507.9183 L1234.6513,517.9183 L1244.6513,517.9183 L1234.6513,507.9183" fill="#FEFFDD" style="stroke:#181818;stroke-width:0.5;"/><text fill="#000000" font-family="sans-serif" font-size="13" lengthAdjust="spacing" textLength="469.6313" x="760.02" y="525.4866">Objective (CMP-MOCKUP-LAUNCH / USE-OPEN-RENDER): start-if-needed.</text><text fill="#000000" font-family="sans-serif" font-size="13" lengthAdjust="spacing" textLength="389.3081" x="760.02" y="540.7972">The launcher probes :4317; if it is already serving it reuses it,</text><text fill="#000000" font-family="sans-serif" font-size="13" lengthAdjust="spacing" textLength="425.3882" x="760.02" y="556.1077">otherwise it spawns `npm run dev` in the repo-root mockups/ dir.</text><text fill="#000000" font-family="sans-serif" font-size="13" lengthAdjust="spacing" textLength="435.0239" x="760.02" y="571.4183">Then it opens the OS browser at /mockup/&lt;slug&gt;. No `npm install`</text><text fill="#000000" font-family="sans-serif" font-size="13" lengthAdjust="spacing" textLength="426.7529" x="760.02" y="586.7288">and no child-process shutdown tracking. The "Open render" button</text><text fill="#000000" font-family="sans-serif" font-size="13" lengthAdjust="spacing" textLength="406.377" x="760.02" y="602.0394">is enabled only when mockups/src/mockups/&lt;slug&gt;.tsx exists.</text><text fill="#000000" font-family="sans-serif" font-size="13" lengthAdjust="spacing" textLength="203.3472" x="760.02" y="617.3499">Realized by SEQ-OPEN-RENDER.</text></g><!--link Dev to Viewer--><g class="link" data-entity-1="ent0002" data-entity-2="ent0003" data-link-type="dependency" data-source-line="24" id="lnk12"><path d="M75.84,87.8983 C207.39,109.5383 673.0895,186.1346 848.8095,215.0346" fill="none" id="Dev-to-Viewer" style="stroke:#181818;stroke-width:1;"/><polygon fill="#181818" points="854.73,216.0083,846.4985,210.6007,849.7963,215.1969,845.2002,218.4947,854.73,216.0083" style="stroke:#181818;stroke-width:1;"/><text fill="#000000" font-family="sans-serif" font-size="13" lengthAdjust="spacing" textLength="60.3599" x="535.03" y="163.0366">mdd view</text></g><!--link Viewer to Theme--><g class="link" data-entity-1="ent0003" data-entity-2="ent0011" data-link-type="dependency" data-source-line="25" id="lnk13"><path d="M854.58,229.3483 C754.75,231.5183 573.91,242.0683 533.34,289.4483 C516.77,308.7983 522.9261,332.3373 534.1261,354.2173" fill="none" id="Viewer-to-Theme" style="stroke:#181818;stroke-width:1;"/><polygon fill="#181818" points="536.86,359.5583,536.3197,349.7243,534.5817,355.1075,529.1985,353.3695,536.86,359.5583" style="stroke:#181818;stroke-width:1;"/><text fill="#000000" font-family="sans-serif" font-size="13" lengthAdjust="spacing" textLength="296.4419" x="534.34" y="310.5166">register_fonts() + apply_theme(ctx) each frame</text></g><!--link Theme to Egui--><g class="link" data-entity-1="ent0011" data-entity-2="ent0010" data-link-type="dependency" data-source-line="26" id="lnk14"><path d="M533.81,423.1683 C508.83,457.5383 472.6388,507.3257 450.3788,537.9357" fill="none" id="Theme-to-Egui" style="stroke:#181818;stroke-width:1;"/><polygon fill="#181818" points="446.85,542.7883,455.3783,537.862,449.7907,538.7445,448.9082,533.1569,446.85,542.7883" style="stroke:#181818;stroke-width:1;"/><text fill="#000000" font-family="sans-serif" font-size="13" lengthAdjust="spacing" textLength="159.6055" x="505.62" y="474.4866">FontDefinitions + Visuals</text></g><!--link Viewer to Left--><g class="link" data-entity-1="ent0003" data-entity-2="ent0004" data-link-type="dependency" data-source-line="27" id="lnk15"><path d="M987.81,232.6083 C1061.73,238.3483 1183.71,252.9283 1282.34,289.4483 C1308.14,299.0083 1311.78,307.2383 1335.34,321.4483 C1355.82,333.8083 1373.2313,344.3109 1392.8413,356.1309" fill="none" id="Viewer-to-Left" style="stroke:#181818;stroke-width:1;"/><polygon fill="#181818" points="1397.98,359.2283,1392.3369,351.1564,1393.6977,356.6471,1388.207,358.008,1397.98,359.2283" style="stroke:#181818;stroke-width:1;"/><text fill="#000000" font-family="sans-serif" font-size="13" lengthAdjust="spacing" textLength="222.1235" x="1336.34" y="310.5166">draw + inner-edge collapse handle</text></g><!--link Viewer to Right--><g class="link" data-entity-1="ent0003" data-entity-2="ent0005" data-link-type="dependency" data-source-line="28" id="lnk16"><path d="M987.95,230.8083 C1130.23,235.4583 1459.3,250.2283 1563.34,289.4483 C1564.75,289.9783 1614.8512,326.3943 1655.2312,355.8243" fill="none" id="Viewer-to-Right" style="stroke:#181818;stroke-width:1;"/><polygon fill="#181818" points="1660.08,359.3583,1655.1627,350.8248,1656.0393,356.4133,1650.4508,357.2899,1660.08,359.3583" style="stroke:#181818;stroke-width:1;"/><text fill="#000000" font-family="sans-serif" font-size="13" lengthAdjust="spacing" textLength="222.1235" x="1606.4" y="310.5166">draw + inner-edge collapse handle</text></g><!--link Left to PL--><g class="link" data-entity-1="ent0004" data-entity-2="ent0008" data-link-type="dependency" data-source-line="29" id="lnk17"><path d="M1499.24,423.1083 C1517.88,434.7983 1539.17,448.3283 1558.34,460.9183 C1595.32,485.1983 1631.7779,510.1515 1662.1779,531.2115" fill="none" id="Left-to-PL" style="stroke:#181818;stroke-width:1;"/><polygon fill="#181818" points="1667.11,534.6283,1661.9897,526.215,1662.9999,531.781,1657.434,532.7912,1667.11,534.6283" style="stroke:#181818;stroke-width:1;"/><text fill="#000000" font-family="sans-serif" font-size="13" lengthAdjust="spacing" textLength="72.3315" x="1584.61" y="474.4866">toggleLeft()</text></g><!--link Right to PL--><g class="link" data-entity-1="ent0005" data-entity-2="ent0008" data-link-type="dependency" data-source-line="30" id="lnk18"><path d="M1703.95,423.1683 C1705.59,454.7183 1707.7994,497.3463 1709.4294,528.7963" fill="none" id="Right-to-PL" style="stroke:#181818;stroke-width:1;"/><polygon fill="#181818" points="1709.74,534.7883,1713.2688,525.5933,1709.4812,529.795,1705.2795,526.0074,1709.74,534.7883" style="stroke:#181818;stroke-width:1;"/><text fill="#000000" font-family="sans-serif" font-size="13" lengthAdjust="spacing" textLength="81.5293" x="1707.57" y="474.4866">toggleRight()</text></g><!--link Viewer to Toolbar--><g class="link" data-entity-1="ent0003" data-entity-2="ent0006" data-link-type="dependency" data-source-line="31" id="lnk19"><path d="M854.76,232.3283 C714.67,239.9683 399.14,260.2083 360.34,289.4483 C340.96,304.0483 332.1677,323.5581 326.7577,345.1581" fill="none" id="Viewer-to-Toolbar" style="stroke:#181818;stroke-width:1;"/><polygon fill="#181818" points="325.3,350.9783,331.3668,343.2198,326.5148,346.1281,323.6065,341.2761,325.3,350.9783" style="stroke:#181818;stroke-width:1;"/><text fill="#000000" font-family="sans-serif" font-size="13" lengthAdjust="spacing" textLength="154.3687" x="361.34" y="310.5166">draw (no zoom controls)</text></g><!--link Viewer to Fisheye--><g class="link" data-entity-1="ent0003" data-entity-2="ent0007" data-link-type="dependency" data-source-line="32" id="lnk20"><path d="M987.96,230.9183 C1185.41,237.0483 1758.55,257.4183 1836.34,289.4483 C1872.84,304.4783 1901.8936,331.3409 1923.2936,355.0909" fill="none" id="Viewer-to-Fisheye" style="stroke:#181818;stroke-width:1;"/><polygon fill="#181818" points="1927.31,359.5483,1924.2571,350.1845,1923.963,355.8338,1918.3138,355.5397,1927.31,359.5483" style="stroke:#181818;stroke-width:1;"/><text fill="#000000" font-family="sans-serif" font-size="13" lengthAdjust="spacing" textLength="141.2925" x="1887.02" y="310.5166">warp rendered texture</text></g><!--link Fisheye to CV--><g class="link" data-entity-1="ent0007" data-entity-2="ent0009" data-link-type="dependency" data-source-line="33" id="lnk21"><path d="M1952.34,423.1683 C1952.34,454.7183 1952.34,497.3383 1952.34,528.7883" fill="none" id="Fisheye-to-CV" style="stroke:#181818;stroke-width:1;"/><polygon fill="#181818" points="1952.34,534.7883,1956.34,525.7883,1952.34,529.7883,1948.34,525.7883,1952.34,534.7883" style="stroke:#181818;stroke-width:1;"/><text fill="#000000" font-family="sans-serif" font-size="13" lengthAdjust="spacing" textLength="197.0566" x="1953.34" y="474.4866">focal = centre, strength, radius</text></g><!--link Viewer to Egui--><g class="link" data-entity-1="ent0003" data-entity-2="ent0010" data-link-type="dependency" data-source-line="34" id="lnk22"><path d="M899.19,259.7183 C883.38,279.7283 860.52,305.0683 835.34,321.4483 C801.06,343.7583 780.05,325.6083 748.34,351.4483 C697.68,392.7283 726.43,439.8083 673.34,477.9183 C621.29,515.2783 592.26,485.2383 532.34,507.9183 C508.57,516.9083 488.7897,527.6871 469.5597,539.6071" fill="none" id="Viewer-to-Egui" style="stroke:#181818;stroke-width:1;"/><polygon fill="#181818" points="464.46,542.7683,474.217,541.4264,468.7098,540.134,470.0022,534.6268,464.46,542.7683" style="stroke:#181818;stroke-width:1;"/><text fill="#000000" font-family="sans-serif" font-size="13" lengthAdjust="spacing" textLength="136.2651" x="749.34" y="396.2466">painter mesh / image</text></g><!--link Egui to Dev--><g class="link" data-entity-1="ent0010" data-entity-2="ent0002" data-link-type="dependency" data-source-line="35" id="lnk23"><path d="M350.46,542.8383 C255.59,511.0283 102.28,442.9483 39.34,321.4483 C6,257.0983 17.6586,175.1671 29.3386,125.7971" fill="none" id="Egui-to-Dev" style="stroke:#181818;stroke-width:1;"/><polygon fill="#181818" points="30.72,119.9583,24.7554,127.7956,29.5689,124.824,32.5405,129.6374,30.72,119.9583" style="stroke:#181818;stroke-width:1;"/><text fill="#000000" font-family="sans-serif" font-size="13" lengthAdjust="spacing" textLength="286.584" x="40.34" y="310.5166">centre-magnified diagram, collapsible panels</text></g><!--link Fisheye to GMN24--><g class="link" data-entity-1="ent0007" data-entity-2="ent0025" data-link-type="association" data-source-line="38" id="lnk26"><path d="M2043.42,415.2283 C2080.54,426.4383 2123.13,441.6883 2159.34,460.9183 C2195.12,479.9083 2231.26,508.2383 2257.29,530.6283" fill="none" id="Fisheye-GMN24" style="stroke:#181818;stroke-width:1;stroke-dasharray:7,7;"/></g><!--link Viewer to Launch--><g class="link" data-entity-1="ent0003" data-entity-2="ent0027" data-link-type="dependency" data-source-line="48" id="lnk30"><path d="M952.71,259.5683 C971.38,277.6783 995.58,301.0083 1017.34,321.4483 C1027.64,331.1283 1034.3983,337.4126 1044.9083,347.0526" fill="none" id="Viewer-to-Launch" style="stroke:#181818;stroke-width:1;"/><polygon fill="#181818" points="1049.33,351.1083,1045.4012,342.077,1045.6452,347.7285,1039.9937,347.9726,1049.33,351.1083" style="stroke:#181818;stroke-width:1;"/><text fill="#000000" font-family="sans-serif" font-size="13" lengthAdjust="spacing" textLength="259.981" x="1018.34" y="303.0166">open_render(slug) on "Open render" click</text><text fill="#000000" font-family="sans-serif" font-size="13" lengthAdjust="spacing" textLength="220.2065" x="1038.2272" y="318.3272">(UIC-OPEN-RENDER, view-tab row)</text></g><!--link Launch to Vite--><g class="link" data-entity-1="ent0027" data-entity-2="ent0028" data-link-type="dependency" data-source-line="49" id="lnk31"><path d="M1169.29,431.2983 C1230.78,462.5483 1310.4215,503.0193 1367.1915,531.8793" fill="none" id="Launch-to-Vite" style="stroke:#181818;stroke-width:1;"/><polygon fill="#181818" points="1372.54,534.5983,1366.3299,526.9541,1368.0829,532.3324,1362.7045,534.0854,1372.54,534.5983" style="stroke:#181818;stroke-width:1;"/><text fill="#000000" font-family="sans-serif" font-size="13" lengthAdjust="spacing" textLength="283.6641" x="1253.61" y="474.4866">spawn in mockups/ only if :4317 not serving</text></g><!--link Launch to Browser--><g class="link" data-entity-1="ent0027" data-entity-2="ent0029" data-link-type="dependency" data-source-line="50" id="lnk32"><path d="M950.01,431.3283 C883.89,451.3183 804.91,477.7783 736.34,507.9183 C713.63,517.8983 694.5509,528.3712 675.4009,539.8112" fill="none" id="Launch-to-Browser" style="stroke:#181818;stroke-width:1;"/><polygon fill="#181818" points="670.25,542.8883,680.0277,541.7066,674.5424,540.324,675.9249,534.8387,670.25,542.8883" style="stroke:#181818;stroke-width:1;"/><text fill="#000000" font-family="sans-serif" font-size="13" lengthAdjust="spacing" textLength="147.0815" x="852.35" y="474.4866">open /mockup/&lt;slug&gt;</text></g><?plantuml-src dLRRRXit47tVhnZunHAYjLAaG06b3UBAcyIeRAk-jIWC9DGkfMLDaGkIigmyzIFwBttlf_HBUdYHjMkbGDiNNvOpmvapXtFcaDwAgZS-c-QtfyLFnML-zQ6OJFhP8RqrVDwxkIh2GNvoUlp-ylZiAfnKt9PxFWCwkAuvySLAaAsvbAJdjAog_47mDJSZAhMKhB5Y9Zb9FdT38nQreojHyIbJNDe1CN9Qonapj1Qk9gNfizPBcgsSqogSbrmvRlAvUEGLpGKksd0gcNfWbgnZ2qwkPexMp3GMVt8oN5NSmDZnHxSod6Pyhl6hOK8veHO8gYe4RdnKmvO-05_Y0E5u4wDLNF85SnmHDRNgllvGd1L71m6JXEBPnVY7csa-ERuv7t_em7WnBSxpo-ByfBZiWjXn0Ogt0Iy2XCWf9g0RhYoIj4YaT2XcgSlxLNDewPApqgKYZ-YT0Lg-wdXELguM97m1HZpm18XUEKx3Q37yrfky6L1Zz0m6KfTCrjgwqTUlllfcGBPXQzpyIJLBCYk5G0-VIAY4RADpexLBjzaXLSAGLd93OXvC6cqS2Oj6EcBIS5PjK8Dv2BZ3GANAlEt55QBFsKewcXczjhwUK_MWxr7kR1DCF9DonsQeOKs75t1DbHycYb3lvdJSGVerSSN0k2hcjVPtRjErfXnk_uuu73dxIFnHM6TZMozclm9mO9TRq1GKNZPQWO8X5K_mRLherCrfulrVl_qUgsUetjN28b2vAK7xicPgmUqHNJynSpZN2DU8XakX_CSbY6dRB8kLvDFJQJ4vFIzU-sWr6hrZAX3MQnLnsgDdveJ3rRkNs4tKEnfRYuPwUbjiFyl0Acteu8G_S8aUcGF20yD_MRR3uE2igY9PxrIFXySp6XqtJJyOnvEs-GIFVlVSxzJPnKankQ9UQp14Ls_OThpi3ehaIUEBy-lYv-il10WExGZNSQmWp-dn-oAz8vt82XZk56RD9RVS3N_1n7aHVkOnMF9jXtltXS63s9tXv4TG392ism527HEsmLk4NsiQfb9u5LsdaxRNE5pdWOMJdunujqmDdkOW2CUMDdgERzkUiJiqZEFvvT6hby6em7yTc40eFpogbVJrFETImiCRPHd8G7d-9lMPHfvXuIbawOi_Z057eFK2ZugRZvxjjjUd5yIQHcu-UWhpNkaU-uH9LbF8CujkFe3F4Fxlu7R2vq899w04SByLTiMaRLyM-3MYoh0r38G2iNDUBVWJg8JdLqdUzedK-ZTE8RftcKvWx_HY8Rd_rkjdCSYpi_0HXsqqahYbwtfRVIjHdT7ITeot71i59ktfMBOzzxRZMvZD_Uocxu946exPZPzguUe16LQ9LGUg16iGGNnQSbk376897cVXp1lv3ezIk1n7Iim54gW4Mw1BWuwWDq71imoJ7XAhCOoNVZnkgK-xIJeAit5BMU5bhHAsaMoJEu6kHnN7lxvQEEgeDZE6LdYqXhYAO5w28if18o1lcaUDYVFLsyFnY_Erzy-35LeXNF1ReYel5IQ4sYfNRfYdiFZSMYQGViImEifmdK-2TqTaq9S9Mwco3dDoVqcuKq5yAKWk_Vb755rgIQx_w8LoAunnI8QOxRjQ7hZeLg0JtjaBBZS3If9Uhgid1TnEQjSPJljA7Co-ZtzddISNaW1BV7eV8-8zBwLztxU3baGVK2b5UO_4dadqe2Fh_Io5ZAF5UVv7FCHEk9zsZ0YPxtpQAjhUAT-KtBEDPu-f2SuMKMc_LtWZprUvaIUiSRcOvuhpoXE1WhpBrFFjQXLoVUsp5c4dUhOF-Q-6homiXHjuteDwPYt0UfpyzpqifQ6yTsV9IYqbh9LTI8xeNCSRi80u9kKdX621r7XOGbOvAYcvXTxLArTXSI1dM7cFvED2qsrttCWG0hN-tnqCtbXmPNXos6skYX_RsE-UtDy0?></g></svg>