<svg xmlns="http://www.w3.org/2000/svg" xmlns:xlink="http://www.w3.org/1999/xlink" contentStyleType="text/css" data-diagram-type="DESCRIPTION" height="773px" preserveAspectRatio="none" style="width:1561px;height:773px;background:#FFFFFF;" version="1.1" viewBox="0 0 1561 773" width="1561px" zoomAndPan="magnify"><?plantuml 1.2026.3?><defs/><g><g class="title" data-source-line="7"><text fill="#000000" font-family="sans-serif" font-size="14" font-weight="700" lengthAdjust="spacing" textLength="390.5918" x="582.1549" y="23.5352">mdd-viewer theming module &#8212; ownership (objective)</text></g><!--cluster External crates--><g class="cluster" data-qualified-name="External crates" data-source-line="14" id="ent0006"><path d="M1165.12,325.4383 L1273.4716,325.4383 A3.75,3.75 0 0 1 1275.9716,327.9383 L1282.9716,347.9266 L1487.12,347.9266 A2.5,2.5 0 0 1 1489.62,350.4266 L1489.62,436.9183 A2.5,2.5 0 0 1 1487.12,439.4183 L1165.12,439.4183 A2.5,2.5 0 0 1 1162.62,436.9183 L1162.62,327.9383 A2.5,2.5 0 0 1 1165.12,325.4383" fill="none" style="stroke:#000000;stroke-width:1.5;"/><line style="stroke:#000000;stroke-width:1.5;" x1="1162.62" x2="1282.9716" y1="347.9266" y2="347.9266"/><text fill="#000000" font-family="sans-serif" font-size="14" font-weight="700" lengthAdjust="spacing" textLength="107.3516" x="1166.62" y="340.9734">External crates</text></g><!--entity Catppuccin--><g class="entity" data-qualified-name="External crates.Catppuccin" data-source-line="15" id="ent0007"><rect fill="#F1F1F1" height="62.9766" rx="2.5" ry="2.5" style="stroke:#181818;stroke-width:0.5;" width="149.792" x="1178.72" y="360.4383"/><rect fill="#F1F1F1" height="10" style="stroke:#181818;stroke-width:0.5;" width="15" x="1308.512" y="365.4383"/><rect fill="#F1F1F1" height="2" style="stroke:#181818;stroke-width:0.5;" width="4" x="1306.512" y="367.4383"/><rect fill="#F1F1F1" height="2" style="stroke:#181818;stroke-width:0.5;" width="4" x="1306.512" y="371.4383"/><text fill="#000000" font-family="sans-serif" font-size="14" lengthAdjust="spacing" textLength="109.792" x="1193.72" y="393.9734">catppuccin_egui</text><text fill="#000000" font-family="sans-serif" font-size="14" lengthAdjust="spacing" textLength="21.8682" x="1193.72" y="410.4617">0.x</text></g><!--entity DarkLight--><g class="entity" data-qualified-name="External crates.DarkLight" data-source-line="16" id="ent0008"><rect fill="#F1F1F1" height="62.9766" rx="2.5" ry="2.5" style="stroke:#181818;stroke-width:0.5;" width="109.3027" x="1363.97" y="360.4383"/><rect fill="#F1F1F1" height="10" style="stroke:#181818;stroke-width:0.5;" width="15" x="1453.2727" y="365.4383"/><rect fill="#F1F1F1" height="2" style="stroke:#181818;stroke-width:0.5;" width="4" x="1451.2727" y="367.4383"/><rect fill="#F1F1F1" height="2" style="stroke:#181818;stroke-width:0.5;" width="4" x="1451.2727" y="371.4383"/><text fill="#000000" font-family="sans-serif" font-size="14" lengthAdjust="spacing" textLength="69.3027" x="1378.97" y="393.9734">dark-light</text><text fill="#000000" font-family="sans-serif" font-size="14" lengthAdjust="spacing" textLength="21.8682" x="1378.97" y="410.4617">1.x</text></g><!--entity Dev--><g class="entity" data-qualified-name="Dev" data-source-line="9" id="ent0002"><ellipse cx="550.6192" cy="691.9083" fill="#F1F1F1" rx="8" ry="8" style="stroke:#181818;stroke-width:0.5;"/><path d="M550.6192,699.9083 L550.6192,726.9083 M537.6192,707.9083 L563.6192,707.9083 M550.6192,726.9083 L537.6192,741.9083 M550.6192,726.9083 L563.6192,741.9083" fill="none" style="stroke:#181818;stroke-width:0.5;"/><text fill="#000000" font-family="sans-serif" font-size="14" lengthAdjust="spacing" textLength="68.3184" x="516.46" y="756.9434">Developer</text></g><!--entity Viewer--><g class="entity" data-qualified-name="Viewer" data-source-line="11" id="ent0003"><rect fill="#F1F1F1" height="62.9766" rx="2.5" ry="2.5" style="stroke:#181818;stroke-width:0.5;" width="132.5244" x="908.36" y="44.4883"/><rect fill="#F1F1F1" height="10" style="stroke:#181818;stroke-width:0.5;" width="15" x="1020.8844" y="49.4883"/><rect fill="#F1F1F1" height="2" style="stroke:#181818;stroke-width:0.5;" width="4" x="1018.8844" y="51.4883"/><rect fill="#F1F1F1" height="2" style="stroke:#181818;stroke-width:0.5;" width="4" x="1018.8844" y="55.4883"/><text fill="#000000" font-family="sans-serif" font-size="14" lengthAdjust="spacing" textLength="74.9971" x="923.36" y="78.0234">MddViewer</text><text fill="#000000" font-family="sans-serif" font-size="14" lengthAdjust="spacing" textLength="92.5244" x="923.36" y="94.5117">(eframe::App)</text></g><!--entity Theme--><g class="entity" data-qualified-name="Theme" data-source-line="12" id="ent0004"><rect fill="#F1F1F1" height="62.9766" rx="2.5" ry="2.5" style="stroke:#181818;stroke-width:0.5;" width="240.3135" x="854.46" y="199.4583"/><rect fill="#F1F1F1" height="10" style="stroke:#181818;stroke-width:0.5;" width="15" x="1074.7735" y="204.4583"/><rect fill="#F1F1F1" height="2" style="stroke:#181818;stroke-width:0.5;" width="4" x="1072.7735" y="206.4583"/><rect fill="#F1F1F1" height="2" style="stroke:#181818;stroke-width:0.5;" width="4" x="1072.7735" y="210.4583"/><text fill="#000000" font-family="sans-serif" font-size="14" lengthAdjust="spacing" textLength="59.8896" x="869.46" y="232.9934">theme.rs</text><text fill="#000000" font-family="sans-serif" font-size="14" lengthAdjust="spacing" textLength="200.3135" x="869.46" y="249.4817">register_fonts + apply_theme</text></g><!--entity Assets--><g class="entity" data-qualified-name="Assets" data-source-line="13" id="ent0005"><rect fill="#F1F1F1" height="95.9531" rx="2.5" ry="2.5" style="stroke:#181818;stroke-width:0.5;" width="216.4492" x="30.39" y="343.9483"/><rect fill="#F1F1F1" height="10" style="stroke:#181818;stroke-width:0.5;" width="15" x="226.8392" y="348.9483"/><rect fill="#F1F1F1" height="2" style="stroke:#181818;stroke-width:0.5;" width="4" x="224.8392" y="350.9483"/><rect fill="#F1F1F1" height="2" style="stroke:#181818;stroke-width:0.5;" width="4" x="224.8392" y="354.9483"/><text fill="#000000" font-family="sans-serif" font-size="14" lengthAdjust="spacing" textLength="101.5068" x="45.39" y="377.4834">Bundled assets</text><text fill="#000000" font-family="sans-serif" font-size="14" lengthAdjust="spacing" textLength="111.2139" x="45.39" y="393.9717">Inter-Regular.ttf</text><text fill="#000000" font-family="sans-serif" font-size="14" lengthAdjust="spacing" textLength="114.1123" x="45.39" y="410.46">Inter-Medium.ttf</text><text fill="#000000" font-family="sans-serif" font-size="14" lengthAdjust="spacing" textLength="176.4492" x="45.39" y="426.9483">JetBrainsMono-Regular.ttf</text></g><!--entity Ctx--><g class="entity" data-qualified-name="Ctx" data-source-line="18" id="ent0009"><rect fill="#F1F1F1" height="46.4883" rx="2.5" ry="2.5" style="stroke:#181818;stroke-width:0.5;" width="131.957" x="484.64" y="539.8883"/><rect fill="#F1F1F1" height="10" style="stroke:#181818;stroke-width:0.5;" width="15" x="596.597" y="544.8883"/><rect fill="#F1F1F1" height="2" style="stroke:#181818;stroke-width:0.5;" width="4" x="594.597" y="546.8883"/><rect fill="#F1F1F1" height="2" style="stroke:#181818;stroke-width:0.5;" width="4" x="594.597" y="550.8883"/><text fill="#000000" font-family="sans-serif" font-size="14" lengthAdjust="spacing" textLength="91.957" x="499.64" y="573.4234">egui::Context</text></g><g class="entity" data-qualified-name="GMN19" data-source-line="31" id="ent0020"><path d="M847.52,340.9983 L847.52,442.8616 A0,0 0 0 0 847.52,442.8616 L1143.7163,442.8616 A0,0 0 0 0 1143.7163,442.8616 L1143.7163,350.9983 L1133.7163,340.9983 L992.98,340.9983 L978.67,262.5983 L984.98,340.9983 L847.52,340.9983 A0,0 0 0 0 847.52,340.9983" fill="#FEFFDD" style="stroke:#181818;stroke-width:0.5;"/><path d="M1133.7163,340.9983 L1133.7163,350.9983 L1143.7163,350.9983 L1133.7163,340.9983" fill="#FEFFDD" style="stroke:#181818;stroke-width:0.5;"/><text fill="#000000" font-family="sans-serif" font-size="13" lengthAdjust="spacing" textLength="253.2207" x="853.52" y="358.5666">Pure chrome boundary: theme.rs has no</text><text fill="#000000" font-family="sans-serif" font-size="13" lengthAdjust="spacing" textLength="275.1963" x="853.52" y="373.8772">knowledge of ModelRegistry, CycleRegistry,</text><text fill="#000000" font-family="sans-serif" font-size="13" lengthAdjust="spacing" textLength="246.0986" x="853.52" y="389.1877">CanvasView, or PanelLayout. Adding or</text><text fill="#000000" font-family="sans-serif" font-size="13" lengthAdjust="spacing" textLength="267.6807" x="853.52" y="404.4983">removing it does not change any model or</text><text fill="#000000" font-family="sans-serif" font-size="13" lengthAdjust="spacing" textLength="245.7686" x="853.52" y="419.8088">any rendered SVG; it only changes how</text><text fill="#000000" font-family="sans-serif" font-size="13" lengthAdjust="spacing" textLength="126.9849" x="853.52" y="435.1194">egui paints widgets.</text></g><g class="entity" data-qualified-name="GMN22" data-source-line="40" id="ent0023"><path d="M6,519.8583 L6,606.411 A0,0 0 0 0 6,606.411 L271.2388,606.411 A0,0 0 0 0 271.2388,606.411 L271.2388,529.8583 L261.2388,519.8583 L142.62,519.8583 L138.62,440.0583 L134.62,519.8583 L6,519.8583 A0,0 0 0 0 6,519.8583" fill="#FEFFDD" style="stroke:#181818;stroke-width:0.5;"/><path d="M261.2388,519.8583 L261.2388,529.8583 L271.2388,529.8583 L261.2388,519.8583" fill="#FEFFDD" style="stroke:#181818;stroke-width:0.5;"/><text fill="#000000" font-family="sans-serif" font-size="13" lengthAdjust="spacing" textLength="192.0103" x="12" y="537.4266">TTFs ship inside the binary via</text><text fill="#000000" font-family="sans-serif" font-size="13" lengthAdjust="spacing" textLength="227.7983" x="12" y="552.7372">include_bytes!. Licences (SIL OFL for</text><text fill="#000000" font-family="sans-serif" font-size="13" lengthAdjust="spacing" textLength="209.7837" x="12" y="568.0477">Inter, OFL for JetBrains Mono) are</text><text fill="#000000" font-family="sans-serif" font-size="13" lengthAdjust="spacing" textLength="244.2388" x="12" y="583.3583">carried alongside the assets and noted</text><text fill="#000000" font-family="sans-serif" font-size="13" lengthAdjust="spacing" textLength="137.0269" x="12" y="598.6688">in the crate's NOTICE.</text></g><!--link Viewer to Theme--><g class="link" data-entity-1="ent0003" data-entity-2="ent0004" data-link-type="dependency" data-source-line="20" id="lnk10"><path d="M974.62,107.9283 C974.62,134.4683 974.62,166.5083 974.62,193.0383" fill="none" id="Viewer-to-Theme" style="stroke:#181818;stroke-width:1;"/><polygon fill="#181818" points="974.62,199.0383,978.62,190.0383,974.62,194.0383,970.62,190.0383,974.62,199.0383" style="stroke:#181818;stroke-width:1;"/><text fill="#000000" font-family="sans-serif" font-size="13" lengthAdjust="spacing" textLength="59.1094" x="988.2487" y="151.0266">construct</text><text fill="#000000" font-family="sans-serif" font-size="13" lengthAdjust="spacing" textLength="84.3667" x="975.62" y="166.3372">+ each frame</text></g><!--link Theme to Assets--><g class="link" data-entity-1="ent0004" data-entity-2="ent0005" data-link-type="dependency" data-source-line="21" id="lnk11"><path d="M854.16,235.3483 C650.07,241.9783 253.03,259.0283 198.62,292.4383 C179.51,304.1683 168.3199,319.12 158.7599,338.27" fill="none" id="Theme-to-Assets" style="stroke:#181818;stroke-width:1;"/><polygon fill="#181818" points="156.08,343.6383,163.6787,337.3725,158.3133,339.1647,156.521,333.7993,156.08,343.6383" style="stroke:#181818;stroke-width:1;"/><text fill="#000000" font-family="sans-serif" font-size="13" lengthAdjust="spacing" textLength="90.0542" x="199.62" y="306.0066">include_bytes!</text></g><!--link Theme to Ctx--><g class="link" data-entity-1="ent0004" data-entity-2="ent0009" data-link-type="dependency" data-source-line="22" id="lnk12"><path d="M854.14,239.8183 C680.4,252.4183 376.6,279.5883 343.62,317.4383 C305.67,360.9883 314.3,397.6383 343.62,447.4183 C373.75,498.5683 430.1376,526.602 478.4876,542.992" fill="none" id="Theme-to-Ctx" style="stroke:#181818;stroke-width:1;"/><polygon fill="#181818" points="484.17,544.9183,476.9306,538.2406,479.4347,543.3131,474.3622,545.8172,484.17,544.9183" style="stroke:#181818;stroke-width:1;"/><text fill="#000000" font-family="sans-serif" font-size="13" lengthAdjust="spacing" textLength="162.5381" x="344.62" y="396.9966">set_fonts(FontDefinitions)</text></g><!--link Theme to Ctx--><g class="link" data-entity-1="ent0004" data-entity-2="ent0009" data-link-type="dependency" data-source-line="27" id="lnk17"><path d="M854.01,241.4283 C747.88,252.4783 604.64,274.9383 567.62,317.4383 C512.38,380.8583 530.7956,486.2397 542.7556,533.7597" fill="none" id="Theme-to-Ctx-1" style="stroke:#181818;stroke-width:1;"/><polygon fill="#181818" points="544.22,539.5783,545.9024,529.8742,542.9996,534.7295,538.1443,531.8268,544.22,539.5783" style="stroke:#181818;stroke-width:1;"/><text fill="#000000" font-family="sans-serif" font-size="13" lengthAdjust="spacing" textLength="260.6284" x="568.62" y="396.9966">style_mut() spacing + rounding overrides</text></g><!--link Theme to DarkLight--><g class="link" data-entity-1="ent0004" data-entity-2="ent0008" data-link-type="dependency" data-source-line="23" id="lnk13"><path d="M1094.97,253.9383 C1140.29,263.6983 1191.91,276.5983 1237.62,292.4383 C1254.34,298.2283 1256.59,304.6183 1273.62,309.4383 C1304.6,318.2083 1316.62,303.4383 1345.62,317.4383 C1365.7,327.1283 1379.611,340.0755 1392.581,355.5855" fill="none" id="Theme-to-DarkLight" style="stroke:#181818;stroke-width:1;"/><polygon fill="#181818" points="1396.43,360.1883,1393.725,350.7182,1393.2225,356.3527,1387.588,355.8501,1396.43,360.1883" style="stroke:#181818;stroke-width:1;"/><text fill="#000000" font-family="sans-serif" font-size="13" lengthAdjust="spacing" textLength="121.5386" x="1274.62" y="306.0066">detect() each frame</text></g><!--link DarkLight to Theme--><g class="link" data-entity-1="ent0008" data-entity-2="ent0004" data-link-type="dependency" data-source-line="24" id="lnk14"><path d="M1421.67,360.3683 C1422.06,338.3783 1418.54,309.6583 1400.62,292.4383 C1358.04,251.5183 1211.5255,238.3018 1101.1355,234.0018" fill="none" id="DarkLight-to-Theme" style="stroke:#181818;stroke-width:1;"/><polygon fill="#181818" points="1095.14,233.7683,1103.9775,238.1156,1100.1362,233.9629,1104.2889,230.1216,1095.14,233.7683" style="stroke:#181818;stroke-width:1;"/><text fill="#000000" font-family="sans-serif" font-size="13" lengthAdjust="spacing" textLength="133.3516" x="1412.55" y="306.0066">Dark | Light | Default</text></g><!--link Theme to Catppuccin--><g class="link" data-entity-1="ent0004" data-entity-2="ent0007" data-link-type="dependency" data-source-line="25" id="lnk15"><path d="M988.06,262.6083 C997.2,279.5083 1011.02,299.1083 1029.62,309.4383 C1055.31,323.7083 1134.19,306.8883 1161.62,317.4383 C1185.47,326.6083 1203.5852,340.242 1220.3652,355.992" fill="none" id="Theme-to-Catppuccin" style="stroke:#181818;stroke-width:1;"/><polygon fill="#181818" points="1224.74,360.0983,1220.9153,351.0224,1221.0943,356.6764,1215.4403,356.8554,1224.74,360.0983" style="stroke:#181818;stroke-width:1;"/><text fill="#000000" font-family="sans-serif" font-size="13" lengthAdjust="spacing" textLength="202.2427" x="1030.62" y="306.0066">set_theme(ctx, MOCHA | LATTE)</text></g><!--link Catppuccin to Ctx--><g class="link" data-entity-1="ent0007" data-entity-2="ent0009" data-link-type="dependency" data-source-line="26" id="lnk16"><path d="M1208.87,423.6683 C1194.34,432.4783 1177.78,441.3283 1161.62,447.4183 C971.73,518.9183 737.1971,546.7446 622.8271,556.7646" fill="none" id="Catppuccin-to-Ctx" style="stroke:#181818;stroke-width:1;"/><polygon fill="#181818" points="616.85,557.2883,626.1648,560.4875,621.8309,556.8519,625.4666,552.5181,616.85,557.2883" style="stroke:#181818;stroke-width:1;"/><text fill="#000000" font-family="sans-serif" font-size="13" lengthAdjust="spacing" textLength="107.0405" x="1082.68" y="486.4266">style.visuals = ...</text></g><!--link Ctx to Dev--><g class="link" data-entity-1="ent0009" data-entity-2="ent0002" data-link-type="dependency" data-source-line="28" id="lnk18"><path d="M550.62,586.5583 C550.62,611.7483 550.62,647.0383 550.62,677.1583" fill="none" id="Ctx-to-Dev" style="stroke:#181818;stroke-width:1;"/><polygon fill="#181818" points="550.62,683.1583,554.62,674.1583,550.62,678.1583,546.62,674.1583,550.62,683.1583" style="stroke:#181818;stroke-width:1;"/><text fill="#000000" font-family="sans-serif" font-size="13" lengthAdjust="spacing" textLength="248.5933" x="551.62" y="649.9766">themed panels, toolbar, canvas chrome</text></g><?plantuml-src PLNDRY974BxFKrIu66HcahrwbMXPm5aYOriswrmieMQwW8wRxb5t3nZjHif3v0dp9Fcw1yEmli1CrLV_NzLSq2SbkyFfVVuq6VyvViXdNyRJSI-xe4-EbzslZ-CpnIXf9FlodKsVEWColAEmveqoAzfOMMicPRoI7AMqaJBVAjwnezA948KYaDqPdzIBsaZDahvEQ6bD8E4z1q_2oAIksELB9pPCTu-vg2eMJfYIywNLskvYnA48LLMNfJ8f2IxeldPCvTfPMFttpx-a0acks4XFrX2lQWMai_LgJUNHU9xaCQnDZX3lY9B2lUHQhTQXZtm32jwYcc3hSirD5OzFlvD317O_foegLR5MXejExDtTuYykWzfodhfIsarb3GCM-uAoNV8nKwZrmx6JvLgO5QgP17Zm2ZrPSDWn6vfA-TGqDAORyxww6Y8gluQFr9hGm_XsXB_xoVtuPd8xXflkMwunZnufZq459AAi4LhloTX0gO_GI2LMQ7oH1HNqsHX_c7LiCSR9pgzLHLtxLcmloqGPK5ndX7vfYr5sC5x2MvQTUj0vblDikfncVNKrgAfU0ZUQDhmPilFFnl5A-S1k7blkwPB03xsV9q0odiMdjktd0zaQaZsR2Qft-GDQg8KhGbY-YQOiLRrf97zm-Em463srnhR1ASOWkSegKRw85LDd_0fxTBCXk-_GjunQ4-_ymBXdyqlncXoTU7nkS2BVi_bmm8uWkucYxEzsUMTKQ9o6romxa2NFVsiwGbVmRtnmTGcVbyIYN5DgVDRe8xAf2r1bIbrBdY_sAEUd5WA-eGQgwN_t6hyZNYgZ8fzyhmKzvWi3oG7ywFRQOK_wTf9HIj-fKNm7RvQYrg6TmMdrcqJIwBjbUEtJz6xuPH2j1xCPJbiBsiezx3KNM-LheJtzIaLHlAylOkQREcRiCUL8_4l2NJ0oFbfS0eTbybc4frfv2xEKYQHA6DQ-ZrjXzKAuFWwEsM8kpNNACYmSJg0DmMx8BW-4fRCBjeYXXDiVV8Bvj8O7Ou5xCNO7FeDtC9vQoVeXxOJRzscuBpKVNm4Ufj2H37t2Ljx7r6x4tjQXe85igd70ETxORNoBTzEoJrUXkKOuEFkuzgmRQ7njpXvgnLtv66simILfy4ZLxe1BjxN23e5HEuLyWoyos4NNxxjmM2cYsUpQKxeghU_9GXbq0wTJ075EpW9SAHcV1q_TnyaDtLtVnEiANDhg_fk0ZYjDSQTx95piUYamodWTj3MhOxpM1odcALFKf4aRVk7fzcus6OvF1VqF?></g></svg>