<svg xmlns="http://www.w3.org/2000/svg" xmlns:xlink="http://www.w3.org/1999/xlink" contentStyleType="text/css" data-diagram-type="SALT" height="334px" preserveAspectRatio="none" style="width:1143px;height:334px;background:#FFFFFF;" version="1.1" viewBox="0 0 1143 334" width="1143px" zoomAndPan="magnify"><?plantuml 1.2026.3?><defs/><g><g class="title" data-source-line="12"><text fill="#000000" font-family="sans-serif" font-size="14" font-weight="700" lengthAdjust="spacing" textLength="325.1787" x="408.0728" y="28.5352">mdd viewer &#8212; cycle-aware layout (objective)</text></g><text fill="#000000" font-family="sans-serif" font-size="12" lengthAdjust="spacing" textLength="26.3086" x="7" y="56.0898">mdd</text><text fill="#000000" font-family="sans-serif" font-size="12" lengthAdjust="spacing" textLength="97.6582" x="35.3086" y="56.0898">/path/to/project</text><line style="stroke:#AAAAAA;stroke-width:1;" x1="6" x2="1137.3242" y1="65.1211" y2="65.1211"/><text fill="#000000" font-family="sans-serif" font-size="12" lengthAdjust="spacing" textLength="62.0625" x="11" y="83.2227">DIAGRAMS</text><line style="stroke:#000000;stroke-width:1;" x1="9" x2="76" y1="85.7539" y2="85.7539"/><line style="stroke:#000000;stroke-width:1;" x1="9" x2="9" y1="82.7539" y2="84.7539"/><line style="stroke:#000000;stroke-width:1;" x1="76" x2="76" y1="82.7539" y2="84.7539"/><rect fill="#EEEEEE" height="18.1328" rx="5" ry="5" style="stroke:#000000;stroke-width:2.5;" width="76" x="10.5" y="92.2539"/><text fill="#000000" font-family="sans-serif" font-size="12" lengthAdjust="spacing" textLength="53.2383" x="21.8809" y="105.8555">Directory</text><rect fill="#EEEEEE" height="18.1328" rx="5" ry="5" style="stroke:#000000;stroke-width:2.5;" width="68" x="234.9746" y="92.2539"/><text fill="#000000" font-family="sans-serif" font-size="12" lengthAdjust="spacing" textLength="45.6855" x="246.1318" y="105.8555">By cycle</text><text fill="#000000" font-family="sans-serif" font-size="12" lengthAdjust="spacing" textLength="78.7969" x="18" y="126.4883">.mdd/models</text><text fill="#000000" font-family="sans-serif" font-size="12" lengthAdjust="spacing" textLength="42.0352" x="28" y="140.6211">current</text><text fill="#000000" font-family="sans-serif" font-size="12" lengthAdjust="spacing" textLength="43.6699" x="38" y="154.7539">domain</text><text fill="#000000" font-family="sans-serif" font-size="12" font-weight="700" lengthAdjust="spacing" textLength="180.4746" x="48" y="168.8867">canvas-view.puml  (selected)</text><text fill="#000000" font-family="sans-serif" font-size="12" lengthAdjust="spacing" textLength="58.8867" x="38" y="183.0195">use-cases</text><text fill="#000000" font-family="sans-serif" font-size="12" lengthAdjust="spacing" textLength="52.2598" x="28" y="197.1523">objective</text><rect fill="none" height="2" style="stroke:#888888;stroke-width:1;" width="2" x="11" y="120.9531"/><rect fill="none" height="2" style="stroke:#888888;stroke-width:1;" width="2" x="21" y="135.0859"/><line style="stroke:#888888;stroke-width:1;" x1="12" x2="12" y1="123.9531" y2="136.0859"/><line style="stroke:#888888;stroke-width:1;" x1="12" x2="20" y1="136.0859" y2="136.0859"/><rect fill="none" height="2" style="stroke:#888888;stroke-width:1;" width="2" x="31" y="149.2188"/><line style="stroke:#888888;stroke-width:1;" x1="22" x2="22" y1="138.0859" y2="150.2188"/><line style="stroke:#888888;stroke-width:1;" x1="22" x2="30" y1="150.2188" y2="150.2188"/><line style="stroke:#888888;stroke-width:1;" x1="32" x2="32" y1="152.2188" y2="164.3516"/><line style="stroke:#888888;stroke-width:1;" x1="32" x2="40" y1="164.3516" y2="164.3516"/><line style="stroke:#888888;stroke-width:1;" x1="22" x2="22" y1="138.0859" y2="178.4844"/><line style="stroke:#888888;stroke-width:1;" x1="22" x2="30" y1="178.4844" y2="178.4844"/><line style="stroke:#888888;stroke-width:1;" x1="12" x2="12" y1="123.9531" y2="192.6172"/><line style="stroke:#888888;stroke-width:1;" x1="12" x2="20" y1="192.6172" y2="192.6172"/><rect fill="#EEEEEE" height="18.1328" rx="5" ry="5" style="stroke:#000000;stroke-width:2.5;" width="60" x="312.9746" y="75.1211"/><text fill="#000000" font-family="sans-serif" font-size="12" lengthAdjust="spacing" textLength="49.3066" x="318.3213" y="88.7227">Diagram</text><rect fill="#EEEEEE" height="18.1328" rx="5" ry="5" style="stroke:#000000;stroke-width:2.5;" width="44" x="379.9746" y="75.1211"/><ellipse cx="390.834" cy="83.7539" fill="#000000" rx="2.5" ry="2.5"/><text fill="#000000" font-family="sans-serif" font-size="12" lengthAdjust="spacing" textLength="21.2813" x="397.334" y="88.7227">Diff</text><text fill="#000000" font-family="sans-serif" font-size="12" lengthAdjust="spacing" textLength="137.9355" x="309.4746" y="110.3555">"CYCLE:  [*0002 closed]</text><text fill="#000000" font-family="sans-serif" font-size="12" lengthAdjust="spacing" textLength="83.7773" x="677.4746" y="110.3555">[0001 closed]"</text><text fill="#000000" font-family="sans-serif" font-size="12" lengthAdjust="spacing" textLength="108.1758" x="309.4746" y="126.4883">"view:   [*Diagram]</text><text fill="#000000" font-family="sans-serif" font-size="12" lengthAdjust="spacing" textLength="32.7598" x="677.4746" y="126.4883">[List]"</text><line style="stroke:#AAAAAA;stroke-width:1;" x1="309.4746" x2="676.4746" y1="134.5195" y2="134.5195"/><text fill="#000000" font-family="sans-serif" font-size="12" lengthAdjust="spacing" textLength="267.252" x="312.4746" y="150.6211">canvas-view.puml &#8212; cycle 0002 (superposed)</text><line style="stroke:#000000;stroke-width:1;" x1="310.4746" x2="649.4746" y1="153.1523" y2="153.1523"/><line style="stroke:#000000;stroke-width:1;" x1="310.4746" x2="310.4746" y1="150.1523" y2="152.1523"/><line style="stroke:#000000;stroke-width:1;" x1="649.4746" x2="649.4746" y1="150.1523" y2="152.1523"/><text fill="#000000" font-family="sans-serif" font-size="12" lengthAdjust="spacing" textLength="142.4766" x="313.4746" y="169.7539">shared element (neutral)</text><line style="stroke:#000000;stroke-width:1;" x1="311.4746" x2="506.4746" y1="172.2852" y2="172.2852"/><line style="stroke:#000000;stroke-width:1;" x1="311.4746" x2="311.4746" y1="169.2852" y2="171.2852"/><line style="stroke:#000000;stroke-width:1;" x1="506.4746" x2="506.4746" y1="169.2852" y2="171.2852"/><text fill="#008000" font-family="sans-serif" font-size="12" lengthAdjust="spacing" textLength="124.7578" x="313.4746" y="187.8867">+ added by this cycle</text><line style="stroke:#000000;stroke-width:1;" x1="311.4746" x2="482.4746" y1="190.418" y2="190.418"/><line style="stroke:#000000;stroke-width:1;" x1="311.4746" x2="311.4746" y1="187.418" y2="189.418"/><line style="stroke:#000000;stroke-width:1;" x1="482.4746" x2="482.4746" y1="187.418" y2="189.418"/><text fill="#FF0000" font-family="sans-serif" font-size="12" lengthAdjust="spacing" textLength="136.8105" x="313.4746" y="206.0195">- removed by this cycle</text><line style="stroke:#000000;stroke-width:1;" x1="311.4746" x2="498.4746" y1="208.5508" y2="208.5508"/><line style="stroke:#000000;stroke-width:1;" x1="311.4746" x2="311.4746" y1="205.5508" y2="207.5508"/><line style="stroke:#000000;stroke-width:1;" x1="498.4746" x2="498.4746" y1="205.5508" y2="207.5508"/><text fill="#000000" font-family="sans-serif" font-size="12" lengthAdjust="spacing" textLength="282.0117" x="312.4746" y="241.2852">[ superposed diff diagram canvas &#8212; pan/zoom ]</text><line style="stroke:#000000;stroke-width:1;" x1="310.4746" x2="673.4746" y1="243.8164" y2="243.8164"/><line style="stroke:#000000;stroke-width:1;" x1="310.4746" x2="310.4746" y1="240.8164" y2="242.8164"/><line style="stroke:#000000;stroke-width:1;" x1="673.4746" x2="673.4746" y1="240.8164" y2="242.8164"/><text fill="#000000" font-family="sans-serif" font-size="12" lengthAdjust="spacing" textLength="263.9004" x="312.4746" y="275.5508">(List view here = added/removed/unchanged</text><line style="stroke:#000000;stroke-width:1;" x1="310.4746" x2="641.4746" y1="278.082" y2="278.082"/><line style="stroke:#000000;stroke-width:1;" x1="310.4746" x2="310.4746" y1="275.082" y2="277.082"/><line style="stroke:#000000;stroke-width:1;" x1="641.4746" x2="641.4746" y1="275.082" y2="277.082"/><text fill="#000000" font-family="sans-serif" font-size="12" lengthAdjust="spacing" textLength="234.0117" x="312.4746" y="293.6836">text buckets for canvas-view.puml only)</text><line style="stroke:#000000;stroke-width:1;" x1="310.4746" x2="633.4746" y1="296.2148" y2="296.2148"/><line style="stroke:#000000;stroke-width:1;" x1="310.4746" x2="310.4746" y1="293.2148" y2="295.2148"/><line style="stroke:#000000;stroke-width:1;" x1="633.4746" x2="633.4746" y1="293.2148" y2="295.2148"/><text fill="#000000" font-family="sans-serif" font-size="12" lengthAdjust="spacing" textLength="101.0273" x="768.252" y="83.2227">MODEL CONTEXT</text><line style="stroke:#000000;stroke-width:1;" x1="766.252" x2="873.252" y1="85.7539" y2="85.7539"/><line style="stroke:#000000;stroke-width:1;" x1="766.252" x2="766.252" y1="82.7539" y2="84.7539"/><line style="stroke:#000000;stroke-width:1;" x1="873.252" x2="873.252" y1="82.7539" y2="84.7539"/><line style="stroke:#AAAAAA;stroke-width:1;" x1="765.252" x2="1135.3242" y1="93.2539" y2="93.2539"/><text fill="#000000" font-family="sans-serif" font-size="12" lengthAdjust="spacing" textLength="18.0352" x="768.252" y="109.3555">file</text><line style="stroke:#000000;stroke-width:1;" x1="766.252" x2="801.252" y1="111.8867" y2="111.8867"/><line style="stroke:#000000;stroke-width:1;" x1="766.252" x2="766.252" y1="108.8867" y2="110.8867"/><line style="stroke:#000000;stroke-width:1;" x1="801.252" x2="801.252" y1="108.8867" y2="110.8867"/><text fill="#000000" font-family="sans-serif" font-size="12" lengthAdjust="spacing" textLength="203.4902" x="766.252" y="128.4883">current/domain/canvas-view.puml</text><text fill="#000000" font-family="sans-serif" font-size="12" lengthAdjust="spacing" textLength="25.4824" x="768.252" y="145.6211">kind</text><line style="stroke:#000000;stroke-width:1;" x1="766.252" x2="801.252" y1="148.1523" y2="148.1523"/><line style="stroke:#000000;stroke-width:1;" x1="766.252" x2="766.252" y1="145.1523" y2="147.1523"/><line style="stroke:#000000;stroke-width:1;" x1="801.252" x2="801.252" y1="145.1523" y2="147.1523"/><text fill="#000000" font-family="sans-serif" font-size="12" lengthAdjust="spacing" textLength="43.6699" x="766.252" y="164.7539">domain</text><text fill="#000000" font-family="sans-serif" font-size="12" lengthAdjust="spacing" textLength="118.6406" x="769.252" y="197.0195">DOM-CANVAS-VIEW</text><line style="stroke:#000000;stroke-width:1;" x1="767.252" x2="890.252" y1="199.5508" y2="199.5508"/><line style="stroke:#000000;stroke-width:1;" x1="767.252" x2="767.252" y1="196.5508" y2="198.5508"/><line style="stroke:#000000;stroke-width:1;" x1="890.252" x2="890.252" y1="196.5508" y2="198.5508"/><text fill="#000000" font-family="sans-serif" font-size="12" lengthAdjust="spacing" textLength="238.7988" x="769.252" y="215.1523">Code struct CanvasView: base zoom/pan</text><line style="stroke:#000000;stroke-width:1;" x1="767.252" x2="1066.252" y1="217.6836" y2="217.6836"/><line style="stroke:#000000;stroke-width:1;" x1="767.252" x2="767.252" y1="214.6836" y2="216.6836"/><line style="stroke:#000000;stroke-width:1;" x1="1066.252" x2="1066.252" y1="214.6836" y2="216.6836"/><text fill="#000000" font-family="sans-serif" font-size="12" lengthAdjust="spacing" textLength="219.0996" x="769.252" y="233.2852">plus the center-fixed fisheye params.</text><line style="stroke:#000000;stroke-width:1;" x1="767.252" x2="1066.252" y1="235.8164" y2="235.8164"/><line style="stroke:#000000;stroke-width:1;" x1="767.252" x2="767.252" y1="232.8164" y2="234.8164"/><line style="stroke:#000000;stroke-width:1;" x1="1066.252" x2="1066.252" y1="232.8164" y2="234.8164"/><line style="stroke:#000000;stroke-width:1;" x1="765.252" x2="1069.252" y1="177.3516" y2="177.3516"/><line style="stroke:#000000;stroke-width:1;" x1="765.252" x2="1069.252" y1="238.8164" y2="238.8164"/><line style="stroke:#000000;stroke-width:1;" x1="765.252" x2="765.252" y1="177.3516" y2="202.5508"/><line style="stroke:#000000;stroke-width:1;" x1="1069.252" x2="1069.252" y1="202.5508" y2="220.6836"/><line style="stroke:#000000;stroke-width:1;" x1="1069.252" x2="1069.252" y1="177.3516" y2="202.5508"/><line style="stroke:#000000;stroke-width:1;" x1="765.252" x2="765.252" y1="220.6836" y2="238.8164"/><line style="stroke:#000000;stroke-width:1;" x1="765.252" x2="765.252" y1="202.5508" y2="220.6836"/><line style="stroke:#000000;stroke-width:1;" x1="1069.252" x2="1069.252" y1="220.6836" y2="238.8164"/><rect fill="#FFFFFF" height="14.1328" style="stroke:#FFFFFF;stroke-width:1;" width="77.168" x="771.252" y="170.2852"/><text fill="#000000" font-family="sans-serif" font-size="12" lengthAdjust="spacing" textLength="77.168" x="771.252" y="181.8867">DESCRIPTION</text><text fill="#000000" font-family="sans-serif" font-size="12" lengthAdjust="spacing" textLength="18.9082" x="768.252" y="266.5508">IDS</text><line style="stroke:#000000;stroke-width:1;" x1="766.252" x2="793.252" y1="269.082" y2="269.082"/><line style="stroke:#000000;stroke-width:1;" x1="766.252" x2="766.252" y1="266.082" y2="268.082"/><line style="stroke:#000000;stroke-width:1;" x1="793.252" x2="793.252" y1="266.082" y2="268.082"/><text fill="#000000" font-family="sans-serif" font-size="12" lengthAdjust="spacing" textLength="118.6406" x="766.252" y="285.6836">DOM-CANVAS-VIEW</text><text fill="#000000" font-family="sans-serif" font-size="12" lengthAdjust="spacing" textLength="38.2617" x="768.252" y="302.8164">TRACE</text><line style="stroke:#000000;stroke-width:1;" x1="766.252" x2="809.252" y1="305.3477" y2="305.3477"/><line style="stroke:#000000;stroke-width:1;" x1="766.252" x2="766.252" y1="302.3477" y2="304.3477"/><line style="stroke:#000000;stroke-width:1;" x1="809.252" x2="809.252" y1="302.3477" y2="304.3477"/><text fill="#000000" font-family="sans-serif" font-size="12" lengthAdjust="spacing" textLength="367.0723" x="766.252" y="321.9492">SEQ-CANVAS-FISHEYE -&gt; depends_on -&gt; DOM-CANVAS-VIEW</text><?plantuml-src xLLRR-9657xdLnpniX0m9gcqMh4f2ckS5fM4baksgoYj1dl0qvWPTsOCox98_H7zXVqbFJE-066blbTvmDXpldFxpcLkb2PIAnBhoXkuOM7jpll9UHZu7_snuttoXhup6zIDID95RJRndG_ZqKVycuvz_-IyFxYznKVlXt7lpWfIvgmPtIH2wbf8rRCMIVFowbsx-QxTDe0XsOfKEuB7Mr0n2oYWAIefnxUQcFz10ytMjDw1aCPiJYNH597t8sjPeYe5maFW8dT6OxgYNBTWnaCgGKSKz4Ou2QO7An4yfma4WgyHmWItuaqaOkfi60_51cO3pq5B2D6I11gO0h7XD8Jv5euukPqDXqVXkPbbvPfKgNGMQHotadGLrvjeR1En88A0ICceiYwpk1imfiO79ekXlaS9Uiium79i5H28BJjeuq2A4ZP8OA72qnLX75BE_amf99YlOY5jLTuOCf3ju5jrR49rN5hB7C12P5G5sm2v81iYAMIvT41BYX4J5iE6wGX29Z5f8RUk1OCMosLCtqEVBHR8S4XXBbAiY1RMeiA211e9pD2cLfO1jEUKiWMBQJCpJpWmpZ6JFYDBILRka2cTEsaY8qkCXhiIbMAwHEAQcPSKaq-4mkCmqqE--PgePkdnRjJtX-2DxgV-hrDJZR1LhLSqqnZLAWppTE6Vl_u-OI4dwAWLAxiAmCxgV0Kt8JfojN0JAGm0zYXq78F0N_44gEOpCQdc1u_zWiSdDFFuOPjvVSh5ksd-0jWcBVJb6cfZTJXjG91ABA8-Ecf0A4n771yru7hUpSYmasZx4g1Ma5y_qKyLTGAYw8cZClVyS6__z_3r9CMToSboRpEwC0tnb6EH0Dj-7KpyejrkNq4GcsfP97vV5jy5FLKJQiVmT75ir3H3YR4qM_1PUcKLmJgh7VgZNcZloWohAYAceVBL0JLEKvp-k8GYv3eGiP0TsttT1f0mp7Q2dLdhwTgraEwv4jhkEcPMnVg_b0gsMaLcZwUjZIDssjysquHmzuiGAoYfAVLhTdmCCH3XoCFtMUXk7esRyY0YV4d3adZGzBE6UHeyKwtiOZXZrophd9oNJL0z6RFpIfb9BojGTB2RTQrxvgXidcVSpWUr35vATxzL-_x46mz-dWv6zqVyzqTtZjUxV-XDx0uyadXcJoajKvnOptfziFqsnzO7GoNEDJ_29t6QRUu0mpKBddssQqj5T8kBbs11LEjb4Qk3_kGGz8jW3gZfkEVv1zp4_wN0tGucF_gVV72wUFibkEpKxtXduTUtRPddlhAlt1YakSehDuTh_NNHlIwwrqNtkkZ-dulkidNLldhR-kvV?></g></svg>