<svg xmlns="http://www.w3.org/2000/svg" xmlns:xlink="http://www.w3.org/1999/xlink" contentStyleType="text/css" data-diagram-type="SALT" height="352px" preserveAspectRatio="none" style="width:925px;height:352px;background:#FFFFFF;" version="1.1" viewBox="0 0 925 352" width="925px" zoomAndPan="magnify"><?plantuml 1.2026.3?><defs/><g><g class="title" data-source-line="15"><text fill="#000000" font-family="sans-serif" font-size="14" font-weight="700" lengthAdjust="spacing" textLength="325.1787" x="299.3569" y="28.5352">mdd viewer &#8212; cycle-aware layout (objective)</text></g><text fill="#000000" font-family="sans-serif" font-size="12" lengthAdjust="spacing" textLength="26.3086" x="7" y="56.0898">mdd</text><text fill="#000000" font-family="sans-serif" font-size="12" lengthAdjust="spacing" textLength="97.6582" x="35.3086" y="56.0898">/path/to/project</text><line style="stroke:#AAAAAA;stroke-width:1;" x1="6" x2="919.8926" y1="65.1211" y2="65.1211"/><text fill="#000000" font-family="sans-serif" font-size="12" lengthAdjust="spacing" textLength="62.0625" x="11" y="83.2227">DIAGRAMS</text><line style="stroke:#000000;stroke-width:1;" x1="9" x2="76" y1="85.7539" y2="85.7539"/><line style="stroke:#000000;stroke-width:1;" x1="9" x2="9" y1="82.7539" y2="84.7539"/><line style="stroke:#000000;stroke-width:1;" x1="76" x2="76" y1="82.7539" y2="84.7539"/><rect fill="#EEEEEE" height="18.1328" rx="5" ry="5" style="stroke:#000000;stroke-width:2.5;" width="76" x="10.5" y="92.2539"/><text fill="#000000" font-family="sans-serif" font-size="12" lengthAdjust="spacing" textLength="53.2383" x="21.8809" y="105.8555">Directory</text><rect fill="#EEEEEE" height="18.1328" rx="5" ry="5" style="stroke:#000000;stroke-width:2.5;" width="68" x="216.3926" y="92.2539"/><text fill="#000000" font-family="sans-serif" font-size="12" lengthAdjust="spacing" textLength="45.6855" x="227.5498" y="105.8555">By cycle</text><text fill="#000000" font-family="sans-serif" font-size="12" lengthAdjust="spacing" textLength="78.7969" x="18" y="126.4883">.mdd/models</text><text fill="#000000" font-family="sans-serif" font-size="12" lengthAdjust="spacing" textLength="42.0352" x="28" y="140.6211">current</text><text fill="#000000" font-family="sans-serif" font-size="12" lengthAdjust="spacing" textLength="58.8867" x="38" y="154.7539">use-cases</text><text fill="#000000" font-family="sans-serif" font-size="12" lengthAdjust="spacing" textLength="116.7129" x="48" y="168.8867">cycle-tracking.puml</text><text fill="#000000" font-family="sans-serif" font-size="12" lengthAdjust="spacing" textLength="60.8848" x="38" y="183.0195">sequences</text><text fill="#000000" font-family="sans-serif" font-size="12" lengthAdjust="spacing" textLength="52.2598" x="28" y="197.1523">objective</text><text fill="#000000" font-family="sans-serif" font-size="12" lengthAdjust="spacing" textLength="113.9648" x="18" y="211.2852">Cycle 0002 (closed)</text><text fill="#000000" font-family="sans-serif" font-size="12" lengthAdjust="spacing" textLength="181.8926" x="28" y="225.418">use-cases/cycle-tracking.puml</text><text fill="#000000" font-family="sans-serif" font-size="12" lengthAdjust="spacing" textLength="143.4375" x="28" y="239.5508">diff: use-cases.diff.puml</text><rect fill="none" height="2" style="stroke:#888888;stroke-width:1;" width="2" x="11" y="120.9531"/><rect fill="none" height="2" style="stroke:#888888;stroke-width:1;" width="2" x="21" y="135.0859"/><line style="stroke:#888888;stroke-width:1;" x1="12" x2="12" y1="123.9531" y2="136.0859"/><line style="stroke:#888888;stroke-width:1;" x1="12" x2="20" y1="136.0859" y2="136.0859"/><rect fill="none" height="2" style="stroke:#888888;stroke-width:1;" width="2" x="31" y="149.2188"/><line style="stroke:#888888;stroke-width:1;" x1="22" x2="22" y1="138.0859" y2="150.2188"/><line style="stroke:#888888;stroke-width:1;" x1="22" x2="30" y1="150.2188" y2="150.2188"/><line style="stroke:#888888;stroke-width:1;" x1="32" x2="32" y1="152.2188" y2="164.3516"/><line style="stroke:#888888;stroke-width:1;" x1="32" x2="40" y1="164.3516" y2="164.3516"/><line style="stroke:#888888;stroke-width:1;" x1="22" x2="22" y1="138.0859" y2="178.4844"/><line style="stroke:#888888;stroke-width:1;" x1="22" x2="30" y1="178.4844" y2="178.4844"/><line style="stroke:#888888;stroke-width:1;" x1="12" x2="12" y1="123.9531" y2="192.6172"/><line style="stroke:#888888;stroke-width:1;" x1="12" x2="20" y1="192.6172" y2="192.6172"/><rect fill="none" height="2" style="stroke:#888888;stroke-width:1;" width="2" x="11" y="205.75"/><line style="stroke:#888888;stroke-width:1;" x1="12" x2="12" y1="208.75" y2="220.8828"/><line style="stroke:#888888;stroke-width:1;" x1="12" x2="20" y1="220.8828" y2="220.8828"/><line style="stroke:#888888;stroke-width:1;" x1="12" x2="12" y1="208.75" y2="235.0156"/><line style="stroke:#888888;stroke-width:1;" x1="12" x2="20" y1="235.0156" y2="235.0156"/><rect fill="#EEEEEE" height="18.1328" rx="5" ry="5" style="stroke:#000000;stroke-width:2.5;" width="60" x="294.3926" y="75.1211"/><text fill="#000000" font-family="sans-serif" font-size="12" lengthAdjust="spacing" textLength="49.3066" x="299.7393" y="88.7227">Diagram</text><rect fill="#EEEEEE" height="18.1328" rx="5" ry="5" style="stroke:#000000;stroke-width:2.5;" width="44" x="361.3926" y="75.1211"/><text fill="#000000" font-family="sans-serif" font-size="12" lengthAdjust="spacing" textLength="35.209" x="365.7881" y="88.7227">Graph</text><rect fill="#EEEEEE" height="18.1328" rx="5" ry="5" style="stroke:#000000;stroke-width:2.5;" width="44" x="412.3926" y="75.1211"/><ellipse cx="423.252" cy="83.7539" fill="#000000" rx="2.5" ry="2.5"/><text fill="#000000" font-family="sans-serif" font-size="12" lengthAdjust="spacing" textLength="21.2813" x="429.752" y="88.7227">Diff</text><line style="stroke:#AAAAAA;stroke-width:1;" x1="290.8926" x2="601.8926" y1="102.2539" y2="102.2539"/><text fill="#000000" font-family="sans-serif" font-size="12" lengthAdjust="spacing" textLength="235.2422" x="293.8926" y="118.3555">Cycle 0002 &#8212; before/after (superposed)</text><line style="stroke:#000000;stroke-width:1;" x1="291.8926" x2="598.8926" y1="120.8867" y2="120.8867"/><line style="stroke:#000000;stroke-width:1;" x1="291.8926" x2="291.8926" y1="117.8867" y2="119.8867"/><line style="stroke:#000000;stroke-width:1;" x1="598.8926" x2="598.8926" y1="117.8867" y2="119.8867"/><text fill="#000000" font-family="sans-serif" font-size="12" lengthAdjust="spacing" textLength="142.4766" x="294.8926" y="137.4883">shared element (neutral)</text><line style="stroke:#000000;stroke-width:1;" x1="292.8926" x2="487.8926" y1="140.0195" y2="140.0195"/><line style="stroke:#000000;stroke-width:1;" x1="292.8926" x2="292.8926" y1="137.0195" y2="139.0195"/><line style="stroke:#000000;stroke-width:1;" x1="487.8926" x2="487.8926" y1="137.0195" y2="139.0195"/><text fill="#008000" font-family="sans-serif" font-size="12" lengthAdjust="spacing" textLength="124.7578" x="294.8926" y="155.6211">+ added by this cycle</text><line style="stroke:#000000;stroke-width:1;" x1="292.8926" x2="463.8926" y1="158.1523" y2="158.1523"/><line style="stroke:#000000;stroke-width:1;" x1="292.8926" x2="292.8926" y1="155.1523" y2="157.1523"/><line style="stroke:#000000;stroke-width:1;" x1="463.8926" x2="463.8926" y1="155.1523" y2="157.1523"/><text fill="#FF0000" font-family="sans-serif" font-size="12" lengthAdjust="spacing" textLength="136.8105" x="294.8926" y="173.7539">- removed by this cycle</text><line style="stroke:#000000;stroke-width:1;" x1="292.8926" x2="479.8926" y1="176.2852" y2="176.2852"/><line style="stroke:#000000;stroke-width:1;" x1="292.8926" x2="292.8926" y1="173.2852" y2="175.2852"/><line style="stroke:#000000;stroke-width:1;" x1="479.8926" x2="479.8926" y1="173.2852" y2="175.2852"/><text fill="#000000" font-family="sans-serif" font-size="12" lengthAdjust="spacing" textLength="178.0313" x="293.8926" y="209.0195">[ superposed diagram canvas ]</text><line style="stroke:#000000;stroke-width:1;" x1="291.8926" x2="526.8926" y1="211.5508" y2="211.5508"/><line style="stroke:#000000;stroke-width:1;" x1="291.8926" x2="291.8926" y1="208.5508" y2="210.5508"/><line style="stroke:#000000;stroke-width:1;" x1="526.8926" x2="526.8926" y1="208.5508" y2="210.5508"/><text fill="#000000" font-family="sans-serif" font-size="12" lengthAdjust="spacing" textLength="101.0273" x="607.8926" y="83.2227">MODEL CONTEXT</text><line style="stroke:#000000;stroke-width:1;" x1="605.8926" x2="712.8926" y1="85.7539" y2="85.7539"/><line style="stroke:#000000;stroke-width:1;" x1="605.8926" x2="605.8926" y1="82.7539" y2="84.7539"/><line style="stroke:#000000;stroke-width:1;" x1="712.8926" x2="712.8926" y1="82.7539" y2="84.7539"/><line style="stroke:#AAAAAA;stroke-width:1;" x1="604.8926" x2="917.8926" y1="93.2539" y2="93.2539"/><text fill="#000000" font-family="sans-serif" font-size="12" lengthAdjust="spacing" textLength="18.0352" x="607.8926" y="109.3555">file</text><line style="stroke:#000000;stroke-width:1;" x1="605.8926" x2="640.8926" y1="111.8867" y2="111.8867"/><line style="stroke:#000000;stroke-width:1;" x1="605.8926" x2="605.8926" y1="108.8867" y2="110.8867"/><line style="stroke:#000000;stroke-width:1;" x1="640.8926" x2="640.8926" y1="108.8867" y2="110.8867"/><text fill="#000000" font-family="sans-serif" font-size="12" lengthAdjust="spacing" textLength="116.7129" x="605.8926" y="128.4883">cycle-tracking.puml</text><text fill="#000000" font-family="sans-serif" font-size="12" lengthAdjust="spacing" textLength="25.4824" x="607.8926" y="145.6211">kind</text><line style="stroke:#000000;stroke-width:1;" x1="605.8926" x2="640.8926" y1="148.1523" y2="148.1523"/><line style="stroke:#000000;stroke-width:1;" x1="605.8926" x2="605.8926" y1="145.1523" y2="147.1523"/><line style="stroke:#000000;stroke-width:1;" x1="640.8926" x2="640.8926" y1="145.1523" y2="147.1523"/><text fill="#000000" font-family="sans-serif" font-size="12" lengthAdjust="spacing" textLength="49.623" x="605.8926" y="164.7539">use case</text><text fill="#000000" font-family="sans-serif" font-size="12" lengthAdjust="spacing" textLength="96.9199" x="608.8926" y="197.0195">USE-RUN-CYCLE</text><line style="stroke:#000000;stroke-width:1;" x1="606.8926" x2="713.8926" y1="199.5508" y2="199.5508"/><line style="stroke:#000000;stroke-width:1;" x1="606.8926" x2="606.8926" y1="196.5508" y2="198.5508"/><line style="stroke:#000000;stroke-width:1;" x1="713.8926" x2="713.8926" y1="196.5508" y2="198.5508"/><text fill="#000000" font-family="sans-serif" font-size="12" lengthAdjust="spacing" textLength="224.9297" x="608.8926" y="215.1523">One-shot orchestration: run the whole</text><line style="stroke:#000000;stroke-width:1;" x1="606.8926" x2="905.8926" y1="217.6836" y2="217.6836"/><line style="stroke:#000000;stroke-width:1;" x1="606.8926" x2="606.8926" y1="214.6836" y2="216.6836"/><line style="stroke:#000000;stroke-width:1;" x1="905.8926" x2="905.8926" y1="214.6836" y2="216.6836"/><text fill="#000000" font-family="sans-serif" font-size="12" lengthAdjust="spacing" textLength="211.2598" x="608.8926" y="233.2852">MDD loop from a single description,</text><line style="stroke:#000000;stroke-width:1;" x1="606.8926" x2="889.8926" y1="235.8164" y2="235.8164"/><line style="stroke:#000000;stroke-width:1;" x1="606.8926" x2="606.8926" y1="232.8164" y2="234.8164"/><line style="stroke:#000000;stroke-width:1;" x1="889.8926" x2="889.8926" y1="232.8164" y2="234.8164"/><text fill="#000000" font-family="sans-serif" font-size="12" lengthAdjust="spacing" textLength="216.7734" x="608.8926" y="251.418">pausing only for clarifying questions.</text><line style="stroke:#000000;stroke-width:1;" x1="606.8926" x2="913.8926" y1="253.9492" y2="253.9492"/><line style="stroke:#000000;stroke-width:1;" x1="606.8926" x2="606.8926" y1="250.9492" y2="252.9492"/><line style="stroke:#000000;stroke-width:1;" x1="913.8926" x2="913.8926" y1="250.9492" y2="252.9492"/><line style="stroke:#000000;stroke-width:1;" x1="604.8926" x2="916.8926" y1="177.3516" y2="177.3516"/><line style="stroke:#000000;stroke-width:1;" x1="604.8926" x2="916.8926" y1="256.9492" y2="256.9492"/><line style="stroke:#000000;stroke-width:1;" x1="604.8926" x2="604.8926" y1="177.3516" y2="202.5508"/><line style="stroke:#000000;stroke-width:1;" x1="916.8926" x2="916.8926" y1="202.5508" y2="220.6836"/><line style="stroke:#000000;stroke-width:1;" x1="916.8926" x2="916.8926" y1="177.3516" y2="202.5508"/><line style="stroke:#000000;stroke-width:1;" x1="604.8926" x2="604.8926" y1="238.8164" y2="256.9492"/><line style="stroke:#000000;stroke-width:1;" x1="604.8926" x2="604.8926" y1="220.6836" y2="238.8164"/><line style="stroke:#000000;stroke-width:1;" x1="916.8926" x2="916.8926" y1="238.8164" y2="256.9492"/><line style="stroke:#000000;stroke-width:1;" x1="604.8926" x2="604.8926" y1="202.5508" y2="220.6836"/><line style="stroke:#000000;stroke-width:1;" x1="916.8926" x2="916.8926" y1="220.6836" y2="238.8164"/><rect fill="#FFFFFF" height="14.1328" style="stroke:#FFFFFF;stroke-width:1;" width="77.168" x="610.8926" y="170.2852"/><text fill="#000000" font-family="sans-serif" font-size="12" lengthAdjust="spacing" textLength="77.168" x="610.8926" y="181.8867">DESCRIPTION</text><text fill="#000000" font-family="sans-serif" font-size="12" lengthAdjust="spacing" textLength="18.9082" x="607.8926" y="284.6836">IDS</text><line style="stroke:#000000;stroke-width:1;" x1="605.8926" x2="632.8926" y1="287.2148" y2="287.2148"/><line style="stroke:#000000;stroke-width:1;" x1="605.8926" x2="605.8926" y1="284.2148" y2="286.2148"/><line style="stroke:#000000;stroke-width:1;" x1="632.8926" x2="632.8926" y1="284.2148" y2="286.2148"/><text fill="#000000" font-family="sans-serif" font-size="12" lengthAdjust="spacing" textLength="96.9199" x="605.8926" y="303.8164">USE-RUN-CYCLE</text><text fill="#000000" font-family="sans-serif" font-size="12" lengthAdjust="spacing" textLength="110.3965" x="704.8125" y="303.8164">USE-BROWSE-TREE</text><line style="stroke:#AAAAAA;stroke-width:1;stroke-dasharray:1,2;" x1="817.209" x2="828.209" y1="299.7813" y2="299.7813"/><text fill="#000000" font-family="sans-serif" font-size="12" lengthAdjust="spacing" textLength="38.2617" x="607.8926" y="320.9492">TRACE</text><line style="stroke:#000000;stroke-width:1;" x1="605.8926" x2="648.8926" y1="323.4805" y2="323.4805"/><line style="stroke:#000000;stroke-width:1;" x1="605.8926" x2="605.8926" y1="320.4805" y2="322.4805"/><line style="stroke:#000000;stroke-width:1;" x1="648.8926" x2="648.8926" y1="320.4805" y2="322.4805"/><text fill="#000000" font-family="sans-serif" font-size="12" lengthAdjust="spacing" textLength="287.8418" x="605.8926" y="340.082">USE-RUN-CYCLE -&gt; realizes -&gt; SEQ-RUN-CYCLE</text><?plantuml-src xLRDZk964Bxp52LV0Xbis8aKhT3k20Qy28M1ZM5saumcKcENSMSQjzDkWmWxKXuYJvWdINLZmEpEhkQOmnm0Krq_NzNtTK4trqpfd0bT-mwwFAhVz7zoFupyZtxWzd_jZtttTjGmHmhZ-ktCTw-3wKVwc0U-R-q5TzSSDvbKkXvX_g1brdnr-RhTVDrk7nnGu0fJNRyTzTsWDnhRw2OeAV2jLeXDIDaAtpetCa814LSOQgcsOCuSyiC_2x95v5lWLtDEWs5lClgDe4s7m_4X_QBGMgQ70dEvN0e4gPOivNyXBBQLQb91k0t5iogQ2RdpthKx6BrxT-Y4BGvr1ZoEdvF6HBjZV-XF1cMIL6giPW61IqmZO5644Inf82cbNSarVQFCpodIdqxc_YzpT-3F-i7e_NmqdJnHR4OXeQQiPIWGcQ7YcUOoVQ8ArPampTS8k2mubCm3ox8EVH5yWOff55kOJ2qW9GkDyE_V_u1EU0uh6JuK6T0Jeqo2RUcu5SfKAnPgAXQZmZH4Y8cKDSyB9iXeT4PmfGO6xobce_WoqK02NgAHRxrY35bg72Db8B8KC5RK9lLgCMzu6ibDmxDzT4sdJ-c-2KvmHBB7Q07f1FTASTc6AGI32rK7Fipw960trrlIcD4kACO55TF9IMOj6mdQAh59dLYMIJjxFyjmYmPT4ayUXlqg6x0GD3tWgGLoCntuOoWvfhPLv3cDckQQYgoYg0Hd9r_5NBPJbui_21VDf57RrG1sDkOJj3AcavQMhKn9um2FTEYwneDUXtS0Pp3g3OFUpSmf3NU3GwFtbERkUhklUbyUx-Rb0y05U5IhjJ9tFZzPBo0i58rSLqmNKEJeXYp7ggDnjHqPqJpmTEbbnKgSXUMaMiFUMVvZonKeVKjAkzs-X7eeP8vHenfoBD_wTaMYEOux9tVFVAywFThFH_XqDiMT6HjRaaBjq8QAPObz-jw8uxwCAWcmOw_WDSmka7I9BHPhehgU5ncgp3Pne6Lt1Eda2LELQrvFiQ1snD6LNDw4KaZLiLgykYXt3-rAUtNj1DwqhClLbq6K-yezhgXl1XtQyWvTtS49EetIJiJSv3NBuTvvSdJEcVwTBmOLSrhenp4_mTuHXKEcwEHA78BXy7Y--zsfRD1Au-PNCRYTxDT6nJvDQHSaj8Ia2XFCgQgvlHrGnVxcRX9vmcOw6Gn0I5gYiP8hkl8vGIIIApU_MV7EM64SGAQqPCrM2WLJFDuQ6ua-D_wvz_cedT5WTkhn33dfxRFVTx9uddUAdGUzll-rQFUAI6U2VbLpypppVwuSbhAlcTTZhKjxpVxZg7LF_pvUDjRBndhPM2yRwt--iLvvb-tB7xqV_WC0?></g></svg>