<svg xmlns="http://www.w3.org/2000/svg" xmlns:xlink="http://www.w3.org/1999/xlink" contentStyleType="text/css" data-diagram-type="DESCRIPTION" height="857px" preserveAspectRatio="none" style="width:1467px;height:857px;background:#FFFFFF;" version="1.1" viewBox="0 0 1467 857" width="1467px" zoomAndPan="magnify"><?plantuml 1.2026.3?><defs/><g><g class="title" data-source-line="28"><text fill="#000000" font-family="sans-serif" font-size="14" font-weight="700" lengthAdjust="spacing" textLength="417.334" x="521.473" y="23.5352">/mdd-deploy deployment guidance &#8212; use cases (current)</text></g><!--cluster mdd toolchain (utility, outside the parity gate)--><g class="cluster" data-qualified-name="mdd toolchain .utility. outside the parity gate." data-source-line="34" id="ent0003"><rect fill="none" height="450" rx="2.5" ry="2.5" style="stroke:#181818;stroke-width:1;" width="1320.95" x="132.33" y="343.4483"/><text fill="#000000" font-family="sans-serif" font-size="14" font-weight="700" lengthAdjust="spacing" textLength="333.1768" x="626.2166" y="358.9834">mdd toolchain (utility, outside the parity gate)</text></g><!--entity Guide--><g class="entity" data-qualified-name="mdd toolchain .utility. outside the parity gate..Guide" data-source-line="35" id="ent0004"><ellipse cx="298.7757" cy="477.449" fill="#F1F1F1" rx="150.4457" ry="37.0607" style="stroke:#181818;stroke-width:0.5;"/><text fill="#000000" font-family="sans-serif" font-size="14" lengthAdjust="spacing" textLength="214.1289" x="191.7113" y="467.0185">Guide an Azure Container Apps</text><text fill="#000000" font-family="sans-serif" font-size="14" lengthAdjust="spacing" textLength="180.5029" x="208.5243" y="483.5068">deployment via a diagram,</text><text fill="#000000" font-family="sans-serif" font-size="14" lengthAdjust="spacing" textLength="190.0254" x="203.763" y="499.9951">runbook, and generated IaC</text></g><!--entity Inspect--><g class="entity" data-qualified-name="mdd toolchain .utility. outside the parity gate..Inspect" data-source-line="36" id="ent0005"><ellipse cx="792.3348" cy="405.4492" fill="#F1F1F1" rx="122.2048" ry="26.841" style="stroke:#181818;stroke-width:0.5;"/><text fill="#000000" font-family="sans-serif" font-size="14" lengthAdjust="spacing" textLength="147.7861" x="718.4417" y="399.7297">Inspect the generated</text><text fill="#000000" font-family="sans-serif" font-size="14" lengthAdjust="spacing" textLength="190.9961" x="696.8367" y="416.2179">deployment diagram as SVG</text></g><!--entity Purpose--><g class="entity" data-qualified-name="mdd toolchain .utility. outside the parity gate..Purpose" data-source-line="37" id="ent0006"><ellipse cx="792.3319" cy="506.4507" fill="#F1F1F1" rx="184.0619" ry="39.2124" style="stroke:#181818;stroke-width:0.5;"/><text fill="#000000" font-family="sans-serif" font-size="14" lengthAdjust="spacing" textLength="230.1934" x="677.2352" y="491.4846">Confirm the deployment PURPOSE</text><text fill="#000000" font-family="sans-serif" font-size="14" lengthAdjust="spacing" textLength="206.377" x="689.1434" y="507.9729">(dev/staging/prod) before any</text><text fill="#000000" font-family="sans-serif" font-size="14" lengthAdjust="spacing" textLength="291.3135" x="646.6751" y="524.4611">purpose-driven default &#8212; no silent default</text></g><!--entity AccessCheck--><g class="entity" data-qualified-name="mdd toolchain .utility. outside the parity gate..AccessCheck" data-source-line="38" id="ent0007"><ellipse cx="792.3326" cy="618.4448" fill="#F1F1F1" rx="179.0326" ry="38.2065" style="stroke:#181818;stroke-width:0.5;"/><text fill="#000000" font-family="sans-serif" font-size="14" lengthAdjust="spacing" textLength="243.1133" x="670.776" y="605.9682">Account for who READS and WRITES</text><text fill="#000000" font-family="sans-serif" font-size="14" lengthAdjust="spacing" textLength="273.2803" x="655.6925" y="622.4565">every secured store (identity + admitted</text><text fill="#000000" font-family="sans-serif" font-size="14" lengthAdjust="spacing" textLength="257.585" x="663.5402" y="638.9448">path) before emitting &#8212; surface holes</text></g><!--entity Execute--><g class="entity" data-qualified-name="mdd toolchain .utility. outside the parity gate..Execute" data-source-line="39" id="ent0008"><ellipse cx="792.3305" cy="734.4464" fill="#F1F1F1" rx="201.2905" ry="42.6581" style="stroke:#181818;stroke-width:0.5;"/><text fill="#000000" font-family="sans-serif" font-size="14" lengthAdjust="spacing" textLength="249.4639" x="667.5985" y="716.6054">EXECUTE the runbook: manage auth,</text><text fill="#000000" font-family="sans-serif" font-size="14" lengthAdjust="spacing" textLength="294.9434" x="644.8588" y="733.0937">dry-run, apply, provision, migrate, route &#8212;</text><text fill="#000000" font-family="sans-serif" font-size="14" lengthAdjust="spacing" textLength="350.0684" x="617.2963" y="749.582">autonomous except irreversible steps; halt on error</text></g><!--entity GoLive--><g class="entity" data-qualified-name="mdd toolchain .utility. outside the parity gate..GoLive" data-source-line="40" id="ent0009"><ellipse cx="1275.9497" cy="738.449" fill="#F1F1F1" rx="161.3297" ry="35.3107" style="stroke:#181818;stroke-width:0.5;"/><text fill="#000000" font-family="sans-serif" font-size="14" lengthAdjust="spacing" textLength="227.1309" x="1162.3843" y="728.9234">CONFIRM go-live: surface the full</text><text fill="#000000" font-family="sans-serif" font-size="14" lengthAdjust="spacing" textLength="242.3887" x="1154.7553" y="745.4117">production billing multi-factor gate</text><text fill="#000000" font-family="sans-serif" font-size="14" lengthAdjust="spacing" textLength="174.665" x="1188.6172" y="761.8999">before live-traffic cutover</text></g><!--entity Op--><g class="entity" data-qualified-name="Op" data-source-line="32" id="ent0002"><ellipse cx="36.2559" cy="671.7083" fill="#F1F1F1" rx="8" ry="8" style="stroke:#181818;stroke-width:0.5;"/><path d="M36.2559,679.7083 L36.2559,706.7083 M23.2559,687.7083 L49.2559,687.7083 M36.2559,706.7083 L23.2559,721.7083 M36.2559,706.7083 L49.2559,721.7083" fill="none" style="stroke:#181818;stroke-width:0.5;"/><text fill="#000000" font-family="sans-serif" font-size="14" lengthAdjust="spacing" textLength="60.5117" x="6" y="736.7434">Operator</text></g><g class="entity" data-qualified-name="GMN21" data-source-line="57" id="ent0022"><path d="M127.51,163.8983 L127.51,327.0037 A0,0 0 0 0 127.51,327.0037 L294.78,327.0037 L298.78,440.2983 L302.78,327.0037 L470.0378,327.0037 A0,0 0 0 0 470.0378,327.0037 L470.0378,173.8983 L460.0378,163.8983 L127.51,163.8983 A0,0 0 0 0 127.51,163.8983" fill="#FEFFDD" style="stroke:#181818;stroke-width:0.5;"/><path d="M460.0378,163.8983 L460.0378,173.8983 L470.0378,173.8983 L460.0378,163.8983" fill="#FEFFDD" style="stroke:#181818;stroke-width:0.5;"/><text fill="#000000" font-family="sans-serif" font-size="13" lengthAdjust="spacing" textLength="303.1514" x="133.51" y="181.4666">Implemented in templates::MDD_DEPLOY_SKILL:</text><text fill="#000000" font-family="sans-serif" font-size="13" lengthAdjust="spacing" textLength="249.3613" x="133.51" y="196.7772">v1 supports only azure-container-apps</text><text fill="#000000" font-family="sans-serif" font-size="13" lengthAdjust="spacing" textLength="249.9517" x="133.51" y="212.0877">(../atlas-ate-server); any other target is</text><text fill="#000000" font-family="sans-serif" font-size="13" lengthAdjust="spacing" textLength="294.4741" x="133.51" y="227.3983">rejected. Reads MDD models + the target repo</text><text fill="#000000" font-family="sans-serif" font-size="13" lengthAdjust="spacing" textLength="271.6606" x="133.51" y="242.7088">read-only, pauses on ambiguity, writes the</text><text fill="#000000" font-family="sans-serif" font-size="13" lengthAdjust="spacing" textLength="321.5278" x="133.51" y="258.0194">deployment diagram + runbook + generated infra,</text><text fill="#000000" font-family="sans-serif" font-size="13" lengthAdjust="spacing" textLength="300.9805" x="133.51" y="273.3299">then reports and STOPS. Never runs az/docker/</text><text fill="#000000" font-family="sans-serif" font-size="13" lengthAdjust="spacing" textLength="318.6143" x="133.51" y="288.6405">brew. The diagram stereotypes are documentation</text><text fill="#000000" font-family="sans-serif" font-size="13" lengthAdjust="spacing" textLength="285.689" x="133.51" y="303.951">only &#8212; NOT the gated security-marker parity</text><text fill="#000000" font-family="sans-serif" font-size="13" lengthAdjust="spacing" textLength="315.2373" x="133.51" y="319.2616">mechanism. Realized by SEQ-DEPLOY-GUIDANCE.</text></g><g class="entity" data-qualified-name="GMN24" data-source-line="70" id="ent0025"><path d="M625.06,43.4883 L625.06,99.4199 L959.6088,99.4199 L959.6088,53.4883 L949.6088,43.4883 L625.06,43.4883" fill="#FEFFDD" style="stroke:#181818;stroke-width:0.5;"/><path d="M949.6088,43.4883 L949.6088,53.4883 L959.6088,53.4883 L949.6088,43.4883" fill="#FEFFDD" style="stroke:#181818;stroke-width:1;"/><text fill="#000000" font-family="sans-serif" font-size="13" lengthAdjust="spacing" textLength="308.4072" x="631.06" y="61.0566">Not a gate. /mdd-validate, /mdd-review and the</text><text fill="#000000" font-family="sans-serif" font-size="13" lengthAdjust="spacing" textLength="313.5488" x="631.06" y="76.3672">/mdd-cycle parity loop never read .mdd/deploy/.</text><text fill="#000000" font-family="sans-serif" font-size="13" lengthAdjust="spacing" textLength="220.4351" x="631.06" y="91.6777">Realized by SEQ-DEPLOY-INSPECT.</text></g><g class="entity" data-qualified-name="GMN27" data-source-line="76" id="ent0028"><path d="M612.56,134.1783 L612.56,220.731 L972.0996,220.731 L972.0996,144.1783 L962.0996,134.1783 L612.56,134.1783" fill="#FEFFDD" style="stroke:#181818;stroke-width:0.5;"/><path d="M962.0996,134.1783 L962.0996,144.1783 L972.0996,144.1783 L962.0996,134.1783" fill="#FEFFDD" style="stroke:#181818;stroke-width:1;"/><text fill="#000000" font-family="sans-serif" font-size="13" lengthAdjust="spacing" textLength="336.6606" x="618.56" y="151.7466">Cycle 0016: mandatory &#171;include&#187;; no purpose-driven</text><text fill="#000000" font-family="sans-serif" font-size="13" lengthAdjust="spacing" textLength="338.5396" x="618.56" y="167.0572">default until dev/staging/prod is confirmed (no silent</text><text fill="#000000" font-family="sans-serif" font-size="13" lengthAdjust="spacing" textLength="320.271" x="618.56" y="182.3677">default). Surfaces sizing/posture options; operator</text><text fill="#000000" font-family="sans-serif" font-size="13" lengthAdjust="spacing" textLength="249.1201" x="618.56" y="197.6783">confirms; secure-by-default preserved.</text><text fill="#000000" font-family="sans-serif" font-size="13" lengthAdjust="spacing" textLength="278.7446" x="618.56" y="212.9888">Constrained by OCL-DEPLOY-IAC-PURPOSE.</text></g><g class="entity" data-qualified-name="GMN30" data-source-line="84" id="ent0031"><path d="M609.21,255.8283 L609.21,327.0705 L975.459,327.0705 L975.459,265.8283 L965.459,255.8283 L609.21,255.8283" fill="#FEFFDD" style="stroke:#181818;stroke-width:0.5;"/><path d="M965.459,255.8283 L965.459,265.8283 L975.459,265.8283 L965.459,255.8283" fill="#FEFFDD" style="stroke:#181818;stroke-width:1;"/><text fill="#000000" font-family="sans-serif" font-size="13" lengthAdjust="spacing" textLength="340.9961" x="615.21" y="273.3966">Cycle 0016: mandatory &#171;include&#187;; every secured store</text><text fill="#000000" font-family="sans-serif" font-size="13" lengthAdjust="spacing" textLength="323.9272" x="615.21" y="288.7072">needs a named reader AND writer with an admitted</text><text fill="#000000" font-family="sans-serif" font-size="13" lengthAdjust="spacing" textLength="325.2222" x="615.21" y="304.0177">network path, else surfaced as a blocking question.</text><text fill="#000000" font-family="sans-serif" font-size="13" lengthAdjust="spacing" textLength="345.249" x="615.21" y="319.3283">Constrained by OCL-DEPLOY-IAC-ACCESS-COMPLETE.</text></g><!--link Op to Guide--><g class="link" data-entity-1="ent0002" data-entity-2="ent0004" data-link-type="dependency" data-source-line="43" id="lnk10"><path d="M46.44,662.7783 C55.09,633.6583 70.67,594.4383 96.51,568.4483 C124.7,540.1083 157.7299,521.9633 193.5899,507.7933" fill="none" id="Op-to-Guide" style="stroke:#181818;stroke-width:1;"/><polygon fill="#181818" points="199.17,505.5883,189.3298,505.1757,194.5199,507.4258,192.2698,512.6159,199.17,505.5883" style="stroke:#181818;stroke-width:1;"/></g><!--link Op to Inspect--><g class="link" data-entity-1="ent0002" data-entity-2="ent0005" data-link-type="dependency" data-source-line="44" id="lnk11"><path d="M66.92,678.7683 C76.06,672.5283 86.39,666.1783 96.51,661.4483 C108.17,656.0083 111.72,655.9883 124.33,653.4483 C220.12,634.2183 489.33,668.8183 561.04,602.4483 C611.9,555.3883 542.6,498.9983 591.04,449.4483 C612.19,427.8183 635.5217,416.9944 665.0817,410.4544" fill="none" id="Op-to-Inspect" style="stroke:#181818;stroke-width:1;"/><polygon fill="#181818" points="670.94,409.1583,661.2884,407.1969,666.0581,410.2384,663.0166,415.008,670.94,409.1583" style="stroke:#181818;stroke-width:1;"/></g><!--link Op to Purpose--><g class="link" data-entity-1="ent0002" data-entity-2="ent0006" data-link-type="dependency" data-source-line="45" id="lnk12"><path d="M66.94,693.5983 C76.34,691.3383 86.81,689.0483 96.51,687.4483 C198.82,670.6083 478.82,706.6383 561.04,643.4483 C591.48,620.0583 562.8,588.4583 591.04,562.4483 C606.24,548.4483 619.1044,540.1745 638.5444,532.2445" fill="none" id="Op-to-Purpose" style="stroke:#181818;stroke-width:1;"/><polygon fill="#181818" points="644.1,529.9783,634.2558,529.6739,639.4704,531.8668,637.2775,537.0813,644.1,529.9783" style="stroke:#181818;stroke-width:1;"/></g><!--link Op to AccessCheck--><g class="link" data-entity-1="ent0002" data-entity-2="ent0007" data-link-type="dependency" data-source-line="46" id="lnk13"><path d="M66.93,705.8783 C147.95,716.9083 379.02,741.3083 561.04,691.4483 C575.82,687.4083 576.89,680.3383 591.04,674.4483 C616.38,663.9183 638.5565,656.3662 665.3365,648.6162" fill="none" id="Op-to-AccessCheck" style="stroke:#181818;stroke-width:1;"/><polygon fill="#181818" points="671.1,646.9483,661.3428,645.6078,666.2971,648.3382,663.5667,653.2925,671.1,646.9483" style="stroke:#181818;stroke-width:1;"/></g><!--link Op to Execute--><g class="link" data-entity-1="ent0002" data-entity-2="ent0008" data-link-type="dependency" data-source-line="47" id="lnk14"><path d="M65.47,739.8883 C74.29,748.9983 84.82,757.5083 96.51,762.4483 C286.68,842.8383 354.96,774.9383 561.04,762.4483 C580.74,761.2583 595.3606,760.1031 615.7906,758.0331" fill="none" id="Op-to-Execute" style="stroke:#181818;stroke-width:1;"/><polygon fill="#181818" points="621.76,757.4283,612.4026,754.3559,616.7855,757.9323,613.2091,762.3152,621.76,757.4283" style="stroke:#181818;stroke-width:1;"/></g><!--link Op to GoLive--><g class="link" data-entity-1="ent0002" data-entity-2="ent0009" data-link-type="dependency" data-source-line="48" id="lnk15"><path d="M56.59,739.9983 C71.39,764.8483 94.35,795.1083 124.33,809.4483 C176.72,834.5083 873.58,808.0183 993.62,794.4483 C1050.9,787.9783 1108.0372,777.1842 1159.8672,765.9042" fill="none" id="Op-to-GoLive" style="stroke:#181818;stroke-width:1;"/><polygon fill="#181818" points="1165.73,764.6283,1156.0852,762.6337,1160.8444,765.6916,1157.7865,770.4507,1165.73,764.6283" style="stroke:#181818;stroke-width:1;"/></g><!--link Guide to Inspect--><g class="link" data-entity-1="ent0004" data-entity-2="ent0005" data-link-type="dependency" data-source-line="50" id="lnk16"><path d="M428.93,458.5383 C510.42,446.5983 608.2533,432.2677 683.8433,421.1977" fill="none" id="Guide-to-Inspect" style="stroke:#181818;stroke-width:1;stroke-dasharray:7,7;"/><polygon fill="#181818" points="689.78,420.3283,680.2954,417.6746,684.8328,421.0528,681.4546,425.5902,689.78,420.3283" style="stroke:#181818;stroke-width:1;"/><text fill="#000000" font-family="sans-serif" font-size="13" lengthAdjust="spacing" textLength="57.1924" x="502.04" y="435.8666">&#171;extend&#187;</text></g><!--link Guide to Purpose--><g class="link" data-entity-1="ent0004" data-entity-2="ent0006" data-link-type="dependency" data-source-line="51" id="lnk17"><path d="M446.61,485.0283 C483.93,487.0283 523.97,489.2483 561.04,491.4483 C578.84,492.5083 591.4219,493.2702 609.9519,494.4402" fill="none" id="Guide-to-Purpose" style="stroke:#181818;stroke-width:1;stroke-dasharray:7,7;"/><polygon fill="#181818" points="615.94,494.8183,607.2099,490.2591,610.9499,494.5032,606.7058,498.2432,615.94,494.8183" style="stroke:#181818;stroke-width:1;"/><text fill="#000000" font-family="sans-serif" font-size="13" lengthAdjust="spacing" textLength="59.3569" x="501.04" y="484.7266">&#171;include&#187;</text></g><!--link Guide to AccessCheck--><g class="link" data-entity-1="ent0004" data-entity-2="ent0007" data-link-type="dependency" data-source-line="52" id="lnk18"><path d="M410.97,502.4883 C457.95,514.3883 512.84,530.0683 561.04,548.4483 C574.97,553.7683 577.12,558.1183 591.04,563.4483 C616.8,573.3183 639.2758,580.5678 666.2258,588.1778" fill="none" id="Guide-to-AccessCheck" style="stroke:#181818;stroke-width:1;stroke-dasharray:7,7;"/><polygon fill="#181818" points="672,589.8083,664.4257,583.5131,667.1882,588.4495,662.2517,591.212,672,589.8083" style="stroke:#181818;stroke-width:1;"/><text fill="#000000" font-family="sans-serif" font-size="13" lengthAdjust="spacing" textLength="59.3569" x="501.04" y="525.6266">&#171;include&#187;</text></g><!--link Guide to Execute--><g class="link" data-entity-1="ent0004" data-entity-2="ent0008" data-link-type="dependency" data-source-line="53" id="lnk19"><path d="M343.11,513.0083 C397.87,556.4183 496.44,629.5883 591.04,674.4483 C613.1,684.9183 631.6837,692.1641 655.5037,699.9041" fill="none" id="Guide-to-Execute" style="stroke:#181818;stroke-width:1;stroke-dasharray:7,7;"/><polygon fill="#181818" points="661.21,701.7583,653.8867,695.1728,656.4547,700.2131,651.4144,702.7812,661.21,701.7583" style="stroke:#181818;stroke-width:1;"/><text fill="#000000" font-family="sans-serif" font-size="13" lengthAdjust="spacing" textLength="59.3569" x="501.04" y="624.8166">&#171;include&#187;</text></g><!--link Execute to GoLive--><g class="link" data-entity-1="ent0008" data-entity-2="ent0009" data-link-type="dependency" data-source-line="54" id="lnk20"><path d="M993.74,736.1183 C1034.04,736.4483 1069.8802,736.7487 1108.5902,737.0687" fill="none" id="Execute-to-GoLive" style="stroke:#181818;stroke-width:1;stroke-dasharray:7,7;"/><polygon fill="#181818" points="1114.59,737.1183,1105.6234,733.044,1109.5902,737.0769,1105.5572,741.0437,1114.59,737.1183" style="stroke:#181818;stroke-width:1;"/><text fill="#000000" font-family="sans-serif" font-size="13" lengthAdjust="spacing" textLength="59.3569" x="1024.62" y="733.0166">&#171;include&#187;</text></g><!--link Inspect to GMN24--><g class="link" data-entity-1="ent0005" data-entity-2="ent0025" data-link-type="association" data-source-line="70" id="lnk26"><path d="M672.22,400.2583 C619.99,391.2783 563.33,371.0183 530.54,326.9483 C479.33,258.1383 479,202.5183 530.54,133.9483 C553.35,103.6083 588.06,86.2283 624.8,76.6383" fill="none" id="Inspect-GMN24" style="stroke:#181818;stroke-width:1;stroke-dasharray:7,7;"/></g><!--link Purpose to GMN27--><g class="link" data-entity-1="ent0006" data-entity-2="ent0028" data-link-type="association" data-source-line="76" id="lnk29"><path d="M621.78,491.5483 C586.28,480.1983 552.9,461.6983 530.54,431.9483 C483.54,369.4283 483.84,318.7083 530.54,255.9483 C550.86,228.6383 580.36,210.4683 612.29,198.4683" fill="none" id="Purpose-GMN27" style="stroke:#181818;stroke-width:1;stroke-dasharray:7,7;"/></g><!--link AccessCheck to GMN30--><g class="link" data-entity-1="ent0007" data-entity-2="ent0031" data-link-type="association" data-source-line="84" id="lnk32"><path d="M623.4,605.5283 C587.28,594.4983 553.21,576.1083 530.54,545.9483 C486.21,486.9783 487.53,439.8983 530.54,379.9483 C549.98,352.8583 578.16,333.9583 608.9,320.7883" fill="none" id="AccessCheck-GMN30" style="stroke:#181818;stroke-width:1;stroke-dasharray:7,7;"/></g><?plantuml-src ZLZXRjiu4lxlfo0273RkMdQxF-u0Pr7KTTIkKTVssKbx1GBiqX9jyoAHMefowYuMk8Uu9xmdkMz8of4J9Ti_0IpE36U-cVbcc1zO54NiRgSp4UMyO8NHUw6uIiIG9OSa4ypkk6LIMQFJAX4f4ppPiJSo9SNE3-oDapg_NiNHPRoOphz4xwydbwFPEEwnbozV_gFRAZEPhHRn-EevaSNrSZ5VEIkl_jukCXgFuzKg6lyIZpyy9nV_AnvVNpbJFxrg5ta_dqu-DILasXPJor48fUKaHD1oqdIyvJZus-Q7SnC7E1fNnWXberAcWbMbO0alHSassh11dgPHAefC7tei5KRkaRYDqJcoAPZCYqpaK1Kfp2GwHQwjm4TkHJaSVhoy_DLVz-lgmsGwPJyoQKlsURxyy6uw_-m_hXZq3Qp388pqaunNgHZqoThNGNahiwniU35mIlqyPRaqHfkIvRZCI9x9Rt1jVO2Dto2EGfFsDsULYQzMg1Id3tnRnhFBU1byAwqeUemhYWJcqq6gatBWBurGp1kP2NpliojOT6unMJ8EFUZmJ2j0PsKcxQ472_WkrvbKMwOt7aH3BXXt0odEvbVCw0h8KKjeV3wmBLphkuoyIKMPjBV2sUGUz64pFsJLYAr480PMEJdN2hLpuGGrvy5t8zzd4sHnhLDSgKfhgWG_2MU-XNq6KuLlSJZWLSbRbag-DJn74K1C64wXlvM9AF25izNLV15jtKTJgRNMjwx--BVAY2ZHod89fOWNHTb3GaK2i86kqk4AL5-U8x3-MRSDloDDdCBtN45iwSRKPHW-rf7IfOryKhI64-G0CjIDH-l5Yy6BVb7b6Ocu0wyXJYNA_RRFHcagBLghXtWKeO1RdWZaI6PdOqUgn5L3jXO0IxWYAYfJw594AVMg0ZeRNcMsTr8fm7CZJLxYT3z00Mzntu2Iniu1Q8bAftnvpQuhbx8o6vw056hpI8JH1Ih8eXlaDsT0bnRPOhgmKYlF7rGMkg1iQuTLkFc2bSWWChi-HE4U58qeXG6_F17vAKUtXIzoQGcwqs1vakXAMUyFvXEQXASb6yqksPsHo3qJUu6ky1uXLBYAJBZfT2Vj3l4pdf9f72fXxxIvPGMtkmlK1jcArfMD51c9o22unjjWLB_-3kCj0LnIf4uDW8O-NMSwkQNI-hqI9Q7t10R7-NCC_wTNGyOtT0CAMQb7qGUDbSj4tLb8H8RgODRmpKOcx7__-Iy8GQ5_uKnbTw1wSuWWNJOh2odFmDFkCoP5NcXBTKBjuTIqqhckIf9vEvsFFwoOLXdKCFGnNm0FKQ88ykV16b0tmgAdSmbseD1xRAiZSg_ROpkU8N5QCHHDQPaWnk-5ZlUSeyGTah2N9JJfgfT_EqQ5fCkCuLwvaQWgDjRKmxwhrmSs7q-Ri4QNoo_BwrdqDdutNyRHQB6OVc435lqocbv5yraKBvVp9NrOZ2WXa-Ko_XGlLvEtq_Y9PDMRm4ckN4CeGa4NR5DbMKJ8CLS-D5O03MKZm4xI14LKnmJQmrfbJdDyR4uI9vk1W0bDjWQDKsNbw34PGOuwSUlQrj9VwkwGBceGyRN8P2BjVTU6bdMvkGYEaizHEFWEQ3qIqNW-UpTPVeml2J0hBK1fXj6O5TjAfhGwEYpkDvBpn6ygtKud4nitQepSxcYs6E72xNHyW6VpuFuPDTYyw7H8WAijxZoZzS1gdIKxUCpEwx7DC8xT2aGm5XnzwqTozupzqM7a1dd1pjvN90HM6D5mejZzS68Z3ASRrGXZBpdDG3_uUZSgz9zV0kwdu8IFdPlESFEcYIeBkEqSEegVt50FLMYlFhrtLe9IqyxOPyhPQIY7MNAZpX_EWMwZxszK-qXnkNaqBfmB2w_GT67aMVX8mijuTBboE7nUJi1FDwg5XTav044N8n4_7ZaO_e13kmz9txaJEe7HAwHqhk1UKPRZdKXkc-u4McoouZ1Ge6T0eEmfi5Vp7Zre7CtKN8KXuJOuklb6tHCWUWXRJHlhNJX28pvpJEOSZDqkSu9Lw9EQ1uV7iEh-1WJVqU0tAa3KnY2-uFGKHvq_EvrvWLVOwr21uKTTIE5ddTJmimbi-5I7KXlprZk-N_hzeqKsP3__x9VorwyRn-46TonLac4RFJblNFcaJF3XmNdzbIIyMmy4EWh333kjjNZQO6MlMx6nBM85VEvnCuJq_XLILHJQkA55iwzbVONSURy_u3RZPGHRaTjwJFV23LcD76DJucOhK44aRCI_WHcnxD8jBhYOvLZHin9DGHKHX8qej1F7HaANes9vHQn9Wp5VIt0gaLpOUUYrnThNytfBQ2xgKcqCxq43UifTHJ5I-zBYlkgpcPiBRZVWt-ZjT2lC0F9h8-xycwc-mBrFj3qKj6oWEY5RaGTkm4330KVDJ4yantpE0qSCY23AkRcbTSSHDEHp0HvNiimTGFKpaAtYVpvyFFKxg3X6cNwKxtlId6aBpdPFCJ-Tzh2PkcuFU_zUOkUWq3s6xgl_3qSO6fd6RFU3ah9nyYpeG-C9DyCRvHalxtcrkVtIiuT6tQ5PqHTksJmXRfTlJzr-DNgq_MClFGxrnbFWNh7RPwjwsMZV-Y-EYmEqwdV6y-i-XVFa_Z0PZUitppF0dBByTu3JCcoWg8H8QHrNd02WtD5KhnyAvj5pmAdSFmZmQCX0Nt-rslzblFLBP_vnCOsl6d7_7m00?></g></svg>