<svg xmlns="http://www.w3.org/2000/svg" xmlns:xlink="http://www.w3.org/1999/xlink" contentStyleType="text/css" data-diagram-type="DESCRIPTION" height="1772px" preserveAspectRatio="none" style="width:1143px;height:1772px;background:#FFFFFF;" version="1.1" viewBox="0 0 1143 1772" width="1143px" zoomAndPan="magnify"><?plantuml 1.2026.3?><defs/><g><g class="title" data-source-line="33"><text fill="#000000" font-family="sans-serif" font-size="14" font-weight="700" lengthAdjust="spacing" textLength="272.3369" x="431.9291" y="23.5352">mdd view &#8212; diagram viewer (current)</text></g><!--cluster mdd-viewer--><g class="cluster" data-qualified-name="mdd-viewer" data-source-line="39" id="ent0003"><rect fill="none" height="559" rx="2.5" ry="2.5" style="stroke:#181818;stroke-width:1;" width="851.84" x="225.98" y="753.4483"/><text fill="#000000" font-family="sans-serif" font-size="14" font-weight="700" lengthAdjust="spacing" textLength="88.7783" x="607.5108" y="768.9834">mdd-viewer</text></g><!--entity View--><g class="entity" data-qualified-name="mdd-viewer.View" data-source-line="40" id="ent0004"><ellipse cx="367.1349" cy="1108.4473" fill="#F1F1F1" rx="119.7449" ry="26.349" style="stroke:#181818;stroke-width:0.5;"/><text fill="#000000" font-family="sans-serif" font-size="14" lengthAdjust="spacing" textLength="157.6641" x="288.3028" y="1104.2136">View rendered diagram</text><text fill="#000000" font-family="sans-serif" font-size="14" lengthAdjust="spacing" textLength="172.3271" x="280.9713" y="1120.7019">(shapes AND text legible)</text></g><!--entity Browse--><g class="entity" data-qualified-name="mdd-viewer.Browse" data-source-line="41" id="ent0005"><ellipse cx="924.0731" cy="914.4489" fill="#F1F1F1" rx="78.9031" ry="18.1806" style="stroke:#181818;stroke-width:0.5;"/><text fill="#000000" font-family="sans-serif" font-size="14" lengthAdjust="spacing" textLength="127.4697" x="860.3382" y="919.193">Browse model files</text></g><!--entity PanZoom--><g class="entity" data-qualified-name="mdd-viewer.PanZoom" data-source-line="42" id="ent0006"><ellipse cx="924.0744" cy="835.4445" fill="#F1F1F1" rx="112.8544" ry="25.9162" style="stroke:#181818;stroke-width:0.5;"/><text fill="#000000" font-family="sans-serif" font-size="14" lengthAdjust="spacing" textLength="146.6787" x="850.735" y="831.3713">Pan and zoom canvas</text><text fill="#000000" font-family="sans-serif" font-size="14" lengthAdjust="spacing" textLength="158.0811" x="845.0339" y="847.8596">(scroll zoom, drag pan)</text></g><!--entity Fisheye--><g class="entity" data-qualified-name="mdd-viewer.Fisheye" data-source-line="43" id="ent0007"><ellipse cx="924.074" cy="1073.4451" fill="#F1F1F1" rx="93.784" ry="21.1568" style="stroke:#181818;stroke-width:0.5;"/><text fill="#000000" font-family="sans-serif" font-size="14" lengthAdjust="spacing" textLength="161.7725" x="843.1877" y="1078.1892">Focus via center fisheye</text></g><!--entity Panels--><g class="entity" data-qualified-name="mdd-viewer.Panels" data-source-line="44" id="ent0008"><ellipse cx="924.0743" cy="992.4471" fill="#F1F1F1" rx="113.6443" ry="25.1289" style="stroke:#181818;stroke-width:0.5;"/><text fill="#000000" font-family="sans-serif" font-size="14" lengthAdjust="spacing" textLength="205.3584" x="821.3951" y="997.1913">Collapse / expand side panels</text></g><!--entity Trace--><g class="entity" data-qualified-name="mdd-viewer.Trace" data-source-line="45" id="ent0009"><ellipse cx="367.1282" cy="1202.4459" fill="#F1F1F1" rx="123.2882" ry="27.0576" style="stroke:#181818;stroke-width:0.5;"/><text fill="#000000" font-family="sans-serif" font-size="14" lengthAdjust="spacing" textLength="226.0098" x="254.1233" y="1207.1901">Inspect model IDs and trace links</text></g><!--entity ViewOcl--><g class="entity" data-qualified-name="mdd-viewer.ViewOcl" data-source-line="46" id="ent0010"><ellipse cx="367.1339" cy="814.4492" fill="#F1F1F1" rx="103.0539" ry="25.9009" style="stroke:#181818;stroke-width:0.5;"/><text fill="#000000" font-family="sans-serif" font-size="14" lengthAdjust="spacing" textLength="144.0742" x="295.0968" y="811.5444">View OCL constraints</text><text fill="#000000" font-family="sans-serif" font-size="14" lengthAdjust="spacing" textLength="133.2666" x="300.5006" y="828.0327">(source or diagram)</text></g><!--entity ViewDeploy--><g class="entity" data-qualified-name="mdd-viewer.ViewDeploy" data-source-line="47" id="ent0011"><ellipse cx="367.1329" cy="910.4508" fill="#F1F1F1" rx="125.1529" ry="35.5525" style="stroke:#181818;stroke-width:0.5;"/><text fill="#000000" font-family="sans-serif" font-size="14" lengthAdjust="spacing" textLength="183.8115" x="275.2271" y="901.9959">View deployment diagrams</text><text fill="#000000" font-family="sans-serif" font-size="14" lengthAdjust="spacing" textLength="185.6162" x="274.3248" y="918.4842">(dedicated DEPLOY section,</text><text fill="#000000" font-family="sans-serif" font-size="14" lengthAdjust="spacing" textLength="124.332" x="304.9669" y="934.9725">NOT parity-gated)</text></g><!--entity Themed--><g class="entity" data-qualified-name="mdd-viewer.Themed" data-source-line="48" id="ent0012"><ellipse cx="924.0715" cy="1258.4454" fill="#F1F1F1" rx="137.7515" ry="37.9072" style="stroke:#181818;stroke-width:0.5;"/><text fill="#000000" font-family="sans-serif" font-size="14" lengthAdjust="spacing" textLength="190.9482" x="828.5973" y="1246.8001">View themed viewer chrome</text><text fill="#000000" font-family="sans-serif" font-size="14" lengthAdjust="spacing" textLength="188.7813" x="829.6808" y="1263.2883">(Catppuccin, bundled fonts,</text><text fill="#000000" font-family="sans-serif" font-size="14" lengthAdjust="spacing" textLength="189.417" x="829.363" y="1279.7766">OS appearance auto-follow)</text></g><!--entity ViewSource--><g class="entity" data-qualified-name="mdd-viewer.ViewSource" data-source-line="49" id="ent0013"><ellipse cx="924.0724" cy="1157.4448" fill="#F1F1F1" rx="128.7324" ry="28.1465" style="stroke:#181818;stroke-width:0.5;"/><text fill="#000000" font-family="sans-serif" font-size="14" lengthAdjust="spacing" textLength="148.4355" x="849.8546" y="1150.1349">View PlantUML source</text><text fill="#000000" font-family="sans-serif" font-size="14" lengthAdjust="spacing" textLength="217.1641" x="815.4903" y="1166.6232">(Source toggle next to Diagram)</text></g><!--entity OpenRender--><g class="entity" data-qualified-name="mdd-viewer.OpenRender" data-source-line="50" id="ent0014"><ellipse cx="367.1305" cy="1007.4484" fill="#F1F1F1" rx="122.5505" ry="26.9101" style="stroke:#181818;stroke-width:0.5;"/><text fill="#000000" font-family="sans-serif" font-size="14" lengthAdjust="spacing" textLength="185.3359" x="274.4625" y="1005.3304">Open React mockup render</text><text fill="#000000" font-family="sans-serif" font-size="14" lengthAdjust="spacing" textLength="158.8535" x="287.7037" y="1021.8187">(button opens browser)</text></g><!--entity Dev--><g class="entity" data-qualified-name="Dev" data-source-line="37" id="ent0002"><ellipse cx="40.1592" cy="1252.7083" fill="#F1F1F1" rx="8" ry="8" style="stroke:#181818;stroke-width:0.5;"/><path d="M40.1592,1260.7083 L40.1592,1287.7083 M27.1592,1268.7083 L53.1592,1268.7083 M40.1592,1287.7083 L27.1592,1302.7083 M40.1592,1287.7083 L53.1592,1302.7083" fill="none" style="stroke:#181818;stroke-width:0.5;"/><text fill="#000000" font-family="sans-serif" font-size="14" lengthAdjust="spacing" textLength="68.3184" x="6" y="1317.7434">Developer</text></g><g class="entity" data-qualified-name="GMN35" data-source-line="76" id="ent0036"><path d="M207.79,178.8683 L207.79,296.0421 L526.476,296.0421 L526.476,188.8683 L516.476,178.8683 L207.79,178.8683" fill="#FEFFDD" style="stroke:#181818;stroke-width:0.5;"/><path d="M516.476,178.8683 L516.476,188.8683 L526.476,188.8683 L516.476,178.8683" fill="#FEFFDD" style="stroke:#181818;stroke-width:1;"/><text fill="#000000" font-family="sans-serif" font-size="13" lengthAdjust="spacing" textLength="284.9971" x="213.79" y="196.4366">Code (USE-VIEW-OCL): when the selected file</text><text fill="#000000" font-family="sans-serif" font-size="13" lengthAdjust="spacing" textLength="289.4912" x="213.79" y="211.7472">kind is Constraint, MddViewer::ocl_ui shows a</text><text fill="#000000" font-family="sans-serif" font-size="13" lengthAdjust="spacing" textLength="271.1528" x="213.79" y="227.0577">Source | Diagram toggle. Source = raw .ocl</text><text fill="#000000" font-family="sans-serif" font-size="13" lengthAdjust="spacing" textLength="266.0811" x="213.79" y="242.3683">text (read-only, @id/context/inv colored);</text><text fill="#000000" font-family="sans-serif" font-size="13" lengthAdjust="spacing" textLength="274.3203" x="213.79" y="257.6788">Diagram = the synthesized constraints SVG</text><text fill="#000000" font-family="sans-serif" font-size="13" lengthAdjust="spacing" textLength="297.686" x="213.79" y="272.9894">(mdd_render::render_ocl_diagrams) painted via</text><text fill="#000000" font-family="sans-serif" font-size="13" lengthAdjust="spacing" textLength="265.1924" x="213.79" y="288.2999">paint_canvas. Realized by SEQ-VIEW-OCL.</text></g><g class="entity" data-qualified-name="GMN38" data-source-line="86" id="ent0039"><path d="M735.11,255.5183 L735.11,357.3816 L1113.026,357.3816 L1113.026,265.5183 L1103.026,255.5183 L735.11,255.5183" fill="#FEFFDD" style="stroke:#181818;stroke-width:0.5;"/><path d="M1103.026,255.5183 L1103.026,265.5183 L1113.026,265.5183 L1103.026,255.5183" fill="#FEFFDD" style="stroke:#181818;stroke-width:1;"/><text fill="#000000" font-family="sans-serif" font-size="13" lengthAdjust="spacing" textLength="316.6338" x="741.11" y="273.0866">Code (USE-FISHEYE-FOCUS): the canvas paints the</text><text fill="#000000" font-family="sans-serif" font-size="13" lengthAdjust="spacing" textLength="342.1387" x="741.11" y="288.3972">rendered texture through a center-fixed fisheye mesh</text><text fill="#000000" font-family="sans-serif" font-size="13" lengthAdjust="spacing" textLength="356.916" x="741.11" y="303.7077">(CanvasView::fisheye_mesh / warp) &#8212; the centre bulges,</text><text fill="#000000" font-family="sans-serif" font-size="13" lengthAdjust="spacing" textLength="354.3262" x="741.11" y="319.0183">content compresses toward the edges, corners stay put.</text><text fill="#000000" font-family="sans-serif" font-size="13" lengthAdjust="spacing" textLength="346.9375" x="741.11" y="334.3288">Layered on the scroll-at-cursor base zoom; drag pans.</text><text fill="#000000" font-family="sans-serif" font-size="13" lengthAdjust="spacing" textLength="221.0381" x="741.11" y="349.6394">Realized by SEQ-CANVAS-FISHEYE.</text></g><g class="entity" data-qualified-name="GMN41" data-source-line="95" id="ent0042"><path d="M744.45,43.4883 L744.45,99.4199 L1103.6976,99.4199 L1103.6976,53.4883 L1093.6976,43.4883 L744.45,43.4883" fill="#FEFFDD" style="stroke:#181818;stroke-width:0.5;"/><path d="M1093.6976,43.4883 L1093.6976,53.4883 L1103.6976,53.4883 L1093.6976,43.4883" fill="#FEFFDD" style="stroke:#181818;stroke-width:1;"/><text fill="#000000" font-family="sans-serif" font-size="13" lengthAdjust="spacing" textLength="338.2476" x="750.45" y="61.0566">The toolbar has no Reset / Zoom + / Zoom - buttons</text><text fill="#000000" font-family="sans-serif" font-size="13" lengthAdjust="spacing" textLength="325.0127" x="750.45" y="76.3672">(removed). Zoom is scroll-only at the cursor; pan is</text><text fill="#000000" font-family="sans-serif" font-size="13" lengthAdjust="spacing" textLength="318.2715" x="750.45" y="91.6777">drag-only. A small hint label replaces the buttons.</text></g><g class="entity" data-qualified-name="GMN44" data-source-line="101" id="ent0045"><path d="M736.83,134.1783 L736.83,220.731 L1111.3056,220.731 L1111.3056,144.1783 L1101.3056,134.1783 L736.83,134.1783" fill="#FEFFDD" style="stroke:#181818;stroke-width:0.5;"/><path d="M1101.3056,134.1783 L1101.3056,144.1783 L1111.3056,144.1783 L1101.3056,134.1783" fill="#FEFFDD" style="stroke:#181818;stroke-width:1;"/><text fill="#000000" font-family="sans-serif" font-size="13" lengthAdjust="spacing" textLength="353.4756" x="742.83" y="151.7466">Code (USE-TOGGLE-PANELS): each SidePanel renders an</text><text fill="#000000" font-family="sans-serif" font-size="13" lengthAdjust="spacing" textLength="303.0942" x="742.83" y="167.0572">inner-edge chevron; clicking it sets PanelLayout</text><text fill="#000000" font-family="sans-serif" font-size="13" lengthAdjust="spacing" textLength="316.8813" x="742.83" y="182.3677">collapsed and the panel shrinks to an exact-width</text><text fill="#000000" font-family="sans-serif" font-size="13" lengthAdjust="spacing" textLength="319.3696" x="742.83" y="197.6783">sliver button that re-expands on click. Realized by</text><text fill="#000000" font-family="sans-serif" font-size="13" lengthAdjust="spacing" textLength="146.1992" x="742.83" y="212.9888">SEQ-PANEL-COLLAPSE.</text></g><g class="entity" data-qualified-name="GMN47" data-source-line="109" id="ent0048"><path d="M171.62,651.1783 L171.62,737.731 L562.6439,737.731 L562.6439,661.1783 L552.6439,651.1783 L171.62,651.1783" fill="#FEFFDD" style="stroke:#181818;stroke-width:0.5;"/><path d="M552.6439,651.1783 L552.6439,661.1783 L562.6439,661.1783 L552.6439,651.1783" fill="#FEFFDD" style="stroke:#181818;stroke-width:1;"/><text fill="#000000" font-family="sans-serif" font-size="13" lengthAdjust="spacing" textLength="340.6787" x="177.62" y="668.7466">Reads pre-rendered SVGs from .mdd/rendered/. If no</text><text fill="#000000" font-family="sans-serif" font-size="13" lengthAdjust="spacing" textLength="329.4561" x="177.62" y="684.0572">models are mapped/rendered the canvas shows "No</text><text fill="#000000" font-family="sans-serif" font-size="13" lengthAdjust="spacing" textLength="297.5718" x="177.62" y="699.3677">rendered output". Text rendering is realized by</text><text fill="#000000" font-family="sans-serif" font-size="13" lengthAdjust="spacing" textLength="370.0239" x="177.62" y="714.6783">SEQ-RENDER-DIAGRAM-PAGE, which consults a populated</text><text fill="#000000" font-family="sans-serif" font-size="13" lengthAdjust="spacing" textLength="367.1548" x="177.62" y="729.9888">font database (DOM-FONT-DATABASE) before rasterizing.</text></g><g class="entity" data-qualified-name="GMN50" data-source-line="117" id="ent0051"><path d="M749.16,589.5583 L749.16,737.3532 L1098.9813,737.3532 L1098.9813,599.5583 L1088.9813,589.5583 L749.16,589.5583" fill="#FEFFDD" style="stroke:#181818;stroke-width:0.5;"/><path d="M1088.9813,589.5583 L1088.9813,599.5583 L1098.9813,599.5583 L1088.9813,589.5583" fill="#FEFFDD" style="stroke:#181818;stroke-width:1;"/><text fill="#000000" font-family="sans-serif" font-size="13" lengthAdjust="spacing" textLength="266.2334" x="755.16" y="607.1266">Added cycle 0011 (USE-VIEWER-THEMED):</text><text fill="#000000" font-family="sans-serif" font-size="13" lengthAdjust="spacing" textLength="263.1294" x="755.16" y="622.4372">crates/mdd-viewer/src/theme.rs bundles</text><text fill="#000000" font-family="sans-serif" font-size="13" lengthAdjust="spacing" textLength="284.4258" x="755.16" y="637.7477">Inter (Regular + Medium) and JetBrains Mono</text><text fill="#000000" font-family="sans-serif" font-size="13" lengthAdjust="spacing" textLength="263.5928" x="755.16" y="653.0583">Regular via include_bytes!, registers them</text><text fill="#000000" font-family="sans-serif" font-size="13" lengthAdjust="spacing" textLength="281.3281" x="755.16" y="668.3688">through eframe's CreationContext once, and</text><text fill="#000000" font-family="sans-serif" font-size="13" lengthAdjust="spacing" textLength="283.3975" x="755.16" y="683.6794">reapplies catppuccin_egui MOCHA | LATTE +</text><text fill="#000000" font-family="sans-serif" font-size="13" lengthAdjust="spacing" textLength="291.0273" x="755.16" y="698.9899">spacing/rounding overrides each frame based</text><text fill="#000000" font-family="sans-serif" font-size="13" lengthAdjust="spacing" textLength="219.5781" x="755.16" y="714.3005">on dark_light::detect(). Realized by</text><text fill="#000000" font-family="sans-serif" font-size="13" lengthAdjust="spacing" textLength="328.8213" x="755.16" y="729.611">SEQ-APPLY-THEME, owned by CMP-VIEWER-THEME.</text></g><g class="entity" data-qualified-name="GMN53" data-source-line="129" id="ent0054"><path d="M175.12,330.8683 L175.12,448.0421 L559.1488,448.0421 L559.1488,340.8683 L549.1488,330.8683 L175.12,330.8683" fill="#FEFFDD" style="stroke:#181818;stroke-width:0.5;"/><path d="M549.1488,330.8683 L549.1488,340.8683 L559.1488,340.8683 L549.1488,330.8683" fill="#FEFFDD" style="stroke:#181818;stroke-width:1;"/><text fill="#000000" font-family="sans-serif" font-size="13" lengthAdjust="spacing" textLength="363.0288" x="181.12" y="348.4366">Added cycle 0010 (USE-VIEW-DEPLOY): MddViewer::new()</text><text fill="#000000" font-family="sans-serif" font-size="13" lengthAdjust="spacing" textLength="277.3164" x="181.12" y="363.7472">calls project.deploy_files() as a third source;</text><text fill="#000000" font-family="sans-serif" font-size="13" lengthAdjust="spacing" textLength="350.8286" x="181.12" y="379.0577">update() renders a "DEPLOY" header after the rail-mode</text><text fill="#000000" font-family="sans-serif" font-size="13" lengthAdjust="spacing" textLength="355.6528" x="181.12" y="394.3683">match (Directory AND By-cycle). lookup_file -&gt; load_file</text><text fill="#000000" font-family="sans-serif" font-size="13" lengthAdjust="spacing" textLength="348.8481" x="181.12" y="409.6788">paints .mdd/rendered/deploy/&lt;rel&gt;.svg. deploy_files()</text><text fill="#000000" font-family="sans-serif" font-size="13" lengthAdjust="spacing" textLength="360.8896" x="181.12" y="424.9894">reuses render_sources(RenderTree::Deploy) and is NEVER</text><text fill="#000000" font-family="sans-serif" font-size="13" lengthAdjust="spacing" textLength="312.5078" x="181.12" y="440.2999">in ModelRegistry. Realized by SEQ-VIEW-DEPLOY.</text></g><g class="entity" data-qualified-name="GMN56" data-source-line="139" id="ent0057"><path d="M719.95,391.8983 L719.95,555.0038 L1128.1951,555.0038 L1128.1951,401.8983 L1118.1951,391.8983 L719.95,391.8983" fill="#FEFFDD" style="stroke:#181818;stroke-width:0.5;"/><path d="M1118.1951,391.8983 L1118.1951,401.8983 L1128.1951,401.8983 L1118.1951,391.8983" fill="#FEFFDD" style="stroke:#181818;stroke-width:1;"/><text fill="#000000" font-family="sans-serif" font-size="13" lengthAdjust="spacing" textLength="314.666" x="725.95" y="409.4666">Added cycle 0012 (USE-VIEW-PUML-SOURCE): the</text><text fill="#000000" font-family="sans-serif" font-size="13" lengthAdjust="spacing" textLength="313.9868" x="725.95" y="424.7772">CentralPanel toggle row is Diagram | Source | Diff</text><text fill="#000000" font-family="sans-serif" font-size="13" lengthAdjust="spacing" textLength="291.9604" x="725.95" y="440.0877">(View::Source). Clicking "Source" dispatches to</text><text fill="#000000" font-family="sans-serif" font-size="13" lengthAdjust="spacing" textLength="325.4189" x="725.95" y="455.3983">MddViewer::source_ui, which reads the selected file</text><text fill="#000000" font-family="sans-serif" font-size="13" lengthAdjust="spacing" textLength="331.1636" x="725.95" y="470.7088">once into SourceView { loaded, source } and paints it</text><text fill="#000000" font-family="sans-serif" font-size="13" lengthAdjust="spacing" textLength="317.9541" x="725.95" y="486.0194">via egui::ScrollArea::both as read-only monospace</text><text fill="#000000" font-family="sans-serif" font-size="13" lengthAdjust="spacing" textLength="317.8335" x="725.95" y="501.3299">(`' @` markers yellow, `@start`/`@end` blue, `'`</text><text fill="#000000" font-family="sans-serif" font-size="13" lengthAdjust="spacing" textLength="362.4258" x="725.95" y="516.6405">comments dimmed). No DiagramPage / rasterizer call, so</text><text fill="#000000" font-family="sans-serif" font-size="13" lengthAdjust="spacing" textLength="387.2451" x="725.95" y="531.951">it needs no rendered SVG (OCL-PUML-SOURCE-NO-RENDER).</text><text fill="#000000" font-family="sans-serif" font-size="13" lengthAdjust="spacing" textLength="242.1631" x="725.95" y="547.2616">Realized by SEQ-VIEW-PUML-SOURCE.</text></g><g class="entity" data-qualified-name="GMN59" data-source-line="152" id="ent0060"><path d="M135.32,483.2083 L135.32,615.6927 L598.9484,615.6927 L598.9484,493.2083 L588.9484,483.2083 L135.32,483.2083" fill="#FEFFDD" style="stroke:#181818;stroke-width:0.5;"/><path d="M588.9484,483.2083 L588.9484,493.2083 L598.9484,493.2083 L588.9484,483.2083" fill="#FEFFDD" style="stroke:#181818;stroke-width:1;"/><text fill="#000000" font-family="sans-serif" font-size="13" lengthAdjust="spacing" textLength="428.8667" x="141.32" y="500.7766">Code (USE-OPEN-RENDER): the view-tab row adds an "Open render"</text><text fill="#000000" font-family="sans-serif" font-size="13" lengthAdjust="spacing" textLength="302.2881" x="141.32" y="516.0872">button (MddViewer::update). Enabled only when</text><text fill="#000000" font-family="sans-serif" font-size="13" lengthAdjust="spacing" textLength="399.5532" x="141.32" y="531.3977">MddViewer::selected_render_slug() is Some &#8212; the selection is a</text><text fill="#000000" font-family="sans-serif" font-size="13" lengthAdjust="spacing" textLength="442.6284" x="141.32" y="546.7083">ModelKind::Mockup whose mockups/src/mockups/&lt;slug&gt;.tsx exists.</text><text fill="#000000" font-family="sans-serif" font-size="13" lengthAdjust="spacing" textLength="408.6304" x="141.32" y="562.0188">Click runs open_mockup_render off-thread: mockup_server_up()</text><text fill="#000000" font-family="sans-serif" font-size="13" lengthAdjust="spacing" textLength="395.5161" x="141.32" y="577.3294">probes :4317, spawns npm run dev in mockups/ if down, then</text><text fill="#000000" font-family="sans-serif" font-size="13" lengthAdjust="spacing" textLength="345.1665" x="141.32" y="592.6399">open_in_browser opens /mockup/&lt;slug&gt;. Realized by</text><text fill="#000000" font-family="sans-serif" font-size="13" lengthAdjust="spacing" textLength="344.2651" x="141.32" y="607.9505">SEQ-OPEN-RENDER; launcher CMP-MOCKUP-LAUNCH.</text></g><!--link Dev to View--><g class="link" data-entity-1="ent0002" data-entity-2="ent0004" data-link-type="dependency" data-source-line="53" id="lnk15"><path d="M60.34,1243.9783 C76.47,1215.6483 102.21,1178.5483 135.32,1157.4483 C169.96,1135.3883 206.9472,1124.1075 246.3372,1117.3175" fill="none" id="Dev-to-View" style="stroke:#181818;stroke-width:1;"/><polygon fill="#181818" points="252.25,1116.2983,242.7013,1113.8853,247.3227,1117.1476,244.0603,1121.769,252.25,1116.2983" style="stroke:#181818;stroke-width:1;"/></g><!--link Dev to Browse--><g class="link" data-entity-1="ent0002" data-entity-2="ent0005" data-link-type="dependency" data-source-line="54" id="lnk16"><path d="M74.57,1298.6283 C83.98,1302.5083 94.37,1306.1883 104.32,1308.4483 C231.38,1337.3783 594.33,1426.9783 689.95,1338.4483 C753.57,1279.5483 661.58,1013.5583 719.95,949.4483 C752.59,913.5983 801.5807,905.8053 846.1207,906.4953" fill="none" id="Dev-to-Browse" style="stroke:#181818;stroke-width:1;"/><polygon fill="#181818" points="852.12,906.5883,843.183,902.4494,847.1206,906.5108,843.0591,910.4484,852.12,906.5883" style="stroke:#181818;stroke-width:1;"/></g><!--link Dev to PanZoom--><g class="link" data-entity-1="ent0002" data-entity-2="ent0006" data-link-type="dependency" data-source-line="55" id="lnk17"><path d="M74.79,1286.2883 C195.14,1299.2283 601.88,1335.8083 689.95,1250.4483 C749.5,1192.7283 665.18,940.7283 719.95,878.4483 C742.8,852.4683 771.1582,840.8937 805.0782,835.3637" fill="none" id="Dev-to-PanZoom" style="stroke:#181818;stroke-width:1;"/><polygon fill="#181818" points="811,834.3983,801.4736,831.8986,806.0652,835.2028,802.7609,839.7943,811,834.3983" style="stroke:#181818;stroke-width:1;"/></g><!--link Dev to Fisheye--><g class="link" data-entity-1="ent0002" data-entity-2="ent0007" data-link-type="dependency" data-source-line="56" id="lnk18"><path d="M43.53,1321.0483 C48.29,1360.9683 62.43,1421.4483 104.32,1450.4483 C211.31,1524.5383 593.95,1538.3283 689.95,1450.4483 C745.73,1399.3883 669.12,1167.4483 719.95,1111.4483 C748.22,1080.3083 787.2099,1070.0632 827.6699,1067.7332" fill="none" id="Dev-to-Fisheye" style="stroke:#181818;stroke-width:1;"/><polygon fill="#181818" points="833.66,1067.3883,824.4449,1063.9123,828.6683,1067.6757,824.9049,1071.8991,833.66,1067.3883" style="stroke:#181818;stroke-width:1;"/></g><!--link Dev to Panels--><g class="link" data-entity-1="ent0002" data-entity-2="ent0008" data-link-type="dependency" data-source-line="57" id="lnk19"><path d="M55.6,1321.1483 C65.75,1342.4083 81.61,1366.9483 104.32,1379.4483 C218.32,1442.2483 594.09,1474.4883 689.95,1386.4483 C747.77,1333.3483 667.83,1093.1683 719.95,1034.4483 C742.72,1008.7983 770.7366,997.3741 804.3866,991.9441" fill="none" id="Dev-to-Panels" style="stroke:#181818;stroke-width:1;"/><polygon fill="#181818" points="810.31,990.9883,800.7877,988.4731,805.3739,991.7848,802.0622,996.371,810.31,990.9883" style="stroke:#181818;stroke-width:1;"/></g><!--link Dev to Trace--><g class="link" data-entity-1="ent0002" data-entity-2="ent0009" data-link-type="dependency" data-source-line="58" id="lnk20"><path d="M74.5,1267.3683 C84,1263.4383 94.45,1259.4683 104.32,1256.4483 C157.02,1240.3283 211.2589,1228.6231 260.5989,1219.5531" fill="none" id="Dev-to-Trace" style="stroke:#181818;stroke-width:1;"/><polygon fill="#181818" points="266.5,1218.4683,256.9251,1216.1614,261.5824,1219.3723,258.3715,1224.0295,266.5,1218.4683" style="stroke:#181818;stroke-width:1;"/></g><!--link Dev to ViewOcl--><g class="link" data-entity-1="ent0002" data-entity-2="ent0010" data-link-type="dependency" data-source-line="59" id="lnk21"><path d="M44.2,1243.7883 C52.46,1149.1683 78.63,909.8283 135.32,857.4483 C169.9,825.5083 214.2773,814.0831 259.1373,810.6731" fill="none" id="Dev-to-ViewOcl" style="stroke:#181818;stroke-width:1;"/><polygon fill="#181818" points="265.12,810.2183,255.8427,806.9119,260.1344,810.5973,256.4491,814.8889,265.12,810.2183" style="stroke:#181818;stroke-width:1;"/></g><!--link Dev to ViewDeploy--><g class="link" data-entity-1="ent0002" data-entity-2="ent0011" data-link-type="dependency" data-source-line="60" id="lnk22"><path d="M40.79,1243.9683 C42.35,1176.8283 55.71,1038.3183 135.32,963.4483 C164.22,936.2683 198.2314,923.1465 236.7414,915.9765" fill="none" id="Dev-to-ViewDeploy" style="stroke:#181818;stroke-width:1;"/><polygon fill="#181818" points="242.64,914.8783,233.0599,912.5932,237.7245,915.7935,234.5242,920.4581,242.64,914.8783" style="stroke:#181818;stroke-width:1;"/></g><!--link Dev to Themed--><g class="link" data-entity-1="ent0002" data-entity-2="ent0012" data-link-type="dependency" data-source-line="61" id="lnk23"><path d="M43.14,1321.0983 C47.91,1396.4383 62.84,1558.5783 104.32,1592.4483 C305.9,1757.1083 459.17,1712.8083 689.95,1592.4483 C811.58,1529.0183 880.6444,1375.5404 907.9844,1302.1904" fill="none" id="Dev-to-Themed" style="stroke:#181818;stroke-width:1;"/><polygon fill="#181818" points="910.08,1296.5683,903.1886,1303.6045,908.3337,1301.2534,910.6848,1306.3986,910.08,1296.5683" style="stroke:#181818;stroke-width:1;"/></g><!--link Dev to ViewSource--><g class="link" data-entity-1="ent0002" data-entity-2="ent0013" data-link-type="dependency" data-source-line="62" id="lnk24"><path d="M45.65,1320.8283 C53.68,1381.9683 72.69,1497.0983 104.32,1521.4483 C207.43,1600.8583 593.7,1609.0483 689.95,1521.4483 C742.44,1473.6783 673.09,1256.7683 719.95,1203.4483 C739.52,1181.1783 761.5692,1169.873 790.4192,1162.873" fill="none" id="Dev-to-ViewSource" style="stroke:#181818;stroke-width:1;"/><polygon fill="#181818" points="796.25,1161.4583,786.5606,1159.6932,791.391,1162.6372,788.4469,1167.4676,796.25,1161.4583" style="stroke:#181818;stroke-width:1;"/></g><!--link Dev to OpenRender--><g class="link" data-entity-1="ent0002" data-entity-2="ent0014" data-link-type="dependency" data-source-line="63" id="lnk25"><path d="M47.1,1243.9483 C56.75,1194.8583 80.57,1110.8083 135.32,1064.4483 C167.05,1037.5783 203.6705,1024.1743 243.5505,1016.4143" fill="none" id="Dev-to-OpenRender" style="stroke:#181818;stroke-width:1;"/><polygon fill="#181818" points="249.44,1015.2683,239.8417,1013.0609,244.5321,1016.2233,241.3697,1020.9137,249.44,1015.2683" style="stroke:#181818;stroke-width:1;"/></g><!--link View to Browse--><g class="link" data-entity-1="ent0004" data-entity-2="ent0005" data-link-type="dependency" data-source-line="65" id="lnk26"><path d="M485.74,1104.0983 C552.99,1095.7383 634.69,1074.8383 689.95,1024.4483 C716.47,1000.2583 692.04,972.0383 719.95,949.4483 C755.13,920.9683 799.1449,912.3319 840.7349,910.6419" fill="none" id="View-to-Browse" style="stroke:#181818;stroke-width:1;stroke-dasharray:7,7;"/><polygon fill="#181818" points="846.73,910.3983,837.575,906.767,841.7341,910.6013,837.8998,914.7604,846.73,910.3983" style="stroke:#181818;stroke-width:1;"/><text fill="#000000" font-family="sans-serif" font-size="13" lengthAdjust="spacing" textLength="59.3569" x="629.95" y="1021.0166">&#171;include&#187;</text></g><!--link View to PanZoom--><g class="link" data-entity-1="ent0004" data-entity-2="ent0006" data-link-type="dependency" data-source-line="66" id="lnk27"><path d="M484.49,1102.6083 C525.05,1095.1183 568.08,1080.2383 598.95,1051.4483 C630.71,1021.8383 605.12,994.7583 628.95,958.4483 C636.33,947.1983 707.91,884.4883 719.95,878.4483 C751.12,862.8183 781.8446,853.974 815.3446,847.634" fill="none" id="View-to-PanZoom" style="stroke:#181818;stroke-width:1;stroke-dasharray:7,7;"/><polygon fill="#181818" points="821.24,846.5183,811.6532,844.2616,816.3272,847.448,813.1408,852.1221,821.24,846.5183" style="stroke:#181818;stroke-width:1;"/><text fill="#000000" font-family="sans-serif" font-size="13" lengthAdjust="spacing" textLength="57.1924" x="630.95" y="898.5266">&#171;extend&#187;</text></g><!--link View to Fisheye--><g class="link" data-entity-1="ent0004" data-entity-2="ent0007" data-link-type="dependency" data-source-line="67" id="lnk28"><path d="M446.15,1128.5583 C527.35,1147.7483 648.37,1170.9283 689.95,1150.4483 C709.57,1140.7883 701.3,1122.8783 719.95,1111.4483 C752.98,1091.1983 788.3387,1082.0314 825.0687,1077.3214" fill="none" id="View-to-Fisheye" style="stroke:#181818;stroke-width:1;stroke-dasharray:7,7;"/><polygon fill="#181818" points="831.02,1076.5583,821.5843,1073.7355,826.0606,1077.1942,822.6019,1081.6705,831.02,1076.5583" style="stroke:#181818;stroke-width:1;"/><text fill="#000000" font-family="sans-serif" font-size="13" lengthAdjust="spacing" textLength="57.1924" x="630.95" y="1147.0166">&#171;extend&#187;</text></g><!--link View to Panels--><g class="link" data-entity-1="ent0004" data-entity-2="ent0008" data-link-type="dependency" data-source-line="68" id="lnk29"><path d="M454.86,1126.7283 C524.04,1136.3683 620.53,1138.2883 689.95,1093.4483 C714.66,1077.4883 696.57,1052.3083 719.95,1034.4483 C746.28,1014.3483 774.019,1004.3538 806.309,998.4138" fill="none" id="View-to-Panels" style="stroke:#181818;stroke-width:1;stroke-dasharray:7,7;"/><polygon fill="#181818" points="812.21,997.3283,802.6348,995.0226,807.2925,998.2329,804.0822,1002.8906,812.21,997.3283" style="stroke:#181818;stroke-width:1;"/><text fill="#000000" font-family="sans-serif" font-size="13" lengthAdjust="spacing" textLength="57.1924" x="630.95" y="1090.0166">&#171;extend&#187;</text></g><!--link View to Themed--><g class="link" data-entity-1="ent0004" data-entity-2="ent0012" data-link-type="dependency" data-source-line="69" id="lnk30"><path d="M484.9,1113.5583 C524.23,1120.1283 566.35,1132.9783 598.95,1157.4483 C621.53,1174.4083 605.89,1197.1483 628.95,1213.4483 C674.4,1245.5883 727.7098,1258.1515 781.1498,1262.5015" fill="none" id="View-to-Themed" style="stroke:#181818;stroke-width:1;stroke-dasharray:7,7;"/><polygon fill="#181818" points="787.13,1262.9883,778.4842,1258.2713,782.1465,1262.5826,777.8351,1266.2449,787.13,1262.9883" style="stroke:#181818;stroke-width:1;"/><text fill="#000000" font-family="sans-serif" font-size="13" lengthAdjust="spacing" textLength="59.3569" x="629.95" y="1210.0166">&#171;include&#187;</text></g><!--link View to ViewSource--><g class="link" data-entity-1="ent0004" data-entity-2="ent0013" data-link-type="dependency" data-source-line="70" id="lnk31"><path d="M475.86,1119.7983 C515.99,1126.9383 560.99,1138.5683 598.95,1157.4483 C614.74,1165.3083 612.42,1177.2883 628.95,1183.4483 C654.35,1192.9283 662.88,1184.9583 689.95,1183.4483 C730.4,1181.1983 768.6711,1177.479 807.6211,1172.899" fill="none" id="View-to-ViewSource" style="stroke:#181818;stroke-width:1;stroke-dasharray:7,7;"/><polygon fill="#181818" points="813.58,1172.1983,804.1745,1169.2767,808.6142,1172.7822,805.1087,1177.222,813.58,1172.1983" style="stroke:#181818;stroke-width:1;"/><text fill="#000000" font-family="sans-serif" font-size="13" lengthAdjust="spacing" textLength="57.1924" x="630.95" y="1180.0166">&#171;extend&#187;</text></g><!--link ViewOcl to PanZoom--><g class="link" data-entity-1="ent0010" data-entity-2="ent0006" data-link-type="dependency" data-source-line="71" id="lnk32"><path d="M469.27,818.2783 C566.34,821.9483 706.5743,827.2618 806.6443,831.0418" fill="none" id="ViewOcl-to-PanZoom" style="stroke:#181818;stroke-width:1;stroke-dasharray:7,7;"/><polygon fill="#181818" points="812.64,831.2683,803.7974,826.9314,807.6436,831.0795,803.4954,834.9257,812.64,831.2683" style="stroke:#181818;stroke-width:1;"/><text fill="#000000" font-family="sans-serif" font-size="13" lengthAdjust="spacing" textLength="57.1924" x="630.95" y="820.8866">&#171;extend&#187;</text></g><!--link ViewDeploy to PanZoom--><g class="link" data-entity-1="ent0011" data-entity-2="ent0006" data-link-type="dependency" data-source-line="72" id="lnk33"><path d="M480.77,895.2283 C582.14,881.5283 723.624,862.4014 819.944,849.3914" fill="none" id="ViewDeploy-to-PanZoom" style="stroke:#181818;stroke-width:1;stroke-dasharray:7,7;"/><polygon fill="#181818" points="825.89,848.5883,816.4356,845.829,820.935,849.2576,817.5064,853.757,825.89,848.5883" style="stroke:#181818;stroke-width:1;"/><text fill="#000000" font-family="sans-serif" font-size="13" lengthAdjust="spacing" textLength="57.1924" x="630.95" y="865.0266">&#171;extend&#187;</text></g><!--link OpenRender to Browse--><g class="link" data-entity-1="ent0014" data-entity-2="ent0005" data-link-type="dependency" data-source-line="73" id="lnk34"><path d="M483.64,1016.2183 C547.25,1016.5183 626.02,1009.2383 689.95,979.4483 C707.04,971.4883 703.2,958.1283 719.95,949.4483 C758.55,929.4483 800.298,921.1276 839.778,917.2976" fill="none" id="OpenRender-to-Browse" style="stroke:#181818;stroke-width:1;stroke-dasharray:7,7;"/><polygon fill="#181818" points="845.75,916.7183,836.4058,913.606,840.7734,917.2011,837.1783,921.5686,845.75,916.7183" style="stroke:#181818;stroke-width:1;"/><text fill="#000000" font-family="sans-serif" font-size="13" lengthAdjust="spacing" textLength="59.3569" x="629.95" y="976.0166">&#171;include&#187;</text></g><!--link ViewOcl to GMN35--><g class="link" data-entity-1="ent0010" data-entity-2="ent0036" data-link-type="association" data-source-line="76" id="lnk37"><path d="M263.87,816.1083 C204.7,810.7183 136.14,792.0383 104.82,737.9483 C82.15,698.8183 82.15,370.0883 104.82,330.9483 C126.75,293.0883 165.95,270.3083 207.48,256.6883" fill="none" id="ViewOcl-GMN35" style="stroke:#181818;stroke-width:1;stroke-dasharray:7,7;"/></g><!--link Fisheye to GMN38--><g class="link" data-entity-1="ent0007" data-entity-2="ent0039" data-link-type="association" data-source-line="86" id="lnk40"><path d="M837.53,1081.9283 C776.81,1082.5183 699.57,1071.3283 659.45,1017.9483 C617.65,962.3583 618.52,448.1883 659.45,391.9483 C678.34,365.9983 705.27,347.7483 734.8,334.9683" fill="none" id="Fisheye-GMN38" style="stroke:#181818;stroke-width:1;stroke-dasharray:7,7;"/></g><!--link PanZoom to GMN41--><g class="link" data-entity-1="ent0006" data-entity-2="ent0042" data-link-type="association" data-source-line="95" id="lnk43"><path d="M819.95,825.1183 C762.44,813.4883 695.53,788.8883 659.45,736.9483 C582.99,626.9083 578.93,241.0583 659.45,133.9483 C680.3,106.2183 710.99,89.2583 744.15,79.1683" fill="none" id="PanZoom-GMN41" style="stroke:#181818;stroke-width:1;stroke-dasharray:7,7;"/></g><!--link Panels to GMN44--><g class="link" data-entity-1="ent0008" data-entity-2="ent0045" data-link-type="association" data-source-line="101" id="lnk46"><path d="M813.2,998.5183 C757.46,994.9783 694.46,979.5283 659.45,932.9483 C614.25,872.8283 614.45,316.2383 659.45,255.9483 C678.8,230.0283 706.34,212.3183 736.41,200.2983" fill="none" id="Panels-GMN44" style="stroke:#181818;stroke-width:1;stroke-dasharray:7,7;"/></g><!--link View to GMN47--><g class="link" data-entity-1="ent0004" data-entity-2="ent0048" data-link-type="association" data-source-line="109" id="lnk49"><path d="M247.11,1109.2483 C192.21,1102.3883 133.17,1082.9083 104.82,1033.9483 C77.64,987.0283 77.64,836.8783 104.82,789.9483 C120.24,763.3183 144.15,744.0283 171.39,730.0683" fill="none" id="View-GMN47" style="stroke:#181818;stroke-width:1;stroke-dasharray:7,7;"/></g><!--link Themed to GMN50--><g class="link" data-entity-1="ent0012" data-entity-2="ent0051" data-link-type="association" data-source-line="117" id="lnk52"><path d="M786.81,1254.0683 C738.71,1245.0383 689.29,1225.6483 659.45,1185.9483 C606.57,1115.6083 612.52,864.3983 659.45,789.9483 C680.63,756.3483 713.47,731.4883 748.89,713.1483" fill="none" id="Themed-GMN50" style="stroke:#181818;stroke-width:1;stroke-dasharray:7,7;"/></g><!--link ViewDeploy to GMN53--><g class="link" data-entity-1="ent0011" data-entity-2="ent0054" data-link-type="association" data-source-line="129" id="lnk55"><path d="M241.84,912.6883 C188.42,906.1183 132.17,887.1883 104.82,839.9483 C65.06,771.2983 65.06,551.6083 104.82,482.9483 C120.87,455.2383 146.18,435.5983 174.89,421.7283" fill="none" id="ViewDeploy-GMN53" style="stroke:#181818;stroke-width:1;stroke-dasharray:7,7;"/></g><!--link ViewSource to GMN56--><g class="link" data-entity-1="ent0013" data-entity-2="ent0057" data-link-type="association" data-source-line="139" id="lnk58"><path d="M795.51,1160.2783 C744.62,1154.0683 690.86,1136.7383 659.45,1094.9483 C592.01,1005.2483 598.13,683.9383 659.45,589.9483 C674.74,566.5183 695.92,547.7583 719.7,532.7583" fill="none" id="ViewSource-GMN56" style="stroke:#181818;stroke-width:1;stroke-dasharray:7,7;"/></g><!--link OpenRender to GMN59--><g class="link" data-entity-1="ent0014" data-entity-2="ent0060" data-link-type="association" data-source-line="152" id="lnk61"><path d="M249.24,1015.0683 C193.59,1011.4183 133.24,995.0283 104.82,945.9483 C71.96,889.2283 71.96,707.6783 104.82,650.9483 C112.83,637.1183 123.09,625.1583 134.88,614.8183" fill="none" id="OpenRender-GMN59" style="stroke:#181818;stroke-width:1;stroke-dasharray:7,7;"/></g><?plantuml-src bLdRSkF64NtdLqpu455UWj8whYIcrblB9RcxYYLH4Qbrd78LDGI6928GWy80ahYsg_AK3qZbN_AUJ_6Nv7JF00HuqTfFAt1kFTsdky-SFHAUvud7fOwKjvA9I5Bze68P-weh_BKVAP4jPIR2E4jraFig44hwI_4c36XXuqYyuLcjs_7G-tW-_CuRdFVUt_GknsrnUdhwyhW-uztv-CFmU_mxwj_kdp4PlNz_CVIkUrV3Y_qp-9HH_u87lzetE1XUNuo-f_6Nftl6XpVUvCFmSZZW6NktlxwzlF36ezkR_f0dVRarQNGzlF9kXbU3uGsFVytZOR3h1Xu8bF7tUQWvK0ygqebAnKEe7esG8bLne5AuUQK35OaWb8jKheIE4GU5C7WoIOGlumTfn6EOBOLPoaHXPHo8J3rb8bABS1QfJhDgKitlTPEsGb8nQQxzt61hd9t8D1Dw3liAWnv2YIzVnPbAlNdu18ldeLcgjGFCIYxYS1vYETdj3ARfgM9RVRrAKcLeVrzZapWJcNwKQS3pLR1GfYqYkMPVkDiRFzLH91QHdib8VD9wLRzb3JlrMsx1gd9B7rlAXE-P2lMKm3XhSwJccRWS3R00zuyH3FOnHj9miNH3eZ-wcWp_Dd4ps2inmXJ3AtG9iSIYIBKHLp-IuIgC5vle1GWVhXQe5IRLhrA0V0zy6FhDyrKIgHMvF-WAeoBbPxIt51tjHmW54jSiDI1r6GGVWIsLThiOcUQXXOqKOvsdlZePk81cUh70eb_--HytWYiXwwqlKlaeS2uZh2sA9PK9PXtZ7nD-KXJQs6If7Hj_VB_dOZP1zwM6ozpgzKJBrY7EvcxrFh5wR1sBICk0CcVouVnc80pRtgOwzW_uf1Ee9DBhAJd4j8xROWOZ0sMpQveYLs3g6him9kcSoeyTCIbmWEj4BZVfh405eI_9k2DhilZVVyN9AWWyUnvzvbaOXTcwBMATKGBXRsz1Quv4ts8E0VkW9BOKhPb6J0OXK9BfTCtMl5rxzk9agy4zOHM5k8DZJkmn9rzySV959ybNqPdmez2_jn28b9p3M4vUyWxV7W6s0RCR57McjfDvM7ImGj_dYLrZb4nzn5KKJX4lHDMZP-wB0MT4ZAn24b5D49VauHkth8suY6iRacutLLJjMiSd3p8A0xW4_hzNAX7X8jRfzXrtyLCMy5q4LMhx0GozHAnHSr8SQpXY3uoc4vFw9u3mIdLIqnLf7iCeNqOHutkbo6gwYqgdSzGhq_gzxtVK8W-dVlPqZ3H6mg3icGoLCaz4wvoTWFldaKpXjKiW9b_H54gN9S9EzVGTjdedLs6qxdRXdaIdMQXZ6RN5NrJsbd882QnZNMxqp7gQPnBfA-2saYHvGXwkNmKz95fF-QF5vhyxlnbFR6UV8xFH-mEPtayZAdJTRg0on0t--ELV_yP6MPBalX_6Kxf-jsjKjjcgZRBO_z0JFucBtcGoHC9XA8PRrcX9P1sYsmapjPgw3_6DQFsvSzeMV-oSsYnCTHu7TWI_KO4aLAt5To7gQVOnDBd4JHwGK3BEEk8wHqVnbwbUsU8LQ0AYfdQIupfRCEmJ33QVAFdaJbGfbzmY2HCLXR7QKxKgf61FwQfHXWFO-nBrYyxhKn-KqJNt35TuK_qeGbFMrf-AAlmJVfhFHOlYYTG2XXOC2_hkTkqaHBnVfBzRXgWOwWlp3k4RlgpEFnCM5GXf428G6USu2aG5DxQGKh-OgRbEbUtZPMa_SLribe8hBZjYCpsIdu17-5EwHcgx4nE4I1qPIrEmXNQsyir-v4gbWhRRIVmClm6FM3PRet1bIuiErtD2sa5O08wP5lHmOBVBTLGQFjtJCUnO5Md1wBX3tEv0Jj9xn9hYRCHQHP5-R8kxDvoyToTtRm25EtY6gd7uW2cpA4TBmTPOT7TqH-I5Ocim1ty47N6bYy1TIpJz4v6Zb7BESUM3jOywlJU4v1XaMyKbx13oF2wASHrq5P9PnrkDVJPxi2yFewo2iwyTpdoBCwyW9-hHo-ICeRQKn1d5qIY1CVRy8-oJPSYtraxv0C3ECx8LJmEGIs9aS2rVf0eP5-YftMzgedm1Y67PkCZE7JpGgBHP-cqO1rJ6VBGVUf4OLIJbYdypNAEBlr_HxgyxcNa2QqCwanyvWLtZJxNEMaLYK3q7mSDTftQzCn4rTCustPxZ7m9DbpQOAT7zwWyl_uJW9V8n5d6oeXtGx1u8TeK98fmp46szaH6jN-DwwGCIqLK-EfDF68sHAo1aYekukqPn2uvxFqzXLUOnGK7pzdm95t3wQclb7VeL_t17-QDIoVYiS7AAGnjRfMeESat9CqTX15u3rQqISMe0nCqFC7Wy0LFiGWjcP8CZtiIuspQ4P2AZofG4sevaMaSpD2h2Lwon2Irom0AZBzcfAM9h7n9xoMXRI6omuLgnZYs34evq6KfG0DRawHmPRggyeV0A3aNTSBTnVI9qdP1hYnG9EO3QdkYNpQreCFOrCzTK8tWLTa8euK1G8tecjosVdkN4ymDX-_wBxVxDdA7JoCAC29sBekrNjU0XYIqAZXiD9fwealQvuSgHZXiDIIInyePfKiN3LwD1KsHCxQIveJPDyMD34A0OJqqkj-Kpqnt_Gzno3ydUrQ3sa3pctMbHTPEt36NtIELuyZJxStKYUXpNROQ1HH-TLGLKaCe5WScUX0L_ny_LFTxHGvI1Oj5Qu9JdlxD_L-SxUarrs3xegdWj3i6VrJNdiKdWF7UZyu5xKQVKED0dxksw2NtlE9DUHfL73ztFzZ14oVbtuyMH7-riO15BBQL4BJRP0ByEz_OFyTLeKdjIRBOVy5Ox9pYuEv3PDC0H6xotImGpL7563UL2vfdsR1hOmoQyuyv1rn6I1bJ8jN6SuGY9epanGIihs-N6S3kjkX-tfXkGqinLN8TQxEaQ5HLNKvHLknKjkk5fZPyR3II5yBpN5hx5XmDfyLa0hlWk05KP9wmKdnO2rOqfejLl5u9oWNLKTOQxQ_5JnUO6Ex7JAQmKNV7gLHZxKHwerwyteyve7eP7iRWwwgvmODHUwC2WjVRGiHlZTvV33S-RPlroUCx63OSTq42dHLFI2F-Akk8ce_f8N57NJheRgbNZ79WDgXnG6-YNQTlUevHO1KLYVeMCLpjKfnZuXYKIwcwOpEMpLLBGDZ6w4rQvdhAJC7wWbWb67HoVONAnuJUVqr4mjuMYxfWBlKUPP96fHT4ujlIO4vsivg-fhReTIgM8DqRJ6m__Mlgfqy1EH67KZditnNNZthgMMACL6q48AyeMGzVE-G61fzrYUOXqh41Ow8vztii-LzpObCPGpHzbcXoNFDAfYRCy8h4GImiXiQ8jxcgAlavZ4d50zl6koBCE5bxiqnazcNbenWP5d4aGDQkpibaPMhVjqNxlwcDlN7Ze6RzkcjnaXpDXLppUS5lEa1V57rv1eiX7gLg1emMWjpm683kRcPSxaS0QVqRMOWQMaUqyeoDwmgpmEX5B4eGYELEaRYKHaoYcVVQivwzWM-W66NNzjMlrX35Qhttebl9PZ5KLYHIFl8TKnnK92wIQtw-y3i7HUSRXjMqzA8LO-wunovGQD7KLt5GzeM5uBAvYZOb2agHSls0kbogla7dn4vzPomtATiIIR-7rHnSNlUlnSx5qrEY6txl0dLS27qbhB06lIsvuJCs970lBDk0Hm7X5pNOpgPfMjWmrhtGrg-0JeBVP4HEgDlPdzXq_VhSkOn-BnVyyu6xlX-2jon3neIgJHncz1HATv17H2QmY5Y3mz9EC_TPWT8c4lvfuWzwazxOt7XuNia0gIHGBFv6mSzX99Lle1O5oIYkhSMAFgjUbO3yhq3coGl2pXBkrhRHPjQ3EmZbATXgHITTLfhCrJlfTMnG2dtqSK1rt1Klnu-08tGAU9GRMjxMSLJ_xlA3058-gBOMiheY95uHAgtsTb58NFRXI98gfQ71STMXd-Y-2FMhSFj3shgyllhTkR0lz6DlIrB-yhdduCs0kAUHMh4x5ZeA_AyTJw5Xgt2_04qMJS6o8ecmP8lN0KetQAEnDUqAJfKvwCyyfpFR_8iB8eyIX_27f2kWiXNDwlHJ2-N5TomRHAiNmeZUQ_MBugrH5hwqQNZUVuyowUY5ny1rCo_AMIQfKjslzPm68RBmQVXpUSCMhYv476hAzzsT2L9BbhH1zAVRBbLtNat-xy4ZTvf3KsBG_DUiY8bRian6BUdD05sIS--hNw88r6H3hA9T_an98TweAWOSrG2lytHtTSVkfYNx7UrI_eXRI4yjfVnJu3AyU5N1lh_O6qGBvgeR9kneLUjy-Th4TrMSmKdbHL1jqLL6qnAsc2SeWO56mMH45czZWELbmk2q8ReN_jqY29EM4bcyV4WH_bH98plkixESLUfyR8TaE1kO9PpcBWAQc0fhdPC00nTOgVWHaEX3Llz3xx3DrI_BRKxqhuJa3ASjZdmHdgjve8T_UNdiNlTkh_eTDtFyF?></g></svg>