<svg xmlns="http://www.w3.org/2000/svg" xmlns:xlink="http://www.w3.org/1999/xlink" contentStyleType="text/css" data-diagram-type="DESCRIPTION" height="1188px" preserveAspectRatio="none" style="width:1040px;height:1188px;background:#FFFFFF;" version="1.1" viewBox="0 0 1040 1188" width="1040px" zoomAndPan="magnify"><?plantuml 1.2026.3?><defs/><g><g class="title" data-source-line="21"><text fill="#000000" font-family="sans-serif" font-size="14" font-weight="700" lengthAdjust="spacing" textLength="272.3369" x="380.4596" y="23.5352">mdd view &#8212; diagram viewer (current)</text></g><!--cluster mdd-viewer--><g class="cluster" data-qualified-name="mdd-viewer" data-source-line="27" id="ent0003"><rect fill="none" height="388" rx="2.5" ry="2.5" style="stroke:#181818;stroke-width:1;" width="776.26" x="189.68" y="450.0783"/><text fill="#000000" font-family="sans-serif" font-size="14" font-weight="700" lengthAdjust="spacing" textLength="88.7783" x="533.4208" y="465.6134">mdd-viewer</text></g><!--entity View--><g class="entity" data-qualified-name="mdd-viewer.View" data-source-line="28" id="ent0004"><ellipse cx="330.8349" cy="704.0773" fill="#F1F1F1" rx="119.7449" ry="26.349" style="stroke:#181818;stroke-width:0.5;"/><text fill="#000000" font-family="sans-serif" font-size="14" lengthAdjust="spacing" textLength="157.6641" x="252.0028" y="699.8436">View rendered diagram</text><text fill="#000000" font-family="sans-serif" font-size="14" lengthAdjust="spacing" textLength="172.3271" x="244.6713" y="716.3319">(shapes AND text legible)</text></g><!--entity Browse--><g class="entity" data-qualified-name="mdd-viewer.Browse" data-source-line="29" id="ent0005"><ellipse cx="836.3031" cy="804.0789" fill="#F1F1F1" rx="78.9031" ry="18.1806" style="stroke:#181818;stroke-width:0.5;"/><text fill="#000000" font-family="sans-serif" font-size="14" lengthAdjust="spacing" textLength="127.4697" x="772.5682" y="808.823">Browse model files</text></g><!--entity PanZoom--><g class="entity" data-qualified-name="mdd-viewer.PanZoom" data-source-line="30" id="ent0006"><ellipse cx="836.3044" cy="559.0745" fill="#F1F1F1" rx="112.8544" ry="25.9162" style="stroke:#181818;stroke-width:0.5;"/><text fill="#000000" font-family="sans-serif" font-size="14" lengthAdjust="spacing" textLength="146.6787" x="762.965" y="555.0013">Pan and zoom canvas</text><text fill="#000000" font-family="sans-serif" font-size="14" lengthAdjust="spacing" textLength="158.0811" x="757.2639" y="571.4896">(scroll zoom, drag pan)</text></g><!--entity Fisheye--><g class="entity" data-qualified-name="mdd-viewer.Fisheye" data-source-line="31" id="ent0007"><ellipse cx="836.304" cy="730.0751" fill="#F1F1F1" rx="93.784" ry="21.1568" style="stroke:#181818;stroke-width:0.5;"/><text fill="#000000" font-family="sans-serif" font-size="14" lengthAdjust="spacing" textLength="161.7725" x="755.4177" y="734.8192">Focus via center fisheye</text></g><!--entity Panels--><g class="entity" data-qualified-name="mdd-viewer.Panels" data-source-line="32" id="ent0008"><ellipse cx="836.3043" cy="649.0771" fill="#F1F1F1" rx="113.6443" ry="25.1289" style="stroke:#181818;stroke-width:0.5;"/><text fill="#000000" font-family="sans-serif" font-size="14" lengthAdjust="spacing" textLength="205.3584" x="733.6251" y="653.8213">Collapse / expand side panels</text></g><!--entity Trace--><g class="entity" data-qualified-name="mdd-viewer.Trace" data-source-line="33" id="ent0009"><ellipse cx="330.8282" cy="792.0759" fill="#F1F1F1" rx="123.2882" ry="27.0576" style="stroke:#181818;stroke-width:0.5;"/><text fill="#000000" font-family="sans-serif" font-size="14" lengthAdjust="spacing" textLength="226.0098" x="217.8233" y="796.8201">Inspect model IDs and trace links</text></g><!--entity ViewOcl--><g class="entity" data-qualified-name="mdd-viewer.ViewOcl" data-source-line="34" id="ent0010"><ellipse cx="330.8339" cy="617.0792" fill="#F1F1F1" rx="103.0539" ry="25.9009" style="stroke:#181818;stroke-width:0.5;"/><text fill="#000000" font-family="sans-serif" font-size="14" lengthAdjust="spacing" textLength="144.0742" x="258.7968" y="614.1744">View OCL constraints</text><text fill="#000000" font-family="sans-serif" font-size="14" lengthAdjust="spacing" textLength="133.2666" x="264.2006" y="630.6627">(source or diagram)</text></g><!--entity ViewDeploy--><g class="entity" data-qualified-name="mdd-viewer.ViewDeploy" data-source-line="35" id="ent0011"><ellipse cx="330.8329" cy="521.0808" fill="#F1F1F1" rx="125.1529" ry="35.5525" style="stroke:#181818;stroke-width:0.5;"/><text fill="#000000" font-family="sans-serif" font-size="14" lengthAdjust="spacing" textLength="183.8115" x="238.9271" y="512.6259">View deployment diagrams</text><text fill="#000000" font-family="sans-serif" font-size="14" lengthAdjust="spacing" textLength="185.6162" x="238.0248" y="529.1142">(dedicated DEPLOY section,</text><text fill="#000000" font-family="sans-serif" font-size="14" lengthAdjust="spacing" textLength="124.332" x="268.6669" y="545.6025">NOT parity-gated)</text></g><!--entity Dev--><g class="entity" data-qualified-name="Dev" data-source-line="25" id="ent0002"><ellipse cx="40.1592" cy="822.3383" fill="#F1F1F1" rx="8" ry="8" style="stroke:#181818;stroke-width:0.5;"/><path d="M40.1592,830.3383 L40.1592,857.3383 M27.1592,838.3383 L53.1592,838.3383 M40.1592,857.3383 L27.1592,872.3383 M40.1592,857.3383 L53.1592,872.3383" fill="none" style="stroke:#181818;stroke-width:0.5;"/><text fill="#000000" font-family="sans-serif" font-size="14" lengthAdjust="spacing" textLength="68.3184" x="6" y="887.3734">Developer</text></g><g class="entity" data-qualified-name="GMN26" data-source-line="55" id="ent0027"><path d="M171.49,195.4883 L171.49,312.6621 L490.176,312.6621 L490.176,205.4883 L480.176,195.4883 L171.49,195.4883" fill="#FEFFDD" style="stroke:#181818;stroke-width:0.5;"/><path d="M480.176,195.4883 L480.176,205.4883 L490.176,205.4883 L480.176,195.4883" fill="#FEFFDD" style="stroke:#181818;stroke-width:1;"/><text fill="#000000" font-family="sans-serif" font-size="13" lengthAdjust="spacing" textLength="284.9971" x="177.49" y="213.0566">Code (USE-VIEW-OCL): when the selected file</text><text fill="#000000" font-family="sans-serif" font-size="13" lengthAdjust="spacing" textLength="289.4912" x="177.49" y="228.3672">kind is Constraint, MddViewer::ocl_ui shows a</text><text fill="#000000" font-family="sans-serif" font-size="13" lengthAdjust="spacing" textLength="271.1528" x="177.49" y="243.6777">Source | Diagram toggle. Source = raw .ocl</text><text fill="#000000" font-family="sans-serif" font-size="13" lengthAdjust="spacing" textLength="266.0811" x="177.49" y="258.9883">text (read-only, @id/context/inv colored);</text><text fill="#000000" font-family="sans-serif" font-size="13" lengthAdjust="spacing" textLength="274.3203" x="177.49" y="274.2988">Diagram = the synthesized constraints SVG</text><text fill="#000000" font-family="sans-serif" font-size="13" lengthAdjust="spacing" textLength="297.686" x="177.49" y="289.6094">(mdd_render::render_ocl_diagrams) painted via</text><text fill="#000000" font-family="sans-serif" font-size="13" lengthAdjust="spacing" textLength="265.1924" x="177.49" y="304.9199">paint_canvas. Realized by SEQ-VIEW-OCL.</text></g><g class="entity" data-qualified-name="GMN29" data-source-line="65" id="ent0030"><path d="M647.34,332.1483 L647.34,434.0116 L1025.256,434.0116 L1025.256,342.1483 L1015.256,332.1483 L647.34,332.1483" fill="#FEFFDD" style="stroke:#181818;stroke-width:0.5;"/><path d="M1015.256,332.1483 L1015.256,342.1483 L1025.256,342.1483 L1015.256,332.1483" fill="#FEFFDD" style="stroke:#181818;stroke-width:1;"/><text fill="#000000" font-family="sans-serif" font-size="13" lengthAdjust="spacing" textLength="316.6338" x="653.34" y="349.7166">Code (USE-FISHEYE-FOCUS): the canvas paints the</text><text fill="#000000" font-family="sans-serif" font-size="13" lengthAdjust="spacing" textLength="342.1387" x="653.34" y="365.0272">rendered texture through a center-fixed fisheye mesh</text><text fill="#000000" font-family="sans-serif" font-size="13" lengthAdjust="spacing" textLength="356.916" x="653.34" y="380.3377">(CanvasView::fisheye_mesh / warp) &#8212; the centre bulges,</text><text fill="#000000" font-family="sans-serif" font-size="13" lengthAdjust="spacing" textLength="354.3262" x="653.34" y="395.6483">content compresses toward the edges, corners stay put.</text><text fill="#000000" font-family="sans-serif" font-size="13" lengthAdjust="spacing" textLength="346.9375" x="653.34" y="410.9588">Layered on the scroll-at-cursor base zoom; drag pans.</text><text fill="#000000" font-family="sans-serif" font-size="13" lengthAdjust="spacing" textLength="221.0381" x="653.34" y="426.2694">Realized by SEQ-CANVAS-FISHEYE.</text></g><g class="entity" data-qualified-name="GMN32" data-source-line="74" id="ent0033"><path d="M656.68,120.1183 L656.68,176.0499 L1015.9276,176.0499 L1015.9276,130.1183 L1005.9276,120.1183 L656.68,120.1183" fill="#FEFFDD" style="stroke:#181818;stroke-width:0.5;"/><path d="M1005.9276,120.1183 L1005.9276,130.1183 L1015.9276,130.1183 L1005.9276,120.1183" fill="#FEFFDD" style="stroke:#181818;stroke-width:1;"/><text fill="#000000" font-family="sans-serif" font-size="13" lengthAdjust="spacing" textLength="338.2476" x="662.68" y="137.6866">The toolbar has no Reset / Zoom + / Zoom - buttons</text><text fill="#000000" font-family="sans-serif" font-size="13" lengthAdjust="spacing" textLength="325.0127" x="662.68" y="152.9972">(removed). Zoom is scroll-only at the cursor; pan is</text><text fill="#000000" font-family="sans-serif" font-size="13" lengthAdjust="spacing" textLength="318.2715" x="662.68" y="168.3077">drag-only. A small hint label replaces the buttons.</text></g><g class="entity" data-qualified-name="GMN35" data-source-line="80" id="ent0036"><path d="M649.06,210.7983 L649.06,297.351 L1023.5356,297.351 L1023.5356,220.7983 L1013.5356,210.7983 L649.06,210.7983" fill="#FEFFDD" style="stroke:#181818;stroke-width:0.5;"/><path d="M1013.5356,210.7983 L1013.5356,220.7983 L1023.5356,220.7983 L1013.5356,210.7983" fill="#FEFFDD" style="stroke:#181818;stroke-width:1;"/><text fill="#000000" font-family="sans-serif" font-size="13" lengthAdjust="spacing" textLength="353.4756" x="655.06" y="228.3666">Code (USE-TOGGLE-PANELS): each SidePanel renders an</text><text fill="#000000" font-family="sans-serif" font-size="13" lengthAdjust="spacing" textLength="303.0942" x="655.06" y="243.6772">inner-edge chevron; clicking it sets PanelLayout</text><text fill="#000000" font-family="sans-serif" font-size="13" lengthAdjust="spacing" textLength="316.8813" x="655.06" y="258.9877">collapsed and the panel shrinks to an exact-width</text><text fill="#000000" font-family="sans-serif" font-size="13" lengthAdjust="spacing" textLength="319.3696" x="655.06" y="274.2983">sliver button that re-expands on click. Realized by</text><text fill="#000000" font-family="sans-serif" font-size="13" lengthAdjust="spacing" textLength="146.1992" x="655.06" y="289.6088">SEQ-PANEL-COLLAPSE.</text></g><g class="entity" data-qualified-name="GMN38" data-source-line="88" id="ent0039"><path d="M135.32,347.7983 L135.32,434.351 L526.3439,434.351 L526.3439,357.7983 L516.3439,347.7983 L135.32,347.7983" fill="#FEFFDD" style="stroke:#181818;stroke-width:0.5;"/><path d="M516.3439,347.7983 L516.3439,357.7983 L526.3439,357.7983 L516.3439,347.7983" fill="#FEFFDD" style="stroke:#181818;stroke-width:1;"/><text fill="#000000" font-family="sans-serif" font-size="13" lengthAdjust="spacing" textLength="340.6787" x="141.32" y="365.3666">Reads pre-rendered SVGs from .mdd/rendered/. If no</text><text fill="#000000" font-family="sans-serif" font-size="13" lengthAdjust="spacing" textLength="329.4561" x="141.32" y="380.6772">models are mapped/rendered the canvas shows "No</text><text fill="#000000" font-family="sans-serif" font-size="13" lengthAdjust="spacing" textLength="297.5718" x="141.32" y="395.9877">rendered output". Text rendering is realized by</text><text fill="#000000" font-family="sans-serif" font-size="13" lengthAdjust="spacing" textLength="370.0239" x="141.32" y="411.2983">SEQ-RENDER-DIAGRAM-PAGE, which consults a populated</text><text fill="#000000" font-family="sans-serif" font-size="13" lengthAdjust="spacing" textLength="367.1548" x="141.32" y="426.6088">font database (DOM-FONT-DATABASE) before rasterizing.</text></g><g class="entity" data-qualified-name="GMN41" data-source-line="96" id="ent0042"><path d="M138.82,43.4883 L138.82,160.6621 L522.8488,160.6621 L522.8488,53.4883 L512.8488,43.4883 L138.82,43.4883" fill="#FEFFDD" style="stroke:#181818;stroke-width:0.5;"/><path d="M512.8488,43.4883 L512.8488,53.4883 L522.8488,53.4883 L512.8488,43.4883" fill="#FEFFDD" style="stroke:#181818;stroke-width:1;"/><text fill="#000000" font-family="sans-serif" font-size="13" lengthAdjust="spacing" textLength="363.0288" x="144.82" y="61.0566">Added cycle 0010 (USE-VIEW-DEPLOY): MddViewer::new()</text><text fill="#000000" font-family="sans-serif" font-size="13" lengthAdjust="spacing" textLength="277.3164" x="144.82" y="76.3672">calls project.deploy_files() as a third source;</text><text fill="#000000" font-family="sans-serif" font-size="13" lengthAdjust="spacing" textLength="350.8286" x="144.82" y="91.6777">update() renders a "DEPLOY" header after the rail-mode</text><text fill="#000000" font-family="sans-serif" font-size="13" lengthAdjust="spacing" textLength="355.6528" x="144.82" y="106.9883">match (Directory AND By-cycle). lookup_file -&gt; load_file</text><text fill="#000000" font-family="sans-serif" font-size="13" lengthAdjust="spacing" textLength="348.8481" x="144.82" y="122.2988">paints .mdd/rendered/deploy/&lt;rel&gt;.svg. deploy_files()</text><text fill="#000000" font-family="sans-serif" font-size="13" lengthAdjust="spacing" textLength="360.8896" x="144.82" y="137.6094">reuses render_sources(RenderTree::Deploy) and is NEVER</text><text fill="#000000" font-family="sans-serif" font-size="13" lengthAdjust="spacing" textLength="312.5078" x="144.82" y="152.9199">in ModelRegistry. Realized by SEQ-VIEW-DEPLOY.</text></g><!--link Dev to View--><g class="link" data-entity-1="ent0002" data-entity-2="ent0004" data-link-type="dependency" data-source-line="38" id="lnk12"><path d="M66.39,813.5183 C83.25,790.7883 107.41,763.3783 135.32,747.0783 C161.52,731.7683 186.7543,723.1707 216.3043,716.8107" fill="none" id="Dev-to-View" style="stroke:#181818;stroke-width:1;"/><polygon fill="#181818" points="222.17,715.5483,212.5298,713.5315,217.2819,716.6003,214.2131,721.3524,222.17,715.5483" style="stroke:#181818;stroke-width:1;"/></g><!--link Dev to Browse--><g class="link" data-entity-1="ent0002" data-entity-2="ent0005" data-link-type="dependency" data-source-line="39" id="lnk13"><path d="M41.71,890.6883 C44.68,935.0583 57.07,1006.1083 104.32,1040.0783 C289.45,1173.1783 408.46,1131.4983 617.34,1040.0783 C722.59,994.0083 796.6791,874.5149 822.7391,827.5449" fill="none" id="Dev-to-Browse" style="stroke:#181818;stroke-width:1;"/><polygon fill="#181818" points="825.65,822.2983,817.7859,828.2275,823.2242,826.6704,824.7813,832.1088,825.65,822.2983" style="stroke:#181818;stroke-width:1;"/></g><!--link Dev to PanZoom--><g class="link" data-entity-1="ent0002" data-entity-2="ent0006" data-link-type="dependency" data-source-line="40" id="lnk14"><path d="M74.75,856.8483 C154.95,866.9983 363.08,886.0283 526.34,837.0783 C571.83,823.4383 590.75,820.4183 617.34,781.0783 C661.54,715.7083 593.68,663.9383 647.34,606.0783 C667.81,584.0083 691.0946,572.9717 720.3346,566.2017" fill="none" id="Dev-to-PanZoom" style="stroke:#181818;stroke-width:1;"/><polygon fill="#181818" points="726.18,564.8483,716.5097,562.9815,721.3089,565.9761,718.3142,570.7753,726.18,564.8483" style="stroke:#181818;stroke-width:1;"/></g><!--link Dev to Fisheye--><g class="link" data-entity-1="ent0002" data-entity-2="ent0007" data-link-type="dependency" data-source-line="41" id="lnk15"><path d="M50.74,890.7383 C59.7,917.8883 76.07,952.2283 104.32,969.0783 C300.13,1085.8983 444.62,1117.9283 617.34,969.0783 C685.76,910.1183 585.13,833.5683 647.34,768.0783 C671.76,742.3683 702.4292,732.1633 736.8892,728.2033" fill="none" id="Dev-to-Fisheye" style="stroke:#181818;stroke-width:1;"/><polygon fill="#181818" points="742.85,727.5183,733.4522,724.5719,737.8827,728.0891,734.3655,732.5196,742.85,727.5183" style="stroke:#181818;stroke-width:1;"/></g><!--link Dev to Panels--><g class="link" data-entity-1="ent0002" data-entity-2="ent0008" data-link-type="dependency" data-source-line="42" id="lnk16"><path d="M74.7,882.4083 C83.71,888.8283 93.87,894.6783 104.32,898.0783 C321.13,968.6683 444.94,1047.2983 617.34,898.0783 C687.63,837.2383 584.15,759.2583 647.34,691.0783 C667,669.8683 688.9779,659.4774 717.2079,653.3174" fill="none" id="Dev-to-Panels" style="stroke:#181818;stroke-width:1;"/><polygon fill="#181818" points="723.07,652.0383,713.4241,650.049,718.1849,653.1042,715.1297,657.865,723.07,652.0383" style="stroke:#181818;stroke-width:1;"/></g><!--link Dev to Trace--><g class="link" data-entity-1="ent0002" data-entity-2="ent0009" data-link-type="dependency" data-source-line="43" id="lnk17"><path d="M74.56,845.1383 C114.78,836.7783 178.0656,823.6194 234.2556,811.9394" fill="none" id="Dev-to-Trace" style="stroke:#181818;stroke-width:1;"/><polygon fill="#181818" points="240.13,810.7183,230.5043,808.6336,235.2346,811.7359,232.1324,816.4662,240.13,810.7183" style="stroke:#181818;stroke-width:1;"/></g><!--link Dev to ViewOcl--><g class="link" data-entity-1="ent0002" data-entity-2="ent0010" data-link-type="dependency" data-source-line="44" id="lnk18"><path d="M49.4,813.6683 C60.91,769.6883 86.14,698.7383 135.32,660.0783 C161.9,639.1883 190.6346,629.0393 223.3046,623.1693" fill="none" id="Dev-to-ViewOcl" style="stroke:#181818;stroke-width:1;"/><polygon fill="#181818" points="229.21,622.1083,219.6445,619.7629,224.2888,622.9925,221.0592,627.6368,229.21,622.1083" style="stroke:#181818;stroke-width:1;"/></g><!--link Dev to ViewDeploy--><g class="link" data-entity-1="ent0002" data-entity-2="ent0011" data-link-type="dependency" data-source-line="45" id="lnk19"><path d="M43.1,813.7083 C48.24,753.8083 66.99,638.2783 135.32,574.0783 C156.68,554.0083 179.1006,543.0101 207.3906,535.1201" fill="none" id="Dev-to-ViewDeploy" style="stroke:#181818;stroke-width:1;"/><polygon fill="#181818" points="213.17,533.5083,203.4263,532.0731,208.3538,534.8515,205.5754,539.779,213.17,533.5083" style="stroke:#181818;stroke-width:1;"/></g><!--link View to Browse--><g class="link" data-entity-1="ent0004" data-entity-2="ent0005" data-link-type="dependency" data-source-line="47" id="lnk20"><path d="M423.18,721.0683 C456.01,728.0083 493.13,736.8383 526.34,747.0783 C540.07,751.3083 542.5,755.2483 556.34,759.0783 C625.37,778.1983 700.4317,789.4424 757.3217,796.1824" fill="none" id="View-to-Browse" style="stroke:#181818;stroke-width:1;stroke-dasharray:7,7;"/><polygon fill="#181818" points="763.28,796.8883,754.8131,791.8572,758.3147,796.3,753.8719,799.8016,763.28,796.8883" style="stroke:#181818;stroke-width:1;"/><text fill="#000000" font-family="sans-serif" font-size="13" lengthAdjust="spacing" textLength="59.3569" x="557.34" y="755.6466">&#171;include&#187;</text></g><!--link View to PanZoom--><g class="link" data-entity-1="ent0004" data-entity-2="ent0006" data-link-type="dependency" data-source-line="48" id="lnk21"><path d="M423.89,687.1483 C456.62,680.1083 493.49,671.0083 526.34,660.0783 C582.22,641.4883 591.68,625.2983 647.34,606.0783 C681.05,594.4483 713.2207,585.7675 746.2007,577.9775" fill="none" id="View-to-PanZoom" style="stroke:#181818;stroke-width:1;stroke-dasharray:7,7;"/><polygon fill="#181818" points="752.04,576.5983,742.3615,574.7743,747.1739,577.7477,744.2005,582.5601,752.04,576.5983" style="stroke:#181818;stroke-width:1;"/><text fill="#000000" font-family="sans-serif" font-size="13" lengthAdjust="spacing" textLength="57.1924" x="558.34" y="614.9466">&#171;extend&#187;</text></g><!--link View to Fisheye--><g class="link" data-entity-1="ent0004" data-entity-2="ent0007" data-link-type="dependency" data-source-line="49" id="lnk22"><path d="M429.37,719.4483 C468.7,724.9183 514.57,730.3883 556.34,733.0783 C583.4,734.8183 590.23,733.2683 617.34,733.0783 C658.4,732.7983 697.8107,732.3082 736.5007,731.7282" fill="none" id="View-to-Fisheye" style="stroke:#181818;stroke-width:1;stroke-dasharray:7,7;"/><polygon fill="#181818" points="742.5,731.6383,733.4411,727.7736,737.5006,731.7132,733.561,735.7727,742.5,731.6383" style="stroke:#181818;stroke-width:1;"/><text fill="#000000" font-family="sans-serif" font-size="13" lengthAdjust="spacing" textLength="57.1924" x="558.34" y="729.6466">&#171;extend&#187;</text></g><!--link View to Panels--><g class="link" data-entity-1="ent0004" data-entity-2="ent0008" data-link-type="dependency" data-source-line="50" id="lnk23"><path d="M442.06,693.9283 C495.09,688.8783 559.55,682.4883 617.34,676.0783 C656.57,671.7283 693.7467,667.225 731.2167,662.525" fill="none" id="View-to-Panels" style="stroke:#181818;stroke-width:1;stroke-dasharray:7,7;"/><polygon fill="#181818" points="737.17,661.7783,727.7421,658.9295,732.2089,662.4006,728.7378,666.8673,737.17,661.7783" style="stroke:#181818;stroke-width:1;"/><text fill="#000000" font-family="sans-serif" font-size="13" lengthAdjust="spacing" textLength="57.1924" x="558.34" y="672.6466">&#171;extend&#187;</text></g><!--link ViewOcl to PanZoom--><g class="link" data-entity-1="ent0010" data-entity-2="ent0006" data-link-type="dependency" data-source-line="51" id="lnk24"><path d="M425.35,606.3083 C513.22,596.1783 638.3894,581.7652 728.5494,571.3752" fill="none" id="ViewOcl-to-PanZoom" style="stroke:#181818;stroke-width:1;stroke-dasharray:7,7;"/><polygon fill="#181818" points="734.51,570.6883,725.1112,567.7449,729.5429,571.2607,726.0271,575.6923,734.51,570.6883" style="stroke:#181818;stroke-width:1;"/><text fill="#000000" font-family="sans-serif" font-size="13" lengthAdjust="spacing" textLength="57.1924" x="558.34" y="581.1766">&#171;extend&#187;</text></g><!--link ViewDeploy to PanZoom--><g class="link" data-entity-1="ent0011" data-entity-2="ent0006" data-link-type="dependency" data-source-line="52" id="lnk25"><path d="M453.07,529.2383 C503.84,532.7383 563.46,536.9683 617.34,541.0783 C653.97,543.8783 688.0607,546.6307 723.7507,549.6007" fill="none" id="ViewDeploy-to-PanZoom" style="stroke:#181818;stroke-width:1;stroke-dasharray:7,7;"/><polygon fill="#181818" points="729.73,550.0983,721.0927,545.3657,724.7472,549.6836,720.4293,553.3381,729.73,550.0983" style="stroke:#181818;stroke-width:1;"/><text fill="#000000" font-family="sans-serif" font-size="13" lengthAdjust="spacing" textLength="57.1924" x="558.34" y="533.5766">&#171;extend&#187;</text></g><!--link ViewOcl to GMN26--><g class="link" data-entity-1="ent0010" data-entity-2="ent0027" data-link-type="association" data-source-line="55" id="lnk28"><path d="M227.93,619.7083 C180.43,614.6883 129.25,598.7583 104.82,556.5783 C81.54,516.3883 81.54,387.7683 104.82,347.5783 C119.93,321.4883 144.04,302.6783 171,289.1183" fill="none" id="ViewOcl-GMN26" style="stroke:#181818;stroke-width:1;stroke-dasharray:7,7;"/></g><!--link Fisheye to GMN29--><g class="link" data-entity-1="ent0007" data-entity-2="ent0030" data-link-type="association" data-source-line="65" id="lnk31"><path d="M746.84,736.7183 C690.99,735.4083 623.03,722.7183 586.84,674.5783 C536.63,607.7883 540.44,556.0683 586.84,486.5783 C602.01,463.8683 623.19,446.1283 646.86,432.2783" fill="none" id="Fisheye-GMN29" style="stroke:#181818;stroke-width:1;stroke-dasharray:7,7;"/></g><!--link PanZoom to GMN32--><g class="link" data-entity-1="ent0006" data-entity-2="ent0033" data-link-type="association" data-source-line="74" id="lnk34"><path d="M752.83,541.2683 C695.25,524.1583 622.84,491.9783 586.84,433.5783 C534.84,349.2083 527.29,289.7983 586.84,210.5783 C604.35,187.2883 629.14,171.8183 656.36,161.6783" fill="none" id="PanZoom-GMN32" style="stroke:#181818;stroke-width:1;stroke-dasharray:7,7;"/></g><!--link Panels to GMN35--><g class="link" data-entity-1="ent0008" data-entity-2="ent0036" data-link-type="association" data-source-line="80" id="lnk37"><path d="M722.38,649.5583 C672.4,643.2583 618.09,626.1483 586.84,584.5783 C519.54,495.0583 520.59,422.8783 586.84,332.5783 C602.69,310.9783 624.48,295.1683 648.64,283.6183" fill="none" id="Panels-GMN35" style="stroke:#181818;stroke-width:1;stroke-dasharray:7,7;"/></g><!--link View to GMN38--><g class="link" data-entity-1="ent0004" data-entity-2="ent0039" data-link-type="association" data-source-line="88" id="lnk40"><path d="M210.63,703.7983 C168.48,696.6783 126.32,679.7083 104.82,642.5783 C70.07,582.5783 70.07,546.5783 104.82,486.5783 C117.52,464.6483 136.53,447.7483 158.22,434.7383" fill="none" id="View-GMN38" style="stroke:#181818;stroke-width:1;stroke-dasharray:7,7;"/></g><!--link ViewDeploy to GMN41--><g class="link" data-entity-1="ent0011" data-entity-2="ent0042" data-link-type="association" data-source-line="96" id="lnk43"><path d="M214.95,507.3083 C171.74,495.5783 127.66,474.0283 104.82,434.5783 C78.2,388.6183 78.2,241.5383 104.82,195.5783 C113.44,180.6983 124.99,168.1883 138.32,157.6583" fill="none" id="ViewDeploy-GMN41" style="stroke:#181818;stroke-width:1;stroke-dasharray:7,7;"/></g><?plantuml-src XLVDSY8v4hxp51bS6deew8dO4-xf61fejoDiy1Z6kxCn4HvH9Q2sHQb2giAcTpTY7sBUPUxxAFia-wMaCbK6zvn0fSnK_dwP-OQYAAB7hLOosecSSgFtCXDPB8SK7s8bgTYAWjAiC3efOvcG5F6MVamJPcozeHyTLUVdnJIwlvh-DPfSZIxlHZUB7hrxz-xxRfFYqzNYy_GN_Cx7Fv-dMCulBw-dqUreDhq-J-5UcO-ltULVpbrEfhVNyr_u_ljtxZvDJlLp5ucqyJdLsnEvbqhdqj0-bO-M11cP9TB0_frEfA8a5HiZTgGpE4Z2Fv78Suf5jXUM7jDYItOhSWdEBA52FXMav2PTATblrrLgEAIfqWjVrLHQwxYq48stSs4AqcleLocqJmLEiSmAQQ9r-WIDrwdToaE8v4viidITWftr3WepkP5ErrZlSYCjouyrX6G55VfHcCJHosGZRO-KE3XV1EjjRBHIj55w9HHzrNhNjB8HrAQLB-9TipA6I94xEmt9fnpAUPsLN1TqCv-00VPd28RpCMvCkjc6AnhFPylftvQ1mdabGvWoU8MDe2sObEmXhh4IwIxDDiVe9GWVJ4la3aHDKwhiEvC-BYVRLxjSoHsxFncIbKh61SiMrDUnGYXGKNQhaL8tINAFt99cECJDGvdwj16qqAM9vM0I0bhepGPC__lFx-469g4SlI-CU2IywpAiHnLBZS0UClpOzAlaq6QsCFvkSNzvnZ1VEUTA8vHKtJpgU81mPJQisvF9nqwNb1O9LyxoyzNTXApJlSS0ym_uf9_8NEd30pl4ThezMa79HFhgUZ2e5QXwW1INa_nExMEVbbKUm1mLQfFVIcIIneALU-DLfl_-GODTaaJ-FJwMHQhIuj2ZJ1TSGFWVRPZd3OrzpY5WdwM0IEgiD68oIP4bXJO7fyt7G-GDPrqjx8HM7E8-dXduPmPltmxUzlDofoueLcdynQU0ac8DPLtnidUSzGYm3vWNKE5CGvBTR_hWq5_AtFDOAKoCk5Bb5FgEwXwz22UNS9OoL1MAY361RjZ3Tu6jXxZGhG_9S6WaersdEzWBbIPm2Vp_HSgSqascpKiRVVwCImELYyX53vP5iR3IeIRZ4gVWR-1n7txZDYADG4NiPGsmE6bw46Na6iYpPSGoUeTqJT24QYW5X5KCNA_06ngNWHHcMB4E0PKOZdg-5bX5XmVs6LtyJQ6rMWa3K82lD8Gm4wtAea39z5pKdylNXdGBI7ksMlkj8YquGuBbhdgR1gDwlEUwhPRBPAI1nw_4PLkgirPBSDRLGB5DK12dLej9HCR0qERizZBRzCyMSH1S3DfSZiU-5Px_DUk4pZIQJHgTgUkaCrDTo4S3i0frwUrtPFvpdV0M-CgESgxp4UEtwa58ZDXm0FnBOFWxFjTbVEBEvXph8rp5rj5_yl_hzA5U9Gr2XwZ7k7e4V-iyLvdDuRnWqTKaj6Ya9I0bpRvulYMVJvp9K5j3KRRFGpAY5FnxzE8yLYS2VEamVbRqBEI8MW6qh4-0tg_PRBviODHH_CI9QlsxrK92O1Zxu4DN7KA0gcFbxEfSERDsptwgZjxykc2sfduEpxUSMVr-zI0DwVtxD8jLcSWF7uwtuNrtZPn3KjPlWpQlt7hTJY-XqhTbUnrVfscX0m0iDCfynsXrZDeOoK7DXZ_4b2p3lEFQkeCUnKa2U4yejU2gKgDtfhtxjYz07_hul-W5QbGNFxY-peW3ObUY7OD-5EbC0R7HiGTkD7ig1ccsPoZJAF3k1OWhWJ_yMVC7RGV0yU3XWQ6VVnzOrIenkxujIOOmrjgT7dnbz-bEeaUmuDM15jEVdltKRq4IjrPvujvZ0H_Tsno06t1_d6B0yGnZR7PfU9WrkjniNsi6EpGIjd7iP74aXiDmzy1tG0mCjNdN8RDxr8_0grBnX0lMQlgj3SIdWt2iJSQJXot4WVAow8Fn-jnm78aY0k1R08LhJWo85y-0Q9dlfKV7ezdzQ55vw1j-FGBfygINGQgL1QnrsVzTzIUgcXlxoCWTUcU2iShT8P63pfnlX9t1-SSfVy7QWW9ihBkZwDE8x4u0vRSynIYnaZoIvGeGueVGyDQtJV0mVSoCvj8mz7ld0l3kQ8ypNmQksboFgMXlT5QRkz821Lk4Le3WwB9muVMj8tdU7locOBU6cm2tOrWgdz228xSHWCUgbESeRuvVfuoCgjq4dzoRZThWQaSidHNHU7vzFRfTV2kMeVr20YGYxwBdn4VHMZyODUV4FbsjUMWXtz7W4QGnLlbS7edgPULXg3tJzQg2Jv2zRGpMZ3R-i_CTJpilZRcRpYRJksfTXcsNqnx0CKLy66LALV2CbkkyLDoomBNMtF148LpkToRp6nJyR1bDHilHnz5YsiNulmQ80VSiQZdzYhV_n4cX_n2DaaI65S6j8dIopfpk9Xn_9AnzPHlX5YlWinJ5xXiyOskPXv7uk6wq_GjjslfrGQnvQF6BMQeY3WZ7HHHmJUUuHV3aLMqHtUPWZ-xwl1bKc6lFRmRlZLGV_6hGLDy5rYqP0TMz3RPpvuvB8-LmwFtdzoj4UJQzdzwvIcek2Ay0lRVx6AB_0m00?></g></svg>