<svg xmlns="http://www.w3.org/2000/svg" xmlns:xlink="http://www.w3.org/1999/xlink" contentStyleType="text/css" data-diagram-type="DESCRIPTION" height="1701px" preserveAspectRatio="none" style="width:1070px;height:1701px;background:#FFFFFF;" version="1.1" viewBox="0 0 1070 1701" width="1070px" zoomAndPan="magnify"><?plantuml 1.2026.3?><defs/><g><g class="title" data-source-line="30"><text fill="#000000" font-family="sans-serif" font-size="14" font-weight="700" lengthAdjust="spacing" textLength="272.3369" x="395.6241" y="23.5352">mdd view &#8212; diagram viewer (current)</text></g><!--cluster mdd-viewer--><g class="cluster" data-qualified-name="mdd-viewer" data-source-line="36" id="ent0003"><rect fill="none" height="538" rx="2.5" ry="2.5" style="stroke:#181818;stroke-width:1;" width="815.54" x="189.68" y="755.4483"/><text fill="#000000" font-family="sans-serif" font-size="14" font-weight="700" lengthAdjust="spacing" textLength="88.7783" x="553.0608" y="770.9834">mdd-viewer</text></g><!--entity View--><g class="entity" data-qualified-name="mdd-viewer.View" data-source-line="37" id="ent0004"><ellipse cx="330.8349" cy="1050.4473" fill="#F1F1F1" rx="119.7449" ry="26.349" style="stroke:#181818;stroke-width:0.5;"/><text fill="#000000" font-family="sans-serif" font-size="14" lengthAdjust="spacing" textLength="157.6641" x="252.0028" y="1046.2136">View rendered diagram</text><text fill="#000000" font-family="sans-serif" font-size="14" lengthAdjust="spacing" textLength="172.3271" x="244.6713" y="1062.7019">(shapes AND text legible)</text></g><!--entity Browse--><g class="entity" data-qualified-name="mdd-viewer.Browse" data-source-line="38" id="ent0005"><ellipse cx="851.4631" cy="1006.4489" fill="#F1F1F1" rx="78.9031" ry="18.1806" style="stroke:#181818;stroke-width:0.5;"/><text fill="#000000" font-family="sans-serif" font-size="14" lengthAdjust="spacing" textLength="127.4697" x="787.7282" y="1011.193">Browse model files</text></g><!--entity PanZoom--><g class="entity" data-qualified-name="mdd-viewer.PanZoom" data-source-line="39" id="ent0006"><ellipse cx="851.4644" cy="816.4445" fill="#F1F1F1" rx="112.8544" ry="25.9162" style="stroke:#181818;stroke-width:0.5;"/><text fill="#000000" font-family="sans-serif" font-size="14" lengthAdjust="spacing" textLength="146.6787" x="778.125" y="812.3713">Pan and zoom canvas</text><text fill="#000000" font-family="sans-serif" font-size="14" lengthAdjust="spacing" textLength="158.0811" x="772.4239" y="828.8596">(scroll zoom, drag pan)</text></g><!--entity Fisheye--><g class="entity" data-qualified-name="mdd-viewer.Fisheye" data-source-line="40" id="ent0007"><ellipse cx="851.464" cy="1080.4451" fill="#F1F1F1" rx="93.784" ry="21.1568" style="stroke:#181818;stroke-width:0.5;"/><text fill="#000000" font-family="sans-serif" font-size="14" lengthAdjust="spacing" textLength="161.7725" x="770.5777" y="1085.1892">Focus via center fisheye</text></g><!--entity Panels--><g class="entity" data-qualified-name="mdd-viewer.Panels" data-source-line="41" id="ent0008"><ellipse cx="851.4643" cy="1161.4471" fill="#F1F1F1" rx="113.6443" ry="25.1289" style="stroke:#181818;stroke-width:0.5;"/><text fill="#000000" font-family="sans-serif" font-size="14" lengthAdjust="spacing" textLength="205.3584" x="748.7851" y="1166.1913">Collapse / expand side panels</text></g><!--entity Trace--><g class="entity" data-qualified-name="mdd-viewer.Trace" data-source-line="42" id="ent0009"><ellipse cx="330.8282" cy="1154.4459" fill="#F1F1F1" rx="123.2882" ry="27.0576" style="stroke:#181818;stroke-width:0.5;"/><text fill="#000000" font-family="sans-serif" font-size="14" lengthAdjust="spacing" textLength="226.0098" x="217.8233" y="1159.1901">Inspect model IDs and trace links</text></g><!--entity ViewOcl--><g class="entity" data-qualified-name="mdd-viewer.ViewOcl" data-source-line="43" id="ent0010"><ellipse cx="330.8339" cy="922.4492" fill="#F1F1F1" rx="103.0539" ry="25.9009" style="stroke:#181818;stroke-width:0.5;"/><text fill="#000000" font-family="sans-serif" font-size="14" lengthAdjust="spacing" textLength="144.0742" x="258.7968" y="919.5444">View OCL constraints</text><text fill="#000000" font-family="sans-serif" font-size="14" lengthAdjust="spacing" textLength="133.2666" x="264.2006" y="936.0327">(source or diagram)</text></g><!--entity ViewDeploy--><g class="entity" data-qualified-name="mdd-viewer.ViewDeploy" data-source-line="44" id="ent0011"><ellipse cx="330.8329" cy="826.4508" fill="#F1F1F1" rx="125.1529" ry="35.5525" style="stroke:#181818;stroke-width:0.5;"/><text fill="#000000" font-family="sans-serif" font-size="14" lengthAdjust="spacing" textLength="183.8115" x="238.9271" y="817.9959">View deployment diagrams</text><text fill="#000000" font-family="sans-serif" font-size="14" lengthAdjust="spacing" textLength="185.6162" x="238.0248" y="834.4842">(dedicated DEPLOY section,</text><text fill="#000000" font-family="sans-serif" font-size="14" lengthAdjust="spacing" textLength="124.332" x="268.6669" y="850.9725">NOT parity-gated)</text></g><!--entity Themed--><g class="entity" data-qualified-name="mdd-viewer.Themed" data-source-line="45" id="ent0012"><ellipse cx="851.4615" cy="915.4454" fill="#F1F1F1" rx="137.7515" ry="37.9072" style="stroke:#181818;stroke-width:0.5;"/><text fill="#000000" font-family="sans-serif" font-size="14" lengthAdjust="spacing" textLength="190.9482" x="755.9873" y="903.8001">View themed viewer chrome</text><text fill="#000000" font-family="sans-serif" font-size="14" lengthAdjust="spacing" textLength="188.7813" x="757.0708" y="920.2883">(Catppuccin, bundled fonts,</text><text fill="#000000" font-family="sans-serif" font-size="14" lengthAdjust="spacing" textLength="189.417" x="756.753" y="936.7766">OS appearance auto-follow)</text></g><!--entity ViewSource--><g class="entity" data-qualified-name="mdd-viewer.ViewSource" data-source-line="46" id="ent0013"><ellipse cx="851.4624" cy="1249.4448" fill="#F1F1F1" rx="128.7324" ry="28.1465" style="stroke:#181818;stroke-width:0.5;"/><text fill="#000000" font-family="sans-serif" font-size="14" lengthAdjust="spacing" textLength="148.4355" x="777.2446" y="1242.1349">View PlantUML source</text><text fill="#000000" font-family="sans-serif" font-size="14" lengthAdjust="spacing" textLength="217.1641" x="742.8803" y="1258.6232">(Source toggle next to Diagram)</text></g><!--entity Dev--><g class="entity" data-qualified-name="Dev" data-source-line="34" id="ent0002"><ellipse cx="40.1592" cy="1240.7083" fill="#F1F1F1" rx="8" ry="8" style="stroke:#181818;stroke-width:0.5;"/><path d="M40.1592,1248.7083 L40.1592,1275.7083 M27.1592,1256.7083 L53.1592,1256.7083 M40.1592,1275.7083 L27.1592,1290.7083 M40.1592,1275.7083 L53.1592,1290.7083" fill="none" style="stroke:#181818;stroke-width:0.5;"/><text fill="#000000" font-family="sans-serif" font-size="14" lengthAdjust="spacing" textLength="68.3184" x="6" y="1305.7434">Developer</text></g><g class="entity" data-qualified-name="GMN32" data-source-line="70" id="ent0033"><path d="M171.49,500.8683 L171.49,618.0421 L490.176,618.0421 L490.176,510.8683 L480.176,500.8683 L171.49,500.8683" fill="#FEFFDD" style="stroke:#181818;stroke-width:0.5;"/><path d="M480.176,500.8683 L480.176,510.8683 L490.176,510.8683 L480.176,500.8683" fill="#FEFFDD" style="stroke:#181818;stroke-width:1;"/><text fill="#000000" font-family="sans-serif" font-size="13" lengthAdjust="spacing" textLength="284.9971" x="177.49" y="518.4366">Code (USE-VIEW-OCL): when the selected file</text><text fill="#000000" font-family="sans-serif" font-size="13" lengthAdjust="spacing" textLength="289.4912" x="177.49" y="533.7472">kind is Constraint, MddViewer::ocl_ui shows a</text><text fill="#000000" font-family="sans-serif" font-size="13" lengthAdjust="spacing" textLength="271.1528" x="177.49" y="549.0577">Source | Diagram toggle. Source = raw .ocl</text><text fill="#000000" font-family="sans-serif" font-size="13" lengthAdjust="spacing" textLength="266.0811" x="177.49" y="564.3683">text (read-only, @id/context/inv colored);</text><text fill="#000000" font-family="sans-serif" font-size="13" lengthAdjust="spacing" textLength="274.3203" x="177.49" y="579.6788">Diagram = the synthesized constraints SVG</text><text fill="#000000" font-family="sans-serif" font-size="13" lengthAdjust="spacing" textLength="297.686" x="177.49" y="594.9894">(mdd_render::render_ocl_diagrams) painted via</text><text fill="#000000" font-family="sans-serif" font-size="13" lengthAdjust="spacing" textLength="265.1924" x="177.49" y="610.2999">paint_canvas. Realized by SEQ-VIEW-OCL.</text></g><g class="entity" data-qualified-name="GMN35" data-source-line="80" id="ent0036"><path d="M662.51,317.5183 L662.51,419.3816 L1040.426,419.3816 L1040.426,327.5183 L1030.426,317.5183 L662.51,317.5183" fill="#FEFFDD" style="stroke:#181818;stroke-width:0.5;"/><path d="M1030.426,317.5183 L1030.426,327.5183 L1040.426,327.5183 L1030.426,317.5183" fill="#FEFFDD" style="stroke:#181818;stroke-width:1;"/><text fill="#000000" font-family="sans-serif" font-size="13" lengthAdjust="spacing" textLength="316.6338" x="668.51" y="335.0866">Code (USE-FISHEYE-FOCUS): the canvas paints the</text><text fill="#000000" font-family="sans-serif" font-size="13" lengthAdjust="spacing" textLength="342.1387" x="668.51" y="350.3972">rendered texture through a center-fixed fisheye mesh</text><text fill="#000000" font-family="sans-serif" font-size="13" lengthAdjust="spacing" textLength="356.916" x="668.51" y="365.7077">(CanvasView::fisheye_mesh / warp) &#8212; the centre bulges,</text><text fill="#000000" font-family="sans-serif" font-size="13" lengthAdjust="spacing" textLength="354.3262" x="668.51" y="381.0183">content compresses toward the edges, corners stay put.</text><text fill="#000000" font-family="sans-serif" font-size="13" lengthAdjust="spacing" textLength="346.9375" x="668.51" y="396.3288">Layered on the scroll-at-cursor base zoom; drag pans.</text><text fill="#000000" font-family="sans-serif" font-size="13" lengthAdjust="spacing" textLength="221.0381" x="668.51" y="411.6394">Realized by SEQ-CANVAS-FISHEYE.</text></g><g class="entity" data-qualified-name="GMN38" data-source-line="89" id="ent0039"><path d="M671.84,43.4883 L671.84,99.4199 L1031.0876,99.4199 L1031.0876,53.4883 L1021.0876,43.4883 L671.84,43.4883" fill="#FEFFDD" style="stroke:#181818;stroke-width:0.5;"/><path d="M1021.0876,43.4883 L1021.0876,53.4883 L1031.0876,53.4883 L1021.0876,43.4883" fill="#FEFFDD" style="stroke:#181818;stroke-width:1;"/><text fill="#000000" font-family="sans-serif" font-size="13" lengthAdjust="spacing" textLength="338.2476" x="677.84" y="61.0566">The toolbar has no Reset / Zoom + / Zoom - buttons</text><text fill="#000000" font-family="sans-serif" font-size="13" lengthAdjust="spacing" textLength="325.0127" x="677.84" y="76.3672">(removed). Zoom is scroll-only at the cursor; pan is</text><text fill="#000000" font-family="sans-serif" font-size="13" lengthAdjust="spacing" textLength="318.2715" x="677.84" y="91.6777">drag-only. A small hint label replaces the buttons.</text></g><g class="entity" data-qualified-name="GMN41" data-source-line="95" id="ent0042"><path d="M664.23,454.1783 L664.23,540.731 L1038.7056,540.731 L1038.7056,464.1783 L1028.7056,454.1783 L664.23,454.1783" fill="#FEFFDD" style="stroke:#181818;stroke-width:0.5;"/><path d="M1028.7056,454.1783 L1028.7056,464.1783 L1038.7056,464.1783 L1028.7056,454.1783" fill="#FEFFDD" style="stroke:#181818;stroke-width:1;"/><text fill="#000000" font-family="sans-serif" font-size="13" lengthAdjust="spacing" textLength="353.4756" x="670.23" y="471.7466">Code (USE-TOGGLE-PANELS): each SidePanel renders an</text><text fill="#000000" font-family="sans-serif" font-size="13" lengthAdjust="spacing" textLength="303.0942" x="670.23" y="487.0572">inner-edge chevron; clicking it sets PanelLayout</text><text fill="#000000" font-family="sans-serif" font-size="13" lengthAdjust="spacing" textLength="316.8813" x="670.23" y="502.3677">collapsed and the panel shrinks to an exact-width</text><text fill="#000000" font-family="sans-serif" font-size="13" lengthAdjust="spacing" textLength="319.3696" x="670.23" y="517.6783">sliver button that re-expands on click. Realized by</text><text fill="#000000" font-family="sans-serif" font-size="13" lengthAdjust="spacing" textLength="146.1992" x="670.23" y="532.9888">SEQ-PANEL-COLLAPSE.</text></g><g class="entity" data-qualified-name="GMN44" data-source-line="103" id="ent0045"><path d="M135.32,653.1783 L135.32,739.731 L526.3439,739.731 L526.3439,663.1783 L516.3439,653.1783 L135.32,653.1783" fill="#FEFFDD" style="stroke:#181818;stroke-width:0.5;"/><path d="M516.3439,653.1783 L516.3439,663.1783 L526.3439,663.1783 L516.3439,653.1783" fill="#FEFFDD" style="stroke:#181818;stroke-width:1;"/><text fill="#000000" font-family="sans-serif" font-size="13" lengthAdjust="spacing" textLength="340.6787" x="141.32" y="670.7466">Reads pre-rendered SVGs from .mdd/rendered/. If no</text><text fill="#000000" font-family="sans-serif" font-size="13" lengthAdjust="spacing" textLength="329.4561" x="141.32" y="686.0572">models are mapped/rendered the canvas shows "No</text><text fill="#000000" font-family="sans-serif" font-size="13" lengthAdjust="spacing" textLength="297.5718" x="141.32" y="701.3677">rendered output". Text rendering is realized by</text><text fill="#000000" font-family="sans-serif" font-size="13" lengthAdjust="spacing" textLength="370.0239" x="141.32" y="716.6783">SEQ-RENDER-DIAGRAM-PAGE, which consults a populated</text><text fill="#000000" font-family="sans-serif" font-size="13" lengthAdjust="spacing" textLength="367.1548" x="141.32" y="731.9888">font database (DOM-FONT-DATABASE) before rasterizing.</text></g><g class="entity" data-qualified-name="GMN47" data-source-line="111" id="ent0048"><path d="M676.55,134.5483 L676.55,282.3432 L1026.3713,282.3432 L1026.3713,144.5483 L1016.3713,134.5483 L676.55,134.5483" fill="#FEFFDD" style="stroke:#181818;stroke-width:0.5;"/><path d="M1016.3713,134.5483 L1016.3713,144.5483 L1026.3713,144.5483 L1016.3713,134.5483" fill="#FEFFDD" style="stroke:#181818;stroke-width:1;"/><text fill="#000000" font-family="sans-serif" font-size="13" lengthAdjust="spacing" textLength="266.2334" x="682.55" y="152.1166">Added cycle 0011 (USE-VIEWER-THEMED):</text><text fill="#000000" font-family="sans-serif" font-size="13" lengthAdjust="spacing" textLength="263.1294" x="682.55" y="167.4272">crates/mdd-viewer/src/theme.rs bundles</text><text fill="#000000" font-family="sans-serif" font-size="13" lengthAdjust="spacing" textLength="284.4258" x="682.55" y="182.7377">Inter (Regular + Medium) and JetBrains Mono</text><text fill="#000000" font-family="sans-serif" font-size="13" lengthAdjust="spacing" textLength="263.5928" x="682.55" y="198.0483">Regular via include_bytes!, registers them</text><text fill="#000000" font-family="sans-serif" font-size="13" lengthAdjust="spacing" textLength="281.3281" x="682.55" y="213.3588">through eframe's CreationContext once, and</text><text fill="#000000" font-family="sans-serif" font-size="13" lengthAdjust="spacing" textLength="283.3975" x="682.55" y="228.6694">reapplies catppuccin_egui MOCHA | LATTE +</text><text fill="#000000" font-family="sans-serif" font-size="13" lengthAdjust="spacing" textLength="291.0273" x="682.55" y="243.9799">spacing/rounding overrides each frame based</text><text fill="#000000" font-family="sans-serif" font-size="13" lengthAdjust="spacing" textLength="219.5781" x="682.55" y="259.2905">on dark_light::detect(). Realized by</text><text fill="#000000" font-family="sans-serif" font-size="13" lengthAdjust="spacing" textLength="328.8213" x="682.55" y="274.601">SEQ-APPLY-THEME, owned by CMP-VIEWER-THEME.</text></g><g class="entity" data-qualified-name="GMN50" data-source-line="123" id="ent0051"><path d="M138.82,348.8683 L138.82,466.0421 L522.8488,466.0421 L522.8488,358.8683 L512.8488,348.8683 L138.82,348.8683" fill="#FEFFDD" style="stroke:#181818;stroke-width:0.5;"/><path d="M512.8488,348.8683 L512.8488,358.8683 L522.8488,358.8683 L512.8488,348.8683" fill="#FEFFDD" style="stroke:#181818;stroke-width:1;"/><text fill="#000000" font-family="sans-serif" font-size="13" lengthAdjust="spacing" textLength="363.0288" x="144.82" y="366.4366">Added cycle 0010 (USE-VIEW-DEPLOY): MddViewer::new()</text><text fill="#000000" font-family="sans-serif" font-size="13" lengthAdjust="spacing" textLength="277.3164" x="144.82" y="381.7472">calls project.deploy_files() as a third source;</text><text fill="#000000" font-family="sans-serif" font-size="13" lengthAdjust="spacing" textLength="350.8286" x="144.82" y="397.0577">update() renders a "DEPLOY" header after the rail-mode</text><text fill="#000000" font-family="sans-serif" font-size="13" lengthAdjust="spacing" textLength="355.6528" x="144.82" y="412.3683">match (Directory AND By-cycle). lookup_file -&gt; load_file</text><text fill="#000000" font-family="sans-serif" font-size="13" lengthAdjust="spacing" textLength="348.8481" x="144.82" y="427.6788">paints .mdd/rendered/deploy/&lt;rel&gt;.svg. deploy_files()</text><text fill="#000000" font-family="sans-serif" font-size="13" lengthAdjust="spacing" textLength="360.8896" x="144.82" y="442.9894">reuses render_sources(RenderTree::Deploy) and is NEVER</text><text fill="#000000" font-family="sans-serif" font-size="13" lengthAdjust="spacing" textLength="312.5078" x="144.82" y="458.2999">in ModelRegistry. Realized by SEQ-VIEW-DEPLOY.</text></g><g class="entity" data-qualified-name="GMN53" data-source-line="133" id="ent0054"><path d="M647.34,575.8983 L647.34,739.0037 L1055.5851,739.0037 L1055.5851,585.8983 L1045.5851,575.8983 L647.34,575.8983" fill="#FEFFDD" style="stroke:#181818;stroke-width:0.5;"/><path d="M1045.5851,575.8983 L1045.5851,585.8983 L1055.5851,585.8983 L1045.5851,575.8983" fill="#FEFFDD" style="stroke:#181818;stroke-width:1;"/><text fill="#000000" font-family="sans-serif" font-size="13" lengthAdjust="spacing" textLength="314.666" x="653.34" y="593.4666">Added cycle 0012 (USE-VIEW-PUML-SOURCE): the</text><text fill="#000000" font-family="sans-serif" font-size="13" lengthAdjust="spacing" textLength="313.9868" x="653.34" y="608.7772">CentralPanel toggle row is Diagram | Source | Diff</text><text fill="#000000" font-family="sans-serif" font-size="13" lengthAdjust="spacing" textLength="291.9604" x="653.34" y="624.0877">(View::Source). Clicking "Source" dispatches to</text><text fill="#000000" font-family="sans-serif" font-size="13" lengthAdjust="spacing" textLength="325.4189" x="653.34" y="639.3983">MddViewer::source_ui, which reads the selected file</text><text fill="#000000" font-family="sans-serif" font-size="13" lengthAdjust="spacing" textLength="331.1636" x="653.34" y="654.7088">once into SourceView { loaded, source } and paints it</text><text fill="#000000" font-family="sans-serif" font-size="13" lengthAdjust="spacing" textLength="317.9541" x="653.34" y="670.0194">via egui::ScrollArea::both as read-only monospace</text><text fill="#000000" font-family="sans-serif" font-size="13" lengthAdjust="spacing" textLength="317.8335" x="653.34" y="685.3299">(`' @` markers yellow, `@start`/`@end` blue, `'`</text><text fill="#000000" font-family="sans-serif" font-size="13" lengthAdjust="spacing" textLength="362.4258" x="653.34" y="700.6405">comments dimmed). No DiagramPage / rasterizer call, so</text><text fill="#000000" font-family="sans-serif" font-size="13" lengthAdjust="spacing" textLength="387.2451" x="653.34" y="715.951">it needs no rendered SVG (OCL-PUML-SOURCE-NO-RENDER).</text><text fill="#000000" font-family="sans-serif" font-size="13" lengthAdjust="spacing" textLength="242.1631" x="653.34" y="731.2616">Realized by SEQ-VIEW-PUML-SOURCE.</text></g><!--link Dev to View--><g class="link" data-entity-1="ent0002" data-entity-2="ent0004" data-link-type="dependency" data-source-line="49" id="lnk14"><path d="M54.2,1232.0183 C68.53,1195.3883 95.03,1141.2383 135.32,1109.4483 C162.74,1087.8083 192.248,1075.6071 225.228,1066.9171" fill="none" id="Dev-to-View" style="stroke:#181818;stroke-width:1;"/><polygon fill="#181818" points="231.03,1065.3883,221.3079,1063.8135,226.195,1066.6623,223.3462,1071.5494,231.03,1065.3883" style="stroke:#181818;stroke-width:1;"/></g><!--link Dev to Browse--><g class="link" data-entity-1="ent0002" data-entity-2="ent0005" data-link-type="dependency" data-source-line="50" id="lnk15"><path d="M71.64,1308.9283 C81.05,1318.0483 92.16,1326.5383 104.32,1331.4483 C210.02,1374.1583 532.68,1407.8083 617.34,1331.4483 C665.45,1288.0583 603.1,1088.7883 647.34,1041.4483 C680.33,1006.1583 729.0104,998.2906 773.3304,998.7906" fill="none" id="Dev-to-Browse" style="stroke:#181818;stroke-width:1;"/><polygon fill="#181818" points="779.33,998.8583,770.3757,994.757,774.3303,998.8019,770.2854,1002.7565,779.33,998.8583" style="stroke:#181818;stroke-width:1;"/></g><!--link Dev to PanZoom--><g class="link" data-entity-1="ent0002" data-entity-2="ent0006" data-link-type="dependency" data-source-line="51" id="lnk16"><path d="M74.78,1262.2483 C84.29,1260.1283 94.67,1258.0083 104.32,1256.4483 C217.46,1238.1283 536.94,1285.1283 617.34,1203.4483 C671.02,1148.9283 596.76,917.8583 647.34,860.4483 C670.18,834.5283 698.4443,822.8506 732.2643,817.1206" fill="none" id="Dev-to-PanZoom" style="stroke:#181818;stroke-width:1;"/><polygon fill="#181818" points="738.18,816.1183,728.6383,813.6779,733.2503,816.9535,729.9746,821.5655,738.18,816.1183" style="stroke:#181818;stroke-width:1;"/></g><!--link Dev to Fisheye--><g class="link" data-entity-1="ent0002" data-entity-2="ent0007" data-link-type="dependency" data-source-line="52" id="lnk17"><path d="M48.09,1309.1583 C55.93,1340.3083 72.08,1382.1383 104.32,1402.4483 C200.77,1463.2283 532.6,1478.7083 617.34,1402.4483 C664.52,1359.9983 604.29,1165.0783 647.34,1118.4483 C675.76,1087.6783 714.511,1077.4312 754.781,1074.9912" fill="none" id="Dev-to-Fisheye" style="stroke:#181818;stroke-width:1;"/><polygon fill="#181818" points="760.77,1074.6283,751.5446,1071.1799,755.7792,1074.9307,752.0284,1079.1653,760.77,1074.6283" style="stroke:#181818;stroke-width:1;"/></g><!--link Dev to Panels--><g class="link" data-entity-1="ent0002" data-entity-2="ent0008" data-link-type="dependency" data-source-line="53" id="lnk18"><path d="M40.57,1309.1083 C42.19,1356.6583 53.04,1435.7083 104.32,1473.4483 C196.13,1541.0383 532.39,1549.4783 617.34,1473.4483 C662.33,1433.1883 606.69,1248.0783 647.34,1203.4483 C670.32,1178.2283 698.1892,1166.8898 731.6492,1161.3998" fill="none" id="Dev-to-Panels" style="stroke:#181818;stroke-width:1;"/><polygon fill="#181818" points="737.57,1160.4283,728.0411,1157.9383,732.636,1161.2378,729.3364,1165.8327,737.57,1160.4283" style="stroke:#181818;stroke-width:1;"/></g><!--link Dev to Trace--><g class="link" data-entity-1="ent0002" data-entity-2="ent0009" data-link-type="dependency" data-source-line="54" id="lnk19"><path d="M73.75,1231.9183 C82.85,1223.1083 93.3,1214.5483 104.32,1208.4483 C140.42,1188.4683 177.8916,1177.0299 216.8816,1169.0599" fill="none" id="Dev-to-Trace" style="stroke:#181818;stroke-width:1;"/><polygon fill="#181818" points="222.76,1167.8583,213.1413,1165.7417,217.8613,1168.8596,214.7434,1173.5797,222.76,1167.8583" style="stroke:#181818;stroke-width:1;"/></g><!--link Dev to ViewOcl--><g class="link" data-entity-1="ent0002" data-entity-2="ent0010" data-link-type="dependency" data-source-line="55" id="lnk20"><path d="M45.23,1231.8283 C53.09,1175.4983 75.26,1070.5483 135.32,1006.4483 C166.63,973.0283 207.7659,954.0468 247.6459,941.5168" fill="none" id="Dev-to-ViewOcl" style="stroke:#181818;stroke-width:1;"/><polygon fill="#181818" points="253.37,939.7183,243.5848,938.5999,248.5999,941.217,245.9828,946.2321,253.37,939.7183" style="stroke:#181818;stroke-width:1;"/></g><!--link Dev to ViewDeploy--><g class="link" data-entity-1="ent0002" data-entity-2="ent0011" data-link-type="dependency" data-source-line="56" id="lnk21"><path d="M45.44,1232.0283 C56.05,1143.7083 86.26,929.9883 135.32,879.4483 C155.67,858.4783 177.6727,847.1679 205.8527,839.2679" fill="none" id="Dev-to-ViewDeploy" style="stroke:#181818;stroke-width:1;"/><polygon fill="#181818" points="211.63,837.6483,201.8844,836.2262,206.8156,838.998,204.0438,843.9292,211.63,837.6483" style="stroke:#181818;stroke-width:1;"/></g><!--link Dev to Themed--><g class="link" data-entity-1="ent0002" data-entity-2="ent0012" data-link-type="dependency" data-source-line="57" id="lnk22"><path d="M74.64,1276.9083 C185.44,1297.4483 537.74,1355.7883 617.34,1283.4483 C669.05,1236.4583 602.28,1023.8483 647.34,970.4483 C665.78,948.5983 686.1826,936.7238 713.6026,928.3338" fill="none" id="Dev-to-Themed" style="stroke:#181818;stroke-width:1;"/><polygon fill="#181818" points="719.34,926.5783,709.5635,925.3866,714.5588,928.0412,711.9042,933.0365,719.34,926.5783" style="stroke:#181818;stroke-width:1;"/></g><!--link Dev to ViewSource--><g class="link" data-entity-1="ent0002" data-entity-2="ent0013" data-link-type="dependency" data-source-line="58" id="lnk23"><path d="M44.28,1309.1283 C50.68,1377.5483 67.89,1515.4583 104.32,1544.4483 C282.74,1686.4183 412.13,1643.8383 617.34,1544.4483 C734.55,1487.6883 808.1991,1345.7149 836.0891,1283.3949" fill="none" id="Dev-to-ViewSource" style="stroke:#181818;stroke-width:1;"/><polygon fill="#181818" points="838.54,1277.9183,831.2126,1284.4992,836.4976,1282.4821,838.5147,1287.7671,838.54,1277.9183" style="stroke:#181818;stroke-width:1;"/></g><!--link View to Browse--><g class="link" data-entity-1="ent0004" data-entity-2="ent0005" data-link-type="dependency" data-source-line="60" id="lnk24"><path d="M450.42,1047.9683 C501.8,1046.2483 562.62,1043.3483 617.34,1038.4483 C674.71,1033.3183 733.6802,1025.0434 780.4002,1017.8334" fill="none" id="View-to-Browse" style="stroke:#181818;stroke-width:1;stroke-dasharray:7,7;"/><polygon fill="#181818" points="786.33,1016.9183,776.8252,1014.3377,781.3885,1017.6809,778.0454,1022.2441,786.33,1016.9183" style="stroke:#181818;stroke-width:1;"/><text fill="#000000" font-family="sans-serif" font-size="13" lengthAdjust="spacing" textLength="59.3569" x="557.34" y="1035.0166">&#171;include&#187;</text></g><!--link View to PanZoom--><g class="link" data-entity-1="ent0004" data-entity-2="ent0006" data-link-type="dependency" data-source-line="61" id="lnk25"><path d="M392.99,1027.5383 C432.11,1011.9683 483.39,989.8183 526.34,965.4483 C569.57,940.9183 581.79,935.1883 617.34,900.4483 C633.24,884.9183 628.64,872.4483 647.34,860.4483 C676.04,842.0383 705.3372,832.3575 738.3172,826.0375" fill="none" id="View-to-PanZoom" style="stroke:#181818;stroke-width:1;stroke-dasharray:7,7;"/><polygon fill="#181818" points="744.21,824.9083,734.618,822.6736,739.2994,825.8493,736.1237,830.5307,744.21,824.9083" style="stroke:#181818;stroke-width:1;"/><text fill="#000000" font-family="sans-serif" font-size="13" lengthAdjust="spacing" textLength="57.1924" x="558.34" y="897.0166">&#171;extend&#187;</text></g><!--link View to Fisheye--><g class="link" data-entity-1="ent0004" data-entity-2="ent0007" data-link-type="dependency" data-source-line="62" id="lnk26"><path d="M411.26,1070.3583 C453.96,1080.0483 507.69,1090.6183 556.34,1095.4483 C628.21,1102.5783 704.3426,1097.9026 763.5126,1091.7126" fill="none" id="View-to-Fisheye" style="stroke:#181818;stroke-width:1;stroke-dasharray:7,7;"/><polygon fill="#181818" points="769.48,1091.0883,760.1127,1088.0464,764.5071,1091.6085,760.945,1096.003,769.48,1091.0883" style="stroke:#181818;stroke-width:1;"/><text fill="#000000" font-family="sans-serif" font-size="13" lengthAdjust="spacing" textLength="57.1924" x="558.34" y="1092.0166">&#171;extend&#187;</text></g><!--link View to Panels--><g class="link" data-entity-1="ent0004" data-entity-2="ent0008" data-link-type="dependency" data-source-line="63" id="lnk27"><path d="M408.42,1070.9583 C444.59,1081.3283 488.11,1094.8183 526.34,1109.4483 C540.08,1114.7083 542.21,1119.3483 556.34,1123.4483 C616.05,1140.7883 678.895,1149.6714 734.945,1154.8014" fill="none" id="View-to-Panels" style="stroke:#181818;stroke-width:1;stroke-dasharray:7,7;"/><polygon fill="#181818" points="740.92,1155.3483,732.322,1150.5446,735.9408,1154.8926,731.5929,1158.5113,740.92,1155.3483" style="stroke:#181818;stroke-width:1;"/><text fill="#000000" font-family="sans-serif" font-size="13" lengthAdjust="spacing" textLength="57.1924" x="558.34" y="1120.0166">&#171;extend&#187;</text></g><!--link View to Themed--><g class="link" data-entity-1="ent0004" data-entity-2="ent0012" data-link-type="dependency" data-source-line="64" id="lnk28"><path d="M418.73,1032.1583 C475.66,1019.5183 551.46,1001.4183 617.34,981.4483 C630.93,977.3283 633.81,974.7583 647.34,970.4483 C680.16,960.0183 710.5439,951.359 743.1739,942.629" fill="none" id="View-to-Themed" style="stroke:#181818;stroke-width:1;stroke-dasharray:7,7;"/><polygon fill="#181818" points="748.97,941.0783,739.242,939.5403,744.1399,942.3706,741.3096,947.2685,748.97,941.0783" style="stroke:#181818;stroke-width:1;"/><text fill="#000000" font-family="sans-serif" font-size="13" lengthAdjust="spacing" textLength="59.3569" x="557.34" y="978.0166">&#171;include&#187;</text></g><!--link View to ViewSource--><g class="link" data-entity-1="ent0004" data-entity-2="ent0013" data-link-type="dependency" data-source-line="65" id="lnk29"><path d="M430.7,1065.2983 C463.69,1073.9783 498.98,1087.7283 526.34,1109.4483 C547.24,1126.0383 536.72,1143.3683 556.34,1161.4483 C589.24,1191.7583 605.02,1189.9683 647.34,1204.4483 C680.06,1215.6483 710.8507,1223.5227 743.9307,1230.5427" fill="none" id="View-to-ViewSource" style="stroke:#181818;stroke-width:1;stroke-dasharray:7,7;"/><polygon fill="#181818" points="749.8,1231.7883,741.8264,1226.0071,744.9089,1230.7503,740.1657,1233.8328,749.8,1231.7883" style="stroke:#181818;stroke-width:1;"/><text fill="#000000" font-family="sans-serif" font-size="13" lengthAdjust="spacing" textLength="57.1924" x="558.34" y="1158.0166">&#171;extend&#187;</text></g><!--link ViewOcl to PanZoom--><g class="link" data-entity-1="ent0010" data-entity-2="ent0006" data-link-type="dependency" data-source-line="66" id="lnk30"><path d="M412.01,906.0583 C507.98,886.4483 662.0616,854.9599 759.9516,834.9499" fill="none" id="ViewOcl-to-PanZoom" style="stroke:#181818;stroke-width:1;stroke-dasharray:7,7;"/><polygon fill="#181818" points="765.83,833.7483,756.2112,831.6318,760.9313,834.7496,757.8134,839.4697,765.83,833.7483" style="stroke:#181818;stroke-width:1;"/><text fill="#000000" font-family="sans-serif" font-size="13" lengthAdjust="spacing" textLength="57.1924" x="558.34" y="862.8366">&#171;extend&#187;</text></g><!--link ViewDeploy to PanZoom--><g class="link" data-entity-1="ent0011" data-entity-2="ent0006" data-link-type="dependency" data-source-line="67" id="lnk31"><path d="M456.06,824.0583 C542.06,822.3983 649.5811,820.3237 732.7311,818.7237" fill="none" id="ViewDeploy-to-PanZoom" style="stroke:#181818;stroke-width:1;stroke-dasharray:7,7;"/><polygon fill="#181818" points="738.73,818.6083,729.6547,814.7822,733.7309,818.7045,729.8086,822.7807,738.73,818.6083" style="stroke:#181818;stroke-width:1;"/><text fill="#000000" font-family="sans-serif" font-size="13" lengthAdjust="spacing" textLength="57.1924" x="558.34" y="817.7166">&#171;extend&#187;</text></g><!--link ViewOcl to GMN32--><g class="link" data-entity-1="ent0010" data-entity-2="ent0033" data-link-type="association" data-source-line="70" id="lnk34"><path d="M227.93,925.0783 C180.43,920.0583 129.25,904.1283 104.82,861.9483 C81.54,821.7583 81.54,693.1383 104.82,652.9483 C119.93,626.8583 144.04,608.0483 171,594.4883" fill="none" id="ViewOcl-GMN32" style="stroke:#181818;stroke-width:1;stroke-dasharray:7,7;"/></g><!--link Fisheye to GMN35--><g class="link" data-entity-1="ent0007" data-entity-2="ent0036" data-link-type="association" data-source-line="80" id="lnk37"><path d="M764.92,1088.9283 C704.2,1089.5183 626.97,1078.3283 586.84,1024.9483 C510.6,923.5283 512.17,556.5483 586.84,453.9483 C605.74,427.9883 632.67,409.7483 662.19,396.9683" fill="none" id="Fisheye-GMN35" style="stroke:#181818;stroke-width:1;stroke-dasharray:7,7;"/></g><!--link PanZoom to GMN38--><g class="link" data-entity-1="ent0006" data-entity-2="ent0039" data-link-type="association" data-source-line="89" id="lnk40"><path d="M738.98,813.4483 C683.85,805.5683 621.93,785.7883 586.84,738.9483 C506.37,631.5283 506.19,242.2383 586.84,134.9483 C607.71,107.1883 638.41,90.1383 671.57,79.9283" fill="none" id="PanZoom-GMN38" style="stroke:#181818;stroke-width:1;stroke-dasharray:7,7;"/></g><!--link Panels to GMN41--><g class="link" data-entity-1="ent0008" data-entity-2="ent0042" data-link-type="association" data-source-line="95" id="lnk43"><path d="M740.6,1167.5083 C684.86,1163.9783 621.86,1148.5283 586.84,1101.9483 C516.61,1008.5183 516.92,669.6183 586.84,575.9483 C606.19,550.0283 633.73,532.3183 663.8,520.2983" fill="none" id="Panels-GMN41" style="stroke:#181818;stroke-width:1;stroke-dasharray:7,7;"/></g><!--link View to GMN44--><g class="link" data-entity-1="ent0004" data-entity-2="ent0045" data-link-type="association" data-source-line="103" id="lnk46"><path d="M235.64,1034.1783 C186.76,1020.2883 131.92,994.7383 104.82,947.9483 C70.07,887.9483 70.07,851.9483 104.82,791.9483 C117.52,770.0183 136.53,753.1183 158.22,740.1083" fill="none" id="View-GMN44" style="stroke:#181818;stroke-width:1;stroke-dasharray:7,7;"/></g><!--link Themed to GMN47--><g class="link" data-entity-1="ent0012" data-entity-2="ent0048" data-link-type="association" data-source-line="111" id="lnk49"><path d="M714.58,910.5383 C666.37,901.3383 616.78,881.7783 586.84,841.9483 C516.87,748.8683 522.13,414.7583 586.84,317.9483 C608.26,285.9183 640.96,263.2383 676.15,247.1983" fill="none" id="Themed-GMN47" style="stroke:#181818;stroke-width:1;stroke-dasharray:7,7;"/></g><!--link ViewDeploy to GMN50--><g class="link" data-entity-1="ent0011" data-entity-2="ent0051" data-link-type="association" data-source-line="123" id="lnk52"><path d="M214.95,812.6783 C171.74,800.9483 127.66,779.3983 104.82,739.9483 C78.2,693.9883 78.2,546.9083 104.82,500.9483 C113.44,486.0683 124.99,473.5583 138.32,463.0383" fill="none" id="ViewDeploy-GMN50" style="stroke:#181818;stroke-width:1;stroke-dasharray:7,7;"/></g><!--link ViewSource to GMN53--><g class="link" data-entity-1="ent0013" data-entity-2="ent0054" data-link-type="association" data-source-line="133" id="lnk55"><path d="M722.91,1252.2783 C672.02,1246.0683 618.26,1228.7383 586.84,1186.9483 C534.1,1116.7883 540.94,866.7683 586.84,791.9483 C601.93,767.3483 623.09,747.0783 646.92,730.4183" fill="none" id="ViewSource-GMN53" style="stroke:#181818;stroke-width:1;stroke-dasharray:7,7;"/></g><?plantuml-src bLZDSjl84RxpAIOyHEIQ0EMjL2e5UrscITfMIX8LaVPcKrj53O4XYGZ4e0Q0P7gzLJdb0L9vbzppAFia-RfdG08YwSsU971cUlhdw-vl-anudYSUrpfHtaPc8ZFwGQKo3LKWmcsOA56iPI7Yj30wAaCL2IN3jNWTHtImTIPUywxEX-dO-tWn_juRNGpUtGwkfZrnVdx-lDlSyVPY-dxy0_vEXX-ExvXDthsx77itW-lnvV4TVCjaUCcBVpYsE1hVN4v-eFNdvqVMnxVUxFtuQZpY7KV5ttouklIcam-tmp5l-fOtnT6XcRmGgJmyve7sI3seH6VAY8TOFUP22gFII1cuSQCZbOWebYiZDqAdyBE2cpsPPIAKwOFCnMDSh4M-bfd2oJGIXVfKY4IjuaMY_7PTfOPVcoezSNbDfQKEonoYSNScJI7q4lfL2Zt44b-XIWjbl6Ny2HelutojjWuG6xbAusMCuwItKvYs6yMwXdgJ6PMJ_513I5g8GZzA4_5-5QrKtXE9tB8ldFLvQ7IIY5MY5p8HdxNUDAriOADfvHFOrAmC8L9cRASHwbC6vQpEYLeMuceomW7Odo8Ox6Eic7YrTajYEBcUZVywSplOAod2bC8hP8HOur2YUeXhcCXu4wUhVVGYX0-cHMg3JKrJAX0VWGz3ktsnoHAr8VT7WSXLeiA2P4lXwp11A92O-Le3KbTHz17OKYO8i38lOmiRAQQwDA7gZrn02xrQuT0l__YtMu59o6hh2oCV1UvbXFL4TQIs8T-c-9F7dnM5DiqBOzUc7zyTCSmcuB7KS9bPDqzqR9tXR0tgzgJgiTCLYPOHPSxi_SNjIEIiUu_grD_X4pzIMQAtSt98tkdsn09AHifcrzmWLw3g5b8OatHFxKTVp2eSm9p4vIRT5Qae3YKfTsPL5l_zZ-XleiYpzz5dMSH9N6nx8jK59H3-zrPqvamCBUOGiFTAGgJeB3HYCeg1aaARBMlpPkjPmqdN77P2AmgnZslwzfh-Dz_ql_6pSfEy464IX_SM0ecIIoZBoKlUOUiHO1imAw2gCmr9-SFAnmbzNsRsJAwa2H5NKJb5F1DrZxvmNmouNAJ8AYGHrGHnHHw-TSTwY8kuiI490gEesdMw_GUPn15S0l_VAvM9U9LgyzJ6G_pi2lGXWcgr-mI6dYFMg3a6r-OSiGT6KpytOHyGtYZVv84mPGgbGfaaZE-D8gt95cNcIzIhlFFxCFJLgepdOV6fYpH6mg3ivGKgPPc9pWKx0VQNYJJmsXKGKsve2wNB6c6dUleMejxAJPniWm3koRGfOftAf2V-h8etb4D8O9tgdQ2ldATzUIP31TpMagJCoCDDKz13aksSFpgi_jkBs-dCTkubCXkzFPBcVfvGeGk2I1M86_pnop__1K55bfLX6ATpCZy8SbNiHVLG5eVl1-ABk1pCPcCa79PIk6MBbaJQ8Rf-NAZDt7s8xqJdJ_vvJ_pHFxTPQ7IPHdO5lr6195HjnVSnwcdnCSvB2KiUa50oBNnnKwAZX6kZDxPuHPg0gAcTb33d2Go718Fz9qe-kHDLoYMtoE9C9N6gZbIjMjC_KheQbE04zhv5_QBxXjG7PNB3FSCLNgCVHPplQkkNgWf_mK_BfUXGF95QmD2AOK7VGM0t8UB3AltTCKGbfxwmz0dVy6Lz_mjXKO6GHZ42KN2Eeq3KS6CBAVMBXLfgesmVtvNslkjY2mCkkFR5VdiYFmEFyATqZTHs9oO8YJhBBKs12ErqPSj-uagbefwJ97w6tu1775jiKRYAjKM7wpanIH0MW5Ec1GDS60HSHsNEjtiwXHwRAYqO7NU8snt8YRb7h2dEkTYg9D6FFN7tcfFthd_t6b2uWsUe6iSFsB98IhGKYCQXkxCx8YyKsnnxy4_aYsjT1Uv6ekdtHObIoZd7bG_QFcfpdnEIKv1fbUvWXv2NQLMCBUY6fS4FXSUD2aNS2sMkc21IojF1EzGj_k6E_AYCP3rht8n2s8CeevOWMUJ49H84UaSgg1CoAWJ4qKumEL1z0obqO44wE096pAjdGqigClN9TqJAhXHQ9miKhBMaR8GGEYGMPL40GhqzIychnBE4yYWfwGa90VkUc-hKTbBXcczEWKAXo4kpHAJpUl-el89BWHzdZQiNiQk8Z34fCd80bJynt1Mvgj1OLhlKX1K-1KcJAJaGBPAUGptBgnObyRr8sFh_x6aTvzxXjugueCRkecZhLYDu0Bz5GRVLOWA2RB6qqy5IfwsM9B9Gux9jGZw-MYtQ8bCgA-rzYskBdrg20CLuQdFQxPuRxleVquvxK0okHuq7HPUbqw6wa3SeMxcZKpQUlCt-ND-8MiVvop2mwAExwe2AZ5mHcEnDEF0t_5oNyPOU90mKYzOAfxp_hVs_lj_HBCf7I-phUAqkmR_rCnTfdi5vpgABaNjP6IeWg1VtzjoClW-SIGovHdx9FblB42NdtxqN9s5o8C0YbahB3hKGiWT-4-wz7zFhoQn1BVVYHopgu0O7TmSocmQuOe_ttWx135NSqK2va6MXFPi6zh8PIpouw2P1qg0bkdAEErnZSkqk9MWLkxAvLznkQ_tSQW79mlDUMSnL7mvPrMU5akgxGa5jdG9SVTgurGLJ6EhVpc-x0zQw-WwdO8lDzFrA9H68bo_ZD4pAIBrwjLzr6l8oR4Q-rLUTlYTMhVOd5grgfwxTQtfu73P_NJNhXDDxMk1NQ0aQnNn3FMcFvo7IHZHViC6-uJMO07Q3i4HKX8UxfEaTUQ_QTwp4_XebglS7lrhuZX-gr5kmcOjNPqS4UaJc-Znh-5Jqu_I16XPuJTHzWSsLmEz-xJMBlHsKrBajdFGgeBzpKhLAsQubAPncf3L_pMtDyy7ayUZvR5lETFoNdP_y5YGHSLK7xjsNjhrxcnETHbFVFyjnObVWoUoIQHm8zcfzgkLlG1V8nY7BigJHhSrf3RNqKPgiopsBBxKpdKMPqCW6HwjnJct2SpZP2RL9wIaDoWLsLnO-3buUc_Puil3G2dEKKAOWr2fUx5f5JkUUUdGukFuuc5OU-efVzorcTi1O81KK6jOo-fzL_tWLXI4V6RK1Guh0ldaDG7OwC_5qJpMh_0lI5ZjmZ7Jd7RuOY7m3ZYZMz2nFv4BHZ25BcC8mwR9tVTq4sy3so6XEmGBxgfkYyTddncw8aU9KRL05glrWT5eR982ryYk2po4ukYmulBQfHhjnc1rzvMj3xP5gEYnLdq1EF1vnuKoUn3GOiEPO9cMKLmtRy1FVsSWDodR4agtmXfFBoy7Dz6knTCJabbyTm9st0pwIDhVqjpduyCN5agYfiBqU7W6CDzJgzflgQMNBKFjQrxCAFW5wsxwOKRMnFxFl-0don9ZRyVLeV5lDVs7REpmL7zSnuaDLfamAOkAPpl3KBxYdKW_6KxoGZFtEQ7A5XB-UUQF1RF1cC1rtgyUPaJIQY3_Jy_gqatQzUX15oisxU2OYZinM0WhsLySaZYeG_2pTxJoTTzWtMvC3SvJiDg9ohdVD5rlSzBkUgCOibffJ7NS5Ip4rn_jn2CyI_ndQMiwp5qlkAJ3La-R9dA8vbn3F29Ls0j7V3HpekMEGA7bj4i9LXoJJeFR8JEGOQ0StDvS_M3VYrVYOsj8qlBffUFXNmBmZS4zYTIuEvgY7Gr4A7GzyZez1YMj9E3P6KRRyZ7hWRYQmdtEsxGrj7ZWXm799OROJuJZnA74eVsY007JknfVqTgZ6bztcH14aQZUIh7fZVdma-TAev9MTIJRLvpZpTDDrNsj33lZHvyme5GJMVnQ0oCRhySVnBLUyvaZeH4EsTlzAY1mJF0ZHj-Buq2XmFVctZt-esvmQ-BJjJ-tcA0SdZWrpgdfpOZh3E0_L_pETQGnZS8vo-JVDOyYc-ZZcz2J6Zb_kpkwu_JH6BzqZivUg5j83nqrWAF05tXmgujvUxmsY0_9L3vDtFN6LkdkCNJoDwXuZ_mC0?></g></svg>