<svg xmlns="http://www.w3.org/2000/svg" xmlns:xlink="http://www.w3.org/1999/xlink" contentStyleType="text/css" data-diagram-type="DESCRIPTION" height="1371px" preserveAspectRatio="none" style="width:1040px;height:1371px;background:#FFFFFF;" version="1.1" viewBox="0 0 1040 1371" width="1040px" zoomAndPan="magnify"><?plantuml 1.2026.3?><defs/><g><g class="title" data-source-line="27"><text fill="#000000" font-family="sans-serif" font-size="14" font-weight="700" lengthAdjust="spacing" textLength="272.3369" x="380.4596" y="23.5352">mdd view &#8212; diagram viewer (current)</text></g><!--cluster mdd-viewer--><g class="cluster" data-qualified-name="mdd-viewer" data-source-line="33" id="ent0003"><rect fill="none" height="447" rx="2.5" ry="2.5" style="stroke:#181818;stroke-width:1;" width="800.37" x="189.68" y="556.4583"/><text fill="#000000" font-family="sans-serif" font-size="14" font-weight="700" lengthAdjust="spacing" textLength="88.7783" x="545.4758" y="571.9934">mdd-viewer</text></g><!--entity View--><g class="entity" data-qualified-name="mdd-viewer.View" data-source-line="34" id="ent0004"><ellipse cx="330.8349" cy="810.4573" fill="#F1F1F1" rx="119.7449" ry="26.349" style="stroke:#181818;stroke-width:0.5;"/><text fill="#000000" font-family="sans-serif" font-size="14" lengthAdjust="spacing" textLength="157.6641" x="252.0028" y="806.2236">View rendered diagram</text><text fill="#000000" font-family="sans-serif" font-size="14" lengthAdjust="spacing" textLength="172.3271" x="244.6713" y="822.7119">(shapes AND text legible)</text></g><!--entity Browse--><g class="entity" data-qualified-name="mdd-viewer.Browse" data-source-line="35" id="ent0005"><ellipse cx="836.3031" cy="781.4589" fill="#F1F1F1" rx="78.9031" ry="18.1806" style="stroke:#181818;stroke-width:0.5;"/><text fill="#000000" font-family="sans-serif" font-size="14" lengthAdjust="spacing" textLength="127.4697" x="772.5682" y="786.203">Browse model files</text></g><!--entity PanZoom--><g class="entity" data-qualified-name="mdd-viewer.PanZoom" data-source-line="36" id="ent0006"><ellipse cx="836.3044" cy="617.4545" fill="#F1F1F1" rx="112.8544" ry="25.9162" style="stroke:#181818;stroke-width:0.5;"/><text fill="#000000" font-family="sans-serif" font-size="14" lengthAdjust="spacing" textLength="146.6787" x="762.965" y="613.3813">Pan and zoom canvas</text><text fill="#000000" font-family="sans-serif" font-size="14" lengthAdjust="spacing" textLength="158.0811" x="757.2639" y="629.8696">(scroll zoom, drag pan)</text></g><!--entity Fisheye--><g class="entity" data-qualified-name="mdd-viewer.Fisheye" data-source-line="37" id="ent0007"><ellipse cx="836.304" cy="855.4551" fill="#F1F1F1" rx="93.784" ry="21.1568" style="stroke:#181818;stroke-width:0.5;"/><text fill="#000000" font-family="sans-serif" font-size="14" lengthAdjust="spacing" textLength="161.7725" x="755.4177" y="860.1992">Focus via center fisheye</text></g><!--entity Panels--><g class="entity" data-qualified-name="mdd-viewer.Panels" data-source-line="38" id="ent0008"><ellipse cx="836.3043" cy="703.4571" fill="#F1F1F1" rx="113.6443" ry="25.1289" style="stroke:#181818;stroke-width:0.5;"/><text fill="#000000" font-family="sans-serif" font-size="14" lengthAdjust="spacing" textLength="205.3584" x="733.6251" y="708.2013">Collapse / expand side panels</text></g><!--entity Trace--><g class="entity" data-qualified-name="mdd-viewer.Trace" data-source-line="39" id="ent0009"><ellipse cx="330.8282" cy="898.4559" fill="#F1F1F1" rx="123.2882" ry="27.0576" style="stroke:#181818;stroke-width:0.5;"/><text fill="#000000" font-family="sans-serif" font-size="14" lengthAdjust="spacing" textLength="226.0098" x="217.8233" y="903.2001">Inspect model IDs and trace links</text></g><!--entity ViewOcl--><g class="entity" data-qualified-name="mdd-viewer.ViewOcl" data-source-line="40" id="ent0010"><ellipse cx="330.8339" cy="617.4592" fill="#F1F1F1" rx="103.0539" ry="25.9009" style="stroke:#181818;stroke-width:0.5;"/><text fill="#000000" font-family="sans-serif" font-size="14" lengthAdjust="spacing" textLength="144.0742" x="258.7968" y="614.5544">View OCL constraints</text><text fill="#000000" font-family="sans-serif" font-size="14" lengthAdjust="spacing" textLength="133.2666" x="264.2006" y="631.0427">(source or diagram)</text></g><!--entity ViewDeploy--><g class="entity" data-qualified-name="mdd-viewer.ViewDeploy" data-source-line="41" id="ent0011"><ellipse cx="330.8329" cy="713.4608" fill="#F1F1F1" rx="125.1529" ry="35.5525" style="stroke:#181818;stroke-width:0.5;"/><text fill="#000000" font-family="sans-serif" font-size="14" lengthAdjust="spacing" textLength="183.8115" x="238.9271" y="705.0059">View deployment diagrams</text><text fill="#000000" font-family="sans-serif" font-size="14" lengthAdjust="spacing" textLength="185.6162" x="238.0248" y="721.4942">(dedicated DEPLOY section,</text><text fill="#000000" font-family="sans-serif" font-size="14" lengthAdjust="spacing" textLength="124.332" x="268.6669" y="737.9825">NOT parity-gated)</text></g><!--entity Themed--><g class="entity" data-qualified-name="mdd-viewer.Themed" data-source-line="42" id="ent0012"><ellipse cx="836.3015" cy="949.4554" fill="#F1F1F1" rx="137.7515" ry="37.9072" style="stroke:#181818;stroke-width:0.5;"/><text fill="#000000" font-family="sans-serif" font-size="14" lengthAdjust="spacing" textLength="190.9482" x="740.8273" y="937.8101">View themed viewer chrome</text><text fill="#000000" font-family="sans-serif" font-size="14" lengthAdjust="spacing" textLength="188.7813" x="741.9108" y="954.2983">(Catppuccin, bundled fonts,</text><text fill="#000000" font-family="sans-serif" font-size="14" lengthAdjust="spacing" textLength="189.417" x="741.593" y="970.7866">OS appearance auto-follow)</text></g><!--entity Dev--><g class="entity" data-qualified-name="Dev" data-source-line="31" id="ent0002"><ellipse cx="40.1592" cy="948.7083" fill="#F1F1F1" rx="8" ry="8" style="stroke:#181818;stroke-width:0.5;"/><path d="M40.1592,956.7083 L40.1592,983.7083 M27.1592,964.7083 L53.1592,964.7083 M40.1592,983.7083 L27.1592,998.7083 M40.1592,983.7083 L53.1592,998.7083" fill="none" style="stroke:#181818;stroke-width:0.5;"/><text fill="#000000" font-family="sans-serif" font-size="14" lengthAdjust="spacing" textLength="68.3184" x="6" y="1013.7434">Developer</text></g><g class="entity" data-qualified-name="GMN29" data-source-line="64" id="ent0030"><path d="M171.49,149.8683 L171.49,267.0421 L490.176,267.0421 L490.176,159.8683 L480.176,149.8683 L171.49,149.8683" fill="#FEFFDD" style="stroke:#181818;stroke-width:0.5;"/><path d="M480.176,149.8683 L480.176,159.8683 L490.176,159.8683 L480.176,149.8683" fill="#FEFFDD" style="stroke:#181818;stroke-width:1;"/><text fill="#000000" font-family="sans-serif" font-size="13" lengthAdjust="spacing" textLength="284.9971" x="177.49" y="167.4366">Code (USE-VIEW-OCL): when the selected file</text><text fill="#000000" font-family="sans-serif" font-size="13" lengthAdjust="spacing" textLength="289.4912" x="177.49" y="182.7472">kind is Constraint, MddViewer::ocl_ui shows a</text><text fill="#000000" font-family="sans-serif" font-size="13" lengthAdjust="spacing" textLength="271.1528" x="177.49" y="198.0577">Source | Diagram toggle. Source = raw .ocl</text><text fill="#000000" font-family="sans-serif" font-size="13" lengthAdjust="spacing" textLength="266.0811" x="177.49" y="213.3683">text (read-only, @id/context/inv colored);</text><text fill="#000000" font-family="sans-serif" font-size="13" lengthAdjust="spacing" textLength="274.3203" x="177.49" y="228.6788">Diagram = the synthesized constraints SVG</text><text fill="#000000" font-family="sans-serif" font-size="13" lengthAdjust="spacing" textLength="297.686" x="177.49" y="243.9894">(mdd_render::render_ocl_diagrams) painted via</text><text fill="#000000" font-family="sans-serif" font-size="13" lengthAdjust="spacing" textLength="265.1924" x="177.49" y="259.2999">paint_canvas. Realized by SEQ-VIEW-OCL.</text></g><g class="entity" data-qualified-name="GMN32" data-source-line="74" id="ent0033"><path d="M647.34,255.5283 L647.34,357.3916 L1025.256,357.3916 L1025.256,265.5283 L1015.256,255.5283 L647.34,255.5283" fill="#FEFFDD" style="stroke:#181818;stroke-width:0.5;"/><path d="M1015.256,255.5283 L1015.256,265.5283 L1025.256,265.5283 L1015.256,255.5283" fill="#FEFFDD" style="stroke:#181818;stroke-width:1;"/><text fill="#000000" font-family="sans-serif" font-size="13" lengthAdjust="spacing" textLength="316.6338" x="653.34" y="273.0966">Code (USE-FISHEYE-FOCUS): the canvas paints the</text><text fill="#000000" font-family="sans-serif" font-size="13" lengthAdjust="spacing" textLength="342.1387" x="653.34" y="288.4072">rendered texture through a center-fixed fisheye mesh</text><text fill="#000000" font-family="sans-serif" font-size="13" lengthAdjust="spacing" textLength="356.916" x="653.34" y="303.7177">(CanvasView::fisheye_mesh / warp) &#8212; the centre bulges,</text><text fill="#000000" font-family="sans-serif" font-size="13" lengthAdjust="spacing" textLength="354.3262" x="653.34" y="319.0283">content compresses toward the edges, corners stay put.</text><text fill="#000000" font-family="sans-serif" font-size="13" lengthAdjust="spacing" textLength="346.9375" x="653.34" y="334.3388">Layered on the scroll-at-cursor base zoom; drag pans.</text><text fill="#000000" font-family="sans-serif" font-size="13" lengthAdjust="spacing" textLength="221.0381" x="653.34" y="349.6494">Realized by SEQ-CANVAS-FISHEYE.</text></g><g class="entity" data-qualified-name="GMN35" data-source-line="83" id="ent0036"><path d="M656.68,43.4883 L656.68,99.4199 L1015.9276,99.4199 L1015.9276,53.4883 L1005.9276,43.4883 L656.68,43.4883" fill="#FEFFDD" style="stroke:#181818;stroke-width:0.5;"/><path d="M1005.9276,43.4883 L1005.9276,53.4883 L1015.9276,53.4883 L1005.9276,43.4883" fill="#FEFFDD" style="stroke:#181818;stroke-width:1;"/><text fill="#000000" font-family="sans-serif" font-size="13" lengthAdjust="spacing" textLength="338.2476" x="662.68" y="61.0566">The toolbar has no Reset / Zoom + / Zoom - buttons</text><text fill="#000000" font-family="sans-serif" font-size="13" lengthAdjust="spacing" textLength="325.0127" x="662.68" y="76.3672">(removed). Zoom is scroll-only at the cursor; pan is</text><text fill="#000000" font-family="sans-serif" font-size="13" lengthAdjust="spacing" textLength="318.2715" x="662.68" y="91.6777">drag-only. A small hint label replaces the buttons.</text></g><g class="entity" data-qualified-name="GMN38" data-source-line="89" id="ent0039"><path d="M649.06,134.1783 L649.06,220.731 L1023.5356,220.731 L1023.5356,144.1783 L1013.5356,134.1783 L649.06,134.1783" fill="#FEFFDD" style="stroke:#181818;stroke-width:0.5;"/><path d="M1013.5356,134.1783 L1013.5356,144.1783 L1023.5356,144.1783 L1013.5356,134.1783" fill="#FEFFDD" style="stroke:#181818;stroke-width:1;"/><text fill="#000000" font-family="sans-serif" font-size="13" lengthAdjust="spacing" textLength="353.4756" x="655.06" y="151.7466">Code (USE-TOGGLE-PANELS): each SidePanel renders an</text><text fill="#000000" font-family="sans-serif" font-size="13" lengthAdjust="spacing" textLength="303.0942" x="655.06" y="167.0572">inner-edge chevron; clicking it sets PanelLayout</text><text fill="#000000" font-family="sans-serif" font-size="13" lengthAdjust="spacing" textLength="316.8813" x="655.06" y="182.3677">collapsed and the panel shrinks to an exact-width</text><text fill="#000000" font-family="sans-serif" font-size="13" lengthAdjust="spacing" textLength="319.3696" x="655.06" y="197.6783">sliver button that re-expands on click. Realized by</text><text fill="#000000" font-family="sans-serif" font-size="13" lengthAdjust="spacing" textLength="146.1992" x="655.06" y="212.9888">SEQ-PANEL-COLLAPSE.</text></g><g class="entity" data-qualified-name="GMN41" data-source-line="97" id="ent0042"><path d="M135.32,454.1783 L135.32,540.731 L526.3439,540.731 L526.3439,464.1783 L516.3439,454.1783 L135.32,454.1783" fill="#FEFFDD" style="stroke:#181818;stroke-width:0.5;"/><path d="M516.3439,454.1783 L516.3439,464.1783 L526.3439,464.1783 L516.3439,454.1783" fill="#FEFFDD" style="stroke:#181818;stroke-width:1;"/><text fill="#000000" font-family="sans-serif" font-size="13" lengthAdjust="spacing" textLength="340.6787" x="141.32" y="471.7466">Reads pre-rendered SVGs from .mdd/rendered/. If no</text><text fill="#000000" font-family="sans-serif" font-size="13" lengthAdjust="spacing" textLength="329.4561" x="141.32" y="487.0572">models are mapped/rendered the canvas shows "No</text><text fill="#000000" font-family="sans-serif" font-size="13" lengthAdjust="spacing" textLength="297.5718" x="141.32" y="502.3677">rendered output". Text rendering is realized by</text><text fill="#000000" font-family="sans-serif" font-size="13" lengthAdjust="spacing" textLength="370.0239" x="141.32" y="517.6783">SEQ-RENDER-DIAGRAM-PAGE, which consults a populated</text><text fill="#000000" font-family="sans-serif" font-size="13" lengthAdjust="spacing" textLength="367.1548" x="141.32" y="532.9888">font database (DOM-FONT-DATABASE) before rasterizing.</text></g><g class="entity" data-qualified-name="GMN44" data-source-line="105" id="ent0045"><path d="M661.39,392.5583 L661.39,540.3532 L1011.2113,540.3532 L1011.2113,402.5583 L1001.2113,392.5583 L661.39,392.5583" fill="#FEFFDD" style="stroke:#181818;stroke-width:0.5;"/><path d="M1001.2113,392.5583 L1001.2113,402.5583 L1011.2113,402.5583 L1001.2113,392.5583" fill="#FEFFDD" style="stroke:#181818;stroke-width:1;"/><text fill="#000000" font-family="sans-serif" font-size="13" lengthAdjust="spacing" textLength="266.2334" x="667.39" y="410.1266">Added cycle 0011 (USE-VIEWER-THEMED):</text><text fill="#000000" font-family="sans-serif" font-size="13" lengthAdjust="spacing" textLength="263.1294" x="667.39" y="425.4372">crates/mdd-viewer/src/theme.rs bundles</text><text fill="#000000" font-family="sans-serif" font-size="13" lengthAdjust="spacing" textLength="284.4258" x="667.39" y="440.7477">Inter (Regular + Medium) and JetBrains Mono</text><text fill="#000000" font-family="sans-serif" font-size="13" lengthAdjust="spacing" textLength="263.5928" x="667.39" y="456.0583">Regular via include_bytes!, registers them</text><text fill="#000000" font-family="sans-serif" font-size="13" lengthAdjust="spacing" textLength="281.3281" x="667.39" y="471.3688">through eframe's CreationContext once, and</text><text fill="#000000" font-family="sans-serif" font-size="13" lengthAdjust="spacing" textLength="283.3975" x="667.39" y="486.6794">reapplies catppuccin_egui MOCHA | LATTE +</text><text fill="#000000" font-family="sans-serif" font-size="13" lengthAdjust="spacing" textLength="291.0273" x="667.39" y="501.9899">spacing/rounding overrides each frame based</text><text fill="#000000" font-family="sans-serif" font-size="13" lengthAdjust="spacing" textLength="219.5781" x="667.39" y="517.3005">on dark_light::detect(). Realized by</text><text fill="#000000" font-family="sans-serif" font-size="13" lengthAdjust="spacing" textLength="328.8213" x="667.39" y="532.611">SEQ-APPLY-THEME, owned by CMP-VIEWER-THEME.</text></g><g class="entity" data-qualified-name="GMN47" data-source-line="117" id="ent0048"><path d="M138.82,301.8683 L138.82,419.0421 L522.8488,419.0421 L522.8488,311.8683 L512.8488,301.8683 L138.82,301.8683" fill="#FEFFDD" style="stroke:#181818;stroke-width:0.5;"/><path d="M512.8488,301.8683 L512.8488,311.8683 L522.8488,311.8683 L512.8488,301.8683" fill="#FEFFDD" style="stroke:#181818;stroke-width:1;"/><text fill="#000000" font-family="sans-serif" font-size="13" lengthAdjust="spacing" textLength="363.0288" x="144.82" y="319.4366">Added cycle 0010 (USE-VIEW-DEPLOY): MddViewer::new()</text><text fill="#000000" font-family="sans-serif" font-size="13" lengthAdjust="spacing" textLength="277.3164" x="144.82" y="334.7472">calls project.deploy_files() as a third source;</text><text fill="#000000" font-family="sans-serif" font-size="13" lengthAdjust="spacing" textLength="350.8286" x="144.82" y="350.0577">update() renders a "DEPLOY" header after the rail-mode</text><text fill="#000000" font-family="sans-serif" font-size="13" lengthAdjust="spacing" textLength="355.6528" x="144.82" y="365.3683">match (Directory AND By-cycle). lookup_file -&gt; load_file</text><text fill="#000000" font-family="sans-serif" font-size="13" lengthAdjust="spacing" textLength="348.8481" x="144.82" y="380.6788">paints .mdd/rendered/deploy/&lt;rel&gt;.svg. deploy_files()</text><text fill="#000000" font-family="sans-serif" font-size="13" lengthAdjust="spacing" textLength="360.8896" x="144.82" y="395.9894">reuses render_sources(RenderTree::Deploy) and is NEVER</text><text fill="#000000" font-family="sans-serif" font-size="13" lengthAdjust="spacing" textLength="312.5078" x="144.82" y="411.2999">in ModelRegistry. Realized by SEQ-VIEW-DEPLOY.</text></g><!--link Dev to View--><g class="link" data-entity-1="ent0002" data-entity-2="ent0004" data-link-type="dependency" data-source-line="45" id="lnk13"><path d="M60.56,939.7683 C76.73,911.5183 102.41,874.6183 135.32,853.4583 C160.48,837.2783 184.9876,828.406 214.1676,822.046" fill="none" id="Dev-to-View" style="stroke:#181818;stroke-width:1;"/><polygon fill="#181818" points="220.03,820.7683,210.3846,818.7767,215.1447,821.8331,212.0883,826.5931,220.03,820.7683" style="stroke:#181818;stroke-width:1;"/></g><!--link Dev to Browse--><g class="link" data-entity-1="ent0002" data-entity-2="ent0005" data-link-type="dependency" data-source-line="46" id="lnk14"><path d="M55.31,1016.7683 C65.42,1038.1883 81.35,1063.0083 104.32,1075.4583 C204.54,1129.7983 532.22,1151.2883 617.34,1075.4583 C660.61,1036.9183 607.81,858.8083 647.34,816.4583 C675.77,786.0083 715.4931,777.1924 754.7331,775.9224" fill="none" id="Dev-to-Browse" style="stroke:#181818;stroke-width:1;"/><polygon fill="#181818" points="760.73,775.7283,751.6053,772.0215,755.7326,775.89,751.8641,780.0173,760.73,775.7283" style="stroke:#181818;stroke-width:1;"/></g><!--link Dev to PanZoom--><g class="link" data-entity-1="ent0002" data-entity-2="ent0006" data-link-type="dependency" data-source-line="47" id="lnk15"><path d="M74.75,982.2283 C185.9,993.9183 539.17,1024.4783 617.34,950.4583 C664.39,905.9083 604.4,708.9783 647.34,660.4583 C666.87,638.3983 689.3157,627.697 718.0657,621.477" fill="none" id="Dev-to-PanZoom" style="stroke:#181818;stroke-width:1;"/><polygon fill="#181818" points="723.93,620.2083,714.2877,618.2018,719.0431,621.2656,715.9793,626.0209,723.93,620.2083" style="stroke:#181818;stroke-width:1;"/></g><!--link Dev to Fisheye--><g class="link" data-entity-1="ent0002" data-entity-2="ent0007" data-link-type="dependency" data-source-line="48" id="lnk16"><path d="M43.53,1017.0483 C48.29,1056.9683 62.43,1117.4583 104.32,1146.4583 C198.05,1211.3583 532.1,1222.1583 617.34,1146.4583 C701.68,1071.5683 571.09,977.5683 647.34,894.4583 C671.45,868.1783 702.2805,857.7546 736.9405,853.7046" fill="none" id="Dev-to-Fisheye" style="stroke:#181818;stroke-width:1;"/><polygon fill="#181818" points="742.9,853.0083,733.4966,850.0799,737.9338,853.5886,734.4251,858.0258,742.9,853.0083" style="stroke:#181818;stroke-width:1;"/></g><!--link Dev to Panels--><g class="link" data-entity-1="ent0002" data-entity-2="ent0008" data-link-type="dependency" data-source-line="49" id="lnk17"><path d="M74.56,994.6683 C83.98,998.5583 94.37,1002.2283 104.32,1004.4583 C215.67,1029.4383 532.49,1103.7683 617.34,1027.4583 C664.2,985.3183 605.39,792.4783 647.34,745.4583 C666.71,723.7483 688.755,713.2138 717.165,707.0838" fill="none" id="Dev-to-Panels" style="stroke:#181818;stroke-width:1;"/><polygon fill="#181818" points="723.03,705.8183,713.3888,703.8065,718.1425,706.8729,715.0761,711.6265,723.03,705.8183" style="stroke:#181818;stroke-width:1;"/></g><!--link Dev to Trace--><g class="link" data-entity-1="ent0002" data-entity-2="ent0009" data-link-type="dependency" data-source-line="50" id="lnk18"><path d="M74.56,963.5783 C84.06,959.6483 94.5,955.6283 104.32,952.4583 C147.99,938.3383 191.6235,927.3829 233.1035,918.1429" fill="none" id="Dev-to-Trace" style="stroke:#181818;stroke-width:1;"/><polygon fill="#181818" points="238.96,916.8383,229.3056,914.8908,234.0796,917.9254,231.045,922.6994,238.96,916.8383" style="stroke:#181818;stroke-width:1;"/></g><!--link Dev to ViewOcl--><g class="link" data-entity-1="ent0002" data-entity-2="ent0010" data-link-type="dependency" data-source-line="51" id="lnk19"><path d="M40.77,939.7583 C42.33,872.6283 55.71,734.6583 135.32,660.4583 C160.24,637.2283 188.8648,626.5135 221.9348,620.8935" fill="none" id="Dev-to-ViewOcl" style="stroke:#181818;stroke-width:1;"/><polygon fill="#181818" points="227.85,619.8883,218.3071,617.4527,222.9207,620.726,219.6474,625.3396,227.85,619.8883" style="stroke:#181818;stroke-width:1;"/></g><!--link Dev to ViewDeploy--><g class="link" data-entity-1="ent0002" data-entity-2="ent0011" data-link-type="dependency" data-source-line="52" id="lnk20"><path d="M47.85,939.9483 C58.18,892.2383 82.61,811.7083 135.32,766.4583 C157.63,747.3083 180.4583,736.6221 208.8283,728.7521" fill="none" id="Dev-to-ViewDeploy" style="stroke:#181818;stroke-width:1;"/><polygon fill="#181818" points="214.61,727.1483,204.8683,725.6996,209.7919,728.4848,207.0068,733.4085,214.61,727.1483" style="stroke:#181818;stroke-width:1;"/></g><!--link Dev to Themed--><g class="link" data-entity-1="ent0002" data-entity-2="ent0012" data-link-type="dependency" data-source-line="53" id="lnk21"><path d="M45.65,1016.8283 C53.68,1077.9783 72.69,1193.1083 104.32,1217.4583 C284.97,1356.5683 411.44,1315.3983 617.34,1217.4583 C718.35,1169.4083 785.2173,1054.5149 815.5173,992.7549" fill="none" id="Dev-to-Themed" style="stroke:#181818;stroke-width:1;"/><polygon fill="#181818" points="818.16,987.3683,810.6048,993.6864,815.9577,991.8572,817.787,997.2101,818.16,987.3683" style="stroke:#181818;stroke-width:1;"/></g><!--link View to Browse--><g class="link" data-entity-1="ent0004" data-entity-2="ent0005" data-link-type="dependency" data-source-line="55" id="lnk22"><path d="M398.24,832.6583 C457.27,848.8083 545.15,863.9483 617.34,839.4583 C633.25,834.0583 632,823.2983 647.34,816.4583 C682.97,800.5883 719.5425,792.7006 755.1225,787.9606" fill="none" id="View-to-Browse" style="stroke:#181818;stroke-width:1;stroke-dasharray:7,7;"/><polygon fill="#181818" points="761.07,787.1683,751.6206,784.3918,756.1138,787.8286,752.677,792.3217,761.07,787.1683" style="stroke:#181818;stroke-width:1;"/><text fill="#000000" font-family="sans-serif" font-size="13" lengthAdjust="spacing" textLength="59.3569" x="557.34" y="836.0266">&#171;include&#187;</text></g><!--link View to PanZoom--><g class="link" data-entity-1="ent0004" data-entity-2="ent0006" data-link-type="dependency" data-source-line="56" id="lnk23"><path d="M433.46,796.5083 C464.28,789.9183 497.57,780.3283 526.34,766.4583 C573.05,743.9383 579.56,728.9683 617.34,693.4583 C631.78,679.8783 630.23,670.4583 647.34,660.4583 C673.64,645.0883 699.1244,636.4713 728.6144,630.1213" fill="none" id="View-to-PanZoom" style="stroke:#181818;stroke-width:1;stroke-dasharray:7,7;"/><polygon fill="#181818" points="734.48,628.8583,724.8397,626.8424,729.592,629.9108,726.5237,634.6632,734.48,628.8583" style="stroke:#181818;stroke-width:1;"/><text fill="#000000" font-family="sans-serif" font-size="13" lengthAdjust="spacing" textLength="57.1924" x="558.34" y="690.0266">&#171;extend&#187;</text></g><!--link View to Fisheye--><g class="link" data-entity-1="ent0004" data-entity-2="ent0007" data-link-type="dependency" data-source-line="57" id="lnk24"><path d="M433.77,824.3083 C464.45,830.7483 497.58,840.0583 526.34,853.4583 C541.57,860.5483 540.43,871.0583 556.34,876.4583 C630.16,901.4983 715.2492,888.3437 772.7992,873.9537" fill="none" id="View-to-Fisheye" style="stroke:#181818;stroke-width:1;stroke-dasharray:7,7;"/><polygon fill="#181818" points="778.62,872.4983,768.9185,870.8009,773.7693,873.7112,770.8591,878.562,778.62,872.4983" style="stroke:#181818;stroke-width:1;"/><text fill="#000000" font-family="sans-serif" font-size="13" lengthAdjust="spacing" textLength="57.1924" x="558.34" y="873.0266">&#171;extend&#187;</text></g><!--link View to Panels--><g class="link" data-entity-1="ent0004" data-entity-2="ent0008" data-link-type="dependency" data-source-line="58" id="lnk25"><path d="M444.43,819.1183 C499.51,818.5983 565.04,810.5983 617.34,782.4583 C635.99,772.4283 629.35,756.6083 647.34,745.4583 C672.64,729.7883 697.1924,721.1817 726.1224,715.0017" fill="none" id="View-to-Panels" style="stroke:#181818;stroke-width:1;stroke-dasharray:7,7;"/><polygon fill="#181818" points="731.99,713.7483,722.353,711.7167,727.1003,714.7928,724.0242,719.5402,731.99,713.7483" style="stroke:#181818;stroke-width:1;"/><text fill="#000000" font-family="sans-serif" font-size="13" lengthAdjust="spacing" textLength="57.1924" x="558.34" y="779.0266">&#171;extend&#187;</text></g><!--link View to Themed--><g class="link" data-entity-1="ent0004" data-entity-2="ent0012" data-link-type="dependency" data-source-line="59" id="lnk26"><path d="M445.73,818.2983 C474.27,824.6883 503.3,835.4883 526.34,853.4583 C549.85,871.7883 532.04,896.1883 556.34,913.4583 C597.84,942.9383 645.8126,954.0004 695.2026,957.2004" fill="none" id="View-to-Themed" style="stroke:#181818;stroke-width:1;stroke-dasharray:7,7;"/><polygon fill="#181818" points="701.19,957.5883,692.4675,953.0148,696.2005,957.265,691.9502,960.998,701.19,957.5883" style="stroke:#181818;stroke-width:1;"/><text fill="#000000" font-family="sans-serif" font-size="13" lengthAdjust="spacing" textLength="59.3569" x="557.34" y="910.0266">&#171;include&#187;</text></g><!--link ViewOcl to PanZoom--><g class="link" data-entity-1="ent0010" data-entity-2="ent0006" data-link-type="dependency" data-source-line="60" id="lnk27"><path d="M434.32,617.4583 C518.28,617.4583 630.89,617.4583 717.32,617.4583" fill="none" id="ViewOcl-to-PanZoom" style="stroke:#181818;stroke-width:1;stroke-dasharray:7,7;"/><polygon fill="#181818" points="723.32,617.4583,714.32,613.4583,718.32,617.4583,714.32,621.4583,723.32,617.4583" style="stroke:#181818;stroke-width:1;"/><text fill="#000000" font-family="sans-serif" font-size="13" lengthAdjust="spacing" textLength="57.1924" x="558.34" y="614.0266">&#171;extend&#187;</text></g><!--link ViewDeploy to PanZoom--><g class="link" data-entity-1="ent0011" data-entity-2="ent0006" data-link-type="dependency" data-source-line="61" id="lnk28"><path d="M435.54,693.6783 C527.94,676.0683 655.7162,651.7024 742.5962,635.1324" fill="none" id="ViewDeploy-to-PanZoom" style="stroke:#181818;stroke-width:1;stroke-dasharray:7,7;"/><polygon fill="#181818" points="748.49,634.0083,738.9,631.7652,743.5785,634.945,740.3987,639.6236,748.49,634.0083" style="stroke:#181818;stroke-width:1;"/><text fill="#000000" font-family="sans-serif" font-size="13" lengthAdjust="spacing" textLength="57.1924" x="558.34" y="656.2766">&#171;extend&#187;</text></g><!--link ViewOcl to GMN29--><g class="link" data-entity-1="ent0010" data-entity-2="ent0030" data-link-type="association" data-source-line="64" id="lnk31"><path d="M229.52,612.2583 C181.8,603.7983 129.94,584.3283 104.82,540.9583 C78.2,494.9983 78.2,347.9183 104.82,301.9583 C119.93,275.8683 144.04,257.0583 171,243.4983" fill="none" id="ViewOcl-GMN29" style="stroke:#181818;stroke-width:1;stroke-dasharray:7,7;"/></g><!--link Fisheye to GMN32--><g class="link" data-entity-1="ent0007" data-entity-2="ent0033" data-link-type="association" data-source-line="74" id="lnk34"><path d="M746.84,862.0883 C690.99,860.7883 623.03,848.0983 586.84,799.9583 C532.5,727.6583 534.4,466.6483 586.84,392.9583 C602.26,371.2983 623.49,355.0083 647.12,342.7783" fill="none" id="Fisheye-GMN32" style="stroke:#181818;stroke-width:1;stroke-dasharray:7,7;"/></g><!--link PanZoom to GMN35--><g class="link" data-entity-1="ent0006" data-entity-2="ent0036" data-link-type="association" data-source-line="83" id="lnk37"><path d="M725.61,611.9083 C674.76,603.1283 618.78,583.3183 586.84,539.9583 C533.34,467.3083 532.63,206.0783 586.84,133.9583 C604.35,110.6683 629.14,95.1983 656.36,85.0583" fill="none" id="PanZoom-GMN35" style="stroke:#181818;stroke-width:1;stroke-dasharray:7,7;"/></g><!--link Panels to GMN38--><g class="link" data-entity-1="ent0008" data-entity-2="ent0039" data-link-type="association" data-source-line="89" id="lnk40"><path d="M722.92,706.1483 C672.74,700.7883 618.11,684.5483 586.84,642.9583 C535.17,574.2183 535.97,325.2983 586.84,255.9583 C602.69,234.3583 624.48,218.5483 648.64,206.9983" fill="none" id="Panels-GMN38" style="stroke:#181818;stroke-width:1;stroke-dasharray:7,7;"/></g><!--link View to GMN41--><g class="link" data-entity-1="ent0004" data-entity-2="ent0042" data-link-type="association" data-source-line="97" id="lnk43"><path d="M210.63,810.1783 C168.48,803.0483 126.32,786.0783 104.82,748.9583 C70.07,688.9583 70.07,652.9583 104.82,592.9583 C117.52,571.0283 136.53,554.1283 158.22,541.1083" fill="none" id="View-GMN41" style="stroke:#181818;stroke-width:1;stroke-dasharray:7,7;"/></g><!--link Themed to GMN44--><g class="link" data-entity-1="ent0012" data-entity-2="ent0045" data-link-type="association" data-source-line="105" id="lnk46"><path d="M701.14,941.6083 C657.69,931.8783 613.85,912.9383 586.84,876.9583 C511.06,776.0183 520.79,700.5183 586.84,592.9583 C604.69,563.8883 631.53,541.2483 661.08,523.6983" fill="none" id="Themed-GMN44" style="stroke:#181818;stroke-width:1;stroke-dasharray:7,7;"/></g><!--link ViewDeploy to GMN47--><g class="link" data-entity-1="ent0011" data-entity-2="ent0048" data-link-type="association" data-source-line="117" id="lnk49"><path d="M207.28,707.1383 C166.37,697.9783 125.93,679.4183 104.82,642.9583 C83.77,606.6083 83.77,490.2983 104.82,453.9583 C113.44,439.0783 124.99,426.5583 138.32,416.0383" fill="none" id="ViewDeploy-GMN47" style="stroke:#181818;stroke-width:1;stroke-dasharray:7,7;"/></g><?plantuml-src XLZRRkF84NtNLrJya95cHCa3146WkM0racR62zzYQRsPO05jYsn9p3JPH9EKhSa6o5C-8CY_v3sVib-IKzrDaRHbxvDDTNTrNKwTgkeN50G1tMsraa4YCigCtibKfA4SKRWFbQHYAmgAqyBeg0nbH5A4M_ekZlXWvmLzPtTrVvZFWjkpsO_1z6pywMPyCU_JwUdfwrvxnyUp-UVP5_ozclnmVCVYwjEdyrbmFRwSdH_VOM-vcfpRnJySMvpEhi-lll3wwzCZwxEROF5vTZ6RsXrEV1mzji0kH38FZnbtCfKxgNGc3UrYUPUJ82FJI1fuAD6HL1J5OcD4GZg52oKy68Wier2aEv7JNLniAT-AJE9a6b4XxmjISXElb1oSD5LgkQojqWDlDbHQwx3C8HftPy8KfDVGhr9e5mjyXJ8jf0dMyJqqNiVvLkvzh1EnIUDrZEEijrUOjnjfTGrraXcPi_nGGqXQKA7lX8diVXbjPDud9VRM5zxwF3HQATeelHAAlccTjAriXRrjvGD4DAmC8L9arav3yZw3Savd9TS5NLnDSG3sfmY6zJ5MJBpP-YMQN5qkPdzP-1tMAod2bC8hR0HjSKZ9Fk8QAX4dSRgfenSXV30jaWasjKsfy7a4FXQr9sT9fcJ2xez6b4ibmu9b2nheK24KoBbygm6fYoYw1RQa6OsmiYnZ1nj1SrsQK0wdFg25tcnmwDT__iUlm2GahFE54NU4Uot2-bGTQMp8zod-vF4toQ5DyyAujVdjfoE6kTmwbXe-wPhcKTTHY4t4KTEULDvrUwIqY3Xp5f_FRgQKMztxJ45_Wqy6aSoKtY_P8NctrwSLb8oaowwbGQv0rJsaM4poFOqV1xIeS01pbCzDlYkIKHmALkw5Kvd-zryQ9b4KkFluionY5HVxFgMwu0J2_y66pxoWYSCS0lPP2eYaxaeZ9jCOA2cqsLjjFkm3PpZhciDEQCKX7k2QeRjc-FBbyEKWAnFrXa8LXryT19GKQoXhavUzOwr7W5t0d82APrgIyjrcW1FwQvcvCxaK9aHSgN8AlQAcHz_uBmkud59a5PA8EO4ksCCt_bWVSQ5h5vBHo4Xcksvlk1CgZk0I-F-hb1d5crIRXpO-ni-1UnyZg47BJs3eDM8DpZ6uDhSHsraq3NCJ3W7XH0vCFY9Jfb0g54fPV2UIjMPRf5ckmLTvz_TXE92RCbw6nNqFQOo40Utb1PYopAXxPfq0-qib3Bns0SIK2M_XTDaYxCod7o7geqXYjH-Du9vCcoBMgL1z-buM7pY7aC0wrGT1pvpdVNacGWdSDfAapDZ3RLDGGzH-QJ-wLlsFPpVpXIlAQsGsodOapDUbOg8RZI9P86xmnw__-ZS45LbMXc6SBjdyqIYNHIsg3rgSV1xJBtG-NYncI3WifN3B7YM9jKDq1t4XawN_e7VK_TFWj4z_79owB3IwJ2EtWj-O81bLU_en1fyMjt5U2bYoGqA9j1ZGTOcA4cwDJXnvHPg1gBcSb33d0Gmd38Fw4vJFxWHB-UIcBCwaYbDVFoUbmUz5O3a3-HI48fUsLhFt-UZFW93zuMTkRwGHuE6TR9H9Za8VeenSezvjkKv2Lv1a12ytQYF7XClb4qKL3PM153wmOXryBUGYs7SCp2hQAfGVQffRARHMAs1dAzWn4CA7Q5KM1OYwNnUClFA1g-r7wqEV10JKz9Vgr94QUHxCkH0XPdbfri1YtapboYku587srlZGnHwS4Qr0VvIn0nY9D3dWhOgvQp3Mi97h6qv1qjMS7GYsugQpxqhSgkJI6v5BnLSFKygcyQ1Jn0Lph8-YWr0hUE0EXu9UfsDh0OZKTG2HvMjOs-a8vkr6Mt7298ElJeUtY9HBwqdDDYVqzmune2oUJZXNwyxFN_zJslMztVXoskhjUbOw7seA-M3W3b_PN3pjDlTpS-CrEXHED0i3Xpw-gmceo8WDWydTX0D_nSzD6H-vDxH0SMYjS6htVtJ_D_VxYYTfw7ki9bwhI_1lyynPccTmdhVeREgRNAGOYdASVdNd5lpzo9dSh3Jw4BRFDJM8alTlxSMhK3qIu13BrUE0MWYfWT-6U_-dzF9gqQhojVYf5VNe1Wzt3pAN1hYYndl_W60BLTpHGZc9ij21ImDtsS9AxFoZqm7oC5czTnYfFZmIgiyggjLt5RN6EWUa-dH-RWfcjpM_lPs70qwRZZLsCAZkfn6zVHkdeIeZ-VvzlUhLiSl0EfAXkUgLUsBLgVh4ejFZoBNG__cRdK5Fx-cWp82EDOWquNfGOsa2o5AxaHzXFfP-Zh7jkYLtnT15snOn0KuEWEqVQTjTEo-mt_Vdlr2RcmVLmZlRhpElOxCbZgv1mn3eLA7cePCQsf7hlXZ6wOwBXGRjzDvWSoNmtMyrzTZR1Pqj7MbnSyH_bwngbIuzrsvQYBFMzclf-6Q0XWQztpT7z_FPdmz-6dGWYUktVEJUcbPgzxO7srP1hQSJd3YGAvlD7KE1V2itswVARO9IpJPEh2oEn6ZarvQy1Xx3i9hrRBsmbxhHTbKgdbnnj9fg6uFkum4tr2RbYG9juvwoiXZWuFcneJSGHO0ob8E-RFbdcdvpeEcSpptqw6HyUJkULnvwngyrlIyUTGkGYluErbhqlwh-2QhsWNraP8Bk94BRQTS0PAypuwtgM9toRrXRxC0nrjtk6D2OyWJjAMrvEb5Y9NdKofHj7sp3u-vwtWHNF6faj1y3HgwvdQFesBtrB9VYL6DUnxIpCpfjp5CnkdfP-0A5uEYoiE5r1Iqwl0gu5u1yQxWqSPC0I-Kz6eF0JleuawkOvoDdZkjYZ0ogDmVyPEzivGPdEs9fhGWcL-Vdu-lvSx7qJG4aG29m5no0ZwJDNUlPdly6TBRcjf1SdOL70EE4oqozgPbMZePEBdKpg-0JeFS40pEpZVlP-evxoeV6tCmkfvZJ_3CORFiqGyUsZH4VPfbI5Tm5Pph3n0Fwm2ckVvX82c6ntvrUNI3XBnV1TBmOVnZFPpsCzMkG67YF9xJu6qyPJpl9LoQYSHH9F_RRqP2EZ9WZ3lQpqw8lqmm_rsfs7uvzRh1fzvysIcuRjr6-D2rNUzpqkpvLqwPhYvd7FM59snQ_GBM0Pxdtc3WkjoEeQwmvCDKuyM1SQuzdz8fHwGQnuM7kub73857ona1eMOSbytlLaT7m66Z7rzVdNvmRCMdTfOwQ9XVNBG__1fWFpTE3M9tIe-Uansz373exznv_3UAUIS2nCKZPjOTS0zt0ZDNwkUV4tN1Yvsu4MAmvpEvXB5O19mxdZoZWhcxzYiDzU_MAqsi_hA0_EhpCLBKnF_uoyzP8zTuzpRJLjt6sZpo--ZeRSi2FFnT6OjHt_dC0H3PUpcvdDvRnsfFn4mNPsLs7wFy0?></g></svg>