<svg xmlns="http://www.w3.org/2000/svg" xmlns:xlink="http://www.w3.org/1999/xlink" contentStyleType="text/css" data-diagram-type="DESCRIPTION" height="307px" preserveAspectRatio="none" style="width:1244px;height:307px;background:#FFFFFF;" version="1.1" viewBox="0 0 1244 307" width="1244px" zoomAndPan="magnify"><?plantuml 1.2026.3?><defs/><g><g class="title" data-source-line="9"><text fill="#000000" font-family="sans-serif" font-size="14" font-weight="700" lengthAdjust="spacing" textLength="337.0869" x="450.3771" y="23.5352">Agent session bootstrap &#8212; use cases (current)</text></g><!--cluster mdd toolchain--><g class="cluster" data-qualified-name="mdd toolchain" data-source-line="15" id="ent0003"><rect fill="none" height="123" rx="2.5" ry="2.5" style="stroke:#181818;stroke-width:1;" width="811.57" x="333.5" y="115.4583"/><text fill="#000000" font-family="sans-serif" font-size="14" font-weight="700" lengthAdjust="spacing" textLength="103.4756" x="687.5472" y="130.9934">mdd toolchain</text></g><!--entity Brief--><g class="entity" data-qualified-name="mdd toolchain.Brief" data-source-line="16" id="ent0004"><ellipse cx="440.663" cy="186.4535" fill="#F1F1F1" rx="91.163" ry="35.5052" style="stroke:#181818;stroke-width:0.5;"/><text fill="#000000" font-family="sans-serif" font-size="14" lengthAdjust="spacing" textLength="134.1621" x="373.5819" y="178.3492">Receive map TOC +</text><text fill="#000000" font-family="sans-serif" font-size="14" lengthAdjust="spacing" textLength="118.624" x="381.351" y="194.8375">freshness brief at</text><text fill="#000000" font-family="sans-serif" font-size="14" lengthAdjust="spacing" textLength="86.0439" x="397.641" y="211.3258">session start</text></g><!--entity First--><g class="entity" data-qualified-name="mdd toolchain.First" data-source-line="17" id="ent0005"><ellipse cx="1002.5285" cy="186.4573" fill="#F1F1F1" rx="126.5385" ry="36.449" style="stroke:#181818;stroke-width:0.5;"/><text fill="#000000" font-family="sans-serif" font-size="14" lengthAdjust="spacing" textLength="146.3984" x="929.3293" y="172.5006">Follow diagrams-first</text><text fill="#000000" font-family="sans-serif" font-size="14" lengthAdjust="spacing" textLength="92.6338" x="956.2116" y="188.9888">reading order</text><text fill="#000000" font-family="sans-serif" font-size="14" lengthAdjust="spacing" textLength="182.6904" x="911.1833" y="205.4771">(fresh: read / stale: remap)</text></g><!--entity Agent--><g class="entity" data-qualified-name="Agent" data-source-line="13" id="ent0002"><ellipse cx="86.0488" cy="225.7083" fill="#F1F1F1" rx="8" ry="8" style="stroke:#181818;stroke-width:0.5;"/><path d="M86.0488,233.7083 L86.0488,260.7083 M73.0488,241.7083 L99.0488,241.7083 M86.0488,260.7083 L73.0488,275.7083 M86.0488,260.7083 L99.0488,275.7083" fill="none" style="stroke:#181818;stroke-width:0.5;"/><text fill="#000000" font-family="sans-serif" font-size="14" lengthAdjust="spacing" textLength="160.0977" x="6" y="290.7434">Agent (Claude / Codex)</text></g><g class="entity" data-qualified-name="GMN9" data-source-line="25" id="ent0010"><path d="M227.1,43.4883 L227.1,99.4199 A0,0 0 0 0 227.1,99.4199 L436.66,99.4199 L440.66,150.5183 L444.66,99.4199 L654.223,99.4199 A0,0 0 0 0 654.223,99.4199 L654.223,53.4883 L644.223,43.4883 L227.1,43.4883 A0,0 0 0 0 227.1,43.4883" fill="#FEFFDD" style="stroke:#181818;stroke-width:0.5;"/><path d="M644.223,43.4883 L644.223,53.4883 L654.223,53.4883 L644.223,43.4883" fill="#FEFFDD" style="stroke:#181818;stroke-width:0.5;"/><text fill="#000000" font-family="sans-serif" font-size="13" lengthAdjust="spacing" textLength="406.123" x="233.1" y="61.0566">USE-SESSION-BRIEF: `mdd context` -&gt; Project::session_context</text><text fill="#000000" font-family="sans-serif" font-size="13" lengthAdjust="spacing" textLength="382.7129" x="233.1" y="76.3672">(map_toc + map_status). Wired by mdd init as a SessionStart</text><text fill="#000000" font-family="sans-serif" font-size="13" lengthAdjust="spacing" textLength="244.3594" x="233.1" y="91.6777">hook. Realized by SEQ-SESSION-BRIEF.</text></g><g class="entity" data-qualified-name="GMN12" data-source-line="31" id="ent0013"><path d="M775.22,43.4883 L775.22,99.4199 A0,0 0 0 0 775.22,99.4199 L998.53,99.4199 L1002.53,149.6183 L1006.53,99.4199 L1229.8411,99.4199 A0,0 0 0 0 1229.8411,99.4199 L1229.8411,53.4883 L1219.8411,43.4883 L775.22,43.4883 A0,0 0 0 0 775.22,43.4883" fill="#FEFFDD" style="stroke:#181818;stroke-width:0.5;"/><path d="M1219.8411,43.4883 L1219.8411,53.4883 L1229.8411,53.4883 L1219.8411,43.4883" fill="#FEFFDD" style="stroke:#181818;stroke-width:0.5;"/><text fill="#000000" font-family="sans-serif" font-size="13" lengthAdjust="spacing" textLength="433.6211" x="781.22" y="61.0566">USE-DIAGRAMS-FIRST: directive text in templates::claude_entrypoint</text><text fill="#000000" font-family="sans-serif" font-size="13" lengthAdjust="spacing" textLength="418.5073" x="781.22" y="76.3672">/ agents_entrypoint. Realized by SEQ-DIAGRAMS-FIRST; owned by</text><text fill="#000000" font-family="sans-serif" font-size="13" lengthAdjust="spacing" textLength="191.8325" x="781.22" y="91.6777">CMP-ENTRYPOINT-DIRECTIVE.</text></g><!--link Agent to Brief--><g class="link" data-entity-1="ent0002" data-entity-2="ent0004" data-link-type="dependency" data-source-line="20" id="lnk6"><path d="M166.18,239.9683 C223.54,228.7483 294.9717,214.7707 352.7617,203.4607" fill="none" id="Agent-to-Brief" style="stroke:#181818;stroke-width:1;"/><polygon fill="#181818" points="358.65,202.3083,349.0493,200.1113,353.7431,203.2686,350.5858,207.9624,358.65,202.3083" style="stroke:#181818;stroke-width:1;"/></g><!--link Agent to First--><g class="link" data-entity-1="ent0002" data-entity-2="ent0005" data-link-type="dependency" data-source-line="21" id="lnk7"><path d="M166.14,256.2883 C275.91,256.7583 480.57,255.0983 654.22,239.4583 C735.47,232.1383 820.7174,219.0189 889.2474,207.1889" fill="none" id="Agent-to-First" style="stroke:#181818;stroke-width:1;"/><polygon fill="#181818" points="895.16,206.1683,885.6107,203.7576,890.2329,207.0188,886.9716,211.641,895.16,206.1683" style="stroke:#181818;stroke-width:1;"/></g><!--link Brief to First--><g class="link" data-entity-1="ent0004" data-entity-2="ent0005" data-link-type="dependency" data-source-line="22" id="lnk8"><path d="M532.23,186.4583 C625.39,186.4583 765.21,186.4583 869.58,186.4583" fill="none" id="Brief-to-First" style="stroke:#181818;stroke-width:1;stroke-dasharray:7,7;"/><polygon fill="#181818" points="875.58,186.4583,866.58,182.4583,870.58,186.4583,866.58,190.4583,875.58,186.4583" style="stroke:#181818;stroke-width:1;"/><text fill="#000000" font-family="sans-serif" font-size="13" lengthAdjust="spacing" textLength="59.3569" x="685.22" y="183.0266">&#171;include&#187;</text></g><?plantuml-src ZLHTRnCv57sVNt6L5nArCm5fdmPK4OOKHWjDoQIxMgbIS3rEOfZOaUrfA0Y97y4lt5-ontQQJbggvMKqjk_NkUVS-uJIDANjIZSYNRCDROo-5eefBdBYDxmHv5RCaLJEwBhbeYR1-8fUojex9a_ePR3gNrJZj1fNLJavIrzDo_7fCJrz-koFmQ75wtBqPZfwNwMdvRIQTKna_J12UAY5vRyAtYlNcqQiXNAYpkdZkgw9Qno-k8_KnodbZQH2hzTCrJRFY_Ws8CwQnjAvqPy4TtbkXRLIg_dEznYTa81trSgcje0kEgsPJGg4PfkvqvpG9KCP4WrnCo1aeONsFb85Dszd7NEjfOKHTgMGYE1JI-uoykLA9Hrj9Hu9FymIew9XRIrGDZvLhAnop3XQQVtPHyvui1XQuPnKIvjzibfHVmzdQwGJyrjGtckGqLImHdu5SrStL8q_77RoEUcjYc_5-_FzM_6kfADmKvwLi_JjPF9drkioTSZa8LNtMUvovO7w_jIIBGrRstGXZNLa1Ai1ADMcHbyz5Q6H0exC2H0OWSyHmzniDEH8Gs9B76tthY-LRuJmtNMQYdUZYzTZi0JZqPlnsQpo_v04F06vqVopzSXlwHZaaInAJq95Q058RVIMh6uD5_D6AdWC2SnYCc0rz5BpuWYOZ5m4YF2bW2kZ6UvZQhfcHZ8KwOINe2Vv2w58qwfx-aM1BMHwyv2wmyxUumv9fl-SJygp6Uocus9M_ZMEf1MjCUXIQYM4rLg1AO16WCt47j9ECNIbjRFE04y_3dyOq6DFcXy9boLEEboF7l7wzyVFJlm-Zta7ITA8XGjWvNBbGBu1It1D4iOTgkZ5WFtT00nZTmOzdpWy9OdtO6g9v3tVBATrmrTCgXvzIyWdzJcfDnLSoEimVs5WZoxLtVnT6IaMnDobkYtT-l4AQLxvjswaqyZyeL0lrKwf59HwgVeXUXxbiXE6F_cj4EAUUhVaUv94Y2b44rFTdQD9kAKisvqffnSlfE8D6d9oaYHAEu5EEwVNf1VxSX-inllB4F4VstPmt--peyx6mixu6mpLtT682wgxbE3j5yp_x9Si4LYDllW742Bi2E5GsFcjGa3ax-m21Fd5DlZzyO7_emEqh_y_?></g></svg>