<svg xmlns="http://www.w3.org/2000/svg" xmlns:xlink="http://www.w3.org/1999/xlink" contentStyleType="text/css" data-diagram-type="CLASS" height="597px" preserveAspectRatio="none" style="width:417px;height:597px;background:#FFFFFF;" version="1.1" viewBox="0 0 417 597" width="417px" zoomAndPan="magnify"><?plantuml 1.2026.3?><defs/><g><g class="title" data-source-line="9"><text fill="#000000" font-family="sans-serif" font-size="14" font-weight="700" lengthAdjust="spacing" textLength="390.4824" x="10" y="23.5352">MDD traceability &#8212; domain &#183; cycle 0013 diff (current)</text></g><!--class SymbolSpan--><g class="entity" data-qualified-name="SymbolSpan" data-source-line="11" id="ent0002"><rect fill="#90EE90" height="139.0625" rx="2.5" ry="2.5" style="stroke:#181818;stroke-width:0.5;" width="137.6377" x="135.9192" y="443.6383"/><ellipse cx="161.4867" cy="463.9488" fill="#ADD1B2" rx="11" ry="11" style="stroke:#181818;stroke-width:1;"/><path d="M163.9599,470.0919 Q163.3788,470.3907 162.7397,470.5401 Q162.1005,470.6896 161.3949,470.6896 Q158.8881,470.6896 157.5683,469.0377 Q156.2484,467.3858 156.2484,464.2647 Q156.2484,461.1354 157.5683,459.4835 Q158.8881,457.8316 161.3949,457.8316 Q162.1005,457.8316 162.748,457.9811 Q163.3954,458.1305 163.9599,458.4293 L163.9599,461.152 Q163.329,460.5709 162.7355,460.3011 Q162.142,460.0313 161.5111,460.0313 Q160.1664,460.0313 159.4816,461.098 Q158.7968,462.1646 158.7968,464.2647 Q158.7968,466.3565 159.4816,467.4232 Q160.1664,468.4898 161.5111,468.4898 Q162.142,468.4898 162.7355,468.2201 Q163.329,467.9503 163.9599,467.3692 Z " fill="#000000"/><text fill="#000000" font-family="sans-serif" font-size="12" font-style="italic" lengthAdjust="spacing" textLength="48.5449" x="194.6398" y="460.2398">&#171;added&#187;</text><text fill="#000000" font-family="sans-serif" font-size="14" lengthAdjust="spacing" textLength="82.1543" x="177.8351" y="476.3063">SymbolSpan</text><line style="stroke:#181818;stroke-width:0.5;" x1="136.9192" x2="272.5569" y1="484.2594" y2="484.2594"/><g data-visibility-modifier="PUBLIC_FIELD"><ellipse cx="146.9192" cy="498.0035" fill="none" rx="3" ry="3" style="stroke:#038048;stroke-width:1;"/></g><text fill="#000000" font-family="sans-serif" font-size="14" lengthAdjust="spacing" textLength="83.7266" x="155.9192" y="501.7945">path : String</text><g data-visibility-modifier="PUBLIC_FIELD"><ellipse cx="146.9192" cy="514.4918" fill="none" rx="3" ry="3" style="stroke:#038048;stroke-width:1;"/></g><text fill="#000000" font-family="sans-serif" font-size="14" lengthAdjust="spacing" textLength="102.2383" x="155.9192" y="518.2828">symbol : String</text><g data-visibility-modifier="PUBLIC_FIELD"><ellipse cx="146.9192" cy="530.9801" fill="none" rx="3" ry="3" style="stroke:#038048;stroke-width:1;"/></g><text fill="#000000" font-family="sans-serif" font-size="14" lengthAdjust="spacing" textLength="111.6377" x="155.9192" y="534.7711">line_start : usize</text><g data-visibility-modifier="PUBLIC_FIELD"><ellipse cx="146.9192" cy="547.4684" fill="none" rx="3" ry="3" style="stroke:#038048;stroke-width:1;"/></g><text fill="#000000" font-family="sans-serif" font-size="14" lengthAdjust="spacing" textLength="105.8682" x="155.9192" y="551.2594">line_end : usize</text><g data-visibility-modifier="PUBLIC_FIELD"><ellipse cx="146.9192" cy="563.9566" fill="none" rx="3" ry="3" style="stroke:#038048;stroke-width:1;"/></g><text fill="#000000" font-family="sans-serif" font-size="14" lengthAdjust="spacing" textLength="82.9883" x="155.9192" y="567.7477">kind : String</text><line style="stroke:#181818;stroke-width:0.5;" x1="136.9192" x2="272.5569" y1="574.7008" y2="574.7008"/></g><!--class SourceLink--><g class="entity" data-qualified-name="SourceLink" data-source-line="19" id="ent0003"><rect fill="#90EE90" height="106.0859" rx="2.5" ry="2.5" style="stroke:#181818;stroke-width:0.5;" width="196.7549" x="106.3592" y="260.5483"/><ellipse cx="163.5316" cy="280.8588" fill="#ADD1B2" rx="11" ry="11" style="stroke:#181818;stroke-width:1;"/><path d="M166.0047,287.0019 Q165.4237,287.3007 164.7845,287.4501 Q164.1453,287.5996 163.4398,287.5996 Q160.9329,287.5996 159.6131,285.9477 Q158.2933,284.2958 158.2933,281.1747 Q158.2933,278.0454 159.6131,276.3935 Q160.9329,274.7416 163.4398,274.7416 Q164.1453,274.7416 164.7928,274.8911 Q165.4403,275.0405 166.0047,275.3393 L166.0047,278.062 Q165.3738,277.4809 164.7803,277.2111 Q164.1868,276.9413 163.556,276.9413 Q162.2113,276.9413 161.5264,278.008 Q160.8416,279.0746 160.8416,281.1747 Q160.8416,283.2665 161.5264,284.3332 Q162.2113,285.3998 163.556,285.3998 Q164.1868,285.3998 164.7803,285.1301 Q165.3738,284.8603 166.0047,284.2792 Z " fill="#000000"/><text fill="#000000" font-family="sans-serif" font-size="12" font-style="italic" lengthAdjust="spacing" textLength="48.5449" x="196.7142" y="277.1498">&#171;added&#187;</text><text fill="#000000" font-family="sans-serif" font-size="14" lengthAdjust="spacing" textLength="73.9102" x="184.0316" y="293.2163">SourceLink</text><line style="stroke:#181818;stroke-width:0.5;" x1="107.3592" x2="302.1141" y1="301.1694" y2="301.1694"/><g data-visibility-modifier="PUBLIC_FIELD"><ellipse cx="117.3592" cy="314.9135" fill="none" rx="3" ry="3" style="stroke:#038048;stroke-width:1;"/></g><text fill="#000000" font-family="sans-serif" font-size="14" lengthAdjust="spacing" textLength="115.4453" x="126.3592" y="318.7045">model_id : String</text><g data-visibility-modifier="PUBLIC_FIELD"><ellipse cx="117.3592" cy="331.4018" fill="none" rx="3" ry="3" style="stroke:#038048;stroke-width:1;"/></g><text fill="#000000" font-family="sans-serif" font-size="14" lengthAdjust="spacing" textLength="83.7266" x="126.3592" y="335.1928">path : String</text><g data-visibility-modifier="PUBLIC_FIELD"><ellipse cx="117.3592" cy="347.8901" fill="none" rx="3" ry="3" style="stroke:#038048;stroke-width:1;"/></g><text fill="#000000" font-family="sans-serif" font-size="14" lengthAdjust="spacing" textLength="170.7549" x="126.3592" y="351.6811">symbol : Option&lt;String&gt;</text><line style="stroke:#181818;stroke-width:0.5;" x1="107.3592" x2="302.1141" y1="358.6342" y2="358.6342"/></g><!--class TraceabilityReport--><g class="entity" data-qualified-name="TraceabilityReport" data-source-line="25" id="ent0004"><rect fill="#90EE90" height="139.0625" rx="2.5" ry="2.5" style="stroke:#181818;stroke-width:0.5;" width="316.124" x="46.6792" y="44.4883"/><ellipse cx="138.7183" cy="64.7988" fill="#ADD1B2" rx="11" ry="11" style="stroke:#181818;stroke-width:1;"/><path d="M141.1914,70.9419 Q140.6104,71.2407 139.9712,71.3901 Q139.332,71.5396 138.6265,71.5396 Q136.1196,71.5396 134.7998,69.8877 Q133.48,68.2358 133.48,65.1147 Q133.48,61.9854 134.7998,60.3335 Q136.1196,58.6816 138.6265,58.6816 Q139.332,58.6816 139.9795,58.8311 Q140.627,58.9805 141.1914,59.2793 L141.1914,62.002 Q140.5605,61.4209 139.967,61.1511 Q139.3735,60.8813 138.7427,60.8813 Q137.3979,60.8813 136.7131,61.948 Q136.0283,63.0146 136.0283,65.1147 Q136.0283,67.2065 136.7131,68.2732 Q137.3979,69.3398 138.7427,69.3398 Q139.3735,69.3398 139.967,69.0701 Q140.5605,68.8003 141.1914,68.2192 Z " fill="#000000"/><text fill="#000000" font-family="sans-serif" font-size="12" font-style="italic" lengthAdjust="spacing" textLength="48.5449" x="196.7188" y="61.0898">&#171;added&#187;</text><text fill="#000000" font-family="sans-serif" font-size="14" lengthAdjust="spacing" textLength="123.5459" x="159.2183" y="77.1563">TraceabilityReport</text><line style="stroke:#181818;stroke-width:0.5;" x1="47.6792" x2="361.8032" y1="85.1094" y2="85.1094"/><g data-visibility-modifier="PUBLIC_FIELD"><ellipse cx="57.6792" cy="98.8535" fill="none" rx="3" ry="3" style="stroke:#038048;stroke-width:1;"/></g><text fill="#000000" font-family="sans-serif" font-size="14" lengthAdjust="spacing" textLength="101.8555" x="66.6792" y="102.6445">matched : bool</text><g data-visibility-modifier="PUBLIC_FIELD"><ellipse cx="57.6792" cy="115.3418" fill="none" rx="3" ry="3" style="stroke:#038048;stroke-width:1;"/></g><text fill="#000000" font-family="sans-serif" font-size="14" lengthAdjust="spacing" textLength="84.7383" x="66.6792" y="119.1328">base : String</text><g data-visibility-modifier="PUBLIC_FIELD"><ellipse cx="57.6792" cy="131.8301" fill="none" rx="3" ry="3" style="stroke:#038048;stroke-width:1;"/></g><text fill="#000000" font-family="sans-serif" font-size="14" lengthAdjust="spacing" textLength="248.1924" x="66.6792" y="135.6211">forward_errors : Vec&lt;ForwardError&gt;</text><g data-visibility-modifier="PUBLIC_FIELD"><ellipse cx="57.6792" cy="148.3184" fill="none" rx="3" ry="3" style="stroke:#038048;stroke-width:1;"/></g><text fill="#000000" font-family="sans-serif" font-size="14" lengthAdjust="spacing" textLength="216.501" x="66.6792" y="152.1094">reverse_bucket_a : Vec&lt;String&gt;</text><g data-visibility-modifier="PUBLIC_FIELD"><ellipse cx="57.6792" cy="164.8066" fill="none" rx="3" ry="3" style="stroke:#038048;stroke-width:1;"/></g><text fill="#000000" font-family="sans-serif" font-size="14" lengthAdjust="spacing" textLength="290.124" x="66.6792" y="168.5977">reverse_bucket_b : Vec&lt;ReverseViolation&gt;</text><line style="stroke:#181818;stroke-width:0.5;" x1="47.6792" x2="361.8032" y1="175.5508" y2="175.5508"/></g><!--link SourceLink to SymbolSpan--><g class="link" data-entity-1="ent0003" data-entity-2="ent0002" data-link-type="dependency" data-source-line="33" id="lnk5"><path codeLine="33" d="M204.7392,367.0183 C204.7392,390.4583 204.7392,412.3983 204.7392,437.4683" fill="none" id="SourceLink-to-SymbolSpan" style="stroke:#181818;stroke-width:1;stroke-dasharray:7,7;"/><polygon fill="#181818" points="204.7392,443.4683,208.7392,434.4683,204.7392,438.4683,200.7392,434.4683,204.7392,443.4683" style="stroke:#181818;stroke-width:1;"/><polygon fill="#000000" points="209.7392,410.2936,212.6781,401.2485,206.8003,401.2485,209.7392,410.2936" style="stroke:#000000;stroke-width:1;"/><text fill="#000000" font-family="sans-serif" font-size="13" lengthAdjust="spacing" textLength="68.4912" x="218.7392" y="410.2066">resolves to</text></g><!--reverse link TraceabilityReport to SourceLink--><g class="link" data-entity-1="ent0004" data-entity-2="ent0003" data-link-type="aggregation" data-source-line="34" id="lnk6"><path codeLine="34" d="M204.7392,195.8383 C204.7392,220.8983 204.7392,236.7983 204.7392,260.1983" fill="none" id="TraceabilityReport-backto-SourceLink" style="stroke:#181818;stroke-width:1;"/><polygon fill="none" points="204.7392,183.8383,200.7392,189.8383,204.7392,195.8383,208.7392,189.8383,204.7392,183.8383" style="stroke:#181818;stroke-width:1;"/><polygon fill="#000000" points="209.7392,227.2036,212.6781,218.1585,206.8003,218.1585,209.7392,227.2036" style="stroke:#000000;stroke-width:1;"/><text fill="#000000" font-family="sans-serif" font-size="13" lengthAdjust="spacing" textLength="45.4556" x="218.7392" y="227.1166">verifies</text></g><?plantuml-src ZL71Qjj04BthAmPwg4sHSIWKOeneRCjGQaT1SWCzcTNkA5wysX6xAmUt1FeH_PVU-odzagubDvQ9QNkSD-_DUpDZjr9NpB0Ik6BMmjS0OCBuzi5GhSMK59dnc0c18ehWrVKmZg-7boW6IzgrfFbyycvw5Jm5h-6z5BrPiWoppyj9iWYpkvlRFW2S9hgDjC3tN27qXiEhj_sEQ9NUJECmZU-ITDN_Nr6MV4gzQl7XzkE_dQPDUQX0oA8OWSP7uAGvLWuAwNk_ldq7fXIWmXAriz2C6mHEEjzTpcRW3EF8SgcaspTqGIMJ6dx-EBezZuSUhutnK_f1q1uxsvSvgQnYkXFqy84tK36tWH5apaZzq22s8PzZIcfSMyUCytXjvHSymQZ56UWVBKxgf-SCL1kE2wctBpAK952jfJZt_4kof7AIzBXjHIUFLUT6ALRauxxmOevly62L4wa6ofd5SwE2p2CpOet6aB6-TuzyF6_1-8153StW3et5TLxpBRerEnB_nBf0oO-Kj8Nl9IbsMANPeNEXmI3gFctavrXIExJW2ABWmfuKXjqJZy0Ro49wHVGR?></g></svg>