<svg xmlns="http://www.w3.org/2000/svg" xmlns:xlink="http://www.w3.org/1999/xlink" contentStyleType="text/css" data-diagram-type="CLASS" height="988px" preserveAspectRatio="none" style="width:1414px;height:988px;background:#FFFFFF;" version="1.1" viewBox="0 0 1414 988" width="1414px" zoomAndPan="magnify"><?plantuml 1.2026.3?><defs/><g><g class="title" data-source-line="15"><text fill="#000000" font-family="sans-serif" font-size="14" font-weight="700" lengthAdjust="spacing" textLength="241.165" x="583.0664" y="23.5352">Cycle tracking domain (objective)</text></g><!--class EntryPoint--><g class="entity" data-qualified-name="EntryPoint" data-source-line="17" id="ent0002"><rect fill="#F1F1F1" height="80.9766" rx="2.5" ry="2.5" style="stroke:#181818;stroke-width:0.5;" width="100.8652" x="1154.07" y="597.0083"/><ellipse cx="1169.07" cy="613.0083" fill="#EB937F" rx="11" ry="11" style="stroke:#181818;stroke-width:1;"/><path d="M1172.6843,619.5083 L1164.9645,619.5083 L1164.9645,607.1152 L1172.6843,607.1152 L1172.6843,609.2734 L1167.4133,609.2734 L1167.4133,611.9463 L1172.1862,611.9463 L1172.1862,614.1045 L1167.4133,614.1045 L1167.4133,617.3501 L1172.6843,617.3501 Z " fill="#000000"/><text fill="#000000" font-family="sans-serif" font-size="14" lengthAdjust="spacing" textLength="68.8652" x="1183.07" y="618.2993">EntryPoint</text><line style="stroke:#181818;stroke-width:0.5;" x1="1155.07" x2="1253.9352" y1="629.0083" y2="629.0083"/><text fill="#000000" font-family="sans-serif" font-size="14" lengthAdjust="spacing" textLength="60.9014" x="1160.07" y="646.5434">Generate</text><text fill="#000000" font-family="sans-serif" font-size="14" lengthAdjust="spacing" textLength="28.6016" x="1160.07" y="663.0317">Map</text><line style="stroke:#181818;stroke-width:0.5;" x1="1155.07" x2="1253.9352" y1="669.9848" y2="669.9848"/></g><!--class CycleStatus--><g class="entity" data-qualified-name="CycleStatus" data-source-line="22" id="ent0003"><rect fill="#F1F1F1" height="97.4648" rx="2.5" ry="2.5" style="stroke:#181818;stroke-width:0.5;" width="109.5879" x="1289.71" y="588.7683"/><ellipse cx="1304.71" cy="604.7683" fill="#EB937F" rx="11" ry="11" style="stroke:#181818;stroke-width:1;"/><path d="M1308.3243,611.2683 L1300.6045,611.2683 L1300.6045,598.8752 L1308.3243,598.8752 L1308.3243,601.0334 L1303.0533,601.0334 L1303.0533,603.7063 L1307.8262,603.7063 L1307.8262,605.8645 L1303.0533,605.8645 L1303.0533,609.1101 L1308.3243,609.1101 Z " fill="#000000"/><text fill="#000000" font-family="sans-serif" font-size="14" lengthAdjust="spacing" textLength="77.5879" x="1318.71" y="610.0593">CycleStatus</text><line style="stroke:#181818;stroke-width:0.5;" x1="1290.71" x2="1398.2979" y1="620.7683" y2="620.7683"/><text fill="#000000" font-family="sans-serif" font-size="14" lengthAdjust="spacing" textLength="36.1758" x="1295.71" y="638.3034">Open</text><text fill="#000000" font-family="sans-serif" font-size="14" lengthAdjust="spacing" textLength="46.0811" x="1295.71" y="654.7917">Closed</text><text fill="#000000" font-family="sans-serif" font-size="14" lengthAdjust="spacing" textLength="54.6465" x="1295.71" y="671.28">Aborted</text><line style="stroke:#181818;stroke-width:0.5;" x1="1290.71" x2="1398.2979" y1="678.2331" y2="678.2331"/></g><!--class DiffSubMode--><g class="entity" data-qualified-name="DiffSubMode" data-source-line="28" id="ent0004"><rect fill="#F1F1F1" height="80.9766" rx="2.5" ry="2.5" style="stroke:#181818;stroke-width:0.5;" width="119.1377" x="363.94" y="597.0083"/><ellipse cx="378.94" cy="613.0083" fill="#EB937F" rx="11" ry="11" style="stroke:#181818;stroke-width:1;"/><path d="M382.5543,619.5083 L374.8345,619.5083 L374.8345,607.1152 L382.5543,607.1152 L382.5543,609.2734 L377.2833,609.2734 L377.2833,611.9463 L382.0562,611.9463 L382.0562,614.1045 L377.2833,614.1045 L377.2833,617.3501 L382.5543,617.3501 Z " fill="#000000"/><text fill="#000000" font-family="sans-serif" font-size="14" lengthAdjust="spacing" textLength="87.1377" x="392.94" y="618.2993">DiffSubMode</text><line style="stroke:#181818;stroke-width:0.5;" x1="364.94" x2="482.0777" y1="629.0083" y2="629.0083"/><text fill="#000000" font-family="sans-serif" font-size="14" lengthAdjust="spacing" textLength="57.5244" x="369.94" y="646.5434">Diagram</text><text fill="#000000" font-family="sans-serif" font-size="14" lengthAdjust="spacing" textLength="23.8848" x="369.94" y="663.0317">List</text><line style="stroke:#181818;stroke-width:0.5;" x1="364.94" x2="482.0777" y1="669.9848" y2="669.9848"/></g><!--class Cycle--><g class="entity" data-qualified-name="Cycle" data-source-line="33" id="ent0005"><rect fill="#F1F1F1" height="212.8828" rx="2.5" ry="2.5" style="stroke:#181818;stroke-width:0.5;" width="210.9326" x="1004.04" y="235.4383"/><ellipse cx="1087.247" cy="251.4383" fill="#ADD1B2" rx="11" ry="11" style="stroke:#181818;stroke-width:1;"/><path d="M1089.7202,257.5813 Q1089.1391,257.8802 1088.5,258.0296 Q1087.8608,258.179 1087.1552,258.179 Q1084.6484,258.179 1083.3286,256.5271 Q1082.0088,254.8753 1082.0088,251.7542 Q1082.0088,248.6248 1083.3286,246.9729 Q1084.6484,245.3211 1087.1552,245.3211 Q1087.8608,245.3211 1088.5083,245.4705 Q1089.1557,245.6199 1089.7202,245.9187 L1089.7202,248.6414 Q1089.0893,248.0604 1088.4958,247.7906 Q1087.9023,247.5208 1087.2714,247.5208 Q1085.9267,247.5208 1085.2419,248.5875 Q1084.5571,249.6541 1084.5571,251.7542 Q1084.5571,253.846 1085.2419,254.9126 Q1085.9267,255.9793 1087.2714,255.9793 Q1087.9023,255.9793 1088.4958,255.7095 Q1089.0893,255.4397 1089.7202,254.8587 Z " fill="#000000"/><text fill="#000000" font-family="sans-serif" font-size="14" lengthAdjust="spacing" textLength="36.0186" x="1107.747" y="256.7293">Cycle</text><line style="stroke:#181818;stroke-width:0.5;" x1="1005.04" x2="1213.9726" y1="267.4383" y2="267.4383"/><g data-visibility-modifier="PUBLIC_FIELD"><ellipse cx="1015.04" cy="281.1824" fill="none" rx="3" ry="3" style="stroke:#038048;stroke-width:1;"/></g><text fill="#000000" font-family="sans-serif" font-size="14" lengthAdjust="spacing" textLength="84.0479" x="1024.04" y="284.9734">number : int</text><g data-visibility-modifier="PUBLIC_FIELD"><ellipse cx="1015.04" cy="297.6707" fill="none" rx="3" ry="3" style="stroke:#038048;stroke-width:1;"/></g><text fill="#000000" font-family="sans-serif" font-size="14" lengthAdjust="spacing" textLength="81.8604" x="1024.04" y="301.4617">slug : String</text><g data-visibility-modifier="PUBLIC_FIELD"><ellipse cx="1015.04" cy="314.159" fill="none" rx="3" ry="3" style="stroke:#038048;stroke-width:1;"/></g><text fill="#000000" font-family="sans-serif" font-size="14" lengthAdjust="spacing" textLength="116.9219" x="1024.04" y="317.95">entry : EntryPoint</text><g data-visibility-modifier="PUBLIC_FIELD"><ellipse cx="1015.04" cy="330.6473" fill="none" rx="3" ry="3" style="stroke:#038048;stroke-width:1;"/></g><text fill="#000000" font-family="sans-serif" font-size="14" lengthAdjust="spacing" textLength="129.3359" x="1024.04" y="334.4383">description : String</text><g data-visibility-modifier="PUBLIC_FIELD"><ellipse cx="1015.04" cy="347.1355" fill="none" rx="3" ry="3" style="stroke:#038048;stroke-width:1;"/></g><text fill="#000000" font-family="sans-serif" font-size="14" lengthAdjust="spacing" textLength="132.043" x="1024.04" y="350.9266">status : CycleStatus</text><g data-visibility-modifier="PUBLIC_FIELD"><ellipse cx="1015.04" cy="363.6238" fill="none" rx="3" ry="3" style="stroke:#038048;stroke-width:1;"/></g><text fill="#000000" font-family="sans-serif" font-size="14" lengthAdjust="spacing" textLength="154.4512" x="1024.04" y="367.4148">openedAt : Timestamp</text><g data-visibility-modifier="PUBLIC_FIELD"><ellipse cx="1015.04" cy="380.1121" fill="none" rx="3" ry="3" style="stroke:#038048;stroke-width:1;"/></g><text fill="#000000" font-family="sans-serif" font-size="14" lengthAdjust="spacing" textLength="153.4121" x="1024.04" y="383.9031">closedAt : Timestamp?</text><g data-visibility-modifier="PUBLIC_FIELD"><ellipse cx="1015.04" cy="396.6004" fill="none" rx="3" ry="3" style="stroke:#038048;stroke-width:1;"/></g><text fill="#000000" font-family="sans-serif" font-size="14" lengthAdjust="spacing" textLength="184.9326" x="1024.04" y="400.3914">touchedFiles : List&lt;String&gt;</text><g data-visibility-modifier="PUBLIC_FIELD"><ellipse cx="1015.04" cy="413.0887" fill="none" rx="3" ry="3" style="stroke:#038048;stroke-width:1;"/></g><text fill="#000000" font-family="sans-serif" font-size="14" lengthAdjust="spacing" textLength="106.832" x="1024.04" y="416.8797">beforeDir : Path</text><g data-visibility-modifier="PUBLIC_FIELD"><ellipse cx="1015.04" cy="429.577" fill="none" rx="3" ry="3" style="stroke:#038048;stroke-width:1;"/></g><text fill="#000000" font-family="sans-serif" font-size="14" lengthAdjust="spacing" textLength="100.4951" x="1024.04" y="433.368">afterDir : Path?</text><line style="stroke:#181818;stroke-width:0.5;" x1="1005.04" x2="1213.9726" y1="440.3211" y2="440.3211"/></g><!--class CycleDiff--><g class="entity" data-qualified-name="CycleDiff" data-source-line="46" id="ent0006"><rect fill="#F1F1F1" height="146.9297" rx="2.5" ry="2.5" style="stroke:#181818;stroke-width:0.5;" width="235.6035" x="517.71" y="564.0383"/><ellipse cx="600.8384" cy="580.0383" fill="#ADD1B2" rx="11" ry="11" style="stroke:#181818;stroke-width:1;"/><path d="M603.3116,586.1813 Q602.7305,586.4802 602.0913,586.6296 Q601.4522,586.779 600.7466,586.779 Q598.2398,586.779 596.92,585.1271 Q595.6001,583.4753 595.6001,580.3542 Q595.6001,577.2248 596.92,575.5729 Q598.2398,573.9211 600.7466,573.9211 Q601.4522,573.9211 602.0996,574.0705 Q602.7471,574.2199 603.3116,574.5188 L603.3116,577.2414 Q602.6807,576.6604 602.0872,576.3906 Q601.4937,576.1208 600.8628,576.1208 Q599.5181,576.1208 598.8333,577.1875 Q598.1485,578.2541 598.1485,580.3542 Q598.1485,582.446 598.8333,583.5126 Q599.5181,584.5793 600.8628,584.5793 Q601.4937,584.5793 602.0872,584.3095 Q602.6807,584.0397 603.3116,583.4587 Z " fill="#000000"/><text fill="#000000" font-family="sans-serif" font-size="14" lengthAdjust="spacing" textLength="60.8467" x="621.3384" y="585.3293">CycleDiff</text><line style="stroke:#181818;stroke-width:0.5;" x1="518.71" x2="752.3135" y1="596.0383" y2="596.0383"/><g data-visibility-modifier="PUBLIC_FIELD"><ellipse cx="528.71" cy="609.7824" fill="none" rx="3" ry="3" style="stroke:#038048;stroke-width:1;"/></g><text fill="#000000" font-family="sans-serif" font-size="14" lengthAdjust="spacing" textLength="109.1084" x="537.71" y="613.5734">diagram : String</text><g data-visibility-modifier="PUBLIC_FIELD"><ellipse cx="528.71" cy="626.2707" fill="none" rx="3" ry="3" style="stroke:#038048;stroke-width:1;"/></g><text fill="#000000" font-family="sans-serif" font-size="14" lengthAdjust="spacing" textLength="209.6035" x="537.71" y="630.0617">unchanged : Set&lt;ElementKey&gt;</text><g data-visibility-modifier="PUBLIC_FIELD"><ellipse cx="528.71" cy="642.759" fill="none" rx="3" ry="3" style="stroke:#038048;stroke-width:1;"/></g><text fill="#000000" font-family="sans-serif" font-size="14" lengthAdjust="spacing" textLength="176.5723" x="537.71" y="646.55">added : Set&lt;ElementKey&gt;</text><g data-visibility-modifier="PUBLIC_FIELD"><ellipse cx="528.71" cy="659.2473" fill="none" rx="3" ry="3" style="stroke:#038048;stroke-width:1;"/></g><text fill="#000000" font-family="sans-serif" font-size="14" lengthAdjust="spacing" textLength="193.6621" x="537.71" y="663.0383">removed : Set&lt;ElementKey&gt;</text><g data-visibility-modifier="PUBLIC_FIELD"><ellipse cx="528.71" cy="675.7355" fill="none" rx="3" ry="3" style="stroke:#038048;stroke-width:1;"/></g><text fill="#000000" font-family="sans-serif" font-size="14" lengthAdjust="spacing" textLength="144.751" x="537.71" y="679.5266">annotatedPuml : Path</text><g data-visibility-modifier="PUBLIC_FIELD"><ellipse cx="528.71" cy="692.2238" fill="none" rx="3" ry="3" style="stroke:#038048;stroke-width:1;"/></g><text fill="#000000" font-family="sans-serif" font-size="14" lengthAdjust="spacing" textLength="89.3525" x="537.71" y="696.0148">diffSvg : Path</text><line style="stroke:#181818;stroke-width:0.5;" x1="518.71" x2="752.3135" y1="702.968" y2="702.968"/></g><!--class ElementDescription--><g class="entity" data-qualified-name="ElementDescription" data-source-line="55" id="ent0007"><rect fill="#F1F1F1" height="80.9766" rx="2.5" ry="2.5" style="stroke:#181818;stroke-width:0.5;" width="163.9814" x="782.52" y="60.9783"/><ellipse cx="797.52" cy="76.9783" fill="#ADD1B2" rx="11" ry="11" style="stroke:#181818;stroke-width:1;"/><path d="M799.9931,83.1213 Q799.4121,83.4202 798.7729,83.5696 Q798.1338,83.719 797.4282,83.719 Q794.9214,83.719 793.6015,82.0671 Q792.2817,80.4153 792.2817,77.2942 Q792.2817,74.1648 793.6015,72.5129 Q794.9214,70.8611 797.4282,70.8611 Q798.1338,70.8611 798.7812,71.0105 Q799.4287,71.1599 799.9931,71.4588 L799.9931,74.1814 Q799.3623,73.6004 798.7688,73.3306 Q798.1753,73.0608 797.5444,73.0608 Q796.1997,73.0608 795.5149,74.1275 Q794.8301,75.1941 794.8301,77.2942 Q794.8301,79.386 795.5149,80.4526 Q796.1997,81.5193 797.5444,81.5193 Q798.1753,81.5193 798.7688,81.2495 Q799.3623,80.9797 799.9931,80.3987 Z " fill="#000000"/><text fill="#000000" font-family="sans-serif" font-size="14" lengthAdjust="spacing" textLength="131.9814" x="811.52" y="82.2693">ElementDescription</text><line style="stroke:#181818;stroke-width:0.5;" x1="783.52" x2="945.5014" y1="92.9783" y2="92.9783"/><g data-visibility-modifier="PUBLIC_FIELD"><ellipse cx="793.52" cy="106.7224" fill="none" rx="3" ry="3" style="stroke:#038048;stroke-width:1;"/></g><text fill="#000000" font-family="sans-serif" font-size="14" lengthAdjust="spacing" textLength="106.5654" x="802.52" y="110.5134">targetId : String</text><g data-visibility-modifier="PUBLIC_FIELD"><ellipse cx="793.52" cy="123.2107" fill="none" rx="3" ry="3" style="stroke:#038048;stroke-width:1;"/></g><text fill="#000000" font-family="sans-serif" font-size="14" lengthAdjust="spacing" textLength="80.1172" x="802.52" y="127.0017">text : String</text><line style="stroke:#181818;stroke-width:0.5;" x1="783.52" x2="945.5014" y1="133.9548" y2="133.9548"/></g><!--class CycleRegistry--><g class="entity" data-qualified-name="CycleRegistry" data-source-line="60" id="ent0008"><rect fill="#F1F1F1" height="113.9531" rx="2.5" ry="2.5" style="stroke:#181818;stroke-width:0.5;" width="176.6094" x="1021.2" y="44.4883"/><ellipse cx="1060.3857" cy="60.4883" fill="#ADD1B2" rx="11" ry="11" style="stroke:#181818;stroke-width:1;"/><path d="M1062.8589,66.6313 Q1062.2778,66.9302 1061.6387,67.0796 Q1060.9995,67.229 1060.2939,67.229 Q1057.7871,67.229 1056.4673,65.5771 Q1055.1475,63.9253 1055.1475,60.8042 Q1055.1475,57.6748 1056.4673,56.0229 Q1057.7871,54.3711 1060.2939,54.3711 Q1060.9995,54.3711 1061.647,54.5205 Q1062.2944,54.6699 1062.8589,54.9688 L1062.8589,57.6914 Q1062.228,57.1104 1061.6345,56.8406 Q1061.041,56.5708 1060.4102,56.5708 Q1059.0654,56.5708 1058.3806,57.6375 Q1057.6958,58.7041 1057.6958,60.8042 Q1057.6958,62.896 1058.3806,63.9626 Q1059.0654,65.0293 1060.4102,65.0293 Q1061.041,65.0293 1061.6345,64.7595 Q1062.228,64.4897 1062.8589,63.9087 Z " fill="#000000"/><text fill="#000000" font-family="sans-serif" font-size="14" lengthAdjust="spacing" textLength="90.8633" x="1079.7604" y="65.7793">CycleRegistry</text><line style="stroke:#181818;stroke-width:0.5;" x1="1022.2" x2="1196.8094" y1="76.4883" y2="76.4883"/><g data-visibility-modifier="PUBLIC_FIELD"><ellipse cx="1032.2" cy="90.2324" fill="none" rx="3" ry="3" style="stroke:#038048;stroke-width:1;"/></g><text fill="#000000" font-family="sans-serif" font-size="14" lengthAdjust="spacing" textLength="103.585" x="1041.2" y="94.0234">cyclesDir : Path</text><line style="stroke:#181818;stroke-width:0.5;" x1="1022.2" x2="1196.8094" y1="100.9766" y2="100.9766"/><g data-visibility-modifier="PUBLIC_METHOD"><ellipse cx="1032.2" cy="114.7207" fill="#84BE84" rx="3" ry="3" style="stroke:#038048;stroke-width:1;"/></g><text fill="#000000" font-family="sans-serif" font-size="14" lengthAdjust="spacing" textLength="135.2832" x="1041.2" y="118.5117">scan() : List&lt;Cycle&gt;</text><g data-visibility-modifier="PUBLIC_METHOD"><ellipse cx="1032.2" cy="131.209" fill="#84BE84" rx="3" ry="3" style="stroke:#038048;stroke-width:1;"/></g><text fill="#000000" font-family="sans-serif" font-size="14" lengthAdjust="spacing" textLength="150.6094" x="1041.2" y="135">cycle(number) : Cycle?</text><g data-visibility-modifier="PUBLIC_METHOD"><ellipse cx="1032.2" cy="147.6973" fill="#84BE84" rx="3" ry="3" style="stroke:#038048;stroke-width:1;"/></g><text fill="#000000" font-family="sans-serif" font-size="14" lengthAdjust="spacing" textLength="101.5068" x="1041.2" y="151.4883">latest() : Cycle?</text></g><!--class DiffView--><g class="entity" data-qualified-name="DiffView" data-source-line="67" id="ent0009"><rect fill="#F1F1F1" height="146.9297" rx="2.5" ry="2.5" style="stroke:#181818;stroke-width:0.5;" width="250.7998" x="298.11" y="268.4183"/><ellipse cx="390.9523" cy="284.4183" fill="#ADD1B2" rx="11" ry="11" style="stroke:#181818;stroke-width:1;"/><path d="M393.4254,290.5613 Q392.8444,290.8602 392.2052,291.0096 Q391.5661,291.159 390.8605,291.159 Q388.3537,291.159 387.0338,289.5071 Q385.714,287.8553 385.714,284.7342 Q385.714,281.6048 387.0338,279.9529 Q388.3537,278.3011 390.8605,278.3011 Q391.5661,278.3011 392.2135,278.4505 Q392.861,278.5999 393.4254,278.8987 L393.4254,281.6214 Q392.7946,281.0404 392.2011,280.7706 Q391.6076,280.5008 390.9767,280.5008 Q389.632,280.5008 388.9472,281.5675 Q388.2623,282.6341 388.2623,284.7342 Q388.2623,286.826 388.9472,287.8926 Q389.632,288.9593 390.9767,288.9593 Q391.6076,288.9593 392.2011,288.6895 Q392.7946,288.4197 393.4254,287.8387 Z " fill="#000000"/><text fill="#000000" font-family="sans-serif" font-size="14" lengthAdjust="spacing" textLength="56.6152" x="411.4523" y="289.7093">DiffView</text><line style="stroke:#181818;stroke-width:0.5;" x1="299.11" x2="547.9098" y1="300.4183" y2="300.4183"/><g data-visibility-modifier="PUBLIC_FIELD"><ellipse cx="309.11" cy="314.1624" fill="none" rx="3" ry="3" style="stroke:#038048;stroke-width:1;"/></g><text fill="#000000" font-family="sans-serif" font-size="14" lengthAdjust="spacing" textLength="128.9873" x="318.11" y="317.9534">selectedCycle : int?</text><g data-visibility-modifier="PUBLIC_FIELD"><ellipse cx="309.11" cy="330.6507" fill="none" rx="3" ry="3" style="stroke:#038048;stroke-width:1;"/></g><text fill="#000000" font-family="sans-serif" font-size="14" lengthAdjust="spacing" textLength="138.3662" x="318.11" y="334.4417">selectedFile : String?</text><g data-visibility-modifier="PUBLIC_FIELD"><ellipse cx="309.11" cy="347.139" fill="none" rx="3" ry="3" style="stroke:#038048;stroke-width:1;"/></g><text fill="#000000" font-family="sans-serif" font-size="14" lengthAdjust="spacing" textLength="162.333" x="318.11" y="350.93">subMode : DiffSubMode</text><line style="stroke:#181818;stroke-width:0.5;" x1="299.11" x2="547.9098" y1="357.8831" y2="357.8831"/><g data-visibility-modifier="PUBLIC_METHOD"><ellipse cx="309.11" cy="371.6273" fill="#84BE84" rx="3" ry="3" style="stroke:#038048;stroke-width:1;"/></g><text fill="#000000" font-family="sans-serif" font-size="14" lengthAdjust="spacing" textLength="224.7998" x="318.11" y="375.4183">cyclesWithDiffFor(file) : List&lt;int&gt;</text><g data-visibility-modifier="PUBLIC_METHOD"><ellipse cx="309.11" cy="388.1155" fill="#84BE84" rx="3" ry="3" style="stroke:#038048;stroke-width:1;"/></g><text fill="#000000" font-family="sans-serif" font-size="14" lengthAdjust="spacing" textLength="197.5381" x="318.11" y="391.9066">diffFor(cycle, file) : CycleDiff?</text><g data-visibility-modifier="PUBLIC_METHOD"><ellipse cx="309.11" cy="404.6038" fill="#84BE84" rx="3" ry="3" style="stroke:#038048;stroke-width:1;"/></g><text fill="#000000" font-family="sans-serif" font-size="14" lengthAdjust="spacing" textLength="199.876" x="318.11" y="408.3948">renderedSvg(cycle, file) : Path</text></g><g class="entity" data-qualified-name="GMN17" data-source-line="85" id="ent0018"><path d="M679.72,306.2583 L679.72,377.5005 A0,0 0 0 0 679.72,377.5005 L969.2893,377.5005 A0,0 0 0 0 969.2893,377.5005 L969.2893,316.2583 L959.2893,306.2583 L834.38,306.2583 L857.81,142.3683 L826.38,306.2583 L679.72,306.2583 A0,0 0 0 0 679.72,306.2583" fill="#FEFFDD" style="stroke:#181818;stroke-width:0.5;"/><path d="M959.2893,306.2583 L959.2893,316.2583 L969.2893,316.2583 L959.2893,306.2583" fill="#FEFFDD" style="stroke:#181818;stroke-width:0.5;"/><text fill="#000000" font-family="sans-serif" font-size="13" lengthAdjust="spacing" textLength="268.5693" x="685.72" y="323.8266">targetId must resolve to an existing model</text><text fill="#000000" font-family="sans-serif" font-size="13" lengthAdjust="spacing" textLength="268.0234" x="685.72" y="339.1372">@id on the same side. One description per</text><text fill="#000000" font-family="sans-serif" font-size="13" lengthAdjust="spacing" textLength="223.8882" x="685.72" y="354.4477">significant element. Constrained by</text><text fill="#000000" font-family="sans-serif" font-size="13" lengthAdjust="spacing" textLength="213.6304" x="685.72" y="369.7583">OCL-ELEMENT-DESC-NONEMPTY.</text></g><g class="entity" data-qualified-name="GMN20" data-source-line="92" id="ent0021"><path d="M466.95,810.6683 L466.95,973.7738 A0,0 0 0 0 466.95,973.7738 L804.0696,973.7738 A0,0 0 0 0 804.0696,973.7738 L804.0696,820.6683 L794.0696,810.6683 L639.51,810.6683 L635.51,711.2583 L631.51,810.6683 L466.95,810.6683 A0,0 0 0 0 466.95,810.6683" fill="#FEFFDD" style="stroke:#181818;stroke-width:0.5;"/><path d="M794.0696,810.6683 L794.0696,820.6683 L804.0696,820.6683 L794.0696,810.6683" fill="#FEFFDD" style="stroke:#181818;stroke-width:0.5;"/><text fill="#000000" font-family="sans-serif" font-size="13" lengthAdjust="spacing" textLength="283.3784" x="472.95" y="828.2366">unchanged, added and removed are pairwise</text><text fill="#000000" font-family="sans-serif" font-size="13" lengthAdjust="spacing" textLength="302.4341" x="472.95" y="843.5472">disjoint (OCL-CYCLE-DIFF-PARTITION). Element</text><text fill="#000000" font-family="sans-serif" font-size="13" lengthAdjust="spacing" textLength="263.6055" x="472.95" y="858.8577">identity is the @id, or the stable PlantUML</text><text fill="#000000" font-family="sans-serif" font-size="13" lengthAdjust="spacing" textLength="254.4521" x="472.95" y="874.1683">alias/label when an element has no @id.</text><text fill="#000000" font-family="sans-serif" font-size="13" lengthAdjust="spacing" textLength="275.8057" x="472.95" y="889.4788">diffSvg mirrors annotatedPuml's path under</text><text fill="#000000" font-family="sans-serif" font-size="13" lengthAdjust="spacing" textLength="316.1196" x="472.95" y="904.7894">.mdd/rendered/ (OCL-DIFF-SVG-PATH-DERIVED).</text><text fill="#000000" font-family="sans-serif" font-size="13" lengthAdjust="spacing" textLength="259.1621" x="472.95" y="920.0999">Removed elements are re-injected with a</text><text fill="#000000" font-family="sans-serif" font-size="13" lengthAdjust="spacing" textLength="307.3979" x="472.95" y="935.4105">diagram-type-appropriate ghost keyword so the</text><text fill="#000000" font-family="sans-serif" font-size="13" lengthAdjust="spacing" textLength="278.7319" x="472.95" y="950.721">superposed .diff renders for sequence/state</text><text fill="#000000" font-family="sans-serif" font-size="13" lengthAdjust="spacing" textLength="268.271" x="472.95" y="966.0316">diagrams too, not only card-bearing ones.</text></g><g class="entity" data-qualified-name="GMN23" data-source-line="105" id="ent0024"><path d="M788.2,594.2183 L788.2,680.771 A0,0 0 0 0 788.2,680.771 L1118.8133,680.771 A0,0 0 0 0 1118.8133,680.771 L1118.8133,604.2183 L1108.8133,594.2183 L980.23,594.2183 L1053.41,448.4683 L972.23,594.2183 L788.2,594.2183 A0,0 0 0 0 788.2,594.2183" fill="#FEFFDD" style="stroke:#181818;stroke-width:0.5;"/><path d="M1108.8133,594.2183 L1108.8133,604.2183 L1118.8133,604.2183 L1108.8133,594.2183" fill="#FEFFDD" style="stroke:#181818;stroke-width:0.5;"/><text fill="#000000" font-family="sans-serif" font-size="13" lengthAdjust="spacing" textLength="283.2451" x="794.2" y="611.7866">A Closed cycle must have a non-null afterDir</text><text fill="#000000" font-family="sans-serif" font-size="13" lengthAdjust="spacing" textLength="161.3892" x="794.2" y="627.0972">and at least one CycleDiff</text><text fill="#000000" font-family="sans-serif" font-size="13" lengthAdjust="spacing" textLength="309.6133" x="794.2" y="642.4077">(OCL-CYCLE-CLOSED-HAS-SNAPSHOTS). entry is</text><text fill="#000000" font-family="sans-serif" font-size="13" lengthAdjust="spacing" textLength="217.8516" x="794.2" y="657.7183">Generate iff the run started from a</text><text fill="#000000" font-family="sans-serif" font-size="13" lengthAdjust="spacing" textLength="255.0552" x="794.2" y="673.0288">description (OCL-CYCLE-ENTRY-VALID).</text></g><g class="entity" data-qualified-name="GMN26" data-source-line="113" id="ent0027"><path d="M6,525.3283 L6,749.6759 A0,0 0 0 0 6,749.6759 L329.0151,749.6759 A0,0 0 0 0 329.0151,749.6759 L329.0151,535.3283 L319.0151,525.3283 L268.72,525.3283 L359.9,415.8383 L260.72,525.3283 L6,525.3283 A0,0 0 0 0 6,525.3283" fill="#FEFFDD" style="stroke:#181818;stroke-width:0.5;"/><path d="M319.0151,525.3283 L319.0151,535.3283 L329.0151,535.3283 L319.0151,525.3283" fill="#FEFFDD" style="stroke:#181818;stroke-width:0.5;"/><text fill="#000000" font-family="sans-serif" font-size="13" lengthAdjust="spacing" textLength="220.3208" x="12" y="542.8966">Diff mode is keyed on selectedFile.</text><text fill="#000000" font-family="sans-serif" font-size="13" lengthAdjust="spacing" textLength="194.7842" x="12" y="558.2072">selectedCycle is constrained to</text><text fill="#000000" font-family="sans-serif" font-size="13" lengthAdjust="spacing" textLength="274.1235" x="12" y="573.5177">cyclesWithDiffFor(selectedFile) &#8212; the cycles</text><text fill="#000000" font-family="sans-serif" font-size="13" lengthAdjust="spacing" textLength="282.9404" x="12" y="588.8283">whose CycleDiff for the file has a non-empty</text><text fill="#000000" font-family="sans-serif" font-size="13" lengthAdjust="spacing" textLength="258.1465" x="12" y="604.1388">added/removed set (a real change with a</text><text fill="#000000" font-family="sans-serif" font-size="13" lengthAdjust="spacing" textLength="260.5205" x="12" y="619.4494">written .diff), NOT cycles where the file is</text><text fill="#000000" font-family="sans-serif" font-size="13" lengthAdjust="spacing" textLength="302.0151" x="12" y="634.7599">only present-unchanged in the snapshot &#8212; and</text><text fill="#000000" font-family="sans-serif" font-size="13" lengthAdjust="spacing" textLength="183.8916" x="12" y="650.0705">defaults to the latest of them</text><text fill="#000000" font-family="sans-serif" font-size="13" lengthAdjust="spacing" textLength="270.4355" x="12" y="665.381">(OCL-DIFF-CYCLE-SCOPED); it still renders</text><text fill="#000000" font-family="sans-serif" font-size="13" lengthAdjust="spacing" textLength="247.9775" x="12" y="680.6916">exactly the CycleDiff for that (cycle,file)</text><text fill="#000000" font-family="sans-serif" font-size="13" lengthAdjust="spacing" textLength="276.9482" x="12" y="696.0021">pair (OCL-DIFF-VIEW-BINDING). subMode is</text><text fill="#000000" font-family="sans-serif" font-size="13" lengthAdjust="spacing" textLength="246.7842" x="12" y="711.3127">exactly one of {Diagram, List}; Diagram</text><text fill="#000000" font-family="sans-serif" font-size="13" lengthAdjust="spacing" textLength="217.5024" x="12" y="726.6232">requires the rendered SVG to exist</text><text fill="#000000" font-family="sans-serif" font-size="13" lengthAdjust="spacing" textLength="246.6445" x="12" y="741.9337">(OCL-DIFF-DIAGRAM-NEEDS-RENDER).</text></g><!--reverse link CycleRegistry to Cycle--><g class="link" data-entity-1="ent0008" data-entity-2="ent0005" data-link-type="aggregation" data-source-line="76" id="lnk10"><path codeLine="76" d="M1109.51,170.6683 C1109.51,193.5183 1109.51,208.7083 1109.51,235.0183" fill="none" id="CycleRegistry-backto-Cycle" style="stroke:#181818;stroke-width:1;"/><polygon fill="none" points="1109.51,158.6683,1105.51,164.6683,1109.51,170.6683,1113.51,164.6683,1109.51,158.6683" style="stroke:#181818;stroke-width:1;"/><polygon fill="#000000" points="1114.51,202.0936,1117.4489,193.0485,1111.5711,193.0485,1114.51,202.0936" style="stroke:#000000;stroke-width:1;"/><text fill="#000000" font-family="sans-serif" font-size="13" lengthAdjust="spacing" textLength="59.1284" x="1123.51" y="202.0066">discovers</text><text fill="#000000" font-family="sans-serif" font-size="13" lengthAdjust="spacing" textLength="8.2202" x="1101.0366" y="179.1413">1</text><text fill="#000000" font-family="sans-serif" font-size="13" lengthAdjust="spacing" textLength="6.2651" x="1103.3086" y="224.5565">*</text></g><!--reverse link Cycle to CycleDiff--><g class="link" data-entity-1="ent0005" data-entity-2="ent0006" data-link-type="aggregation" data-source-line="77" id="lnk11"><path codeLine="77" d="M993.6144,444.3031 C987.9644,448.0931 992.23,445.0083 986.51,448.3283 C898.34,499.4583 859.17,475.0683 770.51,525.3283 C751.36,536.1783 732.23,549.7983 714.64,563.7583" fill="none" id="Cycle-backto-CycleDiff" style="stroke:#181818;stroke-width:1;"/><polygon fill="none" points="1003.58,437.6183,996.3689,437.6389,993.6144,444.3031,1000.8255,444.2826,1003.58,437.6183" style="stroke:#181818;stroke-width:1;"/><polygon fill="#000000" points="914.0936,488.9517,923.5654,488.093,921.2517,482.6896,914.0936,488.9517" style="stroke:#000000;stroke-width:1;"/><text fill="#000000" font-family="sans-serif" font-size="13" lengthAdjust="spacing" textLength="69.7163" x="927.69" y="491.8966">closes with</text><text fill="#000000" font-family="sans-serif" font-size="13" lengthAdjust="spacing" textLength="8.2202" x="987.8585" y="441.4018">1</text><text fill="#000000" font-family="sans-serif" font-size="13" lengthAdjust="spacing" textLength="6.2651" x="716.1469" y="553.3444">*</text></g><!--link Cycle to EntryPoint--><g class="link" data-entity-1="ent0005" data-entity-2="ent0002" data-link-type="dependency" data-source-line="78" id="lnk12"><path codeLine="78" d="M1143.67,448.4683 C1160.32,499.9283 1177.5028,553.0297 1189.7828,590.9797" fill="none" id="Cycle-to-EntryPoint" style="stroke:#181818;stroke-width:1;"/><polygon fill="#181818" points="1191.63,596.6883,1192.6649,586.8939,1190.0907,591.9311,1185.0535,589.3569,1191.63,596.6883" style="stroke:#181818;stroke-width:1;"/></g><!--link Cycle to CycleStatus--><g class="link" data-entity-1="ent0005" data-entity-2="ent0003" data-link-type="dependency" data-source-line="79" id="lnk13"><path codeLine="79" d="M1208.89,448.5783 C1230.6,473.1583 1252.92,499.6683 1272.51,525.3283 C1287.72,545.2483 1299.8368,563.2786 1312.3968,583.2586" fill="none" id="Cycle-to-CycleStatus" style="stroke:#181818;stroke-width:1;"/><polygon fill="#181818" points="1315.59,588.3383,1314.1866,578.5899,1312.929,584.1052,1307.4137,582.8476,1315.59,588.3383" style="stroke:#181818;stroke-width:1;"/></g><!--link ElementDescription to Cycle--><g class="link" data-entity-1="ent0007" data-entity-2="ent0005" data-link-type="dependency" data-source-line="80" id="lnk14"><path codeLine="80" d="M905.52,142.3683 C932.42,168.5483 964.6195,199.8943 999.3095,233.6443" fill="none" id="ElementDescription-to-Cycle" style="stroke:#181818;stroke-width:1;stroke-dasharray:7,7;"/><polygon fill="#181818" points="1003.61,237.8283,999.9486,228.6853,1000.0262,234.3416,994.3699,234.4193,1003.61,237.8283" style="stroke:#181818;stroke-width:1;"/><text fill="#000000" font-family="sans-serif" font-size="13" lengthAdjust="spacing" textLength="102.521" x="966.06" y="202.0066">authored during</text><text fill="#000000" font-family="sans-serif" font-size="13" lengthAdjust="spacing" textLength="6.2651" x="905.3605" y="162.3719">*</text><text fill="#000000" font-family="sans-serif" font-size="13" lengthAdjust="spacing" textLength="8.2202" x="987.8907" y="227.5641">1</text></g><!--link DiffView to DiffSubMode--><g class="link" data-entity-1="ent0009" data-entity-2="ent0004" data-link-type="dependency" data-source-line="81" id="lnk15"><path codeLine="81" d="M423.51,415.8383 C423.51,473.0783 423.51,544.5583 423.51,590.8483" fill="none" id="DiffView-to-DiffSubMode" style="stroke:#181818;stroke-width:1;"/><polygon fill="#181818" points="423.51,596.8483,427.51,587.8483,423.51,591.8483,419.51,587.8483,423.51,596.8483" style="stroke:#181818;stroke-width:1;"/></g><!--link DiffView to CycleDiff--><g class="link" data-entity-1="ent0009" data-entity-2="ent0006" data-link-type="dependency" data-source-line="82" id="lnk16"><path codeLine="82" d="M476.18,415.8383 C508.74,460.9283 546.8678,513.7337 579.4078,558.8037" fill="none" id="DiffView-to-CycleDiff" style="stroke:#181818;stroke-width:1;stroke-dasharray:7,7;"/><polygon fill="#181818" points="582.92,563.6683,580.8948,554.0299,579.9932,559.6144,574.4086,558.7128,582.92,563.6683" style="stroke:#181818;stroke-width:1;"/><polygon fill="#000000" points="537.437,491.0373,534.5247,481.9836,529.7593,485.4245,537.437,491.0373" style="stroke:#000000;stroke-width:1;"/><text fill="#000000" font-family="sans-serif" font-size="13" lengthAdjust="spacing" textLength="185.999" x="543.51" y="491.8966">resolves selected file/cycle to</text></g><?plantuml-src XLVRSjis47ttLs3y4ginfUchah6ZIhAZgNKPINNgHuY49IGamGAW5KqcC_s8Vc6_f6SN94N9oVJ9Ch3Oozcp5xuH7tHoDPfFe-7Jy67SkNXpUX2D9dTtxTFnmtWwdgsZqNWrN4uMwybyzlhHSdm_MQsNJ-qRKXGzJiQVS8ZZ-UQpYhr-KP7JYHA9oQJEHMOIbOfdOqLyY5Cbl9Nn5vrlksAczY8sUQmAxww5t3YLUs5oQF8x9UBIMZfWNMNkTIfwMP94EYjIbT7Dst2GoKB4gN6AdnNIQdyGMrbqsQaFYNBnCOvhSJdFAoTK8gQZaKYDAVf2UoUWr1v4ONJkhmMzixhmskJNmddfIpX95gg0TAeSNWblodYd4WIG9wnben2iwibdhwnmkIpSpdYHQ0jmZDNATIyxhnrZCE7TGjaeqN9hPIPK5IXYyfeSWMw_LoeNCe3vfhR6neF52hUGWzgywmF2U2VpBNkQ9FJ7gioyq8yYBLq5djy9yynXG4cYB31oPQ5i0NmJqKtqytFNlMpFG_W1XH3B6Yg3pFl9w0RegQ--8p9floZRHmmcLr6gaOvTcScyZRYGtak25V12C40EsY4JfNsMCIv0BN9vEX-D7yHmFbkF_roBMDhan_3M_8LRgrZcJdJ1dHwZw7fGHdPoOMo8ETNE4n13fYmoXml792QRBrhjWRILu2G1JwZmuJlyArEpDOId4LDoUwcsK6OFvsurnGEF7eF24VH452lpJVNPc0CBOW-VsDT0GIBVyQ92Wjm9BEHdvIQekXfLR0e93Obk4daj7YXKS6HFDzApRl2ASYKs9Qh4kmxv3WR2wF2aXkiQlp9rwNSkBbHUPc9CfRIWIXBVBeIuLxco20a_fxAu-5v9iROLrnQBpGkLuy-GgZd1Zy76M4JOo1D0gt93kB9y5Hf-KHGa5gVIkSfBadWhy6u3RFkKOpvmQRd5lojl4G6VXBhljvpcupOVJ-H3Dy1Pot--CF1V9GEFgxNE5EIoWY-uFvrTtF9DrJxkk9tqEOxtmTGDtuVw7ccAO87ov4EkzEFPxLda15CLVTrAJlnlMW4TA_z-7FhCx-eGR79_-CbTrJH-zZBF3L4tMPHPslQO-BPwsTP7ZR-LWb4Bwk2ubtQh_2GvzPnPsPoSHbqNMgKWbFOPS0wbVzMfSUPdDqVfgy2LJftPaA4KyJX_rJfjx1BGLBkLoReY0_sOSRSd5vJbnltggg9plqtkLW2VjD_HpPsnLrIQZVDGVjD0IxTLVwY56YRSLdaBxHn9E9UiCtAAukMlby94aRZyvLBK0INQnSW-ciXDa7ujnTph1y8xiOVtZMmKtRHBx7ZOBgCV489qTxitRAlsH9P-PwXJ9oLJeSa4wMiZsLoGXhQ7LZcJli37feyI7hrgIJ7m-W9SLc9Zl3SP3OFNhW7PXgTPYJvQAHLXcgYlW9BQ9Cyl26E2OUY5_YmpnRjDLz12qkur6BUGTNgRwsSDmlfw4UYAeScH7BHSkBivKCSSFfmCtsWsdusdY_LJ5nqp4HJ1gpWQ5F3-V2lW-L7NkBIq4cYxruueYUn_vev-HLQFMqkq62pN4ruRkpL844TisDgmY-amStXyLnCK3N03c1SfeljZ-W1fcMhfUgdSOD3lTxJYvCt-ivCEaP22BhiHMacchJMWuadFmUJY9QOajaEOftpD_Lxmd7rUFTx3x_L7eBQSF8v77LAzh0Al33j6mAf8vvy3HPZFaftWlXhvGw4YMHJM55R32R7T6V3WYphiiJ88PoXSokRP4jLCOzefdFghLDY3UppsZzffYJ3Nb4Im9ZtmTXDjb2J6q_Ba_Y_9D4AhQLfjtypIdGH59TxbKLwcQJDEA0sqHtgHAaaBKAvEoDBA-_1XlXgFee-3LRIQ3HQhZ_Fr2jaFarIxriWN52tl9sLEURTSQXPUCeujthVKWyxBf-Xny32XnFmqoBguUHM06LvuG3V0hxZIsesN4dpQeI4PjmhA6qYyxhfj7Htnxz__XCyJbiE3_Ou-FOwTfLuIUKSZvWQWLLPuAbYkibvTOKwXcYJ885CH2l58iJq-P3mAWVdIkHQp-RgoIWLYrT4AuyqCAT20QFa_JlXgEMo-GyX_99cXVvPbwdbJ9P4mvmXM_9VLwUPY2KbP3USB5Cex-kf1NmDnAX93LdsLiOS3fEWS2_2f6ZaySI1DJQMbdhRWwBV9R3IPtOD4zKZKRSN4HRZshLhvmjxw_Lrh1RIe8dnaXMRJVBsWpYb0RiKdCOqcW_lbO1hDnkFH2fy7CpI25jV-0m00?></g></svg>