<svg xmlns="http://www.w3.org/2000/svg" xmlns:xlink="http://www.w3.org/1999/xlink" contentStyleType="text/css" data-diagram-type="CLASS" height="469px" preserveAspectRatio="none" style="width:898px;height:469px;background:#FFFFFF;" version="1.1" viewBox="0 0 898 469" width="898px" zoomAndPan="magnify"><?plantuml 1.2026.3?><defs/><g><g class="title" data-source-line="7"><text fill="#000000" font-family="sans-serif" font-size="14" font-weight="700" lengthAdjust="spacing" textLength="398.084" x="246.5493" y="23.5352">Viewer domain &#8212; font database + OCL view (objective)</text></g><!--class OclSubMode--><g class="entity" data-qualified-name="OclSubMode" data-source-line="9" id="ent0002"><rect fill="#F1F1F1" height="80.9766" rx="2.5" ry="2.5" style="stroke:#181818;stroke-width:0.5;" width="116.4033" x="7" y="245.8883"/><ellipse cx="22" cy="261.8883" fill="#EB937F" rx="11" ry="11" style="stroke:#181818;stroke-width:1;"/><path d="M25.6143,268.3883 L17.8945,268.3883 L17.8945,255.9952 L25.6143,255.9952 L25.6143,258.1534 L20.3433,258.1534 L20.3433,260.8263 L25.1162,260.8263 L25.1162,262.9845 L20.3433,262.9845 L20.3433,266.2301 L25.6143,266.2301 Z " fill="#000000"/><text fill="#000000" font-family="sans-serif" font-size="14" lengthAdjust="spacing" textLength="84.4033" x="36" y="267.1793">OclSubMode</text><line style="stroke:#181818;stroke-width:0.5;" x1="8" x2="122.4033" y1="277.8883" y2="277.8883"/><text fill="#000000" font-family="sans-serif" font-size="14" lengthAdjust="spacing" textLength="45.5273" x="13" y="295.4234">Source</text><text fill="#000000" font-family="sans-serif" font-size="14" lengthAdjust="spacing" textLength="57.5244" x="13" y="311.9117">Diagram</text><line style="stroke:#181818;stroke-width:0.5;" x1="8" x2="122.4033" y1="318.8648" y2="318.8648"/></g><!--class SvgRasterizer--><g class="entity" data-qualified-name="SvgRasterizer" data-source-line="14" id="ent0003"><rect fill="#F1F1F1" height="80.9766" rx="2.5" ry="2.5" style="stroke:#181818;stroke-width:0.5;" width="212.2451" x="624.08" y="60.9783"/><ellipse cx="680.1518" cy="76.9783" fill="#ADD1B2" rx="11" ry="11" style="stroke:#181818;stroke-width:1;"/><path d="M682.6249,83.1213 Q682.0439,83.4202 681.4047,83.5696 Q680.7655,83.719 680.06,83.719 Q677.5531,83.719 676.2333,82.0671 Q674.9135,80.4153 674.9135,77.2942 Q674.9135,74.1648 676.2333,72.5129 Q677.5531,70.8611 680.06,70.8611 Q680.7655,70.8611 681.413,71.0105 Q682.0605,71.1599 682.6249,71.4588 L682.6249,74.1814 Q681.9941,73.6004 681.4006,73.3306 Q680.8071,73.0608 680.1762,73.0608 Q678.8315,73.0608 678.1467,74.1275 Q677.4618,75.1941 677.4618,77.2942 Q677.4618,79.386 678.1467,80.4526 Q678.8315,81.5193 680.1762,81.5193 Q680.8071,81.5193 681.4006,81.2495 Q681.9941,80.9797 682.6249,80.3987 Z " fill="#000000"/><text fill="#000000" font-family="sans-serif" font-size="14" lengthAdjust="spacing" textLength="91.6016" x="700.6518" y="82.2693">SvgRasterizer</text><line style="stroke:#181818;stroke-width:0.5;" x1="625.08" x2="835.3251" y1="92.9783" y2="92.9783"/><line style="stroke:#181818;stroke-width:0.5;" x1="625.08" x2="835.3251" y1="100.9783" y2="100.9783"/><g data-visibility-modifier="PUBLIC_METHOD"><ellipse cx="635.08" cy="114.7224" fill="#84BE84" rx="3" ry="3" style="stroke:#038048;stroke-width:1;"/></g><text fill="#000000" font-family="sans-serif" font-size="14" lengthAdjust="spacing" textLength="126.082" x="644.08" y="118.5134">parse(bytes) : Tree</text><g data-visibility-modifier="PUBLIC_METHOD"><ellipse cx="635.08" cy="131.2107" fill="#84BE84" rx="3" ry="3" style="stroke:#038048;stroke-width:1;"/></g><text fill="#000000" font-family="sans-serif" font-size="14" lengthAdjust="spacing" textLength="186.2451" x="644.08" y="135.0017">render(tree, scale) : Pixmap</text></g><!--class FontDatabase--><g class="entity" data-qualified-name="FontDatabase" data-source-line="19" id="ent0004"><rect fill="#F1F1F1" height="97.4648" rx="2.5" ry="2.5" style="stroke:#181818;stroke-width:0.5;" width="191.5527" x="634.43" y="237.6383"/><ellipse cx="679.6087" cy="253.6383" fill="#ADD1B2" rx="11" ry="11" style="stroke:#181818;stroke-width:1;"/><path d="M682.0819,259.7813 Q681.5008,260.0802 680.8616,260.2296 Q680.2225,260.379 679.5169,260.379 Q677.0101,260.379 675.6903,258.7271 Q674.3704,257.0753 674.3704,253.9542 Q674.3704,250.8248 675.6903,249.1729 Q677.0101,247.5211 679.5169,247.5211 Q680.2225,247.5211 680.8699,247.6705 Q681.5174,247.8199 682.0819,248.1187 L682.0819,250.8414 Q681.451,250.2604 680.8575,249.9906 Q680.264,249.7208 679.6331,249.7208 Q678.2884,249.7208 677.6036,250.7875 Q676.9188,251.8541 676.9188,253.9542 Q676.9188,256.046 677.6036,257.1126 Q678.2884,258.1793 679.6331,258.1793 Q680.264,258.1793 680.8575,257.9095 Q681.451,257.6397 682.0819,257.0587 Z " fill="#000000"/><text fill="#000000" font-family="sans-serif" font-size="14" lengthAdjust="spacing" textLength="92.6953" x="700.1087" y="258.9293">FontDatabase</text><line style="stroke:#181818;stroke-width:0.5;" x1="635.43" x2="824.9827" y1="269.6383" y2="269.6383"/><g data-visibility-modifier="PUBLIC_FIELD"><ellipse cx="645.43" cy="283.3824" fill="none" rx="3" ry="3" style="stroke:#038048;stroke-width:1;"/></g><text fill="#000000" font-family="sans-serif" font-size="14" lengthAdjust="spacing" textLength="99.832" x="654.43" y="287.1734">fontCount : int</text><g data-visibility-modifier="PUBLIC_FIELD"><ellipse cx="645.43" cy="299.8707" fill="none" rx="3" ry="3" style="stroke:#038048;stroke-width:1;"/></g><text fill="#000000" font-family="sans-serif" font-size="14" lengthAdjust="spacing" textLength="144.4365" x="654.43" y="303.6617">defaultFamily : String</text><line style="stroke:#181818;stroke-width:0.5;" x1="635.43" x2="824.9827" y1="310.6148" y2="310.6148"/><g data-visibility-modifier="PUBLIC_METHOD"><ellipse cx="645.43" cy="324.359" fill="#84BE84" rx="3" ry="3" style="stroke:#038048;stroke-width:1;"/></g><text fill="#000000" font-family="sans-serif" font-size="14" lengthAdjust="spacing" textLength="165.5527" x="654.43" y="328.15">loadSystemFonts() : void</text></g><!--class OclView--><g class="entity" data-qualified-name="OclView" data-source-line="25" id="ent0005"><rect fill="#F1F1F1" height="113.9531" rx="2.5" ry="2.5" style="stroke:#181818;stroke-width:0.5;" width="230.4014" x="107" y="44.4883"/><ellipse cx="191.0103" cy="60.4883" fill="#ADD1B2" rx="11" ry="11" style="stroke:#181818;stroke-width:1;"/><path d="M193.4834,66.6313 Q192.9023,66.9302 192.2632,67.0796 Q191.624,67.229 190.9185,67.229 Q188.4116,67.229 187.0918,65.5771 Q185.772,63.9253 185.772,60.8042 Q185.772,57.6748 187.0918,56.0229 Q188.4116,54.3711 190.9185,54.3711 Q191.624,54.3711 192.2715,54.5205 Q192.9189,54.6699 193.4834,54.9688 L193.4834,57.6914 Q192.8525,57.1104 192.259,56.8406 Q191.6655,56.5708 191.0347,56.5708 Q189.6899,56.5708 189.0051,57.6375 Q188.3203,58.7041 188.3203,60.8042 Q188.3203,62.896 189.0051,63.9626 Q189.6899,65.0293 191.0347,65.0293 Q191.6655,65.0293 192.259,64.7595 Q192.8525,64.4897 193.4834,63.9087 Z " fill="#000000"/><text fill="#000000" font-family="sans-serif" font-size="14" lengthAdjust="spacing" textLength="53.8809" x="211.5103" y="65.7793">OclView</text><line style="stroke:#181818;stroke-width:0.5;" x1="108" x2="336.4014" y1="76.4883" y2="76.4883"/><g data-visibility-modifier="PUBLIC_FIELD"><ellipse cx="118" cy="90.2324" fill="none" rx="3" ry="3" style="stroke:#038048;stroke-width:1;"/></g><text fill="#000000" font-family="sans-serif" font-size="14" lengthAdjust="spacing" textLength="159.5986" x="127" y="94.0234">subMode : OclSubMode</text><g data-visibility-modifier="PUBLIC_FIELD"><ellipse cx="118" cy="106.7207" fill="none" rx="3" ry="3" style="stroke:#038048;stroke-width:1;"/></g><text fill="#000000" font-family="sans-serif" font-size="14" lengthAdjust="spacing" textLength="128.8574" x="127" y="110.5117">sourceText : String</text><g data-visibility-modifier="PUBLIC_FIELD"><ellipse cx="118" cy="123.209" fill="none" rx="3" ry="3" style="stroke:#038048;stroke-width:1;"/></g><text fill="#000000" font-family="sans-serif" font-size="14" lengthAdjust="spacing" textLength="204.4014" x="127" y="127">page : Option&lt;DiagramPage&gt;</text><line style="stroke:#181818;stroke-width:0.5;" x1="108" x2="336.4014" y1="133.9531" y2="133.9531"/><g data-visibility-modifier="PUBLIC_METHOD"><ellipse cx="118" cy="147.6973" fill="#84BE84" rx="3" ry="3" style="stroke:#038048;stroke-width:1;"/></g><text fill="#000000" font-family="sans-serif" font-size="14" lengthAdjust="spacing" textLength="185.6846" x="127" y="151.4883">renderedSvg(oclPath) : Path</text></g><g class="entity" data-qualified-name="GMN8" data-source-line="36" id="ent0009"><path d="M577.23,398.3083 L577.23,454.2399 A0,0 0 0 0 577.23,454.2399 L883.1826,454.2399 A0,0 0 0 0 883.1826,454.2399 L883.1826,408.3083 L873.1826,398.3083 L734.2,398.3083 L730.2,335.6083 L726.2,398.3083 L577.23,398.3083 A0,0 0 0 0 577.23,398.3083" fill="#FEFFDD" style="stroke:#181818;stroke-width:0.5;"/><path d="M873.1826,398.3083 L873.1826,408.3083 L883.1826,408.3083 L873.1826,398.3083" fill="#FEFFDD" style="stroke:#181818;stroke-width:0.5;"/><text fill="#000000" font-family="sans-serif" font-size="13" lengthAdjust="spacing" textLength="277.9131" x="583.23" y="415.8766">Populated once with the host's system fonts</text><text fill="#000000" font-family="sans-serif" font-size="13" lengthAdjust="spacing" textLength="284.9526" x="583.23" y="431.1872">before the first parse/render. Constrained by</text><text fill="#000000" font-family="sans-serif" font-size="13" lengthAdjust="spacing" textLength="171.6724" x="583.23" y="446.4977">OCL-FONTDB-POPULATED.</text></g><g class="entity" data-qualified-name="GMN11" data-source-line="42" id="ent0012"><path d="M158.67,235.4483 L158.67,337.3116 A0,0 0 0 0 158.67,337.3116 L599.7388,337.3116 A0,0 0 0 0 599.7388,337.3116 L599.7388,245.4483 L589.7388,235.4483 L340.03,235.4483 L270.59,158.8383 L332.03,235.4483 L158.67,235.4483 A0,0 0 0 0 158.67,235.4483" fill="#FEFFDD" style="stroke:#181818;stroke-width:0.5;"/><path d="M589.7388,235.4483 L589.7388,245.4483 L599.7388,245.4483 L589.7388,235.4483" fill="#FEFFDD" style="stroke:#181818;stroke-width:0.5;"/><text fill="#000000" font-family="sans-serif" font-size="13" lengthAdjust="spacing" textLength="295.6357" x="164.67" y="253.0166">Source paints sourceText (read-only); Diagram</text><text fill="#000000" font-family="sans-serif" font-size="13" lengthAdjust="spacing" textLength="289.5864" x="164.67" y="268.3272">paints the synthesized constraints SVG on the</text><text fill="#000000" font-family="sans-serif" font-size="13" lengthAdjust="spacing" textLength="262.2471" x="164.67" y="283.6377">shared canvas. subMode is exactly one of</text><text fill="#000000" font-family="sans-serif" font-size="13" lengthAdjust="spacing" textLength="254.1729" x="164.67" y="298.9483">{Source, Diagram}; Diagram requires the</text><text fill="#000000" font-family="sans-serif" font-size="13" lengthAdjust="spacing" textLength="259.4224" x="164.67" y="314.2588">rendered SVG to exist, else a placeholder</text><text fill="#000000" font-family="sans-serif" font-size="13" lengthAdjust="spacing" textLength="420.0688" x="164.67" y="329.5694">(OCL-OCL-VIEW-SUBMODE, OCL-OCL-DIAGRAM-NEEDS-RENDER).</text></g><!--reverse link SvgRasterizer to FontDatabase--><g class="link" data-entity-1="ent0003" data-entity-2="ent0004" data-link-type="aggregation" data-source-line="32" id="lnk6"><path codeLine="32" d="M730.2,154.1583 C730.2,182.0983 730.2,207.6683 730.2,237.3183" fill="none" id="SvgRasterizer-backto-FontDatabase" style="stroke:#181818;stroke-width:1;"/><polygon fill="none" points="730.2,142.1583,726.2,148.1583,730.2,154.1583,734.2,148.1583,730.2,142.1583" style="stroke:#181818;stroke-width:1;"/><polygon fill="#000000" points="735.2,202.1036,738.1389,193.0585,732.2611,193.0585,735.2,202.1036" style="stroke:#000000;stroke-width:1;"/><text fill="#000000" font-family="sans-serif" font-size="13" lengthAdjust="spacing" textLength="123.0303" x="744.2" y="202.0166">resolves &lt;text&gt; via</text><text fill="#000000" font-family="sans-serif" font-size="13" lengthAdjust="spacing" textLength="8.2202" x="721.5796" y="162.4319">1</text><text fill="#000000" font-family="sans-serif" font-size="13" lengthAdjust="spacing" textLength="8.2202" x="721.6521" y="226.9558">1</text></g><!--link OclView to OclSubMode--><g class="link" data-entity-1="ent0005" data-entity-2="ent0002" data-link-type="dependency" data-source-line="33" id="lnk7"><path codeLine="33" d="M173.82,158.8383 C149.76,186.8683 125.1673,215.5149 103.3973,240.8849" fill="none" id="OclView-to-OclSubMode" style="stroke:#181818;stroke-width:1;"/><polygon fill="#181818" points="99.49,245.4383,108.3865,241.213,102.7461,241.6438,102.3153,236.0034,99.49,245.4383" style="stroke:#181818;stroke-width:1;"/></g><?plantuml-src XLJBRjim4BphAnQ-H4Oi5xqwgL4dSe80SMnOZdiiA75jiw14bQISk460VaI_i5_I9INvqHJfIT9oD3kp3vx1Py73U3g9RgOFYoWUBKPNesJS3Sxs1zFh-sXvD_xYOnnDzXRUWyvYWx1IXGNEB4kPGR0KIPQte9cngCKFrC2nn88RKCK5bAgi9BF8wIj3U19s0sP7qDpp64XnfNHDinBQM2YPDlX14mFgVkTKJYkIb2m5Fb4kOucSg3GmC2WnSwdwAfEGgS9OpGI9NGc90p1L-ZLN725CLAL9p2SI_GJ42HQVRGzYmTQQvHGtku846NB3ZtYCCze5Ld0lLoh6wPmtVvLiZRNUQVgDT8WjHaPGkcsjbAkSI0Qrq_-Ka4WEHUn1AIlZKSw_esjiC-u4s8qmaEqoYVt02YiHbiSPuVVFNtybFFUcFL6eMh7T8C2Yoc6QoQHA9wvGBm50NIjwQQeJl0P19fcXOcpNyqFJ7VQyRbwOxYoQBWnWeH5zl6vdQEcx1oPZ4jtnJ3pdh3mmtf3Ak1LP4phXrweYzGEW5lWOnnMhfBrXkP0xYYTMYsBjZrnF4ZzUZik4BijM2Nx8GVPSUHfwqpWT7Dck3xpj1St5QGBNPOSkhL35PLEJ6GM7HpwHKsr26i8Pinjlb9vEmcd9EXyxeAB8Fq-i3uZ7ABb50vTkD8VKAmR3eDKUHSDZlK6XQ1XIPQtAGQrEk4ZLx1yhw8PfeumzCoVRIEZtzn6kssqWkdH7U3UIxfQ8hwBPTFPuFrgCupvD4WUdwessni9-i8ZURzPHlKEDZ4UgaBlknNxge0KwOU-i9tbq4CAR3TFkd1LRPlhxJjEku3FBB4sEAf0a4VIbrhA_0LxtUQaHtoj1tMX8s_xwL5OHbJ1qSw2ahZ7QKvRXHac243PqfMblh2Xvl9fCOxf3ssXyDxgTZoRHmtWS9z5y_12Fvzr3vVu0?></g></svg>