<svg xmlns="http://www.w3.org/2000/svg" xmlns:xlink="http://www.w3.org/1999/xlink" contentStyleType="text/css" data-diagram-type="SEQUENCE" height="1411px" preserveAspectRatio="none" style="width:1913px;height:1411px;background:#FFFFFF;" version="1.1" viewBox="0 0 1913 1411" width="1913px" zoomAndPan="magnify"><?plantuml 1.2026.3?><defs/><g><g class="title" data-source-line="12"><text fill="#000000" font-family="sans-serif" font-size="14" font-weight="700" lengthAdjust="spacing" textLength="332.5273" x="786.8086" y="28.5352">Render the selected file's cycle diff (objective)</text></g><rect fill="none" height="75.9316" style="stroke:#000000;stroke-width:1.5;" width="1629.2637" x="30" y="455.6797"/><rect fill="none" height="106.1973" style="stroke:#000000;stroke-width:1.5;" width="572.1934" x="30" y="545.6113"/><rect fill="none" height="494.8789" style="stroke:#000000;stroke-width:1.5;" width="1887.1445" x="10" y="708.1191"/><rect fill="none" height="318.3711" style="stroke:#000000;stroke-width:1.5;" width="1867.1445" x="20" y="761.7402"/><rect fill="none" height="141.8633" style="stroke:#000000;stroke-width:1.5;" width="1847.1445" x="30" y="857.6719"/><rect fill="none" height="75.9316" style="stroke:#000000;stroke-width:1.5;" width="1629.2637" x="30" y="1216.998"/><g class="participant-lifeline" data-entity-uid="part1" data-qualified-name="Dev" data-source-line="14" id="part1-lifeline"><g><title>Developer</title><rect fill="#000000" fill-opacity="0.00000" height="1171.9766" width="8" x="73.1592" y="137.9531"/><line style="stroke:#181818;stroke-width:0.5;stroke-dasharray:5,5;" x1="77" x2="77" y1="137.9531" y2="1309.9297"/></g></g><g class="participant-lifeline" data-entity-uid="part2" data-qualified-name="Viewer" data-source-line="15" id="part2-lifeline"><g><title>MddViewer</title><rect fill="#000000" fill-opacity="0.00000" height="1171.9766" width="8" x="276.0552" y="137.9531"/><line style="stroke:#181818;stroke-width:0.5;stroke-dasharray:5,5;" x1="279.793" x2="279.793" y1="137.9531" y2="1309.9297"/></g></g><g class="participant-lifeline" data-entity-uid="part3" data-qualified-name="DV" data-source-line="16" id="part3-lifeline"><g><title>DiffView</title><rect fill="#000000" fill-opacity="0.00000" height="1171.9766" width="8" x="463.7554" y="137.9531"/><line style="stroke:#181818;stroke-width:0.5;stroke-dasharray:5,5;" x1="467.3174" x2="467.3174" y1="137.9531" y2="1309.9297"/></g></g><g class="participant-lifeline" data-entity-uid="part4" data-qualified-name="Reg" data-source-line="17" id="part4-lifeline"><g><title>CycleRegistry</title><rect fill="#000000" fill-opacity="0.00000" height="1171.9766" width="8" x="773.1436" y="137.9531"/><line style="stroke:#181818;stroke-width:0.5;stroke-dasharray:5,5;" x1="776.7119" x2="776.7119" y1="137.9531" y2="1309.9297"/></g></g><g class="participant-lifeline" data-entity-uid="part5" data-qualified-name="Store" data-source-line="18" id="part5-lifeline"><g><title>.mdd.cycles..n..</title><rect fill="#000000" fill-opacity="0.00000" height="1171.9766" width="8" x="1011.9038" y="137.9531"/><line style="stroke:#181818;stroke-width:0.5;stroke-dasharray:5,5;" x1="1015.1504" x2="1015.1504" y1="137.9531" y2="1309.9297"/></g></g><g class="participant-lifeline" data-entity-uid="part6" data-qualified-name="Rendered" data-source-line="19" id="part6-lifeline"><g><title>.mdd.rendered.cycles..n..</title><rect fill="#000000" fill-opacity="0.00000" height="1171.9766" width="8" x="1219.2793" y="137.9531"/><line style="stroke:#181818;stroke-width:0.5;stroke-dasharray:5,5;" x1="1222.6572" x2="1222.6572" y1="137.9531" y2="1309.9297"/></g></g><g class="participant-lifeline" data-entity-uid="part7" data-qualified-name="Page" data-source-line="20" id="part7-lifeline"><g><title>DiagramPage</title><rect fill="#000000" fill-opacity="0.00000" height="1171.9766" width="8" x="1382.6631" y="137.9531"/><line style="stroke:#181818;stroke-width:0.5;stroke-dasharray:5,5;" x1="1385.9014" x2="1385.9014" y1="137.9531" y2="1309.9297"/></g></g><g class="participant-lifeline" data-entity-uid="part8" data-qualified-name="Painter" data-source-line="21" id="part8-lifeline"><g><title>egui painter</title><rect fill="#000000" fill-opacity="0.00000" height="1171.9766" width="8" x="1597.395" y="137.9531"/><line style="stroke:#181818;stroke-width:0.5;stroke-dasharray:5,5;" x1="1600.5264" x2="1600.5264" y1="137.9531" y2="1309.9297"/></g></g><g class="participant participant-head" data-entity-uid="part1" data-qualified-name="Dev" data-source-line="14" id="part1-head"><text fill="#000000" font-family="sans-serif" font-size="14" lengthAdjust="spacing" textLength="68.3184" x="40" y="135">Developer</text><ellipse cx="77.1592" cy="69.9648" fill="#E2E2F0" rx="8" ry="8" style="stroke:#181818;stroke-width:0.5;"/><path d="M77.1592,77.9648 L77.1592,104.9648 M64.1592,85.9648 L90.1592,85.9648 M77.1592,104.9648 L64.1592,119.9648 M77.1592,104.9648 L90.1592,119.9648" fill="none" style="stroke:#181818;stroke-width:0.5;"/></g><g class="participant participant-tail" data-entity-uid="part1" data-qualified-name="Dev" data-source-line="14" id="part1-tail"><text fill="#000000" font-family="sans-serif" font-size="14" lengthAdjust="spacing" textLength="68.3184" x="40" y="1322.4648">Developer</text><ellipse cx="77.1592" cy="1333.918" fill="#E2E2F0" rx="8" ry="8" style="stroke:#181818;stroke-width:0.5;"/><path d="M77.1592,1341.918 L77.1592,1368.918 M64.1592,1349.918 L90.1592,1349.918 M77.1592,1368.918 L64.1592,1383.918 M77.1592,1368.918 L90.1592,1383.918" fill="none" style="stroke:#181818;stroke-width:0.5;"/></g><g class="participant participant-head" data-entity-uid="part2" data-qualified-name="Viewer" data-source-line="15" id="part2-head"><rect fill="#E2E2F0" height="46.9766" rx="2.5" ry="2.5" style="stroke:#181818;stroke-width:0.5;" width="106.5244" x="226.793" y="89.9766"/><text fill="#000000" font-family="sans-serif" font-size="14" lengthAdjust="spacing" textLength="74.9971" x="242.5566" y="110.5117">MddViewer</text><text fill="#000000" font-family="sans-serif" font-size="14" lengthAdjust="spacing" textLength="92.5244" x="233.793" y="127">(eframe::App)</text></g><g class="participant participant-tail" data-entity-uid="part2" data-qualified-name="Viewer" data-source-line="15" id="part2-tail"><rect fill="#E2E2F0" height="46.9766" rx="2.5" ry="2.5" style="stroke:#181818;stroke-width:0.5;" width="106.5244" x="226.793" y="1308.9297"/><text fill="#000000" font-family="sans-serif" font-size="14" lengthAdjust="spacing" textLength="74.9971" x="242.5566" y="1329.4648">MddViewer</text><text fill="#000000" font-family="sans-serif" font-size="14" lengthAdjust="spacing" textLength="92.5244" x="233.793" y="1345.9531">(eframe::App)</text></g><g class="participant participant-head" data-entity-uid="part3" data-qualified-name="DV" data-source-line="16" id="part3-head"><rect fill="#E2E2F0" height="46.9766" rx="2.5" ry="2.5" style="stroke:#181818;stroke-width:0.5;" width="248.876" x="343.3174" y="89.9766"/><text fill="#000000" font-family="sans-serif" font-size="14" lengthAdjust="spacing" textLength="56.6152" x="439.4478" y="110.5117">DiffView</text><text fill="#000000" font-family="sans-serif" font-size="14" lengthAdjust="spacing" textLength="234.876" x="350.3174" y="127">(selected cycle + file + sub-mode)</text></g><g class="participant participant-tail" data-entity-uid="part3" data-qualified-name="DV" data-source-line="16" id="part3-tail"><rect fill="#E2E2F0" height="46.9766" rx="2.5" ry="2.5" style="stroke:#181818;stroke-width:0.5;" width="248.876" x="343.3174" y="1308.9297"/><text fill="#000000" font-family="sans-serif" font-size="14" lengthAdjust="spacing" textLength="56.6152" x="439.4478" y="1329.4648">DiffView</text><text fill="#000000" font-family="sans-serif" font-size="14" lengthAdjust="spacing" textLength="234.876" x="350.3174" y="1345.9531">(selected cycle + file + sub-mode)</text></g><g class="participant participant-head" data-entity-uid="part4" data-qualified-name="Reg" data-source-line="17" id="part4-head"><rect fill="#E2E2F0" height="46.9766" rx="2.5" ry="2.5" style="stroke:#181818;stroke-width:0.5;" width="104.8633" x="724.7119" y="89.9766"/><text fill="#000000" font-family="sans-serif" font-size="14" lengthAdjust="spacing" textLength="90.8633" x="731.7119" y="110.5117">CycleRegistry</text><text fill="#000000" font-family="sans-serif" font-size="14" lengthAdjust="spacing" textLength="77.1982" x="738.5444" y="127">(mdd-core)</text></g><g class="participant participant-tail" data-entity-uid="part4" data-qualified-name="Reg" data-source-line="17" id="part4-tail"><rect fill="#E2E2F0" height="46.9766" rx="2.5" ry="2.5" style="stroke:#181818;stroke-width:0.5;" width="104.8633" x="724.7119" y="1308.9297"/><text fill="#000000" font-family="sans-serif" font-size="14" lengthAdjust="spacing" textLength="90.8633" x="731.7119" y="1329.4648">CycleRegistry</text><text fill="#000000" font-family="sans-serif" font-size="14" lengthAdjust="spacing" textLength="77.1982" x="738.5444" y="1345.9531">(mdd-core)</text></g><g class="participant participant-head" data-entity-uid="part5" data-qualified-name="Store" data-source-line="18" id="part5-head"><text fill="#000000" font-family="sans-serif" font-size="14" lengthAdjust="spacing" textLength="128.7344" x="948.5366" y="102.0234">.mdd/cycles/&lt;n&gt;/</text><text fill="#000000" font-family="sans-serif" font-size="14" lengthAdjust="spacing" textLength="171.2197" x="927.2939" y="118.5117">manifest, before/, after/,</text><text fill="#000000" font-family="sans-serif" font-size="14" lengthAdjust="spacing" textLength="185.5068" x="920.1504" y="135">&lt;kind&gt;/&lt;name&gt;.diff.puml</text><path d="M997.9038,52.4883 C997.9038,42.4883 1015.9038,42.4883 1015.9038,42.4883 C1015.9038,42.4883 1033.9038,42.4883 1033.9038,52.4883 L1033.9038,78.4883 C1033.9038,88.4883 1015.9038,88.4883 1015.9038,88.4883 C1015.9038,88.4883 997.9038,88.4883 997.9038,78.4883 L997.9038,52.4883" fill="#E2E2F0" style="stroke:#181818;stroke-width:0.5;"/><path d="M997.9038,52.4883 C997.9038,62.4883 1015.9038,62.4883 1015.9038,62.4883 C1015.9038,62.4883 1033.9038,62.4883 1033.9038,52.4883" fill="none" style="stroke:#181818;stroke-width:0.5;"/></g><g class="participant participant-tail" data-entity-uid="part5" data-qualified-name="Store" data-source-line="18" id="part5-tail"><text fill="#000000" font-family="sans-serif" font-size="14" lengthAdjust="spacing" textLength="128.7344" x="948.5366" y="1322.4648">.mdd/cycles/&lt;n&gt;/</text><text fill="#000000" font-family="sans-serif" font-size="14" lengthAdjust="spacing" textLength="171.2197" x="927.2939" y="1338.9531">manifest, before/, after/,</text><text fill="#000000" font-family="sans-serif" font-size="14" lengthAdjust="spacing" textLength="185.5068" x="920.1504" y="1355.4414">&lt;kind&gt;/&lt;name&gt;.diff.puml</text><path d="M997.9038,1368.3945 C997.9038,1358.3945 1015.9038,1358.3945 1015.9038,1358.3945 C1015.9038,1358.3945 1033.9038,1358.3945 1033.9038,1368.3945 L1033.9038,1394.3945 C1033.9038,1404.3945 1015.9038,1404.3945 1015.9038,1404.3945 C1015.9038,1404.3945 997.9038,1404.3945 997.9038,1394.3945 L997.9038,1368.3945" fill="#E2E2F0" style="stroke:#181818;stroke-width:0.5;"/><path d="M997.9038,1368.3945 C997.9038,1378.3945 1015.9038,1378.3945 1015.9038,1378.3945 C1015.9038,1378.3945 1033.9038,1378.3945 1033.9038,1368.3945" fill="none" style="stroke:#181818;stroke-width:0.5;"/></g><g class="participant participant-head" data-entity-uid="part6" data-qualified-name="Rendered" data-source-line="19" id="part6-head"><text fill="#000000" font-family="sans-serif" font-size="14" lengthAdjust="spacing" textLength="197.2441" x="1121.6572" y="118.5117">.mdd/rendered/cycles/&lt;n&gt;/</text><text fill="#000000" font-family="sans-serif" font-size="14" lengthAdjust="spacing" textLength="174.002" x="1133.2783" y="135">&lt;kind&gt;/&lt;name&gt;.diff.svg</text><path d="M1205.2793,68.9766 C1205.2793,58.9766 1223.2793,58.9766 1223.2793,58.9766 C1223.2793,58.9766 1241.2793,58.9766 1241.2793,68.9766 L1241.2793,94.9766 C1241.2793,104.9766 1223.2793,104.9766 1223.2793,104.9766 C1223.2793,104.9766 1205.2793,104.9766 1205.2793,94.9766 L1205.2793,68.9766" fill="#E2E2F0" style="stroke:#181818;stroke-width:0.5;"/><path d="M1205.2793,68.9766 C1205.2793,78.9766 1223.2793,78.9766 1223.2793,78.9766 C1223.2793,78.9766 1241.2793,78.9766 1241.2793,68.9766" fill="none" style="stroke:#181818;stroke-width:0.5;"/></g><g class="participant participant-tail" data-entity-uid="part6" data-qualified-name="Rendered" data-source-line="19" id="part6-tail"><text fill="#000000" font-family="sans-serif" font-size="14" lengthAdjust="spacing" textLength="197.2441" x="1121.6572" y="1322.4648">.mdd/rendered/cycles/&lt;n&gt;/</text><text fill="#000000" font-family="sans-serif" font-size="14" lengthAdjust="spacing" textLength="174.002" x="1133.2783" y="1338.9531">&lt;kind&gt;/&lt;name&gt;.diff.svg</text><path d="M1205.2793,1351.9063 C1205.2793,1341.9063 1223.2793,1341.9063 1223.2793,1341.9063 C1223.2793,1341.9063 1241.2793,1341.9063 1241.2793,1351.9063 L1241.2793,1377.9063 C1241.2793,1387.9063 1223.2793,1387.9063 1223.2793,1387.9063 C1223.2793,1387.9063 1205.2793,1387.9063 1205.2793,1377.9063 L1205.2793,1351.9063" fill="#E2E2F0" style="stroke:#181818;stroke-width:0.5;"/><path d="M1205.2793,1351.9063 C1205.2793,1361.9063 1223.2793,1361.9063 1223.2793,1361.9063 C1223.2793,1361.9063 1241.2793,1361.9063 1241.2793,1351.9063" fill="none" style="stroke:#181818;stroke-width:0.5;"/></g><g class="participant participant-head" data-entity-uid="part7" data-qualified-name="Page" data-source-line="20" id="part7-head"><rect fill="#E2E2F0" height="46.9766" rx="2.5" ry="2.5" style="stroke:#181818;stroke-width:0.5;" width="103.5234" x="1334.9014" y="89.9766"/><text fill="#000000" font-family="sans-serif" font-size="14" lengthAdjust="spacing" textLength="89.5234" x="1341.9014" y="110.5117">DiagramPage</text><text fill="#000000" font-family="sans-serif" font-size="14" lengthAdjust="spacing" textLength="84.8887" x="1344.2188" y="127">(usvg/resvg)</text></g><g class="participant participant-tail" data-entity-uid="part7" data-qualified-name="Page" data-source-line="20" id="part7-tail"><rect fill="#E2E2F0" height="46.9766" rx="2.5" ry="2.5" style="stroke:#181818;stroke-width:0.5;" width="103.5234" x="1334.9014" y="1308.9297"/><text fill="#000000" font-family="sans-serif" font-size="14" lengthAdjust="spacing" textLength="89.5234" x="1341.9014" y="1329.4648">DiagramPage</text><text fill="#000000" font-family="sans-serif" font-size="14" lengthAdjust="spacing" textLength="84.8887" x="1344.2188" y="1345.9531">(usvg/resvg)</text></g><g class="participant participant-head" data-entity-uid="part8" data-qualified-name="Painter" data-source-line="21" id="part8-head"><rect fill="#E2E2F0" height="30.4883" rx="2.5" ry="2.5" style="stroke:#181818;stroke-width:0.5;" width="95.7373" x="1553.5264" y="106.4648"/><text fill="#000000" font-family="sans-serif" font-size="14" lengthAdjust="spacing" textLength="81.7373" x="1560.5264" y="127">egui painter</text></g><g class="participant participant-tail" data-entity-uid="part8" data-qualified-name="Painter" data-source-line="21" id="part8-tail"><rect fill="#E2E2F0" height="30.4883" rx="2.5" ry="2.5" style="stroke:#181818;stroke-width:0.5;" width="95.7373" x="1553.5264" y="1308.9297"/><text fill="#000000" font-family="sans-serif" font-size="14" lengthAdjust="spacing" textLength="81.7373" x="1560.5264" y="1329.4648">egui painter</text></g><g class="message" data-entity-1="part1" data-entity-2="part2" data-source-line="23" id="msg1"><polygon fill="#181818" points="268.0552,165.2637,278.0552,169.2637,268.0552,173.2637,272.0552,169.2637" style="stroke:#181818;stroke-width:1;"/><line style="stroke:#181818;stroke-width:1;" x1="77.1592" x2="274.0552" y1="169.2637" y2="169.2637"/><text fill="#000000" font-family="sans-serif" font-size="13" lengthAdjust="spacing" textLength="178.896" x="84.1592" y="164.5215">select model file F in the rail</text></g><g class="message" data-entity-1="part1" data-entity-2="part2" data-source-line="24" id="msg2"><polygon fill="#181818" points="268.0552,194.5742,278.0552,198.5742,268.0552,202.5742,272.0552,198.5742" style="stroke:#181818;stroke-width:1;"/><line style="stroke:#181818;stroke-width:1;" x1="77.1592" x2="274.0552" y1="198.5742" y2="198.5742"/><text fill="#000000" font-family="sans-serif" font-size="13" lengthAdjust="spacing" textLength="98.3062" x="84.1592" y="193.832">open Diff mode</text></g><g class="message" data-entity-1="part2" data-entity-2="part4" data-source-line="25" id="msg3"><polygon fill="#181818" points="765.1436,223.8848,775.1436,227.8848,765.1436,231.8848,769.1436,227.8848" style="stroke:#181818;stroke-width:1;"/><line style="stroke:#181818;stroke-width:1;" x1="280.0552" x2="771.1436" y1="227.8848" y2="227.8848"/><text fill="#000000" font-family="sans-serif" font-size="13" lengthAdjust="spacing" textLength="138.9502" x="287.0552" y="223.1426">cycles_with_diff_for(F)</text></g><g class="message" data-entity-1="part4" data-entity-2="part5" data-source-line="26" id="msg4"><polygon fill="#181818" points="1003.9038,253.1953,1013.9038,257.1953,1003.9038,261.1953,1007.9038,257.1953" style="stroke:#181818;stroke-width:1;"/><line style="stroke:#181818;stroke-width:1;" x1="777.1436" x2="1009.9038" y1="257.1953" y2="257.1953"/><text fill="#000000" font-family="sans-serif" font-size="13" lengthAdjust="spacing" textLength="214.7603" x="784.1436" y="252.4531">scan cycles + cycle_diffs per cycle</text></g><path d="M782,270.1953 L782,356.1953 L1097,356.1953 L1097,280.1953 L1087,270.1953 L782,270.1953" fill="#FEFFDD" style="stroke:#181818;stroke-width:0.5;"/><path d="M1087,270.1953 L1087,280.1953 L1097,280.1953 L1087,270.1953" fill="#FEFFDD" style="stroke:#181818;stroke-width:0.5;"/><text fill="#000000" font-family="sans-serif" font-size="13" lengthAdjust="spacing" textLength="292.9888" x="788" y="287.7637">A cycle counts ONLY if it actually changed F &#8212;</text><text fill="#000000" font-family="sans-serif" font-size="13" lengthAdjust="spacing" textLength="294.563" x="788" y="303.0742">its CycleDiff for key(F) has a non-empty added</text><text fill="#000000" font-family="sans-serif" font-size="13" lengthAdjust="spacing" textLength="291.1924" x="788" y="318.3848">or removed set (a written .diff.puml/.diff.svg).</text><text fill="#000000" font-family="sans-serif" font-size="13" lengthAdjust="spacing" textLength="276.6943" x="788" y="333.6953">A file merely present unchanged in a cycle's</text><text fill="#000000" font-family="sans-serif" font-size="13" lengthAdjust="spacing" textLength="294.6392" x="788" y="349.0059">before/after snapshot does NOT make the list.</text><g class="message" data-entity-1="part4" data-entity-2="part3" data-source-line="34" id="msg5"><polygon fill="#181818" points="478.7554,394.3691,468.7554,398.3691,478.7554,402.3691,474.7554,398.3691" style="stroke:#181818;stroke-width:1;"/><line style="stroke:#181818;stroke-width:1;stroke-dasharray:2,2;" x1="472.7554" x2="776.1436" y1="398.3691" y2="398.3691"/><text fill="#000000" font-family="sans-serif" font-size="13" lengthAdjust="spacing" textLength="174.0654" x="484.7554" y="378.3164">[cycles that changed key(F)]</text><text fill="#000000" font-family="sans-serif" font-size="13" lengthAdjust="spacing" textLength="81.9736" x="484.7554" y="393.627">(newest first)</text></g><g class="message" data-entity-1="part3" data-entity-2="part3" data-source-line="35" id="msg6"><line style="stroke:#181818;stroke-width:1;" x1="467.7554" x2="509.7554" y1="427.6797" y2="427.6797"/><line style="stroke:#181818;stroke-width:1;" x1="509.7554" x2="509.7554" y1="427.6797" y2="440.6797"/><line style="stroke:#181818;stroke-width:1;" x1="468.7554" x2="509.7554" y1="440.6797" y2="440.6797"/><polygon fill="#181818" points="478.7554,436.6797,468.7554,440.6797,478.7554,444.6797,474.7554,440.6797" style="stroke:#181818;stroke-width:1;"/><text fill="#000000" font-family="sans-serif" font-size="13" lengthAdjust="spacing" textLength="186.9258" x="474.7554" y="422.9375">key = kind(F) + "/" + name(F)</text></g><path d="M30,455.6797 L97.1851,455.6797 L97.1851,462.9902 L87.1851,472.9902 L30,472.9902 L30,455.6797" fill="#EEEEEE" style="stroke:#000000;stroke-width:1.5;"/><rect fill="none" height="75.9316" style="stroke:#000000;stroke-width:1.5;" width="1629.2637" x="30" y="455.6797"/><text fill="#000000" font-family="sans-serif" font-size="13" font-weight="700" lengthAdjust="spacing" textLength="22.1851" x="45" y="469.248">opt</text><text fill="#000000" font-family="sans-serif" font-size="11" font-weight="700" lengthAdjust="spacing" textLength="115.5" x="112.1851" y="468.3145">[no cycle changed F]</text><g class="message" data-entity-1="part3" data-entity-2="part8" data-source-line="38" id="msg7"><polygon fill="#181818" points="1589.395,490.3008,1599.395,494.3008,1589.395,498.3008,1593.395,494.3008" style="stroke:#181818;stroke-width:1;"/><line style="stroke:#181818;stroke-width:1;" x1="467.7554" x2="1595.395" y1="494.3008" y2="494.3008"/><text fill="#000000" font-family="sans-serif" font-size="13" lengthAdjust="spacing" textLength="292.646" x="474.7554" y="489.5586">text("This diagram didn't change in any cycle")</text></g><g class="message" data-entity-1="part8" data-entity-2="part1" data-source-line="39" id="msg8"><polygon fill="#181818" points="88.1592,519.6113,78.1592,523.6113,88.1592,527.6113,84.1592,523.6113" style="stroke:#181818;stroke-width:1;"/><line style="stroke:#181818;stroke-width:1;stroke-dasharray:2,2;" x1="82.1592" x2="1600.395" y1="523.6113" y2="523.6113"/><text fill="#000000" font-family="sans-serif" font-size="13" lengthAdjust="spacing" textLength="73.5757" x="94.1592" y="518.8691">placeholder</text></g><path d="M30,545.6113 L92.1387,545.6113 L92.1387,552.9219 L82.1387,562.9219 L30,562.9219 L30,545.6113" fill="#EEEEEE" style="stroke:#000000;stroke-width:1.5;"/><rect fill="none" height="106.1973" style="stroke:#000000;stroke-width:1.5;" width="572.1934" x="30" y="545.6113"/><text fill="#000000" font-family="sans-serif" font-size="13" font-weight="700" lengthAdjust="spacing" textLength="17.1387" x="45" y="559.1797">alt</text><text fill="#000000" font-family="sans-serif" font-size="11" font-weight="700" lengthAdjust="spacing" textLength="134.1055" x="107.1387" y="558.2461">[exactly one such cycle]</text><g class="message" data-entity-1="part3" data-entity-2="part1" data-source-line="43" id="msg9"><polygon fill="#181818" points="88.1592,580.2324,78.1592,584.2324,88.1592,588.2324,84.1592,584.2324" style="stroke:#181818;stroke-width:1;"/><line style="stroke:#181818;stroke-width:1;" x1="82.1592" x2="466.7554" y1="584.2324" y2="584.2324"/><text fill="#000000" font-family="sans-serif" font-size="13" lengthAdjust="spacing" textLength="213.8652" x="94.1592" y="579.4902">caption "Cycle NNNN" (no control)</text></g><line style="stroke:#000000;stroke-width:1;stroke-dasharray:2,2;" x1="30" x2="602.1934" y1="593.2324" y2="593.2324"/><text fill="#000000" font-family="sans-serif" font-size="11" font-weight="700" lengthAdjust="spacing" textLength="48.834" x="35" y="603.8672">[several]</text><g class="message" data-entity-1="part3" data-entity-2="part1" data-source-line="45" id="msg10"><polygon fill="#181818" points="88.1592,639.8086,78.1592,643.8086,88.1592,647.8086,84.1592,643.8086" style="stroke:#181818;stroke-width:1;"/><line style="stroke:#181818;stroke-width:1;" x1="82.1592" x2="466.7554" y1="643.8086" y2="643.8086"/><text fill="#000000" font-family="sans-serif" font-size="13" lengthAdjust="spacing" textLength="169.7681" x="94.1592" y="623.7559">chips of ONLY those cycles</text><text fill="#000000" font-family="sans-serif" font-size="13" lengthAdjust="spacing" textLength="195.6157" x="94.1592" y="639.0664">(default = latest); pick one = N</text></g><g class="message" data-entity-1="part3" data-entity-2="part3" data-source-line="47" id="msg11"><line style="stroke:#181818;stroke-width:1;" x1="467.7554" x2="509.7554" y1="680.1191" y2="680.1191"/><line style="stroke:#181818;stroke-width:1;" x1="509.7554" x2="509.7554" y1="680.1191" y2="693.1191"/><line style="stroke:#181818;stroke-width:1;" x1="468.7554" x2="509.7554" y1="693.1191" y2="693.1191"/><polygon fill="#181818" points="478.7554,689.1191,468.7554,693.1191,478.7554,697.1191,474.7554,693.1191" style="stroke:#181818;stroke-width:1;"/><text fill="#000000" font-family="sans-serif" font-size="13" lengthAdjust="spacing" textLength="149.2144" x="474.7554" y="675.377">bind(cycle = N, file = F)</text></g><path d="M10,708.1191 L72.1387,708.1191 L72.1387,715.4297 L62.1387,725.4297 L10,725.4297 L10,708.1191" fill="#EEEEEE" style="stroke:#000000;stroke-width:1.5;"/><rect fill="none" height="494.8789" style="stroke:#000000;stroke-width:1.5;" width="1887.1445" x="10" y="708.1191"/><text fill="#000000" font-family="sans-serif" font-size="13" font-weight="700" lengthAdjust="spacing" textLength="17.1387" x="25" y="721.6875">alt</text><text fill="#000000" font-family="sans-serif" font-size="11" font-weight="700" lengthAdjust="spacing" textLength="183.2939" x="87.1387" y="720.7539">[sub-mode = Diagram (default)]</text><g class="message" data-entity-1="part3" data-entity-2="part6" data-source-line="50" id="msg12"><polygon fill="#181818" points="1211.2793,742.7402,1221.2793,746.7402,1211.2793,750.7402,1215.2793,746.7402" style="stroke:#181818;stroke-width:1;"/><line style="stroke:#181818;stroke-width:1;" x1="467.7554" x2="1217.2793" y1="746.7402" y2="746.7402"/><text fill="#000000" font-family="sans-serif" font-size="13" lengthAdjust="spacing" textLength="374.6133" x="474.7554" y="741.998">resolve .mdd/rendered/cycles/N/&lt;kind&gt;/&lt;name&gt;.diff.svg</text></g><path d="M20,761.7402 L82.1387,761.7402 L82.1387,769.0508 L72.1387,779.0508 L20,779.0508 L20,761.7402" fill="#EEEEEE" style="stroke:#000000;stroke-width:1.5;"/><rect fill="none" height="318.3711" style="stroke:#000000;stroke-width:1.5;" width="1867.1445" x="20" y="761.7402"/><text fill="#000000" font-family="sans-serif" font-size="13" font-weight="700" lengthAdjust="spacing" textLength="17.1387" x="35" y="775.3086">alt</text><text fill="#000000" font-family="sans-serif" font-size="11" font-weight="700" lengthAdjust="spacing" textLength="131.7959" x="97.1387" y="774.375">[rendered SVG present]</text><g class="message" data-entity-1="part6" data-entity-2="part7" data-source-line="52" id="msg13"><polygon fill="#181818" points="1374.6631,796.3613,1384.6631,800.3613,1374.6631,804.3613,1378.6631,800.3613" style="stroke:#181818;stroke-width:1;"/><line style="stroke:#181818;stroke-width:1;stroke-dasharray:2,2;" x1="1223.2793" x2="1380.6631" y1="800.3613" y2="800.3613"/><text fill="#000000" font-family="sans-serif" font-size="13" lengthAdjust="spacing" textLength="59.2808" x="1230.2793" y="795.6191">svg bytes</text></g><g class="message" data-entity-1="part7" data-entity-2="part7" data-source-line="53" id="msg14"><line style="stroke:#181818;stroke-width:1;" x1="1386.6631" x2="1428.6631" y1="829.6719" y2="829.6719"/><line style="stroke:#181818;stroke-width:1;" x1="1428.6631" x2="1428.6631" y1="829.6719" y2="842.6719"/><line style="stroke:#181818;stroke-width:1;" x1="1387.6631" x2="1428.6631" y1="842.6719" y2="842.6719"/><polygon fill="#181818" points="1397.6631,838.6719,1387.6631,842.6719,1397.6631,846.6719,1393.6631,842.6719" style="stroke:#181818;stroke-width:1;"/><text fill="#000000" font-family="sans-serif" font-size="13" lengthAdjust="spacing" textLength="200.7319" x="1393.6631" y="824.9297">rasterize at base zoom (cached)</text></g><path d="M30,857.6719 L104.4468,857.6719 L104.4468,864.9824 L94.4468,874.9824 L30,874.9824 L30,857.6719" fill="#EEEEEE" style="stroke:#000000;stroke-width:1.5;"/><rect fill="none" height="141.8633" style="stroke:#000000;stroke-width:1.5;" width="1847.1445" x="30" y="857.6719"/><text fill="#000000" font-family="sans-serif" font-size="13" font-weight="700" lengthAdjust="spacing" textLength="29.4468" x="45" y="871.2402">loop</text><text fill="#000000" font-family="sans-serif" font-size="11" font-weight="700" lengthAdjust="spacing" textLength="117.2832" x="119.4468" y="870.3066">[each painted frame]</text><g class="message" data-entity-1="part3" data-entity-2="part8" data-source-line="55" id="msg15"><polygon fill="#181818" points="1589.395,892.293,1599.395,896.293,1589.395,900.293,1593.395,896.293" style="stroke:#181818;stroke-width:1;"/><line style="stroke:#181818;stroke-width:1;" x1="467.7554" x2="1595.395" y1="896.293" y2="896.293"/><text fill="#000000" font-family="sans-serif" font-size="13" lengthAdjust="spacing" textLength="217.6548" x="474.7554" y="891.5508">paint diff page (pan/zoom reused)</text></g><path d="M1606,909.293 L1606,964.293 L1867,964.293 L1867,919.293 L1857,909.293 L1606,909.293" fill="#FEFFDD" style="stroke:#181818;stroke-width:0.5;"/><path d="M1857,909.293 L1857,919.293 L1867,919.293 L1857,909.293" fill="#FEFFDD" style="stroke:#181818;stroke-width:0.5;"/><text fill="#000000" font-family="sans-serif" font-size="13" lengthAdjust="spacing" textLength="217.6738" x="1612" y="926.8613">SVG already carries &#171;added&#187; green</text><text fill="#000000" font-family="sans-serif" font-size="13" lengthAdjust="spacing" textLength="240.1445" x="1612" y="942.1719">and &#171;removed&#187; red skinparams baked</text><text fill="#000000" font-family="sans-serif" font-size="13" lengthAdjust="spacing" textLength="188.043" x="1612" y="957.4824">in by SEQ-RENDER-DIFF-SVG.</text><g class="message" data-entity-1="part8" data-entity-2="part1" data-source-line="61" id="msg16"><polygon fill="#181818" points="88.1592,987.5352,78.1592,991.5352,88.1592,995.5352,84.1592,991.5352" style="stroke:#181818;stroke-width:1;"/><line style="stroke:#181818;stroke-width:1;stroke-dasharray:2,2;" x1="82.1592" x2="1600.395" y1="991.5352" y2="991.5352"/><text fill="#000000" font-family="sans-serif" font-size="13" lengthAdjust="spacing" textLength="155.2446" x="94.1592" y="986.793">superposed diff diagram</text></g><line style="stroke:#000000;stroke-width:1;stroke-dasharray:2,2;" x1="20" x2="1887.1445" y1="1007.5352" y2="1007.5352"/><text fill="#000000" font-family="sans-serif" font-size="11" font-weight="700" lengthAdjust="spacing" textLength="133.4556" x="25" y="1018.1699">[rendered SVG missing]</text><g class="message" data-entity-1="part3" data-entity-2="part8" data-source-line="64" id="msg17"><polygon fill="#181818" points="1589.395,1038.8008,1599.395,1042.8008,1589.395,1046.8008,1593.395,1042.8008" style="stroke:#181818;stroke-width:1;"/><line style="stroke:#181818;stroke-width:1;" x1="467.7554" x2="1595.395" y1="1042.8008" y2="1042.8008"/><text fill="#000000" font-family="sans-serif" font-size="13" lengthAdjust="spacing" textLength="313.9805" x="474.7554" y="1038.0586">text("No rendered diff &#8212; run the render pipeline")</text></g><g class="message" data-entity-1="part8" data-entity-2="part1" data-source-line="65" id="msg18"><polygon fill="#181818" points="88.1592,1068.1113,78.1592,1072.1113,88.1592,1076.1113,84.1592,1072.1113" style="stroke:#181818;stroke-width:1;"/><line style="stroke:#181818;stroke-width:1;stroke-dasharray:2,2;" x1="82.1592" x2="1600.395" y1="1072.1113" y2="1072.1113"/><text fill="#000000" font-family="sans-serif" font-size="13" lengthAdjust="spacing" textLength="73.5757" x="94.1592" y="1067.3691">placeholder</text></g><line style="stroke:#000000;stroke-width:1;stroke-dasharray:2,2;" x1="10" x2="1897.1445" y1="1088.1113" y2="1088.1113"/><text fill="#000000" font-family="sans-serif" font-size="11" font-weight="700" lengthAdjust="spacing" textLength="103.9897" x="15" y="1098.7461">[sub-mode = List]</text><g class="message" data-entity-1="part3" data-entity-2="part3" data-source-line="68" id="msg19"><line style="stroke:#181818;stroke-width:1;" x1="467.7554" x2="509.7554" y1="1123.377" y2="1123.377"/><line style="stroke:#181818;stroke-width:1;" x1="509.7554" x2="509.7554" y1="1123.377" y2="1136.377"/><line style="stroke:#181818;stroke-width:1;" x1="468.7554" x2="509.7554" y1="1136.377" y2="1136.377"/><polygon fill="#181818" points="478.7554,1132.377,468.7554,1136.377,478.7554,1140.377,474.7554,1136.377" style="stroke:#181818;stroke-width:1;"/><text fill="#000000" font-family="sans-serif" font-size="13" lengthAdjust="spacing" textLength="295.3882" x="474.7554" y="1118.6348">take CycleDiff(F).{unchanged, added, removed}</text></g><g class="message" data-entity-1="part3" data-entity-2="part8" data-source-line="69" id="msg20"><polygon fill="#181818" points="1589.395,1161.6875,1599.395,1165.6875,1589.395,1169.6875,1593.395,1165.6875" style="stroke:#181818;stroke-width:1;"/><line style="stroke:#181818;stroke-width:1;" x1="467.7554" x2="1595.395" y1="1165.6875" y2="1165.6875"/><text fill="#000000" font-family="sans-serif" font-size="13" lengthAdjust="spacing" textLength="317.5796" x="474.7554" y="1160.9453">shared neutral / added green / removed red (text)</text></g><g class="message" data-entity-1="part8" data-entity-2="part1" data-source-line="70" id="msg21"><polygon fill="#181818" points="88.1592,1190.998,78.1592,1194.998,88.1592,1198.998,84.1592,1194.998" style="stroke:#181818;stroke-width:1;"/><line style="stroke:#181818;stroke-width:1;stroke-dasharray:2,2;" x1="82.1592" x2="1600.395" y1="1194.998" y2="1194.998"/><text fill="#000000" font-family="sans-serif" font-size="13" lengthAdjust="spacing" textLength="155.8223" x="94.1592" y="1190.2559">per-file element buckets</text></g><path d="M30,1216.998 L97.1851,1216.998 L97.1851,1224.3086 L87.1851,1234.3086 L30,1234.3086 L30,1216.998" fill="#EEEEEE" style="stroke:#000000;stroke-width:1.5;"/><rect fill="none" height="75.9316" style="stroke:#000000;stroke-width:1.5;" width="1629.2637" x="30" y="1216.998"/><text fill="#000000" font-family="sans-serif" font-size="13" font-weight="700" lengthAdjust="spacing" textLength="22.1851" x="45" y="1230.5664">opt</text><text fill="#000000" font-family="sans-serif" font-size="11" font-weight="700" lengthAdjust="spacing" textLength="157.7759" x="112.1851" y="1229.6328">[cycle still Open (no after/)]</text><g class="message" data-entity-1="part3" data-entity-2="part8" data-source-line="74" id="msg22"><polygon fill="#181818" points="1589.395,1251.6191,1599.395,1255.6191,1589.395,1259.6191,1593.395,1255.6191" style="stroke:#181818;stroke-width:1;"/><line style="stroke:#181818;stroke-width:1;" x1="467.7554" x2="1595.395" y1="1255.6191" y2="1255.6191"/><text fill="#000000" font-family="sans-serif" font-size="13" lengthAdjust="spacing" textLength="261.2568" x="474.7554" y="1250.877">text("Diff available after the cycle closes")</text></g><g class="message" data-entity-1="part8" data-entity-2="part1" data-source-line="75" id="msg23"><polygon fill="#181818" points="88.1592,1280.9297,78.1592,1284.9297,88.1592,1288.9297,84.1592,1284.9297" style="stroke:#181818;stroke-width:1;"/><line style="stroke:#181818;stroke-width:1;stroke-dasharray:2,2;" x1="82.1592" x2="1600.395" y1="1284.9297" y2="1284.9297"/><text fill="#000000" font-family="sans-serif" font-size="13" lengthAdjust="spacing" textLength="73.5757" x="94.1592" y="1280.1875">placeholder</text></g><?plantuml-src ZLRRRXit47tVhnZenHAibTuTsuWHsK60H4vjrqNG506rEzAofiW5ISbHWWBzY7vXlwI7bzKbKThwmVQICyEPCtCEUK8lPTs_l_wflBkUJgxlobSVNhszBYTlRcu6nGczj3pl_tn_lRTSFhwv_kLWBwvEtbozlhjwXmritSv-vyhBDPTEranpPPvfRYnDv7nEIrFpY1uQfhNaPvAEddZ3DHbD7ejMI5KYXcE565YVIyKlubQrgHG7XwenZZKyr8R4qkX5sdAm4fv4vLT2gGs2L8tG2yI8wo4GzRMXXJ8peQYLrHFRmP1gdekLyX9nl8adAU7P-H5TQGIHMhF5pc81_-3aeir4YeKLItAhMHahwRUMIykwPeiZtQfbsoBF6Y56DIeVkVMYgx8IUYtSW01A-7mhdTyFnBQCsSvMID6xmIZ2-h9cLnrlrf1wMt198PfBw1p3PG-L3FS1rlJtdt-HH81NmJT6ROGZGTheafUj1-PrpVNOyjAiGwNigI_esKhlqPLOAr3LnjCIKE1008D--NAbkwDbWi5fqRe6XltSWupy2m3KUWcmv1o5eF-j4XKtHW7Si8PSUF1YsuDMIErpcR7a4xV3V9ZXRSopYuLbL4UzGU6bHyLtiMafetqe42NDN0X5VTEDzQ0e02PwrvlmcfL1lte4ZF1LjC9wMSbMQ4-zTtNzY8wo_QZxF4UcV7PsrRQ3Q9rs3Xq2t64TzjjCKWgdgJcdSKn2crEGoUDXWDYqErwWOhj1b6LTbvMnsHeRHIsyc0d7r1jXSvmcP7okBySVzL9eEGV-Gven2ClZ8OcvPpiUVjJdJrBNbp145PS9t7QrL37kFS3WRoDtL3WyuaWOz2Xdbno-XIJs-BrOCEfPmHYHyJjL59OFxNcnacaWSbVUf_-B0ksXyZBZJcUvrv4pAg5xqmrceCLtzkYptcbOaTTX0LYndShyz2nzyodKzGa8zY6ZOHT64QDmAhZVyV8q_HFD7M6CqdS1xY07kMWycNdi6j5L7eJAhCAitqxVVWXCa4U8VHCu39T35WS5XjGYfUE4XWCi_etLiU7ZRTCWIo6jYDmXq-c0wQBZ9CppNCMfsj6_DW1ZUlj0I_74IO4nmAC20n5qX1E6077o20H_tLUrxfnKsMyO4Ossk23trlb10O_E3oPqGM7-0WQdr1lty3iCOcXJOLgFmpgKEoYHSmgHnmXnF7_s_Tv3WvkepW9KorgVTCd4cdKMNuWCRNrZ2PYgitqz2rL2K21-_1cj18eGDz2yQl8qT1aapquP4zLfYfzUlDOgexqrQb2mSa78rco5-jQvaQqBCnN7nuTxDCyYWEiq-2AhC0GsN7SndGkQnZptu9m581DQs1scERYW06KefjCfB7KotPqms6RLKHxXC3b6hPcEQiTqV5mt42YSjRrrxnzVTpE8BTh5BsC75v60k8Pd6nGOBUBYRjCAXqR9BqoOhIXcNun1vfMe6gu7qKKPqn9Z8SiCBeiWxN7l-sc9Dka6QSCPVSZKE0Qrl79TJA93pdUYHVad52QKPL5ZheIr4lD_VXvvUtb92ykijxO2h3a_pqJ6RdoE03x8f5ZY-WF7wgqnPdMseRr7HNpEuRXHDjboC7r-FygxbqwgCdEYoCxu6mVoe4TBwHpUMyKnm1AzfcRd4SE6PubTPNbE5tOhMrPI9uxz5yjICeaRkz4CJuCTHy9O-o11MzM4Ceo-RjLic9HosAda7qVKmJKYvAnvvS4_6YUNr29yTVeQRFgXr1_eG_S4n1sr38gQ7or9B89K9UOvBvMYst0p1Gr8j_NWXw8LBmAnnkqcPl1EChnxMrSARNJ_JxB-0G00?></g></svg>