<svg xmlns="http://www.w3.org/2000/svg" xmlns:xlink="http://www.w3.org/1999/xlink" contentStyleType="text/css" data-diagram-type="SEQUENCE" height="1411px" preserveAspectRatio="none" style="width:1387px;height:1411px;background:#FFFFFF;" version="1.1" viewBox="0 0 1387 1411" width="1387px" zoomAndPan="magnify"><?plantuml 1.2026.3?><defs/><g><g class="title" data-source-line="9"><text fill="#000000" font-family="sans-serif" font-size="14" font-weight="700" lengthAdjust="spacing" textLength="386.1006" x="497.0327" y="28.5352">Run a full MDD cycle from one description (objective)</text></g><rect fill="none" height="132.1973" style="stroke:#000000;stroke-width:1.5;" width="367.9775" x="265.1904" y="167.7754"/><rect fill="none" height="83.2422" style="stroke:#000000;stroke-width:1.5;" width="287.1621" x="807" y="417.2148"/><rect fill="none" height="646.7422" style="stroke:#000000;stroke-width:1.5;" width="1361.166" x="10" y="543.7676"/><rect fill="none" height="120.1973" style="stroke:#000000;stroke-width:1.5;" width="882.6826" x="265.1904" y="597.3887"/><rect fill="none" height="141.8633" style="stroke:#000000;stroke-width:1.5;" width="631.728" x="20" y="731.5859"/><rect fill="none" height="90.8867" style="stroke:#000000;stroke-width:1.5;" width="1095.9756" x="265.1904" y="1092.623"/><g class="participant-lifeline" data-entity-uid="part1" data-qualified-name="Dev" data-source-line="11" id="part1-lifeline"><g><title>Developer</title><rect fill="#000000" fill-opacity="0.00000" height="1204.5977" width="8" x="63.1592" y="121.4648"/><line style="stroke:#181818;stroke-width:0.5;stroke-dasharray:5,5;" x1="67" x2="67" y1="121.4648" y2="1326.0625"/></g></g><g class="participant-lifeline" data-entity-uid="part2" data-qualified-name="Orch" data-source-line="12" id="part2-lifeline"><g><title>.mdd-cycle</title><rect fill="#000000" fill-opacity="0.00000" height="1204.5977" width="8" x="343.8838" y="121.4648"/><line style="stroke:#181818;stroke-width:0.5;stroke-dasharray:5,5;" x1="347.1904" x2="347.1904" y1="121.4648" y2="1326.0625"/></g></g><g class="participant-lifeline" data-entity-uid="part3" data-qualified-name="Store" data-source-line="13" id="part3-lifeline"><g><title>.mdd.cycles..n..</title><rect fill="#000000" fill-opacity="0.00000" height="1204.5977" width="8" x="647.7837" y="121.4648"/><line style="stroke:#181818;stroke-width:0.5;stroke-dasharray:5,5;" x1="650.8359" x2="650.8359" y1="121.4648" y2="1326.0625"/></g></g><g class="participant-lifeline" data-entity-uid="part4" data-qualified-name="Entry" data-source-line="14" id="part4-lifeline"><g><title>.mdd-generate</title><rect fill="#000000" fill-opacity="0.00000" height="1204.5977" width="8" x="808.5562" y="121.4648"/><line style="stroke:#181818;stroke-width:0.5;stroke-dasharray:5,5;" x1="811.7314" x2="811.7314" y1="121.4648" y2="1326.0625"/></g></g><g class="participant-lifeline" data-entity-uid="part5" data-qualified-name="Val" data-source-line="15" id="part5-lifeline"><g><title>.mdd-validate</title><rect fill="#000000" fill-opacity="0.00000" height="1204.5977" width="8" x="934.7739" y="121.4648"/><line style="stroke:#181818;stroke-width:0.5;stroke-dasharray:5,5;" x1="938.3809" x2="938.3809" y1="121.4648" y2="1326.0625"/></g></g><g class="participant-lifeline" data-entity-uid="part6" data-qualified-name="Impl" data-source-line="16" id="part6-lifeline"><g><title>.mdd-implement</title><rect fill="#000000" fill-opacity="0.00000" height="1204.5977" width="8" x="1067.52" y="121.4648"/><line style="stroke:#181818;stroke-width:0.5;stroke-dasharray:5,5;" x1="1071.167" x2="1071.167" y1="121.4648" y2="1326.0625"/></g></g><g class="participant-lifeline" data-entity-uid="part7" data-qualified-name="Map" data-source-line="17" id="part7-lifeline"><g><title>.mdd-map</title><rect fill="#000000" fill-opacity="0.00000" height="1204.5977" width="8" x="1188.7476" y="121.4648"/><line style="stroke:#181818;stroke-width:0.5;stroke-dasharray:5,5;" x1="1191.873" x2="1191.873" y1="121.4648" y2="1326.0625"/></g></g><g class="participant-lifeline" data-entity-uid="part8" data-qualified-name="Rev" data-source-line="18" id="part8-lifeline"><g><title>.mdd-review</title><rect fill="#000000" fill-opacity="0.00000" height="1204.5977" width="8" x="1295.394" y="121.4648"/><line style="stroke:#181818;stroke-width:0.5;stroke-dasharray:5,5;" x1="1298.6221" x2="1298.6221" y1="121.4648" y2="1326.0625"/></g></g><g class="participant participant-head" data-entity-uid="part1" data-qualified-name="Dev" data-source-line="11" id="part1-head"><text fill="#000000" font-family="sans-serif" font-size="14" lengthAdjust="spacing" textLength="68.3184" x="30" y="118.5117">Developer</text><ellipse cx="67.1592" cy="53.4766" fill="#E2E2F0" rx="8" ry="8" style="stroke:#181818;stroke-width:0.5;"/><path d="M67.1592,61.4766 L67.1592,88.4766 M54.1592,69.4766 L80.1592,69.4766 M67.1592,88.4766 L54.1592,103.4766 M67.1592,88.4766 L80.1592,103.4766" fill="none" style="stroke:#181818;stroke-width:0.5;"/></g><g class="participant participant-tail" data-entity-uid="part1" data-qualified-name="Dev" data-source-line="11" id="part1-tail"><text fill="#000000" font-family="sans-serif" font-size="14" lengthAdjust="spacing" textLength="68.3184" x="30" y="1338.5977">Developer</text><ellipse cx="67.1592" cy="1350.0508" fill="#E2E2F0" rx="8" ry="8" style="stroke:#181818;stroke-width:0.5;"/><path d="M67.1592,1358.0508 L67.1592,1385.0508 M54.1592,1366.0508 L80.1592,1366.0508 M67.1592,1385.0508 L54.1592,1400.0508 M67.1592,1385.0508 L80.1592,1400.0508" fill="none" style="stroke:#181818;stroke-width:0.5;"/></g><g class="participant participant-head" data-entity-uid="part2" data-qualified-name="Orch" data-source-line="12" id="part2-head"><rect fill="#E2E2F0" height="46.9766" rx="2.5" ry="2.5" style="stroke:#181818;stroke-width:0.5;" width="145.3867" x="275.1904" y="73.4883"/><text fill="#000000" font-family="sans-serif" font-size="14" lengthAdjust="spacing" textLength="79.6387" x="308.0645" y="94.0234">/mdd-cycle</text><text fill="#000000" font-family="sans-serif" font-size="14" lengthAdjust="spacing" textLength="131.3867" x="282.1904" y="110.5117">(orchestration skill)</text></g><g class="participant participant-tail" data-entity-uid="part2" data-qualified-name="Orch" data-source-line="12" id="part2-tail"><rect fill="#E2E2F0" height="46.9766" rx="2.5" ry="2.5" style="stroke:#181818;stroke-width:0.5;" width="145.3867" x="275.1904" y="1325.0625"/><text fill="#000000" font-family="sans-serif" font-size="14" lengthAdjust="spacing" textLength="79.6387" x="308.0645" y="1345.5977">/mdd-cycle</text><text fill="#000000" font-family="sans-serif" font-size="14" lengthAdjust="spacing" textLength="131.3867" x="282.1904" y="1362.0859">(orchestration skill)</text></g><g class="participant participant-head" data-entity-uid="part3" data-qualified-name="Store" data-source-line="13" id="part3-head"><text fill="#000000" font-family="sans-serif" font-size="14" lengthAdjust="spacing" textLength="128.7344" x="584.4165" y="102.0234">.mdd/cycles/&lt;n&gt;/</text><text fill="#000000" font-family="sans-serif" font-size="14" lengthAdjust="spacing" textLength="175.8955" x="560.8359" y="118.5117">(manifest, before/, after/)</text><path d="M633.7837,52.4883 C633.7837,42.4883 651.7837,42.4883 651.7837,42.4883 C651.7837,42.4883 669.7837,42.4883 669.7837,52.4883 L669.7837,78.4883 C669.7837,88.4883 651.7837,88.4883 651.7837,88.4883 C651.7837,88.4883 633.7837,88.4883 633.7837,78.4883 L633.7837,52.4883" fill="#E2E2F0" style="stroke:#181818;stroke-width:0.5;"/><path d="M633.7837,52.4883 C633.7837,62.4883 651.7837,62.4883 651.7837,62.4883 C651.7837,62.4883 669.7837,62.4883 669.7837,52.4883" fill="none" style="stroke:#181818;stroke-width:0.5;"/></g><g class="participant participant-tail" data-entity-uid="part3" data-qualified-name="Store" data-source-line="13" id="part3-tail"><text fill="#000000" font-family="sans-serif" font-size="14" lengthAdjust="spacing" textLength="128.7344" x="584.4165" y="1338.5977">.mdd/cycles/&lt;n&gt;/</text><text fill="#000000" font-family="sans-serif" font-size="14" lengthAdjust="spacing" textLength="175.8955" x="560.8359" y="1355.0859">(manifest, before/, after/)</text><path d="M633.7837,1368.0391 C633.7837,1358.0391 651.7837,1358.0391 651.7837,1358.0391 C651.7837,1358.0391 669.7837,1358.0391 669.7837,1368.0391 L669.7837,1394.0391 C669.7837,1404.0391 651.7837,1404.0391 651.7837,1404.0391 C651.7837,1404.0391 633.7837,1404.0391 633.7837,1394.0391 L633.7837,1368.0391" fill="#E2E2F0" style="stroke:#181818;stroke-width:0.5;"/><path d="M633.7837,1368.0391 C633.7837,1378.0391 651.7837,1378.0391 651.7837,1378.0391 C651.7837,1378.0391 669.7837,1378.0391 669.7837,1368.0391" fill="none" style="stroke:#181818;stroke-width:0.5;"/></g><g class="participant participant-head" data-entity-uid="part4" data-qualified-name="Entry" data-source-line="14" id="part4-head"><rect fill="#E2E2F0" height="46.9766" rx="2.5" ry="2.5" style="stroke:#181818;stroke-width:0.5;" width="119.6494" x="752.7314" y="73.4883"/><text fill="#000000" font-family="sans-serif" font-size="14" lengthAdjust="spacing" textLength="105.6494" x="759.7314" y="94.0234">/mdd-generate</text><text fill="#000000" font-family="sans-serif" font-size="14" lengthAdjust="spacing" textLength="94.5068" x="765.3027" y="110.5117">or /mdd-map</text></g><g class="participant participant-tail" data-entity-uid="part4" data-qualified-name="Entry" data-source-line="14" id="part4-tail"><rect fill="#E2E2F0" height="46.9766" rx="2.5" ry="2.5" style="stroke:#181818;stroke-width:0.5;" width="119.6494" x="752.7314" y="1325.0625"/><text fill="#000000" font-family="sans-serif" font-size="14" lengthAdjust="spacing" textLength="105.6494" x="759.7314" y="1345.5977">/mdd-generate</text><text fill="#000000" font-family="sans-serif" font-size="14" lengthAdjust="spacing" textLength="94.5068" x="765.3027" y="1362.0859">or /mdd-map</text></g><g class="participant participant-head" data-entity-uid="part5" data-qualified-name="Val" data-source-line="15" id="part5-head"><rect fill="#E2E2F0" height="30.4883" rx="2.5" ry="2.5" style="stroke:#181818;stroke-width:0.5;" width="112.7861" x="882.3809" y="89.9766"/><text fill="#000000" font-family="sans-serif" font-size="14" lengthAdjust="spacing" textLength="98.7861" x="889.3809" y="110.5117">/mdd-validate</text></g><g class="participant participant-tail" data-entity-uid="part5" data-qualified-name="Val" data-source-line="15" id="part5-tail"><rect fill="#E2E2F0" height="30.4883" rx="2.5" ry="2.5" style="stroke:#181818;stroke-width:0.5;" width="112.7861" x="882.3809" y="1325.0625"/><text fill="#000000" font-family="sans-serif" font-size="14" lengthAdjust="spacing" textLength="98.7861" x="889.3809" y="1345.5977">/mdd-validate</text></g><g class="participant participant-head" data-entity-uid="part6" data-qualified-name="Impl" data-source-line="16" id="part6-head"><rect fill="#E2E2F0" height="30.4883" rx="2.5" ry="2.5" style="stroke:#181818;stroke-width:0.5;" width="132.7061" x="1005.167" y="89.9766"/><text fill="#000000" font-family="sans-serif" font-size="14" lengthAdjust="spacing" textLength="118.7061" x="1012.167" y="110.5117">/mdd-implement</text></g><g class="participant participant-tail" data-entity-uid="part6" data-qualified-name="Impl" data-source-line="16" id="part6-tail"><rect fill="#E2E2F0" height="30.4883" rx="2.5" ry="2.5" style="stroke:#181818;stroke-width:0.5;" width="132.7061" x="1005.167" y="1325.0625"/><text fill="#000000" font-family="sans-serif" font-size="14" lengthAdjust="spacing" textLength="118.7061" x="1012.167" y="1345.5977">/mdd-implement</text></g><g class="participant participant-head" data-entity-uid="part7" data-qualified-name="Map" data-source-line="17" id="part7-head"><rect fill="#E2E2F0" height="30.4883" rx="2.5" ry="2.5" style="stroke:#181818;stroke-width:0.5;" width="89.749" x="1147.873" y="89.9766"/><text fill="#000000" font-family="sans-serif" font-size="14" lengthAdjust="spacing" textLength="75.749" x="1154.873" y="110.5117">/mdd-map</text></g><g class="participant participant-tail" data-entity-uid="part7" data-qualified-name="Map" data-source-line="17" id="part7-tail"><rect fill="#E2E2F0" height="30.4883" rx="2.5" ry="2.5" style="stroke:#181818;stroke-width:0.5;" width="89.749" x="1147.873" y="1325.0625"/><text fill="#000000" font-family="sans-serif" font-size="14" lengthAdjust="spacing" textLength="75.749" x="1154.873" y="1345.5977">/mdd-map</text></g><g class="participant participant-head" data-entity-uid="part8" data-qualified-name="Rev" data-source-line="18" id="part8-head"><rect fill="#E2E2F0" height="30.4883" rx="2.5" ry="2.5" style="stroke:#181818;stroke-width:0.5;" width="103.5439" x="1247.6221" y="89.9766"/><text fill="#000000" font-family="sans-serif" font-size="14" lengthAdjust="spacing" textLength="89.5439" x="1254.6221" y="110.5117">/mdd-review</text></g><g class="participant participant-tail" data-entity-uid="part8" data-qualified-name="Rev" data-source-line="18" id="part8-tail"><rect fill="#E2E2F0" height="30.4883" rx="2.5" ry="2.5" style="stroke:#181818;stroke-width:0.5;" width="103.5439" x="1247.6221" y="1325.0625"/><text fill="#000000" font-family="sans-serif" font-size="14" lengthAdjust="spacing" textLength="89.5439" x="1254.6221" y="1345.5977">/mdd-review</text></g><g class="message" data-entity-1="part1" data-entity-2="part2" data-source-line="20" id="msg1"><polygon fill="#181818" points="335.8838,148.7754,345.8838,152.7754,335.8838,156.7754,339.8838,152.7754" style="stroke:#181818;stroke-width:1;"/><line style="stroke:#181818;stroke-width:1;" x1="67.1592" x2="341.8838" y1="152.7754" y2="152.7754"/><text fill="#000000" font-family="sans-serif" font-size="13" lengthAdjust="spacing" textLength="162.646" x="74.1592" y="148.0332">/mdd-cycle [description?]</text></g><path d="M265.1904,167.7754 L327.3291,167.7754 L327.3291,175.0859 L317.3291,185.0859 L265.1904,185.0859 L265.1904,167.7754" fill="#EEEEEE" style="stroke:#000000;stroke-width:1.5;"/><rect fill="none" height="132.1973" style="stroke:#000000;stroke-width:1.5;" width="367.9775" x="265.1904" y="167.7754"/><text fill="#000000" font-family="sans-serif" font-size="13" font-weight="700" lengthAdjust="spacing" textLength="17.1387" x="280.1904" y="181.3438">alt</text><text fill="#000000" font-family="sans-serif" font-size="11" font-weight="700" lengthAdjust="spacing" textLength="126.1777" x="342.3291" y="180.4102">[description provided]</text><g class="message" data-entity-1="part2" data-entity-2="part2" data-source-line="23" id="msg2"><line style="stroke:#181818;stroke-width:1;" x1="347.8838" x2="389.8838" y1="206.3965" y2="206.3965"/><line style="stroke:#181818;stroke-width:1;" x1="389.8838" x2="389.8838" y1="206.3965" y2="219.3965"/><line style="stroke:#181818;stroke-width:1;" x1="348.8838" x2="389.8838" y1="219.3965" y2="219.3965"/><polygon fill="#181818" points="358.8838,215.3965,348.8838,219.3965,358.8838,223.3965,354.8838,219.3965" style="stroke:#181818;stroke-width:1;"/><text fill="#000000" font-family="sans-serif" font-size="13" lengthAdjust="spacing" textLength="106.1074" x="354.8838" y="201.6543">entry = generate</text></g><line style="stroke:#000000;stroke-width:1;stroke-dasharray:2,2;" x1="265.1904" x2="633.168" y1="228.3965" y2="228.3965"/><text fill="#000000" font-family="sans-serif" font-size="11" font-weight="700" lengthAdjust="spacing" textLength="89.9873" x="270.1904" y="239.0313">[no description]</text><g class="message" data-entity-1="part2" data-entity-2="part2" data-source-line="25" id="msg3"><line style="stroke:#181818;stroke-width:1;" x1="347.8838" x2="389.8838" y1="278.9727" y2="278.9727"/><line style="stroke:#181818;stroke-width:1;" x1="389.8838" x2="389.8838" y1="278.9727" y2="291.9727"/><line style="stroke:#181818;stroke-width:1;" x1="348.8838" x2="389.8838" y1="291.9727" y2="291.9727"/><polygon fill="#181818" points="358.8838,287.9727,348.8838,291.9727,358.8838,295.9727,354.8838,291.9727" style="stroke:#181818;stroke-width:1;"/><text fill="#000000" font-family="sans-serif" font-size="13" lengthAdjust="spacing" textLength="78.3428" x="354.8838" y="258.9199">entry = map</text><text fill="#000000" font-family="sans-serif" font-size="13" lengthAdjust="spacing" textLength="266.2842" x="354.8838" y="274.2305">(behave as /mdd-map with no comments)</text></g><g class="message" data-entity-1="part2" data-entity-2="part3" data-source-line="28" id="msg4"><polygon fill="#181818" points="639.7837,339.5938,649.7837,343.5938,639.7837,347.5938,643.7837,343.5938" style="stroke:#181818;stroke-width:1;"/><line style="stroke:#181818;stroke-width:1;" x1="347.8838" x2="645.7837" y1="343.5938" y2="343.5938"/><text fill="#000000" font-family="sans-serif" font-size="13" lengthAdjust="spacing" textLength="80.4185" x="354.8838" y="323.541">open cycle N</text><text fill="#000000" font-family="sans-serif" font-size="13" lengthAdjust="spacing" textLength="279.8999" x="354.8838" y="338.8516">snapshot .mdd/models/current/ -&gt; before/</text></g><g class="message" data-entity-1="part3" data-entity-2="part2" data-source-line="29" id="msg5"><polygon fill="#181818" points="358.8838,368.9043,348.8838,372.9043,358.8838,376.9043,354.8838,372.9043" style="stroke:#181818;stroke-width:1;"/><line style="stroke:#181818;stroke-width:1;stroke-dasharray:2,2;" x1="352.8838" x2="650.7837" y1="372.9043" y2="372.9043"/><text fill="#000000" font-family="sans-serif" font-size="13" lengthAdjust="spacing" textLength="190.563" x="364.8838" y="368.1621">cycle N opened (status=Open)</text></g><g class="message" data-entity-1="part2" data-entity-2="part4" data-source-line="31" id="msg6"><polygon fill="#181818" points="800.5562,398.2148,810.5562,402.2148,800.5562,406.2148,804.5562,402.2148" style="stroke:#181818;stroke-width:1;"/><line style="stroke:#181818;stroke-width:1;" x1="347.8838" x2="806.5562" y1="402.2148" y2="402.2148"/><text fill="#000000" font-family="sans-serif" font-size="13" lengthAdjust="spacing" textLength="236.6279" x="354.8838" y="397.4727">run entry skill (scoped to description)</text></g><path d="M807,417.2148 L869.1387,417.2148 L869.1387,424.5254 L859.1387,434.5254 L807,434.5254 L807,417.2148" fill="#EEEEEE" style="stroke:#000000;stroke-width:1.5;"/><rect fill="none" height="83.2422" style="stroke:#000000;stroke-width:1.5;" width="287.1621" x="807" y="417.2148"/><text fill="#000000" font-family="sans-serif" font-size="13" font-weight="700" lengthAdjust="spacing" textLength="17.1387" x="822" y="430.7832">alt</text><text fill="#000000" font-family="sans-serif" font-size="11" font-weight="700" lengthAdjust="spacing" textLength="112.186" x="884.1387" y="429.8496">[entry == generate]</text><path d="M817,439.5254 L817,494.5254 L1084,494.5254 L1084,449.5254 L1074,439.5254 L817,439.5254" fill="#FEFFDD" style="stroke:#181818;stroke-width:0.5;"/><path d="M1074,439.5254 L1074,449.5254 L1084,449.5254 L1074,439.5254" fill="#FEFFDD" style="stroke:#181818;stroke-width:0.5;"/><text fill="#000000" font-family="sans-serif" font-size="13" lengthAdjust="spacing" textLength="243.9595" x="823" y="457.0938">Authors objective models + @desc per</text><text fill="#000000" font-family="sans-serif" font-size="13" lengthAdjust="spacing" textLength="246.1621" x="823" y="472.4043">significant @id. Marks ambiguity in the</text><text fill="#000000" font-family="sans-serif" font-size="13" lengthAdjust="spacing" textLength="231.6768" x="823" y="487.7148">model instead of inventing behavior.</text><g class="message" data-entity-1="part4" data-entity-2="part2" data-source-line="39" id="msg7"><polygon fill="#181818" points="358.8838,524.7676,348.8838,528.7676,358.8838,532.7676,354.8838,528.7676" style="stroke:#181818;stroke-width:1;"/><line style="stroke:#181818;stroke-width:1;stroke-dasharray:2,2;" x1="352.8838" x2="811.5562" y1="528.7676" y2="528.7676"/><text fill="#000000" font-family="sans-serif" font-size="13" lengthAdjust="spacing" textLength="94.1738" x="364.8838" y="524.0254">models written</text></g><path d="M10,543.7676 L84.4468,543.7676 L84.4468,551.0781 L74.4468,561.0781 L10,561.0781 L10,543.7676" fill="#EEEEEE" style="stroke:#000000;stroke-width:1.5;"/><rect fill="none" height="646.7422" style="stroke:#000000;stroke-width:1.5;" width="1361.166" x="10" y="543.7676"/><text fill="#000000" font-family="sans-serif" font-size="13" font-weight="700" lengthAdjust="spacing" textLength="29.4468" x="25" y="557.3359">loop</text><text fill="#000000" font-family="sans-serif" font-size="11" font-weight="700" lengthAdjust="spacing" textLength="201.604" x="99.4468" y="556.4023">[until /mdd-review parity matches]</text><g class="message" data-entity-1="part2" data-entity-2="part5" data-source-line="42" id="msg8"><polygon fill="#181818" points="926.7739,578.3887,936.7739,582.3887,926.7739,586.3887,930.7739,582.3887" style="stroke:#181818;stroke-width:1;"/><line style="stroke:#181818;stroke-width:1;" x1="347.8838" x2="932.7739" y1="582.3887" y2="582.3887"/><text fill="#000000" font-family="sans-serif" font-size="13" lengthAdjust="spacing" textLength="91.73" x="354.8838" y="577.6465">/mdd-validate</text></g><path d="M265.1904,597.3887 L327.3291,597.3887 L327.3291,604.6992 L317.3291,614.6992 L265.1904,614.6992 L265.1904,597.3887" fill="#EEEEEE" style="stroke:#000000;stroke-width:1.5;"/><rect fill="none" height="120.1973" style="stroke:#000000;stroke-width:1.5;" width="882.6826" x="265.1904" y="597.3887"/><text fill="#000000" font-family="sans-serif" font-size="13" font-weight="700" lengthAdjust="spacing" textLength="17.1387" x="280.1904" y="610.957">alt</text><text fill="#000000" font-family="sans-serif" font-size="11" font-weight="700" lengthAdjust="spacing" textLength="102.6577" x="342.3291" y="610.0234">[validation errors]</text><g class="message" data-entity-1="part5" data-entity-2="part2" data-source-line="44" id="msg9"><polygon fill="#181818" points="358.8838,632.0098,348.8838,636.0098,358.8838,640.0098,354.8838,636.0098" style="stroke:#181818;stroke-width:1;"/><line style="stroke:#181818;stroke-width:1;stroke-dasharray:2,2;" x1="352.8838" x2="937.7739" y1="636.0098" y2="636.0098"/><text fill="#000000" font-family="sans-serif" font-size="13" lengthAdjust="spacing" textLength="37.813" x="364.8838" y="631.2676">errors</text></g><g class="message" data-entity-1="part2" data-entity-2="part6" data-source-line="45" id="msg10"><polygon fill="#181818" points="1059.52,661.3203,1069.52,665.3203,1059.52,669.3203,1063.52,665.3203" style="stroke:#181818;stroke-width:1;"/><line style="stroke:#181818;stroke-width:1;" x1="347.8838" x2="1065.52" y1="665.3203" y2="665.3203"/><text fill="#000000" font-family="sans-serif" font-size="13" lengthAdjust="spacing" textLength="217.2993" x="354.8838" y="660.5781">(only when both sides non-empty)</text></g><line style="stroke:#000000;stroke-width:1;stroke-dasharray:2,2;" x1="265.1904" x2="1147.873" y1="674.3203" y2="674.3203"/><text fill="#000000" font-family="sans-serif" font-size="11" font-weight="700" lengthAdjust="spacing" textLength="37.7212" x="270.1904" y="684.9551">[clean]</text><g class="message" data-entity-1="part5" data-entity-2="part2" data-source-line="47" id="msg11"><polygon fill="#181818" points="358.8838,705.5859,348.8838,709.5859,358.8838,713.5859,354.8838,709.5859" style="stroke:#181818;stroke-width:1;"/><line style="stroke:#181818;stroke-width:1;stroke-dasharray:2,2;" x1="352.8838" x2="937.7739" y1="709.5859" y2="709.5859"/><text fill="#000000" font-family="sans-serif" font-size="13" lengthAdjust="spacing" textLength="32.9063" x="364.8838" y="704.8438">clean</text></g><path d="M20,731.5859 L87.1851,731.5859 L87.1851,738.8965 L77.1851,748.8965 L20,748.8965 L20,731.5859" fill="#EEEEEE" style="stroke:#000000;stroke-width:1.5;"/><rect fill="none" height="141.8633" style="stroke:#000000;stroke-width:1.5;" width="631.728" x="20" y="731.5859"/><text fill="#000000" font-family="sans-serif" font-size="13" font-weight="700" lengthAdjust="spacing" textLength="22.1851" x="35" y="745.1543">opt</text><text fill="#000000" font-family="sans-serif" font-size="11" font-weight="700" lengthAdjust="spacing" textLength="194.3745" x="102.1851" y="744.2207">[decision is genuinely ambiguous]</text><g class="message" data-entity-1="part2" data-entity-2="part1" data-source-line="51" id="msg12"><polygon fill="#181818" points="78.1592,766.207,68.1592,770.207,78.1592,774.207,74.1592,770.207" style="stroke:#181818;stroke-width:1;"/><line style="stroke:#181818;stroke-width:1;" x1="72.1592" x2="346.8838" y1="770.207" y2="770.207"/><text fill="#000000" font-family="sans-serif" font-size="13" lengthAdjust="spacing" textLength="157.6821" x="84.1592" y="765.4648">ask clarifying question(s)</text></g><g class="message" data-entity-1="part1" data-entity-2="part2" data-source-line="52" id="msg13"><polygon fill="#181818" points="335.8838,795.5176,345.8838,799.5176,335.8838,803.5176,339.8838,799.5176" style="stroke:#181818;stroke-width:1;"/><line style="stroke:#181818;stroke-width:1;stroke-dasharray:2,2;" x1="67.1592" x2="341.8838" y1="799.5176" y2="799.5176"/><text fill="#000000" font-family="sans-serif" font-size="13" lengthAdjust="spacing" textLength="44.4526" x="74.1592" y="794.7754">answer</text></g><path d="M352,812.5176 L352,867.5176 L641,867.5176 L641,822.5176 L631,812.5176 L352,812.5176" fill="#FEFFDD" style="stroke:#181818;stroke-width:0.5;"/><path d="M631,812.5176 L631,822.5176 L641,822.5176 L631,812.5176" fill="#FEFFDD" style="stroke:#181818;stroke-width:0.5;"/><text fill="#000000" font-family="sans-serif" font-size="13" lengthAdjust="spacing" textLength="268.728" x="358" y="830.0859">Mandatory pause. The skill NEVER guesses</text><text fill="#000000" font-family="sans-serif" font-size="13" lengthAdjust="spacing" textLength="258.8765" x="358" y="845.3965">an ambiguous modeling/implementation</text><text fill="#000000" font-family="sans-serif" font-size="13" lengthAdjust="spacing" textLength="193.9844" x="358" y="860.707">decision; it blocks on the user.</text><g class="message" data-entity-1="part2" data-entity-2="part6" data-source-line="60" id="msg14"><polygon fill="#181818" points="1059.52,897.7598,1069.52,901.7598,1059.52,905.7598,1063.52,901.7598" style="stroke:#181818;stroke-width:1;"/><line style="stroke:#181818;stroke-width:1;" x1="347.8838" x2="1065.52" y1="901.7598" y2="901.7598"/><text fill="#000000" font-family="sans-serif" font-size="13" lengthAdjust="spacing" textLength="188.1763" x="354.8838" y="897.0176">/mdd-implement (write code)</text></g><g class="message" data-entity-1="part6" data-entity-2="part2" data-source-line="61" id="msg15"><polygon fill="#181818" points="358.8838,927.0703,348.8838,931.0703,358.8838,935.0703,354.8838,931.0703" style="stroke:#181818;stroke-width:1;"/><line style="stroke:#181818;stroke-width:1;stroke-dasharray:2,2;" x1="352.8838" x2="1070.52" y1="931.0703" y2="931.0703"/><text fill="#000000" font-family="sans-serif" font-size="13" lengthAdjust="spacing" textLength="87.6865" x="364.8838" y="926.3281">code changed</text></g><g class="message" data-entity-1="part2" data-entity-2="part7" data-source-line="62" id="msg16"><polygon fill="#181818" points="1180.7476,956.3809,1190.7476,960.3809,1180.7476,964.3809,1184.7476,960.3809" style="stroke:#181818;stroke-width:1;"/><line style="stroke:#181818;stroke-width:1;" x1="347.8838" x2="1186.7476" y1="960.3809" y2="960.3809"/><text fill="#000000" font-family="sans-serif" font-size="13" lengthAdjust="spacing" textLength="235.5869" x="354.8838" y="955.6387">/mdd-map (refresh current + @desc)</text></g><g class="message" data-entity-1="part7" data-entity-2="part2" data-source-line="63" id="msg17"><polygon fill="#181818" points="358.8838,985.6914,348.8838,989.6914,358.8838,993.6914,354.8838,989.6914" style="stroke:#181818;stroke-width:1;"/><line style="stroke:#181818;stroke-width:1;stroke-dasharray:2,2;" x1="352.8838" x2="1191.7476" y1="989.6914" y2="989.6914"/><text fill="#000000" font-family="sans-serif" font-size="13" lengthAdjust="spacing" textLength="109.6748" x="364.8838" y="984.9492">current refreshed</text></g><g class="message" data-entity-1="part2" data-entity-2="part5" data-source-line="64" id="msg18"><polygon fill="#181818" points="926.7739,1015.002,936.7739,1019.002,926.7739,1023.002,930.7739,1019.002" style="stroke:#181818;stroke-width:1;"/><line style="stroke:#181818;stroke-width:1;" x1="347.8838" x2="932.7739" y1="1019.002" y2="1019.002"/><text fill="#000000" font-family="sans-serif" font-size="13" lengthAdjust="spacing" textLength="91.73" x="354.8838" y="1014.2598">/mdd-validate</text></g><g class="message" data-entity-1="part5" data-entity-2="part2" data-source-line="65" id="msg19"><polygon fill="#181818" points="358.8838,1044.3125,348.8838,1048.3125,358.8838,1052.3125,354.8838,1048.3125" style="stroke:#181818;stroke-width:1;"/><line style="stroke:#181818;stroke-width:1;stroke-dasharray:2,2;" x1="352.8838" x2="937.7739" y1="1048.3125" y2="1048.3125"/><text fill="#000000" font-family="sans-serif" font-size="13" lengthAdjust="spacing" textLength="32.9063" x="364.8838" y="1043.5703">clean</text></g><g class="message" data-entity-1="part2" data-entity-2="part8" data-source-line="66" id="msg20"><polygon fill="#181818" points="1287.394,1073.623,1297.394,1077.623,1287.394,1081.623,1291.394,1077.623" style="stroke:#181818;stroke-width:1;"/><line style="stroke:#181818;stroke-width:1;" x1="347.8838" x2="1293.394" y1="1077.623" y2="1077.623"/><text fill="#000000" font-family="sans-serif" font-size="13" lengthAdjust="spacing" textLength="217.293" x="354.8838" y="1072.8809">/mdd-review (ID + security parity)</text></g><path d="M265.1904,1092.623 L327.3291,1092.623 L327.3291,1099.9336 L317.3291,1109.9336 L265.1904,1109.9336 L265.1904,1092.623" fill="#EEEEEE" style="stroke:#000000;stroke-width:1.5;"/><rect fill="none" height="90.8867" style="stroke:#000000;stroke-width:1.5;" width="1095.9756" x="265.1904" y="1092.623"/><text fill="#000000" font-family="sans-serif" font-size="13" font-weight="700" lengthAdjust="spacing" textLength="17.1387" x="280.1904" y="1106.1914">alt</text><text fill="#000000" font-family="sans-serif" font-size="11" font-weight="700" lengthAdjust="spacing" textLength="63.2876" x="342.3291" y="1105.2578">[mismatch]</text><g class="message" data-entity-1="part8" data-entity-2="part2" data-source-line="68" id="msg21"><polygon fill="#181818" points="358.8838,1127.2441,348.8838,1131.2441,358.8838,1135.2441,354.8838,1131.2441" style="stroke:#181818;stroke-width:1;"/><line style="stroke:#181818;stroke-width:1;stroke-dasharray:2,2;" x1="352.8838" x2="1298.394" y1="1131.2441" y2="1131.2441"/><text fill="#000000" font-family="sans-serif" font-size="13" lengthAdjust="spacing" textLength="192.2261" x="364.8838" y="1126.502">.diff.puml / .security.diff.puml</text></g><line style="stroke:#000000;stroke-width:1;stroke-dasharray:2,2;" x1="265.1904" x2="1361.166" y1="1140.2441" y2="1140.2441"/><text fill="#000000" font-family="sans-serif" font-size="11" font-weight="700" lengthAdjust="spacing" textLength="42.8237" x="270.1904" y="1150.8789">[match]</text><g class="message" data-entity-1="part8" data-entity-2="part2" data-source-line="70" id="msg22"><polygon fill="#181818" points="358.8838,1171.5098,348.8838,1175.5098,358.8838,1179.5098,354.8838,1175.5098" style="stroke:#181818;stroke-width:1;"/><line style="stroke:#181818;stroke-width:1;stroke-dasharray:2,2;" x1="352.8838" x2="1298.394" y1="1175.5098" y2="1175.5098"/><text fill="#000000" font-family="sans-serif" font-size="13" lengthAdjust="spacing" textLength="80.6597" x="364.8838" y="1170.7676">parity closed</text></g><g class="message" data-entity-1="part2" data-entity-2="part3" data-source-line="74" id="msg23"><polygon fill="#181818" points="639.7837,1245.4414,649.7837,1249.4414,639.7837,1253.4414,643.7837,1249.4414" style="stroke:#181818;stroke-width:1;"/><line style="stroke:#181818;stroke-width:1;" x1="347.8838" x2="645.7837" y1="1249.4414" y2="1249.4414"/><text fill="#000000" font-family="sans-serif" font-size="13" lengthAdjust="spacing" textLength="176.3506" x="354.8838" y="1214.0781">snapshot current/ -&gt; after/</text><text fill="#000000" font-family="sans-serif" font-size="13" lengthAdjust="spacing" textLength="169.7109" x="354.8838" y="1229.3887">write &lt;diagram&gt;.diff.puml</text><text fill="#000000" font-family="sans-serif" font-size="13" lengthAdjust="spacing" textLength="185.1294" x="354.8838" y="1244.6992">close cycle N (status=Closed)</text></g><g class="message" data-entity-1="part3" data-entity-2="part2" data-source-line="75" id="msg24"><polygon fill="#181818" points="358.8838,1274.752,348.8838,1278.752,358.8838,1282.752,354.8838,1278.752" style="stroke:#181818;stroke-width:1;"/><line style="stroke:#181818;stroke-width:1;stroke-dasharray:2,2;" x1="352.8838" x2="650.7837" y1="1278.752" y2="1278.752"/><text fill="#000000" font-family="sans-serif" font-size="13" lengthAdjust="spacing" textLength="89.394" x="364.8838" y="1274.0098">cycle N closed</text></g><g class="message" data-entity-1="part2" data-entity-2="part1" data-source-line="76" id="msg25"><polygon fill="#181818" points="78.1592,1304.0625,68.1592,1308.0625,78.1592,1312.0625,74.1592,1308.0625" style="stroke:#181818;stroke-width:1;"/><line style="stroke:#181818;stroke-width:1;stroke-dasharray:2,2;" x1="72.1592" x2="346.8838" y1="1308.0625" y2="1308.0625"/><text fill="#000000" font-family="sans-serif" font-size="13" lengthAdjust="spacing" textLength="256.7246" x="84.1592" y="1303.3203">cycle N complete (summary + diff ready)</text></g><?plantuml-src TLPDR-Cs4BthLmnyMGcnx7kwwsQH6DW0JO8wkmiKTG-qHDki9L8bAHl-ztqSIhAyS7mJEHzlthmP-XCzg39zN_wPhtwyvez_FVwnp99Fz63bDltnlhmwnVdRvbzPU7MKkLEb9Djghsf9sygSo6p9xoLfUIAdzAwIUIbTOLNZbT5aRB6NpbiHlX397LHLpUZPavCLOZfsbjhRCpL6QJybSzBnj3WNbQIDQNKfx7bAGfTK6TCun0dtgcugMSDtRkLH8Nzqy8OQOPM7HoFQW8csnb9HuN2h2aOoux8U0j9h5gOq-OQYvdLPvZ5SQL6t8wDHRrjLzFBqn2ZkgL758K87w4RgEwT5u_R6Nz1FsPHsKajG8EUrQFB5KLIgn5U-62h85x_ST1K5egkX78JLgCCuULUgxNOsoHAlF32kMatY0Yy2trfJC-nnFrBJjp9B4b5u43DvaaTPeG0x8U48NmaIUbMeHcXFamiNQvrUzJDsCsEtDrmam2usmacQpE0qPoSt_wmNSxZMGgijVAUqaMY8dAEZMo_jF0Pu1nPv8tFFtLe3Av-0AlPO1kflUFGiij5FKTqm6OXdcsTytJ3gyxo8viPjx10Rh41P0jueNp0FT3yMqDyZ_d__1wnN_gebZJL7J5MPK7I-18bZyMMGJo8hSAlDsFrZBy07wnkv5qSPKFOrqKdvVOXIc3fGuB94wZ99-Z3S2CG9akwazBhMWxQvixKfWMLUjDQ6-GjkNLEJw9vVy7GXE9uiANLU-DPzUSDdTidApOGrTajN0OiBvWKSop3LewepPh6hT4GGeIwF1QLsUnysKvG8uVUrzNjZCSUz_YdMG7Tn3H3qpuPExJJl2NGQItA6zjk38r5lrAx569BIOH3PbaFWm7afof1FwID0XPN3l2jZPp04lOoBUOw5ZlZfS9mmurxg9E6D4GT_9BHk2Q2hFapWgErGU2-uNlcu3Vnqdq5aqbfKpw23_IZzwAQF6EO1DwdHrPbEOUbi32GJThz38JgNTUFFMQWi21Bj5VfMwFw2vKKGG11-eLm0f5peMgkqH8v8hcclOOI9keTo3ztkFWTU_sknGX0WTHaRyzXTKWhjJbqZhvN0-uduzuA7H42bPtuVv8o-Orr7jRqkVovNj4CE9rrdBlG5NsmMSCo73IAwAGo_lhhVI7dQLAOuX8U3dmCaOYsCr30GymllrnkAqg0Ci8pCeMGs6fECSohsGk-kLWYMLXygp7oAbzrAjwTkP7lPXuZ1T1omi-WyhgBUrje7RU-TLjp7iPRJvoS0S1AfWgQZjBDEjRLoB78cQtNTtXc_UqrROpPerWUudFQI_310DqNyY9PT1svkls7VZNTSVA_MEdRaSwd4pefwSSc_rXnvs7dzidlaVDd7ox43554CsXzkJL03KgQkhMly6G9x8ITw9CfpzZy0?></g></svg>