<svg xmlns="http://www.w3.org/2000/svg" xmlns:xlink="http://www.w3.org/1999/xlink" contentStyleType="text/css" data-diagram-type="SEQUENCE" height="691px" preserveAspectRatio="none" style="width:1639px;height:691px;background:#FFFFFF;" version="1.1" viewBox="0 0 1639 691" width="1639px" zoomAndPan="magnify"><?plantuml 1.2026.3?><defs/><g><g class="title" data-source-line="9"><text fill="#000000" font-family="sans-serif" font-size="14" font-weight="700" lengthAdjust="spacing" textLength="319.0127" x="656.8625" y="28.5352">Rasterize cycle diff pumls to SVG (objective)</text></g><rect fill="none" height="281.75" style="stroke:#000000;stroke-width:1.5;" width="1301.2954" x="279.2495" y="197.0859"/><rect fill="none" height="149.5078" style="stroke:#000000;stroke-width:1.5;" width="1281.2954" x="289.2495" y="322.3281"/><g class="participant-lifeline" data-entity-uid="part1" data-qualified-name="Dev" data-source-line="11" id="part1-lifeline"><g><title>Developer</title><rect fill="#000000" fill-opacity="0.00000" height="484.9238" width="8" x="38.1592" y="121.4648"/><line style="stroke:#181818;stroke-width:0.5;stroke-dasharray:5,5;" x1="42" x2="42" y1="121.4648" y2="606.3887"/></g></g><g class="participant-lifeline" data-entity-uid="part2" data-qualified-name="Trigger" data-source-line="12" id="part2-lifeline"><g><title>.mdd-cycle close</title><rect fill="#000000" fill-opacity="0.00000" height="484.9238" width="8" x="361.6606" y="121.4648"/><line style="stroke:#181818;stroke-width:0.5;stroke-dasharray:5,5;" x1="365.2495" x2="365.2495" y1="121.4648" y2="606.3887"/></g></g><g class="participant-lifeline" data-entity-uid="part3" data-qualified-name="Rend" data-source-line="13" id="part3-lifeline"><g><title>DiffRenderer</title><rect fill="#000000" fill-opacity="0.00000" height="484.9238" width="8" x="729.1831" y="121.4648"/><line style="stroke:#181818;stroke-width:0.5;stroke-dasharray:5,5;" x1="732.9551" x2="732.9551" y1="121.4648" y2="606.3887"/></g></g><g class="participant-lifeline" data-entity-uid="part4" data-qualified-name="Store" data-source-line="14" id="part4-lifeline"><g><title>.mdd.cycles..n..</title><rect fill="#000000" fill-opacity="0.00000" height="484.9238" width="8" x="1111.4106" y="121.4648"/><line style="stroke:#181818;stroke-width:0.5;stroke-dasharray:5,5;" x1="1114.6572" x2="1114.6572" y1="121.4648" y2="606.3887"/></g></g><g class="participant-lifeline" data-entity-uid="part5" data-qualified-name="PUML" data-source-line="15" id="part5-lifeline"><g><title>PlantUML jar</title><rect fill="#000000" fill-opacity="0.00000" height="484.9238" width="8" x="1280.2324" y="121.4648"/><line style="stroke:#181818;stroke-width:0.5;stroke-dasharray:5,5;" x1="1284.1641" x2="1284.1641" y1="121.4648" y2="606.3887"/></g></g><g class="participant-lifeline" data-entity-uid="part6" data-qualified-name="Out" data-source-line="16" id="part6-lifeline"><g><title>.mdd.rendered.cycles..n..</title><rect fill="#000000" fill-opacity="0.00000" height="484.9238" width="8" x="1454.9229" y="121.4648"/><line style="stroke:#181818;stroke-width:0.5;stroke-dasharray:5,5;" x1="1458.3008" x2="1458.3008" y1="121.4648" y2="606.3887"/></g></g><g class="participant participant-head" data-entity-uid="part1" data-qualified-name="Dev" data-source-line="11" id="part1-head"><text fill="#000000" font-family="sans-serif" font-size="14" lengthAdjust="spacing" textLength="68.3184" x="5" y="118.5117">Developer</text><ellipse cx="42.1592" cy="53.4766" fill="#E2E2F0" rx="8" ry="8" style="stroke:#181818;stroke-width:0.5;"/><path d="M42.1592,61.4766 L42.1592,88.4766 M29.1592,69.4766 L55.1592,69.4766 M42.1592,88.4766 L29.1592,103.4766 M42.1592,88.4766 L55.1592,103.4766" fill="none" style="stroke:#181818;stroke-width:0.5;"/></g><g class="participant participant-tail" data-entity-uid="part1" data-qualified-name="Dev" data-source-line="11" id="part1-tail"><text fill="#000000" font-family="sans-serif" font-size="14" lengthAdjust="spacing" textLength="68.3184" x="5" y="618.9238">Developer</text><ellipse cx="42.1592" cy="630.377" fill="#E2E2F0" rx="8" ry="8" style="stroke:#181818;stroke-width:0.5;"/><path d="M42.1592,638.377 L42.1592,665.377 M29.1592,646.377 L55.1592,646.377 M42.1592,665.377 L29.1592,680.377 M42.1592,665.377 L55.1592,680.377" fill="none" style="stroke:#181818;stroke-width:0.5;"/></g><g class="participant participant-head" data-entity-uid="part2" data-qualified-name="Trigger" data-source-line="12" id="part2-head"><rect fill="#E2E2F0" height="46.9766" rx="2.5" ry="2.5" style="stroke:#181818;stroke-width:0.5;" width="132.8223" x="299.2495" y="73.4883"/><text fill="#000000" font-family="sans-serif" font-size="14" lengthAdjust="spacing" textLength="118.8223" x="306.2495" y="94.0234">/mdd-cycle close</text><text fill="#000000" font-family="sans-serif" font-size="14" lengthAdjust="spacing" textLength="109.4502" x="310.9355" y="110.5117">or /mdd-render</text></g><g class="participant participant-tail" data-entity-uid="part2" data-qualified-name="Trigger" data-source-line="12" id="part2-tail"><rect fill="#E2E2F0" height="46.9766" rx="2.5" ry="2.5" style="stroke:#181818;stroke-width:0.5;" width="132.8223" x="299.2495" y="605.3887"/><text fill="#000000" font-family="sans-serif" font-size="14" lengthAdjust="spacing" textLength="118.8223" x="306.2495" y="625.9238">/mdd-cycle close</text><text fill="#000000" font-family="sans-serif" font-size="14" lengthAdjust="spacing" textLength="109.4502" x="310.9355" y="642.4121">or /mdd-render</text></g><g class="participant participant-head" data-entity-uid="part3" data-qualified-name="Rend" data-source-line="13" id="part3-head"><rect fill="#E2E2F0" height="46.9766" rx="2.5" ry="2.5" style="stroke:#181818;stroke-width:0.5;" width="106.4561" x="679.9551" y="73.4883"/><text fill="#000000" font-family="sans-serif" font-size="14" lengthAdjust="spacing" textLength="86.0371" x="690.1646" y="94.0234">DiffRenderer</text><text fill="#000000" font-family="sans-serif" font-size="14" lengthAdjust="spacing" textLength="92.4561" x="686.9551" y="110.5117">(mdd-render)</text></g><g class="participant participant-tail" data-entity-uid="part3" data-qualified-name="Rend" data-source-line="13" id="part3-tail"><rect fill="#E2E2F0" height="46.9766" rx="2.5" ry="2.5" style="stroke:#181818;stroke-width:0.5;" width="106.4561" x="679.9551" y="605.3887"/><text fill="#000000" font-family="sans-serif" font-size="14" lengthAdjust="spacing" textLength="86.0371" x="690.1646" y="625.9238">DiffRenderer</text><text fill="#000000" font-family="sans-serif" font-size="14" lengthAdjust="spacing" textLength="92.4561" x="686.9551" y="642.4121">(mdd-render)</text></g><g class="participant participant-head" data-entity-uid="part4" data-qualified-name="Store" data-source-line="14" id="part4-head"><text fill="#000000" font-family="sans-serif" font-size="14" lengthAdjust="spacing" textLength="128.7344" x="1048.0435" y="102.0234">.mdd/cycles/&lt;n&gt;/</text><text fill="#000000" font-family="sans-serif" font-size="14" lengthAdjust="spacing" textLength="185.5068" x="1019.6572" y="118.5117">&lt;kind&gt;/&lt;name&gt;.diff.puml</text><path d="M1097.4106,52.4883 C1097.4106,42.4883 1115.4106,42.4883 1115.4106,42.4883 C1115.4106,42.4883 1133.4106,42.4883 1133.4106,52.4883 L1133.4106,78.4883 C1133.4106,88.4883 1115.4106,88.4883 1115.4106,88.4883 C1115.4106,88.4883 1097.4106,88.4883 1097.4106,78.4883 L1097.4106,52.4883" fill="#E2E2F0" style="stroke:#181818;stroke-width:0.5;"/><path d="M1097.4106,52.4883 C1097.4106,62.4883 1115.4106,62.4883 1115.4106,62.4883 C1115.4106,62.4883 1133.4106,62.4883 1133.4106,52.4883" fill="none" style="stroke:#181818;stroke-width:0.5;"/></g><g class="participant participant-tail" data-entity-uid="part4" data-qualified-name="Store" data-source-line="14" id="part4-tail"><text fill="#000000" font-family="sans-serif" font-size="14" lengthAdjust="spacing" textLength="128.7344" x="1048.0435" y="618.9238">.mdd/cycles/&lt;n&gt;/</text><text fill="#000000" font-family="sans-serif" font-size="14" lengthAdjust="spacing" textLength="185.5068" x="1019.6572" y="635.4121">&lt;kind&gt;/&lt;name&gt;.diff.puml</text><path d="M1097.4106,648.3652 C1097.4106,638.3652 1115.4106,638.3652 1115.4106,638.3652 C1115.4106,638.3652 1133.4106,638.3652 1133.4106,648.3652 L1133.4106,674.3652 C1133.4106,684.3652 1115.4106,684.3652 1115.4106,684.3652 C1115.4106,684.3652 1097.4106,684.3652 1097.4106,674.3652 L1097.4106,648.3652" fill="#E2E2F0" style="stroke:#181818;stroke-width:0.5;"/><path d="M1097.4106,648.3652 C1097.4106,658.3652 1115.4106,658.3652 1115.4106,658.3652 C1115.4106,658.3652 1133.4106,658.3652 1133.4106,648.3652" fill="none" style="stroke:#181818;stroke-width:0.5;"/></g><g class="participant participant-head" data-entity-uid="part5" data-qualified-name="PUML" data-source-line="15" id="part5-head"><rect fill="#E2E2F0" height="46.9766" rx="2.5" ry="2.5" style="stroke:#181818;stroke-width:0.5;" width="126.1367" x="1221.1641" y="73.4883"/><text fill="#000000" font-family="sans-serif" font-size="14" lengthAdjust="spacing" textLength="84.8135" x="1241.8257" y="94.0234">PlantUML jar</text><text fill="#000000" font-family="sans-serif" font-size="14" lengthAdjust="spacing" textLength="112.1367" x="1228.1641" y="110.5117">(+ Graphviz dot)</text></g><g class="participant participant-tail" data-entity-uid="part5" data-qualified-name="PUML" data-source-line="15" id="part5-tail"><rect fill="#E2E2F0" height="46.9766" rx="2.5" ry="2.5" style="stroke:#181818;stroke-width:0.5;" width="126.1367" x="1221.1641" y="605.3887"/><text fill="#000000" font-family="sans-serif" font-size="14" lengthAdjust="spacing" textLength="84.8135" x="1241.8257" y="625.9238">PlantUML jar</text><text fill="#000000" font-family="sans-serif" font-size="14" lengthAdjust="spacing" textLength="112.1367" x="1228.1641" y="642.4121">(+ Graphviz dot)</text></g><g class="participant participant-head" data-entity-uid="part6" data-qualified-name="Out" data-source-line="16" id="part6-head"><text fill="#000000" font-family="sans-serif" font-size="14" lengthAdjust="spacing" textLength="197.2441" x="1357.3008" y="102.0234">.mdd/rendered/cycles/&lt;n&gt;/</text><text fill="#000000" font-family="sans-serif" font-size="14" lengthAdjust="spacing" textLength="174.002" x="1368.9219" y="118.5117">&lt;kind&gt;/&lt;name&gt;.diff.svg</text><path d="M1440.9229,52.4883 C1440.9229,42.4883 1458.9229,42.4883 1458.9229,42.4883 C1458.9229,42.4883 1476.9229,42.4883 1476.9229,52.4883 L1476.9229,78.4883 C1476.9229,88.4883 1458.9229,88.4883 1458.9229,88.4883 C1458.9229,88.4883 1440.9229,88.4883 1440.9229,78.4883 L1440.9229,52.4883" fill="#E2E2F0" style="stroke:#181818;stroke-width:0.5;"/><path d="M1440.9229,52.4883 C1440.9229,62.4883 1458.9229,62.4883 1458.9229,62.4883 C1458.9229,62.4883 1476.9229,62.4883 1476.9229,52.4883" fill="none" style="stroke:#181818;stroke-width:0.5;"/></g><g class="participant participant-tail" data-entity-uid="part6" data-qualified-name="Out" data-source-line="16" id="part6-tail"><text fill="#000000" font-family="sans-serif" font-size="14" lengthAdjust="spacing" textLength="197.2441" x="1357.3008" y="618.9238">.mdd/rendered/cycles/&lt;n&gt;/</text><text fill="#000000" font-family="sans-serif" font-size="14" lengthAdjust="spacing" textLength="174.002" x="1368.9219" y="635.4121">&lt;kind&gt;/&lt;name&gt;.diff.svg</text><path d="M1440.9229,648.3652 C1440.9229,638.3652 1458.9229,638.3652 1458.9229,638.3652 C1458.9229,638.3652 1476.9229,638.3652 1476.9229,648.3652 L1476.9229,674.3652 C1476.9229,684.3652 1458.9229,684.3652 1458.9229,684.3652 C1458.9229,684.3652 1440.9229,684.3652 1440.9229,674.3652 L1440.9229,648.3652" fill="#E2E2F0" style="stroke:#181818;stroke-width:0.5;"/><path d="M1440.9229,648.3652 C1440.9229,658.3652 1458.9229,658.3652 1458.9229,658.3652 C1458.9229,658.3652 1476.9229,658.3652 1476.9229,648.3652" fill="none" style="stroke:#181818;stroke-width:0.5;"/></g><g class="message" data-entity-1="part1" data-entity-2="part2" data-source-line="18" id="msg1"><polygon fill="#181818" points="353.6606,148.7754,363.6606,152.7754,353.6606,156.7754,357.6606,152.7754" style="stroke:#181818;stroke-width:1;"/><line style="stroke:#181818;stroke-width:1;" x1="42.1592" x2="359.6606" y1="152.7754" y2="152.7754"/><text fill="#000000" font-family="sans-serif" font-size="13" lengthAdjust="spacing" textLength="195.4126" x="49.1592" y="148.0332">close cycle N (or /mdd-render)</text></g><g class="message" data-entity-1="part2" data-entity-2="part4" data-source-line="19" id="msg2"><polygon fill="#181818" points="1103.4106,178.0859,1113.4106,182.0859,1103.4106,186.0859,1107.4106,182.0859" style="stroke:#181818;stroke-width:1;"/><line style="stroke:#181818;stroke-width:1;" x1="365.6606" x2="1109.4106" y1="182.0859" y2="182.0859"/><text fill="#000000" font-family="sans-serif" font-size="13" lengthAdjust="spacing" textLength="248.8916" x="372.6606" y="177.3438">enumerate **/*.diff.puml under cycle N</text></g><path d="M279.2495,197.0859 L353.6963,197.0859 L353.6963,204.3965 L343.6963,214.3965 L279.2495,214.3965 L279.2495,197.0859" fill="#EEEEEE" style="stroke:#000000;stroke-width:1.5;"/><rect fill="none" height="281.75" style="stroke:#000000;stroke-width:1.5;" width="1301.2954" x="279.2495" y="197.0859"/><text fill="#000000" font-family="sans-serif" font-size="13" font-weight="700" lengthAdjust="spacing" textLength="29.4468" x="294.2495" y="210.6543">loop</text><text fill="#000000" font-family="sans-serif" font-size="11" font-weight="700" lengthAdjust="spacing" textLength="189.0195" x="368.6963" y="209.7207">[each &lt;kind&gt;/&lt;name&gt;.diff.puml]</text><g class="message" data-entity-1="part2" data-entity-2="part3" data-source-line="21" id="msg3"><polygon fill="#181818" points="721.1831,231.707,731.1831,235.707,721.1831,239.707,725.1831,235.707" style="stroke:#181818;stroke-width:1;"/><line style="stroke:#181818;stroke-width:1;" x1="365.6606" x2="727.1831" y1="235.707" y2="235.707"/><text fill="#000000" font-family="sans-serif" font-size="13" lengthAdjust="spacing" textLength="343.5225" x="372.6606" y="230.9648">render(source = cycles/N/&lt;kind&gt;/&lt;name&gt;.diff.puml)</text></g><g class="message" data-entity-1="part3" data-entity-2="part3" data-source-line="22" id="msg4"><line style="stroke:#181818;stroke-width:1;" x1="733.1831" x2="775.1831" y1="265.0176" y2="265.0176"/><line style="stroke:#181818;stroke-width:1;" x1="775.1831" x2="775.1831" y1="265.0176" y2="278.0176"/><line style="stroke:#181818;stroke-width:1;" x1="734.1831" x2="775.1831" y1="278.0176" y2="278.0176"/><polygon fill="#181818" points="744.1831,274.0176,734.1831,278.0176,744.1831,282.0176,740.1831,278.0176" style="stroke:#181818;stroke-width:1;"/><text fill="#000000" font-family="sans-serif" font-size="13" lengthAdjust="spacing" textLength="368.2275" x="740.1831" y="260.2754">derive out = rendered/cycles/N/&lt;kind&gt;/&lt;name&gt;.diff.svg</text></g><g class="message" data-entity-1="part3" data-entity-2="part5" data-source-line="23" id="msg5"><polygon fill="#181818" points="1272.2324,303.3281,1282.2324,307.3281,1272.2324,311.3281,1276.2324,307.3281" style="stroke:#181818;stroke-width:1;"/><line style="stroke:#181818;stroke-width:1;" x1="733.1831" x2="1278.2324" y1="307.3281" y2="307.3281"/><text fill="#000000" font-family="sans-serif" font-size="13" lengthAdjust="spacing" textLength="170.2886" x="740.1831" y="302.5859">plantuml -tsvg &lt; diff.puml</text></g><path d="M289.2495,322.3281 L351.3882,322.3281 L351.3882,329.6387 L341.3882,339.6387 L289.2495,339.6387 L289.2495,322.3281" fill="#EEEEEE" style="stroke:#000000;stroke-width:1.5;"/><rect fill="none" height="149.5078" style="stroke:#000000;stroke-width:1.5;" width="1281.2954" x="289.2495" y="322.3281"/><text fill="#000000" font-family="sans-serif" font-size="13" font-weight="700" lengthAdjust="spacing" textLength="17.1387" x="304.2495" y="335.8965">alt</text><text fill="#000000" font-family="sans-serif" font-size="11" font-weight="700" lengthAdjust="spacing" textLength="63.1694" x="366.3882" y="334.9629">[render ok]</text><g class="message" data-entity-1="part5" data-entity-2="part3" data-source-line="25" id="msg6"><polygon fill="#181818" points="744.1831,356.9492,734.1831,360.9492,744.1831,364.9492,740.1831,360.9492" style="stroke:#181818;stroke-width:1;"/><line style="stroke:#181818;stroke-width:1;stroke-dasharray:2,2;" x1="738.1831" x2="1283.2324" y1="360.9492" y2="360.9492"/><text fill="#000000" font-family="sans-serif" font-size="13" lengthAdjust="spacing" textLength="21.4614" x="750.1831" y="356.207">svg</text></g><g class="message" data-entity-1="part3" data-entity-2="part6" data-source-line="26" id="msg7"><polygon fill="#181818" points="1446.9229,386.2598,1456.9229,390.2598,1446.9229,394.2598,1450.9229,390.2598" style="stroke:#181818;stroke-width:1;"/><line style="stroke:#181818;stroke-width:1;" x1="733.1831" x2="1452.9229" y1="390.2598" y2="390.2598"/><text fill="#000000" font-family="sans-serif" font-size="13" lengthAdjust="spacing" textLength="194.1431" x="740.1831" y="385.5176">write deterministic mirror path</text></g><line style="stroke:#000000;stroke-width:1;stroke-dasharray:2,2;" x1="289.2495" x2="1570.5449" y1="399.2598" y2="399.2598"/><text fill="#000000" font-family="sans-serif" font-size="11" font-weight="700" lengthAdjust="spacing" textLength="132.999" x="294.2495" y="409.8945">[dot/syntax diagnostic]</text><g class="message" data-entity-1="part5" data-entity-2="part3" data-source-line="28" id="msg8"><polygon fill="#181818" points="744.1831,430.5254,734.1831,434.5254,744.1831,438.5254,740.1831,434.5254" style="stroke:#181818;stroke-width:1;"/><line style="stroke:#181818;stroke-width:1;stroke-dasharray:2,2;" x1="738.1831" x2="1283.2324" y1="434.5254" y2="434.5254"/><text fill="#000000" font-family="sans-serif" font-size="13" lengthAdjust="spacing" textLength="94.2373" x="750.1831" y="429.7832">diagnostic text</text></g><g class="message" data-entity-1="part3" data-entity-2="part2" data-source-line="29" id="msg9"><polygon fill="#181818" points="376.6606,459.8359,366.6606,463.8359,376.6606,467.8359,372.6606,463.8359" style="stroke:#181818;stroke-width:1;"/><line style="stroke:#181818;stroke-width:1;" x1="370.6606" x2="732.1831" y1="463.8359" y2="463.8359"/><text fill="#000000" font-family="sans-serif" font-size="13" lengthAdjust="spacing" textLength="256.2231" x="382.6606" y="459.0938">report readiness warning (non-blocking)</text></g><g class="message" data-entity-1="part2" data-entity-2="part1" data-source-line="32" id="msg10"><polygon fill="#181818" points="53.1592,503.1465,43.1592,507.1465,53.1592,511.1465,49.1592,507.1465" style="stroke:#181818;stroke-width:1;"/><line style="stroke:#181818;stroke-width:1;stroke-dasharray:2,2;" x1="47.1592" x2="364.6606" y1="507.1465" y2="507.1465"/><text fill="#000000" font-family="sans-serif" font-size="13" lengthAdjust="spacing" textLength="299.5015" x="59.1592" y="502.4043">cycle N closed; diff SVGs available to the viewer</text></g><path d="M1288,520.1465 L1288,591.1465 L1628,591.1465 L1628,530.1465 L1618,520.1465 L1288,520.1465" fill="#FEFFDD" style="stroke:#181818;stroke-width:0.5;"/><path d="M1618,520.1465 L1618,530.1465 L1628,530.1465 L1618,520.1465" fill="#FEFFDD" style="stroke:#181818;stroke-width:0.5;"/><text fill="#000000" font-family="sans-serif" font-size="13" lengthAdjust="spacing" textLength="317.1543" x="1294" y="537.7148">Path is a pure mirror: cycles/&lt;n&gt;/&lt;rel&gt;.diff.puml</text><text fill="#000000" font-family="sans-serif" font-size="13" lengthAdjust="spacing" textLength="253.8682" x="1294" y="553.0254">-&gt; rendered/cycles/&lt;n&gt;/&lt;rel&gt;.diff.svg</text><text fill="#000000" font-family="sans-serif" font-size="13" lengthAdjust="spacing" textLength="319.7378" x="1294" y="568.3359">(OCL-DIFF-SVG-PATH-DERIVED). The viewer never</text><text fill="#000000" font-family="sans-serif" font-size="13" lengthAdjust="spacing" textLength="285.9492" x="1294" y="583.6465">invokes PlantUML; it only consumes this SVG.</text><?plantuml-src XLLDK-905BpdLxpYOk8QkAjhQItuKQNeWdhoCYGF60apgPaXgBz-Un920WMr1yk2cUv-h_lDuuIkPHgE1t_ZqM3O7upY_iFjRJn-luk24xesF0tVneFgo_x3pTtevWa7E7gUV7BYPC6nbIdJDDDhccf3HbZ7Hlv8DID1oNUIyOabkyhPvDfoIjrKJgVTVBNCm3AL6LjocY18LfERCnMIrsmeNCzbCgUviAGqlMH2kRUdHs8raueZIeIYN4Zbm0BKiaklHivcR20n-QRUCatZMZt9e4oeAoUXccF3AcNJBTkvJjacXsmueyuzMcE1Mhf0zKfIsxjKLxtBXLGf_YcnvAkcBv9sQmEgGNSbi9BZ_p7OOkOhz4wK5-Ezwbkbdz62EVTE-zirFsnnStYVCYfOIYMjamajfJ68Hq_BkrQlJCBbpMud2fnq6TEehhaI9byE-OQs2OMwJZqA0f4u47RwN72c4M-741K-1RamK9Gv4gDE4qGLmuS2gDL3YTf4juliGtvKzMG-LDX0eXBZZu9KE34HiAUpdys7Ef9E2HwZTDwLsqxOf_1ol-ZEY7nUo1zAjQiaNt2yBtaerOFQoBKaULwv881D55_LVTFvPaGhduRmUSUZAAWl0bEM3WIhrPADS4odfxtJrlIjFAIc2ZAjysfwZ_WH4BNOlQiWhtJ3pPZyfarpmsCZ7u6bX3OKm6DEIAySyFik3OzCVel6cmsQtCVYsugTVncNr2vSP6v3JNg1prIXugQAYhDXXVluTcqaV3luGFoJ088pn87WU_PREV45LJ5JsbyyADCSa-CljoFPX6muryPNB5BiC6jfBOpoppTKMiMJJ2SmPUQzzBFj_xR9WCVFpFbsHCg1II-gHugtQKaKGcPYWbFNNgH1e3IQrGLe_EoXUByViAC47ZT6gMhydDfhoN2sEoBGFxY_cekLq-7pdyVjxenVRbxlOspJX_T1FyA6RhQxmjOmk2zLeHVu2QXVtmL9HrfbtvHePJ7Xs3rpr0gshdU4V3F_0000?></g></svg>