<svg xmlns="http://www.w3.org/2000/svg" xmlns:xlink="http://www.w3.org/1999/xlink" contentStyleType="text/css" data-diagram-type="SEQUENCE" height="743px" preserveAspectRatio="none" style="width:1044px;height:743px;background:#FFFFFF;" version="1.1" viewBox="0 0 1044 743" width="1044px" zoomAndPan="magnify"><?plantuml 1.2026.3?><defs/><g><g class="title" data-source-line="5"><text fill="#000000" font-family="sans-serif" font-size="14" font-weight="700" lengthAdjust="spacing" textLength="348.5029" x="344.2959" y="28.5352">Render a diagram page to the canvas (objective)</text></g><rect fill="none" height="206.1738" style="stroke:#000000;stroke-width:1.5;" width="1018.0947" x="10" y="437.7031"/><g class="participant-lifeline" data-entity-uid="part1" data-qualified-name="Dev" data-source-line="7" id="part1-lifeline"><g><title>Developer</title><rect fill="#000000" fill-opacity="0.00000" height="541.9004" width="8" x="53.1592" y="118.9766"/><line style="stroke:#181818;stroke-width:0.5;stroke-dasharray:5,5;" x1="57" x2="57" y1="118.9766" y2="660.877"/></g></g><g class="participant-lifeline" data-entity-uid="part2" data-qualified-name="Viewer" data-source-line="8" id="part2-lifeline"><g><title>MddViewer</title><rect fill="#000000" fill-opacity="0.00000" height="541.9004" width="8" x="239.6973" y="118.9766"/><line style="stroke:#181818;stroke-width:0.5;stroke-dasharray:5,5;" x1="243.4351" x2="243.4351" y1="118.9766" y2="660.877"/></g></g><g class="participant-lifeline" data-entity-uid="part3" data-qualified-name="FS" data-source-line="9" id="part3-lifeline"><g><title>.mdd.rendered...svg</title><rect fill="#000000" fill-opacity="0.00000" height="541.9004" width="8" x="480.0762" y="118.9766"/><line style="stroke:#181818;stroke-width:0.5;stroke-dasharray:5,5;" x1="483.4443" x2="483.4443" y1="118.9766" y2="660.877"/></g></g><g class="participant-lifeline" data-entity-uid="part4" data-qualified-name="FontDb" data-source-line="10" id="part4-lifeline"><g><title>FontDatabase</title><rect fill="#000000" fill-opacity="0.00000" height="541.9004" width="8" x="619.0557" y="118.9766"/><line style="stroke:#181818;stroke-width:0.5;stroke-dasharray:5,5;" x1="622.708" x2="622.708" y1="118.9766" y2="660.877"/></g></g><g class="participant-lifeline" data-entity-uid="part5" data-qualified-name="Usvg" data-source-line="11" id="part5-lifeline"><g><title>usvg..Tree</title><rect fill="#000000" fill-opacity="0.00000" height="541.9004" width="8" x="724.8237" y="118.9766"/><line style="stroke:#181818;stroke-width:0.5;stroke-dasharray:5,5;" x1="728.4033" x2="728.4033" y1="118.9766" y2="660.877"/></g></g><g class="participant-lifeline" data-entity-uid="part6" data-qualified-name="Resvg" data-source-line="12" id="part6-lifeline"><g><title>resvg . tiny-skia</title><rect fill="#000000" fill-opacity="0.00000" height="541.9004" width="8" x="842.8008" y="118.9766"/><line style="stroke:#181818;stroke-width:0.5;stroke-dasharray:5,5;" x1="846.2441" x2="846.2441" y1="118.9766" y2="660.877"/></g></g><g class="participant-lifeline" data-entity-uid="part7" data-qualified-name="Painter" data-source-line="13" id="part7-lifeline"><g><title>egui painter</title><rect fill="#000000" fill-opacity="0.00000" height="541.9004" width="8" x="966.2261" y="118.9766"/><line style="stroke:#181818;stroke-width:0.5;stroke-dasharray:5,5;" x1="969.3574" x2="969.3574" y1="118.9766" y2="660.877"/></g></g><g class="participant participant-head" data-entity-uid="part1" data-qualified-name="Dev" data-source-line="7" id="part1-head"><text fill="#000000" font-family="sans-serif" font-size="14" lengthAdjust="spacing" textLength="68.3184" x="20" y="116.0234">Developer</text><ellipse cx="57.1592" cy="50.9883" fill="#E2E2F0" rx="8" ry="8" style="stroke:#181818;stroke-width:0.5;"/><path d="M57.1592,58.9883 L57.1592,85.9883 M44.1592,66.9883 L70.1592,66.9883 M57.1592,85.9883 L44.1592,100.9883 M57.1592,85.9883 L70.1592,100.9883" fill="none" style="stroke:#181818;stroke-width:0.5;"/></g><g class="participant participant-tail" data-entity-uid="part1" data-qualified-name="Dev" data-source-line="7" id="part1-tail"><text fill="#000000" font-family="sans-serif" font-size="14" lengthAdjust="spacing" textLength="68.3184" x="20" y="673.4121">Developer</text><ellipse cx="57.1592" cy="684.8652" fill="#E2E2F0" rx="8" ry="8" style="stroke:#181818;stroke-width:0.5;"/><path d="M57.1592,692.8652 L57.1592,719.8652 M44.1592,700.8652 L70.1592,700.8652 M57.1592,719.8652 L44.1592,734.8652 M57.1592,719.8652 L70.1592,734.8652" fill="none" style="stroke:#181818;stroke-width:0.5;"/></g><g class="participant participant-head" data-entity-uid="part2" data-qualified-name="Viewer" data-source-line="8" id="part2-head"><rect fill="#E2E2F0" height="46.9766" rx="2.5" ry="2.5" style="stroke:#181818;stroke-width:0.5;" width="106.5244" x="190.4351" y="71"/><text fill="#000000" font-family="sans-serif" font-size="14" lengthAdjust="spacing" textLength="74.9971" x="206.1987" y="91.5352">MddViewer</text><text fill="#000000" font-family="sans-serif" font-size="14" lengthAdjust="spacing" textLength="92.5244" x="197.4351" y="108.0234">(eframe::App)</text></g><g class="participant participant-tail" data-entity-uid="part2" data-qualified-name="Viewer" data-source-line="8" id="part2-tail"><rect fill="#E2E2F0" height="46.9766" rx="2.5" ry="2.5" style="stroke:#181818;stroke-width:0.5;" width="106.5244" x="190.4351" y="659.877"/><text fill="#000000" font-family="sans-serif" font-size="14" lengthAdjust="spacing" textLength="74.9971" x="206.1987" y="680.4121">MddViewer</text><text fill="#000000" font-family="sans-serif" font-size="14" lengthAdjust="spacing" textLength="92.5244" x="197.4351" y="696.9004">(eframe::App)</text></g><g class="participant participant-head" data-entity-uid="part3" data-qualified-name="FS" data-source-line="9" id="part3-head"><text fill="#000000" font-family="sans-serif" font-size="14" lengthAdjust="spacing" textLength="145.2637" x="408.4443" y="116.0234">.mdd/rendered/*.svg</text><path d="M466.0762,66.4883 C466.0762,56.4883 484.0762,56.4883 484.0762,56.4883 C484.0762,56.4883 502.0762,56.4883 502.0762,66.4883 L502.0762,92.4883 C502.0762,102.4883 484.0762,102.4883 484.0762,102.4883 C484.0762,102.4883 466.0762,102.4883 466.0762,92.4883 L466.0762,66.4883" fill="#E2E2F0" style="stroke:#181818;stroke-width:0.5;"/><path d="M466.0762,66.4883 C466.0762,76.4883 484.0762,76.4883 484.0762,76.4883 C484.0762,76.4883 502.0762,76.4883 502.0762,66.4883" fill="none" style="stroke:#181818;stroke-width:0.5;"/></g><g class="participant participant-tail" data-entity-uid="part3" data-qualified-name="FS" data-source-line="9" id="part3-tail"><text fill="#000000" font-family="sans-serif" font-size="14" lengthAdjust="spacing" textLength="145.2637" x="408.4443" y="673.4121">.mdd/rendered/*.svg</text><path d="M466.0762,686.3652 C466.0762,676.3652 484.0762,676.3652 484.0762,676.3652 C484.0762,676.3652 502.0762,676.3652 502.0762,686.3652 L502.0762,712.3652 C502.0762,722.3652 484.0762,722.3652 484.0762,722.3652 C484.0762,722.3652 466.0762,722.3652 466.0762,712.3652 L466.0762,686.3652" fill="#E2E2F0" style="stroke:#181818;stroke-width:0.5;"/><path d="M466.0762,686.3652 C466.0762,696.3652 484.0762,696.3652 484.0762,696.3652 C484.0762,696.3652 502.0762,696.3652 502.0762,686.3652" fill="none" style="stroke:#181818;stroke-width:0.5;"/></g><g class="participant participant-head" data-entity-uid="part4" data-qualified-name="FontDb" data-source-line="10" id="part4-head"><rect fill="#E2E2F0" height="46.9766" rx="2.5" ry="2.5" style="stroke:#181818;stroke-width:0.5;" width="106.6953" x="569.708" y="71"/><text fill="#000000" font-family="sans-serif" font-size="14" lengthAdjust="spacing" textLength="92.6953" x="576.708" y="91.5352">FontDatabase</text><text fill="#000000" font-family="sans-serif" font-size="14" lengthAdjust="spacing" textLength="90.6309" x="577.7402" y="108.0234">(usvg fontdb)</text></g><g class="participant participant-tail" data-entity-uid="part4" data-qualified-name="FontDb" data-source-line="10" id="part4-tail"><rect fill="#E2E2F0" height="46.9766" rx="2.5" ry="2.5" style="stroke:#181818;stroke-width:0.5;" width="106.6953" x="569.708" y="659.877"/><text fill="#000000" font-family="sans-serif" font-size="14" lengthAdjust="spacing" textLength="92.6953" x="576.708" y="680.4121">FontDatabase</text><text fill="#000000" font-family="sans-serif" font-size="14" lengthAdjust="spacing" textLength="90.6309" x="577.7402" y="696.9004">(usvg fontdb)</text></g><g class="participant participant-head" data-entity-uid="part5" data-qualified-name="Usvg" data-source-line="11" id="part5-head"><rect fill="#E2E2F0" height="30.4883" rx="2.5" ry="2.5" style="stroke:#181818;stroke-width:0.5;" width="84.8408" x="686.4033" y="87.4883"/><text fill="#000000" font-family="sans-serif" font-size="14" lengthAdjust="spacing" textLength="70.8408" x="693.4033" y="108.0234">usvg::Tree</text></g><g class="participant participant-tail" data-entity-uid="part5" data-qualified-name="Usvg" data-source-line="11" id="part5-tail"><rect fill="#E2E2F0" height="30.4883" rx="2.5" ry="2.5" style="stroke:#181818;stroke-width:0.5;" width="84.8408" x="686.4033" y="659.877"/><text fill="#000000" font-family="sans-serif" font-size="14" lengthAdjust="spacing" textLength="70.8408" x="693.4033" y="680.4121">usvg::Tree</text></g><g class="participant participant-head" data-entity-uid="part6" data-qualified-name="Resvg" data-source-line="12" id="part6-head"><rect fill="#E2E2F0" height="30.4883" rx="2.5" ry="2.5" style="stroke:#181818;stroke-width:0.5;" width="131.1133" x="781.2441" y="87.4883"/><text fill="#000000" font-family="sans-serif" font-size="14" lengthAdjust="spacing" textLength="117.1133" x="788.2441" y="108.0234">resvg + tiny-skia</text></g><g class="participant participant-tail" data-entity-uid="part6" data-qualified-name="Resvg" data-source-line="12" id="part6-tail"><rect fill="#E2E2F0" height="30.4883" rx="2.5" ry="2.5" style="stroke:#181818;stroke-width:0.5;" width="131.1133" x="781.2441" y="659.877"/><text fill="#000000" font-family="sans-serif" font-size="14" lengthAdjust="spacing" textLength="117.1133" x="788.2441" y="680.4121">resvg + tiny-skia</text></g><g class="participant participant-head" data-entity-uid="part7" data-qualified-name="Painter" data-source-line="13" id="part7-head"><rect fill="#E2E2F0" height="30.4883" rx="2.5" ry="2.5" style="stroke:#181818;stroke-width:0.5;" width="95.7373" x="922.3574" y="87.4883"/><text fill="#000000" font-family="sans-serif" font-size="14" lengthAdjust="spacing" textLength="81.7373" x="929.3574" y="108.0234">egui painter</text></g><g class="participant participant-tail" data-entity-uid="part7" data-qualified-name="Painter" data-source-line="13" id="part7-tail"><rect fill="#E2E2F0" height="30.4883" rx="2.5" ry="2.5" style="stroke:#181818;stroke-width:0.5;" width="95.7373" x="922.3574" y="659.877"/><text fill="#000000" font-family="sans-serif" font-size="14" lengthAdjust="spacing" textLength="81.7373" x="929.3574" y="680.4121">egui painter</text></g><g class="message" data-entity-1="part1" data-entity-2="part2" data-source-line="15" id="msg1"><polygon fill="#181818" points="231.6973,146.2871,241.6973,150.2871,231.6973,154.2871,235.6973,150.2871" style="stroke:#181818;stroke-width:1;"/><line style="stroke:#181818;stroke-width:1;" x1="57.1592" x2="237.6973" y1="150.2871" y2="150.2871"/><text fill="#000000" font-family="sans-serif" font-size="13" lengthAdjust="spacing" textLength="162.5381" x="64.1592" y="145.5449">open / select diagram file</text></g><g class="message" data-entity-1="part2" data-entity-2="part4" data-source-line="16" id="msg2"><polygon fill="#181818" points="611.0557,175.5977,621.0557,179.5977,611.0557,183.5977,615.0557,179.5977" style="stroke:#181818;stroke-width:1;"/><line style="stroke:#181818;stroke-width:1;" x1="243.6973" x2="617.0557" y1="179.5977" y2="179.5977"/><text fill="#000000" font-family="sans-serif" font-size="13" lengthAdjust="spacing" textLength="219.9082" x="250.6973" y="174.8555">load_system_fonts() (once, cached)</text></g><path d="M628,192.5977 L628,278.5977 L978,278.5977 L978,202.5977 L968,192.5977 L628,192.5977" fill="#FEFFDD" style="stroke:#181818;stroke-width:0.5;"/><path d="M968,192.5977 L968,202.5977 L978,202.5977 L968,192.5977" fill="#FEFFDD" style="stroke:#181818;stroke-width:0.5;"/><text fill="#000000" font-family="sans-serif" font-size="13" lengthAdjust="spacing" textLength="259.9365" x="634" y="210.166">Objective: the font database is populated</text><text fill="#000000" font-family="sans-serif" font-size="13" lengthAdjust="spacing" textLength="246.2383" x="634" y="225.4766">with the host's system fonts before the</text><text fill="#000000" font-family="sans-serif" font-size="13" lengthAdjust="spacing" textLength="248.7837" x="634" y="240.7871">first parse. usvg::Options.font_family is</text><text fill="#000000" font-family="sans-serif" font-size="13" lengthAdjust="spacing" textLength="329.7861" x="634" y="256.0977">set to a sane default. See OCL-FONTDB-POPULATED</text><text fill="#000000" font-family="sans-serif" font-size="13" lengthAdjust="spacing" textLength="179.0166" x="634" y="271.4082">and DOM-FONT-DATABASE.</text><g class="message" data-entity-1="part4" data-entity-2="part2" data-source-line="24" id="msg3"><polygon fill="#181818" points="254.6973,301.4609,244.6973,305.4609,254.6973,309.4609,250.6973,305.4609" style="stroke:#181818;stroke-width:1;"/><line style="stroke:#181818;stroke-width:1;stroke-dasharray:2,2;" x1="248.6973" x2="622.0557" y1="305.4609" y2="305.4609"/><text fill="#000000" font-family="sans-serif" font-size="13" lengthAdjust="spacing" textLength="90.4541" x="260.6973" y="300.7188">fontCount &gt; 0</text></g><g class="message" data-entity-1="part2" data-entity-2="part3" data-source-line="26" id="msg4"><polygon fill="#181818" points="472.0762,330.7715,482.0762,334.7715,472.0762,338.7715,476.0762,334.7715" style="stroke:#181818;stroke-width:1;"/><line style="stroke:#181818;stroke-width:1;" x1="243.6973" x2="478.0762" y1="334.7715" y2="334.7715"/><text fill="#000000" font-family="sans-serif" font-size="13" lengthAdjust="spacing" textLength="216.3789" x="250.6973" y="330.0293">read(.mdd/rendered/&lt;page&gt;.svg)</text></g><g class="message" data-entity-1="part3" data-entity-2="part2" data-source-line="27" id="msg5"><polygon fill="#181818" points="254.6973,360.082,244.6973,364.082,254.6973,368.082,250.6973,364.082" style="stroke:#181818;stroke-width:1;"/><line style="stroke:#181818;stroke-width:1;stroke-dasharray:2,2;" x1="248.6973" x2="483.0762" y1="364.082" y2="364.082"/><text fill="#000000" font-family="sans-serif" font-size="13" lengthAdjust="spacing" textLength="61.6675" x="260.6973" y="359.3398">svg_bytes</text></g><g class="message" data-entity-1="part2" data-entity-2="part5" data-source-line="28" id="msg6"><polygon fill="#181818" points="716.8237,389.3926,726.8237,393.3926,716.8237,397.3926,720.8237,393.3926" style="stroke:#181818;stroke-width:1;"/><line style="stroke:#181818;stroke-width:1;" x1="243.6973" x2="722.8237" y1="393.3926" y2="393.3926"/><text fill="#000000" font-family="sans-serif" font-size="13" lengthAdjust="spacing" textLength="284.4766" x="250.6973" y="388.6504">parse_intrinsic_size(bytes, opts WITH fontdb)</text></g><g class="message" data-entity-1="part5" data-entity-2="part2" data-source-line="29" id="msg7"><polygon fill="#181818" points="254.6973,418.7031,244.6973,422.7031,254.6973,426.7031,250.6973,422.7031" style="stroke:#181818;stroke-width:1;"/><line style="stroke:#181818;stroke-width:1;stroke-dasharray:2,2;" x1="248.6973" x2="727.8237" y1="422.7031" y2="422.7031"/><text fill="#000000" font-family="sans-serif" font-size="13" lengthAdjust="spacing" textLength="80.0693" x="260.6973" y="417.9609">intrinsic size</text></g><path d="M10,437.7031 L84.4468,437.7031 L84.4468,445.0137 L74.4468,455.0137 L10,455.0137 L10,437.7031" fill="#EEEEEE" style="stroke:#000000;stroke-width:1.5;"/><rect fill="none" height="206.1738" style="stroke:#000000;stroke-width:1.5;" width="1018.0947" x="10" y="437.7031"/><text fill="#000000" font-family="sans-serif" font-size="13" font-weight="700" lengthAdjust="spacing" textLength="29.4468" x="25" y="451.2715">loop</text><text fill="#000000" font-family="sans-serif" font-size="11" font-weight="700" lengthAdjust="spacing" textLength="211.6641" x="99.4468" y="450.3379">[each painted frame (zoom changed)]</text><g class="message" data-entity-1="part2" data-entity-2="part5" data-source-line="32" id="msg8"><polygon fill="#181818" points="716.8237,472.3242,726.8237,476.3242,716.8237,480.3242,720.8237,476.3242" style="stroke:#181818;stroke-width:1;"/><line style="stroke:#181818;stroke-width:1;" x1="243.6973" x2="722.8237" y1="476.3242" y2="476.3242"/><text fill="#000000" font-family="sans-serif" font-size="13" lengthAdjust="spacing" textLength="261.3457" x="250.6973" y="471.582">Tree::from_data(bytes, opts WITH fontdb)</text></g><g class="message" data-entity-1="part2" data-entity-2="part6" data-source-line="33" id="msg9"><polygon fill="#181818" points="834.8008,501.6348,844.8008,505.6348,834.8008,509.6348,838.8008,505.6348" style="stroke:#181818;stroke-width:1;"/><line style="stroke:#181818;stroke-width:1;" x1="243.6973" x2="840.8008" y1="505.6348" y2="505.6348"/><text fill="#000000" font-family="sans-serif" font-size="13" lengthAdjust="spacing" textLength="186.6846" x="250.6973" y="500.8926">render(tree, scale) -&gt; Pixmap</text></g><g class="message" data-entity-1="part6" data-entity-2="part2" data-source-line="34" id="msg10"><polygon fill="#181818" points="254.6973,530.9453,244.6973,534.9453,254.6973,538.9453,250.6973,534.9453" style="stroke:#181818;stroke-width:1;"/><line style="stroke:#181818;stroke-width:1;stroke-dasharray:2,2;" x1="248.6973" x2="845.8008" y1="534.9453" y2="534.9453"/><text fill="#000000" font-family="sans-serif" font-size="13" lengthAdjust="spacing" textLength="234.7554" x="260.6973" y="530.2031">premultiplied RGBA (glyphs included)</text></g><g class="message" data-entity-1="part2" data-entity-2="part2" data-source-line="35" id="msg11"><line style="stroke:#181818;stroke-width:1;" x1="243.6973" x2="285.6973" y1="564.2559" y2="564.2559"/><line style="stroke:#181818;stroke-width:1;" x1="285.6973" x2="285.6973" y1="564.2559" y2="577.2559"/><line style="stroke:#181818;stroke-width:1;" x1="244.6973" x2="285.6973" y1="577.2559" y2="577.2559"/><polygon fill="#181818" points="254.6973,573.2559,244.6973,577.2559,254.6973,581.2559,250.6973,577.2559" style="stroke:#181818;stroke-width:1;"/><text fill="#000000" font-family="sans-serif" font-size="13" lengthAdjust="spacing" textLength="110.481" x="250.6973" y="559.5137">demultiply_rgba()</text></g><g class="message" data-entity-1="part2" data-entity-2="part7" data-source-line="36" id="msg12"><polygon fill="#181818" points="958.2261,602.5664,968.2261,606.5664,958.2261,610.5664,962.2261,606.5664" style="stroke:#181818;stroke-width:1;"/><line style="stroke:#181818;stroke-width:1;" x1="243.6973" x2="964.2261" y1="606.5664" y2="606.5664"/><text fill="#000000" font-family="sans-serif" font-size="13" lengthAdjust="spacing" textLength="201.792" x="250.6973" y="601.8242">load_texture() + painter.image()</text></g><g class="message" data-entity-1="part7" data-entity-2="part1" data-source-line="37" id="msg13"><polygon fill="#181818" points="68.1592,631.877,58.1592,635.877,68.1592,639.877,64.1592,635.877" style="stroke:#181818;stroke-width:1;"/><line style="stroke:#181818;stroke-width:1;stroke-dasharray:2,2;" x1="62.1592" x2="969.2261" y1="635.877" y2="635.877"/><text fill="#000000" font-family="sans-serif" font-size="13" lengthAdjust="spacing" textLength="160.5449" x="74.1592" y="631.1348">diagram drawn WITH text</text></g><?plantuml-src TLJ1JkCm4BtxAqPSI1TIzXoXYa03YmIqsnIuh5IvyQJrRc97jjjIldx7Jbh8ehqrdJVFC-yz-nIkf8Zox6Syovx6sImUtwTti_GndgPtsO2TmfN1CdhEi_ZbFdizL7DVcIn_O-7a5cCh1K9PwLq2TcyTrb1gvInmWr1fBb20L4w3MoDix7OLoiGWkEDBRX6kizl9B0Ekzf2_t86qq71ZKPo3rN3fyCsDO5NjctNBQJWTOkGxYY5pqbK8CrG23N0GagyChwb_XT0TMN2rvHOYVHXum1Wld3PmCiOjLhf1SmA4e2z61pjPo8Oh1oUFGhn8tA7vfI8iYHUJ96sQGK2t5NPSucHO2t5XmYGeBhuDQTC0lCtxhBUq_RZh8kAZ8cBP4eVwij_ZGKaoDuW1yaoVVO11JtC6JgfzRFz87d0p_0B4rKQIF6H8j_Mq_SqOhG_ngDiB4Y1T55o0nOfaEofRoWfPXo5qEooXlT6Brlv5i3yQaEIgm7Coe5YZ632b7PadLsi7kZoi2Hz1Ie9TllaZ6ZuBkjbKtA4Wx4wwTK2jjNMdjf-t9PQQua5bGfRIMDVcQ0YjV9F6IQtiqACN9QzbjIT-mbfqFYmSB5S80ak-gTmGSaIOt3p4jvEd-VWwdawcpm_fF1jJ1rS2nfF7K8h7wJozJlDioCXyy5koJfRuivx-s1kzeUr6y9rzrZ2dga4kedw4BdsAHpv70qQO7XdzkLZk7TfFF3uLL0exByXK8vMLnSBIJOa2zfmy9PrUx-S_3ebZeQb7VUm4tybOfNK3I1vsiH4GhW94xrhNKAovMdbt0RvCulEQ9ANHzS8R-lyXFlU6p0P1l0oH8mvw1mfUuS2Nf_AjvWrrjBZUv8t1cfoJJILfojdTTGfHzsv8LLGRyU-SnqvnQDmlp6h9epwikoA7bFi7QMEG0dvsk4b3MPDNeUq0zfFvAvKShuumVAVQnJs5JyjV?></g></svg>