<svg xmlns="http://www.w3.org/2000/svg" xmlns:xlink="http://www.w3.org/1999/xlink" contentStyleType="text/css" data-diagram-type="SEQUENCE" height="877px" preserveAspectRatio="none" style="width:1352px;height:877px;background:#FFFFFF;" version="1.1" viewBox="0 0 1352 877" width="1352px" zoomAndPan="magnify"><?plantuml 1.2026.3?><defs/><g><g class="title" data-source-line="9"><text fill="#000000" font-family="sans-serif" font-size="14" font-weight="700" lengthAdjust="spacing" textLength="276.7051" x="534.562" y="28.5352">View an OCL constraint file (objective)</text></g><rect fill="none" height="421.5684" style="stroke:#000000;stroke-width:1.5;" width="1326.8291" x="10" y="226.3965"/><rect fill="none" height="61.9316" style="stroke:#000000;stroke-width:1.5;" width="436.9189" x="30" y="309.3281"/><rect fill="none" height="196.1289" style="stroke:#000000;stroke-width:1.5;" width="1306.8291" x="20" y="444.8359"/><rect fill="none" height="75.9316" style="stroke:#000000;stroke-width:1.5;" width="1286.8291" x="30" y="498.457"/><g class="participant-lifeline" data-entity-uid="part1" data-qualified-name="Dev" data-source-line="11" id="part1-lifeline"><g><title>Developer</title><rect fill="#000000" fill-opacity="0.00000" height="670.6738" width="8" x="73.1592" y="121.4648"/><line style="stroke:#181818;stroke-width:0.5;stroke-dasharray:5,5;" x1="77" x2="77" y1="121.4648" y2="792.1387"/></g></g><g class="participant-lifeline" data-entity-uid="part2" data-qualified-name="Viewer" data-source-line="12" id="part2-lifeline"><g><title>MddViewer</title><rect fill="#000000" fill-opacity="0.00000" height="670.6738" width="8" x="399.6567" y="121.4648"/><line style="stroke:#181818;stroke-width:0.5;stroke-dasharray:5,5;" x1="403.3945" x2="403.3945" y1="121.4648" y2="792.1387"/></g></g><g class="participant-lifeline" data-entity-uid="part3" data-qualified-name="OV" data-source-line="13" id="part3-lifeline"><g><title>OclView</title><rect fill="#000000" fill-opacity="0.00000" height="670.6738" width="8" x="509.4307" y="121.4648"/><line style="stroke:#181818;stroke-width:0.5;stroke-dasharray:5,5;" x1="512.9189" x2="512.9189" y1="121.4648" y2="792.1387"/></g></g><g class="participant-lifeline" data-entity-uid="part4" data-qualified-name="Ocl" data-source-line="14" id="part4-lifeline"><g><title>.mdd.constraints.</title><rect fill="#000000" fill-opacity="0.00000" height="670.6738" width="8" x="631.5459" y="121.4648"/><line style="stroke:#181818;stroke-width:0.5;stroke-dasharray:5,5;" x1="634.9424" x2="634.9424" y1="121.4648" y2="792.1387"/></g></g><g class="participant-lifeline" data-entity-uid="part5" data-qualified-name="Rend" data-source-line="15" id="part5-lifeline"><g><title>synthesize_ocl_puml .</title><rect fill="#000000" fill-opacity="0.00000" height="670.6738" width="8" x="792.0825" y="121.4648"/><line style="stroke:#181818;stroke-width:0.5;stroke-dasharray:5,5;" x1="795.1494" x2="795.1494" y1="121.4648" y2="792.1387"/></g></g><g class="participant-lifeline" data-entity-uid="part6" data-qualified-name="Out" data-source-line="16" id="part6-lifeline"><g><title>.mdd.rendered.constraints.</title><rect fill="#000000" fill-opacity="0.00000" height="670.6738" width="8" x="986.874" y="121.4648"/><line style="stroke:#181818;stroke-width:0.5;stroke-dasharray:5,5;" x1="990.0156" x2="990.0156" y1="121.4648" y2="792.1387"/></g></g><g class="participant-lifeline" data-entity-uid="part7" data-qualified-name="Page" data-source-line="17" id="part7-lifeline"><g><title>DiagramPage</title><rect fill="#000000" fill-opacity="0.00000" height="670.6738" width="8" x="1199.7808" y="121.4648"/><line style="stroke:#181818;stroke-width:0.5;stroke-dasharray:5,5;" x1="1203.7324" x2="1203.7324" y1="121.4648" y2="792.1387"/></g></g><g class="participant participant-head" data-entity-uid="part1" data-qualified-name="Dev" data-source-line="11" id="part1-head"><text fill="#000000" font-family="sans-serif" font-size="14" lengthAdjust="spacing" textLength="68.3184" x="40" y="118.5117">Developer</text><ellipse cx="77.1592" cy="53.4766" fill="#E2E2F0" rx="8" ry="8" style="stroke:#181818;stroke-width:0.5;"/><path d="M77.1592,61.4766 L77.1592,88.4766 M64.1592,69.4766 L90.1592,69.4766 M77.1592,88.4766 L64.1592,103.4766 M77.1592,88.4766 L90.1592,103.4766" fill="none" style="stroke:#181818;stroke-width:0.5;"/></g><g class="participant participant-tail" data-entity-uid="part1" data-qualified-name="Dev" data-source-line="11" id="part1-tail"><text fill="#000000" font-family="sans-serif" font-size="14" lengthAdjust="spacing" textLength="68.3184" x="40" y="804.6738">Developer</text><ellipse cx="77.1592" cy="816.127" fill="#E2E2F0" rx="8" ry="8" style="stroke:#181818;stroke-width:0.5;"/><path d="M77.1592,824.127 L77.1592,851.127 M64.1592,832.127 L90.1592,832.127 M77.1592,851.127 L64.1592,866.127 M77.1592,851.127 L90.1592,866.127" fill="none" style="stroke:#181818;stroke-width:0.5;"/></g><g class="participant participant-head" data-entity-uid="part2" data-qualified-name="Viewer" data-source-line="12" id="part2-head"><rect fill="#E2E2F0" height="46.9766" rx="2.5" ry="2.5" style="stroke:#181818;stroke-width:0.5;" width="106.5244" x="350.3945" y="73.4883"/><text fill="#000000" font-family="sans-serif" font-size="14" lengthAdjust="spacing" textLength="74.9971" x="366.1582" y="94.0234">MddViewer</text><text fill="#000000" font-family="sans-serif" font-size="14" lengthAdjust="spacing" textLength="92.5244" x="357.3945" y="110.5117">(eframe::App)</text></g><g class="participant participant-tail" data-entity-uid="part2" data-qualified-name="Viewer" data-source-line="12" id="part2-tail"><rect fill="#E2E2F0" height="46.9766" rx="2.5" ry="2.5" style="stroke:#181818;stroke-width:0.5;" width="106.5244" x="350.3945" y="791.1387"/><text fill="#000000" font-family="sans-serif" font-size="14" lengthAdjust="spacing" textLength="74.9971" x="366.1582" y="811.6738">MddViewer</text><text fill="#000000" font-family="sans-serif" font-size="14" lengthAdjust="spacing" textLength="92.5244" x="357.3945" y="828.1621">(eframe::App)</text></g><g class="participant participant-head" data-entity-uid="part3" data-qualified-name="OV" data-source-line="13" id="part3-head"><rect fill="#E2E2F0" height="46.9766" rx="2.5" ry="2.5" style="stroke:#181818;stroke-width:0.5;" width="93.0234" x="466.9189" y="73.4883"/><text fill="#000000" font-family="sans-serif" font-size="14" lengthAdjust="spacing" textLength="53.8809" x="486.4902" y="94.0234">OclView</text><text fill="#000000" font-family="sans-serif" font-size="14" lengthAdjust="spacing" textLength="79.0234" x="473.9189" y="110.5117">{sub_mode}</text></g><g class="participant participant-tail" data-entity-uid="part3" data-qualified-name="OV" data-source-line="13" id="part3-tail"><rect fill="#E2E2F0" height="46.9766" rx="2.5" ry="2.5" style="stroke:#181818;stroke-width:0.5;" width="93.0234" x="466.9189" y="791.1387"/><text fill="#000000" font-family="sans-serif" font-size="14" lengthAdjust="spacing" textLength="53.8809" x="486.4902" y="811.6738">OclView</text><text fill="#000000" font-family="sans-serif" font-size="14" lengthAdjust="spacing" textLength="79.0234" x="473.9189" y="828.1621">{sub_mode}</text></g><g class="participant participant-head" data-entity-uid="part4" data-qualified-name="Ocl" data-source-line="14" id="part4-head"><text fill="#000000" font-family="sans-serif" font-size="14" lengthAdjust="spacing" textLength="125.207" x="569.9424" y="102.0234">.mdd/constraints/</text><text fill="#000000" font-family="sans-serif" font-size="14" lengthAdjust="spacing" textLength="83.7949" x="590.6484" y="118.5117">&lt;name&gt;.ocl</text><path d="M617.5459,52.4883 C617.5459,42.4883 635.5459,42.4883 635.5459,42.4883 C635.5459,42.4883 653.5459,42.4883 653.5459,52.4883 L653.5459,78.4883 C653.5459,88.4883 635.5459,88.4883 635.5459,88.4883 C635.5459,88.4883 617.5459,88.4883 617.5459,78.4883 L617.5459,52.4883" fill="#E2E2F0" style="stroke:#181818;stroke-width:0.5;"/><path d="M617.5459,52.4883 C617.5459,62.4883 635.5459,62.4883 635.5459,62.4883 C635.5459,62.4883 653.5459,62.4883 653.5459,52.4883" fill="none" style="stroke:#181818;stroke-width:0.5;"/></g><g class="participant participant-tail" data-entity-uid="part4" data-qualified-name="Ocl" data-source-line="14" id="part4-tail"><text fill="#000000" font-family="sans-serif" font-size="14" lengthAdjust="spacing" textLength="125.207" x="569.9424" y="804.6738">.mdd/constraints/</text><text fill="#000000" font-family="sans-serif" font-size="14" lengthAdjust="spacing" textLength="83.7949" x="590.6484" y="821.1621">&lt;name&gt;.ocl</text><path d="M617.5459,834.1152 C617.5459,824.1152 635.5459,824.1152 635.5459,824.1152 C635.5459,824.1152 653.5459,824.1152 653.5459,834.1152 L653.5459,860.1152 C653.5459,870.1152 635.5459,870.1152 635.5459,870.1152 C635.5459,870.1152 617.5459,870.1152 617.5459,860.1152 L617.5459,834.1152" fill="#E2E2F0" style="stroke:#181818;stroke-width:0.5;"/><path d="M617.5459,834.1152 C617.5459,844.1152 635.5459,844.1152 635.5459,844.1152 C635.5459,844.1152 653.5459,844.1152 653.5459,834.1152" fill="none" style="stroke:#181818;stroke-width:0.5;"/></g><g class="participant participant-head" data-entity-uid="part5" data-qualified-name="Rend" data-source-line="15" id="part5-head"><rect fill="#E2E2F0" height="63.4648" rx="2.5" ry="2.5" style="stroke:#181818;stroke-width:0.5;" width="169.8662" x="711.1494" y="57"/><text fill="#000000" font-family="sans-serif" font-size="14" lengthAdjust="spacing" textLength="155.8662" x="718.1494" y="77.5352">synthesize_ocl_puml +</text><text fill="#000000" font-family="sans-serif" font-size="14" lengthAdjust="spacing" textLength="141.3604" x="725.4023" y="94.0234">render_ocl_diagrams</text><text fill="#000000" font-family="sans-serif" font-size="14" lengthAdjust="spacing" textLength="92.4561" x="749.8545" y="110.5117">(mdd-render)</text></g><g class="participant participant-tail" data-entity-uid="part5" data-qualified-name="Rend" data-source-line="15" id="part5-tail"><rect fill="#E2E2F0" height="63.4648" rx="2.5" ry="2.5" style="stroke:#181818;stroke-width:0.5;" width="169.8662" x="711.1494" y="791.1387"/><text fill="#000000" font-family="sans-serif" font-size="14" lengthAdjust="spacing" textLength="155.8662" x="718.1494" y="811.6738">synthesize_ocl_puml +</text><text fill="#000000" font-family="sans-serif" font-size="14" lengthAdjust="spacing" textLength="141.3604" x="725.4023" y="828.1621">render_ocl_diagrams</text><text fill="#000000" font-family="sans-serif" font-size="14" lengthAdjust="spacing" textLength="92.4561" x="749.8545" y="844.6504">(mdd-render)</text></g><g class="participant participant-head" data-entity-uid="part6" data-qualified-name="Out" data-source-line="16" id="part6-head"><text fill="#000000" font-family="sans-serif" font-size="14" lengthAdjust="spacing" textLength="193.7168" x="891.0156" y="102.0234">.mdd/rendered/constraints/</text><text fill="#000000" font-family="sans-serif" font-size="14" lengthAdjust="spacing" textLength="87.0898" x="944.3291" y="118.5117">&lt;name&gt;.svg</text><path d="M972.874,52.4883 C972.874,42.4883 990.874,42.4883 990.874,42.4883 C990.874,42.4883 1008.874,42.4883 1008.874,52.4883 L1008.874,78.4883 C1008.874,88.4883 990.874,88.4883 990.874,88.4883 C990.874,88.4883 972.874,88.4883 972.874,78.4883 L972.874,52.4883" fill="#E2E2F0" style="stroke:#181818;stroke-width:0.5;"/><path d="M972.874,52.4883 C972.874,62.4883 990.874,62.4883 990.874,62.4883 C990.874,62.4883 1008.874,62.4883 1008.874,52.4883" fill="none" style="stroke:#181818;stroke-width:0.5;"/></g><g class="participant participant-tail" data-entity-uid="part6" data-qualified-name="Out" data-source-line="16" id="part6-tail"><text fill="#000000" font-family="sans-serif" font-size="14" lengthAdjust="spacing" textLength="193.7168" x="891.0156" y="804.6738">.mdd/rendered/constraints/</text><text fill="#000000" font-family="sans-serif" font-size="14" lengthAdjust="spacing" textLength="87.0898" x="944.3291" y="821.1621">&lt;name&gt;.svg</text><path d="M972.874,834.1152 C972.874,824.1152 990.874,824.1152 990.874,824.1152 C990.874,824.1152 1008.874,824.1152 1008.874,834.1152 L1008.874,860.1152 C1008.874,870.1152 990.874,870.1152 990.874,870.1152 C990.874,870.1152 972.874,870.1152 972.874,860.1152 L972.874,834.1152" fill="#E2E2F0" style="stroke:#181818;stroke-width:0.5;"/><path d="M972.874,834.1152 C972.874,844.1152 990.874,844.1152 990.874,844.1152 C990.874,844.1152 1008.874,844.1152 1008.874,834.1152" fill="none" style="stroke:#181818;stroke-width:0.5;"/></g><g class="participant participant-head" data-entity-uid="part7" data-qualified-name="Page" data-source-line="17" id="part7-head"><rect fill="#E2E2F0" height="46.9766" rx="2.5" ry="2.5" style="stroke:#181818;stroke-width:0.5;" width="206.0967" x="1100.7324" y="73.4883"/><text fill="#000000" font-family="sans-serif" font-size="14" lengthAdjust="spacing" textLength="89.5234" x="1159.019" y="94.0234">DiagramPage</text><text fill="#000000" font-family="sans-serif" font-size="14" lengthAdjust="spacing" textLength="192.0967" x="1107.7324" y="110.5117">(usvg/resvg) + paint_canvas</text></g><g class="participant participant-tail" data-entity-uid="part7" data-qualified-name="Page" data-source-line="17" id="part7-tail"><rect fill="#E2E2F0" height="46.9766" rx="2.5" ry="2.5" style="stroke:#181818;stroke-width:0.5;" width="206.0967" x="1100.7324" y="791.1387"/><text fill="#000000" font-family="sans-serif" font-size="14" lengthAdjust="spacing" textLength="89.5234" x="1159.019" y="811.6738">DiagramPage</text><text fill="#000000" font-family="sans-serif" font-size="14" lengthAdjust="spacing" textLength="192.0967" x="1107.7324" y="828.1621">(usvg/resvg) + paint_canvas</text></g><g class="message" data-entity-1="part1" data-entity-2="part2" data-source-line="19" id="msg1"><polygon fill="#181818" points="391.6567,148.7754,401.6567,152.7754,391.6567,156.7754,395.6567,152.7754" style="stroke:#181818;stroke-width:1;"/><line style="stroke:#181818;stroke-width:1;" x1="77.1592" x2="397.6567" y1="152.7754" y2="152.7754"/><text fill="#000000" font-family="sans-serif" font-size="13" lengthAdjust="spacing" textLength="162.3159" x="84.1592" y="148.0332">select a .ocl file in the rail</text></g><g class="message" data-entity-1="part2" data-entity-2="part3" data-source-line="20" id="msg2"><polygon fill="#181818" points="501.4307,178.0859,511.4307,182.0859,501.4307,186.0859,505.4307,182.0859" style="stroke:#181818;stroke-width:1;"/><line style="stroke:#181818;stroke-width:1;" x1="403.6567" x2="507.4307" y1="182.0859" y2="182.0859"/><text fill="#000000" font-family="sans-serif" font-size="13" lengthAdjust="spacing" textLength="56.1831" x="410.6567" y="177.3438">bind(file)</text></g><g class="message" data-entity-1="part2" data-entity-2="part1" data-source-line="21" id="msg3"><polygon fill="#181818" points="88.1592,207.3965,78.1592,211.3965,88.1592,215.3965,84.1592,211.3965" style="stroke:#181818;stroke-width:1;"/><line style="stroke:#181818;stroke-width:1;" x1="82.1592" x2="402.6567" y1="211.3965" y2="211.3965"/><text fill="#000000" font-family="sans-serif" font-size="13" lengthAdjust="spacing" textLength="302.4976" x="94.1592" y="206.6543">show "Source | Diagram" toggle (default Source)</text></g><path d="M10,226.3965 L72.1387,226.3965 L72.1387,233.707 L62.1387,243.707 L10,243.707 L10,226.3965" fill="#EEEEEE" style="stroke:#000000;stroke-width:1.5;"/><rect fill="none" height="421.5684" style="stroke:#000000;stroke-width:1.5;" width="1326.8291" x="10" y="226.3965"/><text fill="#000000" font-family="sans-serif" font-size="13" font-weight="700" lengthAdjust="spacing" textLength="17.1387" x="25" y="239.9648">alt</text><text fill="#000000" font-family="sans-serif" font-size="11" font-weight="700" lengthAdjust="spacing" textLength="171.4453" x="87.1387" y="239.0313">[sub_mode = Source (default)]</text><g class="message" data-entity-1="part2" data-entity-2="part4" data-source-line="24" id="msg4"><polygon fill="#181818" points="623.5459,261.0176,633.5459,265.0176,623.5459,269.0176,627.5459,265.0176" style="stroke:#181818;stroke-width:1;"/><line style="stroke:#181818;stroke-width:1;" x1="403.6567" x2="629.5459" y1="265.0176" y2="265.0176"/><text fill="#000000" font-family="sans-serif" font-size="13" lengthAdjust="spacing" textLength="83.605" x="410.6567" y="260.2754">read raw text</text></g><g class="message" data-entity-1="part4" data-entity-2="part2" data-source-line="25" id="msg5"><polygon fill="#181818" points="414.6567,290.3281,404.6567,294.3281,414.6567,298.3281,410.6567,294.3281" style="stroke:#181818;stroke-width:1;"/><line style="stroke:#181818;stroke-width:1;stroke-dasharray:2,2;" x1="408.6567" x2="634.5459" y1="294.3281" y2="294.3281"/><text fill="#000000" font-family="sans-serif" font-size="13" lengthAdjust="spacing" textLength="72.0396" x="420.6567" y="289.5859">OCL source</text></g><path d="M30,309.3281 L104.4468,309.3281 L104.4468,316.6387 L94.4468,326.6387 L30,326.6387 L30,309.3281" fill="#EEEEEE" style="stroke:#000000;stroke-width:1.5;"/><rect fill="none" height="61.9316" style="stroke:#000000;stroke-width:1.5;" width="436.9189" x="30" y="309.3281"/><text fill="#000000" font-family="sans-serif" font-size="13" font-weight="700" lengthAdjust="spacing" textLength="29.4468" x="45" y="322.8965">loop</text><text fill="#000000" font-family="sans-serif" font-size="11" font-weight="700" lengthAdjust="spacing" textLength="117.2832" x="119.4468" y="321.9629">[each painted frame]</text><g class="message" data-entity-1="part2" data-entity-2="part1" data-source-line="27" id="msg6"><polygon fill="#181818" points="88.1592,359.2598,78.1592,363.2598,88.1592,367.2598,84.1592,363.2598" style="stroke:#181818;stroke-width:1;"/><line style="stroke:#181818;stroke-width:1;" x1="82.1592" x2="402.6567" y1="363.2598" y2="363.2598"/><text fill="#000000" font-family="sans-serif" font-size="13" lengthAdjust="spacing" textLength="155.6826" x="94.1592" y="343.207">scrollable read-only text</text><text fill="#000000" font-family="sans-serif" font-size="13" lengthAdjust="spacing" textLength="203.9375" x="94.1592" y="358.5176">(@id / context / inv highlighted)</text></g><line style="stroke:#000000;stroke-width:1;stroke-dasharray:2,2;" x1="10" x2="1336.8291" y1="379.2598" y2="379.2598"/><text fill="#000000" font-family="sans-serif" font-size="11" font-weight="700" lengthAdjust="spacing" textLength="129.9697" x="15" y="389.8945">[sub_mode = Diagram]</text><g class="message" data-entity-1="part3" data-entity-2="part6" data-source-line="30" id="msg7"><polygon fill="#181818" points="978.874,425.8359,988.874,429.8359,978.874,433.8359,982.874,429.8359" style="stroke:#181818;stroke-width:1;"/><line style="stroke:#181818;stroke-width:1;" x1="513.4307" x2="984.874" y1="429.8359" y2="429.8359"/><text fill="#000000" font-family="sans-serif" font-size="13" lengthAdjust="spacing" textLength="199.5386" x="520.4307" y="409.7832">resolve rendered_svg_path(.ocl)</text><text fill="#000000" font-family="sans-serif" font-size="13" lengthAdjust="spacing" textLength="269.2041" x="520.4307" y="425.0938">(.mdd/rendered/constraints/&lt;name&gt;.svg)</text></g><path d="M20,444.8359 L82.1387,444.8359 L82.1387,452.1465 L72.1387,462.1465 L20,462.1465 L20,444.8359" fill="#EEEEEE" style="stroke:#000000;stroke-width:1.5;"/><rect fill="none" height="196.1289" style="stroke:#000000;stroke-width:1.5;" width="1306.8291" x="20" y="444.8359"/><text fill="#000000" font-family="sans-serif" font-size="13" font-weight="700" lengthAdjust="spacing" textLength="17.1387" x="35" y="458.4043">alt</text><text fill="#000000" font-family="sans-serif" font-size="11" font-weight="700" lengthAdjust="spacing" textLength="131.7959" x="97.1387" y="457.4707">[rendered SVG present]</text><g class="message" data-entity-1="part6" data-entity-2="part7" data-source-line="32" id="msg8"><polygon fill="#181818" points="1191.7808,479.457,1201.7808,483.457,1191.7808,487.457,1195.7808,483.457" style="stroke:#181818;stroke-width:1;"/><line style="stroke:#181818;stroke-width:1;stroke-dasharray:2,2;" x1="990.874" x2="1197.7808" y1="483.457" y2="483.457"/><text fill="#000000" font-family="sans-serif" font-size="13" lengthAdjust="spacing" textLength="59.2808" x="997.874" y="478.7148">svg bytes</text></g><path d="M30,498.457 L104.4468,498.457 L104.4468,505.7676 L94.4468,515.7676 L30,515.7676 L30,498.457" fill="#EEEEEE" style="stroke:#000000;stroke-width:1.5;"/><rect fill="none" height="75.9316" style="stroke:#000000;stroke-width:1.5;" width="1286.8291" x="30" y="498.457"/><text fill="#000000" font-family="sans-serif" font-size="13" font-weight="700" lengthAdjust="spacing" textLength="29.4468" x="45" y="512.0254">loop</text><text fill="#000000" font-family="sans-serif" font-size="11" font-weight="700" lengthAdjust="spacing" textLength="117.2832" x="119.4468" y="511.0918">[each painted frame]</text><g class="message" data-entity-1="part2" data-entity-2="part7" data-source-line="34" id="msg9"><polygon fill="#181818" points="1191.7808,533.0781,1201.7808,537.0781,1191.7808,541.0781,1195.7808,537.0781" style="stroke:#181818;stroke-width:1;"/><line style="stroke:#181818;stroke-width:1;" x1="403.6567" x2="1197.7808" y1="537.0781" y2="537.0781"/><text fill="#000000" font-family="sans-serif" font-size="13" lengthAdjust="spacing" textLength="206.1592" x="410.6567" y="532.3359">paint_canvas (pan/zoom reused)</text></g><g class="message" data-entity-1="part7" data-entity-2="part1" data-source-line="35" id="msg10"><polygon fill="#181818" points="88.1592,562.3887,78.1592,566.3887,88.1592,570.3887,84.1592,566.3887" style="stroke:#181818;stroke-width:1;"/><line style="stroke:#181818;stroke-width:1;stroke-dasharray:2,2;" x1="82.1592" x2="1202.7808" y1="566.3887" y2="566.3887"/><text fill="#000000" font-family="sans-serif" font-size="13" lengthAdjust="spacing" textLength="205.0229" x="94.1592" y="561.6465">synthesized constraints diagram</text></g><line style="stroke:#000000;stroke-width:1;stroke-dasharray:2,2;" x1="20" x2="1326.8291" y1="582.3887" y2="582.3887"/><text fill="#000000" font-family="sans-serif" font-size="11" font-weight="700" lengthAdjust="spacing" textLength="78.6919" x="25" y="593.0234">[SVG missing]</text><g class="message" data-entity-1="part2" data-entity-2="part1" data-source-line="38" id="msg11"><polygon fill="#181818" points="88.1592,628.9648,78.1592,632.9648,88.1592,636.9648,84.1592,632.9648" style="stroke:#181818;stroke-width:1;"/><line style="stroke:#181818;stroke-width:1;" x1="82.1592" x2="402.6567" y1="632.9648" y2="632.9648"/><text fill="#000000" font-family="sans-serif" font-size="13" lengthAdjust="spacing" textLength="230.5723" x="94.1592" y="612.9121">"No rendered constraints diagram &#8212;</text><text fill="#000000" font-family="sans-serif" font-size="13" lengthAdjust="spacing" textLength="150.3887" x="94.1592" y="628.2227">run the render pipeline"</text></g><path d="M631,659.9648 L631,776.9648 L960,776.9648 L960,669.9648 L950,659.9648 L631,659.9648" fill="#FEFFDD" style="stroke:#181818;stroke-width:0.5;"/><path d="M950,659.9648 L950,669.9648 L960,669.9648 L950,659.9648" fill="#FEFFDD" style="stroke:#181818;stroke-width:0.5;"/><text fill="#000000" font-family="sans-serif" font-size="13" lengthAdjust="spacing" textLength="246.3716" x="637" y="677.5332">render_ocl_diagrams enumerates *.ocl,</text><text fill="#000000" font-family="sans-serif" font-size="13" lengthAdjust="spacing" textLength="240.6841" x="637" y="692.8438">synthesize_ocl_puml turns each into a</text><text fill="#000000" font-family="sans-serif" font-size="13" lengthAdjust="spacing" textLength="276.6499" x="637" y="708.1543">PlantUML constraints diagram (context box,</text><text fill="#000000" font-family="sans-serif" font-size="13" lengthAdjust="spacing" textLength="268.436" x="637" y="723.4648">inv notes, @ref to the DOM- it constrains),</text><text fill="#000000" font-family="sans-serif" font-size="13" lengthAdjust="spacing" textLength="191.02" x="637" y="738.7754">rasterized to the deterministic</text><text fill="#000000" font-family="sans-serif" font-size="13" lengthAdjust="spacing" textLength="308.8135" x="637" y="754.0859">.mdd/rendered/constraints/&lt;name&gt;.svg mirror.</text><text fill="#000000" font-family="sans-serif" font-size="13" lengthAdjust="spacing" textLength="284.5146" x="637" y="769.3965">Invoked by /mdd-render and the cycle close.</text><?plantuml-src ZLNHZjis47pNLopq4gavsUzk6rpHExG1SdMQGzoN0mnQNDjiAL8WAJkNja0_eb-OBycGacovS8eSO9z53dTtPeUh5tIhPF5u_skrUdt_MxNyyKsPlQ1RnzlY_UFzT17BoytlN0TruCehoRJLzaXRw-YW-AZCZeGXOAcsnWSdb0cqLPh96WfxfbgOW_08SrHXJu8URUTgdjyfiNEYeM1tEyqp6fyTTvvzEjawhXmRoOvbzRZw2J5QrR9MXhzDW5W0Ep9ymBSo1_i7JhxLmeJt3sz81SzwEqiKRYNx-eBl3UK_WmSWaLjaGJDRwxvqlxT7_wLQ5yCojP5hNweJnwH1u0_XviH5Mo7xVVziyC-hZonfraWv7tdDpwhv-NT6DFngvWyxK1DZcBTYnz1OZlbK6ANrUu4GWyAplCo22gX-1Lc-r9J2ZiqiiqpK0MtCxw2VjYsxd8GdF6MjS47LgeMIb3z8kKf2Fvc2joY85uiVshPCw7xdyi2ord7voVpfkyswiPB_JjZbAfCYY8tmJ7bIOKh-oGpqqOKUNklBk6SHry2iswxHzFB9z5Ac9Tahvb4fmW_cwGjzXz__JN-r2QSwq8Q-ZYvSrZ7f2n9rm24IlajwsVTetNSadOweB8EeLBqQrAB5OBiBpoapE4dfRC3Xn785z4OPMKHGETc98HV9gPGFXlnhj4m-M9KAoLlHwJ1ODlOS3sDRwFlHoYEkp8WcoL7R0ZTIo6JmQ6xinzLgIYRwpASusDNMjiIYtlTIm9x9CjYPHXwAhvtLMcnGQ4nIMQEVKnR8Ylb4ysZV-8nVkDwqLxkznWTHOw6newpHpGcVGO1OvYfHw4AYuAq-n2nzmzVerheLOLz4_Kka-vfB6ND6-KOOOIR58UNPXCGl9elAf1iBUhZ7c-V0Fct-dp1JQOR3KoDH0UFDFrexZCV4FlubR7NMSp9b9XH8daJfHSDtb2sMtoZlCVskjYV_nPwvNeb7d_xv5zUl6uoRaAS9dOyDmYSpDk1z4AVqkpx_bJiBTDUm4z2BlebjkG7ksfKFdJE-LnBLM1B0dOR-jJABqKKR-o46ZLQA5VcRzCR3NKa4xfOFLHokfn2-Z6WdV62ND1s0ah7GAACyPW8GNpNG6-MSTJF0NwSNbOGrQ7wUKcd2f_VbSutxK6lhUHRLIwL-1W00?></g></svg>