<svg xmlns="http://www.w3.org/2000/svg" xmlns:xlink="http://www.w3.org/1999/xlink" contentStyleType="text/css" data-diagram-type="SEQUENCE" height="1073px" preserveAspectRatio="none" style="width:1581px;height:1073px;background:#FFFFFF;" version="1.1" viewBox="0 0 1581 1073" width="1581px" zoomAndPan="magnify"><?plantuml 1.2026.3?><defs/><g><g class="title" data-source-line="33"><text fill="#000000" font-family="sans-serif" font-size="14" font-weight="700" lengthAdjust="spacing" textLength="566.7471" x="503.6843" y="28.5352">mdd view &#8212; surface .mdd/deploy via a third source &#183; cycle 0010 diff (current)</text></g><rect fill="none" height="101.9316" style="stroke:#000000;stroke-width:1.5;" width="428.4565" x="305.312" y="211.0859"/><rect fill="none" height="332.0371" style="stroke:#000000;stroke-width:1.5;" width="1039.9785" x="305.312" y="327.0176"/><g class="participant-lifeline" data-entity-uid="part1" data-qualified-name="Dev" data-source-line="35" id="part1-lifeline"><g><title>..added..</title><rect fill="#000000" fill-opacity="0.00000" height="839.0059" width="8" x="38.1592" y="135.4648"/><line style="stroke:#181818;stroke-width:0.5;stroke-dasharray:5,5;" x1="42" x2="42" y1="135.4648" y2="974.4707"/></g></g><g class="participant-lifeline" data-entity-uid="part2" data-qualified-name="Cli" data-source-line="36" id="part2-lifeline"><g><title>..added..</title><rect fill="#000000" fill-opacity="0.00000" height="839.0059" width="8" x="151.0391" y="135.4648"/><line style="stroke:#181818;stroke-width:0.5;stroke-dasharray:5,5;" x1="154.3184" x2="154.3184" y1="135.4648" y2="974.4707"/></g></g><g class="participant-lifeline" data-entity-uid="part3" data-qualified-name="Viewer" data-source-line="37" id="part3-lifeline"><g><title>..added..</title><rect fill="#000000" fill-opacity="0.00000" height="839.0059" width="8" x="378.4307" y="135.4648"/><line style="stroke:#181818;stroke-width:0.5;stroke-dasharray:5,5;" x1="382.312" x2="382.312" y1="135.4648" y2="974.4707"/></g></g><g class="participant-lifeline" data-entity-uid="part4" data-qualified-name="Core" data-source-line="38" id="part4-lifeline"><g><title>..added..</title><rect fill="#000000" fill-opacity="0.00000" height="839.0059" width="8" x="724.7686" y="135.4648"/><line style="stroke:#181818;stroke-width:0.5;stroke-dasharray:5,5;" x1="728.2393" x2="728.2393" y1="135.4648" y2="974.4707"/></g></g><g class="participant-lifeline" data-entity-uid="part5" data-qualified-name="RT" data-source-line="39" id="part5-lifeline"><g><title>..added..</title><rect fill="#000000" fill-opacity="0.00000" height="839.0059" width="8" x="998.4067" y="135.4648"/><line style="stroke:#181818;stroke-width:0.5;stroke-dasharray:5,5;" x1="1002.2407" x2="1002.2407" y1="135.4648" y2="974.4707"/></g></g><g class="participant-lifeline" data-entity-uid="part6" data-qualified-name="Deploy" data-source-line="40" id="part6-lifeline"><g><title>..added..</title><rect fill="#000000" fill-opacity="0.00000" height="839.0059" width="8" x="1247.3804" y="135.4648"/><line style="stroke:#181818;stroke-width:0.5;stroke-dasharray:5,5;" x1="1250.4702" x2="1250.4702" y1="135.4648" y2="974.4707"/></g></g><g class="participant-lifeline" data-entity-uid="part7" data-qualified-name="Rendered" data-source-line="41" id="part7-lifeline"><g><title>..added..</title><rect fill="#000000" fill-opacity="0.00000" height="839.0059" width="8" x="1453.7031" y="135.4648"/><line style="stroke:#181818;stroke-width:0.5;stroke-dasharray:5,5;" x1="1457.2905" x2="1457.2905" y1="135.4648" y2="974.4707"/></g></g><g class="participant participant-head" data-entity-uid="part1" data-qualified-name="Dev" data-source-line="35" id="part1-head"><text fill="#000000" font-family="sans-serif" font-size="14" font-style="italic" lengthAdjust="spacing" textLength="56.6357" x="10.8413" y="116.0234">&#171;added&#187;</text><text fill="#000000" font-family="sans-serif" font-size="14" lengthAdjust="spacing" textLength="68.3184" x="5" y="132.5117">Developer</text><ellipse cx="42.1592" cy="50.9883" fill="#90EE90" rx="8" ry="8" style="stroke:#181818;stroke-width:0.5;"/><path d="M42.1592,58.9883 L42.1592,85.9883 M29.1592,66.9883 L55.1592,66.9883 M42.1592,85.9883 L29.1592,100.9883 M42.1592,85.9883 L55.1592,100.9883" fill="none" style="stroke:#181818;stroke-width:0.5;"/></g><g class="participant participant-tail" data-entity-uid="part1" data-qualified-name="Dev" data-source-line="35" id="part1-tail"><text fill="#000000" font-family="sans-serif" font-size="14" font-style="italic" lengthAdjust="spacing" textLength="56.6357" x="10.8413" y="987.0059">&#171;added&#187;</text><text fill="#000000" font-family="sans-serif" font-size="14" lengthAdjust="spacing" textLength="68.3184" x="5" y="1003.4941">Developer</text><ellipse cx="42.1592" cy="1014.9473" fill="#90EE90" rx="8" ry="8" style="stroke:#181818;stroke-width:0.5;"/><path d="M42.1592,1022.9473 L42.1592,1049.9473 M29.1592,1030.9473 L55.1592,1030.9473 M42.1592,1049.9473 L29.1592,1064.9473 M42.1592,1049.9473 L55.1592,1064.9473" fill="none" style="stroke:#181818;stroke-width:0.5;"/></g><g class="participant participant-head" data-entity-uid="part2" data-qualified-name="Cli" data-source-line="36" id="part2-head"><rect fill="#90EE90" height="63.4648" rx="2.5" ry="2.5" style="stroke:#181818;stroke-width:0.5;" width="131.4414" x="89.3184" y="71"/><text fill="#000000" font-family="sans-serif" font-size="14" font-style="italic" lengthAdjust="spacing" textLength="56.6357" x="126.7212" y="91.5352">&#171;added&#187;</text><text fill="#000000" font-family="sans-serif" font-size="14" lengthAdjust="spacing" textLength="54.0586" x="128.0098" y="108.0234">mdd-cli</text><text fill="#000000" font-family="sans-serif" font-size="14" lengthAdjust="spacing" textLength="117.4414" x="96.3184" y="124.5117">Commands::View</text></g><g class="participant participant-tail" data-entity-uid="part2" data-qualified-name="Cli" data-source-line="36" id="part2-tail"><rect fill="#90EE90" height="63.4648" rx="2.5" ry="2.5" style="stroke:#181818;stroke-width:0.5;" width="131.4414" x="89.3184" y="973.4707"/><text fill="#000000" font-family="sans-serif" font-size="14" font-style="italic" lengthAdjust="spacing" textLength="56.6357" x="126.7212" y="994.0059">&#171;added&#187;</text><text fill="#000000" font-family="sans-serif" font-size="14" lengthAdjust="spacing" textLength="54.0586" x="128.0098" y="1010.4941">mdd-cli</text><text fill="#000000" font-family="sans-serif" font-size="14" lengthAdjust="spacing" textLength="117.4414" x="96.3184" y="1026.9824">Commands::View</text></g><g class="participant participant-head" data-entity-uid="part3" data-qualified-name="Viewer" data-source-line="37" id="part3-head"><rect fill="#90EE90" height="46.9766" rx="2.5" ry="2.5" style="stroke:#181818;stroke-width:0.5;" width="134.2373" x="315.312" y="87.4883"/><text fill="#000000" font-family="sans-serif" font-size="14" font-style="italic" lengthAdjust="spacing" textLength="56.6357" x="354.1128" y="108.0234">&#171;added&#187;</text><text fill="#000000" font-family="sans-serif" font-size="14" lengthAdjust="spacing" textLength="120.2373" x="322.312" y="124.5117">MddViewer::new()</text></g><g class="participant participant-tail" data-entity-uid="part3" data-qualified-name="Viewer" data-source-line="37" id="part3-tail"><rect fill="#90EE90" height="46.9766" rx="2.5" ry="2.5" style="stroke:#181818;stroke-width:0.5;" width="134.2373" x="315.312" y="973.4707"/><text fill="#000000" font-family="sans-serif" font-size="14" font-style="italic" lengthAdjust="spacing" textLength="56.6357" x="354.1128" y="994.0059">&#171;added&#187;</text><text fill="#000000" font-family="sans-serif" font-size="14" lengthAdjust="spacing" textLength="120.2373" x="322.312" y="1010.4941">MddViewer::new()</text></g><g class="participant participant-head" data-entity-uid="part4" data-qualified-name="Core" data-source-line="38" id="part4-head"><rect fill="#90EE90" height="46.9766" rx="2.5" ry="2.5" style="stroke:#181818;stroke-width:0.5;" width="159.0586" x="649.2393" y="87.4883"/><text fill="#000000" font-family="sans-serif" font-size="14" font-style="italic" lengthAdjust="spacing" textLength="56.6357" x="700.4507" y="108.0234">&#171;added&#187;</text><text fill="#000000" font-family="sans-serif" font-size="14" lengthAdjust="spacing" textLength="145.0586" x="656.2393" y="124.5117">Project::deploy_files()</text></g><g class="participant participant-tail" data-entity-uid="part4" data-qualified-name="Core" data-source-line="38" id="part4-tail"><rect fill="#90EE90" height="46.9766" rx="2.5" ry="2.5" style="stroke:#181818;stroke-width:0.5;" width="159.0586" x="649.2393" y="973.4707"/><text fill="#000000" font-family="sans-serif" font-size="14" font-style="italic" lengthAdjust="spacing" textLength="56.6357" x="700.4507" y="994.0059">&#171;added&#187;</text><text fill="#000000" font-family="sans-serif" font-size="14" lengthAdjust="spacing" textLength="145.0586" x="656.2393" y="1010.4941">Project::deploy_files()</text></g><g class="participant participant-head" data-entity-uid="part5" data-qualified-name="RT" data-source-line="39" id="part5-head"><rect fill="#90EE90" height="63.4648" rx="2.5" ry="2.5" style="stroke:#181818;stroke-width:0.5;" width="152.332" x="926.2407" y="71"/><text fill="#000000" font-family="sans-serif" font-size="14" font-style="italic" lengthAdjust="spacing" textLength="56.6357" x="974.0889" y="91.5352">&#171;added&#187;</text><text fill="#000000" font-family="sans-serif" font-size="14" lengthAdjust="spacing" textLength="108.3701" x="948.2217" y="108.0234">render_sources(</text><text fill="#000000" font-family="sans-serif" font-size="14" lengthAdjust="spacing" textLength="138.332" x="933.2407" y="124.5117">RenderTree::Deploy)</text></g><g class="participant participant-tail" data-entity-uid="part5" data-qualified-name="RT" data-source-line="39" id="part5-tail"><rect fill="#90EE90" height="63.4648" rx="2.5" ry="2.5" style="stroke:#181818;stroke-width:0.5;" width="152.332" x="926.2407" y="973.4707"/><text fill="#000000" font-family="sans-serif" font-size="14" font-style="italic" lengthAdjust="spacing" textLength="56.6357" x="974.0889" y="994.0059">&#171;added&#187;</text><text fill="#000000" font-family="sans-serif" font-size="14" lengthAdjust="spacing" textLength="108.3701" x="948.2217" y="1010.4941">render_sources(</text><text fill="#000000" font-family="sans-serif" font-size="14" lengthAdjust="spacing" textLength="138.332" x="933.2407" y="1026.9824">RenderTree::Deploy)</text></g><g class="participant participant-head" data-entity-uid="part6" data-qualified-name="Deploy" data-source-line="40" id="part6-head"><text fill="#000000" font-family="sans-serif" font-size="14" font-style="italic" lengthAdjust="spacing" textLength="56.6357" x="1220.0625" y="116.0234">&#171;added&#187;</text><text fill="#000000" font-family="sans-serif" font-size="14" lengthAdjust="spacing" textLength="161.8203" x="1167.4702" y="132.5117">.mdd/deploy/**/*.puml</text><path d="M1233.3804,66.4883 C1233.3804,56.4883 1251.3804,56.4883 1251.3804,56.4883 C1251.3804,56.4883 1269.3804,56.4883 1269.3804,66.4883 L1269.3804,92.4883 C1269.3804,102.4883 1251.3804,102.4883 1251.3804,102.4883 C1251.3804,102.4883 1233.3804,102.4883 1233.3804,92.4883 L1233.3804,66.4883" fill="#E2E2F0" style="stroke:#181818;stroke-width:0.5;"/><path d="M1233.3804,66.4883 C1233.3804,76.4883 1251.3804,76.4883 1251.3804,76.4883 C1251.3804,76.4883 1269.3804,76.4883 1269.3804,66.4883" fill="none" style="stroke:#181818;stroke-width:0.5;"/></g><g class="participant participant-tail" data-entity-uid="part6" data-qualified-name="Deploy" data-source-line="40" id="part6-tail"><text fill="#000000" font-family="sans-serif" font-size="14" font-style="italic" lengthAdjust="spacing" textLength="56.6357" x="1220.0625" y="987.0059">&#171;added&#187;</text><text fill="#000000" font-family="sans-serif" font-size="14" lengthAdjust="spacing" textLength="161.8203" x="1167.4702" y="1003.4941">.mdd/deploy/**/*.puml</text><path d="M1233.3804,1016.4473 C1233.3804,1006.4473 1251.3804,1006.4473 1251.3804,1006.4473 C1251.3804,1006.4473 1269.3804,1006.4473 1269.3804,1016.4473 L1269.3804,1042.4473 C1269.3804,1052.4473 1251.3804,1052.4473 1251.3804,1052.4473 C1251.3804,1052.4473 1233.3804,1052.4473 1233.3804,1042.4473 L1233.3804,1016.4473" fill="#E2E2F0" style="stroke:#181818;stroke-width:0.5;"/><path d="M1233.3804,1016.4473 C1233.3804,1026.4473 1251.3804,1026.4473 1251.3804,1026.4473 C1251.3804,1026.4473 1269.3804,1026.4473 1269.3804,1016.4473" fill="none" style="stroke:#181818;stroke-width:0.5;"/></g><g class="participant participant-head" data-entity-uid="part7" data-qualified-name="Rendered" data-source-line="41" id="part7-head"><text fill="#000000" font-family="sans-serif" font-size="14" font-style="italic" lengthAdjust="spacing" textLength="56.6357" x="1426.3853" y="116.0234">&#171;added&#187;</text><text fill="#000000" font-family="sans-serif" font-size="14" lengthAdjust="spacing" textLength="218.8252" x="1345.2905" y="132.5117">.mdd/rendered/deploy/**/*.svg</text><path d="M1439.7031,66.4883 C1439.7031,56.4883 1457.7031,56.4883 1457.7031,56.4883 C1457.7031,56.4883 1475.7031,56.4883 1475.7031,66.4883 L1475.7031,92.4883 C1475.7031,102.4883 1457.7031,102.4883 1457.7031,102.4883 C1457.7031,102.4883 1439.7031,102.4883 1439.7031,92.4883 L1439.7031,66.4883" fill="#E2E2F0" style="stroke:#181818;stroke-width:0.5;"/><path d="M1439.7031,66.4883 C1439.7031,76.4883 1457.7031,76.4883 1457.7031,76.4883 C1457.7031,76.4883 1475.7031,76.4883 1475.7031,66.4883" fill="none" style="stroke:#181818;stroke-width:0.5;"/></g><g class="participant participant-tail" data-entity-uid="part7" data-qualified-name="Rendered" data-source-line="41" id="part7-tail"><text fill="#000000" font-family="sans-serif" font-size="14" font-style="italic" lengthAdjust="spacing" textLength="56.6357" x="1426.3853" y="987.0059">&#171;added&#187;</text><text fill="#000000" font-family="sans-serif" font-size="14" lengthAdjust="spacing" textLength="218.8252" x="1345.2905" y="1003.4941">.mdd/rendered/deploy/**/*.svg</text><path d="M1439.7031,1016.4473 C1439.7031,1006.4473 1457.7031,1006.4473 1457.7031,1006.4473 C1457.7031,1006.4473 1475.7031,1006.4473 1475.7031,1016.4473 L1475.7031,1042.4473 C1475.7031,1052.4473 1457.7031,1052.4473 1457.7031,1052.4473 C1457.7031,1052.4473 1439.7031,1052.4473 1439.7031,1042.4473 L1439.7031,1016.4473" fill="#E2E2F0" style="stroke:#181818;stroke-width:0.5;"/><path d="M1439.7031,1016.4473 C1439.7031,1026.4473 1457.7031,1026.4473 1457.7031,1026.4473 C1457.7031,1026.4473 1475.7031,1026.4473 1475.7031,1016.4473" fill="none" style="stroke:#181818;stroke-width:0.5;"/></g><g class="message" data-entity-1="part1" data-entity-2="part2" data-source-line="43" id="msg1"><polygon fill="#181818" points="143.0391,162.7754,153.0391,166.7754,143.0391,170.7754,147.0391,166.7754" style="stroke:#181818;stroke-width:1;"/><line style="stroke:#181818;stroke-width:1;" x1="42.1592" x2="149.0391" y1="166.7754" y2="166.7754"/><text fill="#000000" font-family="sans-serif" font-size="13" lengthAdjust="spacing" textLength="60.3599" x="49.1592" y="162.0332">mdd view</text></g><g class="message" data-entity-1="part2" data-entity-2="part3" data-source-line="44" id="msg2"><polygon fill="#181818" points="370.4307,192.0859,380.4307,196.0859,370.4307,200.0859,374.4307,196.0859" style="stroke:#181818;stroke-width:1;"/><line style="stroke:#181818;stroke-width:1;" x1="155.0391" x2="376.4307" y1="196.0859" y2="196.0859"/><text fill="#000000" font-family="sans-serif" font-size="13" lengthAdjust="spacing" textLength="203.3916" x="162.0391" y="191.3438">run(project) -&gt; MddViewer::new</text></g><path d="M305.312,211.0859 L612.0576,211.0859 L612.0576,218.3965 L602.0576,228.3965 L305.312,228.3965 L305.312,211.0859" fill="#EEEEEE" style="stroke:#000000;stroke-width:1.5;"/><rect fill="none" height="101.9316" style="stroke:#000000;stroke-width:1.5;" width="428.4565" x="305.312" y="211.0859"/><text fill="#000000" font-family="sans-serif" font-size="13" font-weight="700" lengthAdjust="spacing" textLength="261.7456" x="320.312" y="224.6543">Two parity-gated sources (unchanged)</text><g class="message" data-entity-1="part3" data-entity-2="part3" data-source-line="47" id="msg3"><line style="stroke:#181818;stroke-width:1;" x1="382.4307" x2="424.4307" y1="249.707" y2="249.707"/><line style="stroke:#181818;stroke-width:1;" x1="424.4307" x2="424.4307" y1="249.707" y2="262.707"/><line style="stroke:#181818;stroke-width:1;" x1="383.4307" x2="424.4307" y1="262.707" y2="262.707"/><polygon fill="#181818" points="393.4307,258.707,383.4307,262.707,393.4307,266.707,389.4307,262.707" style="stroke:#181818;stroke-width:1;"/><text fill="#000000" font-family="sans-serif" font-size="13" lengthAdjust="spacing" textLength="332.3379" x="389.4307" y="244.9648">model_registry()  (.mdd/models + .mdd/constraints)</text></g><g class="message" data-entity-1="part3" data-entity-2="part3" data-source-line="48" id="msg4"><line style="stroke:#181818;stroke-width:1;" x1="382.4307" x2="424.4307" y1="292.0176" y2="292.0176"/><line style="stroke:#181818;stroke-width:1;" x1="424.4307" x2="424.4307" y1="292.0176" y2="305.0176"/><line style="stroke:#181818;stroke-width:1;" x1="383.4307" x2="424.4307" y1="305.0176" y2="305.0176"/><polygon fill="#181818" points="393.4307,301.0176,383.4307,305.0176,393.4307,309.0176,389.4307,305.0176" style="stroke:#181818;stroke-width:1;"/><text fill="#000000" font-family="sans-serif" font-size="13" lengthAdjust="spacing" textLength="187.9414" x="389.4307" y="287.2754">cycle_registry()  (.mdd/cycles)</text></g><path d="M305.312,327.0176 L641.1172,327.0176 L641.1172,334.3281 L631.1172,344.3281 L305.312,344.3281 L305.312,327.0176" fill="#EEEEEE" style="stroke:#000000;stroke-width:1.5;"/><rect fill="none" height="332.0371" style="stroke:#000000;stroke-width:1.5;" width="1039.9785" x="305.312" y="327.0176"/><text fill="#000000" font-family="sans-serif" font-size="13" font-weight="700" lengthAdjust="spacing" textLength="282.2358" x="320.312" y="340.5859">Third source &#8212; deploy_files() (NOT gated)</text><text fill="#000000" font-family="sans-serif" font-size="11" font-weight="700" lengthAdjust="spacing" textLength="81.6782" x="656.1172" y="339.6523">[ADDED 0010]</text><g class="message" data-entity-1="part3" data-entity-2="part4" data-source-line="52" id="msg5"><polygon fill="#181818" points="716.7686,361.6387,726.7686,365.6387,716.7686,369.6387,720.7686,365.6387" style="stroke:#181818;stroke-width:1;"/><line style="stroke:#181818;stroke-width:1;" x1="382.4307" x2="722.7686" y1="365.6387" y2="365.6387"/><text fill="#000000" font-family="sans-serif" font-size="13" lengthAdjust="spacing" textLength="131.5806" x="389.4307" y="360.8965">project.deploy_files()</text></g><g class="message" data-entity-1="part4" data-entity-2="part5" data-source-line="53" id="msg6"><polygon fill="#181818" points="990.4067,390.9492,1000.4067,394.9492,990.4067,398.9492,994.4067,394.9492" style="stroke:#181818;stroke-width:1;"/><line style="stroke:#181818;stroke-width:1;" x1="728.7686" x2="996.4067" y1="394.9492" y2="394.9492"/><text fill="#000000" font-family="sans-serif" font-size="13" lengthAdjust="spacing" textLength="229.0806" x="735.7686" y="390.207">render_sources(RenderTree::Deploy)</text></g><g class="message" data-entity-1="part5" data-entity-2="part6" data-source-line="54" id="msg7"><polygon fill="#181818" points="1239.3804,420.2598,1249.3804,424.2598,1239.3804,428.2598,1243.3804,424.2598" style="stroke:#181818;stroke-width:1;"/><line style="stroke:#181818;stroke-width:1;" x1="1002.4067" x2="1245.3804" y1="424.2598" y2="424.2598"/><text fill="#000000" font-family="sans-serif" font-size="13" lengthAdjust="spacing" textLength="224.9736" x="1009.4067" y="419.5176">walk_suffix(".mdd/deploy", ".puml")</text></g><g class="message" data-entity-1="part6" data-entity-2="part5" data-source-line="55" id="msg8"><polygon fill="#181818" points="1013.4067,449.5703,1003.4067,453.5703,1013.4067,457.5703,1009.4067,453.5703" style="stroke:#181818;stroke-width:1;"/><line style="stroke:#181818;stroke-width:1;stroke-dasharray:2,2;" x1="1007.4067" x2="1250.3804" y1="453.5703" y2="453.5703"/><text fill="#000000" font-family="sans-serif" font-size="13" lengthAdjust="spacing" textLength="113.0264" x="1019.4067" y="448.8281">[diagram.puml ...]</text></g><g class="message" data-entity-1="part5" data-entity-2="part4" data-source-line="56" id="msg9"><polygon fill="#181818" points="739.7686,478.8809,729.7686,482.8809,739.7686,486.8809,735.7686,482.8809" style="stroke:#181818;stroke-width:1;"/><line style="stroke:#181818;stroke-width:1;stroke-dasharray:2,2;" x1="733.7686" x2="1001.4067" y1="482.8809" y2="482.8809"/><text fill="#000000" font-family="sans-serif" font-size="13" lengthAdjust="spacing" textLength="48.5278" x="745.7686" y="478.1387">sources</text></g><g class="message" data-entity-1="part4" data-entity-2="part4" data-source-line="57" id="msg10"><line style="stroke:#181818;stroke-width:1;" x1="728.7686" x2="770.7686" y1="542.8125" y2="542.8125"/><line style="stroke:#181818;stroke-width:1;" x1="770.7686" x2="770.7686" y1="542.8125" y2="555.8125"/><line style="stroke:#181818;stroke-width:1;" x1="729.7686" x2="770.7686" y1="555.8125" y2="555.8125"/><polygon fill="#181818" points="739.7686,551.8125,729.7686,555.8125,739.7686,559.8125,735.7686,555.8125" style="stroke:#181818;stroke-width:1;"/><text fill="#000000" font-family="sans-serif" font-size="13" lengthAdjust="spacing" textLength="156.6855" x="735.7686" y="507.4492">per file: extract_ids/refs,</text><text fill="#000000" font-family="sans-serif" font-size="13" lengthAdjust="spacing" textLength="149.9951" x="735.7686" y="522.7598">rendered_pages_for(rel)</text><text fill="#000000" font-family="sans-serif" font-size="13" lengthAdjust="spacing" textLength="259.6382" x="735.7686" y="538.0703">-&gt; ModelFile{ kind=Other, side=Shared }</text></g><path d="M733,568.8125 L733,623.8125 L999,623.8125 L999,578.8125 L989,568.8125 L733,568.8125" fill="#FEFFDD" style="stroke:#181818;stroke-width:0.5;"/><path d="M989,568.8125 L989,578.8125 L999,578.8125 L989,568.8125" fill="#FEFFDD" style="stroke:#181818;stroke-width:0.5;"/><text fill="#000000" font-family="sans-serif" font-size="13" lengthAdjust="spacing" textLength="228.3696" x="739" y="586.3809">NOT inserted into ModelRegistry, so</text><text fill="#000000" font-family="sans-serif" font-size="13" lengthAdjust="spacing" textLength="245.248" x="739" y="601.6914">/mdd-validate and /mdd-review never</text><text fill="#000000" font-family="sans-serif" font-size="13" lengthAdjust="spacing" textLength="117.73" x="739" y="617.002">see .mdd/deploy/.</text><g class="message" data-entity-1="part4" data-entity-2="part3" data-source-line="63" id="msg11"><polygon fill="#181818" points="393.4307,647.0547,383.4307,651.0547,393.4307,655.0547,389.4307,651.0547" style="stroke:#181818;stroke-width:1;"/><line style="stroke:#181818;stroke-width:1;stroke-dasharray:2,2;" x1="387.4307" x2="727.7686" y1="651.0547" y2="651.0547"/><text fill="#000000" font-family="sans-serif" font-size="13" lengthAdjust="spacing" textLength="230.5723" x="399.4307" y="646.3125">Vec&lt;ModelFile&gt; -&gt; self.deploy_files</text></g><g class="message" data-entity-1="part3" data-entity-2="part3" data-source-line="66" id="msg12"><line style="stroke:#181818;stroke-width:1;" x1="382.4307" x2="424.4307" y1="717.9863" y2="717.9863"/><line style="stroke:#181818;stroke-width:1;" x1="424.4307" x2="424.4307" y1="717.9863" y2="730.9863"/><line style="stroke:#181818;stroke-width:1;" x1="383.4307" x2="424.4307" y1="730.9863" y2="730.9863"/><polygon fill="#181818" points="393.4307,726.9863,383.4307,730.9863,393.4307,734.9863,389.4307,730.9863" style="stroke:#181818;stroke-width:1;"/><text fill="#000000" font-family="sans-serif" font-size="13" lengthAdjust="spacing" textLength="212.2085" x="389.4307" y="682.623">update(): TreeNode::build(deploy)</text><text fill="#000000" font-family="sans-serif" font-size="13" lengthAdjust="spacing" textLength="316.7734" x="389.4307" y="697.9336">"DEPLOY &#183; /mdd-deploy &#183; utility, not parity-gated"</text><text fill="#000000" font-family="sans-serif" font-size="13" lengthAdjust="spacing" textLength="155.5684" x="389.4307" y="713.2441">(Directory AND By-cycle)</text></g><g class="message" data-entity-1="part1" data-entity-2="part3" data-source-line="67" id="msg13"><polygon fill="#181818" points="370.4307,756.2969,380.4307,760.2969,370.4307,764.2969,374.4307,760.2969" style="stroke:#181818;stroke-width:1;"/><line style="stroke:#181818;stroke-width:1;" x1="42.1592" x2="376.4307" y1="760.2969" y2="760.2969"/><text fill="#000000" font-family="sans-serif" font-size="13" lengthAdjust="spacing" textLength="101.7593" x="49.1592" y="755.5547">click deploy leaf</text></g><g class="message" data-entity-1="part3" data-entity-2="part3" data-source-line="68" id="msg14"><line style="stroke:#181818;stroke-width:1;" x1="382.4307" x2="424.4307" y1="789.6074" y2="789.6074"/><line style="stroke:#181818;stroke-width:1;" x1="424.4307" x2="424.4307" y1="789.6074" y2="802.6074"/><line style="stroke:#181818;stroke-width:1;" x1="383.4307" x2="424.4307" y1="802.6074" y2="802.6074"/><polygon fill="#181818" points="393.4307,798.6074,383.4307,802.6074,393.4307,806.6074,389.4307,802.6074" style="stroke:#181818;stroke-width:1;"/><text fill="#000000" font-family="sans-serif" font-size="13" lengthAdjust="spacing" textLength="213.5796" x="389.4307" y="784.8652">lookup_file(path) -&gt; load_file(file)</text></g><g class="message" data-entity-1="part3" data-entity-2="part7" data-source-line="69" id="msg15"><polygon fill="#181818" points="1445.7031,827.918,1455.7031,831.918,1445.7031,835.918,1449.7031,831.918" style="stroke:#181818;stroke-width:1;"/><line style="stroke:#181818;stroke-width:1;" x1="382.4307" x2="1451.7031" y1="831.918" y2="831.918"/><text fill="#000000" font-family="sans-serif" font-size="13" lengthAdjust="spacing" textLength="246.6064" x="389.4307" y="827.1758">read .mdd/rendered/deploy/&lt;rel&gt;.svg</text></g><g class="message" data-entity-1="part7" data-entity-2="part3" data-source-line="70" id="msg16"><polygon fill="#181818" points="393.4307,857.2285,383.4307,861.2285,393.4307,865.2285,389.4307,861.2285" style="stroke:#181818;stroke-width:1;"/><line style="stroke:#181818;stroke-width:1;stroke-dasharray:2,2;" x1="387.4307" x2="1456.7031" y1="861.2285" y2="861.2285"/><text fill="#000000" font-family="sans-serif" font-size="13" lengthAdjust="spacing" textLength="171.9263" x="399.4307" y="856.4863">SVG bytes -&gt; DiagramPage</text></g><g class="message" data-entity-1="part3" data-entity-2="part1" data-source-line="71" id="msg17"><polygon fill="#181818" points="53.1592,886.5391,43.1592,890.5391,53.1592,894.5391,49.1592,890.5391" style="stroke:#181818;stroke-width:1;"/><line style="stroke:#181818;stroke-width:1;stroke-dasharray:2,2;" x1="47.1592" x2="381.4307" y1="890.5391" y2="890.5391"/><text fill="#000000" font-family="sans-serif" font-size="13" lengthAdjust="spacing" textLength="248.7329" x="59.1592" y="885.7969">deployment diagram painted on canvas</text></g><path d="M1155,903.5391 L1155,958.5391 L1552,958.5391 L1552,913.5391 L1542,903.5391 L1155,903.5391" fill="#FEFFDD" style="stroke:#181818;stroke-width:0.5;"/><path d="M1542,903.5391 L1542,913.5391 L1552,913.5391 L1542,903.5391" fill="#FEFFDD" style="stroke:#181818;stroke-width:0.5;"/><text fill="#000000" font-family="sans-serif" font-size="13" lengthAdjust="spacing" textLength="366.6533" x="1165.9961" y="921.1074">No .svg mirror -&gt; same "No rendered output" placeholder</text><text fill="#000000" font-family="sans-serif" font-size="13" lengthAdjust="spacing" textLength="303.2847" x="1165.9961" y="936.418">as any unrendered model. `mdd render` covers</text><text fill="#000000" font-family="sans-serif" font-size="13" lengthAdjust="spacing" textLength="305.6143" x="1165.9961" y="951.7285">RenderTree::Deploy; the viewer never rasterizes.</text><?plantuml-src jLRDZjis4BxhAGRkeVBMbfrBWQWRerbR6mHel5llTeiY3XokIDciAL8WAM_S840Vek_IUn-bJz8X9MibnBxL5mCQpdoSdsy-scovB8WcEPI6fSGm-1m0N95qkzQgb7IgXDANbuHIHYSJ-ERbE4bUZe-vQ9QhNULqVNtr_VH5y2Km3NegY37dmbPveIIJzapunX9xhhvebbeYr-9S-2IrIfy96tyjJtb1_kVEVmi_SXhU9JyF7zuclmvdoUrFDx_r0Pu1xOORIFSfjYqSZr-C-_3ldt-1P4-GSS4SW6PP-CjTqa4us6StxuQBP3vB5iDa_kRjF74dKu_cm83oB8CmBRLsd3ASiduCJnk5vvIJjM-hIsG0Kc4cSWrr5L5WkKMld5BOSSp6PMLAdP6KGOJM4MM5K7iy941S5Pg2KQN6ut_-hWlwEeL-45HZxCtOZWbLCDq3OW2_ddiIjAVHmxk6gU1BELLvJYGrSVo02VcmgU2dmjvHwjoOZcDiPjZt_fNbLCYjLhyZX-EuActb1c3goAdIx5GS5aQPNbNLct0f5zvmhncBuvd7ga0Mzoq8IYnvT2hLQxLpT74nkeYACXTrMtoFJmPLDxDkjDcjgzlgmrPuuFeydFY-nSri0_U9rhexCUXIXaNLZBuxwFOo21pj2xX_KcvlkDqFrwWgX_4R24kPRb096EtZdjIeRVnSKIPMcgsviNeVuZw4lXnlD_1THR1KIJmcN5fp0iUpx0YEjsCGDg19jarGn-NkZ26Stzo3BmDHth-UpPAPf--7pisU1J7KlOcw6EZfpz4F1urTxDBY22am0ZtHlvuphYOHsvKfiun_2jkyw0rmufuMBgXs7nvkUb_lilU0A8e-rCZFATTPj78yr8ALkG9YO9-mswbTSMgGM9aPBEM1Nwk2h9bPPKg7ced-KZfIk65TO-HdG1cbhsxiXkc1rvXNTnlYYFS5hqDTOQ3vUcD1PVvID0AuTdDfc7R4mH6h2czHpn9nbFSRkVNV4S6fUxXm_IkBPbwK98g8zdw6TMHf5A4La_VNDqMtkVF0qikcX8bhY64YwuoquiyHtfM5ooP4ANNZd2DA73-MND2m2iS6zIgXTbhe4wxL4ZzBomNkZ5VSplxqbZASSVUAAhs7r_CPNEs7dihzmzu-Cr_mT5jp60GZsR4qXLBRil2rX0Mn6x_BGX5QcTnFlnNNw8MZBg5mL67mbHCJ9p51uzvfwzt36tZSMrG1H-kAbhT8dkOUp_OTUbQ0kNkN3azHuPOT4PM4bCWTCK7WwOCFagv9FsZInAdE5RXK8ETQAr-38Jbg8zeFUOCgRL7Q7XG2Novy-AWd3CeZaNie6uPNcXJ1HoUAbV4Z_Xl3YztEVBsxF-2JnxnwOcgUXg29iKppFvY9WWFr_WC0?></g></svg>