<svg xmlns="http://www.w3.org/2000/svg" xmlns:xlink="http://www.w3.org/1999/xlink" contentStyleType="text/css" data-diagram-type="DESCRIPTION" height="876px" preserveAspectRatio="none" style="width:888px;height:876px;background:#FFFFFF;" version="1.1" viewBox="0 0 888 876" width="888px" zoomAndPan="magnify"><?plantuml 1.2026.3?><defs/><g><g class="title" data-source-line="35"><text fill="#000000" font-family="sans-serif" font-size="14" font-weight="700" lengthAdjust="spacing" textLength="397.9336" x="241.8082" y="23.5352">mdd view &#8212; diagram viewer &#183; cycle 0010 diff (current)</text></g><!--cluster mdd-viewer--><g class="cluster" data-qualified-name="mdd-viewer" data-source-line="41" id="ent0003"><rect fill="none" height="396" rx="2.5" ry="2.5" style="stroke:#181818;stroke-width:1;" width="691.05" x="183.5" y="131.1083"/><text fill="#000000" font-family="sans-serif" font-size="14" font-weight="700" lengthAdjust="spacing" textLength="88.7783" x="484.6358" y="146.6434">mdd-viewer</text></g><!--entity View--><g class="entity" data-qualified-name="mdd-viewer.View" data-source-line="42" id="ent0004"><ellipse cx="322.7949" cy="309.1073" fill="#F1F1F1" rx="119.7449" ry="26.349" style="stroke:#181818;stroke-width:0.5;"/><text fill="#000000" font-family="sans-serif" font-size="14" lengthAdjust="spacing" textLength="157.6641" x="243.9628" y="304.8736">View rendered diagram</text><text fill="#000000" font-family="sans-serif" font-size="14" lengthAdjust="spacing" textLength="172.3271" x="236.6313" y="321.3619">(shapes AND text legible)</text></g><!--entity Browse--><g class="entity" data-qualified-name="mdd-viewer.Browse" data-source-line="43" id="ent0005"><ellipse cx="744.9031" cy="329.1089" fill="#F1F1F1" rx="78.9031" ry="18.1806" style="stroke:#181818;stroke-width:0.5;"/><text fill="#000000" font-family="sans-serif" font-size="14" lengthAdjust="spacing" textLength="127.4697" x="681.1682" y="333.853">Browse model files</text></g><!--entity PanZoom--><g class="entity" data-qualified-name="mdd-viewer.PanZoom" data-source-line="44" id="ent0006"><ellipse cx="744.9044" cy="249.1045" fill="#F1F1F1" rx="112.8544" ry="25.9162" style="stroke:#181818;stroke-width:0.5;"/><text fill="#000000" font-family="sans-serif" font-size="14" lengthAdjust="spacing" textLength="146.6787" x="671.565" y="245.0313">Pan and zoom canvas</text><text fill="#000000" font-family="sans-serif" font-size="14" lengthAdjust="spacing" textLength="158.0811" x="665.8639" y="261.5196">(scroll zoom, drag pan)</text></g><!--entity Fisheye--><g class="entity" data-qualified-name="mdd-viewer.Fisheye" data-source-line="45" id="ent0007"><ellipse cx="744.904" cy="490.1051" fill="#F1F1F1" rx="93.784" ry="21.1568" style="stroke:#181818;stroke-width:0.5;"/><text fill="#000000" font-family="sans-serif" font-size="14" lengthAdjust="spacing" textLength="161.7725" x="664.0177" y="494.8492">Focus via center fisheye</text></g><!--entity Panels--><g class="entity" data-qualified-name="mdd-viewer.Panels" data-source-line="46" id="ent0008"><ellipse cx="744.9043" cy="409.1071" fill="#F1F1F1" rx="113.6443" ry="25.1289" style="stroke:#181818;stroke-width:0.5;"/><text fill="#000000" font-family="sans-serif" font-size="14" lengthAdjust="spacing" textLength="205.3584" x="642.2251" y="413.8513">Collapse / expand side panels</text></g><!--entity Trace--><g class="entity" data-qualified-name="mdd-viewer.Trace" data-source-line="47" id="ent0009"><ellipse cx="322.7882" cy="397.1059" fill="#F1F1F1" rx="123.2882" ry="27.0576" style="stroke:#181818;stroke-width:0.5;"/><text fill="#000000" font-family="sans-serif" font-size="14" lengthAdjust="spacing" textLength="226.0098" x="209.7833" y="401.8501">Inspect model IDs and trace links</text></g><!--entity ViewOcl--><g class="entity" data-qualified-name="mdd-viewer.ViewOcl" data-source-line="48" id="ent0010"><ellipse cx="322.7939" cy="485.1092" fill="#F1F1F1" rx="103.0539" ry="25.9009" style="stroke:#181818;stroke-width:0.5;"/><text fill="#000000" font-family="sans-serif" font-size="14" lengthAdjust="spacing" textLength="144.0742" x="250.7568" y="482.2044">View OCL constraints</text><text fill="#000000" font-family="sans-serif" font-size="14" lengthAdjust="spacing" textLength="133.2666" x="256.1606" y="498.6927">(source or diagram)</text></g><!--entity ViewDeploy--><g class="entity" data-qualified-name="mdd-viewer.ViewDeploy" data-source-line="49" id="ent0011"><ellipse cx="322.7872" cy="207.1116" fill="#90EE90" rx="109.1672" ry="40.7233" style="stroke:#181818;stroke-width:0.5;"/><text fill="#000000" font-family="sans-serif" font-size="14" font-style="italic" lengthAdjust="spacing" textLength="56.6357" x="294.4694" y="184.7267">&#171;added&#187;</text><text fill="#000000" font-family="sans-serif" font-size="14" lengthAdjust="spacing" textLength="183.8115" x="230.8815" y="201.215">View deployment diagrams</text><text fill="#000000" font-family="sans-serif" font-size="14" lengthAdjust="spacing" textLength="185.6162" x="229.9791" y="217.7033">(dedicated DEPLOY section,</text><text fill="#000000" font-family="sans-serif" font-size="14" lengthAdjust="spacing" textLength="124.332" x="260.6212" y="234.1916">NOT parity-gated)</text></g><!--entity Dev--><g class="entity" data-qualified-name="Dev" data-source-line="39" id="ent0002"><ellipse cx="40.1592" cy="514.3583" fill="#F1F1F1" rx="8" ry="8" style="stroke:#181818;stroke-width:0.5;"/><path d="M40.1592,522.3583 L40.1592,549.3583 M27.1592,530.3583 L53.1592,530.3583 M40.1592,549.3583 L27.1592,564.3583 M40.1592,549.3583 L53.1592,564.3583" fill="none" style="stroke:#181818;stroke-width:0.5;"/><text fill="#000000" font-family="sans-serif" font-size="14" lengthAdjust="spacing" textLength="68.3184" x="6" y="579.3934">Developer</text></g><g class="entity" data-qualified-name="GMN26" data-source-line="69" id="ent0027"><path d="M135.32,43.4883 L135.32,114.7305 A0,0 0 0 0 135.32,114.7305 L318.79,114.7305 L322.79,166.1083 L326.79,114.7305 L510.259,114.7305 A0,0 0 0 0 510.259,114.7305 L510.259,53.4883 L500.259,43.4883 L135.32,43.4883 A0,0 0 0 0 135.32,43.4883" fill="#FEFFDD" style="stroke:#181818;stroke-width:0.5;"/><path d="M500.259,43.4883 L500.259,53.4883 L510.259,53.4883 L500.259,43.4883" fill="#FEFFDD" style="stroke:#181818;stroke-width:0.5;"/><text fill="#000000" font-family="sans-serif" font-size="13" lengthAdjust="spacing" textLength="353.939" x="141.32" y="61.0566">ADDED in cycle 0010 (USE-VIEW-DEPLOY): the rail gains</text><text fill="#000000" font-family="sans-serif" font-size="13" lengthAdjust="spacing" textLength="321.769" x="141.32" y="76.3672">a third source (project.deploy_files()) rendered as a</text><text fill="#000000" font-family="sans-serif" font-size="13" lengthAdjust="spacing" textLength="327.209" x="141.32" y="91.6777">dedicated DEPLOY section, OUTSIDE the parity gate.</text><text fill="#000000" font-family="sans-serif" font-size="13" lengthAdjust="spacing" textLength="199.0498" x="141.32" y="106.9883">Realized by SEQ-VIEW-DEPLOY.</text></g><!--link Dev to View--><g class="link" data-entity-1="ent0002" data-entity-2="ent0004" data-link-type="dependency" data-source-line="52" id="lnk12"><path d="M49.57,505.3883 C61.18,461.4483 86.46,390.8783 135.32,352.1083 C156.66,335.1783 177.6293,326.0937 204.1993,319.6437" fill="none" id="Dev-to-View" style="stroke:#181818;stroke-width:1;"/><polygon fill="#181818" points="210.03,318.2283,200.3404,316.4643,205.1711,319.4078,202.2276,324.2385,210.03,318.2283" style="stroke:#181818;stroke-width:1;"/></g><!--link Dev to Browse--><g class="link" data-entity-1="ent0002" data-entity-2="ent0005" data-link-type="dependency" data-source-line="53" id="lnk13"><path d="M74.7,574.4383 C83.71,580.8483 93.87,586.7083 104.32,590.1083 C314.33,658.4783 435.04,735.5483 601.26,590.1083 C676.85,523.9683 567.07,443.3683 631.26,366.1083 C642.64,352.4083 653.4809,345.5939 670.4009,340.1239" fill="none" id="Dev-to-Browse" style="stroke:#181818;stroke-width:1;"/><polygon fill="#181818" points="676.11,338.2783,666.3159,337.2407,671.3524,339.8163,668.7768,344.8528,676.11,338.2783" style="stroke:#181818;stroke-width:1;"/></g><!--link Dev to PanZoom--><g class="link" data-entity-1="ent0002" data-entity-2="ent0006" data-link-type="dependency" data-source-line="54" id="lnk14"><path d="M74.81,555.1483 C173.89,585.3083 466.13,656.9383 601.26,502.1083 C662.96,431.4083 572.95,366.6283 631.26,293.1083 C640,282.0883 646.4817,276.4372 659.2617,270.2372" fill="none" id="Dev-to-PanZoom" style="stroke:#181818;stroke-width:1;"/><polygon fill="#181818" points="664.66,267.6183,654.8167,267.9478,660.1614,269.8007,658.3085,275.1455,664.66,267.6183" style="stroke:#181818;stroke-width:1;"/></g><!--link Dev to Fisheye--><g class="link" data-entity-1="ent0002" data-entity-2="ent0007" data-link-type="dependency" data-source-line="55" id="lnk15"><path d="M41.71,582.7183 C44.68,627.0883 57.07,698.1383 104.32,732.1083 C283.64,861.0383 409.49,841.6783 601.26,732.1083 C686.58,683.3583 724.4529,567.2259 737.3529,517.5159" fill="none" id="Dev-to-Fisheye" style="stroke:#181818;stroke-width:1;"/><polygon fill="#181818" points="738.86,511.7083,732.7276,519.415,737.6041,516.548,740.4711,521.4245,738.86,511.7083" style="stroke:#181818;stroke-width:1;"/></g><!--link Dev to Panels--><g class="link" data-entity-1="ent0002" data-entity-2="ent0008" data-link-type="dependency" data-source-line="56" id="lnk16"><path d="M50.74,582.7683 C59.7,609.9083 76.07,644.2583 104.32,661.1083 C293.99,774.2583 434.41,805.8183 601.26,661.1083 C672.48,599.3383 572.13,524.5383 631.26,451.1083 C639.7,440.6183 645.6369,435.3671 657.8769,429.4571" fill="none" id="Dev-to-Panels" style="stroke:#181818;stroke-width:1;"/><polygon fill="#181818" points="663.28,426.8483,653.4361,427.1595,658.7774,429.0223,656.9145,434.3637,663.28,426.8483" style="stroke:#181818;stroke-width:1;"/></g><!--link Dev to Trace--><g class="link" data-entity-1="ent0002" data-entity-2="ent0009" data-link-type="dependency" data-source-line="57" id="lnk17"><path d="M67.7,505.5783 C84.63,483.8283 108.41,457.9183 135.32,442.1083 C159.87,427.6883 182.987,419.2839 210.667,412.6139" fill="none" id="Dev-to-Trace" style="stroke:#181818;stroke-width:1;"/><polygon fill="#181818" points="216.5,411.2083,206.8134,409.428,211.6391,412.3796,208.6875,417.2053,216.5,411.2083" style="stroke:#181818;stroke-width:1;"/></g><!--link Dev to ViewOcl--><g class="link" data-entity-1="ent0002" data-entity-2="ent0010" data-link-type="dependency" data-source-line="58" id="lnk18"><path d="M74.73,537.0483 C115.98,528.3783 181.4185,514.6232 236.8585,502.9632" fill="none" id="Dev-to-ViewOcl" style="stroke:#181818;stroke-width:1;"/><polygon fill="#181818" points="242.73,501.7283,233.0994,499.6663,237.837,502.7574,234.7459,507.495,242.73,501.7283" style="stroke:#181818;stroke-width:1;"/></g><!--link Dev to ViewDeploy--><g class="link" data-entity-1="ent0002" data-entity-2="ent0011" data-link-type="dependency" data-source-line="59" id="lnk19"><path d="M43.39,505.4183 C48.92,445.5783 68.2,330.6383 135.32,265.1083 C158.12,242.8483 183.5403,230.7193 213.8903,222.2593" fill="none" id="Dev-to-ViewDeploy" style="stroke:#181818;stroke-width:1;"/><polygon fill="#181818" points="219.67,220.6483,209.9265,219.2118,214.8536,221.9908,212.0746,226.918,219.67,220.6483" style="stroke:#181818;stroke-width:1;"/></g><!--link View to Browse--><g class="link" data-entity-1="ent0004" data-entity-2="ent0005" data-link-type="dependency" data-source-line="61" id="lnk20"><path d="M440.26,314.6483 C512.74,318.0983 597.9268,322.1529 661.3568,325.1729" fill="none" id="View-to-Browse" style="stroke:#181818;stroke-width:1;stroke-dasharray:7,7;"/><polygon fill="#181818" points="667.35,325.4583,658.5504,321.0348,662.3557,325.2205,658.17,329.0257,667.35,325.4583" style="stroke:#181818;stroke-width:1;"/><text fill="#000000" font-family="sans-serif" font-size="13" lengthAdjust="spacing" textLength="59.3569" x="541.26" y="316.2766">&#171;include&#187;</text></g><!--link View to PanZoom--><g class="link" data-entity-1="ent0004" data-entity-2="ent0006" data-link-type="dependency" data-source-line="62" id="lnk21"><path d="M424.15,294.7783 C492.11,285.0683 575.4303,273.1667 642.3603,263.6067" fill="none" id="View-to-PanZoom" style="stroke:#181818;stroke-width:1;stroke-dasharray:7,7;"/><polygon fill="#181818" points="648.3,262.7583,638.8248,260.0711,643.3502,263.4653,639.956,267.9907,648.3,262.7583" style="stroke:#181818;stroke-width:1;"/><text fill="#000000" font-family="sans-serif" font-size="13" lengthAdjust="spacing" textLength="57.1924" x="542.26" y="266.7966">&#171;extend&#187;</text></g><!--link View to Fisheye--><g class="link" data-entity-1="ent0004" data-entity-2="ent0007" data-link-type="dependency" data-source-line="63" id="lnk22"><path d="M438.96,315.6783 C465.15,322.2183 490.92,333.3983 510.26,352.1083 C547.6,388.2383 501.08,430.9683 540.26,465.1083 C572.95,493.5983 614.6103,500.7027 655.6003,500.2627" fill="none" id="View-to-Fisheye" style="stroke:#181818;stroke-width:1;stroke-dasharray:7,7;"/><polygon fill="#181818" points="661.6,500.1983,652.5576,496.2951,656.6003,500.2519,652.6435,504.2947,661.6,500.1983" style="stroke:#181818;stroke-width:1;"/><text fill="#000000" font-family="sans-serif" font-size="13" lengthAdjust="spacing" textLength="57.1924" x="542.26" y="461.6766">&#171;extend&#187;</text></g><!--link View to Panels--><g class="link" data-entity-1="ent0004" data-entity-2="ent0008" data-link-type="dependency" data-source-line="64" id="lnk23"><path d="M436.64,317.5983 C463.04,324.0783 489.48,334.7383 510.26,352.1083 C536.23,373.8183 512,403.4783 540.26,422.1083 C582.55,449.9983 635.3528,444.2522 678.8328,432.3522" fill="none" id="View-to-Panels" style="stroke:#181818;stroke-width:1;stroke-dasharray:7,7;"/><polygon fill="#181818" points="684.62,430.7683,674.8833,429.286,679.7974,432.0882,676.9952,437.0022,684.62,430.7683" style="stroke:#181818;stroke-width:1;"/><text fill="#000000" font-family="sans-serif" font-size="13" lengthAdjust="spacing" textLength="57.1924" x="542.26" y="418.6766">&#171;extend&#187;</text></g><!--link ViewOcl to PanZoom--><g class="link" data-entity-1="ent0010" data-entity-2="ent0006" data-link-type="dependency" data-source-line="65" id="lnk24"><path d="M420.05,476.2883 C450.75,470.0983 483.63,459.6583 510.26,442.1083 C529.11,429.6783 525.05,417.7983 540.26,401.1083 C564.64,374.3383 578.58,375.3383 601.26,347.1083 C618.45,325.6983 610.58,311.1683 631.26,293.1083 C642.72,283.0883 651.224,277.6024 665.404,271.4624" fill="none" id="ViewOcl-to-PanZoom" style="stroke:#181818;stroke-width:1;stroke-dasharray:7,7;"/><polygon fill="#181818" points="670.91,269.0783,661.0616,268.9838,666.3217,271.065,664.2404,276.3251,670.91,269.0783" style="stroke:#181818;stroke-width:1;"/><text fill="#000000" font-family="sans-serif" font-size="13" lengthAdjust="spacing" textLength="57.1924" x="542.26" y="343.6766">&#171;extend&#187;</text></g><!--link ViewDeploy to PanZoom--><g class="link" data-entity-1="ent0011" data-entity-2="ent0006" data-link-type="dependency" data-source-line="66" id="lnk25"><path d="M430.3,214.6883 C481.97,218.6883 544.91,224.0183 601.26,230.1083 C616.28,231.7283 626.2284,232.888 641.7284,234.868" fill="none" id="ViewDeploy-to-PanZoom" style="stroke:#181818;stroke-width:1;stroke-dasharray:7,7;"/><polygon fill="#181818" points="647.68,235.6283,639.2594,230.5201,642.7203,234.9947,638.2457,238.4556,647.68,235.6283" style="stroke:#181818;stroke-width:1;"/><text fill="#000000" font-family="sans-serif" font-size="13" lengthAdjust="spacing" textLength="57.1924" x="542.26" y="220.5966">&#171;extend&#187;</text></g><?plantuml-src jLN1RXen4BtlLupeeI05IYwL6aLH2RkaI3IaWQHA5QboRBEuCVRADYIagjIFwB_qta_fbtHixuQDQ7eg5zRZcNapVlDixArG1J5a0KlBAR4SlYO0nuJUvaOl5UjhgStX8M6CiwCZUF6ccsLlkdyBCNoXLp5eC3X-tTzFlYNs4PrAOkskiFMYq8ehjoDywuZR5I-6KqTKBdU5JwZJPaVO-Ei45GNvpyo_XBU2DIycMVjoc7rifyFUoNdl_QHLSmo6atVP5Nx7_OidZkduv6IKjSzwfzdeYID0ZVkZhRqqEnkDhre0ctxTN5YWQufJQNQx-rsVqm-cju29sGoQT6cCrvmLZBSE00K8NFA5tmeuUw3yNdd0JkA4Gu05Ox0I_0v-V_-1G2JtHFeDRk3NpxBeTfLMaaW-S-0q697F7NgzSeHMIH97t4ZvYajTSDC0OW6j9Dc8gu5rsx5C8yogkksDIzyCbc3SS5PrTAsQTauARg5tceBZzmuapyMDvAs0xfFg8CT6t-5teHcNC1EIsn0Mj-k1PqG1KGmUjCPxIzIAM5-B6YrbsDm3PaYEqbAn4YPymkqwna3JfKNE251a1dcR2JldQnxY1t5TZqUbILBWwXNm-y9NzoFp9RYqLH5SrdE6oXP8NdcYOMf3ryuGoa4ATHlpfjxU8XD5Xa-IiXWjb0ldqqk3YJYbajyDYsCgjm0OBwHU1oMLyHu49IKeFaGCecB1HW7iNQlJyTHVHk7MxTn7RE3J0BMHDjwk1AK1xVPH769bbAEgp8hsogvehVazOvKPYQW3-tFLxTX8aeG3TZfLGJZ0teIYSiauTlVeBUi7DweFvLdtbjqyuuszRJknfNzZbsGz6vCeZVy3DzevzEXP_Lm0lJJDKX2gVeMt7fa3V5hmII12GexYy98Z_hKngCceaMPXz1SSR2UAu7EuJCrMQtD5SR84yvwL0umlffDXceLIKHNWLT71f7DEf7Z0d9irJB8FzTuw2HO0Vy8_?></g></svg>