<svg xmlns="http://www.w3.org/2000/svg" xmlns:xlink="http://www.w3.org/1999/xlink" contentStyleType="text/css" data-diagram-type="DESCRIPTION" height="601px" preserveAspectRatio="none" style="width:879px;height:601px;background:#FFFFFF;" version="1.1" viewBox="0 0 879 601" width="879px" zoomAndPan="magnify"><?plantuml 1.2026.3?><defs/><g><g class="title" data-source-line="15"><text fill="#000000" font-family="sans-serif" font-size="14" font-weight="700" lengthAdjust="spacing" textLength="400.668" x="235.841" y="23.5352">/mdd-deploy adaptive gates &#183; cycle 0016 diff (current)</text></g><!--cluster mdd toolchain (utility, outside the parity gate)--><g class="cluster" data-qualified-name="mdd toolchain .utility. outside the parity gate." data-source-line="21" id="ent0003"><rect fill="none" height="435" rx="2.5" ry="2.5" style="stroke:#181818;stroke-width:1;" width="751.84" x="113.51" y="44.4883"/><text fill="#000000" font-family="sans-serif" font-size="14" font-weight="700" lengthAdjust="spacing" textLength="333.1768" x="322.8416" y="60.0234">mdd toolchain (utility, outside the parity gate)</text></g><!--entity Guide--><g class="entity" data-qualified-name="mdd toolchain .utility. outside the parity gate..Guide" data-source-line="22" id="ent0004"><ellipse cx="279.9557" cy="216.489" fill="#F1F1F1" rx="150.4457" ry="37.0607" style="stroke:#181818;stroke-width:0.5;"/><text fill="#000000" font-family="sans-serif" font-size="14" lengthAdjust="spacing" textLength="214.1289" x="172.8913" y="206.0585">Guide an Azure Container Apps</text><text fill="#000000" font-family="sans-serif" font-size="14" lengthAdjust="spacing" textLength="180.5029" x="189.7043" y="222.5468">deployment via a diagram,</text><text fill="#000000" font-family="sans-serif" font-size="14" lengthAdjust="spacing" textLength="190.0254" x="184.943" y="239.0351">runbook, and generated IaC</text></g><!--entity Dialect--><g class="entity" data-qualified-name="mdd toolchain .utility. outside the parity gate..Dialect" data-source-line="23" id="ent0005"><ellipse cx="700.3761" cy="108.4875" fill="#F1F1F1" rx="133.5961" ry="29.1192" style="stroke:#181818;stroke-width:0.5;"/><text fill="#000000" font-family="sans-serif" font-size="14" lengthAdjust="spacing" textLength="233.7959" x="583.4781" y="109.8307">Choose &amp; CONFIRM the IaC dialect</text><text fill="#000000" font-family="sans-serif" font-size="14" lengthAdjust="spacing" textLength="150.7256" x="625.0133" y="126.319">(Bicep XOR Terraform)</text></g><!--entity Purpose--><g class="entity" data-qualified-name="mdd toolchain .utility. outside the parity gate..Purpose" data-source-line="24" id="ent0006"><ellipse cx="700.3804" cy="213.4928" fill="#90EE90" rx="135.6804" ry="41.0145" style="stroke:#181818;stroke-width:0.5;"/><text fill="#000000" font-family="sans-serif" font-size="14" font-style="italic" lengthAdjust="spacing" textLength="56.6357" x="672.0625" y="191.0812">&#171;added&#187;</text><text fill="#000000" font-family="sans-serif" font-size="14" lengthAdjust="spacing" textLength="230.1934" x="585.2837" y="207.5695">Confirm the deployment PURPOSE</text><text fill="#000000" font-family="sans-serif" font-size="14" lengthAdjust="spacing" textLength="206.377" x="597.1919" y="224.0577">(dev/staging/prod) before any</text><text fill="#000000" font-family="sans-serif" font-size="14" lengthAdjust="spacing" textLength="157.8896" x="621.4356" y="240.546">purpose-driven default</text></g><!--entity AccessCheck--><g class="entity" data-qualified-name="mdd toolchain .utility. outside the parity gate..AccessCheck" data-source-line="25" id="ent0007"><ellipse cx="700.3835" cy="332.4888" fill="#90EE90" rx="148.9735" ry="42.6005" style="stroke:#181818;stroke-width:0.5;"/><text fill="#000000" font-family="sans-serif" font-size="14" font-style="italic" lengthAdjust="spacing" textLength="56.6357" x="672.0657" y="307.0628">&#171;added&#187;</text><text fill="#000000" font-family="sans-serif" font-size="14" lengthAdjust="spacing" textLength="243.1133" x="578.8269" y="323.5511">Account for who READS and WRITES</text><text fill="#000000" font-family="sans-serif" font-size="14" lengthAdjust="spacing" textLength="208.1064" x="596.3303" y="340.0394">every secured store (identity +</text><text fill="#000000" font-family="sans-serif" font-size="14" lengthAdjust="spacing" textLength="209.7949" x="595.4861" y="356.5277">admitted path) before emitting</text></g><!--entity Inspect--><g class="entity" data-qualified-name="mdd toolchain .utility. outside the parity gate..Inspect" data-source-line="26" id="ent0008"><ellipse cx="700.3848" cy="436.4892" fill="#F1F1F1" rx="122.2048" ry="26.841" style="stroke:#181818;stroke-width:0.5;"/><text fill="#000000" font-family="sans-serif" font-size="14" lengthAdjust="spacing" textLength="147.7861" x="626.4917" y="430.7697">Inspect the generated</text><text fill="#000000" font-family="sans-serif" font-size="14" lengthAdjust="spacing" textLength="190.9961" x="604.8867" y="447.2579">deployment diagram as SVG</text></g><!--entity Op--><g class="entity" data-qualified-name="Op" data-source-line="19" id="ent0002"><ellipse cx="36.2559" cy="359.7483" fill="#F1F1F1" rx="8" ry="8" style="stroke:#181818;stroke-width:0.5;"/><path d="M36.2559,367.7483 L36.2559,394.7483 M23.2559,375.7483 L49.2559,375.7483 M36.2559,394.7483 L23.2559,409.7483 M36.2559,394.7483 L49.2559,409.7483" fill="none" style="stroke:#181818;stroke-width:0.5;"/><text fill="#000000" font-family="sans-serif" font-size="14" lengthAdjust="spacing" textLength="60.5117" x="6" y="424.7834">Operator</text></g><!--link Op to Guide--><g class="link" data-entity-1="ent0002" data-entity-2="ent0004" data-link-type="dependency" data-source-line="29" id="lnk9"><path d="M53.7,350.9383 C63.68,331.2983 78.08,308.2883 96.51,292.4883 C120.61,271.8383 145.5437,258.4031 174.6737,246.8331" fill="none" id="Op-to-Guide" style="stroke:#181818;stroke-width:1;"/><polygon fill="#181818" points="180.25,244.6183,170.4091,244.223,175.6031,246.464,173.3622,251.658,180.25,244.6183" style="stroke:#181818;stroke-width:1;"/></g><!--link Op to Dialect--><g class="link" data-entity-1="ent0002" data-entity-2="ent0005" data-link-type="dependency" data-source-line="30" id="lnk10"><path d="M67,376.9883 C76.31,373.4783 86.72,369.9483 96.51,367.4883 C188.95,344.3183 452.17,374.9783 521.4,309.4883 C572.38,261.2683 504.6,206.7583 551.4,154.4883 C562.62,141.9583 571.6644,135.1701 587.2644,128.4901" fill="none" id="Op-to-Dialect" style="stroke:#181818;stroke-width:1;"/><polygon fill="#181818" points="592.78,126.1283,582.9321,125.9939,588.1837,128.0965,586.0811,133.3481,592.78,126.1283" style="stroke:#181818;stroke-width:1;"/></g><!--link Op to Purpose--><g class="link" data-entity-1="ent0002" data-entity-2="ent0006" data-link-type="dependency" data-source-line="31" id="lnk11"><path d="M66.93,391.6283 C160.87,397.7883 449.75,411.8183 521.4,357.4883 C553.33,333.2883 523.65,301.3783 551.4,272.4883 C564.24,259.1283 575.0716,251.2953 592.0816,243.2053" fill="none" id="Op-to-Purpose" style="stroke:#181818;stroke-width:1;"/><polygon fill="#181818" points="597.5,240.6283,587.6544,240.8815,592.9847,242.7758,591.0904,248.1061,597.5,240.6283" style="stroke:#181818;stroke-width:1;"/></g><!--link Op to AccessCheck--><g class="link" data-entity-1="ent0002" data-entity-2="ent0007" data-link-type="dependency" data-source-line="32" id="lnk12"><path d="M66.9,405.3583 C76.13,409.4983 86.51,413.3883 96.51,415.4883 C281.33,454.2483 342.57,476.1483 521.4,415.4883 C537.31,410.0883 536.82,400.8283 551.4,392.4883 C568.49,382.7183 581.9568,376.0923 600.4768,368.2323" fill="none" id="Op-to-AccessCheck" style="stroke:#181818;stroke-width:1;"/><polygon fill="#181818" points="606,365.8883,596.1525,365.7223,601.3974,367.8417,599.278,373.0865,606,365.8883" style="stroke:#181818;stroke-width:1;"/></g><!--link Op to Inspect--><g class="link" data-entity-1="ent0002" data-entity-2="ent0008" data-link-type="dependency" data-source-line="33" id="lnk13"><path d="M50.14,428.2283 C59.44,449.4983 74.31,474.0383 96.51,486.4883 C275.35,586.8083 526.5051,507.2364 638.2751,462.7664" fill="none" id="Op-to-Inspect" style="stroke:#181818;stroke-width:1;"/><polygon fill="#181818" points="643.85,460.5483,634.0088,460.1588,639.2042,462.3967,636.9663,467.5921,643.85,460.5483" style="stroke:#181818;stroke-width:1;"/></g><!--link Guide to Dialect--><g class="link" data-entity-1="ent0004" data-entity-2="ent0005" data-link-type="dependency" data-source-line="35" id="lnk14"><path d="M385.19,189.5883 C455.27,171.4983 540.7304,149.4377 606.8304,132.3777" fill="none" id="Guide-to-Dialect" style="stroke:#181818;stroke-width:1;stroke-dasharray:7,7;"/><polygon fill="#181818" points="612.64,130.8783,602.9259,129.2543,607.7986,132.1278,604.9252,137.0005,612.64,130.8783" style="stroke:#181818;stroke-width:1;"/><text fill="#000000" font-family="sans-serif" font-size="13" lengthAdjust="spacing" textLength="59.3569" x="461.4" y="152.5866">&#171;include&#187;</text></g><!--link Guide to Purpose--><g class="link" data-entity-1="ent0004" data-entity-2="ent0006" data-link-type="dependency" data-source-line="36" id="lnk15"><path d="M416.93,200.7583 C451.01,198.3383 487.53,197.0683 521.4,198.4883 C537.36,199.1583 548.1152,199.7418 564.6752,200.9218" fill="none" id="Guide-to-Purpose" style="stroke:#181818;stroke-width:1;stroke-dasharray:7,7;"/><polygon fill="#181818" points="570.66,201.3483,561.9671,196.7187,565.6726,200.9929,561.3985,204.6985,570.66,201.3483" style="stroke:#181818;stroke-width:1;"/><text fill="#000000" font-family="sans-serif" font-size="13" lengthAdjust="spacing" textLength="59.3569" x="461.4" y="194.4666">&#171;include&#187;</text></g><!--link Guide to AccessCheck--><g class="link" data-entity-1="ent0004" data-entity-2="ent0007" data-link-type="dependency" data-source-line="37" id="lnk16"><path d="M419.75,230.4183 C453.6,236.1483 489.29,244.1983 521.4,255.4883 C535.86,260.5783 537.61,265.8183 551.4,272.4883 C570,281.4783 584.7525,288.0325 604.1925,296.0425" fill="none" id="Guide-to-AccessCheck" style="stroke:#181818;stroke-width:1;stroke-dasharray:7,7;"/><polygon fill="#181818" points="609.74,298.3283,602.9426,291.2012,605.1171,296.4235,599.8948,298.598,609.74,298.3283" style="stroke:#181818;stroke-width:1;"/><text fill="#000000" font-family="sans-serif" font-size="13" lengthAdjust="spacing" textLength="59.3569" x="461.4" y="235.6766">&#171;include&#187;</text></g><!--link Guide to Inspect--><g class="link" data-entity-1="ent0004" data-entity-2="ent0008" data-link-type="dependency" data-source-line="38" id="lnk17"><path d="M326.43,251.9883 C378.34,291.0483 466.99,353.4683 551.4,392.4883 C571.96,401.9883 589.3202,408.3037 611.0502,414.7837" fill="none" id="Guide-to-Inspect" style="stroke:#181818;stroke-width:1;stroke-dasharray:7,7;"/><polygon fill="#181818" points="616.8,416.4983,609.3184,410.0932,612.0085,415.0694,607.0322,417.7595,616.8,416.4983" style="stroke:#181818;stroke-width:1;"/><text fill="#000000" font-family="sans-serif" font-size="13" lengthAdjust="spacing" textLength="57.1924" x="462.4" y="343.0866">&#171;extend&#187;</text></g><?plantuml-src hLJRRjD047ttLuo218cea_1IgQMgI5stL40J9IqNAI_RtOcpnDvTxQxJ1eJ4H_0llFCfV0dZZPscj1KlF4Joh6VFd7FcE6uXbM6M5L0wvCmXV8q0ZXXVP5QNIYGwr_RWW0c1ul0GdkprqtIl_r2BnK8lrqqd9qUxoOleM-Gsw8nxRVyhzZDu9KNxSfB6n-dexV1JFBeSZuQJj0Eta7uk7V0Lpn7Q_VwBtSxzMuCaIIUJE7cT9c_-TJK9PLM1aBCPj7bfBIeFJWhix4El428MQ7AzWen9vS1VQs226I-NI4SU7Vp-_eEWrbq5NOvDQOqcuxbMCsaBvgLMm9IW7zd6qRcOwyBaw55H0OQv1kMpbaggZCWYu8rqlYg4P3bo7yPruLoJ4ZgjBNm9foMHXHuSrsqzmZbJpbJFp28rKX84b8hFcSfGT2ClFSdU5lUNf5y_QwVkMzE9eXnd7hm6AxEvfxUM9f74A5fdeZKqQ1azjO0v69eegXfeDE6rQ2PTrJbnaGhQfPUvzAiTqAMlF0_2AM1q5gXqMY5YJPHRQwtau-1BIT8IhJpXe8M1CMwgRfS0Iyc0LTPbbDQTgRAbkj9wiHCMaP7nH95SEMD9e1c0joSbSrtjy2aam_EJi_6xm8owcsrCLVj8SZJmSJY62xIMpRGjEW6itiGTk7KM0ieMophY12PmsNEUPRJQdh5QTE0A2R4IkvggEbAniBGaHGWpLkO-31lLQTiaVNliW7FwwZmG4bpFDOpJmV4aMF1XV7QHJgOAbsXNGFtafm3dgv5jyaBvQWVFfug9GlhAAiFyVCCAgqFY6YWCGgYJEVB5mpIQE5RgDzxVMLUzg0fjyluqeDQNw9yX6Xg8uyDwINNHc5oNjGrDkKMfEMhmedM8kjqD1kmJRQbuNWeauhVl6syVUxyj_B6UHdlr7c_eaoTl_W00?></g></svg>