<svg xmlns="http://www.w3.org/2000/svg" xmlns:xlink="http://www.w3.org/1999/xlink" contentStyleType="text/css" data-diagram-type="DESCRIPTION" height="687px" preserveAspectRatio="none" style="width:1578px;height:687px;background:#FFFFFF;" version="1.1" viewBox="0 0 1578 687" width="1578px" zoomAndPan="magnify"><?plantuml 1.2026.3?><defs/><g><g class="title" data-source-line="35"><text fill="#000000" font-family="sans-serif" font-size="14" font-weight="700" lengthAdjust="spacing" textLength="365.6201" x="603.1299" y="23.5352">mdd-viewer scan scope &#183; cycle 0010 diff (current)</text></g><!--cluster Parity-gated roots the viewer walks--><g class="cluster" data-qualified-name="Parity-gated roots the viewer walks" data-source-line="45" id="ent0008"><rect fill="#DDDDFF" height="121.98" rx="2.5" ry="2.5" style="stroke:#181818;stroke-width:1;" width="626" x="18.88" y="543.3483"/><text fill="#000000" font-family="sans-serif" font-size="14" font-weight="700" lengthAdjust="spacing" textLength="259.8408" x="201.9596" y="558.8834">Parity-gated roots the viewer walks</text></g><!--cluster Utility tree ? now in the viewer, still OUT of the parity gate--><g class="cluster" data-qualified-name="Utility tree . now in the viewer. still OUT of the parity gate" data-source-line="51" id="ent0012"><rect fill="#DDFFDD" height="138.46" rx="2.5" ry="2.5" style="stroke:#181818;stroke-width:1;" width="445" x="668.88" y="535.1083"/><text fill="#000000" font-family="sans-serif" font-size="14" font-weight="700" lengthAdjust="spacing" textLength="429.6523" x="676.5538" y="550.6434">Utility tree &#8212; now in the viewer, still OUT of the parity gate</text></g><!--cluster Trees only `mdd render` rasterizes (no viewer section)--><g class="cluster" data-qualified-name="Trees only .mdd render. rasterizes .no viewer section." data-source-line="55" id="ent0014"><rect fill="#FFDDDD" height="121.98" rx="2.5" ry="2.5" style="stroke:#181818;stroke-width:1;" width="427" x="1137.88" y="543.3483"/><text fill="#000000" font-family="sans-serif" font-size="14" font-weight="700" lengthAdjust="spacing" textLength="400.9619" x="1150.899" y="558.8834">Trees only `mdd render` rasterizes (no viewer section)</text></g><!--entity Models--><g class="entity" data-qualified-name="Parity-gated roots the viewer walks.Models" data-source-line="46" id="ent0009"><path d="M37.38,578.3483 L78.38,578.3483 A3.75,3.75 0 0 1 80.88,580.8483 L87.88,599.3483 L192.379,599.3483 A2.5,2.5 0 0 1 194.879,601.8483 L194.879,646.8248 A2.5,2.5 0 0 1 192.379,649.3248 L37.38,649.3248 A2.5,2.5 0 0 1 34.88,646.8248 L34.88,580.8483 A2.5,2.5 0 0 1 37.38,578.3483" fill="#F1F1F1" style="stroke:#181818;stroke-width:0.5;"/><line style="stroke:#181818;stroke-width:0.5;" x1="34.88" x2="87.88" y1="599.3483" y2="599.3483"/><text fill="#000000" font-family="sans-serif" font-size="14" lengthAdjust="spacing" textLength="99.2715" x="44.88" y="619.8834">.mdd/models/</text><text fill="#000000" font-family="sans-serif" font-size="14" lengthAdjust="spacing" textLength="129.999" x="44.88" y="636.3717">current + objective</text></g><!--entity Ocl--><g class="entity" data-qualified-name="Parity-gated roots the viewer walks.Ocl" data-source-line="47" id="ent0010"><path d="M232.78,578.3483 L273.78,578.3483 A3.75,3.75 0 0 1 276.28,580.8483 L283.28,599.3483 L382.987,599.3483 A2.5,2.5 0 0 1 385.487,601.8483 L385.487,646.8248 A2.5,2.5 0 0 1 382.987,649.3248 L232.78,649.3248 A2.5,2.5 0 0 1 230.28,646.8248 L230.28,580.8483 A2.5,2.5 0 0 1 232.78,578.3483" fill="#F1F1F1" style="stroke:#181818;stroke-width:0.5;"/><line style="stroke:#181818;stroke-width:0.5;" x1="230.28" x2="283.28" y1="599.3483" y2="599.3483"/><text fill="#000000" font-family="sans-serif" font-size="14" lengthAdjust="spacing" textLength="125.207" x="240.28" y="619.8834">.mdd/constraints/</text><ellipse cx="245.78" cy="631.8248" fill="#000000" rx="2.5" ry="2.5"/><text fill="#000000" font-family="sans-serif" font-size="14" lengthAdjust="spacing" textLength="24.2471" x="252.28" y="636.3717">.ocl</text></g><!--entity Cycles--><g class="entity" data-qualified-name="Parity-gated roots the viewer walks.Cycles" data-source-line="48" id="ent0011"><path d="M423.41,578.3483 L464.41,578.3483 A3.75,3.75 0 0 1 466.91,580.8483 L473.91,599.3483 L626.3495,599.3483 A2.5,2.5 0 0 1 628.8495,601.8483 L628.8495,646.8248 A2.5,2.5 0 0 1 626.3495,649.3248 L423.41,649.3248 A2.5,2.5 0 0 1 420.91,646.8248 L420.91,580.8483 A2.5,2.5 0 0 1 423.41,578.3483" fill="#F1F1F1" style="stroke:#181818;stroke-width:0.5;"/><line style="stroke:#181818;stroke-width:0.5;" x1="420.91" x2="473.91" y1="599.3483" y2="599.3483"/><text fill="#000000" font-family="sans-serif" font-size="14" lengthAdjust="spacing" textLength="90.4463" x="430.91" y="619.8834">.mdd/cycles/</text><text fill="#000000" font-family="sans-serif" font-size="14" lengthAdjust="spacing" textLength="177.9395" x="430.91" y="636.3717">&lt;N&gt;/manifest.yml + diffs</text></g><!--entity Deploy--><g class="entity" data-qualified-name="Utility tree . now in the viewer. still OUT of the parity gate.Deploy" data-source-line="52" id="ent0013"><path d="M711.08,570.1083 L752.08,570.1083 A3.75,3.75 0 0 1 754.58,572.6083 L761.58,591.1083 L988.6747,591.1083 A2.5,2.5 0 0 1 991.1747,593.6083 L991.1747,655.0731 A2.5,2.5 0 0 1 988.6747,657.5731 L711.08,657.5731 A2.5,2.5 0 0 1 708.58,655.0731 L708.58,572.6083 A2.5,2.5 0 0 1 711.08,570.1083" fill="#F1F1F1" style="stroke:#181818;stroke-width:0.5;"/><line style="stroke:#181818;stroke-width:0.5;" x1="708.58" x2="761.58" y1="591.1083" y2="591.1083"/><text fill="#000000" font-family="sans-serif" font-size="14" lengthAdjust="spacing" textLength="95.1904" x="718.58" y="611.6434">.mdd/deploy/</text><text fill="#000000" font-family="sans-serif" font-size="14" lengthAdjust="spacing" textLength="252.5947" x="718.58" y="628.1317">azure-container-apps/diagram.puml</text><text fill="#000000" font-family="sans-serif" font-size="14" lengthAdjust="spacing" textLength="242.4844" x="718.58" y="644.62">-&gt; .mdd/rendered/deploy/**/*.svg</text></g><!--entity Map--><g class="entity" data-qualified-name="Trees only .mdd render. rasterizes .no viewer section..Map" data-source-line="56" id="ent0015"><path d="M1156.32,578.3483 L1197.32,578.3483 A3.75,3.75 0 0 1 1199.82,580.8483 L1206.82,599.3483 L1319.447,599.3483 A2.5,2.5 0 0 1 1321.947,601.8483 L1321.947,646.8248 A2.5,2.5 0 0 1 1319.447,649.3248 L1156.32,649.3248 A2.5,2.5 0 0 1 1153.82,646.8248 L1153.82,580.8483 A2.5,2.5 0 0 1 1156.32,578.3483" fill="#F1F1F1" style="stroke:#181818;stroke-width:0.5;"/><line style="stroke:#181818;stroke-width:0.5;" x1="1153.82" x2="1206.82" y1="599.3483" y2="599.3483"/><text fill="#000000" font-family="sans-serif" font-size="14" lengthAdjust="spacing" textLength="79.4199" x="1163.82" y="619.8834">.mdd/map/</text><text fill="#000000" font-family="sans-serif" font-size="14" lengthAdjust="spacing" textLength="138.127" x="1163.82" y="636.3717">whole-map baseline</text></g><!--entity ReviewD--><g class="entity" data-qualified-name="Trees only .mdd render. rasterizes .no viewer section..ReviewD" data-source-line="57" id="ent0016"><path d="M1359.52,578.3483 L1400.52,578.3483 A3.75,3.75 0 0 1 1403.02,580.8483 L1410.02,599.3483 L1546.2446,599.3483 A2.5,2.5 0 0 1 1548.7446,601.8483 L1548.7446,646.8248 A2.5,2.5 0 0 1 1546.2446,649.3248 L1359.52,649.3248 A2.5,2.5 0 0 1 1357.02,646.8248 L1357.02,580.8483 A2.5,2.5 0 0 1 1359.52,578.3483" fill="#F1F1F1" style="stroke:#181818;stroke-width:0.5;"/><line style="stroke:#181818;stroke-width:0.5;" x1="1357.02" x2="1410.02" y1="599.3483" y2="599.3483"/><text fill="#000000" font-family="sans-serif" font-size="14" lengthAdjust="spacing" textLength="161.7246" x="1367.02" y="619.8834">.mdd/rendered/review/</text><ellipse cx="1372.52" cy="631.8248" fill="#000000" rx="2.5" ry="2.5"/><text fill="#000000" font-family="sans-serif" font-size="14" lengthAdjust="spacing" textLength="66.6299" x="1379.02" y="636.3717">.diff.puml</text></g><!--entity Dev--><g class="entity" data-qualified-name="Dev" data-source-line="37" id="ent0002"><ellipse cx="168.8792" cy="72.3283" fill="#F1F1F1" rx="8" ry="8" style="stroke:#181818;stroke-width:0.5;"/><path d="M168.8792,80.3283 L168.8792,107.3283 M155.8792,88.3283 L181.8792,88.3283 M168.8792,107.3283 L155.8792,122.3283 M168.8792,107.3283 L181.8792,122.3283" fill="none" style="stroke:#181818;stroke-width:0.5;"/><text fill="#000000" font-family="sans-serif" font-size="14" lengthAdjust="spacing" textLength="68.3184" x="134.72" y="137.3634">Developer</text></g><!--entity Viewer--><g class="entity" data-qualified-name="Viewer" data-source-line="39" id="ent0003"><rect fill="#F1F1F1" height="79.4648" rx="2.5" ry="2.5" style="stroke:#181818;stroke-width:0.5;" width="160.2373" x="190.76" y="252.6583"/><rect fill="#F1F1F1" height="10" style="stroke:#181818;stroke-width:0.5;" width="15" x="330.9973" y="257.6583"/><rect fill="#F1F1F1" height="2" style="stroke:#181818;stroke-width:0.5;" width="4" x="328.9973" y="259.6583"/><rect fill="#F1F1F1" height="2" style="stroke:#181818;stroke-width:0.5;" width="4" x="328.9973" y="263.6583"/><text fill="#000000" font-family="sans-serif" font-size="14" lengthAdjust="spacing" textLength="82.2021" x="205.76" y="286.1934">mdd-viewer</text><text fill="#000000" font-family="sans-serif" font-size="14" lengthAdjust="spacing" textLength="120.2373" x="205.76" y="302.6817">MddViewer::new()</text><text fill="#000000" font-family="sans-serif" font-size="14" lengthAdjust="spacing" textLength="57.3193" x="205.76" y="319.17">(left rail)</text></g><!--entity MReg--><g class="entity" data-qualified-name="MReg" data-source-line="40" id="ent0004"><rect fill="#F1F1F1" height="62.9766" rx="2.5" ry="2.5" style="stroke:#181818;stroke-width:0.5;" width="257.7656" x="7" y="409.1283"/><rect fill="#F1F1F1" height="10" style="stroke:#181818;stroke-width:0.5;" width="15" x="244.7656" y="414.1283"/><rect fill="#F1F1F1" height="2" style="stroke:#181818;stroke-width:0.5;" width="4" x="242.7656" y="416.1283"/><rect fill="#F1F1F1" height="2" style="stroke:#181818;stroke-width:0.5;" width="4" x="242.7656" y="420.1283"/><text fill="#000000" font-family="sans-serif" font-size="14" lengthAdjust="spacing" textLength="165.5459" x="22" y="442.6634">Project::model_registry()</text><text fill="#000000" font-family="sans-serif" font-size="14" lengthAdjust="spacing" textLength="217.7656" x="22" y="459.1517">-&gt; model_and_constraint_files()</text></g><!--entity CReg--><g class="entity" data-qualified-name="CReg" data-source-line="41" id="ent0005"><rect fill="#F1F1F1" height="46.4883" rx="2.5" ry="2.5" style="stroke:#181818;stroke-width:0.5;" width="179.5557" x="300.1" y="417.3683"/><rect fill="#F1F1F1" height="10" style="stroke:#181818;stroke-width:0.5;" width="15" x="459.6557" y="422.3683"/><rect fill="#F1F1F1" height="2" style="stroke:#181818;stroke-width:0.5;" width="4" x="457.6557" y="424.3683"/><rect fill="#F1F1F1" height="2" style="stroke:#181818;stroke-width:0.5;" width="4" x="457.6557" y="428.3683"/><text fill="#000000" font-family="sans-serif" font-size="14" lengthAdjust="spacing" textLength="139.5557" x="315.1" y="450.9034">CycleRegistry::scan()</text></g><!--entity DepSrc--><g class="entity" data-qualified-name="DepSrc" data-source-line="42" id="ent0006"><rect fill="#90EE90" height="79.4648" rx="2.5" ry="2.5" style="stroke:#181818;stroke-width:0.5;" width="185.0586" x="527.35" y="62.3383"/><rect fill="#90EE90" height="10" style="stroke:#181818;stroke-width:0.5;" width="15" x="692.4086" y="67.3383"/><rect fill="#90EE90" height="2" style="stroke:#181818;stroke-width:0.5;" width="4" x="690.4086" y="69.3383"/><rect fill="#90EE90" height="2" style="stroke:#181818;stroke-width:0.5;" width="4" x="690.4086" y="73.3383"/><text fill="#000000" font-family="sans-serif" font-size="14" font-style="italic" lengthAdjust="spacing" textLength="56.6357" x="586.5614" y="95.8734">&#171;added&#187;</text><text fill="#000000" font-family="sans-serif" font-size="14" lengthAdjust="spacing" textLength="145.0586" x="542.35" y="112.3617">Project::deploy_files()</text><text fill="#000000" font-family="sans-serif" font-size="14" lengthAdjust="spacing" textLength="91.1709" x="542.35" y="128.85">(third source)</text></g><!--entity RT--><g class="entity" data-qualified-name="RT" data-source-line="43" id="ent0007"><rect fill="#F1F1F1" height="62.9766" rx="2.5" ry="2.5" style="stroke:#181818;stroke-width:0.5;" width="218.9512" x="687.4" y="409.1283"/><rect fill="#F1F1F1" height="10" style="stroke:#181818;stroke-width:0.5;" width="15" x="886.3512" y="414.1283"/><rect fill="#F1F1F1" height="2" style="stroke:#181818;stroke-width:0.5;" width="4" x="884.3512" y="416.1283"/><rect fill="#F1F1F1" height="2" style="stroke:#181818;stroke-width:0.5;" width="4" x="884.3512" y="420.1283"/><text fill="#000000" font-family="sans-serif" font-size="14" lengthAdjust="spacing" textLength="102.4639" x="702.4" y="442.6634">RenderTree set</text><text fill="#000000" font-family="sans-serif" font-size="14" lengthAdjust="spacing" textLength="178.9512" x="702.4" y="459.1517">(mdd render rasterization)</text></g><g class="entity" data-qualified-name="GMN32" data-source-line="78" id="ent0033"><path d="M747.8,43.4883 L747.8,98.0783 L712.82,102.0783 L747.8,106.0783 L747.8,160.6621 A0,0 0 0 0 747.8,160.6621 L1113.9538,160.6621 A0,0 0 0 0 1113.9538,160.6621 L1113.9538,53.4883 L1103.9538,43.4883 L747.8,43.4883 A0,0 0 0 0 747.8,43.4883" fill="#FEFFDD" style="stroke:#181818;stroke-width:0.5;"/><path d="M1103.9538,43.4883 L1103.9538,53.4883 L1113.9538,53.4883 L1103.9538,43.4883" fill="#FEFFDD" style="stroke:#181818;stroke-width:0.5;"/><text fill="#000000" font-family="sans-serif" font-size="13" lengthAdjust="spacing" textLength="345.1538" x="753.8" y="61.0566">ADDED in cycle 0010 (CMP-DEPLOY-VIEWER-SOURCE):</text><text fill="#000000" font-family="sans-serif" font-size="13" lengthAdjust="spacing" textLength="179.937" x="753.8" y="76.3672">Project::deploy_files() reuses</text><text fill="#000000" font-family="sans-serif" font-size="13" lengthAdjust="spacing" textLength="301.6343" x="753.8" y="91.6777">render_sources(RenderTree::Deploy), pairs each</text><text fill="#000000" font-family="sans-serif" font-size="13" lengthAdjust="spacing" textLength="322.0166" x="753.8" y="106.9883">.mdd/deploy/**/*.puml with its rendered SVG, and</text><text fill="#000000" font-family="sans-serif" font-size="13" lengthAdjust="spacing" textLength="298.8921" x="753.8" y="122.2988">the viewer lists it in a separate DEPLOY section.</text><text fill="#000000" font-family="sans-serif" font-size="13" lengthAdjust="spacing" textLength="329.8179" x="753.8" y="137.6094">NEVER folded into ModelRegistry, so validate/review</text><text fill="#000000" font-family="sans-serif" font-size="13" lengthAdjust="spacing" textLength="184.1646" x="753.8" y="152.9199">keep ignoring .mdd/deploy/.</text></g><!--link Dev to Viewer--><g class="link" data-entity-1="ent0002" data-entity-2="ent0003" data-link-type="dependency" data-source-line="60" id="lnk17"><path d="M158.72,140.6183 C154.15,165.3783 152.4,197.7283 165.88,222.6583 C172.04,234.0683 176.3883,240.0642 186.5283,248.4142" fill="none" id="Dev-to-Viewer" style="stroke:#181818;stroke-width:1;"/><polygon fill="#181818" points="191.16,252.2283,186.7552,243.4193,187.3002,249.0499,181.6697,249.595,191.16,252.2283" style="stroke:#181818;stroke-width:1;"/><text fill="#000000" font-family="sans-serif" font-size="13" lengthAdjust="spacing" textLength="60.3599" x="166.88" y="211.7266">mdd view</text></g><!--link Viewer to MReg--><g class="link" data-entity-1="ent0003" data-entity-2="ent0004" data-link-type="dependency" data-source-line="61" id="lnk18"><path d="M229.86,332.3583 C220.18,341.9183 210.01,352.2483 200.88,362.1283 C187.05,377.0783 176.2188,389.7623 164.3388,404.2223" fill="none" id="Viewer-to-MReg" style="stroke:#181818;stroke-width:1;"/><polygon fill="#181818" points="160.53,408.8583,169.334,404.4435,163.704,404.9949,163.1526,399.365,160.53,408.8583" style="stroke:#181818;stroke-width:1;"/><text fill="#000000" font-family="sans-serif" font-size="13" lengthAdjust="spacing" textLength="120.9038" x="201.88" y="375.6966">load (1 of 3, gated)</text></g><!--link Viewer to CReg--><g class="link" data-entity-1="ent0003" data-entity-2="ent0005" data-link-type="dependency" data-source-line="62" id="lnk19"><path d="M302.77,332.5783 C324.8,359.6483 349.5333,390.0341 367.8233,412.5141" fill="none" id="Viewer-to-CReg" style="stroke:#181818;stroke-width:1;"/><polygon fill="#181818" points="371.61,417.1683,369.0328,407.6626,368.4544,413.2898,362.8272,412.7115,371.61,417.1683" style="stroke:#181818;stroke-width:1;"/><text fill="#000000" font-family="sans-serif" font-size="13" lengthAdjust="spacing" textLength="120.9038" x="338.5" y="375.6966">load (2 of 3, gated)</text></g><!--link Viewer to DepSrc--><g class="link" data-entity-1="ent0003" data-entity-2="ent0006" data-link-type="dependency" data-source-line="63" id="lnk20"><path d="M351.46,282.6283 C431.74,272.3383 547.71,252.7583 580.88,222.6583 C603.44,202.1883 612.0846,174.4496 616.1146,148.0496" fill="none" id="Viewer-to-DepSrc" style="stroke:#181818;stroke-width:1;"/><polygon fill="#181818" points="617.02,142.1183,611.7077,150.4116,616.2655,147.061,619.6161,151.6188,617.02,142.1183" style="stroke:#181818;stroke-width:1;"/><text fill="#000000" font-family="sans-serif" font-size="13" lengthAdjust="spacing" textLength="152.9404" x="603.34" y="211.7266">load (3 of 3, NOT gated)</text></g><!--link DepSrc to Viewer--><g class="link" data-entity-1="ent0006" data-entity-2="ent0003" data-link-type="dependency" data-source-line="69" id="lnk26"><path d="M527.04,113.0183 C432.71,125.2683 296.03,149.6483 263.88,190.6583 C250.47,207.7683 250.3063,226.1 255.1363,246.48" fill="none" id="DepSrc-to-Viewer" style="stroke:#181818;stroke-width:1;stroke-dasharray:7,7;"/><polygon fill="#181818" points="256.52,252.3183,258.3367,242.6384,255.367,247.453,250.5523,244.4833,256.52,252.3183" style="stroke:#181818;stroke-width:1;"/><text fill="#000000" font-family="sans-serif" font-size="13" lengthAdjust="spacing" textLength="230.5723" x="303.4103" y="204.2266">Vec&lt;ModelFile&gt; -&gt; self.deploy_files</text><text fill="#000000" font-family="sans-serif" font-size="13" lengthAdjust="spacing" textLength="307.6328" x="264.88" y="219.5372">-&gt; separate DEPLOY tree (NOT in ModelRegistry)</text></g><!--link MReg to Models--><g class="link" data-entity-1="ent0004" data-entity-2="ent0009" data-link-type="dependency" data-source-line="64" id="lnk21"><path d="M132.13,472.2283 C128.48,501.9483 123.6805,562.0529 119.8705,593.1129" fill="none" id="MReg-to-Models" style="stroke:#181818;stroke-width:1;"/><polygon fill="#181818" points="119.14,599.0683,124.206,590.6223,119.7488,594.1055,116.2655,589.6482,119.14,599.0683" style="stroke:#181818;stroke-width:1;"/><text fill="#000000" font-family="sans-serif" font-size="13" lengthAdjust="spacing" textLength="48.4707" x="128.88" y="515.6766">WalkDir</text></g><!--link MReg to Ocl--><g class="link" data-entity-1="ent0004" data-entity-2="ent0010" data-link-type="dependency" data-source-line="65" id="lnk22"><path d="M166.63,472.2283 C196.49,501.9483 237.4972,542.7759 268.7072,573.8359" fill="none" id="MReg-to-Ocl" style="stroke:#181818;stroke-width:1;"/><polygon fill="#181818" points="272.96,578.0683,269.4023,568.8844,269.416,574.5413,263.7591,574.5549,272.96,578.0683" style="stroke:#181818;stroke-width:1;"/><text fill="#000000" font-family="sans-serif" font-size="13" lengthAdjust="spacing" textLength="48.4707" x="212.58" y="515.6766">WalkDir</text></g><!--link CReg to Cycles--><g class="link" data-entity-1="ent0005" data-entity-2="ent0011" data-link-type="dependency" data-source-line="66" id="lnk23"><path d="M382.65,464.3583 C378.85,480.7783 376.83,502.8383 386.88,519.1083 C391.06,525.8683 396.05,523.0283 402.88,527.1083 C428.78,542.5583 451.5169,579.1605 473.8969,595.4305" fill="none" id="CReg-to-Cycles" style="stroke:#181818;stroke-width:1;"/><polygon fill="#181818" points="478.75,598.9587,473.8225,590.4311,474.7058,596.0186,469.1183,596.9019,478.75,598.9587" style="stroke:#181818;stroke-width:1;"/><text fill="#000000" font-family="sans-serif" font-size="13" lengthAdjust="spacing" textLength="93.9263" x="387.88" y="515.6766">scan manifests</text></g><!--link DepSrc to RT--><g class="link" data-entity-1="ent0006" data-entity-2="ent0007" data-link-type="dependency" data-source-line="67" id="lnk24"><path d="M697.2,142.2283 C726.5,158.6183 754.97,176.9983 763.88,190.6583 C808.07,258.3983 806.1163,352.7151 801.3663,402.8151" fill="none" id="DepSrc-to-RT" style="stroke:#181818;stroke-width:1;"/><polygon fill="#181818" points="800.8,408.7883,805.6316,400.206,801.2719,403.8106,797.6673,399.4509,800.8,408.7883" style="stroke:#181818;stroke-width:1;"/><text fill="#000000" font-family="sans-serif" font-size="13" lengthAdjust="spacing" textLength="148.5542" x="803.56" y="297.4666">render_sources(Deploy)</text></g><!--link RT to Deploy--><g class="link" data-entity-1="ent0007" data-entity-2="ent0013" data-link-type="dependency" data-source-line="68" id="lnk25"><path d="M806.36,472.2283 C814.75,499.3483 825.3265,554.5164 834.7265,584.8964" fill="none" id="RT-to-Deploy" style="stroke:#181818;stroke-width:1;"/><polygon fill="#181818" points="836.5,590.6283,837.661,580.8481,835.0221,585.8517,830.0184,583.2128,836.5,590.6283" style="stroke:#181818;stroke-width:1;"/><text fill="#000000" font-family="sans-serif" font-size="13" lengthAdjust="spacing" textLength="219.3496" x="821.21" y="515.6766">walk_suffix (single source of truth)</text></g><!--link RT to Models--><g class="link" data-entity-1="ent0007" data-entity-2="ent0009" data-link-type="dependency" data-source-line="71" id="lnk27"><path d="M686.93,458.2383 C634.75,467.9483 572.1,482.2583 517.88,502.1083 C502.76,507.6383 501.45,514.9783 485.88,519.1083 C456.54,526.8683 241.13,516.0183 212.88,527.1083 C185.95,537.6783 165.5727,575.749 147.8027,594.539" fill="none" id="RT-to-Models" style="stroke:#181818;stroke-width:1;stroke-dasharray:7,7;"/><polygon fill="#181818" points="143.68,598.8983,152.7702,595.1078,147.1156,595.2655,146.9578,589.6109,143.68,598.8983" style="stroke:#181818;stroke-width:1;"/><text fill="#000000" font-family="sans-serif" font-size="13" lengthAdjust="spacing" textLength="44.9922" x="518.88" y="515.6766">Models</text></g><!--link RT to Cycles--><g class="link" data-entity-1="ent0007" data-entity-2="ent0011" data-link-type="dependency" data-source-line="72" id="lnk28"><path d="M764.62,472.2283 C747.84,487.3183 726.55,505.2183 705.88,519.1083 C695.42,526.1383 645.8699,572.662 599.2499,596.332" fill="none" id="RT-to-Cycles" style="stroke:#181818;stroke-width:1;stroke-dasharray:7,7;"/><polygon fill="#181818" points="593.9,599.0483,603.7358,598.5405,598.3583,596.7847,600.1141,591.4072,593.9,599.0483" style="stroke:#181818;stroke-width:1;"/><text fill="#000000" font-family="sans-serif" font-size="13" lengthAdjust="spacing" textLength="63.1274" x="728.06" y="515.6766">CycleDiffs</text></g><!--link RT to Ocl--><g class="link" data-entity-1="ent0007" data-entity-2="ent0010" data-link-type="dependency" data-source-line="73" id="lnk29"><path d="M686.91,472.2283 C659.44,480.9183 630.28,491.0683 603.88,502.1083 C589.02,508.3183 587.41,514.8383 571.88,519.1083 C535.84,528.9983 438.47,512.9583 403.88,527.1083 C377.41,537.9283 357.4923,575.9712 340.1123,594.6912" fill="none" id="RT-to-Ocl" style="stroke:#181818;stroke-width:1;stroke-dasharray:7,7;"/><polygon fill="#181818" points="336.03,599.0883,345.0849,595.2142,339.432,595.424,339.2221,589.7711,336.03,599.0883" style="stroke:#181818;stroke-width:1;"/><text fill="#000000" font-family="sans-serif" font-size="13" lengthAdjust="spacing" textLength="92.8662" x="604.88" y="515.6766">OclConstraints</text></g><!--link RT to Map--><g class="link" data-entity-1="ent0007" data-entity-2="ent0015" data-link-type="dependency" data-source-line="74" id="lnk30"><path d="M906.66,460.6283 C951.67,470.2883 1003.7,483.9083 1048.88,502.1083 C1098.62,522.1283 1145.888,550.3899 1182.828,574.6999" fill="none" id="RT-to-Map" style="stroke:#181818;stroke-width:1;stroke-dasharray:7,7;"/><polygon fill="#181818" points="1187.84,577.9983,1182.5209,569.7093,1183.6633,575.2496,1178.123,576.392,1187.84,577.9983" style="stroke:#181818;stroke-width:1;"/><text fill="#000000" font-family="sans-serif" font-size="13" lengthAdjust="spacing" textLength="64.7334" x="1082.57" y="515.6766">WholeMap</text></g><!--link RT to ReviewD--><g class="link" data-entity-1="ent0007" data-entity-2="ent0016" data-link-type="dependency" data-source-line="75" id="lnk31"><path d="M906.79,443.2983 C1019.64,448.5583 1198.3,466.8083 1339.88,527.1083 C1368.2,539.1683 1391.2756,576.959 1412.1056,595.009" fill="none" id="RT-to-ReviewD" style="stroke:#181818;stroke-width:1;stroke-dasharray:7,7;"/><polygon fill="#181818" points="1416.64,598.9383,1412.4579,590.0215,1412.8613,595.6639,1407.2189,596.0674,1416.64,598.9383" style="stroke:#181818;stroke-width:1;"/><text fill="#000000" font-family="sans-serif" font-size="13" lengthAdjust="spacing" textLength="66.2632" x="1313.49" y="515.6766">ReviewDiff</text></g><?plantuml-src jLRDRkCs4BxhAGREeN8QAKaNAB1247HNaXSB976WE5u4293bYhJDXYO5aexhBGhq8VeklVTH-YGTafAjTJQtvYB8d1_EVFDz8vj7BXkYoH9MXjN4CFWz0dXFwiUvLYj9SoMKFZiZb39wVWu7Rq_Aykt9zrmqMwgdu3GQlVyvFut-YCmsUos8CQ-LMoqR9PcqhvJVM69V2nVDQalaNBnMVb9RfLyfDpujhtb3_cVaVu1VE8tpo-ja-h7yL5R9JVxk2X_ZwtBOCrwEY_8YgSeF7sycrPrtwflpk_oYVDbSbLS5ffvKPPdSb9E-gIYlByPtsyl7jrLU3W5s_TW5Dr1lQfnQV79oUkA2S__J_GBAPpE8wvNMZfE6KpRC00aAJB2bE_9vZa2winQ0DBBSOe8bfSaJPskcmTH4uaCr3FxvkxtkUVvX58KP3mhsn0Hwwm4G0_WhYdRA6EmItyjBIgV-DSiaMyV3UnaBDhEW2HT37ntC_VXhhNv5hcRPKb4c7ZIRSsFrnWKdvn0EYQGFjP9uJhYq3pCkc8b3mikApVlfF5nLcoJBNA-jPxxdkRsOiaQeJPSLQyOnQ0f6hNJDXctJpOskTvFgvwcOf4nFD6DWcCLmH0JHTuVOkB5Cyw_4SYL3gceIHJjn3gw9vdQJp74JO9HIrY0B6BIZMXFnQ0PmK1GZhuIP4Yxj8CKxZZqsvlXUTepu4TGNrn9_OW4Rxx0VjWFInHwcgXRUUroBPwuEJETrTdL-l2IIpvYnwMOfy2f75XE0zLwehtvVjvOBR0oim-NVF_z2Kgw1orvpHxZ_k10mlfs0cdb3uy401uPhUbGyRpeC2qiYNrUQ9TYCnLQOJaZJc6FAoHmtIDgibiBpnyU4OR1jyE7XyM5gdkRTQF5ihtetJOFI4Xlul1ldv-qyqHXBrKt9ECpzV0z6nNTgNf862rulb609liCN_1mAB3eCYJJx_jjwDNCt-2avk7rRWKJUKBYgKO-GOAT1MP0vfVl2elR46PrAq2GKeH2VEhZV77cOwR3lblVTVdhHhLL3v_YcTRmQJpfdVv-_s5CGNJyXamkkTnQaM-yuxuu3cT3YjrJ7EHErTpgNQeBcWD534Ac9mnI74ThQ2l4dkZa1FPZLRCP_WzXmFzqGupcdLtOnx7AdQG_5AQlFVF4ZN0ldW3bnPhEqloiymGnptopyZ8Vb7lWUEoYGx3v1junmeM9rxf8jAAr0s-Djw_wbSFhgJ04iVEOxyMwp8QCGICSknwNsj6K8MjetJ1T5Kc6bciyNrhKV-aRslIkAid05zpu6Bt-nCenuONdYMF3ldbivU_FPBSaiQsTrX7BdsW0ZzG83-khs0dLaXpMt2-2u53jDmCtqmn7W1m53UejI8CG67LqJvDbGMe6c67DLJiigo8sYirNV3WcN4igQ24unlDKVHZqorW2VIwMHGj-KcaPO63XS_mC0?></g></svg>