<svg xmlns="http://www.w3.org/2000/svg" xmlns:xlink="http://www.w3.org/1999/xlink" contentStyleType="text/css" data-diagram-type="CLASS" height="365px" preserveAspectRatio="none" style="width:555px;height:365px;background:#FFFFFF;" version="1.1" viewBox="0 0 555 365" width="555px" zoomAndPan="magnify"><?plantuml 1.2026.3?><defs/><g><g class="title" data-source-line="9"><text fill="#000000" font-family="sans-serif" font-size="14" font-weight="700" lengthAdjust="spacing" textLength="446.8105" x="50.9603" y="23.5352">Agent session bootstrap &#8212; domain &#183; cycle 0014 diff (current)</text></g><!--class SessionContext--><g class="entity" data-qualified-name="SessionContext" data-source-line="11" id="ent0002"><rect fill="#90EE90" height="122.5742" rx="2.5" ry="2.5" style="stroke:#181818;stroke-width:0.5;" width="224.7754" x="77.67" y="44.4883"/><ellipse cx="133.4171" cy="64.7988" fill="#ADD1B2" rx="11" ry="11" style="stroke:#181818;stroke-width:1;"/><path d="M135.8902,70.9419 Q135.3092,71.2407 134.67,71.3901 Q134.0308,71.5396 133.3253,71.5396 Q130.8184,71.5396 129.4986,69.8877 Q128.1788,68.2358 128.1788,65.1147 Q128.1788,61.9854 129.4986,60.3335 Q130.8184,58.6816 133.3253,58.6816 Q134.0308,58.6816 134.6783,58.8311 Q135.3258,58.9805 135.8902,59.2793 L135.8902,62.002 Q135.2594,61.4209 134.6658,61.1511 Q134.0723,60.8813 133.4415,60.8813 Q132.0968,60.8813 131.4119,61.948 Q130.7271,63.0146 130.7271,65.1147 Q130.7271,67.2065 131.4119,68.2732 Q132.0968,69.3398 133.4415,69.3398 Q134.0723,69.3398 134.6658,69.0701 Q135.2594,68.8003 135.8902,68.2192 Z " fill="#000000"/><text fill="#000000" font-family="sans-serif" font-size="12" font-style="italic" lengthAdjust="spacing" textLength="48.5449" x="182.0352" y="61.0898">&#171;added&#187;</text><text fill="#000000" font-family="sans-serif" font-size="14" lengthAdjust="spacing" textLength="104.7813" x="153.9171" y="77.1563">SessionContext</text><line style="stroke:#181818;stroke-width:0.5;" x1="78.67" x2="301.4454" y1="85.1094" y2="85.1094"/><g data-visibility-modifier="PUBLIC_FIELD"><ellipse cx="88.67" cy="98.8535" fill="none" rx="3" ry="3" style="stroke:#038048;stroke-width:1;"/></g><text fill="#000000" font-family="sans-serif" font-size="14" lengthAdjust="spacing" textLength="102.5801" x="97.67" y="102.6445">toc : TocEntry[]</text><g data-visibility-modifier="PUBLIC_FIELD"><ellipse cx="88.67" cy="115.3418" fill="none" rx="3" ry="3" style="stroke:#038048;stroke-width:1;"/></g><text fill="#000000" font-family="sans-serif" font-size="14" lengthAdjust="spacing" textLength="102.0674" x="97.67" y="119.1328">fresh : boolean</text><g data-visibility-modifier="PUBLIC_FIELD"><ellipse cx="88.67" cy="131.8301" fill="none" rx="3" ry="3" style="stroke:#038048;stroke-width:1;"/></g><text fill="#000000" font-family="sans-serif" font-size="14" lengthAdjust="spacing" textLength="198.7754" x="97.67" y="135.6211">source_revision : String [0..1]</text><g data-visibility-modifier="PUBLIC_FIELD"><ellipse cx="88.67" cy="148.3184" fill="none" rx="3" ry="3" style="stroke:#038048;stroke-width:1;"/></g><text fill="#000000" font-family="sans-serif" font-size="14" lengthAdjust="spacing" textLength="110.6123" x="97.67" y="152.1094">drift : MapDrift[]</text><line style="stroke:#181818;stroke-width:0.5;" x1="78.67" x2="301.4454" y1="159.0625" y2="159.0625"/></g><!--class TocEntry--><g class="entity" data-qualified-name="TocEntry" data-source-line="18" id="ent0003"><rect fill="#90EE90" height="106.0859" rx="2.5" ry="2.5" style="stroke:#181818;stroke-width:0.5;" width="156.1221" x="7" y="244.0583"/><ellipse cx="51.2245" cy="264.3688" fill="#ADD1B2" rx="11" ry="11" style="stroke:#181818;stroke-width:1;"/><path d="M53.6977,270.5119 Q53.1166,270.8107 52.4774,270.9601 Q51.8383,271.1096 51.1327,271.1096 Q48.6259,271.1096 47.3061,269.4577 Q45.9862,267.8058 45.9862,264.6847 Q45.9862,261.5554 47.3061,259.9035 Q48.6259,258.2516 51.1327,258.2516 Q51.8383,258.2516 52.4857,258.4011 Q53.1332,258.5505 53.6977,258.8493 L53.6977,261.572 Q53.0668,260.9909 52.4733,260.7211 Q51.8798,260.4513 51.2489,260.4513 Q49.9042,260.4513 49.2194,261.518 Q48.5346,262.5846 48.5346,264.6847 Q48.5346,266.7765 49.2194,267.8432 Q49.9042,268.9098 51.2489,268.9098 Q51.8798,268.9098 52.4733,268.6401 Q53.0668,268.3703 53.6977,267.7892 Z " fill="#000000"/><text fill="#000000" font-family="sans-serif" font-size="12" font-style="italic" lengthAdjust="spacing" textLength="48.5449" x="77.0357" y="260.6598">&#171;added&#187;</text><text fill="#000000" font-family="sans-serif" font-size="14" lengthAdjust="spacing" textLength="59.1787" x="71.7188" y="276.7263">TocEntry</text><line style="stroke:#181818;stroke-width:0.5;" x1="8" x2="162.1221" y1="284.6794" y2="284.6794"/><g data-visibility-modifier="PUBLIC_FIELD"><ellipse cx="18" cy="298.4235" fill="none" rx="3" ry="3" style="stroke:#038048;stroke-width:1;"/></g><text fill="#000000" font-family="sans-serif" font-size="14" lengthAdjust="spacing" textLength="82.9883" x="27" y="302.2145">kind : String</text><g data-visibility-modifier="PUBLIC_FIELD"><ellipse cx="18" cy="314.9118" fill="none" rx="3" ry="3" style="stroke:#038048;stroke-width:1;"/></g><text fill="#000000" font-family="sans-serif" font-size="14" lengthAdjust="spacing" textLength="130.1221" x="27" y="318.7028">concept_count : int</text><g data-visibility-modifier="PUBLIC_FIELD"><ellipse cx="18" cy="331.4001" fill="none" rx="3" ry="3" style="stroke:#038048;stroke-width:1;"/></g><text fill="#000000" font-family="sans-serif" font-size="14" lengthAdjust="spacing" textLength="89.5029" x="27" y="335.1911">id_count : int</text><line style="stroke:#181818;stroke-width:0.5;" x1="8" x2="162.1221" y1="342.1442" y2="342.1442"/></g><!--class MapBaseline--><g class="entity" data-qualified-name="MapBaseline" data-source-line="24" id="ent0004"><rect fill="#90EE90" height="89.5977" rx="2.5" ry="2.5" style="stroke:#181818;stroke-width:0.5;" width="193.2686" x="198.43" y="252.3083"/><ellipse cx="248.8621" cy="272.6188" fill="#ADD1B2" rx="11" ry="11" style="stroke:#181818;stroke-width:1;"/><path d="M251.3353,278.7619 Q250.7542,279.0607 250.1151,279.2101 Q249.4759,279.3596 248.7703,279.3596 Q246.2635,279.3596 244.9437,277.7077 Q243.6238,276.0558 243.6238,272.9347 Q243.6238,269.8054 244.9437,268.1535 Q246.2635,266.5016 248.7703,266.5016 Q249.4759,266.5016 250.1234,266.6511 Q250.7708,266.8005 251.3353,267.0993 L251.3353,269.822 Q250.7044,269.2409 250.1109,268.9711 Q249.5174,268.7013 248.8865,268.7013 Q247.5418,268.7013 246.857,269.768 Q246.1722,270.8346 246.1722,272.9347 Q246.1722,275.0265 246.857,276.0932 Q247.5418,277.1598 248.8865,277.1598 Q249.5174,277.1598 250.1109,276.8901 Q250.7044,276.6203 251.3353,276.0392 Z " fill="#000000"/><text fill="#000000" font-family="sans-serif" font-size="12" font-style="italic" lengthAdjust="spacing" textLength="48.5449" x="287.0418" y="268.9098">&#171;added&#187;</text><text fill="#000000" font-family="sans-serif" font-size="14" lengthAdjust="spacing" textLength="83.9043" x="269.3621" y="284.9763">MapBaseline</text><line style="stroke:#181818;stroke-width:0.5;" x1="199.43" x2="390.6986" y1="292.9294" y2="292.9294"/><g data-visibility-modifier="PUBLIC_FIELD"><ellipse cx="209.43" cy="306.6735" fill="none" rx="3" ry="3" style="stroke:#038048;stroke-width:1;"/></g><text fill="#000000" font-family="sans-serif" font-size="14" lengthAdjust="spacing" textLength="159.5508" x="218.43" y="310.4645">explicit : Revision [0..1]</text><line style="stroke:#181818;stroke-width:0.5;" x1="199.43" x2="390.6986" y1="317.4177" y2="317.4177"/><g data-visibility-modifier="PUBLIC_METHOD"><ellipse cx="209.43" cy="331.1618" fill="#84BE84" rx="3" ry="3" style="stroke:#038048;stroke-width:1;"/></g><text fill="#000000" font-family="sans-serif" font-size="14" lengthAdjust="spacing" textLength="167.2686" x="218.43" y="334.9528">resolve() : Revision [0..1]</text></g><!--class SessionHook--><g class="entity" data-qualified-name="SessionHook" data-source-line="29" id="ent0005"><rect fill="#90EE90" height="106.0859" rx="2.5" ry="2.5" style="stroke:#181818;stroke-width:0.5;" width="203.3311" x="337.4" y="52.7283"/><ellipse cx="391.5064" cy="73.0388" fill="#ADD1B2" rx="11" ry="11" style="stroke:#181818;stroke-width:1;"/><path d="M393.9796,79.1819 Q393.3985,79.4807 392.7594,79.6301 Q392.1202,79.7796 391.4146,79.7796 Q388.9078,79.7796 387.588,78.1277 Q386.2682,76.4758 386.2682,73.3547 Q386.2682,70.2254 387.588,68.5735 Q388.9078,66.9216 391.4146,66.9216 Q392.1202,66.9216 392.7677,67.0711 Q393.4151,67.2205 393.9796,67.5193 L393.9796,70.242 Q393.3487,69.6609 392.7552,69.3911 Q392.1617,69.1213 391.5309,69.1213 Q390.1861,69.1213 389.5013,70.188 Q388.8165,71.2546 388.8165,73.3547 Q388.8165,75.4465 389.5013,76.5132 Q390.1861,77.5798 391.5309,77.5798 Q392.1617,77.5798 392.7552,77.3101 Q393.3487,77.0403 393.9796,76.4592 Z " fill="#000000"/><text fill="#000000" font-family="sans-serif" font-size="12" font-style="italic" lengthAdjust="spacing" textLength="48.5449" x="431.0431" y="69.3298">&#171;added&#187;</text><text fill="#000000" font-family="sans-serif" font-size="14" lengthAdjust="spacing" textLength="86.6182" x="412.0064" y="85.3963">SessionHook</text><line style="stroke:#181818;stroke-width:0.5;" x1="338.4" x2="539.7311" y1="93.3494" y2="93.3494"/><g data-visibility-modifier="PUBLIC_FIELD"><ellipse cx="348.4" cy="107.0935" fill="none" rx="3" ry="3" style="stroke:#038048;stroke-width:1;"/></g><text fill="#000000" font-family="sans-serif" font-size="14" lengthAdjust="spacing" textLength="142.9395" x="357.4" y="110.8845">event : "SessionStart"</text><g data-visibility-modifier="PUBLIC_FIELD"><ellipse cx="348.4" cy="123.5818" fill="none" rx="3" ry="3" style="stroke:#038048;stroke-width:1;"/></g><text fill="#000000" font-family="sans-serif" font-size="14" lengthAdjust="spacing" textLength="120.0527" x="357.4" y="127.3728">type : "command"</text><g data-visibility-modifier="PUBLIC_FIELD"><ellipse cx="348.4" cy="140.0701" fill="none" rx="3" ry="3" style="stroke:#038048;stroke-width:1;"/></g><text fill="#000000" font-family="sans-serif" font-size="14" lengthAdjust="spacing" textLength="177.3311" x="357.4" y="143.8611">command : "mdd context"</text><line style="stroke:#181818;stroke-width:0.5;" x1="338.4" x2="539.7311" y1="150.8142" y2="150.8142"/></g><!--reverse link SessionContext to TocEntry--><g class="link" data-entity-1="ent0002" data-entity-2="ent0003" data-link-type="aggregation" data-source-line="35" id="lnk6"><path codeLine="35" d="M150.5903,177.9526 C136.9703,202.5126 127.22,220.0783 114.11,243.7183" fill="none" id="SessionContext-backto-TocEntry" style="stroke:#181818;stroke-width:1;"/><polygon fill="none" points="156.41,167.4583,150.002,170.7655,150.5903,177.9526,156.9982,174.6454,156.41,167.4583" style="stroke:#181818;stroke-width:1;"/><text fill="#000000" font-family="sans-serif" font-size="13" lengthAdjust="spacing" textLength="8.2202" x="144.3043" y="187.6105">1</text><text fill="#000000" font-family="sans-serif" font-size="13" lengthAdjust="spacing" textLength="6.2651" x="111.6281" y="233.1264">*</text></g><!--link SessionContext to MapBaseline--><g class="link" data-entity-1="ent0002" data-entity-2="ent0004" data-link-type="dependency" data-source-line="36" id="lnk7"><path codeLine="36" d="M223.72,167.4583 C238.95,194.9383 253.7197,221.5614 267.6697,246.7114" fill="none" id="SessionContext-to-MapBaseline" style="stroke:#181818;stroke-width:1;stroke-dasharray:7,7;"/><polygon fill="#181818" points="270.58,251.9583,269.7125,242.1477,268.1547,247.5859,262.7166,246.0281,270.58,251.9583" style="stroke:#181818;stroke-width:1;"/><text fill="#000000" font-family="sans-serif" font-size="13" lengthAdjust="spacing" textLength="158.7168" x="249.85" y="210.6266">freshness via map_status</text></g><?plantuml-src ZLB1Yjim4BtxAmRtqAJ5ne5IsB249bulkxI9Ivr3OIb1bSPP4Lioak9kM0BzYFvBx_sKVaabEKcpoHxsPhrvxysR6UiL5mrHf0PQ4QtXCG2O4BfQAhaMB9MLL9UNX35aen6ykaYox29vZgAmbcr7khwUl4y7mJPu3HyuwrtbqwZ8Yk8sdqLfFfjdN-Tz0FZlQkwv1hgX5K8lIGRl-aV2wVXpD1aNsQVRMUPKBnRkEzxa-SSN2LF_T2zWl2oXHzTAeJ2WESF-40J-02e5nSP0oItrxyzVGAeAiCBQyZHuzpWmtDZgUEcrg3MN0hvBQRHHfF4g9cl21VpvlSjmthGV1DqvYiuWbSBWWpaQmTtfBHX9OGXpIJDXrERkcmTBXVhUmhPfXKHuJCkrehXGs78VQ0Y5KLmiuIw9uq6dOugNnbQcfBbodzPkky-nRt6MmFu-xE3caTsI5jJ-7SwE2-Dnpfv01slRRa8qLbpWcJi-D1Mdt6c-xACV9RQ3ogh5Nl-P-lPaXJTIhixzM_I1mXsfC4IPi5ljfa5NeRAkYM3XRZR_S7ZDc1lLdILqpKuk5Gv2a544uPlmiBnJJXoFdam_x4udB0jQJg0cpK8ROjRw7m00?></g></svg>