<svg xmlns="http://www.w3.org/2000/svg" xmlns:xlink="http://www.w3.org/1999/xlink" contentStyleType="text/css" data-diagram-type="DESCRIPTION" height="614px" preserveAspectRatio="none" style="width:1522px;height:614px;background:#FFFFFF;" version="1.1" viewBox="0 0 1522 614" width="1522px" zoomAndPan="magnify"><?plantuml 1.2026.3?><defs/><g><g class="title" data-source-line="34"><text fill="#000000" font-family="sans-serif" font-size="14" font-weight="700" lengthAdjust="spacing" textLength="313.7627" x="601.1006" y="23.5352">mdd-viewer UI shell &#8212; ownership (current)</text></g><!--entity Dev--><g class="entity" data-qualified-name="Dev" data-source-line="36" id="ent0002"><ellipse cx="1002.4492" cy="69.9297" fill="#90EE90" rx="8" ry="8" style="stroke:#181818;stroke-width:0.5;"/><path d="M1002.4492,77.9297 L1002.4492,104.9297 M989.4492,85.9297 L1015.4492,85.9297 M1002.4492,104.9297 L989.4492,119.9297 M1002.4492,104.9297 L1015.4492,119.9297" fill="none" style="stroke:#181818;stroke-width:0.5;"/><text fill="#000000" font-family="sans-serif" font-size="14" lengthAdjust="spacing" textLength="68.3184" x="968.29" y="134.9648">Developer</text><text fill="#000000" font-family="sans-serif" font-size="14" font-style="italic" lengthAdjust="spacing" textLength="56.6357" x="974.1313" y="58.4766">&#171;added&#187;</text></g><!--entity Viewer--><g class="entity" data-qualified-name="Viewer" data-source-line="38" id="ent0003"><rect fill="#F1F1F1" height="79.4648" rx="2.5" ry="2.5" style="stroke:#181818;stroke-width:0.5;" width="132.5244" x="584.19" y="214.9214"/><rect fill="#F1F1F1" height="10" style="stroke:#181818;stroke-width:0.5;" width="15" x="696.7144" y="219.9214"/><rect fill="#F1F1F1" height="2" style="stroke:#181818;stroke-width:0.5;" width="4" x="694.7144" y="221.9214"/><rect fill="#F1F1F1" height="2" style="stroke:#181818;stroke-width:0.5;" width="4" x="694.7144" y="225.9214"/><text fill="#000000" font-family="sans-serif" font-size="14" lengthAdjust="spacing" textLength="74.9971" x="599.19" y="248.4566">MddViewer</text><text fill="#000000" font-family="sans-serif" font-size="14" lengthAdjust="spacing" textLength="92.5244" x="599.19" y="264.9448">(eframe::App)</text><text fill="#000000" font-family="sans-serif" font-size="14" lengthAdjust="spacing" textLength="56.1846" x="599.19" y="281.4331">update()</text></g><!--entity Left--><g class="entity" data-qualified-name="Left" data-source-line="39" id="ent0004"><rect fill="#F1F1F1" height="62.9766" rx="2.5" ry="2.5" style="stroke:#181818;stroke-width:0.5;" width="138.9023" x="7" y="379.6314"/><rect fill="#F1F1F1" height="10" style="stroke:#181818;stroke-width:0.5;" width="15" x="125.9023" y="384.6314"/><rect fill="#F1F1F1" height="2" style="stroke:#181818;stroke-width:0.5;" width="4" x="123.9023" y="386.6314"/><rect fill="#F1F1F1" height="2" style="stroke:#181818;stroke-width:0.5;" width="4" x="123.9023" y="390.6314"/><text fill="#000000" font-family="sans-serif" font-size="14" lengthAdjust="spacing" textLength="90.8633" x="22" y="413.1666">SidePanel left</text><text fill="#000000" font-family="sans-serif" font-size="14" lengthAdjust="spacing" textLength="98.9023" x="22" y="429.6548">\"rail\" / sliver</text></g><!--entity Right--><g class="entity" data-qualified-name="Right" data-source-line="40" id="ent0005"><rect fill="#F1F1F1" height="62.9766" rx="2.5" ry="2.5" style="stroke:#181818;stroke-width:0.5;" width="168.666" x="209.12" y="379.6314"/><rect fill="#F1F1F1" height="10" style="stroke:#181818;stroke-width:0.5;" width="15" x="357.786" y="384.6314"/><rect fill="#F1F1F1" height="2" style="stroke:#181818;stroke-width:0.5;" width="4" x="355.786" y="386.6314"/><rect fill="#F1F1F1" height="2" style="stroke:#181818;stroke-width:0.5;" width="4" x="355.786" y="390.6314"/><text fill="#000000" font-family="sans-serif" font-size="14" lengthAdjust="spacing" textLength="101.0625" x="224.12" y="413.1666">SidePanel right</text><text fill="#000000" font-family="sans-serif" font-size="14" lengthAdjust="spacing" textLength="128.666" x="224.12" y="429.6548">\"context\" / sliver</text></g><!--entity Toolbar--><g class="entity" data-qualified-name="Toolbar" data-source-line="41" id="ent0006"><rect fill="#F1F1F1" height="79.4648" rx="2.5" ry="2.5" style="stroke:#181818;stroke-width:0.5;" width="214.4736" x="445.21" y="371.3814"/><rect fill="#F1F1F1" height="10" style="stroke:#181818;stroke-width:0.5;" width="15" x="639.6836" y="376.3814"/><rect fill="#F1F1F1" height="2" style="stroke:#181818;stroke-width:0.5;" width="4" x="637.6836" y="378.3814"/><rect fill="#F1F1F1" height="2" style="stroke:#181818;stroke-width:0.5;" width="4" x="637.6836" y="382.3814"/><text fill="#000000" font-family="sans-serif" font-size="14" lengthAdjust="spacing" textLength="78.8662" x="460.21" y="404.9166">svg_toolbar</text><text fill="#000000" font-family="sans-serif" font-size="14" lengthAdjust="spacing" textLength="148.6816" x="460.21" y="421.4048">(PAGE selector + hint;</text><text fill="#000000" font-family="sans-serif" font-size="14" lengthAdjust="spacing" textLength="174.4736" x="460.21" y="437.8931">no Reset/Zoom+/Zoom-)</text></g><!--entity Fisheye--><g class="entity" data-qualified-name="Fisheye" data-source-line="42" id="ent0007"><rect fill="#F1F1F1" height="62.9766" rx="2.5" ry="2.5" style="stroke:#181818;stroke-width:0.5;" width="220.4961" x="694.2" y="379.6314"/><rect fill="#F1F1F1" height="10" style="stroke:#181818;stroke-width:0.5;" width="15" x="894.6961" y="384.6314"/><rect fill="#F1F1F1" height="2" style="stroke:#181818;stroke-width:0.5;" width="4" x="892.6961" y="386.6314"/><rect fill="#F1F1F1" height="2" style="stroke:#181818;stroke-width:0.5;" width="4" x="892.6961" y="390.6314"/><text fill="#000000" font-family="sans-serif" font-size="14" lengthAdjust="spacing" textLength="141.4902" x="709.2" y="413.1666">Fisheye canvas stage</text><text fill="#000000" font-family="sans-serif" font-size="14" lengthAdjust="spacing" textLength="180.4961" x="709.2" y="429.6548">CanvasView::fisheye_mesh</text></g><!--entity PL--><g class="entity" data-qualified-name="PL" data-source-line="43" id="ent0008"><rect fill="#F1F1F1" height="46.4883" rx="2.5" ry="2.5" style="stroke:#181818;stroke-width:0.5;" width="121.04" x="122.93" y="540.2214"/><rect fill="#F1F1F1" height="10" style="stroke:#181818;stroke-width:0.5;" width="15" x="223.97" y="545.2214"/><rect fill="#F1F1F1" height="2" style="stroke:#181818;stroke-width:0.5;" width="4" x="221.97" y="547.2214"/><rect fill="#F1F1F1" height="2" style="stroke:#181818;stroke-width:0.5;" width="4" x="221.97" y="551.2214"/><text fill="#000000" font-family="sans-serif" font-size="14" lengthAdjust="spacing" textLength="81.04" x="137.93" y="573.7566">PanelLayout</text></g><!--entity CV--><g class="entity" data-qualified-name="CV" data-source-line="44" id="ent0009"><rect fill="#F1F1F1" height="46.4883" rx="2.5" ry="2.5" style="stroke:#181818;stroke-width:0.5;" width="120.0078" x="598.45" y="540.2214"/><rect fill="#F1F1F1" height="10" style="stroke:#181818;stroke-width:0.5;" width="15" x="698.4578" y="545.2214"/><rect fill="#F1F1F1" height="2" style="stroke:#181818;stroke-width:0.5;" width="4" x="696.4578" y="547.2214"/><rect fill="#F1F1F1" height="2" style="stroke:#181818;stroke-width:0.5;" width="4" x="696.4578" y="551.2214"/><text fill="#000000" font-family="sans-serif" font-size="14" lengthAdjust="spacing" textLength="80.0078" x="613.45" y="573.7566">CanvasView</text></g><!--entity Egui--><g class="entity" data-qualified-name="Egui" data-source-line="45" id="ent0010"><rect fill="#F1F1F1" height="62.9766" rx="2.5" ry="2.5" style="stroke:#181818;stroke-width:0.5;" width="213.0586" x="1049.92" y="379.6314"/><rect fill="#F1F1F1" height="10" style="stroke:#181818;stroke-width:0.5;" width="15" x="1242.9786" y="384.6314"/><rect fill="#F1F1F1" height="2" style="stroke:#181818;stroke-width:0.5;" width="4" x="1240.9786" y="386.6314"/><rect fill="#F1F1F1" height="2" style="stroke:#181818;stroke-width:0.5;" width="4" x="1240.9786" y="390.6314"/><text fill="#000000" font-family="sans-serif" font-size="14" lengthAdjust="spacing" textLength="128.1602" x="1064.92" y="413.1666">eframe / egui 0.30</text><text fill="#000000" font-family="sans-serif" font-size="14" lengthAdjust="spacing" textLength="173.0586" x="1064.92" y="429.6548">painter.add(Shape::mesh)</text></g><g class="entity" data-qualified-name="GMN21" data-source-line="59" id="ent0022"><path d="M753.9,527.8514 L753.9,599.0936 L1147.006,599.0936 L1147.006,537.8514 L1137.006,527.8514 L753.9,527.8514" fill="#FEFFDD" style="stroke:#181818;stroke-width:0.5;"/><path d="M1137.006,527.8514 L1137.006,537.8514 L1147.006,537.8514 L1137.006,527.8514" fill="#FEFFDD" style="stroke:#181818;stroke-width:1;"/><text fill="#000000" font-family="sans-serif" font-size="13" lengthAdjust="spacing" textLength="340.0059" x="759.9" y="545.4198">The fisheye is a display-time stage on top of the base</text><text fill="#000000" font-family="sans-serif" font-size="13" lengthAdjust="spacing" textLength="362.9971" x="759.9" y="560.7303">zoom/pan placement; it does not change the render/font</text><text fill="#000000" font-family="sans-serif" font-size="13" lengthAdjust="spacing" textLength="372.106" x="759.9" y="576.0409">pipeline (CMP-VIEWER-RENDER-PIPELINE) &#8212; it only remaps</text><text fill="#000000" font-family="sans-serif" font-size="13" lengthAdjust="spacing" textLength="302.5293" x="759.9" y="591.3514">where the already-rasterized texture is painted.</text></g><!--link Dev to Viewer--><g class="link" data-entity-1="ent0002" data-entity-2="ent0003" data-link-type="dependency" data-source-line="47" id="lnk11"><path d="M968.06,108.1814 C910.02,134.7614 797.1249,186.4725 722.4249,220.6925" fill="none" id="Dev-to-Viewer" style="stroke:#181818;stroke-width:1;"/><polygon fill="#181818" points="716.97,223.1914,726.8182,223.0797,721.5157,221.109,723.4864,215.8065,716.97,223.1914" style="stroke:#181818;stroke-width:1;"/><text fill="#000000" font-family="sans-serif" font-size="13" lengthAdjust="spacing" textLength="60.3599" x="838.01" y="181.4898">mdd view</text></g><!--link Viewer to Left--><g class="link" data-entity-1="ent0003" data-entity-2="ent0004" data-link-type="dependency" data-source-line="48" id="lnk12"><path d="M583.79,255.3214 C454.26,256.0314 175.01,264.6714 103.45,324.3814 C87.4,337.7814 81.6021,354.7022 78.9121,373.4522" fill="none" id="Viewer-to-Left" style="stroke:#181818;stroke-width:1;"/><polygon fill="#181818" points="78.06,379.3914,83.2976,371.0507,78.7701,374.4421,75.3787,369.9146,78.06,379.3914" style="stroke:#181818;stroke-width:1;"/><text fill="#000000" font-family="sans-serif" font-size="13" lengthAdjust="spacing" textLength="203.3091" x="104.45" y="337.9498">draw + collapse chevron / sliver</text></g><!--link Viewer to Right--><g class="link" data-entity-1="ent0003" data-entity-2="ent0005" data-link-type="dependency" data-source-line="49" id="lnk13"><path d="M583.94,262.8514 C502.17,272.8814 369.52,293.4114 331.45,324.3814 C314.65,338.0514 306.7082,354.8851 301.3682,373.4551" fill="none" id="Viewer-to-Right" style="stroke:#181818;stroke-width:1;"/><polygon fill="#181818" points="299.71,379.2214,306.0415,371.6774,301.0918,374.4161,298.353,369.4665,299.71,379.2214" style="stroke:#181818;stroke-width:1;"/><text fill="#000000" font-family="sans-serif" font-size="13" lengthAdjust="spacing" textLength="203.3091" x="332.45" y="337.9498">draw + collapse chevron / sliver</text></g><!--link Left to PL--><g class="link" data-entity-1="ent0004" data-entity-2="ent0008" data-link-type="dependency" data-source-line="50" id="lnk14"><path d="M98.36,442.9014 C118.91,471.7714 145.6515,509.3526 164.0015,535.1426" fill="none" id="Left-to-PL" style="stroke:#181818;stroke-width:1;"/><polygon fill="#181818" points="167.48,540.0314,165.5215,530.3792,164.5813,535.9574,159.0031,535.0172,167.48,540.0314" style="stroke:#181818;stroke-width:1;"/><text fill="#000000" font-family="sans-serif" font-size="13" lengthAdjust="spacing" textLength="75.6577" x="137.36" y="494.4198">toggle_left()</text></g><!--link Right to PL--><g class="link" data-entity-1="ent0005" data-entity-2="ent0008" data-link-type="dependency" data-source-line="51" id="lnk15"><path d="M270.93,442.9014 C249.81,471.7714 222.2717,509.3983 203.4117,535.1883" fill="none" id="Right-to-PL" style="stroke:#181818;stroke-width:1;"/><polygon fill="#181818" points="199.87,540.0314,208.4114,535.1279,202.8215,535.9955,201.9539,530.4055,199.87,540.0314" style="stroke:#181818;stroke-width:1;"/><text fill="#000000" font-family="sans-serif" font-size="13" lengthAdjust="spacing" textLength="85.1284" x="242.75" y="494.4198">toggle_right()</text></g><!--link Viewer to Toolbar--><g class="link" data-entity-1="ent0003" data-entity-2="ent0006" data-link-type="dependency" data-source-line="52" id="lnk16"><path d="M583.87,287.3614 C570.06,297.2014 557.34,309.4814 549.45,324.3814 C542,338.4714 540.6357,349.7983 542.3457,365.1483" fill="none" id="Viewer-to-Toolbar" style="stroke:#181818;stroke-width:1;"/><polygon fill="#181818" points="543.01,371.1114,545.989,361.7239,542.4564,366.1421,538.0381,362.6096,543.01,371.1114" style="stroke:#181818;stroke-width:1;"/><text fill="#000000" font-family="sans-serif" font-size="13" lengthAdjust="spacing" textLength="154.3687" x="550.45" y="337.9498">draw (no zoom controls)</text></g><!--link Viewer to Fisheye--><g class="link" data-entity-1="ent0003" data-entity-2="ent0007" data-link-type="dependency" data-source-line="53" id="lnk17"><path d="M689.31,294.6314 C715.51,320.9014 745.3435,350.8327 769.6135,375.1727" fill="none" id="Viewer-to-Fisheye" style="stroke:#181818;stroke-width:1;"/><polygon fill="#181818" points="773.85,379.4214,770.3277,370.2239,770.3196,375.8808,764.6627,375.8726,773.85,379.4214" style="stroke:#181818;stroke-width:1;"/><text fill="#000000" font-family="sans-serif" font-size="13" lengthAdjust="spacing" textLength="206.9209" x="733.07" y="337.9498">warp rendered texture per frame</text></g><!--link Fisheye to CV--><g class="link" data-entity-1="ent0007" data-entity-2="ent0009" data-link-type="dependency" data-source-line="54" id="lnk18"><path d="M732.72,443.0114 C715.72,453.0614 698.93,465.6314 686.45,480.8514 C672.49,497.8814 666.5176,516.3801 662.9476,534.0601" fill="none" id="Fisheye-to-CV" style="stroke:#181818;stroke-width:1;"/><polygon fill="#181818" points="661.76,539.9414,667.4622,531.9112,662.7496,535.0403,659.6205,530.3277,661.76,539.9414" style="stroke:#181818;stroke-width:1;"/><text fill="#000000" font-family="sans-serif" font-size="13" lengthAdjust="spacing" textLength="236.209" x="687.45" y="494.4198">focal=centre, strength, radius, warp()</text></g><!--link Viewer to Egui--><g class="link" data-entity-1="ent0003" data-entity-2="ent0010" data-link-type="dependency" data-source-line="55" id="lnk19"><path d="M716.99,267.7414 C777.94,279.5814 870.3,299.4514 948.45,324.3814 C962.15,328.7514 1023.377,354.1407 1077.617,376.8907" fill="none" id="Viewer-to-Egui" style="stroke:#181818;stroke-width:1;"/><polygon fill="#181818" points="1083.15,379.2114,1076.3976,372.0416,1078.5392,377.2775,1073.3033,379.419,1083.15,379.2114" style="stroke:#181818;stroke-width:1;"/><text fill="#000000" font-family="sans-serif" font-size="13" lengthAdjust="spacing" textLength="236.9009" x="989.55" y="337.9498">textured Mesh, clipped to canvas rect</text></g><!--link Egui to Dev--><g class="link" data-entity-1="ent0010" data-entity-2="ent0002" data-link-type="dependency" data-source-line="56" id="lnk20"><path d="M1210.42,379.4114 C1228.98,364.5614 1243.15,345.3914 1234.45,324.3814 C1194.12,227.0414 1095.9312,152.5511 1041.7912,116.9011" fill="none" id="Egui-to-Dev" style="stroke:#181818;stroke-width:1;"/><polygon fill="#181818" points="1036.78,113.6014,1042.0969,121.8918,1040.956,116.3512,1046.4966,115.2102,1036.78,113.6014" style="stroke:#181818;stroke-width:1;"/><text fill="#000000" font-family="sans-serif" font-size="13" lengthAdjust="spacing" textLength="286.584" x="1220.38" y="259.7198">centre-magnified diagram, collapsible panels</text></g><!--link Fisheye to GMN21--><g class="link" data-entity-1="ent0007" data-entity-2="ent0022" data-link-type="association" data-source-line="59" id="lnk23"><path d="M882.81,443.1014 C899.86,452.9714 916.39,465.4414 928.45,480.8514 C938.85,494.1414 944.35,511.9614 947.25,527.5614" fill="none" id="Fisheye-GMN21" style="stroke:#181818;stroke-width:1;stroke-dasharray:7,7;"/></g><?plantuml-src jLR1RXit4BtlLmoKGoL4AxaeK22RrAWZhrC1SY18YGiK0WngERjBX4iI92L5AGBa8_g5_P8CkPAyZdteeRf8riwynvbvZxDsduGopB86DWuBvX3-JW3Uik9JPVL6yOcMshvvmpX7Vda9BrvTvFchY-TIB3PwsoRTtBpzTV9pyZLn9_P2CkVEnQqRenKgVoP-vva_rrmi5fwfIfwBdnLUspDnqwSNXJ3iVvxyJ_2xuFt9xJozc-P_vejq-KS-cmt2Sujb_-CoZu7qUdhrRd5rkumHZgvuWXb2xqEDWDL6WAjHIj0bD9odMu4xjC0Sh3T2UbZluPRpk_WqopQ6a-8P6KjAPfnOapmIIp-segezB0N7ELCetH0OUAtbcbdO2L-3ql15wuPOlTSgn1K7JoKKP4-qQIa-8uTIK35xUiZKbaeWVrL8MSp3ZbdZ8i2YucWfsUDdlx48QomrVHacb1Ug6lL2svEDfKIVEYgfSmz2Uq1miGsdMIheINSW5E4BIt-wySD8niuMOodM8-j6YHUUEk_Cw-FqCCP_l_q3UgVGkbeOw1Tj6OCaQVtMkyOjIctGziACwHUSt90a3tNsJcMjL1zBCXLcsPKnWvLgg-mF8a6RqmMUD8Z2hDIgPvcGgnwCmKbgkpruHh7dKL7902kq2XF-4Ra8yIxKRQlxWzHKw_pgNGuE9SPsNq9DehnUAP9_WGxz-2yomSlucROTV6YXNSQRPromKfFuApISPGUVt3VewiXoW7HPOZipjjSR7rFcisxqWIq69tVTO3jmwZlUZulHBnSh5Us5TaHYzPSrCwH7EBrj8gUy90bgfkdbGHJ8Wa6YuvB3an0CawSGjsn7upbS9EgrngtLwZJhBYIE_BzW8dT0p6UKxdL5w_C-sA0_I5gI7uDHROfsJZi8SZolVxovmGzMI_Se-IXL5Y_eqxj9HeSupEIO6L2JEmAKkc3ojt3zBGv9PC9MlXw2PLniQ444miULXIc7qbjk3hSq_o6zG8KnuKXzD4nuTIGnEQ22AXcqvwGDgvGe1QLpmIegRFXebvcul994QTe3QqshgWcByUWkWB0qZqjAE5foN3WZsJxrWWpJxYjIn6iJS65ThUbV1mA64Ow97YYxm8QgUGt20zVeQ3Twqf9UTjXPSEEIvar08mnAeH2wEtoHlx-ch_bqdi-cx_D1N3j4fvNS4xwXVWYwgqcBICcaHSRtgMMEF2o-T1IYBbfhyr521uTYy3i0?></g></svg>