<svg xmlns="http://www.w3.org/2000/svg" xmlns:xlink="http://www.w3.org/1999/xlink" contentStyleType="text/css" data-diagram-type="DESCRIPTION" height="726px" preserveAspectRatio="none" style="width:530px;height:726px;background:#FFFFFF;" version="1.1" viewBox="0 0 530 726" width="530px" zoomAndPan="magnify"><?plantuml 1.2026.3?><defs/><g><g class="title" data-source-line="13"><text fill="#000000" font-family="sans-serif" font-size="14" font-weight="700" lengthAdjust="spacing" textLength="503.5078" x="10" y="23.5352">MDD traceability + freshness &#8212; ownership &#183; cycle 0013 diff (current)</text></g><!--entity Dev--><g class="entity" data-qualified-name="Dev" data-source-line="15" id="ent0002"><ellipse cx="260.3512" cy="51.4883" fill="#F1F1F1" rx="8" ry="8" style="stroke:#181818;stroke-width:0.5;"/><path d="M260.3512,59.4883 L260.3512,86.4883 M247.3512,67.4883 L273.3512,67.4883 M260.3512,86.4883 L247.3512,101.4883 M260.3512,86.4883 L273.3512,101.4883" fill="none" style="stroke:#181818;stroke-width:0.5;"/><text fill="#000000" font-family="sans-serif" font-size="14" lengthAdjust="spacing" textLength="124.6328" x="198.0348" y="116.5234">Developer / Agent</text></g><!--entity Cli--><g class="entity" data-qualified-name="Cli" data-source-line="16" id="ent0003"><rect fill="#90EE90" height="79.4648" rx="2.5" ry="2.5" style="stroke:#181818;stroke-width:0.5;" width="248.7354" x="135.9848" y="180.4783"/><rect fill="#90EE90" height="10" style="stroke:#181818;stroke-width:0.5;" width="15" x="364.7201" y="185.4783"/><rect fill="#90EE90" height="2" style="stroke:#181818;stroke-width:0.5;" width="4" x="362.7201" y="187.4783"/><rect fill="#90EE90" height="2" style="stroke:#181818;stroke-width:0.5;" width="4" x="362.7201" y="191.4783"/><text fill="#000000" font-family="sans-serif" font-size="14" font-style="italic" lengthAdjust="spacing" textLength="56.6357" x="227.0346" y="214.0134">&#171;added&#187;</text><text fill="#000000" font-family="sans-serif" font-size="14" lengthAdjust="spacing" textLength="208.7354" x="150.9848" y="230.5017">mdd review / mdd map-status</text><text fill="#000000" font-family="sans-serif" font-size="14" lengthAdjust="spacing" textLength="120.6133" x="150.9848" y="246.99">(CMP-TRACE-CLI)</text></g><!--entity Gate--><g class="entity" data-qualified-name="Gate" data-source-line="17" id="ent0004"><rect fill="#90EE90" height="95.9531" rx="2.5" ry="2.5" style="stroke:#181818;stroke-width:0.5;" width="187.3281" x="39.6848" y="336.9383"/><rect fill="#90EE90" height="10" style="stroke:#181818;stroke-width:0.5;" width="15" x="207.0129" y="341.9383"/><rect fill="#90EE90" height="2" style="stroke:#181818;stroke-width:0.5;" width="4" x="205.0129" y="343.9383"/><rect fill="#90EE90" height="2" style="stroke:#181818;stroke-width:0.5;" width="4" x="205.0129" y="347.9383"/><text fill="#000000" font-family="sans-serif" font-size="14" font-style="italic" lengthAdjust="spacing" textLength="56.6357" x="100.031" y="370.4734">&#171;added&#187;</text><text fill="#000000" font-family="sans-serif" font-size="14" lengthAdjust="spacing" textLength="147.3281" x="54.6848" y="386.9617">Project::review pass 3</text><text fill="#000000" font-family="sans-serif" font-size="14" lengthAdjust="spacing" textLength="136.9033" x="54.6848" y="403.45">+ validate existence</text><text fill="#000000" font-family="sans-serif" font-size="14" lengthAdjust="spacing" textLength="135.6455" x="54.6848" y="419.9383">(CMP-TRACE-GATE)</text></g><!--entity Engine--><g class="entity" data-qualified-name="Engine" data-source-line="18" id="ent0005"><rect fill="#90EE90" height="79.4648" rx="2.5" ry="2.5" style="stroke:#181818;stroke-width:0.5;" width="189.4404" x="119.6248" y="509.8983"/><rect fill="#90EE90" height="10" style="stroke:#181818;stroke-width:0.5;" width="15" x="289.0652" y="514.8983"/><rect fill="#90EE90" height="2" style="stroke:#181818;stroke-width:0.5;" width="4" x="287.0652" y="516.8983"/><rect fill="#90EE90" height="2" style="stroke:#181818;stroke-width:0.5;" width="4" x="287.0652" y="520.8983"/><text fill="#000000" font-family="sans-serif" font-size="14" font-style="italic" lengthAdjust="spacing" textLength="56.6357" x="181.0271" y="543.4334">&#171;added&#187;</text><text fill="#000000" font-family="sans-serif" font-size="14" lengthAdjust="spacing" textLength="92.1963" x="134.6248" y="559.9217">traceability.rs</text><text fill="#000000" font-family="sans-serif" font-size="14" lengthAdjust="spacing" textLength="149.4404" x="134.6248" y="576.41">(CMP-TRACE-ENGINE)</text></g><!--entity Git--><g class="entity" data-qualified-name="Git" data-source-line="19" id="ent0006"><rect fill="#F1F1F1" height="46.4883" rx="2.5" ry="2.5" style="stroke:#181818;stroke-width:0.5;" width="58.0127" x="64.3448" y="666.3583"/><rect fill="#F1F1F1" height="10" style="stroke:#181818;stroke-width:0.5;" width="15" x="102.3575" y="671.3583"/><rect fill="#F1F1F1" height="2" style="stroke:#181818;stroke-width:0.5;" width="4" x="100.3575" y="673.3583"/><rect fill="#F1F1F1" height="2" style="stroke:#181818;stroke-width:0.5;" width="4" x="100.3575" y="677.3583"/><text fill="#000000" font-family="sans-serif" font-size="14" lengthAdjust="spacing" textLength="18.0127" x="79.3448" y="699.8934">git</text></g><!--entity Syn--><g class="entity" data-qualified-name="Syn" data-source-line="20" id="ent0007"><rect fill="#F1F1F1" height="46.4883" rx="2.5" ry="2.5" style="stroke:#181818;stroke-width:0.5;" width="172.6924" x="249.0048" y="666.3583"/><rect fill="#F1F1F1" height="10" style="stroke:#181818;stroke-width:0.5;" width="15" x="401.6972" y="671.3583"/><rect fill="#F1F1F1" height="2" style="stroke:#181818;stroke-width:0.5;" width="4" x="399.6972" y="673.3583"/><rect fill="#F1F1F1" height="2" style="stroke:#181818;stroke-width:0.5;" width="4" x="399.6972" y="677.3583"/><text fill="#000000" font-family="sans-serif" font-size="14" lengthAdjust="spacing" textLength="132.6924" x="264.0048" y="699.8934">syn + proc-macro2</text></g><!--link Dev to Cli--><g class="link" data-entity-1="ent0002" data-entity-2="ent0003" data-link-type="dependency" data-source-line="22" id="lnk8"><path d="M260.3448,119.6583 C260.3448,138.5183 260.3448,155.3483 260.3448,174.3883" fill="none" id="Dev-to-Cli" style="stroke:#181818;stroke-width:1;"/><polygon fill="#181818" points="260.3448,180.3883,264.3448,171.3883,260.3448,175.3883,256.3448,171.3883,260.3448,180.3883" style="stroke:#181818;stroke-width:1;"/></g><!--link Cli to Gate--><g class="link" data-entity-1="ent0003" data-entity-2="ent0004" data-link-type="dependency" data-source-line="23" id="lnk9"><path d="M229.9248,260.1783 C212.0248,283.1183 192.9471,307.5689 174.0071,331.8289" fill="none" id="Cli-to-Gate" style="stroke:#181818;stroke-width:1;"/><polygon fill="#181818" points="170.3148,336.5583,179.0061,331.9257,173.3917,332.6171,172.7003,327.0027,170.3148,336.5583" style="stroke:#181818;stroke-width:1;"/><text fill="#000000" font-family="sans-serif" font-size="13" lengthAdjust="spacing" textLength="48.7627" x="205.4548" y="303.5066">review()</text></g><!--link Cli to Engine--><g class="link" data-entity-1="ent0003" data-entity-2="ent0005" data-link-type="dependency" data-source-line="24" id="lnk10"><path d="M285.6148,260.3183 C316.2048,313.0683 359.0948,408.5983 320.3448,479.8983 C314.1148,491.3583 309.7003,497.4111 299.4603,505.7811" fill="none" id="Cli-to-Engine" style="stroke:#181818;stroke-width:1;"/><polygon fill="#181818" points="294.8148,509.5783,304.3146,506.9795,298.6861,506.4139,299.2517,500.7854,294.8148,509.5783" style="stroke:#181818;stroke-width:1;"/><text fill="#000000" font-family="sans-serif" font-size="13" lengthAdjust="spacing" textLength="80.6787" x="336.7448" y="389.9866">map_status()</text></g><!--link Gate to Engine--><g class="link" data-entity-1="ent0004" data-entity-2="ent0005" data-link-type="dependency" data-source-line="25" id="lnk11"><path d="M88.5948,433.3883 C79.6548,448.4783 75.4248,465.0783 84.3448,479.8983 C92.8448,493.9983 100.2965,502.0693 114.1965,511.1793" fill="none" id="Gate-to-Engine" style="stroke:#181818;stroke-width:1;"/><polygon fill="#181818" points="119.2148,514.4683,113.88,506.1894,115.0329,511.7275,109.4948,512.8804,119.2148,514.4683" style="stroke:#181818;stroke-width:1;"/><text fill="#000000" font-family="sans-serif" font-size="13" lengthAdjust="spacing" textLength="230.2485" x="85.3448" y="476.4666">forward resolve + reverse changeset</text></g><!--link Engine to Git--><g class="link" data-entity-1="ent0005" data-entity-2="ent0006" data-link-type="dependency" data-source-line="26" id="lnk12"><path d="M119.2648,588.5183 C107.7448,596.9783 97.5348,607.1683 90.3448,619.3583 C82.1648,633.2483 82.1429,645.7061 85.1429,660.0061" fill="none" id="Engine-to-Git" style="stroke:#181818;stroke-width:1;"/><polygon fill="#181818" points="86.3748,665.8783,88.4417,656.2487,85.3482,660.9848,80.6121,657.8913,86.3748,665.8783" style="stroke:#181818;stroke-width:1;"/><text fill="#000000" font-family="sans-serif" font-size="13" lengthAdjust="spacing" textLength="200.2241" x="91.3448" y="632.9266">diff --unified=0 base..worktree</text></g><!--link Engine to Syn--><g class="link" data-entity-1="ent0005" data-entity-2="ent0007" data-link-type="dependency" data-source-line="27" id="lnk13"><path d="M266.8648,589.7883 C277.2948,598.8583 287.6848,608.9283 296.3448,619.3583 C308.1648,633.5783 315.654,646.5007 322.624,660.7207" fill="none" id="Engine-to-Syn" style="stroke:#181818;stroke-width:1;"/><polygon fill="#181818" points="325.2648,666.1083,324.8954,656.2664,323.0641,661.6186,317.7119,659.7874,325.2648,666.1083" style="stroke:#181818;stroke-width:1;"/><text fill="#000000" font-family="sans-serif" font-size="13" lengthAdjust="spacing" textLength="172.9482" x="308.8748" y="632.9266">parse_file -&gt; symbol spans</text></g><?plantuml-src hPFFQjj04CRl-nI3UwXDaACqK8X8JHrPCO4cX3R7G5YlHlBMgrsnkxOhGg4FqNV9FO_I9-beBVodJIc5thGpytqp-vkLMqXTSyih4AQgZKRjuP41N72nAArPwZmrojZpSvxdc8z6yEeiphAp-AKIYvLPROekBo_UfYViAtDRVowyiV_L-pMybta_lRwDxZwEqopARgPNDza0OEVevzA1Q8H2wCVnoUdWDz5qVDTA_asKVhWAch-8qd1iJv3BeaX0uveuQu6rXq9IxiUtxy2L0bHO4Ne7mMx8lFIKlPvCm5ikaC-aahw18oWikhb6vuBKh3LQDvSrF3zrpRVTe2-MrfBfWB4D-zu4LwXCZHQEOLnIgWVS0KNPRlczAi_1uahIgCVG7YfUHyvpltJt-XS6GPygkUEmxtHhpMSKFaawkvhJsAVt-WXMNCcSUmJy8fr70d9W7NOIlATjqOlc-ro6zd2qxY44XqoNKl_1evGR0bFfzyEkqKIwjaP45HVMl0b5dnhD6B62A1grTsRjlTllC6FICUiFjl6kSz82VDW0f6oeFaWNngwvRQ4xerP8hScAreeWvboNwD2phZYqavv4OSDHjDIoa9Y_Ys767Gw7QsCNtYBk2sXm4j1FwF0XF3gAkQQQ6GMkvjhz1000?></g></svg>