<svg xmlns="http://www.w3.org/2000/svg" xmlns:xlink="http://www.w3.org/1999/xlink" contentStyleType="text/css" data-diagram-type="CLASS" height="605px" preserveAspectRatio="none" style="width:1137px;height:605px;background:#FFFFFF;" version="1.1" viewBox="0 0 1137 605" width="1137px" zoomAndPan="magnify"><?plantuml 1.2026.3?><defs/><g><g class="title" data-source-line="6"><text fill="#000000" font-family="sans-serif" font-size="14" font-weight="700" lengthAdjust="spacing" textLength="268.8301" x="430.7092" y="23.5352">Architecture source of truth (current)</text></g><!--class ArchitectureSpec--><g class="entity" data-qualified-name="ArchitectureSpec" data-source-line="8" id="ent0002"><rect fill="#F1F1F1" height="64.4883" rx="2.5" ry="2.5" style="stroke:#181818;stroke-width:0.5;" width="146.2764" x="601.8" y="44.4883"/><ellipse cx="616.8" cy="60.4883" fill="#ADD1B2" rx="11" ry="11" style="stroke:#181818;stroke-width:1;"/><path d="M619.2731,66.6313 Q618.6921,66.9302 618.0529,67.0796 Q617.4138,67.229 616.7082,67.229 Q614.2014,67.229 612.8815,65.5771 Q611.5617,63.9253 611.5617,60.8042 Q611.5617,57.6748 612.8815,56.0229 Q614.2014,54.3711 616.7082,54.3711 Q617.4138,54.3711 618.0612,54.5205 Q618.7087,54.6699 619.2731,54.9688 L619.2731,57.6914 Q618.6423,57.1104 618.0488,56.8406 Q617.4553,56.5708 616.8244,56.5708 Q615.4797,56.5708 614.7949,57.6375 Q614.1101,58.7041 614.1101,60.8042 Q614.1101,62.896 614.7949,63.9626 Q615.4797,65.0293 616.8244,65.0293 Q617.4553,65.0293 618.0488,64.7595 Q618.6423,64.4897 619.2731,63.9087 Z " fill="#000000"/><text fill="#000000" font-family="sans-serif" font-size="14" lengthAdjust="spacing" textLength="114.2764" x="630.8" y="65.7793">ArchitectureSpec</text><line style="stroke:#181818;stroke-width:0.5;" x1="602.8" x2="747.0764" y1="76.4883" y2="76.4883"/><g data-visibility-modifier="PUBLIC_FIELD"><ellipse cx="612.8" cy="90.2324" fill="none" rx="3" ry="3" style="stroke:#038048;stroke-width:1;"/></g><text fill="#000000" font-family="sans-serif" font-size="14" lengthAdjust="spacing" textLength="61.2705" x="621.8" y="94.0234">dir : Path</text><line style="stroke:#181818;stroke-width:0.5;" x1="602.8" x2="747.0764" y1="100.9766" y2="100.9766"/></g><!--class Component--><g class="entity" data-qualified-name="Component" data-source-line="11" id="ent0003"><rect fill="#F1F1F1" height="146.9297" rx="2.5" ry="2.5" style="stroke:#181818;stroke-width:0.5;" width="178.8857" x="289.49" y="210.7083"/><ellipse cx="335.0925" cy="226.7083" fill="#ADD1B2" rx="11" ry="11" style="stroke:#181818;stroke-width:1;"/><path d="M337.5657,232.8513 Q336.9846,233.1502 336.3455,233.2996 Q335.7063,233.449 335.0007,233.449 Q332.4939,233.449 331.1741,231.7971 Q329.8543,230.1453 329.8543,227.0242 Q329.8543,223.8948 331.1741,222.2429 Q332.4939,220.5911 335.0007,220.5911 Q335.7063,220.5911 336.3538,220.7405 Q337.0012,220.8899 337.5657,221.1887 L337.5657,223.9114 Q336.9348,223.3304 336.3413,223.0606 Q335.7478,222.7908 335.117,222.7908 Q333.7722,222.7908 333.0874,223.8575 Q332.4026,224.9241 332.4026,227.0242 Q332.4026,229.116 333.0874,230.1826 Q333.7722,231.2493 335.117,231.2493 Q335.7478,231.2493 336.3413,230.9795 Q336.9348,230.7097 337.5657,230.1287 Z " fill="#000000"/><text fill="#000000" font-family="sans-serif" font-size="14" lengthAdjust="spacing" textLength="79.1807" x="355.5925" y="231.9993">Component</text><line style="stroke:#181818;stroke-width:0.5;" x1="290.49" x2="467.3757" y1="242.7083" y2="242.7083"/><g data-visibility-modifier="PUBLIC_FIELD"><ellipse cx="300.49" cy="256.4524" fill="none" rx="3" ry="3" style="stroke:#038048;stroke-width:1;"/></g><text fill="#000000" font-family="sans-serif" font-size="14" lengthAdjust="spacing" textLength="66.1172" x="309.49" y="260.2434">id : String</text><g data-visibility-modifier="PUBLIC_FIELD"><ellipse cx="300.49" cy="272.9407" fill="none" rx="3" ry="3" style="stroke:#038048;stroke-width:1;"/></g><text fill="#000000" font-family="sans-serif" font-size="14" lengthAdjust="spacing" textLength="90.5488" x="309.49" y="276.7317">name : String</text><g data-visibility-modifier="PUBLIC_FIELD"><ellipse cx="300.49" cy="289.429" fill="none" rx="3" ry="3" style="stroke:#038048;stroke-width:1;"/></g><text fill="#000000" font-family="sans-serif" font-size="14" lengthAdjust="spacing" textLength="152.8857" x="309.49" y="293.22">kind : ComponentKind</text><g data-visibility-modifier="PUBLIC_FIELD"><ellipse cx="300.49" cy="305.9173" fill="none" rx="3" ry="3" style="stroke:#038048;stroke-width:1;"/></g><text fill="#000000" font-family="sans-serif" font-size="14" lengthAdjust="spacing" textLength="107.4883" x="309.49" y="309.7083">owns : List&lt;Id&gt;</text><g data-visibility-modifier="PUBLIC_FIELD"><ellipse cx="300.49" cy="322.4055" fill="none" rx="3" ry="3" style="stroke:#038048;stroke-width:1;"/></g><text fill="#000000" font-family="sans-serif" font-size="14" lengthAdjust="spacing" textLength="149.7002" x="309.49" y="326.1966">dependsOn : List&lt;Id&gt;</text><g data-visibility-modifier="PUBLIC_FIELD"><ellipse cx="300.49" cy="338.8938" fill="none" rx="3" ry="3" style="stroke:#038048;stroke-width:1;"/></g><text fill="#000000" font-family="sans-serif" font-size="14" lengthAdjust="spacing" textLength="82.1543" x="309.49" y="342.6848">tech : String</text><line style="stroke:#181818;stroke-width:0.5;" x1="290.49" x2="467.3757" y1="349.638" y2="349.638"/></g><!--class ComponentKind--><g class="entity" data-qualified-name="ComponentKind" data-source-line="19" id="ent0004"><rect fill="#F1F1F1" height="146.9297" rx="2.5" ry="2.5" style="stroke:#181818;stroke-width:0.5;" width="141.8672" x="7" y="443.3683"/><ellipse cx="22" cy="459.3683" fill="#EB937F" rx="11" ry="11" style="stroke:#181818;stroke-width:1;"/><path d="M25.6143,465.8683 L17.8945,465.8683 L17.8945,453.4752 L25.6143,453.4752 L25.6143,455.6334 L20.3433,455.6334 L20.3433,458.3063 L25.1162,458.3063 L25.1162,460.4645 L20.3433,460.4645 L20.3433,463.7101 L25.6143,463.7101 Z " fill="#000000"/><text fill="#000000" font-family="sans-serif" font-size="14" lengthAdjust="spacing" textLength="109.8672" x="36" y="464.6593">ComponentKind</text><line style="stroke:#181818;stroke-width:0.5;" x1="8" x2="147.8672" y1="475.3683" y2="475.3683"/><text fill="#000000" font-family="sans-serif" font-size="14" lengthAdjust="spacing" textLength="46.9287" x="13" y="492.9034">service</text><text fill="#000000" font-family="sans-serif" font-size="14" lengthAdjust="spacing" textLength="43.4082" x="13" y="509.3917">library</text><text fill="#000000" font-family="sans-serif" font-size="14" lengthAdjust="spacing" textLength="64.0117" x="13" y="525.88">datastore</text><text fill="#000000" font-family="sans-serif" font-size="14" lengthAdjust="spacing" textLength="51.8506" x="13" y="542.3683">adapter</text><text fill="#000000" font-family="sans-serif" font-size="14" lengthAdjust="spacing" textLength="12.7354" x="13" y="558.8566">ui</text><text fill="#000000" font-family="sans-serif" font-size="14" lengthAdjust="spacing" textLength="55.6172" x="13" y="575.3448">external</text><line style="stroke:#181818;stroke-width:0.5;" x1="8" x2="147.8672" y1="582.298" y2="582.298"/></g><!--class Decision--><g class="entity" data-qualified-name="Decision" data-source-line="27" id="ent0005"><rect fill="#F1F1F1" height="196.3945" rx="2.5" ry="2.5" style="stroke:#181818;stroke-width:0.5;" width="180" x="584.93" y="185.9783"/><ellipse cx="641.6922" cy="201.9783" fill="#ADD1B2" rx="11" ry="11" style="stroke:#181818;stroke-width:1;"/><path d="M644.1654,208.1213 Q643.5843,208.4202 642.9451,208.5696 Q642.306,208.719 641.6004,208.719 Q639.0936,208.719 637.7738,207.0671 Q636.4539,205.4153 636.4539,202.2942 Q636.4539,199.1648 637.7738,197.5129 Q639.0936,195.8611 641.6004,195.8611 Q642.306,195.8611 642.9534,196.0105 Q643.6009,196.1599 644.1654,196.4587 L644.1654,199.1814 Q643.5345,198.6004 642.941,198.3306 Q642.3475,198.0608 641.7166,198.0608 Q640.3719,198.0608 639.6871,199.1275 Q639.0023,200.1941 639.0023,202.2942 Q639.0023,204.386 639.6871,205.4526 Q640.3719,206.5193 641.7166,206.5193 Q642.3475,206.5193 642.941,206.2495 Q643.5345,205.9797 644.1654,205.3987 Z " fill="#000000"/><text fill="#000000" font-family="sans-serif" font-size="14" lengthAdjust="spacing" textLength="57.9756" x="662.1922" y="207.2693">Decision</text><line style="stroke:#181818;stroke-width:0.5;" x1="585.93" x2="763.93" y1="217.9783" y2="217.9783"/><g data-visibility-modifier="PUBLIC_FIELD"><ellipse cx="595.93" cy="231.7224" fill="none" rx="3" ry="3" style="stroke:#038048;stroke-width:1;"/></g><text fill="#000000" font-family="sans-serif" font-size="14" lengthAdjust="spacing" textLength="66.1172" x="604.93" y="235.5134">id : String</text><g data-visibility-modifier="PUBLIC_FIELD"><ellipse cx="595.93" cy="248.2107" fill="none" rx="3" ry="3" style="stroke:#038048;stroke-width:1;"/></g><text fill="#000000" font-family="sans-serif" font-size="14" lengthAdjust="spacing" textLength="79.625" x="604.93" y="252.0017">title : String</text><g data-visibility-modifier="PUBLIC_FIELD"><ellipse cx="595.93" cy="264.699" fill="none" rx="3" ry="3" style="stroke:#038048;stroke-width:1;"/></g><text fill="#000000" font-family="sans-serif" font-size="14" lengthAdjust="spacing" textLength="154" x="604.93" y="268.49">status : DecisionStatus</text><g data-visibility-modifier="PUBLIC_FIELD"><ellipse cx="595.93" cy="281.1873" fill="none" rx="3" ry="3" style="stroke:#038048;stroke-width:1;"/></g><text fill="#000000" font-family="sans-serif" font-size="14" lengthAdjust="spacing" textLength="74.1221" x="604.93" y="284.9783">date : Date</text><g data-visibility-modifier="PUBLIC_FIELD"><ellipse cx="595.93" cy="297.6755" fill="none" rx="3" ry="3" style="stroke:#038048;stroke-width:1;"/></g><text fill="#000000" font-family="sans-serif" font-size="14" lengthAdjust="spacing" textLength="104.5762" x="604.93" y="301.4666">context : String</text><g data-visibility-modifier="PUBLIC_FIELD"><ellipse cx="595.93" cy="314.1638" fill="none" rx="3" ry="3" style="stroke:#038048;stroke-width:1;"/></g><text fill="#000000" font-family="sans-serif" font-size="14" lengthAdjust="spacing" textLength="109.5596" x="604.93" y="317.9548">decision : String</text><g data-visibility-modifier="PUBLIC_FIELD"><ellipse cx="595.93" cy="330.6521" fill="none" rx="3" ry="3" style="stroke:#038048;stroke-width:1;"/></g><text fill="#000000" font-family="sans-serif" font-size="14" lengthAdjust="spacing" textLength="148.75" x="604.93" y="334.4431">consequences : String</text><g data-visibility-modifier="PUBLIC_FIELD"><ellipse cx="595.93" cy="347.1404" fill="none" rx="3" ry="3" style="stroke:#038048;stroke-width:1;"/></g><text fill="#000000" font-family="sans-serif" font-size="14" lengthAdjust="spacing" textLength="136.0146" x="604.93" y="350.9314">supersedes : String?</text><g data-visibility-modifier="PUBLIC_FIELD"><ellipse cx="595.93" cy="363.6287" fill="none" rx="3" ry="3" style="stroke:#038048;stroke-width:1;"/></g><text fill="#000000" font-family="sans-serif" font-size="14" lengthAdjust="spacing" textLength="153.0566" x="604.93" y="367.4197">supersededBy : String?</text><line style="stroke:#181818;stroke-width:0.5;" x1="585.93" x2="763.93" y1="374.3728" y2="374.3728"/></g><!--class DecisionStatus--><g class="entity" data-qualified-name="DecisionStatus" data-source-line="38" id="ent0006"><rect fill="#F1F1F1" height="113.9531" rx="2.5" ry="2.5" style="stroke:#181818;stroke-width:0.5;" width="131.5449" x="609.16" y="459.8583"/><ellipse cx="624.16" cy="475.8583" fill="#EB937F" rx="11" ry="11" style="stroke:#181818;stroke-width:1;"/><path d="M627.7743,482.3583 L620.0545,482.3583 L620.0545,469.9652 L627.7743,469.9652 L627.7743,472.1234 L622.5033,472.1234 L622.5033,474.7963 L627.2762,474.7963 L627.2762,476.9545 L622.5033,476.9545 L622.5033,480.2001 L627.7743,480.2001 Z " fill="#000000"/><text fill="#000000" font-family="sans-serif" font-size="14" lengthAdjust="spacing" textLength="99.5449" x="638.16" y="481.1493">DecisionStatus</text><line style="stroke:#181818;stroke-width:0.5;" x1="610.16" x2="739.7049" y1="491.8583" y2="491.8583"/><text fill="#000000" font-family="sans-serif" font-size="14" lengthAdjust="spacing" textLength="64.2988" x="615.16" y="509.3934">proposed</text><text fill="#000000" font-family="sans-serif" font-size="14" lengthAdjust="spacing" textLength="60.5322" x="615.16" y="525.8817">accepted</text><text fill="#000000" font-family="sans-serif" font-size="14" lengthAdjust="spacing" textLength="78.5244" x="615.16" y="542.37">superseded</text><text fill="#000000" font-family="sans-serif" font-size="14" lengthAdjust="spacing" textLength="75.7012" x="615.16" y="558.8583">deprecated</text><line style="stroke:#181818;stroke-width:0.5;" x1="610.16" x2="739.7049" y1="565.8114" y2="565.8114"/></g><!--class Constraint--><g class="entity" data-qualified-name="Constraint" data-source-line="44" id="ent0007"><rect fill="#F1F1F1" height="113.9531" rx="2.5" ry="2.5" style="stroke:#181818;stroke-width:0.5;" width="164.1133" x="799.88" y="227.1983"/><ellipse cx="842.4803" cy="243.1983" fill="#ADD1B2" rx="11" ry="11" style="stroke:#181818;stroke-width:1;"/><path d="M844.9534,249.3413 Q844.3724,249.6402 843.7332,249.7896 Q843.0941,249.939 842.3885,249.939 Q839.8817,249.939 838.5618,248.2871 Q837.242,246.6353 837.242,243.5142 Q837.242,240.3848 838.5618,238.7329 Q839.8817,237.0811 842.3885,237.0811 Q843.0941,237.0811 843.7415,237.2305 Q844.389,237.3799 844.9534,237.6787 L844.9534,240.4014 Q844.3226,239.8204 843.7291,239.5506 Q843.1356,239.2808 842.5047,239.2808 Q841.16,239.2808 840.4752,240.3475 Q839.7904,241.4141 839.7904,243.5142 Q839.7904,245.606 840.4752,246.6726 Q841.16,247.7393 842.5047,247.7393 Q843.1356,247.7393 843.7291,247.4695 Q844.3226,247.1997 844.9534,246.6187 Z " fill="#000000"/><text fill="#000000" font-family="sans-serif" font-size="14" lengthAdjust="spacing" textLength="70.7793" x="862.6137" y="248.4893">Constraint</text><line style="stroke:#181818;stroke-width:0.5;" x1="800.88" x2="962.9933" y1="259.1983" y2="259.1983"/><g data-visibility-modifier="PUBLIC_FIELD"><ellipse cx="810.88" cy="272.9424" fill="none" rx="3" ry="3" style="stroke:#038048;stroke-width:1;"/></g><text fill="#000000" font-family="sans-serif" font-size="14" lengthAdjust="spacing" textLength="66.1172" x="819.88" y="276.7334">id : String</text><g data-visibility-modifier="PUBLIC_FIELD"><ellipse cx="810.88" cy="289.4307" fill="none" rx="3" ry="3" style="stroke:#038048;stroke-width:1;"/></g><text fill="#000000" font-family="sans-serif" font-size="14" lengthAdjust="spacing" textLength="79.5225" x="819.88" y="293.2217">rule : String</text><g data-visibility-modifier="PUBLIC_FIELD"><ellipse cx="810.88" cy="305.919" fill="none" rx="3" ry="3" style="stroke:#038048;stroke-width:1;"/></g><text fill="#000000" font-family="sans-serif" font-size="14" lengthAdjust="spacing" textLength="138.1133" x="819.88" y="309.71">appliesTo : List&lt;Id&gt;</text><g data-visibility-modifier="PUBLIC_FIELD"><ellipse cx="810.88" cy="322.4073" fill="none" rx="3" ry="3" style="stroke:#038048;stroke-width:1;"/></g><text fill="#000000" font-family="sans-serif" font-size="14" lengthAdjust="spacing" textLength="112.8682" x="819.88" y="326.1983">rationale : String</text><line style="stroke:#181818;stroke-width:0.5;" x1="800.88" x2="962.9933" y1="333.1514" y2="333.1514"/></g><g class="entity" data-qualified-name="GMN13" data-source-line="58" id="ent0014"><path d="M775.62,473.5583 L775.62,560.111 L1122.2484,560.111 L1122.2484,483.5583 L1112.2484,473.5583 L775.62,473.5583" fill="#FEFFDD" style="stroke:#181818;stroke-width:0.5;"/><path d="M1112.2484,473.5583 L1112.2484,483.5583 L1122.2484,483.5583 L1112.2484,473.5583" fill="#FEFFDD" style="stroke:#181818;stroke-width:1;"/><text fill="#000000" font-family="sans-serif" font-size="13" lengthAdjust="spacing" textLength="325.6284" x="781.62" y="491.1266">Append-only: a change supersedes a prior decision</text><text fill="#000000" font-family="sans-serif" font-size="13" lengthAdjust="spacing" textLength="317.002" x="781.62" y="506.4372">(supersedes / supersededBy) rather than rewriting</text><text fill="#000000" font-family="sans-serif" font-size="13" lengthAdjust="spacing" textLength="264.3418" x="781.62" y="521.7477">it, so decisions.yml IS the decision history</text><text fill="#000000" font-family="sans-serif" font-size="13" lengthAdjust="spacing" textLength="234.1079" x="781.62" y="537.0583">(OCL-ARCH-DECISION-HAS-STATUS,</text><text fill="#000000" font-family="sans-serif" font-size="13" lengthAdjust="spacing" textLength="207.5112" x="781.62" y="552.3688">OCL-ARCH-SUPERSEDE-LINKED).</text></g><g class="entity" data-qualified-name="GMN16" data-source-line="65" id="ent0017"><path d="M183.62,488.8683 L183.62,544.7999 A0,0 0 0 0 183.62,544.7999 L574.2504,544.7999 A0,0 0 0 0 574.2504,544.7999 L574.2504,498.8683 L564.2504,488.8683 L382.93,488.8683 L378.93,357.8383 L374.93,488.8683 L183.62,488.8683 A0,0 0 0 0 183.62,488.8683" fill="#FEFFDD" style="stroke:#181818;stroke-width:0.5;"/><path d="M564.2504,488.8683 L564.2504,498.8683 L574.2504,498.8683 L564.2504,488.8683" fill="#FEFFDD" style="stroke:#181818;stroke-width:0.5;"/><text fill="#000000" font-family="sans-serif" font-size="13" lengthAdjust="spacing" textLength="369.6304" x="189.62" y="506.4366">owns / dependsOn reference diagram @ids (DOM-/CMP-);</text><text fill="#000000" font-family="sans-serif" font-size="13" lengthAdjust="spacing" textLength="319.4204" x="189.62" y="521.7472">components.yml stays in sync with the component</text><text fill="#000000" font-family="sans-serif" font-size="13" lengthAdjust="spacing" textLength="303.1196" x="189.62" y="537.0577">diagrams (OCL-ARCH-COMPONENTS-IN-SYNC).</text></g><!--reverse link ArchitectureSpec to Component--><g class="link" data-entity-1="ent0002" data-entity-2="ent0003" data-link-type="aggregation" data-source-line="51" id="lnk8"><path codeLine="51" d="M590.5245,114.5389 C572.5645,123.2989 564.54,128.1483 547.93,138.9783 C515.95,159.8283 483.43,186.1183 455.57,210.5183" fill="none" id="ArchitectureSpec-backto-Component" style="stroke:#181818;stroke-width:1;"/><polygon fill="none" points="601.31,109.2783,594.1637,108.3134,590.5245,114.5389,597.6708,115.5037,601.31,109.2783" style="stroke:#181818;stroke-width:1;"/><polygon fill="#000000" points="548.8554,150.5314,557.9297,147.6841,554.5231,142.8941,548.8554,150.5314" style="stroke:#000000;stroke-width:1;"/><text fill="#000000" font-family="sans-serif" font-size="13" lengthAdjust="spacing" textLength="104.6157" x="561.93" y="152.5466">components.yml</text><text fill="#000000" font-family="sans-serif" font-size="13" lengthAdjust="spacing" textLength="8.2202" x="585.6793" y="109.3274">1</text><text fill="#000000" font-family="sans-serif" font-size="13" lengthAdjust="spacing" textLength="6.2651" x="457.1775" y="199.7336">*</text></g><!--reverse link ArchitectureSpec to Decision--><g class="link" data-entity-1="ent0002" data-entity-2="ent0005" data-link-type="aggregation" data-source-line="52" id="lnk9"><path codeLine="52" d="M674.93,121.3783 C674.93,141.9783 674.93,158.0483 674.93,185.6283" fill="none" id="ArchitectureSpec-backto-Decision" style="stroke:#181818;stroke-width:1;"/><polygon fill="none" points="674.93,109.3783,670.93,115.3783,674.93,121.3783,678.93,115.3783,674.93,109.3783" style="stroke:#181818;stroke-width:1;"/><polygon fill="#000000" points="679.93,152.6336,682.8689,143.5885,676.9911,143.5885,679.93,152.6336" style="stroke:#000000;stroke-width:1;"/><text fill="#000000" font-family="sans-serif" font-size="13" lengthAdjust="spacing" textLength="85.7061" x="688.93" y="152.5466">decisions.yml</text><text fill="#000000" font-family="sans-serif" font-size="13" lengthAdjust="spacing" textLength="8.2202" x="666.1869" y="129.629">1</text><text fill="#000000" font-family="sans-serif" font-size="13" lengthAdjust="spacing" textLength="6.2651" x="668.7105" y="175.0893">*</text></g><!--reverse link ArchitectureSpec to Constraint--><g class="link" data-entity-1="ent0002" data-entity-2="ent0007" data-link-type="aggregation" data-source-line="53" id="lnk10"><path codeLine="53" d="M752.1903,115.4775 C766.5903,123.9575 770.78,127.8283 782.93,138.9783 C810.34,164.1283 834.19,198.2283 851.61,226.9483" fill="none" id="ArchitectureSpec-backto-Constraint" style="stroke:#181818;stroke-width:1;"/><polygon fill="none" points="741.85,109.3883,744.9904,115.8797,752.1903,115.4775,749.0499,108.9862,741.85,109.3883" style="stroke:#181818;stroke-width:1;"/><polygon fill="#000000" points="807.9481,151.365,804.1208,142.6585,799.7342,146.5709,807.9481,151.365" style="stroke:#000000;stroke-width:1;"/><text fill="#000000" font-family="sans-serif" font-size="13" lengthAdjust="spacing" textLength="96.8145" x="813.62" y="152.5466">constraints.yml</text><text fill="#000000" font-family="sans-serif" font-size="13" lengthAdjust="spacing" textLength="8.2202" x="745.8636" y="129.641">1</text><text fill="#000000" font-family="sans-serif" font-size="13" lengthAdjust="spacing" textLength="6.2651" x="841.5645" y="216.647">*</text></g><!--link Component to ComponentKind--><g class="link" data-entity-1="ent0003" data-entity-2="ent0004" data-link-type="dependency" data-source-line="54" id="lnk11"><path codeLine="54" d="M289.06,350.3783 C250.78,378.5483 205.84,412.1483 165.93,443.3683 C160.48,447.6383 159.5455,448.3279 153.9255,452.8479" fill="none" id="Component-to-ComponentKind" style="stroke:#181818;stroke-width:1;"/><polygon fill="#181818" points="149.25,456.6083,158.7701,454.0848,153.1462,453.4747,153.7563,447.8508,149.25,456.6083" style="stroke:#181818;stroke-width:1;"/></g><!--link Decision to DecisionStatus--><g class="link" data-entity-1="ent0005" data-entity-2="ent0006" data-link-type="dependency" data-source-line="55" id="lnk12"><path codeLine="55" d="M674.93,382.6583 C674.93,408.8483 674.93,430.2983 674.93,453.4183" fill="none" id="Decision-to-DecisionStatus" style="stroke:#181818;stroke-width:1;"/><polygon fill="#181818" points="674.93,459.4183,678.93,450.4183,674.93,454.4183,670.93,450.4183,674.93,459.4183" style="stroke:#181818;stroke-width:1;"/></g><!--link Decision to GMN13--><g class="link" data-entity-1="ent0005" data-entity-2="ent0014" data-link-type="association" data-source-line="58" id="lnk15"><path d="M765.35,368.0283 C770.93,372.9183 776.49,377.7283 781.93,382.3683 C818.51,413.5483 860.82,447.3383 893.7,473.1083" fill="none" id="Decision-GMN13" style="stroke:#181818;stroke-width:1;stroke-dasharray:7,7;"/></g><?plantuml-src XLLBZzis4BxhLmnyYTsixBIdGYdSkBQ16DcrZMXpwCcWoT6AM8bKIMeTeTZ_tg5aMOzjseijpdk-6Nvy1s4OmYNL6OOvAw0m-WKLKnmZu1NF45pA74ZbZ1ObHm78U0gVfF2EmJluL5jDDuU7SFLr_JcCZzlr7NpuyCklCw-LOgYgXG8j7tjCTdcHOOxAKGvcAIt2F1TYmGnFfKFkIeCBgF8C798fSsXXUlkC8cztuZeljA8WzjIgO06rIY2NLchrLiD9w0oJVQ_P7LZEaaHdWkg94UdlGAZ0kGAgYW2H3gONGvMHptTtuWR9xIIJKowjbUff1anH9wLBjQ4GvBSWn_1PycUT97FeIftxfXPmA_1wxfLLIvZ16XKIbZKQWkR6tFjBMi4PhHIDMaZsP5XkFtO1QrTM5AX4g5LM4Mvac4YQhcoGJgLrsbGpSf99qZWyKOTE2rRT0UidzUrxtE05pTa7O40mPVeIbiLyuWUyBesXniAw9g5pwe5CJ9sfDqwMWTMb8L1r0XJVfJ1jTgvUdtdWfAF3ghS0_-BGv9e50S-OjGFhk40EVmS0xwaj0n4ScKk3rwlbkXt0rOHMEeBO6PfTVLOinw7aMIflStFyGkTQeIy4SWJtXE9lEx5iCgB7snxKM475fLtSrm1LcGzZrWLPD2-I8trbycoOgUXBCCVyeBoK2LOuDFHLIlgX7KIZM7PhRtET_W-wQx0TYAnZhlHzjAvnBMYwyVU5DFHNdsav_TeF0xGBDvJwFSQ_IgJROqS9omADfQlLoNyVAiGVLKzrnMfONjqVqLQXoS7ZmZaICFwp2-Enmy8WPrxJRK1xmtu0aYd76D4joYJQHpsUgc6EIc9z-zSWUBEDavyde8bn9pzDUWiOZTbW-T-Ucmxe8Mii_o_ZhU7e3RyiWwwWC5oErloMqgj62n8eJTjnrixft5_DLat0h3hMYOWeUChK4_O7psXsahX1T3xJddens8MPXpb5poHCWK7Flyraf2F2rYCqTd73Y6tfLvRpAGxh--RrsMpNktXts8UVLt4OFwuUlyLtP73Jnz-Esw_nThCDxtVxBziDqH8r1BxZSTitmCY_PeH5ZmGC9cZy7MW9sh-Dz8BvPt2nVZY6iu_aDbe3kf6LfRS6RAKuN2GHdc-8znArTDzhQNruE1xss_rZ7ExsOVpdVjqh-Xy0?></g></svg>