<svg xmlns="http://www.w3.org/2000/svg" xmlns:xlink="http://www.w3.org/1999/xlink" contentStyleType="text/css" data-diagram-type="CLASS" height="413px" preserveAspectRatio="none" style="width:903px;height:413px;background:#FFFFFF;" version="1.1" viewBox="0 0 903 413" width="903px" zoomAndPan="magnify"><?plantuml 1.2026.3?><defs/><g><g class="title" data-source-line="9"><text fill="#000000" font-family="sans-serif" font-size="14" font-weight="700" lengthAdjust="spacing" textLength="255.5" x="320.4684" y="23.5352">Greenfield kickoff domain (current)</text></g><!--class Brief--><g class="entity" data-qualified-name="Brief" data-source-line="11" id="ent0002"><rect fill="#F1F1F1" height="163.418" rx="2.5" ry="2.5" style="stroke:#181818;stroke-width:0.5;" width="207.624" x="112.03" y="44.4883"/><ellipse cx="196.2043" cy="60.4883" fill="#ADD1B2" rx="11" ry="11" style="stroke:#181818;stroke-width:1;"/><path d="M198.6775,66.6313 Q198.0964,66.9302 197.4572,67.0796 Q196.8181,67.229 196.1125,67.229 Q193.6057,67.229 192.2859,65.5771 Q190.966,63.9253 190.966,60.8042 Q190.966,57.6748 192.2859,56.0229 Q193.6057,54.3711 196.1125,54.3711 Q196.8181,54.3711 197.4655,54.5205 Q198.113,54.6699 198.6775,54.9688 L198.6775,57.6914 Q198.0466,57.1104 197.4531,56.8406 Q196.8596,56.5708 196.2287,56.5708 Q194.884,56.5708 194.1992,57.6375 Q193.5144,58.7041 193.5144,60.8042 Q193.5144,62.896 194.1992,63.9626 Q194.884,65.0293 196.2287,65.0293 Q196.8596,65.0293 197.4531,64.7595 Q198.0466,64.4897 198.6775,63.9087 Z " fill="#000000"/><text fill="#000000" font-family="sans-serif" font-size="14" lengthAdjust="spacing" textLength="30.7754" x="216.7043" y="65.7793">Brief</text><line style="stroke:#181818;stroke-width:0.5;" x1="113.03" x2="318.654" y1="76.4883" y2="76.4883"/><g data-visibility-modifier="PUBLIC_FIELD"><ellipse cx="123.03" cy="90.2324" fill="none" rx="3" ry="3" style="stroke:#038048;stroke-width:1;"/></g><text fill="#000000" font-family="sans-serif" font-size="14" lengthAdjust="spacing" textLength="114.2285" x="132.03" y="94.0234">objective : String</text><g data-visibility-modifier="PUBLIC_FIELD"><ellipse cx="123.03" cy="106.7207" fill="none" rx="3" ry="3" style="stroke:#038048;stroke-width:1;"/></g><text fill="#000000" font-family="sans-serif" font-size="14" lengthAdjust="spacing" textLength="152.0586" x="132.03" y="110.5117">inScope : List&lt;String&gt;</text><g data-visibility-modifier="PUBLIC_FIELD"><ellipse cx="123.03" cy="123.209" fill="none" rx="3" ry="3" style="stroke:#038048;stroke-width:1;"/></g><text fill="#000000" font-family="sans-serif" font-size="14" lengthAdjust="spacing" textLength="177.8711" x="132.03" y="127">outOfScope : List&lt;String&gt;</text><g data-visibility-modifier="PUBLIC_FIELD"><ellipse cx="123.03" cy="139.6973" fill="none" rx="3" ry="3" style="stroke:#038048;stroke-width:1;"/></g><text fill="#000000" font-family="sans-serif" font-size="14" lengthAdjust="spacing" textLength="181.624" x="132.03" y="143.4883">decisions : List&lt;AdrEntry&gt;</text><g data-visibility-modifier="PUBLIC_FIELD"><ellipse cx="123.03" cy="156.1855" fill="none" rx="3" ry="3" style="stroke:#038048;stroke-width:1;"/></g><text fill="#000000" font-family="sans-serif" font-size="14" lengthAdjust="spacing" textLength="147.3486" x="132.03" y="159.9766">tooling : List&lt;String&gt;</text><g data-visibility-modifier="PUBLIC_FIELD"><ellipse cx="123.03" cy="172.6738" fill="none" rx="3" ry="3" style="stroke:#038048;stroke-width:1;"/></g><text fill="#000000" font-family="sans-serif" font-size="14" lengthAdjust="spacing" textLength="126.1025" x="132.03" y="176.4648">nfrs : List&lt;String&gt;</text><g data-visibility-modifier="PUBLIC_FIELD"><ellipse cx="123.03" cy="189.1621" fill="none" rx="3" ry="3" style="stroke:#038048;stroke-width:1;"/></g><text fill="#000000" font-family="sans-serif" font-size="14" lengthAdjust="spacing" textLength="133.1914" x="132.03" y="192.9531">signedOff : Boolean</text><line style="stroke:#181818;stroke-width:0.5;" x1="113.03" x2="318.654" y1="199.9063" y2="199.9063"/></g><!--class AdrEntry--><g class="entity" data-qualified-name="AdrEntry" data-source-line="21" id="ent0003"><rect fill="#F1F1F1" height="113.9531" rx="2.5" ry="2.5" style="stroke:#181818;stroke-width:0.5;" width="157.6875" x="7" y="284.9083"/><ellipse cx="52.2163" cy="300.9083" fill="#ADD1B2" rx="11" ry="11" style="stroke:#181818;stroke-width:1;"/><path d="M54.6895,307.0513 Q54.1084,307.3502 53.4692,307.4996 Q52.8301,307.649 52.1245,307.649 Q49.6177,307.649 48.2979,305.9971 Q46.978,304.3453 46.978,301.2242 Q46.978,298.0948 48.2979,296.4429 Q49.6177,294.7911 52.1245,294.7911 Q52.8301,294.7911 53.4775,294.9405 Q54.125,295.0899 54.6895,295.3888 L54.6895,298.1114 Q54.0586,297.5304 53.4651,297.2606 Q52.8716,296.9908 52.2407,296.9908 Q50.896,296.9908 50.2112,298.0575 Q49.5264,299.1241 49.5264,301.2242 Q49.5264,303.316 50.2112,304.3826 Q50.896,305.4493 52.2407,305.4493 Q52.8716,305.4493 53.4651,305.1795 Q54.0586,304.9097 54.6895,304.3287 Z " fill="#000000"/><text fill="#000000" font-family="sans-serif" font-size="14" lengthAdjust="spacing" textLength="58.7549" x="72.7163" y="306.1993">AdrEntry</text><line style="stroke:#181818;stroke-width:0.5;" x1="8" x2="163.6875" y1="316.9083" y2="316.9083"/><g data-visibility-modifier="PUBLIC_FIELD"><ellipse cx="18" cy="330.6524" fill="none" rx="3" ry="3" style="stroke:#038048;stroke-width:1;"/></g><text fill="#000000" font-family="sans-serif" font-size="14" lengthAdjust="spacing" textLength="104.5762" x="27" y="334.4434">context : String</text><g data-visibility-modifier="PUBLIC_FIELD"><ellipse cx="18" cy="347.1407" fill="none" rx="3" ry="3" style="stroke:#038048;stroke-width:1;"/></g><text fill="#000000" font-family="sans-serif" font-size="14" lengthAdjust="spacing" textLength="109.5596" x="27" y="350.9317">decision : String</text><g data-visibility-modifier="PUBLIC_FIELD"><ellipse cx="18" cy="363.629" fill="none" rx="3" ry="3" style="stroke:#038048;stroke-width:1;"/></g><text fill="#000000" font-family="sans-serif" font-size="14" lengthAdjust="spacing" textLength="112.8682" x="27" y="367.42">rationale : String</text><g data-visibility-modifier="PUBLIC_FIELD"><ellipse cx="18" cy="380.1173" fill="none" rx="3" ry="3" style="stroke:#038048;stroke-width:1;"/></g><text fill="#000000" font-family="sans-serif" font-size="14" lengthAdjust="spacing" textLength="131.6875" x="27" y="383.9083">alternatives : String</text><line style="stroke:#181818;stroke-width:0.5;" x1="8" x2="163.6875" y1="390.8614" y2="390.8614"/></g><!--class PlanItem--><g class="entity" data-qualified-name="PlanItem" data-source-line="28" id="ent0004"><rect fill="#F1F1F1" height="113.9531" rx="2.5" ry="2.5" style="stroke:#181818;stroke-width:0.5;" width="144.4258" x="634.63" y="69.2183"/><ellipse cx="673.9665" cy="85.2183" fill="#ADD1B2" rx="11" ry="11" style="stroke:#181818;stroke-width:1;"/><path d="M676.4396,91.3613 Q675.8586,91.6602 675.2194,91.8096 Q674.5802,91.959 673.8747,91.959 Q671.3678,91.959 670.048,90.3071 Q668.7282,88.6553 668.7282,85.5342 Q668.7282,82.4048 670.048,80.7529 Q671.3678,79.1011 673.8747,79.1011 Q674.5802,79.1011 675.2277,79.2505 Q675.8752,79.3999 676.4396,79.6988 L676.4396,82.4214 Q675.8088,81.8404 675.2153,81.5706 Q674.6217,81.3008 673.9909,81.3008 Q672.6462,81.3008 671.9613,82.3675 Q671.2765,83.4341 671.2765,85.5342 Q671.2765,87.626 671.9613,88.6926 Q672.6462,89.7593 673.9909,89.7593 Q674.6217,89.7593 675.2153,89.4895 Q675.8088,89.2197 676.4396,88.6387 Z " fill="#000000"/><text fill="#000000" font-family="sans-serif" font-size="14" lengthAdjust="spacing" textLength="58.3447" x="693.3746" y="90.5093">PlanItem</text><line style="stroke:#181818;stroke-width:0.5;" x1="635.63" x2="778.0558" y1="101.2183" y2="101.2183"/><g data-visibility-modifier="PUBLIC_FIELD"><ellipse cx="645.63" cy="114.9624" fill="none" rx="3" ry="3" style="stroke:#038048;stroke-width:1;"/></g><text fill="#000000" font-family="sans-serif" font-size="14" lengthAdjust="spacing" textLength="80.1172" x="654.63" y="118.7534">text : String</text><g data-visibility-modifier="PUBLIC_FIELD"><ellipse cx="645.63" cy="131.4507" fill="none" rx="3" ry="3" style="stroke:#038048;stroke-width:1;"/></g><text fill="#000000" font-family="sans-serif" font-size="14" lengthAdjust="spacing" textLength="100.707" x="654.63" y="135.2417">done : Boolean</text><g data-visibility-modifier="PUBLIC_FIELD"><ellipse cx="645.63" cy="147.939" fill="none" rx="3" ry="3" style="stroke:#038048;stroke-width:1;"/></g><text fill="#000000" font-family="sans-serif" font-size="14" lengthAdjust="spacing" textLength="111.7949" x="654.63" y="151.73">scope : List&lt;Id&gt;</text><line style="stroke:#181818;stroke-width:0.5;" x1="635.63" x2="778.0558" y1="158.6831" y2="158.6831"/><g data-visibility-modifier="PUBLIC_METHOD"><ellipse cx="645.63" cy="172.4273" fill="#84BE84" rx="3" ry="3" style="stroke:#038048;stroke-width:1;"/></g><text fill="#000000" font-family="sans-serif" font-size="14" lengthAdjust="spacing" textLength="118.4258" x="654.63" y="176.2183">isInfra() : Boolean</text></g><g class="entity" data-qualified-name="GMN6" data-source-line="38" id="ent0007"><path d="M199.76,306.2583 L199.76,377.5005 A0,0 0 0 0 199.76,377.5005 L489.9197,377.5005 A0,0 0 0 0 489.9197,377.5005 L489.9197,316.2583 L479.9197,306.2583 L327.74,306.2583 L264.8,208.2883 L319.74,306.2583 L199.76,306.2583 A0,0 0 0 0 199.76,306.2583" fill="#FEFFDD" style="stroke:#181818;stroke-width:0.5;"/><path d="M479.9197,306.2583 L479.9197,316.2583 L489.9197,316.2583 L479.9197,306.2583" fill="#FEFFDD" style="stroke:#181818;stroke-width:0.5;"/><text fill="#000000" font-family="sans-serif" font-size="13" lengthAdjust="spacing" textLength="269.1597" x="205.76" y="323.8266">templates::brief() / MDD_BRIEF_TEMPLATE,</text><text fill="#000000" font-family="sans-serif" font-size="13" lengthAdjust="spacing" textLength="261.0283" x="205.76" y="339.1372">scaffolded create-if-missing by mdd init.</text><text fill="#000000" font-family="sans-serif" font-size="13" lengthAdjust="spacing" textLength="260.5078" x="205.76" y="354.4477">Signed off before any model is generated</text><text fill="#000000" font-family="sans-serif" font-size="13" lengthAdjust="spacing" textLength="226.459" x="205.76" y="369.7583">(OCL-KICKOFF-BRIEF-SIGNED-OFF).</text></g><g class="entity" data-qualified-name="GMN9" data-source-line="45" id="ent0010"><path d="M525.26,290.9483 L525.26,392.8116 A0,0 0 0 0 525.26,392.8116 L888.4368,392.8116 A0,0 0 0 0 888.4368,392.8116 L888.4368,300.9483 L878.4368,290.9483 L710.84,290.9483 L706.84,183.6183 L702.84,290.9483 L525.26,290.9483 A0,0 0 0 0 525.26,290.9483" fill="#FEFFDD" style="stroke:#181818;stroke-width:0.5;"/><path d="M878.4368,290.9483 L878.4368,300.9483 L888.4368,300.9483 L878.4368,290.9483" fill="#FEFFDD" style="stroke:#181818;stroke-width:0.5;"/><text fill="#000000" font-family="sans-serif" font-size="13" lengthAdjust="spacing" textLength="277.8052" x="531.26" y="308.5166">extract_scope_ids + Project::plan_scope_ids</text><text fill="#000000" font-family="sans-serif" font-size="13" lengthAdjust="spacing" textLength="310.4829" x="531.26" y="323.8272">parse @scope; isInfra() == scope empty. Validate</text><text fill="#000000" font-family="sans-serif" font-size="13" lengthAdjust="spacing" textLength="219.356" x="531.26" y="339.1377">warns when a scope id is unknown</text><text fill="#000000" font-family="sans-serif" font-size="13" lengthAdjust="spacing" textLength="342.1768" x="531.26" y="354.4483">(OCL-KICKOFF-SCOPE-IDS-EXIST) or the union misses</text><text fill="#000000" font-family="sans-serif" font-size="13" lengthAdjust="spacing" textLength="179.353" x="531.26" y="369.7588">an impl-bearing objective id</text><text fill="#000000" font-family="sans-serif" font-size="13" lengthAdjust="spacing" textLength="270.1563" x="531.26" y="385.0694">(OCL-KICKOFF-PLAN-COVERS-OBJECTIVE).</text></g><!--reverse link Brief to AdrEntry--><g class="link" data-entity-1="ent0002" data-entity-2="ent0003" data-link-type="aggregation" data-source-line="35" id="lnk5"><path codeLine="35" d="M160.2732,218.5402 C144.8332,243.9202 134.37,261.1183 120.19,284.4183" fill="none" id="Brief-backto-AdrEntry" style="stroke:#181818;stroke-width:1;"/><polygon fill="none" points="166.51,208.2883,159.9743,211.3353,160.2732,218.5402,166.8089,215.4932,166.51,208.2883" style="stroke:#181818;stroke-width:1;"/><polygon fill="#000000" points="149.351,250.835,156.5633,244.6355,151.5419,241.5802,149.351,250.835" style="stroke:#000000;stroke-width:1;"/><text fill="#000000" font-family="sans-serif" font-size="13" lengthAdjust="spacing" textLength="47.3345" x="160.95" y="251.4766">records</text><text fill="#000000" font-family="sans-serif" font-size="13" lengthAdjust="spacing" textLength="8.2202" x="153.9362" y="228.5692">1</text><text fill="#000000" font-family="sans-serif" font-size="13" lengthAdjust="spacing" textLength="6.2651" x="118.0265" y="274.0878">*</text></g><?plantuml-src XLJ1SY8t4Btp5LrS5X84crnInUwwRCFODR4nn4ESt2WXzHZ5Gg8a0I6fLELhyc7vahGqWm6RhPnWfDRhVg-xtmTWZC5sOJMo9L_1ojaD6cu4za7iX4O82nv0cU2iN0kKW5miu5B9-B3n0IvJL6iu7h7hnpoxwS37Zz__q3wzcTnVFR1YC9vaHzTA7buT7no2qwb4BuxXc_bofN699b0nt5Dz2Dsbb3rfXU_DdSAIFY4WXV60qDh_y_r-keKUZ8R3MOARJRCHvPjcxGvumSlIQacm1IBzZ4a5cE-0m4a05Q2rTIhWBE3lOIOS4kPCbREbybwPvpPu2nnAfJLAfWnKoPG7Wnjq8BITpz6Xx4AF4DcB4Y-sBDC33uJEZKna98Lhkw8dNZsRT1NZvbXQXnH51Lc9EY8_eq57PSXFCKhv-hqNJgs2igRAj8y2OOrVBz5tcwVA7hVdhRp4rN4HPbvGIJCbFRHMt7dqS9cEMf-LlEZy-_S_RIYTNLQjS5ol5hq8Ivzj-1Ocplw68lJxr0bpmEh0Ig-fwgrD8c-uLZ8MwjQQsWLHjnr4c3ePqDWvz5PlA7yWkGtOUGHM6uppqtaLiOvVcwY2e9bslePJUtuyAiJco1rrxnG7MZyN6UiLsK-i5mNg3KOJ-fpIlz7WZhMxS6t30ZZruvUhnuVyuJObLgHpe9nKVDMALBhWZYPXhrSN7gCuuEmwl1vIzt1PCI9-fC8VoBnMD7vfXpg4N3f-YAewgkclrNKt1sldY1JpIj88s2Md2QI1IMKyEqHJAjGIzbFNgfOxBMEt4LIWZzltOJLGIrJexKP3Q4xahjDi_za0wkr1kJuK8OgPZfKf4hK-t2iVFbSt5zMBTHYNNxsLA9IdrlZzvPLq6VdFhhgEd6F3phmaaVovyxX7jCx4fq-D8wlZfl7NdieUlMP3EnBt-vJBlgJJKvScYEitnBaEw0oFYlZ3pMk-2Mr0Jesiyvr9PWqU5Pe876kLougLydcSYbRxb5NLckPtJR3axCrlcWU6VHekOHtjy4MZOImjsjo6G4jhowgZXFlMBGd-d5zsAFJ8C2itPAfajHiU-sQNOelKWlytCWfjZGVtx2uVt8rlRYhJPqL--v0D6HtGi29jMYp-7OMzieJnthM-wa4KdGojNiLFHxf--L8hJvg4NHUUQd-Y9rlkQ42t2pIqig_UH4pMviNOhNdB8xahouS5otxDYsaRwjMi32gAXh4IChJeJsTSIRsJ9hdsOFoKFHPiVFrZDfZcJzcHFly1?></g></svg>