<svg xmlns="http://www.w3.org/2000/svg" xmlns:xlink="http://www.w3.org/1999/xlink" contentStyleType="text/css" data-diagram-type="CLASS" height="304px" preserveAspectRatio="none" style="width:398px;height:304px;background:#FFFFFF;" version="1.1" viewBox="0 0 398 304" width="398px" zoomAndPan="magnify"><?plantuml 1.2026.3?><defs/><g><g class="title" data-source-line="5"><text fill="#000000" font-family="sans-serif" font-size="14" font-weight="700" lengthAdjust="spacing" textLength="294.2324" x="48.6228" y="23.5352">MDD scoped re-map &#8212; domain (current)</text></g><!--class MapScopePlan--><g class="entity" data-qualified-name="MapScopePlan" data-source-line="7" id="ent0002"><rect fill="#F1F1F1" height="113.9531" rx="2.5" ry="2.5" style="stroke:#181818;stroke-width:0.5;" width="225.7461" x="81.87" y="44.4883"/><ellipse cx="142.1288" cy="60.4883" fill="#ADD1B2" rx="11" ry="11" style="stroke:#181818;stroke-width:1;"/><path d="M144.6019,66.6313 Q144.0209,66.9302 143.3817,67.0796 Q142.7426,67.229 142.037,67.229 Q139.5302,67.229 138.2103,65.5771 Q136.8905,63.9253 136.8905,60.8042 Q136.8905,57.6748 138.2103,56.0229 Q139.5302,54.3711 142.037,54.3711 Q142.7426,54.3711 143.39,54.5205 Q144.0375,54.6699 144.6019,54.9688 L144.6019,57.6914 Q143.9711,57.1104 143.3776,56.8406 Q142.7841,56.5708 142.1532,56.5708 Q140.8085,56.5708 140.1237,57.6375 Q139.4388,58.7041 139.4388,60.8042 Q139.4388,62.896 140.1237,63.9626 Q140.8085,65.0293 142.1532,65.0293 Q142.7841,65.0293 143.3776,64.7595 Q143.9711,64.4897 144.6019,63.9087 Z " fill="#000000"/><text fill="#000000" font-family="sans-serif" font-size="14" lengthAdjust="spacing" textLength="96.7285" x="162.6288" y="65.7793">MapScopePlan</text><line style="stroke:#181818;stroke-width:0.5;" x1="82.87" x2="306.6161" y1="76.4883" y2="76.4883"/><g data-visibility-modifier="PUBLIC_FIELD"><ellipse cx="92.87" cy="90.2324" fill="none" rx="3" ry="3" style="stroke:#038048;stroke-width:1;"/></g><text fill="#000000" font-family="sans-serif" font-size="14" lengthAdjust="spacing" textLength="73.1855" x="101.87" y="94.0234">cycle : u32</text><g data-visibility-modifier="PUBLIC_FIELD"><ellipse cx="92.87" cy="106.7207" fill="none" rx="3" ry="3" style="stroke:#038048;stroke-width:1;"/></g><text fill="#000000" font-family="sans-serif" font-size="14" lengthAdjust="spacing" textLength="189.6631" x="101.87" y="110.5117">affected_files : Vec&lt;String&gt;</text><g data-visibility-modifier="PUBLIC_FIELD"><ellipse cx="92.87" cy="123.209" fill="none" rx="3" ry="3" style="stroke:#038048;stroke-width:1;"/></g><text fill="#000000" font-family="sans-serif" font-size="14" lengthAdjust="spacing" textLength="199.7461" x="101.87" y="127">scope_escapes : Vec&lt;String&gt;</text><g data-visibility-modifier="PUBLIC_FIELD"><ellipse cx="92.87" cy="139.6973" fill="none" rx="3" ry="3" style="stroke:#038048;stroke-width:1;"/></g><text fill="#000000" font-family="sans-serif" font-size="14" lengthAdjust="spacing" textLength="115.418" x="101.87" y="143.4883">full_remap : bool</text><line style="stroke:#181818;stroke-width:0.5;" x1="82.87" x2="306.6161" y1="150.4414" y2="150.4414"/></g><g class="entity" data-qualified-name="GMN3" data-source-line="15" id="ent0004"><path d="M6,218.4483 L6,289.6905 A0,0 0 0 0 6,289.6905 L383.478,289.6905 A0,0 0 0 0 383.478,289.6905 L383.478,228.4483 L373.478,218.4483 L198.74,218.4483 L194.74,158.5483 L190.74,218.4483 L6,218.4483 A0,0 0 0 0 6,218.4483" fill="#FEFFDD" style="stroke:#181818;stroke-width:0.5;"/><path d="M373.478,218.4483 L373.478,228.4483 L383.478,228.4483 L373.478,218.4483" fill="#FEFFDD" style="stroke:#181818;stroke-width:0.5;"/><text fill="#000000" font-family="sans-serif" font-size="13" lengthAdjust="spacing" textLength="319.96" x="12" y="236.0166">full_remap is derived as !scope_escapes.is_empty()</text><text fill="#000000" font-family="sans-serif" font-size="13" lengthAdjust="spacing" textLength="356.478" x="12" y="251.3272">in Project::map_scope; the consumer re-maps the whole</text><text fill="#000000" font-family="sans-serif" font-size="13" lengthAdjust="spacing" textLength="269.2168" x="12" y="266.6377">tree when true. Built by inverting trace.yml</text><text fill="#000000" font-family="sans-serif" font-size="13" lengthAdjust="spacing" textLength="296.8164" x="12" y="281.9483">source_links over the git changeset since base.</text></g><?plantuml-src TPFFRjim3CRlVWgkboPOx0JhpVk3jijkoneimwwk8j6nEbaoA3f3LXJOG-m9zoIZbHxYjhjPvlTHv8_KEUHv3Z-Ru31lLGSTXJrwvJMMe0_Q8N2Z6And2gRNQ02LRk3Ici6OdSDbKasMDwjyTRNEDnzlrf_ozUUhBpDOB2uMqq5YpGln534OzOlUivNgDZfqk7RAo_MWIJ76UMjChWFXF9AUExijA9PmVoorXFxYpGnKNQDcD5Lj7KhqE-ft6oRhTnzc48USbTogkcUnkdUk8XGC9Mn3SF0mWmsILSx-mk99Nb3UZBE18WJ2BkI4Jh7T8tIAcmWrXHOKN7yZn0qoJ68WoJC3WwRlq4oBawlXFRmQfIrihB3j-30HtLVadhnCONk0DOKxAQWinLKborl0rhAaXZtILafe1zsjC0FHv4aZOxkBmTyMPzECBSk0LylbiH4ZrQSb-Flx3vZGAi4-qJqHUfvccNOgHXZDvJu3UFsu9ub-EZy1DQAS16Dip-CdD8wJo1wop0T6EJ0Bp52FwX3JYSL60Kk2tu2A_uSf9kdl9OZS8EZWOzyYFIA9wMTw9k9Z6QGSqCjNBvjntLl70shh1JnB7n9G6ej3wqGUGqyQAsVzZmZol2Wbsra6tIY_moWx4QqyETYgY4M6ibb3j_y0?></g></svg>