<svg xmlns="http://www.w3.org/2000/svg" xmlns:xlink="http://www.w3.org/1999/xlink" contentStyleType="text/css" data-diagram-type="DESCRIPTION" height="675px" preserveAspectRatio="none" style="width:2523px;height:675px;background:#FFFFFF;" version="1.1" viewBox="0 0 2523 675" width="2523px" zoomAndPan="magnify"><?plantuml 1.2026.3?><defs/><g><g class="title" data-source-line="38"><text fill="#000000" font-family="sans-serif" font-size="14" font-weight="700" lengthAdjust="spacing" textLength="313.7627" x="1101.2616" y="23.5352">mdd-viewer UI shell &#8212; ownership (current)</text></g><!--entity Dev--><g class="entity" data-qualified-name="Dev" data-source-line="40" id="ent0002"><ellipse cx="41.7292" cy="69.9297" fill="#90EE90" rx="8" ry="8" style="stroke:#181818;stroke-width:0.5;"/><path d="M41.7292,77.9297 L41.7292,104.9297 M28.7292,85.9297 L54.7292,85.9297 M41.7292,104.9297 L28.7292,119.9297 M41.7292,104.9297 L54.7292,119.9297" fill="none" style="stroke:#181818;stroke-width:0.5;"/><text fill="#000000" font-family="sans-serif" font-size="14" lengthAdjust="spacing" textLength="68.3184" x="7.57" y="134.9648">Developer</text><text fill="#000000" font-family="sans-serif" font-size="14" font-style="italic" lengthAdjust="spacing" textLength="56.6357" x="13.4113" y="58.4766">&#171;added&#187;</text></g><!--entity Viewer--><g class="entity" data-qualified-name="Viewer" data-source-line="42" id="ent0003"><rect fill="#F1F1F1" height="79.4648" rx="2.5" ry="2.5" style="stroke:#181818;stroke-width:0.5;" width="132.5244" x="854.47" y="214.9214"/><rect fill="#F1F1F1" height="10" style="stroke:#181818;stroke-width:0.5;" width="15" x="966.9944" y="219.9214"/><rect fill="#F1F1F1" height="2" style="stroke:#181818;stroke-width:0.5;" width="4" x="964.9944" y="221.9214"/><rect fill="#F1F1F1" height="2" style="stroke:#181818;stroke-width:0.5;" width="4" x="964.9944" y="225.9214"/><text fill="#000000" font-family="sans-serif" font-size="14" lengthAdjust="spacing" textLength="74.9971" x="869.47" y="248.4566">MddViewer</text><text fill="#000000" font-family="sans-serif" font-size="14" lengthAdjust="spacing" textLength="92.5244" x="869.47" y="264.9448">(eframe::App)</text><text fill="#000000" font-family="sans-serif" font-size="14" lengthAdjust="spacing" textLength="56.1846" x="869.47" y="281.4331">update()</text></g><!--entity Left--><g class="entity" data-qualified-name="Left" data-source-line="43" id="ent0004"><rect fill="#F1F1F1" height="62.9766" rx="2.5" ry="2.5" style="stroke:#181818;stroke-width:0.5;" width="138.9023" x="1546.28" y="394.6314"/><rect fill="#F1F1F1" height="10" style="stroke:#181818;stroke-width:0.5;" width="15" x="1665.1823" y="399.6314"/><rect fill="#F1F1F1" height="2" style="stroke:#181818;stroke-width:0.5;" width="4" x="1663.1823" y="401.6314"/><rect fill="#F1F1F1" height="2" style="stroke:#181818;stroke-width:0.5;" width="4" x="1663.1823" y="405.6314"/><text fill="#000000" font-family="sans-serif" font-size="14" lengthAdjust="spacing" textLength="90.8633" x="1561.28" y="428.1666">SidePanel left</text><text fill="#000000" font-family="sans-serif" font-size="14" lengthAdjust="spacing" textLength="98.9023" x="1561.28" y="444.6548">\"rail\" / sliver</text></g><!--entity Right--><g class="entity" data-qualified-name="Right" data-source-line="44" id="ent0005"><rect fill="#F1F1F1" height="62.9766" rx="2.5" ry="2.5" style="stroke:#181818;stroke-width:0.5;" width="168.666" x="1720.4" y="394.6314"/><rect fill="#F1F1F1" height="10" style="stroke:#181818;stroke-width:0.5;" width="15" x="1869.066" y="399.6314"/><rect fill="#F1F1F1" height="2" style="stroke:#181818;stroke-width:0.5;" width="4" x="1867.066" y="401.6314"/><rect fill="#F1F1F1" height="2" style="stroke:#181818;stroke-width:0.5;" width="4" x="1867.066" y="405.6314"/><text fill="#000000" font-family="sans-serif" font-size="14" lengthAdjust="spacing" textLength="101.0625" x="1735.4" y="428.1666">SidePanel right</text><text fill="#000000" font-family="sans-serif" font-size="14" lengthAdjust="spacing" textLength="128.666" x="1735.4" y="444.6548">\"context\" / sliver</text></g><!--entity Toolbar--><g class="entity" data-qualified-name="Toolbar" data-source-line="45" id="ent0006"><rect fill="#F1F1F1" height="79.4648" rx="2.5" ry="2.5" style="stroke:#181818;stroke-width:0.5;" width="214.4736" x="213.49" y="386.3814"/><rect fill="#F1F1F1" height="10" style="stroke:#181818;stroke-width:0.5;" width="15" x="407.9636" y="391.3814"/><rect fill="#F1F1F1" height="2" style="stroke:#181818;stroke-width:0.5;" width="4" x="405.9636" y="393.3814"/><rect fill="#F1F1F1" height="2" style="stroke:#181818;stroke-width:0.5;" width="4" x="405.9636" y="397.3814"/><text fill="#000000" font-family="sans-serif" font-size="14" lengthAdjust="spacing" textLength="78.8662" x="228.49" y="419.9166">svg_toolbar</text><text fill="#000000" font-family="sans-serif" font-size="14" lengthAdjust="spacing" textLength="148.6816" x="228.49" y="436.4048">(PAGE selector + hint;</text><text fill="#000000" font-family="sans-serif" font-size="14" lengthAdjust="spacing" textLength="174.4736" x="228.49" y="452.8931">no Reset/Zoom+/Zoom-)</text></g><!--entity Fisheye--><g class="entity" data-qualified-name="Fisheye" data-source-line="46" id="ent0007"><rect fill="#F1F1F1" height="62.9766" rx="2.5" ry="2.5" style="stroke:#181818;stroke-width:0.5;" width="220.4961" x="1924.48" y="394.6314"/><rect fill="#F1F1F1" height="10" style="stroke:#181818;stroke-width:0.5;" width="15" x="2124.9761" y="399.6314"/><rect fill="#F1F1F1" height="2" style="stroke:#181818;stroke-width:0.5;" width="4" x="2122.9761" y="401.6314"/><rect fill="#F1F1F1" height="2" style="stroke:#181818;stroke-width:0.5;" width="4" x="2122.9761" y="405.6314"/><text fill="#000000" font-family="sans-serif" font-size="14" lengthAdjust="spacing" textLength="141.4902" x="1939.48" y="428.1666">Fisheye canvas stage</text><text fill="#000000" font-family="sans-serif" font-size="14" lengthAdjust="spacing" textLength="180.4961" x="1939.48" y="444.6548">CanvasView::fisheye_mesh</text></g><!--entity PL--><g class="entity" data-qualified-name="PL" data-source-line="47" id="ent0008"><rect fill="#F1F1F1" height="46.4883" rx="2.5" ry="2.5" style="stroke:#181818;stroke-width:0.5;" width="121.04" x="1788.21" y="578.1914"/><rect fill="#F1F1F1" height="10" style="stroke:#181818;stroke-width:0.5;" width="15" x="1889.25" y="583.1914"/><rect fill="#F1F1F1" height="2" style="stroke:#181818;stroke-width:0.5;" width="4" x="1887.25" y="585.1914"/><rect fill="#F1F1F1" height="2" style="stroke:#181818;stroke-width:0.5;" width="4" x="1887.25" y="589.1914"/><text fill="#000000" font-family="sans-serif" font-size="14" lengthAdjust="spacing" textLength="81.04" x="1803.21" y="611.7266">PanelLayout</text></g><!--entity CV--><g class="entity" data-qualified-name="CV" data-source-line="48" id="ent0009"><rect fill="#F1F1F1" height="46.4883" rx="2.5" ry="2.5" style="stroke:#181818;stroke-width:0.5;" width="120.0078" x="1959.73" y="578.1914"/><rect fill="#F1F1F1" height="10" style="stroke:#181818;stroke-width:0.5;" width="15" x="2059.7378" y="583.1914"/><rect fill="#F1F1F1" height="2" style="stroke:#181818;stroke-width:0.5;" width="4" x="2057.7378" y="585.1914"/><rect fill="#F1F1F1" height="2" style="stroke:#181818;stroke-width:0.5;" width="4" x="2057.7378" y="589.1914"/><text fill="#000000" font-family="sans-serif" font-size="14" lengthAdjust="spacing" textLength="80.0078" x="1974.73" y="611.7266">CanvasView</text></g><!--entity Egui--><g class="entity" data-qualified-name="Egui" data-source-line="49" id="ent0010"><rect fill="#F1F1F1" height="62.9766" rx="2.5" ry="2.5" style="stroke:#181818;stroke-width:0.5;" width="213.0586" x="380.2" y="569.9414"/><rect fill="#F1F1F1" height="10" style="stroke:#181818;stroke-width:0.5;" width="15" x="573.2586" y="574.9414"/><rect fill="#F1F1F1" height="2" style="stroke:#181818;stroke-width:0.5;" width="4" x="571.2586" y="576.9414"/><rect fill="#F1F1F1" height="2" style="stroke:#181818;stroke-width:0.5;" width="4" x="571.2586" y="580.9414"/><text fill="#000000" font-family="sans-serif" font-size="14" lengthAdjust="spacing" textLength="128.1602" x="395.2" y="603.4766">eframe / egui 0.30</text><text fill="#000000" font-family="sans-serif" font-size="14" lengthAdjust="spacing" textLength="173.0586" x="395.2" y="619.9648">painter.add(Shape::mesh)</text></g><!--entity Theme--><g class="entity" data-qualified-name="Theme" data-source-line="50" id="ent0011"><rect fill="#F1F1F1" height="79.4648" rx="2.5" ry="2.5" style="stroke:#181818;stroke-width:0.5;" width="185.8037" x="462.83" y="386.3814"/><rect fill="#F1F1F1" height="10" style="stroke:#181818;stroke-width:0.5;" width="15" x="628.6337" y="391.3814"/><rect fill="#F1F1F1" height="2" style="stroke:#181818;stroke-width:0.5;" width="4" x="626.6337" y="393.3814"/><rect fill="#F1F1F1" height="2" style="stroke:#181818;stroke-width:0.5;" width="4" x="626.6337" y="397.3814"/><text fill="#000000" font-family="sans-serif" font-size="14" lengthAdjust="spacing" textLength="101.6572" x="477.83" y="419.9166">Theme module</text><text fill="#000000" font-family="sans-serif" font-size="14" lengthAdjust="spacing" textLength="68.8721" x="477.83" y="436.4048">(theme.rs,</text><text fill="#000000" font-family="sans-serif" font-size="14" lengthAdjust="spacing" textLength="145.8037" x="477.83" y="452.8931">CMP-VIEWER-THEME)</text></g><g class="entity" data-qualified-name="GMN24" data-source-line="66" id="ent0025"><path d="M2115.18,565.8114 L2115.18,637.0536 L2508.286,637.0536 L2508.286,575.8114 L2498.286,565.8114 L2115.18,565.8114" fill="#FEFFDD" style="stroke:#181818;stroke-width:0.5;"/><path d="M2498.286,565.8114 L2498.286,575.8114 L2508.286,575.8114 L2498.286,565.8114" fill="#FEFFDD" style="stroke:#181818;stroke-width:1;"/><text fill="#000000" font-family="sans-serif" font-size="13" lengthAdjust="spacing" textLength="340.0059" x="2121.18" y="583.3798">The fisheye is a display-time stage on top of the base</text><text fill="#000000" font-family="sans-serif" font-size="13" lengthAdjust="spacing" textLength="362.9971" x="2121.18" y="598.6903">zoom/pan placement; it does not change the render/font</text><text fill="#000000" font-family="sans-serif" font-size="13" lengthAdjust="spacing" textLength="372.106" x="2121.18" y="614.0009">pipeline (CMP-VIEWER-RENDER-PIPELINE) &#8212; it only remaps</text><text fill="#000000" font-family="sans-serif" font-size="13" lengthAdjust="spacing" textLength="302.5293" x="2121.18" y="629.3114">where the already-rasterized texture is painted.</text></g><!--entity Launch--><g class="entity" data-qualified-name="Launch" data-source-line="72" id="ent0027"><rect fill="#F1F1F1" height="79.4648" rx="2.5" ry="2.5" style="stroke:#181818;stroke-width:0.5;" width="456.2471" x="1054.61" y="386.3814"/><rect fill="#F1F1F1" height="10" style="stroke:#181818;stroke-width:0.5;" width="15" x="1490.8571" y="391.3814"/><rect fill="#F1F1F1" height="2" style="stroke:#181818;stroke-width:0.5;" width="4" x="1488.8571" y="393.3814"/><rect fill="#F1F1F1" height="2" style="stroke:#181818;stroke-width:0.5;" width="4" x="1488.8571" y="397.3814"/><text fill="#000000" font-family="sans-serif" font-size="14" lengthAdjust="spacing" textLength="115.4727" x="1069.61" y="419.9166">MockupLauncher</text><text fill="#000000" font-family="sans-serif" font-size="14" lengthAdjust="spacing" textLength="171.1309" x="1069.61" y="436.4048">(CMP-MOCKUP-LAUNCH)</text><text fill="#000000" font-family="sans-serif" font-size="14" lengthAdjust="spacing" textLength="416.2471" x="1069.61" y="452.8931">open_mockup_render &#183; mockup_server_up &#183; open_in_browser</text></g><!--entity Vite--><g class="entity" data-qualified-name="Vite" data-source-line="73" id="ent0028"><rect fill="#F1F1F1" height="62.9766" rx="2.5" ry="2.5" style="stroke:#181818;stroke-width:0.5;" width="307.2578" x="1446.1" y="569.9414"/><rect fill="#F1F1F1" height="10" style="stroke:#181818;stroke-width:0.5;" width="15" x="1733.3578" y="574.9414"/><rect fill="#F1F1F1" height="2" style="stroke:#181818;stroke-width:0.5;" width="4" x="1731.3578" y="576.9414"/><rect fill="#F1F1F1" height="2" style="stroke:#181818;stroke-width:0.5;" width="4" x="1731.3578" y="580.9414"/><text fill="#000000" font-family="sans-serif" font-size="14" lengthAdjust="spacing" textLength="86.3926" x="1461.1" y="603.4766">npm run dev</text><text fill="#000000" font-family="sans-serif" font-size="14" lengthAdjust="spacing" textLength="267.2578" x="1461.1" y="619.9648">(Vite dev server, :4317, cwd mockups/)</text></g><!--entity Browser--><g class="entity" data-qualified-name="Browser" data-source-line="74" id="ent0029"><rect fill="#F1F1F1" height="62.9766" rx="2.5" ry="2.5" style="stroke:#181818;stroke-width:0.5;" width="214.6035" x="658.43" y="569.9414"/><rect fill="#F1F1F1" height="10" style="stroke:#181818;stroke-width:0.5;" width="15" x="853.0335" y="574.9414"/><rect fill="#F1F1F1" height="2" style="stroke:#181818;stroke-width:0.5;" width="4" x="851.0335" y="576.9414"/><rect fill="#F1F1F1" height="2" style="stroke:#181818;stroke-width:0.5;" width="4" x="851.0335" y="580.9414"/><text fill="#000000" font-family="sans-serif" font-size="14" lengthAdjust="spacing" textLength="129.3291" x="673.43" y="603.4766">OS default browser</text><text fill="#000000" font-family="sans-serif" font-size="14" lengthAdjust="spacing" textLength="174.6035" x="673.43" y="619.9648">(open / xdg-open / start)</text></g><g class="entity" data-qualified-name="GMN33" data-source-line="81" id="ent0034"><path d="M908.33,542.8514 L908.33,660.0252 A0,0 0 0 0 908.33,660.0252 L1411.1362,660.0252 A0,0 0 0 0 1411.1362,660.0252 L1411.1362,552.8514 L1401.1362,542.8514 L1204.79,542.8514 L1255.13,466.0114 L1196.79,542.8514 L908.33,542.8514 A0,0 0 0 0 908.33,542.8514" fill="#FEFFDD" style="stroke:#181818;stroke-width:0.5;"/><path d="M1401.1362,542.8514 L1401.1362,552.8514 L1411.1362,552.8514 L1401.1362,542.8514" fill="#FEFFDD" style="stroke:#181818;stroke-width:0.5;"/><text fill="#000000" font-family="sans-serif" font-size="13" lengthAdjust="spacing" textLength="481.8062" x="914.33" y="560.4198">Code (CMP-MOCKUP-LAUNCH / USE-OPEN-RENDER): selected_render_slug()</text><text fill="#000000" font-family="sans-serif" font-size="13" lengthAdjust="spacing" textLength="355.875" x="914.33" y="575.7303">enables the button only for a ModelKind::Mockup whose</text><text fill="#000000" font-family="sans-serif" font-size="13" lengthAdjust="spacing" textLength="442.4761" x="914.33" y="591.0409">mockups/src/mockups/&lt;slug&gt;.tsx exists. open_mockup_render runs</text><text fill="#000000" font-family="sans-serif" font-size="13" lengthAdjust="spacing" textLength="412.896" x="914.33" y="606.3514">off the UI thread (std::thread): mockup_server_up() probes :4317,</text><text fill="#000000" font-family="sans-serif" font-size="13" lengthAdjust="spacing" textLength="441.8096" x="914.33" y="621.662">spawns npm run dev (cwd &lt;root&gt;/mockups) if down and polls until it</text><text fill="#000000" font-family="sans-serif" font-size="13" lengthAdjust="spacing" textLength="420.564" x="914.33" y="636.9725">binds, then open_in_browser opens /mockup/&lt;slug&gt;. Realized by</text><text fill="#000000" font-family="sans-serif" font-size="13" lengthAdjust="spacing" textLength="127.1118" x="914.33" y="652.283">SEQ-OPEN-RENDER.</text></g><!--link Dev to Viewer--><g class="link" data-entity-1="ent0002" data-entity-2="ent0003" data-link-type="dependency" data-source-line="52" id="lnk12"><path d="M76.19,98.7514 C207.6,122.8514 672.7685,208.1687 848.2885,240.3687" fill="none" id="Dev-to-Viewer" style="stroke:#181818;stroke-width:1;"/><polygon fill="#181818" points="854.19,241.4514,846.0595,235.8931,849.2721,240.5492,844.616,243.7618,854.19,241.4514" style="stroke:#181818;stroke-width:1;"/><text fill="#000000" font-family="sans-serif" font-size="13" lengthAdjust="spacing" textLength="60.3599" x="534.86" y="181.4898">mdd view</text></g><!--link Viewer to Theme--><g class="link" data-entity-1="ent0003" data-entity-2="ent0011" data-link-type="dependency" data-source-line="53" id="lnk13"><path d="M854.05,257.5514 C754.36,261.9714 573.83,276.5314 533.73,324.3814 C519.47,341.3914 521.8477,360.0375 530.4977,380.4375" fill="none" id="Viewer-to-Theme" style="stroke:#181818;stroke-width:1;"/><polygon fill="#181818" points="532.84,385.9614,533.0092,376.114,530.8881,381.3581,525.644,379.237,532.84,385.9614" style="stroke:#181818;stroke-width:1;"/><text fill="#000000" font-family="sans-serif" font-size="13" lengthAdjust="spacing" textLength="257.2642" x="538.802" y="337.9498">theme::register_fonts(&amp;cc.egui_ctx) once</text><text fill="#000000" font-family="sans-serif" font-size="13" lengthAdjust="spacing" textLength="265.4082" x="534.73" y="353.2603">+ theme::apply_theme(ctx) first per frame</text></g><!--link Theme to Egui--><g class="link" data-entity-1="ent0011" data-entity-2="ent0010" data-link-type="dependency" data-source-line="54" id="lnk14"><path d="M504.11,466.0114 C495.81,474.8414 488.42,484.8814 483.73,495.8514 C473.73,519.2314 474.5398,542.3988 478.2598,563.9588" fill="none" id="Theme-to-Egui" style="stroke:#181818;stroke-width:1;"/><polygon fill="#181818" points="479.28,569.8714,481.6915,560.3223,478.4299,564.9442,473.808,561.6826,479.28,569.8714" style="stroke:#181818;stroke-width:1;"/><text fill="#000000" font-family="sans-serif" font-size="13" lengthAdjust="spacing" textLength="270.3403" x="484.73" y="509.4198">FontDefinitions + Visuals + Style overrides</text></g><!--link Viewer to Left--><g class="link" data-entity-1="ent0003" data-entity-2="ent0004" data-link-type="dependency" data-source-line="55" id="lnk15"><path d="M987.16,260.3214 C1073.94,267.7314 1229.87,285.5114 1357.73,324.3814 C1390.07,334.2114 1395.09,344.4714 1426.73,356.3814 C1470.95,373.0314 1484.38,370.0714 1528.73,386.3814 C1535.25,388.7814 1536.4247,389.1402 1543.1047,391.9002" fill="none" id="Viewer-to-Left" style="stroke:#181818;stroke-width:1;"/><polygon fill="#181818" points="1548.65,394.1914,1541.8595,387.0578,1544.0289,392.2821,1538.8046,394.4515,1548.65,394.1914" style="stroke:#181818;stroke-width:1;"/><text fill="#000000" font-family="sans-serif" font-size="13" lengthAdjust="spacing" textLength="203.3091" x="1427.73" y="345.4498">draw + collapse chevron / sliver</text></g><!--link Viewer to Right--><g class="link" data-entity-1="ent0003" data-entity-2="ent0005" data-link-type="dependency" data-source-line="56" id="lnk16"><path d="M987.38,258.2114 C1141.11,264.7314 1516.47,284.3614 1635.73,324.3814 C1661.46,333.0114 1664.47,342.4014 1687.73,356.3814 C1708.52,368.8914 1726.3539,379.417 1746.4139,391.177" fill="none" id="Viewer-to-Right" style="stroke:#181818;stroke-width:1;"/><polygon fill="#181818" points="1751.59,394.2114,1745.8488,386.209,1747.2766,391.6827,1741.8029,393.1105,1751.59,394.2114" style="stroke:#181818;stroke-width:1;"/><text fill="#000000" font-family="sans-serif" font-size="13" lengthAdjust="spacing" textLength="203.3091" x="1688.73" y="345.4498">draw + collapse chevron / sliver</text></g><!--link Left to PL--><g class="link" data-entity-1="ent0004" data-entity-2="ent0008" data-link-type="dependency" data-source-line="57" id="lnk17"><path d="M1657.38,458.1014 C1703.59,492.4714 1772.2254,543.5309 1813.3854,574.1409" fill="none" id="Left-to-PL" style="stroke:#181818;stroke-width:1;"/><polygon fill="#181818" points="1818.2,577.7214,1813.3652,569.1409,1814.1879,574.7377,1808.5912,575.5604,1818.2,577.7214" style="stroke:#181818;stroke-width:1;"/><text fill="#000000" font-family="sans-serif" font-size="13" lengthAdjust="spacing" textLength="75.6577" x="1726.24" y="509.4198">toggle_left()</text></g><!--link Right to PL--><g class="link" data-entity-1="ent0005" data-entity-2="ent0008" data-link-type="dependency" data-source-line="58" id="lnk18"><path d="M1812.6,458.1014 C1821.32,492.4714 1833.7138,541.2958 1841.4838,571.9058" fill="none" id="Right-to-PL" style="stroke:#181818;stroke-width:1;"/><polygon fill="#181818" points="1842.96,577.7214,1844.6227,568.0139,1841.7298,572.8751,1836.8686,569.9822,1842.96,577.7214" style="stroke:#181818;stroke-width:1;"/><text fill="#000000" font-family="sans-serif" font-size="13" lengthAdjust="spacing" textLength="85.1284" x="1826.41" y="509.4198">toggle_right()</text></g><!--link Viewer to Toolbar--><g class="link" data-entity-1="ent0003" data-entity-2="ent0006" data-link-type="dependency" data-source-line="59" id="lnk19"><path d="M854.13,255.5514 C722.77,256.6514 436.47,265.9114 360.73,324.3814 C341.59,339.1614 333.0019,358.6499 327.7819,380.2099" fill="none" id="Viewer-to-Toolbar" style="stroke:#181818;stroke-width:1;"/><polygon fill="#181818" points="326.37,386.0414,332.3755,378.2354,327.5466,381.1818,324.6002,376.3529,326.37,386.0414" style="stroke:#181818;stroke-width:1;"/><text fill="#000000" font-family="sans-serif" font-size="13" lengthAdjust="spacing" textLength="154.3687" x="361.73" y="345.4498">draw (no zoom controls)</text></g><!--link Viewer to Fisheye--><g class="link" data-entity-1="ent0003" data-entity-2="ent0007" data-link-type="dependency" data-source-line="60" id="lnk20"><path d="M987.37,255.5814 C1179.11,256.1214 1729.11,263.1214 1896.73,324.3814 C1937.82,339.4014 1972.9251,366.5212 1999.0751,390.2312" fill="none" id="Viewer-to-Fisheye" style="stroke:#181818;stroke-width:1;"/><polygon fill="#181818" points="2003.52,394.2614,1999.5394,385.2528,1999.8159,390.9029,1994.1658,391.1794,2003.52,394.2614" style="stroke:#181818;stroke-width:1;"/><text fill="#000000" font-family="sans-serif" font-size="13" lengthAdjust="spacing" textLength="206.9209" x="1955.18" y="345.4498">warp rendered texture per frame</text></g><!--link Fisheye to CV--><g class="link" data-entity-1="ent0007" data-entity-2="ent0009" data-link-type="dependency" data-source-line="61" id="lnk21"><path d="M2032.05,458.1014 C2029.07,492.4714 2024.8575,541.1338 2022.2075,571.7438" fill="none" id="Fisheye-to-CV" style="stroke:#181818;stroke-width:1;"/><polygon fill="#181818" points="2021.69,577.7214,2026.4513,569.0999,2022.1213,572.74,2018.4812,568.4099,2021.69,577.7214" style="stroke:#181818;stroke-width:1;"/><text fill="#000000" font-family="sans-serif" font-size="13" lengthAdjust="spacing" textLength="236.209" x="2029.57" y="509.4198">focal=centre, strength, radius, warp()</text></g><!--link Viewer to Egui--><g class="link" data-entity-1="ent0003" data-entity-2="ent0010" data-link-type="dependency" data-source-line="62" id="lnk22"><path d="M875.26,294.6614 C849.62,318.8014 818.8,351.7314 798.73,386.3814 C769.25,437.2814 802.39,472.3514 759.73,512.8514 C720.17,550.4014 692.8,526.6014 640.73,542.8514 C615.52,550.7114 594.0437,558.2933 569.7137,567.4733" fill="none" id="Viewer-to-Egui" style="stroke:#181818;stroke-width:1;"/><polygon fill="#181818" points="564.1,569.5914,573.9326,570.1567,568.7781,567.8263,571.1085,562.6718,564.1,569.5914" style="stroke:#181818;stroke-width:1;"/><text fill="#000000" font-family="sans-serif" font-size="13" lengthAdjust="spacing" textLength="236.9009" x="799.73" y="431.1798">textured Mesh, clipped to canvas rect</text></g><!--link Egui to Dev--><g class="link" data-entity-1="ent0010" data-entity-2="ent0002" data-link-type="dependency" data-source-line="63" id="lnk23"><path d="M379.79,577.8814 C270.49,548.2514 107.7,484.2114 41.73,356.3814 C6,287.1514 16.464,199.3363 28.364,144.2063" fill="none" id="Egui-to-Dev" style="stroke:#181818;stroke-width:1;"/><polygon fill="#181818" points="29.63,138.3414,23.8211,146.2948,28.575,143.2288,31.641,147.9828,29.63,138.3414" style="stroke:#181818;stroke-width:1;"/><text fill="#000000" font-family="sans-serif" font-size="13" lengthAdjust="spacing" textLength="286.584" x="42.73" y="345.4498">centre-magnified diagram, collapsible panels</text></g><!--link Fisheye to GMN24--><g class="link" data-entity-1="ent0007" data-entity-2="ent0025" data-link-type="association" data-source-line="66" id="lnk26"><path d="M2145.38,436.6814 C2190.36,445.7414 2239.85,463.0314 2274.73,495.8514 C2293.95,513.9314 2303.19,542.6114 2307.64,565.3714" fill="none" id="Fisheye-GMN24" style="stroke:#181818;stroke-width:1;stroke-dasharray:7,7;"/></g><!--link Viewer to Launch--><g class="link" data-entity-1="ent0003" data-entity-2="ent0027" data-link-type="dependency" data-source-line="76" id="lnk30"><path d="M974.38,294.7814 C1003.86,315.0414 1041.66,339.0914 1077.73,356.3814 C1100.49,367.2914 1119.788,375.1978 1144.208,383.8978" fill="none" id="Viewer-to-Launch" style="stroke:#181818;stroke-width:1;"/><polygon fill="#181818" points="1149.86,385.9114,1142.7244,379.123,1145.15,384.2334,1140.0396,386.659,1149.86,385.9114" style="stroke:#181818;stroke-width:1;"/><text fill="#000000" font-family="sans-serif" font-size="13" lengthAdjust="spacing" textLength="205.8735" x="1113.1279" y="337.9498">open_mockup_render(root, slug)</text><text fill="#000000" font-family="sans-serif" font-size="13" lengthAdjust="spacing" textLength="274.6694" x="1078.73" y="353.2603">on "Open render" click (UIC-OPEN-RENDER)</text></g><!--link Launch to Vite--><g class="link" data-entity-1="ent0027" data-entity-2="ent0028" data-link-type="dependency" data-source-line="77" id="lnk31"><path d="M1341.44,466.1414 C1365.1,481.3314 1392.86,498.4914 1418.73,512.8514 C1455.21,533.0914 1491.6352,550.9792 1525.9052,567.0092" fill="none" id="Launch-to-Vite" style="stroke:#181818;stroke-width:1;"/><polygon fill="#181818" points="1531.34,569.5514,1524.8825,562.1149,1526.811,567.4329,1521.493,569.3614,1531.34,569.5514" style="stroke:#181818;stroke-width:1;"/><text fill="#000000" font-family="sans-serif" font-size="13" lengthAdjust="spacing" textLength="283.6641" x="1419.73" y="509.4198">spawn in mockups/ only if :4317 not serving</text></g><!--link Launch to Browser--><g class="link" data-entity-1="ent0027" data-entity-2="ent0029" data-link-type="dependency" data-source-line="78" id="lnk32"><path d="M1131.2,466.3314 C1057.76,486.7414 968.78,513.5214 890.73,542.8514 C870.04,550.6214 853.4189,557.758 833.6889,566.948" fill="none" id="Launch-to-Browser" style="stroke:#181818;stroke-width:1;"/><polygon fill="#181818" points="828.25,569.4814,838.0973,569.3073,832.7824,567.3702,834.7195,562.0554,828.25,569.4814" style="stroke:#181818;stroke-width:1;"/><text fill="#000000" font-family="sans-serif" font-size="13" lengthAdjust="spacing" textLength="147.0815" x="1030.08" y="509.4198">open /mockup/&lt;slug&gt;</text></g><?plantuml-src jLPHRXit4FtVKn0kqAmGhUGWHOiegL57KH8ZigDQiGiK0WHgbz8INf4BaYjPAGhq4BrB_tkKdgHlo9Myijoq7_MFBOcSDvoPDpFFtaXLSiENhB8YvLQmNoB6NlFqPc5qfRA-BhHvzOfdcSXEJjXNBuu7WnV73rqnOgbNuTBRjw-_xJ-BVeti3ZqjkBMFXQsNfLP2kKV2juwxnygB4QdZQb4y5ZvFdJQFX8s_JgQovFzpvf-m7sGMzyz7oVNPuAV1PJ9-FnWEM_Ix4VFuQZpm1ycRizDtbwVdOt-I2PiUsBJPqQTSCB6e9BEvA0gcvsoPPSbAYhKmZ5isgsJXs6p3phFisl_QwrLbXehtGAoYuAMLCvId47FNDNAHEpQMcHXn9GhRPfmvhOiPDsmjNSwKPf-rNWBLEQrmxk0-1JM5IURoLcHiBl6G3NxaQWNtuDP2u1PtRCrDQRs14IeJ1fUTk7ML4MmcvXh_IYwLase1jog3wv9GKGa244iS04wK0IqJXLWW2Y1griZBf_U3ym6BoK1qZ6rrZbgDX9z_x7-u6YN3qwkB_lkzZ7yS3IwIoy75cy7bVhxtJ93mqsrEuzIG_-vTlhlMfDr2piXlpqTQy4gbEKDf40iCHIuH6PsGHUBuZ3tvM0fLf-H9dTWEimWlTIARXeEfBQf5t69rnB0F5ryo3UlfKgStLLdVZOtMhit8eiLioTVAKXbp8tWMSfVoeh2iDhB2hE2WAW6FL9P6p_1kZJkvjgxtpVDdtxMtCAf4HrSAoLy5FgJhZBqYVoVT06UPLiM6oRb_PAcDOn9ssZ7oGoMCIx2EFbIeTS4ao8cSs9RdaWhnI3MT6Rs6YVyU8luuXjyvhuZEzI5YgVrsNr6y9nrseVqhfGBpYg9DZ4rpMMG90ai5PhJDAvVfjMBEe5dnaC2GVcMGFfTOaBynSQbCS6laYhXjGFs3Fe8ls7-931tMps5wHsEa12y0ucn3hh_0tiX9X-vizFJLMTtgV_tskqSnDfSbs1W2Q4LHc8b7RyHA54YVEQ8vW6ziDx6Yw2x2err04nKBtswztcbPjYOgn1UtF42uqpJSpGa_F2PgScIuB2P7h0lo8M71yH1d3rlvQKDcgLOq2UvRNj9vqzIk5jDw7E6jezDtWxfF4EvJXjPoBoSA1RyKLhZkpnXKJ_tV94JmAPWs4Ty-CAqcgk-_KS2zNZtFfajXSuzIcpHHV3X3lj6LyrT6m-Rf7Pe_x5yt3qF24RUVuSUTvySJvSUWC1qKAnxdl4Gzo7i8Oe1xJO1FH1NqSbOLUFcEEMr4SOzMTHBeGXGH7PBafAugwn73FDcZ-XSw3DX-aX4fZ5X8360pdQDUDluwJJlqwcdgRbje-nJ-dsxlyh8iDbF_9VRdSscieudEVCHHm2Ol516Sl0Ne6p6NIZg9rOA2NajRyO8-ZTq6JO15QWpOOvjl97h1EZDyZOlrHaD1Sx4oMkq8rJJnlFelDXwRB4P3oe9UGCTCYUjnAmeWzmyzfN7QJ6AzFsj_yNQ54kcDBkpUvIqVUtvR7YxAk_njRv9L_ne6SnhPtzCkDW836t_LmkLjPdWcAsng0jn_MPtu6ZjZvo1P6qfMbYMvrDkk80qN-SjaHSpfiU0dMVA5adE9wvda2poilISgIgyYeWZp7njBOsCjIQ5iMuWHmtQAGTAQogGj2xv9d0GxWdX0HPmkoSxlFMXu658Aku1dk9s2IMXzMYMP5c7Rf3bKfsYeZIwH5eQbB0NMZs1DCHNsVZ8w6ms6PnU3bf-jWFEx318EyS1qdQCM7f8Nj4mtYU7K3_9peqA88lHlredWc1uZziUjtrT3Bmpyp3tK9HDrkDNPdtySR6pwxTw-32FNWpUTDXOtF5vBb8DsU41githBqpQlrtXtE_JTtgGxtC60eoUWQMwpHL9_HE6C2mYlmxLehsU3AkhzYtX16XHSticZ8o9dUiFYgxF-lc2h4SD4SzG_Nh5WDUy2sWaJ7snJaZIjw-VMRxkdBWw8N2UQiRxEQaRjLHAfkAyjU_yWxG0Y54VJDELTU3EqCJhZ72wA3v1AlLwW4FYeVIzi8oJ1iVrSoo5dRvcunTI61dc0Kw044LlFGsz1MjGoCROEVi8NFFa1gUXregsP0um7569yg0vRL02llaZXanAqEnq84Ay4loW4xykzIy4BttzGKeoD1pysattNWNy3?></g></svg>