<svg xmlns="http://www.w3.org/2000/svg" xmlns:xlink="http://www.w3.org/1999/xlink" contentStyleType="text/css" data-diagram-type="CLASS" height="362px" preserveAspectRatio="none" style="width:1175px;height:362px;background:#FFFFFF;" version="1.1" viewBox="0 0 1175 362" width="1175px" zoomAndPan="magnify"><?plantuml 1.2026.3?><defs/><g><g class="title" data-source-line="40"><text fill="#000000" font-family="sans-serif" font-size="14" font-weight="700" lengthAdjust="spacing" textLength="334.0381" x="417.3556" y="23.5352">Agent session bootstrap &#8212; domain (objective)</text></g><!--class SessionContext--><g class="entity" data-qualified-name="SessionContext" data-source-line="42" id="ent0002"><rect fill="#90EE90" height="120.2188" rx="2.5" ry="2.5" style="stroke:#181818;stroke-width:0.5;" width="136.7813" x="413.24" y="44.4883"/><ellipse cx="428.24" cy="71.8652" fill="#ADD1B2" rx="11" ry="11" style="stroke:#181818;stroke-width:1;"/><path d="M430.7131,78.0083 Q430.1321,78.3071 429.4929,78.4565 Q428.8538,78.606 428.1482,78.606 Q425.6414,78.606 424.3215,76.9541 Q423.0017,75.3022 423.0017,72.1812 Q423.0017,69.0518 424.3215,67.3999 Q425.6414,65.748 428.1482,65.748 Q428.8538,65.748 429.5012,65.8975 Q430.1487,66.0469 430.7131,66.3457 L430.7131,69.0684 Q430.0823,68.4873 429.4888,68.2175 Q428.8953,67.9478 428.2644,67.9478 Q426.9197,67.9478 426.2349,69.0144 Q425.5501,70.0811 425.5501,72.1812 Q425.5501,74.2729 426.2349,75.3396 Q426.9197,76.4063 428.2644,76.4063 Q428.8953,76.4063 429.4888,76.1365 Q430.0823,75.8667 430.7131,75.2856 Z " fill="#000000"/><text fill="#000000" font-family="sans-serif" font-size="12" font-style="italic" lengthAdjust="spacing" textLength="43.0137" x="473.1238" y="61.0898">&#171;value&#187;</text><text fill="#000000" font-family="sans-serif" font-size="12" font-style="italic" lengthAdjust="spacing" textLength="57.8789" x="465.6912" y="75.2227">&#171;missing&#187;</text><text fill="#000000" font-family="sans-serif" font-size="14" lengthAdjust="spacing" textLength="104.7813" x="442.24" y="91.2891">SessionContext</text><line style="stroke:#181818;stroke-width:0.5;" x1="414.24" x2="549.0213" y1="99.2422" y2="99.2422"/><g data-visibility-modifier="PUBLIC_FIELD"><ellipse cx="424.24" cy="112.9863" fill="none" rx="3" ry="3" style="stroke:#038048;stroke-width:1;"/></g><text fill="#000000" font-family="sans-serif" font-size="14" lengthAdjust="spacing" textLength="102.5801" x="433.24" y="116.7773">toc : TocEntry[]</text><g data-visibility-modifier="PUBLIC_FIELD"><ellipse cx="424.24" cy="129.4746" fill="none" rx="3" ry="3" style="stroke:#038048;stroke-width:1;"/></g><text fill="#000000" font-family="sans-serif" font-size="14" lengthAdjust="spacing" textLength="102.0674" x="433.24" y="133.2656">fresh : boolean</text><g data-visibility-modifier="PUBLIC_FIELD"><ellipse cx="424.24" cy="145.9629" fill="none" rx="3" ry="3" style="stroke:#038048;stroke-width:1;"/></g><text fill="#000000" font-family="sans-serif" font-size="14" lengthAdjust="spacing" textLength="110.6123" x="433.24" y="149.7539">drift : MapDrift[]</text><line style="stroke:#181818;stroke-width:0.5;" x1="414.24" x2="549.0213" y1="156.707" y2="156.707"/></g><!--class TocEntry--><g class="entity" data-qualified-name="TocEntry" data-source-line="48" id="ent0003"><rect fill="#F1F1F1" height="106.0859" rx="2.5" ry="2.5" style="stroke:#181818;stroke-width:0.5;" width="156.1221" x="589.57" y="241.6983"/><ellipse cx="633.7945" cy="262.0088" fill="#ADD1B2" rx="11" ry="11" style="stroke:#181818;stroke-width:1;"/><path d="M636.2677,268.1519 Q635.6866,268.4507 635.0474,268.6001 Q634.4083,268.7496 633.7027,268.7496 Q631.1959,268.7496 629.8761,267.0977 Q628.5562,265.4458 628.5562,262.3247 Q628.5562,259.1954 629.8761,257.5435 Q631.1959,255.8916 633.7027,255.8916 Q634.4083,255.8916 635.0557,256.0411 Q635.7032,256.1905 636.2677,256.4893 L636.2677,259.212 Q635.6368,258.6309 635.0433,258.3611 Q634.4498,258.0913 633.8189,258.0913 Q632.4742,258.0913 631.7894,259.158 Q631.1046,260.2246 631.1046,262.3247 Q631.1046,264.4165 631.7894,265.4832 Q632.4742,266.5498 633.8189,266.5498 Q634.4498,266.5498 635.0433,266.2801 Q635.6368,266.0103 636.2677,265.4292 Z " fill="#000000"/><text fill="#000000" font-family="sans-serif" font-size="12" font-style="italic" lengthAdjust="spacing" textLength="43.0137" x="662.3714" y="258.2998">&#171;value&#187;</text><text fill="#000000" font-family="sans-serif" font-size="14" lengthAdjust="spacing" textLength="59.1787" x="654.2888" y="274.3663">TocEntry</text><line style="stroke:#181818;stroke-width:0.5;" x1="590.57" x2="744.6921" y1="282.3194" y2="282.3194"/><g data-visibility-modifier="PUBLIC_FIELD"><ellipse cx="600.57" cy="296.0635" fill="none" rx="3" ry="3" style="stroke:#038048;stroke-width:1;"/></g><text fill="#000000" font-family="sans-serif" font-size="14" lengthAdjust="spacing" textLength="115.0215" x="609.57" y="299.8545">kind : ModelKind</text><g data-visibility-modifier="PUBLIC_FIELD"><ellipse cx="600.57" cy="312.5518" fill="none" rx="3" ry="3" style="stroke:#038048;stroke-width:1;"/></g><text fill="#000000" font-family="sans-serif" font-size="14" lengthAdjust="spacing" textLength="130.1221" x="609.57" y="316.3428">concept_count : int</text><g data-visibility-modifier="PUBLIC_FIELD"><ellipse cx="600.57" cy="329.0401" fill="none" rx="3" ry="3" style="stroke:#038048;stroke-width:1;"/></g><text fill="#000000" font-family="sans-serif" font-size="14" lengthAdjust="spacing" textLength="89.5029" x="609.57" y="332.8311">id_count : int</text><line style="stroke:#181818;stroke-width:0.5;" x1="590.57" x2="744.6921" y1="339.7842" y2="339.7842"/></g><!--class MapBaseline--><g class="entity" data-qualified-name="MapBaseline" data-source-line="54" id="ent0004"><rect fill="#F1F1F1" height="89.5977" rx="2.5" ry="2.5" style="stroke:#181818;stroke-width:0.5;" width="193.2686" x="7" y="249.9483"/><ellipse cx="57.4321" cy="270.2588" fill="#ADD1B2" rx="11" ry="11" style="stroke:#181818;stroke-width:1;"/><path d="M59.9053,276.4019 Q59.3242,276.7007 58.6851,276.8501 Q58.0459,276.9996 57.3403,276.9996 Q54.8335,276.9996 53.5137,275.3477 Q52.1938,273.6958 52.1938,270.5747 Q52.1938,267.4454 53.5137,265.7935 Q54.8335,264.1416 57.3403,264.1416 Q58.0459,264.1416 58.6934,264.2911 Q59.3408,264.4405 59.9053,264.7393 L59.9053,267.462 Q59.2744,266.8809 58.6809,266.6111 Q58.0874,266.3413 57.4565,266.3413 Q56.1118,266.3413 55.427,267.408 Q54.7422,268.4746 54.7422,270.5747 Q54.7422,272.6665 55.427,273.7332 Q56.1118,274.7998 57.4565,274.7998 Q58.0874,274.7998 58.6809,274.5301 Q59.2744,274.2603 59.9053,273.6792 Z " fill="#000000"/><text fill="#000000" font-family="sans-serif" font-size="12" font-style="italic" lengthAdjust="spacing" textLength="43.0137" x="98.3774" y="266.5498">&#171;value&#187;</text><text fill="#000000" font-family="sans-serif" font-size="14" lengthAdjust="spacing" textLength="83.9043" x="77.9321" y="282.6163">MapBaseline</text><line style="stroke:#181818;stroke-width:0.5;" x1="8" x2="199.2686" y1="290.5694" y2="290.5694"/><g data-visibility-modifier="PUBLIC_FIELD"><ellipse cx="18" cy="304.3135" fill="none" rx="3" ry="3" style="stroke:#038048;stroke-width:1;"/></g><text fill="#000000" font-family="sans-serif" font-size="14" lengthAdjust="spacing" textLength="159.5508" x="27" y="308.1045">explicit : Revision [0..1]</text><line style="stroke:#181818;stroke-width:0.5;" x1="8" x2="199.2686" y1="315.0577" y2="315.0577"/><g data-visibility-modifier="PUBLIC_METHOD"><ellipse cx="18" cy="328.8018" fill="#84BE84" rx="3" ry="3" style="stroke:#038048;stroke-width:1;"/></g><text fill="#000000" font-family="sans-serif" font-size="14" lengthAdjust="spacing" textLength="167.2686" x="27" y="332.5928">resolve() : Revision [0..1]</text></g><!--class SessionHook--><g class="entity" data-qualified-name="SessionHook" data-source-line="59" id="ent0005"><rect fill="#F1F1F1" height="106.0859" rx="2.5" ry="2.5" style="stroke:#181818;stroke-width:0.5;" width="203.3311" x="868.97" y="51.5483"/><ellipse cx="923.0764" cy="71.8588" fill="#ADD1B2" rx="11" ry="11" style="stroke:#181818;stroke-width:1;"/><path d="M925.5496,78.0019 Q924.9685,78.3007 924.3294,78.4501 Q923.6902,78.5996 922.9846,78.5996 Q920.4778,78.5996 919.158,76.9477 Q917.8382,75.2958 917.8382,72.1747 Q917.8382,69.0454 919.158,67.3935 Q920.4778,65.7416 922.9846,65.7416 Q923.6902,65.7416 924.3377,65.8911 Q924.9851,66.0405 925.5496,66.3393 L925.5496,69.062 Q924.9187,68.4809 924.3252,68.2111 Q923.7317,67.9413 923.1009,67.9413 Q921.7561,67.9413 921.0713,69.008 Q920.3865,70.0746 920.3865,72.1747 Q920.3865,74.2665 921.0713,75.3332 Q921.7561,76.3998 923.1009,76.3998 Q923.7317,76.3998 924.3252,76.1301 Q924.9187,75.8603 925.5496,75.2792 Z " fill="#000000"/><text fill="#000000" font-family="sans-serif" font-size="12" font-style="italic" lengthAdjust="spacing" textLength="43.0137" x="965.3787" y="68.1498">&#171;value&#187;</text><text fill="#000000" font-family="sans-serif" font-size="14" lengthAdjust="spacing" textLength="86.6182" x="943.5764" y="84.2163">SessionHook</text><line style="stroke:#181818;stroke-width:0.5;" x1="869.97" x2="1071.3011" y1="92.1694" y2="92.1694"/><g data-visibility-modifier="PUBLIC_FIELD"><ellipse cx="879.97" cy="105.9135" fill="none" rx="3" ry="3" style="stroke:#038048;stroke-width:1;"/></g><text fill="#000000" font-family="sans-serif" font-size="14" lengthAdjust="spacing" textLength="142.9395" x="888.97" y="109.7045">event : "SessionStart"</text><g data-visibility-modifier="PUBLIC_FIELD"><ellipse cx="879.97" cy="122.4018" fill="none" rx="3" ry="3" style="stroke:#038048;stroke-width:1;"/></g><text fill="#000000" font-family="sans-serif" font-size="14" lengthAdjust="spacing" textLength="120.0527" x="888.97" y="126.1928">type : "command"</text><g data-visibility-modifier="PUBLIC_FIELD"><ellipse cx="879.97" cy="138.8901" fill="none" rx="3" ry="3" style="stroke:#038048;stroke-width:1;"/></g><text fill="#000000" font-family="sans-serif" font-size="14" lengthAdjust="spacing" textLength="177.3311" x="888.97" y="142.6811">command : "mdd context"</text><line style="stroke:#181818;stroke-width:0.5;" x1="869.97" x2="1071.3011" y1="149.6342" y2="149.6342"/></g><g class="entity" data-qualified-name="GMN8" data-source-line="69" id="ent0009"><path d="M234.87,259.1283 L234.87,290.7483 L200.54,294.7483 L234.87,298.7483 L234.87,330.3705 A0,0 0 0 0 234.87,330.3705 L554.4003,330.3705 A0,0 0 0 0 554.4003,330.3705 L554.4003,269.1283 L544.4003,259.1283 L234.87,259.1283 A0,0 0 0 0 234.87,259.1283" fill="#FEFFDD" style="stroke:#181818;stroke-width:0.5;"/><path d="M544.4003,259.1283 L544.4003,269.1283 L554.4003,269.1283 L544.4003,259.1283" fill="#FEFFDD" style="stroke:#181818;stroke-width:0.5;"/><text fill="#000000" font-family="sans-serif" font-size="13" lengthAdjust="spacing" textLength="298.5303" x="240.87" y="276.6966">resolve(): the explicit source_revision when set,</text><text fill="#000000" font-family="sans-serif" font-size="13" lengthAdjust="spacing" textLength="297.2227" x="240.87" y="292.0072">otherwise the last commit touching the current</text><text fill="#000000" font-family="sans-serif" font-size="13" lengthAdjust="spacing" textLength="289.0786" x="240.87" y="307.3177">diagrams (git log over .mdd/models/current).</text><text fill="#000000" font-family="sans-serif" font-size="13" lengthAdjust="spacing" textLength="246.0225" x="240.87" y="322.6283">Absent only when no git history exists.</text></g><g class="entity" data-qualified-name="GMN11" data-source-line="76" id="ent0012"><path d="M780.51,274.4383 L780.51,315.0594 A0,0 0 0 0 780.51,315.0594 L1160.7493,315.0594 A0,0 0 0 0 1160.7493,315.0594 L1160.7493,284.4383 L1150.7493,274.4383 L974.63,274.4383 L970.63,158.0083 L966.63,274.4383 L780.51,274.4383 A0,0 0 0 0 780.51,274.4383" fill="#FEFFDD" style="stroke:#181818;stroke-width:0.5;"/><path d="M1150.7493,274.4383 L1150.7493,284.4383 L1160.7493,284.4383 L1150.7493,274.4383" fill="#FEFFDD" style="stroke:#181818;stroke-width:0.5;"/><text fill="#000000" font-family="sans-serif" font-size="13" lengthAdjust="spacing" textLength="293.4839" x="786.51" y="292.0066">Merged into .claude/settings.json by mdd init;</text><text fill="#000000" font-family="sans-serif" font-size="13" lengthAdjust="spacing" textLength="359.2393" x="786.51" y="307.3172">removed by mdd clean. Idempotent, keyed by command.</text></g><!--reverse link SessionContext to TocEntry--><g class="link" data-entity-1="ent0002" data-entity-2="ent0003" data-link-type="aggregation" data-source-line="65" id="lnk6"><path codeLine="65" d="M548.9263,173.6623 C573.0863,198.1023 592.38,217.6183 615.76,241.2683" fill="none" id="SessionContext-backto-TocEntry" style="stroke:#181818;stroke-width:1;"/><polygon fill="none" points="540.49,165.1283,541.8635,172.2074,548.9263,173.6623,547.5528,166.5832,540.49,165.1283" style="stroke:#181818;stroke-width:1;"/><text fill="#000000" font-family="sans-serif" font-size="13" lengthAdjust="spacing" textLength="8.2202" x="538.5023" y="185.1545">1</text><text fill="#000000" font-family="sans-serif" font-size="13" lengthAdjust="spacing" textLength="6.2651" x="602.7466" y="231.0444">*</text></g><!--link SessionContext to MapBaseline--><g class="link" data-entity-1="ent0002" data-entity-2="ent0004" data-link-type="dependency" data-source-line="66" id="lnk7"><path codeLine="66" d="M413.18,139.6683 C351.38,170.4283 265.4315,213.2149 197.9815,246.7849" fill="none" id="SessionContext-to-MapBaseline" style="stroke:#181818;stroke-width:1;stroke-dasharray:7,7;"/><polygon fill="#181818" points="192.61,249.4583,202.4495,249.0292,197.0862,247.2304,198.885,241.8672,192.61,249.4583" style="stroke:#181818;stroke-width:1;"/><text fill="#000000" font-family="sans-serif" font-size="13" lengthAdjust="spacing" textLength="158.7168" x="293.63" y="208.2666">freshness via map_status</text></g><?plantuml-src jLPTJ-D657tFhxXA7vhinWQaLQKDB2faWq1Ro8hmK6bLiHDxainYpxWpuu2rGkgFw2_iB-cvOpk4mFQfUI0uS-T-dNlkSToTqeMm8gVIoKGuITyxHASYkLjOK-fqP39ZZuvovPpIY-DZ-kdz_dZyVl-rI_B1My5NpivEVnaTT1uxRXqzoOHpkufjyi9egVsEuZil_AvmiJBnGY-oNSKNYJTsHx7nwLMY2h4pvBL9_rzWVgPVLThxEBcCfkFfz69o5OqcLpVZts_wR4gbIrup3gXxivGqiqhEaHIDLvaHANssvXlcDnmwYMgClasCzaZQwsEklhJQaT0fVStJb1hJLogiqjuDIT3zqcGooaL1Nip003ElRy5CFH2QRamorjvML4ZBfaGMdW1EIj4nlfV0lVPXGvqBxRa1fTAgbKnfRarECTBl8KkVYgp4BPnAjzGecLRIfYhnb2jhZMqTBaKn1ULBToqBOptrF9eFJZJFn2BaIQsQUygKy_sOBl8YapdgHWJ16QOr7gEwPooGBP55QK8fKO9CSRU_COlBay_HwSbq_Dl5rVZv83OjpHIUgfz1hZ85dD3ShGiLKwhcSnVQYEbQEfEL7eMGBO5lBwaI_DlVFtZN1_wQv4EHWS0eq9GsaRTMhXJNpPMsgE5FgxbqFgxoZEwLTeSOdDGaPWuTjrWJeWJm5dW01WmP9C-pEEKuyak13rCcIs34ngIq5lwHKw1ugiG2VCVah2oPr-6AV02y_0KntxfAKxA4LCWKD8EFr0lq7jEL0Rxry9JCKb8EGVui5P_mfBJnImw2ytkhFEY5EYX6p0QXbNHyKlT3HcTLtI1Ai9BTj0bTBHNdgQYIe0G8U7OzdfuFsDeEelzyhEqMdKycdrxVBxOqOsLc06g1_cYKYH8TZhZDXaeW99YuDEOEZVDA141viPH6RRcq2xI1pK9hIN3VSz8pUYx-vemUagyA-O6d0L06r3nyUBQRCOLAE1RtZSdWnSBx682yanLgcrMjBrW3fAEGNqki4gKbymal2_Zwmr0T20UYMPaRXba-G8ypBXxXwpuu4EwmLUYAty8s4gLVXeboluwmvpLnQdWdCnOTvbngSi5B1PmocaFdWHwARTI8PiPuh1xqPPFvSSShZoydFxZxprz_ju5xfatLxtJgD_ZMPXyThKHMIcZifYIpOhy5fn8QhZNion_Xi9QH8UTZPC9PhIL3rfsF_8YhZss-jGG-PQgZ1nc43_V-2S_Xi972sreRXyo7SAxIPqVhwCXuseh8TeArE0on9eqkVDcFuuEw4Lkl3gJ-fVrn2wrpfksB-2iP2kfkChnR8mUgigKXMhVfhMOTpZSus-LaMqFf7dJ9H15rttJN-6tVYUFZPzqFDzyAIcn8QgS31P5arM8PNZSRNgXh3SEmaQmVA6fG56pa03w6bULUuRVc2vLadhVoroWa75fvf1xhK6OMP7ZTQebc0hYzvZBOJNIohMHR0XPqrSKTMQkZR3gS6UyXu6XnOsm8TybwaFw7jh0cj4fq633XRK_Ruo01U4ckrMJmGagUQlaN?></g></svg>