<svg xmlns="http://www.w3.org/2000/svg" xmlns:xlink="http://www.w3.org/1999/xlink" contentStyleType="text/css" data-diagram-type="DESCRIPTION" height="937px" preserveAspectRatio="none" style="width:818px;height:937px;background:#FFFFFF;" version="1.1" viewBox="0 0 818 937" width="818px" zoomAndPan="magnify"><?plantuml 1.2026.3?><defs/><g><g class="title" data-source-line="37"><text fill="#000000" font-family="sans-serif" font-size="14" font-weight="700" lengthAdjust="spacing" textLength="397.9336" x="206.6882" y="23.5352">mdd view &#8212; diagram viewer &#183; cycle 0012 diff (current)</text></g><!--cluster mdd-viewer--><g class="cluster" data-qualified-name="mdd-viewer" data-source-line="43" id="ent0003"><rect fill="none" height="550" rx="2.5" ry="2.5" style="stroke:#181818;stroke-width:1;" width="682.99" x="121.32" y="44.4883"/><text fill="#000000" font-family="sans-serif" font-size="14" font-weight="700" lengthAdjust="spacing" textLength="88.7783" x="418.4258" y="60.0234">mdd-viewer</text></g><!--entity View--><g class="entity" data-qualified-name="mdd-viewer.View" data-source-line="44" id="ent0004"><ellipse cx="262.4749" cy="416.4873" fill="#F1F1F1" rx="119.7449" ry="26.349" style="stroke:#181818;stroke-width:0.5;"/><text fill="#000000" font-family="sans-serif" font-size="14" lengthAdjust="spacing" textLength="157.6641" x="183.6428" y="412.2536">View rendered diagram</text><text fill="#000000" font-family="sans-serif" font-size="14" lengthAdjust="spacing" textLength="172.3271" x="176.3113" y="428.7419">(shapes AND text legible)</text></g><!--entity Browse--><g class="entity" data-qualified-name="mdd-viewer.Browse" data-source-line="45" id="ent0005"><ellipse cx="648.4731" cy="184.4889" fill="#F1F1F1" rx="78.9031" ry="18.1806" style="stroke:#181818;stroke-width:0.5;"/><text fill="#000000" font-family="sans-serif" font-size="14" lengthAdjust="spacing" textLength="127.4697" x="584.7382" y="189.233">Browse model files</text></g><!--entity PanZoom--><g class="entity" data-qualified-name="mdd-viewer.PanZoom" data-source-line="46" id="ent0006"><ellipse cx="648.4744" cy="105.4845" fill="#F1F1F1" rx="112.8544" ry="25.9162" style="stroke:#181818;stroke-width:0.5;"/><text fill="#000000" font-family="sans-serif" font-size="14" lengthAdjust="spacing" textLength="146.6787" x="575.135" y="101.4113">Pan and zoom canvas</text><text fill="#000000" font-family="sans-serif" font-size="14" lengthAdjust="spacing" textLength="158.0811" x="569.4339" y="117.8996">(scroll zoom, drag pan)</text></g><!--entity Fisheye--><g class="entity" data-qualified-name="mdd-viewer.Fisheye" data-source-line="47" id="ent0007"><ellipse cx="648.474" cy="258.4851" fill="#F1F1F1" rx="93.784" ry="21.1568" style="stroke:#181818;stroke-width:0.5;"/><text fill="#000000" font-family="sans-serif" font-size="14" lengthAdjust="spacing" textLength="161.7725" x="567.5877" y="263.2292">Focus via center fisheye</text></g><!--entity Panels--><g class="entity" data-qualified-name="mdd-viewer.Panels" data-source-line="48" id="ent0008"><ellipse cx="648.4743" cy="339.4871" fill="#F1F1F1" rx="113.6443" ry="25.1289" style="stroke:#181818;stroke-width:0.5;"/><text fill="#000000" font-family="sans-serif" font-size="14" lengthAdjust="spacing" textLength="205.3584" x="545.7951" y="344.2313">Collapse / expand side panels</text></g><!--entity Trace--><g class="entity" data-qualified-name="mdd-viewer.Trace" data-source-line="49" id="ent0009"><ellipse cx="262.4682" cy="135.4859" fill="#F1F1F1" rx="123.2882" ry="27.0576" style="stroke:#181818;stroke-width:0.5;"/><text fill="#000000" font-family="sans-serif" font-size="14" lengthAdjust="spacing" textLength="226.0098" x="149.4633" y="140.2301">Inspect model IDs and trace links</text></g><!--entity ViewOcl--><g class="entity" data-qualified-name="mdd-viewer.ViewOcl" data-source-line="50" id="ent0010"><ellipse cx="262.4739" cy="223.4892" fill="#F1F1F1" rx="103.0539" ry="25.9009" style="stroke:#181818;stroke-width:0.5;"/><text fill="#000000" font-family="sans-serif" font-size="14" lengthAdjust="spacing" textLength="144.0742" x="190.4368" y="220.5844">View OCL constraints</text><text fill="#000000" font-family="sans-serif" font-size="14" lengthAdjust="spacing" textLength="133.2666" x="195.8406" y="237.0727">(source or diagram)</text></g><!--entity ViewDeploy--><g class="entity" data-qualified-name="mdd-viewer.ViewDeploy" data-source-line="51" id="ent0011"><ellipse cx="262.4729" cy="319.4908" fill="#F1F1F1" rx="125.1529" ry="35.5525" style="stroke:#181818;stroke-width:0.5;"/><text fill="#000000" font-family="sans-serif" font-size="14" lengthAdjust="spacing" textLength="183.8115" x="170.5671" y="311.0359">View deployment diagrams</text><text fill="#000000" font-family="sans-serif" font-size="14" lengthAdjust="spacing" textLength="185.6162" x="169.6648" y="327.5242">(dedicated DEPLOY section,</text><text fill="#000000" font-family="sans-serif" font-size="14" lengthAdjust="spacing" textLength="124.332" x="200.3069" y="344.0125">NOT parity-gated)</text></g><!--entity Themed--><g class="entity" data-qualified-name="mdd-viewer.Themed" data-source-line="52" id="ent0012"><ellipse cx="648.4715" cy="437.4854" fill="#F1F1F1" rx="137.7515" ry="37.9072" style="stroke:#181818;stroke-width:0.5;"/><text fill="#000000" font-family="sans-serif" font-size="14" lengthAdjust="spacing" textLength="190.9482" x="552.9973" y="425.8401">View themed viewer chrome</text><text fill="#000000" font-family="sans-serif" font-size="14" lengthAdjust="spacing" textLength="188.7813" x="554.0808" y="442.3283">(Catppuccin, bundled fonts,</text><text fill="#000000" font-family="sans-serif" font-size="14" lengthAdjust="spacing" textLength="189.417" x="553.763" y="458.8166">OS appearance auto-follow)</text></g><!--entity ViewSource--><g class="entity" data-qualified-name="mdd-viewer.ViewSource" data-source-line="53" id="ent0013"><ellipse cx="648.4733" cy="544.488" fill="#90EE90" rx="139.8433" ry="34.1697" style="stroke:#181818;stroke-width:0.5;"/><text fill="#000000" font-family="sans-serif" font-size="14" font-style="italic" lengthAdjust="spacing" textLength="56.6357" x="620.1554" y="526.9812">&#171;added&#187;</text><text fill="#000000" font-family="sans-serif" font-size="14" lengthAdjust="spacing" textLength="148.4355" x="574.2555" y="543.4695">View PlantUML source</text><text fill="#000000" font-family="sans-serif" font-size="14" lengthAdjust="spacing" textLength="217.1641" x="539.8913" y="559.9578">(Source toggle next to Diagram)</text></g><!--entity Dev--><g class="entity" data-qualified-name="Dev" data-source-line="41" id="ent0002"><ellipse cx="40.1592" cy="514.7483" fill="#F1F1F1" rx="8" ry="8" style="stroke:#181818;stroke-width:0.5;"/><path d="M40.1592,522.7483 L40.1592,549.7483 M27.1592,530.7483 L53.1592,530.7483 M40.1592,549.7483 L27.1592,564.7483 M40.1592,549.7483 L53.1592,564.7483" fill="none" style="stroke:#181818;stroke-width:0.5;"/><text fill="#000000" font-family="sans-serif" font-size="14" lengthAdjust="spacing" textLength="68.3184" x="6" y="579.7834">Developer</text></g><!--link Dev to View--><g class="link" data-entity-1="ent0002" data-entity-2="ent0004" data-link-type="dependency" data-source-line="56" id="lnk14"><path d="M74.49,507.1683 C83.58,498.3383 93.83,489.4683 104.32,482.4883 C131.79,464.2183 159.5405,451.4676 188.4405,440.4976" fill="none" id="Dev-to-View" style="stroke:#181818;stroke-width:1;"/><polygon fill="#181818" points="194.05,438.3683,184.2163,437.8225,189.3754,440.1427,187.0553,445.3018,194.05,438.3683" style="stroke:#181818;stroke-width:1;"/></g><!--link Dev to Browse--><g class="link" data-entity-1="ent0002" data-entity-2="ent0005" data-link-type="dependency" data-source-line="57" id="lnk15"><path d="M74.61,545.9483 C166.94,549.2383 422.27,552.9183 478.62,496.4883 C522.37,452.6783 467.99,266.2083 508.62,219.4883 C524.12,201.6683 541.3672,193.4871 564.3072,188.6871" fill="none" id="Dev-to-Browse" style="stroke:#181818;stroke-width:1;"/><polygon fill="#181818" points="570.18,187.4583,560.5516,185.3863,565.286,188.4823,562.19,193.2167,570.18,187.4583" style="stroke:#181818;stroke-width:1;"/></g><!--link Dev to PanZoom--><g class="link" data-entity-1="ent0002" data-entity-2="ent0006" data-link-type="dependency" data-source-line="58" id="lnk16"><path d="M74.81,553.4483 C157.61,573.2383 372.23,610.3883 478.62,496.4883 C531.61,439.7683 459.92,208.9283 508.62,148.4883 C519.63,134.8283 529.3075,127.6172 545.7075,121.1572" fill="none" id="Dev-to-PanZoom" style="stroke:#181818;stroke-width:1;"/><polygon fill="#181818" points="551.29,118.9583,541.4502,118.5351,546.6379,120.7908,544.3822,125.9784,551.29,118.9583" style="stroke:#181818;stroke-width:1;"/></g><!--link Dev to Fisheye--><g class="link" data-entity-1="ent0002" data-entity-2="ent0007" data-link-type="dependency" data-source-line="59" id="lnk17"><path d="M72.46,583.2183 C81.72,592.0983 92.56,600.4083 104.32,605.4883 C257.15,671.5383 355.59,732.6583 478.62,620.4883 C532.06,571.7683 462.15,351.8883 508.62,296.4883 C521.63,280.9783 534.5551,273.1758 554.0151,267.4358" fill="none" id="Dev-to-Fisheye" style="stroke:#181818;stroke-width:1;"/><polygon fill="#181818" points="559.77,265.7383,550.006,264.4479,554.9743,267.1528,552.2693,272.1211,559.77,265.7383" style="stroke:#181818;stroke-width:1;"/></g><!--link Dev to Panels--><g class="link" data-entity-1="ent0002" data-entity-2="ent0008" data-link-type="dependency" data-source-line="60" id="lnk18"><path d="M48.09,583.1883 C55.93,614.3483 72.08,656.1683 104.32,676.4883 C245.07,765.1683 355.16,787.9883 478.62,676.4883 C527.36,632.4683 467.02,433.2983 508.62,382.4883 C519.81,368.8183 529.68,361.5882 546.22,355.1382" fill="none" id="Dev-to-Panels" style="stroke:#181818;stroke-width:1;"/><polygon fill="#181818" points="551.81,352.9583,541.9717,352.5015,547.1517,354.7749,544.8783,359.9548,551.81,352.9583" style="stroke:#181818;stroke-width:1;"/></g><!--link Dev to Trace--><g class="link" data-entity-1="ent0002" data-entity-2="ent0009" data-link-type="dependency" data-source-line="61" id="lnk19"><path d="M43.87,505.7683 C50.51,422.0883 70.24,228.0683 113.32,180.4883 C125.68,166.8383 136.433,159.4302 153.753,152.7402" fill="none" id="Dev-to-Trace" style="stroke:#181818;stroke-width:1;"/><polygon fill="#181818" points="159.35,150.5783,149.5133,150.0898,154.6858,152.3799,152.3958,157.5524,159.35,150.5783" style="stroke:#181818;stroke-width:1;"/></g><!--link Dev to ViewOcl--><g class="link" data-entity-1="ent0002" data-entity-2="ent0010" data-link-type="dependency" data-source-line="62" id="lnk20"><path d="M46.41,505.8883 C56.42,437.8583 80.22,300.5483 113.32,266.4883 C128.25,251.1183 142.5943,242.9516 163.1243,236.5216" fill="none" id="Dev-to-ViewOcl" style="stroke:#181818;stroke-width:1;"/><polygon fill="#181818" points="168.85,234.7283,159.0659,233.6011,164.0786,236.2227,161.4569,241.2354,168.85,234.7283" style="stroke:#181818;stroke-width:1;"/></g><!--link Dev to ViewDeploy--><g class="link" data-entity-1="ent0002" data-entity-2="ent0011" data-link-type="dependency" data-source-line="63" id="lnk21"><path d="M47.96,505.8283 C56.69,467.1383 75.48,408.3483 113.32,372.4883 C127.5,359.0483 139.7609,351.2703 158.0709,343.7403" fill="none" id="Dev-to-ViewDeploy" style="stroke:#181818;stroke-width:1;"/><polygon fill="#181818" points="163.62,341.4583,153.775,341.182,158.9958,343.36,156.8178,348.5808,163.62,341.4583" style="stroke:#181818;stroke-width:1;"/></g><!--link Dev to Themed--><g class="link" data-entity-1="ent0002" data-entity-2="ent0012" data-link-type="dependency" data-source-line="64" id="lnk22"><path d="M40.57,583.1383 C42.19,630.6983 53.04,709.7383 104.32,747.4883 C238.29,846.1083 354.31,858.0383 478.62,747.4883 C521.26,709.5683 473.85,537.7283 508.62,492.4883 C518.26,479.9483 525.8897,473.0701 539.9897,465.5901" fill="none" id="Dev-to-Themed" style="stroke:#181818;stroke-width:1;"/><polygon fill="#181818" points="545.29,462.7783,535.4649,463.4624,540.873,465.1215,539.214,470.5296,545.29,462.7783" style="stroke:#181818;stroke-width:1;"/></g><!--link Dev to ViewSource--><g class="link" data-entity-1="ent0002" data-entity-2="ent0013" data-link-type="dependency" data-source-line="65" id="lnk23"><path d="M44.28,583.1683 C50.68,651.5883 67.89,789.4983 104.32,818.4883 C234.49,922.0683 333.38,899.5983 478.62,818.4883 C571.56,766.5883 617.9425,645.9512 636.4825,584.6712" fill="none" id="Dev-to-ViewSource" style="stroke:#181818;stroke-width:1;"/><polygon fill="#181818" points="638.22,578.9283,631.7851,586.3843,636.7721,583.714,639.4424,588.701,638.22,578.9283" style="stroke:#181818;stroke-width:1;"/></g><!--link View to Browse--><g class="link" data-entity-1="ent0004" data-entity-2="ent0005" data-link-type="dependency" data-source-line="67" id="lnk24"><path d="M346.82,397.4283 C361.62,391.2683 376,383.1583 387.62,372.4883 C411.37,350.7083 396.09,330.4483 417.62,306.4883 C438.67,283.0783 456.38,292.7683 478.62,270.4883 C497.21,251.8783 487.58,235.2583 508.62,219.4883 C527.82,205.1083 546.4179,197.8672 569.4279,192.8472" fill="none" id="View-to-Browse" style="stroke:#181818;stroke-width:1;stroke-dasharray:7,7;"/><polygon fill="#181818" points="575.29,191.5683,565.6442,189.5786,570.4049,192.634,567.3494,197.3947,575.29,191.5683" style="stroke:#181818;stroke-width:1;"/><text fill="#000000" font-family="sans-serif" font-size="13" lengthAdjust="spacing" textLength="59.3569" x="418.62" y="267.0566">&#171;include&#187;</text></g><!--link View to PanZoom--><g class="link" data-entity-1="ent0004" data-entity-2="ent0006" data-link-type="dependency" data-source-line="68" id="lnk25"><path d="M350.4,398.2583 C364.35,392.0383 377.51,383.6883 387.62,372.4883 C425.35,330.7383 382.97,293.8183 417.62,249.4883 C436.48,225.3683 457.78,239.9083 478.62,217.4883 C501.39,192.9983 483.72,170.7983 508.62,148.4883 C522.44,136.1083 534.1161,129.3066 551.7961,123.0266" fill="none" id="View-to-PanZoom" style="stroke:#181818;stroke-width:1;stroke-dasharray:7,7;"/><polygon fill="#181818" points="557.45,121.0183,547.6303,120.2614,552.7384,122.6919,550.308,127.8,557.45,121.0183" style="stroke:#181818;stroke-width:1;"/><text fill="#000000" font-family="sans-serif" font-size="13" lengthAdjust="spacing" textLength="57.1924" x="419.62" y="214.0566">&#171;extend&#187;</text></g><!--link View to Fisheye--><g class="link" data-entity-1="ent0004" data-entity-2="ent0007" data-link-type="dependency" data-source-line="69" id="lnk26"><path d="M330.39,394.4083 C349.09,387.7983 369.3,380.2383 387.62,372.4883 C429.18,354.9183 442.18,354.0883 478.62,327.4883 C494.11,316.1883 492.12,306.2583 508.62,296.4883 C527.98,285.0283 545.088,278.4568 566.648,272.7768" fill="none" id="View-to-Fisheye" style="stroke:#181818;stroke-width:1;stroke-dasharray:7,7;"/><polygon fill="#181818" points="572.45,271.2483,562.7279,269.6731,567.615,272.5221,564.766,277.4091,572.45,271.2483" style="stroke:#181818;stroke-width:1;"/><text fill="#000000" font-family="sans-serif" font-size="13" lengthAdjust="spacing" textLength="57.1924" x="419.62" y="324.0566">&#171;extend&#187;</text></g><!--link View to Panels--><g class="link" data-entity-1="ent0004" data-entity-2="ent0008" data-link-type="dependency" data-source-line="70" id="lnk27"><path d="M367.31,403.4583 C402.77,398.3683 442.57,391.9483 478.62,384.4883 C511.9,377.5983 542.5891,369.735 573.0991,361.255" fill="none" id="View-to-Panels" style="stroke:#181818;stroke-width:1;stroke-dasharray:7,7;"/><polygon fill="#181818" points="578.88,359.6483,569.1375,358.2045,574.0626,360.9872,571.2799,365.9123,578.88,359.6483" style="stroke:#181818;stroke-width:1;"/><text fill="#000000" font-family="sans-serif" font-size="13" lengthAdjust="spacing" textLength="57.1924" x="419.62" y="381.0566">&#171;extend&#187;</text></g><!--link View to Themed--><g class="link" data-entity-1="ent0004" data-entity-2="ent0012" data-link-type="dependency" data-source-line="71" id="lnk28"><path d="M354.47,433.7283 C375.16,436.9583 397.09,439.8283 417.62,441.4883 C448.26,443.9583 475.2504,444.6437 506.4204,444.3037" fill="none" id="View-to-Themed" style="stroke:#181818;stroke-width:1;stroke-dasharray:7,7;"/><polygon fill="#181818" points="512.42,444.2383,503.3769,440.3367,507.4203,444.2928,503.4642,448.3362,512.42,444.2383" style="stroke:#181818;stroke-width:1;"/><text fill="#000000" font-family="sans-serif" font-size="13" lengthAdjust="spacing" textLength="59.3569" x="418.62" y="438.0566">&#171;include&#187;</text></g><!--link View to ViewSource--><g class="link" data-entity-1="ent0004" data-entity-2="ent0013" data-link-type="dependency" data-source-line="72" id="lnk29"><path d="M327.9,438.8883 C355.49,448.4183 388.11,459.5983 417.62,469.4883 C465.48,485.5183 513.3824,501.1879 556.7824,515.2579" fill="none" id="View-to-ViewSource" style="stroke:#181818;stroke-width:1;stroke-dasharray:7,7;"/><polygon fill="#181818" points="562.49,517.1083,555.1622,510.5277,557.7337,515.5663,552.6951,518.1378,562.49,517.1083" style="stroke:#181818;stroke-width:1;"/><text fill="#000000" font-family="sans-serif" font-size="13" lengthAdjust="spacing" textLength="57.1924" x="419.62" y="466.0566">&#171;extend&#187;</text></g><!--link ViewOcl to PanZoom--><g class="link" data-entity-1="ent0010" data-entity-2="ent0006" data-link-type="dependency" data-source-line="73" id="lnk30"><path d="M339.33,205.9283 C356.31,199.7183 373.46,191.4383 387.62,180.4883 C406.64,165.7883 397.21,148.1783 417.62,135.4883 C452.74,113.6583 490.7081,104.9844 530.7481,101.8644" fill="none" id="ViewOcl-to-PanZoom" style="stroke:#181818;stroke-width:1;stroke-dasharray:7,7;"/><polygon fill="#181818" points="536.73,101.3983,527.4465,98.1095,531.7451,101.7867,528.0679,106.0854,536.73,101.3983" style="stroke:#181818;stroke-width:1;"/><text fill="#000000" font-family="sans-serif" font-size="13" lengthAdjust="spacing" textLength="57.1924" x="419.62" y="108.0466">&#171;extend&#187;</text></g><!--link ViewDeploy to PanZoom--><g class="link" data-entity-1="ent0011" data-entity-2="ent0006" data-link-type="dependency" data-source-line="74" id="lnk31"><path d="M349.21,293.4783 C363.29,286.3983 376.79,277.5283 387.62,266.4883 C412.49,241.1683 393.36,218.3883 417.62,192.4883 C425.3,184.2883 498.18,152.6083 508.62,148.4883 C529.99,140.0683 547.9726,133.9539 569.6726,127.3139" fill="none" id="ViewDeploy-to-PanZoom" style="stroke:#181818;stroke-width:1;stroke-dasharray:7,7;"/><polygon fill="#181818" points="575.41,125.5583,565.6335,124.3667,570.6288,127.0213,567.9743,132.0166,575.41,125.5583" style="stroke:#181818;stroke-width:1;"/><text fill="#000000" font-family="sans-serif" font-size="13" lengthAdjust="spacing" textLength="57.1924" x="419.62" y="158.8866">&#171;extend&#187;</text></g><?plantuml-src jLJ1RXen4BtlLupeeI2nAUcXKg8eAe4bGI811KYLAXV7Dc35s2lR9A5LfNv4_wNtVag_fEFrBcoofQToWHtF-BsPvsVR1w5IOiWILfPJOZbyZG3E27sO6xrIhAEbDYSdX37EJa_XpL4hIOvQVoinVAaVGr6lT_QXSnXzY-m6dKfYxRwmzJBLYYkt9tphYDkNBePJHzHSxWkVKAVDdh3nrmagKlAVbNyB7mMhJyT9VDDFFiNTVllykdqvRfGIlVxu8hd5_s5d-Y8n6PwV3v9urBvA1YyI6TImCwYiTPFHO7ZxUZcvZYSNoMNIhTIFffU3U3oSNdUI1i1sIBSG5kYQub7MMwt3ztvZ9mjz14pCPb2dAsEyKQrWl74Cw5hWaY_zKeRJ1ENNSbKE8YSS0YmPWqV1d-3tzny8HEPUVR_03VpwcPDMMHfH9FdCWTDWn7pXCElj9hIAek2BMfS_SgbJRcf0B60KHLj7rf0t3ZIrx82B9w9suvj12iODPqL7Twfk5oJb5jfNNN3ysO7aSt4lUID3zvlA86T6F-7_KZCkOIOajrbPM2uNZeW2eXXyqHelEr6Fn7ekQhIKsM8Jc25pzACAJBZXCowNCNgQhYngHe2YCgZRJDW5N_EilXU-o_LeJqbI_7e7_3drxFx8F0MNjY31p_AUlh8fYfTFrE_Qh6jd2EKWXNe8-oO-heY9piHtJ5ci5ifby-cLmOruIhc-MnM7L5O064-bNcTEokiz25fAK7oz60IRWmq6QDwfg-74ts3Xrl7SLspXknbKXS4jqAYiy1rT6BtaID4XBarNb0hLX7kys19hPXfdG8xX64YQSdmj58v2Lax7CnHMFmMoIOPO8Hf9V57mba6G03d6GGkdvzwNobiBJTrzhKjUjhcJ-9P4w6c8uzFWlYB8FLQ4XL-AkF13AU-FkWZ32PQ1_O6Kurp1pOOmPxaYj1f5sS071qLBS8pT2qNbYd7iVvFDEypIE3tUl78sxtT7DdI_8nbQsqLR4hMo7MV-Tsj1X9qrVm00?></g></svg>