<svg xmlns="http://www.w3.org/2000/svg" xmlns:xlink="http://www.w3.org/1999/xlink" contentStyleType="text/css" data-diagram-type="DESCRIPTION" height="571px" preserveAspectRatio="none" style="width:1200px;height:571px;background:#FFFFFF;" version="1.1" viewBox="0 0 1200 571" width="1200px" zoomAndPan="magnify"><?plantuml 1.2026.3?><defs/><g><g class="title" data-source-line="33"><text fill="#000000" font-family="sans-serif" font-size="14" font-weight="700" lengthAdjust="spacing" textLength="316.1826" x="438.9007" y="23.5352">MDD scoped re-map &#8212; ownership (current)</text></g><!--entity Dev--><g class="entity" data-qualified-name="Dev" data-source-line="35" id="ent0002"><ellipse cx="348.7564" cy="69.9297" fill="#90EE90" rx="8" ry="8" style="stroke:#181818;stroke-width:0.5;"/><path d="M348.7564,77.9297 L348.7564,104.9297 M335.7564,85.9297 L361.7564,85.9297 M348.7564,104.9297 L335.7564,119.9297 M348.7564,104.9297 L361.7564,119.9297" fill="none" style="stroke:#181818;stroke-width:0.5;"/><text fill="#000000" font-family="sans-serif" font-size="14" lengthAdjust="spacing" textLength="124.6328" x="286.44" y="134.9648">Developer / Agent</text><text fill="#000000" font-family="sans-serif" font-size="14" font-style="italic" lengthAdjust="spacing" textLength="56.6357" x="320.4385" y="58.4766">&#171;added&#187;</text></g><!--entity Cli--><g class="entity" data-qualified-name="Cli" data-source-line="37" id="ent0003"><rect fill="#F1F1F1" height="62.9766" rx="2.5" ry="2.5" style="stroke:#181818;stroke-width:0.5;" width="196.96" x="382.28" y="214.9214"/><rect fill="#F1F1F1" height="10" style="stroke:#181818;stroke-width:0.5;" width="15" x="559.24" y="219.9214"/><rect fill="#F1F1F1" height="2" style="stroke:#181818;stroke-width:0.5;" width="4" x="557.24" y="221.9214"/><rect fill="#F1F1F1" height="2" style="stroke:#181818;stroke-width:0.5;" width="4" x="557.24" y="225.9214"/><text fill="#000000" font-family="sans-serif" font-size="14" lengthAdjust="spacing" textLength="112.3555" x="397.28" y="248.4566">mdd map-scope</text><text fill="#000000" font-family="sans-serif" font-size="14" lengthAdjust="spacing" textLength="156.96" x="397.28" y="264.9448">(CMP-MAP-SCOPE-CLI)</text></g><!--entity Engine--><g class="entity" data-qualified-name="Engine" data-source-line="38" id="ent0004"><rect fill="#F1F1F1" height="62.9766" rx="2.5" ry="2.5" style="stroke:#181818;stroke-width:0.5;" width="225.7871" x="367.86" y="354.9014"/><rect fill="#F1F1F1" height="10" style="stroke:#181818;stroke-width:0.5;" width="15" x="573.6471" y="359.9014"/><rect fill="#F1F1F1" height="2" style="stroke:#181818;stroke-width:0.5;" width="4" x="571.6471" y="361.9014"/><rect fill="#F1F1F1" height="2" style="stroke:#181818;stroke-width:0.5;" width="4" x="571.6471" y="365.9014"/><text fill="#000000" font-family="sans-serif" font-size="14" lengthAdjust="spacing" textLength="131.5234" x="382.86" y="388.4366">Project::map_scope</text><text fill="#000000" font-family="sans-serif" font-size="14" lengthAdjust="spacing" textLength="185.7871" x="382.86" y="404.9248">(CMP-MAP-SCOPE-ENGINE)</text></g><!--entity CycleModel--><g class="entity" data-qualified-name="CycleModel" data-source-line="39" id="ent0005"><rect fill="#F1F1F1" height="62.9766" rx="2.5" ry="2.5" style="stroke:#181818;stroke-width:0.5;" width="231.5156" x="7" y="494.8714"/><rect fill="#F1F1F1" height="10" style="stroke:#181818;stroke-width:0.5;" width="15" x="218.5156" y="499.8714"/><rect fill="#F1F1F1" height="2" style="stroke:#181818;stroke-width:0.5;" width="4" x="216.5156" y="501.8714"/><rect fill="#F1F1F1" height="2" style="stroke:#181818;stroke-width:0.5;" width="4" x="216.5156" y="505.8714"/><text fill="#000000" font-family="sans-serif" font-size="14" lengthAdjust="spacing" textLength="90.8633" x="22" y="528.4066">CycleRegistry</text><text fill="#000000" font-family="sans-serif" font-size="14" lengthAdjust="spacing" textLength="191.5156" x="22" y="544.8948">(CMP-CORE-CYCLE-MODEL)</text></g><!--entity Trace--><g class="entity" data-qualified-name="Trace" data-source-line="40" id="ent0006"><rect fill="#F1F1F1" height="46.4883" rx="2.5" ry="2.5" style="stroke:#181818;stroke-width:0.5;" width="191.1836" x="273.17" y="503.1214"/><rect fill="#F1F1F1" height="10" style="stroke:#181818;stroke-width:0.5;" width="15" x="444.3536" y="508.1214"/><rect fill="#F1F1F1" height="2" style="stroke:#181818;stroke-width:0.5;" width="4" x="442.3536" y="510.1214"/><rect fill="#F1F1F1" height="2" style="stroke:#181818;stroke-width:0.5;" width="4" x="442.3536" y="514.1214"/><text fill="#000000" font-family="sans-serif" font-size="14" lengthAdjust="spacing" textLength="151.1836" x="288.17" y="536.6566">trace.yml source_links</text></g><!--entity TraceEngine--><g class="entity" data-qualified-name="TraceEngine" data-source-line="41" id="ent0007"><rect fill="#F1F1F1" height="62.9766" rx="2.5" ry="2.5" style="stroke:#181818;stroke-width:0.5;" width="189.4404" x="499.04" y="494.8714"/><rect fill="#F1F1F1" height="10" style="stroke:#181818;stroke-width:0.5;" width="15" x="668.4804" y="499.8714"/><rect fill="#F1F1F1" height="2" style="stroke:#181818;stroke-width:0.5;" width="4" x="666.4804" y="501.8714"/><rect fill="#F1F1F1" height="2" style="stroke:#181818;stroke-width:0.5;" width="4" x="666.4804" y="505.8714"/><text fill="#000000" font-family="sans-serif" font-size="14" lengthAdjust="spacing" textLength="97.002" x="514.04" y="528.4066">changed_code</text><text fill="#000000" font-family="sans-serif" font-size="14" lengthAdjust="spacing" textLength="149.4404" x="514.04" y="544.8948">(CMP-TRACE-ENGINE)</text></g><!--entity MapSkill--><g class="entity" data-qualified-name="MapSkill" data-source-line="42" id="ent0008"><rect fill="#F1F1F1" height="62.9766" rx="2.5" ry="2.5" style="stroke:#181818;stroke-width:0.5;" width="159.8887" x="745.81" y="214.9214"/><rect fill="#F1F1F1" height="10" style="stroke:#181818;stroke-width:0.5;" width="15" x="885.6987" y="219.9214"/><rect fill="#F1F1F1" height="2" style="stroke:#181818;stroke-width:0.5;" width="4" x="883.6987" y="221.9214"/><rect fill="#F1F1F1" height="2" style="stroke:#181818;stroke-width:0.5;" width="4" x="883.6987" y="225.9214"/><text fill="#000000" font-family="sans-serif" font-size="14" lengthAdjust="spacing" textLength="107.6387" x="760.81" y="248.4566">/mdd-map skill</text><text fill="#000000" font-family="sans-serif" font-size="14" lengthAdjust="spacing" textLength="119.8887" x="760.81" y="264.9448">(CMP-MAP-SKILL)</text></g><!--entity Cycle--><g class="entity" data-qualified-name="Cycle" data-source-line="43" id="ent0009"><rect fill="#F1F1F1" height="62.9766" rx="2.5" ry="2.5" style="stroke:#181818;stroke-width:0.5;" width="248.7148" x="621.4" y="59.9414"/><rect fill="#F1F1F1" height="10" style="stroke:#181818;stroke-width:0.5;" width="15" x="850.1148" y="64.9414"/><rect fill="#F1F1F1" height="2" style="stroke:#181818;stroke-width:0.5;" width="4" x="848.1148" y="66.9414"/><rect fill="#F1F1F1" height="2" style="stroke:#181818;stroke-width:0.5;" width="4" x="848.1148" y="70.9414"/><text fill="#000000" font-family="sans-serif" font-size="14" lengthAdjust="spacing" textLength="111.5283" x="636.4" y="93.4766">/mdd-cycle skill</text><text fill="#000000" font-family="sans-serif" font-size="14" lengthAdjust="spacing" textLength="208.7148" x="636.4" y="109.9648">(CMP-CYCLE-ORCHESTRATOR)</text></g><g class="entity" data-qualified-name="GMN17" data-source-line="54" id="ent0018"><path d="M723.53,506.0514 L723.53,546.6725 L1185.9841,546.6725 L1185.9841,516.0514 L1175.9841,506.0514 L723.53,506.0514" fill="#FEFFDD" style="stroke:#181818;stroke-width:0.5;"/><path d="M1175.9841,506.0514 L1175.9841,516.0514 L1185.9841,516.0514 L1175.9841,506.0514" fill="#FEFFDD" style="stroke:#181818;stroke-width:1;"/><text fill="#000000" font-family="sans-serif" font-size="13" lengthAdjust="spacing" textLength="311.4858" x="729.53" y="523.6198">Reuses traceability::changed_code (Rust/src diff).</text><text fill="#000000" font-family="sans-serif" font-size="13" lengthAdjust="spacing" textLength="441.4541" x="729.53" y="538.9303">full_remap forces a whole-tree re-map. Realized by SEQ-MAP-SCOPE.</text></g><!--link Dev to Cli--><g class="link" data-entity-1="ent0002" data-entity-2="ent0003" data-link-type="dependency" data-source-line="45" id="lnk10"><path d="M337.09,138.1114 C335.54,154.0314 336.94,171.3014 345.76,184.9214 C354.69,198.7214 362.4017,206.3951 376.7317,214.6551" fill="none" id="Dev-to-Cli" style="stroke:#181818;stroke-width:1;"/><polygon fill="#181818" points="381.93,217.6514,376.1302,209.6914,377.5981,215.1545,372.135,216.6224,381.93,217.6514" style="stroke:#181818;stroke-width:1;"/><text fill="#000000" font-family="sans-serif" font-size="13" lengthAdjust="spacing" textLength="104.3301" x="346.76" y="181.4898">mdd map-scope</text><text fill="#000000" font-family="sans-serif" font-size="13" lengthAdjust="spacing" text-decoration="line-through" textLength="53.168" x="455.2034" y="181.4898">cycle N [</text><text fill="#000000" font-family="sans-serif" font-size="13" lengthAdjust="spacing" textLength="114.0547" x="508.3713" y="181.4898">base REF] [--json]</text></g><!--link Cli to Engine--><g class="link" data-entity-1="ent0003" data-entity-2="ent0004" data-link-type="dependency" data-source-line="46" id="lnk11"><path d="M480.76,278.3714 C480.76,301.1014 480.76,325.8214 480.76,348.5214" fill="none" id="Cli-to-Engine" style="stroke:#181818;stroke-width:1;"/><polygon fill="#181818" points="480.76,354.5214,484.76,345.5214,480.76,349.5214,476.76,345.5214,480.76,354.5214" style="stroke:#181818;stroke-width:1;"/><text fill="#000000" font-family="sans-serif" font-size="13" lengthAdjust="spacing" textLength="126.2104" x="481.76" y="321.4698">map_scope(N, base)</text></g><!--link Engine to CycleModel--><g class="link" data-entity-1="ent0004" data-entity-2="ent0005" data-link-type="dependency" data-source-line="47" id="lnk12"><path d="M367.53,410.0514 C329.33,419.5214 286.96,432.0614 249.76,447.8714 C220.52,460.3014 195.063,475.3693 171.303,491.0993" fill="none" id="Engine-to-CycleModel" style="stroke:#181818;stroke-width:1;"/><polygon fill="#181818" points="166.3,494.4114,176.0125,492.7785,170.4691,491.6513,171.5963,486.1079,166.3,494.4114" style="stroke:#181818;stroke-width:1;"/><text fill="#000000" font-family="sans-serif" font-size="13" lengthAdjust="spacing" textLength="148.7446" x="250.76" y="461.4398">cycle(N).manifest.scope</text></g><!--link Engine to Trace--><g class="link" data-entity-1="ent0004" data-entity-2="ent0006" data-link-type="dependency" data-source-line="48" id="lnk13"><path d="M447.17,418.2214 C437.88,427.4014 428.07,437.7214 419.76,447.8714 C405.48,465.3214 394.672,481.7316 385.002,497.6716" fill="none" id="Engine-to-Trace" style="stroke:#181818;stroke-width:1;"/><polygon fill="#181818" points="381.89,502.8014,389.9779,497.1813,384.4834,498.5265,383.1381,493.032,381.89,502.8014" style="stroke:#181818;stroke-width:1;"/><text fill="#000000" font-family="sans-serif" font-size="13" lengthAdjust="spacing" textLength="129.7017" x="420.76" y="461.4398">source_links by path</text></g><!--link Engine to TraceEngine--><g class="link" data-entity-1="ent0004" data-entity-2="ent0007" data-link-type="dependency" data-source-line="49" id="lnk14"><path d="M524.66,418.2014 C535.33,426.9914 546.14,437.1314 554.76,447.8714 C565.97,461.8614 572.7542,474.0981 579.4042,489.0681" fill="none" id="Engine-to-TraceEngine" style="stroke:#181818;stroke-width:1;"/><polygon fill="#181818" points="581.84,494.5514,581.8418,484.7025,579.8102,489.982,574.5307,487.9503,581.84,494.5514" style="stroke:#181818;stroke-width:1;"/><text fill="#000000" font-family="sans-serif" font-size="13" lengthAdjust="spacing" textLength="162.1382" x="566.6" y="461.4398">changed_code(root, base)</text></g><!--link Cycle to Cli--><g class="link" data-entity-1="ent0009" data-entity-2="ent0003" data-link-type="dependency" data-source-line="50" id="lnk15"><path d="M711.09,123.4214 C688.25,142.7814 657.07,167.2914 626.76,184.9214 C607.9,195.8914 592.209,203.5411 571.899,212.1011" fill="none" id="Cycle-to-Cli" style="stroke:#181818;stroke-width:1;"/><polygon fill="#181818" points="566.37,214.4314,576.217,214.622,570.9775,212.4895,573.11,207.25,566.37,214.4314" style="stroke:#181818;stroke-width:1;"/><text fill="#000000" font-family="sans-serif" font-size="13" lengthAdjust="spacing" textLength="118.3203" x="652.09" y="181.4898">each loop iteration</text></g><!--link Cycle to MapSkill--><g class="link" data-entity-1="ent0009" data-entity-2="ent0008" data-link-type="dependency" data-source-line="51" id="lnk16"><path d="M762.73,123.1714 C770.2,136.8214 779.02,153.1214 786.76,167.9214 C794.79,183.2714 800.7912,195.0926 807.9212,209.3826" fill="none" id="Cycle-to-MapSkill" style="stroke:#181818;stroke-width:1;"/><polygon fill="#181818" points="810.6,214.7514,810.1611,204.9123,808.3677,210.2774,803.0026,208.484,810.6,214.7514" style="stroke:#181818;stroke-width:1;"/><text fill="#000000" font-family="sans-serif" font-size="13" lengthAdjust="spacing" textLength="198.2881" x="796.49" y="181.4898">pass affected_files / full_remap</text></g><!--link Engine to GMN17--><g class="link" data-entity-1="ent0004" data-entity-2="ent0018" data-link-type="association" data-source-line="54" id="lnk19"><path d="M594.06,411.1814 C639.09,421.3814 691.16,434.1214 737.76,447.8714 C795.69,464.9814 860.78,488.8614 904.43,505.5814" fill="none" id="Engine-GMN17" style="stroke:#181818;stroke-width:1;stroke-dasharray:7,7;"/></g><?plantuml-src jLRTRjis5BxNKvnvm2O3bfpT3AZJ1NDaPGqM_rJEDWnR8T0KRREXI86awtf5WJr4dt1FiaDASkGvkLjkWaJd__k-SnZpm6L5D2bXPnWbXi6d0E2Qq8UDLZjP94ee_VerAGfMN5t1rwykqlJLnLCkcfNgG-rqStFzVV9Ty3amn-nK46DUAhSgAoMPj2-KtrXYNmeNpQWbSYDUAZ-XLkaNoeq_BQUy8lypyj_2Zxm8a-aYceuNqJAPBz8edVrqEqlxpbOmGv-q3g2tqEez8ZeQbQJA3LKL2-c12fRBNRbYUW0hb7WVeYkOachfx0j19709L2F9PbWMHKILPaEZwL3mLQnD31aZXO5I5KpaccsuiVe08TrfxKI7pRg41ISRXygQ2zOV8B6aoAqcb45er4vJbWik7moQY2oWxgfD5lPZ_o6SzUEIIBvcncAOww-FvTDVqsoPZi2d8oikk3sCHdIBmc55Jh6lK2jbEzCrDgWh-vxC9QnH2epGxG2w7JchPHgzLmVar6vTWdfOZcExRCsatH4DWcOL4BY-rumjcRt4tzkopW7s75D91IMnTClbfblKPVNZvKWcgLWCD_Fijt4s6Va6uGY2TseXRlkWIb9MsRfCM7AjSR3Mw2VORvd4sXOEp8AIHwFXXKDqlHEEIHG9_01VTHinCJSvAolhE8753fNWc8oK58TB91Mlf06xPS0-8dDkgYuDmEI6ImR__Ft5JIxP7ZRS3ir1uaGE1AOFCVmYkOrGR1QH2ez2pIN1EVOcjoflW3OUAyoDdzeoDOW3U8pRoSQhTicHPSfC_ZXZF-xrdrogvExskOr24wvJeafaeZ2ZKRikyAcMRgqr20ks9ZjXuKqwdg2qtni4-_D_zqbmlqubuHBtoJ7vt9uEu1kluHYYoEUgDChCd6ph9LZsqNg5jcOtQrJpsT0ug4boH89xrWQ04d6Vo7gDXH7vLim2UOnXBFRaO1ohcEu2GW8LbXfu3H7Ou2mUHSijIcuwcTJ2B50HaQlg25TxfDTiUNKy3VqWgEzlRy8-C8416eOmtg2f1yG0VeNZbGo2ntUiXx0vXYDVvK_v16y-GI9uD-eSrRFGvexwwDIBjPiWSHnapL5gOfDvXXL_J-xIQ3gVf7TDPUSvTKUY6-yFL7menSc1yG7tpjJrxUvDK-e-6oUdBVgeypwzh1pk-1W9qHtovzkxfaCd6MSzY_D2EucifvjdoPjqYJtSpxFEa47WQ8fGj8WsZE246lnUfvl17r7aLo9BRzwvFvnytmKkniNMCxZme-1dpRqE6filSOGLNS-UXDW7TlqzFkXwSi-RCtxcT-pXkPSZyEKxi_fRB9IgWECBGInNikFJ8eoEbVllhbsjl7uVXfqp6mIuI0nMobfLWbgtsWDyM-kJ-kpJ1c6sCzOT45pPzReVOr3dVjVN3dTqlrM2HHOVesOf_Rij-5_rmxPCtpwkGHmmV8DTI_y2?></g></svg>