<svg xmlns="http://www.w3.org/2000/svg" xmlns:xlink="http://www.w3.org/1999/xlink" contentStyleType="text/css" data-diagram-type="CLASS" height="496px" preserveAspectRatio="none" style="width:852px;height:496px;background:#FFFFFF;" version="1.1" viewBox="0 0 852 496" width="852px" zoomAndPan="magnify"><?plantuml 1.2026.3?><defs/><g><g class="title" data-source-line="2"><text fill="#000000" font-family="sans-serif" font-size="14" font-weight="700" lengthAdjust="spacing" textLength="225.1484" x="310.0913" y="23.5352">OCL constraints &#8212; architecture</text></g><!--class C0--><g class="entity" data-qualified-name="C0" data-source-line="7" id="ent0002"><rect fill="#FFF8E1" height="56.6211" rx="2.5" ry="2.5" style="stroke:#181818;stroke-width:0.5;" width="89.9756" x="162.34" y="44.4883"/><ellipse cx="177.34" cy="64.7988" fill="#ADD1B2" rx="11" ry="11" style="stroke:#181818;stroke-width:1;"/><path d="M179.8131,70.9419 Q179.2321,71.2407 178.5929,71.3901 Q177.9538,71.5396 177.2482,71.5396 Q174.7414,71.5396 173.4215,69.8877 Q172.1017,68.2358 172.1017,65.1147 Q172.1017,61.9854 173.4215,60.3335 Q174.7414,58.6816 177.2482,58.6816 Q177.9538,58.6816 178.6012,58.8311 Q179.2487,58.9805 179.8131,59.2793 L179.8131,62.002 Q179.1823,61.4209 178.5888,61.1511 Q177.9953,60.8813 177.3644,60.8813 Q176.0197,60.8813 175.3349,61.948 Q174.6501,63.0146 174.6501,65.1147 Q174.6501,67.2065 175.3349,68.2732 Q176.0197,69.3398 177.3644,69.3398 Q177.9953,69.3398 178.5888,69.0701 Q179.1823,68.8003 179.8131,68.2192 Z " fill="#000000"/><text fill="#000000" font-family="sans-serif" font-size="12" font-style="italic" lengthAdjust="spacing" textLength="56.5605" x="192.0475" y="61.0898">&#171;context&#187;</text><text fill="#000000" font-family="sans-serif" font-size="14" lengthAdjust="spacing" textLength="57.9756" x="191.34" y="77.1563">Decision</text><line style="stroke:#181818;stroke-width:0.5;" x1="163.34" x2="251.3156" y1="85.1094" y2="85.1094"/><line style="stroke:#181818;stroke-width:0.5;" x1="163.34" x2="251.3156" y1="93.1094" y2="93.1094"/></g><!--class C1--><g class="entity" data-qualified-name="C1" data-source-line="8" id="ent0003"><rect fill="#FFF8E1" height="56.6211" rx="2.5" ry="2.5" style="stroke:#181818;stroke-width:0.5;" width="111.1807" x="151.74" y="318.4883"/><ellipse cx="166.74" cy="338.7988" fill="#ADD1B2" rx="11" ry="11" style="stroke:#181818;stroke-width:1;"/><path d="M169.2131,344.9419 Q168.6321,345.2407 167.9929,345.3901 Q167.3538,345.5396 166.6482,345.5396 Q164.1414,345.5396 162.8215,343.8877 Q161.5017,342.2358 161.5017,339.1147 Q161.5017,335.9854 162.8215,334.3335 Q164.1414,332.6816 166.6482,332.6816 Q167.3538,332.6816 168.0012,332.8311 Q168.6487,332.9805 169.2131,333.2793 L169.2131,336.002 Q168.5823,335.4209 167.9888,335.1511 Q167.3953,334.8813 166.7644,334.8813 Q165.4197,334.8813 164.7349,335.948 Q164.0501,337.0146 164.0501,339.1147 Q164.0501,341.2065 164.7349,342.2732 Q165.4197,343.3398 166.7644,343.3398 Q167.3953,343.3398 167.9888,343.0701 Q168.5823,342.8003 169.2131,342.2192 Z " fill="#000000"/><text fill="#000000" font-family="sans-serif" font-size="12" font-style="italic" lengthAdjust="spacing" textLength="56.5605" x="192.0501" y="335.0898">&#171;context&#187;</text><text fill="#000000" font-family="sans-serif" font-size="14" lengthAdjust="spacing" textLength="79.1807" x="180.74" y="351.1563">Component</text><line style="stroke:#181818;stroke-width:0.5;" x1="152.74" x2="261.9207" y1="359.1094" y2="359.1094"/><line style="stroke:#181818;stroke-width:0.5;" x1="152.74" x2="261.9207" y1="367.1094" y2="367.1094"/></g><!--entity D0--><g class="entity" data-qualified-name="D0" data-source-line="9" id="ent0004"><rect fill="#E3F2FD" height="52.9766" rx="2.5" ry="2.5" style="stroke:#181818;stroke-width:0.5;" width="140.6611" x="697.67" y="103.3083"/><text fill="#000000" font-family="sans-serif" font-size="14" font-style="italic" lengthAdjust="spacing" textLength="65.6182" x="735.1915" y="126.8434">&#171;domain&#187;</text><text fill="#000000" font-family="sans-serif" font-size="14" lengthAdjust="spacing" textLength="120.6611" x="707.67" y="143.3317">DOM-ARCH-SPEC</text></g><g class="entity" data-qualified-name="GMN5" data-source-line="11" id="ent0006"><path d="M6,135.8983 L6,283.6932 A0,0 0 0 0 6,283.6932 L408.6655,283.6932 A0,0 0 0 0 408.6655,283.6932 L408.6655,145.8983 L398.6655,135.8983 L211.33,135.8983 L207.33,101.1683 L203.33,135.8983 L6,135.8983 A0,0 0 0 0 6,135.8983" fill="#FEFFDD" style="stroke:#181818;stroke-width:0.5;"/><path d="M398.6655,135.8983 L398.6655,145.8983 L408.6655,145.8983 L398.6655,135.8983" fill="#FEFFDD" style="stroke:#181818;stroke-width:0.5;"/><text fill="#000000" font-family="sans-serif" font-size="13" lengthAdjust="spacing" textLength="225.7671" x="12" y="153.4666">OCL-ARCH-DECISION-HAS-STATUS</text><text fill="#000000" font-family="sans-serif" font-size="13" lengthAdjust="spacing" textLength="18.5542" x="12" y="168.7772">inv</text><text fill="#000000" font-family="sans-serif" font-size="13" lengthAdjust="spacing" textLength="4.1133" x="30.5542" y="168.7772">&#160;</text><text fill="#000000" font-family="sans-serif" font-size="13" lengthAdjust="spacing" textLength="66.0728" x="34.6675" y="168.7772">HasStatus:</text><text fill="#000000" font-family="sans-serif" font-size="13" lengthAdjust="spacing" textLength="8.2266" x="12" y="184.0877">&#160;&#160;</text><text fill="#000000" font-family="sans-serif" font-size="13" lengthAdjust="spacing" textLength="187.8145" x="20.2266" y="184.0877">Set{DecisionStatus::proposed,</text><text fill="#000000" font-family="sans-serif" font-size="13" lengthAdjust="spacing" textLength="4.1133" x="208.041" y="184.0877">&#160;</text><text fill="#000000" font-family="sans-serif" font-size="13" lengthAdjust="spacing" textLength="160.9829" x="212.1543" y="184.0877">DecisionStatus::accepted,</text><text fill="#000000" font-family="sans-serif" font-size="13" lengthAdjust="spacing" textLength="24.6797" x="12" y="199.3983">&#160;&#160;&#160;&#160;&#160;&#160;</text><text fill="#000000" font-family="sans-serif" font-size="13" lengthAdjust="spacing" textLength="177.6899" x="36.6797" y="199.3983">DecisionStatus::superseded,</text><text fill="#000000" font-family="sans-serif" font-size="13" lengthAdjust="spacing" textLength="4.1133" x="214.3696" y="199.3983">&#160;</text><text fill="#000000" font-family="sans-serif" font-size="13" lengthAdjust="spacing" textLength="175.1826" x="218.4829" y="199.3983">DecisionStatus::deprecated}</text><text fill="#000000" font-family="sans-serif" font-size="13" lengthAdjust="spacing" textLength="16.4531" x="12" y="214.7088">&#160;&#160;&#160;&#160;</text><text fill="#000000" font-family="sans-serif" font-size="13" lengthAdjust="spacing" textLength="143.4189" x="28.4531" y="214.7088">-&gt;includes(self.status)</text><text fill="#000000" font-family="sans-serif" font-size="13" lengthAdjust="spacing" textLength="199.1704" x="12" y="230.0194">OCL-ARCH-SUPERSEDE-LINKED</text><text fill="#000000" font-family="sans-serif" font-size="13" lengthAdjust="spacing" textLength="18.5542" x="12" y="245.3299">inv</text><text fill="#000000" font-family="sans-serif" font-size="13" lengthAdjust="spacing" textLength="4.1133" x="30.5542" y="245.3299">&#160;</text><text fill="#000000" font-family="sans-serif" font-size="13" lengthAdjust="spacing" textLength="182.3809" x="34.6675" y="245.3299">SupersededNamesSuccessor:</text><text fill="#000000" font-family="sans-serif" font-size="13" lengthAdjust="spacing" textLength="8.2266" x="12" y="260.6405">&#160;&#160;</text><text fill="#000000" font-family="sans-serif" font-size="13" lengthAdjust="spacing" textLength="64.7461" x="20.2266" y="260.6405">self.status</text><text fill="#000000" font-family="sans-serif" font-size="13" lengthAdjust="spacing" textLength="4.1133" x="84.9727" y="260.6405">&#160;</text><text fill="#000000" font-family="sans-serif" font-size="13" lengthAdjust="spacing" textLength="10.334" x="89.0859" y="260.6405">=</text><text fill="#000000" font-family="sans-serif" font-size="13" lengthAdjust="spacing" textLength="4.1133" x="99.4199" y="260.6405">&#160;</text><text fill="#000000" font-family="sans-serif" font-size="13" lengthAdjust="spacing" textLength="173.5767" x="103.5332" y="260.6405">DecisionStatus::superseded</text><text fill="#000000" font-family="sans-serif" font-size="13" lengthAdjust="spacing" textLength="4.1133" x="277.1099" y="260.6405">&#160;</text><text fill="#000000" font-family="sans-serif" font-size="13" lengthAdjust="spacing" textLength="45.4619" x="281.2231" y="260.6405">implies</text><text fill="#000000" font-family="sans-serif" font-size="13" lengthAdjust="spacing" textLength="199.9512" x="12" y="275.951">self.supersededBy-&gt;notEmpty()</text></g><g class="entity" data-qualified-name="GMN8" data-source-line="21" id="ent0009"><path d="M43.99,410.1783 L43.99,481.4205 A0,0 0 0 0 43.99,481.4205 L370.6677,481.4205 A0,0 0 0 0 370.6677,481.4205 L370.6677,420.1783 L360.6677,410.1783 L211.33,410.1783 L207.33,375.3583 L203.33,410.1783 L43.99,410.1783 A0,0 0 0 0 43.99,410.1783" fill="#FEFFDD" style="stroke:#181818;stroke-width:0.5;"/><path d="M360.6677,410.1783 L360.6677,420.1783 L370.6677,420.1783 L360.6677,410.1783" fill="#FEFFDD" style="stroke:#181818;stroke-width:0.5;"/><text fill="#000000" font-family="sans-serif" font-size="13" lengthAdjust="spacing" textLength="227.9507" x="49.99" y="427.7466">OCL-ARCH-COMPONENTS-IN-SYNC</text><text fill="#000000" font-family="sans-serif" font-size="13" lengthAdjust="spacing" textLength="18.5542" x="49.99" y="443.0572">inv</text><text fill="#000000" font-family="sans-serif" font-size="13" lengthAdjust="spacing" textLength="4.1133" x="68.5442" y="443.0572">&#160;</text><text fill="#000000" font-family="sans-serif" font-size="13" lengthAdjust="spacing" textLength="114.0801" x="72.6575" y="443.0572">OwnedIdsResolve:</text><text fill="#000000" font-family="sans-serif" font-size="13" lengthAdjust="spacing" textLength="8.2266" x="49.99" y="458.3677">&#160;&#160;</text><text fill="#000000" font-family="sans-serif" font-size="13" lengthAdjust="spacing" textLength="288.4819" x="58.2166" y="458.3677">self.owns-&gt;union(self.dependsOn)-&gt;forAll(id</text><text fill="#000000" font-family="sans-serif" font-size="13" lengthAdjust="spacing" textLength="4.1133" x="346.6985" y="458.3677">&#160;</text><text fill="#000000" font-family="sans-serif" font-size="13" lengthAdjust="spacing" textLength="4.856" x="350.8118" y="458.3677">|</text><text fill="#000000" font-family="sans-serif" font-size="13" lengthAdjust="spacing" textLength="209.3013" x="49.99" y="473.6783">DiagramModel.ids-&gt;includes(id))</text></g><!--link C0 to D0--><g class="link" data-entity-1="ent0002" data-entity-2="ent0004" data-link-type="dependency" data-source-line="25" id="lnk11"><path codeLine="25" d="M252.5,75.1583 C334.55,79.8383 515.94,91.6583 667.67,111.7983 C677.31,113.0783 681.5237,113.6494 691.4737,115.3294" fill="none" id="C0-to-D0" style="stroke:#181818;stroke-width:1;stroke-dasharray:7,7;"/><polygon fill="#181818" points="697.39,116.3283,689.1816,110.8857,692.4598,115.4958,687.8497,118.7741,697.39,116.3283" style="stroke:#181818;stroke-width:1;"/><text fill="#000000" font-family="sans-serif" font-size="13" lengthAdjust="spacing" textLength="225.7671" x="440.67" y="84.9166">OCL-ARCH-DECISION-HAS-STATUS</text></g><!--link C0 to D0--><g class="link" data-entity-1="ent0002" data-entity-2="ent0004" data-link-type="dependency" data-source-line="26" id="lnk12"><path codeLine="26" d="M252.52,78.8483 C293.94,85.4583 357.03,97.9883 408.67,118.7983 C423.09,124.6083 423.68,132.6483 438.67,136.7983 C536.75,163.9683 565.95,140.3783 667.67,136.7983 C677.25,136.4583 681.3613,136.3058 691.3013,135.6958" fill="none" id="C0-to-D0-1" style="stroke:#181818;stroke-width:1;stroke-dasharray:7,7;"/><polygon fill="#181818" points="697.29,135.3283,688.0619,131.8871,692.2994,135.6345,688.5519,139.872,697.29,135.3283" style="stroke:#181818;stroke-width:1;"/><text fill="#000000" font-family="sans-serif" font-size="13" lengthAdjust="spacing" textLength="199.1704" x="453.67" y="133.3666">OCL-ARCH-SUPERSEDE-LINKED</text></g><!--link C1 to D0--><g class="link" data-entity-1="ent0003" data-entity-2="ent0004" data-link-type="dependency" data-source-line="27" id="lnk13"><path codeLine="27" d="M263.24,337.5583 C304.02,329.8983 360.65,317.5383 408.67,300.7983 C524.36,260.4583 646.8833,196.591 714.1933,159.551" fill="none" id="C1-to-D0" style="stroke:#181818;stroke-width:1;stroke-dasharray:7,7;"/><polygon fill="#181818" points="719.45,156.6583,709.6366,157.4929,715.0695,159.0688,713.4935,164.5017,719.45,156.6583" style="stroke:#181818;stroke-width:1;"/><text fill="#000000" font-family="sans-serif" font-size="13" lengthAdjust="spacing" textLength="227.9507" x="439.67" y="181.7166">OCL-ARCH-COMPONENTS-IN-SYNC</text></g><?plantuml-src VPB1Rjf048RlVefHUW6fYqBRGuHIIyGs0ZNOY2MgUjnw1rXblMljh4EYjb8Vea_O9-aQ2793b3tEVl_CFxz6Q6rtbNfKPXDvvJL2aTn2QGrv9vJn17z__m7XogtoMFh6OQHnxS5RS6gpzI2L2tLbJKJtojJ2YGfsJjHVbVHR-7HrsQcNMX3TYF9-usnZP6ArTV1kCfbSPSCErZOKPgFn3Cq-JZvCqcZV1ovIB1M5oHSW299BkBuElZq--ZX-HX9RrTQWyGTc-1zpcXDQ5NCsNYPJnXTPicVJjf-qLGWXeCPwXE_MUrk1NOTX4RH17JHfbipuhCZPTCmPNurNTpnyA_C0Kq7S2z_GA1G0EFeVpwQFzL7jR6q9vNju-IFA4ciVVlRQzhqagAdH1UrhQebrs4y4_Q-ZdiNAbBgHI3r2lHxGdkntD-5tYsp9ipHZjxFyIvOUr-2dERcea7WJd15PTzYgqmm-l-4HL5LhXNGKdEetJomE-MPLxPzw_GYDX3Rkiyo7NQT9CLyKUPQlE9lbZ7_BawFNOcTGpYGjaQn-m8v5kpF4uiO4SuS0GaHX61Mcp-ArTMEjUqh2JqYLs8Gxd5k9Ug0aTO9Jijzn66vkC8ZRKnczVGslWcTXX_CyfyuN_GS0?></g></svg>