<svg xmlns="http://www.w3.org/2000/svg" xmlns:xlink="http://www.w3.org/1999/xlink" contentStyleType="text/css" data-diagram-type="CLASS" height="404px" preserveAspectRatio="none" style="width:932px;height:404px;background:#FFFFFF;" version="1.1" viewBox="0 0 932 404" width="932px" zoomAndPan="magnify"><?plantuml 1.2026.3?><defs/><g><g class="title" data-source-line="2"><text fill="#000000" font-family="sans-serif" font-size="14" font-weight="700" lengthAdjust="spacing" textLength="230.002" x="347.7492" y="23.5352">OCL constraints &#8212; canvas-view</text></g><!--class C0--><g class="entity" data-qualified-name="C0" data-source-line="7" id="ent0002"><rect fill="#FFF8E1" height="56.6211" rx="2.5" ry="2.5" style="stroke:#181818;stroke-width:0.5;" width="112.0078" x="196.9" y="226.4883"/><ellipse cx="211.9" cy="246.7988" fill="#ADD1B2" rx="11" ry="11" style="stroke:#181818;stroke-width:1;"/><path d="M214.3731,252.9419 Q213.7921,253.2407 213.1529,253.3901 Q212.5138,253.5396 211.8082,253.5396 Q209.3014,253.5396 207.9815,251.8877 Q206.6617,250.2358 206.6617,247.1147 Q206.6617,243.9854 207.9815,242.3335 Q209.3014,240.6816 211.8082,240.6816 Q212.5138,240.6816 213.1612,240.8311 Q213.8087,240.9805 214.3731,241.2793 L214.3731,244.002 Q213.7423,243.4209 213.1488,243.1511 Q212.5553,242.8813 211.9244,242.8813 Q210.5797,242.8813 209.8949,243.948 Q209.2101,245.0146 209.2101,247.1147 Q209.2101,249.2065 209.8949,250.2732 Q210.5797,251.3398 211.9244,251.3398 Q212.5553,251.3398 213.1488,251.0701 Q213.7423,250.8003 214.3731,250.2192 Z " fill="#000000"/><text fill="#000000" font-family="sans-serif" font-size="12" font-style="italic" lengthAdjust="spacing" textLength="56.5605" x="237.6236" y="243.0898">&#171;context&#187;</text><text fill="#000000" font-family="sans-serif" font-size="14" lengthAdjust="spacing" textLength="80.0078" x="225.9" y="259.1563">CanvasView</text><line style="stroke:#181818;stroke-width:0.5;" x1="197.9" x2="307.9078" y1="267.1094" y2="267.1094"/><line style="stroke:#181818;stroke-width:0.5;" x1="197.9" x2="307.9078" y1="275.1094" y2="275.1094"/></g><!--class C1--><g class="entity" data-qualified-name="C1" data-source-line="8" id="ent0003"><rect fill="#FFF8E1" height="56.6211" rx="2.5" ry="2.5" style="stroke:#181818;stroke-width:0.5;" width="113.04" x="196.38" y="44.4883"/><ellipse cx="211.38" cy="64.7988" fill="#ADD1B2" rx="11" ry="11" style="stroke:#181818;stroke-width:1;"/><path d="M213.8531,70.9419 Q213.2721,71.2407 212.6329,71.3901 Q211.9938,71.5396 211.2882,71.5396 Q208.7814,71.5396 207.4615,69.8877 Q206.1417,68.2358 206.1417,65.1147 Q206.1417,61.9854 207.4615,60.3335 Q208.7814,58.6816 211.2882,58.6816 Q211.9938,58.6816 212.6412,58.8311 Q213.2887,58.9805 213.8531,59.2793 L213.8531,62.002 Q213.2223,61.4209 212.6288,61.1511 Q212.0353,60.8813 211.4044,60.8813 Q210.0597,60.8813 209.3749,61.948 Q208.6901,63.0146 208.6901,65.1147 Q208.6901,67.2065 209.3749,68.2732 Q210.0597,69.3398 211.4044,69.3398 Q212.0353,69.3398 212.6288,69.0701 Q213.2223,68.8003 213.8531,68.2192 Z " fill="#000000"/><text fill="#000000" font-family="sans-serif" font-size="12" font-style="italic" lengthAdjust="spacing" textLength="56.5605" x="237.6197" y="61.0898">&#171;context&#187;</text><text fill="#000000" font-family="sans-serif" font-size="14" lengthAdjust="spacing" textLength="81.04" x="225.38" y="77.1563">PanelLayout</text><line style="stroke:#181818;stroke-width:0.5;" x1="197.38" x2="308.42" y1="85.1094" y2="85.1094"/><line style="stroke:#181818;stroke-width:0.5;" x1="197.38" x2="308.42" y1="93.1094" y2="93.1094"/></g><!--entity D0--><g class="entity" data-qualified-name="D0" data-source-line="9" id="ent0004"><rect fill="#E3F2FD" height="52.9766" rx="2.5" ry="2.5" style="stroke:#181818;stroke-width:0.5;" width="158.4141" x="755.44" y="228.3083"/><text fill="#000000" font-family="sans-serif" font-size="14" font-style="italic" lengthAdjust="spacing" textLength="65.6182" x="801.8379" y="251.8434">&#171;domain&#187;</text><text fill="#000000" font-family="sans-serif" font-size="14" lengthAdjust="spacing" textLength="138.4141" x="765.44" y="268.3317">DOM-CANVAS-VIEW</text></g><!--entity D1--><g class="entity" data-qualified-name="D1" data-source-line="10" id="ent0005"><rect fill="#E3F2FD" height="52.9766" rx="2.5" ry="2.5" style="stroke:#181818;stroke-width:0.5;" width="167.6904" x="750.81" y="46.3083"/><text fill="#000000" font-family="sans-serif" font-size="14" font-style="italic" lengthAdjust="spacing" textLength="65.6182" x="801.8461" y="69.8434">&#171;domain&#187;</text><text fill="#000000" font-family="sans-serif" font-size="14" lengthAdjust="spacing" textLength="147.6904" x="760.81" y="86.3317">DOM-PANEL-LAYOUT</text></g><g class="entity" data-qualified-name="GMN6" data-source-line="12" id="ent0007"><path d="M6,318.1783 L6,389.4205 A0,0 0 0 0 6,389.4205 L499.8052,389.4205 A0,0 0 0 0 499.8052,389.4205 L499.8052,328.1783 L489.8052,318.1783 L256.9,318.1783 L252.9,283.3583 L248.9,318.1783 L6,318.1783 A0,0 0 0 0 6,318.1783" fill="#FEFFDD" style="stroke:#181818;stroke-width:0.5;"/><path d="M489.8052,318.1783 L489.8052,328.1783 L499.8052,328.1783 L489.8052,318.1783" fill="#FEFFDD" style="stroke:#181818;stroke-width:0.5;"/><text fill="#000000" font-family="sans-serif" font-size="13" lengthAdjust="spacing" textLength="189.1475" x="12" y="335.7466">OCL-FISHEYE-FOCAL-CENTER</text><text fill="#000000" font-family="sans-serif" font-size="13" lengthAdjust="spacing" textLength="18.5542" x="12" y="351.0572">inv</text><text fill="#000000" font-family="sans-serif" font-size="13" lengthAdjust="spacing" textLength="4.1133" x="30.5542" y="351.0572">&#160;</text><text fill="#000000" font-family="sans-serif" font-size="13" lengthAdjust="spacing" textLength="133.542" x="34.6675" y="351.0572">FocalIsCanvasCenter:</text><text fill="#000000" font-family="sans-serif" font-size="13" lengthAdjust="spacing" textLength="4.1133" x="168.2095" y="351.0572">&#160;</text><text fill="#000000" font-family="sans-serif" font-size="13" lengthAdjust="spacing" textLength="65.3364" x="172.3228" y="351.0572">self.focal()</text><text fill="#000000" font-family="sans-serif" font-size="13" lengthAdjust="spacing" textLength="4.1133" x="237.6592" y="351.0572">&#160;</text><text fill="#000000" font-family="sans-serif" font-size="13" lengthAdjust="spacing" textLength="10.334" x="241.7725" y="351.0572">=</text><text fill="#000000" font-family="sans-serif" font-size="13" lengthAdjust="spacing" textLength="4.1133" x="252.1064" y="351.0572">&#160;</text><text fill="#000000" font-family="sans-serif" font-size="13" lengthAdjust="spacing" textLength="147.9067" x="256.2197" y="351.0572">self.canvasRect.center()</text><text fill="#000000" font-family="sans-serif" font-size="13" lengthAdjust="spacing" textLength="18.5542" x="12" y="366.3677">inv</text><text fill="#000000" font-family="sans-serif" font-size="13" lengthAdjust="spacing" textLength="4.1133" x="30.5542" y="366.3677">&#160;</text><text fill="#000000" font-family="sans-serif" font-size="13" lengthAdjust="spacing" textLength="112.8486" x="34.6675" y="366.3677">StrengthBounded:</text><text fill="#000000" font-family="sans-serif" font-size="13" lengthAdjust="spacing" textLength="4.1133" x="147.5161" y="366.3677">&#160;</text><text fill="#000000" font-family="sans-serif" font-size="13" lengthAdjust="spacing" textLength="124.5601" x="151.6294" y="366.3677">self.fisheyeStrength</text><text fill="#000000" font-family="sans-serif" font-size="13" lengthAdjust="spacing" textLength="4.1133" x="276.1895" y="366.3677">&#160;</text><text fill="#000000" font-family="sans-serif" font-size="13" lengthAdjust="spacing" textLength="20.668" x="280.3027" y="366.3677">&gt;=</text><text fill="#000000" font-family="sans-serif" font-size="13" lengthAdjust="spacing" textLength="4.1133" x="300.9707" y="366.3677">&#160;</text><text fill="#000000" font-family="sans-serif" font-size="13" lengthAdjust="spacing" textLength="20.5537" x="305.084" y="366.3677">0.0</text><text fill="#000000" font-family="sans-serif" font-size="13" lengthAdjust="spacing" textLength="4.1133" x="325.6377" y="366.3677">&#160;</text><text fill="#000000" font-family="sans-serif" font-size="13" lengthAdjust="spacing" textLength="23.4292" x="329.751" y="366.3677">and</text><text fill="#000000" font-family="sans-serif" font-size="13" lengthAdjust="spacing" textLength="4.1133" x="353.1802" y="366.3677">&#160;</text><text fill="#000000" font-family="sans-serif" font-size="13" lengthAdjust="spacing" textLength="113.0645" x="357.2935" y="366.3677">self.fisheyeRadius</text><text fill="#000000" font-family="sans-serif" font-size="13" lengthAdjust="spacing" textLength="4.1133" x="470.3579" y="366.3677">&#160;</text><text fill="#000000" font-family="sans-serif" font-size="13" lengthAdjust="spacing" textLength="10.334" x="474.4712" y="366.3677">&gt;</text><text fill="#000000" font-family="sans-serif" font-size="13" lengthAdjust="spacing" textLength="20.5537" x="12" y="381.6783">0.0</text></g><g class="entity" data-qualified-name="GMN9" data-source-line="17" id="ent0010"><path d="M15.12,135.8283 L15.12,191.7599 A0,0 0 0 0 15.12,191.7599 L490.6947,191.7599 A0,0 0 0 0 490.6947,191.7599 L490.6947,145.8283 L480.6947,135.8283 L256.9,135.8283 L252.9,101.1483 L248.9,135.8283 L15.12,135.8283 A0,0 0 0 0 15.12,135.8283" fill="#FEFFDD" style="stroke:#181818;stroke-width:0.5;"/><path d="M480.6947,135.8283 L480.6947,145.8283 L490.6947,145.8283 L480.6947,135.8283" fill="#FEFFDD" style="stroke:#181818;stroke-width:0.5;"/><text fill="#000000" font-family="sans-serif" font-size="13" lengthAdjust="spacing" textLength="154.3179" x="21.12" y="153.3966">OCL-PANEL-SLIVER-MIN</text><text fill="#000000" font-family="sans-serif" font-size="13" lengthAdjust="spacing" textLength="18.5542" x="21.12" y="168.7072">inv</text><text fill="#000000" font-family="sans-serif" font-size="13" lengthAdjust="spacing" textLength="4.1133" x="39.6742" y="168.7072">&#160;</text><text fill="#000000" font-family="sans-serif" font-size="13" lengthAdjust="spacing" textLength="137.6108" x="43.7875" y="168.7072">CollapsedKeepsSliver:</text><text fill="#000000" font-family="sans-serif" font-size="13" lengthAdjust="spacing" textLength="8.2266" x="21.12" y="184.0177">&#160;&#160;</text><text fill="#000000" font-family="sans-serif" font-size="13" lengthAdjust="spacing" textLength="113.2993" x="29.3466" y="184.0177">(self.leftCollapsed</text><text fill="#000000" font-family="sans-serif" font-size="13" lengthAdjust="spacing" textLength="4.1133" x="142.6459" y="184.0177">&#160;</text><text fill="#000000" font-family="sans-serif" font-size="13" lengthAdjust="spacing" textLength="13.3047" x="146.7592" y="184.0177">or</text><text fill="#000000" font-family="sans-serif" font-size="13" lengthAdjust="spacing" textLength="4.1133" x="160.0638" y="184.0177">&#160;</text><text fill="#000000" font-family="sans-serif" font-size="13" lengthAdjust="spacing" textLength="122.77" x="164.1771" y="184.0177">self.rightCollapsed)</text><text fill="#000000" font-family="sans-serif" font-size="13" lengthAdjust="spacing" textLength="4.1133" x="286.9471" y="184.0177">&#160;</text><text fill="#000000" font-family="sans-serif" font-size="13" lengthAdjust="spacing" textLength="45.4619" x="291.0604" y="184.0177">implies</text><text fill="#000000" font-family="sans-serif" font-size="13" lengthAdjust="spacing" textLength="4.1133" x="336.5223" y="184.0177">&#160;</text><text fill="#000000" font-family="sans-serif" font-size="13" lengthAdjust="spacing" textLength="95.9448" x="340.6356" y="184.0177">self.sliverWidth</text><text fill="#000000" font-family="sans-serif" font-size="13" lengthAdjust="spacing" textLength="4.1133" x="436.5804" y="184.0177">&#160;</text><text fill="#000000" font-family="sans-serif" font-size="13" lengthAdjust="spacing" textLength="10.334" x="440.6937" y="184.0177">&gt;</text><text fill="#000000" font-family="sans-serif" font-size="13" lengthAdjust="spacing" textLength="4.1133" x="451.0277" y="184.0177">&#160;</text><text fill="#000000" font-family="sans-serif" font-size="13" lengthAdjust="spacing" textLength="20.5537" x="455.141" y="184.0177">0.0</text></g><!--link C0 to D0--><g class="link" data-entity-1="ent0002" data-entity-2="ent0004" data-link-type="dependency" data-source-line="21" id="lnk12"><path codeLine="21" d="M309.23,254.7983 C412.82,254.7983 630.29,254.7983 749.31,254.7983" fill="none" id="C0-to-D0" style="stroke:#181818;stroke-width:1;stroke-dasharray:7,7;"/><polygon fill="#181818" points="755.31,254.7983,746.31,250.7983,750.31,254.7983,746.31,258.7983,755.31,254.7983" style="stroke:#181818;stroke-width:1;"/><text fill="#000000" font-family="sans-serif" font-size="13" lengthAdjust="spacing" textLength="189.1475" x="530.81" y="251.3666">OCL-FISHEYE-FOCAL-CENTER</text></g><!--link C1 to D1--><g class="link" data-entity-1="ent0003" data-entity-2="ent0005" data-link-type="dependency" data-source-line="22" id="lnk13"><path codeLine="22" d="M309.75,72.7983 C412.2,72.7983 624.63,72.7983 744.56,72.7983" fill="none" id="C1-to-D1" style="stroke:#181818;stroke-width:1;stroke-dasharray:7,7;"/><polygon fill="#181818" points="750.56,72.7983,741.56,68.7983,745.56,72.7983,741.56,76.7983,750.56,72.7983" style="stroke:#181818;stroke-width:1;"/><text fill="#000000" font-family="sans-serif" font-size="13" lengthAdjust="spacing" textLength="154.3179" x="548.31" y="69.3666">OCL-PANEL-SLIVER-MIN</text></g><?plantuml-src TP91Rjim44NtEiN0tTWB2LRRHH0a0XIPGeKgTc2b3h9afR5CX285ahQJNG-H4_Oa9IdRS69qgVbFm_zdXd8kznrxPQ8D33CSOP6LK4kXZQ9C60r__xn3JSMEwd37S1zmN1im4XHhDmOQfh0sJ8f0lp3HKqKxs2lQFx76RE3xrVIiNdEgzHsjNrebjwB999SAlkHvVaNYCymrfABbU86IR_dNV1RuFZ3AlAcLzJG2gY6RmisDDMxmrIJ94NgW0db9t-JM35JyWJgz1QFPuZxCqlaghS9LGPuyFNCz6zdPILp23-cSb66PFYz-FGvqV4uBQH1-IsDa1t9jxGNWPXlcHVM3F9CmNsHf6MPa_aYMLc9Y1xciAI_q42n3Qr9TWqQ-ZjPE6K_WTlWSzh6qVgBQO-F9eKLb58hMRExSsB0v_ixq1j_mA49o2zDe2bGq7_GbRTXMG-B40AteCbm4YGz1XlnLMQp8ChmlvWS7TbUSzXgRduYzhZZRsHHM0nZxjzpzd1YmQ_LLVqsdyWHOrtE6UX2rRpASr2TpTkjHbBX5NVz_kdRf7eeFq6Vd_m00?></g></svg>