<svg xmlns="http://www.w3.org/2000/svg" xmlns:xlink="http://www.w3.org/1999/xlink" contentStyleType="text/css" data-diagram-type="CLASS" height="1546px" preserveAspectRatio="none" style="width:992px;height:1546px;background:#FFFFFF;" version="1.1" viewBox="0 0 992 1546" width="992px" zoomAndPan="magnify"><?plantuml 1.2026.3?><defs/><g><g class="title" data-source-line="2"><text fill="#000000" font-family="sans-serif" font-size="14" font-weight="700" lengthAdjust="spacing" textLength="216.1797" x="384.8636" y="23.5352">OCL constraints &#8212; deploy-iac</text></g><!--class C0--><g class="entity" data-qualified-name="C0" data-source-line="7" id="ent0002"><rect fill="#FFF8E1" height="56.6211" rx="2.5" ry="2.5" style="stroke:#181818;stroke-width:0.5;" width="124.5107" x="175.26" y="44.4883"/><ellipse cx="190.26" cy="64.7988" fill="#ADD1B2" rx="11" ry="11" style="stroke:#181818;stroke-width:1;"/><path d="M192.7331,70.9419 Q192.1521,71.2407 191.5129,71.3901 Q190.8738,71.5396 190.1682,71.5396 Q187.6614,71.5396 186.3415,69.8877 Q185.0217,68.2358 185.0217,65.1147 Q185.0217,61.9854 186.3415,60.3335 Q187.6614,58.6816 190.1682,58.6816 Q190.8738,58.6816 191.5212,58.8311 Q192.1687,58.9805 192.7331,59.2793 L192.7331,62.002 Q192.1023,61.4209 191.5088,61.1511 Q190.9153,60.8813 190.2844,60.8813 Q188.9397,60.8813 188.2549,61.948 Q187.5701,63.0146 187.5701,65.1147 Q187.5701,67.2065 188.2549,68.2732 Q188.9397,69.3398 190.2844,69.3398 Q190.9153,69.3398 191.5088,69.0701 Q192.1023,68.8003 192.7331,68.2192 Z " fill="#000000"/><text fill="#000000" font-family="sans-serif" font-size="12" font-style="italic" lengthAdjust="spacing" textLength="56.5605" x="222.2351" y="61.0898">&#171;context&#187;</text><text fill="#000000" font-family="sans-serif" font-size="14" lengthAdjust="spacing" textLength="92.5107" x="204.26" y="77.1563">DialectChoice</text><line style="stroke:#181818;stroke-width:0.5;" x1="176.26" x2="298.7707" y1="85.1094" y2="85.1094"/><line style="stroke:#181818;stroke-width:0.5;" x1="176.26" x2="298.7707" y1="93.1094" y2="93.1094"/></g><!--class C1--><g class="entity" data-qualified-name="C1" data-source-line="8" id="ent0003"><rect fill="#FFF8E1" height="56.6211" rx="2.5" ry="2.5" style="stroke:#181818;stroke-width:0.5;" width="91.1104" x="191.96" y="272.4883"/><ellipse cx="206.96" cy="292.7988" fill="#ADD1B2" rx="11" ry="11" style="stroke:#181818;stroke-width:1;"/><path d="M209.4331,298.9419 Q208.8521,299.2407 208.2129,299.3901 Q207.5738,299.5396 206.8682,299.5396 Q204.3614,299.5396 203.0415,297.8877 Q201.7217,296.2358 201.7217,293.1147 Q201.7217,289.9854 203.0415,288.3335 Q204.3614,286.6816 206.8682,286.6816 Q207.5738,286.6816 208.2212,286.8311 Q208.8687,286.9805 209.4331,287.2793 L209.4331,290.002 Q208.8023,289.4209 208.2088,289.1511 Q207.6153,288.8813 206.9844,288.8813 Q205.6397,288.8813 204.9549,289.948 Q204.2701,291.0146 204.2701,293.1147 Q204.2701,295.2065 204.9549,296.2732 Q205.6397,297.3398 206.9844,297.3398 Q207.6153,297.3398 208.2088,297.0701 Q208.8023,296.8003 209.4331,296.2192 Z " fill="#000000"/><text fill="#000000" font-family="sans-serif" font-size="12" font-style="italic" lengthAdjust="spacing" textLength="56.5605" x="222.2349" y="289.0898">&#171;context&#187;</text><text fill="#000000" font-family="sans-serif" font-size="14" lengthAdjust="spacing" textLength="59.1104" x="220.96" y="305.1563">KeyVault</text><line style="stroke:#181818;stroke-width:0.5;" x1="192.96" x2="282.0704" y1="313.1094" y2="313.1094"/><line style="stroke:#181818;stroke-width:0.5;" x1="192.96" x2="282.0704" y1="321.1094" y2="321.1094"/></g><!--class C2--><g class="entity" data-qualified-name="C2" data-source-line="9" id="ent0004"><rect fill="#FFF8E1" height="56.6211" rx="2.5" ry="2.5" style="stroke:#181818;stroke-width:0.5;" width="118.6318" x="178.2" y="454.4883"/><ellipse cx="193.2" cy="474.7988" fill="#ADD1B2" rx="11" ry="11" style="stroke:#181818;stroke-width:1;"/><path d="M195.6731,480.9419 Q195.0921,481.2407 194.4529,481.3901 Q193.8138,481.5396 193.1082,481.5396 Q190.6014,481.5396 189.2815,479.8877 Q187.9617,478.2358 187.9617,475.1147 Q187.9617,471.9854 189.2815,470.3335 Q190.6014,468.6816 193.1082,468.6816 Q193.8138,468.6816 194.4612,468.8311 Q195.1087,468.9805 195.6731,469.2793 L195.6731,472.002 Q195.0423,471.4209 194.4488,471.1511 Q193.8553,470.8813 193.2244,470.8813 Q191.8797,470.8813 191.1949,471.948 Q190.5101,473.0146 190.5101,475.1147 Q190.5101,477.2065 191.1949,478.2732 Q191.8797,479.3398 193.2244,479.3398 Q193.8553,479.3398 194.4488,479.0701 Q195.0423,478.8003 195.6731,478.2192 Z " fill="#000000"/><text fill="#000000" font-family="sans-serif" font-size="12" font-style="italic" lengthAdjust="spacing" textLength="56.5605" x="222.2356" y="471.0898">&#171;context&#187;</text><text fill="#000000" font-family="sans-serif" font-size="14" lengthAdjust="spacing" textLength="86.6318" x="207.2" y="487.1563">MigrationJob</text><line style="stroke:#181818;stroke-width:0.5;" x1="179.2" x2="295.8318" y1="495.1094" y2="495.1094"/><line style="stroke:#181818;stroke-width:0.5;" x1="179.2" x2="295.8318" y1="503.1094" y2="503.1094"/></g><!--class C3--><g class="entity" data-qualified-name="C3" data-source-line="10" id="ent0005"><rect fill="#FFF8E1" height="56.6211" rx="2.5" ry="2.5" style="stroke:#181818;stroke-width:0.5;" width="168.3564" x="153.34" y="636.4883"/><ellipse cx="168.34" cy="656.7988" fill="#ADD1B2" rx="11" ry="11" style="stroke:#181818;stroke-width:1;"/><path d="M170.8131,662.9419 Q170.2321,663.2407 169.5929,663.3901 Q168.9538,663.5396 168.2482,663.5396 Q165.7414,663.5396 164.4215,661.8877 Q163.1017,660.2358 163.1017,657.1147 Q163.1017,653.9854 164.4215,652.3335 Q165.7414,650.6816 168.2482,650.6816 Q168.9538,650.6816 169.6012,650.8311 Q170.2487,650.9805 170.8131,651.2793 L170.8131,654.002 Q170.1823,653.4209 169.5888,653.1511 Q168.9953,652.8813 168.3644,652.8813 Q167.0197,652.8813 166.3349,653.948 Q165.6501,655.0146 165.6501,657.1147 Q165.6501,659.2065 166.3349,660.2732 Q167.0197,661.3398 168.3644,661.3398 Q168.9953,661.3398 169.5888,661.0701 Q170.1823,660.8003 170.8131,660.2192 Z " fill="#000000"/><text fill="#000000" font-family="sans-serif" font-size="12" font-style="italic" lengthAdjust="spacing" textLength="56.5605" x="222.2379" y="653.0898">&#171;context&#187;</text><text fill="#000000" font-family="sans-serif" font-size="14" lengthAdjust="spacing" textLength="136.3564" x="182.34" y="669.1563">DeploymentPurpose</text><line style="stroke:#181818;stroke-width:0.5;" x1="154.34" x2="320.6964" y1="677.1094" y2="677.1094"/><line style="stroke:#181818;stroke-width:0.5;" x1="154.34" x2="320.6964" y1="685.1094" y2="685.1094"/></g><!--class C4--><g class="entity" data-qualified-name="C4" data-source-line="11" id="ent0006"><rect fill="#FFF8E1" height="56.6211" rx="2.5" ry="2.5" style="stroke:#181818;stroke-width:0.5;" width="139.8506" x="167.59" y="880.4883"/><ellipse cx="182.59" cy="900.7988" fill="#ADD1B2" rx="11" ry="11" style="stroke:#181818;stroke-width:1;"/><path d="M185.0631,906.9419 Q184.4821,907.2407 183.8429,907.3901 Q183.2038,907.5396 182.4982,907.5396 Q179.9914,907.5396 178.6715,905.8877 Q177.3517,904.2358 177.3517,901.1147 Q177.3517,897.9854 178.6715,896.3335 Q179.9914,894.6816 182.4982,894.6816 Q183.2038,894.6816 183.8512,894.8311 Q184.4987,894.9805 185.0631,895.2793 L185.0631,898.002 Q184.4323,897.4209 183.8388,897.1511 Q183.2453,896.8813 182.6144,896.8813 Q181.2697,896.8813 180.5849,897.948 Q179.9001,899.0146 179.9001,901.1147 Q179.9001,903.2065 180.5849,904.2732 Q181.2697,905.3398 182.6144,905.3398 Q183.2453,905.3398 183.8388,905.0701 Q184.4323,904.8003 185.0631,904.2192 Z " fill="#000000"/><text fill="#000000" font-family="sans-serif" font-size="12" font-style="italic" lengthAdjust="spacing" textLength="56.5605" x="222.235" y="897.0898">&#171;context&#187;</text><text fill="#000000" font-family="sans-serif" font-size="14" lengthAdjust="spacing" textLength="107.8506" x="196.59" y="913.1563">ResourceAccess</text><line style="stroke:#181818;stroke-width:0.5;" x1="168.59" x2="306.4406" y1="921.1094" y2="921.1094"/><line style="stroke:#181818;stroke-width:0.5;" x1="168.59" x2="306.4406" y1="929.1094" y2="929.1094"/></g><!--class C5--><g class="entity" data-qualified-name="C5" data-source-line="12" id="ent0007"><rect fill="#FFF8E1" height="56.6211" rx="2.5" ry="2.5" style="stroke:#181818;stroke-width:0.5;" width="158.8271" x="158.1" y="1078.4883"/><ellipse cx="173.1" cy="1098.7988" fill="#ADD1B2" rx="11" ry="11" style="stroke:#181818;stroke-width:1;"/><path d="M175.5731,1104.9419 Q174.9921,1105.2407 174.3529,1105.3901 Q173.7138,1105.5396 173.0082,1105.5396 Q170.5014,1105.5396 169.1815,1103.8877 Q167.8617,1102.2358 167.8617,1099.1147 Q167.8617,1095.9854 169.1815,1094.3335 Q170.5014,1092.6816 173.0082,1092.6816 Q173.7138,1092.6816 174.3612,1092.8311 Q175.0087,1092.9805 175.5731,1093.2793 L175.5731,1096.002 Q174.9423,1095.4209 174.3488,1095.1511 Q173.7553,1094.8813 173.1244,1094.8813 Q171.7797,1094.8813 171.0949,1095.948 Q170.4101,1097.0146 170.4101,1099.1147 Q170.4101,1101.2065 171.0949,1102.2732 Q171.7797,1103.3398 173.1244,1103.3398 Q173.7553,1103.3398 174.3488,1103.0701 Q174.9423,1102.8003 175.5731,1102.2192 Z " fill="#000000"/><text fill="#000000" font-family="sans-serif" font-size="12" font-style="italic" lengthAdjust="spacing" textLength="56.5605" x="222.2333" y="1095.0898">&#171;context&#187;</text><text fill="#000000" font-family="sans-serif" font-size="14" lengthAdjust="spacing" textLength="126.8271" x="187.1" y="1111.1563">RunbookExecution</text><line style="stroke:#181818;stroke-width:0.5;" x1="159.1" x2="315.9271" y1="1119.1094" y2="1119.1094"/><line style="stroke:#181818;stroke-width:0.5;" x1="159.1" x2="315.9271" y1="1127.1094" y2="1127.1094"/></g><!--class C6--><g class="entity" data-qualified-name="C6" data-source-line="13" id="ent0008"><rect fill="#FFF8E1" height="56.6211" rx="2.5" ry="2.5" style="stroke:#181818;stroke-width:0.5;" width="108.1592" x="183.44" y="1368.4883"/><ellipse cx="198.44" cy="1388.7988" fill="#ADD1B2" rx="11" ry="11" style="stroke:#181818;stroke-width:1;"/><path d="M200.9131,1394.9419 Q200.3321,1395.2407 199.6929,1395.3901 Q199.0538,1395.5396 198.3482,1395.5396 Q195.8414,1395.5396 194.5215,1393.8877 Q193.2017,1392.2358 193.2017,1389.1147 Q193.2017,1385.9854 194.5215,1384.3335 Q195.8414,1382.6816 198.3482,1382.6816 Q199.0538,1382.6816 199.7012,1382.8311 Q200.3487,1382.9805 200.9131,1383.2793 L200.9131,1386.002 Q200.2823,1385.4209 199.6888,1385.1511 Q199.0953,1384.8813 198.4644,1384.8813 Q197.1197,1384.8813 196.4349,1385.948 Q195.7501,1387.0146 195.7501,1389.1147 Q195.7501,1391.2065 196.4349,1392.2732 Q197.1197,1393.3398 198.4644,1393.3398 Q199.0953,1393.3398 199.6888,1393.0701 Q200.2823,1392.8003 200.9131,1392.2192 Z " fill="#000000"/><text fill="#000000" font-family="sans-serif" font-size="12" font-style="italic" lengthAdjust="spacing" textLength="56.5605" x="222.2393" y="1385.0898">&#171;context&#187;</text><text fill="#000000" font-family="sans-serif" font-size="14" lengthAdjust="spacing" textLength="76.1592" x="212.44" y="1401.1563">GoLiveGate</text><line style="stroke:#181818;stroke-width:0.5;" x1="184.44" x2="290.5992" y1="1409.1094" y2="1409.1094"/><line style="stroke:#181818;stroke-width:0.5;" x1="184.44" x2="290.5992" y1="1417.1094" y2="1417.1094"/></g><!--entity D0--><g class="entity" data-qualified-name="D0" data-source-line="14" id="ent0009"><rect fill="#E3F2FD" height="52.9766" rx="2.5" ry="2.5" style="stroke:#181818;stroke-width:0.5;" width="145.877" x="833.03" y="695.3083"/><text fill="#000000" font-family="sans-serif" font-size="14" font-style="italic" lengthAdjust="spacing" textLength="65.6182" x="873.1594" y="718.8434">&#171;domain&#187;</text><text fill="#000000" font-family="sans-serif" font-size="14" lengthAdjust="spacing" textLength="125.877" x="843.03" y="735.3317">DOM-DEPLOY-IAC</text></g><g class="entity" data-qualified-name="GMN10" data-source-line="16" id="ent0011"><path d="M75.8,135.8683 L75.8,237.7316 A0,0 0 0 0 75.8,237.7316 L399.2404,237.7316 A0,0 0 0 0 399.2404,237.7316 L399.2404,145.8683 L389.2404,135.8683 L241.52,135.8683 L237.52,101.2483 L233.52,135.8683 L75.8,135.8683 A0,0 0 0 0 75.8,135.8683" fill="#FEFFDD" style="stroke:#181818;stroke-width:0.5;"/><path d="M389.2404,135.8683 L389.2404,145.8683 L399.2404,145.8683 L389.2404,135.8683" fill="#FEFFDD" style="stroke:#181818;stroke-width:0.5;"/><text fill="#000000" font-family="sans-serif" font-size="13" lengthAdjust="spacing" textLength="173.0435" x="81.8" y="153.4366">OCL-DEPLOY-IAC-DIALECT</text><text fill="#000000" font-family="sans-serif" font-size="13" lengthAdjust="spacing" textLength="18.5542" x="81.8" y="168.7472">inv</text><text fill="#000000" font-family="sans-serif" font-size="13" lengthAdjust="spacing" textLength="4.1133" x="100.3542" y="168.7472">&#160;</text><text fill="#000000" font-family="sans-serif" font-size="13" lengthAdjust="spacing" textLength="226.1162" x="104.4675" y="168.7472">ExactlyOneSupportedDialectPerRun:</text><text fill="#000000" font-family="sans-serif" font-size="13" lengthAdjust="spacing" textLength="8.2266" x="81.8" y="184.0577">&#160;&#160;</text><text fill="#000000" font-family="sans-serif" font-size="13" lengthAdjust="spacing" textLength="67.4248" x="90.0266" y="184.0577">Set{'bicep',</text><text fill="#000000" font-family="sans-serif" font-size="13" lengthAdjust="spacing" textLength="4.1133" x="157.4514" y="184.0577">&#160;</text><text fill="#000000" font-family="sans-serif" font-size="13" lengthAdjust="spacing" textLength="208.4951" x="161.5646" y="184.0577">'terraform'}-&gt;includes(self.value)</text><text fill="#000000" font-family="sans-serif" font-size="13" lengthAdjust="spacing" textLength="302.4404" x="81.8" y="199.3683">OCL-DEPLOY-IAC-CONFIRM-BEFORE-ARTIFACT</text><text fill="#000000" font-family="sans-serif" font-size="13" lengthAdjust="spacing" textLength="18.5542" x="81.8" y="214.6788">inv</text><text fill="#000000" font-family="sans-serif" font-size="13" lengthAdjust="spacing" textLength="4.1133" x="100.3542" y="214.6788">&#160;</text><text fill="#000000" font-family="sans-serif" font-size="13" lengthAdjust="spacing" textLength="191.0327" x="104.4675" y="214.6788">NoArtifactBeforeConfirmation:</text><text fill="#000000" font-family="sans-serif" font-size="13" lengthAdjust="spacing" textLength="8.2266" x="81.8" y="229.9894">&#160;&#160;</text><text fill="#000000" font-family="sans-serif" font-size="13" lengthAdjust="spacing" textLength="116.3525" x="90.0266" y="229.9894">self.artifactWritten</text><text fill="#000000" font-family="sans-serif" font-size="13" lengthAdjust="spacing" textLength="4.1133" x="206.3791" y="229.9894">&#160;</text><text fill="#000000" font-family="sans-serif" font-size="13" lengthAdjust="spacing" textLength="45.4619" x="210.4924" y="229.9894">implies</text><text fill="#000000" font-family="sans-serif" font-size="13" lengthAdjust="spacing" textLength="4.1133" x="255.9543" y="229.9894">&#160;</text><text fill="#000000" font-family="sans-serif" font-size="13" lengthAdjust="spacing" textLength="90.6509" x="260.0676" y="229.9894">self.confirmed</text></g><g class="entity" data-qualified-name="GMN13" data-source-line="24" id="ent0014"><path d="M6,363.8283 L6,419.7599 A0,0 0 0 0 6,419.7599 L469.0317,419.7599 A0,0 0 0 0 469.0317,419.7599 L469.0317,373.8283 L459.0317,363.8283 L241.52,363.8283 L237.52,329.1483 L233.52,363.8283 L6,363.8283 A0,0 0 0 0 6,363.8283" fill="#FEFFDD" style="stroke:#181818;stroke-width:0.5;"/><path d="M459.0317,363.8283 L459.0317,373.8283 L469.0317,373.8283 L459.0317,363.8283" fill="#FEFFDD" style="stroke:#181818;stroke-width:0.5;"/><text fill="#000000" font-family="sans-serif" font-size="13" lengthAdjust="spacing" textLength="254.2173" x="12" y="381.3966">OCL-DEPLOY-IAC-SECURE-BY-DEFAULT</text><text fill="#000000" font-family="sans-serif" font-size="13" lengthAdjust="spacing" textLength="18.5542" x="12" y="396.7072">inv</text><text fill="#000000" font-family="sans-serif" font-size="13" lengthAdjust="spacing" textLength="4.1133" x="30.5542" y="396.7072">&#160;</text><text fill="#000000" font-family="sans-serif" font-size="13" lengthAdjust="spacing" textLength="252.4653" x="34.6675" y="396.7072">NoStoreMoreNetworkOpenThanItsPeers:</text><text fill="#000000" font-family="sans-serif" font-size="13" lengthAdjust="spacing" textLength="8.2266" x="12" y="412.0177">&#160;&#160;</text><text fill="#000000" font-family="sans-serif" font-size="13" lengthAdjust="spacing" textLength="163.541" x="20.2266" y="412.0177">self.networkDefaultAction</text><text fill="#000000" font-family="sans-serif" font-size="13" lengthAdjust="spacing" textLength="4.1133" x="183.7676" y="412.0177">&#160;</text><text fill="#000000" font-family="sans-serif" font-size="13" lengthAdjust="spacing" textLength="10.334" x="187.8809" y="412.0177">=</text><text fill="#000000" font-family="sans-serif" font-size="13" lengthAdjust="spacing" textLength="4.1133" x="198.2148" y="412.0177">&#160;</text><text fill="#000000" font-family="sans-serif" font-size="13" lengthAdjust="spacing" textLength="37.7939" x="202.3281" y="412.0177">'Deny'</text><text fill="#000000" font-family="sans-serif" font-size="13" lengthAdjust="spacing" textLength="4.1133" x="240.1221" y="412.0177">&#160;</text><text fill="#000000" font-family="sans-serif" font-size="13" lengthAdjust="spacing" textLength="23.4292" x="244.2354" y="412.0177">and</text><text fill="#000000" font-family="sans-serif" font-size="13" lengthAdjust="spacing" textLength="4.1133" x="267.6646" y="412.0177">&#160;</text><text fill="#000000" font-family="sans-serif" font-size="13" lengthAdjust="spacing" textLength="70.1099" x="271.7778" y="412.0177">self.bypass</text><text fill="#000000" font-family="sans-serif" font-size="13" lengthAdjust="spacing" textLength="4.1133" x="341.8877" y="412.0177">&#160;</text><text fill="#000000" font-family="sans-serif" font-size="13" lengthAdjust="spacing" textLength="10.334" x="346.001" y="412.0177">=</text><text fill="#000000" font-family="sans-serif" font-size="13" lengthAdjust="spacing" textLength="4.1133" x="356.335" y="412.0177">&#160;</text><text fill="#000000" font-family="sans-serif" font-size="13" lengthAdjust="spacing" textLength="93.5835" x="360.4482" y="412.0177">'AzureServices'</text></g><g class="entity" data-qualified-name="GMN16" data-source-line="29" id="ent0017"><path d="M74.24,545.8283 L74.24,601.7599 A0,0 0 0 0 74.24,601.7599 L400.7844,601.7599 A0,0 0 0 0 400.7844,601.7599 L400.7844,555.8283 L390.7844,545.8283 L241.52,545.8283 L237.52,511.1483 L233.52,545.8283 L74.24,545.8283 A0,0 0 0 0 74.24,545.8283" fill="#FEFFDD" style="stroke:#181818;stroke-width:0.5;"/><path d="M390.7844,545.8283 L390.7844,555.8283 L400.7844,555.8283 L390.7844,545.8283" fill="#FEFFDD" style="stroke:#181818;stroke-width:0.5;"/><text fill="#000000" font-family="sans-serif" font-size="13" lengthAdjust="spacing" textLength="243.439" x="80.24" y="563.3966">OCL-DEPLOY-IAC-MIGRATION-ORDER</text><text fill="#000000" font-family="sans-serif" font-size="13" lengthAdjust="spacing" textLength="18.5542" x="80.24" y="578.7072">inv</text><text fill="#000000" font-family="sans-serif" font-size="13" lengthAdjust="spacing" textLength="4.1133" x="98.7942" y="578.7072">&#160;</text><text fill="#000000" font-family="sans-serif" font-size="13" lengthAdjust="spacing" textLength="261.187" x="102.9075" y="578.7072">MigrationCompletesBeforeTrafficRouting:</text><text fill="#000000" font-family="sans-serif" font-size="13" lengthAdjust="spacing" textLength="8.2266" x="80.24" y="594.0177">&#160;&#160;</text><text fill="#000000" font-family="sans-serif" font-size="13" lengthAdjust="spacing" textLength="60.5693" x="88.4666" y="594.0177">self.order</text><text fill="#000000" font-family="sans-serif" font-size="13" lengthAdjust="spacing" textLength="4.1133" x="149.0359" y="594.0177">&#160;</text><text fill="#000000" font-family="sans-serif" font-size="13" lengthAdjust="spacing" textLength="10.334" x="153.1492" y="594.0177">=</text><text fill="#000000" font-family="sans-serif" font-size="13" lengthAdjust="spacing" textLength="4.1133" x="163.4832" y="594.0177">&#160;</text><text fill="#000000" font-family="sans-serif" font-size="13" lengthAdjust="spacing" textLength="43.729" x="167.5964" y="594.0177">'before</text><text fill="#000000" font-family="sans-serif" font-size="13" lengthAdjust="spacing" textLength="4.1133" x="211.3254" y="594.0177">&#160;</text><text fill="#000000" font-family="sans-serif" font-size="13" lengthAdjust="spacing" textLength="22.0391" x="215.4387" y="594.0177">any</text><text fill="#000000" font-family="sans-serif" font-size="13" lengthAdjust="spacing" textLength="4.1133" x="237.4778" y="594.0177">&#160;</text><text fill="#000000" font-family="sans-serif" font-size="13" lengthAdjust="spacing" textLength="49.4863" x="241.5911" y="594.0177">revision</text><text fill="#000000" font-family="sans-serif" font-size="13" lengthAdjust="spacing" textLength="4.1133" x="291.0774" y="594.0177">&#160;</text><text fill="#000000" font-family="sans-serif" font-size="13" lengthAdjust="spacing" textLength="37.3369" x="295.1907" y="594.0177">traffic</text><text fill="#000000" font-family="sans-serif" font-size="13" lengthAdjust="spacing" textLength="4.1133" x="332.5276" y="594.0177">&#160;</text><text fill="#000000" font-family="sans-serif" font-size="13" lengthAdjust="spacing" textLength="49.1436" x="336.6409" y="594.0177">routing'</text></g><g class="entity" data-qualified-name="GMN19" data-source-line="34" id="ent0020"><path d="M13.95,728.2083 L13.95,845.3821 A0,0 0 0 0 13.95,845.3821 L461.0809,845.3821 A0,0 0 0 0 461.0809,845.3821 L461.0809,738.2083 L451.0809,728.2083 L241.52,728.2083 L237.52,693.5183 L233.52,728.2083 L13.95,728.2083 A0,0 0 0 0 13.95,728.2083" fill="#FEFFDD" style="stroke:#181818;stroke-width:0.5;"/><path d="M451.0809,728.2083 L451.0809,738.2083 L461.0809,738.2083 L451.0809,728.2083" fill="#FEFFDD" style="stroke:#181818;stroke-width:0.5;"/><text fill="#000000" font-family="sans-serif" font-size="13" lengthAdjust="spacing" textLength="175.1445" x="19.95" y="745.7766">OCL-DEPLOY-IAC-PURPOSE</text><text fill="#000000" font-family="sans-serif" font-size="13" lengthAdjust="spacing" textLength="18.5542" x="19.95" y="761.0872">inv</text><text fill="#000000" font-family="sans-serif" font-size="13" lengthAdjust="spacing" textLength="4.1133" x="38.5042" y="761.0872">&#160;</text><text fill="#000000" font-family="sans-serif" font-size="13" lengthAdjust="spacing" textLength="298.3271" x="42.6175" y="761.0872">PurposeConfirmedBeforePurposeDrivenDefault:</text><text fill="#000000" font-family="sans-serif" font-size="13" lengthAdjust="spacing" textLength="8.2266" x="19.95" y="776.3977">&#160;&#160;</text><text fill="#000000" font-family="sans-serif" font-size="13" lengthAdjust="spacing" textLength="55.5547" x="28.1766" y="776.3977">Set{'dev',</text><text fill="#000000" font-family="sans-serif" font-size="13" lengthAdjust="spacing" textLength="4.1133" x="83.7313" y="776.3977">&#160;</text><text fill="#000000" font-family="sans-serif" font-size="13" lengthAdjust="spacing" textLength="56.7734" x="87.8445" y="776.3977">'staging',</text><text fill="#000000" font-family="sans-serif" font-size="13" lengthAdjust="spacing" textLength="4.1133" x="144.618" y="776.3977">&#160;</text><text fill="#000000" font-family="sans-serif" font-size="13" lengthAdjust="spacing" textLength="178.02" x="148.7313" y="776.3977">'prod'}-&gt;includes(self.value)</text><text fill="#000000" font-family="sans-serif" font-size="13" lengthAdjust="spacing" textLength="16.4531" x="19.95" y="791.7083">&#160;&#160;&#160;&#160;</text><text fill="#000000" font-family="sans-serif" font-size="13" lengthAdjust="spacing" textLength="23.4292" x="36.4031" y="791.7083">and</text><text fill="#000000" font-family="sans-serif" font-size="13" lengthAdjust="spacing" textLength="4.1133" x="59.8323" y="791.7083">&#160;</text><text fill="#000000" font-family="sans-serif" font-size="13" lengthAdjust="spacing" textLength="233.5684" x="63.9456" y="791.7083">(self.purposeDrivenDefaultGenerated</text><text fill="#000000" font-family="sans-serif" font-size="13" lengthAdjust="spacing" textLength="4.1133" x="297.514" y="791.7083">&#160;</text><text fill="#000000" font-family="sans-serif" font-size="13" lengthAdjust="spacing" textLength="45.4619" x="301.6272" y="791.7083">implies</text><text fill="#000000" font-family="sans-serif" font-size="13" lengthAdjust="spacing" textLength="4.1133" x="347.0892" y="791.7083">&#160;</text><text fill="#000000" font-family="sans-serif" font-size="13" lengthAdjust="spacing" textLength="94.8784" x="351.2024" y="791.7083">self.confirmed)</text><text fill="#000000" font-family="sans-serif" font-size="13" lengthAdjust="spacing" textLength="264.8813" x="19.95" y="807.0188">OCL-DEPLOY-IAC-SURFACE-NOT-DECIDE</text><text fill="#000000" font-family="sans-serif" font-size="13" lengthAdjust="spacing" textLength="18.5542" x="19.95" y="822.3294">inv</text><text fill="#000000" font-family="sans-serif" font-size="13" lengthAdjust="spacing" textLength="4.1133" x="38.5042" y="822.3294">&#160;</text><text fill="#000000" font-family="sans-serif" font-size="13" lengthAdjust="spacing" textLength="240.4238" x="42.6175" y="822.3294">SurfaceChoicesNeverBakeInAnAnswer:</text><text fill="#000000" font-family="sans-serif" font-size="13" lengthAdjust="spacing" textLength="8.2266" x="19.95" y="837.6399">&#160;&#160;</text><text fill="#000000" font-family="sans-serif" font-size="13" lengthAdjust="spacing" textLength="225.6655" x="28.1766" y="837.6399">self.purposeDrivenDefaultsSurfaced</text><text fill="#000000" font-family="sans-serif" font-size="13" lengthAdjust="spacing" textLength="4.1133" x="253.8421" y="837.6399">&#160;</text><text fill="#000000" font-family="sans-serif" font-size="13" lengthAdjust="spacing" textLength="23.4292" x="257.9554" y="837.6399">and</text><text fill="#000000" font-family="sans-serif" font-size="13" lengthAdjust="spacing" textLength="4.1133" x="281.3846" y="837.6399">&#160;</text><text fill="#000000" font-family="sans-serif" font-size="13" lengthAdjust="spacing" textLength="20.9155" x="285.4979" y="837.6399">not</text><text fill="#000000" font-family="sans-serif" font-size="13" lengthAdjust="spacing" textLength="4.1133" x="306.4134" y="837.6399">&#160;</text><text fill="#000000" font-family="sans-serif" font-size="13" lengthAdjust="spacing" textLength="121.4053" x="310.5267" y="837.6399">self.bakesInAnswer</text></g><g class="entity" data-qualified-name="GMN22" data-source-line="43" id="ent0023"><path d="M12.69,972.1783 L12.69,1043.4205 A0,0 0 0 0 12.69,1043.4205 L462.3409,1043.4205 A0,0 0 0 0 462.3409,1043.4205 L462.3409,982.1783 L452.3409,972.1783 L241.52,972.1783 L237.52,937.3583 L233.52,972.1783 L12.69,972.1783 A0,0 0 0 0 12.69,972.1783" fill="#FEFFDD" style="stroke:#181818;stroke-width:0.5;"/><path d="M452.3409,972.1783 L452.3409,982.1783 L462.3409,982.1783 L452.3409,972.1783" fill="#FEFFDD" style="stroke:#181818;stroke-width:0.5;"/><text fill="#000000" font-family="sans-serif" font-size="13" lengthAdjust="spacing" textLength="241.6489" x="18.69" y="989.7466">OCL-DEPLOY-IAC-ACCESS-COMPLETE</text><text fill="#000000" font-family="sans-serif" font-size="13" lengthAdjust="spacing" textLength="18.5542" x="18.69" y="1005.0572">inv</text><text fill="#000000" font-family="sans-serif" font-size="13" lengthAdjust="spacing" textLength="4.1133" x="37.2442" y="1005.0572">&#160;</text><text fill="#000000" font-family="sans-serif" font-size="13" lengthAdjust="spacing" textLength="362.2544" x="41.3575" y="1005.0572">EverySecuredStoreHasReaderAndWriterWithAdmittedPath:</text><text fill="#000000" font-family="sans-serif" font-size="13" lengthAdjust="spacing" textLength="8.2266" x="18.69" y="1020.3677">&#160;&#160;</text><text fill="#000000" font-family="sans-serif" font-size="13" lengthAdjust="spacing" textLength="153.2515" x="26.9166" y="1020.3677">self.reader-&gt;notEmpty()</text><text fill="#000000" font-family="sans-serif" font-size="13" lengthAdjust="spacing" textLength="4.1133" x="180.168" y="1020.3677">&#160;</text><text fill="#000000" font-family="sans-serif" font-size="13" lengthAdjust="spacing" textLength="23.4292" x="184.2813" y="1020.3677">and</text><text fill="#000000" font-family="sans-serif" font-size="13" lengthAdjust="spacing" textLength="4.1133" x="207.7105" y="1020.3677">&#160;</text><text fill="#000000" font-family="sans-serif" font-size="13" lengthAdjust="spacing" textLength="149.2842" x="211.8238" y="1020.3677">self.writer-&gt;notEmpty()</text><text fill="#000000" font-family="sans-serif" font-size="13" lengthAdjust="spacing" textLength="16.4531" x="18.69" y="1035.6783">&#160;&#160;&#160;&#160;</text><text fill="#000000" font-family="sans-serif" font-size="13" lengthAdjust="spacing" textLength="23.4292" x="35.1431" y="1035.6783">and</text><text fill="#000000" font-family="sans-serif" font-size="13" lengthAdjust="spacing" textLength="4.1133" x="58.5723" y="1035.6783">&#160;</text><text fill="#000000" font-family="sans-serif" font-size="13" lengthAdjust="spacing" textLength="178.4834" x="62.6856" y="1035.6783">self.reader.hasAdmittedPath</text><text fill="#000000" font-family="sans-serif" font-size="13" lengthAdjust="spacing" textLength="4.1133" x="241.169" y="1035.6783">&#160;</text><text fill="#000000" font-family="sans-serif" font-size="13" lengthAdjust="spacing" textLength="23.4292" x="245.2823" y="1035.6783">and</text><text fill="#000000" font-family="sans-serif" font-size="13" lengthAdjust="spacing" textLength="4.1133" x="268.7115" y="1035.6783">&#160;</text><text fill="#000000" font-family="sans-serif" font-size="13" lengthAdjust="spacing" textLength="174.5161" x="272.8248" y="1035.6783">self.writer.hasAdmittedPath</text></g><g class="entity" data-qualified-name="GMN25" data-source-line="49" id="ent0026"><path d="M29.11,1170.2483 L29.11,1333.3538 A0,0 0 0 0 29.11,1333.3538 L445.9181,1333.3538 A0,0 0 0 0 445.9181,1333.3538 L445.9181,1180.2483 L435.9181,1170.2483 L241.52,1170.2483 L237.52,1135.4183 L233.52,1170.2483 L29.11,1170.2483 A0,0 0 0 0 29.11,1170.2483" fill="#FEFFDD" style="stroke:#181818;stroke-width:0.5;"/><path d="M435.9181,1170.2483 L435.9181,1180.2483 L445.9181,1180.2483 L435.9181,1170.2483" fill="#FEFFDD" style="stroke:#181818;stroke-width:0.5;"/><text fill="#000000" font-family="sans-serif" font-size="13" lengthAdjust="spacing" textLength="282.0771" x="35.11" y="1187.8166">OCL-DEPLOY-EXEC-DRYRUN-BEFORE-APPLY</text><text fill="#000000" font-family="sans-serif" font-size="13" lengthAdjust="spacing" textLength="18.5542" x="35.11" y="1203.1272">inv</text><text fill="#000000" font-family="sans-serif" font-size="13" lengthAdjust="spacing" textLength="4.1133" x="53.6642" y="1203.1272">&#160;</text><text fill="#000000" font-family="sans-serif" font-size="13" lengthAdjust="spacing" textLength="150.0776" x="57.7775" y="1203.1272">DryRunBeforeAnyApply:</text><text fill="#000000" font-family="sans-serif" font-size="13" lengthAdjust="spacing" textLength="8.2266" x="35.11" y="1218.4377">&#160;&#160;</text><text fill="#000000" font-family="sans-serif" font-size="13" lengthAdjust="spacing" textLength="117.8887" x="43.3366" y="1218.4377">self.applyExecuted</text><text fill="#000000" font-family="sans-serif" font-size="13" lengthAdjust="spacing" textLength="4.1133" x="161.2252" y="1218.4377">&#160;</text><text fill="#000000" font-family="sans-serif" font-size="13" lengthAdjust="spacing" textLength="45.4619" x="165.3385" y="1218.4377">implies</text><text fill="#000000" font-family="sans-serif" font-size="13" lengthAdjust="spacing" textLength="4.1133" x="210.8004" y="1218.4377">&#160;</text><text fill="#000000" font-family="sans-serif" font-size="13" lengthAdjust="spacing" textLength="216.0044" x="214.9137" y="1218.4377">self.dryRunProducedAndApproved</text><text fill="#000000" font-family="sans-serif" font-size="13" lengthAdjust="spacing" textLength="239.1416" x="35.11" y="1233.7483">OCL-DEPLOY-EXEC-HALT-ON-ERROR</text><text fill="#000000" font-family="sans-serif" font-size="13" lengthAdjust="spacing" textLength="18.5542" x="35.11" y="1249.0588">inv</text><text fill="#000000" font-family="sans-serif" font-size="13" lengthAdjust="spacing" textLength="4.1133" x="53.6642" y="1249.0588">&#160;</text><text fill="#000000" font-family="sans-serif" font-size="13" lengthAdjust="spacing" textLength="146.1738" x="57.7775" y="1249.0588">HaltsOnFirstFailedStep:</text><text fill="#000000" font-family="sans-serif" font-size="13" lengthAdjust="spacing" textLength="8.2266" x="35.11" y="1264.3694">&#160;&#160;</text><text fill="#000000" font-family="sans-serif" font-size="13" lengthAdjust="spacing" textLength="90.5239" x="43.3366" y="1264.3694">self.stepFailed</text><text fill="#000000" font-family="sans-serif" font-size="13" lengthAdjust="spacing" textLength="4.1133" x="133.8605" y="1264.3694">&#160;</text><text fill="#000000" font-family="sans-serif" font-size="13" lengthAdjust="spacing" textLength="45.4619" x="137.9738" y="1264.3694">implies</text><text fill="#000000" font-family="sans-serif" font-size="13" lengthAdjust="spacing" textLength="4.1133" x="183.4357" y="1264.3694">&#160;</text><text fill="#000000" font-family="sans-serif" font-size="13" lengthAdjust="spacing" textLength="20.9155" x="187.549" y="1264.3694">not</text><text fill="#000000" font-family="sans-serif" font-size="13" lengthAdjust="spacing" textLength="4.1133" x="208.4645" y="1264.3694">&#160;</text><text fill="#000000" font-family="sans-serif" font-size="13" lengthAdjust="spacing" textLength="105.6377" x="212.5778" y="1264.3694">self.laterStepRan</text><text fill="#000000" font-family="sans-serif" font-size="13" lengthAdjust="spacing" textLength="258.8447" x="35.11" y="1279.6799">OCL-DEPLOY-EXEC-PAUSE-IRREVERSIBLE</text><text fill="#000000" font-family="sans-serif" font-size="13" lengthAdjust="spacing" textLength="18.5542" x="35.11" y="1294.9905">inv</text><text fill="#000000" font-family="sans-serif" font-size="13" lengthAdjust="spacing" textLength="4.1133" x="53.6642" y="1294.9905">&#160;</text><text fill="#000000" font-family="sans-serif" font-size="13" lengthAdjust="spacing" textLength="187.3638" x="57.7775" y="1294.9905">PauseOnlyAtIrreversibleSteps:</text><text fill="#000000" font-family="sans-serif" font-size="13" lengthAdjust="spacing" textLength="8.2266" x="35.11" y="1310.301">&#160;&#160;</text><text fill="#000000" font-family="sans-serif" font-size="13" lengthAdjust="spacing" textLength="194.2129" x="43.3366" y="1310.301">self.irreversibleSteps-&gt;forAll(s</text><text fill="#000000" font-family="sans-serif" font-size="13" lengthAdjust="spacing" textLength="4.1133" x="237.5495" y="1310.301">&#160;</text><text fill="#000000" font-family="sans-serif" font-size="13" lengthAdjust="spacing" textLength="4.856" x="241.6627" y="1310.301">|</text><text fill="#000000" font-family="sans-serif" font-size="13" lengthAdjust="spacing" textLength="4.1133" x="246.5187" y="1310.301">&#160;</text><text fill="#000000" font-family="sans-serif" font-size="13" lengthAdjust="spacing" textLength="135.5098" x="250.632" y="1310.301">s.operatorConfirmed)</text><text fill="#000000" font-family="sans-serif" font-size="13" lengthAdjust="spacing" textLength="16.4531" x="35.11" y="1325.6116">&#160;&#160;&#160;&#160;</text><text fill="#000000" font-family="sans-serif" font-size="13" lengthAdjust="spacing" textLength="23.4292" x="51.5631" y="1325.6116">and</text><text fill="#000000" font-family="sans-serif" font-size="13" lengthAdjust="spacing" textLength="4.1133" x="74.9923" y="1325.6116">&#160;</text><text fill="#000000" font-family="sans-serif" font-size="13" lengthAdjust="spacing" textLength="185.1357" x="79.1056" y="1325.6116">self.reversibleSteps-&gt;forAll(s</text><text fill="#000000" font-family="sans-serif" font-size="13" lengthAdjust="spacing" textLength="4.1133" x="264.2413" y="1325.6116">&#160;</text><text fill="#000000" font-family="sans-serif" font-size="13" lengthAdjust="spacing" textLength="4.856" x="268.3546" y="1325.6116">|</text><text fill="#000000" font-family="sans-serif" font-size="13" lengthAdjust="spacing" textLength="4.1133" x="273.2106" y="1325.6116">&#160;</text><text fill="#000000" font-family="sans-serif" font-size="13" lengthAdjust="spacing" textLength="93.9326" x="277.3239" y="1325.6116">s.autonomous)</text></g><g class="entity" data-qualified-name="GMN28" data-source-line="61" id="ent0029"><path d="M44.63,1460.1783 L44.63,1531.4205 A0,0 0 0 0 44.63,1531.4205 L430.3981,1531.4205 A0,0 0 0 0 430.3981,1531.4205 L430.3981,1470.1783 L420.3981,1460.1783 L241.52,1460.1783 L237.52,1425.3583 L233.52,1460.1783 L44.63,1460.1783 A0,0 0 0 0 44.63,1460.1783" fill="#FEFFDD" style="stroke:#181818;stroke-width:0.5;"/><path d="M420.3981,1460.1783 L420.3981,1470.1783 L430.3981,1470.1783 L420.3981,1460.1783" fill="#FEFFDD" style="stroke:#181818;stroke-width:0.5;"/><text fill="#000000" font-family="sans-serif" font-size="13" lengthAdjust="spacing" textLength="257.7656" x="50.63" y="1477.7466">OCL-DEPLOY-EXEC-GOLIVE-CONFIRMED</text><text fill="#000000" font-family="sans-serif" font-size="13" lengthAdjust="spacing" textLength="18.5542" x="50.63" y="1493.0572">inv</text><text fill="#000000" font-family="sans-serif" font-size="13" lengthAdjust="spacing" textLength="4.1133" x="69.1842" y="1493.0572">&#160;</text><text fill="#000000" font-family="sans-serif" font-size="13" lengthAdjust="spacing" textLength="178.6421" x="73.2975" y="1493.0572">GoLiveNeverAutoConfirmed:</text><text fill="#000000" font-family="sans-serif" font-size="13" lengthAdjust="spacing" textLength="8.2266" x="50.63" y="1508.3677">&#160;&#160;</text><text fill="#000000" font-family="sans-serif" font-size="13" lengthAdjust="spacing" textLength="108.418" x="58.8566" y="1508.3677">self.trafficRouted</text><text fill="#000000" font-family="sans-serif" font-size="13" lengthAdjust="spacing" textLength="4.1133" x="167.2745" y="1508.3677">&#160;</text><text fill="#000000" font-family="sans-serif" font-size="13" lengthAdjust="spacing" textLength="45.4619" x="171.3878" y="1508.3677">implies</text><text fill="#000000" font-family="sans-serif" font-size="13" lengthAdjust="spacing" textLength="16.4531" x="50.63" y="1523.6783">&#160;&#160;&#160;&#160;</text><text fill="#000000" font-family="sans-serif" font-size="13" lengthAdjust="spacing" textLength="151.29" x="67.0831" y="1523.6783">(self.operatorConfirmed</text><text fill="#000000" font-family="sans-serif" font-size="13" lengthAdjust="spacing" textLength="4.1133" x="218.3732" y="1523.6783">&#160;</text><text fill="#000000" font-family="sans-serif" font-size="13" lengthAdjust="spacing" textLength="23.4292" x="222.4864" y="1523.6783">and</text><text fill="#000000" font-family="sans-serif" font-size="13" lengthAdjust="spacing" textLength="4.1133" x="245.9156" y="1523.6783">&#160;</text><text fill="#000000" font-family="sans-serif" font-size="13" lengthAdjust="spacing" textLength="165.3691" x="250.0289" y="1523.6783">self.fullGateStateSurfaced)</text></g><!--link C0 to D0--><g class="link" data-entity-1="ent0002" data-entity-2="ent0009" data-link-type="dependency" data-source-line="66" id="lnk31"><path codeLine="66" d="M300.11,67.6283 C416.77,61.5483 670.14,66.6883 803.03,208.7983 C870.4,280.8383 896.4329,594.0721 902.8929,689.0621" fill="none" id="C0-to-D0" style="stroke:#181818;stroke-width:1;stroke-dasharray:7,7;"/><polygon fill="#181818" points="903.3,695.0483,906.6801,685.7976,902.9607,690.0598,898.6986,686.3404,903.3,695.0483" style="stroke:#181818;stroke-width:1;"/><text fill="#000000" font-family="sans-serif" font-size="13" lengthAdjust="spacing" textLength="173.0435" x="564.53" y="73.6466">OCL-DEPLOY-IAC-DIALECT</text></g><!--link C0 to D0--><g class="link" data-entity-1="ent0002" data-entity-2="ent0009" data-link-type="dependency" data-source-line="67" id="lnk32"><path codeLine="67" d="M300.16,68.3283 C351.82,68.0783 424.13,76.4383 469.03,118.7983 C507.45,155.0483 462.47,195.6783 499.03,233.7983 C596.84,335.7683 705.36,224.6983 803.03,326.7983 C854.8,380.9183 889.7997,609.2833 900.6797,689.1033" fill="none" id="C0-to-D0-1" style="stroke:#181818;stroke-width:1;stroke-dasharray:7,7;"/><polygon fill="#181818" points="901.49,695.0483,904.2378,685.5905,900.8147,690.0941,896.3111,686.671,901.49,695.0483" style="stroke:#181818;stroke-width:1;"/><text fill="#000000" font-family="sans-serif" font-size="13" lengthAdjust="spacing" textLength="302.4404" x="500.03" y="230.3666">OCL-DEPLOY-IAC-CONFIRM-BEFORE-ARTIFACT</text></g><!--link C1 to D0--><g class="link" data-entity-1="ent0003" data-entity-2="ent0009" data-link-type="dependency" data-source-line="68" id="lnk33"><path codeLine="68" d="M283.38,305.1783 C388.68,317.8083 654.01,363.5783 803.03,513.7983 C855.43,566.6083 883.6528,645.9575 896.2128,689.0975" fill="none" id="C1-to-D0" style="stroke:#181818;stroke-width:1;stroke-dasharray:7,7;"/><polygon fill="#181818" points="897.89,694.8583,899.2147,685.0989,896.4923,690.0576,891.5336,687.3352,897.89,694.8583" style="stroke:#181818;stroke-width:1;"/><text fill="#000000" font-family="sans-serif" font-size="13" lengthAdjust="spacing" textLength="254.2173" x="524.03" y="348.5166">OCL-DEPLOY-IAC-SECURE-BY-DEFAULT</text></g><!--link C2 to D0--><g class="link" data-entity-1="ent0004" data-entity-2="ent0009" data-link-type="dependency" data-source-line="69" id="lnk34"><path codeLine="69" d="M296.91,491.8183 C343.88,499.6983 411.32,512.4383 469.03,528.7983 C621.37,571.9783 662.24,580.3383 803.03,652.7983 C826.4,664.8283 845.9863,677.7149 865.0763,691.5049" fill="none" id="C2-to-D0" style="stroke:#181818;stroke-width:1;stroke-dasharray:7,7;"/><polygon fill="#181818" points="869.94,695.0183,864.9867,686.5057,865.8869,692.0904,860.3021,692.9907,869.94,695.0183" style="stroke:#181818;stroke-width:1;"/><text fill="#000000" font-family="sans-serif" font-size="13" lengthAdjust="spacing" textLength="243.439" x="529.53" y="535.1166">OCL-DEPLOY-IAC-MIGRATION-ORDER</text></g><!--link C3 to D0--><g class="link" data-entity-1="ent0005" data-entity-2="ent0009" data-link-type="dependency" data-source-line="70" id="lnk35"><path codeLine="70" d="M321.99,667.7983 C432.4,672.4083 632.87,682.9583 803.03,703.7983 C812.66,704.9783 816.847,705.4999 826.797,707.1099" fill="none" id="C3-to-D0" style="stroke:#181818;stroke-width:1;stroke-dasharray:7,7;"/><polygon fill="#181818" points="832.72,708.0683,824.4745,702.6821,827.7842,707.2696,823.1966,710.5793,832.72,708.0683" style="stroke:#181818;stroke-width:1;"/><text fill="#000000" font-family="sans-serif" font-size="13" lengthAdjust="spacing" textLength="175.1445" x="563.53" y="674.3566">OCL-DEPLOY-IAC-PURPOSE</text></g><!--link C3 to D0--><g class="link" data-entity-1="ent0005" data-entity-2="ent0009" data-link-type="dependency" data-source-line="72" id="lnk37"><path codeLine="72" d="M322.07,674.4083 C366.72,681.2883 422.02,692.6383 469.03,710.7983 C483.54,716.3983 484.05,724.6483 499.03,728.7983 C629.24,764.8583 668,733.4283 803.03,728.7983 C812.61,728.4683 816.6906,728.3241 826.6206,727.7341" fill="none" id="C3-to-D0-1" style="stroke:#181818;stroke-width:1;stroke-dasharray:7,7;"/><polygon fill="#181818" points="832.61,727.3783,823.3886,723.9191,827.6188,727.6748,823.8631,731.905,832.61,727.3783" style="stroke:#181818;stroke-width:1;"/><text fill="#000000" font-family="sans-serif" font-size="13" lengthAdjust="spacing" textLength="264.8813" x="519.03" y="725.3666">OCL-DEPLOY-IAC-SURFACE-NOT-DECIDE</text></g><!--link C4 to D0--><g class="link" data-entity-1="ent0006" data-entity-2="ent0009" data-link-type="dependency" data-source-line="71" id="lnk36"><path codeLine="71" d="M307.87,897.3283 C415.96,878.2583 630.13,835.5683 803.03,770.7983 C819.86,764.4983 832.2833,759.0605 848.2333,751.3105" fill="none" id="C4-to-D0" style="stroke:#181818;stroke-width:1;stroke-dasharray:7,7;"/><polygon fill="#181818" points="853.63,748.6883,843.7869,749.0238,849.1328,750.8735,847.2831,756.2194,853.63,748.6883" style="stroke:#181818;stroke-width:1;"/><text fill="#000000" font-family="sans-serif" font-size="13" lengthAdjust="spacing" textLength="241.6489" x="530.53" y="767.3666">OCL-DEPLOY-IAC-ACCESS-COMPLETE</text></g><!--link C5 to D0--><g class="link" data-entity-1="ent0007" data-entity-2="ent0009" data-link-type="dependency" data-source-line="73" id="lnk38"><path codeLine="73" d="M317.27,1110.8083 C366.76,1109.0283 428.66,1098.2883 469.03,1060.7983 C505.54,1026.8983 462.97,987.1683 499.03,952.7983 C599.31,857.1983 689.96,963.8683 803.03,883.7983 C851.17,849.7083 879.395,790.6041 893.505,754.1341" fill="none" id="C5-to-D0" style="stroke:#181818;stroke-width:1;stroke-dasharray:7,7;"/><polygon fill="#181818" points="895.67,748.5383,888.692,755.4887,893.8659,753.2014,896.1531,758.3753,895.67,748.5383" style="stroke:#181818;stroke-width:1;"/><text fill="#000000" font-family="sans-serif" font-size="13" lengthAdjust="spacing" textLength="282.0771" x="510.03" y="880.3666">OCL-DEPLOY-EXEC-DRYRUN-BEFORE-APPLY</text></g><!--link C5 to D0--><g class="link" data-entity-1="ent0007" data-entity-2="ent0009" data-link-type="dependency" data-source-line="74" id="lnk39"><path codeLine="74" d="M317.39,1098.0183 C454.98,1081.2383 731.09,1040.6083 803.03,977.7983 C873.12,916.6083 894.7826,806.569 901.5126,754.379" fill="none" id="C5-to-D0-1" style="stroke:#181818;stroke-width:1;stroke-dasharray:7,7;"/><polygon fill="#181818" points="902.28,748.4283,897.1618,756.8428,901.6405,753.3872,905.0961,757.8659,902.28,748.4283" style="stroke:#181818;stroke-width:1;"/><text fill="#000000" font-family="sans-serif" font-size="13" lengthAdjust="spacing" textLength="239.1416" x="531.53" y="974.3666">OCL-DEPLOY-EXEC-HALT-ON-ERROR</text></g><!--link C5 to D0--><g class="link" data-entity-1="ent0007" data-entity-2="ent0009" data-link-type="dependency" data-source-line="75" id="lnk40"><path codeLine="75" d="M317.35,1116.5783 C454.55,1131.8283 729.6,1153.9683 803.03,1096.7983 C859.13,1053.1183 891.203,833.1616 901.053,754.6616" fill="none" id="C5-to-D0-2" style="stroke:#181818;stroke-width:1;stroke-dasharray:7,7;"/><polygon fill="#181818" points="901.8,748.7083,896.7106,757.1403,901.1775,753.6694,904.6484,758.1363,901.8,748.7083" style="stroke:#181818;stroke-width:1;"/><text fill="#000000" font-family="sans-serif" font-size="13" lengthAdjust="spacing" textLength="258.8447" x="522.03" y="1093.3666">OCL-DEPLOY-EXEC-PAUSE-IRREVERSIBLE</text></g><!--link C6 to D0--><g class="link" data-entity-1="ent0008" data-entity-2="ent0009" data-link-type="dependency" data-source-line="76" id="lnk41"><path codeLine="76" d="M291.67,1391.8683 C406.37,1378.1383 676.94,1328.4683 803.03,1158.7983 C899.57,1028.8983 906.6254,828.0379 905.8254,754.6679" fill="none" id="C6-to-D0" style="stroke:#181818;stroke-width:1;stroke-dasharray:7,7;"/><polygon fill="#181818" points="905.76,748.6683,901.8584,757.7114,905.8145,753.668,909.8579,757.6241,905.76,748.6683" style="stroke:#181818;stroke-width:1;"/><text fill="#000000" font-family="sans-serif" font-size="13" lengthAdjust="spacing" textLength="257.7656" x="522.53" y="1155.3666">OCL-DEPLOY-EXEC-GOLIVE-CONFIRMED</text></g><?plantuml-src VLRTRkeu4BxdAQop5xJIfZhzEKT7HsUHGXBQx0A94cYtboOPm6gm8zkXPN-aVOXzmdsI7IU1ff3GggZOtuo_cVbcR9fbudN3tXXVzJJJ6P306PD4SAKbPLmhyjy__v8KyapiB4QJNWPBJRGWagtMcgHCGgAPu3trmdXE9TsGLqdp9vRgDRdxzhcndcHKgI5DNbPI53nrH2Oa-Maq6dtphXimuv3oLGOdKEzsT3DoUwKVyibbD4EeinOiWK-4Ak9y9Zz-87KDRtemsED-WzqZBJ9TGQxR81EsajH4yQjOLB2RDfXRPc43N8U5p8MgJxrjmqQWH24Ji9C4bAg0Twt0WY-4UF7U82aCXGhwfGrwByPi2_TKrmT__G0wv0s91XFBzS9ny6pvjbE2NPERL6omfeZbGWDP2At5XeWb9gv7JDqRHfRhssFFcU46urlYlT54Pxk0GrpakP0QqZh_8KWCuJlY28b1_zbVO3do_i-ahq5AkXHoq__R6Z2UP4KAwa91jhpQqgo0ozD3dM0wygE9DVH6GUHPTZJpH_Q1n5JOKhCbCXa2-WL7y2MJcx9o5O7IEQr1Jv9f3PomJPunKDLcKjb0sWEU4fE7asHSd_AAFMUEV8RFk3Yov-DtHh568XFycu9-5V8bo87FrfJxMeK0KZLuyGhXmjB8qIxRXln2-YxmNPzGf5F25hlSL1itx3yA2J78BMPKzRi9tvmIdlZtaJtpWwaLHAuNrNGFEdS4vWGqg2gHCwpJaYMHG0NoLOEoa2b8GsLHuf3a3ljpovIXhYih8YkpCmHlJmc6yoWCOgycLlUJiozEHQjUTIMgdjTfQmWjXQsHcT9qPOx7VtCfqZDYCpycpTLotkBz7ZXWXY3j44sBPEDvX1Brh6ammsN7T_SnnOL45K8rdzGKjY27z0LyRkElUWNPo7CR5rKxI4lEcD9Q7kX3-RMBxfJVdJAr7SUBO-onIJZsPdkQ7lBQnJXy9AIbc1-eYe1YtMsUcXO2-SJqsautfflIaEfrWxWiaTO0Z_SskTvTNBuB-RKqRkurQj2mlbfJrNH_xE5ulpleBn-3zdxtS8v5pz5yUfWeOJX-hYDtvGudLoKrc-_iFCzspJ5YlbTZ-LWFQMaPejeAh0_c2MsbsE9GEJt_mHxFBEn3Bug2VHy-K2nlm4TCAZsYB3EPXxnnjiAlrSRXu8C0CjIdDFY8yfRpGdiUUvOVHTwZ5yN-S7peCLee27YsixKlfP6ZOeiCZAVcb6B7UzO04sHdsOKYVn5r9NBJ8K8wpPuugkevUrfemSL65Egokv1VMmAx3yR-exU_8Zot3gkw5Clsij7rWLOZ9Fq-tjuJMhEkPi59KE_HB8iiCrTkhCr7tP8DwlZekBeQcFlrUzSLUWRITU7XEwNBvFGkmjTA5_Zu7i37IXTqFv7ncT85EPuWPxorZ4LyrBIXExlq7FvZLvr3jlG3FfmwuSSg-ny0?></g></svg>