<svg xmlns="http://www.w3.org/2000/svg" xmlns:xlink="http://www.w3.org/1999/xlink" contentStyleType="text/css" data-diagram-type="CLASS" height="1058px" preserveAspectRatio="none" style="width:992px;height:1058px;background:#FFFFFF;" version="1.1" viewBox="0 0 992 1058" width="992px" zoomAndPan="magnify"><?plantuml 1.2026.3?><defs/><g><g class="title" data-source-line="2"><text fill="#000000" font-family="sans-serif" font-size="14" font-weight="700" lengthAdjust="spacing" textLength="216.1797" x="384.8636" y="23.5352">OCL constraints &#8212; deploy-iac</text></g><!--class C0--><g class="entity" data-qualified-name="C0" data-source-line="7" id="ent0002"><rect fill="#FFF8E1" height="56.6211" rx="2.5" ry="2.5" style="stroke:#181818;stroke-width:0.5;" width="124.5107" x="175.26" y="44.4883"/><ellipse cx="190.26" cy="64.7988" fill="#ADD1B2" rx="11" ry="11" style="stroke:#181818;stroke-width:1;"/><path d="M192.7331,70.9419 Q192.1521,71.2407 191.5129,71.3901 Q190.8738,71.5396 190.1682,71.5396 Q187.6614,71.5396 186.3415,69.8877 Q185.0217,68.2358 185.0217,65.1147 Q185.0217,61.9854 186.3415,60.3335 Q187.6614,58.6816 190.1682,58.6816 Q190.8738,58.6816 191.5212,58.8311 Q192.1687,58.9805 192.7331,59.2793 L192.7331,62.002 Q192.1023,61.4209 191.5088,61.1511 Q190.9153,60.8813 190.2844,60.8813 Q188.9397,60.8813 188.2549,61.948 Q187.5701,63.0146 187.5701,65.1147 Q187.5701,67.2065 188.2549,68.2732 Q188.9397,69.3398 190.2844,69.3398 Q190.9153,69.3398 191.5088,69.0701 Q192.1023,68.8003 192.7331,68.2192 Z " fill="#000000"/><text fill="#000000" font-family="sans-serif" font-size="12" font-style="italic" lengthAdjust="spacing" textLength="56.5605" x="222.2351" y="61.0898">&#171;context&#187;</text><text fill="#000000" font-family="sans-serif" font-size="14" lengthAdjust="spacing" textLength="92.5107" x="204.26" y="77.1563">DialectChoice</text><line style="stroke:#181818;stroke-width:0.5;" x1="176.26" x2="298.7707" y1="85.1094" y2="85.1094"/><line style="stroke:#181818;stroke-width:0.5;" x1="176.26" x2="298.7707" y1="93.1094" y2="93.1094"/></g><!--class C1--><g class="entity" data-qualified-name="C1" data-source-line="8" id="ent0003"><rect fill="#FFF8E1" height="56.6211" rx="2.5" ry="2.5" style="stroke:#181818;stroke-width:0.5;" width="91.1104" x="191.96" y="272.4883"/><ellipse cx="206.96" cy="292.7988" fill="#ADD1B2" rx="11" ry="11" style="stroke:#181818;stroke-width:1;"/><path d="M209.4331,298.9419 Q208.8521,299.2407 208.2129,299.3901 Q207.5738,299.5396 206.8682,299.5396 Q204.3614,299.5396 203.0415,297.8877 Q201.7217,296.2358 201.7217,293.1147 Q201.7217,289.9854 203.0415,288.3335 Q204.3614,286.6816 206.8682,286.6816 Q207.5738,286.6816 208.2212,286.8311 Q208.8687,286.9805 209.4331,287.2793 L209.4331,290.002 Q208.8023,289.4209 208.2088,289.1511 Q207.6153,288.8813 206.9844,288.8813 Q205.6397,288.8813 204.9549,289.948 Q204.2701,291.0146 204.2701,293.1147 Q204.2701,295.2065 204.9549,296.2732 Q205.6397,297.3398 206.9844,297.3398 Q207.6153,297.3398 208.2088,297.0701 Q208.8023,296.8003 209.4331,296.2192 Z " fill="#000000"/><text fill="#000000" font-family="sans-serif" font-size="12" font-style="italic" lengthAdjust="spacing" textLength="56.5605" x="222.2349" y="289.0898">&#171;context&#187;</text><text fill="#000000" font-family="sans-serif" font-size="14" lengthAdjust="spacing" textLength="59.1104" x="220.96" y="305.1563">KeyVault</text><line style="stroke:#181818;stroke-width:0.5;" x1="192.96" x2="282.0704" y1="313.1094" y2="313.1094"/><line style="stroke:#181818;stroke-width:0.5;" x1="192.96" x2="282.0704" y1="321.1094" y2="321.1094"/></g><!--class C2--><g class="entity" data-qualified-name="C2" data-source-line="9" id="ent0004"><rect fill="#FFF8E1" height="56.6211" rx="2.5" ry="2.5" style="stroke:#181818;stroke-width:0.5;" width="118.6318" x="178.2" y="454.4883"/><ellipse cx="193.2" cy="474.7988" fill="#ADD1B2" rx="11" ry="11" style="stroke:#181818;stroke-width:1;"/><path d="M195.6731,480.9419 Q195.0921,481.2407 194.4529,481.3901 Q193.8138,481.5396 193.1082,481.5396 Q190.6014,481.5396 189.2815,479.8877 Q187.9617,478.2358 187.9617,475.1147 Q187.9617,471.9854 189.2815,470.3335 Q190.6014,468.6816 193.1082,468.6816 Q193.8138,468.6816 194.4612,468.8311 Q195.1087,468.9805 195.6731,469.2793 L195.6731,472.002 Q195.0423,471.4209 194.4488,471.1511 Q193.8553,470.8813 193.2244,470.8813 Q191.8797,470.8813 191.1949,471.948 Q190.5101,473.0146 190.5101,475.1147 Q190.5101,477.2065 191.1949,478.2732 Q191.8797,479.3398 193.2244,479.3398 Q193.8553,479.3398 194.4488,479.0701 Q195.0423,478.8003 195.6731,478.2192 Z " fill="#000000"/><text fill="#000000" font-family="sans-serif" font-size="12" font-style="italic" lengthAdjust="spacing" textLength="56.5605" x="222.2356" y="471.0898">&#171;context&#187;</text><text fill="#000000" font-family="sans-serif" font-size="14" lengthAdjust="spacing" textLength="86.6318" x="207.2" y="487.1563">MigrationJob</text><line style="stroke:#181818;stroke-width:0.5;" x1="179.2" x2="295.8318" y1="495.1094" y2="495.1094"/><line style="stroke:#181818;stroke-width:0.5;" x1="179.2" x2="295.8318" y1="503.1094" y2="503.1094"/></g><!--class C3--><g class="entity" data-qualified-name="C3" data-source-line="10" id="ent0005"><rect fill="#FFF8E1" height="56.6211" rx="2.5" ry="2.5" style="stroke:#181818;stroke-width:0.5;" width="168.3564" x="153.34" y="636.4883"/><ellipse cx="168.34" cy="656.7988" fill="#ADD1B2" rx="11" ry="11" style="stroke:#181818;stroke-width:1;"/><path d="M170.8131,662.9419 Q170.2321,663.2407 169.5929,663.3901 Q168.9538,663.5396 168.2482,663.5396 Q165.7414,663.5396 164.4215,661.8877 Q163.1017,660.2358 163.1017,657.1147 Q163.1017,653.9854 164.4215,652.3335 Q165.7414,650.6816 168.2482,650.6816 Q168.9538,650.6816 169.6012,650.8311 Q170.2487,650.9805 170.8131,651.2793 L170.8131,654.002 Q170.1823,653.4209 169.5888,653.1511 Q168.9953,652.8813 168.3644,652.8813 Q167.0197,652.8813 166.3349,653.948 Q165.6501,655.0146 165.6501,657.1147 Q165.6501,659.2065 166.3349,660.2732 Q167.0197,661.3398 168.3644,661.3398 Q168.9953,661.3398 169.5888,661.0701 Q170.1823,660.8003 170.8131,660.2192 Z " fill="#000000"/><text fill="#000000" font-family="sans-serif" font-size="12" font-style="italic" lengthAdjust="spacing" textLength="56.5605" x="222.2379" y="653.0898">&#171;context&#187;</text><text fill="#000000" font-family="sans-serif" font-size="14" lengthAdjust="spacing" textLength="136.3564" x="182.34" y="669.1562">DeploymentPurpose</text><line style="stroke:#181818;stroke-width:0.5;" x1="154.34" x2="320.6964" y1="677.1094" y2="677.1094"/><line style="stroke:#181818;stroke-width:0.5;" x1="154.34" x2="320.6964" y1="685.1094" y2="685.1094"/></g><!--class C4--><g class="entity" data-qualified-name="C4" data-source-line="11" id="ent0006"><rect fill="#FFF8E1" height="56.6211" rx="2.5" ry="2.5" style="stroke:#181818;stroke-width:0.5;" width="139.8506" x="167.59" y="880.4883"/><ellipse cx="182.59" cy="900.7988" fill="#ADD1B2" rx="11" ry="11" style="stroke:#181818;stroke-width:1;"/><path d="M185.0631,906.9419 Q184.4821,907.2407 183.8429,907.3901 Q183.2038,907.5396 182.4982,907.5396 Q179.9914,907.5396 178.6715,905.8877 Q177.3517,904.2358 177.3517,901.1147 Q177.3517,897.9854 178.6715,896.3335 Q179.9914,894.6816 182.4982,894.6816 Q183.2038,894.6816 183.8512,894.8311 Q184.4987,894.9805 185.0631,895.2793 L185.0631,898.002 Q184.4323,897.4209 183.8388,897.1511 Q183.2453,896.8813 182.6144,896.8813 Q181.2697,896.8813 180.5849,897.948 Q179.9001,899.0146 179.9001,901.1147 Q179.9001,903.2065 180.5849,904.2732 Q181.2697,905.3398 182.6144,905.3398 Q183.2453,905.3398 183.8388,905.0701 Q184.4323,904.8003 185.0631,904.2192 Z " fill="#000000"/><text fill="#000000" font-family="sans-serif" font-size="12" font-style="italic" lengthAdjust="spacing" textLength="56.5605" x="222.235" y="897.0898">&#171;context&#187;</text><text fill="#000000" font-family="sans-serif" font-size="14" lengthAdjust="spacing" textLength="107.8506" x="196.59" y="913.1562">ResourceAccess</text><line style="stroke:#181818;stroke-width:0.5;" x1="168.59" x2="306.4406" y1="921.1094" y2="921.1094"/><line style="stroke:#181818;stroke-width:0.5;" x1="168.59" x2="306.4406" y1="929.1094" y2="929.1094"/></g><!--entity D0--><g class="entity" data-qualified-name="D0" data-source-line="12" id="ent0007"><rect fill="#E3F2FD" height="52.9766" rx="2.5" ry="2.5" style="stroke:#181818;stroke-width:0.5;" width="145.877" x="833.03" y="456.3083"/><text fill="#000000" font-family="sans-serif" font-size="14" font-style="italic" lengthAdjust="spacing" textLength="65.6182" x="873.1594" y="479.8434">&#171;domain&#187;</text><text fill="#000000" font-family="sans-serif" font-size="14" lengthAdjust="spacing" textLength="125.877" x="843.03" y="496.3317">DOM-DEPLOY-IAC</text></g><g class="entity" data-qualified-name="GMN8" data-source-line="14" id="ent0009"><path d="M75.8,135.8683 L75.8,237.7316 A0,0 0 0 0 75.8,237.7316 L399.2404,237.7316 A0,0 0 0 0 399.2404,237.7316 L399.2404,145.8683 L389.2404,135.8683 L241.52,135.8683 L237.52,101.2483 L233.52,135.8683 L75.8,135.8683 A0,0 0 0 0 75.8,135.8683" fill="#FEFFDD" style="stroke:#181818;stroke-width:0.5;"/><path d="M389.2404,135.8683 L389.2404,145.8683 L399.2404,145.8683 L389.2404,135.8683" fill="#FEFFDD" style="stroke:#181818;stroke-width:0.5;"/><text fill="#000000" font-family="sans-serif" font-size="13" lengthAdjust="spacing" textLength="173.0435" x="81.8" y="153.4366">OCL-DEPLOY-IAC-DIALECT</text><text fill="#000000" font-family="sans-serif" font-size="13" lengthAdjust="spacing" textLength="18.5542" x="81.8" y="168.7472">inv</text><text fill="#000000" font-family="sans-serif" font-size="13" lengthAdjust="spacing" textLength="4.1133" x="100.3542" y="168.7472">&#160;</text><text fill="#000000" font-family="sans-serif" font-size="13" lengthAdjust="spacing" textLength="226.1162" x="104.4675" y="168.7472">ExactlyOneSupportedDialectPerRun:</text><text fill="#000000" font-family="sans-serif" font-size="13" lengthAdjust="spacing" textLength="8.2266" x="81.8" y="184.0577">&#160;&#160;</text><text fill="#000000" font-family="sans-serif" font-size="13" lengthAdjust="spacing" textLength="67.4248" x="90.0266" y="184.0577">Set{'bicep',</text><text fill="#000000" font-family="sans-serif" font-size="13" lengthAdjust="spacing" textLength="4.1133" x="157.4514" y="184.0577">&#160;</text><text fill="#000000" font-family="sans-serif" font-size="13" lengthAdjust="spacing" textLength="208.4951" x="161.5646" y="184.0577">'terraform'}-&gt;includes(self.value)</text><text fill="#000000" font-family="sans-serif" font-size="13" lengthAdjust="spacing" textLength="302.4404" x="81.8" y="199.3683">OCL-DEPLOY-IAC-CONFIRM-BEFORE-ARTIFACT</text><text fill="#000000" font-family="sans-serif" font-size="13" lengthAdjust="spacing" textLength="18.5542" x="81.8" y="214.6788">inv</text><text fill="#000000" font-family="sans-serif" font-size="13" lengthAdjust="spacing" textLength="4.1133" x="100.3542" y="214.6788">&#160;</text><text fill="#000000" font-family="sans-serif" font-size="13" lengthAdjust="spacing" textLength="191.0327" x="104.4675" y="214.6788">NoArtifactBeforeConfirmation:</text><text fill="#000000" font-family="sans-serif" font-size="13" lengthAdjust="spacing" textLength="8.2266" x="81.8" y="229.9894">&#160;&#160;</text><text fill="#000000" font-family="sans-serif" font-size="13" lengthAdjust="spacing" textLength="116.3525" x="90.0266" y="229.9894">self.artifactWritten</text><text fill="#000000" font-family="sans-serif" font-size="13" lengthAdjust="spacing" textLength="4.1133" x="206.3791" y="229.9894">&#160;</text><text fill="#000000" font-family="sans-serif" font-size="13" lengthAdjust="spacing" textLength="45.4619" x="210.4924" y="229.9894">implies</text><text fill="#000000" font-family="sans-serif" font-size="13" lengthAdjust="spacing" textLength="4.1133" x="255.9543" y="229.9894">&#160;</text><text fill="#000000" font-family="sans-serif" font-size="13" lengthAdjust="spacing" textLength="90.6509" x="260.0676" y="229.9894">self.confirmed</text></g><g class="entity" data-qualified-name="GMN11" data-source-line="22" id="ent0012"><path d="M6,363.8283 L6,419.7599 A0,0 0 0 0 6,419.7599 L469.0317,419.7599 A0,0 0 0 0 469.0317,419.7599 L469.0317,373.8283 L459.0317,363.8283 L241.52,363.8283 L237.52,329.1483 L233.52,363.8283 L6,363.8283 A0,0 0 0 0 6,363.8283" fill="#FEFFDD" style="stroke:#181818;stroke-width:0.5;"/><path d="M459.0317,363.8283 L459.0317,373.8283 L469.0317,373.8283 L459.0317,363.8283" fill="#FEFFDD" style="stroke:#181818;stroke-width:0.5;"/><text fill="#000000" font-family="sans-serif" font-size="13" lengthAdjust="spacing" textLength="254.2173" x="12" y="381.3966">OCL-DEPLOY-IAC-SECURE-BY-DEFAULT</text><text fill="#000000" font-family="sans-serif" font-size="13" lengthAdjust="spacing" textLength="18.5542" x="12" y="396.7072">inv</text><text fill="#000000" font-family="sans-serif" font-size="13" lengthAdjust="spacing" textLength="4.1133" x="30.5542" y="396.7072">&#160;</text><text fill="#000000" font-family="sans-serif" font-size="13" lengthAdjust="spacing" textLength="252.4653" x="34.6675" y="396.7072">NoStoreMoreNetworkOpenThanItsPeers:</text><text fill="#000000" font-family="sans-serif" font-size="13" lengthAdjust="spacing" textLength="8.2266" x="12" y="412.0177">&#160;&#160;</text><text fill="#000000" font-family="sans-serif" font-size="13" lengthAdjust="spacing" textLength="163.541" x="20.2266" y="412.0177">self.networkDefaultAction</text><text fill="#000000" font-family="sans-serif" font-size="13" lengthAdjust="spacing" textLength="4.1133" x="183.7676" y="412.0177">&#160;</text><text fill="#000000" font-family="sans-serif" font-size="13" lengthAdjust="spacing" textLength="10.334" x="187.8809" y="412.0177">=</text><text fill="#000000" font-family="sans-serif" font-size="13" lengthAdjust="spacing" textLength="4.1133" x="198.2148" y="412.0177">&#160;</text><text fill="#000000" font-family="sans-serif" font-size="13" lengthAdjust="spacing" textLength="37.7939" x="202.3281" y="412.0177">'Deny'</text><text fill="#000000" font-family="sans-serif" font-size="13" lengthAdjust="spacing" textLength="4.1133" x="240.1221" y="412.0177">&#160;</text><text fill="#000000" font-family="sans-serif" font-size="13" lengthAdjust="spacing" textLength="23.4292" x="244.2354" y="412.0177">and</text><text fill="#000000" font-family="sans-serif" font-size="13" lengthAdjust="spacing" textLength="4.1133" x="267.6646" y="412.0177">&#160;</text><text fill="#000000" font-family="sans-serif" font-size="13" lengthAdjust="spacing" textLength="70.1099" x="271.7778" y="412.0177">self.bypass</text><text fill="#000000" font-family="sans-serif" font-size="13" lengthAdjust="spacing" textLength="4.1133" x="341.8877" y="412.0177">&#160;</text><text fill="#000000" font-family="sans-serif" font-size="13" lengthAdjust="spacing" textLength="10.334" x="346.001" y="412.0177">=</text><text fill="#000000" font-family="sans-serif" font-size="13" lengthAdjust="spacing" textLength="4.1133" x="356.335" y="412.0177">&#160;</text><text fill="#000000" font-family="sans-serif" font-size="13" lengthAdjust="spacing" textLength="93.5835" x="360.4482" y="412.0177">'AzureServices'</text></g><g class="entity" data-qualified-name="GMN14" data-source-line="27" id="ent0015"><path d="M74.24,545.8283 L74.24,601.7599 A0,0 0 0 0 74.24,601.7599 L400.7844,601.7599 A0,0 0 0 0 400.7844,601.7599 L400.7844,555.8283 L390.7844,545.8283 L241.52,545.8283 L237.52,511.1483 L233.52,545.8283 L74.24,545.8283 A0,0 0 0 0 74.24,545.8283" fill="#FEFFDD" style="stroke:#181818;stroke-width:0.5;"/><path d="M390.7844,545.8283 L390.7844,555.8283 L400.7844,555.8283 L390.7844,545.8283" fill="#FEFFDD" style="stroke:#181818;stroke-width:0.5;"/><text fill="#000000" font-family="sans-serif" font-size="13" lengthAdjust="spacing" textLength="243.439" x="80.24" y="563.3966">OCL-DEPLOY-IAC-MIGRATION-ORDER</text><text fill="#000000" font-family="sans-serif" font-size="13" lengthAdjust="spacing" textLength="18.5542" x="80.24" y="578.7072">inv</text><text fill="#000000" font-family="sans-serif" font-size="13" lengthAdjust="spacing" textLength="4.1133" x="98.7942" y="578.7072">&#160;</text><text fill="#000000" font-family="sans-serif" font-size="13" lengthAdjust="spacing" textLength="261.187" x="102.9075" y="578.7072">MigrationCompletesBeforeTrafficRouting:</text><text fill="#000000" font-family="sans-serif" font-size="13" lengthAdjust="spacing" textLength="8.2266" x="80.24" y="594.0177">&#160;&#160;</text><text fill="#000000" font-family="sans-serif" font-size="13" lengthAdjust="spacing" textLength="60.5693" x="88.4666" y="594.0177">self.order</text><text fill="#000000" font-family="sans-serif" font-size="13" lengthAdjust="spacing" textLength="4.1133" x="149.0359" y="594.0177">&#160;</text><text fill="#000000" font-family="sans-serif" font-size="13" lengthAdjust="spacing" textLength="10.334" x="153.1492" y="594.0177">=</text><text fill="#000000" font-family="sans-serif" font-size="13" lengthAdjust="spacing" textLength="4.1133" x="163.4832" y="594.0177">&#160;</text><text fill="#000000" font-family="sans-serif" font-size="13" lengthAdjust="spacing" textLength="43.729" x="167.5964" y="594.0177">'before</text><text fill="#000000" font-family="sans-serif" font-size="13" lengthAdjust="spacing" textLength="4.1133" x="211.3254" y="594.0177">&#160;</text><text fill="#000000" font-family="sans-serif" font-size="13" lengthAdjust="spacing" textLength="22.0391" x="215.4387" y="594.0177">any</text><text fill="#000000" font-family="sans-serif" font-size="13" lengthAdjust="spacing" textLength="4.1133" x="237.4778" y="594.0177">&#160;</text><text fill="#000000" font-family="sans-serif" font-size="13" lengthAdjust="spacing" textLength="49.4863" x="241.5911" y="594.0177">revision</text><text fill="#000000" font-family="sans-serif" font-size="13" lengthAdjust="spacing" textLength="4.1133" x="291.0774" y="594.0177">&#160;</text><text fill="#000000" font-family="sans-serif" font-size="13" lengthAdjust="spacing" textLength="37.3369" x="295.1907" y="594.0177">traffic</text><text fill="#000000" font-family="sans-serif" font-size="13" lengthAdjust="spacing" textLength="4.1133" x="332.5276" y="594.0177">&#160;</text><text fill="#000000" font-family="sans-serif" font-size="13" lengthAdjust="spacing" textLength="49.1436" x="336.6409" y="594.0177">routing'</text></g><g class="entity" data-qualified-name="GMN17" data-source-line="32" id="ent0018"><path d="M13.95,728.2083 L13.95,845.3821 A0,0 0 0 0 13.95,845.3821 L461.0809,845.3821 A0,0 0 0 0 461.0809,845.3821 L461.0809,738.2083 L451.0809,728.2083 L241.52,728.2083 L237.52,693.5183 L233.52,728.2083 L13.95,728.2083 A0,0 0 0 0 13.95,728.2083" fill="#FEFFDD" style="stroke:#181818;stroke-width:0.5;"/><path d="M451.0809,728.2083 L451.0809,738.2083 L461.0809,738.2083 L451.0809,728.2083" fill="#FEFFDD" style="stroke:#181818;stroke-width:0.5;"/><text fill="#000000" font-family="sans-serif" font-size="13" lengthAdjust="spacing" textLength="175.1445" x="19.95" y="745.7766">OCL-DEPLOY-IAC-PURPOSE</text><text fill="#000000" font-family="sans-serif" font-size="13" lengthAdjust="spacing" textLength="18.5542" x="19.95" y="761.0872">inv</text><text fill="#000000" font-family="sans-serif" font-size="13" lengthAdjust="spacing" textLength="4.1133" x="38.5042" y="761.0872">&#160;</text><text fill="#000000" font-family="sans-serif" font-size="13" lengthAdjust="spacing" textLength="298.3271" x="42.6175" y="761.0872">PurposeConfirmedBeforePurposeDrivenDefault:</text><text fill="#000000" font-family="sans-serif" font-size="13" lengthAdjust="spacing" textLength="8.2266" x="19.95" y="776.3977">&#160;&#160;</text><text fill="#000000" font-family="sans-serif" font-size="13" lengthAdjust="spacing" textLength="55.5547" x="28.1766" y="776.3977">Set{'dev',</text><text fill="#000000" font-family="sans-serif" font-size="13" lengthAdjust="spacing" textLength="4.1133" x="83.7313" y="776.3977">&#160;</text><text fill="#000000" font-family="sans-serif" font-size="13" lengthAdjust="spacing" textLength="56.7734" x="87.8445" y="776.3977">'staging',</text><text fill="#000000" font-family="sans-serif" font-size="13" lengthAdjust="spacing" textLength="4.1133" x="144.618" y="776.3977">&#160;</text><text fill="#000000" font-family="sans-serif" font-size="13" lengthAdjust="spacing" textLength="178.02" x="148.7313" y="776.3977">'prod'}-&gt;includes(self.value)</text><text fill="#000000" font-family="sans-serif" font-size="13" lengthAdjust="spacing" textLength="16.4531" x="19.95" y="791.7083">&#160;&#160;&#160;&#160;</text><text fill="#000000" font-family="sans-serif" font-size="13" lengthAdjust="spacing" textLength="23.4292" x="36.4031" y="791.7083">and</text><text fill="#000000" font-family="sans-serif" font-size="13" lengthAdjust="spacing" textLength="4.1133" x="59.8323" y="791.7083">&#160;</text><text fill="#000000" font-family="sans-serif" font-size="13" lengthAdjust="spacing" textLength="233.5684" x="63.9456" y="791.7083">(self.purposeDrivenDefaultGenerated</text><text fill="#000000" font-family="sans-serif" font-size="13" lengthAdjust="spacing" textLength="4.1133" x="297.514" y="791.7083">&#160;</text><text fill="#000000" font-family="sans-serif" font-size="13" lengthAdjust="spacing" textLength="45.4619" x="301.6272" y="791.7083">implies</text><text fill="#000000" font-family="sans-serif" font-size="13" lengthAdjust="spacing" textLength="4.1133" x="347.0892" y="791.7083">&#160;</text><text fill="#000000" font-family="sans-serif" font-size="13" lengthAdjust="spacing" textLength="94.8784" x="351.2024" y="791.7083">self.confirmed)</text><text fill="#000000" font-family="sans-serif" font-size="13" lengthAdjust="spacing" textLength="264.8813" x="19.95" y="807.0188">OCL-DEPLOY-IAC-SURFACE-NOT-DECIDE</text><text fill="#000000" font-family="sans-serif" font-size="13" lengthAdjust="spacing" textLength="18.5542" x="19.95" y="822.3294">inv</text><text fill="#000000" font-family="sans-serif" font-size="13" lengthAdjust="spacing" textLength="4.1133" x="38.5042" y="822.3294">&#160;</text><text fill="#000000" font-family="sans-serif" font-size="13" lengthAdjust="spacing" textLength="240.4238" x="42.6175" y="822.3294">SurfaceChoicesNeverBakeInAnAnswer:</text><text fill="#000000" font-family="sans-serif" font-size="13" lengthAdjust="spacing" textLength="8.2266" x="19.95" y="837.6399">&#160;&#160;</text><text fill="#000000" font-family="sans-serif" font-size="13" lengthAdjust="spacing" textLength="225.6655" x="28.1766" y="837.6399">self.purposeDrivenDefaultsSurfaced</text><text fill="#000000" font-family="sans-serif" font-size="13" lengthAdjust="spacing" textLength="4.1133" x="253.8421" y="837.6399">&#160;</text><text fill="#000000" font-family="sans-serif" font-size="13" lengthAdjust="spacing" textLength="23.4292" x="257.9554" y="837.6399">and</text><text fill="#000000" font-family="sans-serif" font-size="13" lengthAdjust="spacing" textLength="4.1133" x="281.3846" y="837.6399">&#160;</text><text fill="#000000" font-family="sans-serif" font-size="13" lengthAdjust="spacing" textLength="20.9155" x="285.4979" y="837.6399">not</text><text fill="#000000" font-family="sans-serif" font-size="13" lengthAdjust="spacing" textLength="4.1133" x="306.4134" y="837.6399">&#160;</text><text fill="#000000" font-family="sans-serif" font-size="13" lengthAdjust="spacing" textLength="121.4053" x="310.5267" y="837.6399">self.bakesInAnswer</text></g><g class="entity" data-qualified-name="GMN20" data-source-line="41" id="ent0021"><path d="M12.69,972.1783 L12.69,1043.4205 A0,0 0 0 0 12.69,1043.4205 L462.3409,1043.4205 A0,0 0 0 0 462.3409,1043.4205 L462.3409,982.1783 L452.3409,972.1783 L241.52,972.1783 L237.52,937.3583 L233.52,972.1783 L12.69,972.1783 A0,0 0 0 0 12.69,972.1783" fill="#FEFFDD" style="stroke:#181818;stroke-width:0.5;"/><path d="M452.3409,972.1783 L452.3409,982.1783 L462.3409,982.1783 L452.3409,972.1783" fill="#FEFFDD" style="stroke:#181818;stroke-width:0.5;"/><text fill="#000000" font-family="sans-serif" font-size="13" lengthAdjust="spacing" textLength="241.6489" x="18.69" y="989.7466">OCL-DEPLOY-IAC-ACCESS-COMPLETE</text><text fill="#000000" font-family="sans-serif" font-size="13" lengthAdjust="spacing" textLength="18.5542" x="18.69" y="1005.0572">inv</text><text fill="#000000" font-family="sans-serif" font-size="13" lengthAdjust="spacing" textLength="4.1133" x="37.2442" y="1005.0572">&#160;</text><text fill="#000000" font-family="sans-serif" font-size="13" lengthAdjust="spacing" textLength="362.2544" x="41.3575" y="1005.0572">EverySecuredStoreHasReaderAndWriterWithAdmittedPath:</text><text fill="#000000" font-family="sans-serif" font-size="13" lengthAdjust="spacing" textLength="8.2266" x="18.69" y="1020.3677">&#160;&#160;</text><text fill="#000000" font-family="sans-serif" font-size="13" lengthAdjust="spacing" textLength="153.2515" x="26.9166" y="1020.3677">self.reader-&gt;notEmpty()</text><text fill="#000000" font-family="sans-serif" font-size="13" lengthAdjust="spacing" textLength="4.1133" x="180.168" y="1020.3677">&#160;</text><text fill="#000000" font-family="sans-serif" font-size="13" lengthAdjust="spacing" textLength="23.4292" x="184.2813" y="1020.3677">and</text><text fill="#000000" font-family="sans-serif" font-size="13" lengthAdjust="spacing" textLength="4.1133" x="207.7105" y="1020.3677">&#160;</text><text fill="#000000" font-family="sans-serif" font-size="13" lengthAdjust="spacing" textLength="149.2842" x="211.8238" y="1020.3677">self.writer-&gt;notEmpty()</text><text fill="#000000" font-family="sans-serif" font-size="13" lengthAdjust="spacing" textLength="16.4531" x="18.69" y="1035.6783">&#160;&#160;&#160;&#160;</text><text fill="#000000" font-family="sans-serif" font-size="13" lengthAdjust="spacing" textLength="23.4292" x="35.1431" y="1035.6783">and</text><text fill="#000000" font-family="sans-serif" font-size="13" lengthAdjust="spacing" textLength="4.1133" x="58.5723" y="1035.6783">&#160;</text><text fill="#000000" font-family="sans-serif" font-size="13" lengthAdjust="spacing" textLength="178.4834" x="62.6856" y="1035.6783">self.reader.hasAdmittedPath</text><text fill="#000000" font-family="sans-serif" font-size="13" lengthAdjust="spacing" textLength="4.1133" x="241.169" y="1035.6783">&#160;</text><text fill="#000000" font-family="sans-serif" font-size="13" lengthAdjust="spacing" textLength="23.4292" x="245.2823" y="1035.6783">and</text><text fill="#000000" font-family="sans-serif" font-size="13" lengthAdjust="spacing" textLength="4.1133" x="268.7115" y="1035.6783">&#160;</text><text fill="#000000" font-family="sans-serif" font-size="13" lengthAdjust="spacing" textLength="174.5161" x="272.8248" y="1035.6783">self.writer.hasAdmittedPath</text></g><!--link C0 to D0--><g class="link" data-entity-1="ent0002" data-entity-2="ent0007" data-link-type="dependency" data-source-line="46" id="lnk23"><path codeLine="46" d="M300.19,67.7183 C414.19,61.8483 659.34,66.1583 803.03,193.7983 C881.99,263.9283 899.3701,393.073 903.3801,450.233" fill="none" id="C0-to-D0" style="stroke:#181818;stroke-width:1;stroke-dasharray:7,7;"/><polygon fill="#181818" points="903.8,456.2183,907.1604,446.9604,903.4501,451.2305,899.18,447.5203,903.8,456.2183" style="stroke:#181818;stroke-width:1;"/><text fill="#000000" font-family="sans-serif" font-size="13" lengthAdjust="spacing" textLength="173.0435" x="564.53" y="72.0366">OCL-DEPLOY-IAC-DIALECT</text></g><!--link C0 to D0--><g class="link" data-entity-1="ent0002" data-entity-2="ent0007" data-link-type="dependency" data-source-line="47" id="lnk24"><path codeLine="47" d="M300.04,68.7383 C351.44,68.7783 423.45,77.3283 469.03,118.7983 C503.36,150.0183 467.25,184.9883 499.03,218.7983 C597.67,323.6983 689.86,241.7783 803.03,330.7983 C846.24,364.7783 875.0524,416.816 890.8524,450.506" fill="none" id="C0-to-D0-1" style="stroke:#181818;stroke-width:1;stroke-dasharray:7,7;"/><polygon fill="#181818" points="893.4,455.9383,893.2001,446.0915,891.277,451.4114,885.957,449.4883,893.4,455.9383" style="stroke:#181818;stroke-width:1;"/><text fill="#000000" font-family="sans-serif" font-size="13" lengthAdjust="spacing" textLength="302.4404" x="500.03" y="215.3666">OCL-DEPLOY-IAC-CONFIRM-BEFORE-ARTIFACT</text></g><!--link C1 to D0--><g class="link" data-entity-1="ent0003" data-entity-2="ent0007" data-link-type="dependency" data-source-line="48" id="lnk25"><path codeLine="48" d="M283.45,308.3183 C330.14,316.4683 405.17,330.5083 469.03,346.7983 C598.67,379.8583 741.1402,426.4943 827.0702,455.7543" fill="none" id="C1-to-D0" style="stroke:#181818;stroke-width:1;stroke-dasharray:7,7;"/><polygon fill="#181818" points="832.75,457.6883,825.5197,451.0008,828.0169,456.0766,822.941,458.5738,832.75,457.6883" style="stroke:#181818;stroke-width:1;"/><text fill="#000000" font-family="sans-serif" font-size="13" lengthAdjust="spacing" textLength="254.2173" x="524.03" y="352.7566">OCL-DEPLOY-IAC-SECURE-BY-DEFAULT</text></g><!--link C2 to D0--><g class="link" data-entity-1="ent0004" data-entity-2="ent0007" data-link-type="dependency" data-source-line="49" id="lnk26"><path codeLine="49" d="M297.08,482.7983 C418.97,482.7983 693.64,482.7983 826.6,482.7983" fill="none" id="C2-to-D0" style="stroke:#181818;stroke-width:1;stroke-dasharray:7,7;"/><polygon fill="#181818" points="832.6,482.7983,823.6,478.7983,827.6,482.7983,823.6,486.7983,832.6,482.7983" style="stroke:#181818;stroke-width:1;"/><text fill="#000000" font-family="sans-serif" font-size="13" lengthAdjust="spacing" textLength="243.439" x="529.53" y="479.3666">OCL-DEPLOY-IAC-MIGRATION-ORDER</text></g><!--link C3 to D0--><g class="link" data-entity-1="ent0005" data-entity-2="ent0007" data-link-type="dependency" data-source-line="50" id="lnk27"><path codeLine="50" d="M321.95,650.3483 C365.95,642.1683 420.69,631.1283 469.03,618.7983 C598.67,585.7383 741.1404,539.1029 827.0704,509.8329" fill="none" id="C3-to-D0" style="stroke:#181818;stroke-width:1;stroke-dasharray:7,7;"/><polygon fill="#181818" points="832.75,507.8983,822.9409,507.0138,828.017,509.5105,825.5204,514.5866,832.75,507.8983" style="stroke:#181818;stroke-width:1;"/><text fill="#000000" font-family="sans-serif" font-size="13" lengthAdjust="spacing" textLength="175.1445" x="563.53" y="515.7966">OCL-DEPLOY-IAC-PURPOSE</text></g><!--link C3 to D0--><g class="link" data-entity-1="ent0005" data-entity-2="ent0007" data-link-type="dependency" data-source-line="52" id="lnk29"><path codeLine="52" d="M321.98,682.2483 C438.15,701.9283 651.34,720.9583 803.03,634.7983 C851.8,607.0983 879.5893,550.928 893.5093,515.248" fill="none" id="C3-to-D0-1" style="stroke:#181818;stroke-width:1;stroke-dasharray:7,7;"/><polygon fill="#181818" points="895.69,509.6583,888.6925,516.589,893.8727,514.3163,896.1454,519.4966,895.69,509.6583" style="stroke:#181818;stroke-width:1;"/><text fill="#000000" font-family="sans-serif" font-size="13" lengthAdjust="spacing" textLength="264.8813" x="519.03" y="631.3666">OCL-DEPLOY-IAC-SURFACE-NOT-DECIDE</text></g><!--link C4 to D0--><g class="link" data-entity-1="ent0006" data-entity-2="ent0007" data-link-type="dependency" data-source-line="51" id="lnk28"><path codeLine="51" d="M307.74,905.5083 C425.54,896.1983 665.53,860.4983 803.03,723.7983 C864.56,662.6183 889.879,564.4688 899.349,515.5788" fill="none" id="C4-to-D0" style="stroke:#181818;stroke-width:1;stroke-dasharray:7,7;"/><polygon fill="#181818" points="900.49,509.6883,894.8515,517.7634,899.5392,514.597,902.7055,519.2847,900.49,509.6883" style="stroke:#181818;stroke-width:1;"/><text fill="#000000" font-family="sans-serif" font-size="13" lengthAdjust="spacing" textLength="241.6489" x="530.53" y="720.3666">OCL-DEPLOY-IAC-ACCESS-COMPLETE</text></g><?plantuml-src VLJRRjf047tdArRj0wrKHxazH56AP7n9tG96DccKnyKxm2hshhMxXj2gKZ-YNzWlwVX2uiOu82IqUsRsp9apGzDKxZB-nCLwOBX9WOJEX2HIQACe5qQJlx__40PvAlSMfyaWXPKXHXB5rnj365UG62x5G3zoaLD5Cx9JDB_dp6p8vTLfwpn9gTPZcZokbIm4SsGg5Ndl-_wLTzQ2bGcfMAVGWNeN_hdl3geyv9tBQOfGPoDv0ky8rSGv9JStIDt0ancD3hXliFzEYzJKaBDZa2bVArfMyLKkQzZvCPXRgP21CFD2vL8thruSmqQWPQ4Ii9C4jAw1b_y1d-l4nE7KShtv97om0jkfm6vP2vCPzW2nGXeWIscCp8XSOQ43KlQf5MIvWJtnd0LUSB4btXDDJBeF1SH5dajbW3LwpK55XRX6724nc9_39SgN3p-HeG6bw4ggRFZB6d6Hf0K3_K53kZhPqhI0Zzr7dN3c1z7K6dj-67cM7Iq2ttucCPEsCdo5JCQ0US6HOiLLLYbT4wYIqmPqhxWn80ZFyfI3hY-JEWRO00GZfGuTCSwwl6BFkKC-umSyzEsxoGkZs22HAVvcO7PIFOOvYCM6Yi3eEO3IBLwYHhYmAkrZLpOddydG1R4V4efqAjXodvSTnmlxHw4W1hL5HVMmd_1vb_0qk8tiHH3Eh31olQYX--nBHw8cO43NGYwmJokUHB8mEBSjob8nK2MLPOL3adkSfotN9NLJHn5LXxr1yA9BS7uNpSFOQuWr_dSEpQbfDQUkubiGZMmjep7ObZRJXgxBv_5lhYHxmspbfvIvFiwFPBy50QWGi1xJ7B5iV1UXHJrh5Yxms0dSGqrneT25KEyJFOCjg35zX43O-DKxK2sTZt7HJG9MSKP96tjW3XqqAVebl-mojHt7YsESiUbyuYqED3tajOyXGQknoinVg8w0OjzjmSeH0dNFpSPcMJbDR4xDfaLSLKXhXCzxMMxs7pw-67bN1RVlMZreHPzig6wdVvtXzVrBqRYWJqv6vMwxxbjVRq3wbWtkzBwGxXx0pTu7VZs3kDZxe8Tfm9NU1tdTlJUoTItv3m00?></g></svg>