<svg xmlns="http://www.w3.org/2000/svg" xmlns:xlink="http://www.w3.org/1999/xlink" contentStyleType="text/css" data-diagram-type="CLASS" height="616px" preserveAspectRatio="none" style="width:992px;height:616px;background:#FFFFFF;" version="1.1" viewBox="0 0 992 616" width="992px" zoomAndPan="magnify"><?plantuml 1.2026.3?><defs/><g><g class="title" data-source-line="2"><text fill="#000000" font-family="sans-serif" font-size="14" font-weight="700" lengthAdjust="spacing" textLength="216.1797" x="384.8636" y="23.5352">OCL constraints &#8212; deploy-iac</text></g><!--class C0--><g class="entity" data-qualified-name="C0" data-source-line="7" id="ent0002"><rect fill="#FFF8E1" height="56.6211" rx="2.5" ry="2.5" style="stroke:#181818;stroke-width:0.5;" width="124.5107" x="175.26" y="44.4883"/><ellipse cx="190.26" cy="64.7988" fill="#ADD1B2" rx="11" ry="11" style="stroke:#181818;stroke-width:1;"/><path d="M192.7331,70.9419 Q192.1521,71.2407 191.5129,71.3901 Q190.8738,71.5396 190.1682,71.5396 Q187.6614,71.5396 186.3415,69.8877 Q185.0217,68.2358 185.0217,65.1147 Q185.0217,61.9854 186.3415,60.3335 Q187.6614,58.6816 190.1682,58.6816 Q190.8738,58.6816 191.5212,58.8311 Q192.1687,58.9805 192.7331,59.2793 L192.7331,62.002 Q192.1023,61.4209 191.5088,61.1511 Q190.9153,60.8813 190.2844,60.8813 Q188.9397,60.8813 188.2549,61.948 Q187.5701,63.0146 187.5701,65.1147 Q187.5701,67.2065 188.2549,68.2732 Q188.9397,69.3398 190.2844,69.3398 Q190.9153,69.3398 191.5088,69.0701 Q192.1023,68.8003 192.7331,68.2192 Z " fill="#000000"/><text fill="#000000" font-family="sans-serif" font-size="12" font-style="italic" lengthAdjust="spacing" textLength="56.5605" x="222.2351" y="61.0898">&#171;context&#187;</text><text fill="#000000" font-family="sans-serif" font-size="14" lengthAdjust="spacing" textLength="92.5107" x="204.26" y="77.1563">DialectChoice</text><line style="stroke:#181818;stroke-width:0.5;" x1="176.26" x2="298.7707" y1="85.1094" y2="85.1094"/><line style="stroke:#181818;stroke-width:0.5;" x1="176.26" x2="298.7707" y1="93.1094" y2="93.1094"/></g><!--class C1--><g class="entity" data-qualified-name="C1" data-source-line="8" id="ent0003"><rect fill="#FFF8E1" height="56.6211" rx="2.5" ry="2.5" style="stroke:#181818;stroke-width:0.5;" width="91.1104" x="191.96" y="272.4883"/><ellipse cx="206.96" cy="292.7988" fill="#ADD1B2" rx="11" ry="11" style="stroke:#181818;stroke-width:1;"/><path d="M209.4331,298.9419 Q208.8521,299.2407 208.2129,299.3901 Q207.5738,299.5396 206.8682,299.5396 Q204.3614,299.5396 203.0415,297.8877 Q201.7217,296.2358 201.7217,293.1147 Q201.7217,289.9854 203.0415,288.3335 Q204.3614,286.6816 206.8682,286.6816 Q207.5738,286.6816 208.2212,286.8311 Q208.8687,286.9805 209.4331,287.2793 L209.4331,290.002 Q208.8023,289.4209 208.2088,289.1511 Q207.6153,288.8813 206.9844,288.8813 Q205.6397,288.8813 204.9549,289.948 Q204.2701,291.0146 204.2701,293.1147 Q204.2701,295.2065 204.9549,296.2732 Q205.6397,297.3398 206.9844,297.3398 Q207.6153,297.3398 208.2088,297.0701 Q208.8023,296.8003 209.4331,296.2192 Z " fill="#000000"/><text fill="#000000" font-family="sans-serif" font-size="12" font-style="italic" lengthAdjust="spacing" textLength="56.5605" x="222.2349" y="289.0898">&#171;context&#187;</text><text fill="#000000" font-family="sans-serif" font-size="14" lengthAdjust="spacing" textLength="59.1104" x="220.96" y="305.1563">KeyVault</text><line style="stroke:#181818;stroke-width:0.5;" x1="192.96" x2="282.0704" y1="313.1094" y2="313.1094"/><line style="stroke:#181818;stroke-width:0.5;" x1="192.96" x2="282.0704" y1="321.1094" y2="321.1094"/></g><!--class C2--><g class="entity" data-qualified-name="C2" data-source-line="9" id="ent0004"><rect fill="#FFF8E1" height="56.6211" rx="2.5" ry="2.5" style="stroke:#181818;stroke-width:0.5;" width="118.6318" x="178.2" y="454.4883"/><ellipse cx="193.2" cy="474.7988" fill="#ADD1B2" rx="11" ry="11" style="stroke:#181818;stroke-width:1;"/><path d="M195.6731,480.9419 Q195.0921,481.2407 194.4529,481.3901 Q193.8138,481.5396 193.1082,481.5396 Q190.6014,481.5396 189.2815,479.8877 Q187.9617,478.2358 187.9617,475.1147 Q187.9617,471.9854 189.2815,470.3335 Q190.6014,468.6816 193.1082,468.6816 Q193.8138,468.6816 194.4612,468.8311 Q195.1087,468.9805 195.6731,469.2793 L195.6731,472.002 Q195.0423,471.4209 194.4488,471.1511 Q193.8553,470.8813 193.2244,470.8813 Q191.8797,470.8813 191.1949,471.948 Q190.5101,473.0146 190.5101,475.1147 Q190.5101,477.2065 191.1949,478.2732 Q191.8797,479.3398 193.2244,479.3398 Q193.8553,479.3398 194.4488,479.0701 Q195.0423,478.8003 195.6731,478.2192 Z " fill="#000000"/><text fill="#000000" font-family="sans-serif" font-size="12" font-style="italic" lengthAdjust="spacing" textLength="56.5605" x="222.2356" y="471.0898">&#171;context&#187;</text><text fill="#000000" font-family="sans-serif" font-size="14" lengthAdjust="spacing" textLength="86.6318" x="207.2" y="487.1563">MigrationJob</text><line style="stroke:#181818;stroke-width:0.5;" x1="179.2" x2="295.8318" y1="495.1094" y2="495.1094"/><line style="stroke:#181818;stroke-width:0.5;" x1="179.2" x2="295.8318" y1="503.1094" y2="503.1094"/></g><!--entity D0--><g class="entity" data-qualified-name="D0" data-source-line="10" id="ent0005"><rect fill="#E3F2FD" height="52.9766" rx="2.5" ry="2.5" style="stroke:#181818;stroke-width:0.5;" width="145.877" x="833.03" y="189.3183"/><text fill="#000000" font-family="sans-serif" font-size="14" font-style="italic" lengthAdjust="spacing" textLength="65.6182" x="873.1594" y="212.8534">&#171;domain&#187;</text><text fill="#000000" font-family="sans-serif" font-size="14" lengthAdjust="spacing" textLength="125.877" x="843.03" y="229.3417">DOM-DEPLOY-IAC</text></g><g class="entity" data-qualified-name="GMN6" data-source-line="12" id="ent0007"><path d="M75.8,135.8683 L75.8,237.7316 A0,0 0 0 0 75.8,237.7316 L399.2404,237.7316 A0,0 0 0 0 399.2404,237.7316 L399.2404,145.8683 L389.2404,135.8683 L241.52,135.8683 L237.52,101.2583 L233.52,135.8683 L75.8,135.8683 A0,0 0 0 0 75.8,135.8683" fill="#FEFFDD" style="stroke:#181818;stroke-width:0.5;"/><path d="M389.2404,135.8683 L389.2404,145.8683 L399.2404,145.8683 L389.2404,135.8683" fill="#FEFFDD" style="stroke:#181818;stroke-width:0.5;"/><text fill="#000000" font-family="sans-serif" font-size="13" lengthAdjust="spacing" textLength="173.0435" x="81.8" y="153.4366">OCL-DEPLOY-IAC-DIALECT</text><text fill="#000000" font-family="sans-serif" font-size="13" lengthAdjust="spacing" textLength="18.5542" x="81.8" y="168.7472">inv</text><text fill="#000000" font-family="sans-serif" font-size="13" lengthAdjust="spacing" textLength="4.1133" x="100.3542" y="168.7472">&#160;</text><text fill="#000000" font-family="sans-serif" font-size="13" lengthAdjust="spacing" textLength="226.1162" x="104.4675" y="168.7472">ExactlyOneSupportedDialectPerRun:</text><text fill="#000000" font-family="sans-serif" font-size="13" lengthAdjust="spacing" textLength="8.2266" x="81.8" y="184.0577">&#160;&#160;</text><text fill="#000000" font-family="sans-serif" font-size="13" lengthAdjust="spacing" textLength="67.4248" x="90.0266" y="184.0577">Set{'bicep',</text><text fill="#000000" font-family="sans-serif" font-size="13" lengthAdjust="spacing" textLength="4.1133" x="157.4514" y="184.0577">&#160;</text><text fill="#000000" font-family="sans-serif" font-size="13" lengthAdjust="spacing" textLength="208.4951" x="161.5646" y="184.0577">'terraform'}-&gt;includes(self.value)</text><text fill="#000000" font-family="sans-serif" font-size="13" lengthAdjust="spacing" textLength="302.4404" x="81.8" y="199.3683">OCL-DEPLOY-IAC-CONFIRM-BEFORE-ARTIFACT</text><text fill="#000000" font-family="sans-serif" font-size="13" lengthAdjust="spacing" textLength="18.5542" x="81.8" y="214.6788">inv</text><text fill="#000000" font-family="sans-serif" font-size="13" lengthAdjust="spacing" textLength="4.1133" x="100.3542" y="214.6788">&#160;</text><text fill="#000000" font-family="sans-serif" font-size="13" lengthAdjust="spacing" textLength="191.0327" x="104.4675" y="214.6788">NoArtifactBeforeConfirmation:</text><text fill="#000000" font-family="sans-serif" font-size="13" lengthAdjust="spacing" textLength="8.2266" x="81.8" y="229.9894">&#160;&#160;</text><text fill="#000000" font-family="sans-serif" font-size="13" lengthAdjust="spacing" textLength="116.3525" x="90.0266" y="229.9894">self.artifactWritten</text><text fill="#000000" font-family="sans-serif" font-size="13" lengthAdjust="spacing" textLength="4.1133" x="206.3791" y="229.9894">&#160;</text><text fill="#000000" font-family="sans-serif" font-size="13" lengthAdjust="spacing" textLength="45.4619" x="210.4924" y="229.9894">implies</text><text fill="#000000" font-family="sans-serif" font-size="13" lengthAdjust="spacing" textLength="4.1133" x="255.9543" y="229.9894">&#160;</text><text fill="#000000" font-family="sans-serif" font-size="13" lengthAdjust="spacing" textLength="90.6509" x="260.0676" y="229.9894">self.confirmed</text></g><g class="entity" data-qualified-name="GMN9" data-source-line="20" id="ent0010"><path d="M6,363.8383 L6,419.7699 A0,0 0 0 0 6,419.7699 L469.0317,419.7699 A0,0 0 0 0 469.0317,419.7699 L469.0317,373.8383 L459.0317,363.8383 L241.52,363.8383 L237.52,329.1483 L233.52,363.8383 L6,363.8383 A0,0 0 0 0 6,363.8383" fill="#FEFFDD" style="stroke:#181818;stroke-width:0.5;"/><path d="M459.0317,363.8383 L459.0317,373.8383 L469.0317,373.8383 L459.0317,363.8383" fill="#FEFFDD" style="stroke:#181818;stroke-width:0.5;"/><text fill="#000000" font-family="sans-serif" font-size="13" lengthAdjust="spacing" textLength="254.2173" x="12" y="381.4066">OCL-DEPLOY-IAC-SECURE-BY-DEFAULT</text><text fill="#000000" font-family="sans-serif" font-size="13" lengthAdjust="spacing" textLength="18.5542" x="12" y="396.7172">inv</text><text fill="#000000" font-family="sans-serif" font-size="13" lengthAdjust="spacing" textLength="4.1133" x="30.5542" y="396.7172">&#160;</text><text fill="#000000" font-family="sans-serif" font-size="13" lengthAdjust="spacing" textLength="252.4653" x="34.6675" y="396.7172">NoStoreMoreNetworkOpenThanItsPeers:</text><text fill="#000000" font-family="sans-serif" font-size="13" lengthAdjust="spacing" textLength="8.2266" x="12" y="412.0277">&#160;&#160;</text><text fill="#000000" font-family="sans-serif" font-size="13" lengthAdjust="spacing" textLength="163.541" x="20.2266" y="412.0277">self.networkDefaultAction</text><text fill="#000000" font-family="sans-serif" font-size="13" lengthAdjust="spacing" textLength="4.1133" x="183.7676" y="412.0277">&#160;</text><text fill="#000000" font-family="sans-serif" font-size="13" lengthAdjust="spacing" textLength="10.334" x="187.8809" y="412.0277">=</text><text fill="#000000" font-family="sans-serif" font-size="13" lengthAdjust="spacing" textLength="4.1133" x="198.2148" y="412.0277">&#160;</text><text fill="#000000" font-family="sans-serif" font-size="13" lengthAdjust="spacing" textLength="37.7939" x="202.3281" y="412.0277">'Deny'</text><text fill="#000000" font-family="sans-serif" font-size="13" lengthAdjust="spacing" textLength="4.1133" x="240.1221" y="412.0277">&#160;</text><text fill="#000000" font-family="sans-serif" font-size="13" lengthAdjust="spacing" textLength="23.4292" x="244.2354" y="412.0277">and</text><text fill="#000000" font-family="sans-serif" font-size="13" lengthAdjust="spacing" textLength="4.1133" x="267.6646" y="412.0277">&#160;</text><text fill="#000000" font-family="sans-serif" font-size="13" lengthAdjust="spacing" textLength="70.1099" x="271.7778" y="412.0277">self.bypass</text><text fill="#000000" font-family="sans-serif" font-size="13" lengthAdjust="spacing" textLength="4.1133" x="341.8877" y="412.0277">&#160;</text><text fill="#000000" font-family="sans-serif" font-size="13" lengthAdjust="spacing" textLength="10.334" x="346.001" y="412.0277">=</text><text fill="#000000" font-family="sans-serif" font-size="13" lengthAdjust="spacing" textLength="4.1133" x="356.335" y="412.0277">&#160;</text><text fill="#000000" font-family="sans-serif" font-size="13" lengthAdjust="spacing" textLength="93.5835" x="360.4482" y="412.0277">'AzureServices'</text></g><g class="entity" data-qualified-name="GMN12" data-source-line="25" id="ent0013"><path d="M74.24,545.8383 L74.24,601.7699 A0,0 0 0 0 74.24,601.7699 L400.7844,601.7699 A0,0 0 0 0 400.7844,601.7699 L400.7844,555.8383 L390.7844,545.8383 L241.52,545.8383 L237.52,511.1483 L233.52,545.8383 L74.24,545.8383 A0,0 0 0 0 74.24,545.8383" fill="#FEFFDD" style="stroke:#181818;stroke-width:0.5;"/><path d="M390.7844,545.8383 L390.7844,555.8383 L400.7844,555.8383 L390.7844,545.8383" fill="#FEFFDD" style="stroke:#181818;stroke-width:0.5;"/><text fill="#000000" font-family="sans-serif" font-size="13" lengthAdjust="spacing" textLength="243.439" x="80.24" y="563.4066">OCL-DEPLOY-IAC-MIGRATION-ORDER</text><text fill="#000000" font-family="sans-serif" font-size="13" lengthAdjust="spacing" textLength="18.5542" x="80.24" y="578.7172">inv</text><text fill="#000000" font-family="sans-serif" font-size="13" lengthAdjust="spacing" textLength="4.1133" x="98.7942" y="578.7172">&#160;</text><text fill="#000000" font-family="sans-serif" font-size="13" lengthAdjust="spacing" textLength="261.187" x="102.9075" y="578.7172">MigrationCompletesBeforeTrafficRouting:</text><text fill="#000000" font-family="sans-serif" font-size="13" lengthAdjust="spacing" textLength="8.2266" x="80.24" y="594.0277">&#160;&#160;</text><text fill="#000000" font-family="sans-serif" font-size="13" lengthAdjust="spacing" textLength="60.5693" x="88.4666" y="594.0277">self.order</text><text fill="#000000" font-family="sans-serif" font-size="13" lengthAdjust="spacing" textLength="4.1133" x="149.0359" y="594.0277">&#160;</text><text fill="#000000" font-family="sans-serif" font-size="13" lengthAdjust="spacing" textLength="10.334" x="153.1492" y="594.0277">=</text><text fill="#000000" font-family="sans-serif" font-size="13" lengthAdjust="spacing" textLength="4.1133" x="163.4832" y="594.0277">&#160;</text><text fill="#000000" font-family="sans-serif" font-size="13" lengthAdjust="spacing" textLength="43.729" x="167.5964" y="594.0277">'before</text><text fill="#000000" font-family="sans-serif" font-size="13" lengthAdjust="spacing" textLength="4.1133" x="211.3254" y="594.0277">&#160;</text><text fill="#000000" font-family="sans-serif" font-size="13" lengthAdjust="spacing" textLength="22.0391" x="215.4387" y="594.0277">any</text><text fill="#000000" font-family="sans-serif" font-size="13" lengthAdjust="spacing" textLength="4.1133" x="237.4778" y="594.0277">&#160;</text><text fill="#000000" font-family="sans-serif" font-size="13" lengthAdjust="spacing" textLength="49.4863" x="241.5911" y="594.0277">revision</text><text fill="#000000" font-family="sans-serif" font-size="13" lengthAdjust="spacing" textLength="4.1133" x="291.0774" y="594.0277">&#160;</text><text fill="#000000" font-family="sans-serif" font-size="13" lengthAdjust="spacing" textLength="37.3369" x="295.1907" y="594.0277">traffic</text><text fill="#000000" font-family="sans-serif" font-size="13" lengthAdjust="spacing" textLength="4.1133" x="332.5276" y="594.0277">&#160;</text><text fill="#000000" font-family="sans-serif" font-size="13" lengthAdjust="spacing" textLength="49.1436" x="336.6409" y="594.0277">routing'</text></g><!--link C0 to D0--><g class="link" data-entity-1="ent0002" data-entity-2="ent0005" data-link-type="dependency" data-source-line="29" id="lnk15"><path codeLine="29" d="M300.18,68.4383 C407.02,63.2483 631.57,62.8183 803.03,133.7983 C832.83,146.1383 856.6639,165.8093 875.7839,184.6293" fill="none" id="C0-to-D0" style="stroke:#181818;stroke-width:1;stroke-dasharray:7,7;"/><polygon fill="#181818" points="880.06,188.8383,876.4519,179.6741,876.4966,185.3308,870.8399,185.3755,880.06,188.8383" style="stroke:#181818;stroke-width:1;"/><text fill="#000000" font-family="sans-serif" font-size="13" lengthAdjust="spacing" textLength="173.0435" x="564.53" y="67.1966">OCL-DEPLOY-IAC-DIALECT</text></g><!--link C0 to D0--><g class="link" data-entity-1="ent0002" data-entity-2="ent0005" data-link-type="dependency" data-source-line="30" id="lnk16"><path codeLine="30" d="M300.19,73.2983 C349.33,76.3383 418.1,86.7183 469.03,118.7983 C487.83,130.6483 479.9,147.5083 499.03,158.7983 C513.24,167.1883 714.0443,192.6207 826.8443,206.4007" fill="none" id="C0-to-D0-1" style="stroke:#181818;stroke-width:1;stroke-dasharray:7,7;"/><polygon fill="#181818" points="832.8,207.1283,824.3515,202.0664,827.8369,206.522,823.3814,210.0074,832.8,207.1283" style="stroke:#181818;stroke-width:1;"/><text fill="#000000" font-family="sans-serif" font-size="13" lengthAdjust="spacing" textLength="302.4404" x="500.03" y="155.3666">OCL-DEPLOY-IAC-CONFIRM-BEFORE-ARTIFACT</text></g><!--link C1 to D0--><g class="link" data-entity-1="ent0003" data-entity-2="ent0005" data-link-type="dependency" data-source-line="31" id="lnk17"><path codeLine="31" d="M283.54,295.0583 C396.85,280.6083 688.6482,243.3872 826.7582,225.7772" fill="none" id="C1-to-D0" style="stroke:#181818;stroke-width:1;stroke-dasharray:7,7;"/><polygon fill="#181818" points="832.71,225.0183,823.2763,222.1888,827.7502,225.6507,824.2882,230.1245,832.71,225.0183" style="stroke:#181818;stroke-width:1;"/><text fill="#000000" font-family="sans-serif" font-size="13" lengthAdjust="spacing" textLength="254.2173" x="524.03" y="226.6166">OCL-DEPLOY-IAC-SECURE-BY-DEFAULT</text></g><!--link C2 to D0--><g class="link" data-entity-1="ent0004" data-entity-2="ent0005" data-link-type="dependency" data-source-line="32" id="lnk18"><path codeLine="32" d="M297.17,474.6683 C344.29,467.2883 411.8,454.7883 469.03,436.7983 C623.58,388.2283 662.7,371.7483 803.03,290.7983 C827.39,276.7483 848.1615,261.7045 867.5515,246.4745" fill="none" id="C2-to-D0" style="stroke:#181818;stroke-width:1;stroke-dasharray:7,7;"/><polygon fill="#181818" points="872.27,242.7683,862.7215,245.1819,868.3379,245.8568,867.663,251.4732,872.27,242.7683" style="stroke:#181818;stroke-width:1;"/><text fill="#000000" font-family="sans-serif" font-size="13" lengthAdjust="spacing" textLength="243.439" x="529.53" y="287.3666">OCL-DEPLOY-IAC-MIGRATION-ORDER</text></g><?plantuml-src VPFFRjD048VlUOfHEHWaNBM5GrMLI8x_e40ILqvArUF67YUhhdUjtN6QW91u29wG9s5ibn88uU2BzvlPRtyxAvGoZvNSIhqQa2I5a8OJo8rsP8NKvE37j-zGOAtCpfSY7oWi2SY0bQirGI4jvYID7hW7gMjXHGMFLjHtig0rlBqys_kVA-7SIEGFAsiQNOH66GilaYIvZC_tiBQXq2k51sZy9hb8ea7N1quYAHIZuTh874z0E0ZFuFgQrGctD1p-uZxYxfDe5FN8-R-GgLnPqPxYWrdssCKVsBCIxvfE_IY-cQJt_ZW8EpXgjorCnN4ngmqXB0sHgS2Kx3I0DjAz8ZyQ1vCuNF22r1k8jo8djKirpfkwDfQmU3hQ3TgiqLVC0SoHldXBFcdjlGQFq5fH6bjvN_sXrBbg2dGl7QhoT2DKWwyEDmtJMJBEflueJj8izeDiCKw2PucP2Ip9aar6o7qnDBgKjkf2wGMwvk89khEI23N8gbOINR-OzpLO350NqEPm4CRveTSy3c_PPtJFFvFWTlBRQ4uiCkLlXlHex4DQerwiXHwJkq6qRizBzqI4PNlJGJUHy0wy2FNE0y4w7RRSrUrzyqBmkR4uHxlXH9rtNFZYK7WwVfy5Yt4wyzCiYhCdtUSH2WrdWeIk3tB1zrJAF3CDyHFRKpQsGDkgB3kE9NSy-XlfMdNggy3sPNk2FEEdfyDsvgwEZTL_a6D3mC_YMCdX_V3ZE0R_bSrF?></g></svg>