<svg xmlns="http://www.w3.org/2000/svg" xmlns:xlink="http://www.w3.org/1999/xlink" contentStyleType="text/css" data-diagram-type="CLASS" height="206px" preserveAspectRatio="none" style="width:805px;height:206px;background:#FFFFFF;" version="1.1" viewBox="0 0 805 206" width="805px" zoomAndPan="magnify"><?plantuml 1.2026.3?><defs/><g><g class="title" data-source-line="2"><text fill="#000000" font-family="sans-serif" font-size="14" font-weight="700" lengthAdjust="spacing" textLength="242.1836" x="278.2363" y="23.5352">OCL constraints &#8212; font-database</text></g><!--class C0--><g class="entity" data-qualified-name="C0" data-source-line="7" id="ent0002"><rect fill="#FFF8E1" height="56.6211" rx="2.5" ry="2.5" style="stroke:#181818;stroke-width:0.5;" width="123.6016" x="133.18" y="44.4883"/><ellipse cx="148.18" cy="64.7988" fill="#ADD1B2" rx="11" ry="11" style="stroke:#181818;stroke-width:1;"/><path d="M150.6531,70.9419 Q150.0721,71.2407 149.4329,71.3901 Q148.7938,71.5396 148.0882,71.5396 Q145.5814,71.5396 144.2615,69.8877 Q142.9417,68.2358 142.9417,65.1147 Q142.9417,61.9854 144.2615,60.3335 Q145.5814,58.6816 148.0882,58.6816 Q148.7938,58.6816 149.4412,58.8311 Q150.0887,58.9805 150.6531,59.2793 L150.6531,62.002 Q150.0223,61.4209 149.4288,61.1511 Q148.8353,60.8813 148.2044,60.8813 Q146.8597,60.8813 146.1749,61.948 Q145.4901,63.0146 145.4901,65.1147 Q145.4901,67.2065 146.1749,68.2732 Q146.8597,69.3398 148.2044,69.3398 Q148.8353,69.3398 149.4288,69.0701 Q150.0223,68.8003 150.6531,68.2192 Z " fill="#000000"/><text fill="#000000" font-family="sans-serif" font-size="12" font-style="italic" lengthAdjust="spacing" textLength="56.5605" x="179.7005" y="61.0898">&#171;context&#187;</text><text fill="#000000" font-family="sans-serif" font-size="14" lengthAdjust="spacing" textLength="91.6016" x="162.18" y="77.1563">SvgRasterizer</text><line style="stroke:#181818;stroke-width:0.5;" x1="134.18" x2="255.7816" y1="85.1094" y2="85.1094"/><line style="stroke:#181818;stroke-width:0.5;" x1="134.18" x2="255.7816" y1="93.1094" y2="93.1094"/></g><!--entity D0--><g class="entity" data-qualified-name="D0" data-source-line="8" id="ent0003"><rect fill="#E3F2FD" height="52.9766" rx="2.5" ry="2.5" style="stroke:#181818;stroke-width:0.5;" width="178.6963" x="612.96" y="46.3183"/><text fill="#000000" font-family="sans-serif" font-size="14" font-style="italic" lengthAdjust="spacing" textLength="65.6182" x="669.4991" y="69.8534">&#171;domain&#187;</text><text fill="#000000" font-family="sans-serif" font-size="14" lengthAdjust="spacing" textLength="158.6963" x="622.96" y="86.3417">DOM-FONT-DATABASE</text></g><g class="entity" data-qualified-name="GMN4" data-source-line="10" id="ent0005"><path d="M6,135.8383 L6,191.7699 A0,0 0 0 0 6,191.7699 L383.9604,191.7699 A0,0 0 0 0 383.9604,191.7699 L383.9604,145.8383 L373.9604,135.8383 L198.98,135.8383 L194.98,101.1483 L190.98,135.8383 L6,135.8383 A0,0 0 0 0 6,135.8383" fill="#FEFFDD" style="stroke:#181818;stroke-width:0.5;"/><path d="M373.9604,135.8383 L373.9604,145.8383 L383.9604,145.8383 L373.9604,135.8383" fill="#FEFFDD" style="stroke:#181818;stroke-width:0.5;"/><text fill="#000000" font-family="sans-serif" font-size="13" lengthAdjust="spacing" textLength="167.5591" x="12" y="153.4066">OCL-FONTDB-POPULATED</text><text fill="#000000" font-family="sans-serif" font-size="13" lengthAdjust="spacing" textLength="18.5542" x="12" y="168.7172">inv</text><text fill="#000000" font-family="sans-serif" font-size="13" lengthAdjust="spacing" textLength="4.1133" x="30.5542" y="168.7172">&#160;</text><text fill="#000000" font-family="sans-serif" font-size="13" lengthAdjust="spacing" textLength="128.9907" x="34.6675" y="168.7172">SystemFontsLoaded:</text><text fill="#000000" font-family="sans-serif" font-size="13" lengthAdjust="spacing" textLength="4.1133" x="163.6582" y="168.7172">&#160;</text><text fill="#000000" font-family="sans-serif" font-size="13" lengthAdjust="spacing" textLength="90.1938" x="167.7715" y="168.7172">self.fontCount</text><text fill="#000000" font-family="sans-serif" font-size="13" lengthAdjust="spacing" textLength="4.1133" x="257.9653" y="168.7172">&#160;</text><text fill="#000000" font-family="sans-serif" font-size="13" lengthAdjust="spacing" textLength="10.334" x="262.0786" y="168.7172">&gt;</text><text fill="#000000" font-family="sans-serif" font-size="13" lengthAdjust="spacing" textLength="4.1133" x="272.4126" y="168.7172">&#160;</text><text fill="#000000" font-family="sans-serif" font-size="13" lengthAdjust="spacing" textLength="8.2202" x="276.5259" y="168.7172">0</text><text fill="#000000" font-family="sans-serif" font-size="13" lengthAdjust="spacing" textLength="18.5542" x="12" y="184.0277">inv</text><text fill="#000000" font-family="sans-serif" font-size="13" lengthAdjust="spacing" textLength="4.1133" x="30.5542" y="184.0277">&#160;</text><text fill="#000000" font-family="sans-serif" font-size="13" lengthAdjust="spacing" textLength="125.2075" x="34.6675" y="184.0277">RasterizerHasFonts:</text><text fill="#000000" font-family="sans-serif" font-size="13" lengthAdjust="spacing" textLength="4.1133" x="159.875" y="184.0277">&#160;</text><text fill="#000000" font-family="sans-serif" font-size="13" lengthAdjust="spacing" textLength="178.1914" x="163.9883" y="184.0277">self.fontDatabase.fontCount</text><text fill="#000000" font-family="sans-serif" font-size="13" lengthAdjust="spacing" textLength="4.1133" x="342.1797" y="184.0277">&#160;</text><text fill="#000000" font-family="sans-serif" font-size="13" lengthAdjust="spacing" textLength="10.334" x="346.293" y="184.0277">&gt;</text><text fill="#000000" font-family="sans-serif" font-size="13" lengthAdjust="spacing" textLength="4.1133" x="356.627" y="184.0277">&#160;</text><text fill="#000000" font-family="sans-serif" font-size="13" lengthAdjust="spacing" textLength="8.2202" x="360.7402" y="184.0277">0</text></g><!--link C0 to D0--><g class="link" data-entity-1="ent0002" data-entity-2="ent0003" data-link-type="dependency" data-source-line="14" id="lnk7"><path codeLine="14" d="M257.19,72.7983 C345.87,72.7983 504.62,72.7983 606.61,72.7983" fill="none" id="C0-to-D0" style="stroke:#181818;stroke-width:1;stroke-dasharray:7,7;"/><polygon fill="#181818" points="612.61,72.7983,603.61,68.7983,607.61,72.7983,603.61,76.7983,612.61,72.7983" style="stroke:#181818;stroke-width:1;"/><text fill="#000000" font-family="sans-serif" font-size="13" lengthAdjust="spacing" textLength="167.5591" x="414.96" y="69.3666">OCL-FONTDB-POPULATED</text></g><?plantuml-src RP1DRi8m44RtFiM8heFepm8X52d4iRgW3IfKh8VO2HQEZUmfqAvwY9wm9waJeHQrtOxUVFFcGsFSiTKdRHj6ceo2Cfz3vMmWZzfIWC_t3wYTfKGYuGQ3OaRL1EJ0wsPB8BLN5MbdMTXfkqUFBHmzxjTQqXRkngEBUMKmX1bMkyQx5ojpPvo7Ao74kBY-mBf0j8rHVz3YLjm8pleS62mFpHC6Kbw_AJy0392FO3gDzgHEbARiEmW6l7n8HFcuIdYsocRPikXvtl7IjV7LY5j72ZQEoBNWwXZ6eAkZt-EpP54kdkVPgk1nhEq1bg_nTYlYjJ1tA9MSG52c7dPjvL6Q88NHcVtnlCVGhrp0_Dpihqrb9NHAB7ur7AQTxEHVdoy0?></g></svg>