<svg xmlns="http://www.w3.org/2000/svg" xmlns:xlink="http://www.w3.org/1999/xlink" contentStyleType="text/css" data-diagram-type="CLASS" height="528px" preserveAspectRatio="none" style="width:974px;height:528px;background:#FFFFFF;" version="1.1" viewBox="0 0 974 528" width="974px" zoomAndPan="magnify"><?plantuml 1.2026.3?><defs/><g><g class="title" data-source-line="2"><text fill="#000000" font-family="sans-serif" font-size="14" font-weight="700" lengthAdjust="spacing" textLength="229.4824" x="369.0585" y="23.5352">OCL constraints &#8212; init-scaffold</text></g><!--class C0--><g class="entity" data-qualified-name="C0" data-source-line="7" id="ent0002"><rect fill="#FFF8E1" height="56.6211" rx="2.5" ry="2.5" style="stroke:#181818;stroke-width:0.5;" width="113.1426" x="191.26" y="350.4883"/><ellipse cx="206.26" cy="370.7988" fill="#ADD1B2" rx="11" ry="11" style="stroke:#181818;stroke-width:1;"/><path d="M208.7331,376.9419 Q208.1521,377.2407 207.5129,377.3901 Q206.8738,377.5396 206.1682,377.5396 Q203.6614,377.5396 202.3415,375.8877 Q201.0217,374.2358 201.0217,371.1147 Q201.0217,367.9854 202.3415,366.3335 Q203.6614,364.6816 206.1682,364.6816 Q206.8738,364.6816 207.5212,364.8311 Q208.1687,364.9805 208.7331,365.2793 L208.7331,368.002 Q208.1023,367.4209 207.5088,367.1511 Q206.9153,366.8813 206.2844,366.8813 Q204.9397,366.8813 204.2549,367.948 Q203.5701,369.0146 203.5701,371.1147 Q203.5701,373.2065 204.2549,374.2732 Q204.9397,375.3398 206.2844,375.3398 Q206.9153,375.3398 207.5088,375.0701 Q208.1023,374.8003 208.7331,374.2192 Z " fill="#000000"/><text fill="#000000" font-family="sans-serif" font-size="12" font-style="italic" lengthAdjust="spacing" textLength="56.5605" x="232.551" y="367.0898">&#171;context&#187;</text><text fill="#000000" font-family="sans-serif" font-size="14" lengthAdjust="spacing" textLength="81.1426" x="220.26" y="383.1563">InitFileClass</text><line style="stroke:#181818;stroke-width:0.5;" x1="192.26" x2="303.4026" y1="391.1094" y2="391.1094"/><line style="stroke:#181818;stroke-width:0.5;" x1="192.26" x2="303.4026" y1="399.1094" y2="399.1094"/></g><!--class C1--><g class="entity" data-qualified-name="C1" data-source-line="8" id="ent0003"><rect fill="#FFF8E1" height="56.6211" rx="2.5" ry="2.5" style="stroke:#181818;stroke-width:0.5;" width="130.4102" x="182.63" y="44.4883"/><ellipse cx="197.63" cy="64.7988" fill="#ADD1B2" rx="11" ry="11" style="stroke:#181818;stroke-width:1;"/><path d="M200.1031,70.9419 Q199.5221,71.2407 198.8829,71.3901 Q198.2438,71.5396 197.5382,71.5396 Q195.0314,71.5396 193.7115,69.8877 Q192.3917,68.2358 192.3917,65.1147 Q192.3917,61.9854 193.7115,60.3335 Q195.0314,58.6816 197.5382,58.6816 Q198.2438,58.6816 198.8912,58.8311 Q199.5387,58.9805 200.1031,59.2793 L200.1031,62.002 Q199.4723,61.4209 198.8788,61.1511 Q198.2853,60.8813 197.6544,60.8813 Q196.3097,60.8813 195.6249,61.948 Q194.9401,63.0146 194.9401,65.1147 Q194.9401,67.2065 195.6249,68.2732 Q196.3097,69.3398 197.6544,69.3398 Q198.2853,69.3398 198.8788,69.0701 Q199.4723,68.8003 200.1031,68.2192 Z " fill="#000000"/><text fill="#000000" font-family="sans-serif" font-size="12" font-style="italic" lengthAdjust="spacing" textLength="56.5605" x="232.5548" y="61.0898">&#171;context&#187;</text><text fill="#000000" font-family="sans-serif" font-size="14" lengthAdjust="spacing" textLength="98.4102" x="211.63" y="77.1563">StateMigration</text><line style="stroke:#181818;stroke-width:0.5;" x1="183.63" x2="312.0402" y1="85.1094" y2="85.1094"/><line style="stroke:#181818;stroke-width:0.5;" x1="183.63" x2="312.0402" y1="93.1094" y2="93.1094"/></g><!--entity D0--><g class="entity" data-qualified-name="D0" data-source-line="9" id="ent0004"><rect fill="#E3F2FD" height="52.9766" rx="2.5" ry="2.5" style="stroke:#181818;stroke-width:0.5;" width="173.4668" x="778.4" y="352.3083"/><text fill="#000000" font-family="sans-serif" font-size="14" font-style="italic" lengthAdjust="spacing" textLength="65.6182" x="832.3243" y="375.8434">&#171;domain&#187;</text><text fill="#000000" font-family="sans-serif" font-size="14" lengthAdjust="spacing" textLength="153.4668" x="788.4" y="392.3317">DOM-INIT-FILE-CLASS</text></g><!--entity D1--><g class="entity" data-qualified-name="D1" data-source-line="10" id="ent0005"><rect fill="#E3F2FD" height="52.9766" rx="2.5" ry="2.5" style="stroke:#181818;stroke-width:0.5;" width="190.9395" x="769.66" y="47.3083"/><text fill="#000000" font-family="sans-serif" font-size="14" font-style="italic" lengthAdjust="spacing" textLength="65.6182" x="832.3206" y="70.8434">&#171;domain&#187;</text><text fill="#000000" font-family="sans-serif" font-size="14" lengthAdjust="spacing" textLength="170.9395" x="779.66" y="87.3317">DOM-STATE-MIGRATION</text></g><g class="entity" data-qualified-name="GMN6" data-source-line="12" id="ent0007"><path d="M87.44,442.1783 L87.44,513.4205 A0,0 0 0 0 87.44,513.4205 L408.2208,513.4205 A0,0 0 0 0 408.2208,513.4205 L408.2208,452.1783 L398.2208,442.1783 L251.83,442.1783 L247.83,407.3583 L243.83,442.1783 L87.44,442.1783 A0,0 0 0 0 87.44,442.1783" fill="#FEFFDD" style="stroke:#181818;stroke-width:0.5;"/><path d="M398.2208,442.1783 L398.2208,452.1783 L408.2208,452.1783 L398.2208,442.1783" fill="#FEFFDD" style="stroke:#181818;stroke-width:0.5;"/><text fill="#000000" font-family="sans-serif" font-size="13" lengthAdjust="spacing" textLength="155.562" x="93.44" y="459.7466">OCL-INIT-FORCE-SCOPE</text><text fill="#000000" font-family="sans-serif" font-size="13" lengthAdjust="spacing" textLength="18.5542" x="93.44" y="475.0572">inv</text><text fill="#000000" font-family="sans-serif" font-size="13" lengthAdjust="spacing" textLength="4.1133" x="111.9942" y="475.0572">&#160;</text><text fill="#000000" font-family="sans-serif" font-size="13" lengthAdjust="spacing" textLength="212.0244" x="116.1075" y="475.0572">ForceOverwritesRegenerableOnly:</text><text fill="#000000" font-family="sans-serif" font-size="13" lengthAdjust="spacing" textLength="8.2266" x="93.44" y="490.3677">&#160;&#160;</text><text fill="#000000" font-family="sans-serif" font-size="13" lengthAdjust="spacing" textLength="22.4072" x="101.6666" y="490.3677">self</text><text fill="#000000" font-family="sans-serif" font-size="13" lengthAdjust="spacing" textLength="4.1133" x="124.0738" y="490.3677">&#160;</text><text fill="#000000" font-family="sans-serif" font-size="13" lengthAdjust="spacing" textLength="10.334" x="128.1871" y="490.3677">=</text><text fill="#000000" font-family="sans-serif" font-size="13" lengthAdjust="spacing" textLength="4.1133" x="138.5211" y="490.3677">&#160;</text><text fill="#000000" font-family="sans-serif" font-size="13" lengthAdjust="spacing" textLength="201.0112" x="142.6343" y="490.3677">InitFileClass::AccumulatingState</text><text fill="#000000" font-family="sans-serif" font-size="13" lengthAdjust="spacing" textLength="4.1133" x="343.6456" y="490.3677">&#160;</text><text fill="#000000" font-family="sans-serif" font-size="13" lengthAdjust="spacing" textLength="45.4619" x="347.7588" y="490.3677">implies</text><text fill="#000000" font-family="sans-serif" font-size="13" lengthAdjust="spacing" textLength="16.4531" x="93.44" y="505.6783">&#160;&#160;&#160;&#160;</text><text fill="#000000" font-family="sans-serif" font-size="13" lengthAdjust="spacing" textLength="150.5981" x="109.8931" y="505.6783">(self.overwrittenByForce</text><text fill="#000000" font-family="sans-serif" font-size="13" lengthAdjust="spacing" textLength="4.1133" x="260.4913" y="505.6783">&#160;</text><text fill="#000000" font-family="sans-serif" font-size="13" lengthAdjust="spacing" textLength="10.334" x="264.6046" y="505.6783">=</text><text fill="#000000" font-family="sans-serif" font-size="13" lengthAdjust="spacing" textLength="4.1133" x="274.9385" y="505.6783">&#160;</text><text fill="#000000" font-family="sans-serif" font-size="13" lengthAdjust="spacing" textLength="33.814" x="279.0518" y="505.6783">false)</text></g><g class="entity" data-qualified-name="GMN9" data-source-line="18" id="ent0010"><path d="M6,136.5883 L6,315.0043 A0,0 0 0 0 6,315.0043 L489.6616,315.0043 A0,0 0 0 0 489.6616,315.0043 L489.6616,146.5883 L479.6616,136.5883 L251.83,136.5883 L247.83,101.5083 L243.83,136.5883 L6,136.5883 A0,0 0 0 0 6,136.5883" fill="#FEFFDD" style="stroke:#181818;stroke-width:0.5;"/><path d="M479.6616,136.5883 L479.6616,146.5883 L489.6616,146.5883 L479.6616,136.5883" fill="#FEFFDD" style="stroke:#181818;stroke-width:0.5;"/><text fill="#000000" font-family="sans-serif" font-size="13" lengthAdjust="spacing" textLength="218.9561" x="12" y="154.1566">OCL-INIT-STATE-FORWARD-ONLY</text><text fill="#000000" font-family="sans-serif" font-size="13" lengthAdjust="spacing" textLength="18.5542" x="12" y="169.4672">inv</text><text fill="#000000" font-family="sans-serif" font-size="13" lengthAdjust="spacing" textLength="4.1133" x="30.5542" y="169.4672">&#160;</text><text fill="#000000" font-family="sans-serif" font-size="13" lengthAdjust="spacing" textLength="83.8018" x="34.6675" y="169.4672">ForwardOnly:</text><text fill="#000000" font-family="sans-serif" font-size="13" lengthAdjust="spacing" textLength="8.2266" x="12" y="184.7777">&#160;&#160;</text><text fill="#000000" font-family="sans-serif" font-size="13" lengthAdjust="spacing" textLength="122.021" x="20.2266" y="184.7777">(self.onDiskVersion</text><text fill="#000000" font-family="sans-serif" font-size="13" lengthAdjust="spacing" textLength="4.1133" x="142.2476" y="184.7777">&#160;</text><text fill="#000000" font-family="sans-serif" font-size="13" lengthAdjust="spacing" textLength="10.334" x="146.3608" y="184.7777">&lt;</text><text fill="#000000" font-family="sans-serif" font-size="13" lengthAdjust="spacing" textLength="4.1133" x="156.6948" y="184.7777">&#160;</text><text fill="#000000" font-family="sans-serif" font-size="13" lengthAdjust="spacing" textLength="121.9321" x="160.8081" y="184.7777">self.schemaVersion</text><text fill="#000000" font-family="sans-serif" font-size="13" lengthAdjust="spacing" textLength="4.1133" x="282.7402" y="184.7777">&#160;</text><text fill="#000000" font-family="sans-serif" font-size="13" lengthAdjust="spacing" textLength="45.4619" x="286.8535" y="184.7777">implies</text><text fill="#000000" font-family="sans-serif" font-size="13" lengthAdjust="spacing" textLength="4.1133" x="332.3154" y="184.7777">&#160;</text><text fill="#000000" font-family="sans-serif" font-size="13" lengthAdjust="spacing" textLength="83.5796" x="336.4287" y="184.7777">self.migrate()</text><text fill="#000000" font-family="sans-serif" font-size="13" lengthAdjust="spacing" textLength="4.1133" x="420.0083" y="184.7777">&#160;</text><text fill="#000000" font-family="sans-serif" font-size="13" lengthAdjust="spacing" textLength="10.334" x="424.1216" y="184.7777">=</text><text fill="#000000" font-family="sans-serif" font-size="13" lengthAdjust="spacing" textLength="125.3535" x="12" y="200.0883">Outcome::Migrated)</text><text fill="#000000" font-family="sans-serif" font-size="13" lengthAdjust="spacing" textLength="8.2266" x="12" y="215.3988">&#160;&#160;</text><text fill="#000000" font-family="sans-serif" font-size="13" lengthAdjust="spacing" textLength="23.4292" x="20.2266" y="215.3988">and</text><text fill="#000000" font-family="sans-serif" font-size="13" lengthAdjust="spacing" textLength="4.1133" x="43.6558" y="215.3988">&#160;</text><text fill="#000000" font-family="sans-serif" font-size="13" lengthAdjust="spacing" textLength="122.021" x="47.769" y="215.3988">(self.onDiskVersion</text><text fill="#000000" font-family="sans-serif" font-size="13" lengthAdjust="spacing" textLength="4.1133" x="169.79" y="215.3988">&#160;</text><text fill="#000000" font-family="sans-serif" font-size="13" lengthAdjust="spacing" textLength="20.668" x="173.9033" y="215.3988">&gt;=</text><text fill="#000000" font-family="sans-serif" font-size="13" lengthAdjust="spacing" textLength="4.1133" x="194.5713" y="215.3988">&#160;</text><text fill="#000000" font-family="sans-serif" font-size="13" lengthAdjust="spacing" textLength="121.9321" x="198.6846" y="215.3988">self.schemaVersion</text><text fill="#000000" font-family="sans-serif" font-size="13" lengthAdjust="spacing" textLength="4.1133" x="320.6167" y="215.3988">&#160;</text><text fill="#000000" font-family="sans-serif" font-size="13" lengthAdjust="spacing" textLength="45.4619" x="324.73" y="215.3988">implies</text><text fill="#000000" font-family="sans-serif" font-size="13" lengthAdjust="spacing" textLength="4.1133" x="370.1919" y="215.3988">&#160;</text><text fill="#000000" font-family="sans-serif" font-size="13" lengthAdjust="spacing" textLength="83.5796" x="374.3052" y="215.3988">self.migrate()</text><text fill="#000000" font-family="sans-serif" font-size="13" lengthAdjust="spacing" textLength="4.1133" x="457.8848" y="215.3988">&#160;</text><text fill="#000000" font-family="sans-serif" font-size="13" lengthAdjust="spacing" textLength="10.334" x="461.998" y="215.3988">=</text><text fill="#000000" font-family="sans-serif" font-size="13" lengthAdjust="spacing" textLength="119.6533" x="12" y="230.7094">Outcome::Skipped)</text><text fill="#000000" font-family="sans-serif" font-size="13" lengthAdjust="spacing" textLength="197.9644" x="12" y="246.0199">OCL-INIT-MIGRATE-PRESERVES</text><text fill="#000000" font-family="sans-serif" font-size="13" lengthAdjust="spacing" textLength="18.5542" x="12" y="261.3305">inv</text><text fill="#000000" font-family="sans-serif" font-size="13" lengthAdjust="spacing" textLength="4.1133" x="30.5542" y="261.3305">&#160;</text><text fill="#000000" font-family="sans-serif" font-size="13" lengthAdjust="spacing" textLength="155.6572" x="34.6675" y="261.3305">ContentPreservingBump:</text><text fill="#000000" font-family="sans-serif" font-size="13" lengthAdjust="spacing" textLength="8.2266" x="12" y="276.641">&#160;&#160;</text><text fill="#000000" font-family="sans-serif" font-size="13" lengthAdjust="spacing" textLength="83.5796" x="20.2266" y="276.641">self.migrate()</text><text fill="#000000" font-family="sans-serif" font-size="13" lengthAdjust="spacing" textLength="4.1133" x="103.8062" y="276.641">&#160;</text><text fill="#000000" font-family="sans-serif" font-size="13" lengthAdjust="spacing" textLength="10.334" x="107.9194" y="276.641">=</text><text fill="#000000" font-family="sans-serif" font-size="13" lengthAdjust="spacing" textLength="4.1133" x="118.2534" y="276.641">&#160;</text><text fill="#000000" font-family="sans-serif" font-size="13" lengthAdjust="spacing" textLength="121.126" x="122.3667" y="276.641">Outcome::Migrated</text><text fill="#000000" font-family="sans-serif" font-size="13" lengthAdjust="spacing" textLength="4.1133" x="243.4927" y="276.641">&#160;</text><text fill="#000000" font-family="sans-serif" font-size="13" lengthAdjust="spacing" textLength="45.4619" x="247.606" y="276.641">implies</text><text fill="#000000" font-family="sans-serif" font-size="13" lengthAdjust="spacing" textLength="16.4531" x="12" y="291.9516">&#160;&#160;&#160;&#160;</text><text fill="#000000" font-family="sans-serif" font-size="13" lengthAdjust="spacing" textLength="122.021" x="28.4531" y="291.9516">(self.onDiskVersion</text><text fill="#000000" font-family="sans-serif" font-size="13" lengthAdjust="spacing" textLength="4.1133" x="150.4741" y="291.9516">&#160;</text><text fill="#000000" font-family="sans-serif" font-size="13" lengthAdjust="spacing" textLength="10.334" x="154.5874" y="291.9516">&lt;</text><text fill="#000000" font-family="sans-serif" font-size="13" lengthAdjust="spacing" textLength="4.1133" x="164.9214" y="291.9516">&#160;</text><text fill="#000000" font-family="sans-serif" font-size="13" lengthAdjust="spacing" textLength="121.9321" x="169.0347" y="291.9516">self.schemaVersion</text><text fill="#000000" font-family="sans-serif" font-size="13" lengthAdjust="spacing" textLength="20.5664" x="12" y="307.2621">&#160;&#160;&#160;&#160;&#160;</text><text fill="#000000" font-family="sans-serif" font-size="13" lengthAdjust="spacing" textLength="23.4292" x="32.5664" y="307.2621">and</text><text fill="#000000" font-family="sans-serif" font-size="13" lengthAdjust="spacing" textLength="4.1133" x="55.9956" y="307.2621">&#160;</text><text fill="#000000" font-family="sans-serif" font-size="13" lengthAdjust="spacing" textLength="170.5488" x="60.1089" y="307.2621">self.priorContent-&gt;forAll(v</text><text fill="#000000" font-family="sans-serif" font-size="13" lengthAdjust="spacing" textLength="4.1133" x="230.6577" y="307.2621">&#160;</text><text fill="#000000" font-family="sans-serif" font-size="13" lengthAdjust="spacing" textLength="4.856" x="234.771" y="307.2621">|</text><text fill="#000000" font-family="sans-serif" font-size="13" lengthAdjust="spacing" textLength="4.1133" x="239.627" y="307.2621">&#160;</text><text fill="#000000" font-family="sans-serif" font-size="13" lengthAdjust="spacing" textLength="230.9214" x="243.7402" y="307.2621">self.upgradedContent-&gt;includes(v)))</text></g><!--link C0 to D0--><g class="link" data-entity-1="ent0002" data-entity-2="ent0004" data-link-type="dependency" data-source-line="28" id="lnk12"><path codeLine="28" d="M304.79,378.7983 C412.63,378.7983 643.84,378.7983 771.97,378.7983" fill="none" id="C0-to-D0" style="stroke:#181818;stroke-width:1;stroke-dasharray:7,7;"/><polygon fill="#181818" points="777.97,378.7983,768.97,374.7983,772.97,378.7983,768.97,382.7983,777.97,378.7983" style="stroke:#181818;stroke-width:1;"/><text fill="#000000" font-family="sans-serif" font-size="13" lengthAdjust="spacing" textLength="155.562" x="552.16" y="375.3666">OCL-INIT-FORCE-SCOPE</text></g><!--link C1 to D1--><g class="link" data-entity-1="ent0003" data-entity-2="ent0005" data-link-type="dependency" data-source-line="29" id="lnk13"><path codeLine="29" d="M313.52,72.8983 C422.43,73.0783 636.9,73.4288 763.32,73.6288" fill="none" id="C1-to-D1" style="stroke:#181818;stroke-width:1;stroke-dasharray:7,7;"/><polygon fill="#181818" points="769.32,73.6383,760.3263,69.624,764.32,73.6304,760.3137,77.624,769.32,73.6383" style="stroke:#181818;stroke-width:1;"/><text fill="#000000" font-family="sans-serif" font-size="13" lengthAdjust="spacing" textLength="218.9561" x="520.66" y="69.8366">OCL-INIT-STATE-FORWARD-ONLY</text></g><!--link C1 to D1--><g class="link" data-entity-1="ent0003" data-entity-2="ent0005" data-link-type="dependency" data-source-line="30" id="lnk14"><path codeLine="30" d="M313.29,82.4383 C407.25,95.0683 587.24,113.9483 739.66,98.7983 C749.31,97.8383 753.3969,97.4257 763.3569,95.8157" fill="none" id="C1-to-D1-1" style="stroke:#181818;stroke-width:1;stroke-dasharray:7,7;"/><polygon fill="#181818" points="769.28,94.8583,759.757,92.3457,764.3441,95.6562,761.0336,100.2432,769.28,94.8583" style="stroke:#181818;stroke-width:1;"/><text fill="#000000" font-family="sans-serif" font-size="13" lengthAdjust="spacing" textLength="197.9644" x="531.16" y="95.3666">OCL-INIT-MIGRATE-PRESERVES</text></g><?plantuml-src dPFFZfim4CRlFCKelIG7eatRmmfb8n425L8I8eXsrQCN1cB5sCWsoQxKGn-YJzWdgVcp6rQ9Mgb7x6---SryXZ0cpYLzeRomDDKC8VBMa0gkj2IKQmM_V_u2ogcsLKhoNB3COfXhq08aBGuQCYenrLHmInqfhuWa9PmbgPvefW_mzVvkS9uoejIIfCT2Yffddc12mgSW2ExzsK3M619UCBoI-b-2py7AQdrW51giW3BqciyH40NU7SpdXbxZYruitdI99Xetj92auUo4im_2zuumMaKREzo6Upi8rxxjhTqaQIjMZNKcIhELwu9ax-vzUnD-Yzrz66sxWjcmW0kDy2oq5YM8t81QqAowRnN5dcydNhJppJ7b9mY4J34weJnBgb75M217IPuPHfozEaO5e93by00Vjk0uRfhMPStCgBne1mTQLeoYQci0natPLFJM6ldojMrcd7B254uiv1aqk5VCio5pDx8XVtBZbHrjrzylw6SYimjdtv6lg3e-ebGc0vYtz5EL7h0aRuSzQ7TLjddXU6B0ebgdeaJ7wKB4RD8Q4mDwotpny7_koP5MLMV-FcQNgM_lOZ_nuqS_wQVqchV3zKwYGdaokrxMPNN9vU_ujoFvvu9wUJjtUrj9AcHFOYzo8Lt6nYVuqTtMbUcMOVOke3nbTOPgV9fC1Z6RdsOwNJGFtBdz9CtFqWfcGy6D_6_ghXRu1m00?></g></svg>