<svg xmlns="http://www.w3.org/2000/svg" xmlns:xlink="http://www.w3.org/1999/xlink" contentStyleType="text/css" data-diagram-type="CLASS" height="450px" preserveAspectRatio="none" style="width:875px;height:450px;background:#FFFFFF;" version="1.1" viewBox="0 0 875 450" width="875px" zoomAndPan="magnify"><?plantuml 1.2026.3?><defs/><g><g class="title" data-source-line="2"><text fill="#000000" font-family="sans-serif" font-size="14" font-weight="700" lengthAdjust="spacing" textLength="188.8633" x="340.0613" y="23.5352">OCL constraints &#8212; kickoff</text></g><!--class C0--><g class="entity" data-qualified-name="C0" data-source-line="7" id="ent0002"><rect fill="#FFF8E1" height="56.6211" rx="2.5" ry="2.5" style="stroke:#181818;stroke-width:0.5;" width="90.3447" x="155.19" y="226.4883"/><ellipse cx="170.19" cy="246.7988" fill="#ADD1B2" rx="11" ry="11" style="stroke:#181818;stroke-width:1;"/><path d="M172.6631,252.9419 Q172.0821,253.2407 171.4429,253.3901 Q170.8038,253.5396 170.0982,253.5396 Q167.5914,253.5396 166.2715,251.8877 Q164.9517,250.2358 164.9517,247.1147 Q164.9517,243.9854 166.2715,242.3335 Q167.5914,240.6816 170.0982,240.6816 Q170.8038,240.6816 171.4512,240.8311 Q172.0987,240.9805 172.6631,241.2793 L172.6631,244.002 Q172.0323,243.4209 171.4388,243.1511 Q170.8453,242.8813 170.2144,242.8813 Q168.8697,242.8813 168.1849,243.948 Q167.5001,245.0146 167.5001,247.1147 Q167.5001,249.2065 168.1849,250.2732 Q168.8697,251.3398 170.2144,251.3398 Q170.8453,251.3398 171.4388,251.0701 Q172.0323,250.8003 172.6631,250.2192 Z " fill="#000000"/><text fill="#000000" font-family="sans-serif" font-size="12" font-style="italic" lengthAdjust="spacing" textLength="56.5605" x="185.0821" y="243.0898">&#171;context&#187;</text><text fill="#000000" font-family="sans-serif" font-size="14" lengthAdjust="spacing" textLength="58.3447" x="184.19" y="259.1563">PlanItem</text><line style="stroke:#181818;stroke-width:0.5;" x1="156.19" x2="244.5347" y1="267.1094" y2="267.1094"/><line style="stroke:#181818;stroke-width:0.5;" x1="156.19" x2="244.5347" y1="275.1094" y2="275.1094"/></g><!--class C1--><g class="entity" data-qualified-name="C1" data-source-line="8" id="ent0003"><rect fill="#FFF8E1" height="56.6211" rx="2.5" ry="2.5" style="stroke:#181818;stroke-width:0.5;" width="84.5605" x="158.09" y="44.4883"/><ellipse cx="173.09" cy="64.7988" fill="#ADD1B2" rx="11" ry="11" style="stroke:#181818;stroke-width:1;"/><path d="M175.5631,70.9419 Q174.9821,71.2407 174.3429,71.3901 Q173.7038,71.5396 172.9982,71.5396 Q170.4914,71.5396 169.1715,69.8877 Q167.8517,68.2358 167.8517,65.1147 Q167.8517,61.9854 169.1715,60.3335 Q170.4914,58.6816 172.9982,58.6816 Q173.7038,58.6816 174.3512,58.8311 Q174.9987,58.9805 175.5631,59.2793 L175.5631,62.002 Q174.9323,61.4209 174.3388,61.1511 Q173.7453,60.8813 173.1144,60.8813 Q171.7697,60.8813 171.0849,61.948 Q170.4001,63.0146 170.4001,65.1147 Q170.4001,67.2065 171.0849,68.2732 Q171.7697,69.3398 173.1144,69.3398 Q173.7453,69.3398 174.3388,69.0701 Q174.9323,68.8003 175.5631,68.2192 Z " fill="#000000"/><text fill="#000000" font-family="sans-serif" font-size="12" font-style="italic" lengthAdjust="spacing" textLength="56.5605" x="185.09" y="61.0898">&#171;context&#187;</text><text fill="#000000" font-family="sans-serif" font-size="14" lengthAdjust="spacing" textLength="30.7754" x="197.9826" y="77.1563">Brief</text><line style="stroke:#181818;stroke-width:0.5;" x1="159.09" x2="241.6505" y1="85.1094" y2="85.1094"/><line style="stroke:#181818;stroke-width:0.5;" x1="159.09" x2="241.6505" y1="93.1094" y2="93.1094"/></g><!--entity D0--><g class="entity" data-qualified-name="D0" data-source-line="9" id="ent0004"><rect fill="#E3F2FD" height="52.9766" rx="2.5" ry="2.5" style="stroke:#181818;stroke-width:0.5;" width="148.2559" x="713.73" y="228.3083"/><text fill="#000000" font-family="sans-serif" font-size="14" font-style="italic" lengthAdjust="spacing" textLength="65.6182" x="755.0488" y="251.8434">&#171;domain&#187;</text><text fill="#000000" font-family="sans-serif" font-size="14" lengthAdjust="spacing" textLength="128.2559" x="723.73" y="268.3317">DOM-PLAN-SCOPE</text></g><!--entity D1--><g class="entity" data-qualified-name="D1" data-source-line="10" id="ent0005"><rect fill="#E3F2FD" height="52.9766" rx="2.5" ry="2.5" style="stroke:#181818;stroke-width:0.5;" width="97.5537" x="739.08" y="46.3083"/><text fill="#000000" font-family="sans-serif" font-size="14" font-style="italic" lengthAdjust="spacing" textLength="65.6182" x="755.0478" y="69.8434">&#171;domain&#187;</text><text fill="#000000" font-family="sans-serif" font-size="14" lengthAdjust="spacing" textLength="77.5537" x="749.08" y="86.3317">DOM-BRIEF</text></g><g class="entity" data-qualified-name="GMN6" data-source-line="12" id="ent0007"><path d="M6,318.2183 L6,435.3921 A0,0 0 0 0 6,435.3921 L394.7324,435.3921 A0,0 0 0 0 394.7324,435.3921 L394.7324,328.2183 L384.7324,318.2183 L204.37,318.2183 L200.37,283.5183 L196.37,318.2183 L6,318.2183 A0,0 0 0 0 6,318.2183" fill="#FEFFDD" style="stroke:#181818;stroke-width:0.5;"/><path d="M384.7324,318.2183 L384.7324,328.2183 L394.7324,328.2183 L384.7324,318.2183" fill="#FEFFDD" style="stroke:#181818;stroke-width:0.5;"/><text fill="#000000" font-family="sans-serif" font-size="13" lengthAdjust="spacing" textLength="204.8262" x="12" y="335.7866">OCL-KICKOFF-SCOPE-IDS-EXIST</text><text fill="#000000" font-family="sans-serif" font-size="13" lengthAdjust="spacing" textLength="18.5542" x="12" y="351.0972">inv</text><text fill="#000000" font-family="sans-serif" font-size="13" lengthAdjust="spacing" textLength="4.1133" x="30.5542" y="351.0972">&#160;</text><text fill="#000000" font-family="sans-serif" font-size="13" lengthAdjust="spacing" textLength="107.542" x="34.6675" y="351.0972">ScopeIdsResolve:</text><text fill="#000000" font-family="sans-serif" font-size="13" lengthAdjust="spacing" textLength="8.2266" x="12" y="366.4077">&#160;&#160;</text><text fill="#000000" font-family="sans-serif" font-size="13" lengthAdjust="spacing" textLength="131.8091" x="20.2266" y="366.4077">self.scope-&gt;forAll(id</text><text fill="#000000" font-family="sans-serif" font-size="13" lengthAdjust="spacing" textLength="4.1133" x="152.0356" y="366.4077">&#160;</text><text fill="#000000" font-family="sans-serif" font-size="13" lengthAdjust="spacing" textLength="4.856" x="156.1489" y="366.4077">|</text><text fill="#000000" font-family="sans-serif" font-size="13" lengthAdjust="spacing" textLength="4.1133" x="161.0049" y="366.4077">&#160;</text><text fill="#000000" font-family="sans-serif" font-size="13" lengthAdjust="spacing" textLength="214.6143" x="165.1182" y="366.4077">ObjectiveModel.ids-&gt;includes(id))</text><text fill="#000000" font-family="sans-serif" font-size="13" lengthAdjust="spacing" textLength="257.5879" x="12" y="381.7183">OCL-KICKOFF-PLAN-COVERS-OBJECTIVE</text><text fill="#000000" font-family="sans-serif" font-size="13" lengthAdjust="spacing" textLength="18.5542" x="12" y="397.0288">inv</text><text fill="#000000" font-family="sans-serif" font-size="13" lengthAdjust="spacing" textLength="4.1133" x="30.5542" y="397.0288">&#160;</text><text fill="#000000" font-family="sans-serif" font-size="13" lengthAdjust="spacing" textLength="179.6958" x="34.6675" y="397.0288">ScopeUnionCoversObjective:</text><text fill="#000000" font-family="sans-serif" font-size="13" lengthAdjust="spacing" textLength="8.2266" x="12" y="412.3394">&#160;&#160;</text><text fill="#000000" font-family="sans-serif" font-size="13" lengthAdjust="spacing" textLength="290.0879" x="20.2266" y="412.3394">ObjectiveModel.implementableIds-&gt;forAll(oid</text><text fill="#000000" font-family="sans-serif" font-size="13" lengthAdjust="spacing" textLength="4.1133" x="310.3145" y="412.3394">&#160;</text><text fill="#000000" font-family="sans-serif" font-size="13" lengthAdjust="spacing" textLength="4.856" x="314.4277" y="412.3394">|</text><text fill="#000000" font-family="sans-serif" font-size="13" lengthAdjust="spacing" textLength="16.4531" x="12" y="427.6499">&#160;&#160;&#160;&#160;</text><text fill="#000000" font-family="sans-serif" font-size="13" lengthAdjust="spacing" textLength="343.3765" x="28.4531" y="427.6499">PlanItem.allInstances().scope-&gt;asSet()-&gt;includes(oid))</text></g><g class="entity" data-qualified-name="GMN9" data-source-line="21" id="ent0010"><path d="M82.92,135.8383 L82.92,191.7699 A0,0 0 0 0 82.92,191.7699 L317.8106,191.7699 A0,0 0 0 0 317.8106,191.7699 L317.8106,145.8383 L307.8106,135.8383 L204.37,135.8383 L200.37,101.1483 L196.37,135.8383 L82.92,135.8383 A0,0 0 0 0 82.92,135.8383" fill="#FEFFDD" style="stroke:#181818;stroke-width:0.5;"/><path d="M307.8106,135.8383 L307.8106,145.8383 L317.8106,145.8383 L307.8106,135.8383" fill="#FEFFDD" style="stroke:#181818;stroke-width:0.5;"/><text fill="#000000" font-family="sans-serif" font-size="13" lengthAdjust="spacing" textLength="213.8906" x="88.92" y="153.4066">OCL-KICKOFF-BRIEF-SIGNED-OFF</text><text fill="#000000" font-family="sans-serif" font-size="13" lengthAdjust="spacing" textLength="18.5542" x="88.92" y="168.7172">inv</text><text fill="#000000" font-family="sans-serif" font-size="13" lengthAdjust="spacing" textLength="4.1133" x="107.4742" y="168.7172">&#160;</text><text fill="#000000" font-family="sans-serif" font-size="13" lengthAdjust="spacing" textLength="144.5425" x="111.5875" y="168.7172">SignedOffBeforeModel:</text><text fill="#000000" font-family="sans-serif" font-size="13" lengthAdjust="spacing" textLength="8.2266" x="88.92" y="184.0277">&#160;&#160;</text><text fill="#000000" font-family="sans-serif" font-size="13" lengthAdjust="spacing" textLength="88.1626" x="97.1466" y="184.0277">self.signedOff</text></g><!--link C0 to D0--><g class="link" data-entity-1="ent0002" data-entity-2="ent0004" data-link-type="dependency" data-source-line="25" id="lnk12"><path codeLine="25" d="M245.85,254.7983 C346.06,254.7983 584.28,254.7983 707.37,254.7983" fill="none" id="C0-to-D0" style="stroke:#181818;stroke-width:1;stroke-dasharray:7,7;"/><polygon fill="#181818" points="713.37,254.7983,704.37,250.7983,708.37,254.7983,704.37,258.7983,713.37,254.7983" style="stroke:#181818;stroke-width:1;"/><text fill="#000000" font-family="sans-serif" font-size="13" lengthAdjust="spacing" textLength="204.8262" x="452.23" y="251.3666">OCL-KICKOFF-SCOPE-IDS-EXIST</text></g><!--link C0 to D0--><g class="link" data-entity-1="ent0002" data-entity-2="ent0004" data-link-type="dependency" data-source-line="26" id="lnk13"><path codeLine="26" d="M245.76,262.1383 C330.97,275.1083 523.24,298.9783 683.73,279.7983 C693.43,278.6383 697.653,278.0969 707.573,276.0569" fill="none" id="C0-to-D0-1" style="stroke:#181818;stroke-width:1;stroke-dasharray:7,7;"/><polygon fill="#181818" points="713.45,274.8483,703.8288,272.7431,708.5525,275.8554,705.4402,280.5792,713.45,274.8483" style="stroke:#181818;stroke-width:1;"/><text fill="#000000" font-family="sans-serif" font-size="13" lengthAdjust="spacing" textLength="257.5879" x="425.73" y="276.3666">OCL-KICKOFF-PLAN-COVERS-OBJECTIVE</text></g><!--link C1 to D1--><g class="link" data-entity-1="ent0003" data-entity-2="ent0005" data-link-type="dependency" data-source-line="27" id="lnk14"><path codeLine="27" d="M243,72.7983 C348.68,72.7983 620.83,72.7983 732.98,72.7983" fill="none" id="C1-to-D1" style="stroke:#181818;stroke-width:1;stroke-dasharray:7,7;"/><polygon fill="#181818" points="738.98,72.7983,729.98,68.7983,733.98,72.7983,729.98,76.7983,738.98,72.7983" style="stroke:#181818;stroke-width:1;"/><text fill="#000000" font-family="sans-serif" font-size="13" lengthAdjust="spacing" textLength="213.8906" x="447.73" y="69.3666">OCL-KICKOFF-BRIEF-SIGNED-OFF</text></g><?plantuml-src VP9DRjim48NtFiN0tSGB2b7RHH040gA_GisF32jDkwN5aSAQuXWYusJHHG_H4_OafIJ8LUMsMyxZpFVU35UANXhvAdMziD8gX3owXPAqiIsNsXhu-Vq7x6IvewfQAAmiM89MrayMX6onj9BqmkoatlEMD_3IylrdAUmJlByudxoNYXiJyd9Nj_IiHKIAMdYJfkb5uazaNKEkQuKdqkHT-ZQD5tqVMAuLrvd5PWdSG7GELrSEsUAh3O9H4hOIgw7k_r4_pe1bdD-nzUtrFIkYV9tquhXh9gXnva-ruIPBqa7cJsMQBCAMhAK6g7902-XoP3TPT9EdwT2UPN71aYzPyU2gKX-WA6cFcJ0RDAGEUEcU0GogoZDTXGKLjTTAdKa1to3VVkt2Fk0T2LIU58O5KfVgMQ1nYjLgDhAt5UMFoQPWUVWnYHwonsGw-9DsculeWAqvzXuGvgEQlS86jULRrU4UkQW3wty0Z0lnk5APEnwkIyUr6frmKw0zMqsGgMT6BQ0BxoH1VsQdJvuLsOVx96RkONGYQuqYhweG7TG0FCrnBFyUv8x5yu9kpPV_NT6_T7_FrPrOh_PdwZdsBm00?></g></svg>