<svg xmlns="http://www.w3.org/2000/svg" xmlns:xlink="http://www.w3.org/1999/xlink" contentStyleType="text/css" data-diagram-type="CLASS" height="268px" preserveAspectRatio="none" style="width:858px;height:268px;background:#FFFFFF;" version="1.1" viewBox="0 0 858 268" width="858px" zoomAndPan="magnify"><?plantuml 1.2026.3?><defs/><g><g class="title" data-source-line="2"><text fill="#000000" font-family="sans-serif" font-size="14" font-weight="700" lengthAdjust="spacing" textLength="243.7217" x="303.961" y="23.5352">OCL constraints &#8212; render-engine</text></g><!--class C0--><g class="entity" data-qualified-name="C0" data-source-line="7" id="ent0002"><rect fill="#FFF8E1" height="56.6211" rx="2.5" ry="2.5" style="stroke:#181818;stroke-width:0.5;" width="125.2217" x="154.04" y="44.4883"/><ellipse cx="169.04" cy="64.7988" fill="#ADD1B2" rx="11" ry="11" style="stroke:#181818;stroke-width:1;"/><path d="M171.5131,70.9419 Q170.9321,71.2407 170.2929,71.3901 Q169.6538,71.5396 168.9482,71.5396 Q166.4414,71.5396 165.1215,69.8877 Q163.8017,68.2358 163.8017,65.1147 Q163.8017,61.9854 165.1215,60.3335 Q166.4414,58.6816 168.9482,58.6816 Q169.6538,58.6816 170.3012,58.8311 Q170.9487,58.9805 171.5131,59.2793 L171.5131,62.002 Q170.8823,61.4209 170.2888,61.1511 Q169.6953,60.8813 169.0644,60.8813 Q167.7197,60.8813 167.0349,61.948 Q166.3501,63.0146 166.3501,65.1147 Q166.3501,67.2065 167.0349,68.2732 Q167.7197,69.3398 169.0644,69.3398 Q169.6953,69.3398 170.2888,69.0701 Q170.8823,68.8003 171.5131,68.2192 Z " fill="#000000"/><text fill="#000000" font-family="sans-serif" font-size="12" font-style="italic" lengthAdjust="spacing" textLength="56.5605" x="201.3706" y="61.0898">&#171;context&#187;</text><text fill="#000000" font-family="sans-serif" font-size="14" lengthAdjust="spacing" textLength="93.2217" x="183.04" y="77.1563">RenderEngine</text><line style="stroke:#181818;stroke-width:0.5;" x1="155.04" x2="278.2617" y1="85.1094" y2="85.1094"/><line style="stroke:#181818;stroke-width:0.5;" x1="155.04" x2="278.2617" y1="93.1094" y2="93.1094"/></g><!--entity D0--><g class="entity" data-qualified-name="D0" data-source-line="8" id="ent0003"><rect fill="#E3F2FD" height="52.9766" rx="2.5" ry="2.5" style="stroke:#181818;stroke-width:0.5;" width="173.3438" x="671.3" y="47.3083"/><text fill="#000000" font-family="sans-serif" font-size="14" font-style="italic" lengthAdjust="spacing" textLength="65.6182" x="725.1628" y="70.8434">&#171;domain&#187;</text><text fill="#000000" font-family="sans-serif" font-size="14" lengthAdjust="spacing" textLength="153.3438" x="681.3" y="87.3317">DOM-RENDER-ENGINE</text></g><g class="entity" data-qualified-name="GMN4" data-source-line="10" id="ent0005"><path d="M6,136.2183 L6,253.3921 A0,0 0 0 0 6,253.3921 L427.3022,253.3921 A0,0 0 0 0 427.3022,253.3921 L427.3022,146.2183 L417.3022,136.2183 L220.65,136.2183 L216.65,101.5183 L212.65,136.2183 L6,136.2183 A0,0 0 0 0 6,136.2183" fill="#FEFFDD" style="stroke:#181818;stroke-width:0.5;"/><path d="M417.3022,136.2183 L417.3022,146.2183 L427.3022,146.2183 L417.3022,136.2183" fill="#FEFFDD" style="stroke:#181818;stroke-width:0.5;"/><text fill="#000000" font-family="sans-serif" font-size="13" lengthAdjust="spacing" textLength="173.437" x="12" y="153.7866">OCL-RENDER-TREE-PARITY</text><text fill="#000000" font-family="sans-serif" font-size="13" lengthAdjust="spacing" textLength="18.5542" x="12" y="169.0972">inv</text><text fill="#000000" font-family="sans-serif" font-size="13" lengthAdjust="spacing" textLength="4.1133" x="30.5542" y="169.0972">&#160;</text><text fill="#000000" font-family="sans-serif" font-size="13" lengthAdjust="spacing" textLength="197.8564" x="34.6675" y="169.0972">RenderedTreesAreProjectTrees:</text><text fill="#000000" font-family="sans-serif" font-size="13" lengthAdjust="spacing" textLength="8.2266" x="12" y="184.4077">&#160;&#160;</text><text fill="#000000" font-family="sans-serif" font-size="13" lengthAdjust="spacing" textLength="117.9712" x="20.2266" y="184.4077">self.renderedTrees</text><text fill="#000000" font-family="sans-serif" font-size="13" lengthAdjust="spacing" textLength="4.1133" x="138.1978" y="184.4077">&#160;</text><text fill="#000000" font-family="sans-serif" font-size="13" lengthAdjust="spacing" textLength="10.334" x="142.311" y="184.4077">=</text><text fill="#000000" font-family="sans-serif" font-size="13" lengthAdjust="spacing" textLength="4.1133" x="152.645" y="184.4077">&#160;</text><text fill="#000000" font-family="sans-serif" font-size="13" lengthAdjust="spacing" textLength="185.0342" x="156.7583" y="184.4077">self.project.enumeratedTrees</text><text fill="#000000" font-family="sans-serif" font-size="13" lengthAdjust="spacing" textLength="182.0952" x="12" y="199.7183">OCL-RENDER-PATH-MIRROR</text><text fill="#000000" font-family="sans-serif" font-size="13" lengthAdjust="spacing" textLength="18.5542" x="12" y="215.0288">inv</text><text fill="#000000" font-family="sans-serif" font-size="13" lengthAdjust="spacing" textLength="4.1133" x="30.5542" y="215.0288">&#160;</text><text fill="#000000" font-family="sans-serif" font-size="13" lengthAdjust="spacing" textLength="178.9087" x="34.6675" y="215.0288">RenderedPathMirrorsSource:</text><text fill="#000000" font-family="sans-serif" font-size="13" lengthAdjust="spacing" textLength="8.2266" x="12" y="230.3394">&#160;&#160;</text><text fill="#000000" font-family="sans-serif" font-size="13" lengthAdjust="spacing" textLength="146.7832" x="20.2266" y="230.3394">self.sources()-&gt;forAll(s</text><text fill="#000000" font-family="sans-serif" font-size="13" lengthAdjust="spacing" textLength="4.1133" x="167.0098" y="230.3394">&#160;</text><text fill="#000000" font-family="sans-serif" font-size="13" lengthAdjust="spacing" textLength="4.856" x="171.123" y="230.3394">|</text><text fill="#000000" font-family="sans-serif" font-size="13" lengthAdjust="spacing" textLength="16.4531" x="12" y="245.6499">&#160;&#160;&#160;&#160;</text><text fill="#000000" font-family="sans-serif" font-size="13" lengthAdjust="spacing" textLength="140.5752" x="28.4531" y="245.6499">self.renderedPathOf(s)</text><text fill="#000000" font-family="sans-serif" font-size="13" lengthAdjust="spacing" textLength="4.1133" x="169.0283" y="245.6499">&#160;</text><text fill="#000000" font-family="sans-serif" font-size="13" lengthAdjust="spacing" textLength="10.334" x="173.1416" y="245.6499">=</text><text fill="#000000" font-family="sans-serif" font-size="13" lengthAdjust="spacing" textLength="4.1133" x="183.4756" y="245.6499">&#160;</text><text fill="#000000" font-family="sans-serif" font-size="13" lengthAdjust="spacing" textLength="224.7134" x="187.5889" y="245.6499">s.path.mirrorUnderRendered('.svg'))</text></g><!--link C0 to D0--><g class="link" data-entity-1="ent0002" data-entity-2="ent0003" data-link-type="dependency" data-source-line="18" id="lnk7"><path codeLine="18" d="M279.52,72.9183 C375.8,73.0983 555.77,73.4273 665.03,73.6273" fill="none" id="C0-to-D0" style="stroke:#181818;stroke-width:1;stroke-dasharray:7,7;"/><polygon fill="#181818" points="671.03,73.6383,662.0373,69.6218,666.03,73.6291,662.0227,77.6218,671.03,73.6383" style="stroke:#181818;stroke-width:1;"/><text fill="#000000" font-family="sans-serif" font-size="13" lengthAdjust="spacing" textLength="173.437" x="462.8" y="69.8366">OCL-RENDER-TREE-PARITY</text></g><!--link C0 to D0--><g class="link" data-entity-1="ent0002" data-entity-2="ent0003" data-link-type="dependency" data-source-line="19" id="lnk8"><path codeLine="19" d="M279.54,83.0783 C362.19,95.3183 513.08,112.4983 641.3,98.7983 C651.01,97.7683 655.182,97.295 665.172,95.525" fill="none" id="C0-to-D0-1" style="stroke:#181818;stroke-width:1;stroke-dasharray:7,7;"/><polygon fill="#181818" points="671.08,94.4783,661.5202,92.1098,666.1567,95.3506,662.9159,99.9871,671.08,94.4783" style="stroke:#181818;stroke-width:1;"/><text fill="#000000" font-family="sans-serif" font-size="13" lengthAdjust="spacing" textLength="182.0952" x="458.3" y="95.3666">OCL-RENDER-PATH-MIRROR</text></g><?plantuml-src TP3BJiCm44Nt-OfHMRHT92gF1QfAfT8wK8a-588GIvDCKbF7hiRkOy62Z-0B-HASbA9GrALdZk-zSxcKUbk8dL2vPuML2BFX0oHQ6KjSA6lWw-CJ25MAvAFAXK9FOcR1QY2HBooaWZ2nGYlFB8LQSU85R8cldaLg5t1rtQdD4ycDkUN9CYUzLkbGIqrm5eRXDJklOQKWLxd4VoYx32_2aLVfG2EgOh4gLGEuWM47UZqNtkBEzllUhmuqHhE97x7fY4K-czwDfwpYHoMVwi9Twd2bBSAhjbONe3Cdva7Pnk5V737cpmVHE7vn2w4siFV7D2P4Co2SatvpbjMpwnW0Wp8Bg8x1pNwushC1gdM1nEtF-g_bV13V-vDn5CsY8yivjuk98D9a7lMQ4gpvcMfWMcs_dsaQIDaoy5wjZmAL8hEiPTfbg63bNa5HQJwL-uDLgncOJTvijpqtWB8ap_KS1FsolkwfXauWjOk-0G00?></g></svg>