<svg xmlns="http://www.w3.org/2000/svg" xmlns:xlink="http://www.w3.org/1999/xlink" contentStyleType="text/css" data-diagram-type="CLASS" height="284px" preserveAspectRatio="none" style="width:883px;height:284px;background:#FFFFFF;" version="1.1" viewBox="0 0 883 284" width="883px" zoomAndPan="magnify"><?plantuml 1.2026.3?><defs/><g><g class="title" data-source-line="2"><text fill="#000000" font-family="sans-serif" font-size="14" font-weight="700" lengthAdjust="spacing" textLength="246.3057" x="315.3071" y="23.5352">OCL constraints &#8212; scoped-review</text></g><!--class C0--><g class="entity" data-qualified-name="C0" data-source-line="7" id="ent0002"><rect fill="#FFF8E1" height="56.6211" rx="2.5" ry="2.5" style="stroke:#181818;stroke-width:0.5;" width="84.5605" x="173.85" y="44.4883"/><ellipse cx="188.85" cy="64.7988" fill="#ADD1B2" rx="11" ry="11" style="stroke:#181818;stroke-width:1;"/><path d="M191.3231,70.9419 Q190.7421,71.2407 190.1029,71.3901 Q189.4638,71.5396 188.7582,71.5396 Q186.2514,71.5396 184.9315,69.8877 Q183.6117,68.2358 183.6117,65.1147 Q183.6117,61.9854 184.9315,60.3335 Q186.2514,58.6816 188.7582,58.6816 Q189.4638,58.6816 190.1112,58.8311 Q190.7587,58.9805 191.3231,59.2793 L191.3231,62.002 Q190.6923,61.4209 190.0988,61.1511 Q189.5053,60.8813 188.8744,60.8813 Q187.5297,60.8813 186.8449,61.948 Q186.1601,63.0146 186.1601,65.1147 Q186.1601,67.2065 186.8449,68.2732 Q187.5297,69.3398 188.8744,69.3398 Q189.5053,69.3398 190.0988,69.0701 Q190.6923,68.8003 191.3231,68.2192 Z " fill="#000000"/><text fill="#000000" font-family="sans-serif" font-size="12" font-style="italic" lengthAdjust="spacing" textLength="56.5605" x="200.85" y="61.0898">&#171;context&#187;</text><text fill="#000000" font-family="sans-serif" font-size="14" lengthAdjust="spacing" textLength="36.0186" x="211.121" y="77.1563">Cycle</text><line style="stroke:#181818;stroke-width:0.5;" x1="174.85" x2="257.4105" y1="85.1094" y2="85.1094"/><line style="stroke:#181818;stroke-width:0.5;" x1="174.85" x2="257.4105" y1="93.1094" y2="93.1094"/></g><!--entity D0--><g class="entity" data-qualified-name="D0" data-source-line="8" id="ent0003"><rect fill="#E3F2FD" height="52.9766" rx="2.5" ry="2.5" style="stroke:#181818;stroke-width:0.5;" width="104.6699" x="765.25" y="47.3083"/><text fill="#000000" font-family="sans-serif" font-size="14" font-style="italic" lengthAdjust="spacing" textLength="65.6182" x="784.7759" y="70.8434">&#171;domain&#187;</text><text fill="#000000" font-family="sans-serif" font-size="14" lengthAdjust="spacing" textLength="84.6699" x="775.25" y="87.3317">DOM-CYCLE</text></g><g class="entity" data-qualified-name="GMN4" data-source-line="10" id="ent0005"><path d="M6,136.5583 L6,269.0427 A0,0 0 0 0 6,269.0427 L426.2549,269.0427 A0,0 0 0 0 426.2549,269.0427 L426.2549,146.5583 L416.2549,136.5583 L220.13,136.5583 L216.13,101.5583 L212.13,136.5583 L6,136.5583 A0,0 0 0 0 6,136.5583" fill="#FEFFDD" style="stroke:#181818;stroke-width:0.5;"/><path d="M416.2549,136.5583 L416.2549,146.5583 L426.2549,146.5583 L416.2549,136.5583" fill="#FEFFDD" style="stroke:#181818;stroke-width:0.5;"/><text fill="#000000" font-family="sans-serif" font-size="13" lengthAdjust="spacing" textLength="277.6338" x="12" y="154.1266">OCL-REVIEW-SCOPE-SUBSET-OF-OBJECTIVE</text><text fill="#000000" font-family="sans-serif" font-size="13" lengthAdjust="spacing" textLength="18.5542" x="12" y="169.4372">inv</text><text fill="#000000" font-family="sans-serif" font-size="13" lengthAdjust="spacing" textLength="4.1133" x="30.5542" y="169.4372">&#160;</text><text fill="#000000" font-family="sans-serif" font-size="13" lengthAdjust="spacing" textLength="156.7744" x="34.6675" y="169.4372">ScopeSubsetOfObjective:</text><text fill="#000000" font-family="sans-serif" font-size="13" lengthAdjust="spacing" textLength="8.2266" x="12" y="184.7477">&#160;&#160;</text><text fill="#000000" font-family="sans-serif" font-size="13" lengthAdjust="spacing" textLength="131.8091" x="20.2266" y="184.7477">self.scope-&gt;forAll(id</text><text fill="#000000" font-family="sans-serif" font-size="13" lengthAdjust="spacing" textLength="4.1133" x="152.0356" y="184.7477">&#160;</text><text fill="#000000" font-family="sans-serif" font-size="13" lengthAdjust="spacing" textLength="4.856" x="156.1489" y="184.7477">|</text><text fill="#000000" font-family="sans-serif" font-size="13" lengthAdjust="spacing" textLength="4.1133" x="161.0049" y="184.7477">&#160;</text><text fill="#000000" font-family="sans-serif" font-size="13" lengthAdjust="spacing" textLength="214.6143" x="165.1182" y="184.7477">ObjectiveModel.ids-&gt;includes(id))</text><text fill="#000000" font-family="sans-serif" font-size="13" lengthAdjust="spacing" textLength="252.1797" x="12" y="200.0583">OCL-REVIEW-WHOLE-PARITY-AT-DONE</text><text fill="#000000" font-family="sans-serif" font-size="13" lengthAdjust="spacing" textLength="18.5542" x="12" y="215.3688">inv</text><text fill="#000000" font-family="sans-serif" font-size="13" lengthAdjust="spacing" textLength="4.1133" x="30.5542" y="215.3688">&#160;</text><text fill="#000000" font-family="sans-serif" font-size="13" lengthAdjust="spacing" textLength="244.48" x="34.6675" y="215.3688">ClosedSlicesCoverObjectiveWhenDone:</text><text fill="#000000" font-family="sans-serif" font-size="13" lengthAdjust="spacing" textLength="8.2266" x="12" y="230.6794">&#160;&#160;</text><text fill="#000000" font-family="sans-serif" font-size="13" lengthAdjust="spacing" textLength="183.0981" x="20.2266" y="230.6794">Cycle.allInstances()-&gt;forAll(c</text><text fill="#000000" font-family="sans-serif" font-size="13" lengthAdjust="spacing" textLength="4.1133" x="203.3247" y="230.6794">&#160;</text><text fill="#000000" font-family="sans-serif" font-size="13" lengthAdjust="spacing" textLength="4.856" x="207.438" y="230.6794">|</text><text fill="#000000" font-family="sans-serif" font-size="13" lengthAdjust="spacing" textLength="4.1133" x="212.2939" y="230.6794">&#160;</text><text fill="#000000" font-family="sans-serif" font-size="13" lengthAdjust="spacing" textLength="48.9976" x="216.4072" y="230.6794">c.status</text><text fill="#000000" font-family="sans-serif" font-size="13" lengthAdjust="spacing" textLength="4.1133" x="265.4048" y="230.6794">&#160;</text><text fill="#000000" font-family="sans-serif" font-size="13" lengthAdjust="spacing" textLength="10.334" x="269.5181" y="230.6794">=</text><text fill="#000000" font-family="sans-serif" font-size="13" lengthAdjust="spacing" textLength="4.1133" x="279.8521" y="230.6794">&#160;</text><text fill="#000000" font-family="sans-serif" font-size="13" lengthAdjust="spacing" textLength="127.2896" x="283.9653" y="230.6794">CycleStatus::Closed)</text><text fill="#000000" font-family="sans-serif" font-size="13" lengthAdjust="spacing" textLength="16.4531" x="12" y="245.9899">&#160;&#160;&#160;&#160;</text><text fill="#000000" font-family="sans-serif" font-size="13" lengthAdjust="spacing" textLength="45.4619" x="28.4531" y="245.9899">implies</text><text fill="#000000" font-family="sans-serif" font-size="13" lengthAdjust="spacing" textLength="4.1133" x="73.915" y="245.9899">&#160;</text><text fill="#000000" font-family="sans-serif" font-size="13" lengthAdjust="spacing" textLength="219.8193" x="78.0283" y="245.9899">Cycle.allInstances().scope-&gt;asSet()</text><text fill="#000000" font-family="sans-serif" font-size="13" lengthAdjust="spacing" textLength="57.5859" x="12" y="261.3005">&#160;&#160;&#160;&#160;&#160;&#160;&#160;&#160;&#160;&#160;&#160;&#160;&#160;&#160;</text><text fill="#000000" font-family="sans-serif" font-size="13" lengthAdjust="spacing" textLength="308.6675" x="69.5859" y="261.3005">-&gt;includesAll(ObjectiveModel.implementableIds)</text></g><!--link C0 to D0--><g class="link" data-entity-1="ent0002" data-entity-2="ent0003" data-link-type="dependency" data-source-line="19" id="lnk7"><path codeLine="19" d="M258.8,72.8683 C365.41,73.0483 641.82,73.5085 758.76,73.6985" fill="none" id="C0-to-D0" style="stroke:#181818;stroke-width:1;stroke-dasharray:7,7;"/><polygon fill="#181818" points="764.76,73.7083,755.7665,69.6937,759.76,73.7002,755.7535,77.6937,764.76,73.7083" style="stroke:#181818;stroke-width:1;"/><text fill="#000000" font-family="sans-serif" font-size="13" lengthAdjust="spacing" textLength="277.6338" x="457.25" y="69.7766">OCL-REVIEW-SCOPE-SUBSET-OF-OBJECTIVE</text></g><!--link C0 to D0--><g class="link" data-entity-1="ent0002" data-entity-2="ent0003" data-link-type="dependency" data-source-line="20" id="lnk8"><path codeLine="20" d="M258.71,80.4483 C347.02,95.4783 559.57,125.1883 735.25,98.7983 C745.04,97.3283 749.5055,96.5379 759.2855,93.7779" fill="none" id="C0-to-D0-1" style="stroke:#181818;stroke-width:1;stroke-dasharray:7,7;"/><polygon fill="#181818" points="765.06,92.1483,755.3119,90.743,760.2479,93.5063,757.4847,98.4423,765.06,92.1483" style="stroke:#181818;stroke-width:1;"/><text fill="#000000" font-family="sans-serif" font-size="13" lengthAdjust="spacing" textLength="252.1797" x="469.75" y="95.3666">OCL-REVIEW-WHOLE-PARITY-AT-DONE</text></g><?plantuml-src ZP5DRjim48NtEiN0tLWB2kdF8Z1I0JP5eIgSAeZS65dIvCXcGv46ITifa4KFqHFs9AMKsadR5AXs8Z--UVCUrzeUEdMlp3e9AcY4civ1MEE3uye43p--VGSlx1ObSRXNU4WqjW621QVMcm1IEHH1MPFuEsMstF4E3evlbqg63RmxFtjsBZJtViR5tThPdP7KQklWLLcMv-prCwmNv6QjyI-KlItVb4KowC28VXKQHy0zq3Euk8Yk0zw7F4zE0Z0gwaj2R-cS3LpHSz9sSRM86HiGLZO4su5jeqW2_VhacjrKR4aQMbynqdoUDMn1wfBKiu-CBgeR5Z5bzj3qgJIxbSTGj_NgIn_37YVn5i2ZRhCXDfAtrasr7Yi93t32Bgr4dIdfIQwCq3k9FX9f-hk5vOTwpiZLzBfQt9BfWXJrf-Dqggr7sMWbq5ExHtUINcxG5DRySZA4b76jgzWfDv4UfoTF8beIMJmFEm_l7zbc-9jC7WUaWqWSsMsrGl-Yt75HxXiCu-EBf-zfnNxcdn54OUpG1BxIM4cV9cWazDKaiTKio_lI9l_NopyUl9JYJm00?></g></svg>