<svg xmlns="http://www.w3.org/2000/svg" xmlns:xlink="http://www.w3.org/1999/xlink" contentStyleType="text/css" data-diagram-type="CLASS" height="586px" preserveAspectRatio="none" style="width:899px;height:586px;background:#FFFFFF;" version="1.1" viewBox="0 0 899 586" width="899px" zoomAndPan="magnify"><?plantuml 1.2026.3?><defs/><g><g class="title" data-source-line="2"><text fill="#000000" font-family="sans-serif" font-size="14" font-weight="700" lengthAdjust="spacing" textLength="272.4668" x="310.2286" y="23.5352">OCL constraints &#8212; session-bootstrap</text></g><!--class C0--><g class="entity" data-qualified-name="C0" data-source-line="7" id="ent0002"><rect fill="#FFF8E1" height="56.6211" rx="2.5" ry="2.5" style="stroke:#181818;stroke-width:0.5;" width="115.9043" x="181.49" y="424.4883"/><ellipse cx="196.49" cy="444.7988" fill="#ADD1B2" rx="11" ry="11" style="stroke:#181818;stroke-width:1;"/><path d="M198.9631,450.9419 Q198.3821,451.2407 197.7429,451.3901 Q197.1038,451.5396 196.3982,451.5396 Q193.8914,451.5396 192.5715,449.8877 Q191.2517,448.2358 191.2517,445.1147 Q191.2517,441.9854 192.5715,440.3335 Q193.8914,438.6816 196.3982,438.6816 Q197.1038,438.6816 197.7512,438.8311 Q198.3987,438.9805 198.9631,439.2793 L198.9631,442.002 Q198.3323,441.4209 197.7388,441.1511 Q197.1453,440.8813 196.5144,440.8813 Q195.1697,440.8813 194.4849,441.948 Q193.8001,443.0146 193.8001,445.1147 Q193.8001,447.2065 194.4849,448.2732 Q195.1697,449.3398 196.5144,449.3398 Q197.1453,449.3398 197.7388,449.0701 Q198.3323,448.8003 198.9631,448.2192 Z " fill="#000000"/><text fill="#000000" font-family="sans-serif" font-size="12" font-style="italic" lengthAdjust="spacing" textLength="56.5605" x="224.1619" y="441.0898">&#171;context&#187;</text><text fill="#000000" font-family="sans-serif" font-size="14" lengthAdjust="spacing" textLength="83.9043" x="210.49" y="457.1563">MapBaseline</text><line style="stroke:#181818;stroke-width:0.5;" x1="182.49" x2="296.3943" y1="465.1094" y2="465.1094"/><line style="stroke:#181818;stroke-width:0.5;" x1="182.49" x2="296.3943" y1="473.1094" y2="473.1094"/></g><!--class C1--><g class="entity" data-qualified-name="C1" data-source-line="8" id="ent0003"><rect fill="#FFF8E1" height="56.6211" rx="2.5" ry="2.5" style="stroke:#181818;stroke-width:0.5;" width="118.6182" x="180.13" y="226.4883"/><ellipse cx="195.13" cy="246.7988" fill="#ADD1B2" rx="11" ry="11" style="stroke:#181818;stroke-width:1;"/><path d="M197.6031,252.9419 Q197.0221,253.2407 196.3829,253.3901 Q195.7438,253.5396 195.0382,253.5396 Q192.5314,253.5396 191.2115,251.8877 Q189.8917,250.2358 189.8917,247.1147 Q189.8917,243.9854 191.2115,242.3335 Q192.5314,240.6816 195.0382,240.6816 Q195.7438,240.6816 196.3912,240.8311 Q197.0387,240.9805 197.6031,241.2793 L197.6031,244.002 Q196.9723,243.4209 196.3788,243.1511 Q195.7853,242.8813 195.1544,242.8813 Q193.8097,242.8813 193.1249,243.948 Q192.4401,245.0146 192.4401,247.1147 Q192.4401,249.2065 193.1249,250.2732 Q193.8097,251.3398 195.1544,251.3398 Q195.7853,251.3398 196.3788,251.0701 Q196.9723,250.8003 197.6031,250.2192 Z " fill="#000000"/><text fill="#000000" font-family="sans-serif" font-size="12" font-style="italic" lengthAdjust="spacing" textLength="56.5605" x="224.1588" y="243.0898">&#171;context&#187;</text><text fill="#000000" font-family="sans-serif" font-size="14" lengthAdjust="spacing" textLength="86.6182" x="209.13" y="259.1563">SessionHook</text><line style="stroke:#181818;stroke-width:0.5;" x1="181.13" x2="297.7482" y1="267.1094" y2="267.1094"/><line style="stroke:#181818;stroke-width:0.5;" x1="181.13" x2="297.7482" y1="275.1094" y2="275.1094"/></g><!--class C2--><g class="entity" data-qualified-name="C2" data-source-line="9" id="ent0004"><rect fill="#FFF8E1" height="56.6211" rx="2.5" ry="2.5" style="stroke:#181818;stroke-width:0.5;" width="136.7813" x="171.05" y="44.4883"/><ellipse cx="186.05" cy="64.7988" fill="#ADD1B2" rx="11" ry="11" style="stroke:#181818;stroke-width:1;"/><path d="M188.5231,70.9419 Q187.9421,71.2407 187.3029,71.3901 Q186.6638,71.5396 185.9582,71.5396 Q183.4514,71.5396 182.1315,69.8877 Q180.8117,68.2358 180.8117,65.1147 Q180.8117,61.9854 182.1315,60.3335 Q183.4514,58.6816 185.9582,58.6816 Q186.6638,58.6816 187.3112,58.8311 Q187.9587,58.9805 188.5231,59.2793 L188.5231,62.002 Q187.8923,61.4209 187.2988,61.1511 Q186.7053,60.8813 186.0744,60.8813 Q184.7297,60.8813 184.0449,61.948 Q183.3601,63.0146 183.3601,65.1147 Q183.3601,67.2065 184.0449,68.2732 Q184.7297,69.3398 186.0744,69.3398 Q186.7053,69.3398 187.2988,69.0701 Q187.8923,68.8003 188.5231,68.2192 Z " fill="#000000"/><text fill="#000000" font-family="sans-serif" font-size="12" font-style="italic" lengthAdjust="spacing" textLength="56.5605" x="224.1604" y="61.0898">&#171;context&#187;</text><text fill="#000000" font-family="sans-serif" font-size="14" lengthAdjust="spacing" textLength="104.7813" x="200.05" y="77.1563">SessionContext</text><line style="stroke:#181818;stroke-width:0.5;" x1="172.05" x2="306.8313" y1="85.1094" y2="85.1094"/><line style="stroke:#181818;stroke-width:0.5;" x1="172.05" x2="306.8313" y1="93.1094" y2="93.1094"/></g><!--entity D0--><g class="entity" data-qualified-name="D0" data-source-line="10" id="ent0005"><rect fill="#E3F2FD" height="52.9766" rx="2.5" ry="2.5" style="stroke:#181818;stroke-width:0.5;" width="161.3467" x="710.23" y="426.3183"/><text fill="#000000" font-family="sans-serif" font-size="14" font-style="italic" lengthAdjust="spacing" textLength="65.6182" x="758.0943" y="449.8534">&#171;domain&#187;</text><text fill="#000000" font-family="sans-serif" font-size="14" lengthAdjust="spacing" textLength="141.3467" x="720.23" y="466.3417">DOM-MAP-BASELINE</text></g><!--entity D1--><g class="entity" data-qualified-name="D1" data-source-line="11" id="ent0006"><rect fill="#E3F2FD" height="52.9766" rx="2.5" ry="2.5" style="stroke:#181818;stroke-width:0.5;" width="166.2617" x="707.78" y="228.3183"/><text fill="#000000" font-family="sans-serif" font-size="14" font-style="italic" lengthAdjust="spacing" textLength="65.6182" x="758.1018" y="251.8534">&#171;domain&#187;</text><text fill="#000000" font-family="sans-serif" font-size="14" lengthAdjust="spacing" textLength="146.2617" x="717.78" y="268.3417">DOM-SESSION-HOOK</text></g><!--entity D2--><g class="entity" data-qualified-name="D2" data-source-line="12" id="ent0007"><rect fill="#E3F2FD" height="52.9766" rx="2.5" ry="2.5" style="stroke:#181818;stroke-width:0.5;" width="190.0439" x="695.88" y="46.3183"/><text fill="#000000" font-family="sans-serif" font-size="14" font-style="italic" lengthAdjust="spacing" textLength="65.6182" x="758.0929" y="69.8534">&#171;domain&#187;</text><text fill="#000000" font-family="sans-serif" font-size="14" lengthAdjust="spacing" textLength="170.0439" x="705.88" y="86.3417">DOM-SESSION-CONTEXT</text></g><g class="entity" data-qualified-name="GMN8" data-source-line="14" id="ent0009"><path d="M6,515.8383 L6,571.7699 A0,0 0 0 0 6,571.7699 L472.8848,571.7699 A0,0 0 0 0 472.8848,571.7699 L472.8848,525.8383 L462.8848,515.8383 L243.44,515.8383 L239.44,481.1483 L235.44,515.8383 L6,515.8383 A0,0 0 0 0 6,515.8383" fill="#FEFFDD" style="stroke:#181818;stroke-width:0.5;"/><path d="M462.8848,515.8383 L462.8848,525.8383 L472.8848,525.8383 L462.8848,515.8383" fill="#FEFFDD" style="stroke:#181818;stroke-width:0.5;"/><text fill="#000000" font-family="sans-serif" font-size="13" lengthAdjust="spacing" textLength="160.7354" x="12" y="533.4066">OCL-BASELINE-RESOLVES</text><text fill="#000000" font-family="sans-serif" font-size="13" lengthAdjust="spacing" textLength="18.5542" x="12" y="548.7172">inv</text><text fill="#000000" font-family="sans-serif" font-size="13" lengthAdjust="spacing" textLength="4.1133" x="30.5542" y="548.7172">&#160;</text><text fill="#000000" font-family="sans-serif" font-size="13" lengthAdjust="spacing" textLength="210.3931" x="34.6675" y="548.7172">ResolvesToRealCommitOrAbsent:</text><text fill="#000000" font-family="sans-serif" font-size="13" lengthAdjust="spacing" textLength="8.2266" x="12" y="564.0277">&#160;&#160;</text><text fill="#000000" font-family="sans-serif" font-size="13" lengthAdjust="spacing" textLength="166.1245" x="20.2266" y="564.0277">self.resolve()-&gt;notEmpty()</text><text fill="#000000" font-family="sans-serif" font-size="13" lengthAdjust="spacing" textLength="4.1133" x="186.3511" y="564.0277">&#160;</text><text fill="#000000" font-family="sans-serif" font-size="13" lengthAdjust="spacing" textLength="45.4619" x="190.4644" y="564.0277">implies</text><text fill="#000000" font-family="sans-serif" font-size="13" lengthAdjust="spacing" textLength="4.1133" x="235.9263" y="564.0277">&#160;</text><text fill="#000000" font-family="sans-serif" font-size="13" lengthAdjust="spacing" textLength="217.8452" x="240.0396" y="564.0277">self.resolve().reachableFromHead()</text></g><g class="entity" data-qualified-name="GMN11" data-source-line="19" id="ent0012"><path d="M39.35,318.1783 L39.35,389.4205 A0,0 0 0 0 39.35,389.4205 L439.5399,389.4205 A0,0 0 0 0 439.5399,389.4205 L439.5399,328.1783 L429.5399,318.1783 L243.44,318.1783 L239.44,283.3683 L235.44,318.1783 L39.35,318.1783 A0,0 0 0 0 39.35,318.1783" fill="#FEFFDD" style="stroke:#181818;stroke-width:0.5;"/><path d="M429.5399,318.1783 L429.5399,328.1783 L439.5399,328.1783 L429.5399,318.1783" fill="#FEFFDD" style="stroke:#181818;stroke-width:0.5;"/><text fill="#000000" font-family="sans-serif" font-size="13" lengthAdjust="spacing" textLength="161.4082" x="45.35" y="335.7466">OCL-HOOK-IDEMPOTENT</text><text fill="#000000" font-family="sans-serif" font-size="13" lengthAdjust="spacing" textLength="18.5542" x="45.35" y="351.0572">inv</text><text fill="#000000" font-family="sans-serif" font-size="13" lengthAdjust="spacing" textLength="4.1133" x="63.9042" y="351.0572">&#160;</text><text fill="#000000" font-family="sans-serif" font-size="13" lengthAdjust="spacing" textLength="163.2681" x="68.0175" y="351.0572">AtMostOneManagedEntry:</text><text fill="#000000" font-family="sans-serif" font-size="13" lengthAdjust="spacing" textLength="8.2266" x="45.35" y="366.3677">&#160;&#160;</text><text fill="#000000" font-family="sans-serif" font-size="13" lengthAdjust="spacing" textLength="233.3145" x="53.5766" y="366.3677">SessionHook.allInstances()-&gt;select(h</text><text fill="#000000" font-family="sans-serif" font-size="13" lengthAdjust="spacing" textLength="4.1133" x="286.891" y="366.3677">&#160;</text><text fill="#000000" font-family="sans-serif" font-size="13" lengthAdjust="spacing" textLength="4.856" x="291.0043" y="366.3677">|</text><text fill="#000000" font-family="sans-serif" font-size="13" lengthAdjust="spacing" textLength="4.1133" x="295.8603" y="366.3677">&#160;</text><text fill="#000000" font-family="sans-serif" font-size="13" lengthAdjust="spacing" textLength="74.5278" x="299.9735" y="366.3677">h.command</text><text fill="#000000" font-family="sans-serif" font-size="13" lengthAdjust="spacing" textLength="4.1133" x="374.5014" y="366.3677">&#160;</text><text fill="#000000" font-family="sans-serif" font-size="13" lengthAdjust="spacing" textLength="10.334" x="378.6146" y="366.3677">=</text><text fill="#000000" font-family="sans-serif" font-size="13" lengthAdjust="spacing" textLength="4.1133" x="388.9486" y="366.3677">&#160;</text><text fill="#000000" font-family="sans-serif" font-size="13" lengthAdjust="spacing" textLength="31.478" x="393.0619" y="366.3677">'mdd</text><text fill="#000000" font-family="sans-serif" font-size="13" lengthAdjust="spacing" textLength="106.2471" x="45.35" y="381.6783">context')-&gt;size()</text><text fill="#000000" font-family="sans-serif" font-size="13" lengthAdjust="spacing" textLength="4.1133" x="151.5971" y="381.6783">&#160;</text><text fill="#000000" font-family="sans-serif" font-size="13" lengthAdjust="spacing" textLength="20.668" x="155.7104" y="381.6783">&lt;=</text><text fill="#000000" font-family="sans-serif" font-size="13" lengthAdjust="spacing" textLength="4.1133" x="176.3783" y="381.6783">&#160;</text><text fill="#000000" font-family="sans-serif" font-size="13" lengthAdjust="spacing" textLength="8.2202" x="180.4916" y="381.6783">1</text></g><g class="entity" data-qualified-name="GMN14" data-source-line="24" id="ent0015"><path d="M121.7,135.8383 L121.7,191.7699 A0,0 0 0 0 121.7,191.7699 L357.181,191.7699 A0,0 0 0 0 357.181,191.7699 L357.181,145.8383 L347.181,135.8383 L243.44,135.8383 L239.44,101.1483 L235.44,135.8383 L121.7,135.8383 A0,0 0 0 0 121.7,135.8383" fill="#FEFFDD" style="stroke:#181818;stroke-width:0.5;"/><path d="M347.181,135.8383 L347.181,145.8383 L357.181,145.8383 L347.181,135.8383" fill="#FEFFDD" style="stroke:#181818;stroke-width:0.5;"/><text fill="#000000" font-family="sans-serif" font-size="13" lengthAdjust="spacing" textLength="155.854" x="127.7" y="153.4066">OCL-CONTEXT-VERDICT</text><text fill="#000000" font-family="sans-serif" font-size="13" lengthAdjust="spacing" textLength="18.5542" x="127.7" y="168.7172">inv</text><text fill="#000000" font-family="sans-serif" font-size="13" lengthAdjust="spacing" textLength="4.1133" x="146.2542" y="168.7172">&#160;</text><text fill="#000000" font-family="sans-serif" font-size="13" lengthAdjust="spacing" textLength="97.6904" x="150.3675" y="168.7172">FreshIffNoDrift:</text><text fill="#000000" font-family="sans-serif" font-size="13" lengthAdjust="spacing" textLength="8.2266" x="127.7" y="184.0277">&#160;&#160;</text><text fill="#000000" font-family="sans-serif" font-size="13" lengthAdjust="spacing" textLength="58.5571" x="135.9266" y="184.0277">self.fresh</text><text fill="#000000" font-family="sans-serif" font-size="13" lengthAdjust="spacing" textLength="4.1133" x="194.4837" y="184.0277">&#160;</text><text fill="#000000" font-family="sans-serif" font-size="13" lengthAdjust="spacing" textLength="10.334" x="198.597" y="184.0277">=</text><text fill="#000000" font-family="sans-serif" font-size="13" lengthAdjust="spacing" textLength="4.1133" x="208.931" y="184.0277">&#160;</text><text fill="#000000" font-family="sans-serif" font-size="13" lengthAdjust="spacing" textLength="129.1367" x="213.0442" y="184.0277">self.drift-&gt;isEmpty()</text></g><!--link C0 to D0--><g class="link" data-entity-1="ent0002" data-entity-2="ent0005" data-link-type="dependency" data-source-line="28" id="lnk17"><path codeLine="28" d="M297.69,452.7983 C396.09,452.7983 591.53,452.7983 703.81,452.7983" fill="none" id="C0-to-D0" style="stroke:#181818;stroke-width:1;stroke-dasharray:7,7;"/><polygon fill="#181818" points="709.81,452.7983,700.81,448.7983,704.81,452.7983,700.81,456.7983,709.81,452.7983" style="stroke:#181818;stroke-width:1;"/><text fill="#000000" font-family="sans-serif" font-size="13" lengthAdjust="spacing" textLength="160.7354" x="504.38" y="449.3666">OCL-BASELINE-RESOLVES</text></g><!--link C1 to D1--><g class="link" data-entity-1="ent0003" data-entity-2="ent0006" data-link-type="dependency" data-source-line="29" id="lnk18"><path codeLine="29" d="M299.24,254.7983 C397.53,254.7983 589.4,254.7983 701.52,254.7983" fill="none" id="C1-to-D1" style="stroke:#181818;stroke-width:1;stroke-dasharray:7,7;"/><polygon fill="#181818" points="707.52,254.7983,698.52,250.7983,702.52,254.7983,698.52,258.7983,707.52,254.7983" style="stroke:#181818;stroke-width:1;"/><text fill="#000000" font-family="sans-serif" font-size="13" lengthAdjust="spacing" textLength="161.4082" x="503.88" y="251.3666">OCL-HOOK-IDEMPOTENT</text></g><!--link C2 to D2--><g class="link" data-entity-1="ent0004" data-entity-2="ent0007" data-link-type="dependency" data-source-line="30" id="lnk19"><path codeLine="30" d="M308.09,72.7983 C405.48,72.7983 579.56,72.7983 689.85,72.7983" fill="none" id="C2-to-D2" style="stroke:#181818;stroke-width:1;stroke-dasharray:7,7;"/><polygon fill="#181818" points="695.85,72.7983,686.85,68.7983,690.85,72.7983,686.85,76.7983,695.85,72.7983" style="stroke:#181818;stroke-width:1;"/><text fill="#000000" font-family="sans-serif" font-size="13" lengthAdjust="spacing" textLength="155.854" x="506.88" y="69.3666">OCL-CONTEXT-VERDICT</text></g><?plantuml-src ZPBTRjem583lynH7xA9m4TImNLGLHOB44T48gGXgTsiIXrWuFiZs-ZFrOW-n9zoJp2Pfoq2TTfVuVFRvpWyL0XyR_iJbrZFS20PPk802fJQAScaq_Fxv2pJJcgFqDuZ61VQUO9K1Ww3ujZPGSiKAOmbFxxZSKqKRUBJOFIzD3L-kBe_E2q6rdj5YjrNuNPOX2bJmAOxZAn8SOUv1AhU2dQ7aSpoA8-_m3lHIkfzHpGINh0TKGtW9ux7rD-p9J2QlLDuMC4VSjLJm3ofiprjmz1VuPWMzA4lzT7hhpwOvMIHBSi0Zbxt4nhRkdCv9dYVPqfzdsTUM3lw33hFbcdnRjnT6nnSa6WORD0ORmCfMxe6RtfkHlo9vjhWZkJtdyW5MJADuO7gDAqP5Y4t3JQQc6ysakROCs3cBQgXQh3_m9pO3QVRckJy0tkm5P_e4iL-qgEb6i5XXCsUqx0yy9ajmRcU2GIVe6k0d4KblipLPhZkzgKbHcqoob4gwPIMHHZstNaVZ6r8X4hkTL1PCEqShP1lNh-45wc5XYw8s_GrSD6K9tU0k7CP_M5yOtq3miU2e4-nwxj-HLPI4huAnBRjEgcg9aUBLSSig5x593p-b2_eJhhlMlQUpkpaSJjoIN7ymABkN1oBeYDDEsNKyn4TT_4Jq3m00?></g></svg>