<svg xmlns="http://www.w3.org/2000/svg" xmlns:xlink="http://www.w3.org/1999/xlink" contentStyleType="text/css" data-diagram-type="CLASS" height="284px" preserveAspectRatio="none" style="width:871px;height:284px;background:#FFFFFF;" version="1.1" viewBox="0 0 871 284" width="871px" zoomAndPan="magnify"><?plantuml 1.2026.3?><defs/><g><g class="title" data-source-line="2"><text fill="#000000" font-family="sans-serif" font-size="14" font-weight="700" lengthAdjust="spacing" textLength="216.1865" x="324.2869" y="23.5352">OCL constraints &#8212; viewer-ocl</text></g><!--class C0--><g class="entity" data-qualified-name="C0" data-source-line="7" id="ent0002"><rect fill="#FFF8E1" height="56.6211" rx="2.5" ry="2.5" style="stroke:#181818;stroke-width:0.5;" width="85.8809" x="176.74" y="44.4883"/><ellipse cx="191.74" cy="64.7988" fill="#ADD1B2" rx="11" ry="11" style="stroke:#181818;stroke-width:1;"/><path d="M194.2131,70.9419 Q193.6321,71.2407 192.9929,71.3901 Q192.3538,71.5396 191.6482,71.5396 Q189.1414,71.5396 187.8215,69.8877 Q186.5017,68.2358 186.5017,65.1147 Q186.5017,61.9854 187.8215,60.3335 Q189.1414,58.6816 191.6482,58.6816 Q192.3538,58.6816 193.0012,58.8311 Q193.6487,58.9805 194.2131,59.2793 L194.2131,62.002 Q193.5823,61.4209 192.9888,61.1511 Q192.3953,60.8813 191.7644,60.8813 Q190.4197,60.8813 189.7349,61.948 Q189.0501,63.0146 189.0501,65.1147 Q189.0501,67.2065 189.7349,68.2732 Q190.4197,69.3398 191.7644,69.3398 Q192.3953,69.3398 192.9888,69.0701 Q193.5823,68.8003 194.2131,68.2192 Z " fill="#000000"/><text fill="#000000" font-family="sans-serif" font-size="12" font-style="italic" lengthAdjust="spacing" textLength="56.5605" x="204.4002" y="61.0898">&#171;context&#187;</text><text fill="#000000" font-family="sans-serif" font-size="14" lengthAdjust="spacing" textLength="53.8809" x="205.74" y="77.1563">OclView</text><line style="stroke:#181818;stroke-width:0.5;" x1="177.74" x2="261.6209" y1="85.1094" y2="85.1094"/><line style="stroke:#181818;stroke-width:0.5;" x1="177.74" x2="261.6209" y1="93.1094" y2="93.1094"/></g><!--entity D0--><g class="entity" data-qualified-name="D0" data-source-line="8" id="ent0003"><rect fill="#E3F2FD" height="52.9766" rx="2.5" ry="2.5" style="stroke:#181818;stroke-width:0.5;" width="130.4004" x="727.36" y="47.3083"/><text fill="#000000" font-family="sans-serif" font-size="14" font-style="italic" lengthAdjust="spacing" textLength="65.6182" x="759.7511" y="70.8434">&#171;domain&#187;</text><text fill="#000000" font-family="sans-serif" font-size="14" lengthAdjust="spacing" textLength="110.4004" x="737.36" y="87.3317">DOM-OCL-VIEW</text></g><g class="entity" data-qualified-name="GMN4" data-source-line="10" id="ent0005"><path d="M6,136.5583 L6,269.0427 A0,0 0 0 0 6,269.0427 L433.3579,269.0427 A0,0 0 0 0 433.3579,269.0427 L433.3579,146.5583 L423.3579,136.5583 L223.68,136.5583 L219.68,101.5583 L215.68,136.5583 L6,136.5583 A0,0 0 0 0 6,136.5583" fill="#FEFFDD" style="stroke:#181818;stroke-width:0.5;"/><path d="M423.3579,136.5583 L423.3579,146.5583 L433.3579,146.5583 L423.3579,136.5583" fill="#FEFFDD" style="stroke:#181818;stroke-width:0.5;"/><text fill="#000000" font-family="sans-serif" font-size="13" lengthAdjust="spacing" textLength="166.5942" x="12" y="154.1266">OCL-OCL-VIEW-SUBMODE</text><text fill="#000000" font-family="sans-serif" font-size="13" lengthAdjust="spacing" textLength="18.5542" x="12" y="169.4372">inv</text><text fill="#000000" font-family="sans-serif" font-size="13" lengthAdjust="spacing" textLength="4.1133" x="30.5542" y="169.4372">&#160;</text><text fill="#000000" font-family="sans-serif" font-size="13" lengthAdjust="spacing" textLength="100.5659" x="34.6675" y="169.4372">SubModeBinary:</text><text fill="#000000" font-family="sans-serif" font-size="13" lengthAdjust="spacing" textLength="8.2266" x="12" y="184.7477">&#160;&#160;</text><text fill="#000000" font-family="sans-serif" font-size="13" lengthAdjust="spacing" textLength="84.0049" x="20.2266" y="184.7477">self.subMode</text><text fill="#000000" font-family="sans-serif" font-size="13" lengthAdjust="spacing" textLength="4.1133" x="104.2314" y="184.7477">&#160;</text><text fill="#000000" font-family="sans-serif" font-size="13" lengthAdjust="spacing" textLength="10.334" x="108.3447" y="184.7477">=</text><text fill="#000000" font-family="sans-serif" font-size="13" lengthAdjust="spacing" textLength="4.1133" x="118.6787" y="184.7477">&#160;</text><text fill="#000000" font-family="sans-serif" font-size="13" lengthAdjust="spacing" textLength="128.8765" x="122.792" y="184.7477">OclSubMode::Source</text><text fill="#000000" font-family="sans-serif" font-size="13" lengthAdjust="spacing" textLength="8.2266" x="12" y="200.0583">&#160;&#160;</text><text fill="#000000" font-family="sans-serif" font-size="13" lengthAdjust="spacing" textLength="13.3047" x="20.2266" y="200.0583">or</text><text fill="#000000" font-family="sans-serif" font-size="13" lengthAdjust="spacing" textLength="4.1133" x="33.5313" y="200.0583">&#160;</text><text fill="#000000" font-family="sans-serif" font-size="13" lengthAdjust="spacing" textLength="84.0049" x="37.6445" y="200.0583">self.subMode</text><text fill="#000000" font-family="sans-serif" font-size="13" lengthAdjust="spacing" textLength="4.1133" x="121.6494" y="200.0583">&#160;</text><text fill="#000000" font-family="sans-serif" font-size="13" lengthAdjust="spacing" textLength="10.334" x="125.7627" y="200.0583">=</text><text fill="#000000" font-family="sans-serif" font-size="13" lengthAdjust="spacing" textLength="4.1133" x="136.0967" y="200.0583">&#160;</text><text fill="#000000" font-family="sans-serif" font-size="13" lengthAdjust="spacing" textLength="140.0166" x="140.21" y="200.0583">OclSubMode::Diagram</text><text fill="#000000" font-family="sans-serif" font-size="13" lengthAdjust="spacing" textLength="232.6797" x="12" y="215.3688">OCL-OCL-DIAGRAM-NEEDS-RENDER</text><text fill="#000000" font-family="sans-serif" font-size="13" lengthAdjust="spacing" textLength="18.5542" x="12" y="230.6794">inv</text><text fill="#000000" font-family="sans-serif" font-size="13" lengthAdjust="spacing" textLength="4.1133" x="30.5542" y="230.6794">&#160;</text><text fill="#000000" font-family="sans-serif" font-size="13" lengthAdjust="spacing" textLength="193.7241" x="34.6675" y="230.6794">DiagramRequiresRenderedSvg:</text><text fill="#000000" font-family="sans-serif" font-size="13" lengthAdjust="spacing" textLength="8.2266" x="12" y="245.9899">&#160;&#160;</text><text fill="#000000" font-family="sans-serif" font-size="13" lengthAdjust="spacing" textLength="88.2324" x="20.2266" y="245.9899">(self.subMode</text><text fill="#000000" font-family="sans-serif" font-size="13" lengthAdjust="spacing" textLength="4.1133" x="108.459" y="245.9899">&#160;</text><text fill="#000000" font-family="sans-serif" font-size="13" lengthAdjust="spacing" textLength="10.334" x="112.5723" y="245.9899">=</text><text fill="#000000" font-family="sans-serif" font-size="13" lengthAdjust="spacing" textLength="4.1133" x="122.9063" y="245.9899">&#160;</text><text fill="#000000" font-family="sans-serif" font-size="13" lengthAdjust="spacing" textLength="140.0166" x="127.0195" y="245.9899">OclSubMode::Diagram</text><text fill="#000000" font-family="sans-serif" font-size="13" lengthAdjust="spacing" textLength="4.1133" x="267.0361" y="245.9899">&#160;</text><text fill="#000000" font-family="sans-serif" font-size="13" lengthAdjust="spacing" textLength="23.4292" x="271.1494" y="245.9899">and</text><text fill="#000000" font-family="sans-serif" font-size="13" lengthAdjust="spacing" textLength="4.1133" x="294.5786" y="245.9899">&#160;</text><text fill="#000000" font-family="sans-serif" font-size="13" lengthAdjust="spacing" textLength="119.666" x="298.6919" y="245.9899">self.canvasPainted)</text><text fill="#000000" font-family="sans-serif" font-size="13" lengthAdjust="spacing" textLength="16.4531" x="12" y="261.3005">&#160;&#160;&#160;&#160;</text><text fill="#000000" font-family="sans-serif" font-size="13" lengthAdjust="spacing" textLength="45.4619" x="28.4531" y="261.3005">implies</text><text fill="#000000" font-family="sans-serif" font-size="13" lengthAdjust="spacing" textLength="4.1133" x="73.915" y="261.3005">&#160;</text><text fill="#000000" font-family="sans-serif" font-size="13" lengthAdjust="spacing" textLength="235.4854" x="78.0283" y="261.3005">self.renderedSvg(self.oclPath).exists()</text></g><!--link C0 to D0--><g class="link" data-entity-1="ent0002" data-entity-2="ent0003" data-link-type="dependency" data-source-line="19" id="lnk7"><path codeLine="19" d="M262.66,72.8683 C361.41,73.0383 602.96,73.4681 721,73.6681" fill="none" id="C0-to-D0" style="stroke:#181818;stroke-width:1;stroke-dasharray:7,7;"/><polygon fill="#181818" points="727,73.6783,718.0068,69.663,722,73.6698,717.9932,77.663,727,73.6783" style="stroke:#181818;stroke-width:1;"/><text fill="#000000" font-family="sans-serif" font-size="13" lengthAdjust="spacing" textLength="166.5942" x="497.36" y="69.8066">OCL-OCL-VIEW-SUBMODE</text></g><!--link C0 to D0--><g class="link" data-entity-1="ent0002" data-entity-2="ent0003" data-link-type="dependency" data-source-line="20" id="lnk8"><path codeLine="20" d="M262.96,80.2883 C346.38,93.9383 537.92,119.5883 697.36,98.7983 C707.01,97.5383 711.2258,96.9466 721.0358,94.6666" fill="none" id="C0-to-D0-1" style="stroke:#181818;stroke-width:1;stroke-dasharray:7,7;"/><polygon fill="#181818" points="726.88,93.3083,717.2081,91.4496,722.0098,94.4402,719.0192,99.2419,726.88,93.3083" style="stroke:#181818;stroke-width:1;"/><text fill="#000000" font-family="sans-serif" font-size="13" lengthAdjust="spacing" textLength="232.6797" x="464.36" y="95.3666">OCL-OCL-DIAGRAM-NEEDS-RENDER</text></g><?plantuml-src XP9DRi8m48NtESM8Rc2HYFui4A98G98AgI4eKM7jnaEmS6ngEu7kUeYUi2Ufao2ALDHkdpw_UVF6X7DvADYHYTmnp724UFOCcHJQACA4qV3ryGaLmmCgLsRSuRWnO2GebcyDKAOmCqmAH--Os1D52ZWeibypQhRmCEXVw1adMaz9jikLB0MTIIuLt8HXE0XkBx3Qa8YSuoyqk0_lGjzfVA0JPtnbOtM0Q9ZrOJIoeGqUpNZid2sWuyUHQpToL_DWtQ1-ZL9PsEKiAQH1U9N6o0BanleuK1TmVkAcBzCezWChCr51Mhv6akAK2QBUXrO4qCWtdcvrU0IRwWGDXwaiLOODPUF_0VgCv7RrYzd-VFAKJ29t4GH-wYR1mW-IKuOJdE1RQSlN2GgA2cbQvMsWxl-3W0ZQvic8g8XUrfT6sclUsod5dZFKBQ5-_5jd-mcMn6nx7XwPDhhRSom1TP6EFOFdZUkAXzTRl0PSM_KR?></g></svg>