<svg xmlns="http://www.w3.org/2000/svg" xmlns:xlink="http://www.w3.org/1999/xlink" contentStyleType="text/css" data-diagram-type="DESCRIPTION" height="1763px" preserveAspectRatio="none" style="width:1120px;height:1763px;background:#FFFFFF;" version="1.1" viewBox="0 0 1120 1763" width="1120px" zoomAndPan="magnify"><?plantuml 1.2026.3?><defs/><g><g class="title" data-source-line="21"><text fill="#000000" font-family="sans-serif" font-size="14" font-weight="700" lengthAdjust="spacing" textLength="285.1611" x="414.1131" y="23.5352">mdd view &#8212; diagram viewer (objective)</text></g><!--cluster mdd-viewer--><g class="cluster" data-qualified-name="mdd-viewer" data-source-line="27" id="ent0003"><rect fill="none" height="538" rx="2.5" ry="2.5" style="stroke:#181818;stroke-width:1;" width="840.44" x="190.82" y="816.4483"/><text fill="#000000" font-family="sans-serif" font-size="14" font-weight="700" lengthAdjust="spacing" textLength="88.7783" x="566.6508" y="831.9834">mdd-viewer</text></g><!--entity View--><g class="entity" data-qualified-name="mdd-viewer.View" data-source-line="28" id="ent0004"><ellipse cx="331.9849" cy="1111.4473" fill="#F1F1F1" rx="119.7449" ry="26.349" style="stroke:#181818;stroke-width:0.5;"/><text fill="#000000" font-family="sans-serif" font-size="14" lengthAdjust="spacing" textLength="157.6641" x="253.1528" y="1107.2136">View rendered diagram</text><text fill="#000000" font-family="sans-serif" font-size="14" lengthAdjust="spacing" textLength="172.3271" x="245.8213" y="1123.7019">(shapes AND text legible)</text></g><!--entity Browse--><g class="entity" data-qualified-name="mdd-viewer.Browse" data-source-line="29" id="ent0005"><ellipse cx="877.5131" cy="1067.4489" fill="#F1F1F1" rx="78.9031" ry="18.1806" style="stroke:#181818;stroke-width:0.5;"/><text fill="#000000" font-family="sans-serif" font-size="14" lengthAdjust="spacing" textLength="127.4697" x="813.7782" y="1072.193">Browse model files</text></g><!--entity PanZoom--><g class="entity" data-qualified-name="mdd-viewer.PanZoom" data-source-line="30" id="ent0006"><ellipse cx="877.5144" cy="877.4445" fill="#F1F1F1" rx="112.8544" ry="25.9162" style="stroke:#181818;stroke-width:0.5;"/><text fill="#000000" font-family="sans-serif" font-size="14" lengthAdjust="spacing" textLength="146.6787" x="804.175" y="873.3713">Pan and zoom canvas</text><text fill="#000000" font-family="sans-serif" font-size="14" lengthAdjust="spacing" textLength="158.0811" x="798.4739" y="889.8596">(scroll zoom, drag pan)</text></g><!--entity Fisheye--><g class="entity" data-qualified-name="mdd-viewer.Fisheye" data-source-line="31" id="ent0007"><ellipse cx="877.514" cy="1141.4451" fill="#F1F1F1" rx="93.784" ry="21.1568" style="stroke:#181818;stroke-width:0.5;"/><text fill="#000000" font-family="sans-serif" font-size="14" lengthAdjust="spacing" textLength="161.7725" x="796.6277" y="1146.1892">Focus via center fisheye</text></g><!--entity Panels--><g class="entity" data-qualified-name="mdd-viewer.Panels" data-source-line="32" id="ent0008"><ellipse cx="877.5143" cy="1222.4471" fill="#F1F1F1" rx="113.6443" ry="25.1289" style="stroke:#181818;stroke-width:0.5;"/><text fill="#000000" font-family="sans-serif" font-size="14" lengthAdjust="spacing" textLength="205.3584" x="774.8351" y="1227.1913">Collapse / expand side panels</text></g><!--entity Trace--><g class="entity" data-qualified-name="mdd-viewer.Trace" data-source-line="33" id="ent0009"><ellipse cx="331.9782" cy="1215.4459" fill="#F1F1F1" rx="123.2882" ry="27.0576" style="stroke:#181818;stroke-width:0.5;"/><text fill="#000000" font-family="sans-serif" font-size="14" lengthAdjust="spacing" textLength="226.0098" x="218.9733" y="1220.1901">Inspect model IDs and trace links</text></g><!--entity ViewOcl--><g class="entity" data-qualified-name="mdd-viewer.ViewOcl" data-source-line="34" id="ent0010"><ellipse cx="331.9839" cy="983.4492" fill="#F1F1F1" rx="103.0539" ry="25.9009" style="stroke:#181818;stroke-width:0.5;"/><text fill="#000000" font-family="sans-serif" font-size="14" lengthAdjust="spacing" textLength="144.0742" x="259.9468" y="980.5444">View OCL constraints</text><text fill="#000000" font-family="sans-serif" font-size="14" lengthAdjust="spacing" textLength="133.2666" x="265.3506" y="997.0327">(source or diagram)</text></g><!--entity ViewDeploy--><g class="entity" data-qualified-name="mdd-viewer.ViewDeploy" data-source-line="35" id="ent0011"><ellipse cx="331.9829" cy="887.4508" fill="#F1F1F1" rx="125.1529" ry="35.5525" style="stroke:#181818;stroke-width:0.5;"/><text fill="#000000" font-family="sans-serif" font-size="14" lengthAdjust="spacing" textLength="183.8115" x="240.0771" y="878.9959">View deployment diagrams</text><text fill="#000000" font-family="sans-serif" font-size="14" lengthAdjust="spacing" textLength="185.6162" x="239.1748" y="895.4842">(dedicated DEPLOY section,</text><text fill="#000000" font-family="sans-serif" font-size="14" lengthAdjust="spacing" textLength="124.332" x="269.8169" y="911.9725">NOT parity-gated)</text></g><!--entity Themed--><g class="entity" data-qualified-name="mdd-viewer.Themed" data-source-line="36" id="ent0012"><ellipse cx="877.5115" cy="976.4454" fill="#F1F1F1" rx="137.7515" ry="37.9072" style="stroke:#181818;stroke-width:0.5;"/><text fill="#000000" font-family="sans-serif" font-size="14" lengthAdjust="spacing" textLength="190.9482" x="782.0373" y="964.8001">View themed viewer chrome</text><text fill="#000000" font-family="sans-serif" font-size="14" lengthAdjust="spacing" textLength="188.7813" x="783.1208" y="981.2883">(Catppuccin, bundled fonts,</text><text fill="#000000" font-family="sans-serif" font-size="14" lengthAdjust="spacing" textLength="189.417" x="782.803" y="997.7766">OS appearance auto-follow)</text></g><!--entity ViewSource--><g class="entity" data-qualified-name="mdd-viewer.ViewSource" data-source-line="37" id="ent0013"><ellipse cx="877.5124" cy="1310.4448" fill="#F1F1F1" rx="128.7324" ry="28.1465" style="stroke:#181818;stroke-width:0.5;"/><text fill="#000000" font-family="sans-serif" font-size="14" lengthAdjust="spacing" textLength="148.4355" x="803.2946" y="1303.1349">View PlantUML source</text><text fill="#000000" font-family="sans-serif" font-size="14" lengthAdjust="spacing" textLength="217.1641" x="768.9303" y="1319.6232">(Source toggle next to Diagram)</text></g><!--entity Dev--><g class="entity" data-qualified-name="Dev" data-source-line="25" id="ent0002"><ellipse cx="40.1592" cy="1301.7083" fill="#F1F1F1" rx="8" ry="8" style="stroke:#181818;stroke-width:0.5;"/><path d="M40.1592,1309.7083 L40.1592,1336.7083 M27.1592,1317.7083 L53.1592,1317.7083 M40.1592,1336.7083 L27.1592,1351.7083 M40.1592,1336.7083 L53.1592,1351.7083" fill="none" style="stroke:#181818;stroke-width:0.5;"/><text fill="#000000" font-family="sans-serif" font-size="14" lengthAdjust="spacing" textLength="68.3184" x="6" y="1366.7434">Developer</text></g><g class="entity" data-qualified-name="GMN32" data-source-line="61" id="ent0033"><path d="M182.17,515.8983 L182.17,679.0037 L481.7877,679.0037 L481.7877,525.8983 L471.7877,515.8983 L182.17,515.8983" fill="#FEFFDD" style="stroke:#181818;stroke-width:0.5;"/><path d="M471.7877,515.8983 L471.7877,525.8983 L481.7877,525.8983 L471.7877,515.8983" fill="#FEFFDD" style="stroke:#181818;stroke-width:1;"/><text fill="#000000" font-family="sans-serif" font-size="13" lengthAdjust="spacing" textLength="241.6743" x="188.17" y="533.4666">Objective (USE-VIEW-OCL): selecting a</text><text fill="#000000" font-family="sans-serif" font-size="13" lengthAdjust="spacing" textLength="223.4248" x="188.17" y="548.7772">.mdd/constraints/*.ocl file shows a</text><text fill="#000000" font-family="sans-serif" font-size="13" lengthAdjust="spacing" textLength="248.0664" x="188.17" y="564.0877">Source | Diagram toggle on the canvas.</text><text fill="#000000" font-family="sans-serif" font-size="13" lengthAdjust="spacing" textLength="217.0454" x="188.17" y="579.3983">Source = raw OCL text (read-only,</text><text fill="#000000" font-family="sans-serif" font-size="13" lengthAdjust="spacing" textLength="259.3462" x="188.17" y="594.7088">@id/context/inv highlighted); Diagram =</text><text fill="#000000" font-family="sans-serif" font-size="13" lengthAdjust="spacing" textLength="278.6177" x="188.17" y="610.0194">a synthesized PlantUML constraints diagram</text><text fill="#000000" font-family="sans-serif" font-size="13" lengthAdjust="spacing" textLength="244.4546" x="188.17" y="625.3299">(context box + inv notes + @ref to the</text><text fill="#000000" font-family="sans-serif" font-size="13" lengthAdjust="spacing" textLength="270.9561" x="188.17" y="640.6405">DOM- it constrains) rasterized through the</text><text fill="#000000" font-family="sans-serif" font-size="13" lengthAdjust="spacing" textLength="214.0557" x="188.17" y="655.951">existing SVG pipeline. Realized by</text><text fill="#000000" font-family="sans-serif" font-size="13" lengthAdjust="spacing" textLength="99.7407" x="188.17" y="671.2616">SEQ-VIEW-OCL.</text></g><g class="entity" data-qualified-name="GMN35" data-source-line="74" id="ent0036"><path d="M139.82,714.1783 L139.82,800.731 L524.1408,800.731 L524.1408,724.1783 L514.1408,714.1783 L139.82,714.1783" fill="#FEFFDD" style="stroke:#181818;stroke-width:0.5;"/><path d="M514.1408,714.1783 L514.1408,724.1783 L524.1408,724.1783 L514.1408,714.1783" fill="#FEFFDD" style="stroke:#181818;stroke-width:1;"/><text fill="#000000" font-family="sans-serif" font-size="13" lengthAdjust="spacing" textLength="265.6748" x="145.82" y="731.7466">Objective: every label, actor, message and</text><text fill="#000000" font-family="sans-serif" font-size="13" lengthAdjust="spacing" textLength="271.1655" x="145.82" y="747.0572">note in a rendered diagram is visible in the</text><text fill="#000000" font-family="sans-serif" font-size="13" lengthAdjust="spacing" textLength="363.3208" x="145.82" y="762.3677">in-app canvas. Realized by SEQ-RENDER-DIAGRAM-PAGE</text><text fill="#000000" font-family="sans-serif" font-size="13" lengthAdjust="spacing" textLength="292.1191" x="145.82" y="777.6783">which must consult a populated font database</text><text fill="#000000" font-family="sans-serif" font-size="13" lengthAdjust="spacing" textLength="276.5991" x="145.82" y="792.9888">(DOM-FONT-DATABASE) before rasterizing.</text></g><g class="entity" data-qualified-name="GMN38" data-source-line="82" id="ent0039"><path d="M679.79,332.8683 L679.79,450.0421 L1075.2446,450.0421 L1075.2446,342.8683 L1065.2446,332.8683 L679.79,332.8683" fill="#FEFFDD" style="stroke:#181818;stroke-width:0.5;"/><path d="M1065.2446,332.8683 L1065.2446,342.8683 L1075.2446,342.8683 L1065.2446,332.8683" fill="#FEFFDD" style="stroke:#181818;stroke-width:1;"/><text fill="#000000" font-family="sans-serif" font-size="13" lengthAdjust="spacing" textLength="336.2163" x="685.79" y="350.4366">Objective (USE-FISHEYE-FOCUS): the canvas applies a</text><text fill="#000000" font-family="sans-serif" font-size="13" lengthAdjust="spacing" textLength="341.4341" x="685.79" y="365.7472">center-fixed fisheye over the rendered diagram &#8212; the</text><text fill="#000000" font-family="sans-serif" font-size="13" lengthAdjust="spacing" textLength="374.4546" x="685.79" y="381.0577">centre bulges/magnifies and content compresses smoothly</text><text fill="#000000" font-family="sans-serif" font-size="13" lengthAdjust="spacing" textLength="315.5674" x="685.79" y="396.3683">toward the edges. Layered ON TOP of the existing</text><text fill="#000000" font-family="sans-serif" font-size="13" lengthAdjust="spacing" textLength="344.1699" x="685.79" y="411.6788">scroll-to-zoom global zoom; drag still pans to bring a</text><text fill="#000000" font-family="sans-serif" font-size="13" lengthAdjust="spacing" textLength="284.7305" x="685.79" y="426.9894">region into the magnified centre. Realized by</text><text fill="#000000" font-family="sans-serif" font-size="13" lengthAdjust="spacing" textLength="144.8027" x="685.79" y="442.2999">SEQ-CANVAS-FISHEYE.</text></g><g class="entity" data-qualified-name="GMN41" data-source-line="92" id="ent0042"><path d="M701.98,43.4883 L701.98,99.4199 L1053.0518,99.4199 L1053.0518,53.4883 L1043.0518,43.4883 L701.98,43.4883" fill="#FEFFDD" style="stroke:#181818;stroke-width:0.5;"/><path d="M1043.0518,43.4883 L1043.0518,53.4883 L1053.0518,53.4883 L1043.0518,43.4883" fill="#FEFFDD" style="stroke:#181818;stroke-width:1;"/><text fill="#000000" font-family="sans-serif" font-size="13" lengthAdjust="spacing" textLength="330.0718" x="707.98" y="61.0566">The toolbar no longer has Reset / Zoom + / Zoom -</text><text fill="#000000" font-family="sans-serif" font-size="13" lengthAdjust="spacing" textLength="299.6982" x="707.98" y="76.3672">buttons. Zoom is scroll-only (global, at cursor);</text><text fill="#000000" font-family="sans-serif" font-size="13" lengthAdjust="spacing" textLength="300.8345" x="707.98" y="91.6777">the fisheye is the focus mechanism on top of it.</text></g><g class="entity" data-qualified-name="GMN44" data-source-line="98" id="ent0045"><path d="M688.76,484.8283 L688.76,556.0705 L1066.2571,556.0705 L1066.2571,494.8283 L1056.2571,484.8283 L688.76,484.8283" fill="#FEFFDD" style="stroke:#181818;stroke-width:0.5;"/><path d="M1056.2571,484.8283 L1056.2571,494.8283 L1066.2571,494.8283 L1056.2571,484.8283" fill="#FEFFDD" style="stroke:#181818;stroke-width:1;"/><text fill="#000000" font-family="sans-serif" font-size="13" lengthAdjust="spacing" textLength="356.4971" x="694.76" y="502.3966">Objective (USE-TOGGLE-PANELS): each side panel shows</text><text fill="#000000" font-family="sans-serif" font-size="13" lengthAdjust="spacing" textLength="322.3594" x="694.76" y="517.7072">an inner-edge chevron handle; clicking it collapses</text><text fill="#000000" font-family="sans-serif" font-size="13" lengthAdjust="spacing" textLength="271.8066" x="694.76" y="533.0177">the panel to a thin sliver, clicking the sliver</text><text fill="#000000" font-family="sans-serif" font-size="13" lengthAdjust="spacing" textLength="316.9321" x="694.76" y="548.3283">re-expands it. Realized by SEQ-PANEL-COLLAPSE.</text></g><g class="entity" data-qualified-name="GMN47" data-source-line="105" id="ent0048"><path d="M699.41,134.8983 L699.41,298.0037 L1055.6234,298.0037 L1055.6234,144.8983 L1045.6234,134.8983 L699.41,134.8983" fill="#FEFFDD" style="stroke:#181818;stroke-width:0.5;"/><path d="M1045.6234,134.8983 L1045.6234,144.8983 L1055.6234,144.8983 L1045.6234,134.8983" fill="#FEFFDD" style="stroke:#181818;stroke-width:1;"/><text fill="#000000" font-family="sans-serif" font-size="13" lengthAdjust="spacing" textLength="281.3662" x="705.41" y="152.4666">Objective (USE-VIEWER-THEMED): on startup</text><text fill="#000000" font-family="sans-serif" font-size="13" lengthAdjust="spacing" textLength="282.1597" x="705.41" y="167.7772">MddViewer registers a bundled Inter (UI) and</text><text fill="#000000" font-family="sans-serif" font-size="13" lengthAdjust="spacing" textLength="279.2017" x="705.41" y="183.0877">JetBrains Mono (monospace) FontDefinitions</text><text fill="#000000" font-family="sans-serif" font-size="13" lengthAdjust="spacing" textLength="276.3833" x="705.41" y="198.3983">set, then on every frame asks dark-light for</text><text fill="#000000" font-family="sans-serif" font-size="13" lengthAdjust="spacing" textLength="300.5806" x="705.41" y="213.7088">the OS appearance and applies catppuccin_egui</text><text fill="#000000" font-family="sans-serif" font-size="13" lengthAdjust="spacing" textLength="270.918" x="705.41" y="229.0194">Mocha (dark) or Latte (light) plus tightened</text><text fill="#000000" font-family="sans-serif" font-size="13" lengthAdjust="spacing" textLength="268.6963" x="705.41" y="244.3299">spacing.item_spacing and softened widget</text><text fill="#000000" font-family="sans-serif" font-size="13" lengthAdjust="spacing" textLength="304.3765" x="705.41" y="259.6405">rounding. No new SVG rendering, no new model</text><text fill="#000000" font-family="sans-serif" font-size="13" lengthAdjust="spacing" textLength="335.2134" x="705.41" y="274.951">state &#8212; chrome only. Realized by SEQ-APPLY-THEME</text><text fill="#000000" font-family="sans-serif" font-size="13" lengthAdjust="spacing" textLength="227.5127" x="705.41" y="290.2616">and owned by CMP-VIEWER-THEME.</text></g><g class="entity" data-qualified-name="GMN50" data-source-line="118" id="ent0051"><path d="M135.32,256.2783 L135.32,480.6259 L528.6354,480.6259 L528.6354,266.2783 L518.6354,256.2783 L135.32,256.2783" fill="#FEFFDD" style="stroke:#181818;stroke-width:0.5;"/><path d="M518.6354,256.2783 L518.6354,266.2783 L528.6354,266.2783 L518.6354,256.2783" fill="#FEFFDD" style="stroke:#181818;stroke-width:1;"/><text fill="#000000" font-family="sans-serif" font-size="13" lengthAdjust="spacing" textLength="315.3325" x="141.32" y="273.8466">Objective (USE-VIEW-DEPLOY): the left rail gains a</text><text fill="#000000" font-family="sans-serif" font-size="13" lengthAdjust="spacing" textLength="334.2612" x="141.32" y="289.1572">THIRD source. Today MddViewer::new() loads exactly</text><text fill="#000000" font-family="sans-serif" font-size="13" lengthAdjust="spacing" textLength="372.3154" x="141.32" y="304.4677">two &#8212; model_registry() (.mdd/models + .mdd/constraints)</text><text fill="#000000" font-family="sans-serif" font-size="13" lengthAdjust="spacing" textLength="315.6689" x="141.32" y="319.7783">and cycle_registry() (.mdd/cycles); .mdd/deploy is</text><text fill="#000000" font-family="sans-serif" font-size="13" lengthAdjust="spacing" textLength="355.4624" x="141.32" y="335.0888">reachable only as RenderTree::Deploy (an `mdd render`</text><text fill="#000000" font-family="sans-serif" font-size="13" lengthAdjust="spacing" textLength="294.0615" x="141.32" y="350.3994">rasterization target), so it never appears in the</text><text fill="#000000" font-family="sans-serif" font-size="13" lengthAdjust="spacing" textLength="311.2764" x="141.32" y="365.7099">interactive viewer. Objective: a dedicated DEPLOY</text><text fill="#000000" font-family="sans-serif" font-size="13" lengthAdjust="spacing" textLength="265.3892" x="141.32" y="381.0205">section, fed by Project::deploy_files(), lists</text><text fill="#000000" font-family="sans-serif" font-size="13" lengthAdjust="spacing" textLength="299.3872" x="141.32" y="396.331">.mdd/deploy/**/*.puml and paints the existing</text><text fill="#000000" font-family="sans-serif" font-size="13" lengthAdjust="spacing" textLength="345.0459" x="141.32" y="411.6416">.mdd/rendered/deploy/**/*.svg on the shared canvas.</text><text fill="#000000" font-family="sans-serif" font-size="13" lengthAdjust="spacing" textLength="305.5317" x="141.32" y="426.9521">It stays OUT of ModelRegistry: /mdd-deploy is a</text><text fill="#000000" font-family="sans-serif" font-size="13" lengthAdjust="spacing" textLength="301.374" x="141.32" y="442.2627">utility outside the parity gate, so /mdd-validate</text><text fill="#000000" font-family="sans-serif" font-size="13" lengthAdjust="spacing" textLength="363.4922" x="141.32" y="457.5732">and /mdd-review must continue to ignore .mdd/deploy/.</text><text fill="#000000" font-family="sans-serif" font-size="13" lengthAdjust="spacing" textLength="199.0498" x="141.32" y="472.8837">Realized by SEQ-VIEW-DEPLOY.</text></g><g class="entity" data-qualified-name="GMN53" data-source-line="135" id="ent0054"><path d="M649.63,590.9283 L649.63,799.9654 L1105.3873,799.9654 L1105.3873,600.9283 L1095.3873,590.9283 L649.63,590.9283" fill="#FEFFDD" style="stroke:#181818;stroke-width:0.5;"/><path d="M1095.3873,590.9283 L1095.3873,600.9283 L1105.3873,600.9283 L1095.3873,590.9283" fill="#FEFFDD" style="stroke:#181818;stroke-width:1;"/><text fill="#000000" font-family="sans-serif" font-size="13" lengthAdjust="spacing" textLength="346.1631" x="655.63" y="608.4966">Objective (USE-VIEW-PUML-SOURCE): the central panel</text><text fill="#000000" font-family="sans-serif" font-size="13" lengthAdjust="spacing" textLength="343.0908" x="655.63" y="623.8072">toggle row gains a "Source" button between "Diagram"</text><text fill="#000000" font-family="sans-serif" font-size="13" lengthAdjust="spacing" textLength="254.4648" x="655.63" y="639.1177">and "Diff". Selecting it puts the viewer in</text><text fill="#000000" font-family="sans-serif" font-size="13" lengthAdjust="spacing" textLength="324.4922" x="655.63" y="654.4283">View::Source, which paints the selected model file's</text><text fill="#000000" font-family="sans-serif" font-size="13" lengthAdjust="spacing" textLength="316.9829" x="655.63" y="669.7388">raw .puml text &#8212; read-only, scrollable, with @id /</text><text fill="#000000" font-family="sans-serif" font-size="13" lengthAdjust="spacing" textLength="346.7407" x="655.63" y="685.0494">@ref / @desc / @sec markers and @startuml/@enduml</text><text fill="#000000" font-family="sans-serif" font-size="13" lengthAdjust="spacing" textLength="338.8125" x="655.63" y="700.3599">directives highlighted &#8212; instead of the rendered SVG.</text><text fill="#000000" font-family="sans-serif" font-size="13" lengthAdjust="spacing" textLength="333.9438" x="655.63" y="715.6705">No new rendering: the text is read straight from disk</text><text fill="#000000" font-family="sans-serif" font-size="13" lengthAdjust="spacing" textLength="340.5264" x="655.63" y="730.981">(analogous to the OCL Source sub-mode, which never</text><text fill="#000000" font-family="sans-serif" font-size="13" lengthAdjust="spacing" textLength="434.7573" x="655.63" y="746.2916">depends on a rendered artifact &#8212; OCL-PUML-SOURCE-NO-RENDER).</text><text fill="#000000" font-family="sans-serif" font-size="13" lengthAdjust="spacing" textLength="333.3535" x="655.63" y="761.6021">Toggling back to "Diagram" repaints the SVG canvas.</text><text fill="#000000" font-family="sans-serif" font-size="13" lengthAdjust="spacing" textLength="324.3525" x="655.63" y="776.9127">Realized by SEQ-VIEW-PUML-SOURCE; state held in</text><text fill="#000000" font-family="sans-serif" font-size="13" lengthAdjust="spacing" textLength="172.8149" x="655.63" y="792.2232">DOM-PUML-SOURCE-VIEW.</text></g><!--link Dev to View--><g class="link" data-entity-1="ent0002" data-entity-2="ent0004" data-link-type="dependency" data-source-line="40" id="lnk14"><path d="M54.19,1292.9983 C68.51,1256.3583 95,1202.2083 135.32,1170.4483 C162.98,1148.6583 192.7946,1136.4138 226.0446,1127.7338" fill="none" id="Dev-to-View" style="stroke:#181818;stroke-width:1;"/><polygon fill="#181818" points="231.85,1126.2183,222.1315,1124.6213,227.0121,1127.4812,224.1522,1132.3619,231.85,1126.2183" style="stroke:#181818;stroke-width:1;"/></g><!--link Dev to Browse--><g class="link" data-entity-1="ent0002" data-entity-2="ent0005" data-link-type="dependency" data-source-line="41" id="lnk15"><path d="M71.64,1369.9283 C81.05,1379.0483 92.16,1387.5383 104.32,1392.4483 C210.49,1435.3483 534.6,1469.1483 619.63,1392.4483 C667.75,1349.0583 604.98,1149.3983 649.63,1102.4483 C689.81,1060.2183 752.1412,1054.4521 803.3312,1057.5821" fill="none" id="Dev-to-Browse" style="stroke:#181818;stroke-width:1;"/><polygon fill="#181818" points="809.32,1057.9483,800.5809,1053.4065,804.3293,1057.6431,800.0927,1061.3915,809.32,1057.9483" style="stroke:#181818;stroke-width:1;"/></g><!--link Dev to PanZoom--><g class="link" data-entity-1="ent0002" data-entity-2="ent0006" data-link-type="dependency" data-source-line="42" id="lnk16"><path d="M74.78,1323.2283 C84.29,1321.1183 94.67,1318.9983 104.32,1317.4483 C217.96,1299.1883 538.8,1347.3883 619.63,1265.4483 C673.52,1210.8283 598.28,978.4683 649.63,921.4483 C678.83,889.0283 718.1965,876.772 760.6865,872.762" fill="none" id="Dev-to-PanZoom" style="stroke:#181818;stroke-width:1;"/><polygon fill="#181818" points="766.66,872.1983,757.324,869.0616,761.6821,872.6681,758.0756,877.0262,766.66,872.1983" style="stroke:#181818;stroke-width:1;"/></g><!--link Dev to Fisheye--><g class="link" data-entity-1="ent0002" data-entity-2="ent0007" data-link-type="dependency" data-source-line="43" id="lnk17"><path d="M48.09,1370.1583 C55.93,1401.3083 72.08,1443.1383 104.32,1463.4483 C201.2,1524.4983 534.51,1540.0583 619.63,1463.4483 C666.81,1420.9983 606.14,1225.6683 649.63,1179.4483 C685.28,1141.5683 737.39,1132.3822 785.87,1132.5122" fill="none" id="Dev-to-Fisheye" style="stroke:#181818;stroke-width:1;"/><polygon fill="#181818" points="791.87,1132.5283,782.8808,1128.5042,786.87,1132.5149,782.8593,1136.5041,791.87,1132.5283" style="stroke:#181818;stroke-width:1;"/></g><!--link Dev to Panels--><g class="link" data-entity-1="ent0002" data-entity-2="ent0008" data-link-type="dependency" data-source-line="44" id="lnk18"><path d="M40.57,1370.1083 C42.19,1417.6583 53.04,1496.7083 104.32,1534.4483 C196.54,1602.3383 534.31,1610.8283 619.63,1534.4483 C664.62,1494.1883 608.52,1308.6583 649.63,1264.4483 C679.17,1232.6983 718.3134,1220.8173 760.5634,1217.0773" fill="none" id="Dev-to-Panels" style="stroke:#181818;stroke-width:1;"/><polygon fill="#181818" points="766.54,1216.5483,757.2224,1213.3574,761.5595,1216.9892,757.9278,1221.3263,766.54,1216.5483" style="stroke:#181818;stroke-width:1;"/></g><!--link Dev to Trace--><g class="link" data-entity-1="ent0002" data-entity-2="ent0009" data-link-type="dependency" data-source-line="45" id="lnk19"><path d="M73.75,1292.9083 C82.85,1284.0983 93.29,1275.5483 104.32,1269.4483 C140.69,1249.3383 178.4995,1237.8699 217.7795,1229.9099" fill="none" id="Dev-to-Trace" style="stroke:#181818;stroke-width:1;"/><polygon fill="#181818" points="223.66,1228.7183,214.0449,1226.5855,218.7596,1229.7113,215.6337,1234.4261,223.66,1228.7183" style="stroke:#181818;stroke-width:1;"/></g><!--link Dev to ViewOcl--><g class="link" data-entity-1="ent0002" data-entity-2="ent0010" data-link-type="dependency" data-source-line="46" id="lnk20"><path d="M45.21,1292.8183 C53.05,1236.4583 75.2,1131.4783 135.32,1067.4483 C166.82,1033.8983 208.2317,1014.9035 248.3417,1002.4035" fill="none" id="Dev-to-ViewOcl" style="stroke:#181818;stroke-width:1;"/><polygon fill="#181818" points="254.07,1000.6183,244.2875,999.4772,249.2964,1002.1059,246.6677,1007.1149,254.07,1000.6183" style="stroke:#181818;stroke-width:1;"/></g><!--link Dev to ViewDeploy--><g class="link" data-entity-1="ent0002" data-entity-2="ent0011" data-link-type="dependency" data-source-line="47" id="lnk21"><path d="M45.44,1293.0183 C56.03,1204.6983 86.22,990.9483 135.32,940.4483 C155.86,919.3183 178.129,907.9447 206.559,900.0447" fill="none" id="Dev-to-ViewDeploy" style="stroke:#181818;stroke-width:1;"/><polygon fill="#181818" points="212.34,898.4383,202.5976,896.9939,207.5225,899.7769,204.7395,904.7018,212.34,898.4383" style="stroke:#181818;stroke-width:1;"/></g><!--link Dev to Themed--><g class="link" data-entity-1="ent0002" data-entity-2="ent0012" data-link-type="dependency" data-source-line="48" id="lnk22"><path d="M74.77,1337.9283 C186.01,1358.5483 539.71,1417.0783 619.63,1344.4483 C671.35,1297.4583 603.86,1084.2483 649.63,1031.4483 C672.8,1004.7283 700.6871,991.2022 735.0871,983.1722" fill="none" id="Dev-to-Themed" style="stroke:#181818;stroke-width:1;"/><polygon fill="#181818" points="740.93,981.8083,731.2563,979.9589,736.0609,982.9449,733.0749,987.7494,740.93,981.8083" style="stroke:#181818;stroke-width:1;"/></g><!--link Dev to ViewSource--><g class="link" data-entity-1="ent0002" data-entity-2="ent0013" data-link-type="dependency" data-source-line="49" id="lnk23"><path d="M44.28,1370.1283 C50.68,1438.5483 67.89,1576.4583 104.32,1605.4483 C283.53,1748.0583 411.19,1700.3383 619.63,1605.4483 C743.25,1549.1783 827.7386,1406.1051 859.9986,1343.8751" fill="none" id="Dev-to-ViewSource" style="stroke:#181818;stroke-width:1;"/><polygon fill="#181818" points="862.76,1338.5483,855.0667,1344.6975,860.4588,1342.9873,862.1691,1348.3794,862.76,1338.5483" style="stroke:#181818;stroke-width:1;"/></g><!--link View to Browse--><g class="link" data-entity-1="ent0004" data-entity-2="ent0005" data-link-type="dependency" data-source-line="51" id="lnk24"><path d="M451.31,1108.6783 C503.05,1106.9083 564.41,1104.0383 619.63,1099.4483 C684.58,1094.0583 752.4183,1085.3425 804.1983,1078.0725" fill="none" id="View-to-Browse" style="stroke:#181818;stroke-width:1;stroke-dasharray:7,7;"/><polygon fill="#181818" points="810.14,1077.2383,800.6713,1074.5285,805.1886,1077.9335,801.7836,1082.4508,810.14,1077.2383" style="stroke:#181818;stroke-width:1;"/><text fill="#000000" font-family="sans-serif" font-size="13" lengthAdjust="spacing" textLength="59.3569" x="559.63" y="1096.0166">&#171;include&#187;</text></g><!--link View to PanZoom--><g class="link" data-entity-1="ent0004" data-entity-2="ent0006" data-link-type="dependency" data-source-line="52" id="lnk25"><path d="M393.94,1088.5483 C433.31,1072.8983 485.1,1050.6683 528.63,1026.4483 C571.62,1002.5383 584.6,997.9783 619.63,963.4483 C635.97,947.3483 630.33,933.8483 649.63,921.4483 C683.98,899.3883 720.935,888.7892 760.145,882.9692" fill="none" id="View-to-PanZoom" style="stroke:#181818;stroke-width:1;stroke-dasharray:7,7;"/><polygon fill="#181818" points="766.08,882.0883,756.5902,879.453,761.1342,882.8224,757.7648,887.3663,766.08,882.0883" style="stroke:#181818;stroke-width:1;"/><text fill="#000000" font-family="sans-serif" font-size="13" lengthAdjust="spacing" textLength="57.1924" x="560.63" y="960.0166">&#171;extend&#187;</text></g><!--link View to Fisheye--><g class="link" data-entity-1="ent0004" data-entity-2="ent0007" data-link-type="dependency" data-source-line="53" id="lnk26"><path d="M412.56,1131.2983 C455.51,1140.9983 509.64,1151.6083 558.63,1156.4483 C638.77,1164.3683 724.7213,1159.0207 789.0413,1152.4207" fill="none" id="View-to-Fisheye" style="stroke:#181818;stroke-width:1;stroke-dasharray:7,7;"/><polygon fill="#181818" points="795.01,1151.8083,785.6487,1148.7479,790.0361,1152.3187,786.4653,1156.7061,795.01,1151.8083" style="stroke:#181818;stroke-width:1;"/><text fill="#000000" font-family="sans-serif" font-size="13" lengthAdjust="spacing" textLength="57.1924" x="560.63" y="1153.0166">&#171;extend&#187;</text></g><!--link View to Panels--><g class="link" data-entity-1="ent0004" data-entity-2="ent0008" data-link-type="dependency" data-source-line="54" id="lnk27"><path d="M410.68,1131.5883 C447.01,1141.8283 490.55,1155.3183 528.63,1170.4483 C542.49,1175.9583 544.35,1181.1883 558.63,1185.4483 C625.32,1205.3383 696.8645,1214.2017 758.6545,1218.5017" fill="none" id="View-to-Panels" style="stroke:#181818;stroke-width:1;stroke-dasharray:7,7;"/><polygon fill="#181818" points="764.64,1218.9183,755.9394,1214.3031,759.6521,1218.5712,755.384,1222.2838,764.64,1218.9183" style="stroke:#181818;stroke-width:1;"/><text fill="#000000" font-family="sans-serif" font-size="13" lengthAdjust="spacing" textLength="57.1924" x="560.63" y="1182.0166">&#171;extend&#187;</text></g><!--link View to Themed--><g class="link" data-entity-1="ent0004" data-entity-2="ent0012" data-link-type="dependency" data-source-line="55" id="lnk28"><path d="M419.91,1093.2583 C477.11,1080.6283 553.37,1062.4983 619.63,1042.4483 C633.23,1038.3383 636.04,1035.5783 649.63,1031.4483 C688.03,1019.7983 724.8211,1010.3193 762.6611,1001.3693" fill="none" id="View-to-Themed" style="stroke:#181818;stroke-width:1;stroke-dasharray:7,7;"/><polygon fill="#181818" points="768.5,999.9883,758.821,998.1672,763.6342,1001.1391,760.6623,1005.9524,768.5,999.9883" style="stroke:#181818;stroke-width:1;"/><text fill="#000000" font-family="sans-serif" font-size="13" lengthAdjust="spacing" textLength="59.3569" x="559.63" y="1039.0166">&#171;include&#187;</text></g><!--link View to ViewSource--><g class="link" data-entity-1="ent0004" data-entity-2="ent0013" data-link-type="dependency" data-source-line="56" id="lnk29"><path d="M432.97,1125.8883 C466.11,1134.5383 501.44,1148.3583 528.63,1170.4483 C550.25,1188.0083 538.12,1206.6183 558.63,1225.4483 C591.18,1255.3283 607.49,1252.1883 649.63,1265.4483 C688.42,1277.6583 726.1104,1286.155 764.6404,1293.295" fill="none" id="View-to-ViewSource" style="stroke:#181818;stroke-width:1;stroke-dasharray:7,7;"/><polygon fill="#181818" points="770.54,1294.3883,762.4195,1288.8154,765.6237,1293.4772,760.9618,1296.6814,770.54,1294.3883" style="stroke:#181818;stroke-width:1;"/><text fill="#000000" font-family="sans-serif" font-size="13" lengthAdjust="spacing" textLength="57.1924" x="560.63" y="1222.0166">&#171;extend&#187;</text></g><!--link ViewOcl to PanZoom--><g class="link" data-entity-1="ent0010" data-entity-2="ent0006" data-link-type="dependency" data-source-line="57" id="lnk30"><path d="M414.32,967.4783 C478.28,954.9383 569.63,937.0383 649.63,921.4483 C696.01,912.4183 741.8295,903.5194 784.1595,895.3194" fill="none" id="ViewOcl-to-PanZoom" style="stroke:#181818;stroke-width:1;stroke-dasharray:7,7;"/><polygon fill="#181818" points="790.05,894.1783,780.4535,891.9629,785.1413,895.1292,781.975,899.8169,790.05,894.1783" style="stroke:#181818;stroke-width:1;"/><text fill="#000000" font-family="sans-serif" font-size="13" lengthAdjust="spacing" textLength="57.1924" x="560.63" y="924.7166">&#171;extend&#187;</text></g><!--link ViewDeploy to PanZoom--><g class="link" data-entity-1="ent0011" data-entity-2="ent0006" data-link-type="dependency" data-source-line="58" id="lnk31"><path d="M457.33,885.1583 C549.93,883.4583 669.271,881.2689 758.721,879.6189" fill="none" id="ViewDeploy-to-PanZoom" style="stroke:#181818;stroke-width:1;stroke-dasharray:7,7;"/><polygon fill="#181818" points="764.72,879.5083,755.6478,875.6749,759.7209,879.6005,755.7953,883.6736,764.72,879.5083" style="stroke:#181818;stroke-width:1;"/><text fill="#000000" font-family="sans-serif" font-size="13" lengthAdjust="spacing" textLength="57.1924" x="560.63" y="879.0166">&#171;extend&#187;</text></g><!--link ViewOcl to GMN32--><g class="link" data-entity-1="ent0010" data-entity-2="ent0033" data-link-type="association" data-source-line="61" id="lnk34"><path d="M229.14,986.3083 C181.24,981.4083 129.46,965.5083 104.82,922.9483 C81.54,882.7583 81.54,754.1383 104.82,713.9483 C122.42,683.5583 150.9,660.8183 181.82,643.8983" fill="none" id="ViewOcl-GMN32" style="stroke:#181818;stroke-width:1;stroke-dasharray:7,7;"/></g><!--link View to GMN35--><g class="link" data-entity-1="ent0004" data-entity-2="ent0036" data-link-type="association" data-source-line="74" id="lnk37"><path d="M236.28,1095.3283 C187.16,1081.4883 132.03,1055.9383 104.82,1008.9483 C70.07,948.9583 70.07,912.9483 104.82,852.9483 C117.52,831.0183 136.51,814.1183 158.2,801.1083" fill="none" id="View-GMN35" style="stroke:#181818;stroke-width:1;stroke-dasharray:7,7;"/></g><!--link Fisheye to GMN38--><g class="link" data-entity-1="ent0007" data-entity-2="ent0039" data-link-type="association" data-source-line="82" id="lnk40"><path d="M795.79,1152.1183 C728.02,1155.7983 635.55,1147.6883 589.13,1085.9483 C508.88,979.1983 510.6,592.9783 589.13,484.9483 C611.49,454.1983 644.2,433.3483 679.64,419.2783" fill="none" id="Fisheye-GMN38" style="stroke:#181818;stroke-width:1;stroke-dasharray:7,7;"/></g><!--link PanZoom to GMN41--><g class="link" data-entity-1="ent0006" data-entity-2="ent0042" data-link-type="association" data-source-line="92" id="lnk43"><path d="M764.32,878.5883 C701.95,872.5983 629.24,853.3083 589.13,799.9483 C544.73,740.8883 544.73,194.0083 589.13,134.9483 C616.01,99.1983 658.07,80.4383 701.83,71.2483" fill="none" id="PanZoom-GMN41" style="stroke:#181818;stroke-width:1;stroke-dasharray:7,7;"/></g><!--link Panels to GMN44--><g class="link" data-entity-1="ent0008" data-entity-2="ent0045" data-link-type="association" data-source-line="98" id="lnk46"><path d="M771.86,1232.0983 C707.67,1231.4883 630.37,1217.8083 589.13,1162.9483 C512.75,1061.3483 512.75,692.5583 589.13,590.9483 C613.37,558.7183 649.73,539.5983 688.54,528.5883" fill="none" id="Panels-GMN44" style="stroke:#181818;stroke-width:1;stroke-dasharray:7,7;"/></g><!--link Themed to GMN47--><g class="link" data-entity-1="ent0012" data-entity-2="ent0048" data-link-type="association" data-source-line="105" id="lnk49"><path d="M739.43,976.7483 C683.45,969.0583 623.9,949.2083 589.13,902.9483 C513.02,801.6983 518.3,437.9583 589.13,332.9483 C615.1,294.4583 656.17,268.6783 699.26,251.4083" fill="none" id="Themed-GMN47" style="stroke:#181818;stroke-width:1;stroke-dasharray:7,7;"/></g><!--link ViewDeploy to GMN50--><g class="link" data-entity-1="ent0011" data-entity-2="ent0051" data-link-type="association" data-source-line="118" id="lnk52"><path d="M215.8,873.9383 C172.27,862.2483 127.82,840.6683 104.82,800.9483 C73.08,746.1483 74.6,571.6083 104.82,515.9483 C112.9,501.0783 123.19,487.4683 134.93,475.0583" fill="none" id="ViewDeploy-GMN50" style="stroke:#181818;stroke-width:1;stroke-dasharray:7,7;"/></g><!--link ViewSource to GMN53--><g class="link" data-entity-1="ent0013" data-entity-2="ent0054" data-link-type="association" data-source-line="135" id="lnk55"><path d="M752.95,1317.9983 C693.12,1314.2383 626.46,1297.5983 589.13,1247.9483 C536.39,1177.7883 544.35,928.4383 589.13,852.9483 C604.34,827.3183 625.36,805.5883 649.17,787.2283" fill="none" id="ViewSource-GMN53" style="stroke:#181818;stroke-width:1;stroke-dasharray:7,7;"/></g><?plantuml-src ZLdRaXh94NtdAohcHI3Hy8vs5K83aiOnCymEZ6mv524LtGMKf-dgw2hc8jiH_WX_eR_49xEgw6v0qhwiXgvRNavcdinz8Txgh7itdoQVBgP_JIONum-tuwjvh_D2lCsKJO-N-k9ieXvKRafLYGUj7gsGeb95fYgLYQt9L2uoBTULt0fJ2BTHGXU9B4kHok91Ml6etKROZImLJXQPSEh9YLojzJ9NWpD-EOZq_cB-SVeP_yxExmv4QYsrH5gPT6TnDTukPUM4MK6-AD23blYLgiAfAbdf9qYyqdQZdXK4bKvivRhGAutZ97SGcBPNYcLDpRQibANxKuDB2YUSUPHLnljLjbQsBtBvpBO8sjkqCdakrhbPobnyDsRRrd8n-_3XSfhSZA-dbmTQjfPQMgQuKfQiPoNKKmdXlCovMZbnDPlW0FGlu0osCLOglTw49N4-krvC_xO8EzWg1TnKm2gaXDZWKAxwy6kQIxtLnRhsNWRtGRLCRR6fhGe3PNP-UG8--DfImAfSfOuG80OcpScSrbLImw8hdNjhUtHf5otP190KSxEhKZMS1DSwirxdQXG-0s3cqLkaaey2hpFE-Y9kz-jIsES2cwp-3eVTvB9mTrUN3M5iXCu9HIVJcylPvrEXmWi7wi9LmssM9PagS_Ci_3zRGb1umOhk01k6VcNuykNmvQ3SRVCU72E-OONjyGtuqjP1MdoLOZATN9oF5zE9UE5VVG5zTOxtKgVPR42rjZXg4L_FmEPIvJbEIr9-vtIktRD0dEYLJ9sOtItc5vEfj_QkGbYxtv8tPlaFkkv1KKJH_hLqQY3cx4B2XYbeYSsboQTvfMJsdEop0kiLVxKKj0_hVPp8RNJnG2peGz11awYBZnUt4xO0h8atbUKrwxqjSrEihSuKt-IJK8MK0Yy-xmCWVKu1hFZvTTC513ah2hWBqKJ9GLpH7RTXRn_lUEyzo5ndq9ulvI-L8g44n46G-nj8Uz7qvJ5ufhV9ukFqQZevXiz-wHX0h1n9uSsGRYe3csMSaJAnXAhYNBgotAMfflINAmTHkrSctKZnk57UqBCvcJIJrNrVN4hQmKivvOU-A7LwpyaBPkLyMf5VLdWf7aOkLxAIsD3hY-MECaKcBjXgAsIZkmkVqib2Vr7k7SMHXJqBmyif33lCz6h5E4Qwf7tMh91C2THE8JPBcHAiNc5pLP113LwXB__xpt_XVC0V1aPY9u6M4hbPhNSQ_bp9NUw0dlFAM9kKkNHu4VVXA3o_r8KalmUpcGBnG1VIBVDF7s9wgIJkhv0GAZBJhd1cbsxKgKntWroHp6Ttj-VJ4rcWiTho9A6ZpapxdCCs2phvvBWlfvmGVUaAsSqdEm4DK-mgwAWpV3JcjowPTG8pz-9c7P8eLJCK8axzWtXXfVYk85UCsrWsEUEIt0aPhHzAcaJ15foYlF1T66VujbAh8LjY-1O1Z8fQtQlAL_gtrY7JOF_mBLwWSvckV6QnOWFuCGHLrdljPIQFBsLwJxf5lI2eJpJ1QmDnfQlALFu3vVc3kh3Q5Pn696UwvSun2asLCHhQXCKo7W3K0X7jhG0P-judtb2018StrmSgg1mPcRRt7Y2pc2iJJaUW8aaghUBC1MjJB96n4YOy8VkcgIeTnHDbvQM2VAgFgyfyvxLYIlEA2SUJYuJ5InLu074dmG-oMpcgI9ZpPYqBsRDFV4XbEfM4iC8KoPh_ylKZPjrumpofmprPuJNpI6vff1c80QKO8Z4Ph21gY6o9IzgWvP8KosyDy1Us7GzBnVheHWd6LLGNd34vefxyH6cV4g6iAY9jHAwOc06UTj1nskMSC5bpzcrD13c3TlUbhTVfC7K2r3nH2j0qHQU3oWZ8r25yHdx2hqw7jaXEBcTrNZuJ_-m8yZmx_koJteEf3galHJTGuF7rf4M1Utmx7MfUygw2lLJ3N9Qt-S_DZJSWL6HtRmhEQFIMvw3qiOzw8TU44_yI3lmTdvjtl2UySSBnJ3b2ZlU_ztytzvy7CYg6WOeseHWVmP_DCnU5BM6yeD759FG25P8G2aDnxyyjwFUHCTkmPlqymk2bOD_QYhCqFxhW1Fd29NLG78J2b-9wjWZSnmTBVVs4hpfwWOCY4wr2ZIVgiEaV1CkNebLPXTmv4-BDFxRW6uyUsiUBDm7UQ4TRh0sJGxluRPr_Tpf0iaYIDnvpyKT0LlmPKH9_HnGqrid1yQVtM_DYSaFpTx3R_e3NhhaZ2DXXDGU3A98OYTz-qqMQxpBrvasz6YJaPUYCU6kk1db_iEgb_y6Y5-r7pzQI7X-7pZyNpHlXntiwXG4xMnhdi09kKEDvNsP4k_4Q1Uv0ELfY7xFGHgo0SbEtnOmYv63i2WhyIxIRgNRVDQWt_jvggaItfWROGomWrAgXBXuE2djyuNVi_FFT5pPtO_rRcYSmGxgPh6FnDt6Em7-mSJAxIgXft5zZUpMdequ0R7Az2PlL4qWe6Oi8OAbBXTo3rkPMWIvyPqvDMa__s5juq85h-EMJtccwPYIe6mWz5weXLP6-s8AiopKt4DZCLt0dTqIwzbrRf6xOtfgajCHa8M-drnEq3s5KazoCFqnnw76ZqutOxgot2IWodYjDkSivsL7-GJVWv59oAUcI0T_FhXV9PBmOlnlFfxr0IlPcXC5-OeUwGXoWj3tF6JLxUcYLKmKdD9uSpnXgh4wIqq3Xmq58kTpbQ0-7zIp7JsxykAOnmR5ROzmc9myV3d46Q8py46TsBHQpcqZC8rnmn9VK15cQIsrZlFFQLrZV4Q88MiBcieeXIGqeTRL5OEnHpYp8Vmfzv-FhJ-DvDE1FR5zNyzDCQGDRtogh76ervvjNyOy4Py2E7H0oy5y0mA0ajqfThoA0x6WsO4tLUqsc8u8QdAGRV1L0HzTPQEl7WAOayRJxkUoU91p0fZqWGrH9mBbc63wFKJffZR3GiprKUDcFij3rvMXioGUS6iBqBCZlxu4_97uYs6oEnn6h-pFS0F17Tc0I9sxGvoW8MSxaV7PvERwP_ynN-uf-8fdNyu4HcSytJYNsNcNP9qyg_223Uwk3BhnxTz4B-UMW0UzkyLzghrLFl4T4JDHA5vf83fa2iE2keg0dVUxotR-qztvWaEI-vp5LiDm1QI727o8vtLEThzITa-WyXkZIFJsYQdxsqEKhUw7RuJfHi5N256108u6lSIJG6XOyQZZQaKV2V60WhdtlHjcyqR-5Zewv9jtiQ893UQCn2ZXsvFZcvlApTmEZAnFciV3BvrStBJVzeYhiIUAfiXt6YADwVCiJl3LxZHA67trvVZSG2vF9vne6en4qw_OGtpHLK4-eCZwZFHhMa7N-6eTUsEY7ZFoPQkSXGUW5LNbOTdoEFrlKySPu2s7FKO6mv940PmlEC-I0HQNKQ1IOJbU6KQPtpZSw5sgAzFDAMS6bFHwu8L3zFCqZp3RB88v8RqXFiGVDijliRxrr6ToXhrrv5zvKXWwCHbw9hznKTNj-l6eZTJeSnh9j6XE8Ha7uSqFEZQIgKZEg2qTmVBOqUYMujEQEezR8M7iunA6jsRdznBCnbpsULGQFDgULaGn0z1sL2Q7N1HNurj0Ivmv3eW7ONq0-iFVJa6yEpaR7Koako4n0mVXZ88WpV-LPg5BW9EvH8LUT1Kfv5lGyewdNMNCy3I2Lk-2m_GGPkqdEqSXVsmyqgU7R4rEu5unqSD_6s8kYxEHihE-78k33OaYyc5Zgq4y9wTzVJiTmvlHyxDGOT4-BQ2Q6azS7GonlPXRunoCiOd-oaBbPcvsD4yLwfYRiRfcGCQAnE3n9J5KgAeUcHMJt_rU1nCKjJRSdrxF0LdiaxU9mtBTtwj70hn4x9z7PUEHroFGRbMVUuqHjcrBGYHh8_mS0?></g></svg>