<svg xmlns="http://www.w3.org/2000/svg" xmlns:xlink="http://www.w3.org/1999/xlink" contentStyleType="text/css" data-diagram-type="DESCRIPTION" height="1834px" preserveAspectRatio="none" style="width:1187px;height:1834px;background:#FFFFFF;" version="1.1" viewBox="0 0 1187 1834" width="1187px" zoomAndPan="magnify"><?plantuml 1.2026.3?><defs/><g><g class="title" data-source-line="23"><text fill="#000000" font-family="sans-serif" font-size="14" font-weight="700" lengthAdjust="spacing" textLength="285.1611" x="447.7181" y="23.5352">mdd view &#8212; diagram viewer (objective)</text></g><!--cluster mdd-viewer--><g class="cluster" data-qualified-name="mdd-viewer" data-source-line="29" id="ent0003"><rect fill="none" height="559" rx="2.5" ry="2.5" style="stroke:#181818;stroke-width:1;" width="874.04" x="224.43" y="816.4583"/><text fill="#000000" font-family="sans-serif" font-size="14" font-weight="700" lengthAdjust="spacing" textLength="88.7783" x="617.0608" y="831.9934">mdd-viewer</text></g><!--entity View--><g class="entity" data-qualified-name="mdd-viewer.View" data-source-line="30" id="ent0004"><ellipse cx="365.5849" cy="1171.4573" fill="#F1F1F1" rx="119.7449" ry="26.349" style="stroke:#181818;stroke-width:0.5;"/><text fill="#000000" font-family="sans-serif" font-size="14" lengthAdjust="spacing" textLength="157.6641" x="286.7528" y="1167.2236">View rendered diagram</text><text fill="#000000" font-family="sans-serif" font-size="14" lengthAdjust="spacing" textLength="172.3271" x="279.4213" y="1183.7119">(shapes AND text legible)</text></g><!--entity Browse--><g class="entity" data-qualified-name="mdd-viewer.Browse" data-source-line="31" id="ent0005"><ellipse cx="944.7231" cy="977.4589" fill="#F1F1F1" rx="78.9031" ry="18.1806" style="stroke:#181818;stroke-width:0.5;"/><text fill="#000000" font-family="sans-serif" font-size="14" lengthAdjust="spacing" textLength="127.4697" x="880.9882" y="982.203">Browse model files</text></g><!--entity PanZoom--><g class="entity" data-qualified-name="mdd-viewer.PanZoom" data-source-line="32" id="ent0006"><ellipse cx="944.7244" cy="898.4545" fill="#F1F1F1" rx="112.8544" ry="25.9162" style="stroke:#181818;stroke-width:0.5;"/><text fill="#000000" font-family="sans-serif" font-size="14" lengthAdjust="spacing" textLength="146.6787" x="871.385" y="894.3813">Pan and zoom canvas</text><text fill="#000000" font-family="sans-serif" font-size="14" lengthAdjust="spacing" textLength="158.0811" x="865.6839" y="910.8696">(scroll zoom, drag pan)</text></g><!--entity Fisheye--><g class="entity" data-qualified-name="mdd-viewer.Fisheye" data-source-line="33" id="ent0007"><ellipse cx="944.724" cy="1051.4551" fill="#F1F1F1" rx="93.784" ry="21.1568" style="stroke:#181818;stroke-width:0.5;"/><text fill="#000000" font-family="sans-serif" font-size="14" lengthAdjust="spacing" textLength="161.7725" x="863.8377" y="1056.1992">Focus via center fisheye</text></g><!--entity Panels--><g class="entity" data-qualified-name="mdd-viewer.Panels" data-source-line="34" id="ent0008"><ellipse cx="944.7243" cy="1223.4571" fill="#F1F1F1" rx="113.6443" ry="25.1289" style="stroke:#181818;stroke-width:0.5;"/><text fill="#000000" font-family="sans-serif" font-size="14" lengthAdjust="spacing" textLength="205.3584" x="842.0451" y="1228.2013">Collapse / expand side panels</text></g><!--entity Trace--><g class="entity" data-qualified-name="mdd-viewer.Trace" data-source-line="35" id="ent0009"><ellipse cx="365.5782" cy="1265.4559" fill="#F1F1F1" rx="123.2882" ry="27.0576" style="stroke:#181818;stroke-width:0.5;"/><text fill="#000000" font-family="sans-serif" font-size="14" lengthAdjust="spacing" textLength="226.0098" x="252.5733" y="1270.2001">Inspect model IDs and trace links</text></g><!--entity ViewOcl--><g class="entity" data-qualified-name="mdd-viewer.ViewOcl" data-source-line="36" id="ent0010"><ellipse cx="365.5839" cy="983.4592" fill="#F1F1F1" rx="103.0539" ry="25.9009" style="stroke:#181818;stroke-width:0.5;"/><text fill="#000000" font-family="sans-serif" font-size="14" lengthAdjust="spacing" textLength="144.0742" x="293.5468" y="980.5544">View OCL constraints</text><text fill="#000000" font-family="sans-serif" font-size="14" lengthAdjust="spacing" textLength="133.2666" x="298.9506" y="997.0427">(source or diagram)</text></g><!--entity ViewDeploy--><g class="entity" data-qualified-name="mdd-viewer.ViewDeploy" data-source-line="37" id="ent0011"><ellipse cx="365.5829" cy="887.4608" fill="#F1F1F1" rx="125.1529" ry="35.5525" style="stroke:#181818;stroke-width:0.5;"/><text fill="#000000" font-family="sans-serif" font-size="14" lengthAdjust="spacing" textLength="183.8115" x="273.6771" y="879.0059">View deployment diagrams</text><text fill="#000000" font-family="sans-serif" font-size="14" lengthAdjust="spacing" textLength="185.6162" x="272.7748" y="895.4942">(dedicated DEPLOY section,</text><text fill="#000000" font-family="sans-serif" font-size="14" lengthAdjust="spacing" textLength="124.332" x="303.4169" y="911.9825">NOT parity-gated)</text></g><!--entity Themed--><g class="entity" data-qualified-name="mdd-viewer.Themed" data-source-line="38" id="ent0012"><ellipse cx="944.7215" cy="1321.4554" fill="#F1F1F1" rx="137.7515" ry="37.9072" style="stroke:#181818;stroke-width:0.5;"/><text fill="#000000" font-family="sans-serif" font-size="14" lengthAdjust="spacing" textLength="190.9482" x="849.2473" y="1309.8101">View themed viewer chrome</text><text fill="#000000" font-family="sans-serif" font-size="14" lengthAdjust="spacing" textLength="188.7813" x="850.3308" y="1326.2983">(Catppuccin, bundled fonts,</text><text fill="#000000" font-family="sans-serif" font-size="14" lengthAdjust="spacing" textLength="189.417" x="850.013" y="1342.7866">OS appearance auto-follow)</text></g><!--entity ViewSource--><g class="entity" data-qualified-name="mdd-viewer.ViewSource" data-source-line="39" id="ent0013"><ellipse cx="944.7224" cy="1135.4548" fill="#F1F1F1" rx="128.7324" ry="28.1465" style="stroke:#181818;stroke-width:0.5;"/><text fill="#000000" font-family="sans-serif" font-size="14" lengthAdjust="spacing" textLength="148.4355" x="870.5046" y="1128.1449">View PlantUML source</text><text fill="#000000" font-family="sans-serif" font-size="14" lengthAdjust="spacing" textLength="217.1641" x="836.1403" y="1144.6332">(Source toggle next to Diagram)</text></g><!--entity OpenRender--><g class="entity" data-qualified-name="mdd-viewer.OpenRender" data-source-line="40" id="ent0014"><ellipse cx="365.5805" cy="1071.4584" fill="#F1F1F1" rx="122.5505" ry="26.9101" style="stroke:#181818;stroke-width:0.5;"/><text fill="#000000" font-family="sans-serif" font-size="14" lengthAdjust="spacing" textLength="185.3359" x="272.9125" y="1069.3404">Open React mockup render</text><text fill="#000000" font-family="sans-serif" font-size="14" lengthAdjust="spacing" textLength="158.8535" x="286.1537" y="1085.8287">(button opens browser)</text></g><!--entity Dev--><g class="entity" data-qualified-name="Dev" data-source-line="27" id="ent0002"><ellipse cx="40.1592" cy="1315.7183" fill="#F1F1F1" rx="8" ry="8" style="stroke:#181818;stroke-width:0.5;"/><path d="M40.1592,1323.7183 L40.1592,1350.7183 M27.1592,1331.7183 L53.1592,1331.7183 M40.1592,1350.7183 L27.1592,1365.7183 M40.1592,1350.7183 L53.1592,1365.7183" fill="none" style="stroke:#181818;stroke-width:0.5;"/><text fill="#000000" font-family="sans-serif" font-size="14" lengthAdjust="spacing" textLength="68.3184" x="6" y="1380.7534">Developer</text></g><g class="entity" data-qualified-name="GMN35" data-source-line="66" id="ent0036"><path d="M135.32,546.2183 L135.32,678.7027 L595.8444,678.7027 L595.8444,556.2183 L585.8444,546.2183 L135.32,546.2183" fill="#FEFFDD" style="stroke:#181818;stroke-width:0.5;"/><path d="M585.8444,546.2183 L585.8444,556.2183 L595.8444,556.2183 L585.8444,546.2183" fill="#FEFFDD" style="stroke:#181818;stroke-width:1;"/><text fill="#000000" font-family="sans-serif" font-size="13" lengthAdjust="spacing" textLength="397.7949" x="141.32" y="563.7866">Objective (USE-OPEN-RENDER): the central-panel view-tab row</text><text fill="#000000" font-family="sans-serif" font-size="13" lengthAdjust="spacing" textLength="342.6084" x="141.32" y="579.0972">shows an "Open render" button (UIC-OPEN-RENDER in</text><text fill="#000000" font-family="sans-serif" font-size="13" lengthAdjust="spacing" textLength="380.8594" x="141.32" y="594.4077">MCK-VIEWER-FULL). It is enabled only when the selected file</text><text fill="#000000" font-family="sans-serif" font-size="13" lengthAdjust="spacing" textLength="272.1875" x="141.32" y="609.7183">is a mockup whose slug has a React render</text><text fill="#000000" font-family="sans-serif" font-size="13" lengthAdjust="spacing" textLength="390.438" x="141.32" y="625.0288">(mockups/src/mockups/&lt;slug&gt;.tsx). Click starts the Vite dev</text><text fill="#000000" font-family="sans-serif" font-size="13" lengthAdjust="spacing" textLength="394.3037" x="141.32" y="640.3394">server in mockups/ if :4317 is not already serving, then opens</text><text fill="#000000" font-family="sans-serif" font-size="13" lengthAdjust="spacing" textLength="439.5244" x="141.32" y="655.6499">the OS browser at /mockup/&lt;slug&gt;. Realized by SEQ-OPEN-RENDER;</text><text fill="#000000" font-family="sans-serif" font-size="13" lengthAdjust="spacing" textLength="277.7354" x="141.32" y="670.9605">launcher owned by CMP-MOCKUP-LAUNCH.</text></g><g class="entity" data-qualified-name="GMN38" data-source-line="77" id="ent0039"><path d="M215.77,347.9083 L215.77,511.0138 L515.3877,511.0138 L515.3877,357.9083 L505.3877,347.9083 L215.77,347.9083" fill="#FEFFDD" style="stroke:#181818;stroke-width:0.5;"/><path d="M505.3877,347.9083 L505.3877,357.9083 L515.3877,357.9083 L505.3877,347.9083" fill="#FEFFDD" style="stroke:#181818;stroke-width:1;"/><text fill="#000000" font-family="sans-serif" font-size="13" lengthAdjust="spacing" textLength="241.6743" x="221.77" y="365.4766">Objective (USE-VIEW-OCL): selecting a</text><text fill="#000000" font-family="sans-serif" font-size="13" lengthAdjust="spacing" textLength="223.4248" x="221.77" y="380.7872">.mdd/constraints/*.ocl file shows a</text><text fill="#000000" font-family="sans-serif" font-size="13" lengthAdjust="spacing" textLength="248.0664" x="221.77" y="396.0977">Source | Diagram toggle on the canvas.</text><text fill="#000000" font-family="sans-serif" font-size="13" lengthAdjust="spacing" textLength="217.0454" x="221.77" y="411.4083">Source = raw OCL text (read-only,</text><text fill="#000000" font-family="sans-serif" font-size="13" lengthAdjust="spacing" textLength="259.3462" x="221.77" y="426.7188">@id/context/inv highlighted); Diagram =</text><text fill="#000000" font-family="sans-serif" font-size="13" lengthAdjust="spacing" textLength="278.6177" x="221.77" y="442.0294">a synthesized PlantUML constraints diagram</text><text fill="#000000" font-family="sans-serif" font-size="13" lengthAdjust="spacing" textLength="244.4546" x="221.77" y="457.3399">(context box + inv notes + @ref to the</text><text fill="#000000" font-family="sans-serif" font-size="13" lengthAdjust="spacing" textLength="270.9561" x="221.77" y="472.6505">DOM- it constrains) rasterized through the</text><text fill="#000000" font-family="sans-serif" font-size="13" lengthAdjust="spacing" textLength="214.0557" x="221.77" y="487.961">existing SVG pipeline. Realized by</text><text fill="#000000" font-family="sans-serif" font-size="13" lengthAdjust="spacing" textLength="99.7407" x="221.77" y="503.2716">SEQ-VIEW-OCL.</text></g><g class="entity" data-qualified-name="GMN41" data-source-line="90" id="ent0042"><path d="M173.42,714.1783 L173.42,800.731 L557.7408,800.731 L557.7408,724.1783 L547.7408,714.1783 L173.42,714.1783" fill="#FEFFDD" style="stroke:#181818;stroke-width:0.5;"/><path d="M547.7408,714.1783 L547.7408,724.1783 L557.7408,724.1783 L547.7408,714.1783" fill="#FEFFDD" style="stroke:#181818;stroke-width:1;"/><text fill="#000000" font-family="sans-serif" font-size="13" lengthAdjust="spacing" textLength="265.6748" x="179.42" y="731.7466">Objective: every label, actor, message and</text><text fill="#000000" font-family="sans-serif" font-size="13" lengthAdjust="spacing" textLength="271.1655" x="179.42" y="747.0572">note in a rendered diagram is visible in the</text><text fill="#000000" font-family="sans-serif" font-size="13" lengthAdjust="spacing" textLength="363.3208" x="179.42" y="762.3677">in-app canvas. Realized by SEQ-RENDER-DIAGRAM-PAGE</text><text fill="#000000" font-family="sans-serif" font-size="13" lengthAdjust="spacing" textLength="292.1191" x="179.42" y="777.6783">which must consult a populated font database</text><text fill="#000000" font-family="sans-serif" font-size="13" lengthAdjust="spacing" textLength="276.5991" x="179.42" y="792.9888">(DOM-FONT-DATABASE) before rasterizing.</text></g><g class="entity" data-qualified-name="GMN44" data-source-line="98" id="ent0045"><path d="M746.99,134.8683 L746.99,252.0421 L1142.4446,252.0421 L1142.4446,144.8683 L1132.4446,134.8683 L746.99,134.8683" fill="#FEFFDD" style="stroke:#181818;stroke-width:0.5;"/><path d="M1132.4446,134.8683 L1132.4446,144.8683 L1142.4446,144.8683 L1132.4446,134.8683" fill="#FEFFDD" style="stroke:#181818;stroke-width:1;"/><text fill="#000000" font-family="sans-serif" font-size="13" lengthAdjust="spacing" textLength="336.2163" x="752.99" y="152.4366">Objective (USE-FISHEYE-FOCUS): the canvas applies a</text><text fill="#000000" font-family="sans-serif" font-size="13" lengthAdjust="spacing" textLength="341.4341" x="752.99" y="167.7472">center-fixed fisheye over the rendered diagram &#8212; the</text><text fill="#000000" font-family="sans-serif" font-size="13" lengthAdjust="spacing" textLength="374.4546" x="752.99" y="183.0577">centre bulges/magnifies and content compresses smoothly</text><text fill="#000000" font-family="sans-serif" font-size="13" lengthAdjust="spacing" textLength="315.5674" x="752.99" y="198.3683">toward the edges. Layered ON TOP of the existing</text><text fill="#000000" font-family="sans-serif" font-size="13" lengthAdjust="spacing" textLength="344.1699" x="752.99" y="213.6788">scroll-to-zoom global zoom; drag still pans to bring a</text><text fill="#000000" font-family="sans-serif" font-size="13" lengthAdjust="spacing" textLength="284.7305" x="752.99" y="228.9894">region into the magnified centre. Realized by</text><text fill="#000000" font-family="sans-serif" font-size="13" lengthAdjust="spacing" textLength="144.8027" x="752.99" y="244.2999">SEQ-CANVAS-FISHEYE.</text></g><g class="entity" data-qualified-name="GMN47" data-source-line="108" id="ent0048"><path d="M769.19,43.4883 L769.19,99.4199 L1120.2618,99.4199 L1120.2618,53.4883 L1110.2618,43.4883 L769.19,43.4883" fill="#FEFFDD" style="stroke:#181818;stroke-width:0.5;"/><path d="M1110.2618,43.4883 L1110.2618,53.4883 L1120.2618,53.4883 L1110.2618,43.4883" fill="#FEFFDD" style="stroke:#181818;stroke-width:1;"/><text fill="#000000" font-family="sans-serif" font-size="13" lengthAdjust="spacing" textLength="330.0718" x="775.19" y="61.0566">The toolbar no longer has Reset / Zoom + / Zoom -</text><text fill="#000000" font-family="sans-serif" font-size="13" lengthAdjust="spacing" textLength="299.6982" x="775.19" y="76.3672">buttons. Zoom is scroll-only (global, at cursor);</text><text fill="#000000" font-family="sans-serif" font-size="13" lengthAdjust="spacing" textLength="300.8345" x="775.19" y="91.6777">the fisheye is the focus mechanism on top of it.</text></g><g class="entity" data-qualified-name="GMN50" data-source-line="114" id="ent0051"><path d="M755.97,530.8383 L755.97,602.0805 L1133.4671,602.0805 L1133.4671,540.8383 L1123.4671,530.8383 L755.97,530.8383" fill="#FEFFDD" style="stroke:#181818;stroke-width:0.5;"/><path d="M1123.4671,530.8383 L1123.4671,540.8383 L1133.4671,540.8383 L1123.4671,530.8383" fill="#FEFFDD" style="stroke:#181818;stroke-width:1;"/><text fill="#000000" font-family="sans-serif" font-size="13" lengthAdjust="spacing" textLength="356.4971" x="761.97" y="548.4066">Objective (USE-TOGGLE-PANELS): each side panel shows</text><text fill="#000000" font-family="sans-serif" font-size="13" lengthAdjust="spacing" textLength="322.3594" x="761.97" y="563.7172">an inner-edge chevron handle; clicking it collapses</text><text fill="#000000" font-family="sans-serif" font-size="13" lengthAdjust="spacing" textLength="271.8066" x="761.97" y="579.0277">the panel to a thin sliver, clicking the sliver</text><text fill="#000000" font-family="sans-serif" font-size="13" lengthAdjust="spacing" textLength="316.9321" x="761.97" y="594.3383">re-expands it. Realized by SEQ-PANEL-COLLAPSE.</text></g><g class="entity" data-qualified-name="GMN53" data-source-line="121" id="ent0054"><path d="M766.61,636.9083 L766.61,800.0138 L1122.8234,800.0138 L1122.8234,646.9083 L1112.8234,636.9083 L766.61,636.9083" fill="#FEFFDD" style="stroke:#181818;stroke-width:0.5;"/><path d="M1112.8234,636.9083 L1112.8234,646.9083 L1122.8234,646.9083 L1112.8234,636.9083" fill="#FEFFDD" style="stroke:#181818;stroke-width:1;"/><text fill="#000000" font-family="sans-serif" font-size="13" lengthAdjust="spacing" textLength="281.3662" x="772.61" y="654.4766">Objective (USE-VIEWER-THEMED): on startup</text><text fill="#000000" font-family="sans-serif" font-size="13" lengthAdjust="spacing" textLength="282.1597" x="772.61" y="669.7872">MddViewer registers a bundled Inter (UI) and</text><text fill="#000000" font-family="sans-serif" font-size="13" lengthAdjust="spacing" textLength="279.2017" x="772.61" y="685.0977">JetBrains Mono (monospace) FontDefinitions</text><text fill="#000000" font-family="sans-serif" font-size="13" lengthAdjust="spacing" textLength="276.3833" x="772.61" y="700.4083">set, then on every frame asks dark-light for</text><text fill="#000000" font-family="sans-serif" font-size="13" lengthAdjust="spacing" textLength="300.5806" x="772.61" y="715.7188">the OS appearance and applies catppuccin_egui</text><text fill="#000000" font-family="sans-serif" font-size="13" lengthAdjust="spacing" textLength="270.918" x="772.61" y="731.0294">Mocha (dark) or Latte (light) plus tightened</text><text fill="#000000" font-family="sans-serif" font-size="13" lengthAdjust="spacing" textLength="268.6963" x="772.61" y="746.3399">spacing.item_spacing and softened widget</text><text fill="#000000" font-family="sans-serif" font-size="13" lengthAdjust="spacing" textLength="304.3765" x="772.61" y="761.6505">rounding. No new SVG rendering, no new model</text><text fill="#000000" font-family="sans-serif" font-size="13" lengthAdjust="spacing" textLength="335.2134" x="772.61" y="776.961">state &#8212; chrome only. Realized by SEQ-APPLY-THEME</text><text fill="#000000" font-family="sans-serif" font-size="13" lengthAdjust="spacing" textLength="227.5127" x="772.61" y="792.2716">and owned by CMP-VIEWER-THEME.</text></g><g class="entity" data-qualified-name="GMN56" data-source-line="134" id="ent0057"><path d="M168.92,88.2883 L168.92,312.6359 L562.2354,312.6359 L562.2354,98.2883 L552.2354,88.2883 L168.92,88.2883" fill="#FEFFDD" style="stroke:#181818;stroke-width:0.5;"/><path d="M552.2354,88.2883 L552.2354,98.2883 L562.2354,98.2883 L552.2354,88.2883" fill="#FEFFDD" style="stroke:#181818;stroke-width:1;"/><text fill="#000000" font-family="sans-serif" font-size="13" lengthAdjust="spacing" textLength="315.3325" x="174.92" y="105.8566">Objective (USE-VIEW-DEPLOY): the left rail gains a</text><text fill="#000000" font-family="sans-serif" font-size="13" lengthAdjust="spacing" textLength="334.2612" x="174.92" y="121.1672">THIRD source. Today MddViewer::new() loads exactly</text><text fill="#000000" font-family="sans-serif" font-size="13" lengthAdjust="spacing" textLength="372.3154" x="174.92" y="136.4777">two &#8212; model_registry() (.mdd/models + .mdd/constraints)</text><text fill="#000000" font-family="sans-serif" font-size="13" lengthAdjust="spacing" textLength="315.6689" x="174.92" y="151.7883">and cycle_registry() (.mdd/cycles); .mdd/deploy is</text><text fill="#000000" font-family="sans-serif" font-size="13" lengthAdjust="spacing" textLength="355.4624" x="174.92" y="167.0988">reachable only as RenderTree::Deploy (an `mdd render`</text><text fill="#000000" font-family="sans-serif" font-size="13" lengthAdjust="spacing" textLength="294.0615" x="174.92" y="182.4094">rasterization target), so it never appears in the</text><text fill="#000000" font-family="sans-serif" font-size="13" lengthAdjust="spacing" textLength="311.2764" x="174.92" y="197.7199">interactive viewer. Objective: a dedicated DEPLOY</text><text fill="#000000" font-family="sans-serif" font-size="13" lengthAdjust="spacing" textLength="265.3892" x="174.92" y="213.0305">section, fed by Project::deploy_files(), lists</text><text fill="#000000" font-family="sans-serif" font-size="13" lengthAdjust="spacing" textLength="299.3872" x="174.92" y="228.341">.mdd/deploy/**/*.puml and paints the existing</text><text fill="#000000" font-family="sans-serif" font-size="13" lengthAdjust="spacing" textLength="345.0459" x="174.92" y="243.6516">.mdd/rendered/deploy/**/*.svg on the shared canvas.</text><text fill="#000000" font-family="sans-serif" font-size="13" lengthAdjust="spacing" textLength="305.5317" x="174.92" y="258.9621">It stays OUT of ModelRegistry: /mdd-deploy is a</text><text fill="#000000" font-family="sans-serif" font-size="13" lengthAdjust="spacing" textLength="301.374" x="174.92" y="274.2727">utility outside the parity gate, so /mdd-validate</text><text fill="#000000" font-family="sans-serif" font-size="13" lengthAdjust="spacing" textLength="363.4922" x="174.92" y="289.5832">and /mdd-review must continue to ignore .mdd/deploy/.</text><text fill="#000000" font-family="sans-serif" font-size="13" lengthAdjust="spacing" textLength="199.0498" x="174.92" y="304.8937">Realized by SEQ-VIEW-DEPLOY.</text></g><g class="entity" data-qualified-name="GMN59" data-source-line="151" id="ent0060"><path d="M716.84,286.9383 L716.84,495.9754 L1172.5973,495.9754 L1172.5973,296.9383 L1162.5973,286.9383 L716.84,286.9383" fill="#FEFFDD" style="stroke:#181818;stroke-width:0.5;"/><path d="M1162.5973,286.9383 L1162.5973,296.9383 L1172.5973,296.9383 L1162.5973,286.9383" fill="#FEFFDD" style="stroke:#181818;stroke-width:1;"/><text fill="#000000" font-family="sans-serif" font-size="13" lengthAdjust="spacing" textLength="346.1631" x="722.84" y="304.5066">Objective (USE-VIEW-PUML-SOURCE): the central panel</text><text fill="#000000" font-family="sans-serif" font-size="13" lengthAdjust="spacing" textLength="343.0908" x="722.84" y="319.8172">toggle row gains a "Source" button between "Diagram"</text><text fill="#000000" font-family="sans-serif" font-size="13" lengthAdjust="spacing" textLength="254.4648" x="722.84" y="335.1277">and "Diff". Selecting it puts the viewer in</text><text fill="#000000" font-family="sans-serif" font-size="13" lengthAdjust="spacing" textLength="324.4922" x="722.84" y="350.4383">View::Source, which paints the selected model file's</text><text fill="#000000" font-family="sans-serif" font-size="13" lengthAdjust="spacing" textLength="316.9829" x="722.84" y="365.7488">raw .puml text &#8212; read-only, scrollable, with @id /</text><text fill="#000000" font-family="sans-serif" font-size="13" lengthAdjust="spacing" textLength="346.7407" x="722.84" y="381.0594">@ref / @desc / @sec markers and @startuml/@enduml</text><text fill="#000000" font-family="sans-serif" font-size="13" lengthAdjust="spacing" textLength="338.8125" x="722.84" y="396.3699">directives highlighted &#8212; instead of the rendered SVG.</text><text fill="#000000" font-family="sans-serif" font-size="13" lengthAdjust="spacing" textLength="333.9438" x="722.84" y="411.6805">No new rendering: the text is read straight from disk</text><text fill="#000000" font-family="sans-serif" font-size="13" lengthAdjust="spacing" textLength="340.5264" x="722.84" y="426.991">(analogous to the OCL Source sub-mode, which never</text><text fill="#000000" font-family="sans-serif" font-size="13" lengthAdjust="spacing" textLength="434.7573" x="722.84" y="442.3016">depends on a rendered artifact &#8212; OCL-PUML-SOURCE-NO-RENDER).</text><text fill="#000000" font-family="sans-serif" font-size="13" lengthAdjust="spacing" textLength="333.3535" x="722.84" y="457.6121">Toggling back to "Diagram" repaints the SVG canvas.</text><text fill="#000000" font-family="sans-serif" font-size="13" lengthAdjust="spacing" textLength="324.3525" x="722.84" y="472.9227">Realized by SEQ-VIEW-PUML-SOURCE; state held in</text><text fill="#000000" font-family="sans-serif" font-size="13" lengthAdjust="spacing" textLength="172.8149" x="722.84" y="488.2332">DOM-PUML-SOURCE-VIEW.</text></g><!--link Dev to View--><g class="link" data-entity-1="ent0002" data-entity-2="ent0004" data-link-type="dependency" data-source-line="43" id="lnk15"><path d="M60.35,1306.9983 C76.49,1278.6783 102.22,1241.5783 135.32,1220.4583 C169.63,1198.5683 206.2095,1187.3308 245.2495,1180.5108" fill="none" id="Dev-to-View" style="stroke:#181818;stroke-width:1;"/><polygon fill="#181818" points="251.16,1179.4783,241.6059,1177.0867,246.2346,1180.3387,242.9826,1184.9674,251.16,1179.4783" style="stroke:#181818;stroke-width:1;"/></g><!--link Dev to Browse--><g class="link" data-entity-1="ent0002" data-entity-2="ent0005" data-link-type="dependency" data-source-line="44" id="lnk16"><path d="M74.57,1361.6283 C83.98,1365.5183 94.38,1369.1883 104.32,1371.4583 C230.7,1400.2483 591.73,1489.5183 686.84,1401.4583 C750.46,1342.5583 657.91,1076.0483 716.84,1012.4583 C756.66,969.4883 819.573,963.9338 871.023,967.3238" fill="none" id="Dev-to-Browse" style="stroke:#181818;stroke-width:1;"/><polygon fill="#181818" points="877.01,967.7183,868.2925,963.1352,872.0208,967.3895,867.7665,971.1179,877.01,967.7183" style="stroke:#181818;stroke-width:1;"/></g><!--link Dev to PanZoom--><g class="link" data-entity-1="ent0002" data-entity-2="ent0006" data-link-type="dependency" data-source-line="45" id="lnk17"><path d="M74.6,1349.8383 C194.25,1364.6983 598.7,1407.7783 686.84,1323.4583 C748.37,1264.5983 660,1004.8583 716.84,941.4583 C746.08,908.8483 785.7029,896.762 828.3829,893.022" fill="none" id="Dev-to-PanZoom" style="stroke:#181818;stroke-width:1;"/><polygon fill="#181818" points="834.36,892.4983,825.0452,889.2992,829.3791,892.9348,825.7435,897.2687,834.36,892.4983" style="stroke:#181818;stroke-width:1;"/></g><!--link Dev to Fisheye--><g class="link" data-entity-1="ent0002" data-entity-2="ent0007" data-link-type="dependency" data-source-line="46" id="lnk18"><path d="M55.6,1384.1583 C65.75,1405.4183 81.61,1429.9483 104.32,1442.4583 C217.71,1504.9283 591.58,1537.1183 686.84,1449.4583 C745.92,1395.0983 662.48,1148.5283 716.84,1089.4583 C752.27,1050.9683 804.8501,1041.8764 853.6101,1042.2164" fill="none" id="Dev-to-Fisheye" style="stroke:#181818;stroke-width:1;"/><polygon fill="#181818" points="859.61,1042.2583,850.6381,1038.1956,854.6101,1042.2234,850.5823,1046.1954,859.61,1042.2583" style="stroke:#181818;stroke-width:1;"/></g><!--link Dev to Panels--><g class="link" data-entity-1="ent0002" data-entity-2="ent0008" data-link-type="dependency" data-source-line="47" id="lnk19"><path d="M45.65,1383.8283 C53.68,1444.9783 72.69,1560.1083 104.32,1584.4583 C206.88,1663.4383 591.11,1671.5883 686.84,1584.4583 C739.34,1536.6783 669.05,1318.9383 716.84,1266.4583 C746.07,1234.3783 785.1653,1222.2891 827.4653,1218.3891" fill="none" id="Dev-to-Panels" style="stroke:#181818;stroke-width:1;"/><polygon fill="#181818" points="833.44,1217.8383,824.1108,1214.6815,828.4611,1218.2973,824.8452,1222.6477,833.44,1217.8383" style="stroke:#181818;stroke-width:1;"/></g><!--link Dev to Trace--><g class="link" data-entity-1="ent0002" data-entity-2="ent0009" data-link-type="dependency" data-source-line="48" id="lnk20"><path d="M74.5,1330.3783 C84,1326.4583 94.46,1322.4783 104.32,1319.4583 C156.6,1303.4283 210.3505,1291.7617 259.3405,1282.6817" fill="none" id="Dev-to-Trace" style="stroke:#181818;stroke-width:1;"/><polygon fill="#181818" points="265.24,1281.5883,255.6618,1279.2954,260.3237,1282.4995,257.1197,1287.1615,265.24,1281.5883" style="stroke:#181818;stroke-width:1;"/></g><!--link Dev to ViewOcl--><g class="link" data-entity-1="ent0002" data-entity-2="ent0010" data-link-type="dependency" data-source-line="49" id="lnk21"><path d="M40.56,1306.7983 C41.75,1239.4083 54.58,1100.6283 135.32,1027.4583 C169.55,996.4283 212.7832,984.836 256.8432,980.946" fill="none" id="Dev-to-ViewOcl" style="stroke:#181818;stroke-width:1;"/><polygon fill="#181818" points="262.82,980.4183,253.5031,977.2253,257.8394,980.858,254.2067,985.1943,262.82,980.4183" style="stroke:#181818;stroke-width:1;"/></g><!--link Dev to ViewDeploy--><g class="link" data-entity-1="ent0002" data-entity-2="ent0011" data-link-type="dependency" data-source-line="50" id="lnk22"><path d="M44.66,1306.9383 C53.76,1215.6383 81.35,990.0183 135.32,940.4583 C164.13,913.9983 197.5669,901.0457 235.5169,893.7857" fill="none" id="Dev-to-ViewDeploy" style="stroke:#181818;stroke-width:1;"/><polygon fill="#181818" points="241.41,892.6583,231.8187,890.4206,236.4991,893.5978,233.3219,898.2781,241.41,892.6583" style="stroke:#181818;stroke-width:1;"/></g><!--link Dev to Themed--><g class="link" data-entity-1="ent0002" data-entity-2="ent0012" data-link-type="dependency" data-source-line="51" id="lnk23"><path d="M43.14,1384.1083 C47.91,1459.4483 62.84,1621.5783 104.32,1655.4583 C304.83,1819.2383 454.58,1769.8383 686.84,1655.4583 C814.32,1592.6783 893.8363,1438.3658 925.9463,1364.9258" fill="none" id="Dev-to-Themed" style="stroke:#181818;stroke-width:1;"/><polygon fill="#181818" points="928.35,1359.4283,921.0795,1366.0721,926.347,1364.0095,928.4095,1369.277,928.35,1359.4283" style="stroke:#181818;stroke-width:1;"/></g><!--link Dev to ViewSource--><g class="link" data-entity-1="ent0002" data-entity-2="ent0013" data-link-type="dependency" data-source-line="52" id="lnk24"><path d="M43.53,1384.0483 C48.29,1423.9683 62.43,1484.4583 104.32,1513.4583 C210.75,1587.1483 591.29,1600.7883 686.84,1513.4583 C741.69,1463.3283 667.16,1235.7083 716.84,1180.4583 C742.02,1152.4683 773.2549,1139.8834 810.2449,1133.9834" fill="none" id="Dev-to-ViewSource" style="stroke:#181818;stroke-width:1;"/><polygon fill="#181818" points="816.17,1133.0383,806.6523,1130.5058,811.2324,1133.8258,807.9124,1138.406,816.17,1133.0383" style="stroke:#181818;stroke-width:1;"/></g><!--link Dev to OpenRender--><g class="link" data-entity-1="ent0002" data-entity-2="ent0014" data-link-type="dependency" data-source-line="53" id="lnk25"><path d="M47.08,1306.9283 C56.71,1257.8183 80.51,1173.7483 135.32,1127.4583 C166.54,1101.0883 202.351,1087.917 241.621,1080.257" fill="none" id="Dev-to-OpenRender" style="stroke:#181818;stroke-width:1;"/><polygon fill="#181818" points="247.51,1079.1083,237.9107,1076.9053,242.6025,1080.0655,239.4423,1084.7574,247.51,1079.1083" style="stroke:#181818;stroke-width:1;"/></g><!--link View to Browse--><g class="link" data-entity-1="ent0004" data-entity-2="ent0005" data-link-type="dependency" data-source-line="55" id="lnk26"><path d="M471.89,1158.9583 C552.59,1147.3783 655.31,1127.6783 686.84,1099.4583 C717.32,1072.1883 685.45,1038.6783 716.84,1012.4583 C759.28,977.0083 816.3707,969.6175 865.2507,970.3575" fill="none" id="View-to-Browse" style="stroke:#181818;stroke-width:1;stroke-dasharray:7,7;"/><polygon fill="#181818" points="871.25,970.4483,862.3116,966.3125,866.2506,970.3726,862.1905,974.3116,871.25,970.4483" style="stroke:#181818;stroke-width:1;"/><text fill="#000000" font-family="sans-serif" font-size="13" lengthAdjust="spacing" textLength="59.3569" x="626.84" y="1096.0266">&#171;include&#187;</text></g><!--link View to PanZoom--><g class="link" data-entity-1="ent0004" data-entity-2="ent0006" data-link-type="dependency" data-source-line="56" id="lnk27"><path d="M474.13,1159.9583 C514.61,1151.9683 559.58,1138.4183 595.84,1115.4583 C613.73,1104.1283 609.47,1091.8783 625.84,1078.4583 C649.53,1059.0583 667.52,1070.2083 686.84,1046.4583 C717.47,1008.8083 681,974.1783 716.84,941.4583 C747.78,913.2083 785.3101,901.5506 825.9401,896.8306" fill="none" id="View-to-PanZoom" style="stroke:#181818;stroke-width:1;stroke-dasharray:7,7;"/><polygon fill="#181818" points="831.9,896.1383,822.4985,893.2036,826.9334,896.7153,823.4217,901.1501,831.9,896.1383" style="stroke:#181818;stroke-width:1;"/><text fill="#000000" font-family="sans-serif" font-size="13" lengthAdjust="spacing" textLength="57.1924" x="627.84" y="1043.0266">&#171;extend&#187;</text></g><!--link View to Fisheye--><g class="link" data-entity-1="ent0004" data-entity-2="ent0007" data-link-type="dependency" data-source-line="57" id="lnk28"><path d="M451.39,1190.2183 C520.74,1200.5783 618.2,1203.2483 686.84,1156.4583 C713.8,1138.0783 691.03,1109.4083 716.84,1089.4583 C754.92,1060.0283 801.4292,1050.2204 846.3392,1047.7304" fill="none" id="View-to-Fisheye" style="stroke:#181818;stroke-width:1;stroke-dasharray:7,7;"/><polygon fill="#181818" points="852.33,1047.3983,843.1224,1043.9026,847.3377,1047.6751,843.5652,1051.8904,852.33,1047.3983" style="stroke:#181818;stroke-width:1;"/><text fill="#000000" font-family="sans-serif" font-size="13" lengthAdjust="spacing" textLength="57.1924" x="627.84" y="1153.0266">&#171;extend&#187;</text></g><!--link View to Panels--><g class="link" data-entity-1="ent0004" data-entity-2="ent0008" data-link-type="dependency" data-source-line="58" id="lnk29"><path d="M473.39,1183.2883 C513.23,1190.4983 557.96,1202.0383 595.84,1220.4583 C611.45,1228.0483 609.52,1239.5483 625.84,1245.4583 C707.9,1275.1683 803.7011,1261.331 869.6211,1245.241" fill="none" id="View-to-Panels" style="stroke:#181818;stroke-width:1;stroke-dasharray:7,7;"/><polygon fill="#181818" points="875.45,1243.8183,865.7582,1242.0665,870.5926,1245.0039,867.6552,1249.8383,875.45,1243.8183" style="stroke:#181818;stroke-width:1;"/><text fill="#000000" font-family="sans-serif" font-size="13" lengthAdjust="spacing" textLength="57.1924" x="627.84" y="1242.0266">&#171;extend&#187;</text></g><!--link View to Themed--><g class="link" data-entity-1="ent0004" data-entity-2="ent0012" data-link-type="dependency" data-source-line="59" id="lnk30"><path d="M483.91,1175.8583 C522.86,1182.3783 564.3,1195.3883 595.84,1220.4583 C620.44,1240.0083 600.35,1266.0983 625.84,1284.4583 C679.61,1323.1783 746.2601,1333.8246 808.5301,1334.1746" fill="none" id="View-to-Themed" style="stroke:#181818;stroke-width:1;stroke-dasharray:7,7;"/><polygon fill="#181818" points="814.53,1334.2083,805.5526,1330.1578,809.5301,1334.1802,805.5077,1338.1576,814.53,1334.2083" style="stroke:#181818;stroke-width:1;"/><text fill="#000000" font-family="sans-serif" font-size="13" lengthAdjust="spacing" textLength="59.3569" x="626.84" y="1281.0266">&#171;include&#187;</text></g><!--link View to ViewSource--><g class="link" data-entity-1="ent0004" data-entity-2="ent0013" data-link-type="dependency" data-source-line="60" id="lnk31"><path d="M446.12,1191.3783 C526.64,1209.8683 645.05,1231.9483 686.84,1213.4583 C704.97,1205.4383 699.59,1190.2083 716.84,1180.4583 C748.92,1162.3283 781.2374,1152.4951 817.0874,1145.9551" fill="none" id="View-to-ViewSource" style="stroke:#181818;stroke-width:1;stroke-dasharray:7,7;"/><polygon fill="#181818" points="822.99,1144.8783,813.4183,1142.5584,818.0712,1145.7756,814.854,1150.4285,822.99,1144.8783" style="stroke:#181818;stroke-width:1;"/><text fill="#000000" font-family="sans-serif" font-size="13" lengthAdjust="spacing" textLength="57.1924" x="627.84" y="1210.0266">&#171;extend&#187;</text></g><!--link ViewOcl to PanZoom--><g class="link" data-entity-1="ent0010" data-entity-2="ent0006" data-link-type="dependency" data-source-line="61" id="lnk32"><path d="M455.49,970.3683 C562.05,954.6683 733.914,929.3626 843.014,913.2926" fill="none" id="ViewOcl-to-PanZoom" style="stroke:#181818;stroke-width:1;stroke-dasharray:7,7;"/><polygon fill="#181818" points="848.95,912.4183,839.4632,909.7725,844.0034,913.1469,840.629,917.6871,848.95,912.4183" style="stroke:#181818;stroke-width:1;"/><text fill="#000000" font-family="sans-serif" font-size="13" lengthAdjust="spacing" textLength="57.1924" x="627.84" y="934.9766">&#171;extend&#187;</text></g><!--link ViewDeploy to PanZoom--><g class="link" data-entity-1="ent0011" data-entity-2="ent0006" data-link-type="dependency" data-source-line="62" id="lnk33"><path d="M490.75,889.8283 C592.12,891.7583 728.1211,894.3543 825.9811,896.2143" fill="none" id="ViewDeploy-to-PanZoom" style="stroke:#181818;stroke-width:1;stroke-dasharray:7,7;"/><polygon fill="#181818" points="831.98,896.3283,823.0576,892.158,826.9809,896.2333,822.9056,900.1565,831.98,896.3283" style="stroke:#181818;stroke-width:1;"/><text fill="#000000" font-family="sans-serif" font-size="13" lengthAdjust="spacing" textLength="57.1924" x="627.84" y="889.1966">&#171;extend&#187;</text></g><!--link OpenRender to Browse--><g class="link" data-entity-1="ent0014" data-entity-2="ent0005" data-link-type="dependency" data-source-line="63" id="lnk34"><path d="M456.06,1052.9883 C505.92,1043.0083 569.2,1030.8383 625.84,1021.4583 C711.18,1007.3383 803.9677,994.9132 868.4677,986.7332" fill="none" id="OpenRender-to-Browse" style="stroke:#181818;stroke-width:1;stroke-dasharray:7,7;"/><polygon fill="#181818" points="874.42,985.9783,864.9883,983.1424,869.4597,986.6074,865.9948,991.0788,874.42,985.9783" style="stroke:#181818;stroke-width:1;"/><text fill="#000000" font-family="sans-serif" font-size="13" lengthAdjust="spacing" textLength="59.3569" x="626.84" y="1008.4466">&#171;include&#187;</text></g><!--link OpenRender to GMN35--><g class="link" data-entity-1="ent0014" data-entity-2="ent0036" data-link-type="association" data-source-line="66" id="lnk37"><path d="M246.35,1078.1883 C191.62,1073.9883 132.76,1057.1983 104.82,1008.9583 C71.96,952.2283 71.96,770.6883 104.82,713.9583 C112.85,700.0883 123.15,688.0983 134.99,677.7483" fill="none" id="OpenRender-GMN35" style="stroke:#181818;stroke-width:1;stroke-dasharray:7,7;"/></g><!--link ViewOcl to GMN38--><g class="link" data-entity-1="ent0010" data-entity-2="ent0039" data-link-type="association" data-source-line="77" id="lnk40"><path d="M267.95,992.0883 C207.85,991.2583 136.44,977.5483 104.82,922.9583 C83.83,886.7083 83.83,582.2083 104.82,545.9583 C128.67,504.7683 171.31,478.0883 215.28,460.8283" fill="none" id="ViewOcl-GMN38" style="stroke:#181818;stroke-width:1;stroke-dasharray:7,7;"/></g><!--link View to GMN41--><g class="link" data-entity-1="ent0004" data-entity-2="ent0042" data-link-type="association" data-source-line="90" id="lnk43"><path d="M245.57,1172.4483 C191.19,1165.6783 132.87,1146.3983 104.82,1097.9583 C77.53,1050.8483 77.53,900.0683 104.82,852.9583 C120.52,825.8383 145.06,806.3383 172.94,792.3283" fill="none" id="View-GMN41" style="stroke:#181818;stroke-width:1;stroke-dasharray:7,7;"/></g><!--link Fisheye to GMN44--><g class="link" data-entity-1="ent0007" data-entity-2="ent0045" data-link-type="association" data-source-line="98" id="lnk46"><path d="M863,1062.1283 C795.23,1065.7983 702.76,1057.6983 656.34,995.9583 C609.01,932.9883 610.02,350.6783 656.34,286.9583 C678.7,256.1983 711.41,235.3583 746.85,221.2783" fill="none" id="Fisheye-GMN44" style="stroke:#181818;stroke-width:1;stroke-dasharray:7,7;"/></g><!--link PanZoom to GMN47--><g class="link" data-entity-1="ent0006" data-entity-2="ent0048" data-link-type="association" data-source-line="108" id="lnk49"><path d="M835.52,891.4383 C772.08,881.0783 696.89,856.6583 656.34,799.9583 C613.36,739.8583 611.94,194.0183 656.34,134.9583 C683.22,99.2083 725.27,80.4483 769.04,71.2483" fill="none" id="PanZoom-GMN47" style="stroke:#181818;stroke-width:1;stroke-dasharray:7,7;"/></g><!--link Panels to GMN50--><g class="link" data-entity-1="ent0008" data-entity-2="ent0051" data-link-type="association" data-source-line="114" id="lnk52"><path d="M839.07,1233.1083 C774.87,1232.4983 697.58,1218.8183 656.34,1163.9583 C585.97,1070.3483 585.97,730.5683 656.34,636.9583 C680.58,604.7183 716.94,585.6083 755.75,574.5983" fill="none" id="Panels-GMN50" style="stroke:#181818;stroke-width:1;stroke-dasharray:7,7;"/></g><!--link Themed to GMN53--><g class="link" data-entity-1="ent0012" data-entity-2="ent0054" data-link-type="association" data-source-line="121" id="lnk55"><path d="M806.62,1322.3183 C750.63,1314.8283 691.09,1295.1783 656.34,1248.9583 C603.46,1178.6183 609.06,927.1783 656.34,852.9583 C681.94,812.7683 723.03,784.3983 766.25,764.4383" fill="none" id="Themed-GMN53" style="stroke:#181818;stroke-width:1;stroke-dasharray:7,7;"/></g><!--link ViewDeploy to GMN56--><g class="link" data-entity-1="ent0011" data-entity-2="ent0057" data-link-type="association" data-source-line="134" id="lnk58"><path d="M242.14,881.1683 C188.93,871.1783 132.61,848.9383 104.82,800.9583 C79.59,757.3983 79.59,391.5183 104.82,347.9583 C120.46,320.9483 143.09,298.5083 168.58,279.9583" fill="none" id="ViewDeploy-GMN56" style="stroke:#181818;stroke-width:1;stroke-dasharray:7,7;"/></g><!--link ViewSource to GMN59--><g class="link" data-entity-1="ent0013" data-entity-2="ent0060" data-link-type="association" data-source-line="151" id="lnk61"><path d="M820.16,1143.0083 C760.33,1139.2483 693.67,1122.6083 656.34,1072.9583 C583.97,976.6783 592.35,632.9983 656.34,530.9583 C671.71,506.4583 692.73,486.1583 716.48,469.3583" fill="none" id="ViewSource-GMN59" style="stroke:#181818;stroke-width:1;stroke-dasharray:7,7;"/></g><?plantuml-src ZLdTSYAv5RxdALI-CUpIKAcaAbLuTcgymCmuQnjYy2IRsgfPqIr0STEYMesnDqbL7Y9Fc2V9TuuaMWtCJAviMjBH-VtEZox5Evsr7sVZvDFD-2_9wERwmyFrtQpJkXJlCcNJqwMkk1YfPvMRhIh5irPxAwGeLP6fKcLYOpALYqpBLIatmXIYMYkXYqHkjoALnREqOg-hjR1hkLKuMMIYKY-LoDLABtBLk-2RFKllRsOVnp_ZxsJuUCHIOwd1qjAaEmlIk7ihoqgO9VWB33rhYL-fAYfL9alz0ewNsgxLgmAZiX8RkIhqKkCuyUqPfksbObvJizcMoXBzr818KOdAx6MPyNwLhPJjYbo-iYwyz3OjJPwBLMuMCXU_6RDfIZcVVFXmEqwcr_VZsoCf6qiDALEGb5kMinJgPGlc7C-vMbRYRZB20SXVm1YiOwoKUhNsIs8ukP-F_phtErWh1SnKG2iaX5ZZKAwwi6kQIxtHnQgsNWRpGRHCRR2fAGexocHuUyPzyBKXW5MvIYlo0D4pQKxgj5KfDJIwrBdJjlCkNGLDnWuanSpiobJrHzwqbLcjSZNmd-5WPkyqKigzmEtiPrqHjhjrAUnhWKrM_mQ3JNDPL8ztjn4pDhZE6K57u-djvETpeS8BH-B2LFrDbYMPskRcLRW_6_8WVuCLxHuszDrA_xll-j_rjhjDte5XnAzOONty2l_IjWAt-2h5Q3ow6LxFnoDnwMwzXBmwntrffLbjy6fjSTGYlbxXcmkLvpWjIVXTfNDTlGh4YLxAj1AJn_diPZHssjwL2ElgJVBMBFvEv9uLHHJjNybAzSICJKY-OGfQOdLficbUAfcz9WTKOBd2huQ0zdbrY1Ev2IRkYJbzy39eOdN-yUPXn1g0Dd6dihncdRLbRegLrPbYIWw4Ia0AhFXw283qDOLZXSzNiGd8vQmeO2v44u63k2CQ3tvl5_SuwptBN6UGdedobr8HKmBi8CWT1P9UnBOyTPxnGpB_EBuRZqxTvx1qwa0i777Xr92kImETPOn8cLX0L36KrNQxIrDDy9Uh2gosxqowbcA_LaxHancfD9FbKrVSIjh1IpdXGrTiTVh4u0MrCfwMP9SbRWg7WULAbX8REbsns15IPEA6jRO46ZtUE4Wd3Vr9LJzI75deip2yd4An_Kmlb-p7W4lQPyqIO4fENId4vbQcv5RVOtDPa48DRg4l__ttVs1yk3yK360dXXOIsAnMEmrxBkKkh-0zmz9OcsnpMU56qCDHM7wX2qbszsep1UA121ALsQSF0LvA2Veb0A4aDUsAokpIjJg7T5DWHJARF3uCnsTG85fjM9AyeqQc0-QmphnC3XmFwPG1qQKkZsuEx0GaJB6heAELuQC1tzgarX7Kt0cRjGTHocP8H0pzlK2mL4pBynNYDgHDHbpYEo6bTNrAaqZOWY7ACT-6SlhlIhNiioRwxn30oAZbaofTfdzdAo0DzlVVuGOwb-dI8OiLQxWVkw3AEbUEPxBuGgPF95kG2umweF5MwuaxNPQcT1y8vu_omd9NC8n8Hhh5hc8lD6N6tj0iM2px0norG4GxBO27hhE9KnHSWiERymCbL8wCJDkdfeDCfkFxv65yFne_D7qZMeZTeXlIsiQaJxkjr-l14VPhOy53lbiXDnCUFYZ2QyTZLwGvefQJwULaYrXstoz9t0eeQHgcJqBML_kaaWj4r_wArpsii9Kys30pLdn2N2A-di5GIGZNtXgKLd_u_U_-YEoqf1GDlHIc2j0lobrHaFd8x12li04y5hWDH0JIKjzHxxyXiTuwpFSC4pvfImwMrRZbb46eJog0bPoKJk-JaACIJWCe0PDKMYSJl9mmZ9mquKBJPxqqLTkAS8oouKB1BrGNfBRvph7BfUJtNEYzLA5GTDxWwo-gMGLVo3fbD2DcXd4DuVNQfJfKPJgLPD325CcA_tDvEsIxG66Mr32RB76RsPC-8tW76n2AlIQ0y1AiUaIL8D842ou5GjbJ0ykbRUBGGh4yEYfzG8fiKncJ0sr9yvHkAG79igHYcOfQBeW12xRNgdILSw9YoJccwWASNQnzA2awhHQNh0XnLw1wI315gmKFHwZMCN91TiAlLeksI0RrYpeVNeX_j0HPdWr_yKaVWhY6ib-Ajcyzhkz7ZTQZmzJfK4paHtRNI5sMjxdFySOfOe_qxbJ1cOJkShK_VUmYJyiL-Ocx2GV-XiynZVVaRmpqhaC9BiVxtxl_u_r3tmI8lcy1ObSCb-3V-CnDORTGdfVePkHxi1BWZuHSFBbpS_fzeiocMxDypiDW9Q_VMekJD3yXSARe1P4wA8v2uPVYVZBtDQSBbfhyY4cTtC11aOb6WOGhwh3f7WNBBqMZeX5oLnaVR-woELCykUWGBqu5kACPRI4dZuxruhR5z1Yn7Pvxy7TU2ve1lnb1FNGwKdJeWRUr_jLg8IX4ahnrxXj-U2SDFuF3XT_1eQ9ryfNmqxb0J9Wi6l_s9ZWSS8gATtXPmwU8vnOhiTSBN8g1UFD65sc-ozJRj_MgPvgNeL4SZbUz25zOTG9zOT5n-wLhQ-PFZqCDNsVDwUNBUserV5a1BIHJP4C3ys-eAenK9-fS9qvAZS4t4ZrE-nHGUCTpldOHCc_xyMOOKqJPY3Dtmvz2R_B-yVQsqnCtdF9LuN8qrz97YPfdApbvkhPrNVFLGWPxsxxawDioxOV_VOLGsHVSFAHQ9ovIGd52ihdo1Dan7ANoP425od65Gbj3SUSZ30I-NQM0tvod1MYtPkC_nxgw0e5SejvSuwZP5sxJy6wQt4s6FprEazlhn_lXnruBmX8lwiJCDN0UsVWmMHc4CeYAA-pZDZC2PVJKD4xXbi5R6hkyB_zJDASbpS5AhzxuGsDg8jfrxOyzLERxegYlY-UZoZtSy0Ds_l_Z5R9yABGMvWMj7r4cxLZyJqs5Rt2mSJIvIwZaF92ndRfferOVxU9gxJUh5tIPf2pgyBPwgv3aLCEA93Ni63Jy3Ul4fXa8QlVzK0Lb5vKhNR51DovNF270PYR1evgJhkembWcz6OLAF2ezTJRdPs4McqolFunnQB_MwLfiTjRf13qmhjkQxIxdh4g93kq-441opT8c1RwVtC-JqVNy-iVhsRZZgz-36g6mh-YXBaMElBGvi1t4Gpj8bLEfIDvuTlvgA73FTf--H_S7IseIyfMo_NfOwqQpRXuRZMZjnfXgdPE5ZwUqFN7hfxIJUp6VJ4Fd7To5i8HhjmJb0DTqqVpsofLoRkG3ZBNacuioX2HDcAY7ANnB7lZCFF_dl6zuVV_fUXOK-1NTrsNZ-PASGFL1MGNW4fnwlW__93ZZG1xIynSue1UIyRljHEmIwgMxqfgoS-KXCHX9HuqH73rToq9RD-StMs9FLr_dtLMZHsxJd80ZgYJSkIvb7OuHd3Hcr43PvvARGQhdhbmFJ3PWQF3ZSS-_emDxIFn4iDaSbuU-cSvmskAFRC0aZDGXpqaGCf_9S79xUpsTVSrMXzBn39ZN0y01gSzDHhQKQhFiawjUtQIIXoT7OpOawOx7bwC96z9dOMX-fZhYFI9Yf9Qwq5HDMqwFLSXtXSSkDzwJzibD19FS3JLCMIV3k3gcpj97SdgegJ_J-8rOvpbZc-Xqg2TmmyKsa-pujfhpHC5QyME-7ityFeUPNsCQkDSmT4KMyGF0dhXtmnb2ysX0uqSstDGGvOf6j8GRqQplr93Nq-djpyuCx5rPCsd7Plf6LZXq8-VIjdyd6DJlCpoYNx7L233SRDir4ZqnDvbyhTrWC81axGxYcyQ6wWLPnY7Qth24BFFdCDN6HlUAm9yfTnuN21qlAa_3Jy_nPuiy7isl4VOS5GXBdlanMZ3Ea07cfLA3WIzwszA_LJZZ_4hdV4wHxa52bZ1fXoVg25GtC7SUPkCqY2FIATBrShquxSQ35ATTTcu_G5aw4qvBGmS60oV4P-xUsnttVc93wNJysiAwYKQCKKBu_runrfAoIbrHeL26ExvQUbiXTsayB0mQRqBQkKDubJ6xwl2a4Jsyd3v6U8l6pn6X603hEqeJGgyAIl2DLmcSEmw9o66_uVA7FlQSoyUJyS7fs9aJCXUWgBD388WBH_BGYYnKjLV0gWjVKbvuEIzeh7qHlp_1aROxRx334n5s4v-3WIFRzMLIPDipO_PBzdJKlj5ScwBixF3RpsnH3ui-rSLKfVRTg9V-VdFyZJFd1-3dtZaEPH4DlN7o_cXAxTJC37zvHatLdonaRbPcPyEJGJqq5tQtI4WPGLaSdiIcGd-KyQDwLCWUdWs9NL29pPxSJq9FIjpEZ-Vv1wEUJFIZs3dhdT4bLnxfrohFdCMfj8sve1Er8_yF?></g></svg>