<svg xmlns="http://www.w3.org/2000/svg" xmlns:xlink="http://www.w3.org/1999/xlink" contentStyleType="text/css" data-diagram-type="DESCRIPTION" height="594px" preserveAspectRatio="none" style="width:868px;height:594px;background:#FFFFFF;" version="1.1" viewBox="0 0 868 594" width="868px" zoomAndPan="magnify"><?plantuml 1.2026.3?><defs/><g><g class="title" data-source-line="4"><text fill="#000000" font-family="sans-serif" font-size="14" font-weight="700" lengthAdjust="spacing" textLength="285.1611" x="287.9594" y="23.5352">mdd view &#8212; diagram viewer (objective)</text></g><!--cluster mdd-viewer--><g class="cluster" data-qualified-name="mdd-viewer" data-source-line="10" id="ent0003"><rect fill="none" height="251" rx="2.5" ry="2.5" style="stroke:#181818;stroke-width:1;" width="686.91" x="167.17" y="161.4183"/><text fill="#000000" font-family="sans-serif" font-size="14" font-weight="700" lengthAdjust="spacing" textLength="88.7783" x="466.2358" y="176.9534">mdd-viewer</text></g><!--entity View--><g class="entity" data-qualified-name="mdd-viewer.View" data-source-line="11" id="ent0004"><ellipse cx="302.9149" cy="228.4173" fill="#F1F1F1" rx="119.7449" ry="26.349" style="stroke:#181818;stroke-width:0.5;"/><text fill="#000000" font-family="sans-serif" font-size="14" lengthAdjust="spacing" textLength="157.6641" x="224.0828" y="224.1836">View rendered diagram</text><text fill="#000000" font-family="sans-serif" font-size="14" lengthAdjust="spacing" textLength="172.3271" x="216.7513" y="240.6719">(shapes AND text legible)</text></g><!--entity Browse--><g class="entity" data-qualified-name="mdd-viewer.Browse" data-source-line="12" id="ent0005"><ellipse cx="714.7931" cy="214.4189" fill="#F1F1F1" rx="78.9031" ry="18.1806" style="stroke:#181818;stroke-width:0.5;"/><text fill="#000000" font-family="sans-serif" font-size="14" lengthAdjust="spacing" textLength="127.4697" x="651.0582" y="219.163">Browse model files</text></g><!--entity PanZoom--><g class="entity" data-qualified-name="mdd-viewer.PanZoom" data-source-line="13" id="ent0006"><ellipse cx="714.7897" cy="287.4142" fill="#F1F1F1" rx="87.1297" ry="19.8259" style="stroke:#181818;stroke-width:0.5;"/><text fill="#000000" font-family="sans-serif" font-size="14" lengthAdjust="spacing" textLength="146.6787" x="641.4504" y="292.1584">Pan and zoom canvas</text></g><!--entity Graph--><g class="entity" data-qualified-name="mdd-viewer.Graph" data-source-line="14" id="ent0007"><ellipse cx="302.9105" cy="314.4144" fill="#F1F1F1" rx="80.4305" ry="18.4861" style="stroke:#181818;stroke-width:0.5;"/><text fill="#000000" font-family="sans-serif" font-size="14" lengthAdjust="spacing" textLength="131.0928" x="237.3641" y="319.1585">Inspect trace graph</text></g><!--entity Trace--><g class="entity" data-qualified-name="mdd-viewer.Trace" data-source-line="15" id="ent0008"><ellipse cx="714.7882" cy="369.4159" fill="#F1F1F1" rx="123.2882" ry="27.0576" style="stroke:#181818;stroke-width:0.5;"/><text fill="#000000" font-family="sans-serif" font-size="14" lengthAdjust="spacing" textLength="226.0098" x="601.7833" y="374.1601">Inspect model IDs and trace links</text></g><!--entity Dev--><g class="entity" data-qualified-name="Dev" data-source-line="8" id="ent0002"><ellipse cx="40.1592" cy="355.6683" fill="#F1F1F1" rx="8" ry="8" style="stroke:#181818;stroke-width:0.5;"/><path d="M40.1592,363.6683 L40.1592,390.6683 M27.1592,371.6683 L53.1592,371.6683 M40.1592,390.6683 L27.1592,405.6683 M40.1592,390.6683 L53.1592,405.6683" fill="none" style="stroke:#181818;stroke-width:0.5;"/><text fill="#000000" font-family="sans-serif" font-size="14" lengthAdjust="spacing" textLength="68.3184" x="6" y="420.7034">Developer</text></g><g class="entity" data-qualified-name="GMN17" data-source-line="29" id="ent0018"><path d="M135.32,43.4883 L135.32,145.3516 A0,0 0 0 0 135.32,145.3516 L298.91,145.3516 L302.91,201.7183 L306.91,145.3516 L470.5036,145.3516 A0,0 0 0 0 470.5036,145.3516 L470.5036,53.4883 L460.5036,43.4883 L135.32,43.4883 A0,0 0 0 0 135.32,43.4883" fill="#FEFFDD" style="stroke:#181818;stroke-width:0.5;"/><path d="M460.5036,43.4883 L460.5036,53.4883 L470.5036,53.4883 L460.5036,43.4883" fill="#FEFFDD" style="stroke:#181818;stroke-width:0.5;"/><text fill="#000000" font-family="sans-serif" font-size="13" lengthAdjust="spacing" textLength="265.6748" x="141.32" y="61.0566">Objective: every label, actor, message and</text><text fill="#000000" font-family="sans-serif" font-size="13" lengthAdjust="spacing" textLength="271.1655" x="141.32" y="76.3672">note in a rendered diagram is visible in the</text><text fill="#000000" font-family="sans-serif" font-size="13" lengthAdjust="spacing" textLength="282.3691" x="141.32" y="91.6777">in-app canvas &#8212; not only in an external SVG</text><text fill="#000000" font-family="sans-serif" font-size="13" lengthAdjust="spacing" textLength="314.1836" x="141.32" y="106.9883">viewer. Realized by SEQ-RENDER-DIAGRAM-PAGE</text><text fill="#000000" font-family="sans-serif" font-size="13" lengthAdjust="spacing" textLength="292.1191" x="141.32" y="122.2988">which must consult a populated font database</text><text fill="#000000" font-family="sans-serif" font-size="13" lengthAdjust="spacing" textLength="276.5991" x="141.32" y="137.6094">(DOM-FONT-DATABASE) before rasterizing.</text></g><!--link Dev to View--><g class="link" data-entity-1="ent0002" data-entity-2="ent0004" data-link-type="dependency" data-source-line="18" id="lnk9"><path d="M66.68,346.8383 C83.65,323.9483 107.83,296.0483 135.32,278.4183 C158.19,263.7383 179.8068,254.8772 205.7068,247.3772" fill="none" id="Dev-to-View" style="stroke:#181818;stroke-width:1;"/><polygon fill="#181818" points="211.47,245.7083,201.7126,244.3695,206.6673,247.099,203.9377,252.0538,211.47,245.7083" style="stroke:#181818;stroke-width:1;"/></g><!--link Dev to Browse--><g class="link" data-entity-1="ent0002" data-entity-2="ent0005" data-link-type="dependency" data-source-line="19" id="lnk10"><path d="M74.63,388.3983 C177.47,396.8183 486.47,416.5183 561.5,356.4183 C599.72,325.8083 557.06,285.2183 591.5,250.4183 C605.36,236.4183 618.5815,229.4135 637.4715,224.1335" fill="none" id="Dev-to-Browse" style="stroke:#181818;stroke-width:1;"/><polygon fill="#181818" points="643.25,222.5183,633.5054,221.0887,638.4346,223.8643,635.659,228.7934,643.25,222.5183" style="stroke:#181818;stroke-width:1;"/></g><!--link Dev to PanZoom--><g class="link" data-entity-1="ent0002" data-entity-2="ent0006" data-link-type="dependency" data-source-line="20" id="lnk11"><path d="M74.62,399.9883 C163.52,436.2283 409.23,519.9783 561.5,411.4183 C594.81,387.6683 562.03,352.7783 591.5,324.4183 C604.77,311.6483 616.5516,305.0531 634.1716,299.5631" fill="none" id="Dev-to-PanZoom" style="stroke:#181818;stroke-width:1;"/><polygon fill="#181818" points="639.9,297.7783,630.1175,296.6366,635.1263,299.2656,632.4973,304.2745,639.9,297.7783" style="stroke:#181818;stroke-width:1;"/></g><!--link Dev to Graph--><g class="link" data-entity-1="ent0002" data-entity-2="ent0007" data-link-type="dependency" data-source-line="21" id="lnk12"><path d="M74.54,370.4583 C84.04,366.5383 94.49,362.5383 104.32,359.4183 C148.58,345.3683 193.8576,335.0305 233.0176,327.1605" fill="none" id="Dev-to-Graph" style="stroke:#181818;stroke-width:1;"/><polygon fill="#181818" points="238.9,325.9783,229.2883,323.83,233.998,326.9634,230.8645,331.6731,238.9,325.9783" style="stroke:#181818;stroke-width:1;"/></g><!--link Dev to Trace--><g class="link" data-entity-1="ent0002" data-entity-2="ent0008" data-link-type="dependency" data-source-line="22" id="lnk13"><path d="M55.31,423.7283 C65.42,445.1483 81.35,469.9683 104.32,482.4183 C282.95,579.2683 368.57,546.1783 561.5,482.4183 C612.77,465.4783 656.5906,428.0941 684.5306,400.3741" fill="none" id="Dev-to-Trace" style="stroke:#181818;stroke-width:1;"/><polygon fill="#181818" points="688.79,396.1483,679.5837,399.6475,685.2405,399.6698,685.2182,405.3266,688.79,396.1483" style="stroke:#181818;stroke-width:1;"/></g><!--link View to Browse--><g class="link" data-entity-1="ent0004" data-entity-2="ent0005" data-link-type="dependency" data-source-line="24" id="lnk14"><path d="M421.64,224.3983 C490.59,222.0383 569.7335,219.3323 630.2735,217.2723" fill="none" id="View-to-Browse" style="stroke:#181818;stroke-width:1;stroke-dasharray:7,7;"/><polygon fill="#181818" points="636.27,217.0683,627.1392,213.3767,631.2729,217.2383,627.4112,221.372,636.27,217.0683" style="stroke:#181818;stroke-width:1;"/><text fill="#000000" font-family="sans-serif" font-size="13" lengthAdjust="spacing" textLength="59.3569" x="501.5" y="216.3166">&#171;include&#187;</text></g><!--link View to PanZoom--><g class="link" data-entity-1="ent0004" data-entity-2="ent0006" data-link-type="dependency" data-source-line="25" id="lnk15"><path d="M404.18,242.8483 C477.17,253.3583 568.4512,266.4937 634.3312,275.9737" fill="none" id="View-to-PanZoom" style="stroke:#181818;stroke-width:1;stroke-dasharray:7,7;"/><polygon fill="#181818" points="640.27,276.8283,631.9315,271.5872,635.321,276.1161,630.792,279.5056,640.27,276.8283" style="stroke:#181818;stroke-width:1;"/><text fill="#000000" font-family="sans-serif" font-size="13" lengthAdjust="spacing" textLength="57.1924" x="502.5" y="254.4866">&#171;extend&#187;</text></g><!--link Graph to Trace--><g class="link" data-entity-1="ent0007" data-entity-2="ent0008" data-link-type="dependency" data-source-line="26" id="lnk16"><path d="M372.98,323.6883 C437.43,332.3283 528.5633,344.5605 602.6533,354.5005" fill="none" id="Graph-to-Trace" style="stroke:#181818;stroke-width:1;stroke-dasharray:7,7;"/><polygon fill="#181818" points="608.6,355.2983,600.2118,350.1371,603.6444,354.6334,599.148,358.066,608.6,355.2983" style="stroke:#181818;stroke-width:1;"/><text fill="#000000" font-family="sans-serif" font-size="13" lengthAdjust="spacing" textLength="59.3569" x="501.5" y="338.4866">&#171;include&#187;</text></g><?plantuml-src RLF1Zjem4BtxAqPS5gGD7x1QeMQL577OPGkKLbKlasG8RXqxjHqeL9Nw4Vt2Vad73jcYjYUOcJTltenVRk2LhCPlrtcoNUJlacoHpbVfuteYRc1PVABIomCbJbO4dQEaH4Tma7Iy0uSDWJArB5656iGQEYWxQqdxMoWw3z8xPiAofDQZBWcqEOAbBvsqvC3lqKCbiRROm2P_lm7fG54j2qLWDDS3hJwWcmelFIURgehpuTUFdo-T8K4MncOGF152qSw3Ds1blGypRAWOBGIMtbWOPNGWPLgoew2P8o4217NDKqOy9kbPH_1DGDWlhZVQXjcyNaMMga70HprsUsnveVGf0qzV_R349BA7fckI1skE_DkOYXJif28NONtw6lYC6b1NS3QckHmY8Zd_WLFNq8LsBUi7Rv6lpAhQVOJEmx__0VlfYyp52NsRalfpFs4JOl5T2BuC9Ccits48Bag7S90pnFtC8UgfHBpST3eqmntStqjTggwYsUnFzS8Lotn8lZHN8s4iHxA_UeKsdg0mtdEVsGtdVh7l7V1RsnCeB4ZTGZJ0BJJa7DOKjcTmf91yxNyUDrZo85sqf8oMPBZK2RRjvKcY5vc07QjEaKH3a6urVndhxPpnlPUci29KyipanGdM-PjabJzb-MhuwfBdT9up-hYNvHwQpdaeZNQTygohDMsdq7FlpcXsD7eiCDfbd2qVazVBfqsIfPlq8Ltd4oXePoo1HSSwv5dgUYfuiRZdRm00?></g></svg>