<svg xmlns="http://www.w3.org/2000/svg" xmlns:xlink="http://www.w3.org/1999/xlink" contentStyleType="text/css" data-diagram-type="DESCRIPTION" height="1342px" preserveAspectRatio="none" style="width:1060px;height:1342px;background:#FFFFFF;" version="1.1" viewBox="0 0 1060 1342" width="1060px" zoomAndPan="magnify"><?plantuml 1.2026.3?><defs/><g><g class="title" data-source-line="16"><text fill="#000000" font-family="sans-serif" font-size="14" font-weight="700" lengthAdjust="spacing" textLength="285.1611" x="383.9617" y="23.5352">mdd view &#8212; diagram viewer (objective)</text></g><!--cluster mdd-viewer--><g class="cluster" data-qualified-name="mdd-viewer" data-source-line="22" id="ent0003"><rect fill="none" height="388" rx="2.5" ry="2.5" style="stroke:#181818;stroke-width:1;" width="786.19" x="190.82" y="603.6583"/><text fill="#000000" font-family="sans-serif" font-size="14" font-weight="700" lengthAdjust="spacing" textLength="88.7783" x="539.5258" y="619.1934">mdd-viewer</text></g><!--entity View--><g class="entity" data-qualified-name="mdd-viewer.View" data-source-line="23" id="ent0004"><ellipse cx="331.9849" cy="857.6573" fill="#F1F1F1" rx="119.7449" ry="26.349" style="stroke:#181818;stroke-width:0.5;"/><text fill="#000000" font-family="sans-serif" font-size="14" lengthAdjust="spacing" textLength="157.6641" x="253.1528" y="853.4236">View rendered diagram</text><text fill="#000000" font-family="sans-serif" font-size="14" lengthAdjust="spacing" textLength="172.3271" x="245.8213" y="869.9119">(shapes AND text legible)</text></g><!--entity Browse--><g class="entity" data-qualified-name="mdd-viewer.Browse" data-source-line="24" id="ent0005"><ellipse cx="847.3631" cy="957.6589" fill="#F1F1F1" rx="78.9031" ry="18.1806" style="stroke:#181818;stroke-width:0.5;"/><text fill="#000000" font-family="sans-serif" font-size="14" lengthAdjust="spacing" textLength="127.4697" x="783.6282" y="962.403">Browse model files</text></g><!--entity PanZoom--><g class="entity" data-qualified-name="mdd-viewer.PanZoom" data-source-line="25" id="ent0006"><ellipse cx="847.3644" cy="712.6545" fill="#F1F1F1" rx="112.8544" ry="25.9162" style="stroke:#181818;stroke-width:0.5;"/><text fill="#000000" font-family="sans-serif" font-size="14" lengthAdjust="spacing" textLength="146.6787" x="774.025" y="708.5813">Pan and zoom canvas</text><text fill="#000000" font-family="sans-serif" font-size="14" lengthAdjust="spacing" textLength="158.0811" x="768.3239" y="725.0696">(scroll zoom, drag pan)</text></g><!--entity Fisheye--><g class="entity" data-qualified-name="mdd-viewer.Fisheye" data-source-line="26" id="ent0007"><ellipse cx="847.364" cy="883.6551" fill="#F1F1F1" rx="93.784" ry="21.1568" style="stroke:#181818;stroke-width:0.5;"/><text fill="#000000" font-family="sans-serif" font-size="14" lengthAdjust="spacing" textLength="161.7725" x="766.4777" y="888.3992">Focus via center fisheye</text></g><!--entity Panels--><g class="entity" data-qualified-name="mdd-viewer.Panels" data-source-line="27" id="ent0008"><ellipse cx="847.3643" cy="802.6571" fill="#F1F1F1" rx="113.6443" ry="25.1289" style="stroke:#181818;stroke-width:0.5;"/><text fill="#000000" font-family="sans-serif" font-size="14" lengthAdjust="spacing" textLength="205.3584" x="744.6851" y="807.4013">Collapse / expand side panels</text></g><!--entity Trace--><g class="entity" data-qualified-name="mdd-viewer.Trace" data-source-line="28" id="ent0009"><ellipse cx="331.9782" cy="945.6559" fill="#F1F1F1" rx="123.2882" ry="27.0576" style="stroke:#181818;stroke-width:0.5;"/><text fill="#000000" font-family="sans-serif" font-size="14" lengthAdjust="spacing" textLength="226.0098" x="218.9733" y="950.4001">Inspect model IDs and trace links</text></g><!--entity ViewOcl--><g class="entity" data-qualified-name="mdd-viewer.ViewOcl" data-source-line="29" id="ent0010"><ellipse cx="331.9839" cy="770.6592" fill="#F1F1F1" rx="103.0539" ry="25.9009" style="stroke:#181818;stroke-width:0.5;"/><text fill="#000000" font-family="sans-serif" font-size="14" lengthAdjust="spacing" textLength="144.0742" x="259.9468" y="767.7544">View OCL constraints</text><text fill="#000000" font-family="sans-serif" font-size="14" lengthAdjust="spacing" textLength="133.2666" x="265.3506" y="784.2427">(source or diagram)</text></g><!--entity ViewDeploy--><g class="entity" data-qualified-name="mdd-viewer.ViewDeploy" data-source-line="30" id="ent0011"><ellipse cx="331.9829" cy="674.6608" fill="#F1F1F1" rx="125.1529" ry="35.5525" style="stroke:#181818;stroke-width:0.5;"/><text fill="#000000" font-family="sans-serif" font-size="14" lengthAdjust="spacing" textLength="183.8115" x="240.0771" y="666.2059">View deployment diagrams</text><text fill="#000000" font-family="sans-serif" font-size="14" lengthAdjust="spacing" textLength="185.6162" x="239.1748" y="682.6942">(dedicated DEPLOY section,</text><text fill="#000000" font-family="sans-serif" font-size="14" lengthAdjust="spacing" textLength="124.332" x="269.8169" y="699.1825">NOT parity-gated)</text></g><!--entity Dev--><g class="entity" data-qualified-name="Dev" data-source-line="20" id="ent0002"><ellipse cx="40.1592" cy="975.9183" fill="#F1F1F1" rx="8" ry="8" style="stroke:#181818;stroke-width:0.5;"/><path d="M40.1592,983.9183 L40.1592,1010.9183 M27.1592,991.9183 L53.1592,991.9183 M40.1592,1010.9183 L27.1592,1025.9183 M40.1592,1010.9183 L53.1592,1025.9183" fill="none" style="stroke:#181818;stroke-width:0.5;"/><text fill="#000000" font-family="sans-serif" font-size="14" lengthAdjust="spacing" textLength="68.3184" x="6" y="1040.9534">Developer</text></g><g class="entity" data-qualified-name="GMN26" data-source-line="50" id="ent0027"><path d="M182.17,303.1083 L182.17,466.2137 L481.7877,466.2137 L481.7877,313.1083 L471.7877,303.1083 L182.17,303.1083" fill="#FEFFDD" style="stroke:#181818;stroke-width:0.5;"/><path d="M471.7877,303.1083 L471.7877,313.1083 L481.7877,313.1083 L471.7877,303.1083" fill="#FEFFDD" style="stroke:#181818;stroke-width:1;"/><text fill="#000000" font-family="sans-serif" font-size="13" lengthAdjust="spacing" textLength="241.6743" x="188.17" y="320.6766">Objective (USE-VIEW-OCL): selecting a</text><text fill="#000000" font-family="sans-serif" font-size="13" lengthAdjust="spacing" textLength="223.4248" x="188.17" y="335.9872">.mdd/constraints/*.ocl file shows a</text><text fill="#000000" font-family="sans-serif" font-size="13" lengthAdjust="spacing" textLength="248.0664" x="188.17" y="351.2977">Source | Diagram toggle on the canvas.</text><text fill="#000000" font-family="sans-serif" font-size="13" lengthAdjust="spacing" textLength="217.0454" x="188.17" y="366.6083">Source = raw OCL text (read-only,</text><text fill="#000000" font-family="sans-serif" font-size="13" lengthAdjust="spacing" textLength="259.3462" x="188.17" y="381.9188">@id/context/inv highlighted); Diagram =</text><text fill="#000000" font-family="sans-serif" font-size="13" lengthAdjust="spacing" textLength="278.6177" x="188.17" y="397.2294">a synthesized PlantUML constraints diagram</text><text fill="#000000" font-family="sans-serif" font-size="13" lengthAdjust="spacing" textLength="244.4546" x="188.17" y="412.5399">(context box + inv notes + @ref to the</text><text fill="#000000" font-family="sans-serif" font-size="13" lengthAdjust="spacing" textLength="270.9561" x="188.17" y="427.8505">DOM- it constrains) rasterized through the</text><text fill="#000000" font-family="sans-serif" font-size="13" lengthAdjust="spacing" textLength="214.0557" x="188.17" y="443.161">existing SVG pipeline. Realized by</text><text fill="#000000" font-family="sans-serif" font-size="13" lengthAdjust="spacing" textLength="99.7407" x="188.17" y="458.4716">SEQ-VIEW-OCL.</text></g><g class="entity" data-qualified-name="GMN29" data-source-line="63" id="ent0030"><path d="M139.82,501.3783 L139.82,587.931 L524.1408,587.931 L524.1408,511.3783 L514.1408,501.3783 L139.82,501.3783" fill="#FEFFDD" style="stroke:#181818;stroke-width:0.5;"/><path d="M514.1408,501.3783 L514.1408,511.3783 L524.1408,511.3783 L514.1408,501.3783" fill="#FEFFDD" style="stroke:#181818;stroke-width:1;"/><text fill="#000000" font-family="sans-serif" font-size="13" lengthAdjust="spacing" textLength="265.6748" x="145.82" y="518.9466">Objective: every label, actor, message and</text><text fill="#000000" font-family="sans-serif" font-size="13" lengthAdjust="spacing" textLength="271.1655" x="145.82" y="534.2572">note in a rendered diagram is visible in the</text><text fill="#000000" font-family="sans-serif" font-size="13" lengthAdjust="spacing" textLength="363.3208" x="145.82" y="549.5677">in-app canvas. Realized by SEQ-RENDER-DIAGRAM-PAGE</text><text fill="#000000" font-family="sans-serif" font-size="13" lengthAdjust="spacing" textLength="292.1191" x="145.82" y="564.8783">which must consult a populated font database</text><text fill="#000000" font-family="sans-serif" font-size="13" lengthAdjust="spacing" textLength="276.5991" x="145.82" y="580.1888">(DOM-FONT-DATABASE) before rasterizing.</text></g><g class="entity" data-qualified-name="GMN32" data-source-line="71" id="ent0033"><path d="M649.63,470.0683 L649.63,587.2421 L1045.0846,587.2421 L1045.0846,480.0683 L1035.0846,470.0683 L649.63,470.0683" fill="#FEFFDD" style="stroke:#181818;stroke-width:0.5;"/><path d="M1035.0846,470.0683 L1035.0846,480.0683 L1045.0846,480.0683 L1035.0846,470.0683" fill="#FEFFDD" style="stroke:#181818;stroke-width:1;"/><text fill="#000000" font-family="sans-serif" font-size="13" lengthAdjust="spacing" textLength="336.2163" x="655.63" y="487.6366">Objective (USE-FISHEYE-FOCUS): the canvas applies a</text><text fill="#000000" font-family="sans-serif" font-size="13" lengthAdjust="spacing" textLength="341.4341" x="655.63" y="502.9472">center-fixed fisheye over the rendered diagram &#8212; the</text><text fill="#000000" font-family="sans-serif" font-size="13" lengthAdjust="spacing" textLength="374.4546" x="655.63" y="518.2577">centre bulges/magnifies and content compresses smoothly</text><text fill="#000000" font-family="sans-serif" font-size="13" lengthAdjust="spacing" textLength="315.5674" x="655.63" y="533.5683">toward the edges. Layered ON TOP of the existing</text><text fill="#000000" font-family="sans-serif" font-size="13" lengthAdjust="spacing" textLength="344.1699" x="655.63" y="548.8788">scroll-to-zoom global zoom; drag still pans to bring a</text><text fill="#000000" font-family="sans-serif" font-size="13" lengthAdjust="spacing" textLength="284.7305" x="655.63" y="564.1894">region into the magnified centre. Realized by</text><text fill="#000000" font-family="sans-serif" font-size="13" lengthAdjust="spacing" textLength="144.8027" x="655.63" y="579.4999">SEQ-CANVAS-FISHEYE.</text></g><g class="entity" data-qualified-name="GMN35" data-source-line="81" id="ent0036"><path d="M671.83,272.6883 L671.83,328.6199 L1022.9018,328.6199 L1022.9018,282.6883 L1012.9018,272.6883 L671.83,272.6883" fill="#FEFFDD" style="stroke:#181818;stroke-width:0.5;"/><path d="M1012.9018,272.6883 L1012.9018,282.6883 L1022.9018,282.6883 L1012.9018,272.6883" fill="#FEFFDD" style="stroke:#181818;stroke-width:1;"/><text fill="#000000" font-family="sans-serif" font-size="13" lengthAdjust="spacing" textLength="330.0718" x="677.83" y="290.2566">The toolbar no longer has Reset / Zoom + / Zoom -</text><text fill="#000000" font-family="sans-serif" font-size="13" lengthAdjust="spacing" textLength="299.6982" x="677.83" y="305.5672">buttons. Zoom is scroll-only (global, at cursor);</text><text fill="#000000" font-family="sans-serif" font-size="13" lengthAdjust="spacing" textLength="300.8345" x="677.83" y="320.8777">the fisheye is the focus mechanism on top of it.</text></g><g class="entity" data-qualified-name="GMN38" data-source-line="87" id="ent0039"><path d="M658.61,364.0383 L658.61,435.2805 L1036.1071,435.2805 L1036.1071,374.0383 L1026.1071,364.0383 L658.61,364.0383" fill="#FEFFDD" style="stroke:#181818;stroke-width:0.5;"/><path d="M1026.1071,364.0383 L1026.1071,374.0383 L1036.1071,374.0383 L1026.1071,364.0383" fill="#FEFFDD" style="stroke:#181818;stroke-width:1;"/><text fill="#000000" font-family="sans-serif" font-size="13" lengthAdjust="spacing" textLength="356.4971" x="664.61" y="381.6066">Objective (USE-TOGGLE-PANELS): each side panel shows</text><text fill="#000000" font-family="sans-serif" font-size="13" lengthAdjust="spacing" textLength="322.3594" x="664.61" y="396.9172">an inner-edge chevron handle; clicking it collapses</text><text fill="#000000" font-family="sans-serif" font-size="13" lengthAdjust="spacing" textLength="271.8066" x="664.61" y="412.2277">the panel to a thin sliver, clicking the sliver</text><text fill="#000000" font-family="sans-serif" font-size="13" lengthAdjust="spacing" textLength="316.9321" x="664.61" y="427.5383">re-expands it. Realized by SEQ-PANEL-COLLAPSE.</text></g><g class="entity" data-qualified-name="GMN41" data-source-line="94" id="ent0042"><path d="M135.32,43.4883 L135.32,267.8359 L528.6354,267.8359 L528.6354,53.4883 L518.6354,43.4883 L135.32,43.4883" fill="#FEFFDD" style="stroke:#181818;stroke-width:0.5;"/><path d="M518.6354,43.4883 L518.6354,53.4883 L528.6354,53.4883 L518.6354,43.4883" fill="#FEFFDD" style="stroke:#181818;stroke-width:1;"/><text fill="#000000" font-family="sans-serif" font-size="13" lengthAdjust="spacing" textLength="315.3325" x="141.32" y="61.0566">Objective (USE-VIEW-DEPLOY): the left rail gains a</text><text fill="#000000" font-family="sans-serif" font-size="13" lengthAdjust="spacing" textLength="334.2612" x="141.32" y="76.3672">THIRD source. Today MddViewer::new() loads exactly</text><text fill="#000000" font-family="sans-serif" font-size="13" lengthAdjust="spacing" textLength="372.3154" x="141.32" y="91.6777">two &#8212; model_registry() (.mdd/models + .mdd/constraints)</text><text fill="#000000" font-family="sans-serif" font-size="13" lengthAdjust="spacing" textLength="315.6689" x="141.32" y="106.9883">and cycle_registry() (.mdd/cycles); .mdd/deploy is</text><text fill="#000000" font-family="sans-serif" font-size="13" lengthAdjust="spacing" textLength="355.4624" x="141.32" y="122.2988">reachable only as RenderTree::Deploy (an `mdd render`</text><text fill="#000000" font-family="sans-serif" font-size="13" lengthAdjust="spacing" textLength="294.0615" x="141.32" y="137.6094">rasterization target), so it never appears in the</text><text fill="#000000" font-family="sans-serif" font-size="13" lengthAdjust="spacing" textLength="311.2764" x="141.32" y="152.9199">interactive viewer. Objective: a dedicated DEPLOY</text><text fill="#000000" font-family="sans-serif" font-size="13" lengthAdjust="spacing" textLength="265.3892" x="141.32" y="168.2305">section, fed by Project::deploy_files(), lists</text><text fill="#000000" font-family="sans-serif" font-size="13" lengthAdjust="spacing" textLength="299.3872" x="141.32" y="183.541">.mdd/deploy/**/*.puml and paints the existing</text><text fill="#000000" font-family="sans-serif" font-size="13" lengthAdjust="spacing" textLength="345.0459" x="141.32" y="198.8516">.mdd/rendered/deploy/**/*.svg on the shared canvas.</text><text fill="#000000" font-family="sans-serif" font-size="13" lengthAdjust="spacing" textLength="305.5317" x="141.32" y="214.1621">It stays OUT of ModelRegistry: /mdd-deploy is a</text><text fill="#000000" font-family="sans-serif" font-size="13" lengthAdjust="spacing" textLength="301.374" x="141.32" y="229.4727">utility outside the parity gate, so /mdd-validate</text><text fill="#000000" font-family="sans-serif" font-size="13" lengthAdjust="spacing" textLength="363.4922" x="141.32" y="244.7832">and /mdd-review must continue to ignore .mdd/deploy/.</text><text fill="#000000" font-family="sans-serif" font-size="13" lengthAdjust="spacing" textLength="199.0498" x="141.32" y="260.0938">Realized by SEQ-VIEW-DEPLOY.</text></g><!--link Dev to View--><g class="link" data-entity-1="ent0002" data-entity-2="ent0004" data-link-type="dependency" data-source-line="33" id="lnk12"><path d="M66.38,967.0783 C83.24,944.3483 107.4,916.9483 135.32,900.6583 C161.83,885.1983 187.4411,876.5255 217.3211,870.1755" fill="none" id="Dev-to-View" style="stroke:#181818;stroke-width:1;"/><polygon fill="#181818" points="223.19,868.9283,213.5551,866.8865,218.2992,869.9677,215.2181,874.7118,223.19,868.9283" style="stroke:#181818;stroke-width:1;"/></g><!--link Dev to Browse--><g class="link" data-entity-1="ent0002" data-entity-2="ent0005" data-link-type="dependency" data-source-line="34" id="lnk13"><path d="M41.71,1044.2683 C44.68,1088.6383 57.07,1159.6883 104.32,1193.6583 C290.27,1327.3583 408.93,1283.4183 619.63,1193.6583 C727.31,1147.7883 805.4724,1028.1025 833.0824,981.0725" fill="none" id="Dev-to-Browse" style="stroke:#181818;stroke-width:1;"/><polygon fill="#181818" points="836.12,975.8983,828.114,981.6345,833.5886,980.2101,835.013,985.6847,836.12,975.8983" style="stroke:#181818;stroke-width:1;"/></g><!--link Dev to PanZoom--><g class="link" data-entity-1="ent0002" data-entity-2="ent0006" data-link-type="dependency" data-source-line="35" id="lnk14"><path d="M74.61,1010.4183 C154.97,1020.6183 364.39,1039.8883 528.63,990.6583 C574.12,977.0283 593.04,973.9983 619.63,934.6583 C663.83,869.2883 595.67,817.2383 649.63,759.6583 C671.91,735.8983 697.9841,724.3924 729.6841,717.8424" fill="none" id="Dev-to-PanZoom" style="stroke:#181818;stroke-width:1;"/><polygon fill="#181818" points="735.56,716.6283,725.9368,714.5322,730.6634,717.64,727.5556,722.3667,735.56,716.6283" style="stroke:#181818;stroke-width:1;"/></g><!--link Dev to Fisheye--><g class="link" data-entity-1="ent0002" data-entity-2="ent0007" data-link-type="dependency" data-source-line="36" id="lnk15"><path d="M50.74,1044.3183 C59.7,1071.4583 76.07,1105.8083 104.32,1122.6583 C202.66,1181.3283 532.89,1197.4183 619.63,1122.6583 C688.05,1063.6883 587.14,986.8783 649.63,921.6583 C676.53,893.5883 711.4526,883.3088 749.0026,880.0388" fill="none" id="Dev-to-Fisheye" style="stroke:#181818;stroke-width:1;"/><polygon fill="#181818" points="754.98,879.5183,745.6669,876.3142,749.9989,879.9521,746.361,884.284,754.98,879.5183" style="stroke:#181818;stroke-width:1;"/></g><!--link Dev to Panels--><g class="link" data-entity-1="ent0002" data-entity-2="ent0008" data-link-type="dependency" data-source-line="37" id="lnk16"><path d="M74.7,1035.9883 C83.71,1042.3983 93.87,1048.2583 104.32,1051.6583 C213.21,1087.1083 533.05,1126.5983 619.63,1051.6583 C689.92,990.8183 586.12,912.5383 649.63,844.6583 C671.29,821.5183 696.4146,810.6235 727.4446,804.7535" fill="none" id="Dev-to-Panels" style="stroke:#181818;stroke-width:1;"/><polygon fill="#181818" points="733.34,803.6383,723.7533,801.3809,728.4271,804.5677,725.2403,809.2415,733.34,803.6383" style="stroke:#181818;stroke-width:1;"/></g><!--link Dev to Trace--><g class="link" data-entity-1="ent0002" data-entity-2="ent0009" data-link-type="dependency" data-source-line="38" id="lnk17"><path d="M74.69,998.7183 C115.07,990.3583 178.6246,977.1946 235.0446,965.5146" fill="none" id="Dev-to-Trace" style="stroke:#181818;stroke-width:1;"/><polygon fill="#181818" points="240.92,964.2983,231.296,962.2058,236.0238,965.3119,232.9178,970.0397,240.92,964.2983" style="stroke:#181818;stroke-width:1;"/></g><!--link Dev to ViewOcl--><g class="link" data-entity-1="ent0002" data-entity-2="ent0010" data-link-type="dependency" data-source-line="39" id="lnk18"><path d="M49.4,967.2383 C60.89,923.2483 86.11,852.2883 135.32,813.6583 C162.2,792.5583 191.3517,782.3635 224.3617,776.5235" fill="none" id="Dev-to-ViewOcl" style="stroke:#181818;stroke-width:1;"/><polygon fill="#181818" points="230.27,775.4783,220.7108,773.1073,225.3465,776.3493,222.1045,780.985,230.27,775.4783" style="stroke:#181818;stroke-width:1;"/></g><!--link Dev to ViewDeploy--><g class="link" data-entity-1="ent0002" data-entity-2="ent0011" data-link-type="dependency" data-source-line="40" id="lnk19"><path d="M43.09,967.2783 C48.21,907.3583 66.94,791.8083 135.32,727.6583 C156.88,707.4283 179.5664,696.3752 208.1064,688.4952" fill="none" id="Dev-to-ViewDeploy" style="stroke:#181818;stroke-width:1;"/><polygon fill="#181818" points="213.89,686.8983,204.15,685.4379,209.0703,688.229,206.2792,693.1493,213.89,686.8983" style="stroke:#181818;stroke-width:1;"/></g><!--link View to Browse--><g class="link" data-entity-1="ent0004" data-entity-2="ent0005" data-link-type="dependency" data-source-line="42" id="lnk20"><path d="M426.02,874.2883 C458.82,881.1483 495.71,890.0183 528.63,900.6583 C542.46,905.1283 544.67,909.6383 558.63,913.6583 C629.78,934.1383 707.7515,944.9742 766.5515,951.0242" fill="none" id="View-to-Browse" style="stroke:#181818;stroke-width:1;stroke-dasharray:7,7;"/><polygon fill="#181818" points="772.52,951.6383,763.9767,946.7381,767.5463,951.1265,763.1579,954.6961,772.52,951.6383" style="stroke:#181818;stroke-width:1;"/><text fill="#000000" font-family="sans-serif" font-size="13" lengthAdjust="spacing" textLength="59.3569" x="559.63" y="910.2266">&#171;include&#187;</text></g><!--link View to PanZoom--><g class="link" data-entity-1="ent0004" data-entity-2="ent0006" data-link-type="dependency" data-source-line="43" id="lnk21"><path d="M425.09,840.8783 C458.14,833.8283 495.42,824.6783 528.63,813.6583 C584.53,795.1083 593.87,778.5783 649.63,759.6583 C685.38,747.5283 719.9445,738.6072 754.7945,730.8172" fill="none" id="View-to-PanZoom" style="stroke:#181818;stroke-width:1;stroke-dasharray:7,7;"/><polygon fill="#181818" points="760.65,729.5083,750.9942,727.5679,755.7704,730.599,752.7393,735.3753,760.65,729.5083" style="stroke:#181818;stroke-width:1;"/><text fill="#000000" font-family="sans-serif" font-size="13" lengthAdjust="spacing" textLength="57.1924" x="560.63" y="768.4166">&#171;extend&#187;</text></g><!--link View to Fisheye--><g class="link" data-entity-1="ent0004" data-entity-2="ent0007" data-link-type="dependency" data-source-line="44" id="lnk22"><path d="M430.46,872.9483 C470.11,878.4483 516.46,883.9583 558.63,886.6583 C624.32,890.8583 692.6033,890.1484 749.2333,888.2584" fill="none" id="View-to-Fisheye" style="stroke:#181818;stroke-width:1;stroke-dasharray:7,7;"/><polygon fill="#181818" points="755.23,888.0583,746.1016,884.3607,750.2328,888.2251,746.3684,892.3563,755.23,888.0583" style="stroke:#181818;stroke-width:1;"/><text fill="#000000" font-family="sans-serif" font-size="13" lengthAdjust="spacing" textLength="57.1924" x="560.63" y="883.2266">&#171;extend&#187;</text></g><!--link View to Panels--><g class="link" data-entity-1="ent0004" data-entity-2="ent0008" data-link-type="dependency" data-source-line="45" id="lnk23"><path d="M442.95,847.4683 C496.32,842.3783 561.35,835.9783 619.63,829.6583 C661.51,825.1183 701.7232,820.4172 741.4132,815.6272" fill="none" id="View-to-Panels" style="stroke:#181818;stroke-width:1;stroke-dasharray:7,7;"/><polygon fill="#181818" points="747.37,814.9083,737.9556,812.0154,742.406,815.5074,738.9141,819.9578,747.37,814.9083" style="stroke:#181818;stroke-width:1;"/><text fill="#000000" font-family="sans-serif" font-size="13" lengthAdjust="spacing" textLength="57.1924" x="560.63" y="826.2266">&#171;extend&#187;</text></g><!--link ViewOcl to PanZoom--><g class="link" data-entity-1="ent0010" data-entity-2="ent0006" data-link-type="dependency" data-source-line="46" id="lnk24"><path d="M426.54,760.0883 C516.78,749.8983 646.9679,735.1817 739.5779,724.7217" fill="none" id="ViewOcl-to-PanZoom" style="stroke:#181818;stroke-width:1;stroke-dasharray:7,7;"/><polygon fill="#181818" points="745.54,724.0483,736.1479,721.0837,740.5716,724.6094,737.0458,729.0331,745.54,724.0483" style="stroke:#181818;stroke-width:1;"/><text fill="#000000" font-family="sans-serif" font-size="13" lengthAdjust="spacing" textLength="57.1924" x="560.63" y="736.4866">&#171;extend&#187;</text></g><!--link ViewDeploy to PanZoom--><g class="link" data-entity-1="ent0011" data-entity-2="ent0006" data-link-type="dependency" data-source-line="47" id="lnk25"><path d="M453.99,682.8483 C505.11,686.3683 565.28,690.6083 619.63,694.6583 C659.01,697.5983 696.2391,700.5103 734.2791,703.5503" fill="none" id="ViewDeploy-to-PanZoom" style="stroke:#181818;stroke-width:1;stroke-dasharray:7,7;"/><polygon fill="#181818" points="740.26,704.0283,731.6073,699.324,735.2759,703.63,730.97,707.2986,740.26,704.0283" style="stroke:#181818;stroke-width:1;"/><text fill="#000000" font-family="sans-serif" font-size="13" lengthAdjust="spacing" textLength="57.1924" x="560.63" y="687.2066">&#171;extend&#187;</text></g><!--link ViewOcl to GMN26--><g class="link" data-entity-1="ent0010" data-entity-2="ent0027" data-link-type="association" data-source-line="50" id="lnk28"><path d="M229.14,773.5183 C181.24,768.6083 129.46,752.7183 104.82,710.1583 C81.54,669.9683 81.54,541.3483 104.82,501.1583 C122.42,470.7683 150.9,448.0183 181.82,431.1083" fill="none" id="ViewOcl-GMN26" style="stroke:#181818;stroke-width:1;stroke-dasharray:7,7;"/></g><!--link View to GMN29--><g class="link" data-entity-1="ent0004" data-entity-2="ent0030" data-link-type="association" data-source-line="63" id="lnk31"><path d="M211.76,857.6583 C169.2,850.6183 126.52,833.6383 104.82,796.1583 C70.07,736.1583 70.07,700.1583 104.82,640.1583 C117.52,618.2283 136.51,601.3283 158.2,588.3083" fill="none" id="View-GMN29" style="stroke:#181818;stroke-width:1;stroke-dasharray:7,7;"/></g><!--link Fisheye to GMN32--><g class="link" data-entity-1="ent0007" data-entity-2="ent0033" data-link-type="association" data-source-line="71" id="lnk34"><path d="M759.48,891.4083 C700.8,891.1783 627.57,879.2883 589.13,828.1583 C538.93,761.3683 543.23,709.9783 589.13,640.1583 C604.36,616.9983 625.52,598.6383 649.24,584.0683" fill="none" id="Fisheye-GMN32" style="stroke:#181818;stroke-width:1;stroke-dasharray:7,7;"/></g><!--link PanZoom to GMN35--><g class="link" data-entity-1="ent0006" data-entity-2="ent0036" data-link-type="association" data-source-line="81" id="lnk37"><path d="M761.05,695.6783 C701.5,678.9783 626.55,646.9483 589.13,587.1583 C536.55,503.1483 529.58,443.3783 589.13,364.1583 C609.45,337.1283 639.29,320.3683 671.53,310.2083" fill="none" id="PanZoom-GMN35" style="stroke:#181818;stroke-width:1;stroke-dasharray:7,7;"/></g><!--link Panels to GMN38--><g class="link" data-entity-1="ent0008" data-entity-2="ent0039" data-link-type="association" data-source-line="87" id="lnk40"><path d="M733.71,804.8483 C680.79,799.2783 622.31,782.2983 589.13,738.1583 C517.56,642.9483 517.56,565.3683 589.13,470.1583 C606.73,446.7583 631.3,430.5983 658.35,419.5483" fill="none" id="Panels-GMN38" style="stroke:#181818;stroke-width:1;stroke-dasharray:7,7;"/></g><!--link ViewDeploy to GMN41--><g class="link" data-entity-1="ent0011" data-entity-2="ent0042" data-link-type="association" data-source-line="94" id="lnk43"><path d="M215.8,661.1383 C172.27,649.4583 127.82,627.8683 104.82,588.1583 C73.08,533.3483 74.6,358.8183 104.82,303.1583 C112.9,288.2783 123.19,274.6783 134.93,262.2683" fill="none" id="ViewDeploy-GMN41" style="stroke:#181818;stroke-width:1;stroke-dasharray:7,7;"/></g><?plantuml-src ZLVTSYAt4hxdALI-MTXby3tUR2qnhECgspY6zJavbQgic1634Z6Y985DpabL7Y9Fc2SvNxSqC8ETJQvWf5QhVpvztVr6VDH5z_DiaZrUJ_wLZQz7Lm-ZsrclyqPyB9JFNsxrnTbOxPIn6-N4JgidBwHmgYgKKuLOsq8PKMXPEhaMjX9XfOIkChdPY5nME-d5amuhuLToet2oAaHGpq4OLUg5KOCplZcPzEbwzjta1_nEBp-VcDJQQfcqjFdMGpNktaWNX5t2ljgWdPRuobKLbCkM-XaMBxLVgRs2eJA8jImhlTGuJdOdWqdSAROrj-kDKvxqvnPAgY22VPAkO7bLbChtXP5xZaNotkVE6YDAOnVIY5-jNRUzd4-lhcucsVteRd9pucLhg-Lb3fLomtuwePutC2xQRDGoYDlf60VWVuLaS8onutIvIblYSdetd_nxdYGuAXNIL24gv8HOuP1HVUGrDrAlTLKUirSWVN2jK6i8jLrXe4mlRrw13rPR3dXbL1u80M9WSqFXzC59ZOWkjOdHZkZIeOva4q1IpEpMvUfyd58RR5aQDKpB09XzYX5nyadWTiPPNzJYSLyAlwyWvFMlIDYzaLNuV7lJCCRNq7d5qV7a_cRwmsjFXJTEt4MgpjT5aHLgO-nUn9yr8IZTu4Lt087pk7F-zktvsy5ckpOz94PymGx7umlmfNs0jLYLOZmPNr-EvfEnU1DlVGD_jS5zUT0SDg1QUnprU5zxO7EXZC5fISvlWpOwx0NUYLxAF8Zfv_diUZo9qTuwFElmFljW5p-JkfsY5qNofGng86QSGiA6hMYBmwKffyOfMUop0okmN_LNoq6_Am_lHAxh50_4d1QI3vfCdNzt_J3c222Qk5DvtlCnszBOglIwKAmfaf03fI2B-yC3oFSvW5KlNpHJG93peaAwy9g87CGjwNX8idtS4xEtaqONy9wLyefJP9I0ENZaKGDvBvgvZE2Prc7Cs5AmL9PBhzWfH9FS9uncp8KfCNckDa5MvA8N2xMqJlMXQcEs4TpCTk-OYvv3pMNzw6wa2A9LmHVoOmS_oOgCkMp2F0Mspsw1BbMXSqaWgsoLbVmlmgi5BAZnMmVW87ODTu-0rZ6pKVa5_m_MceLqK2mePyf1IIwT8yubRcHU1M7wGIVe0DDhu8i_V_-ZmUECW-u1cRrEXvalsCHpXNRHqau7m0P97X_Z6SKINvqEYSWAj27EEBcizKpyjoCeEvoSiqUw-u3aPC2FLJTLiD7Tk5N1UgoT3ZMLVEl0DZKm6Mmi5fURWlVWGyf130K_1hehbX1Qx8l2oP9o6M_2WVzWkQdZ4s62IJqMkXeMBFyf_c_ANwPQ8ivJ9Md2fRu4VvjdhYk_GV2IHzVZLCeTi01-gdw9v-Rq_IAORUYnV_4L8qifliSeJdFpGi4ht0abHz2seTh_iRgRpXDrHJ0VrOzPLUUtJWU045ds8QQk_aW9gZ_hODVVTJ0R-nId-ZEwtrHCtZI_q_KTTcimg2yKG_7-lQvoiotKXm_7tNG_RmDp06LpDrdp5xlHjfURCEdhkgEDVotJgIpuS653m0wwhMFM3eGdsjt1C5L_AXqISimT3KIWBb1Bm7r0gjEGIeNzVw9TyTlDmU0e-4shyeikiN9cAxFlGmQ5_3onvhckTc85qZ147037nU66Ro3vpri427Th9bxOP_5Ea6QAZiV_ZqujYPwW2eBZwMr6dSr1ZU_1NDHrnzU4bRFRSfM4rJEg40LhzdWbDdgZyC9GVnyKYX59B_RazUJxGuG77QI6RturEytK30MLhDGOWF-9A_jYZHvNbbpb8CmgkDquvS5ZQw4IsKEyrUwtp6GZ7oPtuyb3FK-WkRsQuD3JIkShiTxw69Ej2RXkOpTRmqzwQUcnoo0NaWcpIm7yX2us6u_cesz7iqalbST3616mhyJXo8CdA6qF7SDcumcl3DKfGkEhCuIbwiyzvscSg7Z5wAHfOh4rw67EZmD772_YJD4OC_pQsh0obE7JIMCWRjAaCRqJy-azkSMR2Iuu4Wj75cp61QKnWrp4EXBR5b2z9smkNFqagKkYrgkAY3qCHaMo_pNqNOxk7aUpEe1VYVsnPirVwmWmVNYezogW8Z7VlAl_P3Yps49F1Uzv1G1CJjBJ5jte8e0Sg87rrlKkA7JKAgKawKRd1A3dc7MqZxEgtP1vEdpTzbWAJs3JdkBmgYJWVAoZaSU8JbfpLhvIEuURuxnr8NAZyrye1qmDQSHBzaSzo8V49nwRDxWSR_LmXfjeNkG4PlLO27zUF4AsCxkStjoCxcUJl-6BLALU9_Gq1GsFqoSF82Ln6aCfTkwnnAEnjuNSYzkYUEHcQpYir5EtXynBMAgUmJyHwq-Mtmpt5p_LFJi4uup4oyIgfwMZno4kOg__yXmlUp1yirtLdkE5XCa5rnFWY158RtZkb1eEKmtioZI9nVVzXSubjf6nAvQkLA77ym9I6CS1q8QIpZS94aTa36JiEGTDGcxstp6wz99JCoEMCOdtpjA1uJ0wyHCtbTrUd0vzNLHFPqcEJPhKJgZYdyreAqbySworrm4K8lUU9aU2Isji6hOcNXtXKC-STXiE0rjZh7mvQgMCDeUjkap0z2qHYD1bHTJVchbmxXJr3S0U8Vz_?></g></svg>