<svg xmlns="http://www.w3.org/2000/svg" xmlns:xlink="http://www.w3.org/1999/xlink" contentStyleType="text/css" data-diagram-type="CLASS" height="298px" preserveAspectRatio="none" style="width:421px;height:298px;background:#FFFFFF;" version="1.1" viewBox="0 0 421 298" width="421px" zoomAndPan="magnify"><?plantuml 1.2026.3?><defs/><g><g class="title" data-source-line="8"><text fill="#000000" font-family="sans-serif" font-size="14" font-weight="700" lengthAdjust="spacing" textLength="394.4268" x="10" y="23.5352">Architecture source of truth &#183; cycle 0028 diff (current)</text></g><!--class ArchitectureSpec--><g class="entity" data-qualified-name="ArchitectureSpec" data-source-line="10" id="ent0002"><rect fill="#90EE90" height="56.6211" rx="2.5" ry="2.5" style="stroke:#181818;stroke-width:0.5;" width="146.2764" x="34.8505" y="60.9783"/><ellipse cx="49.8505" cy="81.2888" fill="#ADD1B2" rx="11" ry="11" style="stroke:#181818;stroke-width:1;"/><path d="M52.3237,87.4319 Q51.7426,87.7307 51.1034,87.8801 Q50.4643,88.0296 49.7587,88.0296 Q47.2519,88.0296 45.9321,86.3777 Q44.6122,84.7258 44.6122,81.6047 Q44.6122,78.4754 45.9321,76.8235 Q47.2519,75.1716 49.7587,75.1716 Q50.4643,75.1716 51.1117,75.3211 Q51.7592,75.4705 52.3237,75.7693 L52.3237,78.492 Q51.6928,77.9109 51.0993,77.6411 Q50.5058,77.3713 49.8749,77.3713 Q48.5302,77.3713 47.8454,78.438 Q47.1606,79.5046 47.1606,81.6047 Q47.1606,83.6965 47.8454,84.7632 Q48.5302,85.8298 49.8749,85.8298 Q50.5058,85.8298 51.0993,85.5601 Q51.6928,85.2903 52.3237,84.7092 Z " fill="#000000"/><text fill="#000000" font-family="sans-serif" font-size="12" font-style="italic" lengthAdjust="spacing" textLength="48.5449" x="96.7162" y="77.5798">&#171;added&#187;</text><text fill="#000000" font-family="sans-serif" font-size="14" lengthAdjust="spacing" textLength="114.2764" x="63.8505" y="93.6462">ArchitectureSpec</text><line style="stroke:#181818;stroke-width:0.5;" x1="35.8505" x2="180.1269" y1="101.5994" y2="101.5994"/><line style="stroke:#181818;stroke-width:0.5;" x1="35.8505" x2="180.1269" y1="109.5994" y2="109.5994"/></g><!--class Component--><g class="entity" data-qualified-name="Component" data-source-line="11" id="ent0003"><rect fill="#90EE90" height="89.5977" rx="2.5" ry="2.5" style="stroke:#181818;stroke-width:0.5;" width="178.8857" x="216.5505" y="44.4883"/><ellipse cx="262.153" cy="64.7988" fill="#ADD1B2" rx="11" ry="11" style="stroke:#181818;stroke-width:1;"/><path d="M264.6262,70.9419 Q264.0451,71.2407 263.406,71.3901 Q262.7668,71.5396 262.0613,71.5396 Q259.5544,71.5396 258.2346,69.8877 Q256.9148,68.2358 256.9148,65.1147 Q256.9148,61.9854 258.2346,60.3335 Q259.5544,58.6816 262.0613,58.6816 Q262.7668,58.6816 263.4143,58.8311 Q264.0617,58.9805 264.6262,59.2793 L264.6262,62.002 Q263.9953,61.4209 263.4018,61.1511 Q262.8083,60.8813 262.1775,60.8813 Q260.8327,60.8813 260.1479,61.948 Q259.4631,63.0146 259.4631,65.1147 Q259.4631,67.2065 260.1479,68.2732 Q260.8327,69.3398 262.1775,69.3398 Q262.8083,69.3398 263.4018,69.0701 Q263.9953,68.8003 264.6262,68.2192 Z " fill="#000000"/><text fill="#000000" font-family="sans-serif" font-size="12" font-style="italic" lengthAdjust="spacing" textLength="48.5449" x="297.9709" y="61.0898">&#171;added&#187;</text><text fill="#000000" font-family="sans-serif" font-size="14" lengthAdjust="spacing" textLength="79.1807" x="282.653" y="77.1563">Component</text><line style="stroke:#181818;stroke-width:0.5;" x1="217.5505" x2="394.4363" y1="85.1094" y2="85.1094"/><g data-visibility-modifier="PUBLIC_FIELD"><ellipse cx="227.5505" cy="98.8535" fill="none" rx="3" ry="3" style="stroke:#038048;stroke-width:1;"/></g><text fill="#000000" font-family="sans-serif" font-size="14" lengthAdjust="spacing" textLength="152.8857" x="236.5505" y="102.6445">kind : ComponentKind</text><g data-visibility-modifier="PUBLIC_FIELD"><ellipse cx="227.5505" cy="115.3418" fill="none" rx="3" ry="3" style="stroke:#038048;stroke-width:1;"/></g><text fill="#000000" font-family="sans-serif" font-size="14" lengthAdjust="spacing" textLength="107.4883" x="236.5505" y="119.1328">owns : List&lt;Id&gt;</text><line style="stroke:#181818;stroke-width:0.5;" x1="217.5505" x2="394.4363" y1="126.0859" y2="126.0859"/></g><!--class Decision--><g class="entity" data-qualified-name="Decision" data-source-line="15" id="ent0004"><rect fill="#90EE90" height="89.5977" rx="2.5" ry="2.5" style="stroke:#181818;stroke-width:0.5;" width="180" x="17.9905" y="194.0883"/><ellipse cx="74.7527" cy="214.3988" fill="#ADD1B2" rx="11" ry="11" style="stroke:#181818;stroke-width:1;"/><path d="M77.2259,220.5419 Q76.6448,220.8407 76.0056,220.9901 Q75.3665,221.1396 74.6609,221.1396 Q72.1541,221.1396 70.8343,219.4877 Q69.5144,217.8358 69.5144,214.7147 Q69.5144,211.5854 70.8343,209.9335 Q72.1541,208.2816 74.6609,208.2816 Q75.3665,208.2816 76.0139,208.4311 Q76.6614,208.5805 77.2259,208.8793 L77.2259,211.602 Q76.595,211.0209 76.0015,210.7511 Q75.408,210.4813 74.7771,210.4813 Q73.4324,210.4813 72.7476,211.548 Q72.0628,212.6146 72.0628,214.7147 Q72.0628,216.8065 72.7476,217.8732 Q73.4324,218.9398 74.7771,218.9398 Q75.408,218.9398 76.0015,218.6701 Q76.595,218.4003 77.2259,217.8192 Z " fill="#000000"/><text fill="#000000" font-family="sans-serif" font-size="12" font-style="italic" lengthAdjust="spacing" textLength="48.5449" x="99.968" y="210.6898">&#171;added&#187;</text><text fill="#000000" font-family="sans-serif" font-size="14" lengthAdjust="spacing" textLength="57.9756" x="95.2527" y="226.7563">Decision</text><line style="stroke:#181818;stroke-width:0.5;" x1="18.9905" x2="196.9905" y1="234.7094" y2="234.7094"/><g data-visibility-modifier="PUBLIC_FIELD"><ellipse cx="28.9905" cy="248.4535" fill="none" rx="3" ry="3" style="stroke:#038048;stroke-width:1;"/></g><text fill="#000000" font-family="sans-serif" font-size="14" lengthAdjust="spacing" textLength="154" x="37.9905" y="252.2445">status : DecisionStatus</text><g data-visibility-modifier="PUBLIC_FIELD"><ellipse cx="28.9905" cy="264.9418" fill="none" rx="3" ry="3" style="stroke:#038048;stroke-width:1;"/></g><text fill="#000000" font-family="sans-serif" font-size="14" lengthAdjust="spacing" textLength="153.0566" x="37.9905" y="268.7328">supersededBy : String?</text><line style="stroke:#181818;stroke-width:0.5;" x1="18.9905" x2="196.9905" y1="275.6859" y2="275.6859"/></g><!--class Constraint--><g class="entity" data-qualified-name="Constraint" data-source-line="19" id="ent0005"><rect fill="#90EE90" height="73.1094" rx="2.5" ry="2.5" style="stroke:#181818;stroke-width:0.5;" width="105.5225" x="233.2305" y="202.3383"/><ellipse cx="249.4649" cy="222.6488" fill="#ADD1B2" rx="11" ry="11" style="stroke:#181818;stroke-width:1;"/><path d="M251.9381,228.7919 Q251.357,229.0907 250.7179,229.2401 Q250.0787,229.3896 249.3731,229.3896 Q246.8663,229.3896 245.5465,227.7377 Q244.2267,226.0858 244.2267,222.9647 Q244.2267,219.8354 245.5465,218.1835 Q246.8663,216.5316 249.3731,216.5316 Q250.0787,216.5316 250.7262,216.6811 Q251.3736,216.8305 251.9381,217.1293 L251.9381,219.852 Q251.3072,219.2709 250.7137,219.0011 Q250.1202,218.7313 249.4893,218.7313 Q248.1446,218.7313 247.4598,219.798 Q246.775,220.8646 246.775,222.9647 Q246.775,225.0565 247.4598,226.1232 Q248.1446,227.1898 249.4893,227.1898 Q250.1202,227.1898 250.7137,226.9201 Q251.3072,226.6503 251.9381,226.0692 Z " fill="#000000"/><text fill="#000000" font-family="sans-serif" font-size="12" font-style="italic" lengthAdjust="spacing" textLength="48.5449" x="274.8564" y="218.9398">&#171;added&#187;</text><text fill="#000000" font-family="sans-serif" font-size="14" lengthAdjust="spacing" textLength="70.7793" x="263.7392" y="235.0063">Constraint</text><line style="stroke:#181818;stroke-width:0.5;" x1="234.2305" x2="337.753" y1="242.9594" y2="242.9594"/><g data-visibility-modifier="PUBLIC_FIELD"><ellipse cx="244.2305" cy="256.7035" fill="none" rx="3" ry="3" style="stroke:#038048;stroke-width:1;"/></g><text fill="#000000" font-family="sans-serif" font-size="14" lengthAdjust="spacing" textLength="79.5225" x="253.2305" y="260.4945">rule : String</text><line style="stroke:#181818;stroke-width:0.5;" x1="234.2305" x2="337.753" y1="267.4477" y2="267.4477"/></g><?plantuml-src RL7RJW8n47tlLqpYWxinuEg34IGe58Z6Qrn_e6a7Q81squk46B_BTx_CsGkN19_QwPnpviofNsXJ22TM89V2U_XY04CX5pDder7SBgthzOHIgFfzEEbaut4d-m_YS6K_Qz1aChpY5-oRdSATLidezRarUEVthVnjp5FOguMvzY0tSecGPDdbTKe4NfLb1KfFfv38w1oQ05uhJBl4GV31HHcYGmN2oRaEM5MGsmzIIAHT5TOGnyCvA9JQQslAkwGZEA6faxRX1TStO2oPC3DetBTPq87c3mvblOrE8jWfqDmmXz-VnlInovInEiL3WRn0kT-w0V2joOCyokZFWFv3GNSFUAIwQjWrRT659-r3xq7rATzQQjIiUAJaWmYnf6mHUVLGzsA1pYF1Xnj2vC5H3BSxJRwBwaZLHLfzos3VVm00?></g></svg>