<svg xmlns="http://www.w3.org/2000/svg" xmlns:xlink="http://www.w3.org/1999/xlink" contentStyleType="text/css" data-diagram-type="DESCRIPTION" height="791px" preserveAspectRatio="none" style="width:1323px;height:791px;background:#FFFFFF;" version="1.1" viewBox="0 0 1323 791" width="1323px" zoomAndPan="magnify"><?plantuml 1.2026.3?><defs/><g><g class="title" data-source-line="31"><text fill="#000000" font-family="sans-serif" font-size="14" font-weight="700" lengthAdjust="spacing" textLength="404.4141" x="455.8368" y="23.5352">mdd-viewer theming module &#183; cycle 0011 diff (current)</text></g><!--cluster External crates--><g class="cluster" data-qualified-name="External crates" data-source-line="38" id="ent0006"><path d="M848.15,362.1583 L956.5016,362.1583 A3.75,3.75 0 0 1 959.0016,364.6583 L966.0016,384.6466 L1221.15,384.6466 A2.5,2.5 0 0 1 1223.65,387.1466 L1223.65,490.1183 A2.5,2.5 0 0 1 1221.15,492.6183 L848.15,492.6183 A2.5,2.5 0 0 1 845.65,490.1183 L845.65,364.6583 A2.5,2.5 0 0 1 848.15,362.1583" fill="none" style="stroke:#000000;stroke-width:1.5;"/><line style="stroke:#000000;stroke-width:1.5;" x1="845.65" x2="966.0016" y1="384.6466" y2="384.6466"/><text fill="#000000" font-family="sans-serif" font-size="14" font-weight="700" lengthAdjust="spacing" textLength="107.3516" x="849.65" y="377.6934">External crates</text></g><!--entity Catppuccin--><g class="entity" data-qualified-name="External crates.Catppuccin" data-source-line="39" id="ent0007"><rect fill="#90EE90" height="79.4648" rx="2.5" ry="2.5" style="stroke:#181818;stroke-width:0.5;" width="176.3564" x="861.48" y="397.1583"/><rect fill="#90EE90" height="10" style="stroke:#181818;stroke-width:0.5;" width="15" x="1017.8364" y="402.1583"/><rect fill="#90EE90" height="2" style="stroke:#181818;stroke-width:0.5;" width="4" x="1015.8364" y="404.1583"/><rect fill="#90EE90" height="2" style="stroke:#181818;stroke-width:0.5;" width="4" x="1015.8364" y="408.1583"/><text fill="#000000" font-family="sans-serif" font-size="14" font-style="italic" lengthAdjust="spacing" textLength="56.6357" x="916.3404" y="430.6934">&#171;added&#187;</text><text fill="#000000" font-family="sans-serif" font-size="14" lengthAdjust="spacing" textLength="136.3564" x="876.48" y="447.1817">catppuccin_egui 5.7</text><text fill="#000000" font-family="sans-serif" font-size="14" lengthAdjust="spacing" textLength="113.0664" x="876.48" y="463.67">(feature: egui30)</text></g><!--entity DarkLight--><g class="entity" data-qualified-name="External crates.DarkLight" data-source-line="40" id="ent0008"><rect fill="#90EE90" height="62.9766" rx="2.5" ry="2.5" style="stroke:#181818;stroke-width:0.5;" width="134.7666" x="1073.27" y="405.3983"/><rect fill="#90EE90" height="10" style="stroke:#181818;stroke-width:0.5;" width="15" x="1188.0366" y="410.3983"/><rect fill="#90EE90" height="2" style="stroke:#181818;stroke-width:0.5;" width="4" x="1186.0366" y="412.3983"/><rect fill="#90EE90" height="2" style="stroke:#181818;stroke-width:0.5;" width="4" x="1186.0366" y="416.3983"/><text fill="#000000" font-family="sans-serif" font-size="14" font-style="italic" lengthAdjust="spacing" textLength="56.6357" x="1107.3354" y="438.9334">&#171;added&#187;</text><text fill="#000000" font-family="sans-serif" font-size="14" lengthAdjust="spacing" textLength="94.7666" x="1088.27" y="455.4217">dark_light 2.0</text></g><!--entity Dev--><g class="entity" data-qualified-name="Dev" data-source-line="33" id="ent0002"><ellipse cx="560.6592" cy="710.3383" fill="#F1F1F1" rx="8" ry="8" style="stroke:#181818;stroke-width:0.5;"/><path d="M560.6592,718.3383 L560.6592,745.3383 M547.6592,726.3383 L573.6592,726.3383 M560.6592,745.3383 L547.6592,760.3383 M560.6592,745.3383 L573.6592,760.3383" fill="none" style="stroke:#181818;stroke-width:0.5;"/><text fill="#000000" font-family="sans-serif" font-size="14" lengthAdjust="spacing" textLength="68.3184" x="526.5" y="775.3734">Developer</text></g><!--entity Viewer--><g class="entity" data-qualified-name="Viewer" data-source-line="35" id="ent0003"><rect fill="#F1F1F1" height="79.4648" rx="2.5" ry="2.5" style="stroke:#181818;stroke-width:0.5;" width="243.8203" x="467.74" y="44.4883"/><rect fill="#F1F1F1" height="10" style="stroke:#181818;stroke-width:0.5;" width="15" x="691.5603" y="49.4883"/><rect fill="#F1F1F1" height="2" style="stroke:#181818;stroke-width:0.5;" width="4" x="689.5603" y="51.4883"/><rect fill="#F1F1F1" height="2" style="stroke:#181818;stroke-width:0.5;" width="4" x="689.5603" y="55.4883"/><text fill="#000000" font-family="sans-serif" font-size="14" lengthAdjust="spacing" textLength="74.9971" x="482.74" y="78.0234">MddViewer</text><text fill="#000000" font-family="sans-serif" font-size="14" lengthAdjust="spacing" textLength="92.4014" x="482.74" y="94.5117">(eframe::App,</text><text fill="#000000" font-family="sans-serif" font-size="14" lengthAdjust="spacing" textLength="203.8203" x="482.74" y="111">crates/mdd-viewer/src/lib.rs)</text></g><!--entity Theme--><g class="entity" data-qualified-name="Theme" data-source-line="36" id="ent0004"><rect fill="#90EE90" height="79.4648" rx="2.5" ry="2.5" style="stroke:#181818;stroke-width:0.5;" width="240.3135" x="469.5" y="215.9583"/><rect fill="#90EE90" height="10" style="stroke:#181818;stroke-width:0.5;" width="15" x="689.8135" y="220.9583"/><rect fill="#90EE90" height="2" style="stroke:#181818;stroke-width:0.5;" width="4" x="687.8135" y="222.9583"/><rect fill="#90EE90" height="2" style="stroke:#181818;stroke-width:0.5;" width="4" x="687.8135" y="226.9583"/><text fill="#000000" font-family="sans-serif" font-size="14" font-style="italic" lengthAdjust="spacing" textLength="56.6357" x="556.3389" y="249.4934">&#171;added&#187;</text><text fill="#000000" font-family="sans-serif" font-size="14" lengthAdjust="spacing" textLength="59.8896" x="484.5" y="265.9817">theme.rs</text><text fill="#000000" font-family="sans-serif" font-size="14" lengthAdjust="spacing" textLength="200.3135" x="484.5" y="282.47">register_fonts + apply_theme</text></g><!--entity Assets--><g class="entity" data-qualified-name="Assets" data-source-line="37" id="ent0005"><rect fill="#90EE90" height="128.9297" rx="2.5" ry="2.5" style="stroke:#181818;stroke-width:0.5;" width="225.3086" x="7" y="372.4183"/><rect fill="#90EE90" height="10" style="stroke:#181818;stroke-width:0.5;" width="15" x="212.3086" y="377.4183"/><rect fill="#90EE90" height="2" style="stroke:#181818;stroke-width:0.5;" width="4" x="210.3086" y="379.4183"/><rect fill="#90EE90" height="2" style="stroke:#181818;stroke-width:0.5;" width="4" x="210.3086" y="383.4183"/><text fill="#000000" font-family="sans-serif" font-size="14" font-style="italic" lengthAdjust="spacing" textLength="56.6357" x="86.3364" y="405.9534">&#171;added&#187;</text><text fill="#000000" font-family="sans-serif" font-size="14" lengthAdjust="spacing" textLength="91.6699" x="22" y="422.4417">assets/fonts/</text><text fill="#000000" font-family="sans-serif" font-size="14" lengthAdjust="spacing" textLength="120.1963" x="22" y="438.93">(Inter-Regular.ttf,</text><text fill="#000000" font-family="sans-serif" font-size="14" lengthAdjust="spacing" textLength="118.542" x="26.4297" y="455.4183">Inter-Medium.ttf,</text><text fill="#000000" font-family="sans-serif" font-size="14" lengthAdjust="spacing" textLength="180.8789" x="26.4297" y="471.9066">JetBrainsMono-Regular.ttf,</text><text fill="#000000" font-family="sans-serif" font-size="14" lengthAdjust="spacing" textLength="101.5342" x="26.4297" y="488.3948">include_bytes!)</text></g><!--entity Ctx--><g class="entity" data-qualified-name="Ctx" data-source-line="42" id="ent0009"><rect fill="#F1F1F1" height="46.4883" rx="2.5" ry="2.5" style="stroke:#181818;stroke-width:0.5;" width="131.957" x="494.68" y="578.3483"/><rect fill="#F1F1F1" height="10" style="stroke:#181818;stroke-width:0.5;" width="15" x="606.637" y="583.3483"/><rect fill="#F1F1F1" height="2" style="stroke:#181818;stroke-width:0.5;" width="4" x="604.637" y="585.3483"/><rect fill="#F1F1F1" height="2" style="stroke:#181818;stroke-width:0.5;" width="4" x="604.637" y="589.3483"/><text fill="#000000" font-family="sans-serif" font-size="14" lengthAdjust="spacing" textLength="91.957" x="509.68" y="611.8834">egui::Context</text></g><!--link Viewer to Theme--><g class="link" data-entity-1="ent0003" data-entity-2="ent0004" data-link-type="dependency" data-source-line="44" id="lnk10"><path d="M589.65,124.1083 C589.65,151.5583 589.65,182.2183 589.65,209.6983" fill="none" id="Viewer-to-Theme" style="stroke:#181818;stroke-width:1;"/><polygon fill="#181818" points="589.65,215.6983,593.65,206.6983,589.65,210.6983,585.65,206.6983,589.65,215.6983" style="stroke:#181818;stroke-width:1;"/><text fill="#000000" font-family="sans-serif" font-size="13" lengthAdjust="spacing" textLength="209.4854" x="590.65" y="167.5266">register_fonts(&amp;cc.egui_ctx) once</text><text fill="#000000" font-family="sans-serif" font-size="13" lengthAdjust="spacing" textLength="196.5742" x="597.1056" y="182.8372">+ apply_theme(ctx) each frame</text></g><!--link Theme to Assets--><g class="link" data-entity-1="ent0004" data-entity-2="ent0005" data-link-type="dependency" data-source-line="45" id="lnk11"><path d="M469.04,265.9383 C366.8,275.7783 229.79,294.3083 184.65,325.4183 C167.89,336.9783 157.7516,349.1588 147.8516,366.7588" fill="none" id="Theme-to-Assets" style="stroke:#181818;stroke-width:1;"/><polygon fill="#181818" points="144.91,371.9883,152.8087,366.1051,147.3613,367.6304,145.836,362.1831,144.91,371.9883" style="stroke:#181818;stroke-width:1;"/><text fill="#000000" font-family="sans-serif" font-size="13" lengthAdjust="spacing" textLength="90.0542" x="185.65" y="338.9866">include_bytes!</text></g><!--link Theme to Ctx--><g class="link" data-entity-1="ent0004" data-entity-2="ent0009" data-link-type="dependency" data-source-line="46" id="lnk12"><path d="M469.33,271.1883 C417.39,284.0883 361.37,308.3883 329.65,354.1583 C292.39,407.9283 293.67,446.7183 329.65,501.3483 C365.91,556.3883 433.8876,579.846 488.3676,590.796" fill="none" id="Theme-to-Ctx" style="stroke:#181818;stroke-width:1;"/><polygon fill="#181818" points="494.25,591.9783,486.2147,586.2833,489.348,590.993,484.6383,594.1264,494.25,591.9783" style="stroke:#181818;stroke-width:1;"/><text fill="#000000" font-family="sans-serif" font-size="13" lengthAdjust="spacing" textLength="186.145" x="330.65" y="441.9566">ctx.set_fonts(FontDefinitions)</text></g><!--link Theme to Ctx--><g class="link" data-entity-1="ent0004" data-entity-2="ent0009" data-link-type="dependency" data-source-line="51" id="lnk17"><path d="M585.44,295.5583 C583.56,313.3983 581.39,334.8383 579.65,354.1583 C572.24,436.6383 565.6272,528.8428 562.6072,572.1728" fill="none" id="Theme-to-Ctx-1" style="stroke:#181818;stroke-width:1;"/><polygon fill="#181818" points="562.19,578.1583,566.8061,569.4582,562.5376,573.1704,558.8254,568.9019,562.19,578.1583" style="stroke:#181818;stroke-width:1;"/><text fill="#000000" font-family="sans-serif" font-size="13" lengthAdjust="spacing" textLength="264.7417" x="580.65" y="441.9566">style_mut(): spacing + rounding overrides</text></g><!--link Theme to DarkLight--><g class="link" data-entity-1="ent0004" data-entity-2="ent0008" data-link-type="dependency" data-source-line="47" id="lnk13"><path d="M710.12,279.1183 C770.44,291.2183 844.34,307.3683 909.65,325.4183 C932.28,331.6783 936.77,337.1883 959.65,342.4183 C1001.56,351.9983 1016.83,335.6983 1055.65,354.1583 C1080.06,365.7583 1097.994,382.5638 1113.414,400.5438" fill="none" id="Theme-to-DarkLight" style="stroke:#181818;stroke-width:1;"/><polygon fill="#181818" points="1117.32,405.0983,1114.4973,395.6626,1114.065,401.3029,1108.4247,400.8706,1117.32,405.0983" style="stroke:#181818;stroke-width:1;"/><text fill="#000000" font-family="sans-serif" font-size="13" lengthAdjust="spacing" textLength="121.5386" x="960.65" y="338.9866">detect() each frame</text></g><!--link DarkLight to Theme--><g class="link" data-entity-1="ent0008" data-entity-2="ent0004" data-link-type="dependency" data-source-line="48" id="lnk14"><path d="M1134.03,404.9183 C1126.86,379.3583 1112.76,344.3283 1086.65,325.4183 C1028.27,283.1483 843.6528,267.1031 716.1828,260.8331" fill="none" id="DarkLight-to-Theme" style="stroke:#181818;stroke-width:1;"/><polygon fill="#181818" points="710.19,260.5383,718.9826,264.9756,715.184,260.7839,719.3756,256.9853,710.19,260.5383" style="stroke:#181818;stroke-width:1;"/><text fill="#000000" font-family="sans-serif" font-size="13" lengthAdjust="spacing" textLength="202.8076" x="1104.28" y="338.9866">Mode::{Light, Dark, Unspecified}</text></g><!--link Theme to Catppuccin--><g class="link" data-entity-1="ent0004" data-entity-2="ent0007" data-link-type="dependency" data-source-line="49" id="lnk15"><path d="M629.24,295.8883 C649.26,313.2483 674.95,332.0483 701.65,342.4183 C756.97,363.9183 778.97,333.6383 834.65,354.1583 C860.63,363.7183 881.3718,377.049 901.7018,393.109" fill="none" id="Theme-to-Catppuccin" style="stroke:#181818;stroke-width:1;"/><polygon fill="#181818" points="906.41,396.8283,901.8273,388.1106,902.4865,393.7289,896.8682,394.3881,906.41,396.8283" style="stroke:#181818;stroke-width:1;"/><text fill="#000000" font-family="sans-serif" font-size="13" lengthAdjust="spacing" textLength="202.2427" x="702.65" y="338.9866">set_theme(ctx, MOCHA | LATTE)</text></g><!--link Catppuccin to Ctx--><g class="link" data-entity-1="ent0007" data-entity-2="ent0009" data-link-type="dependency" data-source-line="50" id="lnk16"><path d="M882.76,477.1083 C867.2,485.5783 850.54,494.1483 834.65,501.3483 C765.43,532.7583 688.7834,559.625 632.5534,577.995" fill="none" id="Catppuccin-to-Ctx" style="stroke:#181818;stroke-width:1;"/><polygon fill="#181818" points="626.85,579.8583,636.6472,580.8656,631.6028,578.3056,634.1629,573.2612,626.85,579.8583" style="stroke:#181818;stroke-width:1;"/><text fill="#000000" font-family="sans-serif" font-size="13" lengthAdjust="spacing" textLength="138.0298" x="761.87" y="544.9166">style.visuals = palette</text></g><!--link Ctx to Dev--><g class="link" data-entity-1="ent0009" data-entity-2="ent0002" data-link-type="dependency" data-source-line="52" id="lnk18"><path d="M560.65,625.1383 C560.65,645.8783 560.65,671.0583 560.65,695.5583" fill="none" id="Ctx-to-Dev" style="stroke:#181818;stroke-width:1;"/><polygon fill="#181818" points="560.65,701.5583,564.65,692.5583,560.65,696.5583,556.65,692.5583,560.65,701.5583" style="stroke:#181818;stroke-width:1;"/><text fill="#000000" font-family="sans-serif" font-size="13" lengthAdjust="spacing" textLength="153.9053" x="561.65" y="668.4066">themed panels + canvas</text></g><?plantuml-src jLJHRjCm57tFLroA1AtMfjqGe4LZekioRMWLQ2hZfLBbsJUTDSU9RAThDIRn4VmBxtmANyADKvfqy4XVejZttdFEFRwslPCwPuQbK5Zap28y100dZD_DJLPeCSfKPewEc10eZe_X-U4WZWy7_qenc6QBAkdixEJDQ3zu3Em6dIjcxQwmipJFD6gt8tphcDkLBmQvOtgkTeNFkClCZh3fwoINEVlFph-4zrAqH-DFlUkB-4jyrPkSn-Eu0r0ZkbjfWQyu-TOU3FRtErGqyijo1K8cIGGtXcdHqtWFYQJ8hs_VWSO4K65Q3el7we8kzzOomi19Hwcf4Bs5n7iqn8Ifr7D8Cr5GvEUFDUs61zgyC8O0Eq5GkTqwnGMgB4VJ0cQ1La5GpsXhBCIrnvxgDYPa94RHCC-xKyqD3Phjr-nzQtXVoPlGs8x7gWgRQAK-fFXK6vnBwz3Caamx2tl0ybojPZx15q_Alzh49WfTJdIsxolxfEj24r3l2kU5OYPqBY5rK6sEKSWY_RFt0Ts9OLBRSQQpfmLISrK8dDsigArdLGT3pzHGaTD8i3b2AruIl6OAAXjQVgOQ6ZbpULvmBlMCQ2Iy3j-IqWIPAmn6KEwz6bGaeqrgWsWBJ31pDrDoVklW81nKvqHRbtwdhdbicbGoHD68FCAbgtZSCWYgCu5UxtZjS0JRHz5-mNbO5i-uMtPe1ZbEzTRnj7q06Ry5Fn111LH2hlsAdfZPo20H52Q4a3BNZ6VqFSL4QkbafcsdaLwt6O50H-zFUukwZZSx6cU2nlJ11xeUemkVjSsHoqIYU6pggSsFe9IqQR4Buu-Zyo5yXSlXP19tWaPgtObrAuNXGjg2AGllw9bHw1p-rR7FcwK5wQS5ZL5vJVV0loxbBrreOwH06vJvldLSK9sN8mXMeogl2MTwmUnl?></g></svg>