<svg xmlns="http://www.w3.org/2000/svg" xmlns:xlink="http://www.w3.org/1999/xlink" contentStyleType="text/css" data-diagram-type="STATE" height="676px" preserveAspectRatio="none" style="width:773px;height:676px;background:#FFFFFF;" version="1.1" viewBox="0 0 773 676" width="773px" zoomAndPan="magnify"><?plantuml 1.2026.3?><defs/><g><g class="title" data-source-line="10"><text fill="#000000" font-family="sans-serif" font-size="14" font-weight="700" lengthAdjust="spacing" textLength="169.3262" x="298.3514" y="23.5352">Cycle lifecycle (current)</text></g><path d="M85.7,155.4883 L434.3844,155.4883 A12.5,12.5 0 0 1 446.8844,167.9883 L446.8844,181.9766 L73.2,181.9766 L73.2,167.9883 A12.5,12.5 0 0 1 85.7,155.4883" fill="#F1F1F1"/><rect fill="none" height="260.4883" rx="12.5" ry="12.5" style="stroke:#181818;stroke-width:0.5;" width="373.6844" x="73.2" y="155.4883"/><line style="stroke:#181818;stroke-width:0.5;" x1="73.2" x2="446.8844" y1="181.9766" y2="181.9766"/><text fill="#000000" font-family="sans-serif" font-size="14" lengthAdjust="spacing" textLength="36.1758" x="241.9543" y="174.0234">Open</text><g class="start_entity" data-qualified-name="Open..start.Open" data-source-line="15" id="ent0004"><ellipse cx="166.14" cy="202.9766" fill="#222222" rx="10" ry="10" style="stroke:#222222;stroke-width:1;"/></g><g class="entity" data-qualified-name="Open.Looping" id="ent0005"><rect fill="#F1F1F1" height="50" rx="12.5" ry="12.5" style="stroke:#181818;stroke-width:0.5;" width="74.9404" x="128.67" y="249.9766"/><line style="stroke:#181818;stroke-width:0.5;" x1="128.67" x2="203.6104" y1="276.4648" y2="276.4648"/><text fill="#000000" font-family="sans-serif" font-size="14" lengthAdjust="spacing" textLength="54.9404" x="138.67" y="268.5117">Looping</text></g><g class="entity" data-qualified-name="Open.AwaitingClarification" id="ent0008"><rect fill="#F1F1F1" height="50" rx="12.5" ry="12.5" style="stroke:#181818;stroke-width:0.5;" width="160.834" x="85.72" y="352.9766"/><line style="stroke:#181818;stroke-width:0.5;" x1="85.72" x2="246.554" y1="379.4648" y2="379.4648"/><text fill="#000000" font-family="sans-serif" font-size="14" lengthAdjust="spacing" textLength="140.834" x="95.72" y="371.5117">AwaitingClarification</text></g><!--link *start*Open to Looping--><g class="link" data-entity-1="ent0004" data-entity-2="ent0005" data-link-type="dependency" data-source-line="15" id="lnk6"><path d="M166.14,213.4166 C166.14,222.6766 166.14,231.1666 166.14,243.6566" fill="none" id="*start*Open-to-Looping" style="stroke:#181818;stroke-width:1;"/><polygon fill="#181818" points="166.14,249.6566,170.14,240.6566,166.14,244.6566,162.14,240.6566,166.14,249.6566" style="stroke:#181818;stroke-width:1;"/></g><!--link Looping to Looping--><g class="link" data-entity-1="ent0005" data-entity-2="ent0005" data-link-type="dependency" data-source-line="16" id="lnk7"><path d="M203.99,266.8966 C214.01,267.3566 221.61,270.0466 221.61,274.9766 C221.61,279.9066 220.0037,282.3214 209.9837,282.7814" fill="none" id="Looping-to-Looping" style="stroke:#181818;stroke-width:1;"/><polygon fill="#181818" points="203.99,283.0566,213.164,286.6396,208.9847,282.8273,212.7971,278.648,203.99,283.0566" style="stroke:#181818;stroke-width:1;"/><text fill="#000000" font-family="sans-serif" font-size="13" lengthAdjust="spacing" textLength="142.9365" x="250.7789" y="272.5449">implement -&gt; map -&gt;</text><text fill="#000000" font-family="sans-serif" font-size="13" lengthAdjust="spacing" textLength="189.2744" x="227.61" y="287.8555">validate -&gt; review (mismatch)</text></g><!--link Looping to AwaitingClarification--><g class="link" data-entity-1="ent0005" data-entity-2="ent0008" data-link-type="dependency" data-source-line="17" id="lnk9"><path d="M128.2,288.2166 C114.32,294.7366 100.09,304.3166 92.14,317.9766 C84.2,331.6066 87.6638,339.9348 101.2938,349.2348" fill="none" id="Looping-to-AwaitingClarification" style="stroke:#181818;stroke-width:1;"/><polygon fill="#181818" points="106.25,352.6166,101.0702,344.2399,102.1198,349.7985,96.5612,350.8481,106.25,352.6166" style="stroke:#181818;stroke-width:1;"/><text fill="#000000" font-family="sans-serif" font-size="13" lengthAdjust="spacing" textLength="126.5024" x="93.14" y="331.5449">ambiguous decision</text></g><!--link AwaitingClarification to Looping--><g class="link" data-entity-1="ent0008" data-entity-2="ent0005" data-link-type="dependency" data-source-line="18" id="lnk10"><path d="M207.68,352.7066 C218.91,342.8866 226.42,330.8266 220.14,317.9766 C216.38,310.2966 215.0097,307.5282 208.4497,301.8882" fill="none" id="AwaitingClarification-to-Looping" style="stroke:#181818;stroke-width:1;"/><polygon fill="#181818" points="203.9,297.9766,208.1168,306.8771,207.6914,301.2362,213.3322,300.8109,203.9,297.9766" style="stroke:#181818;stroke-width:1;"/><text fill="#000000" font-family="sans-serif" font-size="13" lengthAdjust="spacing" textLength="82.4497" x="223.42" y="331.5449">user answers</text></g><g class="start_entity" data-qualified-name=".start." data-source-line="12" id="ent0002"><ellipse cx="260.04" cy="53.4883" fill="#222222" rx="10" ry="10" style="stroke:#222222;stroke-width:1;"/></g><g class="entity" data-qualified-name="Closed" id="ent0011"><rect fill="#F1F1F1" height="50" rx="12.5" ry="12.5" style="stroke:#181818;stroke-width:0.5;" width="66.0811" x="7" y="518.5983"/><line style="stroke:#181818;stroke-width:0.5;" x1="7" x2="73.0811" y1="545.0866" y2="545.0866"/><text fill="#000000" font-family="sans-serif" font-size="14" lengthAdjust="spacing" textLength="46.0811" x="17" y="537.1334">Closed</text></g><g class="entity" data-qualified-name="Aborted" id="ent0013"><rect fill="#F1F1F1" height="50" rx="12.5" ry="12.5" style="stroke:#181818;stroke-width:0.5;" width="74.6465" x="444.72" y="518.5983"/><line style="stroke:#181818;stroke-width:0.5;" x1="444.72" x2="519.3665" y1="545.0866" y2="545.0866"/><text fill="#000000" font-family="sans-serif" font-size="14" lengthAdjust="spacing" textLength="54.6465" x="454.72" y="537.1334">Aborted</text></g><g class="end_entity" data-qualified-name=".end." data-source-line="24" id="ent0015"><ellipse cx="260.04" cy="651.2183" fill="none" rx="11" ry="11" style="stroke:#222222;stroke-width:1;"/><ellipse cx="260.04" cy="651.2183" fill="#222222" rx="6" ry="6" style="stroke:#222222;stroke-width:1;"/></g><g class="entity" data-qualified-name="GMN2" data-source-line="28" id="ent0003"><path d="M482.05,250.1083 L482.05,281.7283 L447.07,285.7283 L482.05,289.7283 L482.05,321.3505 A0,0 0 0 0 482.05,321.3505 L758.029,321.3505 A0,0 0 0 0 758.029,321.3505 L758.029,260.1083 L748.029,250.1083 L482.05,250.1083 A0,0 0 0 0 482.05,250.1083" fill="#FEFFDD" style="stroke:#181818;stroke-width:0.5;"/><path d="M748.029,250.1083 L748.029,260.1083 L758.029,260.1083 L748.029,250.1083" fill="#FEFFDD" style="stroke:#181818;stroke-width:0.5;"/><text fill="#000000" font-family="sans-serif" font-size="13" lengthAdjust="spacing" textLength="190.8804" x="488.05" y="267.6766">before/ captured at open. The</text><text fill="#000000" font-family="sans-serif" font-size="13" lengthAdjust="spacing" textLength="254.979" x="488.05" y="282.9872">AwaitingClarification step is enforced by</text><text fill="#000000" font-family="sans-serif" font-size="13" lengthAdjust="spacing" textLength="221.5269" x="488.05" y="298.2977">SKILL.md (never guess) but is not a</text><text fill="#000000" font-family="sans-serif" font-size="13" lengthAdjust="spacing" textLength="173.4878" x="488.05" y="313.6083">CycleStatus variant in code.</text></g><g class="entity" data-qualified-name="GMN5" data-source-line="35" id="ent0006"><path d="M108.15,507.9783 L108.15,539.5983 L73.4,543.5983 L108.15,547.5983 L108.15,579.2205 A0,0 0 0 0 108.15,579.2205 L409.9386,579.2205 A0,0 0 0 0 409.9386,579.2205 L409.9386,517.9783 L399.9386,507.9783 L108.15,507.9783 A0,0 0 0 0 108.15,507.9783" fill="#FEFFDD" style="stroke:#181818;stroke-width:0.5;"/><path d="M399.9386,507.9783 L399.9386,517.9783 L409.9386,517.9783 L399.9386,507.9783" fill="#FEFFDD" style="stroke:#181818;stroke-width:0.5;"/><text fill="#000000" font-family="sans-serif" font-size="13" lengthAdjust="spacing" textLength="246.0732" x="114.15" y="525.5466">manifest: status=closed, closed_at set,</text><text fill="#000000" font-family="sans-serif" font-size="13" lengthAdjust="spacing" textLength="280.7886" x="114.15" y="540.8572">touched_files populated. .mdd/cycles/&lt;N&gt;/</text><text fill="#000000" font-family="sans-serif" font-size="13" lengthAdjust="spacing" textLength="271.8511" x="114.15" y="556.1677">now has before/, after/, and the annotated</text><text fill="#000000" font-family="sans-serif" font-size="13" lengthAdjust="spacing" textLength="146.4341" x="114.15" y="571.4783">diff the viewer renders.</text></g><!--link *start* to Open--><g class="link" data-entity-1="ent0002" data-entity-2="ent0002" data-link-type="dependency" data-source-line="12" id="lnk3"><path d="M260.04,63.7983 C260.04,80.3283 260.04,110.7183 260.04,149.2783" fill="none" id="*start*-to-Open" style="stroke:#181818;stroke-width:1;"/><polygon fill="#181818" points="260.04,155.2783,264.04,146.2783,260.04,150.2783,256.04,146.2783,260.04,155.2783" style="stroke:#181818;stroke-width:1;"/><text fill="#000000" font-family="sans-serif" font-size="13" lengthAdjust="spacing" textLength="151.3916" x="316.674" y="107.0566">/mdd-cycle opens cycle</text><text fill="#000000" font-family="sans-serif" font-size="13" lengthAdjust="spacing" textLength="262.6597" x="261.04" y="122.3672">(manifest status: open, before/ snapshot)</text></g><!--link Open to Closed--><g class="link" data-entity-1="ent0002" data-entity-2="ent0011" data-link-type="dependency" data-source-line="21" id="lnk12"><path d="M148.75,416.1683 C115.07,455.3283 85.4717,489.7587 64.7417,513.8687" fill="none" id="Open-to-Closed" style="stroke:#181818;stroke-width:1;"/><polygon fill="#181818" points="60.83,518.4183,69.7306,514.2018,64.0898,514.627,63.6646,508.9861,60.83,518.4183" style="stroke:#181818;stroke-width:1;"/><text fill="#000000" font-family="sans-serif" font-size="13" lengthAdjust="spacing" textLength="180.2417" x="158.0227" y="459.5466">/mdd-review parity matches</text><text fill="#000000" font-family="sans-serif" font-size="13" lengthAdjust="spacing" textLength="259.3271" x="118.48" y="474.8572">(after/ snapshot + &lt;diagram&gt;.diff.puml)</text></g><!--link Open to Aborted--><g class="link" data-entity-1="ent0002" data-entity-2="ent0013" data-link-type="dependency" data-source-line="22" id="lnk14"><path d="M372.34,416.1683 C406.33,455.3283 436.2188,489.7755 457.1288,513.8855" fill="none" id="Open-to-Aborted" style="stroke:#181818;stroke-width:1;"/><polygon fill="#181818" points="461.06,518.4183,458.1851,508.9984,457.784,514.641,452.1414,514.2399,461.06,518.4183" style="stroke:#181818;stroke-width:1;"/><text fill="#000000" font-family="sans-serif" font-size="13" lengthAdjust="spacing" textLength="127.4165" x="423.5" y="467.0466">user cancels the run</text></g><!--link Closed to *end*--><g class="link" data-entity-1="ent0011" data-entity-2="ent0015" data-link-type="dependency" data-source-line="24" id="lnk16"><path d="M73.47,568.6583 C79.21,572.3883 85.21,576.0583 91.04,579.2183 C148.67,610.4783 217.3122,635.4395 244.1422,644.7595" fill="none" id="Closed-to-*end*" style="stroke:#181818;stroke-width:1;"/><polygon fill="#181818" points="249.81,646.7283,242.6209,639.9965,245.0869,645.0876,239.9958,647.5536,249.81,646.7283" style="stroke:#181818;stroke-width:1;"/></g><!--link Aborted to *end*--><g class="link" data-entity-1="ent0013" data-entity-2="ent0015" data-link-type="dependency" data-source-line="25" id="lnk17"><path d="M444.94,569.0683 C439.04,572.6283 432.94,576.1283 427.04,579.2183 C369.81,609.1483 302.7841,634.6151 276.1041,644.3851" fill="none" id="Aborted-to-*end*" style="stroke:#181818;stroke-width:1;"/><polygon fill="#181818" points="270.47,646.4483,280.2966,647.1096,275.1651,644.729,277.5457,639.5974,270.47,646.4483" style="stroke:#181818;stroke-width:1;"/></g><?plantuml-src TLJBRjim4BphAnQzH6ub-QwcHW8t1OAwpI6v54qHqEBA9YgH0adP28ByUuUK53-G0WPeBtU7ipExlg0h9TFxXn_vyjToTPElRh_Tn6-pv8AkBDVfrxln3X74bhsrh7tkb6HgLCtLSzKm2KUgxHfkSSUof1WjosKuxhtmFUuTob_ehcETqR8nZcL6rsjZKK2ldybRePtoocX7mZ99gtQiQVrCViiqRwNC8ofGt5_LD0Kz85urmgfQLI8KKYTwntY9MDV6LW0UosC5hNiVBhNn903JiNNAXUTTf9YHCwHYYjkQlGvT2NBSrFc17E4JUYYY75UINVMUVXbzk7RvkbUDfwZ2GQoIZcK9MFbYq2DWnqOjxnJlqOvL_fbIKNksvBJemClJ9vAghccFIyzwbf6n8yma9t0WXALAw8gRuiCiySg3mnaJIgl1pbcI_FxuX_9y4O6eFDAR329kSFHHfwtGA7T-rAoCrncj6OBp_8qa44C23tWl2T7qmCgOJkaD8kEtuoXUVfiZGhWL7Ov7lHEDaW4EiL6Sj5Mk5RxQpiwWhlS2JkdDycGqIXBjMcrw0yqbLyeXYCBtaqyPHIdX_nxpahmcIMmff8okbU-P5gcnWsBHlVcnVPTIYOqLxQ88HXPTtpQp0-faOddieOjZR7kT9EEh8HMQ9bFwz3l1U2DJRRQUJ1trHv-JFvNeV6-HBdnqBcxHVtN0SdHdwuJS---tgrNHIaerxy1mqxDpizFjefCXtm5Km56bgJAIYuIr38bypdRe3TNJc9NZd7sfnd-CuNm2VSS-GwOtFOIMJxLgs55dkhx1eCY2m53EuzYw-UNFnHovsknfYwqUrSXey0Od-0I1XGQVK8xak6GX66n5crWKYGauaFy7?></g></svg>