<svg xmlns="http://www.w3.org/2000/svg" xmlns:xlink="http://www.w3.org/1999/xlink" contentStyleType="text/css" data-diagram-type="CLASS" height="586px" preserveAspectRatio="none" style="width:1009px;height:586px;background:#FFFFFF;" version="1.1" viewBox="0 0 1009 586" width="1009px" zoomAndPan="magnify"><?plantuml 1.2026.3?><defs/><g><g class="title" data-source-line="39"><text fill="#000000" font-family="sans-serif" font-size="14" font-weight="700" lengthAdjust="spacing" textLength="248.5342" x="377.1174" y="23.5352">Render engine &#8212; domain (current)</text></g><!--class RenderEngine--><g class="entity" data-qualified-name="RenderEngine" data-source-line="41" id="ent0002"><rect fill="#90EE90" height="139.0625" rx="2.5" ry="2.5" style="stroke:#181818;stroke-width:0.5;" width="273.7275" x="292.04" y="44.4883"/><ellipse cx="378.0429" cy="64.7988" fill="#ADD1B2" rx="11" ry="11" style="stroke:#181818;stroke-width:1;"/><path d="M380.5161,70.9419 Q379.935,71.2407 379.2959,71.3901 Q378.6567,71.5396 377.9511,71.5396 Q375.4443,71.5396 374.1245,69.8877 Q372.8046,68.2358 372.8046,65.1147 Q372.8046,61.9854 374.1245,60.3335 Q375.4443,58.6816 377.9511,58.6816 Q378.6567,58.6816 379.3042,58.8311 Q379.9516,58.9805 380.5161,59.2793 L380.5161,62.002 Q379.8852,61.4209 379.2917,61.1511 Q378.6982,60.8813 378.0673,60.8813 Q376.7226,60.8813 376.0378,61.948 Q375.353,63.0146 375.353,65.1147 Q375.353,67.2065 376.0378,68.2732 Q376.7226,69.3398 378.0673,69.3398 Q378.6982,69.3398 379.2917,69.0701 Q379.8852,68.8003 380.5161,68.2192 Z " fill="#000000"/><text fill="#000000" font-family="sans-serif" font-size="12" font-style="italic" lengthAdjust="spacing" textLength="48.5449" x="420.8813" y="61.0898">&#171;added&#187;</text><text fill="#000000" font-family="sans-serif" font-size="14" lengthAdjust="spacing" textLength="93.2217" x="398.5429" y="77.1563">RenderEngine</text><line style="stroke:#181818;stroke-width:0.5;" x1="293.04" x2="564.7675" y1="85.1094" y2="85.1094"/><g data-visibility-modifier="PUBLIC_FIELD"><ellipse cx="303.04" cy="98.8535" fill="none" rx="3" ry="3" style="stroke:#038048;stroke-width:1;"/></g><text fill="#000000" font-family="sans-serif" font-size="14" lengthAdjust="spacing" textLength="107.4268" x="312.04" y="102.6445">project : Project</text><line style="stroke:#181818;stroke-width:0.5;" x1="293.04" x2="564.7675" y1="109.5977" y2="109.5977"/><g data-visibility-modifier="PUBLIC_METHOD"><ellipse cx="303.04" cy="123.3418" fill="#84BE84" rx="3" ry="3" style="stroke:#038048;stroke-width:1;"/></g><text fill="#000000" font-family="sans-serif" font-size="14" lengthAdjust="spacing" textLength="171.6367" x="312.04" y="127.1328">renderedTrees : Set(Tree)</text><g data-visibility-modifier="PUBLIC_METHOD"><ellipse cx="303.04" cy="139.8301" fill="#84BE84" rx="3" ry="3" style="stroke:#038048;stroke-width:1;"/></g><text fill="#000000" font-family="sans-serif" font-size="14" lengthAdjust="spacing" textLength="173.2637" x="312.04" y="143.6211">sources() : Set(SourceFile)</text><g data-visibility-modifier="PUBLIC_METHOD"><ellipse cx="303.04" cy="156.3184" fill="#84BE84" rx="3" ry="3" style="stroke:#038048;stroke-width:1;"/></g><text fill="#000000" font-family="sans-serif" font-size="14" lengthAdjust="spacing" textLength="243.9951" x="312.04" y="160.1094">render(s : SourceFile) : RenderedFile</text><g data-visibility-modifier="PUBLIC_METHOD"><ellipse cx="303.04" cy="172.8066" fill="#84BE84" rx="3" ry="3" style="stroke:#038048;stroke-width:1;"/></g><text fill="#000000" font-family="sans-serif" font-size="14" lengthAdjust="spacing" textLength="247.7275" x="312.04" y="176.5977">renderedPathOf(s : SourceFile) : Path</text></g><!--class Project--><g class="entity" data-qualified-name="Project" data-source-line="49" id="ent0003"><rect fill="#F1F1F1" height="80.9766" rx="2.5" ry="2.5" style="stroke:#181818;stroke-width:0.5;" width="269.8037" x="7" y="263.3383"/><ellipse cx="114.3857" cy="279.3383" fill="#ADD1B2" rx="11" ry="11" style="stroke:#181818;stroke-width:1;"/><path d="M116.8589,285.4813 Q116.2778,285.7802 115.6387,285.9296 Q114.9995,286.079 114.2939,286.079 Q111.7871,286.079 110.4673,284.4271 Q109.1475,282.7753 109.1475,279.6542 Q109.1475,276.5248 110.4673,274.8729 Q111.7871,273.2211 114.2939,273.2211 Q114.9995,273.2211 115.647,273.3705 Q116.2944,273.5199 116.8589,273.8187 L116.8589,276.5414 Q116.228,275.9604 115.6345,275.6906 Q115.041,275.4208 114.4102,275.4208 Q113.0654,275.4208 112.3806,276.4875 Q111.6958,277.5541 111.6958,279.6542 Q111.6958,281.746 112.3806,282.8126 Q113.0654,283.8793 114.4102,283.8793 Q115.041,283.8793 115.6345,283.6095 Q116.228,283.3397 116.8589,282.7587 Z " fill="#000000"/><text fill="#000000" font-family="sans-serif" font-size="14" lengthAdjust="spacing" textLength="46.5322" x="134.8857" y="284.6293">Project</text><line style="stroke:#181818;stroke-width:0.5;" x1="8" x2="275.8037" y1="295.3383" y2="295.3383"/><line style="stroke:#181818;stroke-width:0.5;" x1="8" x2="275.8037" y1="303.3383" y2="303.3383"/><g data-visibility-modifier="PUBLIC_METHOD"><ellipse cx="18" cy="317.0824" fill="#84BE84" rx="3" ry="3" style="stroke:#038048;stroke-width:1;"/></g><text fill="#000000" font-family="sans-serif" font-size="14" lengthAdjust="spacing" textLength="191.8232" x="27" y="320.8734">enumeratedTrees : Set(Tree)</text><g data-visibility-modifier="PUBLIC_METHOD"><ellipse cx="18" cy="333.5707" fill="#84BE84" rx="3" ry="3" style="stroke:#038048;stroke-width:1;"/></g><text fill="#000000" font-family="sans-serif" font-size="14" lengthAdjust="spacing" textLength="243.8037" x="27" y="337.3617">sourcesFor(t : Tree) : Set(SourceFile)</text></g><!--class SourceFile--><g class="entity" data-qualified-name="SourceFile" data-source-line="54" id="ent0004"><rect fill="#F1F1F1" height="80.9766" rx="2.5" ry="2.5" style="stroke:#181818;stroke-width:0.5;" width="100.9268" x="311.44" y="263.3383"/><ellipse cx="326.44" cy="279.3383" fill="#ADD1B2" rx="11" ry="11" style="stroke:#181818;stroke-width:1;"/><path d="M328.9131,285.4813 Q328.3321,285.7802 327.6929,285.9296 Q327.0538,286.079 326.3482,286.079 Q323.8414,286.079 322.5215,284.4271 Q321.2017,282.7753 321.2017,279.6542 Q321.2017,276.5248 322.5215,274.8729 Q323.8414,273.2211 326.3482,273.2211 Q327.0538,273.2211 327.7012,273.3705 Q328.3487,273.5199 328.9131,273.8187 L328.9131,276.5414 Q328.2823,275.9604 327.6888,275.6906 Q327.0953,275.4208 326.4644,275.4208 Q325.1197,275.4208 324.4349,276.4875 Q323.7501,277.5541 323.7501,279.6542 Q323.7501,281.746 324.4349,282.8126 Q325.1197,283.8793 326.4644,283.8793 Q327.0953,283.8793 327.6888,283.6095 Q328.2823,283.3397 328.9131,282.7587 Z " fill="#000000"/><text fill="#000000" font-family="sans-serif" font-size="14" lengthAdjust="spacing" textLength="68.9268" x="340.44" y="284.6293">SourceFile</text><line style="stroke:#181818;stroke-width:0.5;" x1="312.44" x2="411.3668" y1="295.3383" y2="295.3383"/><g data-visibility-modifier="PUBLIC_FIELD"><ellipse cx="322.44" cy="309.0824" fill="none" rx="3" ry="3" style="stroke:#038048;stroke-width:1;"/></g><text fill="#000000" font-family="sans-serif" font-size="14" lengthAdjust="spacing" textLength="73.1514" x="331.44" y="312.8734">path : Path</text><g data-visibility-modifier="PUBLIC_FIELD"><ellipse cx="322.44" cy="325.5707" fill="none" rx="3" ry="3" style="stroke:#038048;stroke-width:1;"/></g><text fill="#000000" font-family="sans-serif" font-size="14" lengthAdjust="spacing" textLength="70.0342" x="331.44" y="329.3617">tree : Tree</text><line style="stroke:#181818;stroke-width:0.5;" x1="312.44" x2="411.3668" y1="336.3148" y2="336.3148"/></g><!--class RenderedFile--><g class="entity" data-qualified-name="RenderedFile" data-source-line="59" id="ent0005"><rect fill="#F1F1F1" height="64.4883" rx="2.5" ry="2.5" style="stroke:#181818;stroke-width:0.5;" width="119.6914" x="377.06" y="465.3183"/><ellipse cx="392.06" cy="481.3183" fill="#ADD1B2" rx="11" ry="11" style="stroke:#181818;stroke-width:1;"/><path d="M394.5331,487.4613 Q393.9521,487.7602 393.3129,487.9096 Q392.6738,488.059 391.9682,488.059 Q389.4614,488.059 388.1415,486.4071 Q386.8217,484.7553 386.8217,481.6342 Q386.8217,478.5048 388.1415,476.8529 Q389.4614,475.2011 391.9682,475.2011 Q392.6738,475.2011 393.3212,475.3505 Q393.9687,475.4999 394.5331,475.7988 L394.5331,478.5214 Q393.9023,477.9404 393.3088,477.6706 Q392.7153,477.4008 392.0844,477.4008 Q390.7397,477.4008 390.0549,478.4675 Q389.3701,479.5341 389.3701,481.6342 Q389.3701,483.726 390.0549,484.7926 Q390.7397,485.8593 392.0844,485.8593 Q392.7153,485.8593 393.3088,485.5895 Q393.9023,485.3197 394.5331,484.7387 Z " fill="#000000"/><text fill="#000000" font-family="sans-serif" font-size="14" lengthAdjust="spacing" textLength="87.6914" x="406.06" y="486.6093">RenderedFile</text><line style="stroke:#181818;stroke-width:0.5;" x1="378.06" x2="495.7514" y1="497.3183" y2="497.3183"/><g data-visibility-modifier="PUBLIC_FIELD"><ellipse cx="388.06" cy="511.0624" fill="none" rx="3" ry="3" style="stroke:#038048;stroke-width:1;"/></g><text fill="#000000" font-family="sans-serif" font-size="14" lengthAdjust="spacing" textLength="73.1514" x="397.06" y="514.8534">path : Path</text><line style="stroke:#181818;stroke-width:0.5;" x1="378.06" x2="495.7514" y1="521.8066" y2="521.8066"/></g><!--class Tree--><g class="entity" data-qualified-name="Tree" data-source-line="63" id="ent0006"><rect fill="#F1F1F1" height="146.9297" rx="2.5" ry="2.5" style="stroke:#181818;stroke-width:0.5;" width="112.0098" x="85.9" y="424.0983"/><ellipse cx="123.3231" cy="440.0983" fill="#EB937F" rx="11" ry="11" style="stroke:#181818;stroke-width:1;"/><path d="M126.9374,446.5983 L119.2176,446.5983 L119.2176,434.2052 L126.9374,434.2052 L126.9374,436.3634 L121.6664,436.3634 L121.6664,439.0363 L126.4393,439.0363 L126.4393,441.1945 L121.6664,441.1945 L121.6664,444.4401 L126.9374,444.4401 Z " fill="#000000"/><text fill="#000000" font-family="sans-serif" font-size="14" lengthAdjust="spacing" textLength="30.1807" x="142.306" y="445.3893">Tree</text><line style="stroke:#181818;stroke-width:0.5;" x1="86.9" x2="196.9098" y1="456.0983" y2="456.0983"/><text fill="#000000" font-family="sans-serif" font-size="14" lengthAdjust="spacing" textLength="48.4531" x="91.9" y="473.6334">Models</text><text fill="#000000" font-family="sans-serif" font-size="14" lengthAdjust="spacing" textLength="67.9834" x="91.9" y="490.1217">CycleDiffs</text><text fill="#000000" font-family="sans-serif" font-size="14" lengthAdjust="spacing" textLength="100.0098" x="91.9" y="506.61">OclConstraints</text><text fill="#000000" font-family="sans-serif" font-size="14" lengthAdjust="spacing" textLength="69.7129" x="91.9" y="523.0983">WholeMap</text><text fill="#000000" font-family="sans-serif" font-size="14" lengthAdjust="spacing" textLength="47.0586" x="91.9" y="539.5866">Deploy</text><text fill="#000000" font-family="sans-serif" font-size="14" lengthAdjust="spacing" textLength="71.3604" x="91.9" y="556.0748">ReviewDiff</text><line style="stroke:#181818;stroke-width:0.5;" x1="86.9" x2="196.9098" y1="563.028" y2="563.028"/></g><g class="entity" data-qualified-name="GMN12" data-source-line="79" id="ent0013"><path d="M631.04,260.5483 L631.04,347.101 A0,0 0 0 0 631.04,347.101 L994.769,347.101 A0,0 0 0 0 994.769,347.101 L994.769,270.5483 L984.769,260.5483 L729.49,260.5483 L566.18,182.1583 L721.49,260.5483 L631.04,260.5483 A0,0 0 0 0 631.04,260.5483" fill="#FEFFDD" style="stroke:#181818;stroke-width:0.5;"/><path d="M984.769,260.5483 L984.769,270.5483 L994.769,270.5483 L984.769,260.5483" fill="#FEFFDD" style="stroke:#181818;stroke-width:0.5;"/><text fill="#000000" font-family="sans-serif" font-size="13" lengthAdjust="spacing" textLength="228.1665" x="637.04" y="278.1166">As built: render_selection consumes</text><text fill="#000000" font-family="sans-serif" font-size="13" lengthAdjust="spacing" textLength="302.0723" x="637.04" y="293.4272">Project::all_render_sources (RenderTree::ALL) &#8212;</text><text fill="#000000" font-family="sans-serif" font-size="13" lengthAdjust="spacing" textLength="205.188" x="637.04" y="308.7377">one list, no skill-prose duplicate</text><text fill="#000000" font-family="sans-serif" font-size="13" lengthAdjust="spacing" textLength="328.0469" x="637.04" y="324.0483">(OCL-RENDER-TREE-PARITY). rendered_mirror_path</text><text fill="#000000" font-family="sans-serif" font-size="13" lengthAdjust="spacing" textLength="342.729" x="637.04" y="339.3588">is the pure path mirror (OCL-RENDER-PATH-MIRROR).</text></g><!--reverse link RenderEngine to Project--><g class="link" data-entity-1="ent0002" data-entity-2="ent0003" data-link-type="aggregation" data-source-line="72" id="lnk7"><path codeLine="72" d="M280.6222,155.1393 C243.0322,169.9193 215.66,185.8783 185.9,213.5483 C171.48,226.9583 161.17,246.1283 154.18,263.2683" fill="none" id="RenderEngine-backto-Project" style="stroke:#181818;stroke-width:1;"/><polygon fill="none" points="291.79,150.7483,284.7424,149.2212,280.6222,155.1393,287.6698,156.6664,291.79,150.7483" style="stroke:#181818;stroke-width:1;"/><text fill="#000000" font-family="sans-serif" font-size="13" lengthAdjust="spacing" textLength="143.6538" x="186.9" y="227.1166">tree set (single source)</text><text fill="#000000" font-family="sans-serif" font-size="13" lengthAdjust="spacing" textLength="8.2202" x="275.6382" y="150.0154">1</text><text fill="#000000" font-family="sans-serif" font-size="13" lengthAdjust="spacing" textLength="8.2202" x="147.6217" y="252.6033">1</text></g><!--link RenderEngine to SourceFile--><g class="link" data-entity-1="ent0002" data-entity-2="ent0004" data-link-type="dependency" data-source-line="73" id="lnk8"><path codeLine="73" d="M357.81,183.8783 C351.37,193.2283 345.82,203.1983 341.9,213.5483 C335.94,229.2883 336.5757,241.5766 341.4357,257.2766" fill="none" id="RenderEngine-to-SourceFile" style="stroke:#181818;stroke-width:1;stroke-dasharray:7,7;"/><polygon fill="#181818" points="343.21,263.0083,344.3697,253.2279,341.7314,258.2319,336.7275,255.5936,343.21,263.0083" style="stroke:#181818;stroke-width:1;"/><text fill="#000000" font-family="sans-serif" font-size="13" lengthAdjust="spacing" textLength="143.0889" x="342.9" y="227.1166">enumerates via Project</text></g><!--link RenderEngine to RenderedFile--><g class="link" data-entity-1="ent0002" data-entity-2="ent0005" data-link-type="dependency" data-source-line="74" id="lnk9"><path codeLine="74" d="M478.86,184.0383 C483.78,193.5783 488.02,203.5483 490.9,213.5483 C513.14,290.6483 510.17,316.1983 490.9,394.0983 C484.62,419.4783 473.964,440.4003 461.874,459.8803" fill="none" id="RenderEngine-to-RenderedFile" style="stroke:#181818;stroke-width:1;stroke-dasharray:7,7;"/><polygon fill="#181818" points="458.71,464.9783,466.8546,459.4407,461.3467,460.73,460.0573,455.222,458.71,464.9783" style="stroke:#181818;stroke-width:1;"/><text fill="#000000" font-family="sans-serif" font-size="13" lengthAdjust="spacing" textLength="81.7769" x="507.49" y="308.8866">writes mirror</text></g><!--link SourceFile to RenderedFile--><g class="link" data-entity-1="ent0004" data-entity-2="ent0005" data-link-type="dependency" data-source-line="75" id="lnk10"><path codeLine="75" d="M354.65,344.3683 C353.25,360.1983 353.6,378.3783 358.9,394.0983 C367.98,420.9983 383.2002,441.9921 400.3202,460.7921" fill="none" id="SourceFile-to-RenderedFile" style="stroke:#181818;stroke-width:1;"/><polygon fill="#181818" points="404.36,465.2283,401.2578,455.8808,400.9935,461.5314,395.3428,461.2671,404.36,465.2283" style="stroke:#181818;stroke-width:1;"/><text fill="#000000" font-family="sans-serif" font-size="13" lengthAdjust="spacing" textLength="126.4263" x="359.9" y="390.6666">deterministic mirror</text><text fill="#000000" font-family="sans-serif" font-size="13" lengthAdjust="spacing" textLength="8.2202" x="344.8044" y="364.9193">1</text><text fill="#000000" font-family="sans-serif" font-size="13" lengthAdjust="spacing" textLength="8.2202" x="388.8452" y="454.6129">1</text></g><!--link Project to Tree--><g class="link" data-entity-1="ent0003" data-entity-2="ent0006" data-link-type="dependency" data-source-line="76" id="lnk11"><path codeLine="76" d="M141.9,344.5483 C141.9,367.4783 141.9,391.0183 141.9,417.9483" fill="none" id="Project-to-Tree" style="stroke:#181818;stroke-width:1;"/><polygon fill="#181818" points="141.9,423.9483,145.9,414.9483,141.9,418.9483,137.9,414.9483,141.9,423.9483" style="stroke:#181818;stroke-width:1;"/></g><?plantuml-src jLRDRjj64BxhAGREeIGYoicbG1XNYAoVLAXa6xI3eYTbJOwahPTSOdTfnp4CzDG7AFg4UPBExfAIQ2avLGTB-pCpE_FDDv-ixtXHCiLog3IcJ2CyTG3EMNgtKh8gig4KKfsTiIp3hD-7L-_UZCVltXmoKPZBUsyqcPp_F7pRUUxeJVHKCAsF5LlcfIomC4UAhmqpny95OMfOiHB7YizI8zMHOjEduIalsV-C_4_mWMV1w78U9UEBqJY9nXSVfnVZq5ueN0QVhiVHQ3gPqCVWOpAOqmLT3IkbY0EHvXb29dF62s15kgRob_HdrWYQEwGpDAXoNd1DwLC7YWmLOB7Y1L8Sfk6suiB4a6VP8fKAupXnDZSA4G8RYDW6nkwmg79Kp71PXF2QlA-K_9DQ6iTFFkv2oqgbgBjCYCMB8x_5R95pfQHQbCoidxiK95Fy7WkuVNGfUBCuRhnHq0Fq85MNkR8-arLTncVh4QM2KnHTtT9avDOg6Fg5Rae9Ut13dgVMkWQ0-Ye4S0sCWX9s3ugL9QgU0_T3XZhTRqaNJiujLWJQT-1wWhdCKEWk31zJWIE-NDBwCXL3MMYZg4c6zh-lfS0vAximmbB8nouaUC_nmPh3CpnmiuPjq3WUp6Qx3NMj4DJEzrlysrYVxiE_wHq2ttTiTyN2OjzhCyS7-lRtFpqg_RJnEmNl285oDK1cQuOxB0qGhALWAHByF-ni_PobcUVb-xg_YzAdMR-sI2se2_T2SoHJGGTiHHDAlLJOwgO6cZP51VVQh0bgsi0UKG2_b58JN9mcef0KSQNX5rXMH1QDfWjH90ln26Us2ReFL3Xv2D850nOwQqnC9DFlKIumc1Cg1kdH-MYqy0nRNFysdSr2SC4pIGaigwzV7-jOXAHXTzW5MsaXNJkCeZKTMS8l-HUoNArGMpnrxoJi66w8AidkjCEtl_vjf298lNw4dOx_hVAMOs-urJ8hTA-XRWF43M_SQKC1Ir9DTzTe0hiEtMtDko2iRwxTVi95VU-z0-UulQ9TKeUr-zOxLuJlvVA0XxqW8QqhgLEiKz_G_iTfJgGAR7tkua36c-ZRmmOREp1r3dRlfjC7sdhjrdJ0Z-nidk0rXAwzYj1YAoEqQUi87JH2Gakl9BJOIeaDsshhoTiJa57algysBNK9Mv85jRvuICAsRw_NtwqztWAhuPwp3J7sd5gbnpIPtBfuqUZiHBH9HL7VVR_mQUjGxTeKO7qSs9r2ahZTIcDa3dBPOZJXCjZyqEtfJqgWKZ4MqOqk7b3Gu8KcXtQWoCVgbfNZhXKCD-GH3GpzRvbLLXa88Z8ABeUpvjVa9XcFewj1ChtvWwJna0AJGosAPKMQvhZIwEnEeAl1pQ_HV9eabqdO8mfbO37u3m00?></g></svg>