<svg xmlns="http://www.w3.org/2000/svg" xmlns:xlink="http://www.w3.org/1999/xlink" contentStyleType="text/css" data-diagram-type="CLASS" height="347px" preserveAspectRatio="none" style="width:553px;height:347px;background:#FFFFFF;" version="1.1" viewBox="0 0 553 347" width="553px" zoomAndPan="magnify"><?plantuml 1.2026.3?><defs/><g><g class="title" data-source-line="15"><text fill="#000000" font-family="sans-serif" font-size="14" font-weight="700" lengthAdjust="spacing" textLength="484.5791" x="30.7645" y="23.5352">MDD init &#8212; SeededOnce file class added &#183; cycle 0022 diff (current)</text></g><!--class InitFileClass--><g class="entity" data-qualified-name="InitFileClass" data-source-line="17" id="ent0002"><rect fill="#F1F1F1" height="97.4648" rx="2.5" ry="2.5" style="stroke:#181818;stroke-width:0.5;" width="156.1631" x="226.14" y="235.4483"/><ellipse cx="260.4992" cy="251.4483" fill="#EB937F" rx="11" ry="11" style="stroke:#181818;stroke-width:1;"/><path d="M264.1135,257.9483 L256.3938,257.9483 L256.3938,245.5552 L264.1135,245.5552 L264.1135,247.7134 L258.8425,247.7134 L258.8425,250.3863 L263.6154,250.3863 L263.6154,252.5445 L258.8425,252.5445 L258.8425,255.7901 L264.1135,255.7901 Z " fill="#000000"/><text fill="#000000" font-family="sans-serif" font-size="14" lengthAdjust="spacing" textLength="81.1426" x="278.8013" y="256.7393">InitFileClass</text><line style="stroke:#181818;stroke-width:0.5;" x1="227.14" x2="381.3031" y1="267.4483" y2="267.4483"/><text fill="#000000" font-family="sans-serif" font-size="14" lengthAdjust="spacing" textLength="83.7881" x="232.14" y="284.9834">Regenerable</text><text fill="#000000" font-family="sans-serif" font-size="14" lengthAdjust="spacing" textLength="126.4717" x="232.14" y="301.4717">AccumulatingState</text><text fill="#000000" font-family="sans-serif" font-size="14" lengthAdjust="spacing" textLength="144.1631" x="232.14" y="317.96">SeededOnce &#171;added&#187;</text><line style="stroke:#181818;stroke-width:0.5;" x1="227.14" x2="381.3031" y1="324.9131" y2="324.9131"/></g><!--class StateMigration--><g class="entity" data-qualified-name="StateMigration" data-source-line="23" id="ent0003"><rect fill="#F1F1F1" height="113.9531" rx="2.5" ry="2.5" style="stroke:#181818;stroke-width:0.5;" width="168.4336" x="7" y="44.4883"/><ellipse cx="39.1105" cy="60.4883" fill="#ADD1B2" rx="11" ry="11" style="stroke:#181818;stroke-width:1;"/><path d="M41.5837,66.6313 Q41.0026,66.9302 40.3635,67.0796 Q39.7243,67.229 39.0188,67.229 Q36.5119,67.229 35.1921,65.5771 Q33.8723,63.9253 33.8723,60.8042 Q33.8723,57.6748 35.1921,56.0229 Q36.5119,54.3711 39.0188,54.3711 Q39.7243,54.3711 40.3718,54.5205 Q41.0192,54.6699 41.5837,54.9688 L41.5837,57.6914 Q40.9528,57.1104 40.3593,56.8406 Q39.7658,56.5708 39.135,56.5708 Q37.7902,56.5708 37.1054,57.6375 Q36.4206,58.7041 36.4206,60.8042 Q36.4206,62.896 37.1054,63.9626 Q37.7902,65.0293 39.135,65.0293 Q39.7658,65.0293 40.3593,64.7595 Q40.9528,64.4897 41.5837,63.9087 Z " fill="#000000"/><text fill="#000000" font-family="sans-serif" font-size="14" lengthAdjust="spacing" textLength="98.4102" x="56.9129" y="65.7793">StateMigration</text><line style="stroke:#181818;stroke-width:0.5;" x1="8" x2="174.4336" y1="76.4883" y2="76.4883"/><g data-visibility-modifier="PUBLIC_FIELD"><ellipse cx="18" cy="90.2324" fill="none" rx="3" ry="3" style="stroke:#038048;stroke-width:1;"/></g><text fill="#000000" font-family="sans-serif" font-size="14" lengthAdjust="spacing" textLength="83.7266" x="27" y="94.0234">path : String</text><g data-visibility-modifier="PUBLIC_FIELD"><ellipse cx="18" cy="106.7207" fill="none" rx="3" ry="3" style="stroke:#038048;stroke-width:1;"/></g><text fill="#000000" font-family="sans-serif" font-size="14" lengthAdjust="spacing" textLength="142.4336" x="27" y="110.5117">schemaVersion : u32</text><g data-visibility-modifier="PUBLIC_FIELD"><ellipse cx="18" cy="123.209" fill="none" rx="3" ry="3" style="stroke:#038048;stroke-width:1;"/></g><text fill="#000000" font-family="sans-serif" font-size="14" lengthAdjust="spacing" textLength="137.9766" x="27" y="127">onDiskVersion : u32</text><line style="stroke:#181818;stroke-width:0.5;" x1="8" x2="174.4336" y1="133.9531" y2="133.9531"/><g data-visibility-modifier="PUBLIC_METHOD"><ellipse cx="18" cy="147.6973" fill="#84BE84" rx="3" ry="3" style="stroke:#038048;stroke-width:1;"/></g><text fill="#000000" font-family="sans-serif" font-size="14" lengthAdjust="spacing" textLength="136.1787" x="27" y="151.4883">migrate() : Outcome</text></g><!--class Outcome--><g class="entity" data-qualified-name="Outcome" data-source-line="30" id="ent0004"><rect fill="#F1F1F1" height="97.4648" rx="2.5" ry="2.5" style="stroke:#181818;stroke-width:0.5;" width="93.4414" x="13.5" y="235.4483"/><ellipse cx="28.5" cy="251.4483" fill="#EB937F" rx="11" ry="11" style="stroke:#181818;stroke-width:1;"/><path d="M32.1143,257.9483 L24.3945,257.9483 L24.3945,245.5552 L32.1143,245.5552 L32.1143,247.7134 L26.8433,247.7134 L26.8433,250.3863 L31.6162,250.3863 L31.6162,252.5445 L26.8433,252.5445 L26.8433,255.7901 L32.1143,255.7901 Z " fill="#000000"/><text fill="#000000" font-family="sans-serif" font-size="14" lengthAdjust="spacing" textLength="61.4414" x="42.5" y="256.7393">Outcome</text><line style="stroke:#181818;stroke-width:0.5;" x1="14.5" x2="105.9414" y1="267.4483" y2="267.4483"/><text fill="#000000" font-family="sans-serif" font-size="14" lengthAdjust="spacing" textLength="52.7939" x="19.5" y="284.9834">Created</text><text fill="#000000" font-family="sans-serif" font-size="14" lengthAdjust="spacing" textLength="60.1426" x="19.5" y="301.4717">Migrated</text><text fill="#000000" font-family="sans-serif" font-size="14" lengthAdjust="spacing" textLength="54.0039" x="19.5" y="317.96">Skipped</text><line style="stroke:#181818;stroke-width:0.5;" x1="14.5" x2="105.9414" y1="324.9131" y2="324.9131"/></g><!--class Seed--><g class="entity" data-qualified-name="Seed" data-source-line="36" id="ent0005"><rect fill="#90EE90" height="89.5977" rx="2.5" ry="2.5" style="stroke:#181818;stroke-width:0.5;" width="297.7881" x="240.32" y="56.6683"/><ellipse cx="255.32" cy="93.4671" fill="#ADD1B2" rx="11" ry="11" style="stroke:#181818;stroke-width:1;"/><path d="M257.7931,99.6102 Q257.2121,99.909 256.5729,100.0584 Q255.9338,100.2078 255.2282,100.2078 Q252.7214,100.2078 251.4015,98.556 Q250.0817,96.9041 250.0817,93.783 Q250.0817,90.6536 251.4015,89.0018 Q252.7214,87.3499 255.2282,87.3499 Q255.9338,87.3499 256.5812,87.4993 Q257.2287,87.6488 257.7931,87.9476 L257.7931,90.6702 Q257.1623,90.0892 256.5688,89.8194 Q255.9753,89.5496 255.3444,89.5496 Q253.9997,89.5496 253.3149,90.6163 Q252.6301,91.6829 252.6301,93.783 Q252.6301,95.8748 253.3149,96.9415 Q253.9997,98.0081 255.3444,98.0081 Q255.9753,98.0081 256.5688,97.7383 Q257.1623,97.4686 257.7931,96.8875 Z " fill="#000000"/><text fill="#000000" font-family="sans-serif" font-size="12" font-style="italic" lengthAdjust="spacing" textLength="48.5449" x="377.9416" y="73.2698">&#171;added&#187;</text><text fill="#000000" font-family="sans-serif" font-size="14" lengthAdjust="spacing" textLength="238.2871" x="283.0705" y="89.3363">SeededOnce: .mdd/ralph/PLAN.md</text><text fill="#000000" font-family="sans-serif" font-size="14" lengthAdjust="spacing" textLength="191.9736" x="306.2272" y="105.8245">write_text_create_if_missing</text><text fill="#000000" font-family="sans-serif" font-size="14" lengthAdjust="spacing" textLength="265.7881" x="269.32" y="122.3128">(create once; no handler; no migration)</text><line style="stroke:#181818;stroke-width:0.5;" x1="241.32" x2="537.1081" y1="130.2659" y2="130.2659"/><line style="stroke:#181818;stroke-width:0.5;" x1="241.32" x2="537.1081" y1="138.2659" y2="138.2659"/></g><!--link StateMigration to InitFileClass--><g class="link" data-entity-1="ent0003" data-entity-2="ent0002" data-link-type="dependency" data-source-line="38" id="lnk6"><path codeLine="38" d="M112.18,158.9183 C120.31,175.3983 130.91,192.4483 144.22,205.4483 C167.08,227.7783 192.1085,242.3738 220.3685,254.6738" fill="none" id="StateMigration-to-InitFileClass" style="stroke:#181818;stroke-width:1;stroke-dasharray:7,7;"/><polygon fill="#181818" points="225.87,257.0683,219.2141,249.8089,221.2854,255.0729,216.0214,257.1442,225.87,257.0683" style="stroke:#181818;stroke-width:1;"/><polygon fill="#000000" points="152.9641,200.4174,148.1388,192.2219,144.2431,196.6233,152.9641,200.4174" style="stroke:#000000;stroke-width:1;"/><text fill="#000000" font-family="sans-serif" font-size="13" lengthAdjust="spacing" textLength="183.4409" x="158.22" y="202.0166">applies to AccumulatingState</text></g><!--link StateMigration to Outcome--><g class="link" data-entity-1="ent0003" data-entity-2="ent0004" data-link-type="dependency" data-source-line="39" id="lnk7"><path codeLine="39" d="M65.44,158.9183 C62.03,168.5883 59.08,178.6683 57.22,188.4483 C54.35,203.4783 53.7073,214.094 54.3673,229.154" fill="none" id="StateMigration-to-Outcome" style="stroke:#181818;stroke-width:1;stroke-dasharray:7,7;"/><polygon fill="#181818" points="54.63,235.1483,58.2321,225.9818,54.4111,230.1531,50.2398,226.332,54.63,235.1483" style="stroke:#181818;stroke-width:1;"/><polygon fill="#000000" points="61.4414,202.0426,65.753,193.5655,59.9469,192.6501,61.4414,202.0426" style="stroke:#000000;stroke-width:1;"/><text fill="#000000" font-family="sans-serif" font-size="13" lengthAdjust="spacing" textLength="36.3594" x="71.22" y="202.0166">yields</text></g><!--link Seed to InitFileClass--><g class="link" data-entity-1="ent0005" data-entity-2="ent0002" data-link-type="dependency" data-source-line="40" id="lnk8"><path codeLine="40" d="M374.34,146.7583 C367.66,165.2083 359.25,186.6683 350.22,205.4483 C345.53,215.1983 343.0266,220.1402 337.4866,229.7502" fill="none" id="Seed-to-InitFileClass" style="stroke:#181818;stroke-width:1;stroke-dasharray:7,7;"/><polygon fill="#181818" points="334.49,234.9483,342.4503,229.1489,336.9872,230.6165,335.5195,225.1534,334.49,234.9483" style="stroke:#181818;stroke-width:1;"/><polygon fill="#000000" points="360.6508,201.6733,367.0077,194.5993,361.6357,192.2138,360.6508,201.6733" style="stroke:#000000;stroke-width:1;"/><text fill="#000000" font-family="sans-serif" font-size="13" lengthAdjust="spacing" textLength="129.854" x="371.68" y="202.0166">realizes SeededOnce</text></g><?plantuml-src hLF1Zjem4BtdAqRRGnCLM4gbIfjTeUu6a90ALANgQINajITWaJYHxT2oLQL-HF-bztvAlwHZ9x0ie9vwYcVy_DxCcubPIrKopNBW6JC6lWK0Tuolbxgeb4YAhD0tDqm85Fq-lBZg3eTNtNCGZNcngK6ZqTtRv7NmFJ1xRbHL_b-fNy8xASB1RD8UJyUVslFXSD2UJPDX14-KTYKDy2tF4C9kjzUBw5NYGnU1a6aA8Q-qHcN1I85H3CozqWB6IjgHp33nflpvyHFcY4GxKno9vgooGv6YbuUqqD39XRZKB2jNbn_UtqufZ85hP9RkPKeqkJH6gYLi98ClMbfSMFng5pLc8TD50sY1mWrg81kqmrbK4596mSEMQDfjKkCO0LEYGUPogPrE1wO5TKGQZOlNy16Ng52pXmnRzFYMyoglCcO9DBVqfWN-C_4Cib0jJpkhB2zo1AQHg2f3r86LbioS30OWoQuZbo0b-vgbgYtv_QkPngdzKH3u5NbkkrkOWsefEYcMSWUI-zdJXWIrzFDUFEKhA9bTGKntcdXynl0LvkmpQkDGCLHlUZvVg84qwzDyusyOKQwnncdw9dPMEQsa7ZUT9ir4NCLhMPPqsXTvyTH3V6PhxjM_bkDUXNMEYkLu3Qg05KqiG-tF-Qxtw0AOyMuT-1GS-TFfz8-6GFz4MMOI3TZYr7_edsFOEH33Lc8cZ4CvtNFiL7ec7z4Sph7_5m00?></g></svg>