<svg xmlns="http://www.w3.org/2000/svg" xmlns:xlink="http://www.w3.org/1999/xlink" contentStyleType="text/css" data-diagram-type="CLASS" height="803px" preserveAspectRatio="none" style="width:1075px;height:803px;background:#FFFFFF;" version="1.1" viewBox="0 0 1075 803" width="1075px" zoomAndPan="magnify"><?plantuml 1.2026.3?><defs/><g><g class="title" data-source-line="13"><text fill="#000000" font-family="sans-serif" font-size="14" font-weight="700" lengthAdjust="spacing" textLength="241.165" x="413.4641" y="23.5352">Cycle tracking domain (objective)</text></g><!--class EntryPoint--><g class="entity" data-qualified-name="EntryPoint" data-source-line="15" id="ent0002"><rect fill="#F1F1F1" height="80.9766" rx="2.5" ry="2.5" style="stroke:#181818;stroke-width:0.5;" width="100.8652" x="178.35" y="550.0583"/><ellipse cx="193.35" cy="566.0583" fill="#EB937F" rx="11" ry="11" style="stroke:#181818;stroke-width:1;"/><path d="M196.9643,572.5583 L189.2445,572.5583 L189.2445,560.1652 L196.9643,560.1652 L196.9643,562.3234 L191.6933,562.3234 L191.6933,564.9963 L196.4662,564.9963 L196.4662,567.1545 L191.6933,567.1545 L191.6933,570.4001 L196.9643,570.4001 Z " fill="#000000"/><text fill="#000000" font-family="sans-serif" font-size="14" lengthAdjust="spacing" textLength="68.8652" x="207.35" y="571.3493">EntryPoint</text><line style="stroke:#181818;stroke-width:0.5;" x1="179.35" x2="278.2152" y1="582.0583" y2="582.0583"/><text fill="#000000" font-family="sans-serif" font-size="14" lengthAdjust="spacing" textLength="60.9014" x="184.35" y="599.5934">Generate</text><text fill="#000000" font-family="sans-serif" font-size="14" lengthAdjust="spacing" textLength="28.6016" x="184.35" y="616.0817">Map</text><line style="stroke:#181818;stroke-width:0.5;" x1="179.35" x2="278.2152" y1="623.0348" y2="623.0348"/></g><!--class CycleStatus--><g class="entity" data-qualified-name="CycleStatus" data-source-line="20" id="ent0003"><rect fill="#F1F1F1" height="97.4648" rx="2.5" ry="2.5" style="stroke:#181818;stroke-width:0.5;" width="109.5879" x="313.99" y="541.8083"/><ellipse cx="328.99" cy="557.8083" fill="#EB937F" rx="11" ry="11" style="stroke:#181818;stroke-width:1;"/><path d="M332.6043,564.3083 L324.8845,564.3083 L324.8845,551.9152 L332.6043,551.9152 L332.6043,554.0734 L327.3333,554.0734 L327.3333,556.7463 L332.1062,556.7463 L332.1062,558.9045 L327.3333,558.9045 L327.3333,562.1501 L332.6043,562.1501 Z " fill="#000000"/><text fill="#000000" font-family="sans-serif" font-size="14" lengthAdjust="spacing" textLength="77.5879" x="342.99" y="563.0993">CycleStatus</text><line style="stroke:#181818;stroke-width:0.5;" x1="314.99" x2="422.5779" y1="573.8083" y2="573.8083"/><text fill="#000000" font-family="sans-serif" font-size="14" lengthAdjust="spacing" textLength="36.1758" x="319.99" y="591.3434">Open</text><text fill="#000000" font-family="sans-serif" font-size="14" lengthAdjust="spacing" textLength="46.0811" x="319.99" y="607.8317">Closed</text><text fill="#000000" font-family="sans-serif" font-size="14" lengthAdjust="spacing" textLength="54.6465" x="319.99" y="624.32">Aborted</text><line style="stroke:#181818;stroke-width:0.5;" x1="314.99" x2="422.5779" y1="631.2731" y2="631.2731"/></g><!--class Cycle--><g class="entity" data-qualified-name="Cycle" data-source-line="26" id="ent0004"><rect fill="#F1F1F1" height="212.8828" rx="2.5" ry="2.5" style="stroke:#181818;stroke-width:0.5;" width="210.9326" x="330.32" y="235.4383"/><ellipse cx="413.527" cy="251.4383" fill="#ADD1B2" rx="11" ry="11" style="stroke:#181818;stroke-width:1;"/><path d="M416.0002,257.5813 Q415.4191,257.8802 414.78,258.0296 Q414.1408,258.179 413.4352,258.179 Q410.9284,258.179 409.6086,256.5271 Q408.2888,254.8753 408.2888,251.7542 Q408.2888,248.6248 409.6086,246.9729 Q410.9284,245.3211 413.4352,245.3211 Q414.1408,245.3211 414.7883,245.4705 Q415.4357,245.6199 416.0002,245.9187 L416.0002,248.6414 Q415.3693,248.0604 414.7758,247.7906 Q414.1823,247.5208 413.5514,247.5208 Q412.2067,247.5208 411.5219,248.5875 Q410.8371,249.6541 410.8371,251.7542 Q410.8371,253.846 411.5219,254.9126 Q412.2067,255.9793 413.5514,255.9793 Q414.1823,255.9793 414.7758,255.7095 Q415.3693,255.4397 416.0002,254.8587 Z " fill="#000000"/><text fill="#000000" font-family="sans-serif" font-size="14" lengthAdjust="spacing" textLength="36.0186" x="434.027" y="256.7293">Cycle</text><line style="stroke:#181818;stroke-width:0.5;" x1="331.32" x2="540.2526" y1="267.4383" y2="267.4383"/><g data-visibility-modifier="PUBLIC_FIELD"><ellipse cx="341.32" cy="281.1824" fill="none" rx="3" ry="3" style="stroke:#038048;stroke-width:1;"/></g><text fill="#000000" font-family="sans-serif" font-size="14" lengthAdjust="spacing" textLength="84.0479" x="350.32" y="284.9734">number : int</text><g data-visibility-modifier="PUBLIC_FIELD"><ellipse cx="341.32" cy="297.6707" fill="none" rx="3" ry="3" style="stroke:#038048;stroke-width:1;"/></g><text fill="#000000" font-family="sans-serif" font-size="14" lengthAdjust="spacing" textLength="81.8604" x="350.32" y="301.4617">slug : String</text><g data-visibility-modifier="PUBLIC_FIELD"><ellipse cx="341.32" cy="314.159" fill="none" rx="3" ry="3" style="stroke:#038048;stroke-width:1;"/></g><text fill="#000000" font-family="sans-serif" font-size="14" lengthAdjust="spacing" textLength="116.9219" x="350.32" y="317.95">entry : EntryPoint</text><g data-visibility-modifier="PUBLIC_FIELD"><ellipse cx="341.32" cy="330.6473" fill="none" rx="3" ry="3" style="stroke:#038048;stroke-width:1;"/></g><text fill="#000000" font-family="sans-serif" font-size="14" lengthAdjust="spacing" textLength="129.3359" x="350.32" y="334.4383">description : String</text><g data-visibility-modifier="PUBLIC_FIELD"><ellipse cx="341.32" cy="347.1355" fill="none" rx="3" ry="3" style="stroke:#038048;stroke-width:1;"/></g><text fill="#000000" font-family="sans-serif" font-size="14" lengthAdjust="spacing" textLength="132.043" x="350.32" y="350.9266">status : CycleStatus</text><g data-visibility-modifier="PUBLIC_FIELD"><ellipse cx="341.32" cy="363.6238" fill="none" rx="3" ry="3" style="stroke:#038048;stroke-width:1;"/></g><text fill="#000000" font-family="sans-serif" font-size="14" lengthAdjust="spacing" textLength="154.4512" x="350.32" y="367.4148">openedAt : Timestamp</text><g data-visibility-modifier="PUBLIC_FIELD"><ellipse cx="341.32" cy="380.1121" fill="none" rx="3" ry="3" style="stroke:#038048;stroke-width:1;"/></g><text fill="#000000" font-family="sans-serif" font-size="14" lengthAdjust="spacing" textLength="153.4121" x="350.32" y="383.9031">closedAt : Timestamp?</text><g data-visibility-modifier="PUBLIC_FIELD"><ellipse cx="341.32" cy="396.6004" fill="none" rx="3" ry="3" style="stroke:#038048;stroke-width:1;"/></g><text fill="#000000" font-family="sans-serif" font-size="14" lengthAdjust="spacing" textLength="184.9326" x="350.32" y="400.3914">touchedFiles : List&lt;String&gt;</text><g data-visibility-modifier="PUBLIC_FIELD"><ellipse cx="341.32" cy="413.0887" fill="none" rx="3" ry="3" style="stroke:#038048;stroke-width:1;"/></g><text fill="#000000" font-family="sans-serif" font-size="14" lengthAdjust="spacing" textLength="106.832" x="350.32" y="416.8797">beforeDir : Path</text><g data-visibility-modifier="PUBLIC_FIELD"><ellipse cx="341.32" cy="429.577" fill="none" rx="3" ry="3" style="stroke:#038048;stroke-width:1;"/></g><text fill="#000000" font-family="sans-serif" font-size="14" lengthAdjust="spacing" textLength="100.4951" x="350.32" y="433.368">afterDir : Path?</text><line style="stroke:#181818;stroke-width:0.5;" x1="331.32" x2="540.2526" y1="440.3211" y2="440.3211"/></g><!--class CycleDiff--><g class="entity" data-qualified-name="CycleDiff" data-source-line="39" id="ent0005"><rect fill="#F1F1F1" height="130.4414" rx="2.5" ry="2.5" style="stroke:#181818;stroke-width:0.5;" width="235.6035" x="458.98" y="525.3283"/><ellipse cx="542.1084" cy="541.3283" fill="#ADD1B2" rx="11" ry="11" style="stroke:#181818;stroke-width:1;"/><path d="M544.5816,547.4713 Q544.0005,547.7702 543.3613,547.9196 Q542.7222,548.069 542.0166,548.069 Q539.5098,548.069 538.19,546.4171 Q536.8701,544.7653 536.8701,541.6442 Q536.8701,538.5148 538.19,536.8629 Q539.5098,535.2111 542.0166,535.2111 Q542.7222,535.2111 543.3696,535.3605 Q544.0171,535.5099 544.5816,535.8087 L544.5816,538.5314 Q543.9507,537.9504 543.3572,537.6806 Q542.7637,537.4108 542.1328,537.4108 Q540.7881,537.4108 540.1033,538.4775 Q539.4185,539.5441 539.4185,541.6442 Q539.4185,543.736 540.1033,544.8026 Q540.7881,545.8693 542.1328,545.8693 Q542.7637,545.8693 543.3572,545.5995 Q543.9507,545.3297 544.5816,544.7487 Z " fill="#000000"/><text fill="#000000" font-family="sans-serif" font-size="14" lengthAdjust="spacing" textLength="60.8467" x="562.6084" y="546.6193">CycleDiff</text><line style="stroke:#181818;stroke-width:0.5;" x1="459.98" x2="693.5835" y1="557.3283" y2="557.3283"/><g data-visibility-modifier="PUBLIC_FIELD"><ellipse cx="469.98" cy="571.0724" fill="none" rx="3" ry="3" style="stroke:#038048;stroke-width:1;"/></g><text fill="#000000" font-family="sans-serif" font-size="14" lengthAdjust="spacing" textLength="109.1084" x="478.98" y="574.8634">diagram : String</text><g data-visibility-modifier="PUBLIC_FIELD"><ellipse cx="469.98" cy="587.5607" fill="none" rx="3" ry="3" style="stroke:#038048;stroke-width:1;"/></g><text fill="#000000" font-family="sans-serif" font-size="14" lengthAdjust="spacing" textLength="209.6035" x="478.98" y="591.3517">unchanged : Set&lt;ElementKey&gt;</text><g data-visibility-modifier="PUBLIC_FIELD"><ellipse cx="469.98" cy="604.049" fill="none" rx="3" ry="3" style="stroke:#038048;stroke-width:1;"/></g><text fill="#000000" font-family="sans-serif" font-size="14" lengthAdjust="spacing" textLength="176.5723" x="478.98" y="607.84">added : Set&lt;ElementKey&gt;</text><g data-visibility-modifier="PUBLIC_FIELD"><ellipse cx="469.98" cy="620.5373" fill="none" rx="3" ry="3" style="stroke:#038048;stroke-width:1;"/></g><text fill="#000000" font-family="sans-serif" font-size="14" lengthAdjust="spacing" textLength="193.6621" x="478.98" y="624.3283">removed : Set&lt;ElementKey&gt;</text><g data-visibility-modifier="PUBLIC_FIELD"><ellipse cx="469.98" cy="637.0255" fill="none" rx="3" ry="3" style="stroke:#038048;stroke-width:1;"/></g><text fill="#000000" font-family="sans-serif" font-size="14" lengthAdjust="spacing" textLength="144.751" x="478.98" y="640.8166">annotatedPuml : Path</text><line style="stroke:#181818;stroke-width:0.5;" x1="459.98" x2="693.5835" y1="647.7697" y2="647.7697"/></g><!--class ElementDescription--><g class="entity" data-qualified-name="ElementDescription" data-source-line="47" id="ent0006"><rect fill="#F1F1F1" height="80.9766" rx="2.5" ry="2.5" style="stroke:#181818;stroke-width:0.5;" width="163.9814" x="108.79" y="60.9783"/><ellipse cx="123.79" cy="76.9783" fill="#ADD1B2" rx="11" ry="11" style="stroke:#181818;stroke-width:1;"/><path d="M126.2631,83.1213 Q125.6821,83.4202 125.0429,83.5696 Q124.4038,83.719 123.6982,83.719 Q121.1914,83.719 119.8715,82.0671 Q118.5517,80.4153 118.5517,77.2942 Q118.5517,74.1648 119.8715,72.5129 Q121.1914,70.8611 123.6982,70.8611 Q124.4038,70.8611 125.0512,71.0105 Q125.6987,71.1599 126.2631,71.4588 L126.2631,74.1814 Q125.6323,73.6004 125.0388,73.3306 Q124.4453,73.0608 123.8144,73.0608 Q122.4697,73.0608 121.7849,74.1275 Q121.1001,75.1941 121.1001,77.2942 Q121.1001,79.386 121.7849,80.4526 Q122.4697,81.5193 123.8144,81.5193 Q124.4453,81.5193 125.0388,81.2495 Q125.6323,80.9797 126.2631,80.3987 Z " fill="#000000"/><text fill="#000000" font-family="sans-serif" font-size="14" lengthAdjust="spacing" textLength="131.9814" x="137.79" y="82.2693">ElementDescription</text><line style="stroke:#181818;stroke-width:0.5;" x1="109.79" x2="271.7714" y1="92.9783" y2="92.9783"/><g data-visibility-modifier="PUBLIC_FIELD"><ellipse cx="119.79" cy="106.7224" fill="none" rx="3" ry="3" style="stroke:#038048;stroke-width:1;"/></g><text fill="#000000" font-family="sans-serif" font-size="14" lengthAdjust="spacing" textLength="106.5654" x="128.79" y="110.5134">targetId : String</text><g data-visibility-modifier="PUBLIC_FIELD"><ellipse cx="119.79" cy="123.2107" fill="none" rx="3" ry="3" style="stroke:#038048;stroke-width:1;"/></g><text fill="#000000" font-family="sans-serif" font-size="14" lengthAdjust="spacing" textLength="80.1172" x="128.79" y="127.0017">text : String</text><line style="stroke:#181818;stroke-width:0.5;" x1="109.79" x2="271.7714" y1="133.9548" y2="133.9548"/></g><!--class CycleRegistry--><g class="entity" data-qualified-name="CycleRegistry" data-source-line="52" id="ent0007"><rect fill="#F1F1F1" height="113.9531" rx="2.5" ry="2.5" style="stroke:#181818;stroke-width:0.5;" width="176.6094" x="347.48" y="44.4883"/><ellipse cx="386.6657" cy="60.4883" fill="#ADD1B2" rx="11" ry="11" style="stroke:#181818;stroke-width:1;"/><path d="M389.1389,66.6313 Q388.5578,66.9302 387.9187,67.0796 Q387.2795,67.229 386.5739,67.229 Q384.0671,67.229 382.7473,65.5771 Q381.4275,63.9253 381.4275,60.8042 Q381.4275,57.6748 382.7473,56.0229 Q384.0671,54.3711 386.5739,54.3711 Q387.2795,54.3711 387.927,54.5205 Q388.5744,54.6699 389.1389,54.9688 L389.1389,57.6914 Q388.508,57.1104 387.9145,56.8406 Q387.321,56.5708 386.6902,56.5708 Q385.3454,56.5708 384.6606,57.6375 Q383.9758,58.7041 383.9758,60.8042 Q383.9758,62.896 384.6606,63.9626 Q385.3454,65.0293 386.6902,65.0293 Q387.321,65.0293 387.9145,64.7595 Q388.508,64.4897 389.1389,63.9087 Z " fill="#000000"/><text fill="#000000" font-family="sans-serif" font-size="14" lengthAdjust="spacing" textLength="90.8633" x="406.0404" y="65.7793">CycleRegistry</text><line style="stroke:#181818;stroke-width:0.5;" x1="348.48" x2="523.0894" y1="76.4883" y2="76.4883"/><g data-visibility-modifier="PUBLIC_FIELD"><ellipse cx="358.48" cy="90.2324" fill="none" rx="3" ry="3" style="stroke:#038048;stroke-width:1;"/></g><text fill="#000000" font-family="sans-serif" font-size="14" lengthAdjust="spacing" textLength="103.585" x="367.48" y="94.0234">cyclesDir : Path</text><line style="stroke:#181818;stroke-width:0.5;" x1="348.48" x2="523.0894" y1="100.9766" y2="100.9766"/><g data-visibility-modifier="PUBLIC_METHOD"><ellipse cx="358.48" cy="114.7207" fill="#84BE84" rx="3" ry="3" style="stroke:#038048;stroke-width:1;"/></g><text fill="#000000" font-family="sans-serif" font-size="14" lengthAdjust="spacing" textLength="135.2832" x="367.48" y="118.5117">scan() : List&lt;Cycle&gt;</text><g data-visibility-modifier="PUBLIC_METHOD"><ellipse cx="358.48" cy="131.209" fill="#84BE84" rx="3" ry="3" style="stroke:#038048;stroke-width:1;"/></g><text fill="#000000" font-family="sans-serif" font-size="14" lengthAdjust="spacing" textLength="150.6094" x="367.48" y="135">cycle(number) : Cycle?</text><g data-visibility-modifier="PUBLIC_METHOD"><ellipse cx="358.48" cy="147.6973" fill="#84BE84" rx="3" ry="3" style="stroke:#038048;stroke-width:1;"/></g><text fill="#000000" font-family="sans-serif" font-size="14" lengthAdjust="spacing" textLength="101.5068" x="367.48" y="151.4883">latest() : Cycle?</text></g><g class="entity" data-qualified-name="GMN13" data-source-line="66" id="ent0014"><path d="M6,306.2583 L6,377.5005 A0,0 0 0 0 6,377.5005 L295.5693,377.5005 A0,0 0 0 0 295.5693,377.5005 L295.5693,316.2583 L285.5693,306.2583 L160.65,306.2583 L184.09,142.3683 L152.65,306.2583 L6,306.2583 A0,0 0 0 0 6,306.2583" fill="#FEFFDD" style="stroke:#181818;stroke-width:0.5;"/><path d="M285.5693,306.2583 L285.5693,316.2583 L295.5693,316.2583 L285.5693,306.2583" fill="#FEFFDD" style="stroke:#181818;stroke-width:0.5;"/><text fill="#000000" font-family="sans-serif" font-size="13" lengthAdjust="spacing" textLength="268.5693" x="12" y="323.8266">targetId must resolve to an existing model</text><text fill="#000000" font-family="sans-serif" font-size="13" lengthAdjust="spacing" textLength="268.0234" x="12" y="339.1372">@id on the same side. One description per</text><text fill="#000000" font-family="sans-serif" font-size="13" lengthAdjust="spacing" textLength="223.8882" x="12" y="354.4477">significant element. Constrained by</text><text fill="#000000" font-family="sans-serif" font-size="13" lengthAdjust="spacing" textLength="213.6304" x="12" y="369.7583">OCL-ELEMENT-DESC-NONEMPTY.</text></g><g class="entity" data-qualified-name="GMN16" data-source-line="73" id="ent0017"><path d="M415.07,716.7683 L415.07,788.0105 A0,0 0 0 0 415.07,788.0105 L738.5041,788.0105 A0,0 0 0 0 738.5041,788.0105 L738.5041,726.7683 L728.5041,716.7683 L580.78,716.7683 L576.78,656.0983 L572.78,716.7683 L415.07,716.7683 A0,0 0 0 0 415.07,716.7683" fill="#FEFFDD" style="stroke:#181818;stroke-width:0.5;"/><path d="M728.5041,716.7683 L728.5041,726.7683 L738.5041,726.7683 L728.5041,716.7683" fill="#FEFFDD" style="stroke:#181818;stroke-width:0.5;"/><text fill="#000000" font-family="sans-serif" font-size="13" lengthAdjust="spacing" textLength="283.3784" x="421.07" y="734.3366">unchanged, added and removed are pairwise</text><text fill="#000000" font-family="sans-serif" font-size="13" lengthAdjust="spacing" textLength="302.4341" x="421.07" y="749.6472">disjoint (OCL-CYCLE-DIFF-PARTITION). Element</text><text fill="#000000" font-family="sans-serif" font-size="13" lengthAdjust="spacing" textLength="263.6055" x="421.07" y="764.9577">identity is the @id, or the stable PlantUML</text><text fill="#000000" font-family="sans-serif" font-size="13" lengthAdjust="spacing" textLength="254.4521" x="421.07" y="780.2683">alias/label when an element has no @id.</text></g><g class="entity" data-qualified-name="GMN19" data-source-line="80" id="ent0020"><path d="M729.48,547.2683 L729.48,633.821 A0,0 0 0 0 729.48,633.821 L1060.0933,633.821 A0,0 0 0 0 1060.0933,633.821 L1060.0933,557.2683 L1050.0933,547.2683 L819.22,547.2683 L541.66,399.7783 L811.22,547.2683 L729.48,547.2683 A0,0 0 0 0 729.48,547.2683" fill="#FEFFDD" style="stroke:#181818;stroke-width:0.5;"/><path d="M1050.0933,547.2683 L1050.0933,557.2683 L1060.0933,557.2683 L1050.0933,547.2683" fill="#FEFFDD" style="stroke:#181818;stroke-width:0.5;"/><text fill="#000000" font-family="sans-serif" font-size="13" lengthAdjust="spacing" textLength="283.2451" x="735.48" y="564.8366">A Closed cycle must have a non-null afterDir</text><text fill="#000000" font-family="sans-serif" font-size="13" lengthAdjust="spacing" textLength="161.3892" x="735.48" y="580.1472">and at least one CycleDiff</text><text fill="#000000" font-family="sans-serif" font-size="13" lengthAdjust="spacing" textLength="309.6133" x="735.48" y="595.4577">(OCL-CYCLE-CLOSED-HAS-SNAPSHOTS). entry is</text><text fill="#000000" font-family="sans-serif" font-size="13" lengthAdjust="spacing" textLength="217.8516" x="735.48" y="610.7683">Generate iff the run started from a</text><text fill="#000000" font-family="sans-serif" font-size="13" lengthAdjust="spacing" textLength="255.0552" x="735.48" y="626.0788">description (OCL-CYCLE-ENTRY-VALID).</text></g><!--reverse link CycleRegistry to Cycle--><g class="link" data-entity-1="ent0007" data-entity-2="ent0004" data-link-type="aggregation" data-source-line="59" id="lnk8"><path codeLine="59" d="M435.78,170.6683 C435.78,193.5183 435.78,208.7083 435.78,235.0183" fill="none" id="CycleRegistry-backto-Cycle" style="stroke:#181818;stroke-width:1;"/><polygon fill="none" points="435.78,158.6683,431.78,164.6683,435.78,170.6683,439.78,164.6683,435.78,158.6683" style="stroke:#181818;stroke-width:1;"/><polygon fill="#000000" points="440.78,202.0936,443.7189,193.0485,437.8411,193.0485,440.78,202.0936" style="stroke:#000000;stroke-width:1;"/><text fill="#000000" font-family="sans-serif" font-size="13" lengthAdjust="spacing" textLength="59.1284" x="449.78" y="202.0066">discovers</text><text fill="#000000" font-family="sans-serif" font-size="13" lengthAdjust="spacing" textLength="8.2202" x="427.3053" y="179.1413">1</text><text fill="#000000" font-family="sans-serif" font-size="13" lengthAdjust="spacing" textLength="6.2651" x="429.5779" y="224.5565">*</text></g><!--reverse link Cycle to CycleDiff--><g class="link" data-entity-1="ent0004" data-entity-2="ent0005" data-link-type="aggregation" data-source-line="60" id="lnk9"><path codeLine="60" d="M502.1471,458.9852 C517.0271,485.0052 526.56,501.6783 539.93,525.0783" fill="none" id="Cycle-backto-CycleDiff" style="stroke:#181818;stroke-width:1;"/><polygon fill="none" points="496.19,448.5683,495.6962,455.7625,502.1471,458.9852,502.6409,451.791,496.19,448.5683" style="stroke:#181818;stroke-width:1;"/><polygon fill="#000000" points="526.3915,491.3243,524.4539,482.0132,519.351,484.9304,526.3915,491.3243" style="stroke:#000000;stroke-width:1;"/><text fill="#000000" font-family="sans-serif" font-size="13" lengthAdjust="spacing" textLength="69.7163" x="532.91" y="491.8966">closes with</text><text fill="#000000" font-family="sans-serif" font-size="13" lengthAdjust="spacing" textLength="8.2202" x="491.987" y="468.8191">1</text><text fill="#000000" font-family="sans-serif" font-size="13" lengthAdjust="spacing" textLength="6.2651" x="529.5857" y="514.6825">*</text></g><!--link Cycle to EntryPoint--><g class="link" data-entity-1="ent0004" data-entity-2="ent0002" data-link-type="dependency" data-source-line="61" id="lnk10"><path codeLine="61" d="M347.1,448.5683 C317.03,484.3883 289.1174,517.6526 266.0774,545.1026" fill="none" id="Cycle-to-EntryPoint" style="stroke:#181818;stroke-width:1;"/><polygon fill="#181818" points="262.22,549.6983,271.0699,545.3763,265.4345,545.8685,264.9423,540.2331,262.22,549.6983" style="stroke:#181818;stroke-width:1;"/></g><!--link Cycle to CycleStatus--><g class="link" data-entity-1="ent0004" data-entity-2="ent0003" data-link-type="dependency" data-source-line="62" id="lnk11"><path codeLine="62" d="M407.08,448.5683 C398.27,480.9883 390.583,509.2881 383.373,535.8281" fill="none" id="Cycle-to-CycleStatus" style="stroke:#181818;stroke-width:1;"/><polygon fill="#181818" points="381.8,541.6183,388.0196,533.9817,383.1108,536.7932,380.2994,531.8844,381.8,541.6183" style="stroke:#181818;stroke-width:1;"/></g><!--link ElementDescription to Cycle--><g class="link" data-entity-1="ent0006" data-entity-2="ent0004" data-link-type="dependency" data-source-line="63" id="lnk12"><path codeLine="63" d="M231.79,142.3683 C258.7,168.5483 290.9001,199.8837 325.5901,233.6437" fill="none" id="ElementDescription-to-Cycle" style="stroke:#181818;stroke-width:1;stroke-dasharray:7,7;"/><polygon fill="#181818" points="329.89,237.8283,326.2299,228.6848,326.3068,234.3411,320.6504,234.418,329.89,237.8283" style="stroke:#181818;stroke-width:1;"/><text fill="#000000" font-family="sans-serif" font-size="13" lengthAdjust="spacing" textLength="102.521" x="292.34" y="202.0066">authored during</text><text fill="#000000" font-family="sans-serif" font-size="13" lengthAdjust="spacing" textLength="6.2651" x="231.6305" y="162.3719">*</text><text fill="#000000" font-family="sans-serif" font-size="13" lengthAdjust="spacing" textLength="8.2202" x="314.1707" y="227.5641">1</text></g><?plantuml-src XLRVazeu37xdhz3mid3Ti7Elt0ujGx8jS_mQu6wwZoOMu3QnCxQpbEdS_twIaq3OtKwV05cMFdtw97C7dvJinSjvD7cUp99-v-xM4CNJfwUsDPabysInZU9aCrbFLzlfSl7sqZhvFDriryzqGcVBtJTClNh1o2c984qkb8RSICnWRooavpH3y5QatvK-36219qYDJh7mxXx4pg7sO3H5yaU4jBIM3I5MgRtAu26NCb9vaM7E9nygGouAI3FZC5mhX5N-30TH30AeJn9TUeLy3zsbha6WX7aSGsPCCGJb7L1GUuR2AEtlWUzPLNXbz3quBtn983b3NP3AqD4jyAPCZoYf02r3b1rIiVWWzXujE2qATpGUfB94Zh4AtQ3RVmiiD83GhT16Kec35JbWNIZLv1K3eTZ-XAX1L6JUDTb2yYfZpLlLWoQz6nA5wL7eGq0g9NzOpCqBojTmtkayuTfIvPNFupGU4HFum_SX5_OxsY7XCHgZJ16rnp8NkiqU2Ey5KqHKaMD57-c8M2tjNgHqG39XPkVBE9d1PBdO9b-ta0ehtwUgaHt1sgH2EnYG3Xu28-w1Wd4U3SPAj1GyKuvajOT9a1zrWGvS42JdV55u8jQi87qnYLBjzy7u5_qKcJcOqZ7mESDUuu62sJF3eevGkCcDfXlDzqmp2lrE1tMPGyBIMh6ou6S7u3DgjC8ZVPsBelDVxHMYROBMWjkoG4qV4rQtf2_ZdR6Ulf5_cWddwlJi-W4em8ug6J81mU2oya0_DzuIj62f13vieGdcThDk_2lPawq5B1mO0ePoxEbegt8alxm81s4GNnry32Vrd3o5kHd2Z8Xyh5ADmdabv5Xn1IlXZy4O97srVNnLUSpDggflPkO6_qNpR4R_c5G3zJUUgvnX47vnLa_7hsvgROWEbAiopnh45t2rTzpYjKBfXJsWdyfRc3nBLyjjYOtawW2Lo5-nv6W8Uls6r71jTFNkLSBeDssisf4HUETxBIlblStO_RCB9egW-qUt5jgGQ7OfqM8TZ2hljrwXASDA2GvEoXyllb4qQcllQcphwntoEFPWC0gv6YIYz4V3yotBG5k76eAmCzwRdCVzRHYg-y9_Nj9IiEXCze9GxGlyGMNp48SDHSwqesYjXItXH8xX9He0Fn_jWIdGagzJ1wtsYXhXcxKzW8dHH2Gj14AvE_CyJsOtwpLQB1V9VBLz7j3yI-0AtjHnuPJklzxXOMCrGXMMNpzbJyhnNg5EVGlxfiTPhszCj1gljzFmdWyQaiYTQgCtbbvEvKB5OK7NEvAcU4UShpAgxf_vZBn5feHxoCIELldfo0-IlhnMH-6e4WxmkwfuezNBhVvp4Dfo5DGJGVTqfCiikom1pilFd8SC1UzqZJVij0gTp9QR98w-Z3VHPZ5URRuijnigjzf_ohKsCB1QkKXRQYwKzoliBQ4KJ6AhqQtmrB_rS_JlU3QD-zSY_mS0?></g></svg>