<svg xmlns="http://www.w3.org/2000/svg" xmlns:xlink="http://www.w3.org/1999/xlink" contentStyleType="text/css" data-diagram-type="CLASS" height="1260px" preserveAspectRatio="none" style="width:1657px;height:1260px;background:#FFFFFF;" version="1.1" viewBox="0 0 1657 1260" width="1657px" zoomAndPan="magnify"><?plantuml 1.2026.3?><defs/><g><g class="title" data-source-line="17"><text fill="#000000" font-family="sans-serif" font-size="14" font-weight="700" lengthAdjust="spacing" textLength="241.165" x="704.8031" y="23.5352">Cycle tracking domain (objective)</text></g><!--class EntryPoint--><g class="entity" data-qualified-name="EntryPoint" data-source-line="19" id="ent0002"><rect fill="#F1F1F1" height="80.9766" rx="2.5" ry="2.5" style="stroke:#181818;stroke-width:0.5;" width="100.8652" x="535.07" y="590.5283"/><ellipse cx="550.07" cy="606.5283" fill="#EB937F" rx="11" ry="11" style="stroke:#181818;stroke-width:1;"/><path d="M553.6843,613.0283 L545.9645,613.0283 L545.9645,600.6352 L553.6843,600.6352 L553.6843,602.7934 L548.4133,602.7934 L548.4133,605.4663 L553.1862,605.4663 L553.1862,607.6245 L548.4133,607.6245 L548.4133,610.8701 L553.6843,610.8701 Z " fill="#000000"/><text fill="#000000" font-family="sans-serif" font-size="14" lengthAdjust="spacing" textLength="68.8652" x="564.07" y="611.8193">EntryPoint</text><line style="stroke:#181818;stroke-width:0.5;" x1="536.07" x2="634.9352" y1="622.5283" y2="622.5283"/><text fill="#000000" font-family="sans-serif" font-size="14" lengthAdjust="spacing" textLength="60.9014" x="541.07" y="640.0634">Generate</text><text fill="#000000" font-family="sans-serif" font-size="14" lengthAdjust="spacing" textLength="28.6016" x="541.07" y="656.5517">Map</text><line style="stroke:#181818;stroke-width:0.5;" x1="536.07" x2="634.9352" y1="663.5048" y2="663.5048"/></g><!--class CycleStatus--><g class="entity" data-qualified-name="CycleStatus" data-source-line="24" id="ent0003"><rect fill="#F1F1F1" height="97.4648" rx="2.5" ry="2.5" style="stroke:#181818;stroke-width:0.5;" width="109.5879" x="670.71" y="582.2883"/><ellipse cx="685.71" cy="598.2883" fill="#EB937F" rx="11" ry="11" style="stroke:#181818;stroke-width:1;"/><path d="M689.3243,604.7883 L681.6045,604.7883 L681.6045,592.3952 L689.3243,592.3952 L689.3243,594.5534 L684.0533,594.5534 L684.0533,597.2263 L688.8262,597.2263 L688.8262,599.3845 L684.0533,599.3845 L684.0533,602.6301 L689.3243,602.6301 Z " fill="#000000"/><text fill="#000000" font-family="sans-serif" font-size="14" lengthAdjust="spacing" textLength="77.5879" x="699.71" y="603.5793">CycleStatus</text><line style="stroke:#181818;stroke-width:0.5;" x1="671.71" x2="779.2979" y1="614.2883" y2="614.2883"/><text fill="#000000" font-family="sans-serif" font-size="14" lengthAdjust="spacing" textLength="36.1758" x="676.71" y="631.8234">Open</text><text fill="#000000" font-family="sans-serif" font-size="14" lengthAdjust="spacing" textLength="46.0811" x="676.71" y="648.3117">Closed</text><text fill="#000000" font-family="sans-serif" font-size="14" lengthAdjust="spacing" textLength="54.6465" x="676.71" y="664.8">Aborted</text><line style="stroke:#181818;stroke-width:0.5;" x1="671.71" x2="779.2979" y1="671.7531" y2="671.7531"/></g><!--class DiffSubMode--><g class="entity" data-qualified-name="DiffSubMode" data-source-line="30" id="ent0004"><rect fill="#F1F1F1" height="80.9766" rx="2.5" ry="2.5" style="stroke:#181818;stroke-width:0.5;" width="119.1377" x="363.94" y="868.9083"/><ellipse cx="378.94" cy="884.9083" fill="#EB937F" rx="11" ry="11" style="stroke:#181818;stroke-width:1;"/><path d="M382.5543,891.4083 L374.8345,891.4083 L374.8345,879.0152 L382.5543,879.0152 L382.5543,881.1734 L377.2833,881.1734 L377.2833,883.8463 L382.0562,883.8463 L382.0562,886.0045 L377.2833,886.0045 L377.2833,889.2501 L382.5543,889.2501 Z " fill="#000000"/><text fill="#000000" font-family="sans-serif" font-size="14" lengthAdjust="spacing" textLength="87.1377" x="392.94" y="890.1993">DiffSubMode</text><line style="stroke:#181818;stroke-width:0.5;" x1="364.94" x2="482.0777" y1="900.9083" y2="900.9083"/><text fill="#000000" font-family="sans-serif" font-size="14" lengthAdjust="spacing" textLength="57.5244" x="369.94" y="918.4434">Diagram</text><text fill="#000000" font-family="sans-serif" font-size="14" lengthAdjust="spacing" textLength="23.8848" x="369.94" y="934.9317">List</text><line style="stroke:#181818;stroke-width:0.5;" x1="364.94" x2="482.0777" y1="941.8848" y2="941.8848"/></g><!--class Cycle--><g class="entity" data-qualified-name="Cycle" data-source-line="35" id="ent0005"><rect fill="#F1F1F1" height="229.3711" rx="2.5" ry="2.5" style="stroke:#181818;stroke-width:0.5;" width="210.9326" x="745.04" y="235.4383"/><ellipse cx="828.247" cy="251.4383" fill="#ADD1B2" rx="11" ry="11" style="stroke:#181818;stroke-width:1;"/><path d="M830.7202,257.5813 Q830.1391,257.8802 829.5,258.0296 Q828.8608,258.179 828.1552,258.179 Q825.6484,258.179 824.3286,256.5271 Q823.0088,254.8753 823.0088,251.7542 Q823.0088,248.6248 824.3286,246.9729 Q825.6484,245.3211 828.1552,245.3211 Q828.8608,245.3211 829.5083,245.4705 Q830.1557,245.6199 830.7202,245.9188 L830.7202,248.6414 Q830.0893,248.0604 829.4958,247.7906 Q828.9023,247.5208 828.2714,247.5208 Q826.9267,247.5208 826.2419,248.5875 Q825.5571,249.6541 825.5571,251.7542 Q825.5571,253.846 826.2419,254.9126 Q826.9267,255.9793 828.2714,255.9793 Q828.9023,255.9793 829.4958,255.7095 Q830.0893,255.4397 830.7202,254.8587 Z " fill="#000000"/><text fill="#000000" font-family="sans-serif" font-size="14" lengthAdjust="spacing" textLength="36.0186" x="848.747" y="256.7293">Cycle</text><line style="stroke:#181818;stroke-width:0.5;" x1="746.04" x2="954.9726" y1="267.4383" y2="267.4383"/><g data-visibility-modifier="PUBLIC_FIELD"><ellipse cx="756.04" cy="281.1824" fill="none" rx="3" ry="3" style="stroke:#038048;stroke-width:1;"/></g><text fill="#000000" font-family="sans-serif" font-size="14" lengthAdjust="spacing" textLength="84.0479" x="765.04" y="284.9734">number : int</text><g data-visibility-modifier="PUBLIC_FIELD"><ellipse cx="756.04" cy="297.6707" fill="none" rx="3" ry="3" style="stroke:#038048;stroke-width:1;"/></g><text fill="#000000" font-family="sans-serif" font-size="14" lengthAdjust="spacing" textLength="81.8604" x="765.04" y="301.4617">slug : String</text><g data-visibility-modifier="PUBLIC_FIELD"><ellipse cx="756.04" cy="314.159" fill="none" rx="3" ry="3" style="stroke:#038048;stroke-width:1;"/></g><text fill="#000000" font-family="sans-serif" font-size="14" lengthAdjust="spacing" textLength="116.9219" x="765.04" y="317.95">entry : EntryPoint</text><g data-visibility-modifier="PUBLIC_FIELD"><ellipse cx="756.04" cy="330.6473" fill="none" rx="3" ry="3" style="stroke:#038048;stroke-width:1;"/></g><text fill="#000000" font-family="sans-serif" font-size="14" lengthAdjust="spacing" textLength="129.3359" x="765.04" y="334.4383">description : String</text><g data-visibility-modifier="PUBLIC_FIELD"><ellipse cx="756.04" cy="347.1355" fill="none" rx="3" ry="3" style="stroke:#038048;stroke-width:1;"/></g><text fill="#000000" font-family="sans-serif" font-size="14" lengthAdjust="spacing" textLength="132.043" x="765.04" y="350.9266">status : CycleStatus</text><g data-visibility-modifier="PUBLIC_FIELD"><ellipse cx="756.04" cy="363.6238" fill="none" rx="3" ry="3" style="stroke:#038048;stroke-width:1;"/></g><text fill="#000000" font-family="sans-serif" font-size="14" lengthAdjust="spacing" textLength="154.4512" x="765.04" y="367.4148">openedAt : Timestamp</text><g data-visibility-modifier="PUBLIC_FIELD"><ellipse cx="756.04" cy="380.1121" fill="none" rx="3" ry="3" style="stroke:#038048;stroke-width:1;"/></g><text fill="#000000" font-family="sans-serif" font-size="14" lengthAdjust="spacing" textLength="153.4121" x="765.04" y="383.9031">closedAt : Timestamp?</text><g data-visibility-modifier="PUBLIC_FIELD"><ellipse cx="756.04" cy="396.6004" fill="none" rx="3" ry="3" style="stroke:#038048;stroke-width:1;"/></g><text fill="#000000" font-family="sans-serif" font-size="14" lengthAdjust="spacing" textLength="184.9326" x="765.04" y="400.3914">touchedFiles : List&lt;String&gt;</text><g data-visibility-modifier="PUBLIC_FIELD"><ellipse cx="756.04" cy="413.0887" fill="none" rx="3" ry="3" style="stroke:#038048;stroke-width:1;"/></g><text fill="#000000" font-family="sans-serif" font-size="14" lengthAdjust="spacing" textLength="138.9199" x="765.04" y="416.8797">scope : List&lt;String&gt;</text><g data-visibility-modifier="PUBLIC_FIELD"><ellipse cx="756.04" cy="429.577" fill="none" rx="3" ry="3" style="stroke:#038048;stroke-width:1;"/></g><text fill="#000000" font-family="sans-serif" font-size="14" lengthAdjust="spacing" textLength="106.832" x="765.04" y="433.368">beforeDir : Path</text><g data-visibility-modifier="PUBLIC_FIELD"><ellipse cx="756.04" cy="446.0652" fill="none" rx="3" ry="3" style="stroke:#038048;stroke-width:1;"/></g><text fill="#000000" font-family="sans-serif" font-size="14" lengthAdjust="spacing" textLength="100.4951" x="765.04" y="449.8563">afterDir : Path?</text><line style="stroke:#181818;stroke-width:0.5;" x1="746.04" x2="954.9726" y1="456.8094" y2="456.8094"/></g><!--class CycleDiff--><g class="entity" data-qualified-name="CycleDiff" data-source-line="49" id="ent0006"><rect fill="#F1F1F1" height="146.9297" rx="2.5" ry="2.5" style="stroke:#181818;stroke-width:0.5;" width="235.6035" x="732.71" y="835.9383"/><ellipse cx="815.8384" cy="851.9383" fill="#ADD1B2" rx="11" ry="11" style="stroke:#181818;stroke-width:1;"/><path d="M818.3116,858.0813 Q817.7305,858.3802 817.0913,858.5296 Q816.4522,858.679 815.7466,858.679 Q813.2398,858.679 811.92,857.0271 Q810.6001,855.3753 810.6001,852.2542 Q810.6001,849.1248 811.92,847.4729 Q813.2398,845.8211 815.7466,845.8211 Q816.4522,845.8211 817.0996,845.9705 Q817.7471,846.1199 818.3116,846.4188 L818.3116,849.1414 Q817.6807,848.5604 817.0872,848.2906 Q816.4937,848.0208 815.8628,848.0208 Q814.5181,848.0208 813.8333,849.0875 Q813.1485,850.1541 813.1485,852.2542 Q813.1485,854.346 813.8333,855.4126 Q814.5181,856.4793 815.8628,856.4793 Q816.4937,856.4793 817.0872,856.2095 Q817.6807,855.9397 818.3116,855.3587 Z " fill="#000000"/><text fill="#000000" font-family="sans-serif" font-size="14" lengthAdjust="spacing" textLength="60.8467" x="836.3384" y="857.2293">CycleDiff</text><line style="stroke:#181818;stroke-width:0.5;" x1="733.71" x2="967.3135" y1="867.9383" y2="867.9383"/><g data-visibility-modifier="PUBLIC_FIELD"><ellipse cx="743.71" cy="881.6824" fill="none" rx="3" ry="3" style="stroke:#038048;stroke-width:1;"/></g><text fill="#000000" font-family="sans-serif" font-size="14" lengthAdjust="spacing" textLength="109.1084" x="752.71" y="885.4734">diagram : String</text><g data-visibility-modifier="PUBLIC_FIELD"><ellipse cx="743.71" cy="898.1707" fill="none" rx="3" ry="3" style="stroke:#038048;stroke-width:1;"/></g><text fill="#000000" font-family="sans-serif" font-size="14" lengthAdjust="spacing" textLength="209.6035" x="752.71" y="901.9617">unchanged : Set&lt;ElementKey&gt;</text><g data-visibility-modifier="PUBLIC_FIELD"><ellipse cx="743.71" cy="914.659" fill="none" rx="3" ry="3" style="stroke:#038048;stroke-width:1;"/></g><text fill="#000000" font-family="sans-serif" font-size="14" lengthAdjust="spacing" textLength="176.5723" x="752.71" y="918.45">added : Set&lt;ElementKey&gt;</text><g data-visibility-modifier="PUBLIC_FIELD"><ellipse cx="743.71" cy="931.1473" fill="none" rx="3" ry="3" style="stroke:#038048;stroke-width:1;"/></g><text fill="#000000" font-family="sans-serif" font-size="14" lengthAdjust="spacing" textLength="193.6621" x="752.71" y="934.9383">removed : Set&lt;ElementKey&gt;</text><g data-visibility-modifier="PUBLIC_FIELD"><ellipse cx="743.71" cy="947.6355" fill="none" rx="3" ry="3" style="stroke:#038048;stroke-width:1;"/></g><text fill="#000000" font-family="sans-serif" font-size="14" lengthAdjust="spacing" textLength="144.751" x="752.71" y="951.4266">annotatedPuml : Path</text><g data-visibility-modifier="PUBLIC_FIELD"><ellipse cx="743.71" cy="964.1238" fill="none" rx="3" ry="3" style="stroke:#038048;stroke-width:1;"/></g><text fill="#000000" font-family="sans-serif" font-size="14" lengthAdjust="spacing" textLength="89.3525" x="752.71" y="967.9148">diffSvg : Path</text><line style="stroke:#181818;stroke-width:0.5;" x1="733.71" x2="967.3135" y1="974.868" y2="974.868"/></g><!--class ElementDescription--><g class="entity" data-qualified-name="ElementDescription" data-source-line="58" id="ent0007"><rect fill="#F1F1F1" height="80.9766" rx="2.5" ry="2.5" style="stroke:#181818;stroke-width:0.5;" width="163.9814" x="523.52" y="60.9683"/><ellipse cx="538.52" cy="76.9683" fill="#ADD1B2" rx="11" ry="11" style="stroke:#181818;stroke-width:1;"/><path d="M540.9931,83.1113 Q540.4121,83.4102 539.7729,83.5596 Q539.1338,83.709 538.4282,83.709 Q535.9214,83.709 534.6015,82.0571 Q533.2817,80.4053 533.2817,77.2842 Q533.2817,74.1548 534.6015,72.5029 Q535.9214,70.8511 538.4282,70.8511 Q539.1338,70.8511 539.7812,71.0005 Q540.4287,71.1499 540.9931,71.4488 L540.9931,74.1714 Q540.3623,73.5904 539.7688,73.3206 Q539.1753,73.0508 538.5444,73.0508 Q537.1997,73.0508 536.5149,74.1175 Q535.8301,75.1841 535.8301,77.2842 Q535.8301,79.376 536.5149,80.4426 Q537.1997,81.5093 538.5444,81.5093 Q539.1753,81.5093 539.7688,81.2395 Q540.3623,80.9697 540.9931,80.3887 Z " fill="#000000"/><text fill="#000000" font-family="sans-serif" font-size="14" lengthAdjust="spacing" textLength="131.9814" x="552.52" y="82.2593">ElementDescription</text><line style="stroke:#181818;stroke-width:0.5;" x1="524.52" x2="686.5014" y1="92.9683" y2="92.9683"/><g data-visibility-modifier="PUBLIC_FIELD"><ellipse cx="534.52" cy="106.7124" fill="none" rx="3" ry="3" style="stroke:#038048;stroke-width:1;"/></g><text fill="#000000" font-family="sans-serif" font-size="14" lengthAdjust="spacing" textLength="106.5654" x="543.52" y="110.5034">targetId : String</text><g data-visibility-modifier="PUBLIC_FIELD"><ellipse cx="534.52" cy="123.2007" fill="none" rx="3" ry="3" style="stroke:#038048;stroke-width:1;"/></g><text fill="#000000" font-family="sans-serif" font-size="14" lengthAdjust="spacing" textLength="80.1172" x="543.52" y="126.9917">text : String</text><line style="stroke:#181818;stroke-width:0.5;" x1="524.52" x2="686.5014" y1="133.9448" y2="133.9448"/></g><!--class CycleRegistry--><g class="entity" data-qualified-name="CycleRegistry" data-source-line="63" id="ent0008"><rect fill="#F1F1F1" height="113.9531" rx="2.5" ry="2.5" style="stroke:#181818;stroke-width:0.5;" width="176.6094" x="762.2" y="44.4883"/><ellipse cx="801.3857" cy="60.4883" fill="#ADD1B2" rx="11" ry="11" style="stroke:#181818;stroke-width:1;"/><path d="M803.8589,66.6313 Q803.2778,66.9302 802.6387,67.0796 Q801.9995,67.229 801.2939,67.229 Q798.7871,67.229 797.4673,65.5771 Q796.1475,63.9253 796.1475,60.8042 Q796.1475,57.6748 797.4673,56.0229 Q798.7871,54.3711 801.2939,54.3711 Q801.9995,54.3711 802.647,54.5205 Q803.2944,54.6699 803.8589,54.9688 L803.8589,57.6914 Q803.228,57.1104 802.6345,56.8406 Q802.041,56.5708 801.4102,56.5708 Q800.0654,56.5708 799.3806,57.6375 Q798.6958,58.7041 798.6958,60.8042 Q798.6958,62.896 799.3806,63.9626 Q800.0654,65.0293 801.4102,65.0293 Q802.041,65.0293 802.6345,64.7595 Q803.228,64.4897 803.8589,63.9087 Z " fill="#000000"/><text fill="#000000" font-family="sans-serif" font-size="14" lengthAdjust="spacing" textLength="90.8633" x="820.7604" y="65.7793">CycleRegistry</text><line style="stroke:#181818;stroke-width:0.5;" x1="763.2" x2="937.8094" y1="76.4883" y2="76.4883"/><g data-visibility-modifier="PUBLIC_FIELD"><ellipse cx="773.2" cy="90.2324" fill="none" rx="3" ry="3" style="stroke:#038048;stroke-width:1;"/></g><text fill="#000000" font-family="sans-serif" font-size="14" lengthAdjust="spacing" textLength="103.585" x="782.2" y="94.0234">cyclesDir : Path</text><line style="stroke:#181818;stroke-width:0.5;" x1="763.2" x2="937.8094" y1="100.9766" y2="100.9766"/><g data-visibility-modifier="PUBLIC_METHOD"><ellipse cx="773.2" cy="114.7207" fill="#84BE84" rx="3" ry="3" style="stroke:#038048;stroke-width:1;"/></g><text fill="#000000" font-family="sans-serif" font-size="14" lengthAdjust="spacing" textLength="135.2832" x="782.2" y="118.5117">scan() : List&lt;Cycle&gt;</text><g data-visibility-modifier="PUBLIC_METHOD"><ellipse cx="773.2" cy="131.209" fill="#84BE84" rx="3" ry="3" style="stroke:#038048;stroke-width:1;"/></g><text fill="#000000" font-family="sans-serif" font-size="14" lengthAdjust="spacing" textLength="150.6094" x="782.2" y="135">cycle(number) : Cycle?</text><g data-visibility-modifier="PUBLIC_METHOD"><ellipse cx="773.2" cy="147.6973" fill="#84BE84" rx="3" ry="3" style="stroke:#038048;stroke-width:1;"/></g><text fill="#000000" font-family="sans-serif" font-size="14" lengthAdjust="spacing" textLength="101.5068" x="782.2" y="151.4883">latest() : Cycle?</text></g><!--class DiffView--><g class="entity" data-qualified-name="DiffView" data-source-line="70" id="ent0009"><rect fill="#F1F1F1" height="146.9297" rx="2.5" ry="2.5" style="stroke:#181818;stroke-width:0.5;" width="250.7998" x="249.11" y="557.5483"/><ellipse cx="341.9523" cy="573.5483" fill="#ADD1B2" rx="11" ry="11" style="stroke:#181818;stroke-width:1;"/><path d="M344.4254,579.6913 Q343.8444,579.9902 343.2052,580.1396 Q342.5661,580.289 341.8605,580.289 Q339.3537,580.289 338.0338,578.6371 Q336.714,576.9853 336.714,573.8642 Q336.714,570.7348 338.0338,569.0829 Q339.3537,567.4311 341.8605,567.4311 Q342.5661,567.4311 343.2135,567.5805 Q343.861,567.7299 344.4254,568.0288 L344.4254,570.7514 Q343.7946,570.1704 343.2011,569.9006 Q342.6076,569.6308 341.9767,569.6308 Q340.632,569.6308 339.9472,570.6975 Q339.2623,571.7641 339.2623,573.8642 Q339.2623,575.956 339.9472,577.0226 Q340.632,578.0893 341.9767,578.0893 Q342.6076,578.0893 343.2011,577.8195 Q343.7946,577.5497 344.4254,576.9687 Z " fill="#000000"/><text fill="#000000" font-family="sans-serif" font-size="14" lengthAdjust="spacing" textLength="56.6152" x="362.4523" y="578.8393">DiffView</text><line style="stroke:#181818;stroke-width:0.5;" x1="250.11" x2="498.9098" y1="589.5483" y2="589.5483"/><g data-visibility-modifier="PUBLIC_FIELD"><ellipse cx="260.11" cy="603.2924" fill="none" rx="3" ry="3" style="stroke:#038048;stroke-width:1;"/></g><text fill="#000000" font-family="sans-serif" font-size="14" lengthAdjust="spacing" textLength="128.9873" x="269.11" y="607.0834">selectedCycle : int?</text><g data-visibility-modifier="PUBLIC_FIELD"><ellipse cx="260.11" cy="619.7807" fill="none" rx="3" ry="3" style="stroke:#038048;stroke-width:1;"/></g><text fill="#000000" font-family="sans-serif" font-size="14" lengthAdjust="spacing" textLength="138.3662" x="269.11" y="623.5717">selectedFile : String?</text><g data-visibility-modifier="PUBLIC_FIELD"><ellipse cx="260.11" cy="636.269" fill="none" rx="3" ry="3" style="stroke:#038048;stroke-width:1;"/></g><text fill="#000000" font-family="sans-serif" font-size="14" lengthAdjust="spacing" textLength="162.333" x="269.11" y="640.06">subMode : DiffSubMode</text><line style="stroke:#181818;stroke-width:0.5;" x1="250.11" x2="498.9098" y1="647.0131" y2="647.0131"/><g data-visibility-modifier="PUBLIC_METHOD"><ellipse cx="260.11" cy="660.7573" fill="#84BE84" rx="3" ry="3" style="stroke:#038048;stroke-width:1;"/></g><text fill="#000000" font-family="sans-serif" font-size="14" lengthAdjust="spacing" textLength="224.7998" x="269.11" y="664.5483">cyclesWithDiffFor(file) : List&lt;int&gt;</text><g data-visibility-modifier="PUBLIC_METHOD"><ellipse cx="260.11" cy="677.2455" fill="#84BE84" rx="3" ry="3" style="stroke:#038048;stroke-width:1;"/></g><text fill="#000000" font-family="sans-serif" font-size="14" lengthAdjust="spacing" textLength="197.5381" x="269.11" y="681.0366">diffFor(cycle, file) : CycleDiff?</text><g data-visibility-modifier="PUBLIC_METHOD"><ellipse cx="260.11" cy="693.7338" fill="#84BE84" rx="3" ry="3" style="stroke:#038048;stroke-width:1;"/></g><text fill="#000000" font-family="sans-serif" font-size="14" lengthAdjust="spacing" textLength="199.876" x="269.11" y="697.5248">renderedSvg(cycle, file) : Path</text></g><!--class WholeMap--><g class="entity" data-qualified-name="WholeMap" data-source-line="79" id="ent0010"><rect fill="#F1F1F1" height="163.418" rx="2.5" ry="2.5" style="stroke:#181818;stroke-width:0.5;" width="283.3525" x="969.83" y="549.3083"/><ellipse cx="1072.3998" cy="565.3083" fill="#ADD1B2" rx="11" ry="11" style="stroke:#181818;stroke-width:1;"/><path d="M1074.873,571.4513 Q1074.2919,571.7502 1073.6528,571.8996 Q1073.0136,572.049 1072.308,572.049 Q1069.8012,572.049 1068.4814,570.3971 Q1067.1615,568.7453 1067.1615,565.6242 Q1067.1615,562.4948 1068.4814,560.8429 Q1069.8012,559.1911 1072.308,559.1911 Q1073.0136,559.1911 1073.6611,559.3405 Q1074.3085,559.4899 1074.873,559.7888 L1074.873,562.5114 Q1074.2421,561.9304 1073.6486,561.6606 Q1073.0551,561.3908 1072.4242,561.3908 Q1071.0795,561.3908 1070.3947,562.4575 Q1069.7099,563.5241 1069.7099,565.6242 Q1069.7099,567.716 1070.3947,568.7826 Q1071.0795,569.8493 1072.4242,569.8493 Q1073.0551,569.8493 1073.6486,569.5795 Q1074.2421,569.3097 1074.873,568.7287 Z " fill="#000000"/><text fill="#000000" font-family="sans-serif" font-size="14" lengthAdjust="spacing" textLength="69.7129" x="1092.8998" y="570.5993">WholeMap</text><line style="stroke:#181818;stroke-width:0.5;" x1="970.83" x2="1252.1825" y1="581.3083" y2="581.3083"/><g data-visibility-modifier="PUBLIC_FIELD"><ellipse cx="980.83" cy="595.0524" fill="none" rx="3" ry="3" style="stroke:#038048;stroke-width:1;"/></g><text fill="#000000" font-family="sans-serif" font-size="14" lengthAdjust="spacing" textLength="80.5068" x="989.83" y="598.8434">version : int</text><g data-visibility-modifier="PUBLIC_FIELD"><ellipse cx="980.83" cy="611.5407" fill="none" rx="3" ry="3" style="stroke:#038048;stroke-width:1;"/></g><text fill="#000000" font-family="sans-serif" font-size="14" lengthAdjust="spacing" textLength="97.3369" x="989.83" y="615.3317">lastCycle : int?</text><g data-visibility-modifier="PUBLIC_FIELD"><ellipse cx="980.83" cy="628.029" fill="none" rx="3" ry="3" style="stroke:#038048;stroke-width:1;"/></g><text fill="#000000" font-family="sans-serif" font-size="14" lengthAdjust="spacing" textLength="172.2656" x="989.83" y="631.82">generatedAt : Timestamp</text><g data-visibility-modifier="PUBLIC_FIELD"><ellipse cx="980.83" cy="644.5173" fill="none" rx="3" ry="3" style="stroke:#038048;stroke-width:1;"/></g><text fill="#000000" font-family="sans-serif" font-size="14" lengthAdjust="spacing" textLength="117.0039" x="989.83" y="648.3083">files : List&lt;Path&gt;</text><line style="stroke:#181818;stroke-width:0.5;" x1="970.83" x2="1252.1825" y1="655.2614" y2="655.2614"/><g data-visibility-modifier="PUBLIC_METHOD"><ellipse cx="980.83" cy="669.0055" fill="#84BE84" rx="3" ry="3" style="stroke:#038048;stroke-width:1;"/></g><text fill="#000000" font-family="sans-serif" font-size="14" lengthAdjust="spacing" textLength="257.3525" x="989.83" y="672.7966">accumulate(diff : CycleDiff, cycle : int)</text><g data-visibility-modifier="PUBLIC_METHOD"><ellipse cx="980.83" cy="685.4938" fill="#84BE84" rx="3" ry="3" style="stroke:#038048;stroke-width:1;"/></g><text fill="#000000" font-family="sans-serif" font-size="14" lengthAdjust="spacing" textLength="201.9404" x="989.83" y="689.2848">provenanceOf(elementId) : int</text><g data-visibility-modifier="PUBLIC_METHOD"><ellipse cx="980.83" cy="701.9821" fill="#84BE84" rx="3" ry="3" style="stroke:#038048;stroke-width:1;"/></g><text fill="#000000" font-family="sans-serif" font-size="14" lengthAdjust="spacing" textLength="194.1406" x="989.83" y="705.7731">snapshotInto(cycleDir : Path)</text></g><!--class WholeMapElement--><g class="entity" data-qualified-name="WholeMapElement" data-source-line="89" id="ent0011"><rect fill="#F1F1F1" height="97.4648" rx="2.5" ry="2.5" style="stroke:#181818;stroke-width:0.5;" width="228.877" x="1015.07" y="860.6683"/><ellipse cx="1063.2873" cy="876.6683" fill="#ADD1B2" rx="11" ry="11" style="stroke:#181818;stroke-width:1;"/><path d="M1065.7604,882.8113 Q1065.1794,883.1102 1064.5402,883.2596 Q1063.9011,883.409 1063.1955,883.409 Q1060.6887,883.409 1059.3688,881.7571 Q1058.049,880.1053 1058.049,876.9842 Q1058.049,873.8548 1059.3688,872.2029 Q1060.6887,870.5511 1063.1955,870.5511 Q1063.9011,870.5511 1064.5485,870.7005 Q1065.196,870.8499 1065.7604,871.1488 L1065.7604,873.8714 Q1065.1296,873.2904 1064.5361,873.0206 Q1063.9426,872.7508 1063.3117,872.7508 Q1061.967,872.7508 1061.2822,873.8175 Q1060.5973,874.8841 1060.5973,876.9842 Q1060.5973,879.076 1061.2822,880.1426 Q1061.967,881.2093 1063.3117,881.2093 Q1063.9426,881.2093 1064.5361,880.9395 Q1065.1296,880.6697 1065.7604,880.0887 Z " fill="#000000"/><text fill="#000000" font-family="sans-serif" font-size="14" lengthAdjust="spacing" textLength="123.9424" x="1083.7873" y="881.9593">WholeMapElement</text><line style="stroke:#181818;stroke-width:0.5;" x1="1016.07" x2="1242.947" y1="892.6683" y2="892.6683"/><g data-visibility-modifier="PUBLIC_FIELD"><ellipse cx="1026.07" cy="906.4124" fill="none" rx="3" ry="3" style="stroke:#038048;stroke-width:1;"/></g><text fill="#000000" font-family="sans-serif" font-size="14" lengthAdjust="spacing" textLength="120.5449" x="1035.07" y="910.2034">elementId : String</text><g data-visibility-modifier="PUBLIC_FIELD"><ellipse cx="1026.07" cy="922.9007" fill="none" rx="3" ry="3" style="stroke:#038048;stroke-width:1;"/></g><text fill="#000000" font-family="sans-serif" font-size="14" lengthAdjust="spacing" textLength="64.7637" x="1035.07" y="926.6917">cycle : int</text><g data-visibility-modifier="PUBLIC_FIELD"><ellipse cx="1026.07" cy="939.389" fill="none" rx="3" ry="3" style="stroke:#038048;stroke-width:1;"/></g><text fill="#000000" font-family="sans-serif" font-size="14" lengthAdjust="spacing" textLength="202.877" x="1035.07" y="943.18">survivesToLastCycle : Boolean</text><line style="stroke:#181818;stroke-width:0.5;" x1="1016.07" x2="1242.947" y1="950.1331" y2="950.1331"/></g><g class="entity" data-qualified-name="GMN22" data-source-line="107" id="ent0023"><path d="M420.72,314.4983 L420.72,385.7405 A0,0 0 0 0 420.72,385.7405 L710.2893,385.7405 A0,0 0 0 0 710.2893,385.7405 L710.2893,324.4983 L700.2893,314.4983 L575.19,314.4983 L599.04,142.3683 L567.19,314.4983 L420.72,314.4983 A0,0 0 0 0 420.72,314.4983" fill="#FEFFDD" style="stroke:#181818;stroke-width:0.5;"/><path d="M700.2893,314.4983 L700.2893,324.4983 L710.2893,324.4983 L700.2893,314.4983" fill="#FEFFDD" style="stroke:#181818;stroke-width:0.5;"/><text fill="#000000" font-family="sans-serif" font-size="13" lengthAdjust="spacing" textLength="268.5693" x="426.72" y="332.0666">targetId must resolve to an existing model</text><text fill="#000000" font-family="sans-serif" font-size="13" lengthAdjust="spacing" textLength="268.0234" x="426.72" y="347.3772">@id on the same side. One description per</text><text fill="#000000" font-family="sans-serif" font-size="13" lengthAdjust="spacing" textLength="223.8882" x="426.72" y="362.6877">significant element. Constrained by</text><text fill="#000000" font-family="sans-serif" font-size="13" lengthAdjust="spacing" textLength="213.6304" x="426.72" y="377.9983">OCL-ELEMENT-DESC-NONEMPTY.</text></g><g class="entity" data-qualified-name="GMN25" data-source-line="114" id="ent0026"><path d="M681.95,1082.5683 L681.95,1245.6738 A0,0 0 0 0 681.95,1245.6738 L1019.0696,1245.6738 A0,0 0 0 0 1019.0696,1245.6738 L1019.0696,1092.5683 L1009.0696,1082.5683 L854.51,1082.5683 L850.51,983.1583 L846.51,1082.5683 L681.95,1082.5683 A0,0 0 0 0 681.95,1082.5683" fill="#FEFFDD" style="stroke:#181818;stroke-width:0.5;"/><path d="M1009.0696,1082.5683 L1009.0696,1092.5683 L1019.0696,1092.5683 L1009.0696,1082.5683" fill="#FEFFDD" style="stroke:#181818;stroke-width:0.5;"/><text fill="#000000" font-family="sans-serif" font-size="13" lengthAdjust="spacing" textLength="283.3784" x="687.95" y="1100.1366">unchanged, added and removed are pairwise</text><text fill="#000000" font-family="sans-serif" font-size="13" lengthAdjust="spacing" textLength="302.4341" x="687.95" y="1115.4472">disjoint (OCL-CYCLE-DIFF-PARTITION). Element</text><text fill="#000000" font-family="sans-serif" font-size="13" lengthAdjust="spacing" textLength="263.6055" x="687.95" y="1130.7577">identity is the @id, or the stable PlantUML</text><text fill="#000000" font-family="sans-serif" font-size="13" lengthAdjust="spacing" textLength="254.4521" x="687.95" y="1146.0683">alias/label when an element has no @id.</text><text fill="#000000" font-family="sans-serif" font-size="13" lengthAdjust="spacing" textLength="275.8057" x="687.95" y="1161.3788">diffSvg mirrors annotatedPuml's path under</text><text fill="#000000" font-family="sans-serif" font-size="13" lengthAdjust="spacing" textLength="316.1196" x="687.95" y="1176.6894">.mdd/rendered/ (OCL-DIFF-SVG-PATH-DERIVED).</text><text fill="#000000" font-family="sans-serif" font-size="13" lengthAdjust="spacing" textLength="259.1621" x="687.95" y="1191.9999">Removed elements are re-injected with a</text><text fill="#000000" font-family="sans-serif" font-size="13" lengthAdjust="spacing" textLength="307.3979" x="687.95" y="1207.3105">diagram-type-appropriate ghost keyword so the</text><text fill="#000000" font-family="sans-serif" font-size="13" lengthAdjust="spacing" textLength="278.7319" x="687.95" y="1222.621">superposed .diff renders for sequence/state</text><text fill="#000000" font-family="sans-serif" font-size="13" lengthAdjust="spacing" textLength="268.271" x="687.95" y="1237.9316">diagrams too, not only card-bearing ones.</text></g><g class="entity" data-qualified-name="GMN28" data-source-line="127" id="ent0029"><path d="M1288.24,541.8083 L1288.24,720.2243 L1642.7713,720.2243 L1642.7713,551.8083 L1632.7713,541.8083 L1288.24,541.8083" fill="#FEFFDD" style="stroke:#181818;stroke-width:0.5;"/><path d="M1632.7713,541.8083 L1632.7713,551.8083 L1642.7713,551.8083 L1632.7713,541.8083" fill="#FEFFDD" style="stroke:#181818;stroke-width:1;"/><text fill="#000000" font-family="sans-serif" font-size="13" lengthAdjust="spacing" textLength="283.2451" x="1294.24" y="559.3766">A Closed cycle must have a non-null afterDir</text><text fill="#000000" font-family="sans-serif" font-size="13" lengthAdjust="spacing" textLength="161.3892" x="1294.24" y="574.6872">and at least one CycleDiff</text><text fill="#000000" font-family="sans-serif" font-size="13" lengthAdjust="spacing" textLength="309.6133" x="1294.24" y="589.9977">(OCL-CYCLE-CLOSED-HAS-SNAPSHOTS). entry is</text><text fill="#000000" font-family="sans-serif" font-size="13" lengthAdjust="spacing" textLength="217.8516" x="1294.24" y="605.3083">Generate iff the run started from a</text><text fill="#000000" font-family="sans-serif" font-size="13" lengthAdjust="spacing" textLength="310.3623" x="1294.24" y="620.6188">description (OCL-CYCLE-ENTRY-VALID). scope is</text><text fill="#000000" font-family="sans-serif" font-size="13" lengthAdjust="spacing" textLength="300.2251" x="1294.24" y="635.9294">optional: when non-empty it narrows the parity</text><text fill="#000000" font-family="sans-serif" font-size="13" lengthAdjust="spacing" textLength="271.9971" x="1294.24" y="651.2399">gate to those objective @ids and must be a</text><text fill="#000000" font-family="sans-serif" font-size="13" lengthAdjust="spacing" textLength="195.6411" x="1294.24" y="666.5505">subset of the objective registry</text><text fill="#000000" font-family="sans-serif" font-size="13" lengthAdjust="spacing" textLength="333.5313" x="1294.24" y="681.861">(OCL-REVIEW-SCOPE-SUBSET-OF-OBJECTIVE); empty</text><text fill="#000000" font-family="sans-serif" font-size="13" lengthAdjust="spacing" textLength="280.8901" x="1294.24" y="697.1716">scope means whole-model parity, exactly as</text><text fill="#000000" font-family="sans-serif" font-size="13" lengthAdjust="spacing" textLength="264.2593" x="1294.24" y="712.4821">before. Realized by SEQ-SCOPED-REVIEW.</text></g><g class="entity" data-qualified-name="GMN31" data-source-line="141" id="ent0032"><path d="M6,797.2283 L6,1021.5759 A0,0 0 0 0 6,1021.5759 L329.0151,1021.5759 A0,0 0 0 0 329.0151,1021.5759 L329.0151,807.2283 L319.0151,797.2283 L254.98,797.2283 L320.12,704.6283 L246.98,797.2283 L6,797.2283 A0,0 0 0 0 6,797.2283" fill="#FEFFDD" style="stroke:#181818;stroke-width:0.5;"/><path d="M319.0151,797.2283 L319.0151,807.2283 L329.0151,807.2283 L319.0151,797.2283" fill="#FEFFDD" style="stroke:#181818;stroke-width:0.5;"/><text fill="#000000" font-family="sans-serif" font-size="13" lengthAdjust="spacing" textLength="220.3208" x="12" y="814.7966">Diff mode is keyed on selectedFile.</text><text fill="#000000" font-family="sans-serif" font-size="13" lengthAdjust="spacing" textLength="194.7842" x="12" y="830.1072">selectedCycle is constrained to</text><text fill="#000000" font-family="sans-serif" font-size="13" lengthAdjust="spacing" textLength="274.1235" x="12" y="845.4177">cyclesWithDiffFor(selectedFile) &#8212; the cycles</text><text fill="#000000" font-family="sans-serif" font-size="13" lengthAdjust="spacing" textLength="282.9404" x="12" y="860.7283">whose CycleDiff for the file has a non-empty</text><text fill="#000000" font-family="sans-serif" font-size="13" lengthAdjust="spacing" textLength="258.1465" x="12" y="876.0388">added/removed set (a real change with a</text><text fill="#000000" font-family="sans-serif" font-size="13" lengthAdjust="spacing" textLength="260.5205" x="12" y="891.3494">written .diff), NOT cycles where the file is</text><text fill="#000000" font-family="sans-serif" font-size="13" lengthAdjust="spacing" textLength="302.0151" x="12" y="906.6599">only present-unchanged in the snapshot &#8212; and</text><text fill="#000000" font-family="sans-serif" font-size="13" lengthAdjust="spacing" textLength="183.8916" x="12" y="921.9705">defaults to the latest of them</text><text fill="#000000" font-family="sans-serif" font-size="13" lengthAdjust="spacing" textLength="270.4355" x="12" y="937.281">(OCL-DIFF-CYCLE-SCOPED); it still renders</text><text fill="#000000" font-family="sans-serif" font-size="13" lengthAdjust="spacing" textLength="247.9775" x="12" y="952.5916">exactly the CycleDiff for that (cycle,file)</text><text fill="#000000" font-family="sans-serif" font-size="13" lengthAdjust="spacing" textLength="276.9482" x="12" y="967.9021">pair (OCL-DIFF-VIEW-BINDING). subMode is</text><text fill="#000000" font-family="sans-serif" font-size="13" lengthAdjust="spacing" textLength="246.7842" x="12" y="983.2127">exactly one of {Diagram, List}; Diagram</text><text fill="#000000" font-family="sans-serif" font-size="13" lengthAdjust="spacing" textLength="217.5024" x="12" y="998.5232">requires the rendered SVG to exist</text><text fill="#000000" font-family="sans-serif" font-size="13" lengthAdjust="spacing" textLength="246.6445" x="12" y="1013.8338">(OCL-DIFF-DIAGRAM-NEEDS-RENDER).</text></g><g class="entity" data-qualified-name="GMN34" data-source-line="158" id="ent0035"><path d="M1278.73,812.5383 L1278.73,1006.2648 A0,0 0 0 0 1278.73,1006.2648 L1632.2837,1006.2648 A0,0 0 0 0 1632.2837,1006.2648 L1632.2837,822.5383 L1622.2837,812.5383 L1339.78,812.5383 L1212.39,713.0783 L1331.78,812.5383 L1278.73,812.5383 A0,0 0 0 0 1278.73,812.5383" fill="#FEFFDD" style="stroke:#181818;stroke-width:0.5;"/><path d="M1622.2837,812.5383 L1622.2837,822.5383 L1632.2837,822.5383 L1622.2837,812.5383" fill="#FEFFDD" style="stroke:#181818;stroke-width:0.5;"/><text fill="#000000" font-family="sans-serif" font-size="13" lengthAdjust="spacing" textLength="280.8267" x="1284.73" y="830.1066">Maintained only by /mdd-cycle's Close step,</text><text fill="#000000" font-family="sans-serif" font-size="13" lengthAdjust="spacing" textLength="273.5015" x="1284.73" y="845.4172">one CycleDiff application per cycle &#8212; never</text><text fill="#000000" font-family="sans-serif" font-size="13" lengthAdjust="spacing" textLength="273.4761" x="1284.73" y="860.7277">re-derived from code, no render-time fold.</text><text fill="#000000" font-family="sans-serif" font-size="13" lengthAdjust="spacing" textLength="254.3379" x="1284.73" y="876.0383">lastCycle names a Closed cycle or is null</text><text fill="#000000" font-family="sans-serif" font-size="13" lengthAdjust="spacing" textLength="327.2598" x="1284.73" y="891.3488">when none (OCL-MAP-LAST-CYCLE-CLOSED). Every</text><text fill="#000000" font-family="sans-serif" font-size="13" lengthAdjust="spacing" textLength="214.3096" x="1284.73" y="906.6594">@id in the tree carries exactly one</text><text fill="#000000" font-family="sans-serif" font-size="13" lengthAdjust="spacing" textLength="331.938" x="1284.73" y="921.9699">lastCycle (OCL-MAP-PROVENANCE-CLOSED). An @id</text><text fill="#000000" font-family="sans-serif" font-size="13" lengthAdjust="spacing" textLength="252.6621" x="1284.73" y="937.2805">added then later removed is absent, not</text><text fill="#000000" font-family="sans-serif" font-size="13" lengthAdjust="spacing" textLength="332.5537" x="1284.73" y="952.591">ghosted (OCL-MAP-NET-CANCELS). The OCL-MAP-*</text><text fill="#000000" font-family="sans-serif" font-size="13" lengthAdjust="spacing" textLength="250.9165" x="1284.73" y="967.9016">invariants describe the artifact; they are</text><text fill="#000000" font-family="sans-serif" font-size="13" lengthAdjust="spacing" textLength="254.4204" x="1284.73" y="983.2121">not parity gates &#8212; validate/review/cycle</text><text fill="#000000" font-family="sans-serif" font-size="13" lengthAdjust="spacing" textLength="148.6113" x="1284.73" y="998.5227">never read .mdd/map/.</text></g><!--reverse link CycleRegistry to Cycle--><g class="link" data-entity-1="ent0008" data-entity-2="ent0005" data-link-type="aggregation" data-source-line="95" id="lnk12"><path codeLine="95" d="M850.51,170.7383 C850.51,193.4883 850.51,208.6183 850.51,235.1583" fill="none" id="CycleRegistry-backto-Cycle" style="stroke:#181818;stroke-width:1;"/><polygon fill="none" points="850.51,158.7383,846.51,164.7383,850.51,170.7383,854.51,164.7383,850.51,158.7383" style="stroke:#181818;stroke-width:1;"/><polygon fill="#000000" points="855.51,202.0936,858.4489,193.0485,852.5711,193.0485,855.51,202.0936" style="stroke:#000000;stroke-width:1;"/><text fill="#000000" font-family="sans-serif" font-size="13" lengthAdjust="spacing" textLength="59.1284" x="864.51" y="202.0066">discovers</text><text fill="#000000" font-family="sans-serif" font-size="13" lengthAdjust="spacing" textLength="8.2202" x="842.0608" y="178.814">1</text><text fill="#000000" font-family="sans-serif" font-size="13" lengthAdjust="spacing" textLength="6.2651" x="844.3176" y="224.5089">*</text></g><!--reverse link Cycle to CycleDiff--><g class="link" data-entity-1="ent0005" data-entity-2="ent0006" data-link-type="aggregation" data-source-line="96" id="lnk13"><path codeLine="96" d="M850.51,477.2383 C850.51,588.2183 850.51,741.4383 850.51,835.6383" fill="none" id="Cycle-backto-CycleDiff" style="stroke:#181818;stroke-width:1;"/><polygon fill="none" points="850.51,465.2383,846.51,471.2383,850.51,477.2383,854.51,471.2383,850.51,465.2383" style="stroke:#181818;stroke-width:1;"/><polygon fill="#000000" points="855.51,636.1736,858.4489,627.1285,852.5711,627.1285,855.51,636.1736" style="stroke:#000000;stroke-width:1;"/><text fill="#000000" font-family="sans-serif" font-size="13" lengthAdjust="spacing" textLength="69.7163" x="864.51" y="636.0866">closes with</text><text fill="#000000" font-family="sans-serif" font-size="13" lengthAdjust="spacing" textLength="8.2202" x="842.2732" y="485.2879">1</text><text fill="#000000" font-family="sans-serif" font-size="13" lengthAdjust="spacing" textLength="6.2651" x="844.2276" y="825.2224">*</text></g><!--link Cycle to EntryPoint--><g class="link" data-entity-1="ent0005" data-entity-2="ent0002" data-link-type="dependency" data-source-line="97" id="lnk14"><path codeLine="97" d="M744.67,448.1183 C714.33,477.3583 681.81,510.1283 653.51,541.8083 C639.85,557.0883 629.4618,570.0472 617.7318,585.6072" fill="none" id="Cycle-to-EntryPoint" style="stroke:#181818;stroke-width:1;"/><polygon fill="#181818" points="614.12,590.3983,622.7318,585.6195,617.1298,586.4057,616.3436,580.8037,614.12,590.3983" style="stroke:#181818;stroke-width:1;"/></g><!--link Cycle to CycleStatus--><g class="link" data-entity-1="ent0005" data-entity-2="ent0003" data-link-type="dependency" data-source-line="98" id="lnk15"><path codeLine="98" d="M799.48,464.9583 C781.19,505.7783 763.994,544.1531 749.544,576.3931" fill="none" id="Cycle-to-CycleStatus" style="stroke:#181818;stroke-width:1;"/><polygon fill="#181818" points="747.09,581.8683,754.4211,575.2915,749.135,577.3056,747.1209,572.0195,747.09,581.8683" style="stroke:#181818;stroke-width:1;"/></g><!--link ElementDescription to Cycle--><g class="link" data-entity-1="ent0007" data-entity-2="ent0005" data-link-type="dependency" data-source-line="99" id="lnk16"><path codeLine="99" d="M645.14,142.3683 C672.16,169.5683 705.0718,202.7013 740.3518,238.2213" fill="none" id="ElementDescription-to-Cycle" style="stroke:#181818;stroke-width:1;stroke-dasharray:7,7;"/><polygon fill="#181818" points="744.58,242.4783,741.0756,233.274,741.0565,238.9308,735.3996,238.9116,744.58,242.4783" style="stroke:#181818;stroke-width:1;"/><text fill="#000000" font-family="sans-serif" font-size="13" lengthAdjust="spacing" textLength="102.521" x="707.06" y="202.0066">authored during</text><text fill="#000000" font-family="sans-serif" font-size="13" lengthAdjust="spacing" textLength="6.2651" x="644.7692" y="162.3735">*</text><text fill="#000000" font-family="sans-serif" font-size="13" lengthAdjust="spacing" textLength="8.2202" x="728.8585" y="231.9614">1</text></g><!--link DiffView to DiffSubMode--><g class="link" data-entity-1="ent0009" data-entity-2="ent0004" data-link-type="dependency" data-source-line="100" id="lnk17"><path codeLine="100" d="M387.38,704.6283 C396.68,757.0883 407.8418,820.0606 415.4218,862.7806" fill="none" id="DiffView-to-DiffSubMode" style="stroke:#181818;stroke-width:1;"/><polygon fill="#181818" points="416.47,868.6883,418.8361,859.1279,415.5965,863.7652,410.9592,860.5255,416.47,868.6883" style="stroke:#181818;stroke-width:1;"/></g><!--link DiffView to CycleDiff--><g class="link" data-entity-1="ent0009" data-entity-2="ent0006" data-link-type="dependency" data-source-line="101" id="lnk18"><path codeLine="101" d="M491.73,704.8283 C500.43,710.0783 509.09,715.2583 517.51,720.2283 C588.26,762.0183 663.1814,804.453 727.1314,840.163" fill="none" id="DiffView-to-CycleDiff" style="stroke:#181818;stroke-width:1;stroke-dasharray:7,7;"/><polygon fill="#181818" points="732.37,843.0883,726.4623,835.208,728.0045,840.6506,722.5619,842.1928,732.37,843.0883" style="stroke:#181818;stroke-width:1;"/><polygon fill="#000000" points="599.2647,761.3756,592.888,754.3196,589.9584,759.4153,599.2647,761.3756" style="stroke:#000000;stroke-width:1;"/><text fill="#000000" font-family="sans-serif" font-size="13" lengthAdjust="spacing" textLength="185.999" x="603.93" y="763.7966">resolves selected file/cycle to</text></g><!--link Cycle to WholeMap--><g class="link" data-entity-1="ent0005" data-entity-2="ent0010" data-link-type="dependency" data-source-line="102" id="lnk19"><path codeLine="102" d="M956.29,464.1583 C982.86,492.5483 1006.7403,518.0673 1031.5203,544.5473" fill="none" id="Cycle-to-WholeMap" style="stroke:#181818;stroke-width:1;stroke-dasharray:7,7;"/><polygon fill="#181818" points="1035.62,548.9283,1032.3911,539.6238,1032.2036,545.2775,1026.5499,545.09,1035.62,548.9283" style="stroke:#181818;stroke-width:1;"/><polygon fill="#000000" points="1005.0465,507.1143,1001.0119,498.5019,996.7202,502.5182,1005.0465,507.1143" style="stroke:#000000;stroke-width:1;"/><text fill="#000000" font-family="sans-serif" font-size="13" lengthAdjust="spacing" textLength="159.7642" x="1010.63" y="508.3766">accumulates into at close</text><text fill="#000000" font-family="sans-serif" font-size="13" lengthAdjust="spacing" textLength="8.2202" x="964.0169" y="469.2283">1</text><text fill="#000000" font-family="sans-serif" font-size="13" lengthAdjust="spacing" textLength="8.2202" x="1020.5149" y="538.5315">1</text></g><!--link WholeMap to CycleDiff--><g class="link" data-entity-1="ent0010" data-entity-2="ent0006" data-link-type="dependency" data-source-line="103" id="lnk20"><path codeLine="103" d="M970.55,713.0983 C956.11,724.5183 942.4,736.9483 930.51,750.2283 C908.34,774.9883 893.1215,801.5455 880.0615,830.2955" fill="none" id="WholeMap-to-CycleDiff" style="stroke:#181818;stroke-width:1;stroke-dasharray:7,7;"/><polygon fill="#181818" points="877.58,835.7583,884.9442,829.2185,879.6479,831.206,877.6604,825.9098,877.58,835.7583" style="stroke:#181818;stroke-width:1;"/><polygon fill="#000000" points="932.4543,762.8412,940.3083,757.4779,935.6559,753.8857,932.4543,762.8412" style="stroke:#000000;stroke-width:1;"/><text fill="#000000" font-family="sans-serif" font-size="13" lengthAdjust="spacing" textLength="166.5435" x="944.51" y="763.7966">applies added/removed of</text></g><!--reverse link WholeMap to WholeMapElement--><g class="link" data-entity-1="ent0010" data-entity-2="ent0011" data-link-type="aggregation" data-source-line="104" id="lnk21"><path codeLine="104" d="M1117.5694,725.0529 C1120.6794,772.8329 1123.73,819.7083 1126.37,860.2483" fill="none" id="WholeMap-backto-WholeMapElement" style="stroke:#181818;stroke-width:1;"/><polygon fill="none" points="1116.79,713.0783,1113.1882,719.3254,1117.5694,725.0529,1121.1713,718.8058,1116.79,713.0783" style="stroke:#181818;stroke-width:1;"/><polygon fill="#000000" points="1125.2948,763.873,1127.64,754.6561,1121.7745,755.0379,1125.2948,763.873" style="stroke:#000000;stroke-width:1;"/><text fill="#000000" font-family="sans-serif" font-size="13" lengthAdjust="spacing" textLength="89.5527" x="1133.97" y="763.7966">provenance of</text><text fill="#000000" font-family="sans-serif" font-size="13" lengthAdjust="spacing" textLength="8.2202" x="1108.9098" y="733.3566">1</text><text fill="#000000" font-family="sans-serif" font-size="13" lengthAdjust="spacing" textLength="6.2651" x="1119.5254" y="849.8717">*</text></g><!--link Cycle to GMN28--><g class="link" data-entity-1="ent0005" data-entity-2="ent0029" data-link-type="association" data-source-line="127" id="lnk30"><path d="M956.45,396.6583 C1020.86,424.5583 1104.65,461.2383 1178.51,494.8083 C1213.98,510.9283 1251.77,528.4683 1287.88,545.4083" fill="none" id="Cycle-GMN28" style="stroke:#181818;stroke-width:1;stroke-dasharray:7,7;"/></g><?plantuml-src XLZRaXev4dtlhr3qYs66WjXNx6aR0xRPvRR0jDUFeag0F7LRbGg6cPY8_OZzmlsIFPbI5LLqx-o3mxIaIkNbvCbClH4VTDIPh1R1-DjuFkq-l6al19FPfq_DrUbykfWkTy5akXrlPklTRBLy-T5c-dcstMs-DNT8KF0yctvjBdxziiBnnMYDHIolzjzLQFLP1OMEb8YoHEfK95caOd78Z0YlOQo4DJByHQV7lbYgYmYpD5IvBNf2xWkLMf6ba6HFIeIbCRJ0iihKwbWCaYWAT9B7Ag6T7zr28dCHnbcX-BDS6csluYZpFYlr8L95U3Ek9nvNgLT2HM8ncOWuo_AXqBOG46gk8izqQdk2lZCwjpfBUwAmqfPGacxm1kbO5VXAsAmCJohgiOIzWg5g80zM6L6aCYzEcHMHDd1CPhGYEzC8_qJ6acKiYZ3BbVZFl_ujf2WK770GMUL8ydI1IwKLgJGcknHj6oqioTn-4UjGYOvASkpy92wdB5O1gzhjFtPVEe8Z2c-ibGaYBOz69a9vnqA-rQGUxB4NfLAeni5xKrdeh60hVPnSp2kJYo525fvaUYJFo2YY_unAiZFzoEEoCiIUo61o7OH4oY0cHPahaoEUaUX7-d3e5-VZlGclu1Ysx23IdNatcpmXMkfNsnM9DByeCuGDMQg2M2Fyfp9121eH5j9QIM4aVqeVOZWVaI_DGORO09H9vSLgCfsByMgvc_vZ9q9fejVTMoKHrDg6CYr47rWTi1UB0OJHFK21SJR7kk38Zpb5W1Pi59mqTETPgmiyRIHoW1nFNk75j_XJnjan8tzcOa5gRzGHmiprNgqwWw7HinCuWHp62EDR3Vco0YW8BNHYNHta2Uot3Uy9KiV1cJyhzqvKP-BHv0Bg0bq7iYVcP2emSl709jd05SLAx4jafIrU8BOc6Xza0AI06EY2Nu7d4ETXiC50o30iapAM75f66-Aj3wgm_MiI3t6FZd7R5JhciRo2ZOH2-1sDH3NMEHha9207xaMoTnZABYsHjzfvuw81um-Etd83ZASI6jM05v79yfoGdL4g17186hWzaS9S2bsg84EPRgzE8M-TPysIVDd2qBlbqu2pVD0NenHg53cH1YMjHAW8vbaQNvbPZ98HcPjczaJ6-WWsU8GyZfp7JUCMIrSitgavgVlmeD8o4LCYopLnfVZzGOZFAbK6Wl1p8VE7F_mfbhPbzkHZgrob-6_CZiQFqJupiBG-JzxUbdj2Cf_tOC8lmWqT2sDP-D3mYHy5ljl3EKFAAbueulA8FxVMm09USSm-R2ZDoqq6Q9rtV8-rXlwy0QvELJIosDhf182IISuR3ZhjZVUyuml49ouOGxRZdRlgoTt51U2L3KUr4qschS6KlCYaUrjxV-SIHgjpIyNgBSDgLgPbPTzD7UN_JLtTdGxVh-zLSFuVNwP05m0GhSiaRcfCgRyz7wkbMbylODA8WLFSIdDKTXQrDMU2g5VQLbUSvmMu3BbpN04MxdGhF_DdJxVJ7GUYRXLo5pem22BPQQpMzvAZYKRzbHKvEbmo5D-tDYZyjVf-o-Dys4Hzmu2le0JQ-PIP3h5ahJo4FzMkfLrFrTMX6WdlVTnSPKKGxa-s8_ALw0JPwsqw4yjoPbJvWbFsXOL7d_clPSMX2Ngwp6EbucVLuLhMKBdd2OylwFBf6wMk3XtVeyoYRZFXFMVEGDFEn5lmko_jyyZpPjOIstXhgE6ZPSwWlsANpHjU-9X1f4pfZZOI7__oAB8W48y_F8hgSAIHw-HLyUHElpmrSUvWDYbSOQdE1i5JaxzkYqsEUYMfI7Q__yHtLPh8qfuoQZoYaWskqKpoccYiDqX2KqEZYYo6Esvj0SLwu7lyh6LXTNkDhs430OLlXgnlufyUwcFtTyeyZz53Ev8QL7I4jgdnJTEZz_4UDg3aFdi0PocnHxND4bfvwJx4lkQZf4JhuWqNhe5JloBSL2UvPSHXj0QekwubaedYyQKlQEPe5XiKTfmjz15TYGOnsGg5VJ7EKW08DLTHoQQIEPwt-jrWkLfE5-lTjpvAPaGrNRsme_OQlhzlnBbbgvmd3RK1sbnqGTG3X7xdajwXMs-3Gh0URNOp7XVxbPDm7BPXC4CBeLsRnnspRrf10dl4Vnt3kfyNSvoMiPR589PxzDQN4qqLQJrod6G1IqX0dzLm9IFH67gGBgtQWiQCvmPkYN2OcwAAumPESzPv-_mPUk--m6kRsVDqqYNH6s-ulxXW3nWLwFIxWp7dd6Gbk7u6zfgh0D134sSqZLp7KmOS_AAk5tJfrDJ1N8hctTnIDy3KnXVgdwK2x0RSQT-aK_ENzIY8hbkZWIBOAqbPIVDAyV-2J3sKRwSyPJ5AJn8GbVWk3T8oZkksWS90eviLe2sQELBL0aiZxkFvQZkT15z6ss2x7AstNrQxBQBlMYbTD7e-GTRoI52c57V3T62W9VknWVk6UC1vyoru7ird28nlWbXgDHaF7KZ813VLwjUcO7nmcuE9F-w6PxAMFR9Nh0sAhf-oISRjiF74NVbWCwLPATYEL-jfiFtvutQw2rQVWjN7lqx7Ew2f-rQmLYIITKyKJNcDkTihs0D7oD0YjfAiSqrT7pX4Elp6EIwsqx-xYoR-sZy9UaN8t1l3xJnp8Vq0HyNCqsmu2F3jpaJJt78Z69lXnCjkeocZonC4lyZmENnmOKVVcBcQKtbCf4oMjwWHu5fqJTxlI1f9Ok68wPPo5pZC8kQSFvY5bgkTlvMmODJj5eSKofWSX4pl3xVEraytzVCBlwsa4KFn8ClOJLnqnFLt7Wn95Nec3mTI5nN46jW3poEHV5BZR1LM4dJl2-INRxMuqy9f8jc6U0RNnzboCbj-9lZxLb0t1LDkGhNV_GpaHkS_tZPc8WDMqR3V9L_rW0BU8mEvDBLicin6dpUZHR2SJYTRG6q9Okp-2TQg-iap7Qg2mmnx7QZbnxTwLERQZP4yxt5WcYxXiXtAgl1vcgAefEhC50x-XUhwND5625yGANgR0ekc4fwDkJZScj0K1PR0rg8_-1yW9z9Zf3e6KSuBYz4wc8-sknR3KKM36bTVl3rwh56As9WUxPeHmQatVjPthqpBBdFCacwzK-NTJorrQnNMczNpT3bQZXigO8J7xLMsa0efmzFKfPhaynifbmlYFQf3sAZbBi5HOn8x9wAcXv9gvmSgrkaPX2IfvZbAthjyeiU-0-nxItzTgHxYC1ManlD0mU4wWx8Y_8LSfjSdr-pHOGgZUsIets1kiFel?></g></svg>