<svg xmlns="http://www.w3.org/2000/svg" xmlns:xlink="http://www.w3.org/1999/xlink" contentStyleType="text/css" data-diagram-type="CLASS" height="1229px" preserveAspectRatio="none" style="width:1647px;height:1229px;background:#FFFFFF;" version="1.1" viewBox="0 0 1647 1229" width="1647px" zoomAndPan="magnify"><?plantuml 1.2026.3?><defs/><g><g class="title" data-source-line="17"><text fill="#000000" font-family="sans-serif" font-size="14" font-weight="700" lengthAdjust="spacing" textLength="241.165" x="699.5593" y="23.5352">Cycle tracking domain (objective)</text></g><!--class EntryPoint--><g class="entity" data-qualified-name="EntryPoint" data-source-line="19" id="ent0002"><rect fill="#F1F1F1" height="80.9766" rx="2.5" ry="2.5" style="stroke:#181818;stroke-width:0.5;" width="100.8652" x="535.07" y="566.5483"/><ellipse cx="550.07" cy="582.5483" fill="#EB937F" rx="11" ry="11" style="stroke:#181818;stroke-width:1;"/><path d="M553.6843,589.0483 L545.9645,589.0483 L545.9645,576.6552 L553.6843,576.6552 L553.6843,578.8134 L548.4133,578.8134 L548.4133,581.4863 L553.1862,581.4863 L553.1862,583.6445 L548.4133,583.6445 L548.4133,586.8901 L553.6843,586.8901 Z " fill="#000000"/><text fill="#000000" font-family="sans-serif" font-size="14" lengthAdjust="spacing" textLength="68.8652" x="564.07" y="587.8393">EntryPoint</text><line style="stroke:#181818;stroke-width:0.5;" x1="536.07" x2="634.9352" y1="598.5483" y2="598.5483"/><text fill="#000000" font-family="sans-serif" font-size="14" lengthAdjust="spacing" textLength="60.9014" x="541.07" y="616.0834">Generate</text><text fill="#000000" font-family="sans-serif" font-size="14" lengthAdjust="spacing" textLength="28.6016" x="541.07" y="632.5717">Map</text><line style="stroke:#181818;stroke-width:0.5;" x1="536.07" x2="634.9352" y1="639.5248" y2="639.5248"/></g><!--class CycleStatus--><g class="entity" data-qualified-name="CycleStatus" data-source-line="24" id="ent0003"><rect fill="#F1F1F1" height="97.4648" rx="2.5" ry="2.5" style="stroke:#181818;stroke-width:0.5;" width="109.5879" x="670.71" y="558.3083"/><ellipse cx="685.71" cy="574.3083" fill="#EB937F" rx="11" ry="11" style="stroke:#181818;stroke-width:1;"/><path d="M689.3243,580.8083 L681.6045,580.8083 L681.6045,568.4152 L689.3243,568.4152 L689.3243,570.5734 L684.0533,570.5734 L684.0533,573.2463 L688.8262,573.2463 L688.8262,575.4045 L684.0533,575.4045 L684.0533,578.6501 L689.3243,578.6501 Z " fill="#000000"/><text fill="#000000" font-family="sans-serif" font-size="14" lengthAdjust="spacing" textLength="77.5879" x="699.71" y="579.5993">CycleStatus</text><line style="stroke:#181818;stroke-width:0.5;" x1="671.71" x2="779.2979" y1="590.3083" y2="590.3083"/><text fill="#000000" font-family="sans-serif" font-size="14" lengthAdjust="spacing" textLength="36.1758" x="676.71" y="607.8434">Open</text><text fill="#000000" font-family="sans-serif" font-size="14" lengthAdjust="spacing" textLength="46.0811" x="676.71" y="624.3317">Closed</text><text fill="#000000" font-family="sans-serif" font-size="14" lengthAdjust="spacing" textLength="54.6465" x="676.71" y="640.82">Aborted</text><line style="stroke:#181818;stroke-width:0.5;" x1="671.71" x2="779.2979" y1="647.7731" y2="647.7731"/></g><!--class DiffSubMode--><g class="entity" data-qualified-name="DiffSubMode" data-source-line="30" id="ent0004"><rect fill="#F1F1F1" height="80.9766" rx="2.5" ry="2.5" style="stroke:#181818;stroke-width:0.5;" width="119.1377" x="363.94" y="837.4283"/><ellipse cx="378.94" cy="853.4283" fill="#EB937F" rx="11" ry="11" style="stroke:#181818;stroke-width:1;"/><path d="M382.5543,859.9283 L374.8345,859.9283 L374.8345,847.5352 L382.5543,847.5352 L382.5543,849.6934 L377.2833,849.6934 L377.2833,852.3663 L382.0562,852.3663 L382.0562,854.5245 L377.2833,854.5245 L377.2833,857.7701 L382.5543,857.7701 Z " fill="#000000"/><text fill="#000000" font-family="sans-serif" font-size="14" lengthAdjust="spacing" textLength="87.1377" x="392.94" y="858.7193">DiffSubMode</text><line style="stroke:#181818;stroke-width:0.5;" x1="364.94" x2="482.0777" y1="869.4283" y2="869.4283"/><text fill="#000000" font-family="sans-serif" font-size="14" lengthAdjust="spacing" textLength="57.5244" x="369.94" y="886.9634">Diagram</text><text fill="#000000" font-family="sans-serif" font-size="14" lengthAdjust="spacing" textLength="23.8848" x="369.94" y="903.4517">List</text><line style="stroke:#181818;stroke-width:0.5;" x1="364.94" x2="482.0777" y1="910.4048" y2="910.4048"/></g><!--class Cycle--><g class="entity" data-qualified-name="Cycle" data-source-line="35" id="ent0005"><rect fill="#F1F1F1" height="212.8828" rx="2.5" ry="2.5" style="stroke:#181818;stroke-width:0.5;" width="210.9326" x="745.04" y="235.4483"/><ellipse cx="828.247" cy="251.4483" fill="#ADD1B2" rx="11" ry="11" style="stroke:#181818;stroke-width:1;"/><path d="M830.7202,257.5913 Q830.1391,257.8902 829.5,258.0396 Q828.8608,258.189 828.1552,258.189 Q825.6484,258.189 824.3286,256.5371 Q823.0088,254.8853 823.0088,251.7642 Q823.0088,248.6348 824.3286,246.9829 Q825.6484,245.3311 828.1552,245.3311 Q828.8608,245.3311 829.5083,245.4805 Q830.1557,245.6299 830.7202,245.9288 L830.7202,248.6514 Q830.0893,248.0704 829.4958,247.8006 Q828.9023,247.5308 828.2714,247.5308 Q826.9267,247.5308 826.2419,248.5975 Q825.5571,249.6641 825.5571,251.7642 Q825.5571,253.856 826.2419,254.9226 Q826.9267,255.9893 828.2714,255.9893 Q828.9023,255.9893 829.4958,255.7195 Q830.0893,255.4497 830.7202,254.8687 Z " fill="#000000"/><text fill="#000000" font-family="sans-serif" font-size="14" lengthAdjust="spacing" textLength="36.0186" x="848.747" y="256.7393">Cycle</text><line style="stroke:#181818;stroke-width:0.5;" x1="746.04" x2="954.9726" y1="267.4483" y2="267.4483"/><g data-visibility-modifier="PUBLIC_FIELD"><ellipse cx="756.04" cy="281.1924" fill="none" rx="3" ry="3" style="stroke:#038048;stroke-width:1;"/></g><text fill="#000000" font-family="sans-serif" font-size="14" lengthAdjust="spacing" textLength="84.0479" x="765.04" y="284.9834">number : int</text><g data-visibility-modifier="PUBLIC_FIELD"><ellipse cx="756.04" cy="297.6807" fill="none" rx="3" ry="3" style="stroke:#038048;stroke-width:1;"/></g><text fill="#000000" font-family="sans-serif" font-size="14" lengthAdjust="spacing" textLength="81.8604" x="765.04" y="301.4717">slug : String</text><g data-visibility-modifier="PUBLIC_FIELD"><ellipse cx="756.04" cy="314.169" fill="none" rx="3" ry="3" style="stroke:#038048;stroke-width:1;"/></g><text fill="#000000" font-family="sans-serif" font-size="14" lengthAdjust="spacing" textLength="116.9219" x="765.04" y="317.96">entry : EntryPoint</text><g data-visibility-modifier="PUBLIC_FIELD"><ellipse cx="756.04" cy="330.6573" fill="none" rx="3" ry="3" style="stroke:#038048;stroke-width:1;"/></g><text fill="#000000" font-family="sans-serif" font-size="14" lengthAdjust="spacing" textLength="129.3359" x="765.04" y="334.4483">description : String</text><g data-visibility-modifier="PUBLIC_FIELD"><ellipse cx="756.04" cy="347.1455" fill="none" rx="3" ry="3" style="stroke:#038048;stroke-width:1;"/></g><text fill="#000000" font-family="sans-serif" font-size="14" lengthAdjust="spacing" textLength="132.043" x="765.04" y="350.9366">status : CycleStatus</text><g data-visibility-modifier="PUBLIC_FIELD"><ellipse cx="756.04" cy="363.6338" fill="none" rx="3" ry="3" style="stroke:#038048;stroke-width:1;"/></g><text fill="#000000" font-family="sans-serif" font-size="14" lengthAdjust="spacing" textLength="154.4512" x="765.04" y="367.4248">openedAt : Timestamp</text><g data-visibility-modifier="PUBLIC_FIELD"><ellipse cx="756.04" cy="380.1221" fill="none" rx="3" ry="3" style="stroke:#038048;stroke-width:1;"/></g><text fill="#000000" font-family="sans-serif" font-size="14" lengthAdjust="spacing" textLength="153.4121" x="765.04" y="383.9131">closedAt : Timestamp?</text><g data-visibility-modifier="PUBLIC_FIELD"><ellipse cx="756.04" cy="396.6104" fill="none" rx="3" ry="3" style="stroke:#038048;stroke-width:1;"/></g><text fill="#000000" font-family="sans-serif" font-size="14" lengthAdjust="spacing" textLength="184.9326" x="765.04" y="400.4014">touchedFiles : List&lt;String&gt;</text><g data-visibility-modifier="PUBLIC_FIELD"><ellipse cx="756.04" cy="413.0987" fill="none" rx="3" ry="3" style="stroke:#038048;stroke-width:1;"/></g><text fill="#000000" font-family="sans-serif" font-size="14" lengthAdjust="spacing" textLength="106.832" x="765.04" y="416.8897">beforeDir : Path</text><g data-visibility-modifier="PUBLIC_FIELD"><ellipse cx="756.04" cy="429.587" fill="none" rx="3" ry="3" style="stroke:#038048;stroke-width:1;"/></g><text fill="#000000" font-family="sans-serif" font-size="14" lengthAdjust="spacing" textLength="100.4951" x="765.04" y="433.378">afterDir : Path?</text><line style="stroke:#181818;stroke-width:0.5;" x1="746.04" x2="954.9726" y1="440.3311" y2="440.3311"/></g><!--class CycleDiff--><g class="entity" data-qualified-name="CycleDiff" data-source-line="48" id="ent0006"><rect fill="#F1F1F1" height="146.9297" rx="2.5" ry="2.5" style="stroke:#181818;stroke-width:0.5;" width="235.6035" x="732.71" y="804.4583"/><ellipse cx="815.8384" cy="820.4583" fill="#ADD1B2" rx="11" ry="11" style="stroke:#181818;stroke-width:1;"/><path d="M818.3116,826.6013 Q817.7305,826.9002 817.0913,827.0496 Q816.4522,827.199 815.7466,827.199 Q813.2398,827.199 811.92,825.5471 Q810.6001,823.8953 810.6001,820.7742 Q810.6001,817.6448 811.92,815.9929 Q813.2398,814.3411 815.7466,814.3411 Q816.4522,814.3411 817.0996,814.4905 Q817.7471,814.6399 818.3116,814.9388 L818.3116,817.6614 Q817.6807,817.0804 817.0872,816.8106 Q816.4937,816.5408 815.8628,816.5408 Q814.5181,816.5408 813.8333,817.6075 Q813.1485,818.6741 813.1485,820.7742 Q813.1485,822.866 813.8333,823.9326 Q814.5181,824.9993 815.8628,824.9993 Q816.4937,824.9993 817.0872,824.7295 Q817.6807,824.4597 818.3116,823.8787 Z " fill="#000000"/><text fill="#000000" font-family="sans-serif" font-size="14" lengthAdjust="spacing" textLength="60.8467" x="836.3384" y="825.7493">CycleDiff</text><line style="stroke:#181818;stroke-width:0.5;" x1="733.71" x2="967.3135" y1="836.4583" y2="836.4583"/><g data-visibility-modifier="PUBLIC_FIELD"><ellipse cx="743.71" cy="850.2024" fill="none" rx="3" ry="3" style="stroke:#038048;stroke-width:1;"/></g><text fill="#000000" font-family="sans-serif" font-size="14" lengthAdjust="spacing" textLength="109.1084" x="752.71" y="853.9934">diagram : String</text><g data-visibility-modifier="PUBLIC_FIELD"><ellipse cx="743.71" cy="866.6907" fill="none" rx="3" ry="3" style="stroke:#038048;stroke-width:1;"/></g><text fill="#000000" font-family="sans-serif" font-size="14" lengthAdjust="spacing" textLength="209.6035" x="752.71" y="870.4817">unchanged : Set&lt;ElementKey&gt;</text><g data-visibility-modifier="PUBLIC_FIELD"><ellipse cx="743.71" cy="883.179" fill="none" rx="3" ry="3" style="stroke:#038048;stroke-width:1;"/></g><text fill="#000000" font-family="sans-serif" font-size="14" lengthAdjust="spacing" textLength="176.5723" x="752.71" y="886.97">added : Set&lt;ElementKey&gt;</text><g data-visibility-modifier="PUBLIC_FIELD"><ellipse cx="743.71" cy="899.6673" fill="none" rx="3" ry="3" style="stroke:#038048;stroke-width:1;"/></g><text fill="#000000" font-family="sans-serif" font-size="14" lengthAdjust="spacing" textLength="193.6621" x="752.71" y="903.4583">removed : Set&lt;ElementKey&gt;</text><g data-visibility-modifier="PUBLIC_FIELD"><ellipse cx="743.71" cy="916.1555" fill="none" rx="3" ry="3" style="stroke:#038048;stroke-width:1;"/></g><text fill="#000000" font-family="sans-serif" font-size="14" lengthAdjust="spacing" textLength="144.751" x="752.71" y="919.9466">annotatedPuml : Path</text><g data-visibility-modifier="PUBLIC_FIELD"><ellipse cx="743.71" cy="932.6438" fill="none" rx="3" ry="3" style="stroke:#038048;stroke-width:1;"/></g><text fill="#000000" font-family="sans-serif" font-size="14" lengthAdjust="spacing" textLength="89.3525" x="752.71" y="936.4348">diffSvg : Path</text><line style="stroke:#181818;stroke-width:0.5;" x1="733.71" x2="967.3135" y1="943.388" y2="943.388"/></g><!--class ElementDescription--><g class="entity" data-qualified-name="ElementDescription" data-source-line="57" id="ent0007"><rect fill="#F1F1F1" height="80.9766" rx="2.5" ry="2.5" style="stroke:#181818;stroke-width:0.5;" width="163.9814" x="523.52" y="60.9783"/><ellipse cx="538.52" cy="76.9783" fill="#ADD1B2" rx="11" ry="11" style="stroke:#181818;stroke-width:1;"/><path d="M540.9931,83.1213 Q540.4121,83.4202 539.7729,83.5696 Q539.1338,83.719 538.4282,83.719 Q535.9214,83.719 534.6015,82.0671 Q533.2817,80.4153 533.2817,77.2942 Q533.2817,74.1648 534.6015,72.5129 Q535.9214,70.8611 538.4282,70.8611 Q539.1338,70.8611 539.7812,71.0105 Q540.4287,71.1599 540.9931,71.4588 L540.9931,74.1814 Q540.3623,73.6004 539.7688,73.3306 Q539.1753,73.0608 538.5444,73.0608 Q537.1997,73.0608 536.5149,74.1275 Q535.8301,75.1941 535.8301,77.2942 Q535.8301,79.386 536.5149,80.4526 Q537.1997,81.5193 538.5444,81.5193 Q539.1753,81.5193 539.7688,81.2495 Q540.3623,80.9797 540.9931,80.3987 Z " fill="#000000"/><text fill="#000000" font-family="sans-serif" font-size="14" lengthAdjust="spacing" textLength="131.9814" x="552.52" y="82.2693">ElementDescription</text><line style="stroke:#181818;stroke-width:0.5;" x1="524.52" x2="686.5014" y1="92.9783" y2="92.9783"/><g data-visibility-modifier="PUBLIC_FIELD"><ellipse cx="534.52" cy="106.7224" fill="none" rx="3" ry="3" style="stroke:#038048;stroke-width:1;"/></g><text fill="#000000" font-family="sans-serif" font-size="14" lengthAdjust="spacing" textLength="106.5654" x="543.52" y="110.5134">targetId : String</text><g data-visibility-modifier="PUBLIC_FIELD"><ellipse cx="534.52" cy="123.2107" fill="none" rx="3" ry="3" style="stroke:#038048;stroke-width:1;"/></g><text fill="#000000" font-family="sans-serif" font-size="14" lengthAdjust="spacing" textLength="80.1172" x="543.52" y="127.0017">text : String</text><line style="stroke:#181818;stroke-width:0.5;" x1="524.52" x2="686.5014" y1="133.9548" y2="133.9548"/></g><!--class CycleRegistry--><g class="entity" data-qualified-name="CycleRegistry" data-source-line="62" id="ent0008"><rect fill="#F1F1F1" height="113.9531" rx="2.5" ry="2.5" style="stroke:#181818;stroke-width:0.5;" width="176.6094" x="762.2" y="44.4883"/><ellipse cx="801.3857" cy="60.4883" fill="#ADD1B2" rx="11" ry="11" style="stroke:#181818;stroke-width:1;"/><path d="M803.8589,66.6313 Q803.2778,66.9302 802.6387,67.0796 Q801.9995,67.229 801.2939,67.229 Q798.7871,67.229 797.4673,65.5771 Q796.1475,63.9253 796.1475,60.8042 Q796.1475,57.6748 797.4673,56.0229 Q798.7871,54.3711 801.2939,54.3711 Q801.9995,54.3711 802.647,54.5205 Q803.2944,54.6699 803.8589,54.9688 L803.8589,57.6914 Q803.228,57.1104 802.6345,56.8406 Q802.041,56.5708 801.4102,56.5708 Q800.0654,56.5708 799.3806,57.6375 Q798.6958,58.7041 798.6958,60.8042 Q798.6958,62.896 799.3806,63.9626 Q800.0654,65.0293 801.4102,65.0293 Q802.041,65.0293 802.6345,64.7595 Q803.228,64.4897 803.8589,63.9087 Z " fill="#000000"/><text fill="#000000" font-family="sans-serif" font-size="14" lengthAdjust="spacing" textLength="90.8633" x="820.7604" y="65.7793">CycleRegistry</text><line style="stroke:#181818;stroke-width:0.5;" x1="763.2" x2="937.8094" y1="76.4883" y2="76.4883"/><g data-visibility-modifier="PUBLIC_FIELD"><ellipse cx="773.2" cy="90.2324" fill="none" rx="3" ry="3" style="stroke:#038048;stroke-width:1;"/></g><text fill="#000000" font-family="sans-serif" font-size="14" lengthAdjust="spacing" textLength="103.585" x="782.2" y="94.0234">cyclesDir : Path</text><line style="stroke:#181818;stroke-width:0.5;" x1="763.2" x2="937.8094" y1="100.9766" y2="100.9766"/><g data-visibility-modifier="PUBLIC_METHOD"><ellipse cx="773.2" cy="114.7207" fill="#84BE84" rx="3" ry="3" style="stroke:#038048;stroke-width:1;"/></g><text fill="#000000" font-family="sans-serif" font-size="14" lengthAdjust="spacing" textLength="135.2832" x="782.2" y="118.5117">scan() : List&lt;Cycle&gt;</text><g data-visibility-modifier="PUBLIC_METHOD"><ellipse cx="773.2" cy="131.209" fill="#84BE84" rx="3" ry="3" style="stroke:#038048;stroke-width:1;"/></g><text fill="#000000" font-family="sans-serif" font-size="14" lengthAdjust="spacing" textLength="150.6094" x="782.2" y="135">cycle(number) : Cycle?</text><g data-visibility-modifier="PUBLIC_METHOD"><ellipse cx="773.2" cy="147.6973" fill="#84BE84" rx="3" ry="3" style="stroke:#038048;stroke-width:1;"/></g><text fill="#000000" font-family="sans-serif" font-size="14" lengthAdjust="spacing" textLength="101.5068" x="782.2" y="151.4883">latest() : Cycle?</text></g><!--class DiffView--><g class="entity" data-qualified-name="DiffView" data-source-line="69" id="ent0009"><rect fill="#F1F1F1" height="146.9297" rx="2.5" ry="2.5" style="stroke:#181818;stroke-width:0.5;" width="250.7998" x="249.11" y="533.5683"/><ellipse cx="341.9523" cy="549.5683" fill="#ADD1B2" rx="11" ry="11" style="stroke:#181818;stroke-width:1;"/><path d="M344.4254,555.7113 Q343.8444,556.0102 343.2052,556.1596 Q342.5661,556.309 341.8605,556.309 Q339.3537,556.309 338.0338,554.6571 Q336.714,553.0053 336.714,549.8842 Q336.714,546.7548 338.0338,545.1029 Q339.3537,543.4511 341.8605,543.4511 Q342.5661,543.4511 343.2135,543.6005 Q343.861,543.7499 344.4254,544.0488 L344.4254,546.7714 Q343.7946,546.1904 343.2011,545.9206 Q342.6076,545.6508 341.9767,545.6508 Q340.632,545.6508 339.9472,546.7175 Q339.2623,547.7841 339.2623,549.8842 Q339.2623,551.976 339.9472,553.0426 Q340.632,554.1093 341.9767,554.1093 Q342.6076,554.1093 343.2011,553.8395 Q343.7946,553.5697 344.4254,552.9887 Z " fill="#000000"/><text fill="#000000" font-family="sans-serif" font-size="14" lengthAdjust="spacing" textLength="56.6152" x="362.4523" y="554.8593">DiffView</text><line style="stroke:#181818;stroke-width:0.5;" x1="250.11" x2="498.9098" y1="565.5683" y2="565.5683"/><g data-visibility-modifier="PUBLIC_FIELD"><ellipse cx="260.11" cy="579.3124" fill="none" rx="3" ry="3" style="stroke:#038048;stroke-width:1;"/></g><text fill="#000000" font-family="sans-serif" font-size="14" lengthAdjust="spacing" textLength="128.9873" x="269.11" y="583.1034">selectedCycle : int?</text><g data-visibility-modifier="PUBLIC_FIELD"><ellipse cx="260.11" cy="595.8007" fill="none" rx="3" ry="3" style="stroke:#038048;stroke-width:1;"/></g><text fill="#000000" font-family="sans-serif" font-size="14" lengthAdjust="spacing" textLength="138.3662" x="269.11" y="599.5917">selectedFile : String?</text><g data-visibility-modifier="PUBLIC_FIELD"><ellipse cx="260.11" cy="612.289" fill="none" rx="3" ry="3" style="stroke:#038048;stroke-width:1;"/></g><text fill="#000000" font-family="sans-serif" font-size="14" lengthAdjust="spacing" textLength="162.333" x="269.11" y="616.08">subMode : DiffSubMode</text><line style="stroke:#181818;stroke-width:0.5;" x1="250.11" x2="498.9098" y1="623.0331" y2="623.0331"/><g data-visibility-modifier="PUBLIC_METHOD"><ellipse cx="260.11" cy="636.7773" fill="#84BE84" rx="3" ry="3" style="stroke:#038048;stroke-width:1;"/></g><text fill="#000000" font-family="sans-serif" font-size="14" lengthAdjust="spacing" textLength="224.7998" x="269.11" y="640.5683">cyclesWithDiffFor(file) : List&lt;int&gt;</text><g data-visibility-modifier="PUBLIC_METHOD"><ellipse cx="260.11" cy="653.2655" fill="#84BE84" rx="3" ry="3" style="stroke:#038048;stroke-width:1;"/></g><text fill="#000000" font-family="sans-serif" font-size="14" lengthAdjust="spacing" textLength="197.5381" x="269.11" y="657.0566">diffFor(cycle, file) : CycleDiff?</text><g data-visibility-modifier="PUBLIC_METHOD"><ellipse cx="260.11" cy="669.7538" fill="#84BE84" rx="3" ry="3" style="stroke:#038048;stroke-width:1;"/></g><text fill="#000000" font-family="sans-serif" font-size="14" lengthAdjust="spacing" textLength="199.876" x="269.11" y="673.5448">renderedSvg(cycle, file) : Path</text></g><!--class WholeMap--><g class="entity" data-qualified-name="WholeMap" data-source-line="78" id="ent0010"><rect fill="#F1F1F1" height="163.418" rx="2.5" ry="2.5" style="stroke:#181818;stroke-width:0.5;" width="283.3525" x="969.83" y="525.3283"/><ellipse cx="1072.3998" cy="541.3283" fill="#ADD1B2" rx="11" ry="11" style="stroke:#181818;stroke-width:1;"/><path d="M1074.873,547.4713 Q1074.2919,547.7702 1073.6528,547.9196 Q1073.0136,548.069 1072.308,548.069 Q1069.8012,548.069 1068.4814,546.4171 Q1067.1615,544.7653 1067.1615,541.6442 Q1067.1615,538.5148 1068.4814,536.8629 Q1069.8012,535.2111 1072.308,535.2111 Q1073.0136,535.2111 1073.6611,535.3605 Q1074.3085,535.5099 1074.873,535.8088 L1074.873,538.5314 Q1074.2421,537.9504 1073.6486,537.6806 Q1073.0551,537.4108 1072.4242,537.4108 Q1071.0795,537.4108 1070.3947,538.4775 Q1069.7099,539.5441 1069.7099,541.6442 Q1069.7099,543.736 1070.3947,544.8026 Q1071.0795,545.8693 1072.4242,545.8693 Q1073.0551,545.8693 1073.6486,545.5995 Q1074.2421,545.3297 1074.873,544.7487 Z " fill="#000000"/><text fill="#000000" font-family="sans-serif" font-size="14" lengthAdjust="spacing" textLength="69.7129" x="1092.8998" y="546.6193">WholeMap</text><line style="stroke:#181818;stroke-width:0.5;" x1="970.83" x2="1252.1825" y1="557.3283" y2="557.3283"/><g data-visibility-modifier="PUBLIC_FIELD"><ellipse cx="980.83" cy="571.0724" fill="none" rx="3" ry="3" style="stroke:#038048;stroke-width:1;"/></g><text fill="#000000" font-family="sans-serif" font-size="14" lengthAdjust="spacing" textLength="80.5068" x="989.83" y="574.8634">version : int</text><g data-visibility-modifier="PUBLIC_FIELD"><ellipse cx="980.83" cy="587.5607" fill="none" rx="3" ry="3" style="stroke:#038048;stroke-width:1;"/></g><text fill="#000000" font-family="sans-serif" font-size="14" lengthAdjust="spacing" textLength="97.3369" x="989.83" y="591.3517">lastCycle : int?</text><g data-visibility-modifier="PUBLIC_FIELD"><ellipse cx="980.83" cy="604.049" fill="none" rx="3" ry="3" style="stroke:#038048;stroke-width:1;"/></g><text fill="#000000" font-family="sans-serif" font-size="14" lengthAdjust="spacing" textLength="172.2656" x="989.83" y="607.84">generatedAt : Timestamp</text><g data-visibility-modifier="PUBLIC_FIELD"><ellipse cx="980.83" cy="620.5373" fill="none" rx="3" ry="3" style="stroke:#038048;stroke-width:1;"/></g><text fill="#000000" font-family="sans-serif" font-size="14" lengthAdjust="spacing" textLength="117.0039" x="989.83" y="624.3283">files : List&lt;Path&gt;</text><line style="stroke:#181818;stroke-width:0.5;" x1="970.83" x2="1252.1825" y1="631.2814" y2="631.2814"/><g data-visibility-modifier="PUBLIC_METHOD"><ellipse cx="980.83" cy="645.0255" fill="#84BE84" rx="3" ry="3" style="stroke:#038048;stroke-width:1;"/></g><text fill="#000000" font-family="sans-serif" font-size="14" lengthAdjust="spacing" textLength="257.3525" x="989.83" y="648.8166">accumulate(diff : CycleDiff, cycle : int)</text><g data-visibility-modifier="PUBLIC_METHOD"><ellipse cx="980.83" cy="661.5138" fill="#84BE84" rx="3" ry="3" style="stroke:#038048;stroke-width:1;"/></g><text fill="#000000" font-family="sans-serif" font-size="14" lengthAdjust="spacing" textLength="201.9404" x="989.83" y="665.3048">provenanceOf(elementId) : int</text><g data-visibility-modifier="PUBLIC_METHOD"><ellipse cx="980.83" cy="678.0021" fill="#84BE84" rx="3" ry="3" style="stroke:#038048;stroke-width:1;"/></g><text fill="#000000" font-family="sans-serif" font-size="14" lengthAdjust="spacing" textLength="194.1406" x="989.83" y="681.7931">snapshotInto(cycleDir : Path)</text></g><!--class WholeMapElement--><g class="entity" data-qualified-name="WholeMapElement" data-source-line="88" id="ent0011"><rect fill="#F1F1F1" height="97.4648" rx="2.5" ry="2.5" style="stroke:#181818;stroke-width:0.5;" width="228.877" x="1015.07" y="829.1883"/><ellipse cx="1063.2873" cy="845.1883" fill="#ADD1B2" rx="11" ry="11" style="stroke:#181818;stroke-width:1;"/><path d="M1065.7604,851.3313 Q1065.1794,851.6302 1064.5402,851.7796 Q1063.9011,851.929 1063.1955,851.929 Q1060.6887,851.929 1059.3688,850.2771 Q1058.049,848.6253 1058.049,845.5042 Q1058.049,842.3748 1059.3688,840.7229 Q1060.6887,839.0711 1063.1955,839.0711 Q1063.9011,839.0711 1064.5485,839.2205 Q1065.196,839.3699 1065.7604,839.6688 L1065.7604,842.3914 Q1065.1296,841.8104 1064.5361,841.5406 Q1063.9426,841.2708 1063.3117,841.2708 Q1061.967,841.2708 1061.2822,842.3375 Q1060.5973,843.4041 1060.5973,845.5042 Q1060.5973,847.596 1061.2822,848.6626 Q1061.967,849.7293 1063.3117,849.7293 Q1063.9426,849.7293 1064.5361,849.4595 Q1065.1296,849.1897 1065.7604,848.6087 Z " fill="#000000"/><text fill="#000000" font-family="sans-serif" font-size="14" lengthAdjust="spacing" textLength="123.9424" x="1083.7873" y="850.4793">WholeMapElement</text><line style="stroke:#181818;stroke-width:0.5;" x1="1016.07" x2="1242.947" y1="861.1883" y2="861.1883"/><g data-visibility-modifier="PUBLIC_FIELD"><ellipse cx="1026.07" cy="874.9324" fill="none" rx="3" ry="3" style="stroke:#038048;stroke-width:1;"/></g><text fill="#000000" font-family="sans-serif" font-size="14" lengthAdjust="spacing" textLength="120.5449" x="1035.07" y="878.7234">elementId : String</text><g data-visibility-modifier="PUBLIC_FIELD"><ellipse cx="1026.07" cy="891.4207" fill="none" rx="3" ry="3" style="stroke:#038048;stroke-width:1;"/></g><text fill="#000000" font-family="sans-serif" font-size="14" lengthAdjust="spacing" textLength="64.7637" x="1035.07" y="895.2117">cycle : int</text><g data-visibility-modifier="PUBLIC_FIELD"><ellipse cx="1026.07" cy="907.909" fill="none" rx="3" ry="3" style="stroke:#038048;stroke-width:1;"/></g><text fill="#000000" font-family="sans-serif" font-size="14" lengthAdjust="spacing" textLength="202.877" x="1035.07" y="911.7">survivesToLastCycle : Boolean</text><line style="stroke:#181818;stroke-width:0.5;" x1="1016.07" x2="1242.947" y1="918.6531" y2="918.6531"/></g><g class="entity" data-qualified-name="GMN22" data-source-line="106" id="ent0023"><path d="M420.72,306.2683 L420.72,377.5105 A0,0 0 0 0 420.72,377.5105 L710.2893,377.5105 A0,0 0 0 0 710.2893,377.5105 L710.2893,316.2683 L700.2893,306.2683 L575.38,306.2683 L598.81,142.3783 L567.38,306.2683 L420.72,306.2683 A0,0 0 0 0 420.72,306.2683" fill="#FEFFDD" style="stroke:#181818;stroke-width:0.5;"/><path d="M700.2893,306.2683 L700.2893,316.2683 L710.2893,316.2683 L700.2893,306.2683" fill="#FEFFDD" style="stroke:#181818;stroke-width:0.5;"/><text fill="#000000" font-family="sans-serif" font-size="13" lengthAdjust="spacing" textLength="268.5693" x="426.72" y="323.8366">targetId must resolve to an existing model</text><text fill="#000000" font-family="sans-serif" font-size="13" lengthAdjust="spacing" textLength="268.0234" x="426.72" y="339.1472">@id on the same side. One description per</text><text fill="#000000" font-family="sans-serif" font-size="13" lengthAdjust="spacing" textLength="223.8882" x="426.72" y="354.4577">significant element. Constrained by</text><text fill="#000000" font-family="sans-serif" font-size="13" lengthAdjust="spacing" textLength="213.6304" x="426.72" y="369.7683">OCL-ELEMENT-DESC-NONEMPTY.</text></g><g class="entity" data-qualified-name="GMN25" data-source-line="113" id="ent0026"><path d="M681.95,1051.0883 L681.95,1214.1938 A0,0 0 0 0 681.95,1214.1938 L1019.0696,1214.1938 A0,0 0 0 0 1019.0696,1214.1938 L1019.0696,1061.0883 L1009.0696,1051.0883 L854.51,1051.0883 L850.51,951.6783 L846.51,1051.0883 L681.95,1051.0883 A0,0 0 0 0 681.95,1051.0883" fill="#FEFFDD" style="stroke:#181818;stroke-width:0.5;"/><path d="M1009.0696,1051.0883 L1009.0696,1061.0883 L1019.0696,1061.0883 L1009.0696,1051.0883" fill="#FEFFDD" style="stroke:#181818;stroke-width:0.5;"/><text fill="#000000" font-family="sans-serif" font-size="13" lengthAdjust="spacing" textLength="283.3784" x="687.95" y="1068.6566">unchanged, added and removed are pairwise</text><text fill="#000000" font-family="sans-serif" font-size="13" lengthAdjust="spacing" textLength="302.4341" x="687.95" y="1083.9672">disjoint (OCL-CYCLE-DIFF-PARTITION). Element</text><text fill="#000000" font-family="sans-serif" font-size="13" lengthAdjust="spacing" textLength="263.6055" x="687.95" y="1099.2777">identity is the @id, or the stable PlantUML</text><text fill="#000000" font-family="sans-serif" font-size="13" lengthAdjust="spacing" textLength="254.4521" x="687.95" y="1114.5883">alias/label when an element has no @id.</text><text fill="#000000" font-family="sans-serif" font-size="13" lengthAdjust="spacing" textLength="275.8057" x="687.95" y="1129.8988">diffSvg mirrors annotatedPuml's path under</text><text fill="#000000" font-family="sans-serif" font-size="13" lengthAdjust="spacing" textLength="316.1196" x="687.95" y="1145.2094">.mdd/rendered/ (OCL-DIFF-SVG-PATH-DERIVED).</text><text fill="#000000" font-family="sans-serif" font-size="13" lengthAdjust="spacing" textLength="259.1621" x="687.95" y="1160.5199">Removed elements are re-injected with a</text><text fill="#000000" font-family="sans-serif" font-size="13" lengthAdjust="spacing" textLength="307.3979" x="687.95" y="1175.8305">diagram-type-appropriate ghost keyword so the</text><text fill="#000000" font-family="sans-serif" font-size="13" lengthAdjust="spacing" textLength="278.7319" x="687.95" y="1191.141">superposed .diff renders for sequence/state</text><text fill="#000000" font-family="sans-serif" font-size="13" lengthAdjust="spacing" textLength="268.271" x="687.95" y="1206.4516">diagrams too, not only card-bearing ones.</text></g><g class="entity" data-qualified-name="GMN28" data-source-line="126" id="ent0029"><path d="M1288.2,563.7583 L1288.2,650.311 L1618.8133,650.311 L1618.8133,573.7583 L1608.8133,563.7583 L1288.2,563.7583" fill="#FEFFDD" style="stroke:#181818;stroke-width:0.5;"/><path d="M1608.8133,563.7583 L1608.8133,573.7583 L1618.8133,573.7583 L1608.8133,563.7583" fill="#FEFFDD" style="stroke:#181818;stroke-width:1;"/><text fill="#000000" font-family="sans-serif" font-size="13" lengthAdjust="spacing" textLength="283.2451" x="1294.2" y="581.3266">A Closed cycle must have a non-null afterDir</text><text fill="#000000" font-family="sans-serif" font-size="13" lengthAdjust="spacing" textLength="161.3892" x="1294.2" y="596.6372">and at least one CycleDiff</text><text fill="#000000" font-family="sans-serif" font-size="13" lengthAdjust="spacing" textLength="309.6133" x="1294.2" y="611.9477">(OCL-CYCLE-CLOSED-HAS-SNAPSHOTS). entry is</text><text fill="#000000" font-family="sans-serif" font-size="13" lengthAdjust="spacing" textLength="217.8516" x="1294.2" y="627.2583">Generate iff the run started from a</text><text fill="#000000" font-family="sans-serif" font-size="13" lengthAdjust="spacing" textLength="255.0552" x="1294.2" y="642.5688">description (OCL-CYCLE-ENTRY-VALID).</text></g><g class="entity" data-qualified-name="GMN31" data-source-line="134" id="ent0032"><path d="M6,765.7483 L6,990.0959 A0,0 0 0 0 6,990.0959 L329.0151,990.0959 A0,0 0 0 0 329.0151,990.0959 L329.0151,775.7483 L319.0151,765.7483 L257.35,765.7483 L318.49,680.7983 L249.35,765.7483 L6,765.7483 A0,0 0 0 0 6,765.7483" fill="#FEFFDD" style="stroke:#181818;stroke-width:0.5;"/><path d="M319.0151,765.7483 L319.0151,775.7483 L329.0151,775.7483 L319.0151,765.7483" fill="#FEFFDD" style="stroke:#181818;stroke-width:0.5;"/><text fill="#000000" font-family="sans-serif" font-size="13" lengthAdjust="spacing" textLength="220.3208" x="12" y="783.3166">Diff mode is keyed on selectedFile.</text><text fill="#000000" font-family="sans-serif" font-size="13" lengthAdjust="spacing" textLength="194.7842" x="12" y="798.6272">selectedCycle is constrained to</text><text fill="#000000" font-family="sans-serif" font-size="13" lengthAdjust="spacing" textLength="274.1235" x="12" y="813.9377">cyclesWithDiffFor(selectedFile) &#8212; the cycles</text><text fill="#000000" font-family="sans-serif" font-size="13" lengthAdjust="spacing" textLength="282.9404" x="12" y="829.2483">whose CycleDiff for the file has a non-empty</text><text fill="#000000" font-family="sans-serif" font-size="13" lengthAdjust="spacing" textLength="258.1465" x="12" y="844.5588">added/removed set (a real change with a</text><text fill="#000000" font-family="sans-serif" font-size="13" lengthAdjust="spacing" textLength="260.5205" x="12" y="859.8694">written .diff), NOT cycles where the file is</text><text fill="#000000" font-family="sans-serif" font-size="13" lengthAdjust="spacing" textLength="302.0151" x="12" y="875.1799">only present-unchanged in the snapshot &#8212; and</text><text fill="#000000" font-family="sans-serif" font-size="13" lengthAdjust="spacing" textLength="183.8916" x="12" y="890.4905">defaults to the latest of them</text><text fill="#000000" font-family="sans-serif" font-size="13" lengthAdjust="spacing" textLength="270.4355" x="12" y="905.801">(OCL-DIFF-CYCLE-SCOPED); it still renders</text><text fill="#000000" font-family="sans-serif" font-size="13" lengthAdjust="spacing" textLength="247.9775" x="12" y="921.1116">exactly the CycleDiff for that (cycle,file)</text><text fill="#000000" font-family="sans-serif" font-size="13" lengthAdjust="spacing" textLength="276.9482" x="12" y="936.4221">pair (OCL-DIFF-VIEW-BINDING). subMode is</text><text fill="#000000" font-family="sans-serif" font-size="13" lengthAdjust="spacing" textLength="246.7842" x="12" y="951.7327">exactly one of {Diagram, List}; Diagram</text><text fill="#000000" font-family="sans-serif" font-size="13" lengthAdjust="spacing" textLength="217.5024" x="12" y="967.0432">requires the rendered SVG to exist</text><text fill="#000000" font-family="sans-serif" font-size="13" lengthAdjust="spacing" textLength="246.6445" x="12" y="982.3538">(OCL-DIFF-DIAGRAM-NEEDS-RENDER).</text></g><g class="entity" data-qualified-name="GMN34" data-source-line="151" id="ent0035"><path d="M1278.73,781.0583 L1278.73,974.7848 A0,0 0 0 0 1278.73,974.7848 L1632.2837,974.7848 A0,0 0 0 0 1632.2837,974.7848 L1632.2837,791.0583 L1622.2837,781.0583 L1336.35,781.0583 L1215.19,689.0783 L1328.35,781.0583 L1278.73,781.0583 A0,0 0 0 0 1278.73,781.0583" fill="#FEFFDD" style="stroke:#181818;stroke-width:0.5;"/><path d="M1622.2837,781.0583 L1622.2837,791.0583 L1632.2837,791.0583 L1622.2837,781.0583" fill="#FEFFDD" style="stroke:#181818;stroke-width:0.5;"/><text fill="#000000" font-family="sans-serif" font-size="13" lengthAdjust="spacing" textLength="280.8267" x="1284.73" y="798.6266">Maintained only by /mdd-cycle's Close step,</text><text fill="#000000" font-family="sans-serif" font-size="13" lengthAdjust="spacing" textLength="273.5015" x="1284.73" y="813.9372">one CycleDiff application per cycle &#8212; never</text><text fill="#000000" font-family="sans-serif" font-size="13" lengthAdjust="spacing" textLength="273.4761" x="1284.73" y="829.2477">re-derived from code, no render-time fold.</text><text fill="#000000" font-family="sans-serif" font-size="13" lengthAdjust="spacing" textLength="254.3379" x="1284.73" y="844.5583">lastCycle names a Closed cycle or is null</text><text fill="#000000" font-family="sans-serif" font-size="13" lengthAdjust="spacing" textLength="327.2598" x="1284.73" y="859.8688">when none (OCL-MAP-LAST-CYCLE-CLOSED). Every</text><text fill="#000000" font-family="sans-serif" font-size="13" lengthAdjust="spacing" textLength="214.3096" x="1284.73" y="875.1794">@id in the tree carries exactly one</text><text fill="#000000" font-family="sans-serif" font-size="13" lengthAdjust="spacing" textLength="331.938" x="1284.73" y="890.4899">lastCycle (OCL-MAP-PROVENANCE-CLOSED). An @id</text><text fill="#000000" font-family="sans-serif" font-size="13" lengthAdjust="spacing" textLength="252.6621" x="1284.73" y="905.8005">added then later removed is absent, not</text><text fill="#000000" font-family="sans-serif" font-size="13" lengthAdjust="spacing" textLength="332.5537" x="1284.73" y="921.111">ghosted (OCL-MAP-NET-CANCELS). The OCL-MAP-*</text><text fill="#000000" font-family="sans-serif" font-size="13" lengthAdjust="spacing" textLength="250.9165" x="1284.73" y="936.4216">invariants describe the artifact; they are</text><text fill="#000000" font-family="sans-serif" font-size="13" lengthAdjust="spacing" textLength="254.4204" x="1284.73" y="951.7321">not parity gates &#8212; validate/review/cycle</text><text fill="#000000" font-family="sans-serif" font-size="13" lengthAdjust="spacing" textLength="148.6113" x="1284.73" y="967.0427">never read .mdd/map/.</text></g><!--reverse link CycleRegistry to Cycle--><g class="link" data-entity-1="ent0008" data-entity-2="ent0005" data-link-type="aggregation" data-source-line="94" id="lnk12"><path codeLine="94" d="M850.51,170.6683 C850.51,193.5183 850.51,208.7083 850.51,235.0183" fill="none" id="CycleRegistry-backto-Cycle" style="stroke:#181818;stroke-width:1;"/><polygon fill="none" points="850.51,158.6683,846.51,164.6683,850.51,170.6683,854.51,164.6683,850.51,158.6683" style="stroke:#181818;stroke-width:1;"/><polygon fill="#000000" points="855.51,202.1036,858.4489,193.0585,852.5711,193.0585,855.51,202.1036" style="stroke:#000000;stroke-width:1;"/><text fill="#000000" font-family="sans-serif" font-size="13" lengthAdjust="spacing" textLength="59.1284" x="864.51" y="202.0166">discovers</text><text fill="#000000" font-family="sans-serif" font-size="13" lengthAdjust="spacing" textLength="8.2202" x="842.0366" y="179.1413">1</text><text fill="#000000" font-family="sans-serif" font-size="13" lengthAdjust="spacing" textLength="6.2651" x="844.3086" y="224.5558">*</text></g><!--reverse link Cycle to CycleDiff--><g class="link" data-entity-1="ent0005" data-entity-2="ent0006" data-link-type="aggregation" data-source-line="95" id="lnk13"><path codeLine="95" d="M850.51,460.7083 C850.51,565.9183 850.51,712.4883 850.51,804.2483" fill="none" id="Cycle-backto-CycleDiff" style="stroke:#181818;stroke-width:1;"/><polygon fill="none" points="850.51,448.7083,846.51,454.7083,850.51,460.7083,854.51,454.7083,850.51,448.7083" style="stroke:#181818;stroke-width:1;"/><polygon fill="#000000" points="855.51,612.1936,858.4489,603.1485,852.5711,603.1485,855.51,612.1936" style="stroke:#000000;stroke-width:1;"/><text fill="#000000" font-family="sans-serif" font-size="13" lengthAdjust="spacing" textLength="69.7163" x="864.51" y="612.1066">closes with</text><text fill="#000000" font-family="sans-serif" font-size="13" lengthAdjust="spacing" textLength="8.2202" x="842.2489" y="468.9679">1</text><text fill="#000000" font-family="sans-serif" font-size="13" lengthAdjust="spacing" textLength="6.2651" x="844.2276" y="793.8413">*</text></g><!--link Cycle to EntryPoint--><g class="link" data-entity-1="ent0005" data-entity-2="ent0002" data-link-type="dependency" data-source-line="96" id="lnk14"><path codeLine="96" d="M744.69,436.4183 C714.5,464.2883 682.07,495.3983 653.51,525.3283 C641.24,538.1883 632.3404,548.2784 621.2604,561.5784" fill="none" id="Cycle-to-EntryPoint" style="stroke:#181818;stroke-width:1;"/><polygon fill="#181818" points="617.42,566.1883,626.2539,561.8337,620.6204,562.3467,620.1074,556.7132,617.42,566.1883" style="stroke:#181818;stroke-width:1;"/></g><!--link Cycle to CycleStatus--><g class="link" data-entity-1="ent0005" data-entity-2="ent0003" data-link-type="dependency" data-source-line="97" id="lnk15"><path codeLine="97" d="M800.21,448.7783 C782.23,486.6283 765.4242,522.0085 750.9142,552.5585" fill="none" id="Cycle-to-CycleStatus" style="stroke:#181818;stroke-width:1;"/><polygon fill="#181818" points="748.34,557.9783,755.8144,551.5648,750.4851,553.4618,748.5881,548.1325,748.34,557.9783" style="stroke:#181818;stroke-width:1;"/></g><!--link ElementDescription to Cycle--><g class="link" data-entity-1="ent0007" data-entity-2="ent0005" data-link-type="dependency" data-source-line="98" id="lnk16"><path codeLine="98" d="M646.52,142.3783 C673.42,168.5583 705.6201,199.8937 740.3101,233.6537" fill="none" id="ElementDescription-to-Cycle" style="stroke:#181818;stroke-width:1;stroke-dasharray:7,7;"/><polygon fill="#181818" points="744.61,237.8383,740.9499,228.6948,741.0268,234.3511,735.3704,234.428,744.61,237.8383" style="stroke:#181818;stroke-width:1;"/><text fill="#000000" font-family="sans-serif" font-size="13" lengthAdjust="spacing" textLength="102.521" x="707.06" y="202.0166">authored during</text><text fill="#000000" font-family="sans-serif" font-size="13" lengthAdjust="spacing" textLength="6.2651" x="646.3605" y="162.3835">*</text><text fill="#000000" font-family="sans-serif" font-size="13" lengthAdjust="spacing" textLength="8.2202" x="728.8907" y="227.5741">1</text></g><!--link DiffView to DiffSubMode--><g class="link" data-entity-1="ent0009" data-entity-2="ent0004" data-link-type="dependency" data-source-line="99" id="lnk17"><path codeLine="99" d="M387.77,680.7983 C396.92,731.0383 407.6735,790.0356 415.1635,831.1056" fill="none" id="DiffView-to-DiffSubMode" style="stroke:#181818;stroke-width:1;"/><polygon fill="#181818" points="416.24,837.0083,418.5604,827.4367,415.3429,832.0894,410.6902,828.872,416.24,837.0083" style="stroke:#181818;stroke-width:1;"/></g><!--link DiffView to CycleDiff--><g class="link" data-entity-1="ent0009" data-entity-2="ent0006" data-link-type="dependency" data-source-line="100" id="lnk18"><path codeLine="100" d="M500.19,679.0383 C572.08,719.6383 656.4862,767.3167 727.0862,807.2067" fill="none" id="DiffView-to-CycleDiff" style="stroke:#181818;stroke-width:1;stroke-dasharray:7,7;"/><polygon fill="#181818" points="732.31,810.1583,726.4419,802.2484,727.9568,807.6987,722.5066,809.2135,732.31,810.1583" style="stroke:#181818;stroke-width:1;"/><polygon fill="#000000" points="607.5934,729.8627,601.1634,722.8552,598.2725,727.9729,607.5934,729.8627" style="stroke:#000000;stroke-width:1;"/><text fill="#000000" font-family="sans-serif" font-size="13" lengthAdjust="spacing" textLength="185.999" x="612.24" y="732.3166">resolves selected file/cycle to</text></g><!--link Cycle to WholeMap--><g class="link" data-entity-1="ent0005" data-entity-2="ent0010" data-link-type="dependency" data-source-line="101" id="lnk19"><path codeLine="101" d="M955.54,448.7783 C980.75,474.1983 1003.0651,496.698 1026.9451,520.778" fill="none" id="Cycle-to-WholeMap" style="stroke:#181818;stroke-width:1;stroke-dasharray:7,7;"/><polygon fill="#181818" points="1031.17,525.0383,1027.6728,515.8312,1027.6492,521.488,1021.9924,521.4644,1031.17,525.0383" style="stroke:#181818;stroke-width:1;"/><polygon fill="#000000" points="1005.1508,490.5337,1000.8683,482.0419,996.6948,486.1809,1005.1508,490.5337" style="stroke:#000000;stroke-width:1;"/><text fill="#000000" font-family="sans-serif" font-size="13" lengthAdjust="spacing" textLength="159.7642" x="1010.63" y="491.8966">accumulates into at close</text><text fill="#000000" font-family="sans-serif" font-size="13" lengthAdjust="spacing" textLength="8.2202" x="954.3356" y="469.0426">1</text><text fill="#000000" font-family="sans-serif" font-size="13" lengthAdjust="spacing" textLength="8.2202" x="1015.6686" y="514.6495">1</text></g><!--link WholeMap to CycleDiff--><g class="link" data-entity-1="ent0010" data-entity-2="ent0006" data-link-type="dependency" data-source-line="102" id="lnk20"><path codeLine="102" d="M969.59,683.8183 C955.49,694.4883 942.12,706.1583 930.51,718.7483 C907.87,743.2883 892.5145,769.9678 879.4945,798.8678" fill="none" id="WholeMap-to-CycleDiff" style="stroke:#181818;stroke-width:1;stroke-dasharray:7,7;"/><polygon fill="#181818" points="877.03,804.3383,884.3738,797.7756,879.0838,799.7796,877.0798,794.4895,877.03,804.3383" style="stroke:#181818;stroke-width:1;"/><polygon fill="#000000" points="932.4273,731.3401,940.3179,726.0308,935.6901,722.4068,932.4273,731.3401" style="stroke:#000000;stroke-width:1;"/><text fill="#000000" font-family="sans-serif" font-size="13" lengthAdjust="spacing" textLength="166.5435" x="944.51" y="732.3166">applies added/removed of</text></g><!--reverse link WholeMap to WholeMapElement--><g class="link" data-entity-1="ent0010" data-entity-2="ent0011" data-link-type="aggregation" data-source-line="103" id="lnk21"><path codeLine="103" d="M1117.7333,701.0514 C1120.7933,746.6614 1123.7,790.0983 1126.29,828.8783" fill="none" id="WholeMap-backto-WholeMapElement" style="stroke:#181818;stroke-width:1;"/><polygon fill="none" points="1116.93,689.0783,1113.3406,695.3326,1117.7333,701.0514,1121.3227,694.7971,1116.93,689.0783" style="stroke:#181818;stroke-width:1;"/><polygon fill="#000000" points="1125.304,732.3924,1127.6322,723.1712,1121.7675,723.5638,1125.304,732.3924" style="stroke:#000000;stroke-width:1;"/><text fill="#000000" font-family="sans-serif" font-size="13" lengthAdjust="spacing" textLength="89.5527" x="1133.97" y="732.3166">provenance of</text><text fill="#000000" font-family="sans-serif" font-size="13" lengthAdjust="spacing" textLength="8.2202" x="1109.0618" y="709.3549">1</text><text fill="#000000" font-family="sans-serif" font-size="13" lengthAdjust="spacing" textLength="6.2651" x="1119.4342" y="818.5172">*</text></g><!--link Cycle to GMN28--><g class="link" data-entity-1="ent0005" data-entity-2="ent0029" data-link-type="association" data-source-line="126" id="lnk30"><path d="M956.24,385.1983 C1020.76,411.3483 1104.73,445.9783 1178.51,478.3283 C1240.94,505.6983 1310.58,538.0583 1364.16,563.3583" fill="none" id="Cycle-GMN28" style="stroke:#181818;stroke-width:1;stroke-dasharray:7,7;"/></g><?plantuml-src XLZTSXex4hxtKwXy4pZ70xMtnEk40oIX5WDbM6TpAMO4A9c_bJGurAbJjG-nJxXFib-tDCCCzjczCfPQhVxv-bFtl1CVTTARhXwZoRV9OjQ_UTTTYARpJv_QgxF5x76st4RJsMRoD5zlvwlbwqDFiy_ppVRfMtk754NFyzdNzkBNBok8FuxNMCJoQlTTnKwVL6HreaHIP5Bd8YiIbOfzOKHyZbCbd97n3vqV1cAfNaHSvB4gdRqJScTLxaIHGvCxAX5Nnj02wwfofrCnp98aqbcPgensVlKBcIn5d1PMyR5I6ktEuY3B0HlrCL4slZXt9svNUJ129U9nEXLfKPGZePqLK6hEeYnqxku4dJEwTBh8xuHrqbKmacu83kbKMPmIhgZYeqhWG9wmbfs2iseezquPONDPscFXHA8DWbCOhUpWjl_QC8umh5ih4oLQ7epCX0gEmYUdoH3eTYzAvKBwOBwhR-FB_OqXRZu7zVLsX136HvaVsD8aeJz6PSM9VfHfPKFmt54KUtO3IX9b42DRbSgKY6yY1edUxmVsTBXsuGrSmPSjL7gP-_dq0T5JFrrVPDByK6O47ufSHQb6EevL9lDsn8LqJb9O4Lu8-f03TiX4PVOonWQWHIO_hgQpXPYibjlPFxOYbYPvExmrg67M9fQv5GDWPyXHj4CeetjoKHZlSwgjeq1C6BB873OiWvZkF6drWaWR2KnIu2aglFWU_ygqE1GKpq8yajbFwW1bvdnjLbDHiEZPAvn2JqI-CjxKY2-pG47iO1FRwY58uBjiX4YGEHw5VApQULMzQK2JJwXFT9F8Ex4WLu6H5zgHZdK3LvGhiQjG9Sxshsrl2Zya6G2nK0DRy2iADUqZZEeS2Xd7LLQbabFBQ4E-zLvPDpXdwGZtw1ItdM5ZcSeps44efD-NTT9WdRD1GG9o45uKNu-XJCYme99I-sYyQC3uewURqW3ZkOH53U15Oego96GNL0eH0f97Va_aS9TIboleKAP_rvHGy2wmM4Mnx63eVlamV3aMgHeEn3Y76ROaDgIYbKWLmRp8qxFupx_-3KDaGkxcXJkIio633NSvHH57pUEcIOSrQrRj5JNPzczkL5vbOaRajIRk4h_V2F5PvSf04Nu-olBcZo35sZRCPYosAbMEFnCED7wCTuM1fuqyHNjJxGZ9B1_0X5-46nABKsb3QbZYLu5pEmHdH5N52pQj3lXtummyu1NFjAEMqRpSPe2ElETVhBNivuq2zgjaxB2rrHa09REIDpnqkXiVU2SGzYScy17xSU-lUk1zpwXJJHwiGOYyoDnwMVjmvJc3qdjVatV7_ePyQLcv-vbdzh-fix_Jm_ZjlHgrVt8o1uYGvsHTPMdROghmpUbGBpNs1WNJLgYzuKwQWtBpf6ivyq2pqlMwfhQWm1V2LU0ioBRNh-FCnnukqZsFbNwTMPyX40KIrckjDlTIe8ajmvKr1thuCU8-T3OeoutvOIl0UTG6Tyk1hwXyslbKc1wHOMCyb3yqeQNTmCYrK8E43o5l_W554gubkndvIgo18Wq-dOXCkG3gie2KU-NX8HJuM-3Vjx5DbmMir3IiUlnajKo-2xp65_HP-iASgtqlj2BpfD-kwq2DSx2nT_6I_Fvh_mBoWfkDnYxUMcQ4R9aJMCvkYqKh2hyLK2bpkgEBnDk_t8eYYiJjBxUY5awqZGkAgdZmqg-bfZuSJ1hMln-rR1Gzj6dgijYceZUAYdGF1WzyLss9hDoneFuYgTZX1isahut6PeCqj2qqoXOfmd5v_IdNmz1Q5nqFwziRV8rQ2B2Xvt6XTtwuQSIkxvHbcQ9jzIGrhEa8tL7hJ3kYr_aUjQ3aZzs0ivJOuL4jCbfv7Jxalk6Zh4A74XmNlazJFv5kUWwvCuGmEW0yhxxpaPdYgM4WgDLllobulo5hzG7DXmOnkHg50p4fSW08JwkYbvbUnicYqzP6ozLozhZUVXlWPKpewLQl_6YYXlFN_JPtPdNmfA7NNfiNRObwWD3l_7BtwDRBF12jnq_REKzfWpf848Tlc8VGAMZVpN5Z77fJaC0E-L-dyExlZmj8orHBEqpb3Ytqov66XxoPB8xImXDIC60p_9EHQMCAb4ldRK7_nUC1TpuGvjwdvhYXjvnjtZn_XjtRBuZQq_nvDksJwgVWUBZOSWICYdJ-tSEOQqwo4Vn-HkvSgWZGGwzcD8mGXsC17FnGvnSquzIxmLtAvjLuqlIvrArRzSzA0NP3RgWlsgd7A-ueYRufexaXsYb9LKbZYVr_IQPMANHDWR8OfKS9Y4gSowEyIjEcRQ0qq8Jc16YBHejSTS3IoljaiThCfj6NyIRQBCVhpPVLTeFi-uv9srPh9yXRxlohdF9kc0uChEGujd3VKWyuFtsBdiUBEINcJvsi2OXRFbp3emJWXl0hhhJs0qi9xhx4cjhnIq6v0XAlNzUsZZutnZpuinmEe9kshJ0runTFFuHS7sYLbOuAjajFLj5qG9rsAdmXNY3sWZRReH0OBsZnbwjjk9KAnAZBBHnlHaW90gAn-jB9XQQzcV39VYIPGx-NLUe72HBn_Go55VzbTRgvM7nIDfFL6eNodaOQy1g04q0CMVLJnWu6aABhM01FeRNWpWBIH2ejzJHVHh_DbzFvyZD0LBS-kgsOi0ZJVW-jlPy8_tZVQlKDgaZ3Vm-s-hi0wfmSP2hk-3ITZpy_ZH-ZvMmstM3mNe88_XVMwlU2HnMmeCSCHnqp4d_ZQIP0VgimQPPtd9XsIFYPYcLDzA4iAIkvEZ5bWMzWkZxLPH8Z5aG2mQV8eOb2P5CcmqlJbUD18R1roXtn1yYfo1cfG5DEvd0KC1X7Y_5cswbeOd2OSGwFLK2FCqeH-z1teNP68FKkZB3-uycopmoof5klJBd_QyVSneJrq-fvjXml9oqJC9dYzhfQo8ISuMcQfudqywSufaT8CkzYez6xdC4pKhiWOgBvlzxvXHwd_0GQbSJnde9slfxe6zOU_hsd_yx4_n0c0cvDlPRJTSABbU0_r39zLF7D3GbJ6ltit7nQkC3glm00?></g></svg>