<svg xmlns="http://www.w3.org/2000/svg" xmlns:xlink="http://www.w3.org/1999/xlink" contentStyleType="text/css" data-diagram-type="CLASS" height="462px" preserveAspectRatio="none" style="width:365px;height:462px;background:#FFFFFF;" version="1.1" viewBox="0 0 365 462" width="365px" zoomAndPan="magnify"><?plantuml 1.2026.3?><defs/><g><g class="title" data-source-line="5"><text fill="#000000" font-family="sans-serif" font-size="14" font-weight="700" lengthAdjust="spacing" textLength="337.1006" x="10.6563" y="23.5352">Font database for SVG rasterization (objective)</text></g><!--class SvgRasterizer--><g class="entity" data-qualified-name="SvgRasterizer" data-source-line="7" id="ent0002"><rect fill="#F1F1F1" height="80.9766" rx="2.5" ry="2.5" style="stroke:#181818;stroke-width:0.5;" width="212.2451" x="72.08" y="44.4883"/><ellipse cx="128.1518" cy="60.4883" fill="#ADD1B2" rx="11" ry="11" style="stroke:#181818;stroke-width:1;"/><path d="M130.6249,66.6313 Q130.0439,66.9302 129.4047,67.0796 Q128.7655,67.229 128.06,67.229 Q125.5531,67.229 124.2333,65.5771 Q122.9135,63.9253 122.9135,60.8042 Q122.9135,57.6748 124.2333,56.0229 Q125.5531,54.3711 128.06,54.3711 Q128.7655,54.3711 129.413,54.5205 Q130.0605,54.6699 130.6249,54.9688 L130.6249,57.6914 Q129.9941,57.1104 129.4006,56.8406 Q128.8071,56.5708 128.1762,56.5708 Q126.8315,56.5708 126.1467,57.6375 Q125.4618,58.7041 125.4618,60.8042 Q125.4618,62.896 126.1467,63.9626 Q126.8315,65.0293 128.1762,65.0293 Q128.8071,65.0293 129.4006,64.7595 Q129.9941,64.4897 130.6249,63.9087 Z " fill="#000000"/><text fill="#000000" font-family="sans-serif" font-size="14" lengthAdjust="spacing" textLength="91.6016" x="148.6518" y="65.7793">SvgRasterizer</text><line style="stroke:#181818;stroke-width:0.5;" x1="73.08" x2="283.3251" y1="76.4883" y2="76.4883"/><line style="stroke:#181818;stroke-width:0.5;" x1="73.08" x2="283.3251" y1="84.4883" y2="84.4883"/><g data-visibility-modifier="PUBLIC_METHOD"><ellipse cx="83.08" cy="98.2324" fill="#84BE84" rx="3" ry="3" style="stroke:#038048;stroke-width:1;"/></g><text fill="#000000" font-family="sans-serif" font-size="14" lengthAdjust="spacing" textLength="126.082" x="92.08" y="102.0234">parse(bytes) : Tree</text><g data-visibility-modifier="PUBLIC_METHOD"><ellipse cx="83.08" cy="114.7207" fill="#84BE84" rx="3" ry="3" style="stroke:#038048;stroke-width:1;"/></g><text fill="#000000" font-family="sans-serif" font-size="14" lengthAdjust="spacing" textLength="186.2451" x="92.08" y="118.5117">render(tree, scale) : Pixmap</text></g><!--class FontDatabase--><g class="entity" data-qualified-name="FontDatabase" data-source-line="12" id="ent0003"><rect fill="#F1F1F1" height="97.4648" rx="2.5" ry="2.5" style="stroke:#181818;stroke-width:0.5;" width="191.5527" x="82.43" y="202.4583"/><ellipse cx="127.6087" cy="218.4583" fill="#ADD1B2" rx="11" ry="11" style="stroke:#181818;stroke-width:1;"/><path d="M130.0819,224.6013 Q129.5008,224.9002 128.8616,225.0496 Q128.2225,225.199 127.5169,225.199 Q125.0101,225.199 123.6903,223.5471 Q122.3704,221.8953 122.3704,218.7742 Q122.3704,215.6448 123.6903,213.9929 Q125.0101,212.3411 127.5169,212.3411 Q128.2225,212.3411 128.8699,212.4905 Q129.5174,212.6399 130.0819,212.9388 L130.0819,215.6614 Q129.451,215.0804 128.8575,214.8106 Q128.264,214.5408 127.6331,214.5408 Q126.2884,214.5408 125.6036,215.6075 Q124.9188,216.6741 124.9188,218.7742 Q124.9188,220.866 125.6036,221.9326 Q126.2884,222.9993 127.6331,222.9993 Q128.264,222.9993 128.8575,222.7295 Q129.451,222.4597 130.0819,221.8787 Z " fill="#000000"/><text fill="#000000" font-family="sans-serif" font-size="14" lengthAdjust="spacing" textLength="92.6953" x="148.1087" y="223.7493">FontDatabase</text><line style="stroke:#181818;stroke-width:0.5;" x1="83.43" x2="272.9827" y1="234.4583" y2="234.4583"/><g data-visibility-modifier="PUBLIC_FIELD"><ellipse cx="93.43" cy="248.2024" fill="none" rx="3" ry="3" style="stroke:#038048;stroke-width:1;"/></g><text fill="#000000" font-family="sans-serif" font-size="14" lengthAdjust="spacing" textLength="99.832" x="102.43" y="251.9934">fontCount : int</text><g data-visibility-modifier="PUBLIC_FIELD"><ellipse cx="93.43" cy="264.6907" fill="none" rx="3" ry="3" style="stroke:#038048;stroke-width:1;"/></g><text fill="#000000" font-family="sans-serif" font-size="14" lengthAdjust="spacing" textLength="144.4365" x="102.43" y="268.4817">defaultFamily : String</text><line style="stroke:#181818;stroke-width:0.5;" x1="83.43" x2="272.9827" y1="275.4348" y2="275.4348"/><g data-visibility-modifier="PUBLIC_METHOD"><ellipse cx="93.43" cy="289.179" fill="#84BE84" rx="3" ry="3" style="stroke:#038048;stroke-width:1;"/></g><text fill="#000000" font-family="sans-serif" font-size="14" lengthAdjust="spacing" textLength="165.5527" x="102.43" y="292.97">loadSystemFonts() : void</text></g><g class="entity" data-qualified-name="GMN5" data-source-line="21" id="ent0006"><path d="M6,360.9283 L6,447.481 A0,0 0 0 0 6,447.481 L350.4131,447.481 A0,0 0 0 0 350.4131,447.481 L350.4131,370.9283 L340.4131,360.9283 L182.21,360.9283 L178.21,300.3883 L174.21,360.9283 L6,360.9283 A0,0 0 0 0 6,360.9283" fill="#FEFFDD" style="stroke:#181818;stroke-width:0.5;"/><path d="M340.4131,360.9283 L340.4131,370.9283 L350.4131,370.9283 L340.4131,360.9283" fill="#FEFFDD" style="stroke:#181818;stroke-width:0.5;"/><text fill="#000000" font-family="sans-serif" font-size="13" lengthAdjust="spacing" textLength="277.9131" x="12" y="378.4966">Populated once with the host's system fonts</text><text fill="#000000" font-family="sans-serif" font-size="13" lengthAdjust="spacing" textLength="284.9526" x="12" y="393.8072">before the first parse/render. Constrained by</text><text fill="#000000" font-family="sans-serif" font-size="13" lengthAdjust="spacing" textLength="323.4131" x="12" y="409.1177">OCL-FONTDB-POPULATED. When the code is fixed,</text><text fill="#000000" font-family="sans-serif" font-size="13" lengthAdjust="spacing" textLength="305.9697" x="12" y="424.4283">/mdd-map derives this class on the current side</text><text fill="#000000" font-family="sans-serif" font-size="13" lengthAdjust="spacing" textLength="128.356" x="12" y="439.7388">and ID parity closes.</text></g><!--reverse link SvgRasterizer to FontDatabase--><g class="link" data-entity-1="ent0002" data-entity-2="ent0003" data-link-type="aggregation" data-source-line="18" id="lnk4"><path codeLine="18" d="M178.21,137.7283 C178.21,160.6983 178.21,177.7583 178.21,202.0283" fill="none" id="SvgRasterizer-backto-FontDatabase" style="stroke:#181818;stroke-width:1;"/><polygon fill="none" points="178.21,125.7283,174.21,131.7283,178.21,137.7283,182.21,131.7283,178.21,125.7283" style="stroke:#181818;stroke-width:1;"/><polygon fill="#000000" points="183.21,169.1136,186.1489,160.0685,180.2711,160.0685,183.21,169.1136" style="stroke:#000000;stroke-width:1;"/><text fill="#000000" font-family="sans-serif" font-size="13" lengthAdjust="spacing" textLength="123.0303" x="192.21" y="169.0266">resolves &lt;text&gt; via</text><text fill="#000000" font-family="sans-serif" font-size="13" lengthAdjust="spacing" textLength="8.2202" x="169.5912" y="146.0115">1</text><text fill="#000000" font-family="sans-serif" font-size="13" lengthAdjust="spacing" textLength="8.2202" x="169.6635" y="191.6503">1</text></g><?plantuml-src RL9VYzD047_FfnZkfIbUUlXQvB3NN4KuRR5LdpVPIRkIx8ITIQvL13-4dz1FukpsAXI4GhgpC_Fxixy9l7KsBzSVYjNwuwue5xl5msBxECqciAw-OIrkn89yUm9BdN4UQl8rzZ87EI0qv0Mi4LCPnbJPVda7mR1WSDynw1QBFNhBG7u6YufH1yYdrde88HxPMOGyLKZ_3OmCnWDslIWgDcPe9VBvy-ktpZa6_SNktWId7NlJwz48t7NM5W57Xy_0GsXCdHRPyuNh-XQxY5Utf12pJ9oq2Aih2Gs5Amb6dBBDwMB5DClgrZ33Tjn_-YSJVcG0ho8Xnhmw2V8Kvh0BYAckAYs6NFHy2roR5kFrnXqxqsS_BniZaVB2uxmmshkaGGdEmNb9jHT3LgPp-YXps4fmVf-kMZ9sUr9INTp5UKGPoTc8SSttvlKDK56axnNkNCaojQCwzqRmAFSmEWFtMUP942eIeGwekHfIx0trGsi4BSHqmBEJGtgY0x5C63YHId9OkojKcyznQLnWEHjtTxPf1aloB46pfkkga_QlbqyfdUL3iLblFZyjTe_b3BuUy2L7CJMQYSOTqTvgVtflzLQz2YvAIQavk_oVxEb4JCdxyfAeIq2K3qJTVm40?></g></svg>