<svg xmlns="http://www.w3.org/2000/svg" xmlns:xlink="http://www.w3.org/1999/xlink" contentStyleType="text/css" data-diagram-type="CLASS" height="499px" preserveAspectRatio="none" style="width:928px;height:499px;background:#FFFFFF;" version="1.1" viewBox="0 0 928 499" width="928px" zoomAndPan="magnify"><?plantuml 1.2026.3?><defs/><g><g class="title" data-source-line="8"><text fill="#000000" font-family="sans-serif" font-size="14" font-weight="700" lengthAdjust="spacing" textLength="377.8975" x="271.6647" y="23.5352">MDD init &#8212; file classes + state migration (objective)</text></g><!--class InitFileClass--><g class="entity" data-qualified-name="InitFileClass" data-source-line="10" id="ent0002"><rect fill="#F1F1F1" height="80.9766" rx="2.5" ry="2.5" style="stroke:#181818;stroke-width:0.5;" width="138.4717" x="110.13" y="253.5383"/><ellipse cx="136.5281" cy="269.5383" fill="#EB937F" rx="11" ry="11" style="stroke:#181818;stroke-width:1;"/><path d="M140.1424,276.0383 L132.4226,276.0383 L132.4226,263.6452 L140.1424,263.6452 L140.1424,265.8034 L134.8714,265.8034 L134.8714,268.4763 L139.6443,268.4763 L139.6443,270.6345 L134.8714,270.6345 L134.8714,273.8801 L140.1424,273.8801 Z " fill="#000000"/><text fill="#000000" font-family="sans-serif" font-size="14" lengthAdjust="spacing" textLength="81.1426" x="153.061" y="274.8293">InitFileClass</text><line style="stroke:#181818;stroke-width:0.5;" x1="111.13" x2="247.6017" y1="285.5383" y2="285.5383"/><text fill="#000000" font-family="sans-serif" font-size="14" lengthAdjust="spacing" textLength="83.7881" x="116.13" y="303.0734">Regenerable</text><text fill="#000000" font-family="sans-serif" font-size="14" lengthAdjust="spacing" textLength="126.4717" x="116.13" y="319.5617">AccumulatingState</text><line style="stroke:#181818;stroke-width:0.5;" x1="111.13" x2="247.6017" y1="326.5148" y2="326.5148"/></g><!--class StateMigration--><g class="entity" data-qualified-name="StateMigration" data-source-line="15" id="ent0003"><rect fill="#F1F1F1" height="113.9531" rx="2.5" ry="2.5" style="stroke:#181818;stroke-width:0.5;" width="168.4336" x="333.15" y="44.4883"/><ellipse cx="365.2605" cy="60.4883" fill="#ADD1B2" rx="11" ry="11" style="stroke:#181818;stroke-width:1;"/><path d="M367.7337,66.6313 Q367.1526,66.9302 366.5135,67.0796 Q365.8743,67.229 365.1688,67.229 Q362.6619,67.229 361.3421,65.5771 Q360.0223,63.9253 360.0223,60.8042 Q360.0223,57.6748 361.3421,56.0229 Q362.6619,54.3711 365.1688,54.3711 Q365.8743,54.3711 366.5218,54.5205 Q367.1692,54.6699 367.7337,54.9688 L367.7337,57.6914 Q367.1028,57.1104 366.5093,56.8406 Q365.9158,56.5708 365.285,56.5708 Q363.9402,56.5708 363.2554,57.6375 Q362.5706,58.7041 362.5706,60.8042 Q362.5706,62.896 363.2554,63.9626 Q363.9402,65.0293 365.285,65.0293 Q365.9158,65.0293 366.5093,64.7595 Q367.1028,64.4897 367.7337,63.9087 Z " fill="#000000"/><text fill="#000000" font-family="sans-serif" font-size="14" lengthAdjust="spacing" textLength="98.4102" x="383.0629" y="65.7793">StateMigration</text><line style="stroke:#181818;stroke-width:0.5;" x1="334.15" x2="500.5836" y1="76.4883" y2="76.4883"/><g data-visibility-modifier="PUBLIC_FIELD"><ellipse cx="344.15" cy="90.2324" fill="none" rx="3" ry="3" style="stroke:#038048;stroke-width:1;"/></g><text fill="#000000" font-family="sans-serif" font-size="14" lengthAdjust="spacing" textLength="83.7266" x="353.15" y="94.0234">path : String</text><g data-visibility-modifier="PUBLIC_FIELD"><ellipse cx="344.15" cy="106.7207" fill="none" rx="3" ry="3" style="stroke:#038048;stroke-width:1;"/></g><text fill="#000000" font-family="sans-serif" font-size="14" lengthAdjust="spacing" textLength="142.4336" x="353.15" y="110.5117">schemaVersion : u32</text><g data-visibility-modifier="PUBLIC_FIELD"><ellipse cx="344.15" cy="123.209" fill="none" rx="3" ry="3" style="stroke:#038048;stroke-width:1;"/></g><text fill="#000000" font-family="sans-serif" font-size="14" lengthAdjust="spacing" textLength="137.9766" x="353.15" y="127">onDiskVersion : u32</text><line style="stroke:#181818;stroke-width:0.5;" x1="334.15" x2="500.5836" y1="133.9531" y2="133.9531"/><g data-visibility-modifier="PUBLIC_METHOD"><ellipse cx="344.15" cy="147.6973" fill="#84BE84" rx="3" ry="3" style="stroke:#038048;stroke-width:1;"/></g><text fill="#000000" font-family="sans-serif" font-size="14" lengthAdjust="spacing" textLength="136.1787" x="353.15" y="151.4883">migrate() : Outcome</text></g><!--class Outcome--><g class="entity" data-qualified-name="Outcome" data-source-line="22" id="ent0004"><rect fill="#F1F1F1" height="97.4648" rx="2.5" ry="2.5" style="stroke:#181818;stroke-width:0.5;" width="93.4414" x="370.65" y="245.2983"/><ellipse cx="385.65" cy="261.2983" fill="#EB937F" rx="11" ry="11" style="stroke:#181818;stroke-width:1;"/><path d="M389.2643,267.7983 L381.5445,267.7983 L381.5445,255.4052 L389.2643,255.4052 L389.2643,257.5634 L383.9933,257.5634 L383.9933,260.2363 L388.7662,260.2363 L388.7662,262.3945 L383.9933,262.3945 L383.9933,265.6401 L389.2643,265.6401 Z " fill="#000000"/><text fill="#000000" font-family="sans-serif" font-size="14" lengthAdjust="spacing" textLength="61.4414" x="399.65" y="266.5893">Outcome</text><line style="stroke:#181818;stroke-width:0.5;" x1="371.65" x2="463.0914" y1="277.2983" y2="277.2983"/><text fill="#000000" font-family="sans-serif" font-size="14" lengthAdjust="spacing" textLength="52.7939" x="376.65" y="294.8334">Created</text><text fill="#000000" font-family="sans-serif" font-size="14" lengthAdjust="spacing" textLength="60.1426" x="376.65" y="311.3217">Migrated</text><text fill="#000000" font-family="sans-serif" font-size="14" lengthAdjust="spacing" textLength="54.0039" x="376.65" y="327.81">Skipped</text><line style="stroke:#181818;stroke-width:0.5;" x1="371.65" x2="463.0914" y1="334.7631" y2="334.7631"/></g><g class="entity" data-qualified-name="GMN7" data-source-line="32" id="ent0008"><path d="M499.51,235.4383 L499.51,352.6121 A0,0 0 0 0 499.51,352.6121 L913.2268,352.6121 A0,0 0 0 0 913.2268,352.6121 L913.2268,245.4383 L903.2268,235.4383 L622.38,235.4383 L501.74,158.0983 L614.38,235.4383 L499.51,235.4383 A0,0 0 0 0 499.51,235.4383" fill="#FEFFDD" style="stroke:#181818;stroke-width:0.5;"/><path d="M903.2268,235.4383 L903.2268,245.4383 L913.2268,245.4383 L903.2268,235.4383" fill="#FEFFDD" style="stroke:#181818;stroke-width:0.5;"/><text fill="#000000" font-family="sans-serif" font-size="13" lengthAdjust="spacing" textLength="107.999" x="505.51" y="253.0066">migrate() trigger:</text><text fill="#000000" font-family="sans-serif" font-size="13" lengthAdjust="spacing" textLength="287.1743" x="513.7366" y="268.3172">onDiskVersion &lt; schemaVersion -&gt; Migrated</text><text fill="#000000" font-family="sans-serif" font-size="13" lengthAdjust="spacing" textLength="236.8184" x="521.9631" y="283.6277">(parse into current struct, defaults fill</text><text fill="#000000" font-family="sans-serif" font-size="13" lengthAdjust="spacing" textLength="235.8091" x="526.0764" y="298.9383">new fields, bump version, write back)</text><text fill="#000000" font-family="sans-serif" font-size="13" lengthAdjust="spacing" textLength="361.2451" x="513.7366" y="314.2488">onDiskVersion = schemaVersion -&gt; Skipped (untouched)</text><text fill="#000000" font-family="sans-serif" font-size="13" lengthAdjust="spacing" textLength="384.4902" x="513.7366" y="329.5594">onDiskVersion &gt; schemaVersion -&gt; Skipped (no downgrade)</text><text fill="#000000" font-family="sans-serif" font-size="13" lengthAdjust="spacing" textLength="305.5635" x="505.51" y="344.8699">Preserves all prior content; no per-version code.</text></g><g class="entity" data-qualified-name="GMN10" data-source-line="42" id="ent0011"><path d="M6,413.6183 L6,484.8605 A0,0 0 0 0 6,484.8605 L352.7363,484.8605 A0,0 0 0 0 352.7363,484.8605 L352.7363,423.6183 L342.7363,413.6183 L183.37,413.6183 L179.37,334.8783 L175.37,413.6183 L6,413.6183 A0,0 0 0 0 6,413.6183" fill="#FEFFDD" style="stroke:#181818;stroke-width:0.5;"/><path d="M342.7363,413.6183 L342.7363,423.6183 L352.7363,423.6183 L342.7363,413.6183" fill="#FEFFDD" style="stroke:#181818;stroke-width:0.5;"/><text fill="#000000" font-family="sans-serif" font-size="13" lengthAdjust="spacing" textLength="320.6646" x="12" y="431.1866">Regenerable: docs, skills, CLAUDE.md/AGENTS.md</text><text fill="#000000" font-family="sans-serif" font-size="13" lengthAdjust="spacing" textLength="307.7598" x="12" y="446.4972">blocks, SessionStart hook -&gt; --force overwrites.</text><text fill="#000000" font-family="sans-serif" font-size="13" lengthAdjust="spacing" textLength="287.5107" x="12" y="461.8077">AccumulatingState: config / trace / approvals</text><text fill="#000000" font-family="sans-serif" font-size="13" lengthAdjust="spacing" textLength="325.7363" x="12" y="477.1183">-&gt; never overwritten; created or forward-migrated.</text></g><!--link StateMigration to InitFileClass--><g class="link" data-entity-1="ent0003" data-entity-2="ent0002" data-link-type="dependency" data-source-line="28" id="lnk5"><path codeLine="28" d="M332.71,119.8283 C290.99,132.4083 242.98,153.5483 211.37,188.4383 C195.3,206.1683 188.3951,225.8891 184.4151,247.3291" fill="none" id="StateMigration-to-InitFileClass" style="stroke:#181818;stroke-width:1;stroke-dasharray:7,7;"/><polygon fill="#181818" points="183.32,253.2283,188.8955,245.1095,184.2326,248.3123,181.0298,243.6494,183.32,253.2283" style="stroke:#181818;stroke-width:1;"/><polygon fill="#000000" points="212.5787,200.3533,221.3533,196.6849,217.5212,192.2279,212.5787,200.3533" style="stroke:#000000;stroke-width:1;"/><text fill="#000000" font-family="sans-serif" font-size="13" lengthAdjust="spacing" textLength="183.4409" x="225.37" y="202.0066">applies to AccumulatingState</text></g><!--link StateMigration to Outcome--><g class="link" data-entity-1="ent0003" data-entity-2="ent0004" data-link-type="dependency" data-source-line="29" id="lnk6"><path codeLine="29" d="M417.37,158.8683 C417.37,186.1983 417.37,212.6783 417.37,238.8283" fill="none" id="StateMigration-to-Outcome" style="stroke:#181818;stroke-width:1;stroke-dasharray:7,7;"/><polygon fill="#181818" points="417.37,244.8283,421.37,235.8283,417.37,239.8283,413.37,235.8283,417.37,244.8283" style="stroke:#181818;stroke-width:1;"/><polygon fill="#000000" points="422.37,202.0936,425.3089,193.0485,419.4311,193.0485,422.37,202.0936" style="stroke:#000000;stroke-width:1;"/><text fill="#000000" font-family="sans-serif" font-size="13" lengthAdjust="spacing" textLength="36.3594" x="431.37" y="202.0066">yields</text></g><?plantuml-src VLRRRkCs47ttLmos3x6xbhBRlXHE4soGP1T6SodMRb-A8g75iSLQ4WMIikCM1VeH_S9-IGz9oOvZ8tc8APB3EJDpvf0dz4d9_lN3NJA-7q-Jp-FRc-Jgzd8o6VHEw9DacnrR7DAxQSxarfgoGbZBblISvgfWUYgb95KfzqIbgCI2xP3MkSfoafmfoQHNRDP6EQPQ5ohRfFIL5ron4JEOdsERKIkML3U6YmtDZIx9UMTQ5oUM79Tr8HmyYagI5NE_GeR3aQEmCmM4KwapU_ejXiCmjzPcEI_qcYO_ZMzlCHtGshY8c7wvli7awUMNc_lfn2z7y99cXSwMsEUz-RqJjbRfQkA4SPHhlKpfCikQiW4eLIqmxtmK0N5kcACVZ8MZJ1YpeSQoIS9vsIOhE16DoxM1gqnNZYiNztOXmwYYYf4q11dpvEF4thbQf9koG0X6P1o7egwDNed2-i-KacIkJSO8PlCYxo_p7T2T7Gb1MU9dvDe5fBf2AGA8p32MCMC8Pw-5aKcf5YRCzItYzNIPJ2-dDydT-ClNo-duuNwGqZJ7WSg6i80zuzereg12LKmppXLyhFCD1O2FZf_Teve_bWgvhXRz710ADWDQ-20ga0rMbYEqQB8HPV4OiJrgyzX2sXfujnh_JFek4Blb_6kSUvn_jGZEVsu3zjaOTkLAQiEew0f0gQdXrdDy7Y0UPjMdEoMRvLoANzbu9dLPMRMVVcoQglBd1GA402trdPOeuqUVTX954Uc5weibLx5DMA3Dh3DDvj0frpmNJU46Py1ohUpobR-drk7e2SGISjTe_AoiHzo2RLFP7-3R-4RtL5ZdyBb_x8_xOSLM3980XzAdI8b2_SbU7T2nWGYDCPxm4JBrvueBYSQM4hjG-OntXwo53PbmFbY5y0FURtx3kPBxietrzy5m6zYJT-nP0czxq68pA-VN3ISlaFttpxzaTI3wXcgZa6amT7dQjTLfR3l2i0436rHzrIfHI4l5wsAJHFnTCArkTEMjcdBcsmYSNY2x-payVqMDWiMAxIu93JBNO0TQ3L9QrjeJyA305uS4Ym8YzReA19KftMkgeKCTh5XbFygqXBu8WiggYenkAfaueshFDzqiye06WUAyjcujeLhonmvxcFt1cKDs4kj5N-hId-Qf6qIFFdpu-CEE8acuHTeBWMnTgD3RE2TqmnR3SAiv8TqszDGEUX1EaDaNqyBufAbb42RlDq9kumMN55ItSH0VJ_LE797FaxJdb0F4k-lhS945LeJqTtVT-mFFVTt5E-Zr63McCIm_m-WgHFPNZrxABhuEjA7tTwyNqn0-xxPdUzltL0kNqmXh1WPXPh_88sg-_oxCxvDXDxzhv14zD2xJPV0PqBRVmTTLL7YCxbfXnt2oL7MD4GnUmKlJYrV1ZlmrL2XFN7r40o-EdT016D4czir5hrU1tZJJpg7HeQZxLi2q2mX9MIpOZ319RyiI9HSlm_9__LeOor6LzXLfIAsks20vxNxFfBQxXpHhoheZrJ1ADSr4jXmSWN9-2ALDA_MtdNtCyE8DmqhlsjhR_Xnl8wzA4CceOUrDTKRLVjFxLaz104a-rGS9twlgFe57vDzNGx9Bv0M_HrvGCEZUJWTl9Xz1zpRPlajiUgmjkgSEdSPt3dwtZnpinq5HsrvqyDbRZvHTlFy3?></g></svg>