<svg xmlns="http://www.w3.org/2000/svg" xmlns:xlink="http://www.w3.org/1999/xlink" contentStyleType="text/css" data-diagram-type="CLASS" height="413px" preserveAspectRatio="none" style="width:978px;height:413px;background:#FFFFFF;" version="1.1" viewBox="0 0 978 413" width="978px" zoomAndPan="magnify"><?plantuml 1.2026.3?><defs/><g><g class="title" data-source-line="6"><text fill="#000000" font-family="sans-serif" font-size="14" font-weight="700" lengthAdjust="spacing" textLength="268.3242" x="351.5362" y="23.5352">Greenfield kickoff domain (objective)</text></g><!--class Brief--><g class="entity" data-qualified-name="Brief" data-source-line="8" id="ent0002"><rect fill="#F1F1F1" height="163.418" rx="2.5" ry="2.5" style="stroke:#181818;stroke-width:0.5;" width="207.624" x="127.03" y="44.4883"/><ellipse cx="211.2043" cy="60.4883" fill="#ADD1B2" rx="11" ry="11" style="stroke:#181818;stroke-width:1;"/><path d="M213.6775,66.6313 Q213.0964,66.9302 212.4572,67.0796 Q211.8181,67.229 211.1125,67.229 Q208.6057,67.229 207.2859,65.5771 Q205.966,63.9253 205.966,60.8042 Q205.966,57.6748 207.2859,56.0229 Q208.6057,54.3711 211.1125,54.3711 Q211.8181,54.3711 212.4655,54.5205 Q213.113,54.6699 213.6775,54.9688 L213.6775,57.6914 Q213.0466,57.1104 212.4531,56.8406 Q211.8596,56.5708 211.2287,56.5708 Q209.884,56.5708 209.1992,57.6375 Q208.5144,58.7041 208.5144,60.8042 Q208.5144,62.896 209.1992,63.9626 Q209.884,65.0293 211.2287,65.0293 Q211.8596,65.0293 212.4531,64.7595 Q213.0466,64.4897 213.6775,63.9087 Z " fill="#000000"/><text fill="#000000" font-family="sans-serif" font-size="14" lengthAdjust="spacing" textLength="30.7754" x="231.7043" y="65.7793">Brief</text><line style="stroke:#181818;stroke-width:0.5;" x1="128.03" x2="333.654" y1="76.4883" y2="76.4883"/><g data-visibility-modifier="PUBLIC_FIELD"><ellipse cx="138.03" cy="90.2324" fill="none" rx="3" ry="3" style="stroke:#038048;stroke-width:1;"/></g><text fill="#000000" font-family="sans-serif" font-size="14" lengthAdjust="spacing" textLength="114.2285" x="147.03" y="94.0234">objective : String</text><g data-visibility-modifier="PUBLIC_FIELD"><ellipse cx="138.03" cy="106.7207" fill="none" rx="3" ry="3" style="stroke:#038048;stroke-width:1;"/></g><text fill="#000000" font-family="sans-serif" font-size="14" lengthAdjust="spacing" textLength="152.0586" x="147.03" y="110.5117">inScope : List&lt;String&gt;</text><g data-visibility-modifier="PUBLIC_FIELD"><ellipse cx="138.03" cy="123.209" fill="none" rx="3" ry="3" style="stroke:#038048;stroke-width:1;"/></g><text fill="#000000" font-family="sans-serif" font-size="14" lengthAdjust="spacing" textLength="177.8711" x="147.03" y="127">outOfScope : List&lt;String&gt;</text><g data-visibility-modifier="PUBLIC_FIELD"><ellipse cx="138.03" cy="139.6973" fill="none" rx="3" ry="3" style="stroke:#038048;stroke-width:1;"/></g><text fill="#000000" font-family="sans-serif" font-size="14" lengthAdjust="spacing" textLength="181.624" x="147.03" y="143.4883">decisions : List&lt;AdrEntry&gt;</text><g data-visibility-modifier="PUBLIC_FIELD"><ellipse cx="138.03" cy="156.1855" fill="none" rx="3" ry="3" style="stroke:#038048;stroke-width:1;"/></g><text fill="#000000" font-family="sans-serif" font-size="14" lengthAdjust="spacing" textLength="147.3486" x="147.03" y="159.9766">tooling : List&lt;String&gt;</text><g data-visibility-modifier="PUBLIC_FIELD"><ellipse cx="138.03" cy="172.6738" fill="none" rx="3" ry="3" style="stroke:#038048;stroke-width:1;"/></g><text fill="#000000" font-family="sans-serif" font-size="14" lengthAdjust="spacing" textLength="126.1025" x="147.03" y="176.4648">nfrs : List&lt;String&gt;</text><g data-visibility-modifier="PUBLIC_FIELD"><ellipse cx="138.03" cy="189.1621" fill="none" rx="3" ry="3" style="stroke:#038048;stroke-width:1;"/></g><text fill="#000000" font-family="sans-serif" font-size="14" lengthAdjust="spacing" textLength="133.1914" x="147.03" y="192.9531">signedOff : Boolean</text><line style="stroke:#181818;stroke-width:0.5;" x1="128.03" x2="333.654" y1="199.9063" y2="199.9063"/></g><!--class AdrEntry--><g class="entity" data-qualified-name="AdrEntry" data-source-line="18" id="ent0003"><rect fill="#F1F1F1" height="113.9531" rx="2.5" ry="2.5" style="stroke:#181818;stroke-width:0.5;" width="157.6875" x="7" y="284.9083"/><ellipse cx="52.2163" cy="300.9083" fill="#ADD1B2" rx="11" ry="11" style="stroke:#181818;stroke-width:1;"/><path d="M54.6895,307.0513 Q54.1084,307.3502 53.4692,307.4996 Q52.8301,307.649 52.1245,307.649 Q49.6177,307.649 48.2979,305.9971 Q46.978,304.3453 46.978,301.2242 Q46.978,298.0948 48.2979,296.4429 Q49.6177,294.7911 52.1245,294.7911 Q52.8301,294.7911 53.4775,294.9405 Q54.125,295.0899 54.6895,295.3888 L54.6895,298.1114 Q54.0586,297.5304 53.4651,297.2606 Q52.8716,296.9908 52.2407,296.9908 Q50.896,296.9908 50.2112,298.0575 Q49.5264,299.1241 49.5264,301.2242 Q49.5264,303.316 50.2112,304.3826 Q50.896,305.4493 52.2407,305.4493 Q52.8716,305.4493 53.4651,305.1795 Q54.0586,304.9097 54.6895,304.3287 Z " fill="#000000"/><text fill="#000000" font-family="sans-serif" font-size="14" lengthAdjust="spacing" textLength="58.7549" x="72.7163" y="306.1993">AdrEntry</text><line style="stroke:#181818;stroke-width:0.5;" x1="8" x2="163.6875" y1="316.9083" y2="316.9083"/><g data-visibility-modifier="PUBLIC_FIELD"><ellipse cx="18" cy="330.6524" fill="none" rx="3" ry="3" style="stroke:#038048;stroke-width:1;"/></g><text fill="#000000" font-family="sans-serif" font-size="14" lengthAdjust="spacing" textLength="104.5762" x="27" y="334.4434">context : String</text><g data-visibility-modifier="PUBLIC_FIELD"><ellipse cx="18" cy="347.1407" fill="none" rx="3" ry="3" style="stroke:#038048;stroke-width:1;"/></g><text fill="#000000" font-family="sans-serif" font-size="14" lengthAdjust="spacing" textLength="109.5596" x="27" y="350.9317">decision : String</text><g data-visibility-modifier="PUBLIC_FIELD"><ellipse cx="18" cy="363.629" fill="none" rx="3" ry="3" style="stroke:#038048;stroke-width:1;"/></g><text fill="#000000" font-family="sans-serif" font-size="14" lengthAdjust="spacing" textLength="112.8682" x="27" y="367.42">rationale : String</text><g data-visibility-modifier="PUBLIC_FIELD"><ellipse cx="18" cy="380.1173" fill="none" rx="3" ry="3" style="stroke:#038048;stroke-width:1;"/></g><text fill="#000000" font-family="sans-serif" font-size="14" lengthAdjust="spacing" textLength="131.6875" x="27" y="383.9083">alternatives : String</text><line style="stroke:#181818;stroke-width:0.5;" x1="8" x2="163.6875" y1="390.8614" y2="390.8614"/></g><!--class PlanItem--><g class="entity" data-qualified-name="PlanItem" data-source-line="25" id="ent0004"><rect fill="#F1F1F1" height="113.9531" rx="2.5" ry="2.5" style="stroke:#181818;stroke-width:0.5;" width="144.4258" x="701.63" y="69.2183"/><ellipse cx="740.9665" cy="85.2183" fill="#ADD1B2" rx="11" ry="11" style="stroke:#181818;stroke-width:1;"/><path d="M743.4396,91.3613 Q742.8586,91.6602 742.2194,91.8096 Q741.5802,91.959 740.8747,91.959 Q738.3678,91.959 737.048,90.3071 Q735.7282,88.6553 735.7282,85.5342 Q735.7282,82.4048 737.048,80.7529 Q738.3678,79.1011 740.8747,79.1011 Q741.5802,79.1011 742.2277,79.2505 Q742.8752,79.3999 743.4396,79.6988 L743.4396,82.4214 Q742.8088,81.8404 742.2153,81.5706 Q741.6217,81.3008 740.9909,81.3008 Q739.6462,81.3008 738.9613,82.3675 Q738.2765,83.4341 738.2765,85.5342 Q738.2765,87.626 738.9613,88.6926 Q739.6462,89.7593 740.9909,89.7593 Q741.6217,89.7593 742.2153,89.4895 Q742.8088,89.2197 743.4396,88.6387 Z " fill="#000000"/><text fill="#000000" font-family="sans-serif" font-size="14" lengthAdjust="spacing" textLength="58.3447" x="760.3746" y="90.5093">PlanItem</text><line style="stroke:#181818;stroke-width:0.5;" x1="702.63" x2="845.0558" y1="101.2183" y2="101.2183"/><g data-visibility-modifier="PUBLIC_FIELD"><ellipse cx="712.63" cy="114.9624" fill="none" rx="3" ry="3" style="stroke:#038048;stroke-width:1;"/></g><text fill="#000000" font-family="sans-serif" font-size="14" lengthAdjust="spacing" textLength="80.1172" x="721.63" y="118.7534">text : String</text><g data-visibility-modifier="PUBLIC_FIELD"><ellipse cx="712.63" cy="131.4507" fill="none" rx="3" ry="3" style="stroke:#038048;stroke-width:1;"/></g><text fill="#000000" font-family="sans-serif" font-size="14" lengthAdjust="spacing" textLength="100.707" x="721.63" y="135.2417">done : Boolean</text><g data-visibility-modifier="PUBLIC_FIELD"><ellipse cx="712.63" cy="147.939" fill="none" rx="3" ry="3" style="stroke:#038048;stroke-width:1;"/></g><text fill="#000000" font-family="sans-serif" font-size="14" lengthAdjust="spacing" textLength="111.7949" x="721.63" y="151.73">scope : List&lt;Id&gt;</text><line style="stroke:#181818;stroke-width:0.5;" x1="702.63" x2="845.0558" y1="158.6831" y2="158.6831"/><g data-visibility-modifier="PUBLIC_METHOD"><ellipse cx="712.63" cy="172.4273" fill="#84BE84" rx="3" ry="3" style="stroke:#038048;stroke-width:1;"/></g><text fill="#000000" font-family="sans-serif" font-size="14" lengthAdjust="spacing" textLength="118.4258" x="721.63" y="176.2183">isInfra() : Boolean</text></g><g class="entity" data-qualified-name="GMN6" data-source-line="35" id="ent0007"><path d="M199.91,313.9183 L199.91,369.8499 A0,0 0 0 0 199.91,369.8499 L549.7694,369.8499 A0,0 0 0 0 549.7694,369.8499 L549.7694,323.9183 L539.7694,313.9183 L360.47,313.9183 L285.49,208.2883 L352.47,313.9183 L199.91,313.9183 A0,0 0 0 0 199.91,313.9183" fill="#FEFFDD" style="stroke:#181818;stroke-width:0.5;"/><path d="M539.7694,313.9183 L539.7694,323.9183 L549.7694,323.9183 L539.7694,313.9183" fill="#FEFFDD" style="stroke:#181818;stroke-width:0.5;"/><text fill="#000000" font-family="sans-serif" font-size="13" lengthAdjust="spacing" textLength="260.5078" x="205.91" y="331.4866">Signed off before any model is generated</text><text fill="#000000" font-family="sans-serif" font-size="13" lengthAdjust="spacing" textLength="328.8594" x="205.91" y="346.7972">(OCL-KICKOFF-BRIEF-SIGNED-OFF). The description</text><text fill="#000000" font-family="sans-serif" font-size="13" lengthAdjust="spacing" textLength="169.7427" x="205.91" y="362.1077">/mdd-generate consumes.</text></g><g class="entity" data-qualified-name="GMN9" data-source-line="41" id="ent0010"><path d="M584.3,290.9483 L584.3,392.8116 A0,0 0 0 0 584.3,392.8116 L963.3967,392.8116 A0,0 0 0 0 963.3967,392.8116 L963.3967,300.9483 L953.3967,290.9483 L777.84,290.9483 L773.84,183.6183 L769.84,290.9483 L584.3,290.9483 A0,0 0 0 0 584.3,290.9483" fill="#FEFFDD" style="stroke:#181818;stroke-width:0.5;"/><path d="M953.3967,290.9483 L953.3967,300.9483 L963.3967,300.9483 L953.3967,290.9483" fill="#FEFFDD" style="stroke:#181818;stroke-width:0.5;"/><text fill="#000000" font-family="sans-serif" font-size="13" lengthAdjust="spacing" textLength="280.8711" x="590.3" y="308.5166">isInfra() is true exactly when scope is empty.</text><text fill="#000000" font-family="sans-serif" font-size="13" lengthAdjust="spacing" textLength="269.896" x="590.3" y="323.8272">Every scope id resolves to an objective @id</text><text fill="#000000" font-family="sans-serif" font-size="13" lengthAdjust="spacing" textLength="317.4272" x="590.3" y="339.1377">(OCL-KICKOFF-SCOPE-IDS-EXIST); the union of all</text><text fill="#000000" font-family="sans-serif" font-size="13" lengthAdjust="spacing" textLength="319.2554" x="590.3" y="354.4483">items' scope covers every implementation-bearing</text><text fill="#000000" font-family="sans-serif" font-size="13" lengthAdjust="spacing" textLength="358.0967" x="590.3" y="369.7588">objective @id (OCL-KICKOFF-PLAN-COVERS-OBJECTIVE),</text><text fill="#000000" font-family="sans-serif" font-size="13" lengthAdjust="spacing" textLength="327.2661" x="590.3" y="385.0694">so exhausting the PLAN equals whole-model parity.</text></g><!--reverse link Brief to AdrEntry--><g class="link" data-entity-1="ent0002" data-entity-2="ent0003" data-link-type="aggregation" data-source-line="32" id="lnk5"><path codeLine="32" d="M169.0799,218.2166 C151.8499,243.5966 139.97,261.1183 124.16,284.4183" fill="none" id="Brief-backto-AdrEntry" style="stroke:#181818;stroke-width:1;"/><polygon fill="none" points="175.82,208.2883,169.1405,211.0057,169.0799,218.2166,175.7594,215.4991,175.82,208.2883" style="stroke:#181818;stroke-width:1;"/><polygon fill="#000000" points="156.1926,250.701,163.7032,244.8664,158.8393,241.5661,156.1926,250.701" style="stroke:#000000;stroke-width:1;"/><text fill="#000000" font-family="sans-serif" font-size="13" lengthAdjust="spacing" textLength="47.3345" x="168" y="251.4766">records</text><text fill="#000000" font-family="sans-serif" font-size="13" lengthAdjust="spacing" textLength="8.2202" x="162.7573" y="228.5692">1</text><text fill="#000000" font-family="sans-serif" font-size="13" lengthAdjust="spacing" textLength="6.2651" x="122.4803" y="274.0878">*</text></g><?plantuml-src VLNDSY8t4Bxp55rS30c2JIvRHRPSYs6y8UlrkC2rbQkGUXZ56caYQRmcgLJbQV9WUPAqD0mObiq9f5PtVz_NFtC5xvKSBF9Fx6Qrp6w7lQl3nSFTx9wjv_b3bcubUd5yE8B-OuamhgISI2lyPECK5dG4hjNML6W2S1TKmKMOWjtyXYAePvpO9WXRuGYKOLxOclxH5RD5UveOQzZMSkr7C5kic5O1AOuewLU4nY585CehQ-Z11drWjQCCIY04QxKoMn2bfIEPkP5mVxloOrWJ8fHWYm8sEmXbZFACcl8v2b9O2ilD3YehKODr49c3yb0xAnk1yYTG8PvRJo-SgWD1W0cnPriqw3Z150IggT2F-wTw7NKaqMQjP8xhkfn4IvICo5LGS-S9PE5ibHBLJbcdmevP9z6HHPGedhJoOGoV8bAsGUuYu-ZkGN3dTiI3b2KT4DudGGVlbBmU_VltFqCml8glO-n3FMAn4wyTEAJA_O4mM4LiuAWic4m4nmBlxCphgBRO2Or34iOKZaywxLyZeKfIi5OTdQhZXsF8df5iBJPG4gh61mhjhNx6bCUSWclB634t9afk2semVGpWsmZ2Kbp055nLjSROW3mMwQ3IMLXlOJMxU_YPBVBxZFoL4OfA1bzKAE5BQJMojX-eBbI5jgXv5uDvUWpILbmPe0PA2BSEqHGAjOGd9PvYkmsIJl3cpOzlX-DUK84E7xv-jWyqE60Szdf2S-_X9euL_Da3-FuLWociGoILhfLP9p6cS4VDyQwrNBSUJSYBRreFezGPPz9b9hXTQ-wAUi6JYkultViqQ3anci8DkICtlRywAbtqFHiQbu0luPHB1-dqrgLASdr6dEk0pl2eY3zQ3laUD3VBE5bjlWl9OeSUWIO2hxLQofQLyilOvOFXAQksDFqV-c0PW_vt_IF3ARMqeBdrSDth6KlBOMD3eC6czark5FVrKZhVGRHhkhKYwUaWdz-nZylvn_psjbs_RBtyS9yj65tGK3sUxYNo-CPcwY4DKyJp5QfEBF8zqeqhppK8-48xLkzeBD3i9I8JLZND1JcqCtqOwVqq-qlZV4uchKMsNAnPzkjo_KWBvNpK8w2uLQxs2TAa-_yTTN8vINgQCgtZUVuvMwrPVlDBDdzSViw68tAYbO0l9QTzqkt9z270tnlw7btQ2GSv_mC0?></g></svg>