<svg xmlns="http://www.w3.org/2000/svg" xmlns:xlink="http://www.w3.org/1999/xlink" contentStyleType="text/css" data-diagram-type="CLASS" height="577px" preserveAspectRatio="none" style="width:1028px;height:577px;background:#FFFFFF;" version="1.1" viewBox="0 0 1028 577" width="1028px" zoomAndPan="magnify"><?plantuml 1.2026.3?><defs/><g><g class="title" data-source-line="12"><text fill="#000000" font-family="sans-serif" font-size="14" font-weight="700" lengthAdjust="spacing" textLength="261.3584" x="379.8623" y="23.5352">Render engine &#8212; domain (objective)</text></g><!--class RenderEngine--><g class="entity" data-qualified-name="RenderEngine" data-source-line="14" id="ent0002"><rect fill="#F1F1F1" height="130.4414" rx="2.5" ry="2.5" style="stroke:#181818;stroke-width:0.5;" width="273.7275" x="292.04" y="44.4883"/><ellipse cx="378.0429" cy="60.4883" fill="#ADD1B2" rx="11" ry="11" style="stroke:#181818;stroke-width:1;"/><path d="M380.5161,66.6313 Q379.935,66.9302 379.2959,67.0796 Q378.6567,67.229 377.9511,67.229 Q375.4443,67.229 374.1245,65.5771 Q372.8046,63.9253 372.8046,60.8042 Q372.8046,57.6748 374.1245,56.0229 Q375.4443,54.3711 377.9511,54.3711 Q378.6567,54.3711 379.3042,54.5205 Q379.9516,54.6699 380.5161,54.9688 L380.5161,57.6914 Q379.8852,57.1104 379.2917,56.8406 Q378.6982,56.5708 378.0673,56.5708 Q376.7226,56.5708 376.0378,57.6375 Q375.353,58.7041 375.353,60.8042 Q375.353,62.896 376.0378,63.9626 Q376.7226,65.0293 378.0673,65.0293 Q378.6982,65.0293 379.2917,64.7595 Q379.8852,64.4897 380.5161,63.9087 Z " fill="#000000"/><text fill="#000000" font-family="sans-serif" font-size="14" lengthAdjust="spacing" textLength="93.2217" x="398.5429" y="65.7793">RenderEngine</text><line style="stroke:#181818;stroke-width:0.5;" x1="293.04" x2="564.7675" y1="76.4883" y2="76.4883"/><g data-visibility-modifier="PUBLIC_FIELD"><ellipse cx="303.04" cy="90.2324" fill="none" rx="3" ry="3" style="stroke:#038048;stroke-width:1;"/></g><text fill="#000000" font-family="sans-serif" font-size="14" lengthAdjust="spacing" textLength="107.4268" x="312.04" y="94.0234">project : Project</text><line style="stroke:#181818;stroke-width:0.5;" x1="293.04" x2="564.7675" y1="100.9766" y2="100.9766"/><g data-visibility-modifier="PUBLIC_METHOD"><ellipse cx="303.04" cy="114.7207" fill="#84BE84" rx="3" ry="3" style="stroke:#038048;stroke-width:1;"/></g><text fill="#000000" font-family="sans-serif" font-size="14" lengthAdjust="spacing" textLength="171.6367" x="312.04" y="118.5117">renderedTrees : Set(Tree)</text><g data-visibility-modifier="PUBLIC_METHOD"><ellipse cx="303.04" cy="131.209" fill="#84BE84" rx="3" ry="3" style="stroke:#038048;stroke-width:1;"/></g><text fill="#000000" font-family="sans-serif" font-size="14" lengthAdjust="spacing" textLength="173.2637" x="312.04" y="135">sources() : Set(SourceFile)</text><g data-visibility-modifier="PUBLIC_METHOD"><ellipse cx="303.04" cy="147.6973" fill="#84BE84" rx="3" ry="3" style="stroke:#038048;stroke-width:1;"/></g><text fill="#000000" font-family="sans-serif" font-size="14" lengthAdjust="spacing" textLength="243.9951" x="312.04" y="151.4883">render(s : SourceFile) : RenderedFile</text><g data-visibility-modifier="PUBLIC_METHOD"><ellipse cx="303.04" cy="164.1855" fill="#84BE84" rx="3" ry="3" style="stroke:#038048;stroke-width:1;"/></g><text fill="#000000" font-family="sans-serif" font-size="14" lengthAdjust="spacing" textLength="247.7275" x="312.04" y="167.9766">renderedPathOf(s : SourceFile) : Path</text></g><!--class Project--><g class="entity" data-qualified-name="Project" data-source-line="22" id="ent0003"><rect fill="#F1F1F1" height="80.9766" rx="2.5" ry="2.5" style="stroke:#181818;stroke-width:0.5;" width="269.8037" x="7" y="254.7183"/><ellipse cx="114.3857" cy="270.7183" fill="#ADD1B2" rx="11" ry="11" style="stroke:#181818;stroke-width:1;"/><path d="M116.8589,276.8613 Q116.2778,277.1602 115.6387,277.3096 Q114.9995,277.459 114.2939,277.459 Q111.7871,277.459 110.4673,275.8071 Q109.1475,274.1553 109.1475,271.0342 Q109.1475,267.9048 110.4673,266.2529 Q111.7871,264.6011 114.2939,264.6011 Q114.9995,264.6011 115.647,264.7505 Q116.2944,264.8999 116.8589,265.1987 L116.8589,267.9214 Q116.228,267.3404 115.6345,267.0706 Q115.041,266.8008 114.4102,266.8008 Q113.0654,266.8008 112.3806,267.8675 Q111.6958,268.9341 111.6958,271.0342 Q111.6958,273.126 112.3806,274.1926 Q113.0654,275.2593 114.4102,275.2593 Q115.041,275.2593 115.6345,274.9895 Q116.228,274.7197 116.8589,274.1387 Z " fill="#000000"/><text fill="#000000" font-family="sans-serif" font-size="14" lengthAdjust="spacing" textLength="46.5322" x="134.8857" y="276.0093">Project</text><line style="stroke:#181818;stroke-width:0.5;" x1="8" x2="275.8037" y1="286.7183" y2="286.7183"/><line style="stroke:#181818;stroke-width:0.5;" x1="8" x2="275.8037" y1="294.7183" y2="294.7183"/><g data-visibility-modifier="PUBLIC_METHOD"><ellipse cx="18" cy="308.4624" fill="#84BE84" rx="3" ry="3" style="stroke:#038048;stroke-width:1;"/></g><text fill="#000000" font-family="sans-serif" font-size="14" lengthAdjust="spacing" textLength="191.8232" x="27" y="312.2534">enumeratedTrees : Set(Tree)</text><g data-visibility-modifier="PUBLIC_METHOD"><ellipse cx="18" cy="324.9507" fill="#84BE84" rx="3" ry="3" style="stroke:#038048;stroke-width:1;"/></g><text fill="#000000" font-family="sans-serif" font-size="14" lengthAdjust="spacing" textLength="243.8037" x="27" y="328.7417">sourcesFor(t : Tree) : Set(SourceFile)</text></g><!--class SourceFile--><g class="entity" data-qualified-name="SourceFile" data-source-line="27" id="ent0004"><rect fill="#F1F1F1" height="80.9766" rx="2.5" ry="2.5" style="stroke:#181818;stroke-width:0.5;" width="100.9268" x="311.44" y="254.7183"/><ellipse cx="326.44" cy="270.7183" fill="#ADD1B2" rx="11" ry="11" style="stroke:#181818;stroke-width:1;"/><path d="M328.9131,276.8613 Q328.3321,277.1602 327.6929,277.3096 Q327.0538,277.459 326.3482,277.459 Q323.8414,277.459 322.5215,275.8071 Q321.2017,274.1553 321.2017,271.0342 Q321.2017,267.9048 322.5215,266.2529 Q323.8414,264.6011 326.3482,264.6011 Q327.0538,264.6011 327.7012,264.7505 Q328.3487,264.8999 328.9131,265.1987 L328.9131,267.9214 Q328.2823,267.3404 327.6888,267.0706 Q327.0953,266.8008 326.4644,266.8008 Q325.1197,266.8008 324.4349,267.8675 Q323.7501,268.9341 323.7501,271.0342 Q323.7501,273.126 324.4349,274.1926 Q325.1197,275.2593 326.4644,275.2593 Q327.0953,275.2593 327.6888,274.9895 Q328.2823,274.7197 328.9131,274.1387 Z " fill="#000000"/><text fill="#000000" font-family="sans-serif" font-size="14" lengthAdjust="spacing" textLength="68.9268" x="340.44" y="276.0093">SourceFile</text><line style="stroke:#181818;stroke-width:0.5;" x1="312.44" x2="411.3668" y1="286.7183" y2="286.7183"/><g data-visibility-modifier="PUBLIC_FIELD"><ellipse cx="322.44" cy="300.4624" fill="none" rx="3" ry="3" style="stroke:#038048;stroke-width:1;"/></g><text fill="#000000" font-family="sans-serif" font-size="14" lengthAdjust="spacing" textLength="73.1514" x="331.44" y="304.2534">path : Path</text><g data-visibility-modifier="PUBLIC_FIELD"><ellipse cx="322.44" cy="316.9507" fill="none" rx="3" ry="3" style="stroke:#038048;stroke-width:1;"/></g><text fill="#000000" font-family="sans-serif" font-size="14" lengthAdjust="spacing" textLength="70.0342" x="331.44" y="320.7417">tree : Tree</text><line style="stroke:#181818;stroke-width:0.5;" x1="312.44" x2="411.3668" y1="327.6948" y2="327.6948"/></g><!--class RenderedFile--><g class="entity" data-qualified-name="RenderedFile" data-source-line="32" id="ent0005"><rect fill="#F1F1F1" height="64.4883" rx="2.5" ry="2.5" style="stroke:#181818;stroke-width:0.5;" width="119.6914" x="377.06" y="456.6983"/><ellipse cx="392.06" cy="472.6983" fill="#ADD1B2" rx="11" ry="11" style="stroke:#181818;stroke-width:1;"/><path d="M394.5331,478.8413 Q393.9521,479.1402 393.3129,479.2896 Q392.6738,479.439 391.9682,479.439 Q389.4614,479.439 388.1415,477.7871 Q386.8217,476.1353 386.8217,473.0142 Q386.8217,469.8848 388.1415,468.2329 Q389.4614,466.5811 391.9682,466.5811 Q392.6738,466.5811 393.3212,466.7305 Q393.9687,466.8799 394.5331,467.1788 L394.5331,469.9014 Q393.9023,469.3204 393.3088,469.0506 Q392.7153,468.7808 392.0844,468.7808 Q390.7397,468.7808 390.0549,469.8475 Q389.3701,470.9141 389.3701,473.0142 Q389.3701,475.106 390.0549,476.1726 Q390.7397,477.2393 392.0844,477.2393 Q392.7153,477.2393 393.3088,476.9695 Q393.9023,476.6997 394.5331,476.1187 Z " fill="#000000"/><text fill="#000000" font-family="sans-serif" font-size="14" lengthAdjust="spacing" textLength="87.6914" x="406.06" y="477.9893">RenderedFile</text><line style="stroke:#181818;stroke-width:0.5;" x1="378.06" x2="495.7514" y1="488.6983" y2="488.6983"/><g data-visibility-modifier="PUBLIC_FIELD"><ellipse cx="388.06" cy="502.4424" fill="none" rx="3" ry="3" style="stroke:#038048;stroke-width:1;"/></g><text fill="#000000" font-family="sans-serif" font-size="14" lengthAdjust="spacing" textLength="73.1514" x="397.06" y="506.2334">path : Path</text><line style="stroke:#181818;stroke-width:0.5;" x1="378.06" x2="495.7514" y1="513.1866" y2="513.1866"/></g><!--class Tree--><g class="entity" data-qualified-name="Tree" data-source-line="36" id="ent0006"><rect fill="#F1F1F1" height="146.9297" rx="2.5" ry="2.5" style="stroke:#181818;stroke-width:0.5;" width="112.0098" x="85.9" y="415.4783"/><ellipse cx="123.3231" cy="431.4783" fill="#EB937F" rx="11" ry="11" style="stroke:#181818;stroke-width:1;"/><path d="M126.9374,437.9783 L119.2176,437.9783 L119.2176,425.5852 L126.9374,425.5852 L126.9374,427.7434 L121.6664,427.7434 L121.6664,430.4163 L126.4393,430.4163 L126.4393,432.5745 L121.6664,432.5745 L121.6664,435.8201 L126.9374,435.8201 Z " fill="#000000"/><text fill="#000000" font-family="sans-serif" font-size="14" lengthAdjust="spacing" textLength="30.1807" x="142.306" y="436.7693">Tree</text><line style="stroke:#181818;stroke-width:0.5;" x1="86.9" x2="196.9098" y1="447.4783" y2="447.4783"/><text fill="#000000" font-family="sans-serif" font-size="14" lengthAdjust="spacing" textLength="48.4531" x="91.9" y="465.0134">Models</text><text fill="#000000" font-family="sans-serif" font-size="14" lengthAdjust="spacing" textLength="67.9834" x="91.9" y="481.5017">CycleDiffs</text><text fill="#000000" font-family="sans-serif" font-size="14" lengthAdjust="spacing" textLength="100.0098" x="91.9" y="497.99">OclConstraints</text><text fill="#000000" font-family="sans-serif" font-size="14" lengthAdjust="spacing" textLength="69.7129" x="91.9" y="514.4783">WholeMap</text><text fill="#000000" font-family="sans-serif" font-size="14" lengthAdjust="spacing" textLength="47.0586" x="91.9" y="530.9666">Deploy</text><text fill="#000000" font-family="sans-serif" font-size="14" lengthAdjust="spacing" textLength="71.3604" x="91.9" y="547.4548">ReviewDiff</text><line style="stroke:#181818;stroke-width:0.5;" x1="86.9" x2="196.9098" y1="554.408" y2="554.408"/></g><g class="entity" data-qualified-name="GMN12" data-source-line="52" id="ent0013"><path d="M630.73,251.9283 L630.73,338.481 A0,0 0 0 0 630.73,338.481 L1013.083,338.481 A0,0 0 0 0 1013.083,338.481 L1013.083,261.9283 L1003.083,251.9283 L734.31,251.9283 L566.08,174.7583 L726.31,251.9283 L630.73,251.9283 A0,0 0 0 0 630.73,251.9283" fill="#FEFFDD" style="stroke:#181818;stroke-width:0.5;"/><path d="M1003.083,251.9283 L1003.083,261.9283 L1013.083,261.9283 L1003.083,251.9283" fill="#FEFFDD" style="stroke:#181818;stroke-width:0.5;"/><text fill="#000000" font-family="sans-serif" font-size="13" lengthAdjust="spacing" textLength="298.873" x="636.73" y="269.4966">Single source of truth: renderedTrees is exactly</text><text fill="#000000" font-family="sans-serif" font-size="13" lengthAdjust="spacing" textLength="361.353" x="636.73" y="284.8072">Project.enumeratedTrees &#8212; no second, hand-maintained</text><text fill="#000000" font-family="sans-serif" font-size="13" lengthAdjust="spacing" textLength="294.144" x="636.73" y="300.1177">list in skill prose (OCL-RENDER-TREE-PARITY).</text><text fill="#000000" font-family="sans-serif" font-size="13" lengthAdjust="spacing" textLength="234.0444" x="636.73" y="315.4283">renderedPathOf is a pure path mirror</text><text fill="#000000" font-family="sans-serif" font-size="13" lengthAdjust="spacing" textLength="194.6636" x="636.73" y="330.7388">(OCL-RENDER-PATH-MIRROR).</text></g><!--reverse link RenderEngine to Project--><g class="link" data-entity-1="ent0002" data-entity-2="ent0003" data-link-type="aggregation" data-source-line="45" id="lnk7"><path codeLine="45" d="M280.4926,147.5212 C242.5526,161.6312 214.85,177.2883 184.9,204.9283 C170.49,218.2283 160.38,237.3883 153.61,254.5483" fill="none" id="RenderEngine-backto-Project" style="stroke:#181818;stroke-width:1;"/><polygon fill="none" points="291.74,143.3383,284.722,141.6806,280.4926,147.5212,287.5106,149.1789,291.74,143.3383" style="stroke:#181818;stroke-width:1;"/><text fill="#000000" font-family="sans-serif" font-size="13" lengthAdjust="spacing" textLength="143.6538" x="185.9" y="218.4966">tree set (single source)</text><text fill="#000000" font-family="sans-serif" font-size="13" lengthAdjust="spacing" textLength="8.2202" x="276.0261" y="142.3441">1</text><text fill="#000000" font-family="sans-serif" font-size="13" lengthAdjust="spacing" textLength="8.2202" x="146.9538" y="243.8661">1</text></g><!--link RenderEngine to SourceFile--><g class="link" data-entity-1="ent0002" data-entity-2="ent0004" data-link-type="dependency" data-source-line="46" id="lnk8"><path codeLine="46" d="M358.44,175.4083 C351.75,184.6483 345.96,194.5583 341.9,204.9283 C335.77,220.6083 336.3568,232.8794 341.2468,248.5894" fill="none" id="RenderEngine-to-SourceFile" style="stroke:#181818;stroke-width:1;stroke-dasharray:7,7;"/><polygon fill="#181818" points="343.03,254.3183,344.1744,244.5361,341.544,249.5442,336.5359,246.9138,343.03,254.3183" style="stroke:#181818;stroke-width:1;"/><text fill="#000000" font-family="sans-serif" font-size="13" lengthAdjust="spacing" textLength="143.0889" x="342.9" y="218.4966">enumerates via Project</text></g><!--link RenderEngine to RenderedFile--><g class="link" data-entity-1="ent0002" data-entity-2="ent0005" data-link-type="dependency" data-source-line="47" id="lnk9"><path codeLine="47" d="M478.12,175.1983 C483.36,184.7483 487.87,194.7983 490.9,204.9283 C513.93,281.7983 510.17,307.5783 490.9,385.4783 C484.62,410.8583 473.964,431.7803 461.874,451.2603" fill="none" id="RenderEngine-to-RenderedFile" style="stroke:#181818;stroke-width:1;stroke-dasharray:7,7;"/><polygon fill="#181818" points="458.71,456.3583,466.8546,450.8207,461.3467,452.11,460.0573,446.602,458.71,456.3583" style="stroke:#181818;stroke-width:1;"/><text fill="#000000" font-family="sans-serif" font-size="13" lengthAdjust="spacing" textLength="81.7769" x="507.79" y="300.2666">writes mirror</text></g><!--link SourceFile to RenderedFile--><g class="link" data-entity-1="ent0004" data-entity-2="ent0005" data-link-type="dependency" data-source-line="48" id="lnk10"><path codeLine="48" d="M354.65,335.7483 C353.25,351.5783 353.6,369.7583 358.9,385.4783 C367.98,412.3783 383.2002,433.3721 400.3202,452.1721" fill="none" id="SourceFile-to-RenderedFile" style="stroke:#181818;stroke-width:1;"/><polygon fill="#181818" points="404.36,456.6083,401.2578,447.2608,400.9935,452.9114,395.3428,452.6471,404.36,456.6083" style="stroke:#181818;stroke-width:1;"/><text fill="#000000" font-family="sans-serif" font-size="13" lengthAdjust="spacing" textLength="126.4263" x="359.9" y="382.0466">deterministic mirror</text><text fill="#000000" font-family="sans-serif" font-size="13" lengthAdjust="spacing" textLength="8.2202" x="344.8044" y="356.2993">1</text><text fill="#000000" font-family="sans-serif" font-size="13" lengthAdjust="spacing" textLength="8.2202" x="388.8452" y="445.9929">1</text></g><!--link Project to Tree--><g class="link" data-entity-1="ent0003" data-entity-2="ent0006" data-link-type="dependency" data-source-line="49" id="lnk11"><path codeLine="49" d="M141.9,335.9283 C141.9,358.8583 141.9,382.3983 141.9,409.3283" fill="none" id="Project-to-Tree" style="stroke:#181818;stroke-width:1;"/><polygon fill="#181818" points="141.9,415.3283,145.9,406.3283,141.9,410.3283,137.9,406.3283,141.9,415.3283" style="stroke:#181818;stroke-width:1;"/></g><?plantuml-src XLNRRkCs47ttLmpoiX9gkUYhjmWInCxMG1qRYXUBlYrDZMrk958WQITEiK0_eb_OB-aX9VcsQVfWMzJm79wPCqD_e1jL9AFPDCl73wDndeqVFaqUncdl0zrONYMV7yVPQ79_Zw_RJ_dj5064PijlBBtQSUPKmLIOIYXDGikDiRJ2ns-OdDBh4a7sR2kbbVDAacLTi0K5wxNIF8mxgwB8cW19Apmm5joQbliO_efu2_mQzyfIWS5jbz9KbT35W2QU-0KdE78cOhnbpcfXbTz3Lq6ry9kiKjP2dD8x18Js3YmRiMCINGhIQCcr9s_2e_CMBmUq0E7F9oBTaofBKWuulr4QBCzMr3M7l8KdKHIEZ2xtE0cvrvP3gUZRjbXNh3qbg-thwpxeT-p37l74VP0KIgorYMNoqBVcFgtK2_Qjruotq9FsIVCEvrGiDq8hwGRHZvk2dVpHnJvTBTutudqRK2Zpn0M2rcpNc_yquy8Ac82ypAhT9fPbuuSB9UCN8NtP66jqSwWqbcbkJMWgADfM08LyAQbCmQNhazpBa85QhR2OtVr-TCVZnVF6b9nLekuZoReq-pwEtYb-pW8Y_KYXPli3Cp9oPcibexnWXIWh76gZNaEk1gusmhbfcyRKw7QzjPTrR7iAsSQURtW3R71UgcS59WroktPG3q4k8bPRj1BgzP6oBFRChx5KrmHIVgbB9PMFVAwpJBITyxzzUUZAS1efFxXAUrvvf9oVca___FLtr_-9wIOxxVLaAPnhzuwRhN_sY7wYkhLgs9aMttP5MqIhX_J8FWdFQOmsbN59saOUu_eU1gGdw2G2Zo6iyfOshC_EcQCeizKRY13eVU_qTttLI3_smBioxurDGduny8RY0_lnPLURq36jXh0ERhP4HzHfJc_Wi2_eZA0OdiOnmCDTc8DH60CiPhAyEuu1Ndm9Sp0LDHv7SGxmaCT12910UsRcrIzNPB8i_iuFbaR1OO2JzjveIfAUOmU3wzFSXyV2EjefSMYC7q1dgG_HeYf0cYdgdJ06KLbs7NylC6yDOAzB861YiNlQu0fR6kzD5SRpL0dgydYQN1nVk_MRuKKN7oyiGDeZ1fSz5EO7a-qObrBHnp-ABh8mJHuVBW0ieHINQJkVc1x7bE0MwsxhHJuUP_FRVBBu8nrW_tc7drmziKdQXEcCOdwx-2sRJl9ybeC2U0hf_mi0?></g></svg>