<svg xmlns="http://www.w3.org/2000/svg" xmlns:xlink="http://www.w3.org/1999/xlink" contentStyleType="text/css" data-diagram-type="CLASS" height="348px" preserveAspectRatio="none" style="width:1175px;height:348px;background:#FFFFFF;" version="1.1" viewBox="0 0 1175 348" width="1175px" zoomAndPan="magnify"><?plantuml 1.2026.3?><defs/><g><g class="title" data-source-line="8"><text fill="#000000" font-family="sans-serif" font-size="14" font-weight="700" lengthAdjust="spacing" textLength="334.0381" x="417.3556" y="23.5352">Agent session bootstrap &#8212; domain (objective)</text></g><!--class SessionContext--><g class="entity" data-qualified-name="SessionContext" data-source-line="10" id="ent0002"><rect fill="#F1F1F1" height="106.0859" rx="2.5" ry="2.5" style="stroke:#181818;stroke-width:0.5;" width="136.7813" x="413.24" y="44.4883"/><ellipse cx="428.24" cy="64.7988" fill="#ADD1B2" rx="11" ry="11" style="stroke:#181818;stroke-width:1;"/><path d="M430.7131,70.9419 Q430.1321,71.2407 429.4929,71.3901 Q428.8538,71.5396 428.1482,71.5396 Q425.6414,71.5396 424.3215,69.8877 Q423.0017,68.2358 423.0017,65.1147 Q423.0017,61.9854 424.3215,60.3335 Q425.6414,58.6816 428.1482,58.6816 Q428.8538,58.6816 429.5012,58.8311 Q430.1487,58.9805 430.7131,59.2793 L430.7131,62.002 Q430.0823,61.4209 429.4888,61.1511 Q428.8953,60.8813 428.2644,60.8813 Q426.9197,60.8813 426.2349,61.948 Q425.5501,63.0146 425.5501,65.1147 Q425.5501,67.2065 426.2349,68.2732 Q426.9197,69.3398 428.2644,69.3398 Q428.8953,69.3398 429.4888,69.0701 Q430.0823,68.8003 430.7131,68.2192 Z " fill="#000000"/><text fill="#000000" font-family="sans-serif" font-size="12" font-style="italic" lengthAdjust="spacing" textLength="43.0137" x="473.1238" y="61.0898">&#171;value&#187;</text><text fill="#000000" font-family="sans-serif" font-size="14" lengthAdjust="spacing" textLength="104.7813" x="442.24" y="77.1563">SessionContext</text><line style="stroke:#181818;stroke-width:0.5;" x1="414.24" x2="549.0213" y1="85.1094" y2="85.1094"/><g data-visibility-modifier="PUBLIC_FIELD"><ellipse cx="424.24" cy="98.8535" fill="none" rx="3" ry="3" style="stroke:#038048;stroke-width:1;"/></g><text fill="#000000" font-family="sans-serif" font-size="14" lengthAdjust="spacing" textLength="102.5801" x="433.24" y="102.6445">toc : TocEntry[]</text><g data-visibility-modifier="PUBLIC_FIELD"><ellipse cx="424.24" cy="115.3418" fill="none" rx="3" ry="3" style="stroke:#038048;stroke-width:1;"/></g><text fill="#000000" font-family="sans-serif" font-size="14" lengthAdjust="spacing" textLength="102.0674" x="433.24" y="119.1328">fresh : boolean</text><g data-visibility-modifier="PUBLIC_FIELD"><ellipse cx="424.24" cy="131.8301" fill="none" rx="3" ry="3" style="stroke:#038048;stroke-width:1;"/></g><text fill="#000000" font-family="sans-serif" font-size="14" lengthAdjust="spacing" textLength="110.6123" x="433.24" y="135.6211">drift : MapDrift[]</text><line style="stroke:#181818;stroke-width:0.5;" x1="414.24" x2="549.0213" y1="142.5742" y2="142.5742"/></g><!--class TocEntry--><g class="entity" data-qualified-name="TocEntry" data-source-line="16" id="ent0003"><rect fill="#F1F1F1" height="106.0859" rx="2.5" ry="2.5" style="stroke:#181818;stroke-width:0.5;" width="156.1221" x="589.57" y="227.5683"/><ellipse cx="633.7945" cy="247.8788" fill="#ADD1B2" rx="11" ry="11" style="stroke:#181818;stroke-width:1;"/><path d="M636.2677,254.0219 Q635.6866,254.3207 635.0474,254.4701 Q634.4083,254.6196 633.7027,254.6196 Q631.1959,254.6196 629.8761,252.9677 Q628.5562,251.3158 628.5562,248.1947 Q628.5562,245.0654 629.8761,243.4135 Q631.1959,241.7616 633.7027,241.7616 Q634.4083,241.7616 635.0557,241.9111 Q635.7032,242.0605 636.2677,242.3593 L636.2677,245.082 Q635.6368,244.5009 635.0433,244.2311 Q634.4498,243.9613 633.8189,243.9613 Q632.4742,243.9613 631.7894,245.028 Q631.1046,246.0946 631.1046,248.1947 Q631.1046,250.2865 631.7894,251.3532 Q632.4742,252.4198 633.8189,252.4198 Q634.4498,252.4198 635.0433,252.1501 Q635.6368,251.8803 636.2677,251.2992 Z " fill="#000000"/><text fill="#000000" font-family="sans-serif" font-size="12" font-style="italic" lengthAdjust="spacing" textLength="43.0137" x="662.3714" y="244.1698">&#171;value&#187;</text><text fill="#000000" font-family="sans-serif" font-size="14" lengthAdjust="spacing" textLength="59.1787" x="654.2888" y="260.2363">TocEntry</text><line style="stroke:#181818;stroke-width:0.5;" x1="590.57" x2="744.6921" y1="268.1894" y2="268.1894"/><g data-visibility-modifier="PUBLIC_FIELD"><ellipse cx="600.57" cy="281.9335" fill="none" rx="3" ry="3" style="stroke:#038048;stroke-width:1;"/></g><text fill="#000000" font-family="sans-serif" font-size="14" lengthAdjust="spacing" textLength="115.0215" x="609.57" y="285.7245">kind : ModelKind</text><g data-visibility-modifier="PUBLIC_FIELD"><ellipse cx="600.57" cy="298.4218" fill="none" rx="3" ry="3" style="stroke:#038048;stroke-width:1;"/></g><text fill="#000000" font-family="sans-serif" font-size="14" lengthAdjust="spacing" textLength="130.1221" x="609.57" y="302.2128">concept_count : int</text><g data-visibility-modifier="PUBLIC_FIELD"><ellipse cx="600.57" cy="314.9101" fill="none" rx="3" ry="3" style="stroke:#038048;stroke-width:1;"/></g><text fill="#000000" font-family="sans-serif" font-size="14" lengthAdjust="spacing" textLength="89.5029" x="609.57" y="318.7011">id_count : int</text><line style="stroke:#181818;stroke-width:0.5;" x1="590.57" x2="744.6921" y1="325.6542" y2="325.6542"/></g><!--class MapBaseline--><g class="entity" data-qualified-name="MapBaseline" data-source-line="22" id="ent0004"><rect fill="#F1F1F1" height="89.5977" rx="2.5" ry="2.5" style="stroke:#181818;stroke-width:0.5;" width="193.2686" x="7" y="235.8183"/><ellipse cx="57.4321" cy="256.1288" fill="#ADD1B2" rx="11" ry="11" style="stroke:#181818;stroke-width:1;"/><path d="M59.9053,262.2719 Q59.3242,262.5707 58.6851,262.7201 Q58.0459,262.8696 57.3403,262.8696 Q54.8335,262.8696 53.5137,261.2177 Q52.1938,259.5658 52.1938,256.4447 Q52.1938,253.3154 53.5137,251.6635 Q54.8335,250.0116 57.3403,250.0116 Q58.0459,250.0116 58.6934,250.1611 Q59.3408,250.3105 59.9053,250.6093 L59.9053,253.332 Q59.2744,252.7509 58.6809,252.4811 Q58.0874,252.2113 57.4565,252.2113 Q56.1118,252.2113 55.427,253.278 Q54.7422,254.3446 54.7422,256.4447 Q54.7422,258.5365 55.427,259.6032 Q56.1118,260.6698 57.4565,260.6698 Q58.0874,260.6698 58.6809,260.4001 Q59.2744,260.1303 59.9053,259.5492 Z " fill="#000000"/><text fill="#000000" font-family="sans-serif" font-size="12" font-style="italic" lengthAdjust="spacing" textLength="43.0137" x="98.3774" y="252.4198">&#171;value&#187;</text><text fill="#000000" font-family="sans-serif" font-size="14" lengthAdjust="spacing" textLength="83.9043" x="77.9321" y="268.4863">MapBaseline</text><line style="stroke:#181818;stroke-width:0.5;" x1="8" x2="199.2686" y1="276.4394" y2="276.4394"/><g data-visibility-modifier="PUBLIC_FIELD"><ellipse cx="18" cy="290.1835" fill="none" rx="3" ry="3" style="stroke:#038048;stroke-width:1;"/></g><text fill="#000000" font-family="sans-serif" font-size="14" lengthAdjust="spacing" textLength="159.5508" x="27" y="293.9745">explicit : Revision [0..1]</text><line style="stroke:#181818;stroke-width:0.5;" x1="8" x2="199.2686" y1="300.9277" y2="300.9277"/><g data-visibility-modifier="PUBLIC_METHOD"><ellipse cx="18" cy="314.6718" fill="#84BE84" rx="3" ry="3" style="stroke:#038048;stroke-width:1;"/></g><text fill="#000000" font-family="sans-serif" font-size="14" lengthAdjust="spacing" textLength="167.2686" x="27" y="318.4628">resolve() : Revision [0..1]</text></g><!--class SessionHook--><g class="entity" data-qualified-name="SessionHook" data-source-line="27" id="ent0005"><rect fill="#F1F1F1" height="106.0859" rx="2.5" ry="2.5" style="stroke:#181818;stroke-width:0.5;" width="203.3311" x="868.97" y="44.4883"/><ellipse cx="923.0764" cy="64.7988" fill="#ADD1B2" rx="11" ry="11" style="stroke:#181818;stroke-width:1;"/><path d="M925.5496,70.9419 Q924.9685,71.2407 924.3294,71.3901 Q923.6902,71.5396 922.9846,71.5396 Q920.4778,71.5396 919.158,69.8877 Q917.8382,68.2358 917.8382,65.1147 Q917.8382,61.9854 919.158,60.3335 Q920.4778,58.6816 922.9846,58.6816 Q923.6902,58.6816 924.3377,58.8311 Q924.9851,58.9805 925.5496,59.2793 L925.5496,62.002 Q924.9187,61.4209 924.3252,61.1511 Q923.7317,60.8813 923.1009,60.8813 Q921.7561,60.8813 921.0713,61.948 Q920.3865,63.0146 920.3865,65.1147 Q920.3865,67.2065 921.0713,68.2732 Q921.7561,69.3398 923.1009,69.3398 Q923.7317,69.3398 924.3252,69.0701 Q924.9187,68.8003 925.5496,68.2192 Z " fill="#000000"/><text fill="#000000" font-family="sans-serif" font-size="12" font-style="italic" lengthAdjust="spacing" textLength="43.0137" x="965.3787" y="61.0898">&#171;value&#187;</text><text fill="#000000" font-family="sans-serif" font-size="14" lengthAdjust="spacing" textLength="86.6182" x="943.5764" y="77.1563">SessionHook</text><line style="stroke:#181818;stroke-width:0.5;" x1="869.97" x2="1071.3011" y1="85.1094" y2="85.1094"/><g data-visibility-modifier="PUBLIC_FIELD"><ellipse cx="879.97" cy="98.8535" fill="none" rx="3" ry="3" style="stroke:#038048;stroke-width:1;"/></g><text fill="#000000" font-family="sans-serif" font-size="14" lengthAdjust="spacing" textLength="142.9395" x="888.97" y="102.6445">event : "SessionStart"</text><g data-visibility-modifier="PUBLIC_FIELD"><ellipse cx="879.97" cy="115.3418" fill="none" rx="3" ry="3" style="stroke:#038048;stroke-width:1;"/></g><text fill="#000000" font-family="sans-serif" font-size="14" lengthAdjust="spacing" textLength="120.0527" x="888.97" y="119.1328">type : "command"</text><g data-visibility-modifier="PUBLIC_FIELD"><ellipse cx="879.97" cy="131.8301" fill="none" rx="3" ry="3" style="stroke:#038048;stroke-width:1;"/></g><text fill="#000000" font-family="sans-serif" font-size="14" lengthAdjust="spacing" textLength="177.3311" x="888.97" y="135.6211">command : "mdd context"</text><line style="stroke:#181818;stroke-width:0.5;" x1="869.97" x2="1071.3011" y1="142.5742" y2="142.5742"/></g><g class="entity" data-qualified-name="GMN8" data-source-line="37" id="ent0009"><path d="M234.87,244.9983 L234.87,276.6183 L200.54,280.6183 L234.87,284.6183 L234.87,316.2405 A0,0 0 0 0 234.87,316.2405 L554.4003,316.2405 A0,0 0 0 0 554.4003,316.2405 L554.4003,254.9983 L544.4003,244.9983 L234.87,244.9983 A0,0 0 0 0 234.87,244.9983" fill="#FEFFDD" style="stroke:#181818;stroke-width:0.5;"/><path d="M544.4003,244.9983 L544.4003,254.9983 L554.4003,254.9983 L544.4003,244.9983" fill="#FEFFDD" style="stroke:#181818;stroke-width:0.5;"/><text fill="#000000" font-family="sans-serif" font-size="13" lengthAdjust="spacing" textLength="298.5303" x="240.87" y="262.5666">resolve(): the explicit source_revision when set,</text><text fill="#000000" font-family="sans-serif" font-size="13" lengthAdjust="spacing" textLength="297.2227" x="240.87" y="277.8772">otherwise the last commit touching the current</text><text fill="#000000" font-family="sans-serif" font-size="13" lengthAdjust="spacing" textLength="289.0786" x="240.87" y="293.1877">diagrams (git log over .mdd/models/current).</text><text fill="#000000" font-family="sans-serif" font-size="13" lengthAdjust="spacing" textLength="246.0225" x="240.87" y="308.4983">Absent only when no git history exists.</text></g><g class="entity" data-qualified-name="GMN11" data-source-line="44" id="ent0012"><path d="M780.51,260.3083 L780.51,300.9294 A0,0 0 0 0 780.51,300.9294 L1160.7493,300.9294 A0,0 0 0 0 1160.7493,300.9294 L1160.7493,270.3083 L1150.7493,260.3083 L974.63,260.3083 L970.63,150.9083 L966.63,260.3083 L780.51,260.3083 A0,0 0 0 0 780.51,260.3083" fill="#FEFFDD" style="stroke:#181818;stroke-width:0.5;"/><path d="M1150.7493,260.3083 L1150.7493,270.3083 L1160.7493,270.3083 L1150.7493,260.3083" fill="#FEFFDD" style="stroke:#181818;stroke-width:0.5;"/><text fill="#000000" font-family="sans-serif" font-size="13" lengthAdjust="spacing" textLength="293.4839" x="786.51" y="277.8766">Merged into .claude/settings.json by mdd init;</text><text fill="#000000" font-family="sans-serif" font-size="13" lengthAdjust="spacing" textLength="359.2393" x="786.51" y="293.1872">removed by mdd clean. Idempotent, keyed by command.</text></g><!--reverse link SessionContext to TocEntry--><g class="link" data-entity-1="ent0002" data-entity-2="ent0003" data-link-type="aggregation" data-source-line="33" id="lnk6"><path codeLine="33" d="M544.0295,159.2778 C568.7095,183.2978 589.29,203.3483 613.96,227.3583" fill="none" id="SessionContext-backto-TocEntry" style="stroke:#181818;stroke-width:1;"/><polygon fill="none" points="535.43,150.9083,536.9399,157.9595,544.0295,159.2778,542.5196,152.2265,535.43,150.9083" style="stroke:#181818;stroke-width:1;"/><text fill="#000000" font-family="sans-serif" font-size="13" lengthAdjust="spacing" textLength="8.2202" x="533.8247" y="171.2964">1</text><text fill="#000000" font-family="sans-serif" font-size="13" lengthAdjust="spacing" textLength="6.2651" x="600.3626" y="216.7838">*</text></g><!--link SessionContext to MapBaseline--><g class="link" data-entity-1="ent0002" data-entity-2="ent0004" data-link-type="dependency" data-source-line="34" id="lnk7"><path codeLine="34" d="M413.18,131.3183 C352.33,160.4683 268.2913,200.7363 201.1713,232.8863" fill="none" id="SessionContext-to-MapBaseline" style="stroke:#181818;stroke-width:1;stroke-dasharray:7,7;"/><polygon fill="#181818" points="195.76,235.4783,205.6049,235.1979,200.2694,233.3183,202.1489,227.9828,195.76,235.4783" style="stroke:#181818;stroke-width:1;"/><text fill="#000000" font-family="sans-serif" font-size="13" lengthAdjust="spacing" textLength="158.7168" x="304.97" y="194.1366">freshness via map_status</text></g><?plantuml-src VLNRRjj647tNLmpq4gcHQ0Ve4vqOSHmLDb9RWUM70a7XhCYHj36vo-ukPHD1W7v4lx1VqZDBKf7bf0-MoRtCp3bpvl05lTNvwFtyQhgOBHQNy-lf-VpwTlR7xNZmWjxcxBCVRKveUBjXMZhDAstMLAcci2gdZyv-uIoagMVljJLtcJM17yDeJ8v3xOmdPNBwNEOvTLkVgNBQ19-IeeUDBNXQgeg2MXPCTjMUmZQDh66wjTdC1DTGnKwsCgu2tMk4d9xYlJQXkoCRRIx0ynFAsUajvxHojgG4wO-GPKnLKUCKLjbl34gcBRjSPu5AxPnr_OKhLIs22hM_uSgwGAC0yF4IhGgrZdbofrU12kt3EA7BiYguHDs8e2J3ekNZlCLCFhWQMRGXb3BDa2aPHiAxNboTVPo-ErlCVh-ydZrjnFvEruNlrI-LvqA39u2xyx5YolLgvIECX6xOsw8EA8HS3Nv7MPFXt_7ngr_7uDyGFrQ5pZGAjBNB-CxnLalTKcdF6lwCNh4FILCMzA2DFq7Zs91QUY3kkIP4YUIjyG0EXB92-O3kb2MMmaRXnzRP1Xp9PbOxX_jJhtD6rMhjL8dEEQwzI4oEy2FebHV4VEaRGzb6cJNda1dki5a3UqBN5lospTDSvAGzWlnLQrcHJXaRDX84wmzE1yWBTL22c1r3M_Qoqk8XQugc1OWI7CirOoEgZPOy3JKCIK20lztC5XSJsUqRCNxQrdwABkRp3p-UBzdfsYhA0DKA-EYyK3KGdWlCJaeG99IuiVOUm6Ka8g4oMDgWjfBT6Z0mMO2MnUj7deEmvvCltfgKGbFn6-a6I9bGz_3coMmc52kHM88RdIahA_COYRpd1hKjc_ukL0Ecfp6_OOmIvRNeIGMf99p4wY0u2CrnQOLcVbHPAAHuX6znI22SaLrb6gezkwcgmoPsLF1wmfotmcdfdI_5T4HpkIsL31LuAcXb7O4z5Dkv4Isj3HWz-Ck-yfD1q04lPpyv--_V__I1HxPFDHuCm2fcxc2oNx_UggBcqrFwEY1w2HrbbEvywzEVSR6rZbHo21jnhVMFLBpclJpYwBS-nyxs3gD7wyCTmVi1pt6nix-xrWzJqK1Sr_cJfLrqP7pN6yTXWfqXf1YDpWi-7IV9gnQ8QyS5zlvy_zi1GnSYrMVnjnmB6kwhUjWo1tdAJYUkOOUjLHhMztGwb6G7ZHY-6fATJcduot37t-6P93bzWZxT_n9ejMUZWm5SWydfzIP-OlPkeQuT3MbdKpznqUWYcC89xbXnamVj-RapYhPxo-jS4HTwIwIHU4zXrsHbn5fR5W7ue-um54rqTkXU1wOLlTGd0suTaJk4Ini2J1iGzzg6S5VY0Vd_-8duGEy-9v4JcV2yNuvZZm_Zpa4cp-pZUot_0G00?></g></svg>