<svg xmlns="http://www.w3.org/2000/svg" xmlns:xlink="http://www.w3.org/1999/xlink" contentStyleType="text/css" data-diagram-type="CLASS" height="702px" preserveAspectRatio="none" style="width:598px;height:702px;background:#FFFFFF;" version="1.1" viewBox="0 0 598 702" width="598px" zoomAndPan="magnify"><?plantuml 1.2026.3?><defs/><g><g class="title" data-source-line="10"><text fill="#000000" font-family="sans-serif" font-size="14" font-weight="700" lengthAdjust="spacing" textLength="277.71" x="156.7738" y="23.5352">MDD traceability &#8212; domain (objective)</text></g><!--class SymbolSpan--><g class="entity" data-qualified-name="SymbolSpan" data-source-line="12" id="ent0002"><rect fill="#F1F1F1" height="130.4414" rx="2.5" ry="2.5" style="stroke:#181818;stroke-width:0.5;" width="149.0879" x="87.68" y="409.9083"/><ellipse cx="118.4001" cy="425.9083" fill="#ADD1B2" rx="11" ry="11" style="stroke:#181818;stroke-width:1;"/><path d="M120.8733,432.0513 Q120.2922,432.3502 119.653,432.4996 Q119.0139,432.649 118.3083,432.649 Q115.8015,432.649 114.4817,430.9971 Q113.1618,429.3453 113.1618,426.2242 Q113.1618,423.0948 114.4817,421.4429 Q115.8015,419.7911 118.3083,419.7911 Q119.0139,419.7911 119.6613,419.9405 Q120.3088,420.0899 120.8733,420.3887 L120.8733,423.1114 Q120.2424,422.5304 119.6489,422.2606 Q119.0554,421.9908 118.4245,421.9908 Q117.0798,421.9908 116.395,423.0575 Q115.7102,424.1241 115.7102,426.2242 Q115.7102,428.316 116.395,429.3826 Q117.0798,430.4493 118.4245,430.4493 Q119.0554,430.4493 119.6489,430.1795 Q120.2424,429.9097 120.8733,429.3287 Z " fill="#000000"/><text fill="#000000" font-family="sans-serif" font-size="14" lengthAdjust="spacing" textLength="82.1543" x="135.8935" y="431.1993">SymbolSpan</text><line style="stroke:#181818;stroke-width:0.5;" x1="88.68" x2="235.7679" y1="441.9083" y2="441.9083"/><g data-visibility-modifier="PUBLIC_FIELD"><ellipse cx="98.68" cy="455.6524" fill="none" rx="3" ry="3" style="stroke:#038048;stroke-width:1;"/></g><text fill="#000000" font-family="sans-serif" font-size="14" lengthAdjust="spacing" textLength="83.7266" x="107.68" y="459.4434">path : String</text><g data-visibility-modifier="PUBLIC_FIELD"><ellipse cx="98.68" cy="472.1407" fill="none" rx="3" ry="3" style="stroke:#038048;stroke-width:1;"/></g><text fill="#000000" font-family="sans-serif" font-size="14" lengthAdjust="spacing" textLength="102.2383" x="107.68" y="475.9317">symbol : String</text><g data-visibility-modifier="PUBLIC_FIELD"><ellipse cx="98.68" cy="488.629" fill="none" rx="3" ry="3" style="stroke:#038048;stroke-width:1;"/></g><text fill="#000000" font-family="sans-serif" font-size="14" lengthAdjust="spacing" textLength="102.334" x="107.68" y="492.42">line_start : u32</text><g data-visibility-modifier="PUBLIC_FIELD"><ellipse cx="98.68" cy="505.1173" fill="none" rx="3" ry="3" style="stroke:#038048;stroke-width:1;"/></g><text fill="#000000" font-family="sans-serif" font-size="14" lengthAdjust="spacing" textLength="96.5645" x="107.68" y="508.9083">line_end : u32</text><g data-visibility-modifier="PUBLIC_FIELD"><ellipse cx="98.68" cy="521.6055" fill="none" rx="3" ry="3" style="stroke:#038048;stroke-width:1;"/></g><text fill="#000000" font-family="sans-serif" font-size="14" lengthAdjust="spacing" textLength="123.0879" x="107.68" y="525.3966">kind : SymbolKind</text><line style="stroke:#181818;stroke-width:0.5;" x1="88.68" x2="235.7679" y1="532.3497" y2="532.3497"/></g><!--class SourceLink--><g class="entity" data-qualified-name="SourceLink" data-source-line="20" id="ent0003"><rect fill="#F1F1F1" height="97.4648" rx="2.5" ry="2.5" style="stroke:#181818;stroke-width:0.5;" width="196.7549" x="63.84" y="235.4383"/><ellipse cx="121.0124" cy="251.4383" fill="#ADD1B2" rx="11" ry="11" style="stroke:#181818;stroke-width:1;"/><path d="M123.4855,257.5813 Q122.9045,257.8802 122.2653,258.0296 Q121.6261,258.179 120.9206,258.179 Q118.4137,258.179 117.0939,256.5271 Q115.7741,254.8753 115.7741,251.7542 Q115.7741,248.6248 117.0939,246.9729 Q118.4137,245.3211 120.9206,245.3211 Q121.6261,245.3211 122.2736,245.4705 Q122.9211,245.6199 123.4855,245.9188 L123.4855,248.6414 Q122.8546,248.0604 122.2611,247.7906 Q121.6676,247.5208 121.0368,247.5208 Q119.6921,247.5208 119.0072,248.5875 Q118.3224,249.6541 118.3224,251.7542 Q118.3224,253.846 119.0072,254.9126 Q119.6921,255.9793 121.0368,255.9793 Q121.6676,255.9793 122.2611,255.7095 Q122.8546,255.4397 123.4855,254.8587 Z " fill="#000000"/><text fill="#000000" font-family="sans-serif" font-size="14" lengthAdjust="spacing" textLength="73.9102" x="141.5124" y="256.7293">SourceLink</text><line style="stroke:#181818;stroke-width:0.5;" x1="64.84" x2="259.5949" y1="267.4383" y2="267.4383"/><g data-visibility-modifier="PUBLIC_FIELD"><ellipse cx="74.84" cy="281.1824" fill="none" rx="3" ry="3" style="stroke:#038048;stroke-width:1;"/></g><text fill="#000000" font-family="sans-serif" font-size="14" lengthAdjust="spacing" textLength="115.4453" x="83.84" y="284.9734">model_id : String</text><g data-visibility-modifier="PUBLIC_FIELD"><ellipse cx="74.84" cy="297.6707" fill="none" rx="3" ry="3" style="stroke:#038048;stroke-width:1;"/></g><text fill="#000000" font-family="sans-serif" font-size="14" lengthAdjust="spacing" textLength="83.7266" x="83.84" y="301.4617">path : String</text><g data-visibility-modifier="PUBLIC_FIELD"><ellipse cx="74.84" cy="314.159" fill="none" rx="3" ry="3" style="stroke:#038048;stroke-width:1;"/></g><text fill="#000000" font-family="sans-serif" font-size="14" lengthAdjust="spacing" textLength="170.7549" x="83.84" y="317.95">symbol : Option&lt;String&gt;</text><line style="stroke:#181818;stroke-width:0.5;" x1="64.84" x2="259.5949" y1="324.9031" y2="324.9031"/></g><!--class TraceReport--><g class="entity" data-qualified-name="TraceReport" data-source-line="26" id="ent0004"><rect fill="#F1F1F1" height="113.9531" rx="2.5" ry="2.5" style="stroke:#181818;stroke-width:0.5;" width="289.3477" x="204.55" y="44.4883"/><ellipse cx="303.8181" cy="60.4883" fill="#ADD1B2" rx="11" ry="11" style="stroke:#181818;stroke-width:1;"/><path d="M306.2912,66.6313 Q305.7102,66.9302 305.071,67.0796 Q304.4318,67.229 303.7263,67.229 Q301.2194,67.229 299.8996,65.5771 Q298.5798,63.9253 298.5798,60.8042 Q298.5798,57.6748 299.8996,56.0229 Q301.2194,54.3711 303.7263,54.3711 Q304.4318,54.3711 305.0793,54.5205 Q305.7268,54.6699 306.2912,54.9688 L306.2912,57.6914 Q305.6604,57.1104 305.0668,56.8406 Q304.4733,56.5708 303.8425,56.5708 Q302.4978,56.5708 301.8129,57.6375 Q301.1281,58.7041 301.1281,60.8042 Q301.1281,62.896 301.8129,63.9626 Q302.4978,65.0293 303.8425,65.0293 Q304.4733,65.0293 305.0668,64.7595 Q305.6604,64.4897 306.2912,63.9087 Z " fill="#000000"/><text fill="#000000" font-family="sans-serif" font-size="14" lengthAdjust="spacing" textLength="82.3115" x="324.3181" y="65.7793">TraceReport</text><line style="stroke:#181818;stroke-width:0.5;" x1="205.55" x2="492.8977" y1="76.4883" y2="76.4883"/><g data-visibility-modifier="PUBLIC_FIELD"><ellipse cx="215.55" cy="90.2324" fill="none" rx="3" ry="3" style="stroke:#038048;stroke-width:1;"/></g><text fill="#000000" font-family="sans-serif" font-size="14" lengthAdjust="spacing" textLength="248.1924" x="224.55" y="94.0234">forward_errors : Vec&lt;ForwardError&gt;</text><g data-visibility-modifier="PUBLIC_FIELD"><ellipse cx="215.55" cy="106.7207" fill="none" rx="3" ry="3" style="stroke:#038048;stroke-width:1;"/></g><text fill="#000000" font-family="sans-serif" font-size="14" lengthAdjust="spacing" textLength="263.0195" x="224.55" y="110.5117">reverse_bucket_a : Vec&lt;ReverseWarn&gt;</text><g data-visibility-modifier="PUBLIC_FIELD"><ellipse cx="215.55" cy="123.209" fill="none" rx="3" ry="3" style="stroke:#038048;stroke-width:1;"/></g><text fill="#000000" font-family="sans-serif" font-size="14" lengthAdjust="spacing" textLength="263.3477" x="224.55" y="127">reverse_bucket_b : Vec&lt;ReverseError&gt;</text><g data-visibility-modifier="PUBLIC_FIELD"><ellipse cx="215.55" cy="139.6973" fill="none" rx="3" ry="3" style="stroke:#038048;stroke-width:1;"/></g><text fill="#000000" font-family="sans-serif" font-size="14" lengthAdjust="spacing" textLength="101.8555" x="224.55" y="143.4883">matched : bool</text><line style="stroke:#181818;stroke-width:0.5;" x1="205.55" x2="492.8977" y1="150.4414" y2="150.4414"/></g><g class="entity" data-qualified-name="GMN7" data-source-line="37" id="ent0008"><path d="M6,601.3483 L6,687.901 A0,0 0 0 0 6,687.901 L318.4399,687.901 A0,0 0 0 0 318.4399,687.901 L318.4399,611.3483 L308.4399,601.3483 L166.22,601.3483 L162.22,540.4083 L158.22,601.3483 L6,601.3483 A0,0 0 0 0 6,601.3483" fill="#FEFFDD" style="stroke:#181818;stroke-width:0.5;"/><path d="M308.4399,601.3483 L308.4399,611.3483 L318.4399,611.3483 L308.4399,601.3483" fill="#FEFFDD" style="stroke:#181818;stroke-width:0.5;"/><text fill="#000000" font-family="sans-serif" font-size="13" lengthAdjust="spacing" textLength="243.1533" x="12" y="618.9166">Built by syn::parse_file + proc-macro2</text><text fill="#000000" font-family="sans-serif" font-size="13" lengthAdjust="spacing" textLength="291.4399" x="12" y="634.2272">span-locations. A changed line range maps to</text><text fill="#000000" font-family="sans-serif" font-size="13" lengthAdjust="spacing" textLength="276.415" x="12" y="649.5377">the SymbolSpan whose [line_start, line_end]</text><text fill="#000000" font-family="sans-serif" font-size="13" lengthAdjust="spacing" textLength="269.9214" x="12" y="664.8483">contains it; lines outside any span are glue</text><text fill="#000000" font-family="sans-serif" font-size="13" lengthAdjust="spacing" textLength="94.6499" x="12" y="680.1588">(escape hatch).</text></g><g class="entity" data-qualified-name="GMN10" data-source-line="45" id="ent0011"><path d="M295.18,248.5483 L295.18,319.7905 A0,0 0 0 0 295.18,319.7905 L583.2576,319.7905 A0,0 0 0 0 583.2576,319.7905 L583.2576,258.5483 L573.2576,248.5483 L425.73,248.5483 L377.2,158.6483 L417.73,248.5483 L295.18,248.5483 A0,0 0 0 0 295.18,248.5483" fill="#FEFFDD" style="stroke:#181818;stroke-width:0.5;"/><path d="M573.2576,248.5483 L573.2576,258.5483 L583.2576,258.5483 L573.2576,248.5483" fill="#FEFFDD" style="stroke:#181818;stroke-width:0.5;"/><text fill="#000000" font-family="sans-serif" font-size="13" lengthAdjust="spacing" textLength="267.0776" x="301.18" y="266.1166">matched = forward_errors.is_empty() AND</text><text fill="#000000" font-family="sans-serif" font-size="13" lengthAdjust="spacing" textLength="219.1782" x="301.18" y="281.4272">reverse_bucket_b.is_empty() under</text><text fill="#000000" font-family="sans-serif" font-size="13" lengthAdjust="spacing" textLength="266.1509" x="301.18" y="296.7377">traceability.parity_check = error; bucket A</text><text fill="#000000" font-family="sans-serif" font-size="13" lengthAdjust="spacing" textLength="215.3062" x="301.18" y="312.0483">is informational (warn) either way.</text></g><!--link SourceLink to SymbolSpan--><g class="link" data-entity-1="ent0003" data-entity-2="ent0002" data-link-type="dependency" data-source-line="33" id="lnk5"><path codeLine="33" d="M162.22,333.3383 C162.22,356.5183 162.22,378.6383 162.22,403.6383" fill="none" id="SourceLink-to-SymbolSpan" style="stroke:#181818;stroke-width:1;stroke-dasharray:7,7;"/><polygon fill="#181818" points="162.22,409.6383,166.22,400.6383,162.22,404.6383,158.22,400.6383,162.22,409.6383" style="stroke:#181818;stroke-width:1;"/><polygon fill="#000000" points="167.22,376.5636,170.1589,367.5185,164.2811,367.5185,167.22,376.5636" style="stroke:#000000;stroke-width:1;"/><text fill="#000000" font-family="sans-serif" font-size="13" lengthAdjust="spacing" textLength="68.4912" x="176.22" y="376.4766">resolves to</text><text fill="#000000" font-family="sans-serif" font-size="13" lengthAdjust="spacing" textLength="8.2202" x="153.6976" y="353.5422">1</text><text fill="#000000" font-family="sans-serif" font-size="13" lengthAdjust="spacing" textLength="24.667" x="136.9435" y="399.2403">0..1</text></g><!--reverse link TraceReport to SourceLink--><g class="link" data-entity-1="ent0004" data-entity-2="ent0003" data-link-type="aggregation" data-source-line="34" id="lnk6"><path codeLine="34" d="M282.1909,167.2373 C256.9009,191.6773 236.23,211.6483 211.99,235.0683" fill="none" id="TraceReport-backto-SourceLink" style="stroke:#181818;stroke-width:1;"/><polygon fill="none" points="290.82,158.8983,283.7258,160.1914,282.1909,167.2373,289.2851,165.9441,290.82,158.8983" style="stroke:#181818;stroke-width:1;"/><polygon fill="#000000" points="257.1243,200.5679,265.6711,196.3963,261.5868,192.1693,257.1243,200.5679" style="stroke:#000000;stroke-width:1;"/><text fill="#000000" font-family="sans-serif" font-size="13" lengthAdjust="spacing" textLength="45.4556" x="269.72" y="202.0066">verifies</text><text fill="#000000" font-family="sans-serif" font-size="13" lengthAdjust="spacing" textLength="8.2202" x="275.6173" y="178.9925">1</text><text fill="#000000" font-family="sans-serif" font-size="13" lengthAdjust="spacing" textLength="6.2651" x="212.586" y="224.6988">*</text></g><?plantuml-src XLRTRjis6BttKtpmJUpDLjBsJkwokaqs14tYmCuw34KXK1HjSv58WQII6a60FSIUS4-oGqgoPTVhhYoHdxxVSyxd4tediy75x6Qy-EFc_UnwlBYRtWvx9_Gk4vOVNeoeFoMkCq5sKwGwfrnpvaH6wORSsfyg4cebbOZfcKhcrgF6SaGvJXFhc77Dir3PY1waokWbQlr9IumoxRnF_paDHBIAw2RBFadn94p4oZBV98XL2DA6xep-Kt0N6V68-yGPnWLBPIxTPaXf9ND7IwEBa9XqeY352c7fHv95cPCL-NBiDgMOr7aWkbRmkwIbEhNELDoT2bKLfzxwb6jbyUvuvCDc5Q_h_d1pDxwVJpzSZYzlVxswlTm6ZEEI6IkIfSm58fP6yt71kD6loPPCZKFl99nEgBBmvJGDs92Ci3f_5EY3rPNX8a6p7avisw6bDa_Ce7CC2G_I8IrzvhxvGl5SMwbM7LDuuMkcLd3lUqx6FoF4eq1cKJyCkfb_NSFyycuslzy7GFS629XLZkiYjAbfVnmVwVzWw37Gf9i8OxInCNqU581FdaXKqCN7yCkeJIj9A_uWNCAyTTScqIOnOeMMULjcjJhoLNhubRSfcEDhaSMKQlG5S6iEwAU314aKfTlGzFRY6x_DrU1fBHHr2uqmPlmaSCWVu35u6aRqYyupX90AWvs7_in5gOqZPiEyt5eQZt8B0FXtD3N5ZB8zuwZD52bPkhgWEXYA4xpoJzi35c0WxVvK5xFVvXZUzTNjnmDMxoumqtkFdw_IEW-VK5oqANBqW6la-4p7X_OplT1AFg8VZD0ikPH8j11CUIz14i0elk6vYBOU6efBjZAiy6bEQg8p12lrs8WSf03yQ_2J9y-a1JHJf4jF6PQt8j7S11SrSrWAkY7uWNH5D0F-4G-ptz2Q8KJ1rCRJuW432C-ujU7Qhfdn3Dm7aXzf04lJyxPce8RnDho0imOwhHdN_hL3nIRfW2JhgTHGV3zS0r8BuQfdEaizsT2SiPMGu4mNJAh0yW2d3YGR4QP1Q3wTdRrwCupXeTRe4BoLQwY7-4eRAVBCZdQEkkENRblf24vOepUcHhD_N649U87pecYZdfCEKMykBlQJ-kUllzka1xgjPTZhyHmSe4N8Qm5bfESUUS7qCurfuGpW54wQrFVETci5vzMRrxj3x9VEKH3uk8do4I-zbsta0BLhpA29lCNgNgJlv3CBg7nRNvtlFD_xyXlMrwuFv2QcJuA_RM1rwS_EWzcX53Q6y_huTsRKKRjqtwxZi9MHMW9zXfsg-w_w54Ndr3-B8Zns9X5lKUtNqtclMv3_Ie_7rF-XtsrXlAF5UQ-dD92HWglOYLWOEzV8wdtOpw3gTvSb3FVNPKJJOqkjOALF4kOUaPqQdjOQNFnyxF_75rXZhJj0qjDi4Yxm9w1oWM5U4tniycgmoYi1ym44b9K22eA63gEUHvalyfjIEwt2P_-rS29fax1O1aClyR0y76dNeW9PZQ_m_zRFXEhFQGfhAAvK25kmHZi7I40DIKXqoj0Js-pA-1S0?></g></svg>