<svg xmlns="http://www.w3.org/2000/svg" xmlns:xlink="http://www.w3.org/1999/xlink" contentStyleType="text/css" data-diagram-type="SALT" height="280px" preserveAspectRatio="none" style="width:1257px;height:280px;background:#FFFFFF;" version="1.1" viewBox="0 0 1257 280" width="1257px" zoomAndPan="magnify"><?plantuml 1.2026.3?><defs/><g><g class="title" data-source-line="11"><text fill="#000000" font-family="sans-serif" font-size="14" font-weight="700" lengthAdjust="spacing" textLength="312.3545" x="471.6899" y="28.5352">mdd viewer &#8212; cycle-aware layout (current)</text></g><text fill="#000000" font-family="sans-serif" font-size="12" lengthAdjust="spacing" textLength="26.3086" x="7" y="56.0898">mdd</text><text fill="#000000" font-family="sans-serif" font-size="12" lengthAdjust="spacing" textLength="97.6582" x="35.3086" y="56.0898">/path/to/project</text><line style="stroke:#AAAAAA;stroke-width:1;" x1="6" x2="1251.7344" y1="65.1211" y2="65.1211"/><text fill="#000000" font-family="sans-serif" font-size="12" lengthAdjust="spacing" textLength="48.0117" x="11" y="83.2227">MODELS</text><line style="stroke:#000000;stroke-width:1;" x1="9" x2="60.0117" y1="85.7539" y2="85.7539"/><line style="stroke:#000000;stroke-width:1;" x1="9" x2="9" y1="82.7539" y2="84.7539"/><line style="stroke:#000000;stroke-width:1;" x1="60.0117" x2="60.0117" y1="82.7539" y2="84.7539"/><rect fill="#EEEEEE" height="18.1328" rx="5" ry="5" style="stroke:#000000;stroke-width:2.5;" width="76" x="10.5" y="92.2539"/><text fill="#000000" font-family="sans-serif" font-size="12" lengthAdjust="spacing" textLength="53.2383" x="21.8809" y="105.8555">Directory</text><rect fill="#EEEEEE" height="18.1328" rx="5" ry="5" style="stroke:#000000;stroke-width:2.5;" width="68" x="216.3926" y="92.2539"/><text fill="#000000" font-family="sans-serif" font-size="12" lengthAdjust="spacing" textLength="45.6855" x="227.5498" y="105.8555">By cycle</text><text fill="#000000" font-family="sans-serif" font-size="12" lengthAdjust="spacing" textLength="78.7969" x="18" y="126.4883">.mdd/models</text><text fill="#000000" font-family="sans-serif" font-size="12" lengthAdjust="spacing" textLength="42.0352" x="28" y="140.6211">current</text><text fill="#000000" font-family="sans-serif" font-size="12" lengthAdjust="spacing" textLength="58.8867" x="38" y="154.7539">use-cases</text><text fill="#000000" font-family="sans-serif" font-size="12" lengthAdjust="spacing" textLength="116.7129" x="48" y="168.8867">cycle-tracking.puml</text><text fill="#000000" font-family="sans-serif" font-size="12" lengthAdjust="spacing" textLength="60.8848" x="38" y="183.0195">sequences</text><text fill="#000000" font-family="sans-serif" font-size="12" lengthAdjust="spacing" textLength="52.2598" x="28" y="197.1523">objective</text><text fill="#000000" font-family="sans-serif" font-size="12" lengthAdjust="spacing" textLength="158.0742" x="18" y="211.2852">Cycle 0001 &#8212; slug (closed)</text><text fill="#000000" font-family="sans-serif" font-size="12" lengthAdjust="spacing" textLength="181.8926" x="28" y="225.418">use-cases/cycle-tracking.puml</text><text fill="#000000" font-family="sans-serif" font-size="12" lengthAdjust="spacing" textLength="67.2598" x="18" y="239.5508">Unassigned</text><rect fill="none" height="2" style="stroke:#888888;stroke-width:1;" width="2" x="11" y="120.9531"/><rect fill="none" height="2" style="stroke:#888888;stroke-width:1;" width="2" x="21" y="135.0859"/><line style="stroke:#888888;stroke-width:1;" x1="12" x2="12" y1="123.9531" y2="136.0859"/><line style="stroke:#888888;stroke-width:1;" x1="12" x2="20" y1="136.0859" y2="136.0859"/><rect fill="none" height="2" style="stroke:#888888;stroke-width:1;" width="2" x="31" y="149.2188"/><line style="stroke:#888888;stroke-width:1;" x1="22" x2="22" y1="138.0859" y2="150.2188"/><line style="stroke:#888888;stroke-width:1;" x1="22" x2="30" y1="150.2188" y2="150.2188"/><line style="stroke:#888888;stroke-width:1;" x1="32" x2="32" y1="152.2188" y2="164.3516"/><line style="stroke:#888888;stroke-width:1;" x1="32" x2="40" y1="164.3516" y2="164.3516"/><line style="stroke:#888888;stroke-width:1;" x1="22" x2="22" y1="138.0859" y2="178.4844"/><line style="stroke:#888888;stroke-width:1;" x1="22" x2="30" y1="178.4844" y2="178.4844"/><line style="stroke:#888888;stroke-width:1;" x1="12" x2="12" y1="123.9531" y2="192.6172"/><line style="stroke:#888888;stroke-width:1;" x1="12" x2="20" y1="192.6172" y2="192.6172"/><rect fill="none" height="2" style="stroke:#888888;stroke-width:1;" width="2" x="11" y="205.75"/><line style="stroke:#888888;stroke-width:1;" x1="12" x2="12" y1="208.75" y2="220.8828"/><line style="stroke:#888888;stroke-width:1;" x1="12" x2="20" y1="220.8828" y2="220.8828"/><rect fill="#EEEEEE" height="18.1328" rx="5" ry="5" style="stroke:#000000;stroke-width:2.5;" width="60" x="294.3926" y="75.1211"/><text fill="#000000" font-family="sans-serif" font-size="12" lengthAdjust="spacing" textLength="49.3066" x="299.7393" y="88.7227">Diagram</text><rect fill="#EEEEEE" height="18.1328" rx="5" ry="5" style="stroke:#000000;stroke-width:2.5;" width="44" x="361.3926" y="75.1211"/><text fill="#000000" font-family="sans-serif" font-size="12" lengthAdjust="spacing" textLength="35.209" x="365.7881" y="88.7227">Graph</text><rect fill="#EEEEEE" height="18.1328" rx="5" ry="5" style="stroke:#000000;stroke-width:2.5;" width="44" x="412.3926" y="75.1211"/><ellipse cx="423.252" cy="83.7539" fill="#000000" rx="2.5" ry="2.5"/><text fill="#000000" font-family="sans-serif" font-size="12" lengthAdjust="spacing" textLength="21.2813" x="429.752" y="88.7227">Diff</text><line style="stroke:#AAAAAA;stroke-width:1;" x1="290.8926" x2="657.8926" y1="102.2539" y2="102.2539"/><text fill="#000000" font-family="sans-serif" font-size="12" lengthAdjust="spacing" textLength="175.7871" x="293.8926" y="118.3555">CYCLE  [0001 &#8212; slug (closed)]</text><line style="stroke:#000000;stroke-width:1;" x1="291.8926" x2="526.8926" y1="120.8867" y2="120.8867"/><line style="stroke:#000000;stroke-width:1;" x1="291.8926" x2="291.8926" y1="117.8867" y2="119.8867"/><line style="stroke:#000000;stroke-width:1;" x1="526.8926" x2="526.8926" y1="117.8867" y2="119.8867"/><line style="stroke:#AAAAAA;stroke-width:1;" x1="290.8926" x2="657.8926" y1="128.3867" y2="128.3867"/><text fill="#000000" font-family="sans-serif" font-size="12" lengthAdjust="spacing" textLength="289.9219" x="293.8926" y="144.4883">diagram name &#8212; N shared &#183; N added &#183; N removed</text><line style="stroke:#000000;stroke-width:1;" x1="291.8926" x2="654.8926" y1="147.0195" y2="147.0195"/><line style="stroke:#000000;stroke-width:1;" x1="291.8926" x2="291.8926" y1="144.0195" y2="146.0195"/><line style="stroke:#000000;stroke-width:1;" x1="654.8926" x2="654.8926" y1="144.0195" y2="146.0195"/><text fill="#000000" font-family="sans-serif" font-size="12" lengthAdjust="spacing" textLength="89.8008" x="294.8926" y="163.6211">shared element</text><line style="stroke:#000000;stroke-width:1;" x1="292.8926" x2="423.8926" y1="166.1523" y2="166.1523"/><line style="stroke:#000000;stroke-width:1;" x1="292.8926" x2="292.8926" y1="163.1523" y2="165.1523"/><line style="stroke:#000000;stroke-width:1;" x1="423.8926" x2="423.8926" y1="163.1523" y2="165.1523"/><text fill="#008000" font-family="sans-serif" font-size="12" lengthAdjust="spacing" textLength="124.7578" x="294.8926" y="181.7539">+ added by this cycle</text><line style="stroke:#000000;stroke-width:1;" x1="292.8926" x2="463.8926" y1="184.2852" y2="184.2852"/><line style="stroke:#000000;stroke-width:1;" x1="292.8926" x2="292.8926" y1="181.2852" y2="183.2852"/><line style="stroke:#000000;stroke-width:1;" x1="463.8926" x2="463.8926" y1="181.2852" y2="183.2852"/><text fill="#FF0000" font-family="sans-serif" font-size="12" lengthAdjust="spacing" textLength="136.8105" x="294.8926" y="199.8867">- removed by this cycle</text><line style="stroke:#000000;stroke-width:1;" x1="292.8926" x2="479.8926" y1="202.418" y2="202.418"/><line style="stroke:#000000;stroke-width:1;" x1="292.8926" x2="292.8926" y1="199.418" y2="201.418"/><line style="stroke:#000000;stroke-width:1;" x1="479.8926" x2="479.8926" y1="199.418" y2="201.418"/><text fill="#000000" font-family="sans-serif" font-size="12" lengthAdjust="spacing" textLength="101.0273" x="663.8926" y="83.2227">MODEL CONTEXT</text><line style="stroke:#000000;stroke-width:1;" x1="661.8926" x2="768.8926" y1="85.7539" y2="85.7539"/><line style="stroke:#000000;stroke-width:1;" x1="661.8926" x2="661.8926" y1="82.7539" y2="84.7539"/><line style="stroke:#000000;stroke-width:1;" x1="768.8926" x2="768.8926" y1="82.7539" y2="84.7539"/><line style="stroke:#AAAAAA;stroke-width:1;" x1="660.8926" x2="957.8926" y1="93.2539" y2="93.2539"/><text fill="#000000" font-family="sans-serif" font-size="12" lengthAdjust="spacing" textLength="18.0352" x="663.8926" y="109.3555">file</text><line style="stroke:#000000;stroke-width:1;" x1="661.8926" x2="696.8926" y1="111.8867" y2="111.8867"/><line style="stroke:#000000;stroke-width:1;" x1="661.8926" x2="661.8926" y1="108.8867" y2="110.8867"/><line style="stroke:#000000;stroke-width:1;" x1="696.8926" x2="696.8926" y1="108.8867" y2="110.8867"/><text fill="#000000" font-family="sans-serif" font-size="12" lengthAdjust="spacing" textLength="116.7129" x="959.8926" y="110.3555">cycle-tracking.puml</text><text fill="#000000" font-family="sans-serif" font-size="12" lengthAdjust="spacing" textLength="25.4824" x="663.8926" y="127.4883">kind</text><line style="stroke:#000000;stroke-width:1;" x1="661.8926" x2="696.8926" y1="130.0195" y2="130.0195"/><line style="stroke:#000000;stroke-width:1;" x1="661.8926" x2="661.8926" y1="127.0195" y2="129.0195"/><line style="stroke:#000000;stroke-width:1;" x1="696.8926" x2="696.8926" y1="127.0195" y2="129.0195"/><text fill="#000000" font-family="sans-serif" font-size="12" lengthAdjust="spacing" textLength="49.623" x="959.8926" y="128.4883">use case</text><text fill="#000000" font-family="sans-serif" font-size="12" lengthAdjust="spacing" textLength="96.9199" x="664.8926" y="160.7539">USE-RUN-CYCLE</text><line style="stroke:#000000;stroke-width:1;" x1="662.8926" x2="769.8926" y1="163.2852" y2="163.2852"/><line style="stroke:#000000;stroke-width:1;" x1="662.8926" x2="662.8926" y1="160.2852" y2="162.2852"/><line style="stroke:#000000;stroke-width:1;" x1="769.8926" x2="769.8926" y1="160.2852" y2="162.2852"/><text fill="#000000" font-family="sans-serif" font-size="12" lengthAdjust="spacing" textLength="218.5781" x="664.8926" y="178.8867">Implemented as the /mdd-cycle skill:</text><line style="stroke:#000000;stroke-width:1;" x1="662.8926" x2="953.8926" y1="181.418" y2="181.418"/><line style="stroke:#000000;stroke-width:1;" x1="662.8926" x2="662.8926" y1="178.418" y2="180.418"/><line style="stroke:#000000;stroke-width:1;" x1="953.8926" x2="953.8926" y1="178.418" y2="180.418"/><text fill="#000000" font-family="sans-serif" font-size="12" lengthAdjust="spacing" textLength="211.1602" x="664.8926" y="197.0195">one-shot orchestration of the whole</text><line style="stroke:#000000;stroke-width:1;" x1="662.8926" x2="945.8926" y1="199.5508" y2="199.5508"/><line style="stroke:#000000;stroke-width:1;" x1="662.8926" x2="662.8926" y1="196.5508" y2="198.5508"/><line style="stroke:#000000;stroke-width:1;" x1="945.8926" x2="945.8926" y1="196.5508" y2="198.5508"/><text fill="#000000" font-family="sans-serif" font-size="12" lengthAdjust="spacing" textLength="211.2598" x="664.8926" y="215.1523">MDD loop from a single description.</text><line style="stroke:#000000;stroke-width:1;" x1="662.8926" x2="945.8926" y1="217.6836" y2="217.6836"/><line style="stroke:#000000;stroke-width:1;" x1="662.8926" x2="662.8926" y1="214.6836" y2="216.6836"/><line style="stroke:#000000;stroke-width:1;" x1="945.8926" x2="945.8926" y1="214.6836" y2="216.6836"/><line style="stroke:#000000;stroke-width:1;" x1="660.8926" x2="956.8926" y1="141.0859" y2="141.0859"/><line style="stroke:#000000;stroke-width:1;" x1="660.8926" x2="956.8926" y1="220.6836" y2="220.6836"/><line style="stroke:#000000;stroke-width:1;" x1="660.8926" x2="660.8926" y1="141.0859" y2="166.2852"/><line style="stroke:#000000;stroke-width:1;" x1="956.8926" x2="956.8926" y1="166.2852" y2="184.418"/><line style="stroke:#000000;stroke-width:1;" x1="956.8926" x2="956.8926" y1="141.0859" y2="166.2852"/><line style="stroke:#000000;stroke-width:1;" x1="660.8926" x2="660.8926" y1="202.5508" y2="220.6836"/><line style="stroke:#000000;stroke-width:1;" x1="660.8926" x2="660.8926" y1="184.418" y2="202.5508"/><line style="stroke:#000000;stroke-width:1;" x1="956.8926" x2="956.8926" y1="202.5508" y2="220.6836"/><line style="stroke:#000000;stroke-width:1;" x1="660.8926" x2="660.8926" y1="166.2852" y2="184.418"/><line style="stroke:#000000;stroke-width:1;" x1="956.8926" x2="956.8926" y1="184.418" y2="202.5508"/><rect fill="#FFFFFF" height="14.1328" style="stroke:#FFFFFF;stroke-width:1;" width="77.168" x="666.8926" y="134.0195"/><text fill="#000000" font-family="sans-serif" font-size="12" lengthAdjust="spacing" textLength="77.168" x="666.8926" y="145.6211">DESCRIPTION</text><text fill="#000000" font-family="sans-serif" font-size="12" lengthAdjust="spacing" textLength="18.9082" x="663.8926" y="248.418">IDS</text><line style="stroke:#000000;stroke-width:1;" x1="661.8926" x2="688.8926" y1="250.9492" y2="250.9492"/><line style="stroke:#000000;stroke-width:1;" x1="661.8926" x2="661.8926" y1="247.9492" y2="249.9492"/><line style="stroke:#000000;stroke-width:1;" x1="688.8926" x2="688.8926" y1="247.9492" y2="249.9492"/><text fill="#000000" font-family="sans-serif" font-size="12" lengthAdjust="spacing" textLength="96.9199" x="959.8926" y="249.418">USE-RUN-CYCLE</text><line style="stroke:#AAAAAA;stroke-width:1;stroke-dasharray:1,2;" x1="1058.8125" x2="1069.8125" y1="245.3828" y2="245.3828"/><text fill="#000000" font-family="sans-serif" font-size="12" lengthAdjust="spacing" textLength="38.2617" x="663.8926" y="266.5508">TRACE</text><line style="stroke:#000000;stroke-width:1;" x1="661.8926" x2="704.8926" y1="269.082" y2="269.082"/><line style="stroke:#000000;stroke-width:1;" x1="661.8926" x2="661.8926" y1="266.082" y2="268.082"/><line style="stroke:#000000;stroke-width:1;" x1="704.8926" x2="704.8926" y1="266.082" y2="268.082"/><text fill="#000000" font-family="sans-serif" font-size="12" lengthAdjust="spacing" textLength="287.8418" x="959.8926" y="267.5508">USE-RUN-CYCLE -&gt; realizes -&gt; SEQ-RUN-CYCLE</text><?plantuml-src xLNDZk964Bxp52LV0XbiCnCfMarM8tQC5Q7iGC9FDj5g8ZNk0ZeqRcztUn1XHyf3v5ropwFaIL9kss0qQ8yvZGIugV_lg-fotrYchM7Ijhw2lk3jX-W7_-TX_26U-D6lqVlOdmyxXKhZiZsVnlxzPFo17hD973jvBlmdWRjCQTlcQ3PMPTthcpUzxfjUZmp89CgrnjJwHd04Pln5BgG5oVOgjw2MODS8MyvT6DJ0bfP-2s6oJoJwLhDa8z8LHHBRJEAMOZ4hL1h0Y9vF2BZKR8iXhd81BCjkWQCK2zJCejp3QEoAr9IDqgUSugJAYR0C1ktvCF91S0DC8-oKtfYC9UZdgVYKEn-Ac4XISb1fKHh5K8lVCN7fjohPv5ddEr880_HXDJZY30bwWh1K6fw4oPaaOG4qSDJqYR7a4kLTyDxLJ5Myb35luM4yYDzFmMf4q4n8s0cxXe7GL8xI-_1-xplYmAhLIcANL6n518NVQvQjmu5O4kLiOReE68D1F8qcmnzdm_485fAmW70OoqGGZKUp-9SP94ppmEkqhB3IzQkkwzy__wewnNO5VnNsTbAslTCwj00EpkCpX1cpwz2gCDEgu0-UIUdxXGLzwry0hqJfLNy_7k4zKf2Fz_iousEbFiog0y0L19Gft2gQ0NEINa5LJaDq1Rb1Fs46cuQ5wTdS1Lc-bMTk1caigAjdyO_pq2WbSdtezNhNZYKZynNn8fL1tcdw7ki8lvWQvYapHgnIv9NmsJsVuVCPUOU2BzTpnvRhkpjzNJJ_iVAgU7Tikx4ZcY-N-kYzSE1bV4ZfuZc74PYrko3__4rdndbzrBXLJyZh48SZ70zgb-eUUYVLsqH9fMzNDEFftLKLRh4lRvZZw6teJEvUEb74ExzE-sMdo_HvPuF_4ljIIFI8piEbGJcIwv68bsRKNYZQUzGTVlCQjwu1eLYma_ceN0CD-R1UV8I86NSxms9bbXVTR8IKjmrpbQ9lregsgqxMQAZ0Ob_MktQtLWJWPFqm681KAeEbLbjQ28QmKDHYDMcHkKrxJbXHq61QOZkhc2H149oiPfDtKNp9ph-Z1Z4f_a1JdAVnJmrbrPLMyNrkzJ7bxlNKwfzULQzBw7K9lIwXroNq_o-Xw-2cT_DjyCr_?></g></svg>