<svg xmlns="http://www.w3.org/2000/svg" xmlns:xlink="http://www.w3.org/1999/xlink" contentStyleType="text/css" data-diagram-type="DESCRIPTION" height="550px" preserveAspectRatio="none" style="width:808px;height:550px;background:#FFFFFF;" version="1.1" viewBox="0 0 808 550" width="808px" zoomAndPan="magnify"><?plantuml 1.2026.3?><defs/><g><g class="title" data-source-line="35"><text fill="#000000" font-family="sans-serif" font-size="14" font-weight="700" lengthAdjust="spacing" textLength="398.8291" x="201.4262" y="23.5352">MDD map skill &#8212; mockup-aware ownership (objective)</text></g><!--entity Dev--><g class="entity" data-qualified-name="Dev" data-source-line="37" id="ent0002"><ellipse cx="391.7564" cy="69.9297" fill="#90EE90" rx="8" ry="8" style="stroke:#181818;stroke-width:0.5;"/><path d="M391.7564,77.9297 L391.7564,104.9297 M378.7564,85.9297 L404.7564,85.9297 M391.7564,104.9297 L378.7564,119.9297 M391.7564,104.9297 L404.7564,119.9297" fill="none" style="stroke:#181818;stroke-width:0.5;"/><text fill="#000000" font-family="sans-serif" font-size="14" lengthAdjust="spacing" textLength="124.6328" x="329.44" y="134.9648">Developer / Agent</text><text fill="#000000" font-family="sans-serif" font-size="14" font-style="italic" lengthAdjust="spacing" textLength="67.5254" x="357.9937" y="58.4766">&#171;missing&#187;</text></g><!--entity Map--><g class="entity" data-qualified-name="Map" data-source-line="39" id="ent0003"><rect fill="#F1F1F1" height="79.4648" rx="2.5" ry="2.5" style="stroke:#181818;stroke-width:0.5;" width="206.3662" x="288.57" y="214.9214"/><rect fill="#F1F1F1" height="10" style="stroke:#181818;stroke-width:0.5;" width="15" x="474.9362" y="219.9214"/><rect fill="#F1F1F1" height="2" style="stroke:#181818;stroke-width:0.5;" width="4" x="472.9362" y="221.9214"/><rect fill="#F1F1F1" height="2" style="stroke:#181818;stroke-width:0.5;" width="4" x="472.9362" y="225.9214"/><text fill="#000000" font-family="sans-serif" font-size="14" lengthAdjust="spacing" textLength="142.1328" x="303.57" y="248.4566">/mdd-map SKILL.md</text><text fill="#000000" font-family="sans-serif" font-size="14" lengthAdjust="spacing" textLength="119.8887" x="303.57" y="264.9448">(CMP-MAP-SKILL)</text><text fill="#000000" font-family="sans-serif" font-size="14" lengthAdjust="spacing" textLength="166.3662" x="303.57" y="281.4331">.claude/skills/mdd-map</text></g><!--entity Uml--><g class="entity" data-qualified-name="Uml" data-source-line="40" id="ent0004"><rect fill="#F1F1F1" height="62.9766" rx="2.5" ry="2.5" style="stroke:#181818;stroke-width:0.5;" width="201.5059" x="7" y="371.3814"/><rect fill="#F1F1F1" height="10" style="stroke:#181818;stroke-width:0.5;" width="15" x="188.5059" y="376.3814"/><rect fill="#F1F1F1" height="2" style="stroke:#181818;stroke-width:0.5;" width="4" x="186.5059" y="378.3814"/><rect fill="#F1F1F1" height="2" style="stroke:#181818;stroke-width:0.5;" width="4" x="186.5059" y="382.3814"/><text fill="#000000" font-family="sans-serif" font-size="14" lengthAdjust="spacing" textLength="161.5059" x="22" y="404.9166">current/&lt;kind&gt;/*.puml</text><text fill="#000000" font-family="sans-serif" font-size="14" lengthAdjust="spacing" textLength="92.9072" x="22" y="421.4048">(5 UML kinds)</text></g><!--entity Mck--><g class="entity" data-qualified-name="Mck" data-source-line="41" id="ent0005"><rect fill="#F1F1F1" height="62.9766" rx="2.5" ry="2.5" style="stroke:#181818;stroke-width:0.5;" width="219.8604" x="281.82" y="371.3814"/><rect fill="#F1F1F1" height="10" style="stroke:#181818;stroke-width:0.5;" width="15" x="481.6804" y="376.3814"/><rect fill="#F1F1F1" height="2" style="stroke:#181818;stroke-width:0.5;" width="4" x="479.6804" y="378.3814"/><rect fill="#F1F1F1" height="2" style="stroke:#181818;stroke-width:0.5;" width="4" x="479.6804" y="382.3814"/><text fill="#000000" font-family="sans-serif" font-size="14" lengthAdjust="spacing" textLength="171.1787" x="296.82" y="404.9166">current/mockups/*.puml</text><text fill="#000000" font-family="sans-serif" font-size="14" lengthAdjust="spacing" textLength="179.8604" x="296.82" y="421.4048">(MCK-, whole-repo scope)</text></g><!--entity Validate--><g class="entity" data-qualified-name="Validate" data-source-line="42" id="ent0006"><rect fill="#F1F1F1" height="62.9766" rx="2.5" ry="2.5" style="stroke:#181818;stroke-width:0.5;" width="171.8516" x="622.83" y="371.3814"/><rect fill="#F1F1F1" height="10" style="stroke:#181818;stroke-width:0.5;" width="15" x="774.6816" y="376.3814"/><rect fill="#F1F1F1" height="2" style="stroke:#181818;stroke-width:0.5;" width="4" x="772.6816" y="378.3814"/><rect fill="#F1F1F1" height="2" style="stroke:#181818;stroke-width:0.5;" width="4" x="772.6816" y="382.3814"/><text fill="#000000" font-family="sans-serif" font-size="14" lengthAdjust="spacing" textLength="87.7734" x="637.83" y="404.9166">mdd validate</text><text fill="#000000" font-family="sans-serif" font-size="14" lengthAdjust="spacing" textLength="131.8516" x="637.83" y="421.4048">(deterministic gate)</text></g><g class="entity" data-qualified-name="GMN11" data-source-line="50" id="ent0012"><path d="M193.35,495.3614 L193.35,535.9825 A0,0 0 0 0 193.35,535.9825 L590.1566,535.9825 A0,0 0 0 0 590.1566,535.9825 L590.1566,505.3614 L580.1566,495.3614 L395.75,495.3614 L391.75,434.7314 L387.75,495.3614 L193.35,495.3614 A0,0 0 0 0 193.35,495.3614" fill="#FEFFDD" style="stroke:#181818;stroke-width:0.5;"/><path d="M580.1566,495.3614 L580.1566,505.3614 L590.1566,505.3614 L580.1566,495.3614" fill="#FEFFDD" style="stroke:#181818;stroke-width:0.5;"/><text fill="#000000" font-family="sans-serif" font-size="13" lengthAdjust="spacing" textLength="375.8066" x="199.35" y="512.9298">Whole-repo scope auto-includes mockups; feature/module</text><text fill="#000000" font-family="sans-serif" font-size="13" lengthAdjust="spacing" textLength="368.1895" x="199.35" y="528.2403">scope keeps them opt-in. UIC ids mirror app data-testids.</text></g><!--link Dev to Map--><g class="link" data-entity-1="ent0002" data-entity-2="ent0003" data-link-type="dependency" data-source-line="44" id="lnk7"><path d="M391.75,138.2014 C391.75,162.3114 391.75,185.5714 391.75,208.6014" fill="none" id="Dev-to-Map" style="stroke:#181818;stroke-width:1;"/><polygon fill="#181818" points="391.75,214.6014,395.75,205.6014,391.75,209.6014,387.75,205.6014,391.75,214.6014" style="stroke:#181818;stroke-width:1;"/><text fill="#000000" font-family="sans-serif" font-size="13" lengthAdjust="spacing" textLength="131.8154" x="392.75" y="181.4898">/mdd-map &lt;scope&gt;</text></g><!--link Map to Uml--><g class="link" data-entity-1="ent0003" data-entity-2="ent0004" data-link-type="dependency" data-source-line="45" id="lnk8"><path d="M288.36,261.6414 C237.26,269.5914 177.88,286.9814 136.75,324.3814 C123.47,336.4614 117.6618,349.3923 113.7518,365.4223" fill="none" id="Map-to-Uml" style="stroke:#181818;stroke-width:1;"/><polygon fill="#181818" points="112.33,371.2514,118.3488,363.4556,113.5149,366.3938,110.5767,361.5599,112.33,371.2514" style="stroke:#181818;stroke-width:1;"/><text fill="#000000" font-family="sans-serif" font-size="13" lengthAdjust="spacing" textLength="242.4614" x="137.75" y="337.9498">author use-cases (+ kinds on request)</text></g><!--link Map to Mck--><g class="link" data-entity-1="ent0003" data-entity-2="ent0005" data-link-type="dependency" data-source-line="46" id="lnk9"><path d="M389.41,294.4814 C388.78,309.1714 388.37,326.0514 388.75,341.3814 C388.99,351.0514 389.1482,355.589 389.6282,365.119" fill="none" id="Map-to-Mck" style="stroke:#181818;stroke-width:1;"/><polygon fill="#181818" points="389.93,371.1114,393.4722,361.9216,389.6785,366.1177,385.4823,362.324,389.93,371.1114" style="stroke:#181818;stroke-width:1;"/><text fill="#000000" font-family="sans-serif" font-size="13" lengthAdjust="spacing" textLength="275.6025" x="389.75" y="337.9498">whole-repo -&gt; author mockups for UI apps</text></g><!--link Map to Validate--><g class="link" data-entity-1="ent0003" data-entity-2="ent0006" data-link-type="dependency" data-source-line="47" id="lnk10"><path d="M495.12,260.4614 C551.86,267.8514 620.49,285.0814 669.75,324.3814 C684.47,336.1214 692.0109,349.2506 698.0309,365.3706" fill="none" id="Map-to-Validate" style="stroke:#181818;stroke-width:1;"/><polygon fill="#181818" points="700.13,370.9914,700.7286,361.1608,698.3808,366.3074,693.2341,363.9596,700.13,370.9914" style="stroke:#181818;stroke-width:1;"/><text fill="#000000" font-family="sans-serif" font-size="13" lengthAdjust="spacing" textLength="53.1553" x="685.03" y="337.9498">hand off</text></g><?plantuml-src jLHDRnCn4BtlhnY50mtKk-K0KjieearRgQ915MtWqejhpoOcNdknlKahXCIFu1VoInZlHpvAnObSLjgnvysRcVVivygKtF42Ae-2UuJl2S0f5_EfivMH8wkj6mmAvRqoq-4GNXmUd9yV7Znt2H-2u_7AnSNfkz6Rv4VYL-X2S-ztXMsBqXeqOKVuFl2mgxau586RgTuLFXV1kXrXqpSeeKg-iyaRA__lO5x2UoNtHkDhDZwvPZSVBg-k-Z4eqOljy3xqRcS8MI4bAtW9H4fha9WheuAo1dY0b5HTISpgCzzTpUhyj93m--Sl20J2foHEXWyege0IbF71LIAYU3ed88bEBR2-AohdefGN2fUGEnlbBJ65svdo81u5AONQGYCzgE1XQTqyrtO9InLcmA6mObwLZ5TXPXqDYCIBvH4iPrOZSrXQyCAMHAaAbYaZDF7tNL7c5SrxFFh0u8Rhq89vo4b2Kb7Y0Xtndrm2BocyDxaSWI8YXNAkgIPvu2oW3nJkxrDPHNnpvA5oc1LMLlJR49WZ4aHNmPQ1s81MysOAbZwErcyOFKkiVfT85DAdyD72fye743Eo3VhZ-hh4WAwWpL1X0N4F2wwLZBQTnW_N3hby13JKYa1V9yK-Csg1qOGD2KK4SCIlEOnZWo8MyZmedp-clNuIL23-uxCpM2iYxhWR-f8xehuqwFnCbR1dxx-IlMcp_IHfZDWxmmLgwjz11YTH5ZtW7YWA6vfEalMJrbifi9FLdNaYu3lpl11hw34lDz7QJMU3ECvXzYejgq8JubkOZA-Q6VVhl4cXdyjh5xPEZ5FS_qjV3SPOp3SnY1PqUw7CxQN5FJLPdzihIHB7mjWmzW17QoiEwXB398RZCL6buqRoqEc5vFcwwGV8h0w_LQJA_Yg7gC6MBIZM8coglfNwAgtZHhcaFmaspvF4M0hSsn38h3QlkmRuyc_7jKMEdvY34ZVjGKeiMc-aiEsso6lBRcb2Zm94Bdy0?></g></svg>