<svg xmlns="http://www.w3.org/2000/svg" xmlns:xlink="http://www.w3.org/1999/xlink" contentStyleType="text/css" data-diagram-type="DESCRIPTION" height="558px" preserveAspectRatio="none" style="width:1011px;height:558px;background:#FFFFFF;" version="1.1" viewBox="0 0 1011 558" width="1011px" zoomAndPan="magnify"><?plantuml 1.2026.3?><defs/><g><g class="title" data-source-line="40"><text fill="#000000" font-family="sans-serif" font-size="14" font-weight="700" lengthAdjust="spacing" textLength="355.9883" x="324.3932" y="23.5352">Agent session bootstrap &#8212; ownership (objective)</text></g><!--entity Agent--><g class="entity" data-qualified-name="Agent" data-source-line="42" id="ent0002"><ellipse cx="355.8627" cy="69.9297" fill="#90EE90" rx="8" ry="8" style="stroke:#181818;stroke-width:0.5;"/><path d="M355.8627,77.9297 L355.8627,104.9297 M342.8627,85.9297 L368.8627,85.9297 M355.8627,104.9297 L342.8627,119.9297 M355.8627,104.9297 L368.8627,119.9297" fill="none" style="stroke:#181818;stroke-width:0.5;"/><text fill="#000000" font-family="sans-serif" font-size="14" lengthAdjust="spacing" textLength="40.1133" x="335.8061" y="134.9648">Agent</text><text fill="#000000" font-family="sans-serif" font-size="14" font-style="italic" lengthAdjust="spacing" textLength="67.5254" x="322.1" y="58.4766">&#171;missing&#187;</text></g><!--entity Cli--><g class="entity" data-qualified-name="Cli" data-source-line="44" id="ent0003"><rect fill="#F1F1F1" height="62.9766" rx="2.5" ry="2.5" style="stroke:#181818;stroke-width:0.5;" width="171.4346" x="205.14" y="223.1614"/><rect fill="#F1F1F1" height="10" style="stroke:#181818;stroke-width:0.5;" width="15" x="356.5746" y="228.1614"/><rect fill="#F1F1F1" height="2" style="stroke:#181818;stroke-width:0.5;" width="4" x="354.5746" y="230.1614"/><rect fill="#F1F1F1" height="2" style="stroke:#181818;stroke-width:0.5;" width="4" x="354.5746" y="234.1614"/><text fill="#000000" font-family="sans-serif" font-size="14" lengthAdjust="spacing" textLength="86.4404" x="220.14" y="256.6966">mdd context</text><text fill="#000000" font-family="sans-serif" font-size="14" lengthAdjust="spacing" textLength="131.4346" x="220.14" y="273.1848">(CMP-SESSION-CLI)</text></g><!--entity Init--><g class="entity" data-qualified-name="Init" data-source-line="45" id="ent0004"><rect fill="#F1F1F1" height="79.4648" rx="2.5" ry="2.5" style="stroke:#181818;stroke-width:0.5;" width="208.4785" x="590.62" y="51.7014"/><rect fill="#F1F1F1" height="10" style="stroke:#181818;stroke-width:0.5;" width="15" x="779.0985" y="56.7014"/><rect fill="#F1F1F1" height="2" style="stroke:#181818;stroke-width:0.5;" width="4" x="777.0985" y="58.7014"/><rect fill="#F1F1F1" height="2" style="stroke:#181818;stroke-width:0.5;" width="4" x="777.0985" y="62.7014"/><text fill="#000000" font-family="sans-serif" font-size="14" lengthAdjust="spacing" textLength="143.9033" x="605.62" y="85.2366">mdd init / mdd clean</text><text fill="#000000" font-family="sans-serif" font-size="14" lengthAdjust="spacing" textLength="168.4785" x="605.62" y="101.7248">SessionStart hook merge</text><text fill="#000000" font-family="sans-serif" font-size="14" lengthAdjust="spacing" textLength="123.2314" x="605.62" y="118.2131">(CMP-INIT-HOOK)</text></g><!--entity Directive--><g class="entity" data-qualified-name="Directive" data-source-line="46" id="ent0005"><rect fill="#F1F1F1" height="79.4648" rx="2.5" ry="2.5" style="stroke:#181818;stroke-width:0.5;" width="251.2646" x="411.23" y="214.9214"/><rect fill="#F1F1F1" height="10" style="stroke:#181818;stroke-width:0.5;" width="15" x="642.4946" y="219.9214"/><rect fill="#F1F1F1" height="2" style="stroke:#181818;stroke-width:0.5;" width="4" x="640.4946" y="221.9214"/><rect fill="#F1F1F1" height="2" style="stroke:#181818;stroke-width:0.5;" width="4" x="640.4946" y="225.9214"/><text fill="#000000" font-family="sans-serif" font-size="14" lengthAdjust="spacing" textLength="132.4668" x="426.23" y="248.4566">entrypoint directive</text><text fill="#000000" font-family="sans-serif" font-size="14" lengthAdjust="spacing" textLength="181.2959" x="426.23" y="264.9448">CLAUDE.md + AGENTS.md</text><text fill="#000000" font-family="sans-serif" font-size="14" lengthAdjust="spacing" textLength="211.2646" x="426.23" y="281.4331">(CMP-ENTRYPOINT-DIRECTIVE)</text></g><!--entity Gate--><g class="entity" data-qualified-name="Gate" data-source-line="47" id="ent0006"><rect fill="#F1F1F1" height="62.9766" rx="2.5" ry="2.5" style="stroke:#181818;stroke-width:0.5;" width="230.4697" x="73.62" y="375.3814"/><rect fill="#F1F1F1" height="10" style="stroke:#181818;stroke-width:0.5;" width="15" x="284.0897" y="380.3814"/><rect fill="#F1F1F1" height="2" style="stroke:#181818;stroke-width:0.5;" width="4" x="282.0897" y="382.3814"/><rect fill="#F1F1F1" height="2" style="stroke:#181818;stroke-width:0.5;" width="4" x="282.0897" y="386.3814"/><text fill="#000000" font-family="sans-serif" font-size="14" lengthAdjust="spacing" textLength="133.1709" x="88.62" y="408.9166">Project::map_status</text><text fill="#000000" font-family="sans-serif" font-size="14" lengthAdjust="spacing" textLength="190.4697" x="88.62" y="425.4048">(CMP-TRACE-GATE, reused)</text></g><!--entity Map--><g class="entity" data-qualified-name="Map" data-source-line="48" id="ent0007"><path d="M341.54,371.3814 L382.54,371.3814 A3.75,3.75 0 0 1 385.04,373.8814 L392.04,392.3814 L444.1757,392.3814 A2.5,2.5 0 0 1 446.6757,394.8814 L446.6757,439.858 A2.5,2.5 0 0 1 444.1757,442.358 L341.54,442.358 A2.5,2.5 0 0 1 339.04,439.858 L339.04,373.8814 A2.5,2.5 0 0 1 341.54,371.3814" fill="#F1F1F1" style="stroke:#181818;stroke-width:0.5;"/><line style="stroke:#181818;stroke-width:0.5;" x1="339.04" x2="392.04" y1="392.3814" y2="392.3814"/><text fill="#000000" font-family="sans-serif" font-size="14" lengthAdjust="spacing" textLength="77.6357" x="349.04" y="412.9166">whole-map</text><text fill="#000000" font-family="sans-serif" font-size="14" lengthAdjust="spacing" textLength="72.0781" x="349.04" y="429.4048">.mdd/map</text></g><!--entity Settings--><g class="entity" data-qualified-name="Settings" data-source-line="49" id="ent0008"><path d="M699.79,219.1614 L740.79,219.1614 A3.75,3.75 0 0 1 743.29,221.6614 L750.29,240.1614 L867.9345,240.1614 A2.5,2.5 0 0 1 870.4345,242.6614 L870.4345,287.638 A2.5,2.5 0 0 1 867.9345,290.138 L699.79,290.138 A2.5,2.5 0 0 1 697.29,287.638 L697.29,221.6614 A2.5,2.5 0 0 1 699.79,219.1614" fill="#F1F1F1" style="stroke:#181818;stroke-width:0.5;"/><line style="stroke:#181818;stroke-width:0.5;" x1="697.29" x2="750.29" y1="240.1614" y2="240.1614"/><text fill="#000000" font-family="sans-serif" font-size="14" lengthAdjust="spacing" textLength="54.0107" x="707.29" y="260.6966">settings</text><text fill="#000000" font-family="sans-serif" font-size="14" lengthAdjust="spacing" textLength="143.1445" x="707.29" y="277.1848">.claude/settings.json</text></g><g class="entity" data-qualified-name="GMN15" data-source-line="59" id="ent0016"><path d="M6,503.3614 L6,543.9825 A0,0 0 0 0 6,543.9825 L371.7158,543.9825 A0,0 0 0 0 371.7158,543.9825 L371.7158,513.3614 L361.7158,503.3614 L192.86,503.3614 L188.86,438.6314 L184.86,503.3614 L6,503.3614 A0,0 0 0 0 6,503.3614" fill="#FEFFDD" style="stroke:#181818;stroke-width:0.5;"/><path d="M361.7158,503.3614 L361.7158,513.3614 L371.7158,513.3614 L361.7158,503.3614" fill="#FEFFDD" style="stroke:#181818;stroke-width:0.5;"/><text fill="#000000" font-family="sans-serif" font-size="13" lengthAdjust="spacing" textLength="311.3145" x="12" y="520.9298">Freshness reuses the cycle-0013 git+syn engine;</text><text fill="#000000" font-family="sans-serif" font-size="13" lengthAdjust="spacing" textLength="344.7158" x="12" y="536.2403">the baseline is DOM-MAP-BASELINE (derived from git).</text></g><!--link Agent to Cli--><g class="link" data-entity-1="ent0002" data-entity-2="ent0003" data-link-type="dependency" data-source-line="51" id="lnk9"><path d="M320.87,125.4314 C310.2,137.6614 299.73,152.3714 293.86,167.9214 C287.28,185.3314 286.1136,200.1887 286.9436,216.9687" fill="none" id="Agent-to-Cli" style="stroke:#181818;stroke-width:1;"/><polygon fill="#181818" points="287.24,222.9614,290.7905,213.7748,286.993,217.9675,282.8003,214.17,287.24,222.9614" style="stroke:#181818;stroke-width:1;"/><text fill="#000000" font-family="sans-serif" font-size="13" lengthAdjust="spacing" textLength="80.2661" x="294.86" y="181.4898">mdd context</text></g><!--link Agent to Directive--><g class="link" data-entity-1="ent0002" data-entity-2="ent0005" data-link-type="dependency" data-source-line="52" id="lnk10"><path d="M391.07,133.7014 C406.04,150.3214 424.12,169.2314 441.86,184.9214 C453.37,195.1014 461.5266,201.6964 474.1166,210.9564" fill="none" id="Agent-to-Directive" style="stroke:#181818;stroke-width:1;"/><polygon fill="#181818" points="478.95,214.5114,474.0699,205.9566,474.9221,211.5489,469.3299,212.4012,478.95,214.5114" style="stroke:#181818;stroke-width:1;"/><text fill="#000000" font-family="sans-serif" font-size="13" lengthAdjust="spacing" textLength="134.7163" x="442.86" y="181.4898">reads at session start</text></g><!--link Cli to Gate--><g class="link" data-entity-1="ent0003" data-entity-2="ent0006" data-link-type="dependency" data-source-line="53" id="lnk11"><path d="M238.68,286.3314 C225.05,296.7614 211.71,309.5714 202.86,324.3814 C193.8,339.5414 190.6864,352.9603 189.4064,369.0303" fill="none" id="Cli-to-Gate" style="stroke:#181818;stroke-width:1;"/><polygon fill="#181818" points="188.93,375.0114,193.632,366.3574,189.327,370.0272,185.6572,365.7222,188.93,375.0114" style="stroke:#181818;stroke-width:1;"/><text fill="#000000" font-family="sans-serif" font-size="13" lengthAdjust="spacing" textLength="145.3931" x="203.86" y="337.9498">map_status() freshness</text></g><!--link Cli to Map--><g class="link" data-entity-1="ent0003" data-entity-2="ent0007" data-link-type="dependency" data-source-line="54" id="lnk12"><path d="M322.76,286.5114 C333.43,297.8214 344.89,311.1014 353.86,324.3814 C363.6,338.8114 369.7846,350.5623 376.4346,365.4623" fill="none" id="Cli-to-Map" style="stroke:#181818;stroke-width:1;"/><polygon fill="#181818" points="378.88,370.9414,378.8647,361.0926,376.8422,366.3755,371.5592,364.353,378.88,370.9414" style="stroke:#181818;stroke-width:1;"/><text fill="#000000" font-family="sans-serif" font-size="13" lengthAdjust="spacing" textLength="146.9736" x="365.15" y="337.9498">TOC (concepts by kind)</text></g><!--link Init to Settings--><g class="link" data-entity-1="ent0004" data-entity-2="ent0008" data-link-type="dependency" data-source-line="55" id="lnk13"><path d="M722.53,131.6614 C730.15,143.1214 738.15,155.8214 744.86,167.9214 C753.89,184.2214 760.2113,218.5118 767.1113,234.3318" fill="none" id="Init-to-Settings" style="stroke:#181818;stroke-width:1;"/><polygon fill="#181818" points="769.51,239.8314,769.5784,229.9828,767.5111,235.2484,762.2455,233.1811,769.51,239.8314" style="stroke:#181818;stroke-width:1;"/><text fill="#000000" font-family="sans-serif" font-size="13" lengthAdjust="spacing" textLength="241.5347" x="754.24" y="181.4898">merge SessionStart hook (idempotent)</text></g><!--link Init to Directive--><g class="link" data-entity-1="ent0004" data-entity-2="ent0005" data-link-type="dependency" data-source-line="56" id="lnk14"><path d="M640.45,131.6114 C626.58,142.6614 612.13,155.1714 599.86,167.9214 C586.15,182.1514 576.3413,194.5634 565.5613,209.8934" fill="none" id="Init-to-Directive" style="stroke:#181818;stroke-width:1;"/><polygon fill="#181818" points="562.11,214.8014,570.5589,209.7403,564.9861,210.7114,564.0149,205.1385,562.11,214.8014" style="stroke:#181818;stroke-width:1;"/><text fill="#000000" font-family="sans-serif" font-size="13" lengthAdjust="spacing" textLength="135.0464" x="600.86" y="181.4898">inject managed block</text></g><?plantuml-src jLPTRnit47o_Nx5G7o8XFjb1Ym9H0gEAV7QLsfOXAGKA672eEqfYJ947acTRBGhqH_GNzfTqbgTFstshNWpeRZcxd9sPixzNfXHEBAZoCXTUqXy9qIUHty-ShKpHizgwZnyNodjbPgUdzDtxaonxV_9QaNmAJd39-Vcd7tllaZyJlq7FjV3-KDXsKLeZJJWGlWyY78eN9_CWp4mV2b_amRe3OUDlKBagnS6ODxRuVubvGp-fejcxkab7sMZK7rodlSj-YnyNqkVFNnnHOpoNz7LH512P2S3xIj2PMr9fbGaTmfiqrufwTh4Gfl2TJg-kernexUd6sM_OSAVZ9UQrvcu5qsoHClLfwoJXA9KEY9u26ZxEhPRfGfGq7lIer5NzUEgadni0qODqXSf3cuOIjlN4Su-7tLwMNdJ7sHjFE7l7igqyEasXWFtpSw6dv0GUyXjX8CDKBKej5xWTQ2KLZk9GJeh2Knk37lCuQoGUYp7Qb3sfG2SazADOUlhdhxz9qCGfEJt2yW9-pE2TTgErmtp_kZzEVnuCVjddVVCOh3FXoW3vKM7cs79K4pWA41tDhRtl0Fpp28lomLLvg9p4cK8Y2W97mKAwcIGxfRF1rMQd30_WOAcDGAeAUUnbu0lxzZTl3JMvap12sraL3pyw5UGTLYjcihYRQ9lVHnAuSUkeNarKXvQHnOLzOFha4todbynjg0N3gqhZbOp4zgYeIgroS5FVZY_qWIFOfQ8ASykNuMU-bePqKU_MuBVcdInPFlkp2-Ye15lIFSXYd_7iUZpyxMRGlnwdP_rXrXltVytsoN-jOgN-GeaPlEZJgN8-H4MWQMfTmU9XgM-sfGoBtTSCyxLwbzqlPnda4w_HlK2R4VzQ4KgHK0_QiJRDP7GwzLxk8cdHP7HCg8KrTfw1UcLoNV4aiT4MMYiZCPRM_Ag7_7YAlMtKUWr4cCvLvfclCLC5pou9ArkvbPCVQaFGv9BRBE5g4sLT1SjyG2nnJRnTeTNlsEQNKGOAknV3xjKeFUyFH-Dw5uC9SwCU8Aj78vsVgzfESQHDmucr0Ng6rPhv4gAYavDtFxJQIL01Fxh_KSkssw8sxRfLAqdg_6_4amqIVeMn4w19ilr-DdOOkJKlSZ82zBHwVY8k_tXhX5lpmgsr7rUOsmI8Y7qStuNSsNsXN7sLMxFLqjljkbU0hmeyOf-j0NORR59v6vChe6s87a7fy6DHmrn0dCdKQjPyOnFFjsQTZB7eIfIRchKtKV9QqiJwqUf9ajHBITDJPfSwjBE6dNURkw2Y3kRdKatuE9Vol8opznbOn_-c2WEZYCEyYMwvBE6DoPBm-IrQ2MybLgt7PBmOgY-Nszm6xyx1tNdhQDWtVfB0In8w3i4kE6qZoqJdc--KgpzlxF1eXnHs-9vcAhprIuDWdS7i7t222oRuvpMQN_cO-LVTc_HJTvHTzgypQc8f6AG02MW507XA8XPuW7y1?></g></svg>