<svg xmlns="http://www.w3.org/2000/svg" xmlns:xlink="http://www.w3.org/1999/xlink" contentStyleType="text/css" data-diagram-type="DESCRIPTION" height="658px" preserveAspectRatio="none" style="width:2501px;height:658px;background:#FFFFFF;" version="1.1" viewBox="0 0 2501 658" width="2501px" zoomAndPan="magnify"><?plantuml 1.2026.3?><defs/><g><g class="title" data-source-line="42"><text fill="#000000" font-family="sans-serif" font-size="14" font-weight="700" lengthAdjust="spacing" textLength="326.5869" x="1084.1522" y="23.5352">mdd-viewer UI shell &#8212; ownership (objective)</text></g><!--entity Dev--><g class="entity" data-qualified-name="Dev" data-source-line="44" id="ent0002"><ellipse cx="41.0027" cy="69.9297" fill="#90EE90" rx="8" ry="8" style="stroke:#181818;stroke-width:0.5;"/><path d="M41.0027,77.9297 L41.0027,104.9297 M28.0027,85.9297 L54.0027,85.9297 M41.0027,104.9297 L28.0027,119.9297 M41.0027,104.9297 L54.0027,119.9297" fill="none" style="stroke:#181818;stroke-width:0.5;"/><text fill="#000000" font-family="sans-serif" font-size="14" lengthAdjust="spacing" textLength="68.3184" x="6.8435" y="134.9648">Developer</text><text fill="#000000" font-family="sans-serif" font-size="14" font-style="italic" lengthAdjust="spacing" textLength="67.5254" x="7.24" y="58.4766">&#171;missing&#187;</text></g><!--entity Viewer--><g class="entity" data-qualified-name="Viewer" data-source-line="46" id="ent0003"><rect fill="#F1F1F1" height="62.9766" rx="2.5" ry="2.5" style="stroke:#181818;stroke-width:0.5;" width="132.5244" x="854.74" y="214.9114"/><rect fill="#F1F1F1" height="10" style="stroke:#181818;stroke-width:0.5;" width="15" x="967.2644" y="219.9114"/><rect fill="#F1F1F1" height="2" style="stroke:#181818;stroke-width:0.5;" width="4" x="965.2644" y="221.9114"/><rect fill="#F1F1F1" height="2" style="stroke:#181818;stroke-width:0.5;" width="4" x="965.2644" y="225.9114"/><text fill="#000000" font-family="sans-serif" font-size="14" lengthAdjust="spacing" textLength="74.9971" x="869.74" y="248.4466">MddViewer</text><text fill="#000000" font-family="sans-serif" font-size="14" lengthAdjust="spacing" textLength="92.5244" x="869.74" y="264.9348">(eframe::App)</text></g><!--entity Left--><g class="entity" data-qualified-name="Left" data-source-line="47" id="ent0004"><rect fill="#F1F1F1" height="62.9766" rx="2.5" ry="2.5" style="stroke:#181818;stroke-width:0.5;" width="181.7979" x="1358.1" y="378.1414"/><rect fill="#F1F1F1" height="10" style="stroke:#181818;stroke-width:0.5;" width="15" x="1519.8979" y="383.1414"/><rect fill="#F1F1F1" height="2" style="stroke:#181818;stroke-width:0.5;" width="4" x="1517.8979" y="385.1414"/><rect fill="#F1F1F1" height="2" style="stroke:#181818;stroke-width:0.5;" width="4" x="1517.8979" y="389.1414"/><text fill="#000000" font-family="sans-serif" font-size="14" lengthAdjust="spacing" textLength="94.2813" x="1373.1" y="411.6766">Left SidePanel</text><text fill="#000000" font-family="sans-serif" font-size="14" lengthAdjust="spacing" textLength="141.7979" x="1373.1" y="428.1648">MODELS (collapsible)</text></g><!--entity Right--><g class="entity" data-qualified-name="Right" data-source-line="48" id="ent0005"><rect fill="#F1F1F1" height="62.9766" rx="2.5" ry="2.5" style="stroke:#181818;stroke-width:0.5;" width="243.6494" x="1580.18" y="378.1414"/><rect fill="#F1F1F1" height="10" style="stroke:#181818;stroke-width:0.5;" width="15" x="1803.8294" y="383.1414"/><rect fill="#F1F1F1" height="2" style="stroke:#181818;stroke-width:0.5;" width="4" x="1801.8294" y="385.1414"/><rect fill="#F1F1F1" height="2" style="stroke:#181818;stroke-width:0.5;" width="4" x="1801.8294" y="389.1414"/><text fill="#000000" font-family="sans-serif" font-size="14" lengthAdjust="spacing" textLength="104.1865" x="1595.18" y="411.6766">Right SidePanel</text><text fill="#000000" font-family="sans-serif" font-size="14" lengthAdjust="spacing" textLength="203.6494" x="1595.18" y="428.1648">MODEL CONTEXT (collapsible)</text></g><!--entity Toolbar--><g class="entity" data-qualified-name="Toolbar" data-source-line="49" id="ent0006"><rect fill="#F1F1F1" height="79.4648" rx="2.5" ry="2.5" style="stroke:#181818;stroke-width:0.5;" width="214.4736" x="211.77" y="369.8914"/><rect fill="#F1F1F1" height="10" style="stroke:#181818;stroke-width:0.5;" width="15" x="406.2436" y="374.8914"/><rect fill="#F1F1F1" height="2" style="stroke:#181818;stroke-width:0.5;" width="4" x="404.2436" y="376.8914"/><rect fill="#F1F1F1" height="2" style="stroke:#181818;stroke-width:0.5;" width="4" x="404.2436" y="380.8914"/><text fill="#000000" font-family="sans-serif" font-size="14" lengthAdjust="spacing" textLength="52.3701" x="226.77" y="403.4266">Toolbar</text><text fill="#000000" font-family="sans-serif" font-size="14" lengthAdjust="spacing" textLength="149.1123" x="226.77" y="419.9148">(PAGE selector only &#8212;</text><text fill="#000000" font-family="sans-serif" font-size="14" lengthAdjust="spacing" textLength="174.4736" x="226.77" y="436.4031">no Reset/Zoom+/Zoom-)</text></g><!--entity Fisheye--><g class="entity" data-qualified-name="Fisheye" data-source-line="50" id="ent0007"><rect fill="#F1F1F1" height="62.9766" rx="2.5" ry="2.5" style="stroke:#181818;stroke-width:0.5;" width="181.4902" x="1861.26" y="378.1414"/><rect fill="#F1F1F1" height="10" style="stroke:#181818;stroke-width:0.5;" width="15" x="2022.7502" y="383.1414"/><rect fill="#F1F1F1" height="2" style="stroke:#181818;stroke-width:0.5;" width="4" x="2020.7502" y="385.1414"/><rect fill="#F1F1F1" height="2" style="stroke:#181818;stroke-width:0.5;" width="4" x="2020.7502" y="389.1414"/><text fill="#000000" font-family="sans-serif" font-size="14" lengthAdjust="spacing" textLength="141.4902" x="1876.26" y="411.6766">Fisheye canvas stage</text><text fill="#000000" font-family="sans-serif" font-size="14" lengthAdjust="spacing" textLength="131.5098" x="1876.26" y="428.1648">(center-fixed warp)</text></g><!--entity PL--><g class="entity" data-qualified-name="PL" data-source-line="51" id="ent0008"><rect fill="#F1F1F1" height="62.9766" rx="2.5" ry="2.5" style="stroke:#181818;stroke-width:0.5;" width="179.6924" x="1621.16" y="553.4514"/><rect fill="#F1F1F1" height="10" style="stroke:#181818;stroke-width:0.5;" width="15" x="1780.8524" y="558.4514"/><rect fill="#F1F1F1" height="2" style="stroke:#181818;stroke-width:0.5;" width="4" x="1778.8524" y="560.4514"/><rect fill="#F1F1F1" height="2" style="stroke:#181818;stroke-width:0.5;" width="4" x="1778.8524" y="564.4514"/><text fill="#000000" font-family="sans-serif" font-size="14" lengthAdjust="spacing" textLength="81.04" x="1636.16" y="586.9866">PanelLayout</text><text fill="#000000" font-family="sans-serif" font-size="14" lengthAdjust="spacing" textLength="139.6924" x="1636.16" y="603.4748">(left/right collapsed)</text></g><!--entity CV--><g class="entity" data-qualified-name="CV" data-source-line="52" id="ent0009"><rect fill="#F1F1F1" height="62.9766" rx="2.5" ry="2.5" style="stroke:#181818;stroke-width:0.5;" width="232.9238" x="1835.54" y="553.4514"/><rect fill="#F1F1F1" height="10" style="stroke:#181818;stroke-width:0.5;" width="15" x="2048.4638" y="558.4514"/><rect fill="#F1F1F1" height="2" style="stroke:#181818;stroke-width:0.5;" width="4" x="2046.4638" y="560.4514"/><rect fill="#F1F1F1" height="2" style="stroke:#181818;stroke-width:0.5;" width="4" x="2046.4638" y="564.4514"/><text fill="#000000" font-family="sans-serif" font-size="14" lengthAdjust="spacing" textLength="80.0078" x="1850.54" y="586.9866">CanvasView</text><text fill="#000000" font-family="sans-serif" font-size="14" lengthAdjust="spacing" textLength="192.9238" x="1850.54" y="603.4748">(zoom, pan, fisheye params)</text></g><!--entity Egui--><g class="entity" data-qualified-name="Egui" data-source-line="53" id="ent0010"><rect fill="#F1F1F1" height="46.4883" rx="2.5" ry="2.5" style="stroke:#181818;stroke-width:0.5;" width="168.1602" x="345.92" y="561.7014"/><rect fill="#F1F1F1" height="10" style="stroke:#181818;stroke-width:0.5;" width="15" x="494.0802" y="566.7014"/><rect fill="#F1F1F1" height="2" style="stroke:#181818;stroke-width:0.5;" width="4" x="492.0802" y="568.7014"/><rect fill="#F1F1F1" height="2" style="stroke:#181818;stroke-width:0.5;" width="4" x="492.0802" y="572.7014"/><text fill="#000000" font-family="sans-serif" font-size="14" lengthAdjust="spacing" textLength="128.1602" x="360.92" y="595.2366">eframe / egui 0.30</text></g><!--entity Theme--><g class="entity" data-qualified-name="Theme" data-source-line="54" id="ent0011"><rect fill="#F1F1F1" height="62.9766" rx="2.5" ry="2.5" style="stroke:#181818;stroke-width:0.5;" width="190.3564" x="460.82" y="378.1414"/><rect fill="#F1F1F1" height="10" style="stroke:#181818;stroke-width:0.5;" width="15" x="631.1764" y="383.1414"/><rect fill="#F1F1F1" height="2" style="stroke:#181818;stroke-width:0.5;" width="4" x="629.1764" y="385.1414"/><rect fill="#F1F1F1" height="2" style="stroke:#181818;stroke-width:0.5;" width="4" x="629.1764" y="389.1414"/><text fill="#000000" font-family="sans-serif" font-size="14" lengthAdjust="spacing" textLength="101.6572" x="475.82" y="411.6766">Theme module</text><text fill="#000000" font-family="sans-serif" font-size="14" lengthAdjust="spacing" textLength="150.3564" x="475.82" y="428.1648">(CMP-VIEWER-THEME)</text></g><g class="entity" data-qualified-name="GMN24" data-source-line="70" id="ent0025"><path d="M2103.11,549.3214 L2103.11,620.5636 L2486.8912,620.5636 L2486.8912,559.3214 L2476.8912,549.3214 L2103.11,549.3214" fill="#FEFFDD" style="stroke:#181818;stroke-width:0.5;"/><path d="M2476.8912,549.3214 L2476.8912,559.3214 L2486.8912,559.3214 L2476.8912,549.3214" fill="#FEFFDD" style="stroke:#181818;stroke-width:1;"/><text fill="#000000" font-family="sans-serif" font-size="13" lengthAdjust="spacing" textLength="333.6138" x="2109.11" y="566.8898">Objective: the fisheye is a display-time stage layered</text><text fill="#000000" font-family="sans-serif" font-size="13" lengthAdjust="spacing" textLength="362.7813" x="2109.11" y="582.2003">on the base zoom/pan placement. It does not change the</text><text fill="#000000" font-family="sans-serif" font-size="13" lengthAdjust="spacing" textLength="355.5894" x="2109.11" y="597.5109">render/font pipeline (CMP-VIEWER-RENDER-PIPELINE); it</text><text fill="#000000" font-family="sans-serif" font-size="13" lengthAdjust="spacing" textLength="353.3296" x="2109.11" y="612.8214">remaps where the already-rasterized texture is painted.</text></g><!--entity Launch--><g class="entity" data-qualified-name="Launch" data-source-line="76" id="ent0027"><rect fill="#F1F1F1" height="79.4648" rx="2.5" ry="2.5" style="stroke:#181818;stroke-width:0.5;" width="377.4971" x="903.25" y="369.8914"/><rect fill="#F1F1F1" height="10" style="stroke:#181818;stroke-width:0.5;" width="15" x="1260.7471" y="374.8914"/><rect fill="#F1F1F1" height="2" style="stroke:#181818;stroke-width:0.5;" width="4" x="1258.7471" y="376.8914"/><rect fill="#F1F1F1" height="2" style="stroke:#181818;stroke-width:0.5;" width="4" x="1258.7471" y="380.8914"/><text fill="#000000" font-family="sans-serif" font-size="14" lengthAdjust="spacing" textLength="115.4727" x="918.25" y="403.4266">MockupLauncher</text><text fill="#000000" font-family="sans-serif" font-size="14" lengthAdjust="spacing" textLength="171.1309" x="918.25" y="419.9148">(CMP-MOCKUP-LAUNCH)</text><text fill="#000000" font-family="sans-serif" font-size="14" lengthAdjust="spacing" textLength="337.4971" x="918.25" y="436.4031">probe :4317 &#183; spawn npm run dev &#183; open browser</text></g><!--entity Vite--><g class="entity" data-qualified-name="Vite" data-source-line="77" id="ent0028"><rect fill="#F1F1F1" height="62.9766" rx="2.5" ry="2.5" style="stroke:#181818;stroke-width:0.5;" width="307.2578" x="1279.37" y="553.4514"/><rect fill="#F1F1F1" height="10" style="stroke:#181818;stroke-width:0.5;" width="15" x="1566.6278" y="558.4514"/><rect fill="#F1F1F1" height="2" style="stroke:#181818;stroke-width:0.5;" width="4" x="1564.6278" y="560.4514"/><rect fill="#F1F1F1" height="2" style="stroke:#181818;stroke-width:0.5;" width="4" x="1564.6278" y="564.4514"/><text fill="#000000" font-family="sans-serif" font-size="14" lengthAdjust="spacing" textLength="86.3926" x="1294.37" y="586.9866">npm run dev</text><text fill="#000000" font-family="sans-serif" font-size="14" lengthAdjust="spacing" textLength="267.2578" x="1294.37" y="603.4748">(Vite dev server, :4317, cwd mockups/)</text></g><!--entity Browser--><g class="entity" data-qualified-name="Browser" data-source-line="78" id="ent0029"><rect fill="#F1F1F1" height="46.4883" rx="2.5" ry="2.5" style="stroke:#181818;stroke-width:0.5;" width="169.3291" x="549.34" y="561.7014"/><rect fill="#F1F1F1" height="10" style="stroke:#181818;stroke-width:0.5;" width="15" x="698.6691" y="566.7014"/><rect fill="#F1F1F1" height="2" style="stroke:#181818;stroke-width:0.5;" width="4" x="696.6691" y="568.7014"/><rect fill="#F1F1F1" height="2" style="stroke:#181818;stroke-width:0.5;" width="4" x="696.6691" y="572.7014"/><text fill="#000000" font-family="sans-serif" font-size="14" lengthAdjust="spacing" textLength="129.3291" x="564.34" y="595.2366">OS default browser</text></g><g class="entity" data-qualified-name="GMN33" data-source-line="85" id="ent0034"><path d="M753.69,526.3614 L753.69,643.5352 A0,0 0 0 0 753.69,643.5352 L1244.3213,643.5352 A0,0 0 0 0 1244.3213,643.5352 L1244.3213,536.3614 L1234.3213,526.3614 L1034.05,526.3614 L1071.13,449.5214 L1026.05,526.3614 L753.69,526.3614 A0,0 0 0 0 753.69,526.3614" fill="#FEFFDD" style="stroke:#181818;stroke-width:0.5;"/><path d="M1234.3213,526.3614 L1234.3213,536.3614 L1244.3213,536.3614 L1234.3213,526.3614" fill="#FEFFDD" style="stroke:#181818;stroke-width:0.5;"/><text fill="#000000" font-family="sans-serif" font-size="13" lengthAdjust="spacing" textLength="469.6313" x="759.69" y="543.9298">Objective (CMP-MOCKUP-LAUNCH / USE-OPEN-RENDER): start-if-needed.</text><text fill="#000000" font-family="sans-serif" font-size="13" lengthAdjust="spacing" textLength="389.3081" x="759.69" y="559.2403">The launcher probes :4317; if it is already serving it reuses it,</text><text fill="#000000" font-family="sans-serif" font-size="13" lengthAdjust="spacing" textLength="425.3882" x="759.69" y="574.5509">otherwise it spawns `npm run dev` in the repo-root mockups/ dir.</text><text fill="#000000" font-family="sans-serif" font-size="13" lengthAdjust="spacing" textLength="435.0239" x="759.69" y="589.8614">Then it opens the OS browser at /mockup/&lt;slug&gt;. No `npm install`</text><text fill="#000000" font-family="sans-serif" font-size="13" lengthAdjust="spacing" textLength="426.7529" x="759.69" y="605.172">and no child-process shutdown tracking. The "Open render" button</text><text fill="#000000" font-family="sans-serif" font-size="13" lengthAdjust="spacing" textLength="406.377" x="759.69" y="620.4825">is enabled only when mockups/src/mockups/&lt;slug&gt;.tsx exists.</text><text fill="#000000" font-family="sans-serif" font-size="13" lengthAdjust="spacing" textLength="203.3472" x="759.69" y="635.793">Realized by SEQ-OPEN-RENDER.</text></g><!--link Dev to Viewer--><g class="link" data-entity-1="ent0002" data-entity-2="ent0003" data-link-type="dependency" data-source-line="56" id="lnk12"><path d="M76.04,98.5214 C208.38,121.5214 673.2487,202.3337 848.6187,232.8237" fill="none" id="Dev-to-Viewer" style="stroke:#181818;stroke-width:1;"/><polygon fill="#181818" points="854.53,233.8514,846.3482,228.3689,849.6039,232.9949,844.9779,236.2507,854.53,233.8514" style="stroke:#181818;stroke-width:1;"/><text fill="#000000" font-family="sans-serif" font-size="13" lengthAdjust="spacing" textLength="60.3599" x="560.82" y="181.4798">mdd view</text></g><!--link Viewer to Theme--><g class="link" data-entity-1="ent0003" data-entity-2="ent0011" data-link-type="dependency" data-source-line="57" id="lnk13"><path d="M854.24,247.7914 C754.41,249.9614 573.57,260.5114 533,307.8914 C516.44,327.2414 522.5841,350.7815 533.7941,372.6615" fill="none" id="Viewer-to-Theme" style="stroke:#181818;stroke-width:1;"/><polygon fill="#181818" points="536.53,378.0014,535.9862,368.1676,534.2501,373.5515,528.8662,371.8154,536.53,378.0014" style="stroke:#181818;stroke-width:1;"/><text fill="#000000" font-family="sans-serif" font-size="13" lengthAdjust="spacing" textLength="296.4419" x="534" y="328.9598">register_fonts() + apply_theme(ctx) each frame</text></g><!--link Theme to Egui--><g class="link" data-entity-1="ent0011" data-entity-2="ent0010" data-link-type="dependency" data-source-line="58" id="lnk14"><path d="M533.48,441.6114 C508.49,475.9814 472.2988,525.7689 450.0388,556.3789" fill="none" id="Theme-to-Egui" style="stroke:#181818;stroke-width:1;"/><polygon fill="#181818" points="446.51,561.2314,455.0383,556.3051,449.4507,557.1876,448.5682,551.6,446.51,561.2314" style="stroke:#181818;stroke-width:1;"/><text fill="#000000" font-family="sans-serif" font-size="13" lengthAdjust="spacing" textLength="159.6055" x="505.29" y="492.9298">FontDefinitions + Visuals</text></g><!--link Viewer to Left--><g class="link" data-entity-1="ent0003" data-entity-2="ent0004" data-link-type="dependency" data-source-line="59" id="lnk15"><path d="M987.47,251.0514 C1061.39,256.7914 1183.38,271.3714 1282,307.8914 C1307.81,317.4514 1311.44,325.6814 1335,339.8914 C1355.48,352.2514 1372.902,362.7529 1392.502,374.5729" fill="none" id="Viewer-to-Left" style="stroke:#181818;stroke-width:1;"/><polygon fill="#181818" points="1397.64,377.6714,1391.9987,369.5983,1393.3583,375.0893,1387.8673,376.4489,1397.64,377.6714" style="stroke:#181818;stroke-width:1;"/><text fill="#000000" font-family="sans-serif" font-size="13" lengthAdjust="spacing" textLength="222.1235" x="1336" y="328.9598">draw + inner-edge collapse handle</text></g><!--link Viewer to Right--><g class="link" data-entity-1="ent0003" data-entity-2="ent0005" data-link-type="dependency" data-source-line="60" id="lnk16"><path d="M987.61,249.2514 C1129.89,253.9014 1458.97,268.6714 1563,307.8914 C1564.41,308.4214 1614.5112,344.8375 1654.8912,374.2675" fill="none" id="Viewer-to-Right" style="stroke:#181818;stroke-width:1;"/><polygon fill="#181818" points="1659.74,377.8014,1654.8227,369.2679,1655.6993,374.8564,1650.1108,375.733,1659.74,377.8014" style="stroke:#181818;stroke-width:1;"/><text fill="#000000" font-family="sans-serif" font-size="13" lengthAdjust="spacing" textLength="222.1235" x="1606.06" y="328.9598">draw + inner-edge collapse handle</text></g><!--link Left to PL--><g class="link" data-entity-1="ent0004" data-entity-2="ent0008" data-link-type="dependency" data-source-line="61" id="lnk17"><path d="M1498.9,441.5514 C1517.54,453.2414 1538.84,466.7714 1558,479.3614 C1594.98,503.6414 1631.4484,528.5939 1661.8384,549.6539" fill="none" id="Left-to-PL" style="stroke:#181818;stroke-width:1;"/><polygon fill="#181818" points="1666.77,553.0714,1661.651,544.6574,1662.6604,550.2235,1657.0943,551.2328,1666.77,553.0714" style="stroke:#181818;stroke-width:1;"/><text fill="#000000" font-family="sans-serif" font-size="13" lengthAdjust="spacing" textLength="72.3315" x="1584.28" y="492.9298">toggleLeft()</text></g><!--link Right to PL--><g class="link" data-entity-1="ent0005" data-entity-2="ent0008" data-link-type="dependency" data-source-line="62" id="lnk18"><path d="M1703.61,441.6114 C1705.25,473.1614 1707.4575,515.7895 1709.0975,547.2395" fill="none" id="Right-to-PL" style="stroke:#181818;stroke-width:1;"/><polygon fill="#181818" points="1709.41,553.2314,1712.9359,544.0353,1709.1496,548.2382,1704.9467,544.4519,1709.41,553.2314" style="stroke:#181818;stroke-width:1;"/><text fill="#000000" font-family="sans-serif" font-size="13" lengthAdjust="spacing" textLength="81.5293" x="1707.23" y="492.9298">toggleRight()</text></g><!--link Viewer to Toolbar--><g class="link" data-entity-1="ent0003" data-entity-2="ent0006" data-link-type="dependency" data-source-line="63" id="lnk19"><path d="M854.42,250.7714 C714.33,258.4114 398.8,278.6514 360,307.8914 C340.63,322.4914 331.8277,342.0012 326.4177,363.6012" fill="none" id="Viewer-to-Toolbar" style="stroke:#181818;stroke-width:1;"/><polygon fill="#181818" points="324.96,369.4214,331.0268,361.6629,326.1748,364.5712,323.2665,359.7192,324.96,369.4214" style="stroke:#181818;stroke-width:1;"/><text fill="#000000" font-family="sans-serif" font-size="13" lengthAdjust="spacing" textLength="154.3687" x="361" y="328.9598">draw (no zoom controls)</text></g><!--link Viewer to Fisheye--><g class="link" data-entity-1="ent0003" data-entity-2="ent0007" data-link-type="dependency" data-source-line="64" id="lnk20"><path d="M987.63,249.3614 C1185.08,255.4914 1758.21,275.8614 1836,307.8914 C1872.51,322.9214 1901.5526,349.7849 1922.9626,373.5349" fill="none" id="Viewer-to-Fisheye" style="stroke:#181818;stroke-width:1;"/><polygon fill="#181818" points="1926.98,377.9914,1923.9249,368.6284,1923.6322,374.2777,1917.9829,373.9849,1926.98,377.9914" style="stroke:#181818;stroke-width:1;"/><text fill="#000000" font-family="sans-serif" font-size="13" lengthAdjust="spacing" textLength="141.2925" x="1886.69" y="328.9598">warp rendered texture</text></g><!--link Fisheye to CV--><g class="link" data-entity-1="ent0007" data-entity-2="ent0009" data-link-type="dependency" data-source-line="65" id="lnk21"><path d="M1952,441.6114 C1952,473.1614 1952,515.7814 1952,547.2314" fill="none" id="Fisheye-to-CV" style="stroke:#181818;stroke-width:1;"/><polygon fill="#181818" points="1952,553.2314,1956,544.2314,1952,548.2314,1948,544.2314,1952,553.2314" style="stroke:#181818;stroke-width:1;"/><text fill="#000000" font-family="sans-serif" font-size="13" lengthAdjust="spacing" textLength="197.0566" x="1953" y="492.9298">focal = centre, strength, radius</text></g><!--link Viewer to Egui--><g class="link" data-entity-1="ent0003" data-entity-2="ent0010" data-link-type="dependency" data-source-line="66" id="lnk22"><path d="M898.85,278.1614 C883.04,298.1714 860.18,323.5114 835,339.8914 C800.72,362.2014 779.71,344.0514 748,369.8914 C697.35,411.1714 726.09,458.2514 673,496.3614 C620.95,533.7214 591.92,503.6814 532,526.3614 C508.23,535.3514 488.4497,546.1303 469.2197,558.0503" fill="none" id="Viewer-to-Egui" style="stroke:#181818;stroke-width:1;"/><polygon fill="#181818" points="464.12,561.2114,473.877,559.8695,468.3698,558.5771,469.6622,553.0699,464.12,561.2114" style="stroke:#181818;stroke-width:1;"/><text fill="#000000" font-family="sans-serif" font-size="13" lengthAdjust="spacing" textLength="136.2651" x="749" y="414.6898">painter mesh / image</text></g><!--link Egui to Dev--><g class="link" data-entity-1="ent0010" data-entity-2="ent0002" data-link-type="dependency" data-source-line="67" id="lnk23"><path d="M350.13,561.2814 C255.26,529.4714 101.94,461.3914 39,339.8914 C6,276.1814 15.6073,196.1383 27.1773,144.1183" fill="none" id="Egui-to-Dev" style="stroke:#181818;stroke-width:1;"/><polygon fill="#181818" points="28.48,138.2614,22.6214,146.1783,27.3945,143.1421,30.4306,147.9152,28.48,138.2614" style="stroke:#181818;stroke-width:1;"/><text fill="#000000" font-family="sans-serif" font-size="13" lengthAdjust="spacing" textLength="286.584" x="40" y="328.9598">centre-magnified diagram, collapsible panels</text></g><!--link Fisheye to GMN24--><g class="link" data-entity-1="ent0007" data-entity-2="ent0025" data-link-type="association" data-source-line="70" id="lnk26"><path d="M2043.09,433.6714 C2080.2,444.8814 2122.8,460.1314 2159,479.3614 C2194.78,498.3514 2230.93,526.6814 2256.95,549.0714" fill="none" id="Fisheye-GMN24" style="stroke:#181818;stroke-width:1;stroke-dasharray:7,7;"/></g><!--link Viewer to Launch--><g class="link" data-entity-1="ent0003" data-entity-2="ent0027" data-link-type="dependency" data-source-line="80" id="lnk30"><path d="M952.38,278.0114 C971.04,296.1214 995.25,319.4514 1017,339.8914 C1027.3,349.5714 1034.0564,355.8578 1044.5764,365.4978" fill="none" id="Viewer-to-Launch" style="stroke:#181818;stroke-width:1;"/><polygon fill="#181818" points="1049,369.5514,1045.067,360.5219,1045.3136,366.1734,1039.6622,366.4201,1049,369.5514" style="stroke:#181818;stroke-width:1;"/><text fill="#000000" font-family="sans-serif" font-size="13" lengthAdjust="spacing" textLength="259.981" x="1018" y="321.4598">open_render(slug) on "Open render" click</text><text fill="#000000" font-family="sans-serif" font-size="13" lengthAdjust="spacing" textLength="220.2065" x="1037.8872" y="336.7703">(UIC-OPEN-RENDER, view-tab row)</text></g><!--link Launch to Vite--><g class="link" data-entity-1="ent0027" data-entity-2="ent0028" data-link-type="dependency" data-source-line="81" id="lnk31"><path d="M1168.95,449.7414 C1230.44,480.9914 1310.0813,521.4628 1366.8613,550.3228" fill="none" id="Launch-to-Vite" style="stroke:#181818;stroke-width:1;"/><polygon fill="#181818" points="1372.21,553.0414,1365.9993,545.3976,1367.7527,550.7759,1362.3745,552.5293,1372.21,553.0414" style="stroke:#181818;stroke-width:1;"/><text fill="#000000" font-family="sans-serif" font-size="13" lengthAdjust="spacing" textLength="283.6641" x="1253.28" y="492.9298">spawn in mockups/ only if :4317 not serving</text></g><!--link Launch to Browser--><g class="link" data-entity-1="ent0027" data-entity-2="ent0029" data-link-type="dependency" data-source-line="82" id="lnk32"><path d="M949.68,449.7714 C883.55,469.7614 804.57,496.2214 736,526.3614 C713.29,536.3414 694.2102,546.8131 675.0702,558.2531" fill="none" id="Launch-to-Browser" style="stroke:#181818;stroke-width:1;"/><polygon fill="#181818" points="669.92,561.3314,679.6974,560.1475,674.2118,558.7662,675.5931,553.2806,669.92,561.3314" style="stroke:#181818;stroke-width:1;"/><text fill="#000000" font-family="sans-serif" font-size="13" lengthAdjust="spacing" textLength="147.0815" x="852.02" y="492.9298">open /mockup/&lt;slug&gt;</text></g><?plantuml-src jLVRRkCs47tNLmpIXzXOAywYHOlrReDc7MKtg9EukRKe0kpI4cspaKc1fEDaYmBzYFvBt_if_PAU8UL4IbAWBPgNH1PdXZE7XtD6xahfIbYneAMJkN2IVaw8tehyQcRDKXT3Knhxvir2EQVqR6U7FdkrdMMljfyoaZVU2ZRPtt_xvV1byalYxgBdfN3kkMARHMMqrFwPuZil_7FXOcNkXPwLpnLVvDxOPugDlrxbgXBFXhmsnVyBp2PzeuhEy72SNXnatsSdwUdxR3Jgydihfvtpqomif7i7k-zETWzFmqeXNVx8fqSRPtD9ShPKvEQoBCbCQL4KwRMIAsa7O6LPYigf2Swsb5FVjsesztIg2ZaMMfQkHuAyCUL4M5efFqUrzCcO1KsMtXiTrdEmMjfqgcvaGLE5ZMubvK9V2yUqd4doS-5f9Mpby2Z19rr82sEFufTMqaHE3VvLGcaFm11K5mXSSLH0p07a0Wi89wiOhP2bd87oY6YeKVVP--mmszheDb0yF1v-UpvEHxldHyFtBHYFnzbHUf8TxMKdRH1RBa3n8k15W10vnGHC9RL3aWw9v1x5B4n-jQms7Pr84BekSelsBT3YgkCwkN8v8yK5M7KjQq3C4fUt7otwRzXafqULDHCOb2ONvTmuF_ZYyvTVzSXLOeMTF-eADtEf4UZw8obT8rkPr1hZwzrSdmfboUZobjGqc5J6Ub8E1-b9b5QAuXOrsEk0EmnqNHdR7fyY-bGiIqyJQrQEwpdGr-OAvKvkWmapAVLYWXfMj7aCrxhopPeYr3a_6BQGVarI2p2kY7cjUCzrkixc_VLpn67BknkIDyfv5u_rUF8J00TsgGDD6usLKs62hzF2IPqVrBp_yzVVOlLe1tXG3e7osnoqp-TeRT9jqTaTC_jJWt2LgcIfDBzSW9YkoR9OIJe-66UZWwFiDKURuw3lcGg4pKf7d1xHC_7AO-lxczXEb1sjcwkAEcPTR3T9OflSs9FNiiGPsGt21SClQdIQ9Bd7O-EmA29nBtL7Xeiq6EnMLJSunfMc-GWDuFxgN-h3uxriT4gTHfE8hcpOT3nfDutQauR7HsVP3sTF10WEpGXdiSKWp_7kkwo-KwOcBY2vrEWx9z99t_yHtUT5-9l6OBLlCzp-4qq8iLkDYjjH351RDmE4EaRY5lSIVetEM9SYY-Ww7ZMzXc4x1XPEt2LnXuNktVN4e1SkUWulcfxnTAWVM_NsrkVRmIZ3hnPC81Stac9PSZqFULNZmKP9miH8qvtwd6d0R0lN8gdVy68CE035PxXWqdvWvhjEbrwGgAhozWFJMNPoVzCbTBKvXJoJwCO1E4FuxyDjJqwLLbv15U1-eTnIbAwvMU3NW0ehLZ1G6YHFPJ6JTw0Ihc9HogPFfDO_SGhHsMKyWhqtCymh_AxJJMAG1slX9HQRQDH2Ls_NMMjTZkgiALtBUCsnGM3I8qrBrkjiExo0sPJxE7qTvD9Az77yrJC_xv4LXLgseAfX3OA8LmlfvY27Me37ILXZ8pxXGHqknP9MKuK42YLcEALUIzoheEP9WguFkJLep0jkbMlgqtrN7OG-kQQiOeahbAjASPjwXLEFYewVN2qSJLIU2O_bZ5OVMn7CSr14U-W5fCx8g3Unrx8z79_ijPs_RxBG3UM3tm9LiMpO46gjOgaLJ67rgJ5O8Fs8OR6LO3jEGhPRPD2QaLZgV1xwvEE1uL878QOWl_J7xr60gI6__995SosIiKc6cCsz6XxOw4BX9DYPnLVQ7jNodg-AEpLSTshVQawFLJcOlOtFIUlAXIJ04axlGqIymxBQvNFRQCZr1hv-L7w5n1x8TQybyTsa3XbRYsV-HppKlOZVpHiHCZxvUi9eUjVvriazc7uUCRM6iq5KUdnMk2CFnxe14zRwL4rJBMN1HA0WzMLzvkinA-JwchDMOJvwC1lnMoln_Udmr6FUWtfsfS1whFpxcQnEGxDtQ-2gZvGmOhOXsQ8Z4tV0CE95MNv42158ZOkboY959Rd45woRBts18OBmPP7ZEsKMXvlsSSVf325Gwt-Tn-2DORSCLmvppcdsNHFx-olt5m00?></g></svg>