<svg xmlns="http://www.w3.org/2000/svg" xmlns:xlink="http://www.w3.org/1999/xlink" contentStyleType="text/css" data-diagram-type="DESCRIPTION" height="384px" preserveAspectRatio="none" style="width:482px;height:384px;background:#FFFFFF;" version="1.1" viewBox="0 0 482 384" width="482px" zoomAndPan="magnify"><?plantuml 1.2026.3?><defs/><g><g class="title" data-source-line="6"><text fill="#000000" font-family="sans-serif" font-size="14" font-weight="700" lengthAdjust="spacing" textLength="252.3896" x="111.7752" y="23.5352">Architecture CLI + engine (current)</text></g><!--entity Cli--><g class="entity" data-qualified-name="Cli" data-source-line="8" id="ent0002"><rect fill="#F1F1F1" height="62.9766" rx="2.5" ry="2.5" style="stroke:#181818;stroke-width:0.5;" width="215.3896" x="7" y="44.4883"/><rect fill="#F1F1F1" height="10" style="stroke:#181818;stroke-width:0.5;" width="15" x="202.3896" y="49.4883"/><rect fill="#F1F1F1" height="2" style="stroke:#181818;stroke-width:0.5;" width="4" x="200.3896" y="51.4883"/><rect fill="#F1F1F1" height="2" style="stroke:#181818;stroke-width:0.5;" width="4" x="200.3896" y="55.4883"/><text fill="#000000" font-family="sans-serif" font-size="14" lengthAdjust="spacing" textLength="99.1621" x="22" y="78.0234">mdd arch (CLI)</text><text fill="#000000" font-family="sans-serif" font-size="14" lengthAdjust="spacing" textLength="175.3896" x="22" y="94.5117">mdd-cli Commands::Arch</text></g><!--entity Engine--><g class="entity" data-qualified-name="Engine" data-source-line="9" id="ent0003"><rect fill="#F1F1F1" height="62.9766" rx="2.5" ry="2.5" style="stroke:#181818;stroke-width:0.5;" width="188.5039" x="141.44" y="184.4683"/><rect fill="#F1F1F1" height="10" style="stroke:#181818;stroke-width:0.5;" width="15" x="309.9439" y="189.4683"/><rect fill="#F1F1F1" height="2" style="stroke:#181818;stroke-width:0.5;" width="4" x="307.9439" y="191.4683"/><rect fill="#F1F1F1" height="2" style="stroke:#181818;stroke-width:0.5;" width="4" x="307.9439" y="195.4683"/><text fill="#000000" font-family="sans-serif" font-size="14" lengthAdjust="spacing" textLength="148.5039" x="156.44" y="218.0034">architecture.rs engine</text><text fill="#000000" font-family="sans-serif" font-size="14" lengthAdjust="spacing" textLength="140.8818" x="156.44" y="234.4917">(parse / diff / check)</text></g><!--entity Validate--><g class="entity" data-qualified-name="Validate" data-source-line="10" id="ent0004"><rect fill="#F1F1F1" height="62.9766" rx="2.5" ry="2.5" style="stroke:#181818;stroke-width:0.5;" width="199.0996" x="257.15" y="44.4883"/><rect fill="#F1F1F1" height="10" style="stroke:#181818;stroke-width:0.5;" width="15" x="436.2496" y="49.4883"/><rect fill="#F1F1F1" height="2" style="stroke:#181818;stroke-width:0.5;" width="4" x="434.2496" y="51.4883"/><rect fill="#F1F1F1" height="2" style="stroke:#181818;stroke-width:0.5;" width="4" x="434.2496" y="55.4883"/><text fill="#000000" font-family="sans-serif" font-size="14" lengthAdjust="spacing" textLength="87.7734" x="272.15" y="78.0234">mdd validate</text><text fill="#000000" font-family="sans-serif" font-size="14" lengthAdjust="spacing" textLength="159.0996" x="272.15" y="94.5117">(Project::validate_inner)</text></g><!--entity Spec--><g class="entity" data-qualified-name="Spec" data-source-line="11" id="ent0005"><rect fill="#F1F1F1" height="39.4883" rx="2.5" ry="2.5" style="stroke:#181818;stroke-width:0.5;" width="196.4414" x="56.47" y="327.9383"/><polygon fill="#F1F1F1" points="235.9114,332.9383,235.9114,346.9383,247.9114,346.9383,247.9114,338.9383,241.9114,332.9383,235.9114,332.9383" style="stroke:#181818;stroke-width:0.5;"/><line style="stroke:#181818;stroke-width:0.5;" x1="241.9114" x2="241.9114" y1="332.9383" y2="338.9383"/><line style="stroke:#181818;stroke-width:0.5;" x1="247.9114" x2="241.9114" y1="338.9383" y2="338.9383"/><text fill="#000000" font-family="sans-serif" font-size="14" lengthAdjust="spacing" textLength="166.4414" x="66.47" y="354.4734">.mdd/architecture/*.yml</text></g><!--entity Git--><g class="entity" data-qualified-name="Git" data-source-line="12" id="ent0006"><rect fill="#F1F1F1" height="46.4883" rx="2.5" ry="2.5" style="stroke:#181818;stroke-width:0.5;" width="58.0127" x="287.69" y="324.4383"/><rect fill="#F1F1F1" height="10" style="stroke:#181818;stroke-width:0.5;" width="15" x="325.7027" y="329.4383"/><rect fill="#F1F1F1" height="2" style="stroke:#181818;stroke-width:0.5;" width="4" x="323.7027" y="331.4383"/><rect fill="#F1F1F1" height="2" style="stroke:#181818;stroke-width:0.5;" width="4" x="323.7027" y="335.4383"/><text fill="#000000" font-family="sans-serif" font-size="14" lengthAdjust="spacing" textLength="18.0127" x="302.69" y="357.9734">git</text></g><!--link Cli to Engine--><g class="link" data-entity-1="ent0002" data-entity-2="ent0003" data-link-type="dependency" data-source-line="14" id="lnk7"><path d="M141.85,107.9383 C161.78,130.6683 184.7636,156.8775 204.6736,179.5775" fill="none" id="Cli-to-Engine" style="stroke:#181818;stroke-width:1;"/><polygon fill="#181818" points="208.63,184.0883,205.7026,174.6845,205.333,180.3293,199.6883,179.9597,208.63,184.0883" style="stroke:#181818;stroke-width:1;"/><text fill="#000000" font-family="sans-serif" font-size="13" lengthAdjust="spacing" textLength="74.769" x="183.44" y="151.0366">diff / status</text></g><!--link Engine to Spec--><g class="link" data-entity-1="ent0003" data-entity-2="ent0005" data-link-type="dependency" data-source-line="15" id="lnk8"><path d="M205.22,247.7083 C197.22,256.7983 189.06,267.0983 182.69,277.4383 C172.9,293.3383 167.1721,307.5678 162.3621,321.9578" fill="none" id="Engine-to-Spec" style="stroke:#181818;stroke-width:1;"/><polygon fill="#181818" points="160.46,327.6483,167.1068,320.3806,162.0451,322.9062,159.5195,317.8444,160.46,327.6483" style="stroke:#181818;stroke-width:1;"/><text fill="#000000" font-family="sans-serif" font-size="13" lengthAdjust="spacing" textLength="89.5146" x="183.69" y="291.0066">parse working</text></g><!--link Engine to Git--><g class="link" data-entity-1="ent0003" data-entity-2="ent0006" data-link-type="dependency" data-source-line="16" id="lnk9"><path d="M257.85,247.6583 C264.42,257.0883 271.52,267.5783 277.69,277.4383 C287.29,292.7583 294.4077,305.2605 301.8777,318.9605" fill="none" id="Engine-to-Git" style="stroke:#181818;stroke-width:1;"/><polygon fill="#181818" points="304.75,324.2283,303.9534,314.4117,302.3564,319.8384,296.9297,318.2414,304.75,324.2283" style="stroke:#181818;stroke-width:1;"/><text fill="#000000" font-family="sans-serif" font-size="13" lengthAdjust="spacing" textLength="164.9819" x="288.84" y="291.0066">read base at ref (git show)</text></g><!--link Validate to Engine--><g class="link" data-entity-1="ent0004" data-entity-2="ent0003" data-link-type="dependency" data-source-line="17" id="lnk10"><path d="M329.54,107.9383 C309.61,130.6683 286.6264,156.8775 266.7164,179.5775" fill="none" id="Validate-to-Engine" style="stroke:#181818;stroke-width:1;"/><polygon fill="#181818" points="262.76,184.0883,271.7017,179.9597,266.057,180.3293,265.6874,174.6845,262.76,184.0883" style="stroke:#181818;stroke-width:1;"/><text fill="#000000" font-family="sans-serif" font-size="13" lengthAdjust="spacing" textLength="162.5" x="304.44" y="151.0366">check() as WARNING rules</text></g><?plantuml-src VPB1Rjim38RlVWeYbzfRx1IxpGEA6kxG1TkA8XssIu5KaUX4hImPajmiRpzAZbkds7QIH97wVv7V6UHv3lkTKPYth8FEccVKJ7CiWH-uGl0xva5gRuteEGf0ndTmAKKeJCxWCcQbzVVRl5hLN_Bwst8Ev-SVFcRXKegJcnWJwFYR_DcoxHIsg3q9C4UQ2AqGELSI7cW3pFBT0sXq8S7r6sxQbca1QJriN5bMb0Bv1OJr62tBAzaqYplFVE_cPFZH6Pr1f_g9XB4OdvSUkUyj5jO1wgtK26arYTzroA5Zrk4SEZg3eBVJx7ZWE-HFuHHStLhpI4LbQP69jSVVVitysc83M-bpjpDxs3274AxHPWLSIUUbvXuQQrfuwSsFLLL_NTvSGnhSkc20MIyRHfdlmICrZNbqj6TRwXq8mxEIVYOToE67tXWbzNOOOZ3iei5jB9F-q-Wxv3Fb372c5BLuStZzn3DJKb31McgDjfY58TQzjQIOEodexwRjZ0u66cEZxBIVG1CcXsDB1wWY84NYfQT3zP_iGITBabUHsGW4JP-GkjSZAQSip098jPBJoh_F-LwdSQwmY2sY9NObYozyZYblvSUUKEa_-ZHK_pp6afUvpGggNqoDBDuLXrR5zC3OL8fmYV5hwPE4_a88NnmTGJcQTH7lv1WE6H7LSe0LziO-4GBJUtgEhWDz0uV4He0p9Ja8T6R9wFjKS8I57FsgLZU1JDihT7y0?></g></svg>