<svg xmlns="http://www.w3.org/2000/svg" xmlns:xlink="http://www.w3.org/1999/xlink" contentStyleType="text/css" data-diagram-type="DESCRIPTION" height="873px" preserveAspectRatio="none" style="width:2653px;height:873px;background:#FFFFFF;" version="1.1" viewBox="0 0 2653 873" width="2653px" zoomAndPan="magnify"><?plantuml 1.2026.3?><defs/><g><g class="title" data-source-line="26"><text fill="#000000" font-family="sans-serif" font-size="14" font-weight="700" lengthAdjust="spacing" textLength="268.9053" x="1188.6902" y="23.5352">Cycle tracking &#8212; ownership (current)</text></g><!--cluster existing workflow skills--><g class="cluster" data-qualified-name="existing workflow skills" data-source-line="31" id="ent0004"><path d="M750.91,338.9383 L924.7088,338.9383 A3.75,3.75 0 0 1 927.2088,341.4383 L934.2088,361.4266 L1771.91,361.4266 A2.5,2.5 0 0 1 1774.41,363.9266 L1774.41,433.9283 A2.5,2.5 0 0 1 1771.91,436.4283 L750.91,436.4283 A2.5,2.5 0 0 1 748.41,433.9283 L748.41,341.4383 A2.5,2.5 0 0 1 750.91,338.9383" fill="none" style="stroke:#000000;stroke-width:1.5;"/><line style="stroke:#000000;stroke-width:1.5;" x1="748.41" x2="934.2088" y1="361.4266" y2="361.4266"/><text fill="#000000" font-family="sans-serif" font-size="14" font-weight="700" lengthAdjust="spacing" textLength="172.7988" x="752.41" y="354.4734">existing workflow skills</text></g><!--entity Gen--><g class="entity" data-qualified-name="existing workflow skills.Gen" data-source-line="32" id="ent0005"><rect fill="#F1F1F1" height="46.4883" rx="2.5" ry="2.5" style="stroke:#181818;stroke-width:0.5;" width="145.6494" x="1094.59" y="373.9383"/><rect fill="#F1F1F1" height="10" style="stroke:#181818;stroke-width:0.5;" width="15" x="1220.2394" y="378.9383"/><rect fill="#F1F1F1" height="2" style="stroke:#181818;stroke-width:0.5;" width="4" x="1218.2394" y="380.9383"/><rect fill="#F1F1F1" height="2" style="stroke:#181818;stroke-width:0.5;" width="4" x="1218.2394" y="384.9383"/><text fill="#000000" font-family="sans-serif" font-size="14" lengthAdjust="spacing" textLength="105.6494" x="1109.59" y="407.4734">/mdd-generate</text></g><!--entity MapS--><g class="entity" data-qualified-name="existing workflow skills.MapS" data-source-line="33" id="ent0006"><rect fill="#F1F1F1" height="46.4883" rx="2.5" ry="2.5" style="stroke:#181818;stroke-width:0.5;" width="115.749" x="1275.54" y="373.9383"/><rect fill="#F1F1F1" height="10" style="stroke:#181818;stroke-width:0.5;" width="15" x="1371.289" y="378.9383"/><rect fill="#F1F1F1" height="2" style="stroke:#181818;stroke-width:0.5;" width="4" x="1369.289" y="380.9383"/><rect fill="#F1F1F1" height="2" style="stroke:#181818;stroke-width:0.5;" width="4" x="1369.289" y="384.9383"/><text fill="#000000" font-family="sans-serif" font-size="14" lengthAdjust="spacing" textLength="75.749" x="1290.54" y="407.4734">/mdd-map</text></g><!--entity ValS--><g class="entity" data-qualified-name="existing workflow skills.ValS" data-source-line="34" id="ent0007"><rect fill="#F1F1F1" height="46.4883" rx="2.5" ry="2.5" style="stroke:#181818;stroke-width:0.5;" width="138.7861" x="1426.02" y="373.9383"/><rect fill="#F1F1F1" height="10" style="stroke:#181818;stroke-width:0.5;" width="15" x="1544.8061" y="378.9383"/><rect fill="#F1F1F1" height="2" style="stroke:#181818;stroke-width:0.5;" width="4" x="1542.8061" y="380.9383"/><rect fill="#F1F1F1" height="2" style="stroke:#181818;stroke-width:0.5;" width="4" x="1542.8061" y="384.9383"/><text fill="#000000" font-family="sans-serif" font-size="14" lengthAdjust="spacing" textLength="98.7861" x="1441.02" y="407.4734">/mdd-validate</text></g><!--entity ImplS--><g class="entity" data-qualified-name="existing workflow skills.ImplS" data-source-line="35" id="ent0008"><rect fill="#F1F1F1" height="46.4883" rx="2.5" ry="2.5" style="stroke:#181818;stroke-width:0.5;" width="158.7061" x="1600.06" y="373.9383"/><rect fill="#F1F1F1" height="10" style="stroke:#181818;stroke-width:0.5;" width="15" x="1738.7661" y="378.9383"/><rect fill="#F1F1F1" height="2" style="stroke:#181818;stroke-width:0.5;" width="4" x="1736.7661" y="380.9383"/><rect fill="#F1F1F1" height="2" style="stroke:#181818;stroke-width:0.5;" width="4" x="1736.7661" y="384.9383"/><text fill="#000000" font-family="sans-serif" font-size="14" lengthAdjust="spacing" textLength="118.7061" x="1615.06" y="407.4734">/mdd-implement</text></g><!--entity RevS--><g class="entity" data-qualified-name="existing workflow skills.RevS" data-source-line="36" id="ent0009"><rect fill="#F1F1F1" height="46.4883" rx="2.5" ry="2.5" style="stroke:#181818;stroke-width:0.5;" width="129.5439" x="764.64" y="373.9383"/><rect fill="#F1F1F1" height="10" style="stroke:#181818;stroke-width:0.5;" width="15" x="874.1839" y="378.9383"/><rect fill="#F1F1F1" height="2" style="stroke:#181818;stroke-width:0.5;" width="4" x="872.1839" y="380.9383"/><rect fill="#F1F1F1" height="2" style="stroke:#181818;stroke-width:0.5;" width="4" x="872.1839" y="384.9383"/><text fill="#000000" font-family="sans-serif" font-size="14" lengthAdjust="spacing" textLength="89.5439" x="779.64" y="407.4734">/mdd-review</text></g><!--entity RendS--><g class="entity" data-qualified-name="existing workflow skills.RendS" data-source-line="37" id="ent0010"><rect fill="#F1F1F1" height="46.4883" rx="2.5" ry="2.5" style="stroke:#181818;stroke-width:0.5;" width="130.6924" x="929.06" y="373.9383"/><rect fill="#F1F1F1" height="10" style="stroke:#181818;stroke-width:0.5;" width="15" x="1039.7524" y="378.9383"/><rect fill="#F1F1F1" height="2" style="stroke:#181818;stroke-width:0.5;" width="4" x="1037.7524" y="380.9383"/><rect fill="#F1F1F1" height="2" style="stroke:#181818;stroke-width:0.5;" width="4" x="1037.7524" y="384.9383"/><text fill="#000000" font-family="sans-serif" font-size="14" lengthAdjust="spacing" textLength="90.6924" x="944.06" y="407.4734">/mdd-render</text></g><!--entity Dev--><g class="entity" data-qualified-name="Dev" data-source-line="28" id="ent0002"><ellipse cx="2096.4092" cy="51.4883" fill="#F1F1F1" rx="8" ry="8" style="stroke:#181818;stroke-width:0.5;"/><path d="M2096.4092,59.4883 L2096.4092,86.4883 M2083.4092,67.4883 L2109.4092,67.4883 M2096.4092,86.4883 L2083.4092,101.4883 M2096.4092,86.4883 L2109.4092,101.4883" fill="none" style="stroke:#181818;stroke-width:0.5;"/><text fill="#000000" font-family="sans-serif" font-size="14" lengthAdjust="spacing" textLength="68.3184" x="2062.25" y="116.5234">Developer</text></g><!--entity Orch--><g class="entity" data-qualified-name="Orch" data-source-line="30" id="ent0003"><rect fill="#F1F1F1" height="62.9766" rx="2.5" ry="2.5" style="stroke:#181818;stroke-width:0.5;" width="190.7803" x="1028.02" y="204.7183"/><rect fill="#F1F1F1" height="10" style="stroke:#181818;stroke-width:0.5;" width="15" x="1198.8003" y="209.7183"/><rect fill="#F1F1F1" height="2" style="stroke:#181818;stroke-width:0.5;" width="4" x="1196.8003" y="211.7183"/><rect fill="#F1F1F1" height="2" style="stroke:#181818;stroke-width:0.5;" width="4" x="1196.8003" y="215.7183"/><text fill="#000000" font-family="sans-serif" font-size="14" lengthAdjust="spacing" textLength="79.6387" x="1043.02" y="238.2534">/mdd-cycle</text><text fill="#000000" font-family="sans-serif" font-size="14" lengthAdjust="spacing" textLength="150.7803" x="1043.02" y="254.7417">(SKILL.md + template)</text></g><!--entity Store--><g class="entity" data-qualified-name="Store" data-source-line="40" id="ent0011"><path d="M875.87,653.8883 L916.87,653.8883 A3.75,3.75 0 0 1 919.37,656.3883 L926.37,674.8883 L1100.9511,674.8883 A2.5,2.5 0 0 1 1103.4511,677.3883 L1103.4511,738.8531 A2.5,2.5 0 0 1 1100.9511,741.3531 L875.87,741.3531 A2.5,2.5 0 0 1 873.37,738.8531 L873.37,656.3883 A2.5,2.5 0 0 1 875.87,653.8883" fill="#F1F1F1" style="stroke:#181818;stroke-width:0.5;"/><line style="stroke:#181818;stroke-width:0.5;" x1="873.37" x2="926.37" y1="674.8883" y2="674.8883"/><text fill="#000000" font-family="sans-serif" font-size="14" lengthAdjust="spacing" textLength="130.3887" x="883.37" y="695.4234">.mdd/cycles/&lt;N&gt;/</text><text fill="#000000" font-family="sans-serif" font-size="14" lengthAdjust="spacing" textLength="200.0811" x="883.37" y="711.9117">manifest.yml, before/, after/,</text><text fill="#000000" font-family="sans-serif" font-size="14" lengthAdjust="spacing" textLength="106.4629" x="883.37" y="728.4">&lt;rel&gt;.diff.puml</text></g><!--entity Rendered--><g class="entity" data-qualified-name="Rendered" data-source-line="41" id="ent0012"><path d="M1285.46,662.1383 L1326.46,662.1383 A3.75,3.75 0 0 1 1328.96,664.6383 L1335.96,683.1383 L1509.3584,683.1383 A2.5,2.5 0 0 1 1511.8584,685.6383 L1511.8584,730.6148 A2.5,2.5 0 0 1 1509.3584,733.1148 L1285.46,733.1148 A2.5,2.5 0 0 1 1282.96,730.6148 L1282.96,664.6383 A2.5,2.5 0 0 1 1285.46,662.1383" fill="#F1F1F1" style="stroke:#181818;stroke-width:0.5;"/><line style="stroke:#181818;stroke-width:0.5;" x1="1282.96" x2="1335.96" y1="683.1383" y2="683.1383"/><text fill="#000000" font-family="sans-serif" font-size="14" lengthAdjust="spacing" textLength="198.8984" x="1292.96" y="703.6734">.mdd/rendered/cycles/&lt;N&gt;/</text><text fill="#000000" font-family="sans-serif" font-size="14" lengthAdjust="spacing" textLength="94.958" x="1292.96" y="720.1617">&lt;rel&gt;.diff.svg</text></g><!--entity Models--><g class="entity" data-qualified-name="Models" data-source-line="42" id="ent0013"><path d="M1220.35,518.1583 L1261.35,518.1583 A3.75,3.75 0 0 1 1263.85,520.6583 L1270.85,539.1583 L1458.474,539.1583 A2.5,2.5 0 0 1 1460.974,541.6583 L1460.974,570.1466 A2.5,2.5 0 0 1 1458.474,572.6466 L1220.35,572.6466 A2.5,2.5 0 0 1 1217.85,570.1466 L1217.85,520.6583 A2.5,2.5 0 0 1 1220.35,518.1583" fill="#F1F1F1" style="stroke:#181818;stroke-width:0.5;"/><line style="stroke:#181818;stroke-width:0.5;" x1="1217.85" x2="1270.85" y1="539.1583" y2="539.1583"/><text fill="#000000" font-family="sans-serif" font-size="14" lengthAdjust="spacing" textLength="213.124" x="1227.85" y="559.6934">.mdd/models/, .mdd/trace.yml</text></g><!--entity Core--><g class="entity" data-qualified-name="Core" data-source-line="44" id="ent0014"><rect fill="#F1F1F1" height="79.4648" rx="2.5" ry="2.5" style="stroke:#181818;stroke-width:0.5;" width="249.5078" x="1793.66" y="357.4483"/><rect fill="#F1F1F1" height="10" style="stroke:#181818;stroke-width:0.5;" width="15" x="2023.1678" y="362.4483"/><rect fill="#F1F1F1" height="2" style="stroke:#181818;stroke-width:0.5;" width="4" x="2021.1678" y="364.4483"/><rect fill="#F1F1F1" height="2" style="stroke:#181818;stroke-width:0.5;" width="4" x="2021.1678" y="368.4483"/><text fill="#000000" font-family="sans-serif" font-size="14" lengthAdjust="spacing" textLength="110.4551" x="1808.66" y="390.9834">mdd-core::cycle</text><text fill="#000000" font-family="sans-serif" font-size="14" lengthAdjust="spacing" textLength="209.5078" x="1808.66" y="407.4717">CycleRegistry, diff_documents,</text><text fill="#000000" font-family="sans-serif" font-size="14" lengthAdjust="spacing" textLength="190.75" x="1808.66" y="423.96">extract_descs, diff_puml_rel</text></g><!--entity DiffRend--><g class="entity" data-qualified-name="DiffRend" data-source-line="45" id="ent0015"><rect fill="#F1F1F1" height="62.9766" rx="2.5" ry="2.5" style="stroke:#181818;stroke-width:0.5;" width="260.3701" x="858.23" y="513.9183"/><rect fill="#F1F1F1" height="10" style="stroke:#181818;stroke-width:0.5;" width="15" x="1098.6001" y="518.9183"/><rect fill="#F1F1F1" height="2" style="stroke:#181818;stroke-width:0.5;" width="4" x="1096.6001" y="520.9183"/><rect fill="#F1F1F1" height="2" style="stroke:#181818;stroke-width:0.5;" width="4" x="1096.6001" y="524.9183"/><text fill="#000000" font-family="sans-serif" font-size="14" lengthAdjust="spacing" textLength="83.3506" x="873.23" y="547.4534">mdd-render</text><text fill="#000000" font-family="sans-serif" font-size="14" lengthAdjust="spacing" textLength="220.3701" x="873.23" y="563.9417">render_cycle_diffs, render_paths</text></g><!--entity Viewer--><g class="entity" data-qualified-name="Viewer" data-source-line="46" id="ent0016"><rect fill="#F1F1F1" height="79.4648" rx="2.5" ry="2.5" style="stroke:#181818;stroke-width:0.5;" width="226.1084" x="1983.36" y="196.4783"/><rect fill="#F1F1F1" height="10" style="stroke:#181818;stroke-width:0.5;" width="15" x="2189.4684" y="201.4783"/><rect fill="#F1F1F1" height="2" style="stroke:#181818;stroke-width:0.5;" width="4" x="2187.4684" y="203.4783"/><rect fill="#F1F1F1" height="2" style="stroke:#181818;stroke-width:0.5;" width="4" x="2187.4684" y="207.4783"/><text fill="#000000" font-family="sans-serif" font-size="14" lengthAdjust="spacing" textLength="82.2021" x="1998.36" y="230.0134">mdd-viewer</text><text fill="#000000" font-family="sans-serif" font-size="14" lengthAdjust="spacing" textLength="170.1875" x="1998.36" y="246.5017">tree.rs, diff_ui (DiffView),</text><text fill="#000000" font-family="sans-serif" font-size="14" lengthAdjust="spacing" textLength="186.1084" x="1998.36" y="262.99">paint_canvas, DESCRIPTION</text></g><!--entity Egui--><g class="entity" data-qualified-name="Egui" data-source-line="47" id="ent0017"><rect fill="#F1F1F1" height="46.4883" rx="2.5" ry="2.5" style="stroke:#181818;stroke-width:0.5;" width="168.1602" x="2222.33" y="373.9383"/><rect fill="#F1F1F1" height="10" style="stroke:#181818;stroke-width:0.5;" width="15" x="2370.4902" y="378.9383"/><rect fill="#F1F1F1" height="2" style="stroke:#181818;stroke-width:0.5;" width="4" x="2368.4902" y="380.9383"/><rect fill="#F1F1F1" height="2" style="stroke:#181818;stroke-width:0.5;" width="4" x="2368.4902" y="384.9383"/><text fill="#000000" font-family="sans-serif" font-size="14" lengthAdjust="spacing" textLength="128.1602" x="2237.33" y="407.4734">eframe / egui 0.30</text></g><g class="entity" data-qualified-name="GMN38" data-source-line="72" id="ent0039"><path d="M6,369.2183 L6,425.1499 L318.8208,425.1499 L318.8208,379.2183 L308.8208,369.2183 L6,369.2183" fill="#FEFFDD" style="stroke:#181818;stroke-width:0.5;"/><path d="M308.8208,369.2183 L308.8208,379.2183 L318.8208,379.2183 L308.8208,369.2183" fill="#FEFFDD" style="stroke:#181818;stroke-width:1;"/><text fill="#000000" font-family="sans-serif" font-size="13" lengthAdjust="spacing" textLength="235.9614" x="12" y="386.7866">Owns the cycle boundary. Standalone</text><text fill="#000000" font-family="sans-serif" font-size="13" lengthAdjust="spacing" textLength="291.8208" x="12" y="402.0972">/mdd-map and /mdd-generate never open or</text><text fill="#000000" font-family="sans-serif" font-size="13" lengthAdjust="spacing" textLength="251.6782" x="12" y="417.4077">close a cycle (documented in SKILL.md).</text></g><g class="entity" data-qualified-name="GMN41" data-source-line="78" id="ent0042"><path d="M1248.12,802.3583 L1248.12,858.2899 A0,0 0 0 0 1248.12,858.2899 L1546.6967,858.2899 A0,0 0 0 0 1546.6967,858.2899 L1546.6967,812.3583 L1536.6967,802.3583 L1401.41,802.3583 L1397.41,733.3083 L1393.41,802.3583 L1248.12,802.3583 A0,0 0 0 0 1248.12,802.3583" fill="#FEFFDD" style="stroke:#181818;stroke-width:0.5;"/><path d="M1536.6967,802.3583 L1536.6967,812.3583 L1546.6967,812.3583 L1536.6967,802.3583" fill="#FEFFDD" style="stroke:#181818;stroke-width:0.5;"/><text fill="#000000" font-family="sans-serif" font-size="13" lengthAdjust="spacing" textLength="244.6958" x="1254.12" y="819.9266">Viewer has no PlantUML engine; it only</text><text fill="#000000" font-family="sans-serif" font-size="13" lengthAdjust="spacing" textLength="271.5527" x="1254.12" y="835.2372">consumes pre-rendered SVG. The path is a</text><text fill="#000000" font-family="sans-serif" font-size="13" lengthAdjust="spacing" textLength="277.5767" x="1254.12" y="850.5477">1:1 mirror (OCL-DIFF-SVG-PATH-DERIVED).</text></g><!--link Dev to Orch--><g class="link" data-entity-1="ent0002" data-entity-2="ent0003" data-link-type="dependency" data-source-line="49" id="lnk18"><path d="M2061.78,87.6783 C1926.37,108.9683 1435.7272,186.1066 1224.9572,219.2366" fill="none" id="Dev-to-Orch" style="stroke:#181818;stroke-width:1;"/><polygon fill="#181818" points="1219.03,220.1683,1228.542,222.7223,1223.9694,219.3919,1227.2997,214.8193,1219.03,220.1683" style="stroke:#181818;stroke-width:1;"/><text fill="#000000" font-family="sans-serif" font-size="13" lengthAdjust="spacing" textLength="162.646" x="1669.17" y="163.0466">/mdd-cycle [description?]</text></g><!--link Orch to Gen--><g class="link" data-entity-1="ent0003" data-entity-2="ent0005" data-link-type="dependency" data-source-line="50" id="lnk19"><path d="M1117.7,267.9483 C1115.76,284.5483 1115.21,305.2183 1120.41,322.9383 C1125.85,341.4983 1133.9693,355.0314 1144.3593,368.7014" fill="none" id="Orch-to-Gen" style="stroke:#181818;stroke-width:1;"/><polygon fill="#181818" points="1147.99,373.4783,1145.7285,363.8926,1144.9644,369.4976,1139.3594,368.7335,1147.99,373.4783" style="stroke:#181818;stroke-width:1;"/><text fill="#000000" font-family="sans-serif" font-size="13" lengthAdjust="spacing" textLength="153.5117" x="1121.41" y="319.5066">entry (description given)</text></g><!--link Orch to MapS--><g class="link" data-entity-1="ent0003" data-entity-2="ent0006" data-link-type="dependency" data-source-line="51" id="lnk20"><path d="M1218.88,268.1483 C1240.32,277.9983 1261.88,290.4683 1279.41,305.9383 C1300.49,324.5483 1313.3363,347.9352 1322.1463,367.9852" fill="none" id="Orch-to-MapS" style="stroke:#181818;stroke-width:1;"/><polygon fill="#181818" points="1324.56,373.4783,1324.6016,363.6295,1322.5486,368.9007,1317.2774,366.8477,1324.56,373.4783" style="stroke:#181818;stroke-width:1;"/><text fill="#000000" font-family="sans-serif" font-size="13" lengthAdjust="spacing" textLength="135.6621" x="1295.98" y="319.5066">entry (no description)</text></g><!--link Orch to ValS--><g class="link" data-entity-1="ent0003" data-entity-2="ent0007" data-link-type="dependency" data-source-line="52" id="lnk21"><path d="M1219.02,249.4983 C1298.94,261.2883 1405.31,280.9583 1440.41,305.9383 C1463.88,322.6383 1477.0106,347.2319 1485.3906,368.0619" fill="none" id="Orch-to-ValS" style="stroke:#181818;stroke-width:1;"/><polygon fill="#181818" points="1487.63,373.6283,1487.9819,363.7857,1485.7638,368.9896,1480.56,366.7716,1487.63,373.6283" style="stroke:#181818;stroke-width:1;"/><text fill="#000000" font-family="sans-serif" font-size="13" lengthAdjust="spacing" textLength="27.3901" x="1458.15" y="319.5066">gate</text></g><!--link Orch to ImplS--><g class="link" data-entity-1="ent0003" data-entity-2="ent0008" data-link-type="dependency" data-source-line="53" id="lnk22"><path d="M1219.29,243.7983 C1315.05,253.3183 1464.55,276.2483 1582.41,330.9383 C1607.08,342.3883 1627.6935,356.137 1646.3235,370.057" fill="none" id="Orch-to-ImplS" style="stroke:#181818;stroke-width:1;"/><polygon fill="#181818" points="1651.13,373.6483,1646.3145,365.057,1647.1246,370.6555,1641.526,371.4656,1651.13,373.6483" style="stroke:#181818;stroke-width:1;"/><text fill="#000000" font-family="sans-serif" font-size="13" lengthAdjust="spacing" textLength="65.3809" x="1560.38" y="319.5066">write code</text></g><!--link Orch to RevS--><g class="link" data-entity-1="ent0003" data-entity-2="ent0009" data-link-type="dependency" data-source-line="54" id="lnk23"><path d="M1040.43,268.1183 C1000.25,284.5183 952.04,306.3583 911.41,330.9383 C891.02,343.2783 874.5777,356.1544 858.9377,369.6144" fill="none" id="Orch-to-RevS" style="stroke:#181818;stroke-width:1;"/><polygon fill="#181818" points="854.39,373.5283,863.8208,370.6893,858.1798,370.2667,858.6024,364.6257,854.39,373.5283" style="stroke:#181818;stroke-width:1;"/><text fill="#000000" font-family="sans-serif" font-size="13" lengthAdjust="spacing" textLength="36.0928" x="956.81" y="319.5066">parity</text></g><!--link Orch to Store--><g class="link" data-entity-1="ent0003" data-entity-2="ent0011" data-link-type="dependency" data-source-line="55" id="lnk24"><path d="M1027.7,243.1783 C892.62,252.6083 653.58,273.3283 573.41,305.9383 C512.19,330.8383 443.02,331.5483 380.41,466.9183 C335.89,563.1883 678.7612,640.841 867.1812,675.891" fill="none" id="Orch-to-Store" style="stroke:#181818;stroke-width:1;"/><polygon fill="#181818" points="873.08,676.9883,864.9633,671.4098,868.1643,676.0739,863.5003,679.2749,873.08,676.9883" style="stroke:#181818;stroke-width:1;"/><text fill="#000000" font-family="sans-serif" font-size="13" lengthAdjust="spacing" textLength="251.8179" x="381.41" y="480.4866">open / before / close / after / diff puml</text></g><!--link Orch to DiffRend--><g class="link" data-entity-1="ent0003" data-entity-2="ent0015" data-link-type="dependency" data-source-line="56" id="lnk25"><path d="M1027.65,239.2083 C885.58,244.4283 629.57,263.2383 572.41,330.9383 C539.87,369.4783 541.19,404.8083 572.41,444.4283 C581.53,456.0083 733.4434,490.41 852.0034,515.84" fill="none" id="Orch-to-DiffRend" style="stroke:#181818;stroke-width:1;"/><polygon fill="#181818" points="857.87,517.0983,849.909,511.2998,852.9812,516.0497,848.2313,519.1218,857.87,517.0983" style="stroke:#181818;stroke-width:1;"/><text fill="#000000" font-family="sans-serif" font-size="13" lengthAdjust="spacing" textLength="174.2749" x="573.41" y="402.2466">on close, render_cycle_diffs</text></g><!--link RendS to DiffRend--><g class="link" data-entity-1="ent0010" data-entity-2="ent0015" data-link-type="dependency" data-source-line="57" id="lnk26"><path d="M990.71,420.7083 C988.7,434.0883 986.42,451.4283 985.41,466.9183 C984.92,474.4583 985.22,476.3583 985.41,483.9183 C985.65,493.5883 985.7916,498.1262 986.2816,507.6462" fill="none" id="RendS-to-DiffRend" style="stroke:#181818;stroke-width:1;"/><polygon fill="#181818" points="986.59,513.6383,990.1221,504.4446,986.333,508.6449,982.1327,504.8558,986.59,513.6383" style="stroke:#181818;stroke-width:1;"/><text fill="#000000" font-family="sans-serif" font-size="13" lengthAdjust="spacing" textLength="152.7119" x="986.41" y="480.4866">/mdd-render diff pumls</text></g><!--link DiffRend to Store--><g class="link" data-entity-1="ent0015" data-entity-2="ent0011" data-link-type="dependency" data-source-line="58" id="lnk27"><path d="M988.41,577.1683 C988.41,599.2283 988.41,644.2383 988.41,668.6583" fill="none" id="DiffRend-to-Store" style="stroke:#181818;stroke-width:1;"/><polygon fill="#181818" points="988.41,674.6583,992.41,665.6583,988.41,669.6583,984.41,665.6583,988.41,674.6583" style="stroke:#181818;stroke-width:1;"/><text fill="#000000" font-family="sans-serif" font-size="13" lengthAdjust="spacing" textLength="130.895" x="989.41" y="620.4566">read &lt;rel&gt;.diff.puml</text></g><!--link DiffRend to Rendered--><g class="link" data-entity-1="ent0015" data-entity-2="ent0012" data-link-type="dependency" data-source-line="59" id="lnk28"><path d="M1072.66,577.3483 C1139.42,601.8683 1227.0781,634.0591 1296.5381,659.5791" fill="none" id="DiffRend-to-Rendered" style="stroke:#181818;stroke-width:1;"/><polygon fill="#181818" points="1302.17,661.6483,1295.1016,654.7899,1297.4767,659.924,1292.3427,662.2991,1302.17,661.6483" style="stroke:#181818;stroke-width:1;"/><text fill="#000000" font-family="sans-serif" font-size="13" lengthAdjust="spacing" textLength="299.5586" x="1193.91" y="620.4566">write &lt;rel&gt;.diff.svg (rendered_svg_path mirror)</text></g><!--link Gen to Models--><g class="link" data-entity-1="ent0005" data-entity-2="ent0013" data-link-type="dependency" data-source-line="60" id="lnk29"><path d="M1174.38,420.7483 C1181.21,439.6783 1193.26,466.3483 1211.41,483.9183 C1225.72,497.7583 1238.3838,506.2751 1256.4038,515.0351" fill="none" id="Gen-to-Models" style="stroke:#181818;stroke-width:1;"/><polygon fill="#181818" points="1261.8,517.6583,1255.4546,510.126,1257.3032,515.4723,1251.9569,517.3209,1261.8,517.6583" style="stroke:#181818;stroke-width:1;"/><text fill="#000000" font-family="sans-serif" font-size="13" lengthAdjust="spacing" textLength="115.0449" x="1212.41" y="480.4866">objective + @desc</text></g><!--link MapS to Models--><g class="link" data-entity-1="ent0006" data-entity-2="ent0013" data-link-type="dependency" data-source-line="61" id="lnk30"><path d="M1334.33,420.7083 C1335.41,446.9083 1336.9341,505.1033 1338.0741,532.8933" fill="none" id="MapS-to-Models" style="stroke:#181818;stroke-width:1;"/><polygon fill="#181818" points="1338.32,538.8883,1341.9478,529.7319,1338.1151,533.8925,1333.9545,530.0598,1338.32,538.8883" style="stroke:#181818;stroke-width:1;"/><text fill="#000000" font-family="sans-serif" font-size="13" lengthAdjust="spacing" textLength="103.9683" x="1337.77" y="480.4866">current + @desc</text></g><!--link Dev to Viewer--><g class="link" data-entity-1="ent0002" data-entity-2="ent0016" data-link-type="dependency" data-source-line="63" id="lnk31"><path d="M2096.41,119.6483 C2096.41,142.8283 2096.41,166.5383 2096.41,190.0383" fill="none" id="Dev-to-Viewer" style="stroke:#181818;stroke-width:1;"/><polygon fill="#181818" points="2096.41,196.0383,2100.41,187.0383,2096.41,191.0383,2092.41,187.0383,2096.41,196.0383" style="stroke:#181818;stroke-width:1;"/><text fill="#000000" font-family="sans-serif" font-size="13" lengthAdjust="spacing" textLength="60.3599" x="2097.41" y="163.0466">mdd view</text></g><!--link Viewer to Core--><g class="link" data-entity-1="ent0016" data-entity-2="ent0014" data-link-type="dependency" data-source-line="64" id="lnk32"><path d="M1982.95,248.7883 C1908.81,258.9583 1821.59,276.7983 1798.41,305.9383 C1782.99,325.3183 1790.5116,339.4649 1812.4016,353.7149" fill="none" id="Viewer-to-Core" style="stroke:#181818;stroke-width:1;"/><polygon fill="#181818" points="1817.43,356.9883,1812.0697,348.7259,1813.2397,354.2604,1807.7051,355.4304,1817.43,356.9883" style="stroke:#181818;stroke-width:1;"/><text fill="#000000" font-family="sans-serif" font-size="13" lengthAdjust="spacing" textLength="270.4609" x="1799.41" y="319.5066">descriptions(), cycle_registry(), cycle_diffs()</text></g><!--link Core to Store--><g class="link" data-entity-1="ent0014" data-entity-2="ent0011" data-link-type="dependency" data-source-line="65" id="lnk33"><path d="M1864.65,437.3383 C1842.72,452.6183 1816.81,469.8283 1792.41,483.9183 C1668.47,555.4683 1639.64,583.2683 1502.41,623.8883 C1400.6,654.0283 1370.55,639.1283 1265.41,653.8883 C1212.28,661.3483 1159.4675,669.3786 1109.7975,677.1686" fill="none" id="Core-to-Store" style="stroke:#181818;stroke-width:1;"/><polygon fill="#181818" points="1103.87,678.0983,1113.3811,680.6555,1108.8096,677.3236,1112.1415,672.7521,1103.87,678.0983" style="stroke:#181818;stroke-width:1;"/><text fill="#000000" font-family="sans-serif" font-size="13" lengthAdjust="spacing" textLength="169.4761" x="1741.71" y="550.4766">read manifest + snapshots</text></g><!--link Core to Models--><g class="link" data-entity-1="ent0014" data-entity-2="ent0013" data-link-type="dependency" data-source-line="66" id="lnk34"><path d="M1800.9,437.3283 C1791.97,439.8683 1783.07,442.2683 1774.41,444.4283 C1719.64,458.0883 1704.6,455.0683 1649.41,466.9183 C1578.76,482.0783 1505.5662,521.3656 1444.9962,537.1456" fill="none" id="Core-to-Models" style="stroke:#181818;stroke-width:1;"/><polygon fill="#181818" points="1439.19,538.6583,1448.9077,540.2601,1444.0285,537.3977,1446.8908,532.5185,1439.19,538.6583" style="stroke:#181818;stroke-width:1;"/><text fill="#000000" font-family="sans-serif" font-size="13" lengthAdjust="spacing" textLength="137.0078" x="1650.41" y="480.4866">scan models + @desc</text></g><!--link Viewer to Rendered--><g class="link" data-entity-1="ent0016" data-entity-2="ent0012" data-link-type="dependency" data-source-line="67" id="lnk35"><path d="M2096.85,276.2483 C2095.77,319.7783 2089.17,391.0683 2060.41,444.4283 C2019.62,520.1183 1995.28,536.4383 1919.41,576.8883 C1790.09,645.8483 1628.082,674.604 1518.092,687.044" fill="none" id="Viewer-to-Rendered" style="stroke:#181818;stroke-width:1;"/><polygon fill="#181818" points="1512.13,687.7183,1521.5225,690.6815,1517.0983,687.1564,1520.6234,682.7322,1512.13,687.7183" style="stroke:#181818;stroke-width:1;"/><text fill="#000000" font-family="sans-serif" font-size="13" lengthAdjust="spacing" textLength="344.6206" x="2048.72" y="480.4866">load selected file's &lt;rel&gt;.diff.svg (Diagram sub-mode)</text></g><!--link Viewer to Egui--><g class="link" data-entity-1="ent0016" data-entity-2="ent0017" data-link-type="dependency" data-source-line="68" id="lnk36"><path d="M2115.17,276.0883 C2124.37,292.1483 2136.67,309.9783 2151.41,322.9383 C2176.34,344.8483 2203.4125,359.2724 2232.2925,371.1724" fill="none" id="Viewer-to-Egui" style="stroke:#181818;stroke-width:1;"/><polygon fill="#181818" points="2237.84,373.4583,2231.0426,366.3312,2233.2171,371.5534,2227.9948,373.7278,2237.84,373.4583" style="stroke:#181818;stroke-width:1;"/><text fill="#000000" font-family="sans-serif" font-size="13" lengthAdjust="spacing" textLength="200.6748" x="2152.41" y="319.5066">tree / diff toggle / card widgets</text></g><!--link Egui to Dev--><g class="link" data-entity-1="ent0017" data-entity-2="ent0002" data-link-type="dependency" data-source-line="69" id="lnk37"><path d="M2332.65,373.7383 C2350.26,355.8083 2368.39,329.8083 2357.41,305.9383 C2310.28,203.4683 2195.7915,133.1589 2136.3115,101.9089" fill="none" id="Egui-to-Dev" style="stroke:#181818;stroke-width:1;"/><polygon fill="#181818" points="2131,99.1183,2137.1069,106.8452,2135.4263,101.4438,2140.8277,99.7632,2131,99.1183" style="stroke:#181818;stroke-width:1;"/><text fill="#000000" font-family="sans-serif" font-size="13" lengthAdjust="spacing" textLength="296.0356" x="2341.25" y="241.2766">tree rail + Diagram/List diff + description card</text></g><!--link Orch to GMN38--><g class="link" data-entity-1="ent0003" data-entity-2="ent0039" data-link-type="association" data-source-line="72" id="lnk40"><path d="M1027.79,241.2483 C849.13,249.5283 471.33,270.6683 345.41,305.9383 C295.1,320.0283 242.01,347.8483 206.05,368.8883" fill="none" id="Orch-GMN38" style="stroke:#181818;stroke-width:1;stroke-dasharray:7,7;"/></g><?plantuml-src VLTVSzf647_NfzZX9J01vBHlSYQD2oHXWeq7R6SwTOSvImTSBUuqTmA7PZBJ3z5Fs4_ItJq9IK3w0jpjx_RspsztZrVGw_NWPMrIsTk8339hTb8B7Si8udsSIiZN8WUbSskIRImJa29UmtkLqC7W5RndL7jmVTiR_3QOZ7hJsU3JQ7utkxgRphfmSN7nfdCEDaVnwBmS1GNeUZeSJSw27iQZBwDP0RiVdyKCnny-z6QZc-786_8JorNo0sDFfMnZO_l8jBhioAAwg6O8RrkvRD_FHxtP_Ot7DtQz1Zv3EXiotXsEhpxEhgvHWAB1rbgfyvvJYGJpegLrQvM1SF2qLMdUXxkr1FUiqXJQ6s6V4yHq2EZmiB7nMhhSYbmP3QynrxB8-fFPwaJO_ILiagGN6ylA7IEi50biJ2BJIzH1ShGWaHQiSBcqwY_f857B9MJRJUgyXfsIBuWuwCYjb261GbIHI1TRbR4Hz-DBwEE9aErm8IX_mELeGvzTVa_u7pAkzIlvJG6WOo6Rpovn42B8vIPBHIvT55qFXmjMiPX_7aycwDXAaGV8SgNXotJs-SDa-iKBvrsWm6OeomtqurHi4nc2q0akC1PVGzRlgWj3FeU-N8BA7SIfSUI6pEfngY9UHQpVwfpniYYOohrwbDxUl0i1evSezqnvrcg9UUtlDsaNdkGIGnTsGIpnLln-coYnicBphaztzkdEJXTYJ6kEtZtjVRoPCbZwTgjpjP4dHfrKQMLPR2c-OScSqDdO6zgt3jfAnsaV1hIE8h9WGHOih4mxaALR1_8hCZBE5tINumZVMlEdZFCe-bQZYkkopeNFcjqNIzBeQh-zzgN2C7q_TkAaYvprmNENlI3QaXDa59U2K6aufCorwVC1aLt81BRBHIpqJhXEE1pD1xFnxTruUWD45ABMUUMfUaBTnpOskbXb7vvT-BAB8l-zgFcFjUpMWeXSo3AHhrrKPzunVTvY0cgC89QJXmppIkIFy6wtWesorbWoFbSvqddWXmScybdf5Vpxzp-rxjIEVTVg104csbXe3ULEfYQJjaNEuIe8OhF9Z4OKjAgYUjJjigoeNnMrtE5JK-ncGOONYfM4bloAhA2hNunzNgRcnLFQjU1R072iV2NHDjJ4YZvAVGQ2uv6broARdn7lHAgIKiE3ICzX59ehDxXcq1XNvr1M4YaOCfExymZAHu7GoJpu7WHBar8FRXtdzL7_Vpjur4UPPxLpQhTDdUT8q3YCD3YOHC3cSHuO3k_b5H53aa4-f2nhfBni7b5Kv9q9DIjhdTlb8Z7nbiBfq8j6roZaPMFXImRaqT4DtgT7VLf1tKRbU5RYFlbshCINyACkcaDnzrPLFQ63zjMxGXTgNS4JXdNKDSibjcWSO21NgEgY__C50qUu2W8i47n_lMFAGrIVSh_NEkGlVmGC82Ho6e6esUwXNH-uAuKFlau597fNI6tgqxa68uOZR8MChpQPqRZxObKkkTjLCg8oYZA1idsrpKJ3VQnzZSvwTk8FFov3prByFep7wcYP3pgj_O53rcgP3BX4Za_KwgWsUeC3ecuRFtYEggI9B2b_yFseExRBubdWYYbLDCnEG8dXk7CDa2zFDEimAzZWU0m4d986fkYV1yI149v7Y43tW8WP53ia77XtwZEqJPE_CKQh7OvUknFmiPDub5s5HeqMcLkRt5NGWwKE6UyVY-vWRSsaMk1IWrgTJD5vNDF0VkLEuZZqJnTmswSUQUtKbL5je2Agmv8nkLcjKkQJi0cyg6GbqKm6CY4mRCK16kLeON51EC5WU1Ml6-zJqXC4skJqHivpim6pz9C7O5g-Rfjlw3u63XyC8iNAHbGvJFWHqHW-e74AMbyAnbBVvo8GXRvssUxy-xISWvr-G3GaaquCExHYA9cnnXw2HNsR2ftVNq-mpbTAItgYOX6bUnussk4r3lyBobx9MvW_VFJ_9PYy-2WN27qJlIbu3EtfOEBVAeZitLxTVUhXYsNyC1hMxFiF?></g></svg>