<svg xmlns="http://www.w3.org/2000/svg" xmlns:xlink="http://www.w3.org/1999/xlink" contentStyleType="text/css" data-diagram-type="DESCRIPTION" height="659px" preserveAspectRatio="none" style="width:2323px;height:659px;background:#FFFFFF;" version="1.1" viewBox="0 0 2323 659" width="2323px" zoomAndPan="magnify"><?plantuml 1.2026.3?><defs/><g><g class="title" data-source-line="29"><text fill="#000000" font-family="sans-serif" font-size="14" font-weight="700" lengthAdjust="spacing" textLength="375.2178" x="970.7921" y="23.5352">/mdd-deploy ownership &#8212; plan + execute (current)</text></g><!--cluster canonical source of truth--><g class="cluster" data-qualified-name="canonical source of truth" data-source-line="43" id="ent0011"><path d="M1811.55,43.4883 L1993.1076,43.4883 A3.75,3.75 0 0 1 1995.6076,45.9883 L2002.6076,65.9766 L2162.55,65.9766 A2.5,2.5 0 0 1 2165.05,68.4766 L2165.05,171.4483 A2.5,2.5 0 0 1 2162.55,173.9483 L1811.55,173.9483 A2.5,2.5 0 0 1 1809.05,171.4483 L1809.05,45.9883 A2.5,2.5 0 0 1 1811.55,43.4883" fill="none" style="stroke:#000000;stroke-width:1.5;"/><line style="stroke:#000000;stroke-width:1.5;" x1="1809.05" x2="2002.6076" y1="65.9766" y2="65.9766"/><text fill="#000000" font-family="sans-serif" font-size="14" font-weight="700" lengthAdjust="spacing" textLength="180.5576" x="1813.05" y="59.0234">canonical source of truth</text></g><!--cluster existing gated MDD pipeline\n(unaffected)--><g class="cluster" data-qualified-name="existing gated MDD pipeline.n.unaffected." data-source-line="47" id="ent0013"><path d="M463.55,362.9283 L669.3342,362.9283 A3.75,3.75 0 0 1 671.8342,365.4283 L678.8342,401.9048 L736.55,401.9048 A2.5,2.5 0 0 1 739.05,404.4048 L739.05,490.3983 A2.5,2.5 0 0 1 736.55,492.8983 L463.55,492.8983 A2.5,2.5 0 0 1 461.05,490.3983 L461.05,365.4283 A2.5,2.5 0 0 1 463.55,362.9283" fill="none" style="stroke:#000000;stroke-width:1.5;"/><line style="stroke:#000000;stroke-width:1.5;" x1="461.05" x2="678.8342" y1="401.9048" y2="401.9048"/><text fill="#000000" font-family="sans-serif" font-size="14" font-weight="700" lengthAdjust="spacing" textLength="204.7842" x="465.05" y="378.4634">existing gated MDD pipeline</text><text fill="#000000" font-family="sans-serif" font-size="14" font-weight="700" lengthAdjust="spacing" textLength="87.4111" x="523.7365" y="394.9517">(unaffected)</text></g><!--entity Templates--><g class="entity" data-qualified-name="canonical source of truth.Templates" data-source-line="44" id="ent0012"><rect fill="#F1F1F1" height="79.4648" rx="2.5" ry="2.5" style="stroke:#181818;stroke-width:0.5;" width="324.3887" x="1824.85" y="78.4883"/><rect fill="#F1F1F1" height="10" style="stroke:#181818;stroke-width:0.5;" width="15" x="2129.2387" y="83.4883"/><rect fill="#F1F1F1" height="2" style="stroke:#181818;stroke-width:0.5;" width="4" x="2127.2387" y="85.4883"/><rect fill="#F1F1F1" height="2" style="stroke:#181818;stroke-width:0.5;" width="4" x="2127.2387" y="89.4883"/><text fill="#000000" font-family="sans-serif" font-size="14" lengthAdjust="spacing" textLength="235.1221" x="1839.85" y="112.0234">crates/mdd-core/src/templates.rs</text><text fill="#000000" font-family="sans-serif" font-size="14" lengthAdjust="spacing" textLength="284.3887" x="1839.85" y="128.5117">MDD_DEPLOY_SKILL + WORKFLOW_SKILLS</text><text fill="#000000" font-family="sans-serif" font-size="14" lengthAdjust="spacing" textLength="207.5732" x="1839.85" y="145">+ MDD_DEPLOY_PROFILE_DOC</text></g><!--entity Gate--><g class="entity" data-qualified-name="existing gated MDD pipeline.n.unaffected..Gate" data-source-line="48" id="ent0014"><rect fill="#F1F1F1" height="62.9766" rx="2.5" ry="2.5" style="stroke:#181818;stroke-width:0.5;" width="246.3975" x="476.85" y="413.9283"/><rect fill="#F1F1F1" height="10" style="stroke:#181818;stroke-width:0.5;" width="15" x="703.2475" y="418.9283"/><rect fill="#F1F1F1" height="2" style="stroke:#181818;stroke-width:0.5;" width="4" x="701.2475" y="420.9283"/><rect fill="#F1F1F1" height="2" style="stroke:#181818;stroke-width:0.5;" width="4" x="701.2475" y="424.9283"/><text fill="#000000" font-family="sans-serif" font-size="14" lengthAdjust="spacing" textLength="206.3975" x="491.85" y="447.4634">/mdd-cycle / /mdd-validate /</text><text fill="#000000" font-family="sans-serif" font-size="14" lengthAdjust="spacing" textLength="175.875" x="491.85" y="463.9517">/mdd-review (parity gate)</text></g><!--entity Op--><g class="entity" data-qualified-name="Op" data-source-line="31" id="ent0002"><ellipse cx="752.0459" cy="88.4683" fill="#F1F1F1" rx="8" ry="8" style="stroke:#181818;stroke-width:0.5;"/><path d="M752.0459,96.4683 L752.0459,123.4683 M739.0459,104.4683 L765.0459,104.4683 M752.0459,123.4683 L739.0459,138.4683 M752.0459,123.4683 L765.0459,138.4683" fill="none" style="stroke:#181818;stroke-width:0.5;"/><text fill="#000000" font-family="sans-serif" font-size="14" lengthAdjust="spacing" textLength="60.5117" x="721.79" y="153.5034">Operator</text></g><!--entity Skill--><g class="entity" data-qualified-name="Skill" data-source-line="33" id="ent0003"><rect fill="#F1F1F1" height="62.9766" rx="2.5" ry="2.5" style="stroke:#181818;stroke-width:0.5;" width="194.3008" x="1537.9" y="236.9483"/><rect fill="#F1F1F1" height="10" style="stroke:#181818;stroke-width:0.5;" width="15" x="1712.2008" y="241.9483"/><rect fill="#F1F1F1" height="2" style="stroke:#181818;stroke-width:0.5;" width="4" x="1710.2008" y="243.9483"/><rect fill="#F1F1F1" height="2" style="stroke:#181818;stroke-width:0.5;" width="4" x="1710.2008" y="247.9483"/><text fill="#000000" font-family="sans-serif" font-size="14" lengthAdjust="spacing" textLength="91.5195" x="1552.9" y="270.4834">/mdd-deploy</text><text fill="#000000" font-family="sans-serif" font-size="14" lengthAdjust="spacing" textLength="154.3008" x="1552.9" y="286.9717">(skill: plan + executor)</text></g><!--entity Render--><g class="entity" data-qualified-name="Render" data-source-line="34" id="ent0004"><rect fill="#F1F1F1" height="62.9766" rx="2.5" ry="2.5" style="stroke:#181818;stroke-width:0.5;" width="130.6924" x="279.7" y="236.9483"/><rect fill="#F1F1F1" height="10" style="stroke:#181818;stroke-width:0.5;" width="15" x="390.3924" y="241.9483"/><rect fill="#F1F1F1" height="2" style="stroke:#181818;stroke-width:0.5;" width="4" x="388.3924" y="243.9483"/><rect fill="#F1F1F1" height="2" style="stroke:#181818;stroke-width:0.5;" width="4" x="388.3924" y="247.9483"/><text fill="#000000" font-family="sans-serif" font-size="14" lengthAdjust="spacing" textLength="90.6924" x="294.7" y="270.4834">/mdd-render</text><text fill="#000000" font-family="sans-serif" font-size="14" lengthAdjust="spacing" textLength="72.6387" x="294.7" y="286.9717">(extended)</text></g><!--entity Exec--><g class="entity" data-qualified-name="Exec" data-source-line="35" id="ent0005"><rect fill="#F1F1F1" height="62.9766" rx="2.5" ry="2.5" style="stroke:#181818;stroke-width:0.5;" width="315.0713" x="1089.51" y="413.9283"/><rect fill="#F1F1F1" height="10" style="stroke:#181818;stroke-width:0.5;" width="15" x="1384.5813" y="418.9283"/><rect fill="#F1F1F1" height="2" style="stroke:#181818;stroke-width:0.5;" width="4" x="1382.5813" y="420.9283"/><rect fill="#F1F1F1" height="2" style="stroke:#181818;stroke-width:0.5;" width="4" x="1382.5813" y="424.9283"/><text fill="#000000" font-family="sans-serif" font-size="14" lengthAdjust="spacing" textLength="116.7988" x="1104.51" y="447.4634">execution engine</text><text fill="#000000" font-family="sans-serif" font-size="14" lengthAdjust="spacing" textLength="275.0713" x="1104.51" y="463.9517">(agent -&gt; Bash: az / terraform / docker)</text></g><!--entity Store--><g class="entity" data-qualified-name="Store" data-source-line="37" id="ent0006"><path d="M397.1,565.8283 L438.1,565.8283 A3.75,3.75 0 0 1 440.6,568.3283 L447.6,586.8283 L674.9887,586.8283 A2.5,2.5 0 0 1 677.4887,589.3283 L677.4887,634.3048 A2.5,2.5 0 0 1 674.9887,636.8048 L397.1,636.8048 A2.5,2.5 0 0 1 394.6,634.3048 L394.6,568.3283 A2.5,2.5 0 0 1 397.1,565.8283" fill="#F1F1F1" style="stroke:#181818;stroke-width:0.5;"/><line style="stroke:#181818;stroke-width:0.5;" x1="394.6" x2="447.6" y1="586.8283" y2="586.8283"/><text fill="#000000" font-family="sans-serif" font-size="14" lengthAdjust="spacing" textLength="252.8887" x="404.6" y="607.3634">.mdd/deploy/azure-container-apps/</text><text fill="#000000" font-family="sans-serif" font-size="14" lengthAdjust="spacing" textLength="187.3662" x="404.6" y="623.8517">diagram.puml, runbook.md</text></g><!--entity Target--><g class="entity" data-qualified-name="Target" data-source-line="38" id="ent0007"><path d="M1639.71,565.8283 L1680.71,565.8283 A3.75,3.75 0 0 1 1683.21,568.3283 L1690.21,586.8283 L1844.3858,586.8283 A2.5,2.5 0 0 1 1846.8858,589.3283 L1846.8858,634.3048 A2.5,2.5 0 0 1 1844.3858,636.8048 L1639.71,636.8048 A2.5,2.5 0 0 1 1637.21,634.3048 L1637.21,568.3283 A2.5,2.5 0 0 1 1639.71,565.8283" fill="#F1F1F1" style="stroke:#181818;stroke-width:0.5;"/><line style="stroke:#181818;stroke-width:0.5;" x1="1637.21" x2="1690.21" y1="586.8283" y2="586.8283"/><text fill="#000000" font-family="sans-serif" font-size="14" lengthAdjust="spacing" textLength="133.834" x="1647.21" y="607.3634">../atlas-ate-server/</text><text fill="#000000" font-family="sans-serif" font-size="14" lengthAdjust="spacing" textLength="179.6758" x="1647.21" y="623.8517">infra/ (Bicep or Terraform)</text></g><!--entity Rendered--><g class="entity" data-qualified-name="Rendered" data-source-line="39" id="ent0008"><path d="M250.7,409.9283 L291.7,409.9283 A3.75,3.75 0 0 1 294.2,412.4283 L301.2,430.9283 L439.4002,430.9283 A2.5,2.5 0 0 1 441.9002,433.4283 L441.9002,478.4048 A2.5,2.5 0 0 1 439.4002,480.9048 L250.7,480.9048 A2.5,2.5 0 0 1 248.2,478.4048 L248.2,412.4283 A2.5,2.5 0 0 1 250.7,409.9283" fill="#F1F1F1" style="stroke:#181818;stroke-width:0.5;"/><line style="stroke:#181818;stroke-width:0.5;" x1="248.2" x2="301.2" y1="430.9283" y2="430.9283"/><text fill="#000000" font-family="sans-serif" font-size="14" lengthAdjust="spacing" textLength="163.7002" x="258.2" y="451.4634">.mdd/rendered/deploy/</text><text fill="#000000" font-family="sans-serif" font-size="14" lengthAdjust="spacing" textLength="55.125" x="258.2" y="467.9517">**/*.svg</text></g><!--entity ProfileDoc--><g class="entity" data-qualified-name="ProfileDoc" data-source-line="40" id="ent0009"><path d="M2075.8,418.1683 L2116.8,418.1683 A3.75,3.75 0 0 1 2119.3,420.6683 L2126.3,439.1683 L2306.302,439.1683 A2.5,2.5 0 0 1 2308.802,441.6683 L2308.802,470.1566 A2.5,2.5 0 0 1 2306.302,472.6566 L2075.8,472.6566 A2.5,2.5 0 0 1 2073.3,470.1566 L2073.3,420.6683 A2.5,2.5 0 0 1 2075.8,418.1683" fill="#F1F1F1" style="stroke:#181818;stroke-width:0.5;"/><line style="stroke:#181818;stroke-width:0.5;" x1="2073.3" x2="2126.3" y1="439.1683" y2="439.1683"/><text fill="#000000" font-family="sans-serif" font-size="14" lengthAdjust="spacing" textLength="205.502" x="2083.3" y="459.7034">.mdd/docs/deploy-profile.md</text></g><!--entity Az--><g class="entity" data-qualified-name="Az" data-source-line="41" id="ent0010"><path d="M1125.1267,587.9173 C1127.7714,581.7975 1133.6047,581.5523 1137.3575,586.7162 C1140.7144,580.8042 1146.3389,580.2682 1150.3846,585.9418 C1155.9253,579.0608 1160.6179,579.8848 1165.5304,586.6395 C1168.9991,579.9956 1174.5617,579.8748 1178.485,586.1849 C1182.4903,580.7938 1186.6509,581.0905 1190.8285,585.9779 C1193.4355,579.2865 1199.4183,578.2658 1204.3501,583.2961 C1208.2258,576.6886 1214.6726,577.9263 1217.9948,583.8966 C1222.0977,578.6002 1226.5822,578.7098 1230.2169,584.4167 C1235.6988,576.9326 1240.3571,579.0813 1244.6594,585.6306 C1248.8466,579.0696 1253.0068,578.1193 1257.9341,584.8939 C1262.4498,580.3047 1266.6931,579.7052 1269.8059,586.3733 C1273.4513,580.0638 1278.6632,579.7655 1282.305,586.3768 C1286.137,578.8812 1293.0998,579.9747 1297.2799,585.9909 C1302.2517,581.316 1306.3535,580.6008 1309.8095,587.6156 C1317.9832,590.9426 1320.2277,596.9599 1312.5755,603.1118 C1319.0623,609.3223 1318.717,614.1172 1310.269,618.0166 C1306.3503,624.7601 1300.1131,626.7807 1295.2175,619.0311 C1292.5052,625.7164 1288.0848,625.5725 1283.5588,620.8914 C1279.7982,627.0082 1274.1994,626.8615 1270.589,620.7323 C1267.002,627.6391 1262.6986,627.7259 1257.6108,622.3135 C1253.0471,628.6906 1246.8434,629.0324 1243.1302,621.4325 C1240.6205,627.4764 1236.0479,629.8298 1230.6708,624.602 C1225.8879,631.9177 1221.4356,632.0815 1216.4073,624.8424 C1211.2422,629.8045 1207.8298,628.4423 1205.2289,622.2683 C1201.3925,627.6252 1195.2026,627.1415 1192.0132,621.4915 C1187.2604,629.7512 1181.0712,628.0078 1176.7419,621.0661 C1171.7459,627.1493 1167.8978,626.4965 1164.5033,619.5606 C1160.9767,624.7871 1155.5236,625.3883 1152.256,619.2807 C1148.4906,624.9024 1142.1958,624.2553 1138.8699,618.7518 C1133.5315,624.9626 1127.2719,625.3227 1124.0639,616.6347 C1116.7925,614.4891 1115.5933,609.3044 1119.916,603.498 C1113.8946,596.137 1115.511,590.0487 1125.1267,587.9173" fill="#F1F1F1" style="stroke:#181818;stroke-width:0.5;"/><text fill="#000000" font-family="sans-serif" font-size="14" lengthAdjust="spacing" textLength="170.208" x="1130.94" y="606.6034">Azure subscription (LIVE)</text></g><g class="entity" data-qualified-name="GMN30" data-source-line="68" id="ent0031"><path d="M1439.42,409.7983 L1439.42,481.0405 A0,0 0 0 0 1439.42,481.0405 L1830.6724,481.0405 A0,0 0 0 0 1830.6724,481.0405 L1830.6724,419.7983 L1820.6724,409.7983 L1639.05,409.7983 L1635.05,300.3183 L1631.05,409.7983 L1439.42,409.7983 A0,0 0 0 0 1439.42,409.7983" fill="#FEFFDD" style="stroke:#181818;stroke-width:0.5;"/><path d="M1820.6724,409.7983 L1820.6724,419.7983 L1830.6724,419.7983 L1820.6724,409.7983" fill="#FEFFDD" style="stroke:#181818;stroke-width:0.5;"/><text fill="#000000" font-family="sans-serif" font-size="13" lengthAdjust="spacing" textLength="370.2524" x="1445.42" y="427.3666">Plans, then EXECUTES the runbook via CMP-DEPLOY-EXEC.</text><text fill="#000000" font-family="sans-serif" font-size="13" lengthAdjust="spacing" textLength="344.938" x="1445.42" y="442.6772">Now runs az / terraform / docker (the old "never runs"</text><text fill="#000000" font-family="sans-serif" font-size="13" lengthAdjust="spacing" textLength="355.3989" x="1445.42" y="457.9877">non-goal is retired). Realizes USE-DEPLOY-GUIDANCE +</text><text fill="#000000" font-family="sans-serif" font-size="13" lengthAdjust="spacing" textLength="146.8086" x="1445.42" y="473.2983">USE-DEPLOY-EXECUTE.</text></g><g class="entity" data-qualified-name="GMN33" data-source-line="75" id="ent0034"><path d="M712.63,558.0383 L712.63,644.591 L1061.4611,644.591 L1061.4611,568.0383 L1051.4611,558.0383 L712.63,558.0383" fill="#FEFFDD" style="stroke:#181818;stroke-width:0.5;"/><path d="M1051.4611,558.0383 L1051.4611,568.0383 L1061.4611,568.0383 L1051.4611,558.0383" fill="#FEFFDD" style="stroke:#181818;stroke-width:1;"/><text fill="#000000" font-family="sans-serif" font-size="13" lengthAdjust="spacing" textLength="327.8311" x="718.63" y="575.6066">/mdd-deploy is decoupled: no objective&lt;-&gt;current</text><text fill="#000000" font-family="sans-serif" font-size="13" lengthAdjust="spacing" textLength="254.7822" x="718.63" y="590.9172">parity, no security-marker parity. A UML</text><text fill="#000000" font-family="sans-serif" font-size="13" lengthAdjust="spacing" textLength="264.9385" x="718.63" y="606.2277">deployment diagram has no code-derived</text><text fill="#000000" font-family="sans-serif" font-size="13" lengthAdjust="spacing" textLength="288.5898" x="718.63" y="621.5383">counterpart, so by design it is not routed into</text><text fill="#000000" font-family="sans-serif" font-size="13" lengthAdjust="spacing" textLength="55.7896" x="718.63" y="636.8488">the gate.</text></g><!--link Op to Skill--><g class="link" data-entity-1="ent0002" data-entity-2="ent0003" data-link-type="dependency" data-source-line="51" id="lnk15"><path d="M782.7,124.3583 C902.27,144.4383 1334.5428,216.995 1531.7828,250.105" fill="none" id="Op-to-Skill" style="stroke:#181818;stroke-width:1;"/><polygon fill="#181818" points="1537.7,251.0983,1529.4864,245.6635,1532.769,250.2705,1528.162,253.5531,1537.7,251.0983" style="stroke:#181818;stroke-width:1;"/><text fill="#000000" font-family="sans-serif" font-size="13" lengthAdjust="spacing" textLength="180.4067" x="1273.64" y="203.5166">/mdd-deploy &lt;description&gt;</text></g><!--link Templates to Skill--><g class="link" data-entity-1="ent0012" data-entity-2="ent0003" data-link-type="dependency" data-source-line="52" id="lnk16"><path d="M1894.1,158.3583 C1836.05,182.7983 1767.8897,211.4997 1713.9597,234.2097" fill="none" id="Templates-to-Skill" style="stroke:#181818;stroke-width:1;stroke-dasharray:7,7;"/><polygon fill="#181818" points="1708.43,236.5383,1718.277,236.7319,1713.0381,234.5978,1715.1722,229.3589,1708.43,236.5383" style="stroke:#181818;stroke-width:1;"/><text fill="#000000" font-family="sans-serif" font-size="13" lengthAdjust="spacing" textLength="170.3013" x="1812.05" y="203.5166">materialized by `mdd init`</text></g><!--link Templates to ProfileDoc--><g class="link" data-entity-1="ent0012" data-entity-2="ent0009" data-link-type="dependency" data-source-line="53" id="lnk17"><path d="M2021.26,158.2283 C2055.75,198.9783 2108.94,265.7783 2145.05,329.9283 C2161.23,358.6683 2172.6604,409.587 2180.7404,433.377" fill="none" id="Templates-to-ProfileDoc" style="stroke:#181818;stroke-width:1;stroke-dasharray:7,7;"/><polygon fill="#181818" points="2182.67,439.0583,2183.5631,429.25,2181.062,434.3239,2175.9881,431.8228,2182.67,439.0583" style="stroke:#181818;stroke-width:1;"/><text fill="#000000" font-family="sans-serif" font-size="13" lengthAdjust="spacing" textLength="170.3013" x="2127.67" y="273.5066">materialized by `mdd init`</text></g><!--link Skill to Store--><g class="link" data-entity-1="ent0003" data-entity-2="ent0006" data-link-type="dependency" data-source-line="54" id="lnk18"><path d="M1537.63,281.3783 C1489.1,287.1983 1429.51,294.1783 1376.05,299.9283 C1250.62,313.4083 905.86,271.7083 811.05,354.9283 C751.7,407.0183 824.86,470.2483 771.05,528.0383 C762.98,536.7083 723.489,570.7995 674.819,584.7095" fill="none" id="Skill-to-Store" style="stroke:#181818;stroke-width:1;"/><polygon fill="#181818" points="669.05,586.3583,678.8027,587.7311,673.8575,584.9843,676.6043,580.0391,669.05,586.3583" style="stroke:#181818;stroke-width:1;"/><text fill="#000000" font-family="sans-serif" font-size="13" lengthAdjust="spacing" textLength="259.3843" x="812.05" y="450.4866">write diagram.puml + runbook.md (plan)</text></g><!--link Skill to Target--><g class="link" data-entity-1="ent0003" data-entity-2="ent0007" data-link-type="dependency" data-source-line="55" id="lnk19"><path d="M1732.45,286.9783 C1773.83,299.2783 1819.11,320.0483 1848.05,354.9283 C1897.96,415.0783 1919.41,461.1083 1879.05,528.0383 C1869.74,543.4683 1860.9922,573.5475 1845.6522,583.3075" fill="none" id="Skill-to-Target" style="stroke:#181818;stroke-width:1;"/><polygon fill="#181818" points="1840.59,586.5283,1850.3306,585.0719,1844.8085,583.8443,1846.0361,578.3222,1840.59,586.5283" style="stroke:#181818;stroke-width:1;"/><text fill="#000000" font-family="sans-serif" font-size="13" lengthAdjust="spacing" textLength="135.0527" x="1901.16" y="450.4866">generate infra/ (plan)</text></g><!--link Skill to ProfileDoc--><g class="link" data-entity-1="ent0003" data-entity-2="ent0009" data-link-type="dependency" data-source-line="56" id="lnk20"><path d="M1732.54,288.8283 C1849.39,312.1983 2031.43,349.0883 2046.05,354.9283 C2086.02,370.8883 2122.4986,415.1435 2150.7786,435.2335" fill="none" id="Skill-to-ProfileDoc" style="stroke:#181818;stroke-width:1;stroke-dasharray:7,7;"/><polygon fill="#181818" points="2155.67,438.7083,2150.6495,430.2351,2151.5938,435.8126,2146.0164,436.757,2155.67,438.7083" style="stroke:#181818;stroke-width:1;"/><text fill="#000000" font-family="sans-serif" font-size="13" lengthAdjust="spacing" textLength="125.0742" x="2011.52" y="343.4966">follows conventions</text></g><!--link Skill to Exec--><g class="link" data-entity-1="ent0003" data-entity-2="ent0005" data-link-type="dependency" data-source-line="57" id="lnk21"><path d="M1537.6,286.9183 C1495.86,296.4783 1447.32,310.4383 1406.05,329.9283 C1359.6,351.8583 1317.2283,383.8939 1286.5083,409.6439" fill="none" id="Skill-to-Exec" style="stroke:#181818;stroke-width:1;"/><polygon fill="#181818" points="1281.91,413.4983,1291.377,410.7823,1285.7419,410.2863,1286.2378,404.6513,1281.91,413.4983" style="stroke:#181818;stroke-width:1;"/><text fill="#000000" font-family="sans-serif" font-size="13" lengthAdjust="spacing" textLength="219.9272" x="1407.05" y="343.4966">drive execution (walk the runbook)</text></g><!--link Exec to Store--><g class="link" data-entity-1="ent0005" data-entity-2="ent0006" data-link-type="dependency" data-source-line="58" id="lnk22"><path d="M1155.23,477.3083 C1125.76,486.1783 1092.8,495.0283 1062.05,500.8983 C1013.39,510.1983 1000.13,504.3083 951.05,511.0383 C836.44,526.7583 807.92,532.7083 695.05,558.0383 C684.88,560.3183 680.1963,582.3752 669.6663,584.9652" fill="none" id="Exec-to-Store" style="stroke:#181818;stroke-width:1;"/><polygon fill="#181818" points="663.84,586.3983,673.5349,588.1329,668.6953,585.2041,671.6241,580.3644,663.84,586.3983" style="stroke:#181818;stroke-width:1;"/><text fill="#000000" font-family="sans-serif" font-size="13" lengthAdjust="spacing" textLength="249.1519" x="952.05" y="524.6066">read runbook.md as the execution plan</text></g><!--link Exec to Target--><g class="link" data-entity-1="ent0005" data-entity-2="ent0007" data-link-type="dependency" data-source-line="59" id="lnk23"><path d="M1333.32,477.3883 C1361.3,486.3183 1392.69,495.1883 1422.05,500.8983 C1475.45,511.3083 1491.5,496.9383 1544.05,511.0383 C1561.14,515.6183 1563.97,520.6483 1580.05,528.0383 C1606.92,540.3683 1630.9387,551.178 1657.3087,562.918" fill="none" id="Exec-to-Target" style="stroke:#181818;stroke-width:1;"/><polygon fill="#181818" points="1662.79,565.3583,1656.1949,558.0436,1658.2222,563.3247,1652.9411,565.352,1662.79,565.3583" style="stroke:#181818;stroke-width:1;"/><text fill="#000000" font-family="sans-serif" font-size="13" lengthAdjust="spacing" textLength="293.2871" x="1581.05" y="524.6066">apply infra/ (terraform apply / az deployment)</text></g><!--link Exec to Az--><g class="link" data-entity-1="ent0005" data-entity-2="ent0010" data-link-type="dependency" data-source-line="60" id="lnk24"><path d="M1226.87,477.3983 C1221.25,487.6783 1215.91,499.4683 1213.05,511.0383 C1207.58,533.1683 1208.5565,553.3751 1211.0865,571.6351" fill="none" id="Exec-to-Az" style="stroke:#181818;stroke-width:1;"/><polygon fill="#181818" points="1211.91,577.5783,1214.637,568.1145,1211.2238,572.6256,1206.7127,569.2124,1211.91,577.5783" style="stroke:#181818;stroke-width:1;"/><text fill="#000000" font-family="sans-serif" font-size="13" lengthAdjust="spacing" textLength="325.8125" x="1214.05" y="524.6066">auth, apply, provision secrets, migrate, route traffic</text></g><!--link Op to Exec--><g class="link" data-entity-1="ent0002" data-entity-2="ent0005" data-link-type="dependency" data-source-line="61" id="lnk25"><path d="M782.64,139.3183 C866.32,194.2883 1094.4352,344.154 1194.9352,410.174" fill="none" id="Op-to-Exec" style="stroke:#181818;stroke-width:1;stroke-dasharray:7,7;"/><polygon fill="#181818" points="1199.95,413.4683,1194.624,405.1837,1195.771,410.7231,1190.2317,411.87,1199.95,413.4683" style="stroke:#181818;stroke-width:1;"/><text fill="#000000" font-family="sans-serif" font-size="13" lengthAdjust="spacing" textLength="342.4243" x="1025.26" y="273.5066">auth handshake + confirm irreversible steps &amp; go-live</text></g><!--link Op to Render--><g class="link" data-entity-1="ent0002" data-entity-2="ent0004" data-link-type="dependency" data-source-line="62" id="lnk26"><path d="M721.46,130.3583 C655.74,154.2883 505.4477,209.025 416.2677,241.505" fill="none" id="Op-to-Render" style="stroke:#181818;stroke-width:1;"/><polygon fill="#181818" points="410.63,243.5583,420.4555,244.2368,415.3281,241.8472,417.7177,236.7198,410.63,243.5583" style="stroke:#181818;stroke-width:1;"/><text fill="#000000" font-family="sans-serif" font-size="13" lengthAdjust="spacing" textLength="84.2144" x="549.55" y="203.5166">/mdd-render</text></g><!--link Render to Store--><g class="link" data-entity-1="ent0004" data-entity-2="ent0006" data-link-type="dependency" data-source-line="63" id="lnk27"><path d="M279.54,278.9583 C200.58,291.9283 74.98,317.8483 47.05,354.9283 C8.01,406.7383 6,450.6683 47.05,500.8983 C90.29,553.8183 259.9449,578.7221 388.3849,590.4621" fill="none" id="Render-to-Store" style="stroke:#181818;stroke-width:1;"/><polygon fill="#181818" points="394.36,591.0083,385.7615,586.2057,389.3808,590.5532,385.0333,594.1724,394.36,591.0083" style="stroke:#181818;stroke-width:1;"/><text fill="#000000" font-family="sans-serif" font-size="13" lengthAdjust="spacing" textLength="182.2983" x="48.05" y="450.4866">read .mdd/deploy/**/*.puml</text></g><!--link Render to Rendered--><g class="link" data-entity-1="ent0004" data-entity-2="ent0008" data-link-type="dependency" data-source-line="64" id="lnk28"><path d="M345.05,300.3183 C345.05,330.9283 345.05,392.7383 345.05,424.6383" fill="none" id="Render-to-Rendered" style="stroke:#181818;stroke-width:1;"/><polygon fill="#181818" points="345.05,430.6383,349.05,421.6383,345.05,425.6383,341.05,421.6383,345.05,430.6383" style="stroke:#181818;stroke-width:1;"/><text fill="#000000" font-family="sans-serif" font-size="13" lengthAdjust="spacing" textLength="238.5068" x="346.05" y="343.4966">write .mdd/rendered/deploy/**/*.svg</text></g><!--link Gate to Store--><g class="link" data-entity-1="ent0014" data-entity-2="ent0006" data-link-type="dependency" data-source-line="65" id="lnk29"><path d="M585.88,477.1783 C581.06,487.8483 575.72,499.9283 571.05,511.0383 C563.57,528.8383 557.8411,564.241 551.4511,580.791" fill="none" id="Gate-to-Store" style="stroke:#181818;stroke-width:1;stroke-dasharray:7,7;"/><polygon fill="#181818" points="549.29,586.3883,556.2632,579.4331,551.0909,581.7239,548.8002,576.5516,549.29,586.3883" style="stroke:#181818;stroke-width:1;"/><text fill="#000000" font-family="sans-serif" font-size="13" lengthAdjust="spacing" textLength="194.1621" x="572.05" y="524.6066">NEVER reads (outside the gate)</text></g><!--link Gate to GMN33--><g class="link" data-entity-1="ent0014" data-entity-2="ent0034" data-link-type="association" data-source-line="75" id="lnk35"><path d="M685.66,477.3583 C727.8,492.7083 770.59,508.5183 775.05,511.0383 C798.01,523.9783 821.16,541.5083 840.4,557.6083" fill="none" id="Gate-GMN33" style="stroke:#181818;stroke-width:1;stroke-dasharray:7,7;"/></g><?plantuml-src bLVRRYEv4NtlhoZe8IlDgAN9lYJG3epnsDg9CHhBa3IxMM00BzrDIOnRP8DassC70V8H-S9yIKwHQgabjvpaJMfM5UjowbJn1qhJb1xNff3fHfHKMlCWjT2P757sb1MI_5fuKjfRarUPp4cAR4qVLCwAoG_q8KXrBxxSf9VZcydqjtJ--MeowTExT-_-r6iNM4nduzS45kUpJ-F5QnApyVNbUFQQnCri-lFLP9nUJYzU4nl_THpEV_nZE5VvYqZQldC0BT-Ztoq7qTsMWuQNBQViNFXivRBxTJwklt_wUdLvVdqnRZkxkfxVZ2yMRKTixkk2jN1uKLahjK-ToYMPHosjMwkIxaobSs6LTBGqbeQRF4zpMHRcYOGZjIaBkO6Qp0TiGsYZLIOASgQo6UmioTlAhqavogpmqWK3cR5ow6msz186-FF0kf-0B0aZWwmGLIw7WypayZk5d0ysEMsKjSOw4Zed_C-7kSdSCFgI0gPBLKYM4vQjR63LAb6ePq3qxeb-XmPGg_plrBsnvcyoywCH_xzzL7vzcnczB5JcRzSmNqZR6uIaVCYborgmtBdQ1pwYNHIZqPVBozieUXj4wIqfxsX-hufYiHKZgDadEDDK_7Kw-_ppPFfhL9lt3mD0kvcZn0mTstIDWWphL0teojFDvFnwJjrSYPKL6_XXAtrdp3r-NOcBNaWZ4gvfYu8v_zi9uRf2FQ3PhLWkLKOFIj0H47yYGKxT5KglkCx14I0ebxPFfl81Hsoo17hy4wqGpw3JQqrgxF_El9IPMgfOi5UIEjhMFqRztWkxalvik0jsK5QROXynX7jzm4_2Mav61w-MoZf_06T83-XQ-CgAedZQXH147b27d4l7MTj6-g3a8xdCbBAFNDt7O87_T1Nk2Iw2GOV8eJmLUKri_qVeV4lqcE57CNYoiWH01aFX2-5IwAPEsWSk1SBEQJO-lqodrvFVGXDxKvh2h9wG8YUpAfH7wGVKIMYFFbn9T7y8Gkcb5OX2wS6TocH9Zn3sCgJG8XkU0WfJv8wysfmAisRdmxPn7WR_73ZYCE0elcqWfHqe94CJDH36-BJ2SOSyomCql7apV1Fhpnt31r537aguXzM0plDSUQ2yNvSDK3uHmS7qE0pZ5IuwwkAbDPjch57-TYj_2nlKRHHyU-SjpmA6nVz0MmEwD5d5dha05F5SMGcwrHubb3OLPUaQw4bhTe04fhnNHhj-KDp1WRArpEuBvNm_WByRbu0m88Ea_0u8iIPjG4l5YVp5iTgvs2cFZfIbNi53-lS__nKE0goeAm15tsDlp3qcq4VXrg7qW9ju9hIMj20eOpVuZVJT0nbY9HWomShawfSndNCEo5LtBhEgvClwz2YAU-Oj5jgZlUOB-Y8qRiQemUZgKswV6E2ExYIkOWx0x2lBugbFuJDOObCQpzt8a0vgHfkDgHpBV9nCBpxFkLSmm2HwaabJrg98AKvM9Yq24FzoFbdCcQCYFqaUUM2bwG9agy4tFCKk9bS4CtS3cfwWMPh903b7BwSz5yWhNyW3yjiFVAu00Af13h4w4ZMFkq4lIKJcGI2TQSafCxR3Iy2qJ9BC80MQKz1fcFsckw6GeqEBnlQ2OfYABrHZlq9LVlVyCu_2i_2vANqC7gW4l51w5f0oEeMHQ70CzIHPceBvfDFaaBQk6NxJpUdIRmoN60kYadjhBvaO1YARKlTZe5BaSL6x5ZrQ12u_TEcOlRxfchyQMP7vKHojR1GKRk9Vq4II5QRAgVEoFwZBZHDzEdzEab9azyWiTR9J-rs7_fuGDMhptvQzRxfbKphQWRxfjzHEXp5RjRda7mqNvNTG5RTsdCBGfrALieZug3JM6N1e0DMHoz7PG533ewcFh3U7VhVHQp5Bd_2BtPYMU0MTHM3JwA33tZCbRXDybkoSnz3UovzUMeyKzbLyNIiQ3YunFY7C0nmBnAb52R6XKtiDnGXAQDOyIJMCcv8ld08U2_FecfEbOPHx3qAvvHrptyTTvkNc7jfBWcGpWB3FD1mMxcYIi5jxjPtxWR5tlkz98NuVCbVi1sFZtlDdLWw3O4lw_2HMZg_2zcIbnyZSg1Md1gnWc32tMpF3WHEpZPQD40zgjnPO5zzoRa3pcxQvy8Tw9DIGYerUOogoGhBz-28zhGjHKxgcZHqWNjsK4ePt1EhsbklnB-DPkCjHjxdiXvP84ernYAUZzrXum16Hw8bkK9guO9nuThGyCmRGkpQFSTIU6lfTDW86f8xcJ0RX3XJ3NcV0LtX_eb8AmVNQfsFzXAQtK6kPcWboGnpMY-12xzD1hojUiZ9JOKl4WgWDcJlUt53Ez-dPTfX29T88Rv-xFJpT2Ci1nIEigFJromIYZOs_tjdMG3uq-J68UxcJya1e5TPI2tqiRCum7u1ur4hZ7Sf-mVa8qlYeX4PTjds8_m40?></g></svg>