<svg xmlns="http://www.w3.org/2000/svg" xmlns:xlink="http://www.w3.org/1999/xlink" contentStyleType="text/css" data-diagram-type="DESCRIPTION" height="517px" preserveAspectRatio="none" style="width:1901px;height:517px;background:#FFFFFF;" version="1.1" viewBox="0 0 1901 517" width="1901px" zoomAndPan="magnify"><?plantuml 1.2026.3?><defs/><g><g class="title" data-source-line="25"><text fill="#000000" font-family="sans-serif" font-size="14" font-weight="700" lengthAdjust="spacing" textLength="245.1709" x="824.8102" y="23.5352">/mdd-deploy ownership (current)</text></g><!--cluster canonical source of truth--><g class="cluster" data-qualified-name="canonical source of truth" data-source-line="37" id="ent0009"><path d="M1469.35,43.4883 L1650.9076,43.4883 A3.75,3.75 0 0 1 1653.4076,45.9883 L1660.4076,65.9766 L1820.35,65.9766 A2.5,2.5 0 0 1 1822.85,68.4766 L1822.85,171.4483 A2.5,2.5 0 0 1 1820.35,173.9483 L1469.35,173.9483 A2.5,2.5 0 0 1 1466.85,171.4483 L1466.85,45.9883 A2.5,2.5 0 0 1 1469.35,43.4883" fill="none" style="stroke:#000000;stroke-width:1.5;"/><line style="stroke:#000000;stroke-width:1.5;" x1="1466.85" x2="1660.4076" y1="65.9766" y2="65.9766"/><text fill="#000000" font-family="sans-serif" font-size="14" font-weight="700" lengthAdjust="spacing" textLength="180.5576" x="1470.85" y="59.0234">canonical source of truth</text></g><!--cluster existing gated MDD pipeline\n(unaffected)--><g class="cluster" data-qualified-name="existing gated MDD pipeline.n.unaffected." data-source-line="41" id="ent0011"><path d="M490.35,222.9483 L696.1342,222.9483 A3.75,3.75 0 0 1 698.6342,225.4483 L705.6342,261.9248 L763.35,261.9248 A2.5,2.5 0 0 1 765.85,264.4248 L765.85,350.4283 A2.5,2.5 0 0 1 763.35,352.9283 L490.35,352.9283 A2.5,2.5 0 0 1 487.85,350.4283 L487.85,225.4483 A2.5,2.5 0 0 1 490.35,222.9483" fill="none" style="stroke:#000000;stroke-width:1.5;"/><line style="stroke:#000000;stroke-width:1.5;" x1="487.85" x2="705.6342" y1="261.9248" y2="261.9248"/><text fill="#000000" font-family="sans-serif" font-size="14" font-weight="700" lengthAdjust="spacing" textLength="204.7842" x="491.85" y="238.4834">existing gated MDD pipeline</text><text fill="#000000" font-family="sans-serif" font-size="14" font-weight="700" lengthAdjust="spacing" textLength="87.4111" x="550.5365" y="254.9717">(unaffected)</text></g><!--entity Templates--><g class="entity" data-qualified-name="canonical source of truth.Templates" data-source-line="38" id="ent0010"><rect fill="#F1F1F1" height="79.4648" rx="2.5" ry="2.5" style="stroke:#181818;stroke-width:0.5;" width="324.3887" x="1482.66" y="78.4883"/><rect fill="#F1F1F1" height="10" style="stroke:#181818;stroke-width:0.5;" width="15" x="1787.0487" y="83.4883"/><rect fill="#F1F1F1" height="2" style="stroke:#181818;stroke-width:0.5;" width="4" x="1785.0487" y="85.4883"/><rect fill="#F1F1F1" height="2" style="stroke:#181818;stroke-width:0.5;" width="4" x="1785.0487" y="89.4883"/><text fill="#000000" font-family="sans-serif" font-size="14" lengthAdjust="spacing" textLength="235.1221" x="1497.66" y="112.0234">crates/mdd-core/src/templates.rs</text><text fill="#000000" font-family="sans-serif" font-size="14" lengthAdjust="spacing" textLength="284.3887" x="1497.66" y="128.5117">MDD_DEPLOY_SKILL + WORKFLOW_SKILLS</text><text fill="#000000" font-family="sans-serif" font-size="14" lengthAdjust="spacing" textLength="207.5732" x="1497.66" y="145">+ MDD_DEPLOY_PROFILE_DOC</text></g><!--entity Gate--><g class="entity" data-qualified-name="existing gated MDD pipeline.n.unaffected..Gate" data-source-line="42" id="ent0012"><rect fill="#F1F1F1" height="62.9766" rx="2.5" ry="2.5" style="stroke:#181818;stroke-width:0.5;" width="246.3975" x="503.65" y="273.9483"/><rect fill="#F1F1F1" height="10" style="stroke:#181818;stroke-width:0.5;" width="15" x="730.0475" y="278.9483"/><rect fill="#F1F1F1" height="2" style="stroke:#181818;stroke-width:0.5;" width="4" x="728.0475" y="280.9483"/><rect fill="#F1F1F1" height="2" style="stroke:#181818;stroke-width:0.5;" width="4" x="728.0475" y="284.9483"/><text fill="#000000" font-family="sans-serif" font-size="14" lengthAdjust="spacing" textLength="206.3975" x="518.65" y="307.4834">/mdd-cycle / /mdd-validate /</text><text fill="#000000" font-family="sans-serif" font-size="14" lengthAdjust="spacing" textLength="175.875" x="518.65" y="323.9717">/mdd-review (parity gate)</text></g><!--entity Op--><g class="entity" data-qualified-name="Op" data-source-line="27" id="ent0002"><ellipse cx="760.8459" cy="88.4683" fill="#F1F1F1" rx="8" ry="8" style="stroke:#181818;stroke-width:0.5;"/><path d="M760.8459,96.4683 L760.8459,123.4683 M747.8459,104.4683 L773.8459,104.4683 M760.8459,123.4683 L747.8459,138.4683 M760.8459,123.4683 L773.8459,138.4683" fill="none" style="stroke:#181818;stroke-width:0.5;"/><text fill="#000000" font-family="sans-serif" font-size="14" lengthAdjust="spacing" textLength="60.5117" x="730.59" y="153.5034">Operator</text></g><!--entity Skill--><g class="entity" data-qualified-name="Skill" data-source-line="29" id="ent0003"><rect fill="#F1F1F1" height="62.9766" rx="2.5" ry="2.5" style="stroke:#181818;stroke-width:0.5;" width="131.5195" x="1150.09" y="273.9483"/><rect fill="#F1F1F1" height="10" style="stroke:#181818;stroke-width:0.5;" width="15" x="1261.6095" y="278.9483"/><rect fill="#F1F1F1" height="2" style="stroke:#181818;stroke-width:0.5;" width="4" x="1259.6095" y="280.9483"/><rect fill="#F1F1F1" height="2" style="stroke:#181818;stroke-width:0.5;" width="4" x="1259.6095" y="284.9483"/><text fill="#000000" font-family="sans-serif" font-size="14" lengthAdjust="spacing" textLength="91.5195" x="1165.09" y="307.4834">/mdd-deploy</text><text fill="#000000" font-family="sans-serif" font-size="14" lengthAdjust="spacing" textLength="79.6113" x="1165.09" y="323.9717">(utility skill)</text></g><!--entity Render--><g class="entity" data-qualified-name="Render" data-source-line="30" id="ent0004"><rect fill="#F1F1F1" height="62.9766" rx="2.5" ry="2.5" style="stroke:#181818;stroke-width:0.5;" width="130.6924" x="317.5" y="273.9483"/><rect fill="#F1F1F1" height="10" style="stroke:#181818;stroke-width:0.5;" width="15" x="428.1924" y="278.9483"/><rect fill="#F1F1F1" height="2" style="stroke:#181818;stroke-width:0.5;" width="4" x="426.1924" y="280.9483"/><rect fill="#F1F1F1" height="2" style="stroke:#181818;stroke-width:0.5;" width="4" x="426.1924" y="284.9483"/><text fill="#000000" font-family="sans-serif" font-size="14" lengthAdjust="spacing" textLength="90.6924" x="332.5" y="307.4834">/mdd-render</text><text fill="#000000" font-family="sans-serif" font-size="14" lengthAdjust="spacing" textLength="72.6387" x="332.5" y="323.9717">(extended)</text></g><!--entity Store--><g class="entity" data-qualified-name="Store" data-source-line="32" id="ent0005"><path d="M694.91,423.7183 L735.91,423.7183 A3.75,3.75 0 0 1 738.41,426.2183 L745.41,444.7183 L972.7987,444.7183 A2.5,2.5 0 0 1 975.2987,447.2183 L975.2987,492.1948 A2.5,2.5 0 0 1 972.7987,494.6948 L694.91,494.6948 A2.5,2.5 0 0 1 692.41,492.1948 L692.41,426.2183 A2.5,2.5 0 0 1 694.91,423.7183" fill="#F1F1F1" style="stroke:#181818;stroke-width:0.5;"/><line style="stroke:#181818;stroke-width:0.5;" x1="692.41" x2="745.41" y1="444.7183" y2="444.7183"/><text fill="#000000" font-family="sans-serif" font-size="14" lengthAdjust="spacing" textLength="252.8887" x="702.41" y="465.2534">.mdd/deploy/azure-container-apps/</text><text fill="#000000" font-family="sans-serif" font-size="14" lengthAdjust="spacing" textLength="187.3662" x="702.41" y="481.7417">diagram.puml, runbook.md</text></g><!--entity Target--><g class="entity" data-qualified-name="Target" data-source-line="33" id="ent0006"><path d="M1013.08,423.7183 L1054.08,423.7183 A3.75,3.75 0 0 1 1056.58,426.2183 L1063.58,444.7183 L1238.6191,444.7183 A2.5,2.5 0 0 1 1241.1191,447.2183 L1241.1191,492.1948 A2.5,2.5 0 0 1 1238.6191,494.6948 L1013.08,494.6948 A2.5,2.5 0 0 1 1010.58,492.1948 L1010.58,426.2183 A2.5,2.5 0 0 1 1013.08,423.7183" fill="#F1F1F1" style="stroke:#181818;stroke-width:0.5;"/><line style="stroke:#181818;stroke-width:0.5;" x1="1010.58" x2="1063.58" y1="444.7183" y2="444.7183"/><text fill="#000000" font-family="sans-serif" font-size="14" lengthAdjust="spacing" textLength="133.834" x="1020.58" y="465.2534">../atlas-ate-server/</text><text fill="#000000" font-family="sans-serif" font-size="14" lengthAdjust="spacing" textLength="200.5391" x="1020.58" y="481.7417">infra/main.bicep (+ modules)</text></g><!--entity Rendered--><g class="entity" data-qualified-name="Rendered" data-source-line="34" id="ent0007"><path d="M8.5,423.7183 L49.5,423.7183 A3.75,3.75 0 0 1 52,426.2183 L59,444.7183 L197.2002,444.7183 A2.5,2.5 0 0 1 199.7002,447.2183 L199.7002,492.1948 A2.5,2.5 0 0 1 197.2002,494.6948 L8.5,494.6948 A2.5,2.5 0 0 1 6,492.1948 L6,426.2183 A2.5,2.5 0 0 1 8.5,423.7183" fill="#F1F1F1" style="stroke:#181818;stroke-width:0.5;"/><line style="stroke:#181818;stroke-width:0.5;" x1="6" x2="59" y1="444.7183" y2="444.7183"/><text fill="#000000" font-family="sans-serif" font-size="14" lengthAdjust="spacing" textLength="163.7002" x="16" y="465.2534">.mdd/rendered/deploy/</text><text fill="#000000" font-family="sans-serif" font-size="14" lengthAdjust="spacing" textLength="55.125" x="16" y="481.7417">**/*.svg</text></g><!--entity ProfileDoc--><g class="entity" data-qualified-name="ProfileDoc" data-source-line="35" id="ent0008"><path d="M1627.6,431.9583 L1668.6,431.9583 A3.75,3.75 0 0 1 1671.1,434.4583 L1678.1,452.9583 L1858.102,452.9583 A2.5,2.5 0 0 1 1860.602,455.4583 L1860.602,483.9466 A2.5,2.5 0 0 1 1858.102,486.4466 L1627.6,486.4466 A2.5,2.5 0 0 1 1625.1,483.9466 L1625.1,434.4583 A2.5,2.5 0 0 1 1627.6,431.9583" fill="#F1F1F1" style="stroke:#181818;stroke-width:0.5;"/><line style="stroke:#181818;stroke-width:0.5;" x1="1625.1" x2="1678.1" y1="452.9583" y2="452.9583"/><text fill="#000000" font-family="sans-serif" font-size="14" lengthAdjust="spacing" textLength="205.502" x="1635.1" y="473.4934">.mdd/docs/deploy-profile.md</text></g><g class="entity" data-qualified-name="GMN23" data-source-line="57" id="ent0024"><path d="M1276.09,438.8883 L1276.09,479.5094 L1589.609,479.5094 L1589.609,448.8883 L1579.609,438.8883 L1276.09,438.8883" fill="#FEFFDD" style="stroke:#181818;stroke-width:0.5;"/><path d="M1579.609,438.8883 L1579.609,448.8883 L1589.609,448.8883 L1579.609,438.8883" fill="#FEFFDD" style="stroke:#181818;stroke-width:1;"/><text fill="#000000" font-family="sans-serif" font-size="13" lengthAdjust="spacing" textLength="292.519" x="1282.09" y="456.4566">Guidance only. Never runs az / docker / brew.</text><text fill="#000000" font-family="sans-serif" font-size="13" lengthAdjust="spacing" textLength="213.4019" x="1282.09" y="471.7672">Realizes USE-DEPLOY-GUIDANCE.</text></g><g class="entity" data-qualified-name="GMN26" data-source-line="62" id="ent0027"><path d="M308.43,415.9283 L308.43,502.481 L657.2611,502.481 L657.2611,425.9283 L647.2611,415.9283 L308.43,415.9283" fill="#FEFFDD" style="stroke:#181818;stroke-width:0.5;"/><path d="M647.2611,415.9283 L647.2611,425.9283 L657.2611,425.9283 L647.2611,415.9283" fill="#FEFFDD" style="stroke:#181818;stroke-width:1;"/><text fill="#000000" font-family="sans-serif" font-size="13" lengthAdjust="spacing" textLength="327.8311" x="314.43" y="433.4966">/mdd-deploy is decoupled: no objective&lt;-&gt;current</text><text fill="#000000" font-family="sans-serif" font-size="13" lengthAdjust="spacing" textLength="254.7822" x="314.43" y="448.8072">parity, no security-marker parity. A UML</text><text fill="#000000" font-family="sans-serif" font-size="13" lengthAdjust="spacing" textLength="264.9385" x="314.43" y="464.1177">deployment diagram has no code-derived</text><text fill="#000000" font-family="sans-serif" font-size="13" lengthAdjust="spacing" textLength="288.5898" x="314.43" y="479.4283">counterpart, so by design it is not routed into</text><text fill="#000000" font-family="sans-serif" font-size="13" lengthAdjust="spacing" textLength="55.7896" x="314.43" y="494.7388">the gate.</text></g><!--link Op to Skill--><g class="link" data-entity-1="ent0002" data-entity-2="ent0003" data-link-type="dependency" data-source-line="45" id="lnk13"><path d="M791.41,131.6583 C864.34,161.3483 1044.3329,234.6157 1144.2229,275.2857" fill="none" id="Op-to-Skill" style="stroke:#181818;stroke-width:1;"/><polygon fill="#181818" points="1149.78,277.5483,1142.9528,270.4498,1145.1491,275.6628,1139.9361,277.8592,1149.78,277.5483" style="stroke:#181818;stroke-width:1;"/><text fill="#000000" font-family="sans-serif" font-size="13" lengthAdjust="spacing" textLength="180.4067" x="975.71" y="203.5166">/mdd-deploy &lt;description&gt;</text></g><!--link Templates to Skill--><g class="link" data-entity-1="ent0010" data-entity-2="ent0003" data-link-type="dependency" data-source-line="46" id="lnk14"><path d="M1554.13,158.3883 C1472.62,193.5783 1360.3588,242.0505 1287.4488,273.5205" fill="none" id="Templates-to-Skill" style="stroke:#181818;stroke-width:1;stroke-dasharray:7,7;"/><polygon fill="#181818" points="1281.94,275.8983,1291.7883,276.0042,1286.5306,273.9168,1288.618,268.6592,1281.94,275.8983" style="stroke:#181818;stroke-width:1;"/><text fill="#000000" font-family="sans-serif" font-size="13" lengthAdjust="spacing" textLength="170.3013" x="1469.77" y="203.5166">materialized by `mdd init`</text></g><!--link Templates to ProfileDoc--><g class="link" data-entity-1="ent0010" data-entity-2="ent0008" data-link-type="dependency" data-source-line="47" id="lnk15"><path d="M1656.19,158.4383 C1676.39,228.3183 1716.4434,387.8544 1733.5834,447.1344" fill="none" id="Templates-to-ProfileDoc" style="stroke:#181818;stroke-width:1;stroke-dasharray:7,7;"/><polygon fill="#181818" points="1735.25,452.8983,1736.5928,443.1414,1733.8612,448.095,1728.9076,445.3635,1735.25,452.8983" style="stroke:#181818;stroke-width:1;"/><text fill="#000000" font-family="sans-serif" font-size="13" lengthAdjust="spacing" textLength="170.3013" x="1715.49" y="310.5066">materialized by `mdd init`</text></g><!--link Skill to Store--><g class="link" data-entity-1="ent0003" data-entity-2="ent0005" data-link-type="dependency" data-source-line="48" id="lnk16"><path d="M1149.6,309.6383 C1087.4,315.0783 993.48,329.6983 921.85,368.9283 C897.42,382.3083 879.2728,421.0287 863.3828,439.9987" fill="none" id="Skill-to-Store" style="stroke:#181818;stroke-width:1;"/><polygon fill="#181818" points="859.53,444.5983,868.3756,440.2674,862.7407,440.7653,862.2428,435.1304,859.53,444.5983" style="stroke:#181818;stroke-width:1;"/><text fill="#000000" font-family="sans-serif" font-size="13" lengthAdjust="spacing" textLength="219.6289" x="922.85" y="382.4966">write diagram.puml + runbook.md</text></g><!--link Skill to Target--><g class="link" data-entity-1="ent0003" data-entity-2="ent0006" data-link-type="dependency" data-source-line="49" id="lnk17"><path d="M1184.06,337.3883 C1175.42,346.9283 1166.6,357.8583 1159.85,368.9283 C1149.58,385.7783 1143.4054,421.5655 1137.7154,438.6555" fill="none" id="Skill-to-Target" style="stroke:#181818;stroke-width:1;"/><polygon fill="#181818" points="1135.82,444.3483,1142.4582,437.0727,1137.3995,439.6043,1134.8679,434.5456,1135.82,444.3483" style="stroke:#181818;stroke-width:1;"/><text fill="#000000" font-family="sans-serif" font-size="13" lengthAdjust="spacing" textLength="245.5908" x="1160.85" y="382.4966">generate infra/main.bicep (+ modules)</text></g><!--link Skill to ProfileDoc--><g class="link" data-entity-1="ent0003" data-entity-2="ent0008" data-link-type="dependency" data-source-line="50" id="lnk18"><path d="M1282.11,324.2783 C1360.03,345.4283 1493.18,382.0783 1606.85,415.9283 C1623.44,420.8683 1635.387,424.4983 1652.327,429.7283" fill="none" id="Skill-to-ProfileDoc" style="stroke:#181818;stroke-width:1;stroke-dasharray:7,7;"/><polygon fill="#181818" points="1658.06,431.4983,1650.6405,425.0213,1653.2825,430.0233,1648.2805,432.6653,1658.06,431.4983" style="stroke:#181818;stroke-width:1;"/><text fill="#000000" font-family="sans-serif" font-size="13" lengthAdjust="spacing" textLength="125.0742" x="1500.77" y="382.4966">follows conventions</text></g><!--link Op to Render--><g class="link" data-entity-1="ent0002" data-entity-2="ent0004" data-link-type="dependency" data-source-line="51" id="lnk19"><path d="M730.21,126.0383 C678,138.4883 569.5,168.0283 487.85,214.9483 C460.02,230.9383 436.8933,250.5583 417.0333,269.5783" fill="none" id="Op-to-Render" style="stroke:#181818;stroke-width:1;"/><polygon fill="#181818" points="412.7,273.7283,421.9666,270.3921,416.3111,270.2699,416.4333,264.6144,412.7,273.7283" style="stroke:#181818;stroke-width:1;"/><text fill="#000000" font-family="sans-serif" font-size="13" lengthAdjust="spacing" textLength="84.2144" x="530.78" y="203.5166">/mdd-render</text></g><!--link Render to Store--><g class="link" data-entity-1="ent0004" data-entity-2="ent0005" data-link-type="dependency" data-source-line="52" id="lnk20"><path d="M398.02,337.0383 C408.25,354.3083 423.42,374.6283 442.85,385.9283 C532.74,438.1583 572.84,395.8583 674.85,415.9283 C685.92,418.1083 691.5196,419.2438 702.9496,421.9338" fill="none" id="Render-to-Store" style="stroke:#181818;stroke-width:1;"/><polygon fill="#181818" points="708.79,423.3083,700.9457,417.3529,703.923,422.1628,699.113,425.1401,708.79,423.3083" style="stroke:#181818;stroke-width:1;"/><text fill="#000000" font-family="sans-serif" font-size="13" lengthAdjust="spacing" textLength="182.2983" x="443.85" y="382.4966">read .mdd/deploy/**/*.puml</text></g><!--link Render to Rendered--><g class="link" data-entity-1="ent0004" data-entity-2="ent0007" data-link-type="dependency" data-source-line="53" id="lnk21"><path d="M317.23,311.5983 C242.3,319.0183 126.59,335.6283 99.85,368.9283 C87.81,383.9183 86.9783,420.4398 90.5183,438.5398" fill="none" id="Render-to-Rendered" style="stroke:#181818;stroke-width:1;"/><polygon fill="#181818" points="91.67,444.4283,93.8681,434.8279,90.7103,439.5213,86.0169,436.3634,91.67,444.4283" style="stroke:#181818;stroke-width:1;"/><text fill="#000000" font-family="sans-serif" font-size="13" lengthAdjust="spacing" textLength="238.5068" x="100.85" y="382.4966">write .mdd/rendered/deploy/**/*.svg</text></g><!--link Gate to Store--><g class="link" data-entity-1="ent0012" data-entity-2="ent0005" data-link-type="dependency" data-source-line="54" id="lnk22"><path d="M627.07,337.0783 C628.7,353.2983 633.27,372.5583 644.85,385.9283 C658.31,401.4583 670.1638,410.8958 688.6538,420.4858" fill="none" id="Gate-to-Store" style="stroke:#181818;stroke-width:1;stroke-dasharray:7,7;"/><polygon fill="#181818" points="693.98,423.2483,687.8323,415.5537,689.5415,420.9462,684.149,422.6554,693.98,423.2483" style="stroke:#181818;stroke-width:1;"/><text fill="#000000" font-family="sans-serif" font-size="13" lengthAdjust="spacing" textLength="194.1621" x="645.85" y="382.4966">NEVER reads (outside the gate)</text></g><!--link Skill to GMN23--><g class="link" data-entity-1="ent0003" data-entity-2="ent0024" data-link-type="association" data-source-line="57" id="lnk25"><path d="M1282,311.3883 C1324.49,318.0483 1377.73,333.4583 1410.85,368.9283 C1428.5,387.8283 1432.62,418.5583 1433.27,438.5783" fill="none" id="Skill-GMN23" style="stroke:#181818;stroke-width:1;stroke-dasharray:7,7;"/></g><!--link Gate to GMN26--><g class="link" data-entity-1="ent0012" data-entity-2="ent0027" data-link-type="association" data-source-line="62" id="lnk28"><path d="M606.52,337.1583 C595.79,352.4583 581.94,370.8683 567.85,385.9283 C558.32,396.1083 547.43,406.2783 536.69,415.6383" fill="none" id="Gate-GMN26" style="stroke:#181818;stroke-width:1;stroke-dasharray:7,7;"/></g><?plantuml-src bLTHRnev47xVNp7YfQJDxlRjJgIA6WKQHQKX8kbLbI9HOm_WowwzihqGShh_VcDx8GiXtDrRMC-ClvdvvXld7QHf2gk5BZ0jMGMLqKjKJ77i0L_p0i4jc0EfdD6YvYW06L_0PocyO_8EFWUhxkMtsxG_k1sEVgPtNw-7mrFu-F7ZRoU73Uv7uy4nW_kByTNW_fZ5U73J7uoFMToEHr-kXuEqFxficKdn2kcXxnxWWUyHru632EV0GGj5E3Kuwtw_6soEhxvVzozkBWU7pgvlxcu7b_usEhoiZK7bKYi5WbufD7OXAvZgMWbc95gOQGDvAKGgi2hq6fW5MLO5bkI68lCncD9ASbQ0rRNX56S6pjHk0T82DyoX3G6uDfXRmtE75C1_pemz8nuW1SbumMg1USQrm2S85SnA0QKqHXiBJ0cWto8NcjiyOac9L3DPeBTZnaSfAQgHh93FHAZf6dwH1t5Ckb_GlJNwJ-Ikr_E_9olf5XEkrQoGt4qM5Bv0SvA5edmMQFa1vdMkNnBlmJQBNkzRlp-9ffDW2Xz0EWjtZx8exXip83Up9Z1jnn-ZyTSlmz6Fw7Ptkfi03OVUAqnkVKpRQaY-ALK6LxKKVi9IhOhr6IXSeW5yGbxJPS2WwI3NPKdvdj4NAwU5L7FViH2Ik23Gd8AkNM04zGOgue5RmvoGPPsJW-M9SzUvgv3BcOobFrAUNjF9YF-JOsQExZo7hf1iRbYPLNLPK0rDhQPQFvBnoIaH2IcQ0Aq2gfaqrkqGawmpk66kDgmerjiKWicIAYfy4poDcaoN4bTWkQxm50hv69Cb9gVpS4-0ICgL4vVnhSmtWl8_KlUtHCIUI12J1uCLjJhBcIkOJSatjMYMlXMKje3nuAAVZcw6FyCuEbtfGi_NL29BpGtjaMf9VMBAqKJDaUOu927Lp33AGgfiAZbMi29ZXw64XghX8F0ffTg1a-LRQMvKSNS0hAE0luTftqqucZUZ89KbCU0q3Ys6KGfWcFLSVyOTDhn_dx-F_VVSzmVH0tSjx7AUmOKGqiabzQzf6r7vZGnsL7itZIEgiZUFCwFBTgxHVjBOJoW6T5iDR-wSU8tsjFWF0fH1N_FQ8xE1AEovDaZ2gHor44tAgigss9Cs0qCZhMYxEgbLL4hlksK4y0Nonq9QvulZf2jmPt1UPB_BupeuIHB67J6jCweyaxJfUDqVLKb2ub5fvPdRQSLuKDtQoS8JCH3g9DW7_Nlb4Vj97lZa_9yY6e_3voIPwS8JfDCcnQ4ov0-gBHUdBRM8bnDgV8dsUhGemAlnw7w0afuZ1Te8wZvCvowcVJu-g0qZMtcWs4la8B-2mstyIOrFaehnHpP7wF2tTce7_ae0MZNzjmNxe0vifxszyw0-m67YnYfimYL_jo3Y4p7ABu-eb-GFbQoGzWbwEYWscn7RGtlt84UmuH6Ox-apLRCjpztMyeaTkQA_F8nHHU_4yqWnwEtm-PCVVYChFmxdoHOyoUkB_TiFXJs7b-uSzug10oHFF3BsKajI_zPAQtb4bf7BHhZX634RnrVWY6-5Njcs5cog53cvALCaSD9yR4CEk-QW6hUjDmpVvdXKfXFViLZxvfQRmH-3SRZBGhVzqWXTJXAboM6gdIEr9Tf75O7jwmRywuOsVNZTK3r9yPw9HpHXZ_GXXwd1LKRsOmoDid3WNPmbX1RyHQ-k2mI37K99hxbSrxGqQ5ye3NhgXPmspwVql95CSebSzSjekvRfNn_ZKSKZsbZm_TkGJ5iFW8s4BuZSvEbVUNIleU0YJ4rDMygGlpibAV2a8tRBkQ87fiT5uC5G3PlN8dbi2lcIuZy0?></g></svg>