<svg xmlns="http://www.w3.org/2000/svg" xmlns:xlink="http://www.w3.org/1999/xlink" contentStyleType="text/css" data-diagram-type="DESCRIPTION" height="758px" preserveAspectRatio="none" style="width:2526px;height:758px;background:#FFFFFF;" version="1.1" viewBox="0 0 2526 758" width="2526px" zoomAndPan="magnify"><?plantuml 1.2026.3?><defs/><g><g class="title" data-source-line="13"><text fill="#000000" font-family="sans-serif" font-size="14" font-weight="700" lengthAdjust="spacing" textLength="369.8105" x="1075.0147" y="23.5352">mdd-viewer render pipeline &#8212; ownership (current)</text></g><!--cluster SVG rasterization (external crates)--><g class="cluster" data-qualified-name="SVG rasterization .external crates." data-source-line="23" id="ent0008"><path d="M2089.34,322.4483 L2337.4796,322.4483 A3.75,3.75 0 0 1 2339.9796,324.9483 L2346.9796,344.9366 L2509.34,344.9366 A2.5,2.5 0 0 1 2511.84,347.4366 L2511.84,605.1483 A2.5,2.5 0 0 1 2509.34,607.6483 L2089.34,607.6483 A2.5,2.5 0 0 1 2086.84,605.1483 L2086.84,324.9483 A2.5,2.5 0 0 1 2089.34,322.4483" fill="none" style="stroke:#000000;stroke-width:1.5;"/><line style="stroke:#000000;stroke-width:1.5;" x1="2086.84" x2="2346.9796" y1="344.9366" y2="344.9366"/><text fill="#000000" font-family="sans-serif" font-size="14" font-weight="700" lengthAdjust="spacing" textLength="247.1396" x="2090.84" y="337.9834">SVG rasterization (external crates)</text></g><!--entity Usvg--><g class="entity" data-qualified-name="SVG rasterization .external crates..Usvg" data-source-line="24" id="ent0009"><rect fill="#F1F1F1" height="62.9766" rx="2.5" ry="2.5" style="stroke:#181818;stroke-width:0.5;" width="245.9736" x="2249.85" y="376.4483"/><rect fill="#F1F1F1" height="10" style="stroke:#181818;stroke-width:0.5;" width="15" x="2475.8236" y="381.4483"/><rect fill="#F1F1F1" height="2" style="stroke:#181818;stroke-width:0.5;" width="4" x="2473.8236" y="383.4483"/><rect fill="#F1F1F1" height="2" style="stroke:#181818;stroke-width:0.5;" width="4" x="2473.8236" y="387.4483"/><text fill="#000000" font-family="sans-serif" font-size="14" lengthAdjust="spacing" textLength="67.2178" x="2264.85" y="409.9834">usvg 0.44</text><text fill="#000000" font-family="sans-serif" font-size="14" lengthAdjust="spacing" textLength="205.9736" x="2264.85" y="426.4717">Options { fontdb, font_family }</text></g><!--entity FontDb--><g class="entity" data-qualified-name="SVG rasterization .external crates..FontDb" data-source-line="25" id="ent0010"><rect fill="#F1F1F1" height="62.9766" rx="2.5" ry="2.5" style="stroke:#181818;stroke-width:0.5;" width="222.957" x="2102.36" y="528.6683"/><rect fill="#F1F1F1" height="10" style="stroke:#181818;stroke-width:0.5;" width="15" x="2305.317" y="533.6683"/><rect fill="#F1F1F1" height="2" style="stroke:#181818;stroke-width:0.5;" width="4" x="2303.317" y="535.6683"/><rect fill="#F1F1F1" height="2" style="stroke:#181818;stroke-width:0.5;" width="4" x="2303.317" y="539.6683"/><text fill="#000000" font-family="sans-serif" font-size="14" lengthAdjust="spacing" textLength="80.7119" x="2117.36" y="562.2034">fontdb 0.22</text><text fill="#000000" font-family="sans-serif" font-size="14" lengthAdjust="spacing" textLength="182.957" x="2117.36" y="578.6917">(system fonts loaded once)</text></g><!--entity Resvg--><g class="entity" data-qualified-name="SVG rasterization .external crates..Resvg" data-source-line="26" id="ent0011"><rect fill="#F1F1F1" height="62.9766" rx="2.5" ry="2.5" style="stroke:#181818;stroke-width:0.5;" width="135.9014" x="2359.89" y="528.6683"/><rect fill="#F1F1F1" height="10" style="stroke:#181818;stroke-width:0.5;" width="15" x="2475.7914" y="533.6683"/><rect fill="#F1F1F1" height="2" style="stroke:#181818;stroke-width:0.5;" width="4" x="2473.7914" y="535.6683"/><rect fill="#F1F1F1" height="2" style="stroke:#181818;stroke-width:0.5;" width="4" x="2473.7914" y="539.6683"/><text fill="#000000" font-family="sans-serif" font-size="14" lengthAdjust="spacing" textLength="87.6162" x="2374.89" y="562.2034">resvg 0.44 +</text><text fill="#000000" font-family="sans-serif" font-size="14" lengthAdjust="spacing" textLength="95.9014" x="2374.89" y="578.6917">tiny-skia 0.11</text></g><!--entity Dev--><g class="entity" data-qualified-name="Dev" data-source-line="15" id="ent0002"><ellipse cx="50.8392" cy="51.4883" fill="#F1F1F1" rx="8" ry="8" style="stroke:#181818;stroke-width:0.5;"/><path d="M50.8392,59.4883 L50.8392,86.4883 M37.8392,67.4883 L63.8392,67.4883 M50.8392,86.4883 L37.8392,101.4883 M50.8392,86.4883 L63.8392,101.4883" fill="none" style="stroke:#181818;stroke-width:0.5;"/><text fill="#000000" font-family="sans-serif" font-size="14" lengthAdjust="spacing" textLength="68.3184" x="16.68" y="116.5234">Developer</text></g><!--entity Cli--><g class="entity" data-qualified-name="Cli" data-source-line="17" id="ent0003"><rect fill="#F1F1F1" height="62.9766" rx="2.5" ry="2.5" style="stroke:#181818;stroke-width:0.5;" width="157.4414" x="1264.12" y="196.4683"/><rect fill="#F1F1F1" height="10" style="stroke:#181818;stroke-width:0.5;" width="15" x="1401.5614" y="201.4683"/><rect fill="#F1F1F1" height="2" style="stroke:#181818;stroke-width:0.5;" width="4" x="1399.5614" y="203.4683"/><rect fill="#F1F1F1" height="2" style="stroke:#181818;stroke-width:0.5;" width="4" x="1399.5614" y="207.4683"/><text fill="#000000" font-family="sans-serif" font-size="14" lengthAdjust="spacing" textLength="54.0586" x="1279.12" y="230.0034">mdd-cli</text><text fill="#000000" font-family="sans-serif" font-size="14" lengthAdjust="spacing" textLength="117.4414" x="1279.12" y="246.4917">Commands::View</text></g><!--entity Viewer--><g class="entity" data-qualified-name="Viewer" data-source-line="18" id="ent0004"><rect fill="#F1F1F1" height="79.4648" rx="2.5" ry="2.5" style="stroke:#181818;stroke-width:0.5;" width="245.6797" x="1220" y="368.2083"/><rect fill="#F1F1F1" height="10" style="stroke:#181818;stroke-width:0.5;" width="15" x="1445.6797" y="373.2083"/><rect fill="#F1F1F1" height="2" style="stroke:#181818;stroke-width:0.5;" width="4" x="1443.6797" y="375.2083"/><rect fill="#F1F1F1" height="2" style="stroke:#181818;stroke-width:0.5;" width="4" x="1443.6797" y="379.2083"/><text fill="#000000" font-family="sans-serif" font-size="14" lengthAdjust="spacing" textLength="82.2021" x="1235" y="401.7434">mdd-viewer</text><text fill="#000000" font-family="sans-serif" font-size="14" lengthAdjust="spacing" textLength="171.9512" x="1235" y="418.2317">MddViewer (eframe::App)</text><text fill="#000000" font-family="sans-serif" font-size="14" lengthAdjust="spacing" textLength="205.6797" x="1235" y="434.72">DiagramPage, shared_fontdb()</text></g><!--entity Core--><g class="entity" data-qualified-name="Core" data-source-line="19" id="ent0005"><rect fill="#F1F1F1" height="62.9766" rx="2.5" ry="2.5" style="stroke:#181818;stroke-width:0.5;" width="237.6953" x="1507.99" y="528.6683"/><rect fill="#F1F1F1" height="10" style="stroke:#181818;stroke-width:0.5;" width="15" x="1725.6853" y="533.6683"/><rect fill="#F1F1F1" height="2" style="stroke:#181818;stroke-width:0.5;" width="4" x="1723.6853" y="535.6683"/><rect fill="#F1F1F1" height="2" style="stroke:#181818;stroke-width:0.5;" width="4" x="1723.6853" y="539.6683"/><text fill="#000000" font-family="sans-serif" font-size="14" lengthAdjust="spacing" textLength="68.0928" x="1522.99" y="562.2034">mdd-core</text><text fill="#000000" font-family="sans-serif" font-size="14" lengthAdjust="spacing" textLength="197.6953" x="1522.99" y="578.6917">Project, ModelRegistry, Trace</text></g><!--entity Rendered--><g class="entity" data-qualified-name="Rendered" data-source-line="20" id="ent0006"><path d="M801.36,524.6683 L842.36,524.6683 A3.75,3.75 0 0 1 844.86,527.1683 L851.86,545.6683 L958.3141,545.6683 A2.5,2.5 0 0 1 960.8141,548.1683 L960.8141,593.1448 A2.5,2.5 0 0 1 958.3141,595.6448 L801.36,595.6448 A2.5,2.5 0 0 1 798.86,593.1448 L798.86,527.1683 A2.5,2.5 0 0 1 801.36,524.6683" fill="#F1F1F1" style="stroke:#181818;stroke-width:0.5;"/><line style="stroke:#181818;stroke-width:0.5;" x1="798.86" x2="851.86" y1="545.6683" y2="545.6683"/><text fill="#000000" font-family="sans-serif" font-size="14" lengthAdjust="spacing" textLength="110.9746" x="808.86" y="566.2034">.mdd/rendered/</text><text fill="#000000" font-family="sans-serif" font-size="14" lengthAdjust="spacing" textLength="131.9541" x="808.86" y="582.6917">(pre-rendered SVG)</text></g><!--entity Models--><g class="entity" data-qualified-name="Models" data-source-line="21" id="ent0007"><path d="M1507.78,681.0183 L1548.78,681.0183 A3.75,3.75 0 0 1 1551.28,683.5183 L1558.28,702.0183 L1745.904,702.0183 A2.5,2.5 0 0 1 1748.404,704.5183 L1748.404,733.0066 A2.5,2.5 0 0 1 1745.904,735.5066 L1507.78,735.5066 A2.5,2.5 0 0 1 1505.28,733.0066 L1505.28,683.5183 A2.5,2.5 0 0 1 1507.78,681.0183" fill="#F1F1F1" style="stroke:#181818;stroke-width:0.5;"/><line style="stroke:#181818;stroke-width:0.5;" x1="1505.28" x2="1558.28" y1="702.0183" y2="702.0183"/><text fill="#000000" font-family="sans-serif" font-size="14" lengthAdjust="spacing" textLength="213.124" x="1515.28" y="722.5534">.mdd/models/, .mdd/trace.yml</text></g><!--entity Egui--><g class="entity" data-qualified-name="Egui" data-source-line="28" id="ent0012"><rect fill="#F1F1F1" height="62.9766" rx="2.5" ry="2.5" style="stroke:#181818;stroke-width:0.5;" width="222.7998" x="16.44" y="528.6683"/><rect fill="#F1F1F1" height="10" style="stroke:#181818;stroke-width:0.5;" width="15" x="219.2398" y="533.6683"/><rect fill="#F1F1F1" height="2" style="stroke:#181818;stroke-width:0.5;" width="4" x="217.2398" y="535.6683"/><rect fill="#F1F1F1" height="2" style="stroke:#181818;stroke-width:0.5;" width="4" x="217.2398" y="539.6683"/><text fill="#000000" font-family="sans-serif" font-size="14" lengthAdjust="spacing" textLength="128.1602" x="31.44" y="562.2034">eframe / egui 0.30</text><text fill="#000000" font-family="sans-serif" font-size="14" lengthAdjust="spacing" textLength="182.7998" x="31.44" y="578.6917">(window, painter, textures)</text></g><!--entity OclRend--><g class="entity" data-qualified-name="OclRend" data-source-line="29" id="ent0013"><rect fill="#F1F1F1" height="79.4648" rx="2.5" ry="2.5" style="stroke:#181818;stroke-width:0.5;" width="195.8662" x="78.91" y="368.2083"/><rect fill="#F1F1F1" height="10" style="stroke:#181818;stroke-width:0.5;" width="15" x="254.7762" y="373.2083"/><rect fill="#F1F1F1" height="2" style="stroke:#181818;stroke-width:0.5;" width="4" x="252.7762" y="375.2083"/><rect fill="#F1F1F1" height="2" style="stroke:#181818;stroke-width:0.5;" width="4" x="252.7762" y="379.2083"/><text fill="#000000" font-family="sans-serif" font-size="14" lengthAdjust="spacing" textLength="83.3506" x="93.91" y="401.7434">mdd-render</text><text fill="#000000" font-family="sans-serif" font-size="14" lengthAdjust="spacing" textLength="155.8662" x="93.91" y="418.2317">synthesize_ocl_puml +</text><text fill="#000000" font-family="sans-serif" font-size="14" lengthAdjust="spacing" textLength="141.3604" x="93.91" y="434.72">render_ocl_diagrams</text></g><!--entity Ocl--><g class="entity" data-qualified-name="Ocl" data-source-line="30" id="ent0014"><path d="M382.74,524.6683 L423.74,524.6683 A3.75,3.75 0 0 1 426.24,527.1683 L433.24,545.6683 L532.947,545.6683 A2.5,2.5 0 0 1 535.447,548.1683 L535.447,593.1448 A2.5,2.5 0 0 1 532.947,595.6448 L382.74,595.6448 A2.5,2.5 0 0 1 380.24,593.1448 L380.24,527.1683 A2.5,2.5 0 0 1 382.74,524.6683" fill="#F1F1F1" style="stroke:#181818;stroke-width:0.5;"/><line style="stroke:#181818;stroke-width:0.5;" x1="380.24" x2="433.24" y1="545.6683" y2="545.6683"/><text fill="#000000" font-family="sans-serif" font-size="14" lengthAdjust="spacing" textLength="125.207" x="390.24" y="566.2034">.mdd/constraints/</text><ellipse cx="395.74" cy="578.1448" fill="#000000" rx="2.5" ry="2.5"/><text fill="#000000" font-family="sans-serif" font-size="14" lengthAdjust="spacing" textLength="24.2471" x="402.24" y="582.6917">.ocl</text></g><g class="entity" data-qualified-name="GMN32" data-source-line="51" id="ent0033"><path d="M2067.45,672.6483 L2067.45,743.8905 A0,0 0 0 0 2067.45,743.8905 L2360.2376,743.8905 A0,0 0 0 0 2360.2376,743.8905 L2360.2376,682.6483 L2350.2376,672.6483 L2217.84,672.6483 L2213.84,592.1483 L2209.84,672.6483 L2067.45,672.6483 A0,0 0 0 0 2067.45,672.6483" fill="#FEFFDD" style="stroke:#181818;stroke-width:0.5;"/><path d="M2350.2376,672.6483 L2350.2376,682.6483 L2360.2376,682.6483 L2350.2376,672.6483" fill="#FEFFDD" style="stroke:#181818;stroke-width:0.5;"/><text fill="#000000" font-family="sans-serif" font-size="13" lengthAdjust="spacing" textLength="262.7739" x="2073.45" y="690.2166">The font database lives HERE, not in egui.</text><text fill="#000000" font-family="sans-serif" font-size="13" lengthAdjust="spacing" textLength="252.9604" x="2073.45" y="705.5272">Loaded once via shared_fontdb()'s static</text><text fill="#000000" font-family="sans-serif" font-size="13" lengthAdjust="spacing" textLength="271.7876" x="2073.45" y="720.8377">OnceLock and Arc-cloned per parse. egui's</text><text fill="#000000" font-family="sans-serif" font-size="13" lengthAdjust="spacing" textLength="223.7549" x="2073.45" y="736.1483">`default_fonts` is a separate stack.</text></g><!--link Dev to Cli--><g class="link" data-entity-1="ent0002" data-entity-2="ent0003" data-link-type="dependency" data-source-line="32" id="lnk15"><path d="M85.4,86.0983 C256.55,105.2683 1009.1373,189.5805 1257.7073,217.4205" fill="none" id="Dev-to-Cli" style="stroke:#181818;stroke-width:1;"/><polygon fill="#181818" points="1263.67,218.0883,1255.1711,213.1114,1258.7011,217.5318,1254.2807,221.0617,1263.67,218.0883" style="stroke:#181818;stroke-width:1;"/><text fill="#000000" font-family="sans-serif" font-size="13" lengthAdjust="spacing" textLength="60.3599" x="775.19" y="163.0366">mdd view</text></g><!--link Cli to Viewer--><g class="link" data-entity-1="ent0003" data-entity-2="ent0004" data-link-type="dependency" data-source-line="33" id="lnk16"><path d="M1342.84,259.5583 C1342.84,289.4683 1342.84,329.1483 1342.84,361.7183" fill="none" id="Cli-to-Viewer" style="stroke:#181818;stroke-width:1;"/><polygon fill="#181818" points="1342.84,367.7183,1346.84,358.7183,1342.84,362.7183,1338.84,358.7183,1342.84,367.7183" style="stroke:#181818;stroke-width:1;"/><text fill="#000000" font-family="sans-serif" font-size="13" lengthAdjust="spacing" textLength="74.1152" x="1343.84" y="303.0166">run(project)</text></g><!--link OclRend to Ocl--><g class="link" data-entity-1="ent0013" data-entity-2="ent0014" data-link-type="dependency" data-source-line="34" id="lnk17"><path d="M91.56,448.1283 C73.06,461.8483 62.72,478.0083 76.84,494.6683 C103.05,525.6083 216.86,517.9083 256.84,524.6683 C297.51,531.5483 336.8771,538.2897 374.1471,544.7097" fill="none" id="OclRend-to-Ocl" style="stroke:#181818;stroke-width:1;"/><polygon fill="#181818" points="380.06,545.7283,371.8697,540.2585,375.1326,544.8795,370.5116,548.1424,380.06,545.7283" style="stroke:#181818;stroke-width:1;"/><text fill="#000000" font-family="sans-serif" font-size="13" lengthAdjust="spacing" textLength="60.8169" x="77.84" y="491.2366">read *.ocl</text></g><!--link OclRend to Rendered--><g class="link" data-entity-1="ent0013" data-entity-2="ent0006" data-link-type="dependency" data-source-line="35" id="lnk18"><path d="M167.2,447.8583 C165.54,464.3083 167.29,482.4383 178.84,494.6683 C207.47,524.9683 511.33,520.8183 552.84,524.6683 C636.68,532.4483 726.4962,542.0599 792.6262,549.3599" fill="none" id="OclRend-to-Rendered" style="stroke:#181818;stroke-width:1;"/><polygon fill="#181818" points="798.59,550.0183,790.0832,545.0549,793.6202,549.4697,789.2055,553.0066,798.59,550.0183" style="stroke:#181818;stroke-width:1;"/><text fill="#000000" font-family="sans-serif" font-size="13" lengthAdjust="spacing" textLength="245.4194" x="179.84" y="491.2366">write constraints/&lt;name&gt;.svg (mirror)</text></g><!--link Viewer to Rendered--><g class="link" data-entity-1="ent0004" data-entity-2="ent0006" data-link-type="dependency" data-source-line="36" id="lnk19"><path d="M1219.77,429.0583 C1163.09,440.2283 1095.53,456.2583 1036.84,477.6683 C1002.94,490.0383 972.3345,526.3037 943.4545,542.3537" fill="none" id="Viewer-to-Rendered" style="stroke:#181818;stroke-width:1;"/><polygon fill="#181818" points="938.21,545.2683,948.0199,544.3927,942.5804,542.8394,944.1337,537.4,938.21,545.2683" style="stroke:#181818;stroke-width:1;"/><text fill="#000000" font-family="sans-serif" font-size="13" lengthAdjust="spacing" textLength="285.0415" x="1037.84" y="491.2366">load constraints/&lt;name&gt;.svg (OCL Diagram)</text></g><!--link Viewer to Rendered--><g class="link" data-entity-1="ent0004" data-entity-2="ent0006" data-link-type="dependency" data-source-line="41" id="lnk24"><path d="M1219.65,411.8783 C1102.52,417.3783 937.73,433.0783 892.84,477.6683 C880.75,489.6883 877.2592,523.1407 876.7992,539.4507" fill="none" id="Viewer-to-Rendered-1" style="stroke:#181818;stroke-width:1;"/><polygon fill="#181818" points="876.63,545.4483,880.8821,536.5646,876.771,540.4503,872.8853,536.3391,876.63,545.4483" style="stroke:#181818;stroke-width:1;"/><text fill="#000000" font-family="sans-serif" font-size="13" lengthAdjust="spacing" textLength="94.7515" x="893.84" y="491.2366">read SVG bytes</text></g><!--link Viewer to Ocl--><g class="link" data-entity-1="ent0004" data-entity-2="ent0014" data-link-type="dependency" data-source-line="37" id="lnk20"><path d="M1219.7,414.4083 C1090.1,421.9683 880.76,439.3083 703.84,477.6683 C646.46,490.1083 589.2926,529.971 541.5026,547.511" fill="none" id="Viewer-to-Ocl" style="stroke:#181818;stroke-width:1;"/><polygon fill="#181818" points="535.87,549.5783,545.6971,550.2324,540.5638,547.8555,542.9407,542.7223,535.87,549.5783" style="stroke:#181818;stroke-width:1;"/><text fill="#000000" font-family="sans-serif" font-size="13" lengthAdjust="spacing" textLength="168.5874" x="704.84" y="491.2366">read raw text (OCL Source)</text></g><!--link Cli to Core--><g class="link" data-entity-1="ent0003" data-entity-2="ent0005" data-link-type="dependency" data-source-line="38" id="lnk21"><path d="M1421.93,254.8483 C1598.83,313.1283 2012.51,451.5483 2030.84,477.6683 C2065.68,527.3083 1883.26,546.5915 1751.97,554.1915" fill="none" id="Cli-to-Core" style="stroke:#181818;stroke-width:1;"/><polygon fill="#181818" points="1745.98,554.5383,1755.1961,558.0115,1750.9716,554.2493,1754.7338,550.0249,1745.98,554.5383" style="stroke:#181818;stroke-width:1;"/><text fill="#000000" font-family="sans-serif" font-size="13" lengthAdjust="spacing" textLength="103.9365" x="1965.92" y="413.0066">Project::discover</text></g><!--link Viewer to Core--><g class="link" data-entity-1="ent0004" data-entity-2="ent0005" data-link-type="dependency" data-source-line="39" id="lnk22"><path d="M1331.1,447.8683 C1328.7,463.9283 1329.51,481.7583 1339.84,494.6683 C1361.18,521.3383 1432.6171,536.9128 1501.6571,546.5028" fill="none" id="Viewer-to-Core" style="stroke:#181818;stroke-width:1;"/><polygon fill="#181818" points="1507.6,547.3283,1499.2359,542.1281,1502.6475,546.6404,1498.1353,550.052,1507.6,547.3283" style="stroke:#181818;stroke-width:1;"/><text fill="#000000" font-family="sans-serif" font-size="13" lengthAdjust="spacing" textLength="184.6533" x="1340.84" y="491.2366">model_registry(), read_trace()</text></g><!--link Core to Models--><g class="link" data-entity-1="ent0005" data-entity-2="ent0007" data-link-type="dependency" data-source-line="40" id="lnk23"><path d="M1626.84,592.1483 C1626.84,618.4483 1626.84,670.7883 1626.84,695.7383" fill="none" id="Core-to-Models" style="stroke:#181818;stroke-width:1;"/><polygon fill="#181818" points="1626.84,701.7383,1630.84,692.7383,1626.84,696.7383,1622.84,692.7383,1626.84,701.7383" style="stroke:#181818;stroke-width:1;"/><text fill="#000000" font-family="sans-serif" font-size="13" lengthAdjust="spacing" textLength="28.5327" x="1627.84" y="639.2166">scan</text></g><!--link Viewer to FontDb--><g class="link" data-entity-1="ent0004" data-entity-2="ent0010" data-link-type="dependency" data-source-line="42" id="lnk25"><path d="M1454.22,448.0283 C1479.26,457.3283 1505.59,467.5083 1529.84,477.6683 C1546.16,484.5083 1548.79,489.9483 1565.84,494.6683 C1616.1,508.5883 1924.5104,535.4438 2096.2104,549.6438" fill="none" id="Viewer-to-FontDb" style="stroke:#181818;stroke-width:1;"/><polygon fill="#181818" points="2102.19,550.1383,2093.5503,545.4101,2097.207,549.7262,2092.8909,553.3829,2102.19,550.1383" style="stroke:#181818;stroke-width:1;"/><text fill="#000000" font-family="sans-serif" font-size="13" lengthAdjust="spacing" textLength="211.6245" x="1566.84" y="491.2366">shared_fontdb() (OnceLock, once)</text></g><!--link Usvg to FontDb--><g class="link" data-entity-1="ent0009" data-entity-2="ent0010" data-link-type="dependency" data-source-line="43" id="lnk26"><path d="M2249.64,438.8983 C2231.95,448.4583 2215.99,461.0583 2204.84,477.6683 C2195,492.3183 2195.2223,506.1122 2199.6923,522.4022" fill="none" id="Usvg-to-FontDb" style="stroke:#181818;stroke-width:1;"/><polygon fill="#181818" points="2201.28,528.1883,2202.7558,518.4506,2199.9569,523.3665,2195.041,520.5676,2201.28,528.1883" style="stroke:#181818;stroke-width:1;"/><text fill="#000000" font-family="sans-serif" font-size="13" lengthAdjust="spacing" textLength="184.4121" x="2205.84" y="491.2366">resolves &lt;text&gt; font families</text></g><!--link Viewer to Usvg--><g class="link" data-entity-1="ent0004" data-entity-2="ent0009" data-link-type="dependency" data-source-line="44" id="lnk27"><path d="M1466.09,372.1083 C1606.51,335.8883 1842.82,288.9583 2045.84,316.7383 C2128.03,327.9883 2212.9948,352.5401 2277.9648,374.0801" fill="none" id="Viewer-to-Usvg" style="stroke:#181818;stroke-width:1;"/><polygon fill="#181818" points="2283.66,375.9683,2276.376,369.3393,2278.914,374.3948,2273.8585,376.9328,2283.66,375.9683" style="stroke:#181818;stroke-width:1;"/><text fill="#000000" font-family="sans-serif" font-size="13" lengthAdjust="spacing" textLength="290.2466" x="1923.84" y="303.0166">Tree::from_data(Options { fontdb, ..default() })</text></g><!--link Usvg to Resvg--><g class="link" data-entity-1="ent0009" data-entity-2="ent0011" data-link-type="dependency" data-source-line="45" id="lnk28"><path d="M2384.1,439.6983 C2393.56,465.5383 2404.9577,496.6439 2414.4377,522.5439" fill="none" id="Usvg-to-Resvg" style="stroke:#181818;stroke-width:1;"/><polygon fill="#181818" points="2416.5,528.1783,2417.1628,518.3518,2414.7814,523.4829,2409.6502,521.1015,2416.5,528.1783" style="stroke:#181818;stroke-width:1;"/><text fill="#000000" font-family="sans-serif" font-size="13" lengthAdjust="spacing" textLength="24.667" x="2404.63" y="491.2366">tree</text></g><!--link Resvg to Viewer--><g class="link" data-entity-1="ent0011" data-entity-2="ent0004" data-link-type="dependency" data-source-line="46" id="lnk29"><path d="M2359.77,529.4683 C2354.11,527.6383 2348.42,525.9983 2342.84,524.6683 C2186.67,487.3983 2142.46,511.9983 1982.84,494.6683 C1802.57,475.0983 1600.5373,446.8933 1471.8473,428.1433" fill="none" id="Resvg-to-Viewer" style="stroke:#181818;stroke-width:1;"/><polygon fill="#181818" points="1465.91,427.2783,1474.2393,432.5341,1470.8578,427.9992,1475.3927,424.6177,1465.91,427.2783" style="stroke:#181818;stroke-width:1;"/><text fill="#000000" font-family="sans-serif" font-size="13" lengthAdjust="spacing" textLength="206.9844" x="1983.84" y="491.2366">RGBA pixmap (glyphs rasterized)</text></g><!--link Viewer to Egui--><g class="link" data-entity-1="ent0004" data-entity-2="ent0012" data-link-type="dependency" data-source-line="47" id="lnk30"><path d="M1219.85,414.1383 C1014.67,423.5783 611.4,445.5683 472.84,477.6683 C452.82,482.3083 449.51,488.7283 429.84,494.6683 C367.74,513.4283 302.7719,527.7344 245.3019,538.7944" fill="none" id="Viewer-to-Egui" style="stroke:#181818;stroke-width:1;"/><polygon fill="#181818" points="239.41,539.9283,249.0037,542.1554,244.3199,538.9834,247.4919,534.2995,239.41,539.9283" style="stroke:#181818;stroke-width:1;"/><text fill="#000000" font-family="sans-serif" font-size="13" lengthAdjust="spacing" textLength="159.7324" x="473.84" y="491.2366">texture + painter.image()</text></g><!--link Egui to Dev--><g class="link" data-entity-1="ent0012" data-entity-2="ent0002" data-link-type="dependency" data-source-line="48" id="lnk31"><path d="M86.48,528.3183 C76.61,518.7183 67.35,507.2983 61.84,494.6683 C6,366.8383 27.6422,200.7051 41.7322,125.7051" fill="none" id="Egui-to-Dev" style="stroke:#181818;stroke-width:1;"/><polygon fill="#181818" points="42.84,119.8083,37.247,127.915,41.9168,124.7223,45.1095,129.3921,42.84,119.8083" style="stroke:#181818;stroke-width:1;"/><text fill="#000000" font-family="sans-serif" font-size="13" lengthAdjust="spacing" textLength="226.7383" x="27.21" y="303.0166">on-screen diagram with legible text</text></g><?plantuml-src VLRDRXit4BxlKmnqiTHeLtRYqpOmujfgQi2E1JbsBm8KYgGarhlaWkHALWC3VOW-OP-aC-GgqifsBfP9pkyttypi4QHf2kkbAMHQiWegQrPICyrb3dp32mb-oJmexQqHDPS29EDB-AG4AIP7y2b8TIzkHkd3rV3FuJWT3xzSui_eQZIylleoxCFnyV59horwUt7To8Ndq_2in4_Cx4lijCEjbVFk_TqmAAQNL-UVn-StTozVK2jS2kduJ-FjN9LL8KkflHGvb4AaAoNNqeALJ3Y4IAPMQY4jed7ty1cO5c2PyzAglwK3vH4pQ-h54cgtMWoinB-mLdu9RibGQJetsejPjtU4nanL5mmT0Ls2O9xDc9DPfntgFbxxuG5p5E0qnfFdRgFzKZgCOsfuCQtgie1t45_3ZL1iOLdfSl2rrIvMCyCNAh411gE2QNz_SmtSQESjmsi7ZTPhcHfCLaA6GGose0psL0SVDIlbMKOGbCfQOsDg5xL5SPyw9IIwAYkZyGW4DB0vEWXc0oPpzPJlJbk4G3bWQ6W7e90L1Q3v1inQ4pO-g54HO6PgBPZTz66EBxFDOIb-HLC8CZehCB65z0Z53apnAXehnG8xOjvPufN7VcdnXHwWKfKib9Rmtp__Xj2iMweAkZnYq4iInhsnqBcKArcOIjeErHLFIRA3faE6UQ4c-iAK9LR2vVa3-Wco5uKw58qnJFID40yndAwSOzWopy-hgZVHbp6D4Ll8_Y4SmMXKUn62iNAYHzRy9RdlmuqHiXZBXK9u4Dslbd4PGqAvP6uAGg3JviT4Tm-RA7eSDpTjlP9Sk44_iioJXsnJ5a4Zk7T9KZ7-Y8b0XnfoIr7cbT6OzXEUD2k0MoIAGrVV4zWZNISmv3WxFPtesufq77o724K__4xdh5J51fw3ptiKRnk8icZY_NlCpMtGVHaK7HI62KpHu4IDEVwErvUpjduS4HG1l9jeh_GcTO_8hkFivAG1Xdm-xzSY5XC681UrGiaFn-XwhRGmwpvKn5Hf--0n-Tg6fD7C44KFwnchCD6lZew9VcLs15EtlA1gjIkrt_WJ_GlDbQrmaY2VSMUS4LSXZDNGxGaTwReXQGws9de4UlMInasGmF_f6OSm1DEjnorrK69jbPVmnX3gnYdKInf_1xfKhZTLQK0qNTFItmlCidN0F0hVcTfYtN_aI3s1aatpvBbGZkE-jVl66fb0UfphiR6wlNwmFmtixw95aYBns02eu3ZJRoGL8gF6c6sG__j2aOoatUv_31y9UstuOpzIDo7IjrMGLQPOuRJyI0cVDSEQ6aMrdGJL74U3nDapjwQSqX3llcorB1Dopkh2Om3FUou3-z62Hmj9FBGOC_xyspbEsIVwWEakYasrTBir9LgbeWuWIx4jS3SsdPAf4iS70Xi4I9BeccFogUFeLl-O-c6H5rYN6NqSePqaqGRvDZFUcnBCVDVXNryihK8HO7yCn_YPWLguT4FxPYXylHiKOREy_5Pm7WSQHz5jRS8-FhSSruAXXLVHic4MFn-2rIE7ijyQI8CXzosiJN0InN0Maad-c2NKH9J4_m00?></g></svg>