<svg xmlns="http://www.w3.org/2000/svg" xmlns:xlink="http://www.w3.org/1999/xlink" contentStyleType="text/css" data-diagram-type="DESCRIPTION" height="553px" preserveAspectRatio="none" style="width:1200px;height:553px;background:#FFFFFF;" version="1.1" viewBox="0 0 1200 553" width="1200px" zoomAndPan="magnify"><?plantuml 1.2026.3?><defs/><g><g class="title" data-source-line="8"><text fill="#000000" font-family="sans-serif" font-size="14" font-weight="700" lengthAdjust="spacing" textLength="316.1826" x="438.9007" y="23.5352">MDD scoped re-map &#8212; ownership (current)</text></g><!--entity Dev--><g class="entity" data-qualified-name="Dev" data-source-line="10" id="ent0002"><ellipse cx="348.7564" cy="51.4883" fill="#F1F1F1" rx="8" ry="8" style="stroke:#181818;stroke-width:0.5;"/><path d="M348.7564,59.4883 L348.7564,86.4883 M335.7564,67.4883 L361.7564,67.4883 M348.7564,86.4883 L335.7564,101.4883 M348.7564,86.4883 L361.7564,101.4883" fill="none" style="stroke:#181818;stroke-width:0.5;"/><text fill="#000000" font-family="sans-serif" font-size="14" lengthAdjust="spacing" textLength="124.6328" x="286.44" y="116.5234">Developer / Agent</text></g><!--entity Cli--><g class="entity" data-qualified-name="Cli" data-source-line="12" id="ent0003"><rect fill="#F1F1F1" height="62.9766" rx="2.5" ry="2.5" style="stroke:#181818;stroke-width:0.5;" width="196.96" x="382.28" y="196.4783"/><rect fill="#F1F1F1" height="10" style="stroke:#181818;stroke-width:0.5;" width="15" x="559.24" y="201.4783"/><rect fill="#F1F1F1" height="2" style="stroke:#181818;stroke-width:0.5;" width="4" x="557.24" y="203.4783"/><rect fill="#F1F1F1" height="2" style="stroke:#181818;stroke-width:0.5;" width="4" x="557.24" y="207.4783"/><text fill="#000000" font-family="sans-serif" font-size="14" lengthAdjust="spacing" textLength="112.3555" x="397.28" y="230.0134">mdd map-scope</text><text fill="#000000" font-family="sans-serif" font-size="14" lengthAdjust="spacing" textLength="156.96" x="397.28" y="246.5017">(CMP-MAP-SCOPE-CLI)</text></g><!--entity Engine--><g class="entity" data-qualified-name="Engine" data-source-line="13" id="ent0004"><rect fill="#F1F1F1" height="62.9766" rx="2.5" ry="2.5" style="stroke:#181818;stroke-width:0.5;" width="225.7871" x="367.86" y="336.4583"/><rect fill="#F1F1F1" height="10" style="stroke:#181818;stroke-width:0.5;" width="15" x="573.6471" y="341.4583"/><rect fill="#F1F1F1" height="2" style="stroke:#181818;stroke-width:0.5;" width="4" x="571.6471" y="343.4583"/><rect fill="#F1F1F1" height="2" style="stroke:#181818;stroke-width:0.5;" width="4" x="571.6471" y="347.4583"/><text fill="#000000" font-family="sans-serif" font-size="14" lengthAdjust="spacing" textLength="131.5234" x="382.86" y="369.9934">Project::map_scope</text><text fill="#000000" font-family="sans-serif" font-size="14" lengthAdjust="spacing" textLength="185.7871" x="382.86" y="386.4817">(CMP-MAP-SCOPE-ENGINE)</text></g><!--entity CycleModel--><g class="entity" data-qualified-name="CycleModel" data-source-line="14" id="ent0005"><rect fill="#F1F1F1" height="62.9766" rx="2.5" ry="2.5" style="stroke:#181818;stroke-width:0.5;" width="231.5156" x="7" y="476.4283"/><rect fill="#F1F1F1" height="10" style="stroke:#181818;stroke-width:0.5;" width="15" x="218.5156" y="481.4283"/><rect fill="#F1F1F1" height="2" style="stroke:#181818;stroke-width:0.5;" width="4" x="216.5156" y="483.4283"/><rect fill="#F1F1F1" height="2" style="stroke:#181818;stroke-width:0.5;" width="4" x="216.5156" y="487.4283"/><text fill="#000000" font-family="sans-serif" font-size="14" lengthAdjust="spacing" textLength="90.8633" x="22" y="509.9634">CycleRegistry</text><text fill="#000000" font-family="sans-serif" font-size="14" lengthAdjust="spacing" textLength="191.5156" x="22" y="526.4517">(CMP-CORE-CYCLE-MODEL)</text></g><!--entity Trace--><g class="entity" data-qualified-name="Trace" data-source-line="15" id="ent0006"><rect fill="#F1F1F1" height="46.4883" rx="2.5" ry="2.5" style="stroke:#181818;stroke-width:0.5;" width="191.1836" x="273.17" y="484.6783"/><rect fill="#F1F1F1" height="10" style="stroke:#181818;stroke-width:0.5;" width="15" x="444.3536" y="489.6783"/><rect fill="#F1F1F1" height="2" style="stroke:#181818;stroke-width:0.5;" width="4" x="442.3536" y="491.6783"/><rect fill="#F1F1F1" height="2" style="stroke:#181818;stroke-width:0.5;" width="4" x="442.3536" y="495.6783"/><text fill="#000000" font-family="sans-serif" font-size="14" lengthAdjust="spacing" textLength="151.1836" x="288.17" y="518.2134">trace.yml source_links</text></g><!--entity TraceEngine--><g class="entity" data-qualified-name="TraceEngine" data-source-line="16" id="ent0007"><rect fill="#F1F1F1" height="62.9766" rx="2.5" ry="2.5" style="stroke:#181818;stroke-width:0.5;" width="189.4404" x="499.04" y="476.4283"/><rect fill="#F1F1F1" height="10" style="stroke:#181818;stroke-width:0.5;" width="15" x="668.4804" y="481.4283"/><rect fill="#F1F1F1" height="2" style="stroke:#181818;stroke-width:0.5;" width="4" x="666.4804" y="483.4283"/><rect fill="#F1F1F1" height="2" style="stroke:#181818;stroke-width:0.5;" width="4" x="666.4804" y="487.4283"/><text fill="#000000" font-family="sans-serif" font-size="14" lengthAdjust="spacing" textLength="97.002" x="514.04" y="509.9634">changed_code</text><text fill="#000000" font-family="sans-serif" font-size="14" lengthAdjust="spacing" textLength="149.4404" x="514.04" y="526.4517">(CMP-TRACE-ENGINE)</text></g><!--entity MapSkill--><g class="entity" data-qualified-name="MapSkill" data-source-line="17" id="ent0008"><rect fill="#F1F1F1" height="62.9766" rx="2.5" ry="2.5" style="stroke:#181818;stroke-width:0.5;" width="159.8887" x="745.81" y="196.4783"/><rect fill="#F1F1F1" height="10" style="stroke:#181818;stroke-width:0.5;" width="15" x="885.6987" y="201.4783"/><rect fill="#F1F1F1" height="2" style="stroke:#181818;stroke-width:0.5;" width="4" x="883.6987" y="203.4783"/><rect fill="#F1F1F1" height="2" style="stroke:#181818;stroke-width:0.5;" width="4" x="883.6987" y="207.4783"/><text fill="#000000" font-family="sans-serif" font-size="14" lengthAdjust="spacing" textLength="107.6387" x="760.81" y="230.0134">/mdd-map skill</text><text fill="#000000" font-family="sans-serif" font-size="14" lengthAdjust="spacing" textLength="119.8887" x="760.81" y="246.5017">(CMP-MAP-SKILL)</text></g><!--entity Cycle--><g class="entity" data-qualified-name="Cycle" data-source-line="18" id="ent0009"><rect fill="#F1F1F1" height="62.9766" rx="2.5" ry="2.5" style="stroke:#181818;stroke-width:0.5;" width="248.7148" x="621.4" y="49.7483"/><rect fill="#F1F1F1" height="10" style="stroke:#181818;stroke-width:0.5;" width="15" x="850.1148" y="54.7483"/><rect fill="#F1F1F1" height="2" style="stroke:#181818;stroke-width:0.5;" width="4" x="848.1148" y="56.7483"/><rect fill="#F1F1F1" height="2" style="stroke:#181818;stroke-width:0.5;" width="4" x="848.1148" y="60.7483"/><text fill="#000000" font-family="sans-serif" font-size="14" lengthAdjust="spacing" textLength="111.5283" x="636.4" y="83.2834">/mdd-cycle skill</text><text fill="#000000" font-family="sans-serif" font-size="14" lengthAdjust="spacing" textLength="208.7148" x="636.4" y="99.7717">(CMP-CYCLE-ORCHESTRATOR)</text></g><g class="entity" data-qualified-name="GMN17" data-source-line="29" id="ent0018"><path d="M723.53,487.6083 L723.53,528.2294 L1185.9841,528.2294 L1185.9841,497.6083 L1175.9841,487.6083 L723.53,487.6083" fill="#FEFFDD" style="stroke:#181818;stroke-width:0.5;"/><path d="M1175.9841,487.6083 L1175.9841,497.6083 L1185.9841,497.6083 L1175.9841,487.6083" fill="#FEFFDD" style="stroke:#181818;stroke-width:1;"/><text fill="#000000" font-family="sans-serif" font-size="13" lengthAdjust="spacing" textLength="311.4858" x="729.53" y="505.1766">Reuses traceability::changed_code (Rust/src diff).</text><text fill="#000000" font-family="sans-serif" font-size="13" lengthAdjust="spacing" textLength="441.4541" x="729.53" y="520.4872">full_remap forces a whole-tree re-map. Realized by SEQ-MAP-SCOPE.</text></g><!--link Dev to Cli--><g class="link" data-entity-1="ent0002" data-entity-2="ent0003" data-link-type="dependency" data-source-line="20" id="lnk10"><path d="M338.46,119.5783 C336.32,135.1983 336.93,152.8483 345.76,166.4783 C354.69,180.2783 362.4017,187.9519 376.7317,196.2119" fill="none" id="Dev-to-Cli" style="stroke:#181818;stroke-width:1;"/><polygon fill="#181818" points="381.93,199.2083,376.1302,191.2483,377.5981,196.7113,372.135,198.1793,381.93,199.2083" style="stroke:#181818;stroke-width:1;"/><text fill="#000000" font-family="sans-serif" font-size="13" lengthAdjust="spacing" textLength="104.3301" x="346.76" y="163.0466">mdd map-scope</text><text fill="#000000" font-family="sans-serif" font-size="13" lengthAdjust="spacing" text-decoration="line-through" textLength="53.168" x="455.2034" y="163.0466">cycle N [</text><text fill="#000000" font-family="sans-serif" font-size="13" lengthAdjust="spacing" textLength="114.0547" x="508.3713" y="163.0466">base REF] [--json]</text></g><!--link Cli to Engine--><g class="link" data-entity-1="ent0003" data-entity-2="ent0004" data-link-type="dependency" data-source-line="21" id="lnk11"><path d="M480.76,259.9283 C480.76,282.6583 480.76,307.3783 480.76,330.0783" fill="none" id="Cli-to-Engine" style="stroke:#181818;stroke-width:1;"/><polygon fill="#181818" points="480.76,336.0783,484.76,327.0783,480.76,331.0783,476.76,327.0783,480.76,336.0783" style="stroke:#181818;stroke-width:1;"/><text fill="#000000" font-family="sans-serif" font-size="13" lengthAdjust="spacing" textLength="126.2104" x="481.76" y="303.0266">map_scope(N, base)</text></g><!--link Engine to CycleModel--><g class="link" data-entity-1="ent0004" data-entity-2="ent0005" data-link-type="dependency" data-source-line="22" id="lnk12"><path d="M367.53,391.6083 C329.33,401.0783 286.96,413.6183 249.76,429.4283 C220.52,441.8583 195.063,456.9261 171.303,472.6561" fill="none" id="Engine-to-CycleModel" style="stroke:#181818;stroke-width:1;"/><polygon fill="#181818" points="166.3,475.9683,176.0125,474.3354,170.4691,473.2082,171.5963,467.6647,166.3,475.9683" style="stroke:#181818;stroke-width:1;"/><text fill="#000000" font-family="sans-serif" font-size="13" lengthAdjust="spacing" textLength="148.7446" x="250.76" y="442.9966">cycle(N).manifest.scope</text></g><!--link Engine to Trace--><g class="link" data-entity-1="ent0004" data-entity-2="ent0006" data-link-type="dependency" data-source-line="23" id="lnk13"><path d="M447.17,399.7783 C437.88,408.9583 428.07,419.2783 419.76,429.4283 C405.48,446.8783 394.672,463.2884 385.002,479.2284" fill="none" id="Engine-to-Trace" style="stroke:#181818;stroke-width:1;"/><polygon fill="#181818" points="381.89,484.3583,389.9779,478.7382,384.4834,480.0834,383.1381,474.5888,381.89,484.3583" style="stroke:#181818;stroke-width:1;"/><text fill="#000000" font-family="sans-serif" font-size="13" lengthAdjust="spacing" textLength="129.7017" x="420.76" y="442.9966">source_links by path</text></g><!--link Engine to TraceEngine--><g class="link" data-entity-1="ent0004" data-entity-2="ent0007" data-link-type="dependency" data-source-line="24" id="lnk14"><path d="M524.66,399.7583 C535.33,408.5483 546.14,418.6883 554.76,429.4283 C565.97,443.4183 572.7542,455.655 579.4042,470.625" fill="none" id="Engine-to-TraceEngine" style="stroke:#181818;stroke-width:1;"/><polygon fill="#181818" points="581.84,476.1083,581.8418,466.2594,579.8102,471.5388,574.5307,469.5072,581.84,476.1083" style="stroke:#181818;stroke-width:1;"/><text fill="#000000" font-family="sans-serif" font-size="13" lengthAdjust="spacing" textLength="162.1382" x="566.6" y="442.9966">changed_code(root, base)</text></g><!--link Cycle to Cli--><g class="link" data-entity-1="ent0009" data-entity-2="ent0003" data-link-type="dependency" data-source-line="25" id="lnk15"><path d="M706.73,113.2183 C684.18,130.2483 654.79,151.0083 626.76,166.4783 C607.18,177.2883 590.8051,185.0225 570.0351,193.7125" fill="none" id="Cycle-to-Cli" style="stroke:#181818;stroke-width:1;"/><polygon fill="#181818" points="564.5,196.0283,574.3465,196.2446,569.1126,194.0984,571.2587,188.8645,564.5,196.0283" style="stroke:#181818;stroke-width:1;"/><text fill="#000000" font-family="sans-serif" font-size="13" lengthAdjust="spacing" textLength="118.3203" x="655.14" y="163.0466">each loop iteration</text></g><!--link Cycle to MapSkill--><g class="link" data-entity-1="ent0009" data-entity-2="ent0008" data-link-type="dependency" data-source-line="26" id="lnk16"><path d="M765.27,113.0583 C772.26,124.3883 780.05,137.4083 786.76,149.4783 C795.17,164.6183 801.2368,176.4168 808.2968,190.7368" fill="none" id="Cycle-to-MapSkill" style="stroke:#181818;stroke-width:1;"/><polygon fill="#181818" points="810.95,196.1183,810.5579,186.2772,808.739,191.6337,803.3826,189.8148,810.95,196.1183" style="stroke:#181818;stroke-width:1;"/><text fill="#000000" font-family="sans-serif" font-size="13" lengthAdjust="spacing" textLength="198.2881" x="796.77" y="163.0466">pass affected_files / full_remap</text></g><!--link Engine to GMN17--><g class="link" data-entity-1="ent0004" data-entity-2="ent0018" data-link-type="association" data-source-line="29" id="lnk19"><path d="M594.06,392.7383 C639.09,402.9383 691.16,415.6783 737.76,429.4283 C795.69,446.5383 860.78,470.4183 904.43,487.1383" fill="none" id="Engine-GMN17" style="stroke:#181818;stroke-width:1;stroke-dasharray:7,7;"/></g><?plantuml-src TLRRZk9647ttLrHuo1e9cv7onYYZ9U3DZZ9SOYQ9ecHbDUq2UjVkjhgRPKaKAH-HByoNfBhRC2OCRpFkkfqwfwfu0qcIm66dAangra2ZrMUKJ78S0J_o2i7kc0KXhLRbdcC9oFWEtehIEKPluAstYYUpPJ8RBvFLPB7Cacp-_UCy6y3TtJTt_Lj6awV7ZeKeNutXtqeq_4Q6tbAhZyZjQ4JL5uQh1cEVh93xUerw06jci0_90ynOitBlouf90WHSCujcM9TbmfN6eT5yM8brgaqAERBIGArAh0gDMs6iFaBCzrgZj07z0vI2RJMhOICgx0z0aqzXDUC8iL5xpR6eXFnaw8d9CdJp72pkfw4dytvQCoasQ2ovkVhwb3xxESjNsGXyEBOMbR37qOZlcDnYMN2gAzPAsGwwzWr2Pb-JkOUDqfwm0NGhSgyMDLclZz0mktC10bX1i5sq5caNed4gKC3WksUDk49xJt-VqZe3E0WA9HNKpFATaDjkKXVLmok8JDPW2kyM-I_ZV3eAYZetmHkTMdogWojIP6D3chWMMXEmqwD7SDYXfDmMZcX1oVEZ4QNhw6PVEIQTnB-5hxg5c5IO0kl6EavWkISbE2OJ9QlZFP6wDuJSxX3m2p7dK7Lf09HR8H7-_ViVXrpY0RR23irH4YBN1DJ757wImYOaDakTYiz2BIGZ70TJM5MqZJQ-LnIRFftIX2OEuCLlBrkhO58GonnDyOAnd_PU7ogQkLiJvSUnDr4rCL6QqUWqBl1da6xG6iGbRjY-il0-6qz9sXyDDVkl_yzJ9VmurKn8cYV7vAqv7S3NNiCfxHCVgz4aCtCnhVTWyOlr2ZqzEwn9uBEbSH18SaG2fuW388cuJsopeSJK-PEOA-8nXN5rO4VZMALmTn0pQ2ZLm6k8mPQm-2vQOKboi-aq2BCaHVX5wGXN1wBNx4HpNWtzA6BSKkBU53zZHGuQXZ3UqbCFc07w6aLSrOsIJfmzQfRZDV6nVvUliENT9fNeUbttyigrtPxUE_CIxGQOkCxdxIfgVIUBd3B-EddAajbYcZsrcPtbpAs6hhzVI-cnhYxMYdTuTazTs-wqjAcUy_7aiaJlTLsd5vFhjlaaggeByeV7fxP29nJtUkKNpbVNCw1Rv9FtsOfgU5xa7P1HHEIG21zSjs445zJGzn1k3hybYH-4F7ltmVtZHFiXSZxEDs1mxcUPpzij7RLlFiMvhT3UsUuXIBrZrzxtXqmljdYxlA_ipZNSkXUHJz_1wZTmfLG3Wku2iqB9ZisfmsJOC6FE0rM4gp3iBDSeel51M2jhLGrgSz8Uq4KDY_JcGOCutnlhrWODwcRJJycfixN3ZgF93BzLB9sWTXJzjQx47-6ShR8VNyOWZP0kholfFm00?></g></svg>