<svg xmlns="http://www.w3.org/2000/svg" xmlns:xlink="http://www.w3.org/1999/xlink" contentStyleType="text/css" data-diagram-type="DESCRIPTION" height="545px" preserveAspectRatio="none" style="width:1047px;height:545px;background:#FFFFFF;" version="1.1" viewBox="0 0 1047 545" width="1047px" zoomAndPan="magnify"><?plantuml 1.2026.3?><defs/><g><g class="title" data-source-line="12"><text fill="#000000" font-family="sans-serif" font-size="14" font-weight="700" lengthAdjust="spacing" textLength="343.1641" x="348.8402" y="23.5352">Agent session bootstrap &#8212; ownership (current)</text></g><!--entity Agent--><g class="entity" data-qualified-name="Agent" data-source-line="14" id="ent0002"><ellipse cx="355.8566" cy="54.4783" fill="#F1F1F1" rx="8" ry="8" style="stroke:#181818;stroke-width:0.5;"/><path d="M355.8566,62.4783 L355.8566,89.4783 M342.8566,70.4783 L368.8566,70.4783 M355.8566,89.4783 L342.8566,104.4783 M355.8566,89.4783 L368.8566,104.4783" fill="none" style="stroke:#181818;stroke-width:0.5;"/><text fill="#000000" font-family="sans-serif" font-size="14" lengthAdjust="spacing" textLength="40.1133" x="335.8" y="119.5134">Agent</text></g><!--entity Cli--><g class="entity" data-qualified-name="Cli" data-source-line="16" id="ent0003"><rect fill="#F1F1F1" height="62.9766" rx="2.5" ry="2.5" style="stroke:#181818;stroke-width:0.5;" width="171.4346" x="205.14" y="209.1983"/><rect fill="#F1F1F1" height="10" style="stroke:#181818;stroke-width:0.5;" width="15" x="356.5746" y="214.1983"/><rect fill="#F1F1F1" height="2" style="stroke:#181818;stroke-width:0.5;" width="4" x="354.5746" y="216.1983"/><rect fill="#F1F1F1" height="2" style="stroke:#181818;stroke-width:0.5;" width="4" x="354.5746" y="220.1983"/><text fill="#000000" font-family="sans-serif" font-size="14" lengthAdjust="spacing" textLength="86.4404" x="220.14" y="242.7334">mdd context</text><text fill="#000000" font-family="sans-serif" font-size="14" lengthAdjust="spacing" textLength="131.4346" x="220.14" y="259.2217">(CMP-SESSION-CLI)</text></g><!--entity Init--><g class="entity" data-qualified-name="Init" data-source-line="17" id="ent0004"><rect fill="#F1F1F1" height="79.4648" rx="2.5" ry="2.5" style="stroke:#181818;stroke-width:0.5;" width="208.4785" x="590.62" y="44.4883"/><rect fill="#F1F1F1" height="10" style="stroke:#181818;stroke-width:0.5;" width="15" x="779.0985" y="49.4883"/><rect fill="#F1F1F1" height="2" style="stroke:#181818;stroke-width:0.5;" width="4" x="777.0985" y="51.4883"/><rect fill="#F1F1F1" height="2" style="stroke:#181818;stroke-width:0.5;" width="4" x="777.0985" y="55.4883"/><text fill="#000000" font-family="sans-serif" font-size="14" lengthAdjust="spacing" textLength="143.9033" x="605.62" y="78.0234">mdd init / mdd clean</text><text fill="#000000" font-family="sans-serif" font-size="14" lengthAdjust="spacing" textLength="168.4785" x="605.62" y="94.5117">SessionStart hook merge</text><text fill="#000000" font-family="sans-serif" font-size="14" lengthAdjust="spacing" textLength="123.2314" x="605.62" y="111">(CMP-INIT-HOOK)</text></g><!--entity Directive--><g class="entity" data-qualified-name="Directive" data-source-line="18" id="ent0005"><rect fill="#F1F1F1" height="79.4648" rx="2.5" ry="2.5" style="stroke:#181818;stroke-width:0.5;" width="251.2646" x="411.23" y="200.9583"/><rect fill="#F1F1F1" height="10" style="stroke:#181818;stroke-width:0.5;" width="15" x="642.4946" y="205.9583"/><rect fill="#F1F1F1" height="2" style="stroke:#181818;stroke-width:0.5;" width="4" x="640.4946" y="207.9583"/><rect fill="#F1F1F1" height="2" style="stroke:#181818;stroke-width:0.5;" width="4" x="640.4946" y="211.9583"/><text fill="#000000" font-family="sans-serif" font-size="14" lengthAdjust="spacing" textLength="132.4668" x="426.23" y="234.4934">entrypoint directive</text><text fill="#000000" font-family="sans-serif" font-size="14" lengthAdjust="spacing" textLength="181.2959" x="426.23" y="250.9817">CLAUDE.md + AGENTS.md</text><text fill="#000000" font-family="sans-serif" font-size="14" lengthAdjust="spacing" textLength="211.2646" x="426.23" y="267.47">(CMP-ENTRYPOINT-DIRECTIVE)</text></g><!--entity Gate--><g class="entity" data-qualified-name="Gate" data-source-line="19" id="ent0006"><rect fill="#F1F1F1" height="62.9766" rx="2.5" ry="2.5" style="stroke:#181818;stroke-width:0.5;" width="230.4697" x="73.62" y="361.4183"/><rect fill="#F1F1F1" height="10" style="stroke:#181818;stroke-width:0.5;" width="15" x="284.0897" y="366.4183"/><rect fill="#F1F1F1" height="2" style="stroke:#181818;stroke-width:0.5;" width="4" x="282.0897" y="368.4183"/><rect fill="#F1F1F1" height="2" style="stroke:#181818;stroke-width:0.5;" width="4" x="282.0897" y="372.4183"/><text fill="#000000" font-family="sans-serif" font-size="14" lengthAdjust="spacing" textLength="133.1709" x="88.62" y="394.9534">Project::map_status</text><text fill="#000000" font-family="sans-serif" font-size="14" lengthAdjust="spacing" textLength="190.4697" x="88.62" y="411.4417">(CMP-TRACE-GATE, reused)</text></g><!--entity Map--><g class="entity" data-qualified-name="Map" data-source-line="20" id="ent0007"><path d="M341.54,357.4183 L382.54,357.4183 A3.75,3.75 0 0 1 385.04,359.9183 L392.04,378.4183 L444.1757,378.4183 A2.5,2.5 0 0 1 446.6757,380.9183 L446.6757,425.8948 A2.5,2.5 0 0 1 444.1757,428.3948 L341.54,428.3948 A2.5,2.5 0 0 1 339.04,425.8948 L339.04,359.9183 A2.5,2.5 0 0 1 341.54,357.4183" fill="#F1F1F1" style="stroke:#181818;stroke-width:0.5;"/><line style="stroke:#181818;stroke-width:0.5;" x1="339.04" x2="392.04" y1="378.4183" y2="378.4183"/><text fill="#000000" font-family="sans-serif" font-size="14" lengthAdjust="spacing" textLength="77.6357" x="349.04" y="398.9534">whole-map</text><text fill="#000000" font-family="sans-serif" font-size="14" lengthAdjust="spacing" textLength="72.0781" x="349.04" y="415.4417">.mdd/map</text></g><!--entity Settings--><g class="entity" data-qualified-name="Settings" data-source-line="21" id="ent0008"><path d="M699.79,205.1983 L740.79,205.1983 A3.75,3.75 0 0 1 743.29,207.6983 L750.29,226.1983 L867.9345,226.1983 A2.5,2.5 0 0 1 870.4345,228.6983 L870.4345,273.6748 A2.5,2.5 0 0 1 867.9345,276.1748 L699.79,276.1748 A2.5,2.5 0 0 1 697.29,273.6748 L697.29,207.6983 A2.5,2.5 0 0 1 699.79,205.1983" fill="#F1F1F1" style="stroke:#181818;stroke-width:0.5;"/><line style="stroke:#181818;stroke-width:0.5;" x1="697.29" x2="750.29" y1="226.1983" y2="226.1983"/><text fill="#000000" font-family="sans-serif" font-size="14" lengthAdjust="spacing" textLength="54.0107" x="707.29" y="246.7334">settings</text><text fill="#000000" font-family="sans-serif" font-size="14" lengthAdjust="spacing" textLength="143.1445" x="707.29" y="263.2217">.claude/settings.json</text></g><g class="entity" data-qualified-name="GMN15" data-source-line="31" id="ent0016"><path d="M6,489.3983 L6,530.0194 A0,0 0 0 0 6,530.0194 L371.7158,530.0194 A0,0 0 0 0 371.7158,530.0194 L371.7158,499.3983 L361.7158,489.3983 L192.86,489.3983 L188.86,424.6683 L184.86,489.3983 L6,489.3983 A0,0 0 0 0 6,489.3983" fill="#FEFFDD" style="stroke:#181818;stroke-width:0.5;"/><path d="M361.7158,489.3983 L361.7158,499.3983 L371.7158,499.3983 L361.7158,489.3983" fill="#FEFFDD" style="stroke:#181818;stroke-width:0.5;"/><text fill="#000000" font-family="sans-serif" font-size="13" lengthAdjust="spacing" textLength="311.3145" x="12" y="506.9666">Freshness reuses the cycle-0013 git+syn engine;</text><text fill="#000000" font-family="sans-serif" font-size="13" lengthAdjust="spacing" textLength="344.7158" x="12" y="522.2772">the baseline is DOM-MAP-BASELINE (derived from git).</text></g><!--link Agent to Cli--><g class="link" data-entity-1="ent0002" data-entity-2="ent0003" data-link-type="dependency" data-source-line="23" id="lnk9"><path d="M335.32,101.1283 C320.81,113.6983 302.48,132.6483 293.86,153.9583 C286.88,171.2083 285.6686,186.0674 286.5986,202.8774" fill="none" id="Agent-to-Cli" style="stroke:#181818;stroke-width:1;"/><polygon fill="#181818" points="286.93,208.8683,290.4267,199.6611,286.6538,203.8759,282.4389,200.103,286.93,208.8683" style="stroke:#181818;stroke-width:1;"/><text fill="#000000" font-family="sans-serif" font-size="13" lengthAdjust="spacing" textLength="80.2661" x="294.86" y="167.5266">mdd context</text></g><!--link Agent to Directive--><g class="link" data-entity-1="ent0002" data-entity-2="ent0005" data-link-type="dependency" data-source-line="24" id="lnk10"><path d="M376.17,107.3283 C393.07,125.2383 418.1,150.7383 441.86,170.9583 C453.8,181.1183 462.3082,187.8347 475.1382,197.2247" fill="none" id="Agent-to-Directive" style="stroke:#181818;stroke-width:1;"/><polygon fill="#181818" points="479.98,200.7683,475.0797,192.225,475.9452,197.8153,470.3549,198.6807,479.98,200.7683" style="stroke:#181818;stroke-width:1;"/><text fill="#000000" font-family="sans-serif" font-size="13" lengthAdjust="spacing" textLength="134.7163" x="442.86" y="167.5266">reads at session start</text></g><!--link Cli to Gate--><g class="link" data-entity-1="ent0003" data-entity-2="ent0006" data-link-type="dependency" data-source-line="25" id="lnk11"><path d="M238.68,272.3683 C225.05,282.7983 211.71,295.6083 202.86,310.4183 C193.8,325.5783 190.6864,338.9972 189.4064,355.0672" fill="none" id="Cli-to-Gate" style="stroke:#181818;stroke-width:1;"/><polygon fill="#181818" points="188.93,361.0483,193.632,352.3943,189.327,356.0641,185.6572,351.7591,188.93,361.0483" style="stroke:#181818;stroke-width:1;"/><text fill="#000000" font-family="sans-serif" font-size="13" lengthAdjust="spacing" textLength="145.3931" x="203.86" y="323.9866">map_status() freshness</text></g><!--link Cli to Map--><g class="link" data-entity-1="ent0003" data-entity-2="ent0007" data-link-type="dependency" data-source-line="26" id="lnk12"><path d="M322.76,272.5483 C333.43,283.8583 344.89,297.1383 353.86,310.4183 C363.6,324.8483 369.7846,336.5992 376.4346,351.4992" fill="none" id="Cli-to-Map" style="stroke:#181818;stroke-width:1;"/><polygon fill="#181818" points="378.88,356.9783,378.8647,347.1294,376.8422,352.4124,371.5592,350.3899,378.88,356.9783" style="stroke:#181818;stroke-width:1;"/><text fill="#000000" font-family="sans-serif" font-size="13" lengthAdjust="spacing" textLength="173.1641" x="365.15" y="323.9866">map_toc (concepts by kind)</text></g><!--link Init to Settings--><g class="link" data-entity-1="ent0004" data-entity-2="ent0008" data-link-type="dependency" data-source-line="27" id="lnk13"><path d="M725.35,124.2783 C732.15,133.7483 739.06,144.0083 744.86,153.9583 C754.33,170.1983 760.7894,204.6365 767.6494,220.5865" fill="none" id="Init-to-Settings" style="stroke:#181818;stroke-width:1;"/><polygon fill="#181818" points="770.02,226.0983,770.1386,216.2501,768.0445,221.5051,762.7895,219.4109,770.02,226.0983" style="stroke:#181818;stroke-width:1;"/><text fill="#000000" font-family="sans-serif" font-size="13" lengthAdjust="spacing" textLength="277.3545" x="754.49" y="167.5266">upsert/strip SessionStart hook (idempotent)</text></g><!--link Init to Directive--><g class="link" data-entity-1="ent0004" data-entity-2="ent0005" data-link-type="dependency" data-source-line="28" id="lnk14"><path d="M634.8,124.3283 C622.66,133.3983 610.4,143.4883 599.86,153.9583 C585.83,167.8783 575.953,180.2175 565.223,195.5975" fill="none" id="Init-to-Directive" style="stroke:#181818;stroke-width:1;"/><polygon fill="#181818" points="561.79,200.5183,570.2201,195.4258,564.6509,196.4176,563.659,190.8484,561.79,200.5183" style="stroke:#181818;stroke-width:1;"/><text fill="#000000" font-family="sans-serif" font-size="13" lengthAdjust="spacing" textLength="135.0464" x="600.86" y="167.5266">inject managed block</text></g><?plantuml-src TLLTR-9657tthxZY9ROIcrJj4v6gPHqsfGqXmcobIf6oWsU0sTWprimu2VlK7z5Vs5_IUyTW6qBVmBwVvvnxV05n7CFRLXSYBba5bT6lGZ6LYn7akxmGuBRCWLJEQ5xdWeDW-HO-IKw9mGLyyb5XEdkCiqcMJUSFSNe_lOBhwvz-YOxVJn-co_Yt-VoFisyd3yl5Nu_pwSColfqk9kbo-kUa5oZvQG__c0kRVsm--5pBmW6pK78UvuM4L9SbKzoEHgbMJhpJIf0RveGTxcE6rkJ3aacL67i5EIiAgJRmQFHtaRlHo0fhfLRF-Ju_z6dQY0YmC0A76572gsJDd-UJZ0HEI-Iwh3G-14J-sUaSmWIB3ec7vJoDu4swhNzd7NErXN1jXDqgh19TWH6rfNwq_78nJYVntNWvkR3z1DnlAmnHg30-bcLLY58qSxQr4XWNRsndGRnBP-4Q_ltx7s2mCbAihq1fn14s25Gow1FHadbCGu_ZZeGMmpSZdMXnsMhz0g5KqaLmsGKPKQ86Jw9G9Kn5fwGX-fwrGguyQPX7smgeQYEWhgmmxhZG4AmpiZf-k1L59OmTuQA_PwWX3AbpXoKuI2wG8uUOGIdCHe1U-mPPavyvPXpu8iYuXYGlMCrnAE48P9jyjrf1I1bCiK9lQb-XmG45oJQ2FwyAdR_0MXlVFKfWWLGXAg04xSFhgf0vBGtItO17ejc2A6EvAtRumelG2EmlIuj_lFArmdT7izn0ZQ34h7PRJVlHw7Q8svVIBuIfY5o5sX3cLV1Zpi-Tw37zvu-uKm81mINR65RQU2sDTJWpupXUh0t7PIrA0CSWeXqYNz3Qer63wZEoO7QLHgJzjhq0n54vsmy8p-capK2ru0b9HOeZbeaxcYsz7t-zdU0Leb36TxXDHh_tH84doi9gH-02KPJ04hEQI7XbHZAQZVDcKpGGz4_H64cgkNZtSsj_bCt8W8rDhU0RLTpxmZTgMAF_87SIdPXgxT2GbB_5scb23WNboIEri4B-G7LypIQ8-lXkCPvbyPVf8biszAMrCTWhjYXcq6yAfRwLbHUS7-BWIx3Isg6mq7x2nlkz-ruHSIjYC0cSTFXu_3zPP1nT_J1l-aP1W2B5PWEVDw1o_bSGU0DKL6pGs_z9VR1wdvGMyZJ3dydGq-7luabzF4n_j_kQdMlvYbDCxvViwOSZn2Z5LypiH77PYM9VyEn9-DgtXmBz1gt9TIQzBzHPU6FjWZTbxb2kmLeNT1o3zZlzf0vV2XyqOrKRSpXt33bdHZu-spy9WeRAEFwLq8KHz6ZelMjtmGYwLtI9ZdzBK0UKJg4qBzLfzmkZxbFJHk70-o3_sSEEkQYSFwqNgNWK43C-yZ0gXZT-FlJMTyQ0mywhU_dzqPjxFpxd8C2h4YXYvtH9tkm11_XocBbXepbeVnKnNiNFi97kqkuK2BN1Ax_130fOCIlyrKiKm7mMpyQFyUTnDhcVFamWH7vm48vuO2ii42M1G3-W0Vu3?></g></svg>