<svg xmlns="http://www.w3.org/2000/svg" xmlns:xlink="http://www.w3.org/1999/xlink" contentStyleType="text/css" data-diagram-type="DESCRIPTION" height="537px" preserveAspectRatio="none" style="width:1176px;height:537px;background:#FFFFFF;" version="1.1" viewBox="0 0 1176 537" width="1176px" zoomAndPan="magnify"><?plantuml 1.2026.3?><defs/><g><g class="title" data-source-line="15"><text fill="#000000" font-family="sans-serif" font-size="14" font-weight="700" lengthAdjust="spacing" textLength="490.9502" x="339.2374" y="23.5352">MDD diagram-driven tests &#8212; profile/plan/gate ownership (current)</text></g><!--entity Dev--><g class="entity" data-qualified-name="Dev" data-source-line="17" id="ent0002"><ellipse cx="844.3264" cy="51.4883" fill="#F1F1F1" rx="8" ry="8" style="stroke:#181818;stroke-width:0.5;"/><path d="M844.3264,59.4883 L844.3264,86.4883 M831.3264,67.4883 L857.3264,67.4883 M844.3264,86.4883 L831.3264,101.4883 M844.3264,86.4883 L857.3264,101.4883" fill="none" style="stroke:#181818;stroke-width:0.5;"/><text fill="#000000" font-family="sans-serif" font-size="14" lengthAdjust="spacing" textLength="124.6328" x="782.01" y="116.5234">Developer / Agent</text></g><!--entity Cli--><g class="entity" data-qualified-name="Cli" data-source-line="19" id="ent0003"><rect fill="#F1F1F1" height="62.9766" rx="2.5" ry="2.5" style="stroke:#181818;stroke-width:0.5;" width="229.6768" x="729.49" y="180.4783"/><rect fill="#F1F1F1" height="10" style="stroke:#181818;stroke-width:0.5;" width="15" x="939.1668" y="185.4783"/><rect fill="#F1F1F1" height="2" style="stroke:#181818;stroke-width:0.5;" width="4" x="937.1668" y="187.4783"/><rect fill="#F1F1F1" height="2" style="stroke:#181818;stroke-width:0.5;" width="4" x="937.1668" y="191.4783"/><text fill="#000000" font-family="sans-serif" font-size="14" lengthAdjust="spacing" textLength="189.6768" x="744.49" y="214.0134">mdd test-detect / test-plan</text><text fill="#000000" font-family="sans-serif" font-size="14" lengthAdjust="spacing" textLength="71.4424" x="744.49" y="230.5017">(CLI verbs)</text></g><!--entity Detect--><g class="entity" data-qualified-name="Detect" data-source-line="20" id="ent0004"><rect fill="#F1F1F1" height="62.9766" rx="2.5" ry="2.5" style="stroke:#181818;stroke-width:0.5;" width="221.0361" x="687.81" y="320.4583"/><rect fill="#F1F1F1" height="10" style="stroke:#181818;stroke-width:0.5;" width="15" x="888.8461" y="325.4583"/><rect fill="#F1F1F1" height="2" style="stroke:#181818;stroke-width:0.5;" width="4" x="886.8461" y="327.4583"/><rect fill="#F1F1F1" height="2" style="stroke:#181818;stroke-width:0.5;" width="4" x="886.8461" y="331.4583"/><text fill="#000000" font-family="sans-serif" font-size="14" lengthAdjust="spacing" textLength="181.0361" x="702.81" y="353.9934">Project::detect_test_profile</text><text fill="#000000" font-family="sans-serif" font-size="14" lengthAdjust="spacing" textLength="140.6768" x="702.81" y="370.4817">(CMP-TEST-DETECT)</text></g><!--entity Plan--><g class="entity" data-qualified-name="Plan" data-source-line="21" id="ent0005"><rect fill="#F1F1F1" height="62.9766" rx="2.5" ry="2.5" style="stroke:#181818;stroke-width:0.5;" width="162.8281" x="943.91" y="320.4583"/><rect fill="#F1F1F1" height="10" style="stroke:#181818;stroke-width:0.5;" width="15" x="1086.7381" y="325.4583"/><rect fill="#F1F1F1" height="2" style="stroke:#181818;stroke-width:0.5;" width="4" x="1084.7381" y="327.4583"/><rect fill="#F1F1F1" height="2" style="stroke:#181818;stroke-width:0.5;" width="4" x="1084.7381" y="331.4583"/><text fill="#000000" font-family="sans-serif" font-size="14" lengthAdjust="spacing" textLength="117.0791" x="958.91" y="353.9934">Project::test_plan</text><text fill="#000000" font-family="sans-serif" font-size="14" lengthAdjust="spacing" textLength="122.8281" x="958.91" y="370.4817">(CMP-TEST-PLAN)</text></g><!--entity Gate--><g class="entity" data-qualified-name="Gate" data-source-line="22" id="ent0006"><rect fill="#F1F1F1" height="62.9766" rx="2.5" ry="2.5" style="stroke:#181818;stroke-width:0.5;" width="233.915" x="202.37" y="320.4583"/><rect fill="#F1F1F1" height="10" style="stroke:#181818;stroke-width:0.5;" width="15" x="416.285" y="325.4583"/><rect fill="#F1F1F1" height="2" style="stroke:#181818;stroke-width:0.5;" width="4" x="414.285" y="327.4583"/><rect fill="#F1F1F1" height="2" style="stroke:#181818;stroke-width:0.5;" width="4" x="414.285" y="331.4583"/><text fill="#000000" font-family="sans-serif" font-size="14" lengthAdjust="spacing" textLength="193.915" x="217.37" y="353.9934">Project::evaluate_green_gate</text><text fill="#000000" font-family="sans-serif" font-size="14" lengthAdjust="spacing" textLength="176.4287" x="217.37" y="370.4817">(CMP-TEST-GREEN-GATE)</text></g><!--entity Cfg--><g class="entity" data-qualified-name="Cfg" data-source-line="23" id="ent0007"><rect fill="#F1F1F1" height="62.9766" rx="2.5" ry="2.5" style="stroke:#181818;stroke-width:0.5;" width="188.9209" x="411.87" y="460.4283"/><rect fill="#F1F1F1" height="10" style="stroke:#181818;stroke-width:0.5;" width="15" x="580.7909" y="465.4283"/><rect fill="#F1F1F1" height="2" style="stroke:#181818;stroke-width:0.5;" width="4" x="578.7909" y="467.4283"/><rect fill="#F1F1F1" height="2" style="stroke:#181818;stroke-width:0.5;" width="4" x="578.7909" y="471.4283"/><text fill="#000000" font-family="sans-serif" font-size="14" lengthAdjust="spacing" textLength="71.2441" x="426.87" y="493.9634">config.yml</text><text fill="#000000" font-family="sans-serif" font-size="14" lengthAdjust="spacing" textLength="148.9209" x="426.87" y="510.4517">test.layers + test.gate</text></g><!--entity Trace--><g class="entity" data-qualified-name="Trace" data-source-line="24" id="ent0008"><rect fill="#F1F1F1" height="62.9766" rx="2.5" ry="2.5" style="stroke:#181818;stroke-width:0.5;" width="124.2051" x="1038.22" y="460.4283"/><rect fill="#F1F1F1" height="10" style="stroke:#181818;stroke-width:0.5;" width="15" x="1142.4251" y="465.4283"/><rect fill="#F1F1F1" height="2" style="stroke:#181818;stroke-width:0.5;" width="4" x="1140.4251" y="467.4283"/><rect fill="#F1F1F1" height="2" style="stroke:#181818;stroke-width:0.5;" width="4" x="1140.4251" y="471.4283"/><text fill="#000000" font-family="sans-serif" font-size="14" lengthAdjust="spacing" textLength="62.5283" x="1053.22" y="493.9634">trace.yml</text><text fill="#000000" font-family="sans-serif" font-size="14" lengthAdjust="spacing" textLength="84.2051" x="1053.22" y="510.4517">unified tests</text></g><!--entity Skill--><g class="entity" data-qualified-name="Skill" data-source-line="25" id="ent0009"><rect fill="#F1F1F1" height="62.9766" rx="2.5" ry="2.5" style="stroke:#181818;stroke-width:0.5;" width="174.627" x="493.01" y="180.4783"/><rect fill="#F1F1F1" height="10" style="stroke:#181818;stroke-width:0.5;" width="15" x="647.637" y="185.4783"/><rect fill="#F1F1F1" height="2" style="stroke:#181818;stroke-width:0.5;" width="4" x="645.637" y="187.4783"/><rect fill="#F1F1F1" height="2" style="stroke:#181818;stroke-width:0.5;" width="4" x="645.637" y="191.4783"/><text fill="#000000" font-family="sans-serif" font-size="14" lengthAdjust="spacing" textLength="111.5283" x="508.01" y="214.0134">/mdd-cycle skill</text><text fill="#000000" font-family="sans-serif" font-size="14" lengthAdjust="spacing" textLength="134.627" x="508.01" y="230.5017">(confirm + execute)</text></g><g class="entity" data-qualified-name="GMN21" data-source-line="40" id="ent0022"><path d="M635.84,471.6083 L635.84,512.2294 A0,0 0 0 0 635.84,512.2294 L1002.8063,512.2294 A0,0 0 0 0 1002.8063,512.2294 L1002.8063,481.6083 L992.8063,471.6083 L820.32,471.6083 L803.04,383.9083 L812.32,471.6083 L635.84,471.6083 A0,0 0 0 0 635.84,471.6083" fill="#FEFFDD" style="stroke:#181818;stroke-width:0.5;"/><path d="M992.8063,471.6083 L992.8063,481.6083 L1002.8063,481.6083 L992.8063,471.6083" fill="#FEFFDD" style="stroke:#181818;stroke-width:0.5;"/><text fill="#000000" font-family="sans-serif" font-size="13" lengthAdjust="spacing" textLength="345.9663" x="641.84" y="489.1766">Recommends only; the skill confirms with the operator</text><text fill="#000000" font-family="sans-serif" font-size="13" lengthAdjust="spacing" textLength="322.8545" x="641.84" y="504.4872">before writing config.test.layers. Ambiguity blocks.</text></g><g class="entity" data-qualified-name="GMN24" data-source-line="45" id="ent0025"><path d="M6,471.6083 L6,512.2294 A0,0 0 0 0 6,512.2294 L376.6543,512.2294 A0,0 0 0 0 376.6543,512.2294 L376.6543,481.6083 L366.6543,471.6083 L213.67,471.6083 L290.6,383.9083 L205.67,471.6083 L6,471.6083 A0,0 0 0 0 6,471.6083" fill="#FEFFDD" style="stroke:#181818;stroke-width:0.5;"/><path d="M366.6543,471.6083 L366.6543,481.6083 L376.6543,481.6083 L366.6543,471.6083" fill="#FEFFDD" style="stroke:#181818;stroke-width:0.5;"/><text fill="#000000" font-family="sans-serif" font-size="13" lengthAdjust="spacing" textLength="349.6543" x="12" y="489.1766">blocking = !all_green AND gate=error. Green side only;</text><text fill="#000000" font-family="sans-serif" font-size="13" lengthAdjust="spacing" textLength="310.2417" x="12" y="504.4872">the red-&gt;green gate (Cycle C) is non-negotiable.</text></g><!--link Dev to Cli--><g class="link" data-entity-1="ent0002" data-entity-2="ent0003" data-link-type="dependency" data-source-line="27" id="lnk10"><path d="M844.33,119.8183 C844.33,138.9583 844.33,155.9583 844.33,174.0583" fill="none" id="Dev-to-Cli" style="stroke:#181818;stroke-width:1;"/><polygon fill="#181818" points="844.33,180.0583,848.33,171.0583,844.33,175.0583,840.33,171.0583,844.33,180.0583" style="stroke:#181818;stroke-width:1;"/></g><!--link Cli to Detect--><g class="link" data-entity-1="ent0003" data-entity-2="ent0004" data-link-type="dependency" data-source-line="28" id="lnk11"><path d="M834,243.9283 C826.43,266.6583 818.0759,291.6857 810.5159,314.3857" fill="none" id="Cli-to-Detect" style="stroke:#181818;stroke-width:1;"/><polygon fill="#181818" points="808.62,320.0783,815.2589,312.8033,810.1999,315.3344,807.6687,310.2755,808.62,320.0783" style="stroke:#181818;stroke-width:1;"/><text fill="#000000" font-family="sans-serif" font-size="13" lengthAdjust="spacing" textLength="70.167" x="825.08" y="287.0266">test-detect</text></g><!--link Cli to Plan--><g class="link" data-entity-1="ent0003" data-entity-2="ent0005" data-link-type="dependency" data-source-line="29" id="lnk12"><path d="M884.95,243.9283 C914.76,266.6583 950.2988,293.7402 980.0688,316.4402" fill="none" id="Cli-to-Plan" style="stroke:#181818;stroke-width:1;"/><polygon fill="#181818" points="984.84,320.0783,980.1086,311.4403,980.864,317.0465,975.2578,317.8019,984.84,320.0783" style="stroke:#181818;stroke-width:1;"/><text fill="#000000" font-family="sans-serif" font-size="13" lengthAdjust="spacing" textLength="58.3032" x="946.66" y="287.0266">test-plan</text></g><!--link Detect to Cfg--><g class="link" data-entity-1="ent0004" data-entity-2="ent0007" data-link-type="dependency" data-source-line="30" id="lnk13"><path d="M687.54,379.1283 C658.91,388.0283 628.73,399.3783 602.33,413.4283 C579.07,425.8083 560.4825,440.1999 542.7925,455.9399" fill="none" id="Detect-to-Cfg" style="stroke:#181818;stroke-width:1;"/><polygon fill="#181818" points="538.31,459.9283,547.6927,456.934,542.0454,456.6046,542.3748,450.9574,538.31,459.9283" style="stroke:#181818;stroke-width:1;"/><text fill="#000000" font-family="sans-serif" font-size="13" lengthAdjust="spacing" textLength="195.0571" x="603.33" y="426.9966">reads build files (recommends)</text></g><!--link Plan to Cfg--><g class="link" data-entity-1="ent0005" data-entity-2="ent0007" data-link-type="dependency" data-source-line="31" id="lnk14"><path d="M949.21,383.8883 C907.82,399.7183 855.4,418.1883 807.33,430.4283 C724.91,451.4283 701.48,442.5683 618.33,460.4283 C612.71,461.6383 612.7965,461.5672 607.0065,462.9472" fill="none" id="Plan-to-Cfg" style="stroke:#181818;stroke-width:1;"/><polygon fill="#181818" points="601.17,464.3383,610.8522,466.1427,606.0338,463.179,608.9974,458.3606,601.17,464.3383" style="stroke:#181818;stroke-width:1;"/><text fill="#000000" font-family="sans-serif" font-size="13" lengthAdjust="spacing" textLength="64.6255" x="863.15" y="426.9966">test.layers</text></g><!--link Plan to Trace--><g class="link" data-entity-1="ent0005" data-entity-2="ent0008" data-link-type="dependency" data-source-line="32" id="lnk15"><path d="M1042.16,383.9083 C1054.51,406.6283 1068.3444,432.0868 1080.6844,454.7868" fill="none" id="Plan-to-Trace" style="stroke:#181818;stroke-width:1;"/><polygon fill="#181818" points="1083.55,460.0583,1082.7659,450.2407,1081.162,455.6654,1075.7373,454.0615,1083.55,460.0583" style="stroke:#181818;stroke-width:1;"/><text fill="#000000" font-family="sans-serif" font-size="13" lengthAdjust="spacing" textLength="78.1904" x="1068.32" y="426.9966">unified tests</text></g><!--link Skill to Detect--><g class="link" data-entity-1="ent0009" data-entity-2="ent0004" data-link-type="dependency" data-source-line="33" id="lnk16"><path d="M583.05,243.6683 C585.97,259.5283 591.99,278.0983 604.33,290.4583 C617.22,303.3783 645.623,314.1178 681.773,324.2578" fill="none" id="Skill-to-Detect" style="stroke:#181818;stroke-width:1;"/><polygon fill="#181818" points="687.55,325.8783,679.9647,319.5963,682.7358,324.5279,677.8041,327.299,687.55,325.8783" style="stroke:#181818;stroke-width:1;"/><text fill="#000000" font-family="sans-serif" font-size="13" lengthAdjust="spacing" textLength="74.9722" x="605.33" y="287.0266">recommend</text></g><!--link Skill to Cfg--><g class="link" data-entity-1="ent0009" data-entity-2="ent0007" data-link-type="dependency" data-source-line="34" id="lnk17"><path d="M560.39,243.6183 C547.87,264.4283 532.59,293.0583 524.33,320.4583 C510.07,367.7583 506.8303,419.3891 506.2503,454.0691" fill="none" id="Skill-to-Cfg" style="stroke:#181818;stroke-width:1;"/><polygon fill="#181818" points="506.15,460.0683,510.2999,451.1364,506.2336,455.069,502.3011,451.0027,506.15,460.0683" style="stroke:#181818;stroke-width:1;"/><text fill="#000000" font-family="sans-serif" font-size="13" lengthAdjust="spacing" textLength="144.5806" x="525.33" y="357.0166">write confirmed profile</text></g><!--link Skill to Plan--><g class="link" data-entity-1="ent0009" data-entity-2="ent0005" data-link-type="dependency" data-source-line="35" id="lnk18"><path d="M638.62,243.8783 C671.03,259.8983 712.53,278.5583 751.33,290.4583 C826.77,313.5983 849.57,302.1383 926.33,320.4583 C931.92,321.7883 931.8805,321.693 937.6505,323.263" fill="none" id="Skill-to-Plan" style="stroke:#181818;stroke-width:1;"/><polygon fill="#181818" points="943.44,324.8383,935.8059,318.6156,938.6154,323.5255,933.7055,326.335,943.44,324.8383" style="stroke:#181818;stroke-width:1;"/><text fill="#000000" font-family="sans-serif" font-size="13" lengthAdjust="spacing" textLength="57.8652" x="752.33" y="287.0266">get steps</text></g><!--link Skill to Gate--><g class="link" data-entity-1="ent0009" data-entity-2="ent0006" data-link-type="dependency" data-source-line="36" id="lnk19"><path d="M492.82,225.9583 C434.24,236.3383 364.04,252.5883 342.33,273.4583 C329.78,285.5083 324.9674,298.1484 322.3374,314.0784" fill="none" id="Skill-to-Gate" style="stroke:#181818;stroke-width:1;"/><polygon fill="#181818" points="321.36,319.9983,326.7726,311.7701,322.1745,315.0651,318.8795,310.4669,321.36,319.9983" style="stroke:#181818;stroke-width:1;"/><text fill="#000000" font-family="sans-serif" font-size="13" lengthAdjust="spacing" textLength="136.9063" x="343.33" y="287.0266">run results -&gt; verdict</text></g><!--link Gate to Cfg--><g class="link" data-entity-1="ent0006" data-entity-2="ent0007" data-link-type="dependency" data-source-line="37" id="lnk20"><path d="M322.83,383.7783 C326.07,399.4783 332.31,417.8583 344.33,430.4283 C354.8,441.3883 376.5609,451.1533 405.9309,461.3333" fill="none" id="Gate-to-Cfg" style="stroke:#181818;stroke-width:1;"/><polygon fill="#181818" points="411.6,463.2983,404.4063,456.5714,406.8757,461.6608,401.7863,464.1302,411.6,463.2983" style="stroke:#181818;stroke-width:1;"/><text fill="#000000" font-family="sans-serif" font-size="13" lengthAdjust="spacing" textLength="134.291" x="345.33" y="426.9966">test.gate (error|warn)</text></g><?plantuml-src ZLPTRjj647xdAQP-YLIBTD2V5wSnuaY6aI9n35ij2ZI5lI9NrCRBNM9tAKLe2_GGlKFlqQFq99sP9KLQLee-2B0v_pFVVBFF84rJsAoibcabQgYTNKiZJ2vF8T_cMa9OYG3A16UB9fS5I96lu9Kgo31v1gzOQpHzTvtEBsxdwUnYVZ6TJ-3vyw--6H-GNxyzl_gyzFBcuk8glJoVNmnqLB7ldZyNqkTFunwzRfGkqgN2r0iPP1wKDPW_L4MHvjPXNTVEViJlfwTHVXUa3tTOEDcCnf2UmOm5ihYE7pDuOtoDNpnsGuAJjGLdRO2bTJ0LhhHPi9MUG2to1r7AxAF7cAD2hcUobgQG9bVIZr6-hMDirZ_nCZHrLcydW1ugMw22hR9FA5bG4LdfHA7b1BxCSa-64xYK5LScJ04uBX-d4Im8p2gtLKNH2gYbIxNOIWTB9ogviUxXcAHaXZAkuk-_lis-XY0MMhvWOrTuQD0yLmLzX7nbLIuzzUvUL0jLDYfW6VSPN3Skfk2aA59hz1R--UFFFWC_0IFN66VZ53ONSckMgipWjd5BGHXQR3a58pTmZtC1ca0Qfm4_focrxvTxcBvz0-XbaS5yrGqpHJkJiaDNmGy_mSXYGIBW84JDuFMma3WN6OEFGQjrB88YdZ0A6DV-GMcT7Jr1607q0BuYRe-wJ5obZF91vL1hOI0s-p3A8hnGAsBhHvb_DyTFr_ZbDiZw3AUkcuYilXdizMahO3IDO_IdfvsJSGOtqbkzxZjDBZBEoSCdzjmOjLJO-U1m01p2msZs_brRtCtxxt5xtho_6jEgMq0mI8Vg7XF4QOeG46VAb15lxFaPHOkGejzIYx8a3OfM8fFuPe7upk3AWlmayuRsy0NbWJF4yBAWiIgSJ2pTXmWwQoZ5i3yjRMqDhZ6OJAMSiuv2hUo6zGfPQxibySBQ1_9OIaEem0eU3KjeX2fb6pFgaVWvCFHyT00IGx9YO9HE8ZXBZ4l3AbGUFWC9kHQwGRKxjhWZYv6Jlj71CqOkwVCbVhr1gd41VWNCF2fFi5EOwnrEPm8BRVC7wiJls4pn86ChQVjfSDGGQDt2gEu8V5WogPXkQeovjHBmMlWLpXnoRJrkKBVfZ-55IP_s6Ro4BtOvmldL34Z-KjAeCkRJVcF8tm07u6qB6koRQt3OEC0QoKHvPAOz74mf9OObq3GHFY4ELA6YY-bWiHntZ31cidPO_p6rq6uyCcNZiK4YpsLDqRb866s4eqswLGlD_R3zj9nSAxd1xIMIyy4rUMYSqCZso31RGkxMWvVuBrMmTBRY1UjX7u4rRPoJ9e3T83RzIjNnV71PhsaPi7LxtD911wsNZU5Jvkck41DEU5wJ0w0ROx5XOtUauRcBwAEbq05xKkkemxXn3LL42DYb3S9rC1czRl876M0wdg2VVWFZvY4La6NwEFcJRijIPTBenjTQXIm9Ac3DxsOpA9J08rUbXKEMDYqlKPlRStn2Va-ukBvjepnsSfmac3Vsy6Y6rqRJ8S2WvxZxuGY4HzIjamGvghQ6-dwqVsbEUghzO4QxRetPUAhLqFQ_tWnalFS-QUEJwa4lkvimjENBmvP4wmVj3X37qCE0hjWFKSZGJxk_sqf_CCCRSGoxbOx5BykX6H-DQBMx8pGfrfsJSAYzVsCnmGvnnnqaOdgt94uId1C-9i-uvVZZlsFlu7Gui9sGsjE9g8b9gyrEbYMA8btnAmfeHBWr_UjadB23NdlGYbx4TQ7mKSK9f_mumvtZWJ3wvHS8jCNJiopYPQ3NLbBYQl6f7OXeTkHzmE7ujLtnXALx5V2QHEhxZUaiIOp5JmiRyBa9TjaX4l31q3K3wFdsOd0HsdGzR91I-NltmaAxmTEArl_fSoE3y_Qfk6t9E4im350YJz9XUCB_l25y4y6hGiQKqJ0-nelqB5h4-YEXJiTqHOmrgP6b3OeU5tqc_m80?></g></svg>