<svg xmlns="http://www.w3.org/2000/svg" xmlns:xlink="http://www.w3.org/1999/xlink" contentStyleType="text/css" data-diagram-type="DESCRIPTION" height="783px" preserveAspectRatio="none" style="width:1666px;height:783px;background:#FFFFFF;" version="1.1" viewBox="0 0 1666 783" width="1666px" zoomAndPan="magnify"><?plantuml 1.2026.3?><defs/><g><g class="title" data-source-line="9"><text fill="#000000" font-family="sans-serif" font-size="14" font-weight="700" lengthAdjust="spacing" textLength="377.7676" x="640.95" y="23.5352">mdd-viewer theming module &#8212; ownership (current)</text></g><!--cluster External crates--><g class="cluster" data-qualified-name="External crates" data-source-line="16" id="ent0006"><path d="M1173.38,345.6583 L1281.7316,345.6583 A3.75,3.75 0 0 1 1284.2316,348.1583 L1291.2316,368.1466 L1546.38,368.1466 A2.5,2.5 0 0 1 1548.88,370.6466 L1548.88,457.1383 A2.5,2.5 0 0 1 1546.38,459.6383 L1173.38,459.6383 A2.5,2.5 0 0 1 1170.88,457.1383 L1170.88,348.1583 A2.5,2.5 0 0 1 1173.38,345.6583" fill="none" style="stroke:#000000;stroke-width:1.5;"/><line style="stroke:#000000;stroke-width:1.5;" x1="1170.88" x2="1291.2316" y1="368.1466" y2="368.1466"/><text fill="#000000" font-family="sans-serif" font-size="14" font-weight="700" lengthAdjust="spacing" textLength="107.3516" x="1174.88" y="361.1934">External crates</text></g><!--entity Catppuccin--><g class="entity" data-qualified-name="External crates.Catppuccin" data-source-line="17" id="ent0007"><rect fill="#F1F1F1" height="62.9766" rx="2.5" ry="2.5" style="stroke:#181818;stroke-width:0.5;" width="176.3564" x="1186.7" y="380.6583"/><rect fill="#F1F1F1" height="10" style="stroke:#181818;stroke-width:0.5;" width="15" x="1343.0564" y="385.6583"/><rect fill="#F1F1F1" height="2" style="stroke:#181818;stroke-width:0.5;" width="4" x="1341.0564" y="387.6583"/><rect fill="#F1F1F1" height="2" style="stroke:#181818;stroke-width:0.5;" width="4" x="1341.0564" y="391.6583"/><text fill="#000000" font-family="sans-serif" font-size="14" lengthAdjust="spacing" textLength="136.3564" x="1201.7" y="414.1934">catppuccin_egui 5.7</text><text fill="#000000" font-family="sans-serif" font-size="14" lengthAdjust="spacing" textLength="113.0664" x="1201.7" y="430.6817">(feature: egui30)</text></g><!--entity DarkLight--><g class="entity" data-qualified-name="External crates.DarkLight" data-source-line="18" id="ent0008"><rect fill="#F1F1F1" height="46.4883" rx="2.5" ry="2.5" style="stroke:#181818;stroke-width:0.5;" width="134.7666" x="1398.5" y="388.8983"/><rect fill="#F1F1F1" height="10" style="stroke:#181818;stroke-width:0.5;" width="15" x="1513.2666" y="393.8983"/><rect fill="#F1F1F1" height="2" style="stroke:#181818;stroke-width:0.5;" width="4" x="1511.2666" y="395.8983"/><rect fill="#F1F1F1" height="2" style="stroke:#181818;stroke-width:0.5;" width="4" x="1511.2666" y="399.8983"/><text fill="#000000" font-family="sans-serif" font-size="14" lengthAdjust="spacing" textLength="94.7666" x="1413.5" y="422.4334">dark_light 2.0</text></g><!--entity Dev--><g class="entity" data-qualified-name="Dev" data-source-line="11" id="ent0002"><ellipse cx="576.8792" cy="702.1083" fill="#F1F1F1" rx="8" ry="8" style="stroke:#181818;stroke-width:0.5;"/><path d="M576.8792,710.1083 L576.8792,737.1083 M563.8792,718.1083 L589.8792,718.1083 M576.8792,737.1083 L563.8792,752.1083 M576.8792,737.1083 L589.8792,752.1083" fill="none" style="stroke:#181818;stroke-width:0.5;"/><text fill="#000000" font-family="sans-serif" font-size="14" lengthAdjust="spacing" textLength="68.3184" x="542.72" y="767.1434">Developer</text></g><!--entity Viewer--><g class="entity" data-qualified-name="Viewer" data-source-line="13" id="ent0003"><rect fill="#F1F1F1" height="79.4648" rx="2.5" ry="2.5" style="stroke:#181818;stroke-width:0.5;" width="243.8203" x="885.97" y="44.4883"/><rect fill="#F1F1F1" height="10" style="stroke:#181818;stroke-width:0.5;" width="15" x="1109.7903" y="49.4883"/><rect fill="#F1F1F1" height="2" style="stroke:#181818;stroke-width:0.5;" width="4" x="1107.7903" y="51.4883"/><rect fill="#F1F1F1" height="2" style="stroke:#181818;stroke-width:0.5;" width="4" x="1107.7903" y="55.4883"/><text fill="#000000" font-family="sans-serif" font-size="14" lengthAdjust="spacing" textLength="74.9971" x="900.97" y="78.0234">MddViewer</text><text fill="#000000" font-family="sans-serif" font-size="14" lengthAdjust="spacing" textLength="92.4014" x="900.97" y="94.5117">(eframe::App,</text><text fill="#000000" font-family="sans-serif" font-size="14" lengthAdjust="spacing" textLength="203.8203" x="900.97" y="111">crates/mdd-viewer/src/lib.rs)</text></g><!--entity Theme--><g class="entity" data-qualified-name="Theme" data-source-line="14" id="ent0004"><rect fill="#F1F1F1" height="62.9766" rx="2.5" ry="2.5" style="stroke:#181818;stroke-width:0.5;" width="240.3135" x="887.72" y="215.9483"/><rect fill="#F1F1F1" height="10" style="stroke:#181818;stroke-width:0.5;" width="15" x="1108.0335" y="220.9483"/><rect fill="#F1F1F1" height="2" style="stroke:#181818;stroke-width:0.5;" width="4" x="1106.0335" y="222.9483"/><rect fill="#F1F1F1" height="2" style="stroke:#181818;stroke-width:0.5;" width="4" x="1106.0335" y="226.9483"/><text fill="#000000" font-family="sans-serif" font-size="14" lengthAdjust="spacing" textLength="59.8896" x="902.72" y="249.4834">theme.rs</text><text fill="#000000" font-family="sans-serif" font-size="14" lengthAdjust="spacing" textLength="200.3135" x="902.72" y="265.9717">register_fonts + apply_theme</text></g><!--entity Assets--><g class="entity" data-qualified-name="Assets" data-source-line="15" id="ent0005"><rect fill="#F1F1F1" height="112.4414" rx="2.5" ry="2.5" style="stroke:#181818;stroke-width:0.5;" width="225.3086" x="23.23" y="355.9283"/><rect fill="#F1F1F1" height="10" style="stroke:#181818;stroke-width:0.5;" width="15" x="228.5386" y="360.9283"/><rect fill="#F1F1F1" height="2" style="stroke:#181818;stroke-width:0.5;" width="4" x="226.5386" y="362.9283"/><rect fill="#F1F1F1" height="2" style="stroke:#181818;stroke-width:0.5;" width="4" x="226.5386" y="366.9283"/><text fill="#000000" font-family="sans-serif" font-size="14" lengthAdjust="spacing" textLength="91.6699" x="38.23" y="389.4634">assets/fonts/</text><text fill="#000000" font-family="sans-serif" font-size="14" lengthAdjust="spacing" textLength="120.1963" x="38.23" y="405.9517">(Inter-Regular.ttf,</text><text fill="#000000" font-family="sans-serif" font-size="14" lengthAdjust="spacing" textLength="118.542" x="42.6597" y="422.44">Inter-Medium.ttf,</text><text fill="#000000" font-family="sans-serif" font-size="14" lengthAdjust="spacing" textLength="180.8789" x="42.6597" y="438.9283">JetBrainsMono-Regular.ttf,</text><text fill="#000000" font-family="sans-serif" font-size="14" lengthAdjust="spacing" textLength="101.5342" x="42.6597" y="455.4166">include_bytes!)</text></g><!--entity Ctx--><g class="entity" data-qualified-name="Ctx" data-source-line="20" id="ent0009"><rect fill="#F1F1F1" height="46.4883" rx="2.5" ry="2.5" style="stroke:#181818;stroke-width:0.5;" width="131.957" x="510.9" y="557.7483"/><rect fill="#F1F1F1" height="10" style="stroke:#181818;stroke-width:0.5;" width="15" x="622.857" y="562.7483"/><rect fill="#F1F1F1" height="2" style="stroke:#181818;stroke-width:0.5;" width="4" x="620.857" y="564.7483"/><rect fill="#F1F1F1" height="2" style="stroke:#181818;stroke-width:0.5;" width="4" x="620.857" y="568.7483"/><text fill="#000000" font-family="sans-serif" font-size="14" lengthAdjust="spacing" textLength="91.957" x="525.9" y="591.2834">egui::Context</text></g><g class="entity" data-qualified-name="GMN19" data-source-line="33" id="ent0020"><path d="M877.73,376.5283 L877.73,447.7705 A0,0 0 0 0 877.73,447.7705 L1152.0396,447.7705 A0,0 0 0 0 1152.0396,447.7705 L1152.0396,386.5283 L1142.0396,376.5283 L1017.37,376.5283 L1009.21,279.4283 L1009.37,376.5283 L877.73,376.5283 A0,0 0 0 0 877.73,376.5283" fill="#FEFFDD" style="stroke:#181818;stroke-width:0.5;"/><path d="M1142.0396,376.5283 L1142.0396,386.5283 L1152.0396,386.5283 L1142.0396,376.5283" fill="#FEFFDD" style="stroke:#181818;stroke-width:0.5;"/><text fill="#000000" font-family="sans-serif" font-size="13" lengthAdjust="spacing" textLength="253.2207" x="883.73" y="394.0966">Pure chrome boundary: theme.rs has no</text><text fill="#000000" font-family="sans-serif" font-size="13" lengthAdjust="spacing" textLength="242.5947" x="883.73" y="409.4072">use mdd_core::&#8230; imports, no PathBuf,</text><text fill="#000000" font-family="sans-serif" font-size="13" lengthAdjust="spacing" textLength="230.8516" x="883.73" y="424.7177">no SVG, no model state. Removing it</text><text fill="#000000" font-family="sans-serif" font-size="13" lengthAdjust="spacing" textLength="253.3096" x="883.73" y="440.0283">must not change any rendered diagram.</text></g><g class="entity" data-qualified-name="GMN22" data-source-line="40" id="ent0023"><path d="M6,545.3683 L6,616.6105 A0,0 0 0 0 6,616.6105 L265.7607,616.6105 A0,0 0 0 0 265.7607,616.6105 L265.7607,555.3683 L255.7607,545.3683 L139.88,545.3683 L135.88,468.6983 L131.88,545.3683 L6,545.3683 A0,0 0 0 0 6,545.3683" fill="#FEFFDD" style="stroke:#181818;stroke-width:0.5;"/><path d="M255.7607,545.3683 L255.7607,555.3683 L265.7607,555.3683 L255.7607,545.3683" fill="#FEFFDD" style="stroke:#181818;stroke-width:0.5;"/><text fill="#000000" font-family="sans-serif" font-size="13" lengthAdjust="spacing" textLength="212.3164" x="12" y="562.9366">TTFs and OFL licences ship inside</text><text fill="#000000" font-family="sans-serif" font-size="13" lengthAdjust="spacing" textLength="238.7607" x="12" y="578.2472">the binary. Licences are also recorded</text><text fill="#000000" font-family="sans-serif" font-size="13" lengthAdjust="spacing" textLength="194.251" x="12" y="593.5577">in this folder's .txt files so that</text><text fill="#000000" font-family="sans-serif" font-size="13" lengthAdjust="spacing" textLength="193.0068" x="12" y="608.8683">redistribution stays compliant.</text></g><!--link Viewer to Theme--><g class="link" data-entity-1="ent0003" data-entity-2="ent0004" data-link-type="dependency" data-source-line="22" id="lnk10"><path d="M1007.88,124.2483 C1007.88,152.2983 1007.88,183.5983 1007.88,209.5783" fill="none" id="Viewer-to-Theme" style="stroke:#181818;stroke-width:1;"/><polygon fill="#181818" points="1007.88,215.5783,1011.88,206.5783,1007.88,210.5783,1003.88,206.5783,1007.88,215.5783" style="stroke:#181818;stroke-width:1;"/><text fill="#000000" font-family="sans-serif" font-size="13" lengthAdjust="spacing" textLength="209.4854" x="1008.88" y="167.5166">register_fonts(&amp;cc.egui_ctx) once</text><text fill="#000000" font-family="sans-serif" font-size="13" lengthAdjust="spacing" textLength="196.5742" x="1015.3356" y="182.8272">+ apply_theme(ctx) each frame</text></g><!--link Theme to Assets--><g class="link" data-entity-1="ent0004" data-entity-2="ent0005" data-link-type="dependency" data-source-line="23" id="lnk11"><path d="M887.28,251.5483 C676.58,257.8583 258.25,274.5683 200.88,308.9283 C182.84,319.7283 171.9443,332.4874 161.7443,350.3574" fill="none" id="Theme-to-Assets" style="stroke:#181818;stroke-width:1;"/><polygon fill="#181818" points="158.77,355.5683,166.7054,349.7348,161.2486,351.2259,159.7576,345.7691,158.77,355.5683" style="stroke:#181818;stroke-width:1;"/><text fill="#000000" font-family="sans-serif" font-size="13" lengthAdjust="spacing" textLength="90.0542" x="201.88" y="322.4966">include_bytes!</text></g><!--link Theme to Ctx--><g class="link" data-entity-1="ent0004" data-entity-2="ent0009" data-link-type="dependency" data-source-line="24" id="lnk12"><path d="M887.44,256.1683 C706.23,269.0383 380.81,297.4883 345.88,337.6583 C307.76,381.4983 315.01,419.1583 345.88,468.3683 C381.68,525.4383 450.0037,552.5548 504.6737,566.4048" fill="none" id="Theme-to-Ctx" style="stroke:#181818;stroke-width:1;"/><polygon fill="#181818" points="510.49,567.8783,502.7479,561.7906,505.6431,566.6504,500.7833,569.5456,510.49,567.8783" style="stroke:#181818;stroke-width:1;"/><text fill="#000000" font-family="sans-serif" font-size="13" lengthAdjust="spacing" textLength="186.145" x="346.88" y="417.2166">ctx.set_fonts(FontDefinitions)</text></g><!--link Theme to Ctx--><g class="link" data-entity-1="ent0004" data-entity-2="ent0009" data-link-type="dependency" data-source-line="29" id="lnk17"><path d="M887.25,258.5583 C779.07,270.3383 631.72,294.0183 593.88,337.6583 C539.45,400.4383 557.2786,504.2765 569.0486,551.4865" fill="none" id="Theme-to-Ctx-1" style="stroke:#181818;stroke-width:1;"/><polygon fill="#181818" points="570.5,557.3083,572.204,547.608,569.2905,552.4568,564.4416,549.5432,570.5,557.3083" style="stroke:#181818;stroke-width:1;"/><text fill="#000000" font-family="sans-serif" font-size="13" lengthAdjust="spacing" textLength="264.7417" x="594.88" y="417.2166">style_mut(): spacing + rounding overrides</text></g><!--link Theme to DarkLight--><g class="link" data-entity-1="ent0004" data-entity-2="ent0008" data-link-type="dependency" data-source-line="25" id="lnk13"><path d="M1128.23,270.4283 C1173.55,280.1783 1225.17,293.0883 1270.88,308.9283 C1287.6,314.7183 1289.97,320.7083 1306.88,325.9283 C1338.7,335.7383 1350.68,323.6283 1380.88,337.6583 C1406.53,349.5783 1426.2737,367.213 1442.1437,384.043" fill="none" id="Theme-to-DarkLight" style="stroke:#181818;stroke-width:1;"/><polygon fill="#181818" points="1446.26,388.4083,1442.9957,379.1161,1442.8297,384.7705,1437.1753,384.6045,1446.26,388.4083" style="stroke:#181818;stroke-width:1;"/><text fill="#000000" font-family="sans-serif" font-size="13" lengthAdjust="spacing" textLength="121.5386" x="1307.88" y="322.4966">detect() each frame</text></g><!--link DarkLight to Theme--><g class="link" data-entity-1="ent0008" data-entity-2="ent0004" data-link-type="dependency" data-source-line="26" id="lnk14"><path d="M1465.46,388.6783 C1463.72,365.0683 1457.12,328.6683 1433.88,308.9283 C1389.01,270.8083 1243.8832,256.9834 1134.3732,251.7734" fill="none" id="DarkLight-to-Theme" style="stroke:#181818;stroke-width:1;"/><polygon fill="#181818" points="1128.38,251.4883,1137.1797,255.9115,1133.3744,251.7259,1137.5599,247.9205,1128.38,251.4883" style="stroke:#181818;stroke-width:1;"/><text fill="#000000" font-family="sans-serif" font-size="13" lengthAdjust="spacing" textLength="202.8076" x="1447.86" y="322.4966">Mode::{Light, Dark, Unspecified}</text></g><!--link Theme to Catppuccin--><g class="link" data-entity-1="ent0004" data-entity-2="ent0007" data-link-type="dependency" data-source-line="27" id="lnk15"><path d="M1021.73,279.1583 C1030.93,295.8583 1044.68,315.2283 1062.88,325.9283 C1104.12,350.1683 1125.11,320.8083 1169.88,337.6583 C1195.7,347.3783 1216.4555,361.1692 1235.8355,376.6792" fill="none" id="Theme-to-Catppuccin" style="stroke:#181818;stroke-width:1;"/><polygon fill="#181818" points="1240.52,380.4283,1235.9926,371.6817,1236.6162,377.3041,1230.9939,377.9277,1240.52,380.4283" style="stroke:#181818;stroke-width:1;"/><text fill="#000000" font-family="sans-serif" font-size="13" lengthAdjust="spacing" textLength="202.2427" x="1063.88" y="322.4966">set_theme(ctx, MOCHA | LATTE)</text></g><!--link Catppuccin to Ctx--><g class="link" data-entity-1="ent0007" data-entity-2="ent0009" data-link-type="dependency" data-source-line="28" id="lnk16"><path d="M1223.65,443.9983 C1206.98,452.9583 1188.07,462.0383 1169.88,468.3683 C985.12,532.7083 760.3185,561.9644 648.9885,573.4144" fill="none" id="Catppuccin-to-Ctx" style="stroke:#181818;stroke-width:1;"/><polygon fill="#181818" points="643.02,574.0283,652.382,577.0865,647.9938,573.5167,651.5635,569.1285,643.02,574.0283" style="stroke:#181818;stroke-width:1;"/><text fill="#000000" font-family="sans-serif" font-size="13" lengthAdjust="spacing" textLength="138.0298" x="1060.59" y="511.9366">style.visuals = palette</text></g><!--link Ctx to Dev--><g class="link" data-entity-1="ent0009" data-entity-2="ent0002" data-link-type="dependency" data-source-line="30" id="lnk18"><path d="M576.88,604.5983 C576.88,628.1083 576.88,659.2983 576.88,687.2383" fill="none" id="Ctx-to-Dev" style="stroke:#181818;stroke-width:1;"/><polygon fill="#181818" points="576.88,693.2383,580.88,684.2383,576.88,688.2383,572.88,684.2383,576.88,693.2383" style="stroke:#181818;stroke-width:1;"/><text fill="#000000" font-family="sans-serif" font-size="13" lengthAdjust="spacing" textLength="300.7837" x="577.88" y="660.1766">themed TopBottomPanel + SidePanels + canvas</text></g><?plantuml-src TLRHJYCt57sVhxZDmvA8pC1kLLLArMe32Lqg0WYoz0KfClPDOksCFR8zWNIxqdv4lw4Vjb_IOm-GPA4lCBQlZy-zFlSuUvJdETqlRSbv9MggdLsn4KRoWEHQbanXAG9f4vnLZMH5BEIItciLDsPxz3v5TOydb_dDwVZFyLK-_J2UZFjqUFZsRIy6QFLYDSqxddS_Nezt5aPfHR6Nho1sJgkwv8fD00tXIJeHs1zKIkKhpVVi3hoJ1s69aCBvFWbwbyyDLI1U8Xt72-q3kzdSck2xCZmCw0ql6ZqO76E67qAFX05oNPVhMO9vDQYWqq3stdYKXkckCQe4dmWAKfw39qonUuLUktoGpZ-WxYdmN7u5z5Au8eHvdzgf2IlTLEtC7noEdD36Jwonky5rsIGEsj75oHcLMZBkpVU8gpjM2gHMMk3gPDaedjsjmUQ7VafHSSr6UR8cvH3p-_4mdxC8ZOifwLAHdPCKeQuRARN9OmZzLFpSRXVkKrxgnJBGk-8mrKEAilHH9fPsgeKZolKlDB6Aowjq0MxTf-EecSrmfCN2YUfIBBXFrwl5bOZtfFzYrz8TNKpoaulpQJuQJeT7m-in2T34OP22jWP7hydOW1k6DbaLdQYYuyOvhETUAoPfgzeQ32bU1IxBfSId6jL-6pyhRHQFIYbeYgNhczy1ufwPqBOWhyRd8_oxFBqSdvsUZtkaBFj40U9XuMZ9iOuiHUCPC4-Q9CChG0NRW2VA5Oeiw80csuZaEpBqxUi_KMpi_5BNr9LjLhqi4p8WYyu8YAMjsNLYIs2KPPjaEnEbRXBihUdo73NcmM1Or_rRythpbFeED7i9gzsuZVQKngtPxINQtswQj7aQlxRtxcWVR5wA_zQyb3_c_hy1iBWhxfRtC9sKrK9-Wg2eCtu0A4Jos90T-fpHbY0w6vNFdbGEVe_DC7XiZXRw-3bq5o8snEov8TgRmDHPdCc-R9TXfpbQpF2GPMsjOQc_jPMZ5tRrHieYRfx1adheAictPlzxh-grxfmkEck18cHR4M3kbcih0YIm38G2aOyddk3lYEVQwDXalhSL_fmSDYaEB4Dtv-ZD-dP6qGG6WyzfePym-lJH-9gbdcjMNxRvF1SQ-oAbvnJxDBau_Z2al-biE9tY9TaAtMJYmngDlDA-4R2bNwaM9OV0Bp9ESREg0NyC89dOUVlaB2myVk8nT0u6uhCOdrBd5VObEegcjZwo8LXOb-4I6wyHcxvZJqXXLi9d6Nm1Pf3YegkshK5q6RrMBfsjuYeE56uzs5Z5KaH7GHmi9Fh3J5h8SV3jwx-a8ISNyC8PIvSYB8-QUH-16C6rqcmL_HRPGV05NN5bLp4R7H1LDJuagv9BOT0VmgoXjVXY8I7LEd6HOI86yGlsZzr5D9sU-EJEssyF9PT2iw8EY4aFf3P8hA2pfv3etRWLYrEH4fuf1Ehu46aFOov1PCzJ4V1sp7KP8Mtw3O8eC8mlXhvheY9ZUckVsh3KmeGDwVy0?></g></svg>