<svg xmlns="http://www.w3.org/2000/svg" xmlns:xlink="http://www.w3.org/1999/xlink" contentStyleType="text/css" data-diagram-type="DESCRIPTION" height="762px" preserveAspectRatio="none" style="width:2405px;height:762px;background:#FFFFFF;" version="1.1" viewBox="0 0 2405 762" width="2405px" zoomAndPan="magnify"><?plantuml 1.2026.3?><defs/><g><g class="title" data-source-line="25"><text fill="#000000" font-family="sans-serif" font-size="14" font-weight="700" lengthAdjust="spacing" textLength="638.0938" x="880.428" y="23.5352">mdd-viewer scan scope &#8212; .mdd/deploy surfaced via a third, non-gated source (current)</text></g><!--cluster Parity-gated roots the viewer walks--><g class="cluster" data-qualified-name="Parity-gated roots the viewer walks" data-source-line="35" id="ent0008"><rect fill="#DDDDFF" height="121.98" rx="2.5" ry="2.5" style="stroke:#181818;stroke-width:1;" width="626" x="425.46" y="557.2583"/><text fill="#000000" font-family="sans-serif" font-size="14" font-weight="700" lengthAdjust="spacing" textLength="259.8408" x="608.5396" y="572.7934">Parity-gated roots the viewer walks</text></g><!--cluster Utility tree ? now in the viewer, still OUT of the parity gate--><g class="cluster" data-qualified-name="Utility tree . now in the viewer. still OUT of the parity gate" data-source-line="41" id="ent0012"><rect fill="#DDFFDD" height="138.46" rx="2.5" ry="2.5" style="stroke:#181818;stroke-width:1;" width="445" x="1075.46" y="549.0183"/><text fill="#000000" font-family="sans-serif" font-size="14" font-weight="700" lengthAdjust="spacing" textLength="429.6523" x="1083.1338" y="564.5534">Utility tree &#8212; now in the viewer, still OUT of the parity gate</text></g><!--cluster Trees only `mdd render` rasterizes (no viewer section)--><g class="cluster" data-qualified-name="Trees only .mdd render. rasterizes .no viewer section." data-source-line="45" id="ent0014"><rect fill="#FFDDDD" height="121.98" rx="2.5" ry="2.5" style="stroke:#181818;stroke-width:1;" width="427" x="1544.46" y="557.2583"/><text fill="#000000" font-family="sans-serif" font-size="14" font-weight="700" lengthAdjust="spacing" textLength="400.9619" x="1557.479" y="572.7934">Trees only `mdd render` rasterizes (no viewer section)</text></g><!--entity Models--><g class="entity" data-qualified-name="Parity-gated roots the viewer walks.Models" data-source-line="36" id="ent0009"><path d="M443.96,592.2583 L484.96,592.2583 A3.75,3.75 0 0 1 487.46,594.7583 L494.46,613.2583 L598.959,613.2583 A2.5,2.5 0 0 1 601.459,615.7583 L601.459,660.7348 A2.5,2.5 0 0 1 598.959,663.2348 L443.96,663.2348 A2.5,2.5 0 0 1 441.46,660.7348 L441.46,594.7583 A2.5,2.5 0 0 1 443.96,592.2583" fill="#F1F1F1" style="stroke:#181818;stroke-width:0.5;"/><line style="stroke:#181818;stroke-width:0.5;" x1="441.46" x2="494.46" y1="613.2583" y2="613.2583"/><text fill="#000000" font-family="sans-serif" font-size="14" lengthAdjust="spacing" textLength="99.2715" x="451.46" y="633.7934">.mdd/models/</text><text fill="#000000" font-family="sans-serif" font-size="14" lengthAdjust="spacing" textLength="129.999" x="451.46" y="650.2817">current + objective</text></g><!--entity Ocl--><g class="entity" data-qualified-name="Parity-gated roots the viewer walks.Ocl" data-source-line="37" id="ent0010"><path d="M639.35,592.2583 L680.35,592.2583 A3.75,3.75 0 0 1 682.85,594.7583 L689.85,613.2583 L789.557,613.2583 A2.5,2.5 0 0 1 792.057,615.7583 L792.057,660.7348 A2.5,2.5 0 0 1 789.557,663.2348 L639.35,663.2348 A2.5,2.5 0 0 1 636.85,660.7348 L636.85,594.7583 A2.5,2.5 0 0 1 639.35,592.2583" fill="#F1F1F1" style="stroke:#181818;stroke-width:0.5;"/><line style="stroke:#181818;stroke-width:0.5;" x1="636.85" x2="689.85" y1="613.2583" y2="613.2583"/><text fill="#000000" font-family="sans-serif" font-size="14" lengthAdjust="spacing" textLength="125.207" x="646.85" y="633.7934">.mdd/constraints/</text><ellipse cx="652.35" cy="645.7348" fill="#000000" rx="2.5" ry="2.5"/><text fill="#000000" font-family="sans-serif" font-size="14" lengthAdjust="spacing" textLength="24.2471" x="658.85" y="650.2817">.ocl</text></g><!--entity Cycles--><g class="entity" data-qualified-name="Parity-gated roots the viewer walks.Cycles" data-source-line="38" id="ent0011"><path d="M829.99,592.2583 L870.99,592.2583 A3.75,3.75 0 0 1 873.49,594.7583 L880.49,613.2583 L1032.9295,613.2583 A2.5,2.5 0 0 1 1035.4295,615.7583 L1035.4295,660.7348 A2.5,2.5 0 0 1 1032.9295,663.2348 L829.99,663.2348 A2.5,2.5 0 0 1 827.49,660.7348 L827.49,594.7583 A2.5,2.5 0 0 1 829.99,592.2583" fill="#F1F1F1" style="stroke:#181818;stroke-width:0.5;"/><line style="stroke:#181818;stroke-width:0.5;" x1="827.49" x2="880.49" y1="613.2583" y2="613.2583"/><text fill="#000000" font-family="sans-serif" font-size="14" lengthAdjust="spacing" textLength="90.4463" x="837.49" y="633.7934">.mdd/cycles/</text><text fill="#000000" font-family="sans-serif" font-size="14" lengthAdjust="spacing" textLength="177.9395" x="837.49" y="650.2817">&lt;N&gt;/manifest.yml + diffs</text></g><!--entity Deploy--><g class="entity" data-qualified-name="Utility tree . now in the viewer. still OUT of the parity gate.Deploy" data-source-line="42" id="ent0013"><path d="M1216.66,584.0183 L1257.66,584.0183 A3.75,3.75 0 0 1 1260.16,586.5183 L1267.16,605.0183 L1494.2547,605.0183 A2.5,2.5 0 0 1 1496.7547,607.5183 L1496.7547,668.9831 A2.5,2.5 0 0 1 1494.2547,671.4831 L1216.66,671.4831 A2.5,2.5 0 0 1 1214.16,668.9831 L1214.16,586.5183 A2.5,2.5 0 0 1 1216.66,584.0183" fill="#F1F1F1" style="stroke:#181818;stroke-width:0.5;"/><line style="stroke:#181818;stroke-width:0.5;" x1="1214.16" x2="1267.16" y1="605.0183" y2="605.0183"/><text fill="#000000" font-family="sans-serif" font-size="14" lengthAdjust="spacing" textLength="95.1904" x="1224.16" y="625.5534">.mdd/deploy/</text><text fill="#000000" font-family="sans-serif" font-size="14" lengthAdjust="spacing" textLength="252.5947" x="1224.16" y="642.0417">azure-container-apps/diagram.puml</text><text fill="#000000" font-family="sans-serif" font-size="14" lengthAdjust="spacing" textLength="242.4844" x="1224.16" y="658.53">-&gt; .mdd/rendered/deploy/**/*.svg</text></g><!--entity Map--><g class="entity" data-qualified-name="Trees only .mdd render. rasterizes .no viewer section..Map" data-source-line="46" id="ent0015"><path d="M1562.89,592.2583 L1603.89,592.2583 A3.75,3.75 0 0 1 1606.39,594.7583 L1613.39,613.2583 L1726.017,613.2583 A2.5,2.5 0 0 1 1728.517,615.7583 L1728.517,660.7348 A2.5,2.5 0 0 1 1726.017,663.2348 L1562.89,663.2348 A2.5,2.5 0 0 1 1560.39,660.7348 L1560.39,594.7583 A2.5,2.5 0 0 1 1562.89,592.2583" fill="#F1F1F1" style="stroke:#181818;stroke-width:0.5;"/><line style="stroke:#181818;stroke-width:0.5;" x1="1560.39" x2="1613.39" y1="613.2583" y2="613.2583"/><text fill="#000000" font-family="sans-serif" font-size="14" lengthAdjust="spacing" textLength="79.4199" x="1570.39" y="633.7934">.mdd/map/</text><text fill="#000000" font-family="sans-serif" font-size="14" lengthAdjust="spacing" textLength="138.127" x="1570.39" y="650.2817">whole-map baseline</text></g><!--entity ReviewD--><g class="entity" data-qualified-name="Trees only .mdd render. rasterizes .no viewer section..ReviewD" data-source-line="47" id="ent0016"><path d="M1766.09,592.2583 L1807.09,592.2583 A3.75,3.75 0 0 1 1809.59,594.7583 L1816.59,613.2583 L1952.8146,613.2583 A2.5,2.5 0 0 1 1955.3146,615.7583 L1955.3146,660.7348 A2.5,2.5 0 0 1 1952.8146,663.2348 L1766.09,663.2348 A2.5,2.5 0 0 1 1763.59,660.7348 L1763.59,594.7583 A2.5,2.5 0 0 1 1766.09,592.2583" fill="#F1F1F1" style="stroke:#181818;stroke-width:0.5;"/><line style="stroke:#181818;stroke-width:0.5;" x1="1763.59" x2="1816.59" y1="613.2583" y2="613.2583"/><text fill="#000000" font-family="sans-serif" font-size="14" lengthAdjust="spacing" textLength="161.7246" x="1773.59" y="633.7934">.mdd/rendered/review/</text><ellipse cx="1779.09" cy="645.7348" fill="#000000" rx="2.5" ry="2.5"/><text fill="#000000" font-family="sans-serif" font-size="14" lengthAdjust="spacing" textLength="66.6299" x="1785.59" y="650.2817">.diff.puml</text></g><!--entity Dev--><g class="entity" data-qualified-name="Dev" data-source-line="27" id="ent0002"><ellipse cx="555.4592" cy="51.4883" fill="#F1F1F1" rx="8" ry="8" style="stroke:#181818;stroke-width:0.5;"/><path d="M555.4592,59.4883 L555.4592,86.4883 M542.4592,67.4883 L568.4592,67.4883 M555.4592,86.4883 L542.4592,101.4883 M555.4592,86.4883 L568.4592,101.4883" fill="none" style="stroke:#181818;stroke-width:0.5;"/><text fill="#000000" font-family="sans-serif" font-size="14" lengthAdjust="spacing" textLength="68.3184" x="521.3" y="116.5234">Developer</text></g><!--entity Viewer--><g class="entity" data-qualified-name="Viewer" data-source-line="29" id="ent0003"><rect fill="#F1F1F1" height="79.4648" rx="2.5" ry="2.5" style="stroke:#181818;stroke-width:0.5;" width="160.2373" x="577.34" y="211.4783"/><rect fill="#F1F1F1" height="10" style="stroke:#181818;stroke-width:0.5;" width="15" x="717.5773" y="216.4783"/><rect fill="#F1F1F1" height="2" style="stroke:#181818;stroke-width:0.5;" width="4" x="715.5773" y="218.4783"/><rect fill="#F1F1F1" height="2" style="stroke:#181818;stroke-width:0.5;" width="4" x="715.5773" y="222.4783"/><text fill="#000000" font-family="sans-serif" font-size="14" lengthAdjust="spacing" textLength="82.2021" x="592.34" y="245.0134">mdd-viewer</text><text fill="#000000" font-family="sans-serif" font-size="14" lengthAdjust="spacing" textLength="120.2373" x="592.34" y="261.5017">MddViewer::new()</text><text fill="#000000" font-family="sans-serif" font-size="14" lengthAdjust="spacing" textLength="57.3193" x="592.34" y="277.99">(left rail)</text></g><!--entity MReg--><g class="entity" data-qualified-name="MReg" data-source-line="30" id="ent0004"><rect fill="#F1F1F1" height="62.9766" rx="2.5" ry="2.5" style="stroke:#181818;stroke-width:0.5;" width="257.7656" x="414.57" y="367.9483"/><rect fill="#F1F1F1" height="10" style="stroke:#181818;stroke-width:0.5;" width="15" x="652.3356" y="372.9483"/><rect fill="#F1F1F1" height="2" style="stroke:#181818;stroke-width:0.5;" width="4" x="650.3356" y="374.9483"/><rect fill="#F1F1F1" height="2" style="stroke:#181818;stroke-width:0.5;" width="4" x="650.3356" y="378.9483"/><text fill="#000000" font-family="sans-serif" font-size="14" lengthAdjust="spacing" textLength="165.5459" x="429.57" y="401.4834">Project::model_registry()</text><text fill="#000000" font-family="sans-serif" font-size="14" lengthAdjust="spacing" textLength="217.7656" x="429.57" y="417.9717">-&gt; model_and_constraint_files()</text></g><!--entity CReg--><g class="entity" data-qualified-name="CReg" data-source-line="31" id="ent0005"><rect fill="#F1F1F1" height="46.4883" rx="2.5" ry="2.5" style="stroke:#181818;stroke-width:0.5;" width="179.5557" x="714.68" y="376.1883"/><rect fill="#F1F1F1" height="10" style="stroke:#181818;stroke-width:0.5;" width="15" x="874.2357" y="381.1883"/><rect fill="#F1F1F1" height="2" style="stroke:#181818;stroke-width:0.5;" width="4" x="872.2357" y="383.1883"/><rect fill="#F1F1F1" height="2" style="stroke:#181818;stroke-width:0.5;" width="4" x="872.2357" y="387.1883"/><text fill="#000000" font-family="sans-serif" font-size="14" lengthAdjust="spacing" textLength="139.5557" x="729.68" y="409.7234">CycleRegistry::scan()</text></g><!--entity DepSrc--><g class="entity" data-qualified-name="DepSrc" data-source-line="32" id="ent0006"><rect fill="#F1F1F1" height="62.9766" rx="2.5" ry="2.5" style="stroke:#181818;stroke-width:0.5;" width="185.0586" x="913.93" y="49.7483"/><rect fill="#F1F1F1" height="10" style="stroke:#181818;stroke-width:0.5;" width="15" x="1078.9886" y="54.7483"/><rect fill="#F1F1F1" height="2" style="stroke:#181818;stroke-width:0.5;" width="4" x="1076.9886" y="56.7483"/><rect fill="#F1F1F1" height="2" style="stroke:#181818;stroke-width:0.5;" width="4" x="1076.9886" y="60.7483"/><text fill="#000000" font-family="sans-serif" font-size="14" lengthAdjust="spacing" textLength="145.0586" x="928.93" y="83.2834">Project::deploy_files()</text><text fill="#000000" font-family="sans-serif" font-size="14" lengthAdjust="spacing" textLength="91.1709" x="928.93" y="99.7717">(third source)</text></g><!--entity RT--><g class="entity" data-qualified-name="RT" data-source-line="33" id="ent0007"><rect fill="#F1F1F1" height="62.9766" rx="2.5" ry="2.5" style="stroke:#181818;stroke-width:0.5;" width="218.9512" x="1073.98" y="367.9483"/><rect fill="#F1F1F1" height="10" style="stroke:#181818;stroke-width:0.5;" width="15" x="1272.9312" y="372.9483"/><rect fill="#F1F1F1" height="2" style="stroke:#181818;stroke-width:0.5;" width="4" x="1270.9312" y="374.9483"/><rect fill="#F1F1F1" height="2" style="stroke:#181818;stroke-width:0.5;" width="4" x="1270.9312" y="378.9483"/><text fill="#000000" font-family="sans-serif" font-size="14" lengthAdjust="spacing" textLength="102.4639" x="1088.98" y="401.4834">RenderTree set</text><text fill="#000000" font-family="sans-serif" font-size="14" lengthAdjust="spacing" textLength="178.9512" x="1088.98" y="417.9717">(mdd render rasterization)</text></g><g class="entity" data-qualified-name="GMN32" data-source-line="68" id="ent0033"><path d="M1989.96,507.9183 L1989.96,747.5765 L2390.9497,747.5765 L2390.9497,517.9183 L2380.9497,507.9183 L1989.96,507.9183" fill="#FEFFDD" style="stroke:#181818;stroke-width:0.5;"/><path d="M2380.9497,507.9183 L2380.9497,517.9183 L2390.9497,517.9183 L2380.9497,507.9183" fill="#FEFFDD" style="stroke:#181818;stroke-width:1;"/><text fill="#000000" font-family="sans-serif" font-size="13" lengthAdjust="spacing" textLength="243.6611" x="1995.96" y="525.4866">Why it was invisible before (corrected):</text><text fill="#000000" font-family="sans-serif" font-size="13" lengthAdjust="spacing" textLength="4.1133" x="1995.96" y="540.7972">&#160;</text><text fill="#000000" font-family="sans-serif" font-size="13" lengthAdjust="spacing" textLength="212.3799" x="1995.96" y="556.1077">NOT "the file does not exist" &#8212; in</text><text fill="#000000" font-family="sans-serif" font-size="13" lengthAdjust="spacing" textLength="294.5693" x="1995.96" y="571.4183">../atlas-ate-server it DOES exist and is already</text><text fill="#000000" font-family="sans-serif" font-size="13" lengthAdjust="spacing" textLength="73.7598" x="1995.96" y="586.7288">rendered to</text><text fill="#000000" font-family="sans-serif" font-size="13" lengthAdjust="spacing" textLength="379.9897" x="1995.96" y="602.0394">.mdd/rendered/deploy/azure-container-apps/diagram.svg.</text><text fill="#000000" font-family="sans-serif" font-size="13" lengthAdjust="spacing" textLength="333.144" x="1995.96" y="617.3499">The real, structural reason: MddViewer::new() loaded</text><text fill="#000000" font-family="sans-serif" font-size="13" lengthAdjust="spacing" textLength="343.5859" x="1995.96" y="632.6605">ONLY model_registry() + cycle_registry(); .mdd/deploy</text><text fill="#000000" font-family="sans-serif" font-size="13" lengthAdjust="spacing" textLength="344.3794" x="1995.96" y="647.971">was reachable solely as RenderTree::Deploy, which the</text><text fill="#000000" font-family="sans-serif" font-size="13" lengthAdjust="spacing" textLength="232.5845" x="1995.96" y="663.2816">interactive viewer never enumerated.</text><text fill="#000000" font-family="sans-serif" font-size="13" lengthAdjust="spacing" textLength="4.1133" x="1995.96" y="678.5921">&#160;</text><text fill="#000000" font-family="sans-serif" font-size="13" lengthAdjust="spacing" textLength="348.0864" x="1995.96" y="693.9027">Now fixed: the third source above. The DEPLOY section</text><text fill="#000000" font-family="sans-serif" font-size="13" lengthAdjust="spacing" textLength="302.5483" x="1995.96" y="709.2132">is labelled a utility and stays outside the gate &#8212;</text><text fill="#000000" font-family="sans-serif" font-size="13" lengthAdjust="spacing" textLength="345.1221" x="1995.96" y="724.5238">/mdd-deploy remains a sibling of /mdd-render, never</text><text fill="#000000" font-family="sans-serif" font-size="13" lengthAdjust="spacing" textLength="189.1792" x="1995.96" y="739.8343">read by validate/review/cycle.</text></g><g class="entity" data-qualified-name="GMN35" data-source-line="86" id="ent0036"><path d="M6,584.4683 L6,671.021 A0,0 0 0 0 6,671.021 L406.9136,671.021 A0,0 0 0 0 406.9136,671.021 L406.9136,594.4683 L396.9136,584.4683 L273.99,584.4683 L497.66,431.1883 L265.99,584.4683 L6,584.4683 A0,0 0 0 0 6,584.4683" fill="#FEFFDD" style="stroke:#181818;stroke-width:0.5;"/><path d="M396.9136,584.4683 L396.9136,594.4683 L406.9136,594.4683 L396.9136,584.4683" fill="#FEFFDD" style="stroke:#181818;stroke-width:0.5;"/><text fill="#000000" font-family="sans-serif" font-size="13" lengthAdjust="spacing" textLength="301.1265" x="12" y="602.0366">STILL exactly [.mdd/models, .mdd/constraints].</text><text fill="#000000" font-family="sans-serif" font-size="13" lengthAdjust="spacing" textLength="341.7959" x="12" y="617.3472">Deploy was surfaced by adding a THIRD viewer source</text><text fill="#000000" font-family="sans-serif" font-size="13" lengthAdjust="spacing" textLength="379.9136" x="12" y="632.6577">(CMP-DEPLOY-VIEWER-SOURCE), NOT by adding a root here</text><text fill="#000000" font-family="sans-serif" font-size="13" lengthAdjust="spacing" textLength="344.2588" x="12" y="647.9683">and NOT by adding a RenderTree variant &#8212; that keeps</text><text fill="#000000" font-family="sans-serif" font-size="13" lengthAdjust="spacing" textLength="195.4634" x="12" y="663.2788">DEPLOY-... ids out of ID parity.</text></g><!--link Dev to Viewer--><g class="link" data-entity-1="ent0002" data-entity-2="ent0003" data-link-type="dependency" data-source-line="50" id="lnk17"><path d="M545.7,119.6583 C542.67,139.1883 542.37,162.8283 552.46,181.4783 C558.62,192.8783 562.9583,198.8842 573.0983,207.2342" fill="none" id="Dev-to-Viewer" style="stroke:#181818;stroke-width:1;"/><polygon fill="#181818" points="577.73,211.0483,573.3252,202.2393,573.8702,207.8699,568.2397,208.415,577.73,211.0483" style="stroke:#181818;stroke-width:1;"/><text fill="#000000" font-family="sans-serif" font-size="13" lengthAdjust="spacing" textLength="60.3599" x="553.46" y="170.5466">mdd view</text></g><!--link Viewer to MReg--><g class="link" data-entity-1="ent0003" data-entity-2="ent0004" data-link-type="dependency" data-source-line="51" id="lnk18"><path d="M626.91,291.3983 C608.31,315.2483 588.5688,340.5662 571.2788,362.7462" fill="none" id="Viewer-to-MReg" style="stroke:#181818;stroke-width:1;"/><polygon fill="#181818" points="567.59,367.4783,576.2779,362.8394,570.664,363.5349,569.9685,357.9209,567.59,367.4783" style="stroke:#181818;stroke-width:1;"/><text fill="#000000" font-family="sans-serif" font-size="13" lengthAdjust="spacing" textLength="120.9038" x="601.46" y="334.5166">load (1 of 3, gated)</text></g><!--link Viewer to CReg--><g class="link" data-entity-1="ent0003" data-entity-2="ent0005" data-link-type="dependency" data-source-line="52" id="lnk19"><path d="M699.51,291.0883 C709.74,300.7383 720.58,311.1283 730.46,320.9483 C748.67,339.0283 764.6455,355.7618 779.2855,371.3718" fill="none" id="Viewer-to-CReg" style="stroke:#181818;stroke-width:1;"/><polygon fill="#181818" points="783.39,375.7483,780.1509,366.4473,779.9696,372.1013,774.3156,371.92,783.39,375.7483" style="stroke:#181818;stroke-width:1;"/><text fill="#000000" font-family="sans-serif" font-size="13" lengthAdjust="spacing" textLength="120.9038" x="747.98" y="334.5166">load (2 of 3, gated)</text></g><!--link Viewer to DepSrc--><g class="link" data-entity-1="ent0003" data-entity-2="ent0006" data-link-type="dependency" data-source-line="53" id="lnk20"><path d="M738.05,240.9983 C818.04,230.3683 933.46,210.5383 967.46,181.4783 C987.58,164.2783 996.1377,141.1961 1000.8777,118.9861" fill="none" id="Viewer-to-DepSrc" style="stroke:#181818;stroke-width:1;"/><polygon fill="#181818" points="1002.13,113.1183,996.3396,121.0852,1001.0864,118.0082,1004.1635,122.7549,1002.13,113.1183" style="stroke:#181818;stroke-width:1;"/><text fill="#000000" font-family="sans-serif" font-size="13" lengthAdjust="spacing" textLength="152.9404" x="990.38" y="170.5466">load (3 of 3, NOT gated)</text></g><!--link DepSrc to Viewer--><g class="link" data-entity-1="ent0006" data-entity-2="ent0003" data-link-type="dependency" data-source-line="59" id="lnk26"><path d="M913.46,86.7183 C819.38,93.4383 683.27,109.8883 650.46,149.4783 C636.47,166.3483 636.3821,184.9307 641.4221,205.5007" fill="none" id="DepSrc-to-Viewer" style="stroke:#181818;stroke-width:1;stroke-dasharray:7,7;"/><polygon fill="#181818" points="642.85,211.3283,644.5933,201.6349,641.6601,206.4719,636.8231,203.5388,642.85,211.3283" style="stroke:#181818;stroke-width:1;"/><text fill="#000000" font-family="sans-serif" font-size="13" lengthAdjust="spacing" textLength="230.5723" x="689.9903" y="163.0466">Vec&lt;ModelFile&gt; -&gt; self.deploy_files</text><text fill="#000000" font-family="sans-serif" font-size="13" lengthAdjust="spacing" textLength="307.6328" x="651.46" y="178.3572">-&gt; separate DEPLOY tree (NOT in ModelRegistry)</text></g><!--link MReg to Models--><g class="link" data-entity-1="ent0004" data-entity-2="ent0009" data-link-type="dependency" data-source-line="54" id="lnk21"><path d="M540.49,430.9583 C536.42,472.8183 529.7005,562.8964 525.4205,606.9264" fill="none" id="MReg-to-Models" style="stroke:#181818;stroke-width:1;"/><polygon fill="#181818" points="524.84,612.8983,529.692,604.3275,525.3238,607.9217,521.7295,603.5535,524.84,612.8983" style="stroke:#181818;stroke-width:1;"/><text fill="#000000" font-family="sans-serif" font-size="13" lengthAdjust="spacing" textLength="48.4707" x="538.56" y="474.4866">WalkDir</text></g><!--link MReg to Ocl--><g class="link" data-entity-1="ent0004" data-entity-2="ent0010" data-link-type="dependency" data-source-line="55" id="lnk22"><path d="M570.98,431.3883 C579.04,440.7383 587.75,451.1183 595.46,460.9183 C630.06,504.9383 663.8771,570.0172 687.2971,604.0272" fill="none" id="MReg-to-Ocl" style="stroke:#181818;stroke-width:1;"/><polygon fill="#181818" points="690.7,608.9689,688.89,599.2878,687.8642,604.8508,682.3012,603.825,690.7,608.9689" style="stroke:#181818;stroke-width:1;"/><text fill="#000000" font-family="sans-serif" font-size="13" lengthAdjust="spacing" textLength="48.4707" x="606.61" y="474.4866">WalkDir</text></g><!--link CReg to Cycles--><g class="link" data-entity-1="ent0005" data-entity-2="ent0011" data-link-type="dependency" data-source-line="56" id="lnk23"><path d="M804.23,422.9583 C804.81,438.8783 807.11,460.4083 814.46,477.9183 C832.9,521.8683 863.8246,580.4502 890.7846,608.5302" fill="none" id="CReg-to-Cycles" style="stroke:#181818;stroke-width:1;"/><polygon fill="#181818" points="894.94,612.8583,891.5922,603.5959,891.4771,609.2515,885.8214,609.1365,894.94,612.8583" style="stroke:#181818;stroke-width:1;"/><text fill="#000000" font-family="sans-serif" font-size="13" lengthAdjust="spacing" textLength="93.9263" x="815.46" y="474.4866">scan manifests</text></g><!--link DepSrc to RT--><g class="link" data-entity-1="ent0006" data-entity-2="ent0007" data-link-type="dependency" data-source-line="57" id="lnk24"><path d="M1099.23,108.4883 C1119.26,118.2883 1138.34,131.5683 1151.46,149.4783 C1199.48,215.0383 1195.2538,311.2533 1189.0138,361.8933" fill="none" id="DepSrc-to-RT" style="stroke:#181818;stroke-width:1;"/><polygon fill="#181818" points="1188.28,367.8483,1193.3507,359.405,1188.8915,362.8858,1185.4107,358.4266,1188.28,367.8483" style="stroke:#181818;stroke-width:1;"/><text fill="#000000" font-family="sans-serif" font-size="13" lengthAdjust="spacing" textLength="148.5542" x="1192.93" y="256.2766">render_sources(Deploy)</text></g><!--link RT to Deploy--><g class="link" data-entity-1="ent0007" data-entity-2="ent0013" data-link-type="dependency" data-source-line="58" id="lnk25"><path d="M1224.22,431.3283 C1234.7,440.2583 1245.53,450.4483 1254.46,460.9183 C1286.94,499.0083 1312.9233,564.3999 1331.3733,599.4199" fill="none" id="RT-to-Deploy" style="stroke:#181818;stroke-width:1;"/><polygon fill="#181818" points="1334.17,604.7283,1333.5139,594.9013,1331.8394,600.3046,1326.4361,598.6302,1334.17,604.7283" style="stroke:#181818;stroke-width:1;"/><text fill="#000000" font-family="sans-serif" font-size="13" lengthAdjust="spacing" textLength="219.3496" x="1268.67" y="474.4866">walk_suffix (single source of truth)</text></g><!--link RT to Models--><g class="link" data-entity-1="ent0007" data-entity-2="ent0009" data-link-type="dependency" data-source-line="61" id="lnk27"><path d="M1073.75,425.0683 C1034.72,434.8783 990.73,447.1183 951.46,460.9183 C934,467.0483 931.33,473.1383 913.46,477.9183 C786.57,511.8383 735.26,445.9383 619.46,507.9183 C584.21,526.7883 559.8089,580.0005 543.0289,607.8205" fill="none" id="RT-to-Models" style="stroke:#181818;stroke-width:1;stroke-dasharray:7,7;"/><polygon fill="#181818" points="539.93,612.9583,548.0036,607.3176,542.5124,608.6768,541.1532,603.1857,539.93,612.9583" style="stroke:#181818;stroke-width:1;"/><text fill="#000000" font-family="sans-serif" font-size="13" lengthAdjust="spacing" textLength="44.9922" x="952.46" y="474.4866">Models</text></g><!--link RT to Cycles--><g class="link" data-entity-1="ent0007" data-entity-2="ent0011" data-link-type="dependency" data-source-line="62" id="lnk28"><path d="M1171.25,431.1983 C1164.28,446.3283 1154.52,464.2083 1142.46,477.9183 C1101,525.0383 1046.9465,583.0776 1001.7965,609.7376" fill="none" id="RT-to-Cycles" style="stroke:#181818;stroke-width:1;stroke-dasharray:7,7;"/><polygon fill="#181818" points="996.63,612.7883,1006.4136,611.6566,1000.9354,610.246,1002.346,604.7678,996.63,612.7883" style="stroke:#181818;stroke-width:1;"/><text fill="#000000" font-family="sans-serif" font-size="13" lengthAdjust="spacing" textLength="63.1274" x="1154.99" y="474.4866">CycleDiffs</text></g><!--link RT to Ocl--><g class="link" data-entity-1="ent0007" data-entity-2="ent0010" data-link-type="dependency" data-source-line="63" id="lnk29"><path d="M1108.18,431.4083 C1086.24,440.6683 1062.3,450.9983 1040.46,460.9183 C1024.71,468.0683 1021.97,472.7683 1005.46,477.9183 C921.75,504.0383 886.47,464.1983 810.46,507.9183 C776.32,527.5583 752.5714,580.256 736.0514,607.736" fill="none" id="RT-to-Ocl" style="stroke:#181818;stroke-width:1;stroke-dasharray:7,7;"/><polygon fill="#181818" points="732.96,612.8783,741.0253,607.2257,735.5361,608.593,734.1689,603.1039,732.96,612.8783" style="stroke:#181818;stroke-width:1;"/><text fill="#000000" font-family="sans-serif" font-size="13" lengthAdjust="spacing" textLength="92.8662" x="1041.46" y="474.4866">OclConstraints</text></g><!--link RT to Map--><g class="link" data-entity-1="ent0007" data-entity-2="ent0015" data-link-type="dependency" data-source-line="64" id="lnk30"><path d="M1293.39,404.3983 C1356.3,410.7483 1434.74,425.8683 1496.46,460.9183 C1552.49,492.7483 1595.1174,569.5959 1620.2674,608.0759" fill="none" id="RT-to-Map" style="stroke:#181818;stroke-width:1;stroke-dasharray:7,7;"/><polygon fill="#181818" points="1623.55,613.0983,1621.9744,603.3763,1620.8145,608.9129,1615.2779,607.753,1623.55,613.0983" style="stroke:#181818;stroke-width:1;"/><text fill="#000000" font-family="sans-serif" font-size="13" lengthAdjust="spacing" textLength="64.7334" x="1522.47" y="474.4866">WholeMap</text></g><!--link RT to ReviewD--><g class="link" data-entity-1="ent0007" data-entity-2="ent0016" data-link-type="dependency" data-source-line="65" id="lnk31"><path d="M1293.15,411.9283 C1434.88,428.3683 1672.24,461.7883 1746.46,507.9183 C1781.76,529.8583 1809.8463,581.7078 1830.6463,608.2178" fill="none" id="RT-to-ReviewD" style="stroke:#181818;stroke-width:1;stroke-dasharray:7,7;"/><polygon fill="#181818" points="1834.35,612.9383,1831.9414,603.3885,1831.2636,609.0046,1825.6475,608.3268,1834.35,612.9383" style="stroke:#181818;stroke-width:1;"/><text fill="#000000" font-family="sans-serif" font-size="13" lengthAdjust="spacing" textLength="66.2632" x="1672.19" y="474.4866">ReviewDiff</text></g><!--link Deploy to GMN32--><g class="link" data-entity-1="ent0013" data-entity-2="ent0033" data-link-type="association" data-source-line="68" id="lnk34"><path d="M1395.56,604.7683 C1433.93,566.2083 1495.65,491.9183 1561.96,469.4183 C1644.45,441.4383 1870.61,444.0983 1953.96,469.4183 C1982.91,478.2183 2011.55,491.8683 2038.37,507.5483" fill="none" id="Deploy-GMN32" style="stroke:#181818;stroke-width:1;stroke-dasharray:7,7;"/></g><?plantuml-src ZLZRSXit4dtdLtGn3oOLNknuNqAdN758scAL9Af8obhLQai1Pq0IQt300ePKcAtTse_OBzmlsTF0t3YYKdcHfK43w3vz-dJ3RwZRxTBpncZPtOeTxQmvo4GaaHnGT8oqf7GZKb99QasyZsHCKaGR-bd5lB7nXdxsLgtXzMttwsHyFvvrvyDFD_WnlHrtwEtRTs_RfrRNqz7ugZiRVvdC5xC7RttMRlWml1h_2RlP-6Q4MnUpyRWx7o_Esep6jrVJXyB1wTriM7LEnUVzhowUSRkwVCRRwdBDoUhIET_ykfMhrjryx5UweycdBxDFr_EJbLzcqtlymwUUsU7FzTzZwQBNCjISR7TQRcMIodX0rt7yLSbdQGU3H3vJAx8YbQw_ZUFkmN_lEnlrjLhsh6lJSgzqxC0GILgkKh92QLfPiwN59NmYP_Osaex-zv__Ch7-8QEqjpMnr4zMhfLBxR7LxXGhFbqdAoA9YzLOxhGvFgsKbgxLxj42bwwKTIcbpuQ4bRGJLgN7xXeUnn-yK-b6sPYK8okJM5gGLpWIv2HCOOMhjL29FdQrM4gjiHv0ew7HMkoSIjQNKc1dLWIEfdUB-MGqzgU7-uZlwpLFSJxByUPT4cr4ifPnZsv3L8D1W0E1FaKcGTpm9mr1KejHZuoL5Sm7_txtur_UjicbIckw5_hRIDatZiP__JHSN3ruBAmngHjG3zlx_dZdWVH_bvUuNlWISALd80DJjPICZ3xIpNH18ew1oGR8-HHw49xDNiSKMx7EmEhsUZrIe04EDHIe8hIASOo_rt-nakb3ar66MXsmiyLU1Mp8v9Xbt1WCN2II6a2UFfwM5ZbpP93OB6XUSVsB_bOaQYLTsZjkjVVDIcVq0LWlvOhF4QiKoNO9Shy1Y7KlNqXDS-Q9jR1Ida_N3-_RJ1kcYnKEXwlVHQfCGh7P8WjaLlGhzcK4_HK5w1FM2V6Er6g5twUH7fPvwz0zg_Mrs7Le59BNgcIoVt7Hl-ZjzeYm-p74dxC_iq1XpNmw-7WW-ue6qMmCBPbdhZrbjTmg8nuCmlLjhYgLEfB9VilqCPPQN3je7c4NXvdQVRf1BCEh4nXlFyqcYuVs1nm0J909vjtAW68UC-dsEWtCyiZa3AXdvhp0dsfRKNEdKd8sST0UJuMwMhN1NuXEQ89_0fcTI3VqhF230SeJyRGJQ-cUG3bSF__wXRRAMg0MA9dkRUA2D8MWFyDHGatjfGkw5wGO8W2dFRcsW0YofbSdCjd91RgKFChMKtZPoUvZdzWcqpu7Z9YXEF6NwU8oY3hZu3wGDkRRVkTFBsidqYhwXWCYQnp76B2YxwdgI-Qu3u8IUO3xd1PxcjOE25FcAOX6gztFzGHeVPDoHsgT60k2LHMi7oWnt5j4b7QTYYL5Phip2VxqY7NWsmfURw1flab5k7g0sUTOLqASevA3ScgfWuPjp3CJ59MSu3Utjol1ez3zP769ZX0YON_gRG47ZR1ouCwpHZxHhVweerBhjFzsge1pTEnBvO0QQS7aLxj9fyRM3auh2TivoLKRkJjtIwwmr3gZnkrU8rKfy2eZ8w_IBZAxq3-gA1SO7fG0ztodxW3T9FJlN3XQKSXdkz4G4GjBSmJkQ9necomx-AlHADFSB2z_J4wnRBKVarOnfRJzxh1StL_hosNXFoPGqzVXROK3hu59zRWpE6MMmvhbA-84dyCG4_1ePq7lvZQgxgwq8ITJR2fxocdV2GVC5es6nMt2QtJpjZ8uXUd14pbBuZE63DUaxqQZp_JF1dbnnkTcPRxeFoPPdi0Si-H0mFc0Y3UeRwkC8TXxqJEHzjReT2zCG_D-J7ww-NZQm24mt1y3dDwgyQ-JkEum974fijXv0dBnGjRAu3hP8CL5p3tgj7mvwC-Zbq5dWlEOYD_tLg8-aXIXIDiLkvthnqgihTZw5knPSwu7Xoxj3kiyeVXMyvwpcKqnrH6Xo2TFY8afUa5GRUJtky-ZCpxZRGU7otVUKg1TmEcG9B6hsnV-1X7sMMAuVLY1H666OAzHXNWDVipgYGQi0TwnHlQ55xasiAIDYAdrZk5-t_4mn-sgsR1gziEhPg462iFtcI5F3vcnlyzV76RWGJukbokWM-NpCFySo8GLhryvvrmZkvDDPWiir_f_rlCRMCiyPA4R-09wSllLIltssbpKpi_kzIeeVfNHJyK0y977kHSjtXEiQEvP1_TyRp4K-GIHIn1a5Dxn9GKeMO5cdulGo_apNmfWdSwYnMbWrA2OI_El6KEmKiwRZKPYuAbLwqtAuMVK9sm-SelbTqZPUyDOZYvWB5S6qZfem9P3QwR-0GWZFpRYL9A_8SYchtILmApNwujK2zS5DbqdBGyTk68qnLJhRNq_HLCNcfyCx4NnK4mD7t2kSl-mw57HFMnS-DbLQDONkuymqGdD7vn9wczip3HCOHbZs_G6JxXwv-5cN7iPVwYsKknZq2oFf6BfkQNv0UTBj3wHTZ3kA8ok00_x5CyjmejrhYFvQ1OcURoyFDxGJR2NX-ZoMPrHM2pDGORfxdI0vFCT5IzhGVjCZXbqbueZn6sV-ZcD3-MgvTHXcvywiZd1Idud-H4MZE0P2wJ9dfGSN2Tux5C78LWUAHyMS-KAKqi3ramIcH5mQT8K8o0EypsRQBwON5s15e03uFsjqjqwBvxEV-SSZyg7Sp7Cu7gycTbBGOlBoMnKoBC72xjU_o-V85xL4xWL-zStzZ5ezVLArp-WQmcqt-APpdCojztQ6ns8SypbExp0vVy0?></g></svg>