<svg xmlns="http://www.w3.org/2000/svg" xmlns:xlink="http://www.w3.org/1999/xlink" contentStyleType="text/css" data-diagram-type="DESCRIPTION" height="595px" preserveAspectRatio="none" style="width:1522px;height:595px;background:#FFFFFF;" version="1.1" viewBox="0 0 1522 595" width="1522px" zoomAndPan="magnify"><?plantuml 1.2026.3?><defs/><g><g class="title" data-source-line="8"><text fill="#000000" font-family="sans-serif" font-size="14" font-weight="700" lengthAdjust="spacing" textLength="313.7627" x="601.0806" y="23.5352">mdd-viewer UI shell &#8212; ownership (current)</text></g><!--entity Dev--><g class="entity" data-qualified-name="Dev" data-source-line="10" id="ent0002"><ellipse cx="1002.4492" cy="51.4883" fill="#F1F1F1" rx="8" ry="8" style="stroke:#181818;stroke-width:0.5;"/><path d="M1002.4492,59.4883 L1002.4492,86.4883 M989.4492,67.4883 L1015.4492,67.4883 M1002.4492,86.4883 L989.4492,101.4883 M1002.4492,86.4883 L1015.4492,101.4883" fill="none" style="stroke:#181818;stroke-width:0.5;"/><text fill="#000000" font-family="sans-serif" font-size="14" lengthAdjust="spacing" textLength="68.3184" x="968.29" y="116.5234">Developer</text></g><!--entity Viewer--><g class="entity" data-qualified-name="Viewer" data-source-line="12" id="ent0003"><rect fill="#F1F1F1" height="79.4648" rx="2.5" ry="2.5" style="stroke:#181818;stroke-width:0.5;" width="132.5244" x="584.19" y="196.4783"/><rect fill="#F1F1F1" height="10" style="stroke:#181818;stroke-width:0.5;" width="15" x="696.7144" y="201.4783"/><rect fill="#F1F1F1" height="2" style="stroke:#181818;stroke-width:0.5;" width="4" x="694.7144" y="203.4783"/><rect fill="#F1F1F1" height="2" style="stroke:#181818;stroke-width:0.5;" width="4" x="694.7144" y="207.4783"/><text fill="#000000" font-family="sans-serif" font-size="14" lengthAdjust="spacing" textLength="74.9971" x="599.19" y="230.0134">MddViewer</text><text fill="#000000" font-family="sans-serif" font-size="14" lengthAdjust="spacing" textLength="92.5244" x="599.19" y="246.5017">(eframe::App)</text><text fill="#000000" font-family="sans-serif" font-size="14" lengthAdjust="spacing" textLength="56.1846" x="599.19" y="262.99">update()</text></g><!--entity Left--><g class="entity" data-qualified-name="Left" data-source-line="13" id="ent0004"><rect fill="#F1F1F1" height="62.9766" rx="2.5" ry="2.5" style="stroke:#181818;stroke-width:0.5;" width="138.9023" x="7" y="361.1883"/><rect fill="#F1F1F1" height="10" style="stroke:#181818;stroke-width:0.5;" width="15" x="125.9023" y="366.1883"/><rect fill="#F1F1F1" height="2" style="stroke:#181818;stroke-width:0.5;" width="4" x="123.9023" y="368.1883"/><rect fill="#F1F1F1" height="2" style="stroke:#181818;stroke-width:0.5;" width="4" x="123.9023" y="372.1883"/><text fill="#000000" font-family="sans-serif" font-size="14" lengthAdjust="spacing" textLength="90.8633" x="22" y="394.7234">SidePanel left</text><text fill="#000000" font-family="sans-serif" font-size="14" lengthAdjust="spacing" textLength="98.9023" x="22" y="411.2117">\"rail\" / sliver</text></g><!--entity Right--><g class="entity" data-qualified-name="Right" data-source-line="14" id="ent0005"><rect fill="#F1F1F1" height="62.9766" rx="2.5" ry="2.5" style="stroke:#181818;stroke-width:0.5;" width="168.666" x="209.12" y="361.1883"/><rect fill="#F1F1F1" height="10" style="stroke:#181818;stroke-width:0.5;" width="15" x="357.786" y="366.1883"/><rect fill="#F1F1F1" height="2" style="stroke:#181818;stroke-width:0.5;" width="4" x="355.786" y="368.1883"/><rect fill="#F1F1F1" height="2" style="stroke:#181818;stroke-width:0.5;" width="4" x="355.786" y="372.1883"/><text fill="#000000" font-family="sans-serif" font-size="14" lengthAdjust="spacing" textLength="101.0625" x="224.12" y="394.7234">SidePanel right</text><text fill="#000000" font-family="sans-serif" font-size="14" lengthAdjust="spacing" textLength="128.666" x="224.12" y="411.2117">\"context\" / sliver</text></g><!--entity Toolbar--><g class="entity" data-qualified-name="Toolbar" data-source-line="15" id="ent0006"><rect fill="#F1F1F1" height="79.4648" rx="2.5" ry="2.5" style="stroke:#181818;stroke-width:0.5;" width="214.4736" x="445.21" y="352.9383"/><rect fill="#F1F1F1" height="10" style="stroke:#181818;stroke-width:0.5;" width="15" x="639.6836" y="357.9383"/><rect fill="#F1F1F1" height="2" style="stroke:#181818;stroke-width:0.5;" width="4" x="637.6836" y="359.9383"/><rect fill="#F1F1F1" height="2" style="stroke:#181818;stroke-width:0.5;" width="4" x="637.6836" y="363.9383"/><text fill="#000000" font-family="sans-serif" font-size="14" lengthAdjust="spacing" textLength="78.8662" x="460.21" y="386.4734">svg_toolbar</text><text fill="#000000" font-family="sans-serif" font-size="14" lengthAdjust="spacing" textLength="148.6816" x="460.21" y="402.9617">(PAGE selector + hint;</text><text fill="#000000" font-family="sans-serif" font-size="14" lengthAdjust="spacing" textLength="174.4736" x="460.21" y="419.45">no Reset/Zoom+/Zoom-)</text></g><!--entity Fisheye--><g class="entity" data-qualified-name="Fisheye" data-source-line="16" id="ent0007"><rect fill="#F1F1F1" height="62.9766" rx="2.5" ry="2.5" style="stroke:#181818;stroke-width:0.5;" width="220.4961" x="694.2" y="361.1883"/><rect fill="#F1F1F1" height="10" style="stroke:#181818;stroke-width:0.5;" width="15" x="894.6961" y="366.1883"/><rect fill="#F1F1F1" height="2" style="stroke:#181818;stroke-width:0.5;" width="4" x="892.6961" y="368.1883"/><rect fill="#F1F1F1" height="2" style="stroke:#181818;stroke-width:0.5;" width="4" x="892.6961" y="372.1883"/><text fill="#000000" font-family="sans-serif" font-size="14" lengthAdjust="spacing" textLength="141.4902" x="709.2" y="394.7234">Fisheye canvas stage</text><text fill="#000000" font-family="sans-serif" font-size="14" lengthAdjust="spacing" textLength="180.4961" x="709.2" y="411.2117">CanvasView::fisheye_mesh</text></g><!--entity PL--><g class="entity" data-qualified-name="PL" data-source-line="17" id="ent0008"><rect fill="#F1F1F1" height="46.4883" rx="2.5" ry="2.5" style="stroke:#181818;stroke-width:0.5;" width="121.04" x="122.93" y="521.7783"/><rect fill="#F1F1F1" height="10" style="stroke:#181818;stroke-width:0.5;" width="15" x="223.97" y="526.7783"/><rect fill="#F1F1F1" height="2" style="stroke:#181818;stroke-width:0.5;" width="4" x="221.97" y="528.7783"/><rect fill="#F1F1F1" height="2" style="stroke:#181818;stroke-width:0.5;" width="4" x="221.97" y="532.7783"/><text fill="#000000" font-family="sans-serif" font-size="14" lengthAdjust="spacing" textLength="81.04" x="137.93" y="555.3134">PanelLayout</text></g><!--entity CV--><g class="entity" data-qualified-name="CV" data-source-line="18" id="ent0009"><rect fill="#F1F1F1" height="46.4883" rx="2.5" ry="2.5" style="stroke:#181818;stroke-width:0.5;" width="120.0078" x="598.45" y="521.7783"/><rect fill="#F1F1F1" height="10" style="stroke:#181818;stroke-width:0.5;" width="15" x="698.4578" y="526.7783"/><rect fill="#F1F1F1" height="2" style="stroke:#181818;stroke-width:0.5;" width="4" x="696.4578" y="528.7783"/><rect fill="#F1F1F1" height="2" style="stroke:#181818;stroke-width:0.5;" width="4" x="696.4578" y="532.7783"/><text fill="#000000" font-family="sans-serif" font-size="14" lengthAdjust="spacing" textLength="80.0078" x="613.45" y="555.3134">CanvasView</text></g><!--entity Egui--><g class="entity" data-qualified-name="Egui" data-source-line="19" id="ent0010"><rect fill="#F1F1F1" height="62.9766" rx="2.5" ry="2.5" style="stroke:#181818;stroke-width:0.5;" width="213.0586" x="1049.92" y="361.1883"/><rect fill="#F1F1F1" height="10" style="stroke:#181818;stroke-width:0.5;" width="15" x="1242.9786" y="366.1883"/><rect fill="#F1F1F1" height="2" style="stroke:#181818;stroke-width:0.5;" width="4" x="1240.9786" y="368.1883"/><rect fill="#F1F1F1" height="2" style="stroke:#181818;stroke-width:0.5;" width="4" x="1240.9786" y="372.1883"/><text fill="#000000" font-family="sans-serif" font-size="14" lengthAdjust="spacing" textLength="128.1602" x="1064.92" y="394.7234">eframe / egui 0.30</text><text fill="#000000" font-family="sans-serif" font-size="14" lengthAdjust="spacing" textLength="173.0586" x="1064.92" y="411.2117">painter.add(Shape::mesh)</text></g><g class="entity" data-qualified-name="GMN21" data-source-line="33" id="ent0022"><path d="M753.9,509.4083 L753.9,580.6505 L1147.006,580.6505 L1147.006,519.4083 L1137.006,509.4083 L753.9,509.4083" fill="#FEFFDD" style="stroke:#181818;stroke-width:0.5;"/><path d="M1137.006,509.4083 L1137.006,519.4083 L1147.006,519.4083 L1137.006,509.4083" fill="#FEFFDD" style="stroke:#181818;stroke-width:1;"/><text fill="#000000" font-family="sans-serif" font-size="13" lengthAdjust="spacing" textLength="340.0059" x="759.9" y="526.9766">The fisheye is a display-time stage on top of the base</text><text fill="#000000" font-family="sans-serif" font-size="13" lengthAdjust="spacing" textLength="362.9971" x="759.9" y="542.2872">zoom/pan placement; it does not change the render/font</text><text fill="#000000" font-family="sans-serif" font-size="13" lengthAdjust="spacing" textLength="372.106" x="759.9" y="557.5977">pipeline (CMP-VIEWER-RENDER-PIPELINE) &#8212; it only remaps</text><text fill="#000000" font-family="sans-serif" font-size="13" lengthAdjust="spacing" textLength="302.5293" x="759.9" y="572.9083">where the already-rasterized texture is painted.</text></g><!--link Dev to Viewer--><g class="link" data-entity-1="ent0002" data-entity-2="ent0003" data-link-type="dependency" data-source-line="21" id="lnk11"><path d="M968.06,97.1783 C910.02,122.3983 797.1729,171.4471 722.4729,203.9071" fill="none" id="Dev-to-Viewer" style="stroke:#181818;stroke-width:1;"/><polygon fill="#181818" points="716.97,206.2983,726.8185,206.3801,721.5558,204.3056,723.6302,199.0428,716.97,206.2983" style="stroke:#181818;stroke-width:1;"/><text fill="#000000" font-family="sans-serif" font-size="13" lengthAdjust="spacing" textLength="60.3599" x="848.53" y="163.0466">mdd view</text></g><!--link Viewer to Left--><g class="link" data-entity-1="ent0003" data-entity-2="ent0004" data-link-type="dependency" data-source-line="22" id="lnk12"><path d="M583.79,236.8783 C454.26,237.5883 175.01,246.2283 103.45,305.9383 C87.4,319.3383 81.6021,336.2591 78.9121,355.0091" fill="none" id="Viewer-to-Left" style="stroke:#181818;stroke-width:1;"/><polygon fill="#181818" points="78.06,360.9483,83.2976,352.6075,78.7701,355.999,75.3787,351.4714,78.06,360.9483" style="stroke:#181818;stroke-width:1;"/><text fill="#000000" font-family="sans-serif" font-size="13" lengthAdjust="spacing" textLength="203.3091" x="104.45" y="319.5066">draw + collapse chevron / sliver</text></g><!--link Viewer to Right--><g class="link" data-entity-1="ent0003" data-entity-2="ent0005" data-link-type="dependency" data-source-line="23" id="lnk13"><path d="M583.94,244.4083 C502.17,254.4383 369.52,274.9683 331.45,305.9383 C314.65,319.6083 306.7082,336.442 301.3682,355.012" fill="none" id="Viewer-to-Right" style="stroke:#181818;stroke-width:1;"/><polygon fill="#181818" points="299.71,360.7783,306.0415,353.2342,301.0918,355.973,298.353,351.0234,299.71,360.7783" style="stroke:#181818;stroke-width:1;"/><text fill="#000000" font-family="sans-serif" font-size="13" lengthAdjust="spacing" textLength="203.3091" x="332.45" y="319.5066">draw + collapse chevron / sliver</text></g><!--link Left to PL--><g class="link" data-entity-1="ent0004" data-entity-2="ent0008" data-link-type="dependency" data-source-line="24" id="lnk14"><path d="M98.36,424.4583 C118.91,453.3283 145.6515,490.9095 164.0015,516.6995" fill="none" id="Left-to-PL" style="stroke:#181818;stroke-width:1;"/><polygon fill="#181818" points="167.48,521.5883,165.5215,511.9361,164.5813,517.5143,159.0031,516.5741,167.48,521.5883" style="stroke:#181818;stroke-width:1;"/><text fill="#000000" font-family="sans-serif" font-size="13" lengthAdjust="spacing" textLength="75.6577" x="137.36" y="475.9766">toggle_left()</text></g><!--link Right to PL--><g class="link" data-entity-1="ent0005" data-entity-2="ent0008" data-link-type="dependency" data-source-line="25" id="lnk15"><path d="M270.93,424.4583 C249.81,453.3283 222.2717,490.9551 203.4117,516.7451" fill="none" id="Right-to-PL" style="stroke:#181818;stroke-width:1;"/><polygon fill="#181818" points="199.87,521.5883,208.4114,516.6847,202.8215,517.5523,201.9539,511.9624,199.87,521.5883" style="stroke:#181818;stroke-width:1;"/><text fill="#000000" font-family="sans-serif" font-size="13" lengthAdjust="spacing" textLength="85.1284" x="242.75" y="475.9766">toggle_right()</text></g><!--link Viewer to Toolbar--><g class="link" data-entity-1="ent0003" data-entity-2="ent0006" data-link-type="dependency" data-source-line="26" id="lnk16"><path d="M583.87,268.9183 C570.06,278.7583 557.34,291.0383 549.45,305.9383 C542,320.0283 540.6357,331.3552 542.3457,346.7052" fill="none" id="Viewer-to-Toolbar" style="stroke:#181818;stroke-width:1;"/><polygon fill="#181818" points="543.01,352.6683,545.989,343.2807,542.4564,347.699,538.0381,344.1665,543.01,352.6683" style="stroke:#181818;stroke-width:1;"/><text fill="#000000" font-family="sans-serif" font-size="13" lengthAdjust="spacing" textLength="154.3687" x="550.45" y="319.5066">draw (no zoom controls)</text></g><!--link Viewer to Fisheye--><g class="link" data-entity-1="ent0003" data-entity-2="ent0007" data-link-type="dependency" data-source-line="27" id="lnk17"><path d="M689.31,276.1883 C715.51,302.4583 745.3435,332.3895 769.6135,356.7295" fill="none" id="Viewer-to-Fisheye" style="stroke:#181818;stroke-width:1;"/><polygon fill="#181818" points="773.85,360.9783,770.3277,351.7808,770.3196,357.4377,764.6627,357.4295,773.85,360.9783" style="stroke:#181818;stroke-width:1;"/><text fill="#000000" font-family="sans-serif" font-size="13" lengthAdjust="spacing" textLength="206.9209" x="733.07" y="319.5066">warp rendered texture per frame</text></g><!--link Fisheye to CV--><g class="link" data-entity-1="ent0007" data-entity-2="ent0009" data-link-type="dependency" data-source-line="28" id="lnk18"><path d="M732.72,424.5683 C715.72,434.6183 698.93,447.1883 686.45,462.4083 C672.49,479.4383 666.5176,497.937 662.9476,515.617" fill="none" id="Fisheye-to-CV" style="stroke:#181818;stroke-width:1;"/><polygon fill="#181818" points="661.76,521.4983,667.4622,513.468,662.7496,516.5972,659.6205,511.8846,661.76,521.4983" style="stroke:#181818;stroke-width:1;"/><text fill="#000000" font-family="sans-serif" font-size="13" lengthAdjust="spacing" textLength="236.209" x="687.45" y="475.9766">focal=centre, strength, radius, warp()</text></g><!--link Viewer to Egui--><g class="link" data-entity-1="ent0003" data-entity-2="ent0010" data-link-type="dependency" data-source-line="29" id="lnk19"><path d="M716.99,249.2983 C777.94,261.1383 870.3,281.0083 948.45,305.9383 C962.15,310.3083 1023.377,335.6976 1077.617,358.4476" fill="none" id="Viewer-to-Egui" style="stroke:#181818;stroke-width:1;"/><polygon fill="#181818" points="1083.15,360.7683,1076.3976,353.5985,1078.5392,358.8343,1073.3033,360.9759,1083.15,360.7683" style="stroke:#181818;stroke-width:1;"/><text fill="#000000" font-family="sans-serif" font-size="13" lengthAdjust="spacing" textLength="236.9009" x="989.55" y="319.5066">textured Mesh, clipped to canvas rect</text></g><!--link Egui to Dev--><g class="link" data-entity-1="ent0010" data-entity-2="ent0002" data-link-type="dependency" data-source-line="30" id="lnk20"><path d="M1210.6,360.8983 C1229.19,346.0283 1243.34,326.8683 1234.45,305.9383 C1193.97,210.6683 1095.9223,139.4573 1041.8323,105.5173" fill="none" id="Egui-to-Dev" style="stroke:#181818;stroke-width:1;"/><polygon fill="#181818" points="1036.75,102.3283,1042.2475,110.5,1040.9853,104.9858,1046.4995,103.7236,1036.75,102.3283" style="stroke:#181818;stroke-width:1;"/><text fill="#000000" font-family="sans-serif" font-size="13" lengthAdjust="spacing" textLength="286.584" x="1220.34" y="241.2766">centre-magnified diagram, collapsible panels</text></g><!--link Fisheye to GMN21--><g class="link" data-entity-1="ent0007" data-entity-2="ent0022" data-link-type="association" data-source-line="33" id="lnk23"><path d="M882.81,424.6583 C899.86,434.5283 916.39,446.9983 928.45,462.4083 C938.85,475.6983 944.35,493.5183 947.25,509.1183" fill="none" id="Fisheye-GMN21" style="stroke:#181818;stroke-width:1;stroke-dasharray:7,7;"/></g><?plantuml-src ZLNDZjf84BxxAKfS0We6ejmSxIeZXiqYCH62P5PQ8OqQTzbkgUbkTJSGSif3v0dp95lLDZEUp1ps0jXLN_ryNrNn1l8yXtDZDUO7uS1vUq8ZJ8a5b9TI8yH6H50cUYkF9Kf0KJRmKKa6Pc_WO_8Qpk_M-VroySzYas__NgnMOvZDPkz6xA3a2sjwxx4QVjqkaY6_NTvysjpSRPD5OYXVYJZuqY1WVLGG6jGQR0K7AVEJmZDw407sHwKZx2zm9-LzUbiKHoT5v6Qiri85jQUMD5PnwbNTHDWgYMjXK8Sn28ZMwhtmS5Qn0MFXkxK7YXgZDMmtajX0AD54z7cblX4TbQ9YBlHIc1EL4AAeEyxEmhkG01wDH4_E4R_5eqVOOsNfomdYLPbwCk2svqTFZZ4FL1ALUt3Mq2DmUq1mTU9idWfwqHt9G_ZIqyymVQ9a6dmvrMe_yM6IHHMfynvVNvSTZRz-_0HxDkX3enmCoxQCKPQ9CbeFWriyeROE_O0vfgSiUwfky5ZCpWonykA0HN7Zt6Xdsjg6emHhVVh0H-QJ73kp6tYXz6u0KmYQcctJhSZsEYhfnx3I6kRrT-I6xNreEDKFdS1Kw_hcqm82QanDleM6fFYmCoJw1WF6wRya_TlqcRSTV6cX_OX_lQBzpipJ4pTS5DrqF1mmD2bA1-b7IUsinCKUOt9Ph_hMfsZ9EB_l6rl2gU-q5RF9-zdEfA52Fn5I3hUDSAG7Ps-RM91Vbf66jBr_Tg90mMEHvYphth2HcIUJzE9Cz7JhGxqsUFBMF7BTXoJA_mycnMR4UaNkqTQrnWSUW-4eQuFyRangaxMNhHFacczutLUU1szrUEPybQf8Q_bo8scy8P6PNJqPDRydG6LBeV_WfVSu9f49MyTc35v8TQIpm06VLyOiS-bjR0btnFyOIgsSuvJsEZ2UXYzBpenYLGfeyz0jhesg5BbB9MegRFpiWhbqihBCMDh-lQK3TU1pU9qk03wLrzEa0fqsgOBJuf97HGFJNYbI95h7E3vIUn4Oo1HEAJoGTua7gkO3g0ZIOg2B64bBOTA5kvwrQKLy4z0fXrePXFxbtYm-tzBNUhbUh9QV5wDqR2YSDVf2UFh72GGzDwH52YcqHo4lkHU1PbXzxob4NRIZBISP9UPYy3y0?></g></svg>