<svg xmlns="http://www.w3.org/2000/svg" xmlns:xlink="http://www.w3.org/1999/xlink" contentStyleType="text/css" data-diagram-type="DESCRIPTION" height="656px" preserveAspectRatio="none" style="width:1940px;height:656px;background:#FFFFFF;" version="1.1" viewBox="0 0 1940 656" width="1940px" zoomAndPan="magnify"><?plantuml 1.2026.3?><defs/><g><g class="title" data-source-line="12"><text fill="#000000" font-family="sans-serif" font-size="14" font-weight="700" lengthAdjust="spacing" textLength="313.7627" x="809.8506" y="23.5352">mdd-viewer UI shell &#8212; ownership (current)</text></g><!--entity Dev--><g class="entity" data-qualified-name="Dev" data-source-line="14" id="ent0002"><ellipse cx="1270.2392" cy="51.4883" fill="#F1F1F1" rx="8" ry="8" style="stroke:#181818;stroke-width:0.5;"/><path d="M1270.2392,59.4883 L1270.2392,86.4883 M1257.2392,67.4883 L1283.2392,67.4883 M1270.2392,86.4883 L1257.2392,101.4883 M1270.2392,86.4883 L1283.2392,101.4883" fill="none" style="stroke:#181818;stroke-width:0.5;"/><text fill="#000000" font-family="sans-serif" font-size="14" lengthAdjust="spacing" textLength="68.3184" x="1236.08" y="116.5234">Developer</text></g><!--entity Viewer--><g class="entity" data-qualified-name="Viewer" data-source-line="16" id="ent0003"><rect fill="#F1F1F1" height="79.4648" rx="2.5" ry="2.5" style="stroke:#181818;stroke-width:0.5;" width="132.5244" x="792.97" y="196.4783"/><rect fill="#F1F1F1" height="10" style="stroke:#181818;stroke-width:0.5;" width="15" x="905.4944" y="201.4783"/><rect fill="#F1F1F1" height="2" style="stroke:#181818;stroke-width:0.5;" width="4" x="903.4944" y="203.4783"/><rect fill="#F1F1F1" height="2" style="stroke:#181818;stroke-width:0.5;" width="4" x="903.4944" y="207.4783"/><text fill="#000000" font-family="sans-serif" font-size="14" lengthAdjust="spacing" textLength="74.9971" x="807.97" y="230.0134">MddViewer</text><text fill="#000000" font-family="sans-serif" font-size="14" lengthAdjust="spacing" textLength="92.5244" x="807.97" y="246.5017">(eframe::App)</text><text fill="#000000" font-family="sans-serif" font-size="14" lengthAdjust="spacing" textLength="56.1846" x="807.97" y="262.99">update()</text></g><!--entity Left--><g class="entity" data-qualified-name="Left" data-source-line="17" id="ent0004"><rect fill="#F1F1F1" height="62.9766" rx="2.5" ry="2.5" style="stroke:#181818;stroke-width:0.5;" width="138.9023" x="762.79" y="376.1883"/><rect fill="#F1F1F1" height="10" style="stroke:#181818;stroke-width:0.5;" width="15" x="881.6923" y="381.1883"/><rect fill="#F1F1F1" height="2" style="stroke:#181818;stroke-width:0.5;" width="4" x="879.6923" y="383.1883"/><rect fill="#F1F1F1" height="2" style="stroke:#181818;stroke-width:0.5;" width="4" x="879.6923" y="387.1883"/><text fill="#000000" font-family="sans-serif" font-size="14" lengthAdjust="spacing" textLength="90.8633" x="777.79" y="409.7234">SidePanel left</text><text fill="#000000" font-family="sans-serif" font-size="14" lengthAdjust="spacing" textLength="98.9023" x="777.79" y="426.2117">\"rail\" / sliver</text></g><!--entity Right--><g class="entity" data-qualified-name="Right" data-source-line="18" id="ent0005"><rect fill="#F1F1F1" height="62.9766" rx="2.5" ry="2.5" style="stroke:#181818;stroke-width:0.5;" width="168.666" x="530.9" y="376.1883"/><rect fill="#F1F1F1" height="10" style="stroke:#181818;stroke-width:0.5;" width="15" x="679.566" y="381.1883"/><rect fill="#F1F1F1" height="2" style="stroke:#181818;stroke-width:0.5;" width="4" x="677.566" y="383.1883"/><rect fill="#F1F1F1" height="2" style="stroke:#181818;stroke-width:0.5;" width="4" x="677.566" y="387.1883"/><text fill="#000000" font-family="sans-serif" font-size="14" lengthAdjust="spacing" textLength="101.0625" x="545.9" y="409.7234">SidePanel right</text><text fill="#000000" font-family="sans-serif" font-size="14" lengthAdjust="spacing" textLength="128.666" x="545.9" y="426.2117">\"context\" / sliver</text></g><!--entity Toolbar--><g class="entity" data-qualified-name="Toolbar" data-source-line="19" id="ent0006"><rect fill="#F1F1F1" height="79.4648" rx="2.5" ry="2.5" style="stroke:#181818;stroke-width:0.5;" width="214.4736" x="7" y="367.9383"/><rect fill="#F1F1F1" height="10" style="stroke:#181818;stroke-width:0.5;" width="15" x="201.4736" y="372.9383"/><rect fill="#F1F1F1" height="2" style="stroke:#181818;stroke-width:0.5;" width="4" x="199.4736" y="374.9383"/><rect fill="#F1F1F1" height="2" style="stroke:#181818;stroke-width:0.5;" width="4" x="199.4736" y="378.9383"/><text fill="#000000" font-family="sans-serif" font-size="14" lengthAdjust="spacing" textLength="78.8662" x="22" y="401.4734">svg_toolbar</text><text fill="#000000" font-family="sans-serif" font-size="14" lengthAdjust="spacing" textLength="148.6816" x="22" y="417.9617">(PAGE selector + hint;</text><text fill="#000000" font-family="sans-serif" font-size="14" lengthAdjust="spacing" textLength="174.4736" x="22" y="434.45">no Reset/Zoom+/Zoom-)</text></g><!--entity Fisheye--><g class="entity" data-qualified-name="Fisheye" data-source-line="20" id="ent0007"><rect fill="#F1F1F1" height="62.9766" rx="2.5" ry="2.5" style="stroke:#181818;stroke-width:0.5;" width="220.4961" x="255.99" y="376.1883"/><rect fill="#F1F1F1" height="10" style="stroke:#181818;stroke-width:0.5;" width="15" x="456.4861" y="381.1883"/><rect fill="#F1F1F1" height="2" style="stroke:#181818;stroke-width:0.5;" width="4" x="454.4861" y="383.1883"/><rect fill="#F1F1F1" height="2" style="stroke:#181818;stroke-width:0.5;" width="4" x="454.4861" y="387.1883"/><text fill="#000000" font-family="sans-serif" font-size="14" lengthAdjust="spacing" textLength="141.4902" x="270.99" y="409.7234">Fisheye canvas stage</text><text fill="#000000" font-family="sans-serif" font-size="14" lengthAdjust="spacing" textLength="180.4961" x="270.99" y="426.2117">CanvasView::fisheye_mesh</text></g><!--entity PL--><g class="entity" data-qualified-name="PL" data-source-line="21" id="ent0008"><rect fill="#F1F1F1" height="46.4883" rx="2.5" ry="2.5" style="stroke:#181818;stroke-width:0.5;" width="121.04" x="597.72" y="559.7483"/><rect fill="#F1F1F1" height="10" style="stroke:#181818;stroke-width:0.5;" width="15" x="698.76" y="564.7483"/><rect fill="#F1F1F1" height="2" style="stroke:#181818;stroke-width:0.5;" width="4" x="696.76" y="566.7483"/><rect fill="#F1F1F1" height="2" style="stroke:#181818;stroke-width:0.5;" width="4" x="696.76" y="570.7483"/><text fill="#000000" font-family="sans-serif" font-size="14" lengthAdjust="spacing" textLength="81.04" x="612.72" y="593.2834">PanelLayout</text></g><!--entity CV--><g class="entity" data-qualified-name="CV" data-source-line="22" id="ent0009"><rect fill="#F1F1F1" height="46.4883" rx="2.5" ry="2.5" style="stroke:#181818;stroke-width:0.5;" width="120.0078" x="14.23" y="559.7483"/><rect fill="#F1F1F1" height="10" style="stroke:#181818;stroke-width:0.5;" width="15" x="114.2378" y="564.7483"/><rect fill="#F1F1F1" height="2" style="stroke:#181818;stroke-width:0.5;" width="4" x="112.2378" y="566.7483"/><rect fill="#F1F1F1" height="2" style="stroke:#181818;stroke-width:0.5;" width="4" x="112.2378" y="570.7483"/><text fill="#000000" font-family="sans-serif" font-size="14" lengthAdjust="spacing" textLength="80.0078" x="29.23" y="593.2834">CanvasView</text></g><!--entity Egui--><g class="entity" data-qualified-name="Egui" data-source-line="23" id="ent0010"><rect fill="#F1F1F1" height="62.9766" rx="2.5" ry="2.5" style="stroke:#181818;stroke-width:0.5;" width="213.0586" x="1501.71" y="376.1883"/><rect fill="#F1F1F1" height="10" style="stroke:#181818;stroke-width:0.5;" width="15" x="1694.7686" y="381.1883"/><rect fill="#F1F1F1" height="2" style="stroke:#181818;stroke-width:0.5;" width="4" x="1692.7686" y="383.1883"/><rect fill="#F1F1F1" height="2" style="stroke:#181818;stroke-width:0.5;" width="4" x="1692.7686" y="387.1883"/><text fill="#000000" font-family="sans-serif" font-size="14" lengthAdjust="spacing" textLength="128.1602" x="1516.71" y="409.7234">eframe / egui 0.30</text><text fill="#000000" font-family="sans-serif" font-size="14" lengthAdjust="spacing" textLength="173.0586" x="1516.71" y="426.2117">painter.add(Shape::mesh)</text></g><g class="entity" data-qualified-name="GMN21" data-source-line="37" id="ent0022"><path d="M169.68,547.3683 L169.68,618.6105 A0,0 0 0 0 169.68,618.6105 L562.786,618.6105 A0,0 0 0 0 562.786,618.6105 L562.786,557.3683 L552.786,547.3683 L370.24,547.3683 L366.24,439.6583 L362.24,547.3683 L169.68,547.3683 A0,0 0 0 0 169.68,547.3683" fill="#FEFFDD" style="stroke:#181818;stroke-width:0.5;"/><path d="M552.786,547.3683 L552.786,557.3683 L562.786,557.3683 L552.786,547.3683" fill="#FEFFDD" style="stroke:#181818;stroke-width:0.5;"/><text fill="#000000" font-family="sans-serif" font-size="13" lengthAdjust="spacing" textLength="340.0059" x="175.68" y="564.9366">The fisheye is a display-time stage on top of the base</text><text fill="#000000" font-family="sans-serif" font-size="13" lengthAdjust="spacing" textLength="362.9971" x="175.68" y="580.2472">zoom/pan placement; it does not change the render/font</text><text fill="#000000" font-family="sans-serif" font-size="13" lengthAdjust="spacing" textLength="372.106" x="175.68" y="595.5577">pipeline (CMP-VIEWER-RENDER-PIPELINE) &#8212; it only remaps</text><text fill="#000000" font-family="sans-serif" font-size="13" lengthAdjust="spacing" textLength="302.5293" x="175.68" y="610.8683">where the already-rasterized texture is painted.</text></g><!--entity Launch--><g class="entity" data-qualified-name="Launch" data-source-line="43" id="ent0024"><rect fill="#F1F1F1" height="79.4648" rx="2.5" ry="2.5" style="stroke:#181818;stroke-width:0.5;" width="456.2471" x="982.11" y="367.9383"/><rect fill="#F1F1F1" height="10" style="stroke:#181818;stroke-width:0.5;" width="15" x="1418.3571" y="372.9383"/><rect fill="#F1F1F1" height="2" style="stroke:#181818;stroke-width:0.5;" width="4" x="1416.3571" y="374.9383"/><rect fill="#F1F1F1" height="2" style="stroke:#181818;stroke-width:0.5;" width="4" x="1416.3571" y="378.9383"/><text fill="#000000" font-family="sans-serif" font-size="14" lengthAdjust="spacing" textLength="115.4727" x="997.11" y="401.4734">MockupLauncher</text><text fill="#000000" font-family="sans-serif" font-size="14" lengthAdjust="spacing" textLength="171.1309" x="997.11" y="417.9617">(CMP-MOCKUP-LAUNCH)</text><text fill="#000000" font-family="sans-serif" font-size="14" lengthAdjust="spacing" textLength="416.2471" x="997.11" y="434.45">open_mockup_render &#183; mockup_server_up &#183; open_in_browser</text></g><!--entity Vite--><g class="entity" data-qualified-name="Vite" data-source-line="44" id="ent0025"><rect fill="#F1F1F1" height="62.9766" rx="2.5" ry="2.5" style="stroke:#181818;stroke-width:0.5;" width="307.2578" x="1541.61" y="551.4983"/><rect fill="#F1F1F1" height="10" style="stroke:#181818;stroke-width:0.5;" width="15" x="1828.8678" y="556.4983"/><rect fill="#F1F1F1" height="2" style="stroke:#181818;stroke-width:0.5;" width="4" x="1826.8678" y="558.4983"/><rect fill="#F1F1F1" height="2" style="stroke:#181818;stroke-width:0.5;" width="4" x="1826.8678" y="562.4983"/><text fill="#000000" font-family="sans-serif" font-size="14" lengthAdjust="spacing" textLength="86.3926" x="1556.61" y="585.0334">npm run dev</text><text fill="#000000" font-family="sans-serif" font-size="14" lengthAdjust="spacing" textLength="267.2578" x="1556.61" y="601.5217">(Vite dev server, :4317, cwd mockups/)</text></g><!--entity Browser--><g class="entity" data-qualified-name="Browser" data-source-line="45" id="ent0026"><rect fill="#F1F1F1" height="62.9766" rx="2.5" ry="2.5" style="stroke:#181818;stroke-width:0.5;" width="214.6035" x="753.94" y="551.4983"/><rect fill="#F1F1F1" height="10" style="stroke:#181818;stroke-width:0.5;" width="15" x="948.5435" y="556.4983"/><rect fill="#F1F1F1" height="2" style="stroke:#181818;stroke-width:0.5;" width="4" x="946.5435" y="558.4983"/><rect fill="#F1F1F1" height="2" style="stroke:#181818;stroke-width:0.5;" width="4" x="946.5435" y="562.4983"/><text fill="#000000" font-family="sans-serif" font-size="14" lengthAdjust="spacing" textLength="129.3291" x="768.94" y="585.0334">OS default browser</text><text fill="#000000" font-family="sans-serif" font-size="14" lengthAdjust="spacing" textLength="174.6035" x="768.94" y="601.5217">(open / xdg-open / start)</text></g><g class="entity" data-qualified-name="GMN30" data-source-line="52" id="ent0031"><path d="M1003.83,524.4083 L1003.83,641.5821 A0,0 0 0 0 1003.83,641.5821 L1506.6362,641.5821 A0,0 0 0 0 1506.6362,641.5821 L1506.6362,534.4083 L1496.6362,524.4083 L1244.21,524.4083 L1220.34,447.5683 L1236.21,524.4083 L1003.83,524.4083 A0,0 0 0 0 1003.83,524.4083" fill="#FEFFDD" style="stroke:#181818;stroke-width:0.5;"/><path d="M1496.6362,524.4083 L1496.6362,534.4083 L1506.6362,534.4083 L1496.6362,524.4083" fill="#FEFFDD" style="stroke:#181818;stroke-width:0.5;"/><text fill="#000000" font-family="sans-serif" font-size="13" lengthAdjust="spacing" textLength="481.8062" x="1009.83" y="541.9766">Code (CMP-MOCKUP-LAUNCH / USE-OPEN-RENDER): selected_render_slug()</text><text fill="#000000" font-family="sans-serif" font-size="13" lengthAdjust="spacing" textLength="355.875" x="1009.83" y="557.2872">enables the button only for a ModelKind::Mockup whose</text><text fill="#000000" font-family="sans-serif" font-size="13" lengthAdjust="spacing" textLength="442.4761" x="1009.83" y="572.5977">mockups/src/mockups/&lt;slug&gt;.tsx exists. open_mockup_render runs</text><text fill="#000000" font-family="sans-serif" font-size="13" lengthAdjust="spacing" textLength="412.896" x="1009.83" y="587.9083">off the UI thread (std::thread): mockup_server_up() probes :4317,</text><text fill="#000000" font-family="sans-serif" font-size="13" lengthAdjust="spacing" textLength="441.8096" x="1009.83" y="603.2188">spawns npm run dev (cwd &lt;root&gt;/mockups) if down and polls until it</text><text fill="#000000" font-family="sans-serif" font-size="13" lengthAdjust="spacing" textLength="420.564" x="1009.83" y="618.5294">binds, then open_in_browser opens /mockup/&lt;slug&gt;. Realized by</text><text fill="#000000" font-family="sans-serif" font-size="13" lengthAdjust="spacing" textLength="127.1118" x="1009.83" y="633.8399">SEQ-OPEN-RENDER.</text></g><!--link Dev to Viewer--><g class="link" data-entity-1="ent0002" data-entity-2="ent0003" data-link-type="dependency" data-source-line="25" id="lnk11"><path d="M1235.9,95.0083 C1167.8,120.3583 1020.1831,175.3054 931.5731,208.2854" fill="none" id="Dev-to-Viewer" style="stroke:#181818;stroke-width:1;"/><polygon fill="#181818" points="925.95,210.3783,935.78,210.9877,930.636,208.6342,932.9895,203.4902,925.95,210.3783" style="stroke:#181818;stroke-width:1;"/><text fill="#000000" font-family="sans-serif" font-size="13" lengthAdjust="spacing" textLength="60.3599" x="1090.34" y="163.0466">mdd view</text></g><!--link Viewer to Left--><g class="link" data-entity-1="ent0003" data-entity-2="ent0004" data-link-type="dependency" data-source-line="26" id="lnk12"><path d="M853.04,276.0883 C848.22,306.3783 842.5552,341.9332 838.0852,369.9532" fill="none" id="Viewer-to-Left" style="stroke:#181818;stroke-width:1;"/><polygon fill="#181818" points="837.14,375.8783,842.5079,367.6208,837.9277,370.9407,834.6078,366.3605,837.14,375.8783" style="stroke:#181818;stroke-width:1;"/><text fill="#000000" font-family="sans-serif" font-size="13" lengthAdjust="spacing" textLength="203.3091" x="849.16" y="327.0066">draw + collapse chevron / sliver</text></g><!--link Viewer to Right--><g class="link" data-entity-1="ent0003" data-entity-2="ent0005" data-link-type="dependency" data-source-line="27" id="lnk13"><path d="M792.56,238.8083 C740.46,243.8283 670.38,259.5683 630.24,305.9383 C613.8,324.9183 610.7855,347.8418 611.5355,369.8318" fill="none" id="Viewer-to-Right" style="stroke:#181818;stroke-width:1;"/><polygon fill="#181818" points="611.74,375.8283,615.4309,366.6972,611.5696,370.8312,607.4355,366.9699,611.74,375.8283" style="stroke:#181818;stroke-width:1;"/><text fill="#000000" font-family="sans-serif" font-size="13" lengthAdjust="spacing" textLength="203.3091" x="631.24" y="327.0066">draw + collapse chevron / sliver</text></g><!--link Left to PL--><g class="link" data-entity-1="ent0004" data-entity-2="ent0008" data-link-type="dependency" data-source-line="28" id="lnk14"><path d="M786.9,439.4083 C771.71,450.5983 755.12,463.8483 741.24,477.4083 C714.86,503.1483 692.6883,532.3552 677.0583,554.5152" fill="none" id="Left-to-PL" style="stroke:#181818;stroke-width:1;"/><polygon fill="#181818" points="673.6,559.4183,682.0561,554.3692,676.4819,555.3324,675.5187,549.7581,673.6,559.4183" style="stroke:#181818;stroke-width:1;"/><text fill="#000000" font-family="sans-serif" font-size="13" lengthAdjust="spacing" textLength="75.6577" x="742.24" y="490.9766">toggle_left()</text></g><!--link Right to PL--><g class="link" data-entity-1="ent0005" data-entity-2="ent0008" data-link-type="dependency" data-source-line="29" id="lnk15"><path d="M610.69,439.6383 C609.23,456.1183 608.93,476.6083 613.24,494.4083 C618.94,517.9983 628.9773,537.282 639.6273,554.302" fill="none" id="Right-to-PL" style="stroke:#181818;stroke-width:1;"/><polygon fill="#181818" points="642.81,559.3883,641.4269,549.637,640.1578,555.1497,634.6451,553.8806,642.81,559.3883" style="stroke:#181818;stroke-width:1;"/><text fill="#000000" font-family="sans-serif" font-size="13" lengthAdjust="spacing" textLength="85.1284" x="614.24" y="490.9766">toggle_right()</text></g><!--link Viewer to Toolbar--><g class="link" data-entity-1="ent0003" data-entity-2="ent0006" data-link-type="dependency" data-source-line="30" id="lnk16"><path d="M792.57,238.6983 C648.97,242.8083 315.25,257.4483 214.24,305.9383 C185.36,319.8083 163.8129,340.9192 145.8729,362.9092" fill="none" id="Viewer-to-Toolbar" style="stroke:#181818;stroke-width:1;"/><polygon fill="#181818" points="142.08,367.5583,150.8687,363.1132,145.2407,363.684,144.6699,358.056,142.08,367.5583" style="stroke:#181818;stroke-width:1;"/><text fill="#000000" font-family="sans-serif" font-size="13" lengthAdjust="spacing" textLength="154.3687" x="215.24" y="327.0066">draw (no zoom controls)</text></g><!--link Viewer to Fisheye--><g class="link" data-entity-1="ent0003" data-entity-2="ent0007" data-link-type="dependency" data-source-line="31" id="lnk17"><path d="M792.74,238.7683 C679.89,242.7483 457.46,256.7683 399.24,305.9383 C378.85,323.1583 371.7527,347.2396 368.7527,370.0396" fill="none" id="Viewer-to-Fisheye" style="stroke:#181818;stroke-width:1;"/><polygon fill="#181818" points="367.97,375.9883,373.1099,367.587,368.6223,371.031,365.1783,366.5434,367.97,375.9883" style="stroke:#181818;stroke-width:1;"/><text fill="#000000" font-family="sans-serif" font-size="13" lengthAdjust="spacing" textLength="206.9209" x="400.24" y="327.0066">warp rendered texture per frame</text></g><!--link Fisheye to CV--><g class="link" data-entity-1="ent0007" data-entity-2="ent0009" data-link-type="dependency" data-source-line="32" id="lnk18"><path d="M266.54,439.5783 C257.33,442.2883 248.12,444.9283 239.24,447.4083 C186.69,462.0283 161.89,442.1983 120.24,477.4083 C95.39,498.4083 84.8083,529.5627 79.4683,553.4627" fill="none" id="Fisheye-to-CV" style="stroke:#181818;stroke-width:1;"/><polygon fill="#181818" points="78.16,559.3183,84.0262,551.4071,79.2503,554.4386,76.2187,549.6626,78.16,559.3183" style="stroke:#181818;stroke-width:1;"/><text fill="#000000" font-family="sans-serif" font-size="13" lengthAdjust="spacing" textLength="236.209" x="121.24" y="490.9766">focal=centre, strength, radius, warp()</text></g><!--link Viewer to Egui--><g class="link" data-entity-1="ent0003" data-entity-2="ent0010" data-link-type="dependency" data-source-line="33" id="lnk19"><path d="M925.84,241.1083 C1047.71,249.0383 1301.43,269.4583 1381.24,305.9383 C1400.71,314.8383 1398.83,327.0083 1417.24,337.9383 C1443.14,353.3283 1467.4039,364.0782 1495.7439,374.2682" fill="none" id="Viewer-to-Egui" style="stroke:#181818;stroke-width:1;"/><polygon fill="#181818" points="1501.39,376.2983,1494.2743,369.489,1496.6849,374.6065,1491.5674,377.0172,1501.39,376.2983" style="stroke:#181818;stroke-width:1;"/><text fill="#000000" font-family="sans-serif" font-size="13" lengthAdjust="spacing" textLength="236.9009" x="1418.24" y="327.0066">textured Mesh, clipped to canvas rect</text></g><!--link Egui to Dev--><g class="link" data-entity-1="ent0010" data-entity-2="ent0002" data-link-type="dependency" data-source-line="34" id="lnk20"><path d="M1640.53,375.7883 C1657.58,355.6083 1672.49,328.8483 1659.24,305.9383 C1580.53,169.8883 1390.1068,110.7694 1310.4668,91.2094" fill="none" id="Egui-to-Dev" style="stroke:#181818;stroke-width:1;"/><polygon fill="#181818" points="1304.64,89.7783,1312.4262,95.8095,1309.4957,90.9709,1314.3343,88.0404,1304.64,89.7783" style="stroke:#181818;stroke-width:1;"/><text fill="#000000" font-family="sans-serif" font-size="13" lengthAdjust="spacing" textLength="286.584" x="1637.88" y="241.2766">centre-magnified diagram, collapsible panels</text></g><!--link Viewer to Launch--><g class="link" data-entity-1="ent0003" data-entity-2="ent0024" data-link-type="dependency" data-source-line="47" id="lnk27"><path d="M925.79,253.5483 C966.39,265.0283 1018.52,282.5283 1061.24,305.9383 C1081.2,316.8783 1082.69,324.7383 1101.24,337.9383 C1115.27,347.9283 1125.657,354.9086 1140.407,364.2886" fill="none" id="Viewer-to-Launch" style="stroke:#181818;stroke-width:1;"/><polygon fill="#181818" points="1145.47,367.5083,1140.022,359.3034,1141.2509,364.8252,1135.7291,366.054,1145.47,367.5083" style="stroke:#181818;stroke-width:1;"/><text fill="#000000" font-family="sans-serif" font-size="13" lengthAdjust="spacing" textLength="205.8735" x="1136.6379" y="319.5066">open_mockup_render(root, slug)</text><text fill="#000000" font-family="sans-serif" font-size="13" lengthAdjust="spacing" textLength="274.6694" x="1102.24" y="334.8172">on "Open render" click (UIC-OPEN-RENDER)</text></g><!--link Launch to Vite--><g class="link" data-entity-1="ent0024" data-entity-2="ent0025" data-link-type="dependency" data-source-line="48" id="lnk28"><path d="M1319.99,447.8883 C1407.45,479.1483 1522.5698,520.2895 1603.2298,549.1095" fill="none" id="Launch-to-Vite" style="stroke:#181818;stroke-width:1;"/><polygon fill="#181818" points="1608.88,551.1283,1601.7506,544.3333,1604.1715,549.4459,1599.0589,551.8668,1608.88,551.1283" style="stroke:#181818;stroke-width:1;"/><text fill="#000000" font-family="sans-serif" font-size="13" lengthAdjust="spacing" textLength="283.6641" x="1439.19" y="490.9766">spawn in mockups/ only if :4317 not serving</text></g><!--link Launch to Browser--><g class="link" data-entity-1="ent0024" data-entity-2="ent0026" data-link-type="dependency" data-source-line="49" id="lnk29"><path d="M1130.83,447.8883 C1111.34,457.5283 1090.53,467.8283 1071.24,477.4083 C1021.44,502.1183 970.4091,527.5301 928.6091,548.3801" fill="none" id="Launch-to-Browser" style="stroke:#181818;stroke-width:1;"/><polygon fill="#181818" points="923.24,551.0583,933.0791,550.6205,927.7143,548.8265,929.5083,543.4616,923.24,551.0583" style="stroke:#181818;stroke-width:1;"/><text fill="#000000" font-family="sans-serif" font-size="13" lengthAdjust="spacing" textLength="147.0815" x="1072.24" y="490.9766">open /mockup/&lt;slug&gt;</text></g><?plantuml-src ZLRTRXf75BxVfpZYng2mu2YLgcxIA2wXYHLiKuXTgK92myx0ZZBCh6PcmUIg3z5twNqVfK_ISsOMl82RziO6vloVxvplN42Qfh0jZ1BfcfLGMhCHckbSP93lSYN05yo3rDuQNkM2Ws1v0Uya9yNa0ju5gVRWPfm-N0z_7KxIwSVXQDI5oylBbvrZWPkxmQVxSJgwkhyTV2I9bpy42SdFzCFlLYpRzzDXU4ZVNrzzc5pTJCCB5ov_ncVhSo50h2e9hX1AWLd2clDq8yLMM60E5fLK7XOxkE7y8VoQPLN9cQTqZLAiT7A1IIknz7qhLuM7gUHYpBHGhWiCl35gmInifIz06_Xgp1gjUcyqlMkEzHAG2-s5JPVo4Gksb1ZC3dzaUeCXECzMTLMtp9OkA5YXkR0exCMZhwo0XLWQ_5SohBpKgrwhMQYZEXvLwcuyl4qdmzltmybndKvAtxhQrw8Tkqozw49kiHAk_rIplhDvNyb5pxfE5Y9LhD8802nlAImQ4OMiaoQDrBC5NDoLGjSfNTJ5wO4JIkHUy7byc3jLhTeTM977e1y5NuD1xVdQv5-gifPjMsDy5qYZ0wvaM-se5OKLZCTAvamf1xMI4tQ33geIpNj3a5vWt0Pb2kDyzjshbzztzsPqkGPRQU1Y4tkQRpcy8Nzl-z6S0wFL3kGo15aQYzE0UiO3-S7UGBj4vD272dkbG2B0i2QkqoKD7VEHUhwmPeiguNlC-6wAVfUi8aZMZvXBxRV_Xl9zsuDR4wAK6f6ZL9TGbnTIyHGJouL3H1MLvsQhmLkMVpcWPL1PB9zF7G8OmRqkZSQleKterieDOTCYVCzc0NsX_hV0q4kyz0YRndJTNzT3z_VlVm16W-WeP8duYc5qaeJbtbXelHSReR08jaKJYT-Iv2cwrY6OcMwBfMLhaMLNPTcPwHXRknFKeanJyJ2dONXdUjQoJAfP2_e874mskXlXs_DQOTf9BJUQfl1KSqBlJLMtMSthTO2nZgy-36kCOv8l0CV2lvvfRDP4EE7xl-6YU17-fZ63pr6rQV7dPpR5J0_2Dqeuo-fTCbyBLmGhjKhJIaXdn7Qcya5aF6g-FbaBZuE7vcCiEEOTTkXbxzNbJ8SL96oFSTwU5gp4Vf3tcCGGvP84UuXiyBPk2cG4Yu2pfFw57gdo-CGjss9vwcMBkHPYOuq-rBgf4ah-VtI2RT8OZr3SczLAYJd1eDr9ef7Jnz1jV6rugnkozzVURtV2WpNA7GdlMvM59Nw-ln7U48gPx2L9Q_202alQH3yIHLY1UmZ_wfKlkc0PbnMI21ayZeogJA57snnkiFwuh9KiIt9fze2n2Bua29CMTIM3w0UvVQNbKg8ubso5WNMF-AuC19SakDPm4HjSn6iYppsw08XOzqGcQVjowKh5TgcN29Z8QTWHRqhI2-kSELAa4lRHFA1qBjOOpMlQaDo8k4JpWkd0XtiIx2-ntgXOobBWLXNGvFb8RUduUZmSNTyEEs7PeBcmegt02yQXwhR0NWIJJ157x5BB769OVcrq2BE8qEQz11rJCE9u4uKrF0fy5zRHEVNEz3bPmLz_dX4H_NP20t4R1UDDfmq-GeyF4jj1r1GjTQ4cBoAfcftw-tteZvR0ERMWEGe1X-QHhzBw8pRE-cZXfoYM7Cri9FliFpWPow3HvHFhjmYS-HTetryFZc-IscBS5fxc9n0nCiuXeGFVXcIRJDlKhiEjOpiXpJCWruK661XU8-gearYAq_Cf-vUB1OtWWOn3qxnQOinuik5atA0BzGalW2oB4ABpEip2FaFYqVtdckMzUmJnA9rtlMUAJP0WO9jbd2taslhwQJkFVk8N3FcP2oYSFwv63jfuvl1fdnyz7Mf0E2hefgK3nntE6pGI3fnltZUdLyn4C1NcRx53_UdmbsQndoRm7m00?></g></svg>