<svg xmlns="http://www.w3.org/2000/svg" xmlns:xlink="http://www.w3.org/1999/xlink" contentStyleType="text/css" data-diagram-type="SEQUENCE" height="1179px" preserveAspectRatio="none" style="width:1836px;height:1179px;background:#FFFFFF;" version="1.1" viewBox="0 0 1836 1179" width="1836px" zoomAndPan="magnify"><?plantuml 1.2026.3?><defs/><g><g class="title" data-source-line="41"><text fill="#000000" font-family="sans-serif" font-size="14" font-weight="700" lengthAdjust="spacing" textLength="345.6729" x="742.0146" y="28.5352">/mdd-deploy guidance and inspection (current)</text></g><rect fill="none" height="597.0293" style="stroke:#000000;stroke-width:1.5;" width="1381.5566" x="10" y="225.0859"/><rect fill="none" height="126.5527" style="stroke:#000000;stroke-width:1.5;" width="756.0884" x="20" y="367.5938"/><g class="participant-lifeline" data-entity-uid="part1" data-qualified-name="Op" data-source-line="43" id="part1-lifeline"><g><title>..added..</title><rect fill="#000000" fill-opacity="0.00000" height="945.4453" width="8" x="59.2559" y="135.4648"/><line style="stroke:#181818;stroke-width:0.5;stroke-dasharray:5,5;" x1="63" x2="63" y1="135.4648" y2="1080.9102"/></g></g><g class="participant-lifeline" data-entity-uid="part2" data-qualified-name="Dep" data-source-line="44" id="part2-lifeline"><g><title>.mdd-deploy</title><rect fill="#000000" fill-opacity="0.00000" height="945.4453" width="8" x="448.2397" y="135.4648"/><line style="stroke:#181818;stroke-width:0.5;stroke-dasharray:5,5;" x1="451.48" x2="451.48" y1="135.4648" y2="1080.9102"/></g></g><g class="participant-lifeline" data-entity-uid="part3" data-qualified-name="Models" data-source-line="45" id="part3-lifeline"><g><title>.mdd.models.</title><rect fill="#000000" fill-opacity="0.00000" height="945.4453" width="8" x="741.1392" y="135.4648"/><line style="stroke:#181818;stroke-width:0.5;stroke-dasharray:5,5;" x1="744.8936" x2="744.8936" y1="135.4648" y2="1080.9102"/></g></g><g class="participant-lifeline" data-entity-uid="part4" data-qualified-name="Target" data-source-line="46" id="part4-lifeline"><g><title>...atlas-ate-server</title><rect fill="#000000" fill-opacity="0.00000" height="945.4453" width="8" x="931.6934" y="135.4648"/><line style="stroke:#181818;stroke-width:0.5;stroke-dasharray:5,5;" x1="935.3848" x2="935.3848" y1="135.4648" y2="1080.9102"/></g></g><g class="participant-lifeline" data-entity-uid="part5" data-qualified-name="Store" data-source-line="47" id="part5-lifeline"><g><title>.mdd.deploy.</title><rect fill="#000000" fill-opacity="0.00000" height="945.4453" width="8" x="1110.8511" y="135.4648"/><line style="stroke:#181818;stroke-width:0.5;stroke-dasharray:5,5;" x1="1114.002" x2="1114.002" y1="135.4648" y2="1080.9102"/></g></g><g class="participant-lifeline" data-entity-uid="part6" data-qualified-name="Infra" data-source-line="48" id="part6-lifeline"><g><title>...atlas-ate-server.</title><rect fill="#000000" fill-opacity="0.00000" height="945.4453" width="8" x="1290.1284" y="135.4648"/><line style="stroke:#181818;stroke-width:0.5;stroke-dasharray:5,5;" x1="1293.7002" x2="1293.7002" y1="135.4648" y2="1080.9102"/></g></g><g class="participant-lifeline" data-entity-uid="part7" data-qualified-name="Render" data-source-line="49" id="part7-lifeline"><g><title>.mdd-render</title><rect fill="#000000" fill-opacity="0.00000" height="945.4453" width="8" x="1439.9028" y="135.4648"/><line style="stroke:#181818;stroke-width:0.5;stroke-dasharray:5,5;" x1="1443.5566" x2="1443.5566" y1="135.4648" y2="1080.9102"/></g></g><g class="participant-lifeline" data-entity-uid="part8" data-qualified-name="Rendered" data-source-line="50" id="part8-lifeline"><g><title>.mdd.rendered.deploy.</title><rect fill="#000000" fill-opacity="0.00000" height="945.4453" width="8" x="1736.8521" y="135.4648"/><line style="stroke:#181818;stroke-width:0.5;stroke-dasharray:5,5;" x1="1740.002" x2="1740.002" y1="135.4648" y2="1080.9102"/></g></g><g class="participant participant-head" data-entity-uid="part1" data-qualified-name="Op" data-source-line="43" id="part1-head"><text fill="#000000" font-family="sans-serif" font-size="14" font-style="italic" lengthAdjust="spacing" textLength="56.6357" x="31.938" y="116.0234">&#171;added&#187;</text><text fill="#000000" font-family="sans-serif" font-size="14" lengthAdjust="spacing" textLength="60.5117" x="30" y="132.5117">Operator</text><ellipse cx="63.2559" cy="50.9883" fill="#90EE90" rx="8" ry="8" style="stroke:#181818;stroke-width:0.5;"/><path d="M63.2559,58.9883 L63.2559,85.9883 M50.2559,66.9883 L76.2559,66.9883 M63.2559,85.9883 L50.2559,100.9883 M63.2559,85.9883 L76.2559,100.9883" fill="none" style="stroke:#181818;stroke-width:0.5;"/></g><g class="participant participant-tail" data-entity-uid="part1" data-qualified-name="Op" data-source-line="43" id="part1-tail"><text fill="#000000" font-family="sans-serif" font-size="14" font-style="italic" lengthAdjust="spacing" textLength="56.6357" x="31.938" y="1093.4453">&#171;added&#187;</text><text fill="#000000" font-family="sans-serif" font-size="14" lengthAdjust="spacing" textLength="60.5117" x="30" y="1109.9336">Operator</text><ellipse cx="63.2559" cy="1121.3867" fill="#90EE90" rx="8" ry="8" style="stroke:#181818;stroke-width:0.5;"/><path d="M63.2559,1129.3867 L63.2559,1156.3867 M50.2559,1137.3867 L76.2559,1137.3867 M63.2559,1156.3867 L50.2559,1171.3867 M63.2559,1156.3867 L76.2559,1171.3867" fill="none" style="stroke:#181818;stroke-width:0.5;"/></g><g class="participant participant-head" data-entity-uid="part2" data-qualified-name="Dep" data-source-line="44" id="part2-head"><rect fill="#E2E2F0" height="46.9766" rx="2.5" ry="2.5" style="stroke:#181818;stroke-width:0.5;" width="105.5195" x="399.48" y="87.4883"/><text fill="#000000" font-family="sans-serif" font-size="14" lengthAdjust="spacing" textLength="91.5195" x="406.48" y="108.0234">/mdd-deploy</text><text fill="#000000" font-family="sans-serif" font-size="14" lengthAdjust="spacing" textLength="79.6113" x="412.4341" y="124.5117">(utility skill)</text></g><g class="participant participant-tail" data-entity-uid="part2" data-qualified-name="Dep" data-source-line="44" id="part2-tail"><rect fill="#E2E2F0" height="46.9766" rx="2.5" ry="2.5" style="stroke:#181818;stroke-width:0.5;" width="105.5195" x="399.48" y="1079.9102"/><text fill="#000000" font-family="sans-serif" font-size="14" lengthAdjust="spacing" textLength="91.5195" x="406.48" y="1100.4453">/mdd-deploy</text><text fill="#000000" font-family="sans-serif" font-size="14" lengthAdjust="spacing" textLength="79.6113" x="412.4341" y="1116.9336">(utility skill)</text></g><g class="participant participant-head" data-entity-uid="part3" data-qualified-name="Models" data-source-line="45" id="part3-head"><rect fill="#E2E2F0" height="46.9766" rx="2.5" ry="2.5" style="stroke:#181818;stroke-width:0.5;" width="186.4912" x="651.8936" y="87.4883"/><text fill="#000000" font-family="sans-serif" font-size="14" lengthAdjust="spacing" textLength="99.2715" x="695.5034" y="108.0234">.mdd/models/</text><text fill="#000000" font-family="sans-serif" font-size="14" lengthAdjust="spacing" textLength="172.4912" x="658.8936" y="124.5117">components + use-cases</text></g><g class="participant participant-tail" data-entity-uid="part3" data-qualified-name="Models" data-source-line="45" id="part3-tail"><rect fill="#E2E2F0" height="46.9766" rx="2.5" ry="2.5" style="stroke:#181818;stroke-width:0.5;" width="186.4912" x="651.8936" y="1079.9102"/><text fill="#000000" font-family="sans-serif" font-size="14" lengthAdjust="spacing" textLength="99.2715" x="695.5034" y="1100.4453">.mdd/models/</text><text fill="#000000" font-family="sans-serif" font-size="14" lengthAdjust="spacing" textLength="172.4912" x="658.8936" y="1116.9336">components + use-cases</text></g><g class="participant participant-head" data-entity-uid="part4" data-qualified-name="Target" data-source-line="46" id="part4-head"><rect fill="#E2E2F0" height="46.9766" rx="2.5" ry="2.5" style="stroke:#181818;stroke-width:0.5;" width="174.6172" x="848.3848" y="87.4883"/><text fill="#000000" font-family="sans-serif" font-size="14" lengthAdjust="spacing" textLength="126.4922" x="872.4473" y="108.0234">../atlas-ate-server</text><text fill="#000000" font-family="sans-serif" font-size="14" lengthAdjust="spacing" textLength="160.6172" x="855.3848" y="124.5117">(target repo, read-only)</text></g><g class="participant participant-tail" data-entity-uid="part4" data-qualified-name="Target" data-source-line="46" id="part4-tail"><rect fill="#E2E2F0" height="46.9766" rx="2.5" ry="2.5" style="stroke:#181818;stroke-width:0.5;" width="174.6172" x="848.3848" y="1079.9102"/><text fill="#000000" font-family="sans-serif" font-size="14" lengthAdjust="spacing" textLength="126.4922" x="872.4473" y="1100.4453">../atlas-ate-server</text><text fill="#000000" font-family="sans-serif" font-size="14" lengthAdjust="spacing" textLength="160.6172" x="855.3848" y="1116.9336">(target repo, read-only)</text></g><g class="participant participant-head" data-entity-uid="part5" data-qualified-name="Store" data-source-line="47" id="part5-head"><text fill="#000000" font-family="sans-serif" font-size="14" lengthAdjust="spacing" textLength="95.1904" x="1064.2559" y="116.0234">.mdd/deploy/</text><text fill="#000000" font-family="sans-serif" font-size="14" lengthAdjust="spacing" textLength="157.6982" x="1033.002" y="132.5117">azure-container-apps/</text><path d="M1096.8511,66.4883 C1096.8511,56.4883 1114.8511,56.4883 1114.8511,56.4883 C1114.8511,56.4883 1132.8511,56.4883 1132.8511,66.4883 L1132.8511,92.4883 C1132.8511,102.4883 1114.8511,102.4883 1114.8511,102.4883 C1114.8511,102.4883 1096.8511,102.4883 1096.8511,92.4883 L1096.8511,66.4883" fill="#E2E2F0" style="stroke:#181818;stroke-width:0.5;"/><path d="M1096.8511,66.4883 C1096.8511,76.4883 1114.8511,76.4883 1114.8511,76.4883 C1114.8511,76.4883 1132.8511,76.4883 1132.8511,66.4883" fill="none" style="stroke:#181818;stroke-width:0.5;"/></g><g class="participant participant-tail" data-entity-uid="part5" data-qualified-name="Store" data-source-line="47" id="part5-tail"><text fill="#000000" font-family="sans-serif" font-size="14" lengthAdjust="spacing" textLength="95.1904" x="1064.2559" y="1093.4453">.mdd/deploy/</text><text fill="#000000" font-family="sans-serif" font-size="14" lengthAdjust="spacing" textLength="157.6982" x="1033.002" y="1109.9336">azure-container-apps/</text><path d="M1096.8511,1122.8867 C1096.8511,1112.8867 1114.8511,1112.8867 1114.8511,1112.8867 C1114.8511,1112.8867 1132.8511,1112.8867 1132.8511,1122.8867 L1132.8511,1148.8867 C1132.8511,1158.8867 1114.8511,1158.8867 1114.8511,1158.8867 C1114.8511,1158.8867 1096.8511,1158.8867 1096.8511,1148.8867 L1096.8511,1122.8867" fill="#E2E2F0" style="stroke:#181818;stroke-width:0.5;"/><path d="M1096.8511,1122.8867 C1096.8511,1132.8867 1114.8511,1132.8867 1114.8511,1132.8867 C1114.8511,1132.8867 1132.8511,1132.8867 1132.8511,1122.8867" fill="none" style="stroke:#181818;stroke-width:0.5;"/></g><g class="participant participant-head" data-entity-uid="part6" data-qualified-name="Infra" data-source-line="48" id="part6-head"><rect fill="#E2E2F0" height="46.9766" rx="2.5" ry="2.5" style="stroke:#181818;stroke-width:0.5;" width="174.8564" x="1206.7002" y="87.4883"/><text fill="#000000" font-family="sans-serif" font-size="14" lengthAdjust="spacing" textLength="133.834" x="1227.2114" y="108.0234">../atlas-ate-server/</text><text fill="#000000" font-family="sans-serif" font-size="14" lengthAdjust="spacing" textLength="160.8564" x="1213.7002" y="124.5117">infra/ (generated Bicep)</text></g><g class="participant participant-tail" data-entity-uid="part6" data-qualified-name="Infra" data-source-line="48" id="part6-tail"><rect fill="#E2E2F0" height="46.9766" rx="2.5" ry="2.5" style="stroke:#181818;stroke-width:0.5;" width="174.8564" x="1206.7002" y="1079.9102"/><text fill="#000000" font-family="sans-serif" font-size="14" lengthAdjust="spacing" textLength="133.834" x="1227.2114" y="1100.4453">../atlas-ate-server/</text><text fill="#000000" font-family="sans-serif" font-size="14" lengthAdjust="spacing" textLength="160.8564" x="1213.7002" y="1116.9336">infra/ (generated Bicep)</text></g><g class="participant participant-head" data-entity-uid="part7" data-qualified-name="Render" data-source-line="49" id="part7-head"><rect fill="#E2E2F0" height="30.4883" rx="2.5" ry="2.5" style="stroke:#181818;stroke-width:0.5;" width="104.6924" x="1391.5566" y="103.9766"/><text fill="#000000" font-family="sans-serif" font-size="14" lengthAdjust="spacing" textLength="90.6924" x="1398.5566" y="124.5117">/mdd-render</text></g><g class="participant participant-tail" data-entity-uid="part7" data-qualified-name="Render" data-source-line="49" id="part7-tail"><rect fill="#E2E2F0" height="30.4883" rx="2.5" ry="2.5" style="stroke:#181818;stroke-width:0.5;" width="104.6924" x="1391.5566" y="1079.9102"/><text fill="#000000" font-family="sans-serif" font-size="14" lengthAdjust="spacing" textLength="90.6924" x="1398.5566" y="1100.4453">/mdd-render</text></g><g class="participant participant-head" data-entity-uid="part8" data-qualified-name="Rendered" data-source-line="50" id="part8-head"><text fill="#000000" font-family="sans-serif" font-size="14" lengthAdjust="spacing" textLength="163.7002" x="1656.002" y="132.5117">.mdd/rendered/deploy/</text><path d="M1722.8521,82.9766 C1722.8521,72.9766 1740.8521,72.9766 1740.8521,72.9766 C1740.8521,72.9766 1758.8521,72.9766 1758.8521,82.9766 L1758.8521,108.9766 C1758.8521,118.9766 1740.8521,118.9766 1740.8521,118.9766 C1740.8521,118.9766 1722.8521,118.9766 1722.8521,108.9766 L1722.8521,82.9766" fill="#E2E2F0" style="stroke:#181818;stroke-width:0.5;"/><path d="M1722.8521,82.9766 C1722.8521,92.9766 1740.8521,92.9766 1740.8521,92.9766 C1740.8521,92.9766 1758.8521,92.9766 1758.8521,82.9766" fill="none" style="stroke:#181818;stroke-width:0.5;"/></g><g class="participant participant-tail" data-entity-uid="part8" data-qualified-name="Rendered" data-source-line="50" id="part8-tail"><text fill="#000000" font-family="sans-serif" font-size="14" lengthAdjust="spacing" textLength="163.7002" x="1656.002" y="1093.4453">.mdd/rendered/deploy/</text><path d="M1722.8521,1106.3984 C1722.8521,1096.3984 1740.8521,1096.3984 1740.8521,1096.3984 C1740.8521,1096.3984 1758.8521,1096.3984 1758.8521,1106.3984 L1758.8521,1132.3984 C1758.8521,1142.3984 1740.8521,1142.3984 1740.8521,1142.3984 C1740.8521,1142.3984 1722.8521,1142.3984 1722.8521,1132.3984 L1722.8521,1106.3984" fill="#E2E2F0" style="stroke:#181818;stroke-width:0.5;"/><path d="M1722.8521,1106.3984 C1722.8521,1116.3984 1740.8521,1116.3984 1740.8521,1116.3984 C1740.8521,1116.3984 1758.8521,1116.3984 1758.8521,1106.3984" fill="none" style="stroke:#181818;stroke-width:0.5;"/></g><rect fill="#EEEEEE" height="3" style="stroke:#EEEEEE;stroke-width:1;" width="1830.7021" x="0" y="166.1201"/><line style="stroke:#000000;stroke-width:1;" x1="0" x2="1830.7021" y1="166.1201" y2="166.1201"/><line style="stroke:#000000;stroke-width:1;" x1="0" x2="1830.7021" y1="169.1201" y2="169.1201"/><rect fill="#EEEEEE" height="23.3105" style="stroke:#000000;stroke-width:2;" width="184.625" x="823.0386" y="155.4648"/><text fill="#000000" font-family="sans-serif" font-size="13" font-weight="700" lengthAdjust="spacing" textLength="166.3403" x="829.0386" y="172.0332">SEQ-DEPLOY-GUIDANCE</text><g class="message" data-entity-1="part1" data-entity-2="part2" data-source-line="53" id="msg1"><polygon fill="#181818" points="440.2397,206.0859,450.2397,210.0859,440.2397,214.0859,444.2397,210.0859" style="stroke:#181818;stroke-width:1;"/><line style="stroke:#181818;stroke-width:1;" x1="63.2559" x2="446.2397" y1="210.0859" y2="210.0859"/><text fill="#000000" font-family="sans-serif" font-size="13" lengthAdjust="spacing" textLength="258.9717" x="70.2559" y="205.3438">/mdd-deploy &lt;deployment description&gt;</text></g><path d="M10,225.0859 L72.1387,225.0859 L72.1387,232.3965 L62.1387,242.3965 L10,242.3965 L10,225.0859" fill="#EEEEEE" style="stroke:#000000;stroke-width:1.5;"/><rect fill="none" height="597.0293" style="stroke:#000000;stroke-width:1.5;" width="1381.5566" x="10" y="225.0859"/><text fill="#000000" font-family="sans-serif" font-size="13" font-weight="700" lengthAdjust="spacing" textLength="17.1387" x="25" y="238.6543">alt</text><text fill="#000000" font-family="sans-serif" font-size="11" font-weight="700" lengthAdjust="spacing" textLength="187.9131" x="87.1387" y="237.7207">[target != azure-container-apps]</text><g class="message" data-entity-1="part2" data-entity-2="part1" data-source-line="55" id="msg2"><polygon fill="#181818" points="74.2559,259.707,64.2559,263.707,74.2559,267.707,70.2559,263.707" style="stroke:#181818;stroke-width:1;"/><line style="stroke:#181818;stroke-width:1;stroke-dasharray:2,2;" x1="68.2559" x2="451.2397" y1="263.707" y2="263.707"/><text fill="#000000" font-family="sans-serif" font-size="13" lengthAdjust="spacing" textLength="364.9839" x="80.2559" y="258.9648">not yet supported (v1 = azure-container-apps only); stop</text></g><line style="stroke:#000000;stroke-width:1;stroke-dasharray:2,2;" x1="10" x2="1391.5566" y1="272.707" y2="272.707"/><text fill="#000000" font-family="sans-serif" font-size="11" font-weight="700" lengthAdjust="spacing" textLength="193.2144" x="15" y="283.3418">[target == azure-container-apps]</text><g class="message" data-entity-1="part2" data-entity-2="part3" data-source-line="57" id="msg3"><polygon fill="#181818" points="733.1392,303.9727,743.1392,307.9727,733.1392,311.9727,737.1392,307.9727" style="stroke:#181818;stroke-width:1;"/><line style="stroke:#181818;stroke-width:1;" x1="452.2397" x2="739.1392" y1="307.9727" y2="307.9727"/><text fill="#000000" font-family="sans-serif" font-size="13" lengthAdjust="spacing" textLength="268.8994" x="459.2397" y="303.2305">read components + use-cases (the "what")</text></g><g class="message" data-entity-1="part2" data-entity-2="part4" data-source-line="58" id="msg4"><polygon fill="#181818" points="923.6934,348.5938,933.6934,352.5938,923.6934,356.5938,927.6934,352.5938" style="stroke:#181818;stroke-width:1;"/><line style="stroke:#181818;stroke-width:1;" x1="452.2397" x2="929.6934" y1="352.5938" y2="352.5938"/><text fill="#000000" font-family="sans-serif" font-size="13" lengthAdjust="spacing" textLength="303.0244" x="459.2397" y="332.541">read README, Dockerfile, docker-compose.yml,</text><text fill="#000000" font-family="sans-serif" font-size="13" lengthAdjust="spacing" textLength="199.6084" x="459.2397" y="347.8516">.env.example, src (READ-ONLY)</text></g><path d="M20,367.5938 L87.1851,367.5938 L87.1851,374.9043 L77.1851,384.9043 L20,384.9043 L20,367.5938" fill="#EEEEEE" style="stroke:#000000;stroke-width:1.5;"/><rect fill="none" height="126.5527" style="stroke:#000000;stroke-width:1.5;" width="756.0884" x="20" y="367.5938"/><text fill="#000000" font-family="sans-serif" font-size="13" font-weight="700" lengthAdjust="spacing" textLength="22.1851" x="35" y="381.1621">opt</text><text fill="#000000" font-family="sans-serif" font-size="11" font-weight="700" lengthAdjust="spacing" textLength="287.8853" x="102.1851" y="380.2285">[topology or security choice genuinely ambiguous]</text><g class="message" data-entity-1="part2" data-entity-2="part1" data-source-line="60" id="msg5"><polygon fill="#181818" points="74.2559,402.2148,64.2559,406.2148,74.2559,410.2148,70.2559,406.2148" style="stroke:#181818;stroke-width:1;"/><line style="stroke:#181818;stroke-width:1;" x1="68.2559" x2="451.2397" y1="406.2148" y2="406.2148"/><text fill="#000000" font-family="sans-serif" font-size="13" lengthAdjust="spacing" textLength="157.6821" x="80.2559" y="401.4727">ask clarifying question(s)</text></g><g class="message" data-entity-1="part1" data-entity-2="part2" data-source-line="61" id="msg6"><polygon fill="#181818" points="440.2397,431.5254,450.2397,435.5254,440.2397,439.5254,444.2397,435.5254" style="stroke:#181818;stroke-width:1;"/><line style="stroke:#181818;stroke-width:1;stroke-dasharray:2,2;" x1="63.2559" x2="446.2397" y1="435.5254" y2="435.5254"/><text fill="#000000" font-family="sans-serif" font-size="13" lengthAdjust="spacing" textLength="44.4526" x="70.2559" y="430.7832">answer</text></g><path d="M457,448.5254 L457,488.5254 L766,488.5254 L766,458.5254 L756,448.5254 L457,448.5254" fill="#FEFFDD" style="stroke:#181818;stroke-width:0.5;"/><path d="M756,448.5254 L756,458.5254 L766,458.5254 L756,448.5254" fill="#FEFFDD" style="stroke:#181818;stroke-width:0.5;"/><text fill="#000000" font-family="sans-serif" font-size="13" lengthAdjust="spacing" textLength="288.0884" x="463" y="466.0938">Mandatory pause. The skill NEVER guesses an</text><text fill="#000000" font-family="sans-serif" font-size="13" lengthAdjust="spacing" textLength="246.5303" x="463" y="481.4043">ambiguous topology/security decision.</text><g class="message" data-entity-1="part2" data-entity-2="part5" data-source-line="67" id="msg7"><polygon fill="#181818" points="1102.8511,533.7676,1112.8511,537.7676,1102.8511,541.7676,1106.8511,537.7676" style="stroke:#181818;stroke-width:1;"/><line style="stroke:#181818;stroke-width:1;" x1="452.2397" x2="1108.8511" y1="537.7676" y2="537.7676"/><text fill="#000000" font-family="sans-serif" font-size="13" lengthAdjust="spacing" textLength="297.5591" x="459.2397" y="517.7148">write diagram.puml (UML deployment diagram;</text><text fill="#000000" font-family="sans-serif" font-size="13" lengthAdjust="spacing" textLength="263.9482" x="459.2397" y="533.0254">documentation-only security stereotypes)</text></g><g class="message" data-entity-1="part2" data-entity-2="part6" data-source-line="68" id="msg8"><polygon fill="#181818" points="1282.1284,593.6992,1292.1284,597.6992,1282.1284,601.6992,1286.1284,597.6992" style="stroke:#181818;stroke-width:1;"/><line style="stroke:#181818;stroke-width:1;" x1="452.2397" x2="1288.1284" y1="597.6992" y2="597.6992"/><text fill="#000000" font-family="sans-serif" font-size="13" lengthAdjust="spacing" textLength="249.7041" x="459.2397" y="562.3359">generate infra/main.bicep (+ modules):</text><text fill="#000000" font-family="sans-serif" font-size="13" lengthAdjust="spacing" textLength="335.0737" x="459.2397" y="577.6465">Container Apps, ACR, Azure DB for PostgreSQL (TLS),</text><text fill="#000000" font-family="sans-serif" font-size="13" lengthAdjust="spacing" textLength="328.1992" x="459.2397" y="592.957">Key Vault + secret refs, ingress 8080, migration job</text></g><g class="message" data-entity-1="part2" data-entity-2="part5" data-source-line="69" id="msg9"><polygon fill="#181818" points="1102.8511,653.6309,1112.8511,657.6309,1102.8511,661.6309,1106.8511,657.6309" style="stroke:#181818;stroke-width:1;"/><line style="stroke:#181818;stroke-width:1;" x1="452.2397" x2="1108.8511" y1="657.6309" y2="657.6309"/><text fill="#000000" font-family="sans-serif" font-size="13" lengthAdjust="spacing" textLength="336.1021" x="459.2397" y="622.2676">write runbook.md (numbered steps; exact command,</text><text fill="#000000" font-family="sans-serif" font-size="13" lengthAdjust="spacing" textLength="348.7466" x="459.2397" y="637.5781">location, env/secret; STOP before every state-changing</text><text fill="#000000" font-family="sans-serif" font-size="13" lengthAdjust="spacing" textLength="300.7139" x="459.2397" y="652.8887">or go-live step incl. the billing production gate)</text></g><path d="M457,670.6309 L457,771.6309 L775,771.6309 L775,680.6309 L765,670.6309 L457,670.6309" fill="#FEFFDD" style="stroke:#181818;stroke-width:0.5;"/><path d="M765,670.6309 L765,680.6309 L775,680.6309 L765,670.6309" fill="#FEFFDD" style="stroke:#181818;stroke-width:0.5;"/><text fill="#000000" font-family="sans-serif" font-size="13" lengthAdjust="spacing" textLength="291.0591" x="463" y="688.1992">Enforces every atlas-ate-server invariant from</text><text fill="#000000" font-family="sans-serif" font-size="13" lengthAdjust="spacing" textLength="295.585" x="463" y="703.5098">.mdd/docs/deploy-profile.md: Key-Vault-only</text><text fill="#000000" font-family="sans-serif" font-size="13" lengthAdjust="spacing" textLength="297.9019" x="463" y="718.8203">secrets, App Attest required, billing production</text><text fill="#000000" font-family="sans-serif" font-size="13" lengthAdjust="spacing" textLength="267.4077" x="463" y="734.1309">multi-factor gate, BYOK never touches the</text><text fill="#000000" font-family="sans-serif" font-size="13" lengthAdjust="spacing" textLength="291.478" x="463" y="749.4414">server, DB TLS + at-rest, pre-traffic migration</text><text fill="#000000" font-family="sans-serif" font-size="13" lengthAdjust="spacing" textLength="161.8271" x="463" y="764.752">job, non-root, port 8080.</text><g class="message" data-entity-1="part2" data-entity-2="part1" data-source-line="78" id="msg10"><polygon fill="#181818" points="74.2559,810.1152,64.2559,814.1152,74.2559,818.1152,70.2559,814.1152" style="stroke:#181818;stroke-width:1;"/><line style="stroke:#181818;stroke-width:1;stroke-dasharray:2,2;" x1="68.2559" x2="451.2397" y1="814.1152" y2="814.1152"/><text fill="#000000" font-family="sans-serif" font-size="13" lengthAdjust="spacing" textLength="246.2256" x="80.2559" y="794.0625">report written files; review the diagram</text><text fill="#000000" font-family="sans-serif" font-size="13" lengthAdjust="spacing" textLength="317.6812" x="80.2559" y="809.373">and run the runbook yourself. Executes NOTHING.</text></g><rect fill="#EEEEEE" height="3" style="stroke:#EEEEEE;stroke-width:1;" width="1830.7021" x="0" y="849.7705"/><line style="stroke:#000000;stroke-width:1;" x1="0" x2="1830.7021" y1="849.7705" y2="849.7705"/><line style="stroke:#000000;stroke-width:1;" x1="0" x2="1830.7021" y1="852.7705" y2="852.7705"/><rect fill="#EEEEEE" height="23.3105" style="stroke:#000000;stroke-width:2;" width="169.8477" x="830.4272" y="839.1152"/><text fill="#000000" font-family="sans-serif" font-size="13" font-weight="700" lengthAdjust="spacing" textLength="151.563" x="836.4272" y="855.6836">SEQ-DEPLOY-INSPECT</text><g class="message" data-entity-1="part1" data-entity-2="part7" data-source-line="82" id="msg11"><polygon fill="#181818" points="1431.9028,889.7363,1441.9028,893.7363,1431.9028,897.7363,1435.9028,893.7363" style="stroke:#181818;stroke-width:1;"/><line style="stroke:#181818;stroke-width:1;" x1="63.2559" x2="1437.9028" y1="893.7363" y2="893.7363"/><text fill="#000000" font-family="sans-serif" font-size="13" lengthAdjust="spacing" textLength="84.2144" x="70.2559" y="888.9941">/mdd-render</text></g><g class="message" data-entity-1="part7" data-entity-2="part5" data-source-line="83" id="msg12"><polygon fill="#181818" points="1125.8511,919.0469,1115.8511,923.0469,1125.8511,927.0469,1121.8511,923.0469" style="stroke:#181818;stroke-width:1;"/><line style="stroke:#181818;stroke-width:1;" x1="1119.8511" x2="1442.9028" y1="923.0469" y2="923.0469"/><text fill="#000000" font-family="sans-serif" font-size="13" lengthAdjust="spacing" textLength="182.2983" x="1131.8511" y="918.3047">read .mdd/deploy/**/*.puml</text></g><g class="message" data-entity-1="part7" data-entity-2="part8" data-source-line="84" id="msg13"><polygon fill="#181818" points="1728.8521,963.668,1738.8521,967.668,1728.8521,971.668,1732.8521,967.668" style="stroke:#181818;stroke-width:1;"/><line style="stroke:#181818;stroke-width:1;" x1="1443.9028" x2="1734.8521" y1="967.668" y2="967.668"/><text fill="#000000" font-family="sans-serif" font-size="13" lengthAdjust="spacing" textLength="238.5068" x="1450.9028" y="947.6152">write .mdd/rendered/deploy/**/*.svg</text><text fill="#000000" font-family="sans-serif" font-size="13" lengthAdjust="spacing" textLength="272.9492" x="1450.9028" y="962.9258">(deterministic mirror; additive, non-gating)</text></g><g class="message" data-entity-1="part7" data-entity-2="part1" data-source-line="85" id="msg14"><polygon fill="#181818" points="74.2559,992.9785,64.2559,996.9785,74.2559,1000.9785,70.2559,996.9785" style="stroke:#181818;stroke-width:1;"/><line style="stroke:#181818;stroke-width:1;stroke-dasharray:2,2;" x1="68.2559" x2="1442.9028" y1="996.9785" y2="996.9785"/><text fill="#000000" font-family="sans-serif" font-size="13" lengthAdjust="spacing" textLength="108.9258" x="80.2559" y="992.2363">rendered SVG list</text></g><path d="M947,1009.9785 L947,1064.9785 L1280,1064.9785 L1280,1019.9785 L1270,1009.9785 L947,1009.9785" fill="#FEFFDD" style="stroke:#181818;stroke-width:0.5;"/><path d="M1270,1009.9785 L1270,1019.9785 L1280,1019.9785 L1270,1009.9785" fill="#FEFFDD" style="stroke:#181818;stroke-width:0.5;"/><text fill="#000000" font-family="sans-serif" font-size="13" lengthAdjust="spacing" textLength="275.1138" x="953" y="1027.5469">.mdd/deploy/ is an inspection artifact only.</text><text fill="#000000" font-family="sans-serif" font-size="13" lengthAdjust="spacing" textLength="312.9966" x="953" y="1042.8574">/mdd-validate, /mdd-review and the /mdd-cycle</text><text fill="#000000" font-family="sans-serif" font-size="13" lengthAdjust="spacing" textLength="155.7144" x="953" y="1058.168">parity loop never read it.</text><?plantuml-src jLVRRjj647tdLqpTXyg9I2KlHMB7HcnBIOtObcCv0G8O25RaKjwOt6LsIJbAKQ0VqI_ib_JCBdMDchP0xGT18dTcTiuvSx6xKxeILfJKE9aA9-dNYEXOf7SJQngTdPZ2s1SlH9R9xF2GVdp-P31u_cJR4IjBCms7Nhqw_ldaQVHRv1RUqq8uzr2-JLaPBNNzGFvTBUg7miNAj1PwKZoKVv7MnZwGRtpMAbML-9-H_ubUggmp6hoD-uFBi-67-FMxq_xHnSbWzzjNfnUZoy79jNzZPTvvDnfijTfujpJ3ovF6MgWdTYgJP1jTgr9INfXx4evKMHMon6kPaT9KI_o67DpUtdc__p6u-pXwStfs1az2PrJVIf9VQgcH--Rngy55Vt0LZYTqZPD0ioXeRB8PASUsy2A_oBIfnHYYI8skBJZqNiM4DPwR0bTp-wHgkhSAlebvo77A-Gi8k40MOsFkvXVIDBeUNexepz__OBCG08RQK2QhmimuGQwZ4WQ91-Lb9bswZOGkxHpz5rZseF5FK3c2wLXyRQoCEIkXjBIng2faBUn4rgwBWoAZfCooNcaoMJXwJ4dI4pLwHmpdiPDsAgq_5XjTpBgG8DeM6KsY7Aj9eseyyw04Do6vthQelKo92LISL4rPT0dGIijblYLWJ-dSYbu9usIiKbdDOp0f36my4On32peYTqdgtDWKIe3zh0Kvhgp95LXLUYgiGjbq0pbMLiRMdgoM6e1LtoezINPsjt7HolVVKB4gENGoMT6pFUe1dDYoH86cm5Ehla8EuRAho3rwr7la4QBQG3aEcU1mgRHoAFrmDFYHwpPkEg5IMMjiGaTPfcerbLql0M3L9bQh6c3ukmHJ0eEPq82DeL3QLT2D0hkTD9JeRXI5XhOph9WkOtUuHeSLBPfDjDgLTbQSt-XEKwi24Wb5j-jD-x9QjrYHN-z6BqOBQn5IYtb4Eczvxizi67yh7eGD-lOiTvVY3V6l_Rie4wXtdhuxg-ZVwAtAzOOZ92__CJfS1F5IPwxmZ8vPmo7yAR_S0bdWr1-vybytRxX9-ifHcKNHmG5jQHrqS121g_YGOQUzDUfVh3GYbhjL5LD_68cYRZi4_N10sm31N65_CVmEsIrgXsOuxfgAwmePTwPFQRijUIhsKHccYi2ddCSw-7wimvP_sWjTQxjGgCCjOkV-LjJG-y8qa3utlHeSzS_HLliclPEM6qINClyzzbwTJ6PeKJSwaNgQo2-2wxrBpgRKOTjuU77sWRsR2aYP2eDrCYCK2HQwnhBUqri3ohd7DKYacBNTqZISpk9M7ZlXxdXNiogVeKhfSoCTqz1nk_xeCC0Sw1FQtKCP_1oGOtIgoMrD9lT5HVxl78NCPJeBdNfrvbqCtW-kKF7ICL12jnQBgorIwItoo6Ig76wJ-BCGcuyR-QzBT7rbu7gXHw-sUUgyEpzRdNZjo_qR3S0RVYGuMr-VI_YuFqfJpohfLaZqfOCmYycnEIMeyvZGI9e2Pdit-cIk8pg2ZhfqT7A53vOOzOynrIrT6bTFh1ozFQFEzTbe5vI_aJDwBngKm6E-Z_Lj98SroB50ZfuzUVQaYqwBD7od_6J6VuV4SZnHHpVbc2lLJmJi4b1LkbW04BSmgVV7WspQ2v7t_QoZiSpPQvWLVZMEqrkiiBZHZKOM4nCNQFPXrYYT5ecVasDmpeh23CoQqDLvQZAWsyKp21DqFfM-sG8MGvHoQqfl4dgdILrlVU3Y-Hu1ojX3wTdrvqDUp4LLqL6DcSdmVcuKaEbkkR4tAk52nNcOGvn2buu_3D-Gvdj2j4rwAyCc5qBmPRjCCIW5Yw96StMO_1Lw2tQxFCSSNV3dRS1X69NM63x8km7pd4Hheb_hUUqAmKnZzIJE6hHQELNotkFVIXqZHVjDnJ-ShuapqrWdYpoXmNmrl1XU_t9wyJg9kBOs-dcxVYpRUMZyjBPOHEt35HqkzxlDzMBby7o8B7JxtIK3utLz9GbBnpw9BKl7xYBC4hOssEZzQohW8Ogy6Wrp6KOihTsOjtIXLtUJ-VBj9mbJv36OYWAh38kZXSGJCV__m3zBPsd1xZ5zkSiKnbIjY3nEglROUxR_0W00?></g></svg>