<svg xmlns="http://www.w3.org/2000/svg" xmlns:xlink="http://www.w3.org/1999/xlink" contentStyleType="text/css" data-diagram-type="DESCRIPTION" height="777px" preserveAspectRatio="none" style="width:2526px;height:777px;background:#FFFFFF;" version="1.1" viewBox="0 0 2526 777" width="2526px" zoomAndPan="magnify"><?plantuml 1.2026.3?><defs/><g><g class="title" data-source-line="38"><text fill="#000000" font-family="sans-serif" font-size="14" font-weight="700" lengthAdjust="spacing" textLength="369.8105" x="1074.6797" y="23.5352">mdd-viewer render pipeline &#8212; ownership (current)</text></g><!--cluster SVG rasterization (external crates)--><g class="cluster" data-qualified-name="SVG rasterization .external crates." data-source-line="48" id="ent0008"><path d="M2088.67,340.8914 L2336.8096,340.8914 A3.75,3.75 0 0 1 2339.3096,343.3914 L2346.3096,363.3797 L2508.67,363.3797 A2.5,2.5 0 0 1 2511.17,365.8797 L2511.17,623.5914 A2.5,2.5 0 0 1 2508.67,626.0914 L2088.67,626.0914 A2.5,2.5 0 0 1 2086.17,623.5914 L2086.17,343.3914 A2.5,2.5 0 0 1 2088.67,340.8914" fill="none" style="stroke:#000000;stroke-width:1.5;"/><line style="stroke:#000000;stroke-width:1.5;" x1="2086.17" x2="2346.3096" y1="363.3797" y2="363.3797"/><text fill="#000000" font-family="sans-serif" font-size="14" font-weight="700" lengthAdjust="spacing" textLength="247.1396" x="2090.17" y="356.4266">SVG rasterization (external crates)</text></g><!--entity Usvg--><g class="entity" data-qualified-name="SVG rasterization .external crates..Usvg" data-source-line="49" id="ent0009"><rect fill="#F1F1F1" height="62.9766" rx="2.5" ry="2.5" style="stroke:#181818;stroke-width:0.5;" width="245.9736" x="2249.18" y="394.8914"/><rect fill="#F1F1F1" height="10" style="stroke:#181818;stroke-width:0.5;" width="15" x="2475.1536" y="399.8914"/><rect fill="#F1F1F1" height="2" style="stroke:#181818;stroke-width:0.5;" width="4" x="2473.1536" y="401.8914"/><rect fill="#F1F1F1" height="2" style="stroke:#181818;stroke-width:0.5;" width="4" x="2473.1536" y="405.8914"/><text fill="#000000" font-family="sans-serif" font-size="14" lengthAdjust="spacing" textLength="67.2178" x="2264.18" y="428.4266">usvg 0.44</text><text fill="#000000" font-family="sans-serif" font-size="14" lengthAdjust="spacing" textLength="205.9736" x="2264.18" y="444.9148">Options { fontdb, font_family }</text></g><!--entity FontDb--><g class="entity" data-qualified-name="SVG rasterization .external crates..FontDb" data-source-line="50" id="ent0010"><rect fill="#F1F1F1" height="62.9766" rx="2.5" ry="2.5" style="stroke:#181818;stroke-width:0.5;" width="222.957" x="2101.69" y="547.1114"/><rect fill="#F1F1F1" height="10" style="stroke:#181818;stroke-width:0.5;" width="15" x="2304.647" y="552.1114"/><rect fill="#F1F1F1" height="2" style="stroke:#181818;stroke-width:0.5;" width="4" x="2302.647" y="554.1114"/><rect fill="#F1F1F1" height="2" style="stroke:#181818;stroke-width:0.5;" width="4" x="2302.647" y="558.1114"/><text fill="#000000" font-family="sans-serif" font-size="14" lengthAdjust="spacing" textLength="80.7119" x="2116.69" y="580.6466">fontdb 0.22</text><text fill="#000000" font-family="sans-serif" font-size="14" lengthAdjust="spacing" textLength="182.957" x="2116.69" y="597.1348">(system fonts loaded once)</text></g><!--entity Resvg--><g class="entity" data-qualified-name="SVG rasterization .external crates..Resvg" data-source-line="51" id="ent0011"><rect fill="#F1F1F1" height="62.9766" rx="2.5" ry="2.5" style="stroke:#181818;stroke-width:0.5;" width="135.9014" x="2359.22" y="547.1114"/><rect fill="#F1F1F1" height="10" style="stroke:#181818;stroke-width:0.5;" width="15" x="2475.1214" y="552.1114"/><rect fill="#F1F1F1" height="2" style="stroke:#181818;stroke-width:0.5;" width="4" x="2473.1214" y="554.1114"/><rect fill="#F1F1F1" height="2" style="stroke:#181818;stroke-width:0.5;" width="4" x="2473.1214" y="558.1114"/><text fill="#000000" font-family="sans-serif" font-size="14" lengthAdjust="spacing" textLength="87.6162" x="2374.22" y="580.6466">resvg 0.44 +</text><text fill="#000000" font-family="sans-serif" font-size="14" lengthAdjust="spacing" textLength="95.9014" x="2374.22" y="597.1348">tiny-skia 0.11</text></g><!--entity Dev--><g class="entity" data-qualified-name="Dev" data-source-line="40" id="ent0002"><ellipse cx="50.1692" cy="69.9297" fill="#90EE90" rx="8" ry="8" style="stroke:#181818;stroke-width:0.5;"/><path d="M50.1692,77.9297 L50.1692,104.9297 M37.1692,85.9297 L63.1692,85.9297 M50.1692,104.9297 L37.1692,119.9297 M50.1692,104.9297 L63.1692,119.9297" fill="none" style="stroke:#181818;stroke-width:0.5;"/><text fill="#000000" font-family="sans-serif" font-size="14" lengthAdjust="spacing" textLength="68.3184" x="16.01" y="134.9648">Developer</text><text fill="#000000" font-family="sans-serif" font-size="14" font-style="italic" lengthAdjust="spacing" textLength="56.6357" x="21.8513" y="58.4766">&#171;added&#187;</text></g><!--entity Cli--><g class="entity" data-qualified-name="Cli" data-source-line="42" id="ent0003"><rect fill="#F1F1F1" height="62.9766" rx="2.5" ry="2.5" style="stroke:#181818;stroke-width:0.5;" width="157.4414" x="1263.45" y="214.9114"/><rect fill="#F1F1F1" height="10" style="stroke:#181818;stroke-width:0.5;" width="15" x="1400.8914" y="219.9114"/><rect fill="#F1F1F1" height="2" style="stroke:#181818;stroke-width:0.5;" width="4" x="1398.8914" y="221.9114"/><rect fill="#F1F1F1" height="2" style="stroke:#181818;stroke-width:0.5;" width="4" x="1398.8914" y="225.9114"/><text fill="#000000" font-family="sans-serif" font-size="14" lengthAdjust="spacing" textLength="54.0586" x="1278.45" y="248.4466">mdd-cli</text><text fill="#000000" font-family="sans-serif" font-size="14" lengthAdjust="spacing" textLength="117.4414" x="1278.45" y="264.9348">Commands::View</text></g><!--entity Viewer--><g class="entity" data-qualified-name="Viewer" data-source-line="43" id="ent0004"><rect fill="#F1F1F1" height="79.4648" rx="2.5" ry="2.5" style="stroke:#181818;stroke-width:0.5;" width="245.6797" x="1219.33" y="386.6514"/><rect fill="#F1F1F1" height="10" style="stroke:#181818;stroke-width:0.5;" width="15" x="1445.0097" y="391.6514"/><rect fill="#F1F1F1" height="2" style="stroke:#181818;stroke-width:0.5;" width="4" x="1443.0097" y="393.6514"/><rect fill="#F1F1F1" height="2" style="stroke:#181818;stroke-width:0.5;" width="4" x="1443.0097" y="397.6514"/><text fill="#000000" font-family="sans-serif" font-size="14" lengthAdjust="spacing" textLength="82.2021" x="1234.33" y="420.1866">mdd-viewer</text><text fill="#000000" font-family="sans-serif" font-size="14" lengthAdjust="spacing" textLength="171.9512" x="1234.33" y="436.6748">MddViewer (eframe::App)</text><text fill="#000000" font-family="sans-serif" font-size="14" lengthAdjust="spacing" textLength="205.6797" x="1234.33" y="453.1631">DiagramPage, shared_fontdb()</text></g><!--entity Core--><g class="entity" data-qualified-name="Core" data-source-line="44" id="ent0005"><rect fill="#F1F1F1" height="62.9766" rx="2.5" ry="2.5" style="stroke:#181818;stroke-width:0.5;" width="237.6953" x="1507.32" y="547.1114"/><rect fill="#F1F1F1" height="10" style="stroke:#181818;stroke-width:0.5;" width="15" x="1725.0153" y="552.1114"/><rect fill="#F1F1F1" height="2" style="stroke:#181818;stroke-width:0.5;" width="4" x="1723.0153" y="554.1114"/><rect fill="#F1F1F1" height="2" style="stroke:#181818;stroke-width:0.5;" width="4" x="1723.0153" y="558.1114"/><text fill="#000000" font-family="sans-serif" font-size="14" lengthAdjust="spacing" textLength="68.0928" x="1522.32" y="580.6466">mdd-core</text><text fill="#000000" font-family="sans-serif" font-size="14" lengthAdjust="spacing" textLength="197.6953" x="1522.32" y="597.1348">Project, ModelRegistry, Trace</text></g><!--entity Rendered--><g class="entity" data-qualified-name="Rendered" data-source-line="45" id="ent0006"><path d="M800.69,543.1114 L841.69,543.1114 A3.75,3.75 0 0 1 844.19,545.6114 L851.19,564.1114 L957.6441,564.1114 A2.5,2.5 0 0 1 960.1441,566.6114 L960.1441,611.588 A2.5,2.5 0 0 1 957.6441,614.088 L800.69,614.088 A2.5,2.5 0 0 1 798.19,611.588 L798.19,545.6114 A2.5,2.5 0 0 1 800.69,543.1114" fill="#F1F1F1" style="stroke:#181818;stroke-width:0.5;"/><line style="stroke:#181818;stroke-width:0.5;" x1="798.19" x2="851.19" y1="564.1114" y2="564.1114"/><text fill="#000000" font-family="sans-serif" font-size="14" lengthAdjust="spacing" textLength="110.9746" x="808.19" y="584.6466">.mdd/rendered/</text><text fill="#000000" font-family="sans-serif" font-size="14" lengthAdjust="spacing" textLength="131.9541" x="808.19" y="601.1348">(pre-rendered SVG)</text></g><!--entity Models--><g class="entity" data-qualified-name="Models" data-source-line="46" id="ent0007"><path d="M1507.11,699.4614 L1548.11,699.4614 A3.75,3.75 0 0 1 1550.61,701.9614 L1557.61,720.4614 L1745.234,720.4614 A2.5,2.5 0 0 1 1747.734,722.9614 L1747.734,751.4497 A2.5,2.5 0 0 1 1745.234,753.9497 L1507.11,753.9497 A2.5,2.5 0 0 1 1504.61,751.4497 L1504.61,701.9614 A2.5,2.5 0 0 1 1507.11,699.4614" fill="#F1F1F1" style="stroke:#181818;stroke-width:0.5;"/><line style="stroke:#181818;stroke-width:0.5;" x1="1504.61" x2="1557.61" y1="720.4614" y2="720.4614"/><text fill="#000000" font-family="sans-serif" font-size="14" lengthAdjust="spacing" textLength="213.124" x="1514.61" y="740.9966">.mdd/models/, .mdd/trace.yml</text></g><!--entity Egui--><g class="entity" data-qualified-name="Egui" data-source-line="53" id="ent0012"><rect fill="#F1F1F1" height="62.9766" rx="2.5" ry="2.5" style="stroke:#181818;stroke-width:0.5;" width="222.7998" x="15.77" y="547.1114"/><rect fill="#F1F1F1" height="10" style="stroke:#181818;stroke-width:0.5;" width="15" x="218.5698" y="552.1114"/><rect fill="#F1F1F1" height="2" style="stroke:#181818;stroke-width:0.5;" width="4" x="216.5698" y="554.1114"/><rect fill="#F1F1F1" height="2" style="stroke:#181818;stroke-width:0.5;" width="4" x="216.5698" y="558.1114"/><text fill="#000000" font-family="sans-serif" font-size="14" lengthAdjust="spacing" textLength="128.1602" x="30.77" y="580.6466">eframe / egui 0.30</text><text fill="#000000" font-family="sans-serif" font-size="14" lengthAdjust="spacing" textLength="182.7998" x="30.77" y="597.1348">(window, painter, textures)</text></g><!--entity OclRend--><g class="entity" data-qualified-name="OclRend" data-source-line="54" id="ent0013"><rect fill="#F1F1F1" height="79.4648" rx="2.5" ry="2.5" style="stroke:#181818;stroke-width:0.5;" width="195.8662" x="78.24" y="386.6514"/><rect fill="#F1F1F1" height="10" style="stroke:#181818;stroke-width:0.5;" width="15" x="254.1062" y="391.6514"/><rect fill="#F1F1F1" height="2" style="stroke:#181818;stroke-width:0.5;" width="4" x="252.1062" y="393.6514"/><rect fill="#F1F1F1" height="2" style="stroke:#181818;stroke-width:0.5;" width="4" x="252.1062" y="397.6514"/><text fill="#000000" font-family="sans-serif" font-size="14" lengthAdjust="spacing" textLength="83.3506" x="93.24" y="420.1866">mdd-render</text><text fill="#000000" font-family="sans-serif" font-size="14" lengthAdjust="spacing" textLength="155.8662" x="93.24" y="436.6748">synthesize_ocl_puml +</text><text fill="#000000" font-family="sans-serif" font-size="14" lengthAdjust="spacing" textLength="141.3604" x="93.24" y="453.1631">render_ocl_diagrams</text></g><!--entity Ocl--><g class="entity" data-qualified-name="Ocl" data-source-line="55" id="ent0014"><path d="M382.07,543.1114 L423.07,543.1114 A3.75,3.75 0 0 1 425.57,545.6114 L432.57,564.1114 L532.277,564.1114 A2.5,2.5 0 0 1 534.777,566.6114 L534.777,611.588 A2.5,2.5 0 0 1 532.277,614.088 L382.07,614.088 A2.5,2.5 0 0 1 379.57,611.588 L379.57,545.6114 A2.5,2.5 0 0 1 382.07,543.1114" fill="#F1F1F1" style="stroke:#181818;stroke-width:0.5;"/><line style="stroke:#181818;stroke-width:0.5;" x1="379.57" x2="432.57" y1="564.1114" y2="564.1114"/><text fill="#000000" font-family="sans-serif" font-size="14" lengthAdjust="spacing" textLength="125.207" x="389.57" y="584.6466">.mdd/constraints/</text><ellipse cx="395.07" cy="596.588" fill="#000000" rx="2.5" ry="2.5"/><text fill="#000000" font-family="sans-serif" font-size="14" lengthAdjust="spacing" textLength="24.2471" x="401.57" y="601.1348">.ocl</text></g><g class="entity" data-qualified-name="GMN32" data-source-line="76" id="ent0033"><path d="M2066.78,691.0914 L2066.78,762.3336 A0,0 0 0 0 2066.78,762.3336 L2359.5676,762.3336 A0,0 0 0 0 2359.5676,762.3336 L2359.5676,701.0914 L2349.5676,691.0914 L2217.17,691.0914 L2213.17,610.5914 L2209.17,691.0914 L2066.78,691.0914 A0,0 0 0 0 2066.78,691.0914" fill="#FEFFDD" style="stroke:#181818;stroke-width:0.5;"/><path d="M2349.5676,691.0914 L2349.5676,701.0914 L2359.5676,701.0914 L2349.5676,691.0914" fill="#FEFFDD" style="stroke:#181818;stroke-width:0.5;"/><text fill="#000000" font-family="sans-serif" font-size="13" lengthAdjust="spacing" textLength="262.7739" x="2072.78" y="708.6598">The font database lives HERE, not in egui.</text><text fill="#000000" font-family="sans-serif" font-size="13" lengthAdjust="spacing" textLength="252.9604" x="2072.78" y="723.9703">Loaded once via shared_fontdb()'s static</text><text fill="#000000" font-family="sans-serif" font-size="13" lengthAdjust="spacing" textLength="271.7876" x="2072.78" y="739.2809">OnceLock and Arc-cloned per parse. egui's</text><text fill="#000000" font-family="sans-serif" font-size="13" lengthAdjust="spacing" textLength="223.7549" x="2072.78" y="754.5914">`default_fonts` is a separate stack.</text></g><!--link Dev to Cli--><g class="link" data-entity-1="ent0002" data-entity-2="ent0003" data-link-type="dependency" data-source-line="57" id="lnk15"><path d="M84.73,96.5214 C255.88,116.7814 1008.4716,205.896 1257.0416,235.326" fill="none" id="Dev-to-Cli" style="stroke:#181818;stroke-width:1;"/><polygon fill="#181818" points="1263,236.0314,1254.5327,231.001,1258.0347,235.4435,1253.5921,238.9455,1263,236.0314" style="stroke:#181818;stroke-width:1;"/><text fill="#000000" font-family="sans-serif" font-size="13" lengthAdjust="spacing" textLength="60.3599" x="812.89" y="181.4798">mdd view</text></g><!--link Cli to Viewer--><g class="link" data-entity-1="ent0003" data-entity-2="ent0004" data-link-type="dependency" data-source-line="58" id="lnk16"><path d="M1342.17,278.0014 C1342.17,307.9114 1342.17,347.5914 1342.17,380.1614" fill="none" id="Cli-to-Viewer" style="stroke:#181818;stroke-width:1;"/><polygon fill="#181818" points="1342.17,386.1614,1346.17,377.1614,1342.17,381.1614,1338.17,377.1614,1342.17,386.1614" style="stroke:#181818;stroke-width:1;"/><text fill="#000000" font-family="sans-serif" font-size="13" lengthAdjust="spacing" textLength="74.1152" x="1343.17" y="321.4598">run(project)</text></g><!--link OclRend to Ocl--><g class="link" data-entity-1="ent0013" data-entity-2="ent0014" data-link-type="dependency" data-source-line="59" id="lnk17"><path d="M90.89,466.5714 C72.39,480.2914 62.05,496.4514 76.17,513.1114 C102.38,544.0514 216.19,536.3514 256.17,543.1114 C296.84,549.9914 336.2071,556.7329 373.4771,563.1529" fill="none" id="OclRend-to-Ocl" style="stroke:#181818;stroke-width:1;"/><polygon fill="#181818" points="379.39,564.1714,371.1997,558.7017,374.4626,563.3226,369.8416,566.5855,379.39,564.1714" style="stroke:#181818;stroke-width:1;"/><text fill="#000000" font-family="sans-serif" font-size="13" lengthAdjust="spacing" textLength="60.8169" x="77.17" y="509.6798">read *.ocl</text></g><!--link OclRend to Rendered--><g class="link" data-entity-1="ent0013" data-entity-2="ent0006" data-link-type="dependency" data-source-line="60" id="lnk18"><path d="M166.53,466.3014 C164.87,482.7514 166.62,500.8814 178.17,513.1114 C206.8,543.4114 510.66,539.2614 552.17,543.1114 C636.01,550.8914 725.8262,560.5031 791.9562,567.8031" fill="none" id="OclRend-to-Rendered" style="stroke:#181818;stroke-width:1;"/><polygon fill="#181818" points="797.92,568.4614,789.4132,563.4981,792.9502,567.9128,788.5355,571.4498,797.92,568.4614" style="stroke:#181818;stroke-width:1;"/><text fill="#000000" font-family="sans-serif" font-size="13" lengthAdjust="spacing" textLength="245.4194" x="179.17" y="509.6798">write constraints/&lt;name&gt;.svg (mirror)</text></g><!--link Viewer to Rendered--><g class="link" data-entity-1="ent0004" data-entity-2="ent0006" data-link-type="dependency" data-source-line="61" id="lnk19"><path d="M1219.1,447.5014 C1162.42,458.6714 1094.86,474.7014 1036.17,496.1114 C1002.27,508.4814 971.6645,544.7468 942.7845,560.7968" fill="none" id="Viewer-to-Rendered" style="stroke:#181818;stroke-width:1;"/><polygon fill="#181818" points="937.54,563.7114,947.3499,562.8358,941.9104,561.2825,943.4637,555.8431,937.54,563.7114" style="stroke:#181818;stroke-width:1;"/><text fill="#000000" font-family="sans-serif" font-size="13" lengthAdjust="spacing" textLength="285.0415" x="1037.17" y="509.6798">load constraints/&lt;name&gt;.svg (OCL Diagram)</text></g><!--link Viewer to Rendered--><g class="link" data-entity-1="ent0004" data-entity-2="ent0006" data-link-type="dependency" data-source-line="66" id="lnk24"><path d="M1218.98,430.3214 C1101.85,435.8214 937.06,451.5214 892.17,496.1114 C880.08,508.1314 876.5892,541.5838 876.1292,557.8938" fill="none" id="Viewer-to-Rendered-1" style="stroke:#181818;stroke-width:1;"/><polygon fill="#181818" points="875.96,563.8914,880.2121,555.0078,876.101,558.8934,872.2153,554.7822,875.96,563.8914" style="stroke:#181818;stroke-width:1;"/><text fill="#000000" font-family="sans-serif" font-size="13" lengthAdjust="spacing" textLength="94.7515" x="893.17" y="509.6798">read SVG bytes</text></g><!--link Viewer to Ocl--><g class="link" data-entity-1="ent0004" data-entity-2="ent0014" data-link-type="dependency" data-source-line="62" id="lnk20"><path d="M1219.03,432.8514 C1089.43,440.4114 880.09,457.7514 703.17,496.1114 C645.79,508.5514 588.6226,548.4141 540.8326,565.9541" fill="none" id="Viewer-to-Ocl" style="stroke:#181818;stroke-width:1;"/><polygon fill="#181818" points="535.2,568.0214,545.0271,568.6755,539.8938,566.2987,542.2707,561.1654,535.2,568.0214" style="stroke:#181818;stroke-width:1;"/><text fill="#000000" font-family="sans-serif" font-size="13" lengthAdjust="spacing" textLength="168.5874" x="704.17" y="509.6798">read raw text (OCL Source)</text></g><!--link Cli to Core--><g class="link" data-entity-1="ent0003" data-entity-2="ent0005" data-link-type="dependency" data-source-line="63" id="lnk21"><path d="M1421.26,273.2914 C1598.16,331.5714 2011.84,469.9914 2030.17,496.1114 C2065.01,545.7514 1882.59,565.0347 1751.3,572.6347" fill="none" id="Cli-to-Core" style="stroke:#181818;stroke-width:1;"/><polygon fill="#181818" points="1745.31,572.9814,1754.5261,576.4546,1750.3016,572.6925,1754.0638,568.468,1745.31,572.9814" style="stroke:#181818;stroke-width:1;"/><text fill="#000000" font-family="sans-serif" font-size="13" lengthAdjust="spacing" textLength="103.9365" x="1965.25" y="431.4498">Project::discover</text></g><!--link Viewer to Core--><g class="link" data-entity-1="ent0004" data-entity-2="ent0005" data-link-type="dependency" data-source-line="64" id="lnk22"><path d="M1330.43,466.3114 C1328.03,482.3714 1328.84,500.2014 1339.17,513.1114 C1360.51,539.7814 1431.9471,555.3559 1500.9871,564.9459" fill="none" id="Viewer-to-Core" style="stroke:#181818;stroke-width:1;"/><polygon fill="#181818" points="1506.93,565.7714,1498.5659,560.5712,1501.9775,565.0835,1497.4653,568.4951,1506.93,565.7714" style="stroke:#181818;stroke-width:1;"/><text fill="#000000" font-family="sans-serif" font-size="13" lengthAdjust="spacing" textLength="184.6533" x="1340.17" y="509.6798">model_registry(), read_trace()</text></g><!--link Core to Models--><g class="link" data-entity-1="ent0005" data-entity-2="ent0007" data-link-type="dependency" data-source-line="65" id="lnk23"><path d="M1626.17,610.5914 C1626.17,636.8914 1626.17,689.2314 1626.17,714.1814" fill="none" id="Core-to-Models" style="stroke:#181818;stroke-width:1;"/><polygon fill="#181818" points="1626.17,720.1814,1630.17,711.1814,1626.17,715.1814,1622.17,711.1814,1626.17,720.1814" style="stroke:#181818;stroke-width:1;"/><text fill="#000000" font-family="sans-serif" font-size="13" lengthAdjust="spacing" textLength="28.5327" x="1627.17" y="657.6598">scan</text></g><!--link Viewer to FontDb--><g class="link" data-entity-1="ent0004" data-entity-2="ent0010" data-link-type="dependency" data-source-line="67" id="lnk25"><path d="M1453.55,466.4714 C1478.59,475.7714 1504.92,485.9514 1529.17,496.1114 C1545.49,502.9514 1548.12,508.3914 1565.17,513.1114 C1615.43,527.0314 1923.8404,553.8869 2095.5404,568.0869" fill="none" id="Viewer-to-FontDb" style="stroke:#181818;stroke-width:1;"/><polygon fill="#181818" points="2101.52,568.5814,2092.8803,563.8532,2096.537,568.1693,2092.2209,571.826,2101.52,568.5814" style="stroke:#181818;stroke-width:1;"/><text fill="#000000" font-family="sans-serif" font-size="13" lengthAdjust="spacing" textLength="211.6245" x="1566.17" y="509.6798">shared_fontdb() (OnceLock, once)</text></g><!--link Usvg to FontDb--><g class="link" data-entity-1="ent0009" data-entity-2="ent0010" data-link-type="dependency" data-source-line="68" id="lnk26"><path d="M2248.97,457.3414 C2231.28,466.9014 2215.32,479.5014 2204.17,496.1114 C2194.33,510.7614 2194.5523,524.5553 2199.0223,540.8453" fill="none" id="Usvg-to-FontDb" style="stroke:#181818;stroke-width:1;"/><polygon fill="#181818" points="2200.61,546.6314,2202.0858,536.8938,2199.2869,541.8096,2194.371,539.0107,2200.61,546.6314" style="stroke:#181818;stroke-width:1;"/><text fill="#000000" font-family="sans-serif" font-size="13" lengthAdjust="spacing" textLength="184.4121" x="2205.17" y="509.6798">resolves &lt;text&gt; font families</text></g><!--link Viewer to Usvg--><g class="link" data-entity-1="ent0004" data-entity-2="ent0009" data-link-type="dependency" data-source-line="69" id="lnk27"><path d="M1465.42,390.5514 C1605.84,354.3314 1842.15,307.4014 2045.17,335.1814 C2127.36,346.4314 2212.3248,370.9832 2277.2948,392.5232" fill="none" id="Viewer-to-Usvg" style="stroke:#181818;stroke-width:1;"/><polygon fill="#181818" points="2282.99,394.4114,2275.706,387.7824,2278.244,392.8379,2273.1885,395.3759,2282.99,394.4114" style="stroke:#181818;stroke-width:1;"/><text fill="#000000" font-family="sans-serif" font-size="13" lengthAdjust="spacing" textLength="290.2466" x="1923.17" y="321.4598">Tree::from_data(Options { fontdb, ..default() })</text></g><!--link Usvg to Resvg--><g class="link" data-entity-1="ent0009" data-entity-2="ent0011" data-link-type="dependency" data-source-line="70" id="lnk28"><path d="M2383.43,458.1414 C2392.89,483.9814 2404.2877,515.087 2413.7677,540.987" fill="none" id="Usvg-to-Resvg" style="stroke:#181818;stroke-width:1;"/><polygon fill="#181818" points="2415.83,546.6214,2416.4928,536.7949,2414.1114,541.926,2408.9802,539.5447,2415.83,546.6214" style="stroke:#181818;stroke-width:1;"/><text fill="#000000" font-family="sans-serif" font-size="13" lengthAdjust="spacing" textLength="24.667" x="2403.96" y="509.6798">tree</text></g><!--link Resvg to Viewer--><g class="link" data-entity-1="ent0011" data-entity-2="ent0004" data-link-type="dependency" data-source-line="71" id="lnk29"><path d="M2359.1,547.9114 C2353.44,546.0814 2347.75,544.4414 2342.17,543.1114 C2186,505.8414 2141.79,530.4414 1982.17,513.1114 C1801.9,493.5414 1599.8673,465.3365 1471.1773,446.5865" fill="none" id="Resvg-to-Viewer" style="stroke:#181818;stroke-width:1;"/><polygon fill="#181818" points="1465.24,445.7214,1473.5693,450.9772,1470.1878,446.4423,1474.7227,443.0608,1465.24,445.7214" style="stroke:#181818;stroke-width:1;"/><text fill="#000000" font-family="sans-serif" font-size="13" lengthAdjust="spacing" textLength="206.9844" x="1983.17" y="509.6798">RGBA pixmap (glyphs rasterized)</text></g><!--link Viewer to Egui--><g class="link" data-entity-1="ent0004" data-entity-2="ent0012" data-link-type="dependency" data-source-line="72" id="lnk30"><path d="M1219.18,432.5814 C1014,442.0214 610.73,464.0114 472.17,496.1114 C452.15,500.7514 448.84,507.1714 429.17,513.1114 C367.07,531.8714 302.1019,546.1775 244.6319,557.2375" fill="none" id="Viewer-to-Egui" style="stroke:#181818;stroke-width:1;"/><polygon fill="#181818" points="238.74,558.3714,248.3337,560.5985,243.6499,557.4265,246.8219,552.7427,238.74,558.3714" style="stroke:#181818;stroke-width:1;"/><text fill="#000000" font-family="sans-serif" font-size="13" lengthAdjust="spacing" textLength="159.7324" x="473.17" y="509.6798">texture + painter.image()</text></g><!--link Egui to Dev--><g class="link" data-entity-1="ent0012" data-entity-2="ent0002" data-link-type="dependency" data-source-line="73" id="lnk31"><path d="M85.8,546.7614 C75.94,537.1614 66.68,525.7414 61.17,513.1114 C6,386.7214 25.1446,223.9261 39.5646,144.0061" fill="none" id="Egui-to-Dev" style="stroke:#181818;stroke-width:1;"/><polygon fill="#181818" points="40.63,138.1014,35.0955,146.2481,39.7422,143.022,42.9684,147.6686,40.63,138.1014" style="stroke:#181818;stroke-width:1;"/><text fill="#000000" font-family="sans-serif" font-size="13" lengthAdjust="spacing" textLength="226.7383" x="25.91" y="321.4598">on-screen diagram with legible text</text></g><?plantuml-src jLRTJYCt5BwVfpXABqYwIO3jgj9E4Ig4m2B1BWgxz2PIrXaxYOl77jaEsRH2waFq2Via_MmF90DihyfD9cEV__ETxuoxbRfYbfMqTA9WJj2V6T4nAsxdrYmr7nXbxC41urpmmqFwuVtUSFX-xoKHAqfpbuHEJuz_7kndzvbxj5uevjnhsJPbPRJG_fNiEy_yQzN5Yi8pFLUlPPyLtjXNierVBmjPiV-vyZlqg-JjmULLx-Py-Djmr1iDFvxWSNL-DRmu_pZiR4by6bpKr_7KYbdxo_KmAlPEpe_EHaUNryzle1KFkN35VpZgKkkyh9GeWIt1Soevxzr9iH8MVMFSKML5pmhDXHMShc_EY6bEbZalhFn3E9AU_0BfpXSOhxlvhXNufPNq2t8B1gN9p6ZFf-tE3eoPQgc0D4xXa3ZpR8g1xBUQeMuoReP7p8K09ocUF7ThxHV28Ow9ATIaMfQAtb2wZITSiZdQw7BoIwiT2LOig8yRajeROdIbqDalbnSOCEsyPJXsL6kzbAb1ieBw26BteIYxMwgx1vgLuh0VIb1AQurDgGsM5kA-voGNMxCS2ari1WVHRAp9J7xBDsyF5IBfYC7Gfe1SL240NQp9h7IeZOzgeGaq3V1ZTjsb6MwcwwUj-0McK6GuKqXiBZnAiIacVx4QTv95TAIy-vcN7YFTm4kue4fMGaajw9-__ewXMRUG5RMBL8DEbgM1RPs8Ew5C9Mmhz1Llz3XEMROfKYkuA9GSwu4fI_J4vVaDF4QjWP9FHLCqOtt9-KqAh2rcI43a-L5LTSRw92LqnUQY-xGmqMXIUnQ2iMAihwpv7NpMfKl3XHg9kKIXKEVFbXKYXGIvR6PKg4MhYPInRZyTf-HnL9yqzShWmkrs4zvyyD1VbofgHFSkoogm3HAXLXZD1x0oBur6sj_mffcYmW8o3gu2XMsb5R6ort_tRgm_LK47wujIARhnEPcnKgertKUVNo3UD91aOUBjM-Jcrd1VHaL7oZ2qaemkHChn5CSdqwP-8eiG0RqPQo_rkWVkPJZPtwyB4tpUR_SYDPDsISoN4f8_xS7rIcfkLbtmDJ0hR9Syab_Qc3JC327wj9-f2sFz8ecCzGii4arzAbJeLhDJsnGmrZy6XdaGphA0x5xlC62L8i76kS_2QpYkGPgJNGPuH7XrijfDbC3_S0qwfcYwSVa07KYihFI2laD7xSH7dQpszqGtjEkxge4gwgbfw6y5PjagrZm9NvkbHTyVSmmp0SbwUFASIrTW9zfjOxLC13qOFWrMkzEDzYSH_MrO3591F0q055p1z7UIYf65mPYkWVzjeGJ6eDsSVuGFm5wOuhQRe9i5q3TLW2gZxi2R1o7Xmvgsmw38ffEeceCQ1BXdPaqv2NJUVZvg_JuNCxPK7W7SRxcCw8S53mjPUcaWPdHsV0I-_LOoyEjShQk5somitcXLc81WAOq5jcGzANrPWZvGs2WG90DSSoJVSmNSwaV-ZojTeIzJq7wmasNQ06zJuxqfoSms4_xvsVfICXJimt243mveOVt6yUr3-6935777FFzg21-die3eGs_YPZwo1TQ22Qkl2ck7MNn8HAix3h9Vwv96G-vhNA3aHFYiGz0mMTpsip148Ob_0G00?></g></svg>