<svg xmlns="http://www.w3.org/2000/svg" xmlns:xlink="http://www.w3.org/1999/xlink" contentStyleType="text/css" data-diagram-type="DESCRIPTION" height="476px" preserveAspectRatio="none" style="width:980px;height:476px;background:#FFFFFF;" version="1.1" viewBox="0 0 980 476" width="980px" zoomAndPan="magnify"><?plantuml 1.2026.3?><defs/><g><g class="title" data-source-line="14"><text fill="#000000" font-family="sans-serif" font-size="14" font-weight="700" lengthAdjust="spacing" textLength="468.7607" x="252.1269" y="23.5352">Agent session bootstrap &#8212; ownership &#183; cycle 0014 diff (current)</text></g><!--entity Agent--><g class="entity" data-qualified-name="Agent" data-source-line="16" id="ent0002"><ellipse cx="289.2366" cy="62.7183" fill="#F1F1F1" rx="8" ry="8" style="stroke:#181818;stroke-width:0.5;"/><path d="M289.2366,70.7183 L289.2366,97.7183 M276.2366,78.7183 L302.2366,78.7183 M289.2366,97.7183 L276.2366,112.7183 M289.2366,97.7183 L302.2366,112.7183" fill="none" style="stroke:#181818;stroke-width:0.5;"/><text fill="#000000" font-family="sans-serif" font-size="14" lengthAdjust="spacing" textLength="40.1133" x="269.18" y="127.7534">Agent</text></g><!--entity Cli--><g class="entity" data-qualified-name="Cli" data-source-line="18" id="ent0003"><rect fill="#90EE90" height="79.4648" rx="2.5" ry="2.5" style="stroke:#181818;stroke-width:0.5;" width="171.4346" x="138.52" y="225.6783"/><rect fill="#90EE90" height="10" style="stroke:#181818;stroke-width:0.5;" width="15" x="289.9546" y="230.6783"/><rect fill="#90EE90" height="2" style="stroke:#181818;stroke-width:0.5;" width="4" x="287.9546" y="232.6783"/><rect fill="#90EE90" height="2" style="stroke:#181818;stroke-width:0.5;" width="4" x="287.9546" y="236.6783"/><text fill="#000000" font-family="sans-serif" font-size="14" font-style="italic" lengthAdjust="spacing" textLength="56.6357" x="190.9194" y="259.2134">&#171;added&#187;</text><text fill="#000000" font-family="sans-serif" font-size="14" lengthAdjust="spacing" textLength="86.4404" x="153.52" y="275.7017">mdd context</text><text fill="#000000" font-family="sans-serif" font-size="14" lengthAdjust="spacing" textLength="131.4346" x="153.52" y="292.19">(CMP-SESSION-CLI)</text></g><!--entity Init--><g class="entity" data-qualified-name="Init" data-source-line="19" id="ent0004"><rect fill="#90EE90" height="95.9531" rx="2.5" ry="2.5" style="stroke:#181818;stroke-width:0.5;" width="208.4785" x="524" y="44.4883"/><rect fill="#90EE90" height="10" style="stroke:#181818;stroke-width:0.5;" width="15" x="712.4785" y="49.4883"/><rect fill="#90EE90" height="2" style="stroke:#181818;stroke-width:0.5;" width="4" x="710.4785" y="51.4883"/><rect fill="#90EE90" height="2" style="stroke:#181818;stroke-width:0.5;" width="4" x="710.4785" y="55.4883"/><text fill="#000000" font-family="sans-serif" font-size="14" font-style="italic" lengthAdjust="spacing" textLength="56.6357" x="594.9214" y="78.0234">&#171;added&#187;</text><text fill="#000000" font-family="sans-serif" font-size="14" lengthAdjust="spacing" textLength="143.9033" x="539" y="94.5117">mdd init / mdd clean</text><text fill="#000000" font-family="sans-serif" font-size="14" lengthAdjust="spacing" textLength="168.4785" x="539" y="111">SessionStart hook merge</text><text fill="#000000" font-family="sans-serif" font-size="14" lengthAdjust="spacing" textLength="123.2314" x="539" y="127.4883">(CMP-INIT-HOOK)</text></g><!--entity Directive--><g class="entity" data-qualified-name="Directive" data-source-line="20" id="ent0005"><rect fill="#90EE90" height="95.9531" rx="2.5" ry="2.5" style="stroke:#181818;stroke-width:0.5;" width="251.2646" x="344.6" y="217.4383"/><rect fill="#90EE90" height="10" style="stroke:#181818;stroke-width:0.5;" width="15" x="575.8646" y="222.4383"/><rect fill="#90EE90" height="2" style="stroke:#181818;stroke-width:0.5;" width="4" x="573.8646" y="224.4383"/><rect fill="#90EE90" height="2" style="stroke:#181818;stroke-width:0.5;" width="4" x="573.8646" y="228.4383"/><text fill="#000000" font-family="sans-serif" font-size="14" font-style="italic" lengthAdjust="spacing" textLength="56.6357" x="436.9145" y="250.9734">&#171;added&#187;</text><text fill="#000000" font-family="sans-serif" font-size="14" lengthAdjust="spacing" textLength="132.4668" x="359.6" y="267.4617">entrypoint directive</text><text fill="#000000" font-family="sans-serif" font-size="14" lengthAdjust="spacing" textLength="181.2959" x="359.6" y="283.95">CLAUDE.md + AGENTS.md</text><text fill="#000000" font-family="sans-serif" font-size="14" lengthAdjust="spacing" textLength="211.2646" x="359.6" y="300.4383">(CMP-ENTRYPOINT-DIRECTIVE)</text></g><!--entity Gate--><g class="entity" data-qualified-name="Gate" data-source-line="21" id="ent0006"><rect fill="#F1F1F1" height="62.9766" rx="2.5" ry="2.5" style="stroke:#181818;stroke-width:0.5;" width="230.4697" x="7" y="394.3883"/><rect fill="#F1F1F1" height="10" style="stroke:#181818;stroke-width:0.5;" width="15" x="217.4697" y="399.3883"/><rect fill="#F1F1F1" height="2" style="stroke:#181818;stroke-width:0.5;" width="4" x="215.4697" y="401.3883"/><rect fill="#F1F1F1" height="2" style="stroke:#181818;stroke-width:0.5;" width="4" x="215.4697" y="405.3883"/><text fill="#000000" font-family="sans-serif" font-size="14" lengthAdjust="spacing" textLength="133.1709" x="22" y="427.9234">Project::map_status</text><text fill="#000000" font-family="sans-serif" font-size="14" lengthAdjust="spacing" textLength="190.4697" x="22" y="444.4117">(CMP-TRACE-GATE, reused)</text></g><!--entity Map--><g class="entity" data-qualified-name="Map" data-source-line="22" id="ent0007"><path d="M274.92,390.3883 L315.92,390.3883 A3.75,3.75 0 0 1 318.42,392.8883 L325.42,411.3883 L377.5557,411.3883 A2.5,2.5 0 0 1 380.0557,413.8883 L380.0557,458.8648 A2.5,2.5 0 0 1 377.5557,461.3648 L274.92,461.3648 A2.5,2.5 0 0 1 272.42,458.8648 L272.42,392.8883 A2.5,2.5 0 0 1 274.92,390.3883" fill="#F1F1F1" style="stroke:#181818;stroke-width:0.5;"/><line style="stroke:#181818;stroke-width:0.5;" x1="272.42" x2="325.42" y1="411.3883" y2="411.3883"/><text fill="#000000" font-family="sans-serif" font-size="14" lengthAdjust="spacing" textLength="77.6357" x="282.42" y="431.9234">whole-map</text><text fill="#000000" font-family="sans-serif" font-size="14" lengthAdjust="spacing" textLength="72.0781" x="282.42" y="448.4117">.mdd/map</text></g><!--entity Settings--><g class="entity" data-qualified-name="Settings" data-source-line="23" id="ent0008"><path d="M633.16,229.9283 L674.16,229.9283 A3.75,3.75 0 0 1 676.66,232.4283 L683.66,250.9283 L801.3045,250.9283 A2.5,2.5 0 0 1 803.8045,253.4283 L803.8045,298.4048 A2.5,2.5 0 0 1 801.3045,300.9048 L633.16,300.9048 A2.5,2.5 0 0 1 630.66,298.4048 L630.66,232.4283 A2.5,2.5 0 0 1 633.16,229.9283" fill="#F1F1F1" style="stroke:#181818;stroke-width:0.5;"/><line style="stroke:#181818;stroke-width:0.5;" x1="630.66" x2="683.66" y1="250.9283" y2="250.9283"/><text fill="#000000" font-family="sans-serif" font-size="14" lengthAdjust="spacing" textLength="54.0107" x="640.66" y="271.4634">settings</text><text fill="#000000" font-family="sans-serif" font-size="14" lengthAdjust="spacing" textLength="143.1445" x="640.66" y="287.9517">.claude/settings.json</text></g><!--link Agent to Cli--><g class="link" data-entity-1="ent0002" data-entity-2="ent0003" data-link-type="dependency" data-source-line="25" id="lnk9"><path d="M268.95,111.4683 C254.37,125.8083 235.82,147.2683 227.23,170.4383 C220.82,187.7383 219.3135,202.0709 219.8235,219.4009" fill="none" id="Agent-to-Cli" style="stroke:#181818;stroke-width:1;"/><polygon fill="#181818" points="220,225.3983,223.7335,216.2845,219.8529,220.4004,215.737,216.5198,220,225.3983" style="stroke:#181818;stroke-width:1;"/><text fill="#000000" font-family="sans-serif" font-size="13" lengthAdjust="spacing" textLength="80.2661" x="228.23" y="184.0066">mdd context</text></g><!--link Agent to Directive--><g class="link" data-entity-1="ent0002" data-entity-2="ent0005" data-link-type="dependency" data-source-line="26" id="lnk10"><path d="M309.52,117.5483 C326.38,137.0983 351.4,164.9983 375.23,187.4383 C385.82,197.4083 392.9182,203.7222 404.4182,213.2422" fill="none" id="Agent-to-Directive" style="stroke:#181818;stroke-width:1;"/><polygon fill="#181818" points="409.04,217.0683,404.658,208.248,405.1885,213.8799,399.5566,214.4104,409.04,217.0683" style="stroke:#181818;stroke-width:1;"/><text fill="#000000" font-family="sans-serif" font-size="13" lengthAdjust="spacing" textLength="134.7163" x="376.23" y="184.0066">reads at session start</text></g><!--link Cli to Gate--><g class="link" data-entity-1="ent0003" data-entity-2="ent0006" data-link-type="dependency" data-source-line="27" id="lnk11"><path d="M167.91,305.4583 C155.75,316.3983 144.18,329.2283 136.23,343.3883 C127.6,358.7883 124.5453,372.2304 123.1653,388.2404" fill="none" id="Cli-to-Gate" style="stroke:#181818;stroke-width:1;"/><polygon fill="#181818" points="122.65,394.2183,127.4081,385.595,123.0794,389.2368,119.4377,384.908,122.65,394.2183" style="stroke:#181818;stroke-width:1;"/><text fill="#000000" font-family="sans-serif" font-size="13" lengthAdjust="spacing" textLength="145.3931" x="137.23" y="356.9566">map_status() freshness</text></g><!--link Cli to Map--><g class="link" data-entity-1="ent0003" data-entity-2="ent0007" data-link-type="dependency" data-source-line="28" id="lnk12"><path d="M259.16,305.3883 C268.86,317.1683 278.99,330.4183 287.23,343.3883 C296.57,358.0883 302.6663,369.8919 309.3863,384.7419" fill="none" id="Cli-to-Map" style="stroke:#181818;stroke-width:1;"/><polygon fill="#181818" points="311.86,390.2083,311.7937,380.3596,309.7986,385.653,304.5053,383.6579,311.86,390.2083" style="stroke:#181818;stroke-width:1;"/><text fill="#000000" font-family="sans-serif" font-size="13" lengthAdjust="spacing" textLength="173.1641" x="297" y="356.9566">map_toc (concepts by kind)</text></g><!--link Init to Settings--><g class="link" data-entity-1="ent0004" data-entity-2="ent0008" data-link-type="dependency" data-source-line="29" id="lnk13"><path d="M660.83,140.6883 C666.94,150.3383 673.04,160.5683 678.23,170.4383 C688.28,189.5083 695.4252,227.1563 702.4452,245.2063" fill="none" id="Init-to-Settings" style="stroke:#181818;stroke-width:1;"/><polygon fill="#181818" points="704.62,250.7983,705.0857,240.9604,702.8076,246.1383,697.6298,243.8602,704.62,250.7983" style="stroke:#181818;stroke-width:1;"/><text fill="#000000" font-family="sans-serif" font-size="13" lengthAdjust="spacing" textLength="277.3545" x="686.66" y="184.0066">upsert/strip SessionStart hook (idempotent)</text></g><!--link Init to Directive--><g class="link" data-entity-1="ent0004" data-entity-2="ent0005" data-link-type="dependency" data-source-line="30" id="lnk14"><path d="M564.54,140.6283 C553.58,149.9683 542.68,160.0983 533.23,170.4383 C520.38,184.5083 511.5081,196.3829 501.3581,211.9429" fill="none" id="Init-to-Directive" style="stroke:#181818;stroke-width:1;"/><polygon fill="#181818" points="498.08,216.9683,506.3474,211.6157,500.8117,212.7805,499.6469,207.2449,498.08,216.9683" style="stroke:#181818;stroke-width:1;"/><text fill="#000000" font-family="sans-serif" font-size="13" lengthAdjust="spacing" textLength="135.0464" x="534.23" y="184.0066">inject managed block</text></g><?plantuml-src hPJTQjj048NlzHH3Ub6BHhO3fH0tX3gAaeeaTh3SGY5GDjgnlR6qAtRN-Q4K-X1zbzxtKVeadLqfbgaDxKLzOVHppZUpSyOsIo4hfba9kIeh9L5Q-180dB1yETTg9Nci2gMFZXZdo8-FuSLXFqaE-xia6ajrNulEpaxUn0V1ry2i-IotIlzNzaju9tWdlhgEiYJBql4eYY_J4DQV5cmNma3-b1S8dNx_u7MuuKr7wJHwFnvVR3Z_rPkCffDFr-DqD8rEqqaIJzEFIVWNR-nltHrmCPj19rzfxSPk1CTm018VA0kPOsLX9aZwwzjt0cd4DY83li9RXwCsffDXd4Jdmsa2L4_ZoY27JgKnmaTXh93pVP3AWcNpEVAm6rXX2JoS-x9eZ50IRfMoncfM-OBgGQ8s2r71pn_D2RPR3eEWJdNFe_Q0cHeQ1EqsxPMSkmDPVBGtSYikRueBqKxjJw-Gma8FFAP09czaLhUSMQOjB9HQGebwZWsz3TIpKsVV2QSl_LGfGTTSQCojk2T6V3dyS9fqImwlO7XE2MTqtQ1tvkshd3u3TfUwrkgEtWy69Qi-6ylioZJ8Dhlz9haQUCui1ZDLSAJnFYnKWH5vRoGrmtjqvKLNh5fh35gND76xUS5M77lFJxftHaclpvedGL1d7qN7VlO3s0XfurrxgW4rnpZjNRimneq_S7OdTVqwplfydH1c6ir2adojeeORaLKvxL6zvmPkdu3-A7WO-BISyhbLagygWzhsQ3bf7RUpxz3lXWPj_KAk_Pkj2-c6JsKbe_s7sqBbozy0?></g></svg>