<svg xmlns="http://www.w3.org/2000/svg" xmlns:xlink="http://www.w3.org/1999/xlink" contentStyleType="text/css" data-diagram-type="SEQUENCE" height="1112px" preserveAspectRatio="none" style="width:2044px;height:1112px;background:#FFFFFF;" version="1.1" viewBox="0 0 2044 1112" width="2044px" zoomAndPan="magnify"><?plantuml 1.2026.3?><defs/><g><g class="title" data-source-line="11"><text fill="#000000" font-family="sans-serif" font-size="14" font-weight="700" lengthAdjust="spacing" textLength="418.2021" x="809.8503" y="28.5352">Rasterize the renderable trees via `mdd render` (current)</text></g><rect fill="none" height="46.6211" style="stroke:#000000;stroke-width:1.5;" width="749.6167" x="713.0659" y="408.5703"/><rect fill="none" height="295.75" style="stroke:#000000;stroke-width:1.5;" width="679.1865" x="1273.207" y="469.1914"/><rect fill="none" height="59.6211" style="stroke:#000000;stroke-width:1.5;" width="268.4829" x="1283.207" y="522.8125"/><rect fill="none" height="103.8867" style="stroke:#000000;stroke-width:1.5;" width="659.1865" x="1283.207" y="654.0547"/><rect fill="none" height="46.6211" style="stroke:#000000;stroke-width:1.5;" width="550.231" x="10" y="837.5625"/><g class="participant-lifeline" data-entity-uid="part1" data-qualified-name="Dev" data-source-line="13" id="part1-lifeline"><g><title>Developer . CI</title><rect fill="#000000" fill-opacity="0.00000" height="905.582" width="8" x="68.1196" y="121.4648"/><line style="stroke:#181818;stroke-width:0.5;stroke-dasharray:5,5;" x1="72" x2="72" y1="121.4648" y2="1027.0469"/></g></g><g class="participant-lifeline" data-entity-uid="part2" data-qualified-name="Trigger" data-source-line="14" id="part2-lifeline"><g><title>.mdd-cycle close</title><rect fill="#000000" fill-opacity="0.00000" height="905.582" width="8" x="468.561" y="121.4648"/><line style="stroke:#181818;stroke-width:0.5;stroke-dasharray:5,5;" x1="471.8911" x2="471.8911" y1="121.4648" y2="1027.0469"/></g></g><g class="participant-lifeline" data-entity-uid="part3" data-qualified-name="Cli" data-source-line="15" id="part3-lifeline"><g><title>mdd render</title><rect fill="#000000" fill-opacity="0.00000" height="905.582" width="8" x="826.5303" y="121.4648"/><line style="stroke:#181818;stroke-width:0.5;stroke-dasharray:5,5;" x1="830.0659" x2="830.0659" y1="121.4648" y2="1027.0469"/></g></g><g class="participant-lifeline" data-entity-uid="part4" data-qualified-name="Core" data-source-line="16" id="part4-lifeline"><g><title>Project .RenderTree.</title><rect fill="#000000" fill-opacity="0.00000" height="905.582" width="8" x="1074.3252" y="121.4648"/><line style="stroke:#181818;stroke-width:0.5;stroke-dasharray:5,5;" x1="1077.9946" x2="1077.9946" y1="121.4648" y2="1027.0469"/></g></g><g class="participant-lifeline" data-entity-uid="part5" data-qualified-name="Rend" data-source-line="17" id="part5-lifeline"><g><title>render_selection</title><rect fill="#000000" fill-opacity="0.00000" height="905.582" width="8" x="1368.9448" y="121.4648"/><line style="stroke:#181818;stroke-width:0.5;stroke-dasharray:5,5;" x1="1372.207" x2="1372.207" y1="121.4648" y2="1027.0469"/></g></g><g class="participant-lifeline" data-entity-uid="part6" data-qualified-name="Store" data-source-line="18" id="part6-lifeline"><g><title>.mdd..models.cycles.constraints.</title><rect fill="#000000" fill-opacity="0.00000" height="905.582" width="8" x="1638.8442" y="121.4648"/><line style="stroke:#181818;stroke-width:0.5;stroke-dasharray:5,5;" x1="1641.9385" x2="1641.9385" y1="121.4648" y2="1027.0469"/></g></g><g class="participant-lifeline" data-entity-uid="part7" data-qualified-name="Out" data-source-line="19" id="part7-lifeline"><g><title>.mdd.rendered...</title><rect fill="#000000" fill-opacity="0.00000" height="905.582" width="8" x="1846.5718" y="121.4648"/><line style="stroke:#181818;stroke-width:0.5;stroke-dasharray:5,5;" x1="1849.75" x2="1849.75" y1="121.4648" y2="1027.0469"/></g></g><g class="participant participant-head" data-entity-uid="part1" data-qualified-name="Dev" data-source-line="13" id="part1-head"><text fill="#000000" font-family="sans-serif" font-size="14" lengthAdjust="spacing" textLength="98.2393" x="20" y="118.5117">Developer / CI</text><ellipse cx="72.1196" cy="53.4766" fill="#E2E2F0" rx="8" ry="8" style="stroke:#181818;stroke-width:0.5;"/><path d="M72.1196,61.4766 L72.1196,88.4766 M59.1196,69.4766 L85.1196,69.4766 M72.1196,88.4766 L59.1196,103.4766 M72.1196,88.4766 L85.1196,103.4766" fill="none" style="stroke:#181818;stroke-width:0.5;"/></g><g class="participant participant-tail" data-entity-uid="part1" data-qualified-name="Dev" data-source-line="13" id="part1-tail"><text fill="#000000" font-family="sans-serif" font-size="14" lengthAdjust="spacing" textLength="98.2393" x="20" y="1039.582">Developer / CI</text><ellipse cx="72.1196" cy="1051.0352" fill="#E2E2F0" rx="8" ry="8" style="stroke:#181818;stroke-width:0.5;"/><path d="M72.1196,1059.0352 L72.1196,1086.0352 M59.1196,1067.0352 L85.1196,1067.0352 M72.1196,1086.0352 L59.1196,1101.0352 M72.1196,1086.0352 L85.1196,1101.0352" fill="none" style="stroke:#181818;stroke-width:0.5;"/></g><g class="participant participant-head" data-entity-uid="part2" data-qualified-name="Trigger" data-source-line="14" id="part2-head"><rect fill="#E2E2F0" height="63.4648" rx="2.5" ry="2.5" style="stroke:#181818;stroke-width:0.5;" width="155.3398" x="394.8911" y="57"/><text fill="#000000" font-family="sans-serif" font-size="14" lengthAdjust="spacing" textLength="118.8223" x="413.1499" y="77.5352">/mdd-cycle close</text><text fill="#000000" font-family="sans-serif" font-size="14" lengthAdjust="spacing" textLength="141.3398" x="401.8911" y="94.0234">or /mdd-render skill</text><text fill="#000000" font-family="sans-serif" font-size="14" lengthAdjust="spacing" textLength="95.5938" x="424.7642" y="110.5117">(thin wrapper)</text></g><g class="participant participant-tail" data-entity-uid="part2" data-qualified-name="Trigger" data-source-line="14" id="part2-tail"><rect fill="#E2E2F0" height="63.4648" rx="2.5" ry="2.5" style="stroke:#181818;stroke-width:0.5;" width="155.3398" x="394.8911" y="1026.0469"/><text fill="#000000" font-family="sans-serif" font-size="14" lengthAdjust="spacing" textLength="118.8223" x="413.1499" y="1046.582">/mdd-cycle close</text><text fill="#000000" font-family="sans-serif" font-size="14" lengthAdjust="spacing" textLength="141.3398" x="401.8911" y="1063.0703">or /mdd-render skill</text><text fill="#000000" font-family="sans-serif" font-size="14" lengthAdjust="spacing" textLength="95.5938" x="424.7642" y="1079.5586">(thin wrapper)</text></g><g class="participant participant-head" data-entity-uid="part3" data-qualified-name="Cli" data-source-line="15" id="part3-head"><rect fill="#E2E2F0" height="46.9766" rx="2.5" ry="2.5" style="stroke:#181818;stroke-width:0.5;" width="214.9287" x="723.0659" y="73.4883"/><text fill="#000000" font-family="sans-serif" font-size="14" lengthAdjust="spacing" textLength="79.6797" x="790.6904" y="94.0234">mdd render</text><text fill="#000000" font-family="sans-serif" font-size="14" lengthAdjust="spacing" textLength="200.9287" x="730.0659" y="110.5117">(mdd-cli Commands::Render)</text></g><g class="participant participant-tail" data-entity-uid="part3" data-qualified-name="Cli" data-source-line="15" id="part3-tail"><rect fill="#E2E2F0" height="46.9766" rx="2.5" ry="2.5" style="stroke:#181818;stroke-width:0.5;" width="214.9287" x="723.0659" y="1026.0469"/><text fill="#000000" font-family="sans-serif" font-size="14" lengthAdjust="spacing" textLength="79.6797" x="790.6904" y="1046.582">mdd render</text><text fill="#000000" font-family="sans-serif" font-size="14" lengthAdjust="spacing" textLength="200.9287" x="730.0659" y="1063.0703">(mdd-cli Commands::Render)</text></g><g class="participant participant-head" data-entity-uid="part4" data-qualified-name="Core" data-source-line="16" id="part4-head"><rect fill="#E2E2F0" height="46.9766" rx="2.5" ry="2.5" style="stroke:#181818;stroke-width:0.5;" width="260.6611" x="947.9946" y="73.4883"/><text fill="#000000" font-family="sans-serif" font-size="14" lengthAdjust="spacing" textLength="137.9287" x="1009.3608" y="94.0234">Project (RenderTree)</text><text fill="#000000" font-family="sans-serif" font-size="14" lengthAdjust="spacing" textLength="246.6611" x="954.9946" y="110.5117">all_render_sources / render_sources</text></g><g class="participant participant-tail" data-entity-uid="part4" data-qualified-name="Core" data-source-line="16" id="part4-tail"><rect fill="#E2E2F0" height="46.9766" rx="2.5" ry="2.5" style="stroke:#181818;stroke-width:0.5;" width="260.6611" x="947.9946" y="1026.0469"/><text fill="#000000" font-family="sans-serif" font-size="14" lengthAdjust="spacing" textLength="137.9287" x="1009.3608" y="1046.582">Project (RenderTree)</text><text fill="#000000" font-family="sans-serif" font-size="14" lengthAdjust="spacing" textLength="246.6611" x="954.9946" y="1063.0703">all_render_sources / render_sources</text></g><g class="participant participant-head" data-entity-uid="part5" data-qualified-name="Rend" data-source-line="17" id="part5-head"><rect fill="#E2E2F0" height="63.4648" rx="2.5" ry="2.5" style="stroke:#181818;stroke-width:0.5;" width="159.4756" x="1293.207" y="57"/><text fill="#000000" font-family="sans-serif" font-size="14" lengthAdjust="spacing" textLength="112.082" x="1316.9038" y="77.5352">render_selection</text><text fill="#000000" font-family="sans-serif" font-size="14" lengthAdjust="spacing" textLength="142.6387" x="1301.6255" y="94.0234">(mdd-render engine)</text><text fill="#000000" font-family="sans-serif" font-size="14" lengthAdjust="spacing" textLength="145.4756" x="1300.207" y="110.5117">+ PlantUmlCommand</text></g><g class="participant participant-tail" data-entity-uid="part5" data-qualified-name="Rend" data-source-line="17" id="part5-tail"><rect fill="#E2E2F0" height="63.4648" rx="2.5" ry="2.5" style="stroke:#181818;stroke-width:0.5;" width="159.4756" x="1293.207" y="1026.0469"/><text fill="#000000" font-family="sans-serif" font-size="14" lengthAdjust="spacing" textLength="112.082" x="1316.9038" y="1046.582">render_selection</text><text fill="#000000" font-family="sans-serif" font-size="14" lengthAdjust="spacing" textLength="142.6387" x="1301.6255" y="1063.0703">(mdd-render engine)</text><text fill="#000000" font-family="sans-serif" font-size="14" lengthAdjust="spacing" textLength="145.4756" x="1300.207" y="1079.5586">+ PlantUmlCommand</text></g><g class="participant participant-head" data-entity-uid="part6" data-qualified-name="Store" data-source-line="18" id="part6-head"><text fill="#000000" font-family="sans-serif" font-size="14" lengthAdjust="spacing" textLength="225.8115" x="1526.9385" y="102.0234">.mdd/{models,cycles,constraints,</text><text fill="#000000" font-family="sans-serif" font-size="14" lengthAdjust="spacing" textLength="221.1631" x="1529.2627" y="118.5117">map,deploy,rendered/review}/**</text><path d="M1624.8442,52.4883 C1624.8442,42.4883 1642.8442,42.4883 1642.8442,42.4883 C1642.8442,42.4883 1660.8442,42.4883 1660.8442,52.4883 L1660.8442,78.4883 C1660.8442,88.4883 1642.8442,88.4883 1642.8442,88.4883 C1642.8442,88.4883 1624.8442,88.4883 1624.8442,78.4883 L1624.8442,52.4883" fill="#E2E2F0" style="stroke:#181818;stroke-width:0.5;"/><path d="M1624.8442,52.4883 C1624.8442,62.4883 1642.8442,62.4883 1642.8442,62.4883 C1642.8442,62.4883 1660.8442,62.4883 1660.8442,52.4883" fill="none" style="stroke:#181818;stroke-width:0.5;"/></g><g class="participant participant-tail" data-entity-uid="part6" data-qualified-name="Store" data-source-line="18" id="part6-tail"><text fill="#000000" font-family="sans-serif" font-size="14" lengthAdjust="spacing" textLength="225.8115" x="1526.9385" y="1039.582">.mdd/{models,cycles,constraints,</text><text fill="#000000" font-family="sans-serif" font-size="14" lengthAdjust="spacing" textLength="221.1631" x="1529.2627" y="1056.0703">map,deploy,rendered/review}/**</text><path d="M1624.8442,1069.0234 C1624.8442,1059.0234 1642.8442,1059.0234 1642.8442,1059.0234 C1642.8442,1059.0234 1660.8442,1059.0234 1660.8442,1069.0234 L1660.8442,1095.0234 C1660.8442,1105.0234 1642.8442,1105.0234 1642.8442,1105.0234 C1642.8442,1105.0234 1624.8442,1105.0234 1624.8442,1095.0234 L1624.8442,1069.0234" fill="#E2E2F0" style="stroke:#181818;stroke-width:0.5;"/><path d="M1624.8442,1069.0234 C1624.8442,1079.0234 1642.8442,1079.0234 1642.8442,1079.0234 C1642.8442,1079.0234 1660.8442,1079.0234 1660.8442,1069.0234" fill="none" style="stroke:#181818;stroke-width:0.5;"/></g><g class="participant participant-head" data-entity-uid="part7" data-qualified-name="Out" data-source-line="19" id="part7-head"><text fill="#000000" font-family="sans-serif" font-size="14" lengthAdjust="spacing" textLength="124.4688" x="1785.3374" y="102.0234">.mdd/rendered/**</text><text fill="#000000" font-family="sans-serif" font-size="14" lengthAdjust="spacing" textLength="157.6436" x="1768.75" y="118.5117">(rendered_mirror_path)</text><path d="M1832.5718,52.4883 C1832.5718,42.4883 1850.5718,42.4883 1850.5718,42.4883 C1850.5718,42.4883 1868.5718,42.4883 1868.5718,52.4883 L1868.5718,78.4883 C1868.5718,88.4883 1850.5718,88.4883 1850.5718,88.4883 C1850.5718,88.4883 1832.5718,88.4883 1832.5718,78.4883 L1832.5718,52.4883" fill="#E2E2F0" style="stroke:#181818;stroke-width:0.5;"/><path d="M1832.5718,52.4883 C1832.5718,62.4883 1850.5718,62.4883 1850.5718,62.4883 C1850.5718,62.4883 1868.5718,62.4883 1868.5718,52.4883" fill="none" style="stroke:#181818;stroke-width:0.5;"/></g><g class="participant participant-tail" data-entity-uid="part7" data-qualified-name="Out" data-source-line="19" id="part7-tail"><text fill="#000000" font-family="sans-serif" font-size="14" lengthAdjust="spacing" textLength="124.4688" x="1785.3374" y="1039.582">.mdd/rendered/**</text><text fill="#000000" font-family="sans-serif" font-size="14" lengthAdjust="spacing" textLength="157.6436" x="1768.75" y="1056.0703">(rendered_mirror_path)</text><path d="M1832.5718,1069.0234 C1832.5718,1059.0234 1850.5718,1059.0234 1850.5718,1059.0234 C1850.5718,1059.0234 1868.5718,1059.0234 1868.5718,1069.0234 L1868.5718,1095.0234 C1868.5718,1105.0234 1850.5718,1105.0234 1850.5718,1105.0234 C1850.5718,1105.0234 1832.5718,1105.0234 1832.5718,1095.0234 L1832.5718,1069.0234" fill="#E2E2F0" style="stroke:#181818;stroke-width:0.5;"/><path d="M1832.5718,1069.0234 C1832.5718,1079.0234 1850.5718,1079.0234 1850.5718,1079.0234 C1850.5718,1079.0234 1868.5718,1079.0234 1868.5718,1069.0234" fill="none" style="stroke:#181818;stroke-width:0.5;"/></g><g class="message" data-entity-1="part1" data-entity-2="part2" data-source-line="21" id="msg1"><polygon fill="#181818" points="460.561,148.7754,470.561,152.7754,460.561,156.7754,464.561,152.7754" style="stroke:#181818;stroke-width:1;"/><line style="stroke:#181818;stroke-width:1;" x1="72.1196" x2="466.561" y1="152.7754" y2="152.7754"/><text fill="#000000" font-family="sans-serif" font-size="13" lengthAdjust="spacing" textLength="287.0156" x="79.1196" y="148.0332">close cycle N  /  /mdd-render [fuzzy subset?]</text></g><path d="M477,165.7754 L477,220.7754 L800,220.7754 L800,175.7754 L790,165.7754 L477,165.7754" fill="#FEFFDD" style="stroke:#181818;stroke-width:0.5;"/><path d="M790,165.7754 L790,175.7754 L800,175.7754 L790,165.7754" fill="#FEFFDD" style="stroke:#181818;stroke-width:0.5;"/><text fill="#000000" font-family="sans-serif" font-size="13" lengthAdjust="spacing" textLength="295.915" x="483" y="183.3438">Skill judgment only: "just the deploy diagrams"</text><text fill="#000000" font-family="sans-serif" font-size="13" lengthAdjust="spacing" textLength="302.2183" x="483" y="198.6543">-&gt; `mdd render --only deploy`. It shells to the</text><text fill="#000000" font-family="sans-serif" font-size="13" lengthAdjust="spacing" textLength="194.5811" x="483" y="213.9648">binary; no hand-run PlantUML.</text><g class="message" data-entity-1="part2" data-entity-2="part3" data-source-line="27" id="msg2"><polygon fill="#181818" points="818.5303,244.0176,828.5303,248.0176,818.5303,252.0176,822.5303,248.0176" style="stroke:#181818;stroke-width:1;"/><line style="stroke:#181818;stroke-width:1;" x1="472.561" x2="824.5303" y1="248.0176" y2="248.0176"/><text fill="#000000" font-family="sans-serif" font-size="13" lengthAdjust="spacing" textLength="267.6299" x="479.561" y="243.2754">`mdd render` (or --only &lt;trees&gt; / paths)</text></g><g class="message" data-entity-1="part3" data-entity-2="part3" data-source-line="28" id="msg3"><line style="stroke:#181818;stroke-width:1;" x1="830.5303" x2="872.5303" y1="292.6387" y2="292.6387"/><line style="stroke:#181818;stroke-width:1;" x1="872.5303" x2="872.5303" y1="292.6387" y2="305.6387"/><line style="stroke:#181818;stroke-width:1;" x1="831.5303" x2="872.5303" y1="305.6387" y2="305.6387"/><polygon fill="#181818" points="841.5303,301.6387,831.5303,305.6387,841.5303,309.6387,837.5303,305.6387" style="stroke:#181818;stroke-width:1;"/><text fill="#000000" font-family="sans-serif" font-size="13" lengthAdjust="spacing" textLength="136.9126" x="837.5303" y="272.5859">build RenderSelection</text><text fill="#000000" font-family="sans-serif" font-size="13" lengthAdjust="spacing" textLength="123.6016" x="837.5303" y="287.8965">(All / Trees / Paths)</text></g><g class="message" data-entity-1="part3" data-entity-2="part5" data-source-line="29" id="msg4"><polygon fill="#181818" points="1360.9448,330.9492,1370.9448,334.9492,1360.9448,338.9492,1364.9448,334.9492" style="stroke:#181818;stroke-width:1;"/><line style="stroke:#181818;stroke-width:1;" x1="830.5303" x2="1366.9448" y1="334.9492" y2="334.9492"/><text fill="#000000" font-family="sans-serif" font-size="13" lengthAdjust="spacing" textLength="230.2295" x="837.5303" y="330.207">render_selection(project, &amp;selection)</text></g><g class="message" data-entity-1="part5" data-entity-2="part4" data-source-line="30" id="msg5"><polygon fill="#181818" points="1089.3252,360.2598,1079.3252,364.2598,1089.3252,368.2598,1085.3252,364.2598" style="stroke:#181818;stroke-width:1;"/><line style="stroke:#181818;stroke-width:1;" x1="1083.3252" x2="1371.9448" y1="364.2598" y2="364.2598"/><text fill="#000000" font-family="sans-serif" font-size="13" lengthAdjust="spacing" textLength="270.6196" x="1095.3252" y="359.5176">all_render_sources() / render_sources(tree)</text></g><g class="message" data-entity-1="part4" data-entity-2="part5" data-source-line="31" id="msg6"><polygon fill="#181818" points="1360.9448,389.5703,1370.9448,393.5703,1360.9448,397.5703,1364.9448,393.5703" style="stroke:#181818;stroke-width:1;"/><line style="stroke:#181818;stroke-width:1;stroke-dasharray:2,2;" x1="1078.3252" x2="1366.9448" y1="393.5703" y2="393.5703"/><text fill="#000000" font-family="sans-serif" font-size="13" lengthAdjust="spacing" textLength="238.1006" x="1085.3252" y="388.8281">sorted (tree, PathBuf) &#8212; single source</text></g><path d="M713.0659,408.5703 L780.251,408.5703 L780.251,415.8809 L770.251,425.8809 L713.0659,425.8809 L713.0659,408.5703" fill="#EEEEEE" style="stroke:#000000;stroke-width:1.5;"/><rect fill="none" height="46.6211" style="stroke:#000000;stroke-width:1.5;" width="749.6167" x="713.0659" y="408.5703"/><text fill="#000000" font-family="sans-serif" font-size="13" font-weight="700" lengthAdjust="spacing" textLength="22.1851" x="728.0659" y="422.1387">opt</text><text fill="#000000" font-family="sans-serif" font-size="11" font-weight="700" lengthAdjust="spacing" textLength="122.0474" x="795.251" y="421.2051">[no sources matched]</text><g class="message" data-entity-1="part5" data-entity-2="part3" data-source-line="33" id="msg7"><polygon fill="#181818" points="841.5303,443.1914,831.5303,447.1914,841.5303,451.1914,837.5303,447.1914" style="stroke:#181818;stroke-width:1;"/><line style="stroke:#181818;stroke-width:1;stroke-dasharray:2,2;" x1="835.5303" x2="1371.9448" y1="447.1914" y2="447.1914"/><text fill="#000000" font-family="sans-serif" font-size="13" lengthAdjust="spacing" textLength="217.5596" x="847.5303" y="442.4492">empty RenderReport (not an error)</text></g><path d="M1273.207,469.1914 L1347.6538,469.1914 L1347.6538,476.502 L1337.6538,486.502 L1273.207,486.502 L1273.207,469.1914" fill="#EEEEEE" style="stroke:#000000;stroke-width:1.5;"/><rect fill="none" height="295.75" style="stroke:#000000;stroke-width:1.5;" width="679.1865" x="1273.207" y="469.1914"/><text fill="#000000" font-family="sans-serif" font-size="13" font-weight="700" lengthAdjust="spacing" textLength="29.4468" x="1288.207" y="482.7598">loop</text><text fill="#000000" font-family="sans-serif" font-size="11" font-weight="700" lengthAdjust="spacing" textLength="97.3242" x="1362.6538" y="481.8262">[each source file]</text><g class="message" data-entity-1="part5" data-entity-2="part6" data-source-line="36" id="msg8"><polygon fill="#181818" points="1630.8442,503.8125,1640.8442,507.8125,1630.8442,511.8125,1634.8442,507.8125" style="stroke:#181818;stroke-width:1;"/><line style="stroke:#181818;stroke-width:1;" x1="1372.9448" x2="1636.8442" y1="507.8125" y2="507.8125"/><text fill="#000000" font-family="sans-serif" font-size="13" lengthAdjust="spacing" textLength="73.9375" x="1379.9448" y="503.0703">read source</text></g><path d="M1283.207,522.8125 L1345.3457,522.8125 L1345.3457,530.123 L1335.3457,540.123 L1283.207,540.123 L1283.207,522.8125" fill="#EEEEEE" style="stroke:#000000;stroke-width:1.5;"/><rect fill="none" height="59.6211" style="stroke:#000000;stroke-width:1.5;" width="268.4829" x="1283.207" y="522.8125"/><text fill="#000000" font-family="sans-serif" font-size="13" font-weight="700" lengthAdjust="spacing" textLength="17.1387" x="1298.207" y="536.3809">alt</text><text fill="#000000" font-family="sans-serif" font-size="11" font-weight="700" lengthAdjust="spacing" textLength="72.8374" x="1360.3457" y="535.4473">[OCL source]</text><g class="message" data-entity-1="part5" data-entity-2="part5" data-source-line="38" id="msg9"><line style="stroke:#181818;stroke-width:1;" x1="1372.9448" x2="1414.9448" y1="561.4336" y2="561.4336"/><line style="stroke:#181818;stroke-width:1;" x1="1414.9448" x2="1414.9448" y1="561.4336" y2="574.4336"/><line style="stroke:#181818;stroke-width:1;" x1="1373.9448" x2="1414.9448" y1="574.4336" y2="574.4336"/><polygon fill="#181818" points="1383.9448,570.4336,1373.9448,574.4336,1383.9448,578.4336,1379.9448,574.4336" style="stroke:#181818;stroke-width:1;"/><text fill="#000000" font-family="sans-serif" font-size="13" lengthAdjust="spacing" textLength="159.7451" x="1379.9448" y="556.6914">synthesize_ocl_puml first</text></g><g class="message" data-entity-1="part5" data-entity-2="part5" data-source-line="40" id="msg10"><line style="stroke:#181818;stroke-width:1;" x1="1372.9448" x2="1414.9448" y1="626.0547" y2="626.0547"/><line style="stroke:#181818;stroke-width:1;" x1="1414.9448" x2="1414.9448" y1="626.0547" y2="639.0547"/><line style="stroke:#181818;stroke-width:1;" x1="1373.9448" x2="1414.9448" y1="639.0547" y2="639.0547"/><polygon fill="#181818" points="1383.9448,635.0547,1373.9448,639.0547,1383.9448,643.0547,1379.9448,639.0547" style="stroke:#181818;stroke-width:1;"/><text fill="#000000" font-family="sans-serif" font-size="13" lengthAdjust="spacing" textLength="255.8994" x="1379.9448" y="606.002">out = Project::rendered_mirror_path(src)</text><text fill="#000000" font-family="sans-serif" font-size="13" lengthAdjust="spacing" textLength="166.0737" x="1379.9448" y="621.3125">(review diffs kept in place)</text></g><path d="M1283.207,654.0547 L1345.3457,654.0547 L1345.3457,661.3652 L1335.3457,671.3652 L1283.207,671.3652 L1283.207,654.0547" fill="#EEEEEE" style="stroke:#000000;stroke-width:1.5;"/><rect fill="none" height="103.8867" style="stroke:#000000;stroke-width:1.5;" width="659.1865" x="1283.207" y="654.0547"/><text fill="#000000" font-family="sans-serif" font-size="13" font-weight="700" lengthAdjust="spacing" textLength="17.1387" x="1298.207" y="667.623">alt</text><text fill="#000000" font-family="sans-serif" font-size="11" font-weight="700" lengthAdjust="spacing" textLength="63.1694" x="1360.3457" y="666.6895">[render ok]</text><g class="message" data-entity-1="part5" data-entity-2="part7" data-source-line="42" id="msg11"><polygon fill="#181818" points="1838.5718,688.6758,1848.5718,692.6758,1838.5718,696.6758,1842.5718,692.6758" style="stroke:#181818;stroke-width:1;"/><line style="stroke:#181818;stroke-width:1;" x1="1372.9448" x2="1844.5718" y1="692.6758" y2="692.6758"/><text fill="#000000" font-family="sans-serif" font-size="13" lengthAdjust="spacing" textLength="298.8286" x="1379.9448" y="687.9336">PlantUmlCommand -tsvg -pipe -&gt; write mirror</text></g><line style="stroke:#000000;stroke-width:1;stroke-dasharray:2,2;" x1="1283.207" x2="1942.3936" y1="701.6758" y2="701.6758"/><text fill="#000000" font-family="sans-serif" font-size="11" font-weight="700" lengthAdjust="spacing" textLength="99.1128" x="1288.207" y="712.3105">[plantuml failure]</text><g class="message" data-entity-1="part5" data-entity-2="part5" data-source-line="44" id="msg12"><line style="stroke:#181818;stroke-width:1;" x1="1372.9448" x2="1414.9448" y1="736.9414" y2="736.9414"/><line style="stroke:#181818;stroke-width:1;" x1="1414.9448" x2="1414.9448" y1="736.9414" y2="749.9414"/><line style="stroke:#181818;stroke-width:1;" x1="1373.9448" x2="1414.9448" y1="749.9414" y2="749.9414"/><polygon fill="#181818" points="1383.9448,745.9414,1373.9448,749.9414,1383.9448,753.9414,1379.9448,749.9414" style="stroke:#181818;stroke-width:1;"/><text fill="#000000" font-family="sans-serif" font-size="13" lengthAdjust="spacing" textLength="167.521" x="1379.9448" y="732.1992">push diagnostic (continue)</text></g><g class="message" data-entity-1="part5" data-entity-2="part3" data-source-line="47" id="msg13"><polygon fill="#181818" points="841.5303,789.252,831.5303,793.252,841.5303,797.252,837.5303,793.252" style="stroke:#181818;stroke-width:1;"/><line style="stroke:#181818;stroke-width:1;stroke-dasharray:2,2;" x1="835.5303" x2="1371.9448" y1="793.252" y2="793.252"/><text fill="#000000" font-family="sans-serif" font-size="13" lengthAdjust="spacing" textLength="243.7183" x="847.5303" y="788.5098">RenderReport { rendered, diagnostics }</text></g><g class="message" data-entity-1="part3" data-entity-2="part2" data-source-line="48" id="msg14"><polygon fill="#181818" points="483.561,818.5625,473.561,822.5625,483.561,826.5625,479.561,822.5625" style="stroke:#181818;stroke-width:1;"/><line style="stroke:#181818;stroke-width:1;stroke-dasharray:2,2;" x1="477.561" x2="829.5303" y1="822.5625" y2="822.5625"/><text fill="#000000" font-family="sans-serif" font-size="13" lengthAdjust="spacing" textLength="333.9692" x="489.561" y="817.8203">print rendered + diagnostics; exit 1 if any diagnostic</text></g><path d="M10,837.5625 L77.1851,837.5625 L77.1851,844.873 L67.1851,854.873 L10,854.873 L10,837.5625" fill="#EEEEEE" style="stroke:#000000;stroke-width:1.5;"/><rect fill="none" height="46.6211" style="stroke:#000000;stroke-width:1.5;" width="550.231" x="10" y="837.5625"/><text fill="#000000" font-family="sans-serif" font-size="13" font-weight="700" lengthAdjust="spacing" textLength="22.1851" x="25" y="851.1309">opt</text><text fill="#000000" font-family="sans-serif" font-size="11" font-weight="700" lengthAdjust="spacing" textLength="120.0278" x="92.1851" y="850.1973">[diagnostics present]</text><g class="message" data-entity-1="part2" data-entity-2="part1" data-source-line="50" id="msg15"><polygon fill="#181818" points="83.1196,872.1836,73.1196,876.1836,83.1196,880.1836,79.1196,876.1836" style="stroke:#181818;stroke-width:1;"/><line style="stroke:#181818;stroke-width:1;" x1="77.1196" x2="471.561" y1="876.1836" y2="876.1836"/><text fill="#000000" font-family="sans-serif" font-size="13" lengthAdjust="spacing" textLength="247.9014" x="89.1196" y="871.4414">triage + fix suggestion (skill judgment)</text></g><g class="message" data-entity-1="part2" data-entity-2="part1" data-source-line="52" id="msg16"><polygon fill="#181818" points="83.1196,908.4941,73.1196,912.4941,83.1196,916.4941,79.1196,912.4941" style="stroke:#181818;stroke-width:1;"/><line style="stroke:#181818;stroke-width:1;stroke-dasharray:2,2;" x1="77.1196" x2="471.561" y1="912.4941" y2="912.4941"/><text fill="#000000" font-family="sans-serif" font-size="13" lengthAdjust="spacing" textLength="376.4414" x="89.1196" y="907.752">cycle N closed / subset rendered; SVGs ready for the viewer</text></g><path d="M1667,925.4941 L1667,1011.4941 L2033,1011.4941 L2033,935.4941 L2023,925.4941 L1667,925.4941" fill="#FEFFDD" style="stroke:#181818;stroke-width:0.5;"/><path d="M2023,925.4941 L2023,935.4941 L2033,935.4941 L2023,925.4941" fill="#FEFFDD" style="stroke:#181818;stroke-width:0.5;"/><text fill="#000000" font-family="sans-serif" font-size="13" lengthAdjust="spacing" textLength="325.6284" x="1673" y="943.0625">Every tree's output is Project::rendered_mirror_path</text><text fill="#000000" font-family="sans-serif" font-size="13" lengthAdjust="spacing" textLength="272.689" x="1673" y="958.373">of its source (OCL-RENDER-PATH-MIRROR;</text><text fill="#000000" font-family="sans-serif" font-size="13" lengthAdjust="spacing" textLength="345.9028" x="1673" y="973.6836">OCL-DIFF-SVG-PATH-DERIVED for the cycle case). The</text><text fill="#000000" font-family="sans-serif" font-size="13" lengthAdjust="spacing" textLength="322.3276" x="1673" y="988.9941">tree set is RenderTree::ALL &#8212; one enumeration, no</text><text fill="#000000" font-family="sans-serif" font-size="13" lengthAdjust="spacing" textLength="320.4995" x="1673" y="1004.3047">skill-prose duplicate (OCL-RENDER-TREE-PARITY).</text><?plantuml-src XLRTRjis5BxNKnpuOh5IoyPkdQrhbhYTWVpDIGiCo-3G4cspeKY1f98wHO4zn9vmJxAFfAJOJj1T1B78yt--ynqUq3jHzAydlsUpoSNfP9QTJj-_pwu_VKYJ0tfd-BB_yNeI3q-dnnzcn-VTnUdbUQiqkVWmlPZW1dSdjJ5SkSoAWjDIwaTYbaHPILxYc1TZScjETsLH4EGARku8lxDS2hBr8jTboLG1E_sJ-DEEnxCWbzAY5hAmn2WUN7F9SoUq8eXHpgIqmROLQYKvJC3kFFeOZ-F_kUrqk5e9nGVqk1Rv6bzroGrpF9fmXiCET_GWM6CeruRJbT6VeK_z6C4DnDBW_T48hyiPR3L2hKzUp4jXZ3RpYhdrC1JfNS5j_bhP1zGxjfbFr8rtY_HAFGotMZx0xNuz-iTIqeXyUBQVPLh9JOhlA_YtwLQrzelILgEg_QtLjSbXVMbq-PmK5EUjNYEW3UsTRDLdF3u-EwD___w7IbrmQGUKRtB9gH3B9JukJywyLorvLh9gG0MlfDuCOF11yCVCIwK3iXk5jbZn1DlGeAKmrWse4bLRTBSskbwX-98fzx6KJRK6sztvRcEEgE8cMmg4jcH2rYWkBJZmw4DbAwMj4paoKrfbJzneub-4IqaewpWhI2-9BRHnmDwmhKP8T1uI7JL7LGoX_TIvd7lhXfN0DG3cra8XN5OX63ka6s1nvCSZofEz5-WiAp05lgcqh9-UDdvkF5Q5SkoUqnkW5oRvi9ScJZZaCsE8qQ1u0TlH55l827FhCRu7jJpES9eaB7VeRk-KFt2f4HDGT3Bj-P76KL8n99oB2YMdNeWpzZQNsl9R1SqNmT-g_dQEQR1rOyHgnSsklUU8eDDIn8iX2FedKkpglZQdj-eLw8xsa1lDOTHtxUqFIXDHarYa4ZXuim-_OCx7a1JCiGMpd7f3Q8w-DiCGweL_6Z0o31sqWrlb1w6PWnQfepWFtqQ7Xy7cjVCnxXdjX0yF4U1h88_bkgnTag1_bBrjIq_ZsBHcE2y8bTbftf_RKFlbhqHf1oY9rTfvwBSD9BeE2FrS5ojFzm6bO-fzhgqBu8jfKOlv7ZGGn1RwAD9L8tWtfAaZk-Q1sxKt0Os5KCniZaXfMgF8cQbLK_Zpis42C-IZIzhKu000eNq-rPsldy8Sl4NALM38n8jtMc7hx5Ciwhl5iHstjffU6ghxiEatup-W7xgpD0d2tftVC6DwYT9--WAdVHyot7cLxDcX1GFnWiBj8CJqQxrC0_l6hTYGUg8hvylNZa79NBxc1MeRW-cIvsNbDatoCrx1l6T01rObxb6L-d8dKkigqd0qI9v6EsDl8rf3FS2KJGI4H5qWy-xWMQ5DfwFzm9HLNSf8_H3sVbyewDhHpz_d-RurUHh6mmzKN4DqpolFdrH9bgEiCRO6aFf-9pGC3npjpJbbpZwiAFCBoGk5XKFHguzLOh8ghn8oYElbjOIhsgwtrWsOM2kib3h4v3FsVtijscdELsfp7koihMyHcJi3NndmJIUFlR6bS1JM6_r80djDRRQk0dIsJLVOb1Xr1BWrS9vTniqYWkMb-0BgmAMDxnExmn8HH9rsfzvoKM2c0ZFGBBesv2F2Yya6L64LOfuzm_YkWeaYGUa76FHqHpJ1pqtOU0VMuwH27yN_l0cW1d8JhdqBKHzuRPziLyStlsNdqzdiSdO4GN_JlkBY7OIcdoQdNMJDRWHVfs6pGwbxPuhs4RVxPDAATq_Jy3vJ6bgXUXcu1AWgwagA70_NdTXkPfC9WfXDR_v8dndnFm00?></g></svg>