<svg xmlns="http://www.w3.org/2000/svg" xmlns:xlink="http://www.w3.org/1999/xlink" contentStyleType="text/css" data-diagram-type="DESCRIPTION" height="1020px" preserveAspectRatio="none" style="width:1040px;height:1020px;background:#FFFFFF;" version="1.1" viewBox="0 0 1040 1020" width="1040px" zoomAndPan="magnify"><?plantuml 1.2026.3?><defs/><g><g class="title" data-source-line="41"><text fill="#000000" font-family="sans-serif" font-size="14" font-weight="700" lengthAdjust="spacing" textLength="272.3369" x="380.4596" y="23.5352">mdd view &#8212; diagram viewer (current)</text></g><!--cluster mdd-viewer--><g class="cluster" data-qualified-name="mdd-viewer" data-source-line="47" id="ent0003"><rect fill="none" height="336" rx="2.5" ry="2.5" style="stroke:#181818;stroke-width:1;" width="774.4" x="191.54" y="373.4583"/><text fill="#000000" font-family="sans-serif" font-size="14" font-weight="700" lengthAdjust="spacing" textLength="88.7783" x="534.3508" y="388.9934">mdd-viewer</text></g><!--entity View--><g class="entity" data-qualified-name="mdd-viewer.View" data-source-line="48" id="ent0004"><ellipse cx="330.8349" cy="539.4573" fill="#F1F1F1" rx="119.7449" ry="26.349" style="stroke:#181818;stroke-width:0.5;"/><text fill="#000000" font-family="sans-serif" font-size="14" lengthAdjust="spacing" textLength="157.6641" x="252.0028" y="535.2236">View rendered diagram</text><text fill="#000000" font-family="sans-serif" font-size="14" lengthAdjust="spacing" textLength="172.3271" x="244.6713" y="551.7119">(shapes AND text legible)</text></g><!--entity Browse--><g class="entity" data-qualified-name="mdd-viewer.Browse" data-source-line="49" id="ent0005"><ellipse cx="836.3031" cy="513.4589" fill="#F1F1F1" rx="78.9031" ry="18.1806" style="stroke:#181818;stroke-width:0.5;"/><text fill="#000000" font-family="sans-serif" font-size="14" lengthAdjust="spacing" textLength="127.4697" x="772.5682" y="518.203">Browse model files</text></g><!--entity PanZoom--><g class="entity" data-qualified-name="mdd-viewer.PanZoom" data-source-line="50" id="ent0006"><ellipse cx="836.3044" cy="434.4545" fill="#F1F1F1" rx="112.8544" ry="25.9162" style="stroke:#181818;stroke-width:0.5;"/><text fill="#000000" font-family="sans-serif" font-size="14" lengthAdjust="spacing" textLength="146.6787" x="762.965" y="430.3813">Pan and zoom canvas</text><text fill="#000000" font-family="sans-serif" font-size="14" lengthAdjust="spacing" textLength="158.0811" x="757.2639" y="446.8696">(scroll zoom, drag pan)</text></g><!--entity Fisheye--><g class="entity" data-qualified-name="mdd-viewer.Fisheye" data-source-line="51" id="ent0007"><ellipse cx="836.304" cy="672.4551" fill="#F1F1F1" rx="93.784" ry="21.1568" style="stroke:#181818;stroke-width:0.5;"/><text fill="#000000" font-family="sans-serif" font-size="14" lengthAdjust="spacing" textLength="161.7725" x="755.4177" y="677.1992">Focus via center fisheye</text></g><!--entity Panels--><g class="entity" data-qualified-name="mdd-viewer.Panels" data-source-line="52" id="ent0008"><ellipse cx="836.3043" cy="591.4571" fill="#F1F1F1" rx="113.6443" ry="25.1289" style="stroke:#181818;stroke-width:0.5;"/><text fill="#000000" font-family="sans-serif" font-size="14" lengthAdjust="spacing" textLength="205.3584" x="733.6251" y="596.2013">Collapse / expand side panels</text></g><!--entity Trace--><g class="entity" data-qualified-name="mdd-viewer.Trace" data-source-line="53" id="ent0009"><ellipse cx="330.8282" cy="627.4559" fill="#F1F1F1" rx="123.2882" ry="27.0576" style="stroke:#181818;stroke-width:0.5;"/><text fill="#000000" font-family="sans-serif" font-size="14" lengthAdjust="spacing" textLength="226.0098" x="217.8233" y="632.2001">Inspect model IDs and trace links</text></g><!--entity ViewOcl--><g class="entity" data-qualified-name="mdd-viewer.ViewOcl" data-source-line="54" id="ent0010"><ellipse cx="330.8339" cy="434.4592" fill="#F1F1F1" rx="103.0539" ry="25.9009" style="stroke:#181818;stroke-width:0.5;"/><text fill="#000000" font-family="sans-serif" font-size="14" lengthAdjust="spacing" textLength="144.0742" x="258.7968" y="431.5544">View OCL constraints</text><text fill="#000000" font-family="sans-serif" font-size="14" lengthAdjust="spacing" textLength="133.2666" x="264.2006" y="448.0427">(source or diagram)</text></g><!--entity Dev--><g class="entity" data-qualified-name="Dev" data-source-line="45" id="ent0002"><ellipse cx="40.1592" cy="685.9566" fill="#90EE90" rx="8" ry="8" style="stroke:#181818;stroke-width:0.5;"/><path d="M40.1592,693.9566 L40.1592,720.9566 M27.1592,701.9566 L53.1592,701.9566 M40.1592,720.9566 L27.1592,735.9566 M40.1592,720.9566 L53.1592,735.9566" fill="none" style="stroke:#181818;stroke-width:0.5;"/><text fill="#000000" font-family="sans-serif" font-size="14" lengthAdjust="spacing" textLength="68.3184" x="6" y="750.9917">Developer</text><text fill="#000000" font-family="sans-serif" font-size="14" font-style="italic" lengthAdjust="spacing" textLength="56.6357" x="11.8413" y="674.5034">&#171;added&#187;</text></g><g class="entity" data-qualified-name="GMN23" data-source-line="72" id="ent0024"><path d="M171.49,118.8683 L171.49,236.0421 L490.176,236.0421 L490.176,128.8683 L480.176,118.8683 L171.49,118.8683" fill="#FEFFDD" style="stroke:#181818;stroke-width:0.5;"/><path d="M480.176,118.8683 L480.176,128.8683 L490.176,128.8683 L480.176,118.8683" fill="#FEFFDD" style="stroke:#181818;stroke-width:1;"/><text fill="#000000" font-family="sans-serif" font-size="13" lengthAdjust="spacing" textLength="284.9971" x="177.49" y="136.4366">Code (USE-VIEW-OCL): when the selected file</text><text fill="#000000" font-family="sans-serif" font-size="13" lengthAdjust="spacing" textLength="289.4912" x="177.49" y="151.7472">kind is Constraint, MddViewer::ocl_ui shows a</text><text fill="#000000" font-family="sans-serif" font-size="13" lengthAdjust="spacing" textLength="271.1528" x="177.49" y="167.0577">Source | Diagram toggle. Source = raw .ocl</text><text fill="#000000" font-family="sans-serif" font-size="13" lengthAdjust="spacing" textLength="266.0811" x="177.49" y="182.3683">text (read-only, @id/context/inv colored);</text><text fill="#000000" font-family="sans-serif" font-size="13" lengthAdjust="spacing" textLength="274.3203" x="177.49" y="197.6788">Diagram = the synthesized constraints SVG</text><text fill="#000000" font-family="sans-serif" font-size="13" lengthAdjust="spacing" textLength="297.686" x="177.49" y="212.9894">(mdd_render::render_ocl_diagrams) painted via</text><text fill="#000000" font-family="sans-serif" font-size="13" lengthAdjust="spacing" textLength="265.1924" x="177.49" y="228.2999">paint_canvas. Realized by SEQ-VIEW-OCL.</text></g><g class="entity" data-qualified-name="GMN26" data-source-line="82" id="ent0027"><path d="M647.34,255.5283 L647.34,357.3916 L1025.256,357.3916 L1025.256,265.5283 L1015.256,255.5283 L647.34,255.5283" fill="#FEFFDD" style="stroke:#181818;stroke-width:0.5;"/><path d="M1015.256,255.5283 L1015.256,265.5283 L1025.256,265.5283 L1015.256,255.5283" fill="#FEFFDD" style="stroke:#181818;stroke-width:1;"/><text fill="#000000" font-family="sans-serif" font-size="13" lengthAdjust="spacing" textLength="316.6338" x="653.34" y="273.0966">Code (USE-FISHEYE-FOCUS): the canvas paints the</text><text fill="#000000" font-family="sans-serif" font-size="13" lengthAdjust="spacing" textLength="342.1387" x="653.34" y="288.4072">rendered texture through a center-fixed fisheye mesh</text><text fill="#000000" font-family="sans-serif" font-size="13" lengthAdjust="spacing" textLength="356.916" x="653.34" y="303.7177">(CanvasView::fisheye_mesh / warp) &#8212; the centre bulges,</text><text fill="#000000" font-family="sans-serif" font-size="13" lengthAdjust="spacing" textLength="354.3262" x="653.34" y="319.0283">content compresses toward the edges, corners stay put.</text><text fill="#000000" font-family="sans-serif" font-size="13" lengthAdjust="spacing" textLength="346.9375" x="653.34" y="334.3388">Layered on the scroll-at-cursor base zoom; drag pans.</text><text fill="#000000" font-family="sans-serif" font-size="13" lengthAdjust="spacing" textLength="221.0381" x="653.34" y="349.6494">Realized by SEQ-CANVAS-FISHEYE.</text></g><g class="entity" data-qualified-name="GMN29" data-source-line="91" id="ent0030"><path d="M656.68,43.4883 L656.68,99.4199 L1015.9276,99.4199 L1015.9276,53.4883 L1005.9276,43.4883 L656.68,43.4883" fill="#FEFFDD" style="stroke:#181818;stroke-width:0.5;"/><path d="M1005.9276,43.4883 L1005.9276,53.4883 L1015.9276,53.4883 L1005.9276,43.4883" fill="#FEFFDD" style="stroke:#181818;stroke-width:1;"/><text fill="#000000" font-family="sans-serif" font-size="13" lengthAdjust="spacing" textLength="338.2476" x="662.68" y="61.0566">The toolbar has no Reset / Zoom + / Zoom - buttons</text><text fill="#000000" font-family="sans-serif" font-size="13" lengthAdjust="spacing" textLength="325.0127" x="662.68" y="76.3672">(removed). Zoom is scroll-only at the cursor; pan is</text><text fill="#000000" font-family="sans-serif" font-size="13" lengthAdjust="spacing" textLength="318.2715" x="662.68" y="91.6777">drag-only. A small hint label replaces the buttons.</text></g><g class="entity" data-qualified-name="GMN32" data-source-line="97" id="ent0033"><path d="M649.06,134.1783 L649.06,220.731 L1023.5356,220.731 L1023.5356,144.1783 L1013.5356,134.1783 L649.06,134.1783" fill="#FEFFDD" style="stroke:#181818;stroke-width:0.5;"/><path d="M1013.5356,134.1783 L1013.5356,144.1783 L1023.5356,144.1783 L1013.5356,134.1783" fill="#FEFFDD" style="stroke:#181818;stroke-width:1;"/><text fill="#000000" font-family="sans-serif" font-size="13" lengthAdjust="spacing" textLength="353.4756" x="655.06" y="151.7466">Code (USE-TOGGLE-PANELS): each SidePanel renders an</text><text fill="#000000" font-family="sans-serif" font-size="13" lengthAdjust="spacing" textLength="303.0942" x="655.06" y="167.0572">inner-edge chevron; clicking it sets PanelLayout</text><text fill="#000000" font-family="sans-serif" font-size="13" lengthAdjust="spacing" textLength="316.8813" x="655.06" y="182.3677">collapsed and the panel shrinks to an exact-width</text><text fill="#000000" font-family="sans-serif" font-size="13" lengthAdjust="spacing" textLength="319.3696" x="655.06" y="197.6783">sliver button that re-expands on click. Realized by</text><text fill="#000000" font-family="sans-serif" font-size="13" lengthAdjust="spacing" textLength="146.1992" x="655.06" y="212.9888">SEQ-PANEL-COLLAPSE.</text></g><g class="entity" data-qualified-name="GMN35" data-source-line="105" id="ent0036"><path d="M135.32,271.1783 L135.32,357.731 L526.3439,357.731 L526.3439,281.1783 L516.3439,271.1783 L135.32,271.1783" fill="#FEFFDD" style="stroke:#181818;stroke-width:0.5;"/><path d="M516.3439,271.1783 L516.3439,281.1783 L526.3439,281.1783 L516.3439,271.1783" fill="#FEFFDD" style="stroke:#181818;stroke-width:1;"/><text fill="#000000" font-family="sans-serif" font-size="13" lengthAdjust="spacing" textLength="340.6787" x="141.32" y="288.7466">Reads pre-rendered SVGs from .mdd/rendered/. If no</text><text fill="#000000" font-family="sans-serif" font-size="13" lengthAdjust="spacing" textLength="329.4561" x="141.32" y="304.0572">models are mapped/rendered the canvas shows "No</text><text fill="#000000" font-family="sans-serif" font-size="13" lengthAdjust="spacing" textLength="297.5718" x="141.32" y="319.3677">rendered output". Text rendering is realized by</text><text fill="#000000" font-family="sans-serif" font-size="13" lengthAdjust="spacing" textLength="370.0239" x="141.32" y="334.6783">SEQ-RENDER-DIAGRAM-PAGE, which consults a populated</text><text fill="#000000" font-family="sans-serif" font-size="13" lengthAdjust="spacing" textLength="367.1548" x="141.32" y="349.9888">font database (DOM-FONT-DATABASE) before rasterizing.</text></g><!--link Dev to View--><g class="link" data-entity-1="ent0002" data-entity-2="ent0004" data-link-type="dependency" data-source-line="57" id="lnk11"><path d="M65.36,660.6083 C81.61,633.7383 105.49,601.6283 135.32,582.4583 C160.48,566.2783 184.9872,557.3941 214.1672,551.0441" fill="none" id="Dev-to-View" style="stroke:#181818;stroke-width:1;"/><polygon fill="#181818" points="220.03,549.7683,210.3853,547.7735,215.1443,550.8315,212.0864,555.5905,220.03,549.7683" style="stroke:#181818;stroke-width:1;"/></g><!--link Dev to Browse--><g class="link" data-entity-1="ent0002" data-entity-2="ent0005" data-link-type="dependency" data-source-line="58" id="lnk12"><path d="M74.79,723.2383 C172.13,766.3483 457.37,874.0383 617.34,737.4583 C682.03,682.2283 588.01,609.3883 647.34,548.4583 C676.17,518.8483 715.4146,509.9927 754.2946,508.4727" fill="none" id="Dev-to-Browse" style="stroke:#181818;stroke-width:1;"/><polygon fill="#181818" points="760.29,508.2383,751.1406,504.5929,755.2938,508.4336,751.4531,512.5868,760.29,508.2383" style="stroke:#181818;stroke-width:1;"/></g><!--link Dev to PanZoom--><g class="link" data-entity-1="ent0002" data-entity-2="ent0006" data-link-type="dependency" data-source-line="59" id="lnk13"><path d="M74.69,708.8183 C154.33,711.2483 360.58,712.7483 526.34,672.4583 C569.1,662.0583 589.74,667.7283 617.34,633.4583 C661.62,578.4683 598.3,528.2483 647.34,477.4583 C667.69,456.3883 690.219,445.9825 718.789,439.7225" fill="none" id="Dev-to-PanZoom" style="stroke:#181818;stroke-width:1;"/><polygon fill="#181818" points="724.65,438.4383,715.0024,436.4573,719.7659,439.5084,716.7147,444.2719,724.65,438.4383" style="stroke:#181818;stroke-width:1;"/></g><!--link Dev to Fisheye--><g class="link" data-entity-1="ent0002" data-entity-2="ent0007" data-link-type="dependency" data-source-line="60" id="lnk14"><path d="M44.63,754.3683 C50.32,793.9683 65.25,848.4083 104.32,875.4583 C291.78,1005.2483 405.17,958.9583 617.34,875.4583 C712.37,838.0583 787.0632,742.4565 817.8032,698.4665" fill="none" id="Dev-to-Fisheye" style="stroke:#181818;stroke-width:1;"/><polygon fill="#181818" points="821.24,693.5483,812.806,698.6343,818.376,697.6468,819.3636,703.2167,821.24,693.5483" style="stroke:#181818;stroke-width:1;"/></g><!--link Dev to Panels--><g class="link" data-entity-1="ent0002" data-entity-2="ent0008" data-link-type="dependency" data-source-line="61" id="lnk15"><path d="M59.58,754.3083 C69.71,773.4683 84.36,793.6283 104.32,804.4583 C304.76,913.1283 442.74,951.0883 617.34,804.4583 C676.43,754.8283 594.06,689.2583 647.34,633.4583 C667.32,612.5383 689.3878,602.237 717.6278,596.077" fill="none" id="Dev-to-Panels" style="stroke:#181818;stroke-width:1;"/><polygon fill="#181818" points="723.49,594.7983,713.8443,592.8082,718.6049,595.8639,715.5492,600.6245,723.49,594.7983" style="stroke:#181818;stroke-width:1;"/></g><!--link Dev to Trace--><g class="link" data-entity-1="ent0002" data-entity-2="ent0009" data-link-type="dependency" data-source-line="62" id="lnk16"><path d="M74.56,692.5683 C84.06,688.6483 94.5,684.6283 104.32,681.4583 C147.99,667.3383 191.6238,656.3842 233.1038,647.1342" fill="none" id="Dev-to-Trace" style="stroke:#181818;stroke-width:1;"/><polygon fill="#181818" points="238.96,645.8283,229.3052,643.8831,234.0799,646.9165,231.0464,651.6913,238.96,645.8283" style="stroke:#181818;stroke-width:1;"/></g><!--link Dev to ViewOcl--><g class="link" data-entity-1="ent0002" data-entity-2="ent0010" data-link-type="dependency" data-source-line="63" id="lnk17"><path d="M50.12,660.7083 C61.7,612.6983 86.48,539.0183 135.32,495.4583 C163.97,469.8983 197.4473,456.4551 233.2273,447.8251" fill="none" id="Dev-to-ViewOcl" style="stroke:#181818;stroke-width:1;"/><polygon fill="#181818" points="239.06,446.4183,229.373,444.64,234.1994,447.5906,231.2488,452.417,239.06,446.4183" style="stroke:#181818;stroke-width:1;"/></g><!--link View to Browse--><g class="link" data-entity-1="ent0004" data-entity-2="ent0005" data-link-type="dependency" data-source-line="65" id="lnk18"><path d="M448.63,544.7183 C500.37,546.0083 561.94,546.1283 617.34,542.4583 C669.53,538.9983 722.3515,531.8616 765.6915,525.1116" fill="none" id="View-to-Browse" style="stroke:#181818;stroke-width:1;stroke-dasharray:7,7;"/><polygon fill="#181818" points="771.62,524.1883,762.1116,521.6209,766.6796,524.9577,763.3428,529.5256,771.62,524.1883" style="stroke:#181818;stroke-width:1;"/><text fill="#000000" font-family="sans-serif" font-size="13" lengthAdjust="spacing" textLength="59.3569" x="557.34" y="539.0266">&#171;include&#187;</text></g><!--link View to PanZoom--><g class="link" data-entity-1="ent0004" data-entity-2="ent0006" data-link-type="dependency" data-source-line="66" id="lnk19"><path d="M418.95,521.2883 C512.39,501.7983 653.8364,472.3035 745.8764,453.1035" fill="none" id="View-to-PanZoom" style="stroke:#181818;stroke-width:1;stroke-dasharray:7,7;"/><polygon fill="#181818" points="751.75,451.8783,742.1228,449.8005,746.8554,452.8993,743.7565,457.6319,751.75,451.8783" style="stroke:#181818;stroke-width:1;"/><text fill="#000000" font-family="sans-serif" font-size="13" lengthAdjust="spacing" textLength="57.1924" x="558.34" y="477.2366">&#171;extend&#187;</text></g><!--link View to Fisheye--><g class="link" data-entity-1="ent0004" data-entity-2="ent0007" data-link-type="dependency" data-source-line="67" id="lnk20"><path d="M428.47,554.9083 C460.24,561.5383 495.35,570.5583 526.34,582.4583 C540.65,587.9483 542.49,592.9083 556.34,599.4583 C595.52,617.9683 605.74,622.3383 647.34,634.4583 C683.62,645.0183 718.78,652.5976 753.24,658.9676" fill="none" id="View-to-Fisheye" style="stroke:#181818;stroke-width:1;stroke-dasharray:7,7;"/><polygon fill="#181818" points="759.14,660.0583,751.017,654.489,754.2233,659.1494,749.5628,662.3557,759.14,660.0583" style="stroke:#181818;stroke-width:1;"/><text fill="#000000" font-family="sans-serif" font-size="13" lengthAdjust="spacing" textLength="57.1924" x="558.34" y="596.0266">&#171;extend&#187;</text></g><!--link View to Panels--><g class="link" data-entity-1="ent0004" data-entity-2="ent0008" data-link-type="dependency" data-source-line="68" id="lnk21"><path d="M431.72,553.9783 C470.57,559.3183 515.48,565.1183 556.34,569.4583 C612.5,575.4183 669.196,580.0608 720.896,583.8408" fill="none" id="View-to-Panels" style="stroke:#181818;stroke-width:1;stroke-dasharray:7,7;"/><polygon fill="#181818" points="726.88,584.2783,718.1956,579.6327,721.8933,583.9137,717.6123,587.6114,726.88,584.2783" style="stroke:#181818;stroke-width:1;"/><text fill="#000000" font-family="sans-serif" font-size="13" lengthAdjust="spacing" textLength="57.1924" x="558.34" y="566.0266">&#171;extend&#187;</text></g><!--link ViewOcl to PanZoom--><g class="link" data-entity-1="ent0010" data-entity-2="ent0006" data-link-type="dependency" data-source-line="69" id="lnk22"><path d="M434.32,434.4583 C518.28,434.4583 630.89,434.4583 717.32,434.4583" fill="none" id="ViewOcl-to-PanZoom" style="stroke:#181818;stroke-width:1;stroke-dasharray:7,7;"/><polygon fill="#181818" points="723.32,434.4583,714.32,430.4583,718.32,434.4583,714.32,438.4583,723.32,434.4583" style="stroke:#181818;stroke-width:1;"/><text fill="#000000" font-family="sans-serif" font-size="13" lengthAdjust="spacing" textLength="57.1924" x="558.34" y="431.0266">&#171;extend&#187;</text></g><!--link ViewOcl to GMN23--><g class="link" data-entity-1="ent0010" data-entity-2="ent0024" data-link-type="association" data-source-line="72" id="lnk25"><path d="M229.52,429.2583 C181.8,420.7883 129.94,401.3283 104.82,357.9583 C85.44,324.4983 85.44,304.4183 104.82,270.9583 C119.93,244.8683 144.04,226.0583 171,212.4983" fill="none" id="ViewOcl-GMN23" style="stroke:#181818;stroke-width:1;stroke-dasharray:7,7;"/></g><!--link Fisheye to GMN26--><g class="link" data-entity-1="ent0007" data-entity-2="ent0027" data-link-type="association" data-source-line="82" id="lnk28"><path d="M746.84,679.0883 C690.99,677.7883 623.03,665.0983 586.84,616.9583 C531.56,543.4183 535.75,486.4683 586.84,409.9583 C602.01,387.2383 623.19,369.5083 646.86,355.6583" fill="none" id="Fisheye-GMN26" style="stroke:#181818;stroke-width:1;stroke-dasharray:7,7;"/></g><!--link PanZoom to GMN29--><g class="link" data-entity-1="ent0006" data-entity-2="ent0030" data-link-type="association" data-source-line="91" id="lnk31"><path d="M725.61,428.9083 C674.76,420.1283 618.78,400.3183 586.84,356.9583 C528.07,277.1483 527.29,213.1783 586.84,133.9583 C604.35,110.6683 629.14,95.1883 656.36,85.0583" fill="none" id="PanZoom-GMN29" style="stroke:#181818;stroke-width:1;stroke-dasharray:7,7;"/></g><!--link Panels to GMN32--><g class="link" data-entity-1="ent0008" data-entity-2="ent0033" data-link-type="association" data-source-line="97" id="lnk34"><path d="M723.22,594.7083 C672.94,589.5983 618.14,573.5983 586.84,531.9583 C513.13,433.9083 514.28,354.8583 586.84,255.9583 C602.69,234.3583 624.48,218.5483 648.64,206.9983" fill="none" id="Panels-GMN32" style="stroke:#181818;stroke-width:1;stroke-dasharray:7,7;"/></g><!--link View to GMN35--><g class="link" data-entity-1="ent0004" data-entity-2="ent0036" data-link-type="association" data-source-line="105" id="lnk37"><path d="M218.01,530.3583 C173.73,520.2483 128.01,499.9983 104.82,459.9583 C78.74,414.9283 118.25,381.5183 171.17,358.1583" fill="none" id="View-GMN35" style="stroke:#181818;stroke-width:1;stroke-dasharray:7,7;"/></g><?plantuml-src jLVRSY8t47tdArJa8QR2uCrBgXRlRWK3TbnbcurXdKkboYj60bIh6Kr90jkRf2eVaI_Cb-Iqf871byrB_0BCIDtgFdtwg76VL5bnomksTZBdJhBVMumTy_pJqffrAOP66_lc3HT2YdVls5UlNut7hryzjSNAmcpYffEJu--6txR-RBcjzrnpvrxAjoagKyhIlv1_vxb_ALoip3qlb_gb_FFS6_j2ll7fLQug_ZyZ_pNxNec33zDnTdqs_YaRdGrEhmONqmuj2EdonqjTrXx9ZTIcafPjbBnrZ0FQKaWh1IkCa9e9nPSKjIcPNqccoenN5SjvkU6EtIg_Ocx5AmdBKZ0lxppJSgdcMlRQdKP89sVJ7yQ_u7io_F0WfBsblP0M9aTxEJgRG6DcWVZgW3QAuoa7VwND5keE4I-KMybxYK2vPmLVbcgXO4vnfu1fkvKXLgA_bOxyvmPEK0rlRhaLORyKI-cwJFFxW4NAtkNMQCsMsiovPf-DAVQpd4rEJy_7sVl1vVZyGPPxItjPvd39gv2dPV8El10nPYqNdbrCHZ10_YMA4J36YbNBLLfYmydbRFppBEq8g9GeKmbKA0csWf6MNMePpLMXokMkUWBbGsf25jYqdqeWocHu_WHzy1O9d1MLbWN1B_hCIOsE9D-SzKokKGhqfbiPKEf2Y6jmIzf-7oitQnLfmzdKh6qk3qUfeDuigQ7_-Ullj8AKLEaZ5fRVCfmR6DPbjKbZWxilyUNKPqcbBPstSMrwVHeJ6wujgEqpfuGarSw2R1FhYLVaucCXH7Zn4VY1LH01jP4Dmb4INRYoSW7ch8Xnrf2G2jbliWmTeebupz0JdMlXXGpc54DY5T6f6tEX44CztPOTSSKRe-VSegYEbGPEo8ZDrzuZvMxWnnP-brevTSgJQFTQNdc0NcSUqDzFc1ta4RbEgnKOwKtYdr0amygKhLRKonsfsmm1uebjrQpLscbs6yTbqNixI61zYRQ9A3i5Ie7yLXuaZHbSZlOqfXFE8QEcasCBsicaNm69i2s-RcvyZquXo0A8iNPqLhCSml8bbIAU18DVyRhfuuGqAa0SQrrNEUm_YR-R-uUfdkmmzNgpslKX-DcqEIjT1V1IHcUZ9BOWA4H2bP-YtOoU7u59JTFe1yelDXVgbV3TeJZ9DIwI5XKkozv5OEk715_zM4DHFzUfDjOfY_en1jTqJ6UrGeYzNksTzK4OLUPwBIGeirrDXuLbb1_yQAwcevzPZO4yNiJvp_jkbGQpozoWhmgIXpfWneQe0TjNo3wxNSbqGGGT3BskgHQuz0LJ3bPr1RfFw67KIOxzIVZ-O0_Qj5vu6uIGMXoRGoSSMCb5PafztoNjFWntsPq_LEM6jCEWZpf7s5mxVFjVQecz1-ZFczY5_Nxylg5G4rzS9mgl9CsWgCFJJMoW7hkIN0V7ytis7V-unQdNWYT6m3w2TzSdEtZt9uOzVTt9FYosQa5fhotT_fYKbgldrBU0SbEEm-2BAj7lfxKRMaDZOWgeEa4Amw5nPfYlDOq4CAt7XSO4yNXoo8t55Une2hvdrThtO7Z-r3IHSPz1OHtwCTm6f3j7MzrnPFSGqU7WydemhH7w0guxlPezkZpWrKcFR0Fxlwb_PFLjGXYbCRFJYsiWSegP-COmP0LyGl1752rsm8nY3pjwRC1SmI6cAnGCmzGSycLbfQ45yTPEPtqvXQY6EsRiJrbz9dc-ObEeQDYR244Q2Ql689IlvCQQyWX_gbJ-YMOLvT6mFYakYcFMFfGtAhJOZbjnj78hIrfBznyobNUuyx8mGi76QKmADgKJvqyhitgOmwjmvbvlKBUZbY6BR3WvFn-ydtwfbkcMWmTu1E-oBV7Hj2vE8Zqqxc7z_h37pXOq9R1uSG0HqBZ0S29tcvfj5MMeVMcQNGLCmDvsZyr8RUBhW1sD5m-JkHfVZiPNzVyBv7Owxa8S5Uf3AhFMdeQYobHhZV-60bOBz18JtFF0_OFHv08DVpdBHeFPu7Wm7NVON2uWOj0zXrvMdt7s3gH_0G00?></g></svg>