<svg xmlns="http://www.w3.org/2000/svg" xmlns:xlink="http://www.w3.org/1999/xlink" contentStyleType="text/css" data-diagram-type="SALT" height="261px" preserveAspectRatio="none" style="width:1511px;height:261px;background:#FFFFFF;" version="1.1" viewBox="0 0 1511 261" width="1511px" zoomAndPan="magnify"><?plantuml 1.2026.3?><defs/><g><g class="title" data-source-line="12"><text fill="#000000" font-family="sans-serif" font-size="14" font-weight="700" lengthAdjust="spacing" textLength="312.3545" x="598.645" y="28.5352">mdd viewer &#8212; cycle-aware layout (current)</text></g><text fill="#000000" font-family="sans-serif" font-size="12" lengthAdjust="spacing" textLength="26.3086" x="7" y="56.0898">mdd</text><text fill="#000000" font-family="sans-serif" font-size="12" lengthAdjust="spacing" textLength="97.6582" x="35.3086" y="56.0898">/path/to/project</text><line style="stroke:#AAAAAA;stroke-width:1;" x1="6" x2="1505.6445" y1="65.1211" y2="65.1211"/><text fill="#000000" font-family="sans-serif" font-size="12" lengthAdjust="spacing" textLength="48.0117" x="11" y="83.2227">MODELS</text><line style="stroke:#000000;stroke-width:1;" x1="9" x2="60.0117" y1="85.7539" y2="85.7539"/><line style="stroke:#000000;stroke-width:1;" x1="9" x2="9" y1="82.7539" y2="84.7539"/><line style="stroke:#000000;stroke-width:1;" x1="60.0117" x2="60.0117" y1="82.7539" y2="84.7539"/><rect fill="#EEEEEE" height="18.1328" rx="5" ry="5" style="stroke:#000000;stroke-width:2.5;" width="76" x="10.5" y="92.2539"/><text fill="#000000" font-family="sans-serif" font-size="12" lengthAdjust="spacing" textLength="53.2383" x="21.8809" y="105.8555">Directory</text><rect fill="#EEEEEE" height="18.1328" rx="5" ry="5" style="stroke:#000000;stroke-width:2.5;" width="68" x="234.9746" y="92.2539"/><text fill="#000000" font-family="sans-serif" font-size="12" lengthAdjust="spacing" textLength="45.6855" x="246.1318" y="105.8555">By cycle</text><text fill="#000000" font-family="sans-serif" font-size="12" lengthAdjust="spacing" textLength="78.7969" x="18" y="126.4883">.mdd/models</text><text fill="#000000" font-family="sans-serif" font-size="12" lengthAdjust="spacing" textLength="42.0352" x="28" y="140.6211">current</text><text fill="#000000" font-family="sans-serif" font-size="12" lengthAdjust="spacing" textLength="43.6699" x="38" y="154.7539">domain</text><text fill="#000000" font-family="sans-serif" font-size="12" font-weight="700" lengthAdjust="spacing" textLength="180.4746" x="48" y="168.8867">canvas-view.puml  (selected)</text><text fill="#000000" font-family="sans-serif" font-size="12" lengthAdjust="spacing" textLength="58.8867" x="38" y="183.0195">use-cases</text><text fill="#000000" font-family="sans-serif" font-size="12" lengthAdjust="spacing" textLength="52.2598" x="28" y="197.1523">objective</text><text fill="#000000" font-family="sans-serif" font-size="12" lengthAdjust="spacing" textLength="158.0742" x="18" y="211.2852">Cycle 0002 &#8212; slug (closed)</text><text fill="#000000" font-family="sans-serif" font-size="12" lengthAdjust="spacing" textLength="67.2598" x="18" y="225.418">Unassigned</text><rect fill="none" height="2" style="stroke:#888888;stroke-width:1;" width="2" x="11" y="120.9531"/><rect fill="none" height="2" style="stroke:#888888;stroke-width:1;" width="2" x="21" y="135.0859"/><line style="stroke:#888888;stroke-width:1;" x1="12" x2="12" y1="123.9531" y2="136.0859"/><line style="stroke:#888888;stroke-width:1;" x1="12" x2="20" y1="136.0859" y2="136.0859"/><rect fill="none" height="2" style="stroke:#888888;stroke-width:1;" width="2" x="31" y="149.2188"/><line style="stroke:#888888;stroke-width:1;" x1="22" x2="22" y1="138.0859" y2="150.2188"/><line style="stroke:#888888;stroke-width:1;" x1="22" x2="30" y1="150.2188" y2="150.2188"/><line style="stroke:#888888;stroke-width:1;" x1="32" x2="32" y1="152.2188" y2="164.3516"/><line style="stroke:#888888;stroke-width:1;" x1="32" x2="40" y1="164.3516" y2="164.3516"/><line style="stroke:#888888;stroke-width:1;" x1="22" x2="22" y1="138.0859" y2="178.4844"/><line style="stroke:#888888;stroke-width:1;" x1="22" x2="30" y1="178.4844" y2="178.4844"/><line style="stroke:#888888;stroke-width:1;" x1="12" x2="12" y1="123.9531" y2="192.6172"/><line style="stroke:#888888;stroke-width:1;" x1="12" x2="20" y1="192.6172" y2="192.6172"/><rect fill="#EEEEEE" height="18.1328" rx="5" ry="5" style="stroke:#000000;stroke-width:2.5;" width="60" x="312.9746" y="75.1211"/><text fill="#000000" font-family="sans-serif" font-size="12" lengthAdjust="spacing" textLength="49.3066" x="318.3213" y="88.7227">Diagram</text><rect fill="#EEEEEE" height="18.1328" rx="5" ry="5" style="stroke:#000000;stroke-width:2.5;" width="44" x="379.9746" y="75.1211"/><ellipse cx="390.834" cy="83.7539" fill="#000000" rx="2.5" ry="2.5"/><text fill="#000000" font-family="sans-serif" font-size="12" lengthAdjust="spacing" textLength="21.2813" x="397.334" y="88.7227">Diff</text><text fill="#000000" font-family="sans-serif" font-size="12" lengthAdjust="spacing" textLength="134.1387" x="309.4746" y="110.3555">"CYCLE: [*0002 closed]</text><text fill="#000000" font-family="sans-serif" font-size="12" lengthAdjust="spacing" textLength="83.7773" x="677.4746" y="110.3555">[0001 closed]"</text><text fill="#000000" font-family="sans-serif" font-size="12" lengthAdjust="spacing" textLength="106.8398" x="309.4746" y="126.4883">"VIEW:  [*Diagram]</text><text fill="#000000" font-family="sans-serif" font-size="12" lengthAdjust="spacing" textLength="146.0977" x="677.4746" y="126.4883">[List]   diff of the rail file"</text><line style="stroke:#AAAAAA;stroke-width:1;" x1="309.4746" x2="676.4746" y1="134.5195" y2="134.5195"/><text fill="#000000" font-family="sans-serif" font-size="12" lengthAdjust="spacing" textLength="267.252" x="312.4746" y="150.6211">canvas-view.puml &#8212; cycle 0002 (superposed)</text><line style="stroke:#000000;stroke-width:1;" x1="310.4746" x2="649.4746" y1="153.1523" y2="153.1523"/><line style="stroke:#000000;stroke-width:1;" x1="310.4746" x2="310.4746" y1="150.1523" y2="152.1523"/><line style="stroke:#000000;stroke-width:1;" x1="649.4746" x2="649.4746" y1="150.1523" y2="152.1523"/><text fill="#000000" font-family="sans-serif" font-size="12" lengthAdjust="spacing" textLength="89.8008" x="313.4746" y="169.7539">shared element</text><line style="stroke:#000000;stroke-width:1;" x1="311.4746" x2="442.4746" y1="172.2852" y2="172.2852"/><line style="stroke:#000000;stroke-width:1;" x1="311.4746" x2="311.4746" y1="169.2852" y2="171.2852"/><line style="stroke:#000000;stroke-width:1;" x1="442.4746" x2="442.4746" y1="169.2852" y2="171.2852"/><text fill="#008000" font-family="sans-serif" font-size="12" lengthAdjust="spacing" textLength="124.7578" x="313.4746" y="187.8867">+ added by this cycle</text><line style="stroke:#000000;stroke-width:1;" x1="311.4746" x2="482.4746" y1="190.418" y2="190.418"/><line style="stroke:#000000;stroke-width:1;" x1="311.4746" x2="311.4746" y1="187.418" y2="189.418"/><line style="stroke:#000000;stroke-width:1;" x1="482.4746" x2="482.4746" y1="187.418" y2="189.418"/><text fill="#FF0000" font-family="sans-serif" font-size="12" lengthAdjust="spacing" textLength="136.8105" x="313.4746" y="206.0195">- removed by this cycle</text><line style="stroke:#000000;stroke-width:1;" x1="311.4746" x2="498.4746" y1="208.5508" y2="208.5508"/><line style="stroke:#000000;stroke-width:1;" x1="311.4746" x2="311.4746" y1="205.5508" y2="207.5508"/><line style="stroke:#000000;stroke-width:1;" x1="498.4746" x2="498.4746" y1="205.5508" y2="207.5508"/><text fill="#000000" font-family="sans-serif" font-size="12" lengthAdjust="spacing" textLength="282.0117" x="312.4746" y="241.2852">[ superposed diff diagram canvas &#8212; pan/zoom ]</text><line style="stroke:#000000;stroke-width:1;" x1="310.4746" x2="673.4746" y1="243.8164" y2="243.8164"/><line style="stroke:#000000;stroke-width:1;" x1="310.4746" x2="310.4746" y1="240.8164" y2="242.8164"/><line style="stroke:#000000;stroke-width:1;" x1="673.4746" x2="673.4746" y1="240.8164" y2="242.8164"/><text fill="#000000" font-family="sans-serif" font-size="12" lengthAdjust="spacing" textLength="101.0273" x="830.5723" y="83.2227">MODEL CONTEXT</text><line style="stroke:#000000;stroke-width:1;" x1="828.5723" x2="935.5723" y1="85.7539" y2="85.7539"/><line style="stroke:#000000;stroke-width:1;" x1="828.5723" x2="828.5723" y1="82.7539" y2="84.7539"/><line style="stroke:#000000;stroke-width:1;" x1="935.5723" x2="935.5723" y1="82.7539" y2="84.7539"/><line style="stroke:#AAAAAA;stroke-width:1;" x1="827.5723" x2="1132.5723" y1="93.2539" y2="93.2539"/><text fill="#000000" font-family="sans-serif" font-size="12" lengthAdjust="spacing" textLength="18.0352" x="830.5723" y="109.3555">file</text><line style="stroke:#000000;stroke-width:1;" x1="828.5723" x2="863.5723" y1="111.8867" y2="111.8867"/><line style="stroke:#000000;stroke-width:1;" x1="828.5723" x2="828.5723" y1="108.8867" y2="110.8867"/><line style="stroke:#000000;stroke-width:1;" x1="863.5723" x2="863.5723" y1="108.8867" y2="110.8867"/><text fill="#000000" font-family="sans-serif" font-size="12" lengthAdjust="spacing" textLength="203.4902" x="1134.5723" y="110.3555">current/domain/canvas-view.puml</text><text fill="#000000" font-family="sans-serif" font-size="12" lengthAdjust="spacing" textLength="25.4824" x="830.5723" y="127.4883">kind</text><line style="stroke:#000000;stroke-width:1;" x1="828.5723" x2="863.5723" y1="130.0195" y2="130.0195"/><line style="stroke:#000000;stroke-width:1;" x1="828.5723" x2="828.5723" y1="127.0195" y2="129.0195"/><line style="stroke:#000000;stroke-width:1;" x1="863.5723" x2="863.5723" y1="127.0195" y2="129.0195"/><text fill="#000000" font-family="sans-serif" font-size="12" lengthAdjust="spacing" textLength="43.6699" x="1134.5723" y="128.4883">domain</text><text fill="#000000" font-family="sans-serif" font-size="12" lengthAdjust="spacing" textLength="118.6406" x="831.5723" y="160.7539">DOM-CANVAS-VIEW</text><line style="stroke:#000000;stroke-width:1;" x1="829.5723" x2="952.5723" y1="163.2852" y2="163.2852"/><line style="stroke:#000000;stroke-width:1;" x1="829.5723" x2="829.5723" y1="160.2852" y2="162.2852"/><line style="stroke:#000000;stroke-width:1;" x1="952.5723" x2="952.5723" y1="160.2852" y2="162.2852"/><text fill="#000000" font-family="sans-serif" font-size="12" lengthAdjust="spacing" textLength="238.7988" x="831.5723" y="178.8867">Code struct CanvasView: base zoom/pan</text><line style="stroke:#000000;stroke-width:1;" x1="829.5723" x2="1128.5723" y1="181.418" y2="181.418"/><line style="stroke:#000000;stroke-width:1;" x1="829.5723" x2="829.5723" y1="178.418" y2="180.418"/><line style="stroke:#000000;stroke-width:1;" x1="1128.5723" x2="1128.5723" y1="178.418" y2="180.418"/><text fill="#000000" font-family="sans-serif" font-size="12" lengthAdjust="spacing" textLength="219.0996" x="831.5723" y="197.0195">plus the center-fixed fisheye params.</text><line style="stroke:#000000;stroke-width:1;" x1="829.5723" x2="1128.5723" y1="199.5508" y2="199.5508"/><line style="stroke:#000000;stroke-width:1;" x1="829.5723" x2="829.5723" y1="196.5508" y2="198.5508"/><line style="stroke:#000000;stroke-width:1;" x1="1128.5723" x2="1128.5723" y1="196.5508" y2="198.5508"/><line style="stroke:#000000;stroke-width:1;" x1="827.5723" x2="1131.5723" y1="141.0859" y2="141.0859"/><line style="stroke:#000000;stroke-width:1;" x1="827.5723" x2="1131.5723" y1="202.5508" y2="202.5508"/><line style="stroke:#000000;stroke-width:1;" x1="827.5723" x2="827.5723" y1="141.0859" y2="166.2852"/><line style="stroke:#000000;stroke-width:1;" x1="1131.5723" x2="1131.5723" y1="166.2852" y2="184.418"/><line style="stroke:#000000;stroke-width:1;" x1="1131.5723" x2="1131.5723" y1="141.0859" y2="166.2852"/><line style="stroke:#000000;stroke-width:1;" x1="827.5723" x2="827.5723" y1="184.418" y2="202.5508"/><line style="stroke:#000000;stroke-width:1;" x1="827.5723" x2="827.5723" y1="166.2852" y2="184.418"/><line style="stroke:#000000;stroke-width:1;" x1="1131.5723" x2="1131.5723" y1="184.418" y2="202.5508"/><rect fill="#FFFFFF" height="14.1328" style="stroke:#FFFFFF;stroke-width:1;" width="77.168" x="833.5723" y="134.0195"/><text fill="#000000" font-family="sans-serif" font-size="12" lengthAdjust="spacing" textLength="77.168" x="833.5723" y="145.6211">DESCRIPTION</text><text fill="#000000" font-family="sans-serif" font-size="12" lengthAdjust="spacing" textLength="18.9082" x="830.5723" y="230.2852">IDS</text><line style="stroke:#000000;stroke-width:1;" x1="828.5723" x2="855.5723" y1="232.8164" y2="232.8164"/><line style="stroke:#000000;stroke-width:1;" x1="828.5723" x2="828.5723" y1="229.8164" y2="231.8164"/><line style="stroke:#000000;stroke-width:1;" x1="855.5723" x2="855.5723" y1="229.8164" y2="231.8164"/><text fill="#000000" font-family="sans-serif" font-size="12" lengthAdjust="spacing" textLength="118.6406" x="1134.5723" y="231.2852">DOM-CANVAS-VIEW</text><text fill="#000000" font-family="sans-serif" font-size="12" lengthAdjust="spacing" textLength="38.2617" x="830.5723" y="248.418">TRACE</text><line style="stroke:#000000;stroke-width:1;" x1="828.5723" x2="871.5723" y1="250.9492" y2="250.9492"/><line style="stroke:#000000;stroke-width:1;" x1="828.5723" x2="828.5723" y1="247.9492" y2="249.9492"/><line style="stroke:#000000;stroke-width:1;" x1="871.5723" x2="871.5723" y1="247.9492" y2="249.9492"/><text fill="#000000" font-family="sans-serif" font-size="12" lengthAdjust="spacing" textLength="367.0723" x="1134.5723" y="249.418">SEQ-CANVAS-FISHEYE -&gt; depends_on -&gt; DOM-CANVAS-VIEW</text><?plantuml-src xPNDRkCs483lVeg1BhNhq79Ie5WuWM57LbgZYTtQJhQB82reaRRPIA9AKabThu4-n3xXFac7bEIVP86zxY508fcSuVnyd1drjA7AQ1gRsdVG4wn-4_n2xeRX-t12WW_1TKXkXmqhKdnHlvs6v78oVe-lsIGCZ_O7mwihVFH_clHld20Nv4dmvqmgKsTSFngPdPoUlMkVl6ktKG5LWbmfdXgY1UD0DPdd8ZOGqxNC3SW5c1M7X35dXYkW2uDFkpaGYmL99EDe12qmhZWZJD2beWc898jvWdQf4J9jmGZVJnpu0eNSvyjS0Cso3Z0UYpbNrF1uZNP6OnUoGjyOJCeWbMw35yQWVZiC20YcWIeEpr8zwen6dEIf-3jt9z08ur6COWOoTO7A-LyySkuJ6JtcMUCSjuK6_ADLeWWGuqyZtd9GUiWg-j8jd83NhnYLH0eB7RWP3yBhAHZ5EIWgOdWMPeMK53gNQkrVhacqZc8EHYwNCJz7aMFbMv1Ww5oVEwPWcS9SvfY-aIu3ZVb71ZCg35WmpiD2uCgveJjhrq8Ri57l_OJJO3ByTJOSZs0U8m8GQH4j1EFHBFnzrl8QDIDCx6wwoklpVvyAVuG-MzebgNfK54oZjga1RDo9Z-1drAny8_rCIKiRjYWan6hWV_K4y0fANhcyt-5vG2Ftb-l2uqCftipA7m1DQA4dtxA9zNwt2MKu1rjDO3AX8ZtSQiB5l1lHz0ahtERNol8a1gXNP1j7vtFDIKGrFtAqAwE3c09t7-rs-ypXqd6-H42nr4SMuJQbMejbobcvkNNlBNmyWhEnFDmjEXhVssfuA7KHdQl13kuxVuKNfuZhqsfTaVLi2NJ0MTcRjCNnW59cwwnixbqbLKVTjJaRhu3jQgB8kQxpZAlCfLkTtkpozW3qoZLYsRxUNdGHoLYgpXAR9UqsWJA6QlDrqPZEmuNlLBgl3w75Bi6EJUJJrmvLx5fLHlUm3xcWK4si8bUNOKPJ_ryf4oXflhmdxwXvNcDpC17tfYfEloX8_nNFtTq-YfGLHmhLdMJpXtVGlmSm1kCR4lH7T_sfcr47ai3E3srKZcqOE8ztwB03Swnei7bXiwO7-bcSQrS94ORA5Lc8Vn3EGkWLNtE4WNHqwoLHRpYO5W6_26IlCPlqWx3GcOQ_LJfNm-dFuOSGI1S7TORV3VqdpcbSVTcEVMvhsrhFQjeFPAst_rY-pQotcVKsizvcrZS_iqvRP-sp7ri__0y0?></g></svg>