<svg xmlns="http://www.w3.org/2000/svg" xmlns:xlink="http://www.w3.org/1999/xlink" contentStyleType="text/css" data-diagram-type="DESCRIPTION" height="891px" preserveAspectRatio="none" style="width:2653px;height:891px;background:#FFFFFF;" version="1.1" viewBox="0 0 2653 891" width="2653px" zoomAndPan="magnify"><?plantuml 1.2026.3?><defs/><g><g class="title" data-source-line="48"><text fill="#000000" font-family="sans-serif" font-size="14" font-weight="700" lengthAdjust="spacing" textLength="268.9053" x="1188.7152" y="23.5352">Cycle tracking &#8212; ownership (current)</text></g><!--cluster existing workflow skills--><g class="cluster" data-qualified-name="existing workflow skills" data-source-line="53" id="ent0004"><path d="M750.91,357.3814 L924.7088,357.3814 A3.75,3.75 0 0 1 927.2088,359.8814 L934.2088,379.8697 L1771.91,379.8697 A2.5,2.5 0 0 1 1774.41,382.3697 L1774.41,452.3714 A2.5,2.5 0 0 1 1771.91,454.8714 L750.91,454.8714 A2.5,2.5 0 0 1 748.41,452.3714 L748.41,359.8814 A2.5,2.5 0 0 1 750.91,357.3814" fill="none" style="stroke:#000000;stroke-width:1.5;"/><line style="stroke:#000000;stroke-width:1.5;" x1="748.41" x2="934.2088" y1="379.8697" y2="379.8697"/><text fill="#000000" font-family="sans-serif" font-size="14" font-weight="700" lengthAdjust="spacing" textLength="172.7988" x="752.41" y="372.9166">existing workflow skills</text></g><!--entity Gen--><g class="entity" data-qualified-name="existing workflow skills.Gen" data-source-line="54" id="ent0005"><rect fill="#F1F1F1" height="46.4883" rx="2.5" ry="2.5" style="stroke:#181818;stroke-width:0.5;" width="145.6494" x="1094.59" y="392.3814"/><rect fill="#F1F1F1" height="10" style="stroke:#181818;stroke-width:0.5;" width="15" x="1220.2394" y="397.3814"/><rect fill="#F1F1F1" height="2" style="stroke:#181818;stroke-width:0.5;" width="4" x="1218.2394" y="399.3814"/><rect fill="#F1F1F1" height="2" style="stroke:#181818;stroke-width:0.5;" width="4" x="1218.2394" y="403.3814"/><text fill="#000000" font-family="sans-serif" font-size="14" lengthAdjust="spacing" textLength="105.6494" x="1109.59" y="425.9166">/mdd-generate</text></g><!--entity MapS--><g class="entity" data-qualified-name="existing workflow skills.MapS" data-source-line="55" id="ent0006"><rect fill="#F1F1F1" height="46.4883" rx="2.5" ry="2.5" style="stroke:#181818;stroke-width:0.5;" width="115.749" x="1275.54" y="392.3814"/><rect fill="#F1F1F1" height="10" style="stroke:#181818;stroke-width:0.5;" width="15" x="1371.289" y="397.3814"/><rect fill="#F1F1F1" height="2" style="stroke:#181818;stroke-width:0.5;" width="4" x="1369.289" y="399.3814"/><rect fill="#F1F1F1" height="2" style="stroke:#181818;stroke-width:0.5;" width="4" x="1369.289" y="403.3814"/><text fill="#000000" font-family="sans-serif" font-size="14" lengthAdjust="spacing" textLength="75.749" x="1290.54" y="425.9166">/mdd-map</text></g><!--entity ValS--><g class="entity" data-qualified-name="existing workflow skills.ValS" data-source-line="56" id="ent0007"><rect fill="#F1F1F1" height="46.4883" rx="2.5" ry="2.5" style="stroke:#181818;stroke-width:0.5;" width="138.7861" x="1426.02" y="392.3814"/><rect fill="#F1F1F1" height="10" style="stroke:#181818;stroke-width:0.5;" width="15" x="1544.8061" y="397.3814"/><rect fill="#F1F1F1" height="2" style="stroke:#181818;stroke-width:0.5;" width="4" x="1542.8061" y="399.3814"/><rect fill="#F1F1F1" height="2" style="stroke:#181818;stroke-width:0.5;" width="4" x="1542.8061" y="403.3814"/><text fill="#000000" font-family="sans-serif" font-size="14" lengthAdjust="spacing" textLength="98.7861" x="1441.02" y="425.9166">/mdd-validate</text></g><!--entity ImplS--><g class="entity" data-qualified-name="existing workflow skills.ImplS" data-source-line="57" id="ent0008"><rect fill="#F1F1F1" height="46.4883" rx="2.5" ry="2.5" style="stroke:#181818;stroke-width:0.5;" width="158.7061" x="1600.06" y="392.3814"/><rect fill="#F1F1F1" height="10" style="stroke:#181818;stroke-width:0.5;" width="15" x="1738.7661" y="397.3814"/><rect fill="#F1F1F1" height="2" style="stroke:#181818;stroke-width:0.5;" width="4" x="1736.7661" y="399.3814"/><rect fill="#F1F1F1" height="2" style="stroke:#181818;stroke-width:0.5;" width="4" x="1736.7661" y="403.3814"/><text fill="#000000" font-family="sans-serif" font-size="14" lengthAdjust="spacing" textLength="118.7061" x="1615.06" y="425.9166">/mdd-implement</text></g><!--entity RevS--><g class="entity" data-qualified-name="existing workflow skills.RevS" data-source-line="58" id="ent0009"><rect fill="#F1F1F1" height="46.4883" rx="2.5" ry="2.5" style="stroke:#181818;stroke-width:0.5;" width="129.5439" x="764.64" y="392.3814"/><rect fill="#F1F1F1" height="10" style="stroke:#181818;stroke-width:0.5;" width="15" x="874.1839" y="397.3814"/><rect fill="#F1F1F1" height="2" style="stroke:#181818;stroke-width:0.5;" width="4" x="872.1839" y="399.3814"/><rect fill="#F1F1F1" height="2" style="stroke:#181818;stroke-width:0.5;" width="4" x="872.1839" y="403.3814"/><text fill="#000000" font-family="sans-serif" font-size="14" lengthAdjust="spacing" textLength="89.5439" x="779.64" y="425.9166">/mdd-review</text></g><!--entity RendS--><g class="entity" data-qualified-name="existing workflow skills.RendS" data-source-line="59" id="ent0010"><rect fill="#F1F1F1" height="46.4883" rx="2.5" ry="2.5" style="stroke:#181818;stroke-width:0.5;" width="130.6924" x="929.06" y="392.3814"/><rect fill="#F1F1F1" height="10" style="stroke:#181818;stroke-width:0.5;" width="15" x="1039.7524" y="397.3814"/><rect fill="#F1F1F1" height="2" style="stroke:#181818;stroke-width:0.5;" width="4" x="1037.7524" y="399.3814"/><rect fill="#F1F1F1" height="2" style="stroke:#181818;stroke-width:0.5;" width="4" x="1037.7524" y="403.3814"/><text fill="#000000" font-family="sans-serif" font-size="14" lengthAdjust="spacing" textLength="90.6924" x="944.06" y="425.9166">/mdd-render</text></g><!--entity Dev--><g class="entity" data-qualified-name="Dev" data-source-line="50" id="ent0002"><ellipse cx="2096.4092" cy="69.9297" fill="#90EE90" rx="8" ry="8" style="stroke:#181818;stroke-width:0.5;"/><path d="M2096.4092,77.9297 L2096.4092,104.9297 M2083.4092,85.9297 L2109.4092,85.9297 M2096.4092,104.9297 L2083.4092,119.9297 M2096.4092,104.9297 L2109.4092,119.9297" fill="none" style="stroke:#181818;stroke-width:0.5;"/><text fill="#000000" font-family="sans-serif" font-size="14" lengthAdjust="spacing" textLength="68.3184" x="2062.25" y="134.9648">Developer</text><text fill="#000000" font-family="sans-serif" font-size="14" font-style="italic" lengthAdjust="spacing" textLength="56.6357" x="2068.0913" y="58.4766">&#171;added&#187;</text></g><!--entity Orch--><g class="entity" data-qualified-name="Orch" data-source-line="52" id="ent0003"><rect fill="#F1F1F1" height="62.9766" rx="2.5" ry="2.5" style="stroke:#181818;stroke-width:0.5;" width="190.7803" x="1028.02" y="223.1614"/><rect fill="#F1F1F1" height="10" style="stroke:#181818;stroke-width:0.5;" width="15" x="1198.8003" y="228.1614"/><rect fill="#F1F1F1" height="2" style="stroke:#181818;stroke-width:0.5;" width="4" x="1196.8003" y="230.1614"/><rect fill="#F1F1F1" height="2" style="stroke:#181818;stroke-width:0.5;" width="4" x="1196.8003" y="234.1614"/><text fill="#000000" font-family="sans-serif" font-size="14" lengthAdjust="spacing" textLength="79.6387" x="1043.02" y="256.6966">/mdd-cycle</text><text fill="#000000" font-family="sans-serif" font-size="14" lengthAdjust="spacing" textLength="150.7803" x="1043.02" y="273.1848">(SKILL.md + template)</text></g><!--entity Store--><g class="entity" data-qualified-name="Store" data-source-line="62" id="ent0011"><path d="M875.87,672.3314 L916.87,672.3314 A3.75,3.75 0 0 1 919.37,674.8314 L926.37,693.3314 L1100.9511,693.3314 A2.5,2.5 0 0 1 1103.4511,695.8314 L1103.4511,757.2963 A2.5,2.5 0 0 1 1100.9511,759.7963 L875.87,759.7963 A2.5,2.5 0 0 1 873.37,757.2963 L873.37,674.8314 A2.5,2.5 0 0 1 875.87,672.3314" fill="#F1F1F1" style="stroke:#181818;stroke-width:0.5;"/><line style="stroke:#181818;stroke-width:0.5;" x1="873.37" x2="926.37" y1="693.3314" y2="693.3314"/><text fill="#000000" font-family="sans-serif" font-size="14" lengthAdjust="spacing" textLength="130.3887" x="883.37" y="713.8666">.mdd/cycles/&lt;N&gt;/</text><text fill="#000000" font-family="sans-serif" font-size="14" lengthAdjust="spacing" textLength="200.0811" x="883.37" y="730.3548">manifest.yml, before/, after/,</text><text fill="#000000" font-family="sans-serif" font-size="14" lengthAdjust="spacing" textLength="106.4629" x="883.37" y="746.8431">&lt;rel&gt;.diff.puml</text></g><!--entity Rendered--><g class="entity" data-qualified-name="Rendered" data-source-line="63" id="ent0012"><path d="M1285.46,680.5814 L1326.46,680.5814 A3.75,3.75 0 0 1 1328.96,683.0814 L1335.96,701.5814 L1509.3584,701.5814 A2.5,2.5 0 0 1 1511.8584,704.0814 L1511.8584,749.058 A2.5,2.5 0 0 1 1509.3584,751.558 L1285.46,751.558 A2.5,2.5 0 0 1 1282.96,749.058 L1282.96,683.0814 A2.5,2.5 0 0 1 1285.46,680.5814" fill="#F1F1F1" style="stroke:#181818;stroke-width:0.5;"/><line style="stroke:#181818;stroke-width:0.5;" x1="1282.96" x2="1335.96" y1="701.5814" y2="701.5814"/><text fill="#000000" font-family="sans-serif" font-size="14" lengthAdjust="spacing" textLength="198.8984" x="1292.96" y="722.1166">.mdd/rendered/cycles/&lt;N&gt;/</text><text fill="#000000" font-family="sans-serif" font-size="14" lengthAdjust="spacing" textLength="94.958" x="1292.96" y="738.6048">&lt;rel&gt;.diff.svg</text></g><!--entity Models--><g class="entity" data-qualified-name="Models" data-source-line="64" id="ent0013"><path d="M1220.35,536.6014 L1261.35,536.6014 A3.75,3.75 0 0 1 1263.85,539.1014 L1270.85,557.6014 L1458.474,557.6014 A2.5,2.5 0 0 1 1460.974,560.1014 L1460.974,588.5897 A2.5,2.5 0 0 1 1458.474,591.0897 L1220.35,591.0897 A2.5,2.5 0 0 1 1217.85,588.5897 L1217.85,539.1014 A2.5,2.5 0 0 1 1220.35,536.6014" fill="#F1F1F1" style="stroke:#181818;stroke-width:0.5;"/><line style="stroke:#181818;stroke-width:0.5;" x1="1217.85" x2="1270.85" y1="557.6014" y2="557.6014"/><text fill="#000000" font-family="sans-serif" font-size="14" lengthAdjust="spacing" textLength="213.124" x="1227.85" y="578.1366">.mdd/models/, .mdd/trace.yml</text></g><!--entity Core--><g class="entity" data-qualified-name="Core" data-source-line="66" id="ent0014"><rect fill="#F1F1F1" height="79.4648" rx="2.5" ry="2.5" style="stroke:#181818;stroke-width:0.5;" width="249.5078" x="1793.66" y="375.8914"/><rect fill="#F1F1F1" height="10" style="stroke:#181818;stroke-width:0.5;" width="15" x="2023.1678" y="380.8914"/><rect fill="#F1F1F1" height="2" style="stroke:#181818;stroke-width:0.5;" width="4" x="2021.1678" y="382.8914"/><rect fill="#F1F1F1" height="2" style="stroke:#181818;stroke-width:0.5;" width="4" x="2021.1678" y="386.8914"/><text fill="#000000" font-family="sans-serif" font-size="14" lengthAdjust="spacing" textLength="110.4551" x="1808.66" y="409.4266">mdd-core::cycle</text><text fill="#000000" font-family="sans-serif" font-size="14" lengthAdjust="spacing" textLength="209.5078" x="1808.66" y="425.9148">CycleRegistry, diff_documents,</text><text fill="#000000" font-family="sans-serif" font-size="14" lengthAdjust="spacing" textLength="190.75" x="1808.66" y="442.4031">extract_descs, diff_puml_rel</text></g><!--entity DiffRend--><g class="entity" data-qualified-name="DiffRend" data-source-line="67" id="ent0015"><rect fill="#F1F1F1" height="62.9766" rx="2.5" ry="2.5" style="stroke:#181818;stroke-width:0.5;" width="260.3701" x="858.23" y="532.3614"/><rect fill="#F1F1F1" height="10" style="stroke:#181818;stroke-width:0.5;" width="15" x="1098.6001" y="537.3614"/><rect fill="#F1F1F1" height="2" style="stroke:#181818;stroke-width:0.5;" width="4" x="1096.6001" y="539.3614"/><rect fill="#F1F1F1" height="2" style="stroke:#181818;stroke-width:0.5;" width="4" x="1096.6001" y="543.3614"/><text fill="#000000" font-family="sans-serif" font-size="14" lengthAdjust="spacing" textLength="83.3506" x="873.23" y="565.8966">mdd-render</text><text fill="#000000" font-family="sans-serif" font-size="14" lengthAdjust="spacing" textLength="220.3701" x="873.23" y="582.3848">render_cycle_diffs, render_paths</text></g><!--entity Viewer--><g class="entity" data-qualified-name="Viewer" data-source-line="68" id="ent0016"><rect fill="#F1F1F1" height="79.4648" rx="2.5" ry="2.5" style="stroke:#181818;stroke-width:0.5;" width="226.1084" x="1983.36" y="214.9214"/><rect fill="#F1F1F1" height="10" style="stroke:#181818;stroke-width:0.5;" width="15" x="2189.4684" y="219.9214"/><rect fill="#F1F1F1" height="2" style="stroke:#181818;stroke-width:0.5;" width="4" x="2187.4684" y="221.9214"/><rect fill="#F1F1F1" height="2" style="stroke:#181818;stroke-width:0.5;" width="4" x="2187.4684" y="225.9214"/><text fill="#000000" font-family="sans-serif" font-size="14" lengthAdjust="spacing" textLength="82.2021" x="1998.36" y="248.4566">mdd-viewer</text><text fill="#000000" font-family="sans-serif" font-size="14" lengthAdjust="spacing" textLength="170.1875" x="1998.36" y="264.9448">tree.rs, diff_ui (DiffView),</text><text fill="#000000" font-family="sans-serif" font-size="14" lengthAdjust="spacing" textLength="186.1084" x="1998.36" y="281.4331">paint_canvas, DESCRIPTION</text></g><!--entity Egui--><g class="entity" data-qualified-name="Egui" data-source-line="69" id="ent0017"><rect fill="#F1F1F1" height="46.4883" rx="2.5" ry="2.5" style="stroke:#181818;stroke-width:0.5;" width="168.1602" x="2222.33" y="392.3814"/><rect fill="#F1F1F1" height="10" style="stroke:#181818;stroke-width:0.5;" width="15" x="2370.4902" y="397.3814"/><rect fill="#F1F1F1" height="2" style="stroke:#181818;stroke-width:0.5;" width="4" x="2368.4902" y="399.3814"/><rect fill="#F1F1F1" height="2" style="stroke:#181818;stroke-width:0.5;" width="4" x="2368.4902" y="403.3814"/><text fill="#000000" font-family="sans-serif" font-size="14" lengthAdjust="spacing" textLength="128.1602" x="2237.33" y="425.9166">eframe / egui 0.30</text></g><g class="entity" data-qualified-name="GMN38" data-source-line="94" id="ent0039"><path d="M6,387.6614 L6,443.593 L318.8208,443.593 L318.8208,397.6614 L308.8208,387.6614 L6,387.6614" fill="#FEFFDD" style="stroke:#181818;stroke-width:0.5;"/><path d="M308.8208,387.6614 L308.8208,397.6614 L318.8208,397.6614 L308.8208,387.6614" fill="#FEFFDD" style="stroke:#181818;stroke-width:1;"/><text fill="#000000" font-family="sans-serif" font-size="13" lengthAdjust="spacing" textLength="235.9614" x="12" y="405.2298">Owns the cycle boundary. Standalone</text><text fill="#000000" font-family="sans-serif" font-size="13" lengthAdjust="spacing" textLength="291.8208" x="12" y="420.5403">/mdd-map and /mdd-generate never open or</text><text fill="#000000" font-family="sans-serif" font-size="13" lengthAdjust="spacing" textLength="251.6782" x="12" y="435.8509">close a cycle (documented in SKILL.md).</text></g><g class="entity" data-qualified-name="GMN41" data-source-line="100" id="ent0042"><path d="M1248.12,820.8014 L1248.12,876.733 A0,0 0 0 0 1248.12,876.733 L1546.6967,876.733 A0,0 0 0 0 1546.6967,876.733 L1546.6967,830.8014 L1536.6967,820.8014 L1401.41,820.8014 L1397.41,751.7514 L1393.41,820.8014 L1248.12,820.8014 A0,0 0 0 0 1248.12,820.8014" fill="#FEFFDD" style="stroke:#181818;stroke-width:0.5;"/><path d="M1536.6967,820.8014 L1536.6967,830.8014 L1546.6967,830.8014 L1536.6967,820.8014" fill="#FEFFDD" style="stroke:#181818;stroke-width:0.5;"/><text fill="#000000" font-family="sans-serif" font-size="13" lengthAdjust="spacing" textLength="244.6958" x="1254.12" y="838.3698">Viewer has no PlantUML engine; it only</text><text fill="#000000" font-family="sans-serif" font-size="13" lengthAdjust="spacing" textLength="271.5527" x="1254.12" y="853.6803">consumes pre-rendered SVG. The path is a</text><text fill="#000000" font-family="sans-serif" font-size="13" lengthAdjust="spacing" textLength="277.5767" x="1254.12" y="868.9909">1:1 mirror (OCL-DIFF-SVG-PATH-DERIVED).</text></g><!--link Dev to Orch--><g class="link" data-entity-1="ent0002" data-entity-2="ent0003" data-link-type="dependency" data-source-line="71" id="lnk18"><path d="M2061.78,98.1714 C1926.37,120.6014 1435.7193,201.9007 1224.9493,236.8207" fill="none" id="Dev-to-Orch" style="stroke:#181818;stroke-width:1;"/><polygon fill="#181818" points="1219.03,237.8014,1228.5628,240.2766,1223.9628,236.9842,1227.2552,232.3841,1219.03,237.8014" style="stroke:#181818;stroke-width:1;"/><text fill="#000000" font-family="sans-serif" font-size="13" lengthAdjust="spacing" textLength="162.646" x="1640.08" y="181.4898">/mdd-cycle [description?]</text></g><!--link Orch to Gen--><g class="link" data-entity-1="ent0003" data-entity-2="ent0005" data-link-type="dependency" data-source-line="72" id="lnk19"><path d="M1117.7,286.3914 C1115.76,302.9914 1115.21,323.6614 1120.41,341.3814 C1125.85,359.9414 1133.9693,373.4746 1144.3593,387.1446" fill="none" id="Orch-to-Gen" style="stroke:#181818;stroke-width:1;"/><polygon fill="#181818" points="1147.99,391.9214,1145.7285,382.3357,1144.9644,387.9407,1139.3594,387.1766,1147.99,391.9214" style="stroke:#181818;stroke-width:1;"/><text fill="#000000" font-family="sans-serif" font-size="13" lengthAdjust="spacing" textLength="153.5117" x="1121.41" y="337.9498">entry (description given)</text></g><!--link Orch to MapS--><g class="link" data-entity-1="ent0003" data-entity-2="ent0006" data-link-type="dependency" data-source-line="73" id="lnk20"><path d="M1218.88,286.5914 C1240.32,296.4414 1261.88,308.9114 1279.41,324.3814 C1300.49,342.9914 1313.3363,366.3783 1322.1463,386.4283" fill="none" id="Orch-to-MapS" style="stroke:#181818;stroke-width:1;"/><polygon fill="#181818" points="1324.56,391.9214,1324.6016,382.0726,1322.5486,387.3438,1317.2774,385.2909,1324.56,391.9214" style="stroke:#181818;stroke-width:1;"/><text fill="#000000" font-family="sans-serif" font-size="13" lengthAdjust="spacing" textLength="135.6621" x="1295.98" y="337.9498">entry (no description)</text></g><!--link Orch to ValS--><g class="link" data-entity-1="ent0003" data-entity-2="ent0007" data-link-type="dependency" data-source-line="74" id="lnk21"><path d="M1219.02,267.9414 C1298.94,279.7314 1405.31,299.4014 1440.41,324.3814 C1463.88,341.0814 1477.0106,365.675 1485.3906,386.505" fill="none" id="Orch-to-ValS" style="stroke:#181818;stroke-width:1;"/><polygon fill="#181818" points="1487.63,392.0714,1487.9819,382.2288,1485.7638,387.4327,1480.56,385.2147,1487.63,392.0714" style="stroke:#181818;stroke-width:1;"/><text fill="#000000" font-family="sans-serif" font-size="13" lengthAdjust="spacing" textLength="27.3901" x="1458.15" y="337.9498">gate</text></g><!--link Orch to ImplS--><g class="link" data-entity-1="ent0003" data-entity-2="ent0008" data-link-type="dependency" data-source-line="75" id="lnk22"><path d="M1219.29,262.2414 C1315.05,271.7614 1464.55,294.6914 1582.41,349.3814 C1607.08,360.8314 1627.6935,374.5801 1646.3235,388.5001" fill="none" id="Orch-to-ImplS" style="stroke:#181818;stroke-width:1;"/><polygon fill="#181818" points="1651.13,392.0914,1646.3145,383.5001,1647.1246,389.0986,1641.526,389.9087,1651.13,392.0914" style="stroke:#181818;stroke-width:1;"/><text fill="#000000" font-family="sans-serif" font-size="13" lengthAdjust="spacing" textLength="65.3809" x="1560.38" y="337.9498">write code</text></g><!--link Orch to RevS--><g class="link" data-entity-1="ent0003" data-entity-2="ent0009" data-link-type="dependency" data-source-line="76" id="lnk23"><path d="M1040.43,286.5614 C1000.25,302.9614 952.04,324.8014 911.41,349.3814 C891.02,361.7214 874.5777,374.5976 858.9377,388.0576" fill="none" id="Orch-to-RevS" style="stroke:#181818;stroke-width:1;"/><polygon fill="#181818" points="854.39,391.9714,863.8208,389.1325,858.1798,388.7099,858.6024,383.0688,854.39,391.9714" style="stroke:#181818;stroke-width:1;"/><text fill="#000000" font-family="sans-serif" font-size="13" lengthAdjust="spacing" textLength="36.0928" x="956.81" y="337.9498">parity</text></g><!--link Orch to Store--><g class="link" data-entity-1="ent0003" data-entity-2="ent0011" data-link-type="dependency" data-source-line="77" id="lnk24"><path d="M1027.7,261.6214 C892.62,271.0514 653.58,291.7714 573.41,324.3814 C512.19,349.2814 443.02,349.9914 380.41,485.3614 C335.89,581.6314 678.7612,659.2841 867.1812,694.3341" fill="none" id="Orch-to-Store" style="stroke:#181818;stroke-width:1;"/><polygon fill="#181818" points="873.08,695.4314,864.9633,689.8529,868.1643,694.517,863.5003,697.718,873.08,695.4314" style="stroke:#181818;stroke-width:1;"/><text fill="#000000" font-family="sans-serif" font-size="13" lengthAdjust="spacing" textLength="251.8179" x="381.41" y="498.9298">open / before / close / after / diff puml</text></g><!--link Orch to DiffRend--><g class="link" data-entity-1="ent0003" data-entity-2="ent0015" data-link-type="dependency" data-source-line="78" id="lnk25"><path d="M1027.65,257.6514 C885.58,262.8714 629.57,281.6814 572.41,349.3814 C539.87,387.9214 541.19,423.2514 572.41,462.8714 C581.53,474.4514 733.4434,508.8531 852.0034,534.2831" fill="none" id="Orch-to-DiffRend" style="stroke:#181818;stroke-width:1;"/><polygon fill="#181818" points="857.87,535.5414,849.909,529.7429,852.9812,534.4928,848.2313,537.565,857.87,535.5414" style="stroke:#181818;stroke-width:1;"/><text fill="#000000" font-family="sans-serif" font-size="13" lengthAdjust="spacing" textLength="174.2749" x="573.41" y="420.6898">on close, render_cycle_diffs</text></g><!--link RendS to DiffRend--><g class="link" data-entity-1="ent0010" data-entity-2="ent0015" data-link-type="dependency" data-source-line="79" id="lnk26"><path d="M990.71,439.1514 C988.7,452.5314 986.42,469.8714 985.41,485.3614 C984.92,492.9014 985.22,494.8014 985.41,502.3614 C985.65,512.0314 985.7916,516.5693 986.2816,526.0893" fill="none" id="RendS-to-DiffRend" style="stroke:#181818;stroke-width:1;"/><polygon fill="#181818" points="986.59,532.0814,990.1221,522.8877,986.333,527.088,982.1327,523.2989,986.59,532.0814" style="stroke:#181818;stroke-width:1;"/><text fill="#000000" font-family="sans-serif" font-size="13" lengthAdjust="spacing" textLength="152.7119" x="986.41" y="498.9298">/mdd-render diff pumls</text></g><!--link DiffRend to Store--><g class="link" data-entity-1="ent0015" data-entity-2="ent0011" data-link-type="dependency" data-source-line="80" id="lnk27"><path d="M988.41,595.6114 C988.41,617.6714 988.41,662.6814 988.41,687.1014" fill="none" id="DiffRend-to-Store" style="stroke:#181818;stroke-width:1;"/><polygon fill="#181818" points="988.41,693.1014,992.41,684.1014,988.41,688.1014,984.41,684.1014,988.41,693.1014" style="stroke:#181818;stroke-width:1;"/><text fill="#000000" font-family="sans-serif" font-size="13" lengthAdjust="spacing" textLength="130.895" x="989.41" y="638.8998">read &lt;rel&gt;.diff.puml</text></g><!--link DiffRend to Rendered--><g class="link" data-entity-1="ent0015" data-entity-2="ent0012" data-link-type="dependency" data-source-line="81" id="lnk28"><path d="M1072.66,595.7914 C1139.42,620.3114 1227.0781,652.5022 1296.5381,678.0222" fill="none" id="DiffRend-to-Rendered" style="stroke:#181818;stroke-width:1;"/><polygon fill="#181818" points="1302.17,680.0914,1295.1016,673.233,1297.4767,678.3671,1292.3427,680.7422,1302.17,680.0914" style="stroke:#181818;stroke-width:1;"/><text fill="#000000" font-family="sans-serif" font-size="13" lengthAdjust="spacing" textLength="299.5586" x="1193.91" y="638.8998">write &lt;rel&gt;.diff.svg (rendered_svg_path mirror)</text></g><!--link Gen to Models--><g class="link" data-entity-1="ent0005" data-entity-2="ent0013" data-link-type="dependency" data-source-line="82" id="lnk29"><path d="M1174.38,439.1914 C1181.21,458.1214 1193.26,484.7914 1211.41,502.3614 C1225.72,516.2014 1238.3838,524.7182 1256.4038,533.4782" fill="none" id="Gen-to-Models" style="stroke:#181818;stroke-width:1;"/><polygon fill="#181818" points="1261.8,536.1014,1255.4546,528.5691,1257.3032,533.9154,1251.9569,535.764,1261.8,536.1014" style="stroke:#181818;stroke-width:1;"/><text fill="#000000" font-family="sans-serif" font-size="13" lengthAdjust="spacing" textLength="115.0449" x="1212.41" y="498.9298">objective + @desc</text></g><!--link MapS to Models--><g class="link" data-entity-1="ent0006" data-entity-2="ent0013" data-link-type="dependency" data-source-line="83" id="lnk30"><path d="M1334.33,439.1514 C1335.41,465.3514 1336.9341,523.5464 1338.0741,551.3364" fill="none" id="MapS-to-Models" style="stroke:#181818;stroke-width:1;"/><polygon fill="#181818" points="1338.32,557.3314,1341.9478,548.175,1338.1151,552.3356,1333.9545,548.5029,1338.32,557.3314" style="stroke:#181818;stroke-width:1;"/><text fill="#000000" font-family="sans-serif" font-size="13" lengthAdjust="spacing" textLength="103.9683" x="1337.77" y="498.9298">current + @desc</text></g><!--link Dev to Viewer--><g class="link" data-entity-1="ent0002" data-entity-2="ent0016" data-link-type="dependency" data-source-line="85" id="lnk31"><path d="M2096.41,138.2014 C2096.41,162.3114 2096.41,185.5714 2096.41,208.6014" fill="none" id="Dev-to-Viewer" style="stroke:#181818;stroke-width:1;"/><polygon fill="#181818" points="2096.41,214.6014,2100.41,205.6014,2096.41,209.6014,2092.41,205.6014,2096.41,214.6014" style="stroke:#181818;stroke-width:1;"/><text fill="#000000" font-family="sans-serif" font-size="13" lengthAdjust="spacing" textLength="60.3599" x="2097.41" y="181.4898">mdd view</text></g><!--link Viewer to Core--><g class="link" data-entity-1="ent0016" data-entity-2="ent0014" data-link-type="dependency" data-source-line="86" id="lnk32"><path d="M1982.95,267.2314 C1908.81,277.4014 1821.59,295.2414 1798.41,324.3814 C1782.99,343.7614 1790.5116,357.908 1812.4016,372.158" fill="none" id="Viewer-to-Core" style="stroke:#181818;stroke-width:1;"/><polygon fill="#181818" points="1817.43,375.4314,1812.0697,367.169,1813.2397,372.7036,1807.7051,373.8736,1817.43,375.4314" style="stroke:#181818;stroke-width:1;"/><text fill="#000000" font-family="sans-serif" font-size="13" lengthAdjust="spacing" textLength="270.4609" x="1799.41" y="337.9498">descriptions(), cycle_registry(), cycle_diffs()</text></g><!--link Core to Store--><g class="link" data-entity-1="ent0014" data-entity-2="ent0011" data-link-type="dependency" data-source-line="87" id="lnk33"><path d="M1864.65,455.7814 C1842.72,471.0614 1816.81,488.2714 1792.41,502.3614 C1668.47,573.9114 1639.64,601.7114 1502.41,642.3314 C1400.6,672.4714 1370.55,657.5714 1265.41,672.3314 C1212.28,679.7914 1159.4675,687.8218 1109.7975,695.6118" fill="none" id="Core-to-Store" style="stroke:#181818;stroke-width:1;"/><polygon fill="#181818" points="1103.87,696.5414,1113.3811,699.0986,1108.8096,695.7667,1112.1415,691.1952,1103.87,696.5414" style="stroke:#181818;stroke-width:1;"/><text fill="#000000" font-family="sans-serif" font-size="13" lengthAdjust="spacing" textLength="169.4761" x="1741.71" y="568.9198">read manifest + snapshots</text></g><!--link Core to Models--><g class="link" data-entity-1="ent0014" data-entity-2="ent0013" data-link-type="dependency" data-source-line="88" id="lnk34"><path d="M1800.9,455.7714 C1791.97,458.3114 1783.07,460.7114 1774.41,462.8714 C1719.64,476.5314 1704.6,473.5114 1649.41,485.3614 C1578.76,500.5214 1505.5662,539.8087 1444.9962,555.5887" fill="none" id="Core-to-Models" style="stroke:#181818;stroke-width:1;"/><polygon fill="#181818" points="1439.19,557.1014,1448.9077,558.7032,1444.0285,555.8409,1446.8908,550.9616,1439.19,557.1014" style="stroke:#181818;stroke-width:1;"/><text fill="#000000" font-family="sans-serif" font-size="13" lengthAdjust="spacing" textLength="137.0078" x="1650.41" y="498.9298">scan models + @desc</text></g><!--link Viewer to Rendered--><g class="link" data-entity-1="ent0016" data-entity-2="ent0012" data-link-type="dependency" data-source-line="89" id="lnk35"><path d="M2096.85,294.6914 C2095.77,338.2214 2089.17,409.5114 2060.41,462.8714 C2019.62,538.5614 1995.28,554.8814 1919.41,595.3314 C1790.09,664.2914 1628.082,693.0471 1518.092,705.4871" fill="none" id="Viewer-to-Rendered" style="stroke:#181818;stroke-width:1;"/><polygon fill="#181818" points="1512.13,706.1614,1521.5225,709.1246,1517.0983,705.5995,1520.6234,701.1753,1512.13,706.1614" style="stroke:#181818;stroke-width:1;"/><text fill="#000000" font-family="sans-serif" font-size="13" lengthAdjust="spacing" textLength="344.6206" x="2048.72" y="498.9298">load selected file's &lt;rel&gt;.diff.svg (Diagram sub-mode)</text></g><!--link Viewer to Egui--><g class="link" data-entity-1="ent0016" data-entity-2="ent0017" data-link-type="dependency" data-source-line="90" id="lnk36"><path d="M2115.17,294.5314 C2124.37,310.5914 2136.67,328.4214 2151.41,341.3814 C2176.34,363.2914 2203.4125,377.7156 2232.2925,389.6156" fill="none" id="Viewer-to-Egui" style="stroke:#181818;stroke-width:1;"/><polygon fill="#181818" points="2237.84,391.9014,2231.0426,384.7743,2233.2171,389.9965,2227.9948,392.171,2237.84,391.9014" style="stroke:#181818;stroke-width:1;"/><text fill="#000000" font-family="sans-serif" font-size="13" lengthAdjust="spacing" textLength="200.6748" x="2152.41" y="337.9498">tree / diff toggle / card widgets</text></g><!--link Egui to Dev--><g class="link" data-entity-1="ent0017" data-entity-2="ent0002" data-link-type="dependency" data-source-line="91" id="lnk37"><path d="M2332.53,392.2314 C2350.07,374.3314 2368.18,348.3514 2357.41,324.3814 C2310.47,219.8614 2195.8301,146.146 2136.2901,113.206" fill="none" id="Egui-to-Dev" style="stroke:#181818;stroke-width:1;"/><polygon fill="#181818" points="2131.04,110.3014,2136.9788,118.1583,2135.4151,112.7219,2140.8515,111.1582,2131.04,110.3014" style="stroke:#181818;stroke-width:1;"/><text fill="#000000" font-family="sans-serif" font-size="13" lengthAdjust="spacing" textLength="296.0356" x="2341.3" y="259.7198">tree rail + Diagram/List diff + description card</text></g><!--link Orch to GMN38--><g class="link" data-entity-1="ent0003" data-entity-2="ent0039" data-link-type="association" data-source-line="94" id="lnk40"><path d="M1027.79,259.6914 C849.13,267.9714 471.33,289.1114 345.41,324.3814 C295.1,338.4714 242.01,366.2914 206.05,387.3314" fill="none" id="Orch-GMN38" style="stroke:#181818;stroke-width:1;stroke-dasharray:7,7;"/></g><?plantuml-src jLTHRnev47xVNp7Y7WegiAbEgbGIvPe2QL59Y219TRgSaDaruCjYhsn3obMLxaVSBxnVSZFsBdW9lQVB2s3xy-UPyJSpnZmAcJFDLh0sF666mxS8u0DB7XTQhMNQLPdIPsSiJNbwVWu_lJlfzz-T78Delb8R3xgy_F2s-oRw7faTUv8nOrwAMwro9RcqByHlBBCl5HVD4yla8difVfPOfL-86p-jI4JE_kV8luBt8grthsvQtL-xmtvhDEv-wazknnUtet7ZsUe4P_kLQHmNQrUZNdyOhjqF-b_wusBrRX0kzGQNbwrn_xhNzuTeFg_VJVgjyTsrnrTcFOFRGvoLDJVR6rny75zSuG8kTTTQepvRHgGSr9FasYn53ip0R2qosuRR9GSCR9P1VSNqOugO1W4DRbOwMN9ZDRD2INWD5h79Da79p2YGJ6zFOPMchKHfHsuSGdEMmagbF3j53bf72rAkGJDZkHP_SWEfcCyXNwyounasWZyXOiTXDUSnWMAaIBb9jCYT4NU3KsZZZjZPOM8GVeD1iV6sS_azuNzmYKseVI2_AG2qBNRcEvTS43fW-IhFCEjCftFLwqqTnNJoUJ0SecCBGHxm58I4BwFnvylXw8jVd3I10flZcbNGngApJdaCJAOum5XyZHs_sHyOktteooa8Qx1CAKDky3oCqpxY-uYrQuqZNZenXkw5KJgxFey1evSAyqZtBCKSxxMzNMLDcF4vXYvk0flZgVXzbWgsm2mxRzEPRJgpqOG4hzMYTxEjZxUJ3BEWrzAA5Nzcr44gX9Obck8Rbyg9ZKwyeMrje2vaahMXI-DEXooOaWLJpRC6vDdQ0F-AYapibCuoBi8tMls1rQpJ-HP8nJGTvzJVcjuMGs8qmM_FFXSOfk-7JXpax0zyyDfrNf1ioGaoogK24rdSevkhq-Sz8fjOl8IqquJ93JEDkDUVTCU3czl1w1f8A2Iju-IPc27teOr1yGZjmxrJdtQTZl-U1lvZBfib8o4NQpcpIzC9bNSe7woNMQ08KZbvw62UXFy8RpOBM0cjbIRZhR0ePtU_G1U9HNq1__prTr2TweclMeqeybsarkCRdgcSwnevXoFOrVWesdVXsZwz7cIzJ32gN4LMDzp-4TQrACUZsO93ZNz5VP0HJqe_pZFrvCLjQgwr798lE5g9J8xe8vT782kMkzKhba-EB6zO9jAIuPvbnp02pUKh73lG04V7K9gJF1nap3V74NGp1KAc4-nnqLnbL8rhXpVy8F-xC3p80mqusWaLtYhdCJbKDgCWTYOHiBhTjGw3vxeHIOIJGJwaRgrovMKPwNIAUtVI6fTPxmhdD5N9ci9fq8jA_IZMonBZ3kcIHmSdU9yUvFDSQbPooEiJvyctGnAVp0-oA1F5sMknhmuDj2-i3qq8weCNZEC8cVaSYpMsCk0Bf3ff_tpYW7qSHH6bIgjrxYGFdR3V_HRKobz-Zno0aAXf12Apta8zRBqBiU6oiGUIlFT8gS8-7S18uGXReEBtaqxHEFka1JvmgUxjrqZAk8HlF66t-sadD9p7AY3HMQzE_E4RP-nLYj-xHhdVMju7xPP-m-xMWfkCN8eSxWZoA6Z2qGuHskQUFWTPKaMMaj_vVb0dwsNoJ77a95MKpaP45-FYxdA0V9bHryDRmGBd6aBahgI2AIhf3h4JXDSH8j0z8656nGmjThqxOJUjqnkWqb3tCovwzKRajZsBHrbLgEb8bfkbicOFtLbgKF7-sMXsrWOc1O7B5B8Qdg7pEARM_SeyYsFFFsB0h6SjOcs4P9GRI4HvM2h6gWNz5q8zCPt2aqWN7CrqG2S835knWPewMbWS40yn69xYTUMbIZnH99MbrxArQWLgxZiFmAXyvrPVqsqC73uTM8QPZQYocRZdHANvWCH-g7qgA4rrtoK1A_ZgPRdpBzMo3pRQ4ScGJ7fcsAuKGwcC9TOGJEgR3FzatLqDCSyNGd9wh68IPLlNRAJ1OmpachTAtSBa_gF_L-74YyzpXj0tdJU5Zg4-wWxzgmMHhPkBsqyjVBiCxlkzmBv_0G00?></g></svg>