<svg xmlns="http://www.w3.org/2000/svg" xmlns:xlink="http://www.w3.org/1999/xlink" contentStyleType="text/css" data-diagram-type="DESCRIPTION" height="522px" preserveAspectRatio="none" style="width:1901px;height:522px;background:#FFFFFF;" version="1.1" viewBox="0 0 1901 522" width="1901px" zoomAndPan="magnify"><?plantuml 1.2026.3?><defs/><g><g class="title" data-source-line="47"><text fill="#000000" font-family="sans-serif" font-size="14" font-weight="700" lengthAdjust="spacing" textLength="245.1709" x="824.8102" y="23.5352">/mdd-deploy ownership (current)</text></g><!--cluster canonical source of truth--><g class="cluster" data-qualified-name="canonical source of truth" data-source-line="59" id="ent0009"><path d="M1469.35,43.4883 L1650.9076,43.4883 A3.75,3.75 0 0 1 1653.4076,45.9883 L1660.4076,65.9766 L1820.35,65.9766 A2.5,2.5 0 0 1 1822.85,68.4766 L1822.85,171.4483 A2.5,2.5 0 0 1 1820.35,173.9483 L1469.35,173.9483 A2.5,2.5 0 0 1 1466.85,171.4483 L1466.85,45.9883 A2.5,2.5 0 0 1 1469.35,43.4883" fill="none" style="stroke:#000000;stroke-width:1.5;"/><line style="stroke:#000000;stroke-width:1.5;" x1="1466.85" x2="1660.4076" y1="65.9766" y2="65.9766"/><text fill="#000000" font-family="sans-serif" font-size="14" font-weight="700" lengthAdjust="spacing" textLength="180.5576" x="1470.85" y="59.0234">canonical source of truth</text></g><!--cluster existing gated MDD pipeline\n(unaffected)--><g class="cluster" data-qualified-name="existing gated MDD pipeline.n.unaffected." data-source-line="63" id="ent0011"><path d="M490.35,227.7083 L696.1342,227.7083 A3.75,3.75 0 0 1 698.6342,230.2083 L705.6342,266.6848 L763.35,266.6848 A2.5,2.5 0 0 1 765.85,269.1848 L765.85,355.1883 A2.5,2.5 0 0 1 763.35,357.6883 L490.35,357.6883 A2.5,2.5 0 0 1 487.85,355.1883 L487.85,230.2083 A2.5,2.5 0 0 1 490.35,227.7083" fill="none" style="stroke:#000000;stroke-width:1.5;"/><line style="stroke:#000000;stroke-width:1.5;" x1="487.85" x2="705.6342" y1="266.6848" y2="266.6848"/><text fill="#000000" font-family="sans-serif" font-size="14" font-weight="700" lengthAdjust="spacing" textLength="204.7842" x="491.85" y="243.2434">existing gated MDD pipeline</text><text fill="#000000" font-family="sans-serif" font-size="14" font-weight="700" lengthAdjust="spacing" textLength="87.4111" x="550.5365" y="259.7317">(unaffected)</text></g><!--entity Templates--><g class="entity" data-qualified-name="canonical source of truth.Templates" data-source-line="60" id="ent0010"><rect fill="#F1F1F1" height="79.4648" rx="2.5" ry="2.5" style="stroke:#181818;stroke-width:0.5;" width="324.3887" x="1482.66" y="78.4883"/><rect fill="#F1F1F1" height="10" style="stroke:#181818;stroke-width:0.5;" width="15" x="1787.0487" y="83.4883"/><rect fill="#F1F1F1" height="2" style="stroke:#181818;stroke-width:0.5;" width="4" x="1785.0487" y="85.4883"/><rect fill="#F1F1F1" height="2" style="stroke:#181818;stroke-width:0.5;" width="4" x="1785.0487" y="89.4883"/><text fill="#000000" font-family="sans-serif" font-size="14" lengthAdjust="spacing" textLength="235.1221" x="1497.66" y="112.0234">crates/mdd-core/src/templates.rs</text><text fill="#000000" font-family="sans-serif" font-size="14" lengthAdjust="spacing" textLength="284.3887" x="1497.66" y="128.5117">MDD_DEPLOY_SKILL + WORKFLOW_SKILLS</text><text fill="#000000" font-family="sans-serif" font-size="14" lengthAdjust="spacing" textLength="207.5732" x="1497.66" y="145">+ MDD_DEPLOY_PROFILE_DOC</text></g><!--entity Gate--><g class="entity" data-qualified-name="existing gated MDD pipeline.n.unaffected..Gate" data-source-line="64" id="ent0012"><rect fill="#F1F1F1" height="62.9766" rx="2.5" ry="2.5" style="stroke:#181818;stroke-width:0.5;" width="246.3975" x="503.65" y="278.7083"/><rect fill="#F1F1F1" height="10" style="stroke:#181818;stroke-width:0.5;" width="15" x="730.0475" y="283.7083"/><rect fill="#F1F1F1" height="2" style="stroke:#181818;stroke-width:0.5;" width="4" x="728.0475" y="285.7083"/><rect fill="#F1F1F1" height="2" style="stroke:#181818;stroke-width:0.5;" width="4" x="728.0475" y="289.7083"/><text fill="#000000" font-family="sans-serif" font-size="14" lengthAdjust="spacing" textLength="206.3975" x="518.65" y="312.2434">/mdd-cycle / /mdd-validate /</text><text fill="#000000" font-family="sans-serif" font-size="14" lengthAdjust="spacing" textLength="175.875" x="518.65" y="328.7317">/mdd-review (parity gate)</text></g><!--entity Op--><g class="entity" data-qualified-name="Op" data-source-line="49" id="ent0002"><ellipse cx="760.8459" cy="96.7166" fill="#90EE90" rx="8" ry="8" style="stroke:#181818;stroke-width:0.5;"/><path d="M760.8459,104.7166 L760.8459,131.7166 M747.8459,112.7166 L773.8459,112.7166 M760.8459,131.7166 L747.8459,146.7166 M760.8459,131.7166 L773.8459,146.7166" fill="none" style="stroke:#181818;stroke-width:0.5;"/><text fill="#000000" font-family="sans-serif" font-size="14" lengthAdjust="spacing" textLength="60.5117" x="730.59" y="161.7517">Operator</text><text fill="#000000" font-family="sans-serif" font-size="14" font-style="italic" lengthAdjust="spacing" textLength="56.6357" x="732.528" y="85.2634">&#171;added&#187;</text></g><!--entity Skill--><g class="entity" data-qualified-name="Skill" data-source-line="51" id="ent0003"><rect fill="#F1F1F1" height="62.9766" rx="2.5" ry="2.5" style="stroke:#181818;stroke-width:0.5;" width="131.5195" x="1150.09" y="278.7083"/><rect fill="#F1F1F1" height="10" style="stroke:#181818;stroke-width:0.5;" width="15" x="1261.6095" y="283.7083"/><rect fill="#F1F1F1" height="2" style="stroke:#181818;stroke-width:0.5;" width="4" x="1259.6095" y="285.7083"/><rect fill="#F1F1F1" height="2" style="stroke:#181818;stroke-width:0.5;" width="4" x="1259.6095" y="289.7083"/><text fill="#000000" font-family="sans-serif" font-size="14" lengthAdjust="spacing" textLength="91.5195" x="1165.09" y="312.2434">/mdd-deploy</text><text fill="#000000" font-family="sans-serif" font-size="14" lengthAdjust="spacing" textLength="79.6113" x="1165.09" y="328.7317">(utility skill)</text></g><!--entity Render--><g class="entity" data-qualified-name="Render" data-source-line="52" id="ent0004"><rect fill="#F1F1F1" height="62.9766" rx="2.5" ry="2.5" style="stroke:#181818;stroke-width:0.5;" width="130.6924" x="317.5" y="278.7083"/><rect fill="#F1F1F1" height="10" style="stroke:#181818;stroke-width:0.5;" width="15" x="428.1924" y="283.7083"/><rect fill="#F1F1F1" height="2" style="stroke:#181818;stroke-width:0.5;" width="4" x="426.1924" y="285.7083"/><rect fill="#F1F1F1" height="2" style="stroke:#181818;stroke-width:0.5;" width="4" x="426.1924" y="289.7083"/><text fill="#000000" font-family="sans-serif" font-size="14" lengthAdjust="spacing" textLength="90.6924" x="332.5" y="312.2434">/mdd-render</text><text fill="#000000" font-family="sans-serif" font-size="14" lengthAdjust="spacing" textLength="72.6387" x="332.5" y="328.7317">(extended)</text></g><!--entity Store--><g class="entity" data-qualified-name="Store" data-source-line="54" id="ent0005"><path d="M694.91,428.4783 L735.91,428.4783 A3.75,3.75 0 0 1 738.41,430.9783 L745.41,449.4783 L972.7987,449.4783 A2.5,2.5 0 0 1 975.2987,451.9783 L975.2987,496.9548 A2.5,2.5 0 0 1 972.7987,499.4548 L694.91,499.4548 A2.5,2.5 0 0 1 692.41,496.9548 L692.41,430.9783 A2.5,2.5 0 0 1 694.91,428.4783" fill="#F1F1F1" style="stroke:#181818;stroke-width:0.5;"/><line style="stroke:#181818;stroke-width:0.5;" x1="692.41" x2="745.41" y1="449.4783" y2="449.4783"/><text fill="#000000" font-family="sans-serif" font-size="14" lengthAdjust="spacing" textLength="252.8887" x="702.41" y="470.0134">.mdd/deploy/azure-container-apps/</text><text fill="#000000" font-family="sans-serif" font-size="14" lengthAdjust="spacing" textLength="187.3662" x="702.41" y="486.5017">diagram.puml, runbook.md</text></g><!--entity Target--><g class="entity" data-qualified-name="Target" data-source-line="55" id="ent0006"><path d="M1013.08,428.4783 L1054.08,428.4783 A3.75,3.75 0 0 1 1056.58,430.9783 L1063.58,449.4783 L1238.6191,449.4783 A2.5,2.5 0 0 1 1241.1191,451.9783 L1241.1191,496.9548 A2.5,2.5 0 0 1 1238.6191,499.4548 L1013.08,499.4548 A2.5,2.5 0 0 1 1010.58,496.9548 L1010.58,430.9783 A2.5,2.5 0 0 1 1013.08,428.4783" fill="#F1F1F1" style="stroke:#181818;stroke-width:0.5;"/><line style="stroke:#181818;stroke-width:0.5;" x1="1010.58" x2="1063.58" y1="449.4783" y2="449.4783"/><text fill="#000000" font-family="sans-serif" font-size="14" lengthAdjust="spacing" textLength="133.834" x="1020.58" y="470.0134">../atlas-ate-server/</text><text fill="#000000" font-family="sans-serif" font-size="14" lengthAdjust="spacing" textLength="200.5391" x="1020.58" y="486.5017">infra/main.bicep (+ modules)</text></g><!--entity Rendered--><g class="entity" data-qualified-name="Rendered" data-source-line="56" id="ent0007"><path d="M8.5,428.4783 L49.5,428.4783 A3.75,3.75 0 0 1 52,430.9783 L59,449.4783 L197.2002,449.4783 A2.5,2.5 0 0 1 199.7002,451.9783 L199.7002,496.9548 A2.5,2.5 0 0 1 197.2002,499.4548 L8.5,499.4548 A2.5,2.5 0 0 1 6,496.9548 L6,430.9783 A2.5,2.5 0 0 1 8.5,428.4783" fill="#F1F1F1" style="stroke:#181818;stroke-width:0.5;"/><line style="stroke:#181818;stroke-width:0.5;" x1="6" x2="59" y1="449.4783" y2="449.4783"/><text fill="#000000" font-family="sans-serif" font-size="14" lengthAdjust="spacing" textLength="163.7002" x="16" y="470.0134">.mdd/rendered/deploy/</text><text fill="#000000" font-family="sans-serif" font-size="14" lengthAdjust="spacing" textLength="55.125" x="16" y="486.5017">**/*.svg</text></g><!--entity ProfileDoc--><g class="entity" data-qualified-name="ProfileDoc" data-source-line="57" id="ent0008"><path d="M1627.6,436.7183 L1668.6,436.7183 A3.75,3.75 0 0 1 1671.1,439.2183 L1678.1,457.7183 L1858.102,457.7183 A2.5,2.5 0 0 1 1860.602,460.2183 L1860.602,488.7066 A2.5,2.5 0 0 1 1858.102,491.2066 L1627.6,491.2066 A2.5,2.5 0 0 1 1625.1,488.7066 L1625.1,439.2183 A2.5,2.5 0 0 1 1627.6,436.7183" fill="#F1F1F1" style="stroke:#181818;stroke-width:0.5;"/><line style="stroke:#181818;stroke-width:0.5;" x1="1625.1" x2="1678.1" y1="457.7183" y2="457.7183"/><text fill="#000000" font-family="sans-serif" font-size="14" lengthAdjust="spacing" textLength="205.502" x="1635.1" y="478.2534">.mdd/docs/deploy-profile.md</text></g><g class="entity" data-qualified-name="GMN23" data-source-line="79" id="ent0024"><path d="M1276.09,443.6483 L1276.09,484.2694 L1589.609,484.2694 L1589.609,453.6483 L1579.609,443.6483 L1276.09,443.6483" fill="#FEFFDD" style="stroke:#181818;stroke-width:0.5;"/><path d="M1579.609,443.6483 L1579.609,453.6483 L1589.609,453.6483 L1579.609,443.6483" fill="#FEFFDD" style="stroke:#181818;stroke-width:1;"/><text fill="#000000" font-family="sans-serif" font-size="13" lengthAdjust="spacing" textLength="292.519" x="1282.09" y="461.2166">Guidance only. Never runs az / docker / brew.</text><text fill="#000000" font-family="sans-serif" font-size="13" lengthAdjust="spacing" textLength="213.4019" x="1282.09" y="476.5272">Realizes USE-DEPLOY-GUIDANCE.</text></g><g class="entity" data-qualified-name="GMN26" data-source-line="84" id="ent0027"><path d="M308.43,420.6883 L308.43,507.241 L657.2611,507.241 L657.2611,430.6883 L647.2611,420.6883 L308.43,420.6883" fill="#FEFFDD" style="stroke:#181818;stroke-width:0.5;"/><path d="M647.2611,420.6883 L647.2611,430.6883 L657.2611,430.6883 L647.2611,420.6883" fill="#FEFFDD" style="stroke:#181818;stroke-width:1;"/><text fill="#000000" font-family="sans-serif" font-size="13" lengthAdjust="spacing" textLength="327.8311" x="314.43" y="438.2566">/mdd-deploy is decoupled: no objective&lt;-&gt;current</text><text fill="#000000" font-family="sans-serif" font-size="13" lengthAdjust="spacing" textLength="254.7822" x="314.43" y="453.5672">parity, no security-marker parity. A UML</text><text fill="#000000" font-family="sans-serif" font-size="13" lengthAdjust="spacing" textLength="264.9385" x="314.43" y="468.8777">deployment diagram has no code-derived</text><text fill="#000000" font-family="sans-serif" font-size="13" lengthAdjust="spacing" textLength="288.5898" x="314.43" y="484.1883">counterpart, so by design it is not routed into</text><text fill="#000000" font-family="sans-serif" font-size="13" lengthAdjust="spacing" textLength="55.7896" x="314.43" y="499.4988">the gate.</text></g><!--link Op to Skill--><g class="link" data-entity-1="ent0002" data-entity-2="ent0003" data-link-type="dependency" data-source-line="67" id="lnk13"><path d="M791.41,131.9783 C864.34,162.4283 1044.3531,237.5969 1144.2431,279.2969" fill="none" id="Op-to-Skill" style="stroke:#181818;stroke-width:1;"/><polygon fill="#181818" points="1149.78,281.6083,1143.0156,274.4499,1145.1659,279.6821,1139.9337,281.8324,1149.78,281.6083" style="stroke:#181818;stroke-width:1;"/><text fill="#000000" font-family="sans-serif" font-size="13" lengthAdjust="spacing" textLength="180.4067" x="975.71" y="208.2766">/mdd-deploy &lt;description&gt;</text></g><!--link Templates to Skill--><g class="link" data-entity-1="ent0010" data-entity-2="ent0003" data-link-type="dependency" data-source-line="68" id="lnk14"><path d="M1556.48,158.3583 C1474.93,194.4683 1361.1262,244.8689 1287.5062,277.4689" fill="none" id="Templates-to-Skill" style="stroke:#181818;stroke-width:1;stroke-dasharray:7,7;"/><polygon fill="#181818" points="1282.02,279.8983,1291.8688,279.9117,1286.5918,277.8738,1288.6297,272.5968,1282.02,279.8983" style="stroke:#181818;stroke-width:1;"/><text fill="#000000" font-family="sans-serif" font-size="13" lengthAdjust="spacing" textLength="170.3013" x="1469.77" y="208.2766">materialized by `mdd init`</text></g><!--link Templates to ProfileDoc--><g class="link" data-entity-1="ent0010" data-entity-2="ent0008" data-link-type="dependency" data-source-line="69" id="lnk15"><path d="M1656,158.3183 C1676.16,229.0583 1716.5545,391.7483 1733.6945,451.8483" fill="none" id="Templates-to-ProfileDoc" style="stroke:#181818;stroke-width:1;stroke-dasharray:7,7;"/><polygon fill="#181818" points="1735.34,457.6183,1736.7183,447.8663,1733.9687,452.81,1729.0251,450.0604,1735.34,457.6183" style="stroke:#181818;stroke-width:1;"/><text fill="#000000" font-family="sans-serif" font-size="13" lengthAdjust="spacing" textLength="170.3013" x="1715.49" y="315.2666">materialized by `mdd init`</text></g><!--link Skill to Store--><g class="link" data-entity-1="ent0003" data-entity-2="ent0005" data-link-type="dependency" data-source-line="70" id="lnk16"><path d="M1149.6,314.3983 C1087.4,319.8383 993.48,334.4583 921.85,373.6883 C897.42,387.0683 879.2728,425.7887 863.3828,444.7587" fill="none" id="Skill-to-Store" style="stroke:#181818;stroke-width:1;"/><polygon fill="#181818" points="859.53,449.3583,868.3756,445.0274,862.7407,445.5253,862.2428,439.8904,859.53,449.3583" style="stroke:#181818;stroke-width:1;"/><text fill="#000000" font-family="sans-serif" font-size="13" lengthAdjust="spacing" textLength="219.6289" x="922.85" y="387.2566">write diagram.puml + runbook.md</text></g><!--link Skill to Target--><g class="link" data-entity-1="ent0003" data-entity-2="ent0006" data-link-type="dependency" data-source-line="71" id="lnk17"><path d="M1184.06,342.1483 C1175.42,351.6883 1166.6,362.6183 1159.85,373.6883 C1149.58,390.5383 1143.4054,426.3255 1137.7154,443.4155" fill="none" id="Skill-to-Target" style="stroke:#181818;stroke-width:1;"/><polygon fill="#181818" points="1135.82,449.1083,1142.4582,441.8327,1137.3995,444.3643,1134.8679,439.3056,1135.82,449.1083" style="stroke:#181818;stroke-width:1;"/><text fill="#000000" font-family="sans-serif" font-size="13" lengthAdjust="spacing" textLength="245.5908" x="1160.85" y="387.2566">generate infra/main.bicep (+ modules)</text></g><!--link Skill to ProfileDoc--><g class="link" data-entity-1="ent0003" data-entity-2="ent0008" data-link-type="dependency" data-source-line="72" id="lnk18"><path d="M1282.11,329.0383 C1360.03,350.1883 1493.18,386.8383 1606.85,420.6883 C1623.44,425.6283 1635.387,429.2583 1652.327,434.4883" fill="none" id="Skill-to-ProfileDoc" style="stroke:#181818;stroke-width:1;stroke-dasharray:7,7;"/><polygon fill="#181818" points="1658.06,436.2583,1650.6405,429.7813,1653.2825,434.7833,1648.2805,437.4253,1658.06,436.2583" style="stroke:#181818;stroke-width:1;"/><text fill="#000000" font-family="sans-serif" font-size="13" lengthAdjust="spacing" textLength="125.0742" x="1500.77" y="387.2566">follows conventions</text></g><!--link Op to Render--><g class="link" data-entity-1="ent0002" data-entity-2="ent0004" data-link-type="dependency" data-source-line="73" id="lnk19"><path d="M730.23,126.6883 C678.04,140.2183 569.59,171.8983 487.85,219.7083 C460.35,235.7883 437.4375,255.1831 417.5775,274.0731" fill="none" id="Op-to-Render" style="stroke:#181818;stroke-width:1;"/><polygon fill="#181818" points="413.23,278.2083,422.508,274.9039,416.8529,274.7623,416.9945,269.1072,413.23,278.2083" style="stroke:#181818;stroke-width:1;"/><text fill="#000000" font-family="sans-serif" font-size="13" lengthAdjust="spacing" textLength="84.2144" x="530.81" y="208.2766">/mdd-render</text></g><!--link Render to Store--><g class="link" data-entity-1="ent0004" data-entity-2="ent0005" data-link-type="dependency" data-source-line="74" id="lnk20"><path d="M398.02,341.7983 C408.25,359.0683 423.42,379.3883 442.85,390.6883 C532.74,442.9183 572.84,400.6183 674.85,420.6883 C685.92,422.8683 691.5196,424.0038 702.9496,426.6938" fill="none" id="Render-to-Store" style="stroke:#181818;stroke-width:1;"/><polygon fill="#181818" points="708.79,428.0683,700.9457,422.1129,703.923,426.9228,699.113,429.9001,708.79,428.0683" style="stroke:#181818;stroke-width:1;"/><text fill="#000000" font-family="sans-serif" font-size="13" lengthAdjust="spacing" textLength="182.2983" x="443.85" y="387.2566">read .mdd/deploy/**/*.puml</text></g><!--link Render to Rendered--><g class="link" data-entity-1="ent0004" data-entity-2="ent0007" data-link-type="dependency" data-source-line="75" id="lnk21"><path d="M317.23,316.3583 C242.3,323.7783 126.59,340.3883 99.85,373.6883 C87.81,388.6783 86.9783,425.1998 90.5183,443.2998" fill="none" id="Render-to-Rendered" style="stroke:#181818;stroke-width:1;"/><polygon fill="#181818" points="91.67,449.1883,93.8681,439.5879,90.7103,444.2813,86.0169,441.1234,91.67,449.1883" style="stroke:#181818;stroke-width:1;"/><text fill="#000000" font-family="sans-serif" font-size="13" lengthAdjust="spacing" textLength="238.5068" x="100.85" y="387.2566">write .mdd/rendered/deploy/**/*.svg</text></g><!--link Gate to Store--><g class="link" data-entity-1="ent0012" data-entity-2="ent0005" data-link-type="dependency" data-source-line="76" id="lnk22"><path d="M627.07,341.8383 C628.7,358.0583 633.27,377.3183 644.85,390.6883 C658.31,406.2183 670.1638,415.6558 688.6538,425.2458" fill="none" id="Gate-to-Store" style="stroke:#181818;stroke-width:1;stroke-dasharray:7,7;"/><polygon fill="#181818" points="693.98,428.0083,687.8323,420.3137,689.5415,425.7062,684.149,427.4154,693.98,428.0083" style="stroke:#181818;stroke-width:1;"/><text fill="#000000" font-family="sans-serif" font-size="13" lengthAdjust="spacing" textLength="194.1621" x="645.85" y="387.2566">NEVER reads (outside the gate)</text></g><!--link Skill to GMN23--><g class="link" data-entity-1="ent0003" data-entity-2="ent0024" data-link-type="association" data-source-line="79" id="lnk25"><path d="M1282,316.1483 C1324.49,322.8083 1377.73,338.2183 1410.85,373.6883 C1428.5,392.5883 1432.62,423.3183 1433.27,443.3383" fill="none" id="Skill-GMN23" style="stroke:#181818;stroke-width:1;stroke-dasharray:7,7;"/></g><!--link Gate to GMN26--><g class="link" data-entity-1="ent0012" data-entity-2="ent0027" data-link-type="association" data-source-line="84" id="lnk28"><path d="M606.52,341.9183 C595.79,357.2183 581.94,375.6283 567.85,390.6883 C558.32,400.8683 547.43,411.0383 536.69,420.3983" fill="none" id="Gate-GMN26" style="stroke:#181818;stroke-width:1;stroke-dasharray:7,7;"/></g><?plantuml-src jLVVRo8t47xVls947qekxExrfUfnKNGvs4JHSI4YIKydHUACRS1brrxPNX9IzN_ls5vW8IHjfUObojepu_dnpJU3MGXP4aqAg0odn73uCmBuJEXYfbKbMK_bIf-S4COuEps5dpwypx8Fxm-9Q5wePH0wF__yQ--NwA_8RApJd1ZpLhPLKIh9fNqZ-yOI-rPvqPnQ8cVvMzadr2hzHhRnhnLKbEH_plpFy4cmTk_hTTpFhWV3x_7Dbyl1uEZ0-Urmb1qulpqRNMIt1ov6sLK_6nsuk1uDpoy7MTmVzlojvjFstKsslhwuk-oVNVMoGtUNLpVNMS-zXfUzIci4Ocm4uw0U9DTcBagOk8Y95jp05CkH5ep5Z9UvMW4n88eovmMgSPOu6qGgAIZ9mQXAKxGp1QihEmTXW6h4el46gD8yDPgcbgC1Tvneyn7idAEH11kkOZnDg6By4Nm6au918RHMsW2H3F2RfKnHamPVubAhgSYvaoFQMIdGgXOa5q-SmMG5Fr03X1Js1xIljVe3mTljkk_nWx3pCLLocWjgntCqdtDzbFYaV6BSq6Vrx43hSXju5pPHTBjV-_rn41rxKJW6OGtSB4IUtzPYW6fwXSuq5RyDHr_E1yDlGUscink0a5Rj9IOrpgPf52HTfog1Yqem8YcFbSnN7q7o9TV07pcjy34WK5SGwQV0U3_YYH6JNCYPgvWtYLXWN7T0LTOZ0clZkaRO5SpGiwHrT30z3jQOdfkIKp4L8VMlfATRLpBuVsA9dd5xcaAR2JB3HatAgiWnXxgI4wKMA7pKGI1njCP0IU_LL6XZTu29qWbS4LjfakUhJGXUP8aPPQu83aPrf4l17y1GLV8Ev68HWaKanpF_ZdUn86MAMEOlHHuQzp-5xbu97ZiWGGWUQRN4KYSfiJXtOjID3TTBLmeCcy4eE-l7mwl1Tz-ELfL8HhCLfWXdOENB8-GIwuJCXXqruzZ7FWWXfvfW548c4q5v2GyeRBbFeSPiMF1uYZ5tO4NnKfY1XlORm5Wq-9llzjs0WtZT2a8Q90EAxT1068O0cXY7zIU-WuPtxz9teVuE--uYQF1T2RES9N36cB1YYVMhouPGVY621b_kX_4Ag-prurIheXbha1_NycEq0Ur6mUitnuwZ7Ip-1G4bq5UqSfuP3nJoL6cEn2ajbf3hc9IbQQ0dhXi6MrekyLie6PZIwMuG0NJEwI8NnhhaM65pljCuMzflqp0EZg8epE7Mi7H8KhhbU7zOmcP6Hj5sYsarhDtBTcL5xY3feNNaDJqJFjC8bKKD_cZTlom8Z_nn54rLxg3IQiBZK4BIUzaaZaw3DyBZw3_VMdlUP6ZWMQEqZw5GhCgv2KxT-ZxTzMaVcVToZSr679pj1N8GQLxXEdmY1AAenCM3p3Yqw4lJjULtc4PE_sdKtii3Ssfl0jtBOpWCuP25jJdSUhOkyaV4bXiZWJbH7qfHSfmitC51akaKSU_Bk-ToS7P57IBtc1gpsIJgTcCCXOfSu7_E3KHb79y6Y45t1zadZWQqA5rZd4ORvv5ej_8lhmnx2jlglAuL37kN7F1Gs94kalvBmwsX4L26AciAXzU0MIi-Smxnbgi7qsI5TPO29jTf2W2EwiEcotxg7EJbflGQuPiONoNio5KivBv-vIhxFHlvjmoqcpk7ht8KIOKA4sKjyYx2Fh08RFOSS7iEpdo_vs0-aVkU44VOOGiyI66Y-KE2yYFk2sNWm8QSHEWjk8UUFUS11Zk04evzgQfmVE3aa0hKn54wpg2J-BGcJrG9M7LZQJEWuu9evrMumja5Try7ADfO1TPaFaTmewRRz_1TZSQPxveAvvLsls4wI0KET8XkCPEuQZg_q7d07ogstXjHOvt8ROX_0m00?></g></svg>