<svg xmlns="http://www.w3.org/2000/svg" xmlns:xlink="http://www.w3.org/1999/xlink" contentStyleType="text/css" data-diagram-type="CLASS" height="484px" preserveAspectRatio="none" style="width:772px;height:484px;background:#FFFFFF;" version="1.1" viewBox="0 0 772 484" width="772px" zoomAndPan="magnify"><?plantuml 1.2026.3?><defs/><g><g class="title" data-source-line="35"><text fill="#000000" font-family="sans-serif" font-size="14" font-weight="700" lengthAdjust="spacing" textLength="385.2598" x="190.219" y="23.5352">Viewer domain &#8212; font database + OCL view (current)</text></g><!--class OclSubMode--><g class="entity" data-qualified-name="OclSubMode" data-source-line="37" id="ent0002"><rect fill="#90EE90" height="89.5977" rx="2.5" ry="2.5" style="stroke:#181818;stroke-width:0.5;" width="116.4033" x="7" y="241.5783"/><ellipse cx="22" cy="261.8888" fill="#EB937F" rx="11" ry="11" style="stroke:#181818;stroke-width:1;"/><path d="M25.6143,268.3888 L17.8945,268.3888 L17.8945,255.9958 L25.6143,255.9958 L25.6143,258.154 L20.3433,258.154 L20.3433,260.8268 L25.1162,260.8268 L25.1162,262.985 L20.3433,262.985 L20.3433,266.2306 L25.6143,266.2306 Z " fill="#000000"/><text fill="#000000" font-family="sans-serif" font-size="12" font-style="italic" lengthAdjust="spacing" textLength="48.5449" x="53.9292" y="258.1798">&#171;added&#187;</text><text fill="#000000" font-family="sans-serif" font-size="14" lengthAdjust="spacing" textLength="84.4033" x="36" y="274.2463">OclSubMode</text><line style="stroke:#181818;stroke-width:0.5;" x1="8" x2="122.4033" y1="282.1994" y2="282.1994"/><text fill="#000000" font-family="sans-serif" font-size="14" lengthAdjust="spacing" textLength="45.5273" x="13" y="299.7345">Source</text><text fill="#000000" font-family="sans-serif" font-size="14" lengthAdjust="spacing" textLength="57.5244" x="13" y="316.2228">Diagram</text><line style="stroke:#181818;stroke-width:0.5;" x1="8" x2="122.4033" y1="323.1759" y2="323.1759"/></g><!--class SvgRasterizer--><g class="entity" data-qualified-name="SvgRasterizer" data-source-line="42" id="ent0003"><rect fill="#F1F1F1" height="80.9766" rx="2.5" ry="2.5" style="stroke:#181818;stroke-width:0.5;" width="250.6768" x="479.86" y="60.9783"/><ellipse cx="555.1476" cy="76.9783" fill="#ADD1B2" rx="11" ry="11" style="stroke:#181818;stroke-width:1;"/><path d="M557.6207,83.1213 Q557.0397,83.4202 556.4005,83.5696 Q555.7614,83.719 555.0558,83.719 Q552.549,83.719 551.2291,82.0671 Q549.9093,80.4153 549.9093,77.2942 Q549.9093,74.1648 551.2291,72.5129 Q552.549,70.8611 555.0558,70.8611 Q555.7614,70.8611 556.4088,71.0105 Q557.0563,71.1599 557.6207,71.4588 L557.6207,74.1814 Q556.9899,73.6004 556.3964,73.3306 Q555.8029,73.0608 555.172,73.0608 Q553.8273,73.0608 553.1425,74.1275 Q552.4577,75.1941 552.4577,77.2942 Q552.4577,79.386 553.1425,80.4526 Q553.8273,81.5193 555.172,81.5193 Q555.8029,81.5193 556.3964,81.2495 Q556.9899,80.9797 557.6207,80.3987 Z " fill="#000000"/><text fill="#000000" font-family="sans-serif" font-size="14" lengthAdjust="spacing" textLength="91.6016" x="575.6476" y="82.2693">SvgRasterizer</text><line style="stroke:#181818;stroke-width:0.5;" x1="480.86" x2="729.5368" y1="92.9783" y2="92.9783"/><line style="stroke:#181818;stroke-width:0.5;" x1="480.86" x2="729.5368" y1="100.9783" y2="100.9783"/><g data-visibility-modifier="PUBLIC_METHOD"><ellipse cx="490.86" cy="114.7224" fill="#84BE84" rx="3" ry="3" style="stroke:#038048;stroke-width:1;"/></g><text fill="#000000" font-family="sans-serif" font-size="14" lengthAdjust="spacing" textLength="224.6768" x="499.86" y="118.5134">parse_intrinsic_size(bytes) : Vec2</text><g data-visibility-modifier="PUBLIC_METHOD"><ellipse cx="490.86" cy="131.2107" fill="#84BE84" rx="3" ry="3" style="stroke:#038048;stroke-width:1;"/></g><text fill="#000000" font-family="sans-serif" font-size="14" lengthAdjust="spacing" textLength="180.2363" x="499.86" y="135.0017">rebuild(ctx, zoom) : Result</text></g><!--class FontDatabase--><g class="entity" data-qualified-name="FontDatabase" data-source-line="47" id="ent0004"><rect fill="#F1F1F1" height="97.4648" rx="2.5" ry="2.5" style="stroke:#181818;stroke-width:0.5;" width="191.5527" x="509.43" y="237.6383"/><ellipse cx="554.6087" cy="253.6383" fill="#ADD1B2" rx="11" ry="11" style="stroke:#181818;stroke-width:1;"/><path d="M557.0819,259.7813 Q556.5008,260.0802 555.8616,260.2296 Q555.2225,260.379 554.5169,260.379 Q552.0101,260.379 550.6903,258.7271 Q549.3704,257.0753 549.3704,253.9542 Q549.3704,250.8248 550.6903,249.1729 Q552.0101,247.5211 554.5169,247.5211 Q555.2225,247.5211 555.8699,247.6705 Q556.5174,247.8199 557.0819,248.1187 L557.0819,250.8414 Q556.451,250.2604 555.8575,249.9906 Q555.264,249.7208 554.6331,249.7208 Q553.2884,249.7208 552.6036,250.7875 Q551.9188,251.8541 551.9188,253.9542 Q551.9188,256.046 552.6036,257.1126 Q553.2884,258.1793 554.6331,258.1793 Q555.264,258.1793 555.8575,257.9095 Q556.451,257.6397 557.0819,257.0587 Z " fill="#000000"/><text fill="#000000" font-family="sans-serif" font-size="14" lengthAdjust="spacing" textLength="92.6953" x="575.1087" y="258.9293">FontDatabase</text><line style="stroke:#181818;stroke-width:0.5;" x1="510.43" x2="699.9827" y1="269.6383" y2="269.6383"/><g data-visibility-modifier="PUBLIC_FIELD"><ellipse cx="520.43" cy="283.3824" fill="none" rx="3" ry="3" style="stroke:#038048;stroke-width:1;"/></g><text fill="#000000" font-family="sans-serif" font-size="14" lengthAdjust="spacing" textLength="99.832" x="529.43" y="287.1734">fontCount : int</text><g data-visibility-modifier="PUBLIC_FIELD"><ellipse cx="520.43" cy="299.8707" fill="none" rx="3" ry="3" style="stroke:#038048;stroke-width:1;"/></g><text fill="#000000" font-family="sans-serif" font-size="14" lengthAdjust="spacing" textLength="144.4365" x="529.43" y="303.6617">defaultFamily : String</text><line style="stroke:#181818;stroke-width:0.5;" x1="510.43" x2="699.9827" y1="310.6148" y2="310.6148"/><g data-visibility-modifier="PUBLIC_METHOD"><ellipse cx="520.43" cy="324.359" fill="#84BE84" rx="3" ry="3" style="stroke:#038048;stroke-width:1;"/></g><text fill="#000000" font-family="sans-serif" font-size="14" lengthAdjust="spacing" textLength="165.5527" x="529.43" y="328.15">loadSystemFonts() : void</text></g><!--class OclView--><g class="entity" data-qualified-name="OclView" data-source-line="53" id="ent0005"><rect fill="#F1F1F1" height="113.9531" rx="2.5" ry="2.5" style="stroke:#181818;stroke-width:0.5;" width="230.4014" x="76" y="44.4883"/><ellipse cx="160.0103" cy="60.4883" fill="#ADD1B2" rx="11" ry="11" style="stroke:#181818;stroke-width:1;"/><path d="M162.4834,66.6313 Q161.9023,66.9302 161.2632,67.0796 Q160.624,67.229 159.9185,67.229 Q157.4116,67.229 156.0918,65.5771 Q154.772,63.9253 154.772,60.8042 Q154.772,57.6748 156.0918,56.0229 Q157.4116,54.3711 159.9185,54.3711 Q160.624,54.3711 161.2715,54.5205 Q161.9189,54.6699 162.4834,54.9688 L162.4834,57.6914 Q161.8525,57.1104 161.259,56.8406 Q160.6655,56.5708 160.0347,56.5708 Q158.6899,56.5708 158.0051,57.6375 Q157.3203,58.7041 157.3203,60.8042 Q157.3203,62.896 158.0051,63.9626 Q158.6899,65.0293 160.0347,65.0293 Q160.6655,65.0293 161.259,64.7595 Q161.8525,64.4897 162.4834,63.9087 Z " fill="#000000"/><text fill="#000000" font-family="sans-serif" font-size="14" lengthAdjust="spacing" textLength="53.8809" x="180.5103" y="65.7793">OclView</text><line style="stroke:#181818;stroke-width:0.5;" x1="77" x2="305.4014" y1="76.4883" y2="76.4883"/><g data-visibility-modifier="PUBLIC_FIELD"><ellipse cx="87" cy="90.2324" fill="none" rx="3" ry="3" style="stroke:#038048;stroke-width:1;"/></g><text fill="#000000" font-family="sans-serif" font-size="14" lengthAdjust="spacing" textLength="167.6104" x="96" y="94.0234">sub_mode : OclSubMode</text><g data-visibility-modifier="PUBLIC_FIELD"><ellipse cx="87" cy="106.7207" fill="none" rx="3" ry="3" style="stroke:#038048;stroke-width:1;"/></g><text fill="#000000" font-family="sans-serif" font-size="14" lengthAdjust="spacing" textLength="167.5762" x="96" y="110.5117">loaded : Option&lt;String&gt;</text><g data-visibility-modifier="PUBLIC_FIELD"><ellipse cx="87" cy="123.209" fill="none" rx="3" ry="3" style="stroke:#038048;stroke-width:1;"/></g><text fill="#000000" font-family="sans-serif" font-size="14" lengthAdjust="spacing" textLength="98.3828" x="96" y="127">source : String</text><g data-visibility-modifier="PUBLIC_FIELD"><ellipse cx="87" cy="139.6973" fill="none" rx="3" ry="3" style="stroke:#038048;stroke-width:1;"/></g><text fill="#000000" font-family="sans-serif" font-size="14" lengthAdjust="spacing" textLength="204.4014" x="96" y="143.4883">page : Option&lt;DiagramPage&gt;</text><line style="stroke:#181818;stroke-width:0.5;" x1="77" x2="305.4014" y1="150.4414" y2="150.4414"/></g><g class="entity" data-qualified-name="GMN8" data-source-line="64" id="ent0009"><path d="M452.71,398.3083 L452.71,469.5505 A0,0 0 0 0 452.71,469.5505 L757.6978,469.5505 A0,0 0 0 0 757.6978,469.5505 L757.6978,408.3083 L747.6978,398.3083 L609.2,398.3083 L605.2,335.4383 L601.2,398.3083 L452.71,398.3083 A0,0 0 0 0 452.71,398.3083" fill="#FEFFDD" style="stroke:#181818;stroke-width:0.5;"/><path d="M747.6978,398.3083 L747.6978,408.3083 L757.6978,408.3083 L747.6978,398.3083" fill="#FEFFDD" style="stroke:#181818;stroke-width:0.5;"/><text fill="#000000" font-family="sans-serif" font-size="13" lengthAdjust="spacing" textLength="283.9878" x="458.71" y="415.8766">Backed by usvg::fontdb::Database. Built once</text><text fill="#000000" font-family="sans-serif" font-size="13" lengthAdjust="spacing" textLength="267.1475" x="458.71" y="431.1872">in shared_fontdb() (static OnceLock), filled</text><text fill="#000000" font-family="sans-serif" font-size="13" lengthAdjust="spacing" textLength="283.9878" x="458.71" y="446.4977">by load_system_fonts(), then Arc-cloned into</text><text fill="#000000" font-family="sans-serif" font-size="13" lengthAdjust="spacing" textLength="256.4834" x="458.71" y="461.8083">usvg::Options.fontdb at every parse site.</text></g><g class="entity" data-qualified-name="GMN11" data-source-line="71" id="ent0012"><path d="M158.42,235.4383 L158.42,337.3016 A0,0 0 0 0 158.42,337.3016 L473.9766,337.3016 A0,0 0 0 0 473.9766,337.3016 L473.9766,245.4383 L463.9766,235.4383 L285.83,235.4383 L229.73,158.8383 L277.83,235.4383 L158.42,235.4383 A0,0 0 0 0 158.42,235.4383" fill="#FEFFDD" style="stroke:#181818;stroke-width:0.5;"/><path d="M463.9766,235.4383 L463.9766,245.4383 L473.9766,245.4383 L463.9766,235.4383" fill="#FEFFDD" style="stroke:#181818;stroke-width:0.5;"/><text fill="#000000" font-family="sans-serif" font-size="13" lengthAdjust="spacing" textLength="269.8706" x="164.42" y="253.0066">MddViewer::ocl_ui: Source paints `source`</text><text fill="#000000" font-family="sans-serif" font-size="13" lengthAdjust="spacing" textLength="294.5566" x="164.42" y="268.3172">(read-only, @id/context/inv colored); Diagram</text><text fill="#000000" font-family="sans-serif" font-size="13" lengthAdjust="spacing" textLength="261.5806" x="164.42" y="283.6277">loads Project::rendered_svg_path(.ocl) via</text><text fill="#000000" font-family="sans-serif" font-size="13" lengthAdjust="spacing" textLength="286.2285" x="164.42" y="298.9383">DiagramPage and paints it with paint_canvas,</text><text fill="#000000" font-family="sans-serif" font-size="13" lengthAdjust="spacing" textLength="292.8999" x="164.42" y="314.2488">else a placeholder (OCL-OCL-VIEW-SUBMODE,</text><text fill="#000000" font-family="sans-serif" font-size="13" lengthAdjust="spacing" textLength="241.0205" x="164.42" y="329.5594">OCL-OCL-DIAGRAM-NEEDS-RENDER).</text></g><!--reverse link SvgRasterizer to FontDatabase--><g class="link" data-entity-1="ent0003" data-entity-2="ent0004" data-link-type="aggregation" data-source-line="60" id="lnk6"><path codeLine="60" d="M605.2,154.1583 C605.2,182.0983 605.2,207.6683 605.2,237.3183" fill="none" id="SvgRasterizer-backto-FontDatabase" style="stroke:#181818;stroke-width:1;"/><polygon fill="none" points="605.2,142.1583,601.2,148.1583,605.2,154.1583,609.2,148.1583,605.2,142.1583" style="stroke:#181818;stroke-width:1;"/><polygon fill="#000000" points="610.2,202.0936,613.1389,193.0485,607.2611,193.0485,610.2,202.0936" style="stroke:#000000;stroke-width:1;"/><text fill="#000000" font-family="sans-serif" font-size="13" lengthAdjust="spacing" textLength="123.0303" x="619.2" y="202.0066">resolves &lt;text&gt; via</text><text fill="#000000" font-family="sans-serif" font-size="13" lengthAdjust="spacing" textLength="8.2202" x="596.5803" y="162.4319">1</text><text fill="#000000" font-family="sans-serif" font-size="13" lengthAdjust="spacing" textLength="8.2202" x="596.6521" y="226.9558">1</text></g><!--link OclView to OclSubMode--><g class="link" data-entity-1="ent0005" data-entity-2="ent0002" data-link-type="dependency" data-source-line="61" id="lnk7"><path codeLine="61" d="M152.37,158.8383 C134.15,185.2883 116.1543,211.4176 99.1143,236.1476" fill="none" id="OclView-to-OclSubMode" style="stroke:#181818;stroke-width:1;"/><polygon fill="#181818" points="95.71,241.0883,104.1103,235.9468,98.547,236.971,97.5227,231.4077,95.71,241.0883" style="stroke:#181818;stroke-width:1;"/></g><?plantuml-src jLJBZjiu4BphAngJmyg8vIHxM23Am5W_v620U1nOMU_HeKdQvWv52YIbYHC4s8_85-PBjadwEPdZ-c9JPB6wkrZTza6ecXXIGMCv9PR3jmHWIEZ3nkX6iP6MsjpU4iOuw_VXnTlNHV7szNCGmolTHj1aClnZz2RvdjWZEvN4scjnwwhMYYjt9NxhYBkMBePJHzH6NekVKAVDbRZnrmagQl8_A_yR_2bOEfvDiydi_bCs7dmQ30TbqJaxc8q-P8kxuk-mnxYblyAxS7DNrP9NQ0pESlHtkydpjLQEhV9yJ1nPURkl6Y4TQ4LnkGEx9OQpPKIb7I2AmS3GZ4eq60EXdDuJpMedjB907F2McvrN0-ciSBntSvdM8TdBZ81Og1ZBMi4VkO4PbGjSmJUmpMfPQSPplrSsgockko0rGJ6xO7LZA7xNPCFXUxutvneVcO3b4ks4r3rD9Qm5kkhdlp-W35Vm1gPlmP17SFoBwy9Oa4rynt3WjfZ-Jk6V5L-HX69vpiIpSl4-LZLgZC7qCoiOXttgJ5U8oWE1LmxOGLo_WrSnfdNS8Aj12iPhhfX5pI6jTTr8ubD-Adu7IvHDpCeBw6F5Odk94mvBMvn73uLU1d_fxuKS8QKnxKwISDLKPyB2oQNUmb4gNEorGJScSNILxMP-h29WNyOdNw90HYWhwDBhbgvsZjiEvB3WzFS0CzoRZANKVUd2LwqhVphdjf7kn3_1t8-cZFI-d17sYaCu1WbxZAy9tfkGIiWTxfS-zYOSUOUKEqonybmszL5QBTWfnj5Z0N_m6PmRxSY4JuBxmUItCKW_tefckeWSl7X4xwNxY9jz7_jIkPitDw2pBFnVr9oZJbRBbbkuzVxiuzCHw2U7fBEiVvvdeZJwVgMTqnNezGNNVj14LptVzpqO7XiVuMYWfwsVUhC92ZD4VD3q0Gs97IKvGpZIUesMDiWTxg3UNMzMzNHU8FnYOlHYX6S71xgJWI_ib_BsAY3PbB7e_3p7Bbys8d_Iu9_Z4tr6R6euOPbMSjVre_CLjhINzfLGBROt3c3EEk-ENeTGb8MFHl-3SoJFiMKOzw9W_ikQk6tg1ql7FyofHVmxXpcv3oySF0gtZPzBIbHBR1VXN6AL19kQKBxL4eaXzOrzc8vP-TTmEXiN7dlO7zyDtiy7q-o-ACPbDY_knyMySrBfFm00?></g></svg>