<svg xmlns="http://www.w3.org/2000/svg" xmlns:xlink="http://www.w3.org/1999/xlink" contentStyleType="text/css" data-diagram-type="SEQUENCE" height="1056px" preserveAspectRatio="none" style="width:2208px;height:1056px;background:#FFFFFF;" version="1.1" viewBox="0 0 2208 1056" width="2208px" zoomAndPan="magnify"><?plantuml 1.2026.3?><defs/><g><g class="title" data-source-line="12"><text fill="#000000" font-family="sans-serif" font-size="14" font-weight="700" lengthAdjust="spacing" textLength="431.0264" x="885.27" y="28.5352">Rasterize the renderable trees via `mdd render` (objective)</text></g><rect fill="none" height="355.3711" style="stroke:#000000;stroke-width:1.5;" width="1354.5718" x="742.9058" y="336.9492"/><rect fill="none" height="59.6211" style="stroke:#000000;stroke-width:1.5;" width="309.3511" x="1202.5132" y="432.8809"/><rect fill="none" height="149.5078" style="stroke:#000000;stroke-width:1.5;" width="1334.5718" x="752.9058" y="535.8125"/><rect fill="none" height="61.9316" style="stroke:#000000;stroke-width:1.5;" width="565.2432" x="10" y="735.6309"/><g class="participant-lifeline" data-entity-uid="part1" data-qualified-name="Dev" data-source-line="14" id="part1-lifeline"><g><title>Developer . CI</title><rect fill="#000000" fill-opacity="0.00000" height="849.582" width="8" x="68.1196" y="121.4648"/><line style="stroke:#181818;stroke-width:0.5;stroke-dasharray:5,5;" x1="72" x2="72" y1="121.4648" y2="971.0469"/></g></g><g class="participant-lifeline" data-entity-uid="part2" data-qualified-name="Trigger" data-source-line="15" id="part2-lifeline"><g><title>.mdd-cycle close</title><rect fill="#000000" fill-opacity="0.00000" height="849.582" width="8" x="483.5732" y="121.4648"/><line style="stroke:#181818;stroke-width:0.5;stroke-dasharray:5,5;" x1="486.9033" x2="486.9033" y1="121.4648" y2="971.0469"/></g></g><g class="participant-lifeline" data-entity-uid="part3" data-qualified-name="Cli" data-source-line="16" id="part3-lifeline"><g><title>mdd render</title><rect fill="#000000" fill-opacity="0.00000" height="849.582" width="8" x="845.5923" y="121.4648"/><line style="stroke:#181818;stroke-width:0.5;stroke-dasharray:5,5;" x1="848.9058" x2="848.9058" y1="121.4648" y2="971.0469"/></g></g><g class="participant-lifeline" data-entity-uid="part4" data-qualified-name="Proj" data-source-line="17" id="part4-lifeline"><g><title>mdd-core Project</title><rect fill="#000000" fill-opacity="0.00000" height="849.582" width="8" x="1105.9854" y="121.4648"/><line style="stroke:#181818;stroke-width:0.5;stroke-dasharray:5,5;" x1="1109.4575" x2="1109.4575" y1="121.4648" y2="971.0469"/></g></g><g class="participant-lifeline" data-entity-uid="part5" data-qualified-name="Rend" data-source-line="18" id="part5-lifeline"><g><title>mdd-render engine</title><rect fill="#000000" fill-opacity="0.00000" height="849.582" width="8" x="1282.2798" y="121.4648"/><line style="stroke:#181818;stroke-width:0.5;stroke-dasharray:5,5;" x1="1285.5132" x2="1285.5132" y1="121.4648" y2="971.0469"/></g></g><g class="participant-lifeline" data-entity-uid="part6" data-qualified-name="Store" data-source-line="19" id="part6-lifeline"><g><title>.mdd..models.cycles.constraints.</title><rect fill="#000000" fill-opacity="0.00000" height="849.582" width="8" x="1660.1782" y="121.4648"/><line style="stroke:#181818;stroke-width:0.5;stroke-dasharray:5,5;" x1="1663.2725" x2="1663.2725" y1="121.4648" y2="971.0469"/></g></g><g class="participant-lifeline" data-entity-uid="part7" data-qualified-name="PUML" data-source-line="20" id="part7-lifeline"><g><title>PlantUML jar</title><rect fill="#000000" fill-opacity="0.00000" height="849.582" width="8" x="1849.1523" y="121.4648"/><line style="stroke:#181818;stroke-width:0.5;stroke-dasharray:5,5;" x1="1853.084" x2="1853.084" y1="121.4648" y2="971.0469"/></g></g><g class="participant-lifeline" data-entity-uid="part8" data-qualified-name="Out" data-source-line="21" id="part8-lifeline"><g><title>.mdd.rendered...</title><rect fill="#000000" fill-opacity="0.00000" height="849.582" width="8" x="1997.8491" y="121.4648"/><line style="stroke:#181818;stroke-width:0.5;stroke-dasharray:5,5;" x1="2001.2207" x2="2001.2207" y1="121.4648" y2="971.0469"/></g></g><g class="participant participant-head" data-entity-uid="part1" data-qualified-name="Dev" data-source-line="14" id="part1-head"><text fill="#000000" font-family="sans-serif" font-size="14" lengthAdjust="spacing" textLength="98.2393" x="20" y="118.5117">Developer / CI</text><ellipse cx="72.1196" cy="53.4766" fill="#E2E2F0" rx="8" ry="8" style="stroke:#181818;stroke-width:0.5;"/><path d="M72.1196,61.4766 L72.1196,88.4766 M59.1196,69.4766 L85.1196,69.4766 M72.1196,88.4766 L59.1196,103.4766 M72.1196,88.4766 L85.1196,103.4766" fill="none" style="stroke:#181818;stroke-width:0.5;"/></g><g class="participant participant-tail" data-entity-uid="part1" data-qualified-name="Dev" data-source-line="14" id="part1-tail"><text fill="#000000" font-family="sans-serif" font-size="14" lengthAdjust="spacing" textLength="98.2393" x="20" y="983.582">Developer / CI</text><ellipse cx="72.1196" cy="995.0352" fill="#E2E2F0" rx="8" ry="8" style="stroke:#181818;stroke-width:0.5;"/><path d="M72.1196,1003.0352 L72.1196,1030.0352 M59.1196,1011.0352 L85.1196,1011.0352 M72.1196,1030.0352 L59.1196,1045.0352 M72.1196,1030.0352 L85.1196,1045.0352" fill="none" style="stroke:#181818;stroke-width:0.5;"/></g><g class="participant participant-head" data-entity-uid="part2" data-qualified-name="Trigger" data-source-line="15" id="part2-head"><rect fill="#E2E2F0" height="63.4648" rx="2.5" ry="2.5" style="stroke:#181818;stroke-width:0.5;" width="155.3398" x="409.9033" y="57"/><text fill="#000000" font-family="sans-serif" font-size="14" lengthAdjust="spacing" textLength="118.8223" x="428.1621" y="77.5352">/mdd-cycle close</text><text fill="#000000" font-family="sans-serif" font-size="14" lengthAdjust="spacing" textLength="141.3398" x="416.9033" y="94.0234">or /mdd-render skill</text><text fill="#000000" font-family="sans-serif" font-size="14" lengthAdjust="spacing" textLength="95.5938" x="439.7764" y="110.5117">(thin wrapper)</text></g><g class="participant participant-tail" data-entity-uid="part2" data-qualified-name="Trigger" data-source-line="15" id="part2-tail"><rect fill="#E2E2F0" height="63.4648" rx="2.5" ry="2.5" style="stroke:#181818;stroke-width:0.5;" width="155.3398" x="409.9033" y="970.0469"/><text fill="#000000" font-family="sans-serif" font-size="14" lengthAdjust="spacing" textLength="118.8223" x="428.1621" y="990.582">/mdd-cycle close</text><text fill="#000000" font-family="sans-serif" font-size="14" lengthAdjust="spacing" textLength="141.3398" x="416.9033" y="1007.0703">or /mdd-render skill</text><text fill="#000000" font-family="sans-serif" font-size="14" lengthAdjust="spacing" textLength="95.5938" x="439.7764" y="1023.5586">(thin wrapper)</text></g><g class="participant participant-head" data-entity-uid="part3" data-qualified-name="Cli" data-source-line="16" id="part3-head"><rect fill="#E2E2F0" height="46.9766" rx="2.5" ry="2.5" style="stroke:#181818;stroke-width:0.5;" width="173.373" x="762.9058" y="73.4883"/><text fill="#000000" font-family="sans-serif" font-size="14" lengthAdjust="spacing" textLength="79.6797" x="809.7524" y="94.0234">mdd render</text><text fill="#000000" font-family="sans-serif" font-size="14" lengthAdjust="spacing" textLength="159.373" x="769.9058" y="110.5117">(mdd-cli subcommand)</text></g><g class="participant participant-tail" data-entity-uid="part3" data-qualified-name="Cli" data-source-line="16" id="part3-tail"><rect fill="#E2E2F0" height="46.9766" rx="2.5" ry="2.5" style="stroke:#181818;stroke-width:0.5;" width="173.373" x="762.9058" y="970.0469"/><text fill="#000000" font-family="sans-serif" font-size="14" lengthAdjust="spacing" textLength="79.6797" x="809.7524" y="990.582">mdd render</text><text fill="#000000" font-family="sans-serif" font-size="14" lengthAdjust="spacing" textLength="159.373" x="769.9058" y="1007.0703">(mdd-cli subcommand)</text></g><g class="participant participant-head" data-entity-uid="part4" data-qualified-name="Proj" data-source-line="17" id="part4-head"><rect fill="#E2E2F0" height="46.9766" rx="2.5" ry="2.5" style="stroke:#181818;stroke-width:0.5;" width="185.0557" x="1017.4575" y="73.4883"/><text fill="#000000" font-family="sans-serif" font-size="14" lengthAdjust="spacing" textLength="119.0547" x="1050.458" y="94.0234">mdd-core Project</text><text fill="#000000" font-family="sans-serif" font-size="14" lengthAdjust="spacing" textLength="171.0557" x="1024.4575" y="110.5117">(single tree enumeration)</text></g><g class="participant participant-tail" data-entity-uid="part4" data-qualified-name="Proj" data-source-line="17" id="part4-tail"><rect fill="#E2E2F0" height="46.9766" rx="2.5" ry="2.5" style="stroke:#181818;stroke-width:0.5;" width="185.0557" x="1017.4575" y="970.0469"/><text fill="#000000" font-family="sans-serif" font-size="14" lengthAdjust="spacing" textLength="119.0547" x="1050.458" y="990.582">mdd-core Project</text><text fill="#000000" font-family="sans-serif" font-size="14" lengthAdjust="spacing" textLength="171.0557" x="1024.4575" y="1007.0703">(single tree enumeration)</text></g><g class="participant participant-head" data-entity-uid="part5" data-qualified-name="Rend" data-source-line="18" id="part5-head"><rect fill="#E2E2F0" height="30.4883" rx="2.5" ry="2.5" style="stroke:#181818;stroke-width:0.5;" width="147.5332" x="1212.5132" y="89.9766"/><text fill="#000000" font-family="sans-serif" font-size="14" lengthAdjust="spacing" textLength="133.5332" x="1219.5132" y="110.5117">mdd-render engine</text></g><g class="participant participant-tail" data-entity-uid="part5" data-qualified-name="Rend" data-source-line="18" id="part5-tail"><rect fill="#E2E2F0" height="30.4883" rx="2.5" ry="2.5" style="stroke:#181818;stroke-width:0.5;" width="147.5332" x="1212.5132" y="970.0469"/><text fill="#000000" font-family="sans-serif" font-size="14" lengthAdjust="spacing" textLength="133.5332" x="1219.5132" y="990.582">mdd-render engine</text></g><g class="participant participant-head" data-entity-uid="part6" data-qualified-name="Store" data-source-line="19" id="part6-head"><text fill="#000000" font-family="sans-serif" font-size="14" lengthAdjust="spacing" textLength="225.8115" x="1548.2725" y="102.0234">.mdd/{models,cycles,constraints,</text><text fill="#000000" font-family="sans-serif" font-size="14" lengthAdjust="spacing" textLength="221.1631" x="1550.5967" y="118.5117">map,deploy,rendered/review}/**</text><path d="M1646.1782,52.4883 C1646.1782,42.4883 1664.1782,42.4883 1664.1782,42.4883 C1664.1782,42.4883 1682.1782,42.4883 1682.1782,52.4883 L1682.1782,78.4883 C1682.1782,88.4883 1664.1782,88.4883 1664.1782,88.4883 C1664.1782,88.4883 1646.1782,88.4883 1646.1782,78.4883 L1646.1782,52.4883" fill="#E2E2F0" style="stroke:#181818;stroke-width:0.5;"/><path d="M1646.1782,52.4883 C1646.1782,62.4883 1664.1782,62.4883 1664.1782,62.4883 C1664.1782,62.4883 1682.1782,62.4883 1682.1782,52.4883" fill="none" style="stroke:#181818;stroke-width:0.5;"/></g><g class="participant participant-tail" data-entity-uid="part6" data-qualified-name="Store" data-source-line="19" id="part6-tail"><text fill="#000000" font-family="sans-serif" font-size="14" lengthAdjust="spacing" textLength="225.8115" x="1548.2725" y="983.582">.mdd/{models,cycles,constraints,</text><text fill="#000000" font-family="sans-serif" font-size="14" lengthAdjust="spacing" textLength="221.1631" x="1550.5967" y="1000.0703">map,deploy,rendered/review}/**</text><path d="M1646.1782,1013.0234 C1646.1782,1003.0234 1664.1782,1003.0234 1664.1782,1003.0234 C1664.1782,1003.0234 1682.1782,1003.0234 1682.1782,1013.0234 L1682.1782,1039.0234 C1682.1782,1049.0234 1664.1782,1049.0234 1664.1782,1049.0234 C1664.1782,1049.0234 1646.1782,1049.0234 1646.1782,1039.0234 L1646.1782,1013.0234" fill="#E2E2F0" style="stroke:#181818;stroke-width:0.5;"/><path d="M1646.1782,1013.0234 C1646.1782,1023.0234 1664.1782,1023.0234 1664.1782,1023.0234 C1664.1782,1023.0234 1682.1782,1023.0234 1682.1782,1013.0234" fill="none" style="stroke:#181818;stroke-width:0.5;"/></g><g class="participant participant-head" data-entity-uid="part7" data-qualified-name="PUML" data-source-line="20" id="part7-head"><rect fill="#E2E2F0" height="46.9766" rx="2.5" ry="2.5" style="stroke:#181818;stroke-width:0.5;" width="126.1367" x="1790.084" y="73.4883"/><text fill="#000000" font-family="sans-serif" font-size="14" lengthAdjust="spacing" textLength="84.8135" x="1810.7456" y="94.0234">PlantUML jar</text><text fill="#000000" font-family="sans-serif" font-size="14" lengthAdjust="spacing" textLength="112.1367" x="1797.084" y="110.5117">(+ Graphviz dot)</text></g><g class="participant participant-tail" data-entity-uid="part7" data-qualified-name="PUML" data-source-line="20" id="part7-tail"><rect fill="#E2E2F0" height="46.9766" rx="2.5" ry="2.5" style="stroke:#181818;stroke-width:0.5;" width="126.1367" x="1790.084" y="970.0469"/><text fill="#000000" font-family="sans-serif" font-size="14" lengthAdjust="spacing" textLength="84.8135" x="1810.7456" y="990.582">PlantUML jar</text><text fill="#000000" font-family="sans-serif" font-size="14" lengthAdjust="spacing" textLength="112.1367" x="1797.084" y="1007.0703">(+ Graphviz dot)</text></g><g class="participant participant-head" data-entity-uid="part8" data-qualified-name="Out" data-source-line="21" id="part8-head"><text fill="#000000" font-family="sans-serif" font-size="14" lengthAdjust="spacing" textLength="124.4688" x="1936.6147" y="102.0234">.mdd/rendered/**</text><text fill="#000000" font-family="sans-serif" font-size="14" lengthAdjust="spacing" textLength="145.2568" x="1926.2207" y="118.5117">(deterministic mirror)</text><path d="M1983.8491,52.4883 C1983.8491,42.4883 2001.8491,42.4883 2001.8491,42.4883 C2001.8491,42.4883 2019.8491,42.4883 2019.8491,52.4883 L2019.8491,78.4883 C2019.8491,88.4883 2001.8491,88.4883 2001.8491,88.4883 C2001.8491,88.4883 1983.8491,88.4883 1983.8491,78.4883 L1983.8491,52.4883" fill="#E2E2F0" style="stroke:#181818;stroke-width:0.5;"/><path d="M1983.8491,52.4883 C1983.8491,62.4883 2001.8491,62.4883 2001.8491,62.4883 C2001.8491,62.4883 2019.8491,62.4883 2019.8491,52.4883" fill="none" style="stroke:#181818;stroke-width:0.5;"/></g><g class="participant participant-tail" data-entity-uid="part8" data-qualified-name="Out" data-source-line="21" id="part8-tail"><text fill="#000000" font-family="sans-serif" font-size="14" lengthAdjust="spacing" textLength="124.4688" x="1936.6147" y="983.582">.mdd/rendered/**</text><text fill="#000000" font-family="sans-serif" font-size="14" lengthAdjust="spacing" textLength="145.2568" x="1926.2207" y="1000.0703">(deterministic mirror)</text><path d="M1983.8491,1013.0234 C1983.8491,1003.0234 2001.8491,1003.0234 2001.8491,1003.0234 C2001.8491,1003.0234 2019.8491,1003.0234 2019.8491,1013.0234 L2019.8491,1039.0234 C2019.8491,1049.0234 2001.8491,1049.0234 2001.8491,1049.0234 C2001.8491,1049.0234 1983.8491,1049.0234 1983.8491,1039.0234 L1983.8491,1013.0234" fill="#E2E2F0" style="stroke:#181818;stroke-width:0.5;"/><path d="M1983.8491,1013.0234 C1983.8491,1023.0234 2001.8491,1023.0234 2001.8491,1023.0234 C2001.8491,1023.0234 2019.8491,1023.0234 2019.8491,1013.0234" fill="none" style="stroke:#181818;stroke-width:0.5;"/></g><g class="message" data-entity-1="part1" data-entity-2="part2" data-source-line="23" id="msg1"><polygon fill="#181818" points="475.5732,148.7754,485.5732,152.7754,475.5732,156.7754,479.5732,152.7754" style="stroke:#181818;stroke-width:1;"/><line style="stroke:#181818;stroke-width:1;" x1="72.1196" x2="481.5732" y1="152.7754" y2="152.7754"/><text fill="#000000" font-family="sans-serif" font-size="13" lengthAdjust="spacing" textLength="287.0156" x="79.1196" y="148.0332">close cycle N  /  /mdd-render [fuzzy subset?]</text></g><path d="M492,165.7754 L492,220.7754 L791,220.7754 L791,175.7754 L781,165.7754 L492,165.7754" fill="#FEFFDD" style="stroke:#181818;stroke-width:0.5;"/><path d="M781,165.7754 L781,175.7754 L791,175.7754 L781,165.7754" fill="#FEFFDD" style="stroke:#181818;stroke-width:0.5;"/><text fill="#000000" font-family="sans-serif" font-size="13" lengthAdjust="spacing" textLength="260.0698" x="498" y="183.3438">Skill judgment only: map "just the deploy</text><text fill="#000000" font-family="sans-serif" font-size="13" lengthAdjust="spacing" textLength="275.5137" x="498" y="198.6543">diagrams" -&gt; `mdd render --only deploy`.</text><text fill="#000000" font-family="sans-serif" font-size="13" lengthAdjust="spacing" textLength="278.897" x="498" y="213.9648">No mechanics here &#8212; it shells to the binary.</text><g class="message" data-entity-1="part2" data-entity-2="part3" data-source-line="29" id="msg2"><polygon fill="#181818" points="837.5923,244.0176,847.5923,248.0176,837.5923,252.0176,841.5923,248.0176" style="stroke:#181818;stroke-width:1;"/><line style="stroke:#181818;stroke-width:1;" x1="487.5732" x2="843.5923" y1="248.0176" y2="248.0176"/><text fill="#000000" font-family="sans-serif" font-size="13" lengthAdjust="spacing" textLength="338.019" x="494.5732" y="243.2754">`mdd render`  (or `--only &lt;trees&gt;` / explicit paths)</text></g><g class="message" data-entity-1="part3" data-entity-2="part4" data-source-line="30" id="msg3"><polygon fill="#181818" points="1097.9854,273.3281,1107.9854,277.3281,1097.9854,281.3281,1101.9854,277.3281" style="stroke:#181818;stroke-width:1;"/><line style="stroke:#181818;stroke-width:1;" x1="849.5923" x2="1103.9854" y1="277.3281" y2="277.3281"/><text fill="#000000" font-family="sans-serif" font-size="13" lengthAdjust="spacing" textLength="210.355" x="856.5923" y="272.5859">enumerate the requested tree set</text></g><g class="message" data-entity-1="part4" data-entity-2="part3" data-source-line="31" id="msg4"><polygon fill="#181818" points="860.5923,317.9492,850.5923,321.9492,860.5923,325.9492,856.5923,321.9492" style="stroke:#181818;stroke-width:1;"/><line style="stroke:#181818;stroke-width:1;stroke-dasharray:2,2;" x1="854.5923" x2="1108.9854" y1="321.9492" y2="321.9492"/><text fill="#000000" font-family="sans-serif" font-size="13" lengthAdjust="spacing" textLength="236.3931" x="866.5923" y="301.8965">source files (models, cycle diffs, OCL,</text><text fill="#000000" font-family="sans-serif" font-size="13" lengthAdjust="spacing" textLength="204.2422" x="866.5923" y="317.207">whole-map, deploy, review-diff)</text></g><path d="M742.9058,336.9492 L817.3525,336.9492 L817.3525,344.2598 L807.3525,354.2598 L742.9058,354.2598 L742.9058,336.9492" fill="#EEEEEE" style="stroke:#000000;stroke-width:1.5;"/><rect fill="none" height="355.3711" style="stroke:#000000;stroke-width:1.5;" width="1354.5718" x="742.9058" y="336.9492"/><text fill="#000000" font-family="sans-serif" font-size="13" font-weight="700" lengthAdjust="spacing" textLength="29.4468" x="757.9058" y="350.5176">loop</text><text fill="#000000" font-family="sans-serif" font-size="11" font-weight="700" lengthAdjust="spacing" textLength="97.3242" x="832.3525" y="349.584">[each source file]</text><g class="message" data-entity-1="part3" data-entity-2="part5" data-source-line="34" id="msg5"><polygon fill="#181818" points="1274.2798,371.5703,1284.2798,375.5703,1274.2798,379.5703,1278.2798,375.5703" style="stroke:#181818;stroke-width:1;"/><line style="stroke:#181818;stroke-width:1;" x1="849.5923" x2="1280.2798" y1="375.5703" y2="375.5703"/><text fill="#000000" font-family="sans-serif" font-size="13" lengthAdjust="spacing" textLength="91.73" x="856.5923" y="370.8281">render(source)</text></g><g class="message" data-entity-1="part5" data-entity-2="part5" data-source-line="35" id="msg6"><line style="stroke:#181818;stroke-width:1;" x1="1286.2798" x2="1328.2798" y1="404.8809" y2="404.8809"/><line style="stroke:#181818;stroke-width:1;" x1="1328.2798" x2="1328.2798" y1="404.8809" y2="417.8809"/><line style="stroke:#181818;stroke-width:1;" x1="1287.2798" x2="1328.2798" y1="417.8809" y2="417.8809"/><polygon fill="#181818" points="1297.2798,413.8809,1287.2798,417.8809,1297.2798,421.8809,1293.2798,417.8809" style="stroke:#181818;stroke-width:1;"/><text fill="#000000" font-family="sans-serif" font-size="13" lengthAdjust="spacing" textLength="363.8984" x="1293.2798" y="400.1387">derive out = source path mirrored under .mdd/rendered/</text></g><path d="M1202.5132,432.8809 L1264.6519,432.8809 L1264.6519,440.1914 L1254.6519,450.1914 L1202.5132,450.1914 L1202.5132,432.8809" fill="#EEEEEE" style="stroke:#000000;stroke-width:1.5;"/><rect fill="none" height="59.6211" style="stroke:#000000;stroke-width:1.5;" width="309.3511" x="1202.5132" y="432.8809"/><text fill="#000000" font-family="sans-serif" font-size="13" font-weight="700" lengthAdjust="spacing" textLength="17.1387" x="1217.5132" y="446.4492">alt</text><text fill="#000000" font-family="sans-serif" font-size="11" font-weight="700" lengthAdjust="spacing" textLength="72.8374" x="1279.6519" y="445.5156">[OCL source]</text><g class="message" data-entity-1="part5" data-entity-2="part5" data-source-line="37" id="msg7"><line style="stroke:#181818;stroke-width:1;" x1="1286.2798" x2="1328.2798" y1="471.502" y2="471.502"/><line style="stroke:#181818;stroke-width:1;" x1="1328.2798" x2="1328.2798" y1="471.502" y2="484.502"/><line style="stroke:#181818;stroke-width:1;" x1="1287.2798" x2="1328.2798" y1="484.502" y2="484.502"/><polygon fill="#181818" points="1297.2798,480.502,1287.2798,484.502,1297.2798,488.502,1293.2798,484.502" style="stroke:#181818;stroke-width:1;"/><text fill="#000000" font-family="sans-serif" font-size="13" lengthAdjust="spacing" textLength="206.5845" x="1293.2798" y="466.7598">synthesize constraints puml first</text></g><g class="message" data-entity-1="part5" data-entity-2="part7" data-source-line="39" id="msg8"><polygon fill="#181818" points="1841.1523,516.8125,1851.1523,520.8125,1841.1523,524.8125,1845.1523,520.8125" style="stroke:#181818;stroke-width:1;"/><line style="stroke:#181818;stroke-width:1;" x1="1286.2798" x2="1847.1523" y1="520.8125" y2="520.8125"/><text fill="#000000" font-family="sans-serif" font-size="13" lengthAdjust="spacing" textLength="144.6758" x="1293.2798" y="516.0703">plantuml -tsvg &lt; puml</text></g><path d="M752.9058,535.8125 L815.0444,535.8125 L815.0444,543.123 L805.0444,553.123 L752.9058,553.123 L752.9058,535.8125" fill="#EEEEEE" style="stroke:#000000;stroke-width:1.5;"/><rect fill="none" height="149.5078" style="stroke:#000000;stroke-width:1.5;" width="1334.5718" x="752.9058" y="535.8125"/><text fill="#000000" font-family="sans-serif" font-size="13" font-weight="700" lengthAdjust="spacing" textLength="17.1387" x="767.9058" y="549.3809">alt</text><text fill="#000000" font-family="sans-serif" font-size="11" font-weight="700" lengthAdjust="spacing" textLength="63.1694" x="830.0444" y="548.4473">[render ok]</text><g class="message" data-entity-1="part7" data-entity-2="part5" data-source-line="41" id="msg9"><polygon fill="#181818" points="1297.2798,570.4336,1287.2798,574.4336,1297.2798,578.4336,1293.2798,574.4336" style="stroke:#181818;stroke-width:1;"/><line style="stroke:#181818;stroke-width:1;stroke-dasharray:2,2;" x1="1291.2798" x2="1852.1523" y1="574.4336" y2="574.4336"/><text fill="#000000" font-family="sans-serif" font-size="13" lengthAdjust="spacing" textLength="21.4614" x="1303.2798" y="569.6914">svg</text></g><g class="message" data-entity-1="part5" data-entity-2="part8" data-source-line="42" id="msg10"><polygon fill="#181818" points="1989.8491,599.7441,1999.8491,603.7441,1989.8491,607.7441,1993.8491,603.7441" style="stroke:#181818;stroke-width:1;"/><line style="stroke:#181818;stroke-width:1;" x1="1286.2798" x2="1995.8491" y1="603.7441" y2="603.7441"/><text fill="#000000" font-family="sans-serif" font-size="13" lengthAdjust="spacing" textLength="194.1431" x="1293.2798" y="599.002">write deterministic mirror path</text></g><line style="stroke:#000000;stroke-width:1;stroke-dasharray:2,2;" x1="752.9058" x2="2087.4775" y1="612.7441" y2="612.7441"/><text fill="#000000" font-family="sans-serif" font-size="11" font-weight="700" lengthAdjust="spacing" textLength="132.999" x="757.9058" y="623.3789">[dot/syntax diagnostic]</text><g class="message" data-entity-1="part7" data-entity-2="part5" data-source-line="44" id="msg11"><polygon fill="#181818" points="1297.2798,644.0098,1287.2798,648.0098,1297.2798,652.0098,1293.2798,648.0098" style="stroke:#181818;stroke-width:1;"/><line style="stroke:#181818;stroke-width:1;stroke-dasharray:2,2;" x1="1291.2798" x2="1852.1523" y1="648.0098" y2="648.0098"/><text fill="#000000" font-family="sans-serif" font-size="13" lengthAdjust="spacing" textLength="94.2373" x="1303.2798" y="643.2676">diagnostic text</text></g><g class="message" data-entity-1="part5" data-entity-2="part3" data-source-line="45" id="msg12"><polygon fill="#181818" points="860.5923,673.3203,850.5923,677.3203,860.5923,681.3203,856.5923,677.3203" style="stroke:#181818;stroke-width:1;"/><line style="stroke:#181818;stroke-width:1;stroke-dasharray:2,2;" x1="854.5923" x2="1285.2798" y1="677.3203" y2="677.3203"/><text fill="#000000" font-family="sans-serif" font-size="13" lengthAdjust="spacing" textLength="316.3101" x="866.5923" y="672.5781">per-file diagnostic (hard failure -&gt; non-zero exit)</text></g><g class="message" data-entity-1="part3" data-entity-2="part2" data-source-line="48" id="msg13"><polygon fill="#181818" points="498.5732,716.6309,488.5732,720.6309,498.5732,724.6309,494.5732,720.6309" style="stroke:#181818;stroke-width:1;"/><line style="stroke:#181818;stroke-width:1;stroke-dasharray:2,2;" x1="492.5732" x2="848.5923" y1="720.6309" y2="720.6309"/><text fill="#000000" font-family="sans-serif" font-size="13" lengthAdjust="spacing" textLength="170.2886" x="504.5732" y="715.8887">rendered list + diagnostics</text></g><path d="M10,735.6309 L77.1851,735.6309 L77.1851,742.9414 L67.1851,752.9414 L10,752.9414 L10,735.6309" fill="#EEEEEE" style="stroke:#000000;stroke-width:1.5;"/><rect fill="none" height="61.9316" style="stroke:#000000;stroke-width:1.5;" width="565.2432" x="10" y="735.6309"/><text fill="#000000" font-family="sans-serif" font-size="13" font-weight="700" lengthAdjust="spacing" textLength="22.1851" x="25" y="749.1992">opt</text><text fill="#000000" font-family="sans-serif" font-size="11" font-weight="700" lengthAdjust="spacing" textLength="120.0278" x="92.1851" y="748.2656">[diagnostics present]</text><g class="message" data-entity-1="part2" data-entity-2="part1" data-source-line="51" id="msg14"><polygon fill="#181818" points="83.1196,785.5625,73.1196,789.5625,83.1196,793.5625,79.1196,789.5625" style="stroke:#181818;stroke-width:1;"/><line style="stroke:#181818;stroke-width:1;" x1="77.1196" x2="486.5732" y1="789.5625" y2="789.5625"/><text fill="#000000" font-family="sans-serif" font-size="13" lengthAdjust="spacing" textLength="247.7871" x="89.1196" y="769.5098">triage + fix suggestion (skill judgment:</text><text fill="#000000" font-family="sans-serif" font-size="13" lengthAdjust="spacing" textLength="287.022" x="89.1196" y="784.8203">install Graphviz, set MDD_PLANTUML_JAR, ...)</text></g><g class="message" data-entity-1="part2" data-entity-2="part1" data-source-line="53" id="msg15"><polygon fill="#181818" points="83.1196,821.873,73.1196,825.873,83.1196,829.873,79.1196,825.873" style="stroke:#181818;stroke-width:1;"/><line style="stroke:#181818;stroke-width:1;stroke-dasharray:2,2;" x1="77.1196" x2="486.5732" y1="825.873" y2="825.873"/><text fill="#000000" font-family="sans-serif" font-size="13" lengthAdjust="spacing" textLength="391.4536" x="89.1196" y="821.1309">cycle N closed / subset rendered; SVGs available to the viewer</text></g><path d="M1805,838.873 L1805,955.873 L2197,955.873 L2197,848.873 L2187,838.873 L1805,838.873" fill="#FEFFDD" style="stroke:#181818;stroke-width:0.5;"/><path d="M2187,838.873 L2187,848.873 L2197,848.873 L2187,838.873" fill="#FEFFDD" style="stroke:#181818;stroke-width:0.5;"/><text fill="#000000" font-family="sans-serif" font-size="13" lengthAdjust="spacing" textLength="288.9644" x="1811" y="856.4414">Every tree's output path is a pure mirror of its</text><text fill="#000000" font-family="sans-serif" font-size="13" lengthAdjust="spacing" textLength="342.2783" x="1811" y="871.752">source (OCL-RENDER-PATH-MIRROR; the cycle case is</text><text fill="#000000" font-family="sans-serif" font-size="13" lengthAdjust="spacing" textLength="322.7847" x="1811" y="887.0625">OCL-DIFF-SVG-PATH-DERIVED). The tree set is the</text><text fill="#000000" font-family="sans-serif" font-size="13" lengthAdjust="spacing" textLength="290.3862" x="1811" y="902.373">single mdd-core Project enumeration, never a</text><text fill="#000000" font-family="sans-serif" font-size="13" lengthAdjust="spacing" textLength="371.5664" x="1811" y="917.6836">second hand-maintained list (OCL-RENDER-TREE-PARITY).</text><text fill="#000000" font-family="sans-serif" font-size="13" lengthAdjust="spacing" textLength="268.6519" x="1811" y="932.9941">The viewer never invokes PlantUML; it only</text><text fill="#000000" font-family="sans-serif" font-size="13" lengthAdjust="spacing" textLength="141.3179" x="1811" y="948.3047">consumes these SVGs.</text><?plantuml-src XLRRRkCs47tNLmpy4YjhsU_9TfiWzcPTR2vrl0iKJR6X9TfY8fCgITbnYWBzY7vXlwI7fEH8ITfz21oHSprpPZW7T2Ao_itavsGskHnFPibu-l5ZSlFrF8uEw4JpPV_BpIGSZgUdvxFJY_t5-EgYKPfSdayl9xZ1tTNYdgTMR7XYHCPfMQWjBPKcctEwMsSPQIuphkyeLUirazcHlp52hWeEzOnRhjT22cD5IbokXEIacS6fUEA6-8RhNMs3BGfELdDE_RNAU646bExIO4Oib_YyEliye3Kh1x1R5cetWEP6y6tYxcEoYeGrD4HOes2IPoDQ2wqHi56mus9p2bnJVvkBDAUS6PAAhWicxPUBptM8CQLCKic4j30vfAdSg0UUqM878oFOJtna1uRIGXdaQtb9o1u2teSN2I7WMyXagrbPuiCyYA8OUcHFCcxIjsereDudeFmAOU-s40tIRHYTxB8gYW2VuVO5X1q0jxagUFBVC79PhL4DYtoLJBdBoRjMcjErLeuF3kfkQTy6lMGsDqEQ8pmVH_82hkzZHGjbSn8U_ouSVPIDwPMX7qBg9TF2xeufIPGiTlJUGM4-4ABWZsKXKc53E90trG8OnSU1gzuDop93Nd5PFJtjQX4ujko10oZ1LbBvJAt6_pXoyI_58oHNAuuR9Ssm5qTMME0zQshZNRpWjm47sOjaLDDdSHInr2BgtXZDKIY7n8ZEfZq2Kt4K8K-48KeGbdhFN0nCl9NGR2FgixkLVOSirSZ6tjPS2mIkk_QUOu9EGpXWKNCkQ9uLufLMXnxG3HCWyB4X520A1fpOQmjrnA43lTmC9r76B5imiARdEVP7JMoVD7u0kzMkKStWLZfIrvpUSp5m-y_HuQ6tUGDiUTVvlldlcKlx7Pq3ftmZdYXJjeuOroyZsNiuF8HMjnq2_uFkLMMZ29MZv4C3EXtLWoEKxf9GuaxPVcspyCVV8gaiQ2HMkIMrt9UEwCQJzxxALckEL1o1Zzo4fDvzPQmdNy03iex3cgrDpmNIOb_JCK7mRWZHIqLhdkPCYjHGZYJfdx_-nYGaa_EYCAxzdUc5a4plXX7Ca8imQjA30v04MNP83fPhkklsvnqox_Pd73bLM70iWOdzEAfRwVSAtORPr8owoCibUvT6LHfJQob0Z_yPWxVoEtCmYWgbIk8ChqJB9j2futFiXB-GNJ-8nBZsvy_tk4HRawgicpp1a4kqvWWogNmLkfo27LPO5scjWuDNfirE0XFZnaoh3wYirWLYrSP2oRNGiwBZCHHBntWdbLYpMT5xhrAxh4cX7hn7hv2qN6vMdKX0RfnkCNevlTK2FbKNHW6sevr6BcRss1geRxffprl-Q5ikztN684jSGTgo_PnfJ6KcYWgSXQXKCddYMe5ZmiOr7ExFrx3Ja0tqL21-UjSoQw98bRPzGANc1Wq7WotAknu_gjy76EW-3jGtdLuzkfK29MCuQiRDmB_S5-Fnj-lFfvTpGFBjfzFPW8R3OUo3tllQEslcXvyc6NgfVhUQP8u92uKXjW4auVrHhIKe2dD5OGdpKufeulSnrrhORK3PiWfTIG96m1AWMjSLOmZB5bHgIlT1rMQJkJwTVqekfhFPrIoyiVKBvMQdS3fEjbbtWZJKfbydupWi2_irHlZTnda9xychHQJrjWn8kdMIc1FdQ8WCsvtCqE7k5SURKfUs7UbyDfaWWDbq_ali1j_yUK4CniBcOVOBuh6RWcw0GTZr7Bpx496PG_fv5luB?></g></svg>