<svg xmlns="http://www.w3.org/2000/svg" xmlns:xlink="http://www.w3.org/1999/xlink" contentStyleType="text/css" data-diagram-type="SEQUENCE" height="929px" preserveAspectRatio="none" style="width:1285px;height:929px;background:#FFFFFF;" version="1.1" viewBox="0 0 1285 929" width="1285px" zoomAndPan="magnify"><?plantuml 1.2026.3?><defs/><g><g class="title" data-source-line="9"><text fill="#000000" font-family="sans-serif" font-size="14" font-weight="700" lengthAdjust="spacing" textLength="408.6455" x="435.0103" y="28.5352">Render a cycle's superposed before/after diff (objective)</text></g><rect fill="none" height="133.1973" style="stroke:#000000;stroke-width:1.5;" width="622.8789" x="242.0264" y="455.502"/><rect fill="none" height="134.5527" style="stroke:#000000;stroke-width:1.5;" width="1135.3477" x="10" y="602.6992"/><rect fill="none" height="75.9316" style="stroke:#000000;stroke-width:1.5;" width="1135.3477" x="10" y="751.252"/><g class="participant-lifeline" data-entity-uid="part1" data-qualified-name="Dev" data-source-line="11" id="part1-lifeline"><g><title>Developer</title><rect fill="#000000" fill-opacity="0.00000" height="722.7188" width="8" x="53.1592" y="121.4648"/><line style="stroke:#181818;stroke-width:0.5;stroke-dasharray:5,5;" x1="57" x2="57" y1="121.4648" y2="844.1836"/></g></g><g class="participant-lifeline" data-entity-uid="part2" data-qualified-name="Viewer" data-source-line="12" id="part2-lifeline"><g><title>MddViewer</title><rect fill="#000000" fill-opacity="0.00000" height="722.7188" width="8" x="301.2886" y="121.4648"/><line style="stroke:#181818;stroke-width:0.5;stroke-dasharray:5,5;" x1="305.0264" x2="305.0264" y1="121.4648" y2="844.1836"/></g></g><g class="participant-lifeline" data-entity-uid="part3" data-qualified-name="Reg" data-source-line="13" id="part3-lifeline"><g><title>CycleRegistry</title><rect fill="#000000" fill-opacity="0.00000" height="722.7188" width="8" x="515.6992" y="121.4648"/><line style="stroke:#181818;stroke-width:0.5;stroke-dasharray:5,5;" x1="519.2676" x2="519.2676" y1="121.4648" y2="844.1836"/></g></g><g class="participant-lifeline" data-entity-uid="part4" data-qualified-name="Store" data-source-line="14" id="part4-lifeline"><g><title>.mdd.cycles..n..</title><rect fill="#000000" fill-opacity="0.00000" height="722.7188" width="8" x="783.5381" y="121.4648"/><line style="stroke:#181818;stroke-width:0.5;stroke-dasharray:5,5;" x1="787.1709" x2="787.1709" y1="121.4648" y2="844.1836"/></g></g><g class="participant-lifeline" data-entity-uid="part5" data-qualified-name="Diff" data-source-line="15" id="part5-lifeline"><g><title>DiffEngine</title><rect fill="#000000" fill-opacity="0.00000" height="722.7188" width="8" x="943.2578" y="121.4648"/><line style="stroke:#181818;stroke-width:0.5;stroke-dasharray:5,5;" x1="946.9053" x2="946.9053" y1="121.4648" y2="844.1836"/></g></g><g class="participant-lifeline" data-entity-uid="part6" data-qualified-name="Painter" data-source-line="16" id="part6-lifeline"><g><title>egui painter</title><rect fill="#000000" fill-opacity="0.00000" height="722.7188" width="8" x="1083.479" y="121.4648"/><line style="stroke:#181818;stroke-width:0.5;stroke-dasharray:5,5;" x1="1086.6104" x2="1086.6104" y1="121.4648" y2="844.1836"/></g></g><g class="participant participant-head" data-entity-uid="part1" data-qualified-name="Dev" data-source-line="11" id="part1-head"><text fill="#000000" font-family="sans-serif" font-size="14" lengthAdjust="spacing" textLength="68.3184" x="20" y="118.5117">Developer</text><ellipse cx="57.1592" cy="53.4766" fill="#E2E2F0" rx="8" ry="8" style="stroke:#181818;stroke-width:0.5;"/><path d="M57.1592,61.4766 L57.1592,88.4766 M44.1592,69.4766 L70.1592,69.4766 M57.1592,88.4766 L44.1592,103.4766 M57.1592,88.4766 L70.1592,103.4766" fill="none" style="stroke:#181818;stroke-width:0.5;"/></g><g class="participant participant-tail" data-entity-uid="part1" data-qualified-name="Dev" data-source-line="11" id="part1-tail"><text fill="#000000" font-family="sans-serif" font-size="14" lengthAdjust="spacing" textLength="68.3184" x="20" y="856.7188">Developer</text><ellipse cx="57.1592" cy="868.1719" fill="#E2E2F0" rx="8" ry="8" style="stroke:#181818;stroke-width:0.5;"/><path d="M57.1592,876.1719 L57.1592,903.1719 M44.1592,884.1719 L70.1592,884.1719 M57.1592,903.1719 L44.1592,918.1719 M57.1592,903.1719 L70.1592,918.1719" fill="none" style="stroke:#181818;stroke-width:0.5;"/></g><g class="participant participant-head" data-entity-uid="part2" data-qualified-name="Viewer" data-source-line="12" id="part2-head"><rect fill="#E2E2F0" height="46.9766" rx="2.5" ry="2.5" style="stroke:#181818;stroke-width:0.5;" width="106.5244" x="252.0264" y="73.4883"/><text fill="#000000" font-family="sans-serif" font-size="14" lengthAdjust="spacing" textLength="74.9971" x="267.79" y="94.0234">MddViewer</text><text fill="#000000" font-family="sans-serif" font-size="14" lengthAdjust="spacing" textLength="92.5244" x="259.0264" y="110.5117">(eframe::App)</text></g><g class="participant participant-tail" data-entity-uid="part2" data-qualified-name="Viewer" data-source-line="12" id="part2-tail"><rect fill="#E2E2F0" height="46.9766" rx="2.5" ry="2.5" style="stroke:#181818;stroke-width:0.5;" width="106.5244" x="252.0264" y="843.1836"/><text fill="#000000" font-family="sans-serif" font-size="14" lengthAdjust="spacing" textLength="74.9971" x="267.79" y="863.7188">MddViewer</text><text fill="#000000" font-family="sans-serif" font-size="14" lengthAdjust="spacing" textLength="92.5244" x="259.0264" y="880.207">(eframe::App)</text></g><g class="participant participant-head" data-entity-uid="part3" data-qualified-name="Reg" data-source-line="13" id="part3-head"><rect fill="#E2E2F0" height="46.9766" rx="2.5" ry="2.5" style="stroke:#181818;stroke-width:0.5;" width="104.8633" x="467.2676" y="73.4883"/><text fill="#000000" font-family="sans-serif" font-size="14" lengthAdjust="spacing" textLength="90.8633" x="474.2676" y="94.0234">CycleRegistry</text><text fill="#000000" font-family="sans-serif" font-size="14" lengthAdjust="spacing" textLength="77.1982" x="481.1001" y="110.5117">(mdd-core)</text></g><g class="participant participant-tail" data-entity-uid="part3" data-qualified-name="Reg" data-source-line="13" id="part3-tail"><rect fill="#E2E2F0" height="46.9766" rx="2.5" ry="2.5" style="stroke:#181818;stroke-width:0.5;" width="104.8633" x="467.2676" y="843.1836"/><text fill="#000000" font-family="sans-serif" font-size="14" lengthAdjust="spacing" textLength="90.8633" x="474.2676" y="863.7188">CycleRegistry</text><text fill="#000000" font-family="sans-serif" font-size="14" lengthAdjust="spacing" textLength="77.1982" x="481.1001" y="880.207">(mdd-core)</text></g><g class="participant participant-head" data-entity-uid="part4" data-qualified-name="Store" data-source-line="14" id="part4-head"><text fill="#000000" font-family="sans-serif" font-size="14" lengthAdjust="spacing" textLength="128.7344" x="720.1709" y="102.0234">.mdd/cycles/&lt;n&gt;/</text><text fill="#000000" font-family="sans-serif" font-size="14" lengthAdjust="spacing" textLength="103.5029" x="732.7866" y="118.5117">before/ , after/</text><path d="M769.5381,52.4883 C769.5381,42.4883 787.5381,42.4883 787.5381,42.4883 C787.5381,42.4883 805.5381,42.4883 805.5381,52.4883 L805.5381,78.4883 C805.5381,88.4883 787.5381,88.4883 787.5381,88.4883 C787.5381,88.4883 769.5381,88.4883 769.5381,78.4883 L769.5381,52.4883" fill="#E2E2F0" style="stroke:#181818;stroke-width:0.5;"/><path d="M769.5381,52.4883 C769.5381,62.4883 787.5381,62.4883 787.5381,62.4883 C787.5381,62.4883 805.5381,62.4883 805.5381,52.4883" fill="none" style="stroke:#181818;stroke-width:0.5;"/></g><g class="participant participant-tail" data-entity-uid="part4" data-qualified-name="Store" data-source-line="14" id="part4-tail"><text fill="#000000" font-family="sans-serif" font-size="14" lengthAdjust="spacing" textLength="128.7344" x="720.1709" y="856.7188">.mdd/cycles/&lt;n&gt;/</text><text fill="#000000" font-family="sans-serif" font-size="14" lengthAdjust="spacing" textLength="103.5029" x="732.7866" y="873.207">before/ , after/</text><path d="M769.5381,886.1602 C769.5381,876.1602 787.5381,876.1602 787.5381,876.1602 C787.5381,876.1602 805.5381,876.1602 805.5381,886.1602 L805.5381,912.1602 C805.5381,922.1602 787.5381,922.1602 787.5381,922.1602 C787.5381,922.1602 769.5381,922.1602 769.5381,912.1602 L769.5381,886.1602" fill="#E2E2F0" style="stroke:#181818;stroke-width:0.5;"/><path d="M769.5381,886.1602 C769.5381,896.1602 787.5381,896.1602 787.5381,896.1602 C787.5381,896.1602 805.5381,896.1602 805.5381,886.1602" fill="none" style="stroke:#181818;stroke-width:0.5;"/></g><g class="participant participant-head" data-entity-uid="part5" data-qualified-name="Diff" data-source-line="15" id="part5-head"><rect fill="#E2E2F0" height="46.9766" rx="2.5" ry="2.5" style="stroke:#181818;stroke-width:0.5;" width="164.7051" x="864.9053" y="73.4883"/><text fill="#000000" font-family="sans-serif" font-size="14" lengthAdjust="spacing" textLength="70.3691" x="912.0732" y="94.0234">DiffEngine</text><text fill="#000000" font-family="sans-serif" font-size="14" lengthAdjust="spacing" textLength="150.7051" x="871.9053" y="110.5117">(element set partition)</text></g><g class="participant participant-tail" data-entity-uid="part5" data-qualified-name="Diff" data-source-line="15" id="part5-tail"><rect fill="#E2E2F0" height="46.9766" rx="2.5" ry="2.5" style="stroke:#181818;stroke-width:0.5;" width="164.7051" x="864.9053" y="843.1836"/><text fill="#000000" font-family="sans-serif" font-size="14" lengthAdjust="spacing" textLength="70.3691" x="912.0732" y="863.7188">DiffEngine</text><text fill="#000000" font-family="sans-serif" font-size="14" lengthAdjust="spacing" textLength="150.7051" x="871.9053" y="880.207">(element set partition)</text></g><g class="participant participant-head" data-entity-uid="part6" data-qualified-name="Painter" data-source-line="16" id="part6-head"><rect fill="#E2E2F0" height="30.4883" rx="2.5" ry="2.5" style="stroke:#181818;stroke-width:0.5;" width="95.7373" x="1039.6104" y="89.9766"/><text fill="#000000" font-family="sans-serif" font-size="14" lengthAdjust="spacing" textLength="81.7373" x="1046.6104" y="110.5117">egui painter</text></g><g class="participant participant-tail" data-entity-uid="part6" data-qualified-name="Painter" data-source-line="16" id="part6-tail"><rect fill="#E2E2F0" height="30.4883" rx="2.5" ry="2.5" style="stroke:#181818;stroke-width:0.5;" width="95.7373" x="1039.6104" y="843.1836"/><text fill="#000000" font-family="sans-serif" font-size="14" lengthAdjust="spacing" textLength="81.7373" x="1046.6104" y="863.7188">egui painter</text></g><g class="message" data-entity-1="part1" data-entity-2="part2" data-source-line="18" id="msg1"><polygon fill="#181818" points="293.2886,148.7754,303.2886,152.7754,293.2886,156.7754,297.2886,152.7754" style="stroke:#181818;stroke-width:1;"/><line style="stroke:#181818;stroke-width:1;" x1="57.1592" x2="299.2886" y1="152.7754" y2="152.7754"/><text fill="#000000" font-family="sans-serif" font-size="13" lengthAdjust="spacing" textLength="224.1294" x="64.1592" y="148.0332">select cycle N in rail, open Diff view</text></g><g class="message" data-entity-1="part2" data-entity-2="part3" data-source-line="19" id="msg2"><polygon fill="#181818" points="507.6992,178.0859,517.6992,182.0859,507.6992,186.0859,511.6992,182.0859" style="stroke:#181818;stroke-width:1;"/><line style="stroke:#181818;stroke-width:1;" x1="305.2886" x2="513.6992" y1="182.0859" y2="182.0859"/><text fill="#000000" font-family="sans-serif" font-size="13" lengthAdjust="spacing" textLength="49.1689" x="312.2886" y="177.3438">cycle(N)</text></g><g class="message" data-entity-1="part3" data-entity-2="part4" data-source-line="20" id="msg3"><polygon fill="#181818" points="775.5381,207.3965,785.5381,211.3965,775.5381,215.3965,779.5381,211.3965" style="stroke:#181818;stroke-width:1;"/><line style="stroke:#181818;stroke-width:1;" x1="519.6992" x2="781.5381" y1="211.3965" y2="211.3965"/><text fill="#000000" font-family="sans-serif" font-size="13" lengthAdjust="spacing" textLength="243.8389" x="526.6992" y="206.6543">read manifest + before/ + after/ puml</text></g><g class="message" data-entity-1="part4" data-entity-2="part3" data-source-line="21" id="msg4"><polygon fill="#181818" points="530.6992,236.707,520.6992,240.707,530.6992,244.707,526.6992,240.707" style="stroke:#181818;stroke-width:1;"/><line style="stroke:#181818;stroke-width:1;stroke-dasharray:2,2;" x1="524.6992" x2="786.5381" y1="240.707" y2="240.707"/><text fill="#000000" font-family="sans-serif" font-size="13" lengthAdjust="spacing" textLength="145.4946" x="536.6992" y="235.9648">before docs, after docs</text></g><g class="message" data-entity-1="part3" data-entity-2="part2" data-source-line="22" id="msg5"><polygon fill="#181818" points="316.2886,266.0176,306.2886,270.0176,316.2886,274.0176,312.2886,270.0176" style="stroke:#181818;stroke-width:1;"/><line style="stroke:#181818;stroke-width:1;stroke-dasharray:2,2;" x1="310.2886" x2="518.6992" y1="270.0176" y2="270.0176"/><text fill="#000000" font-family="sans-serif" font-size="13" lengthAdjust="spacing" textLength="190.4106" x="322.2886" y="265.2754">Cycle { before, after, diff refs }</text></g><g class="message" data-entity-1="part2" data-entity-2="part5" data-source-line="24" id="msg6"><polygon fill="#181818" points="935.2578,295.3281,945.2578,299.3281,935.2578,303.3281,939.2578,299.3281" style="stroke:#181818;stroke-width:1;"/><line style="stroke:#181818;stroke-width:1;" x1="305.2886" x2="941.2578" y1="299.3281" y2="299.3281"/><text fill="#000000" font-family="sans-serif" font-size="13" lengthAdjust="spacing" textLength="210.9453" x="312.2886" y="294.5859">superpose(before_doc, after_doc)</text></g><path d="M952,312.3281 L952,413.3281 L1274,413.3281 L1274,322.3281 L1264,312.3281 L952,312.3281" fill="#FEFFDD" style="stroke:#181818;stroke-width:0.5;"/><path d="M1264,312.3281 L1264,322.3281 L1274,322.3281 L1264,312.3281" fill="#FEFFDD" style="stroke:#181818;stroke-width:0.5;"/><text fill="#000000" font-family="sans-serif" font-size="13" lengthAdjust="spacing" textLength="236.9326" x="958" y="329.8965">Element identity = @id when present,</text><text fill="#000000" font-family="sans-serif" font-size="13" lengthAdjust="spacing" textLength="227.0874" x="958" y="345.207">else the stable PlantUML alias/label.</text><text fill="#000000" font-family="sans-serif" font-size="13" lengthAdjust="spacing" textLength="234.6602" x="958" y="360.5176">unchanged = before INTERSECT after</text><text fill="#000000" font-family="sans-serif" font-size="13" lengthAdjust="spacing" textLength="249.6724" x="958" y="375.8281">added     = after  MINUS before  (green)</text><text fill="#000000" font-family="sans-serif" font-size="13" lengthAdjust="spacing" textLength="242.0806" x="958" y="391.1387">removed   = before MINUS after   (red)</text><text fill="#000000" font-family="sans-serif" font-size="13" lengthAdjust="spacing" textLength="301.666" x="958" y="406.4492">Sets are disjoint (OCL-CYCLE-DIFF-PARTITION).</text><g class="message" data-entity-1="part5" data-entity-2="part2" data-source-line="33" id="msg7"><polygon fill="#181818" points="316.2886,436.502,306.2886,440.502,316.2886,444.502,312.2886,440.502" style="stroke:#181818;stroke-width:1;"/><line style="stroke:#181818;stroke-width:1;stroke-dasharray:2,2;" x1="310.2886" x2="946.2578" y1="440.502" y2="440.502"/><text fill="#000000" font-family="sans-serif" font-size="13" lengthAdjust="spacing" textLength="221.9458" x="322.2886" y="435.7598">{ unchanged[], added[], removed[] }</text></g><path d="M242.0264,455.502 L304.165,455.502 L304.165,462.8125 L294.165,472.8125 L242.0264,472.8125 L242.0264,455.502" fill="#EEEEEE" style="stroke:#000000;stroke-width:1.5;"/><rect fill="none" height="133.1973" style="stroke:#000000;stroke-width:1.5;" width="622.8789" x="242.0264" y="455.502"/><text fill="#000000" font-family="sans-serif" font-size="13" font-weight="700" lengthAdjust="spacing" textLength="17.1387" x="257.0264" y="469.0703">alt</text><text fill="#000000" font-family="sans-serif" font-size="11" font-weight="700" lengthAdjust="spacing" textLength="243.7295" x="319.165" y="468.1367">[a pre-written &lt;diagram&gt;.diff.puml exists]</text><g class="message" data-entity-1="part2" data-entity-2="part4" data-source-line="36" id="msg8"><polygon fill="#181818" points="775.5381,490.123,785.5381,494.123,775.5381,498.123,779.5381,494.123" style="stroke:#181818;stroke-width:1;"/><line style="stroke:#181818;stroke-width:1;" x1="305.2886" x2="781.5381" y1="494.123" y2="494.123"/><text fill="#000000" font-family="sans-serif" font-size="13" lengthAdjust="spacing" textLength="166.4355" x="312.2886" y="489.3809">read &lt;diagram&gt;.diff.puml</text></g><g class="message" data-entity-1="part4" data-entity-2="part2" data-source-line="37" id="msg9"><polygon fill="#181818" points="316.2886,519.4336,306.2886,523.4336,316.2886,527.4336,312.2886,523.4336" style="stroke:#181818;stroke-width:1;"/><line style="stroke:#181818;stroke-width:1;stroke-dasharray:2,2;" x1="310.2886" x2="786.5381" y1="523.4336" y2="523.4336"/><text fill="#000000" font-family="sans-serif" font-size="13" lengthAdjust="spacing" textLength="240.3223" x="322.2886" y="518.6914">annotated puml (&#171;added&#187;/&#171;removed&#187;)</text></g><line style="stroke:#000000;stroke-width:1;stroke-dasharray:2,2;" x1="242.0264" x2="864.9053" y1="532.4336" y2="532.4336"/><text fill="#000000" font-family="sans-serif" font-size="11" font-weight="700" lengthAdjust="spacing" textLength="114.9199" x="247.0264" y="543.0684">[compute on the fly]</text><g class="message" data-entity-1="part2" data-entity-2="part2" data-source-line="39" id="msg10"><line style="stroke:#181818;stroke-width:1;" x1="305.2886" x2="347.2886" y1="567.6992" y2="567.6992"/><line style="stroke:#181818;stroke-width:1;" x1="347.2886" x2="347.2886" y1="567.6992" y2="580.6992"/><line style="stroke:#181818;stroke-width:1;" x1="306.2886" x2="347.2886" y1="580.6992" y2="580.6992"/><polygon fill="#181818" points="316.2886,576.6992,306.2886,580.6992,316.2886,584.6992,312.2886,580.6992" style="stroke:#181818;stroke-width:1;"/><text fill="#000000" font-family="sans-serif" font-size="13" lengthAdjust="spacing" textLength="170.7393" x="312.2886" y="562.957">synthesize annotated puml</text></g><path d="M10,602.6992 L84.4468,602.6992 L84.4468,610.0098 L74.4468,620.0098 L10,620.0098 L10,602.6992" fill="#EEEEEE" style="stroke:#000000;stroke-width:1.5;"/><rect fill="none" height="134.5527" style="stroke:#000000;stroke-width:1.5;" width="1135.3477" x="10" y="602.6992"/><text fill="#000000" font-family="sans-serif" font-size="13" font-weight="700" lengthAdjust="spacing" textLength="29.4468" x="25" y="616.2676">loop</text><text fill="#000000" font-family="sans-serif" font-size="11" font-weight="700" lengthAdjust="spacing" textLength="117.2832" x="99.4468" y="615.334">[each painted frame]</text><g class="message" data-entity-1="part2" data-entity-2="part6" data-source-line="43" id="msg11"><polygon fill="#181818" points="1075.479,637.3203,1085.479,641.3203,1075.479,645.3203,1079.479,641.3203" style="stroke:#181818;stroke-width:1;"/><line style="stroke:#181818;stroke-width:1;" x1="305.2886" x2="1081.479" y1="641.3203" y2="641.3203"/><text fill="#000000" font-family="sans-serif" font-size="13" lengthAdjust="spacing" textLength="229.855" x="312.2886" y="636.5781">draw shared elements once (neutral)</text></g><g class="message" data-entity-1="part2" data-entity-2="part6" data-source-line="44" id="msg12"><polygon fill="#181818" points="1075.479,666.6309,1085.479,670.6309,1075.479,674.6309,1079.479,670.6309" style="stroke:#181818;stroke-width:1;"/><line style="stroke:#181818;stroke-width:1;" x1="305.2886" x2="1081.479" y1="670.6309" y2="670.6309"/><text fill="#000000" font-family="sans-serif" font-size="13" lengthAdjust="spacing" textLength="175.1636" x="312.2886" y="665.8887">draw added elements green</text></g><g class="message" data-entity-1="part2" data-entity-2="part6" data-source-line="45" id="msg13"><polygon fill="#181818" points="1075.479,695.9414,1085.479,699.9414,1075.479,703.9414,1079.479,699.9414" style="stroke:#181818;stroke-width:1;"/><line style="stroke:#181818;stroke-width:1;" x1="305.2886" x2="1081.479" y1="699.9414" y2="699.9414"/><text fill="#000000" font-family="sans-serif" font-size="13" lengthAdjust="spacing" textLength="175.7983" x="312.2886" y="695.1992">draw removed elements red</text></g><g class="message" data-entity-1="part6" data-entity-2="part1" data-source-line="46" id="msg14"><polygon fill="#181818" points="68.1592,725.252,58.1592,729.252,68.1592,733.252,64.1592,729.252" style="stroke:#181818;stroke-width:1;"/><line style="stroke:#181818;stroke-width:1;stroke-dasharray:2,2;" x1="62.1592" x2="1086.479" y1="729.252" y2="729.252"/><text fill="#000000" font-family="sans-serif" font-size="13" lengthAdjust="spacing" textLength="210.6978" x="74.1592" y="724.5098">superposed before/after diagram</text></g><path d="M10,751.252 L77.1851,751.252 L77.1851,758.5625 L67.1851,768.5625 L10,768.5625 L10,751.252" fill="#EEEEEE" style="stroke:#000000;stroke-width:1.5;"/><rect fill="none" height="75.9316" style="stroke:#000000;stroke-width:1.5;" width="1135.3477" x="10" y="751.252"/><text fill="#000000" font-family="sans-serif" font-size="13" font-weight="700" lengthAdjust="spacing" textLength="22.1851" x="25" y="764.8203">opt</text><text fill="#000000" font-family="sans-serif" font-size="11" font-weight="700" lengthAdjust="spacing" textLength="202.2539" x="92.1851" y="763.8867">[cycle has no after/ yet (still Open)]</text><g class="message" data-entity-1="part2" data-entity-2="part6" data-source-line="50" id="msg15"><polygon fill="#181818" points="1075.479,785.873,1085.479,789.873,1075.479,793.873,1079.479,789.873" style="stroke:#181818;stroke-width:1;"/><line style="stroke:#181818;stroke-width:1;" x1="305.2886" x2="1081.479" y1="789.873" y2="789.873"/><text fill="#000000" font-family="sans-serif" font-size="13" lengthAdjust="spacing" textLength="261.2568" x="312.2886" y="785.1309">text("Diff available after the cycle closes")</text></g><g class="message" data-entity-1="part6" data-entity-2="part1" data-source-line="51" id="msg16"><polygon fill="#181818" points="68.1592,815.1836,58.1592,819.1836,68.1592,823.1836,64.1592,819.1836" style="stroke:#181818;stroke-width:1;"/><line style="stroke:#181818;stroke-width:1;stroke-dasharray:2,2;" x1="62.1592" x2="1086.479" y1="819.1836" y2="819.1836"/><text fill="#000000" font-family="sans-serif" font-size="13" lengthAdjust="spacing" textLength="73.5757" x="74.1592" y="814.4414">placeholder</text></g><?plantuml-src VLLTZzew47tFhnZniedAnpkYQ2isrKNQPVS2swkhjgfCF26kZ1t51afN_UyTVuGiBLeUaCcSCpbpnZFSmAtWwIh_Tx3C5tVvSZ3xVtQV3-xc7pzcoGtSDbYcpwlyrUF1ftd-7yKe-hZvZeKL1nmOmH5AgOzGwWPiXQ3m26PVOrDhWnmsI04SiT9Y0roK9Hm47eUKP4rWTwRd3J9kW44XFQSu5H9l31Z5QbDfIo752QGuDWQqGah4jWtRKPQZi1MOYZN4GuaxL0Jd3Jig0XRO1yQvi48h0zi6KVKfpquVc3Hqu4DVpYr7KrpteW-zVwWussdTx8KCObkLNR6klh6lfgtRA_V5Zxfo-b2pndfLdMQXh8QzAYgcjiX799k-lLRaZa1ny0z37T4I7_QLzBA4Kag4fVVfki2_kv7gjfTPah32KXTxTtX0gOdK0sQ0VYLURo5gHY9w3vn_ybvyKIcMr0OSZp_KTURH8N99c3aXIzmAOviJaNQS3mhI4HWKI3YpRCCCGcz8mP5NRaOJDHrzKQsJ_UYZ9wr8A5w-vOxAoTLMA7IwWgrWq7PcX_Svt2KJjtiH78ubFuLpab3jC9Z6ec1CwIIP5Po51VKC6YPa7yWivHFxMv94F36fEA9vVBh84lUJddhr46_AZYbHeh7mxdnfthLNfjxlP1BGWtEsW0Ak2nCzyUUG_BLQxpkyH4B4zaFVQRuD_4fUIVNonzrjIGFj6-MEL7VC4gKjGYEsbGLT1ZS1ykWthGD5Pf_WlTilSAp8bxf1Gq_x14D9FNR3PAZVfEr9KWEU7-w1IS7CIB8DoY7XpdD0UMAvyyKwNwxosJfe8L2O1lTv7ss0X_dYUTKo8FMJaX6q7HJeyWLev45A8-I0AtJRnhahp7VjPYvzdDs_te9F7vRh-Nh-kCY62KqQE3iIxzs5zozT3P-_zeDMTuXAFdzrvZD9C-ty6HmROIrvDOcRRJfqNHgw_WF-eC4n9AxhrSK5ki9nbPnlpLaJKoIMMVB1vqqd4ozhEXrD9b7NT9eblac5tjLxQZIjADUlKfuk17GJSL8KD-8d_f7UcPCaKkiQa1LLd2yEVc5Sv8hJHidStlvhcRir3gd2lMsOpDvYXWjn9lhkluLlRyMPGUybV8jotha5C7vZWuQ_8L-ghjl5KD4AKRgTuHEjeDHO8IKyrk4wNbDayOTD_H83Tg2bukSZlCOr86JsVv2cbrrLMKjMOAKbRN-dw3S0?></g></svg>