<svg xmlns="http://www.w3.org/2000/svg" xmlns:xlink="http://www.w3.org/1999/xlink" contentStyleType="text/css" data-diagram-type="SEQUENCE" height="772px" preserveAspectRatio="none" style="width:1278px;height:772px;background:#FFFFFF;" version="1.1" viewBox="0 0 1278 772" width="1278px" zoomAndPan="magnify"><?plantuml 1.2026.3?><defs/><g><g class="title" data-source-line="10"><text fill="#000000" font-family="sans-serif" font-size="14" font-weight="700" lengthAdjust="spacing" textLength="340.6826" x="465.6045" y="28.5352">View a model file's PlantUML source (objective)</text></g><rect fill="none" height="361.9922" style="stroke:#000000;stroke-width:1.5;" width="1252.8916" x="10" y="197.0859"/><rect fill="none" height="75.9316" style="stroke:#000000;stroke-width:1.5;" width="1232.8916" x="20" y="221.3965"/><rect fill="none" height="75.9316" style="stroke:#000000;stroke-width:1.5;" width="631.6885" x="405.1064" y="384.9043"/><rect fill="none" height="77.2422" style="stroke:#000000;stroke-width:1.5;" width="511.6309" x="20" y="474.8359"/><g class="participant-lifeline" data-entity-uid="part1" data-qualified-name="Dev" data-source-line="12" id="part1-lifeline"><g><title>Developer</title><rect fill="#000000" fill-opacity="0.00000" height="566.4766" width="8" x="63.1592" y="121.4648"/><line style="stroke:#181818;stroke-width:0.5;stroke-dasharray:5,5;" x1="67" x2="67" y1="121.4648" y2="687.9414"/></g></g><g class="participant-lifeline" data-entity-uid="part2" data-qualified-name="Viewer" data-source-line="13" id="part2-lifeline"><g><title>MddViewer</title><rect fill="#000000" fill-opacity="0.00000" height="566.4766" width="8" x="464.3687" y="121.4648"/><line style="stroke:#181818;stroke-width:0.5;stroke-dasharray:5,5;" x1="468.1064" x2="468.1064" y1="121.4648" y2="687.9414"/></g></g><g class="participant-lifeline" data-entity-uid="part3" data-qualified-name="Mode" data-source-line="14" id="part3-lifeline"><g><title>View</title><rect fill="#000000" fill-opacity="0.00000" height="566.4766" width="8" x="591.3486" y="121.4648"/><line style="stroke:#181818;stroke-width:0.5;stroke-dasharray:5,5;" x1="594.6309" x2="594.6309" y1="121.4648" y2="687.9414"/></g></g><g class="participant-lifeline" data-entity-uid="part4" data-qualified-name="SV" data-source-line="15" id="part4-lifeline"><g><title>SourceView</title><rect fill="#000000" fill-opacity="0.00000" height="566.4766" width="8" x="726.5112" y="121.4648"/><line style="stroke:#181818;stroke-width:0.5;stroke-dasharray:5,5;" x1="730.0664" x2="730.0664" y1="121.4648" y2="687.9414"/></g></g><g class="participant-lifeline" data-entity-uid="part5" data-qualified-name="Puml" data-source-line="16" id="part5-lifeline"><g><title>.mdd.models..side..</title><rect fill="#000000" fill-opacity="0.00000" height="566.4766" width="8" x="940.833" y="121.4648"/><line style="stroke:#181818;stroke-width:0.5;stroke-dasharray:5,5;" x1="943.8711" x2="943.8711" y1="121.4648" y2="687.9414"/></g></g><g class="participant-lifeline" data-entity-uid="part6" data-qualified-name="Page" data-source-line="17" id="part6-lifeline"><g><title>DiagramPage</title><rect fill="#000000" fill-opacity="0.00000" height="566.4766" width="8" x="1135.8433" y="121.4648"/><line style="stroke:#181818;stroke-width:0.5;stroke-dasharray:5,5;" x1="1139.7949" x2="1139.7949" y1="121.4648" y2="687.9414"/></g></g><g class="participant participant-head" data-entity-uid="part1" data-qualified-name="Dev" data-source-line="12" id="part1-head"><text fill="#000000" font-family="sans-serif" font-size="14" lengthAdjust="spacing" textLength="68.3184" x="30" y="118.5117">Developer</text><ellipse cx="67.1592" cy="53.4766" fill="#E2E2F0" rx="8" ry="8" style="stroke:#181818;stroke-width:0.5;"/><path d="M67.1592,61.4766 L67.1592,88.4766 M54.1592,69.4766 L80.1592,69.4766 M67.1592,88.4766 L54.1592,103.4766 M67.1592,88.4766 L80.1592,103.4766" fill="none" style="stroke:#181818;stroke-width:0.5;"/></g><g class="participant participant-tail" data-entity-uid="part1" data-qualified-name="Dev" data-source-line="12" id="part1-tail"><text fill="#000000" font-family="sans-serif" font-size="14" lengthAdjust="spacing" textLength="68.3184" x="30" y="700.4766">Developer</text><ellipse cx="67.1592" cy="711.9297" fill="#E2E2F0" rx="8" ry="8" style="stroke:#181818;stroke-width:0.5;"/><path d="M67.1592,719.9297 L67.1592,746.9297 M54.1592,727.9297 L80.1592,727.9297 M67.1592,746.9297 L54.1592,761.9297 M67.1592,746.9297 L80.1592,761.9297" fill="none" style="stroke:#181818;stroke-width:0.5;"/></g><g class="participant participant-head" data-entity-uid="part2" data-qualified-name="Viewer" data-source-line="13" id="part2-head"><rect fill="#E2E2F0" height="46.9766" rx="2.5" ry="2.5" style="stroke:#181818;stroke-width:0.5;" width="106.5244" x="415.1064" y="73.4883"/><text fill="#000000" font-family="sans-serif" font-size="14" lengthAdjust="spacing" textLength="74.9971" x="430.8701" y="94.0234">MddViewer</text><text fill="#000000" font-family="sans-serif" font-size="14" lengthAdjust="spacing" textLength="92.5244" x="422.1064" y="110.5117">(eframe::App)</text></g><g class="participant participant-tail" data-entity-uid="part2" data-qualified-name="Viewer" data-source-line="13" id="part2-tail"><rect fill="#E2E2F0" height="46.9766" rx="2.5" ry="2.5" style="stroke:#181818;stroke-width:0.5;" width="106.5244" x="415.1064" y="686.9414"/><text fill="#000000" font-family="sans-serif" font-size="14" lengthAdjust="spacing" textLength="74.9971" x="430.8701" y="707.4766">MddViewer</text><text fill="#000000" font-family="sans-serif" font-size="14" lengthAdjust="spacing" textLength="92.5244" x="422.1064" y="723.9648">(eframe::App)</text></g><g class="participant participant-head" data-entity-uid="part3" data-qualified-name="Mode" data-source-line="14" id="part3-head"><rect fill="#E2E2F0" height="46.9766" rx="2.5" ry="2.5" style="stroke:#181818;stroke-width:0.5;" width="127.4355" x="531.6309" y="73.4883"/><text fill="#000000" font-family="sans-serif" font-size="14" lengthAdjust="spacing" textLength="31.7871" x="579.4551" y="94.0234">View</text><text fill="#000000" font-family="sans-serif" font-size="14" lengthAdjust="spacing" textLength="113.4355" x="538.6309" y="110.5117">{Svg|Source|Diff}</text></g><g class="participant participant-tail" data-entity-uid="part3" data-qualified-name="Mode" data-source-line="14" id="part3-tail"><rect fill="#E2E2F0" height="46.9766" rx="2.5" ry="2.5" style="stroke:#181818;stroke-width:0.5;" width="127.4355" x="531.6309" y="686.9414"/><text fill="#000000" font-family="sans-serif" font-size="14" lengthAdjust="spacing" textLength="31.7871" x="579.4551" y="707.4766">View</text><text fill="#000000" font-family="sans-serif" font-size="14" lengthAdjust="spacing" textLength="113.4355" x="538.6309" y="723.9648">{Svg|Source|Diff}</text></g><g class="participant participant-head" data-entity-uid="part4" data-qualified-name="SV" data-source-line="15" id="part4-head"><rect fill="#E2E2F0" height="46.9766" rx="2.5" ry="2.5" style="stroke:#181818;stroke-width:0.5;" width="122.8896" x="669.0664" y="73.4883"/><text fill="#000000" font-family="sans-serif" font-size="14" lengthAdjust="spacing" textLength="77.3145" x="691.854" y="94.0234">SourceView</text><text fill="#000000" font-family="sans-serif" font-size="14" lengthAdjust="spacing" textLength="108.8896" x="676.0664" y="110.5117">{loaded, source}</text></g><g class="participant participant-tail" data-entity-uid="part4" data-qualified-name="SV" data-source-line="15" id="part4-tail"><rect fill="#E2E2F0" height="46.9766" rx="2.5" ry="2.5" style="stroke:#181818;stroke-width:0.5;" width="122.8896" x="669.0664" y="686.9414"/><text fill="#000000" font-family="sans-serif" font-size="14" lengthAdjust="spacing" textLength="77.3145" x="691.854" y="707.4766">SourceView</text><text fill="#000000" font-family="sans-serif" font-size="14" lengthAdjust="spacing" textLength="108.8896" x="676.0664" y="723.9648">{loaded, source}</text></g><g class="participant participant-head" data-entity-uid="part5" data-qualified-name="Puml" data-source-line="16" id="part5-head"><text fill="#000000" font-family="sans-serif" font-size="14" lengthAdjust="spacing" textLength="156.666" x="863.5" y="102.0234">.mdd/models/&lt;side&gt;/</text><text fill="#000000" font-family="sans-serif" font-size="14" lengthAdjust="spacing" textLength="157.9238" x="862.8711" y="118.5117">&lt;kind&gt;/&lt;name&gt;.puml</text><path d="M926.833,52.4883 C926.833,42.4883 944.833,42.4883 944.833,42.4883 C944.833,42.4883 962.833,42.4883 962.833,52.4883 L962.833,78.4883 C962.833,88.4883 944.833,88.4883 944.833,88.4883 C944.833,88.4883 926.833,88.4883 926.833,78.4883 L926.833,52.4883" fill="#E2E2F0" style="stroke:#181818;stroke-width:0.5;"/><path d="M926.833,52.4883 C926.833,62.4883 944.833,62.4883 944.833,62.4883 C944.833,62.4883 962.833,62.4883 962.833,52.4883" fill="none" style="stroke:#181818;stroke-width:0.5;"/></g><g class="participant participant-tail" data-entity-uid="part5" data-qualified-name="Puml" data-source-line="16" id="part5-tail"><text fill="#000000" font-family="sans-serif" font-size="14" lengthAdjust="spacing" textLength="156.666" x="863.5" y="700.4766">.mdd/models/&lt;side&gt;/</text><text fill="#000000" font-family="sans-serif" font-size="14" lengthAdjust="spacing" textLength="157.9238" x="862.8711" y="716.9648">&lt;kind&gt;/&lt;name&gt;.puml</text><path d="M926.833,729.918 C926.833,719.918 944.833,719.918 944.833,719.918 C944.833,719.918 962.833,719.918 962.833,729.918 L962.833,755.918 C962.833,765.918 944.833,765.918 944.833,765.918 C944.833,765.918 926.833,765.918 926.833,755.918 L926.833,729.918" fill="#E2E2F0" style="stroke:#181818;stroke-width:0.5;"/><path d="M926.833,729.918 C926.833,739.918 944.833,739.918 944.833,739.918 C944.833,739.918 962.833,739.918 962.833,729.918" fill="none" style="stroke:#181818;stroke-width:0.5;"/></g><g class="participant participant-head" data-entity-uid="part6" data-qualified-name="Page" data-source-line="17" id="part6-head"><rect fill="#E2E2F0" height="46.9766" rx="2.5" ry="2.5" style="stroke:#181818;stroke-width:0.5;" width="206.0967" x="1036.7949" y="73.4883"/><text fill="#000000" font-family="sans-serif" font-size="14" lengthAdjust="spacing" textLength="89.5234" x="1095.0815" y="94.0234">DiagramPage</text><text fill="#000000" font-family="sans-serif" font-size="14" lengthAdjust="spacing" textLength="192.0967" x="1043.7949" y="110.5117">(usvg/resvg) + paint_canvas</text></g><g class="participant participant-tail" data-entity-uid="part6" data-qualified-name="Page" data-source-line="17" id="part6-tail"><rect fill="#E2E2F0" height="46.9766" rx="2.5" ry="2.5" style="stroke:#181818;stroke-width:0.5;" width="206.0967" x="1036.7949" y="686.9414"/><text fill="#000000" font-family="sans-serif" font-size="14" lengthAdjust="spacing" textLength="89.5234" x="1095.0815" y="707.4766">DiagramPage</text><text fill="#000000" font-family="sans-serif" font-size="14" lengthAdjust="spacing" textLength="192.0967" x="1043.7949" y="723.9648">(usvg/resvg) + paint_canvas</text></g><g class="message" data-entity-1="part1" data-entity-2="part2" data-source-line="19" id="msg1"><polygon fill="#181818" points="456.3687,148.7754,466.3687,152.7754,456.3687,156.7754,460.3687,152.7754" style="stroke:#181818;stroke-width:1;"/><line style="stroke:#181818;stroke-width:1;" x1="67.1592" x2="462.3687" y1="152.7754" y2="152.7754"/><text fill="#000000" font-family="sans-serif" font-size="13" lengthAdjust="spacing" textLength="179.1055" x="74.1592" y="148.0332">select a model file in the rail</text></g><g class="message" data-entity-1="part2" data-entity-2="part1" data-source-line="20" id="msg2"><polygon fill="#181818" points="78.1592,178.0859,68.1592,182.0859,78.1592,186.0859,74.1592,182.0859" style="stroke:#181818;stroke-width:1;"/><line style="stroke:#181818;stroke-width:1;" x1="72.1592" x2="467.3687" y1="182.0859" y2="182.0859"/><text fill="#000000" font-family="sans-serif" font-size="13" lengthAdjust="spacing" textLength="377.2095" x="84.1592" y="177.3438">show "Diagram | Source | Diff" toggle row (default Diagram)</text></g><path d="M10,197.0859 L72.1387,197.0859 L72.1387,204.3965 L62.1387,214.3965 L10,214.3965 L10,197.0859" fill="#EEEEEE" style="stroke:#000000;stroke-width:1.5;"/><rect fill="none" height="361.9922" style="stroke:#000000;stroke-width:1.5;" width="1252.8916" x="10" y="197.0859"/><text fill="#000000" font-family="sans-serif" font-size="13" font-weight="700" lengthAdjust="spacing" textLength="17.1387" x="25" y="210.6543">alt</text><text fill="#000000" font-family="sans-serif" font-size="11" font-weight="700" lengthAdjust="spacing" textLength="160.1284" x="87.1387" y="209.7207">[toggle = Diagram (default)]</text><path d="M20,221.3965 L94.4468,221.3965 L94.4468,228.707 L84.4468,238.707 L20,238.707 L20,221.3965" fill="#EEEEEE" style="stroke:#000000;stroke-width:1.5;"/><rect fill="none" height="75.9316" style="stroke:#000000;stroke-width:1.5;" width="1232.8916" x="20" y="221.3965"/><text fill="#000000" font-family="sans-serif" font-size="13" font-weight="700" lengthAdjust="spacing" textLength="29.4468" x="35" y="234.9648">loop</text><text fill="#000000" font-family="sans-serif" font-size="11" font-weight="700" lengthAdjust="spacing" textLength="117.2832" x="109.4468" y="234.0313">[each painted frame]</text><g class="message" data-entity-1="part2" data-entity-2="part6" data-source-line="24" id="msg3"><polygon fill="#181818" points="1127.8433,256.0176,1137.8433,260.0176,1127.8433,264.0176,1131.8433,260.0176" style="stroke:#181818;stroke-width:1;"/><line style="stroke:#181818;stroke-width:1;" x1="468.3687" x2="1133.8433" y1="260.0176" y2="260.0176"/><text fill="#000000" font-family="sans-serif" font-size="13" lengthAdjust="spacing" textLength="304.7256" x="475.3687" y="255.2754">paint_canvas (rendered SVG, pan/zoom/fisheye)</text></g><g class="message" data-entity-1="part6" data-entity-2="part1" data-source-line="25" id="msg4"><polygon fill="#181818" points="78.1592,285.3281,68.1592,289.3281,78.1592,293.3281,74.1592,289.3281" style="stroke:#181818;stroke-width:1;"/><line style="stroke:#181818;stroke-width:1;stroke-dasharray:2,2;" x1="72.1592" x2="1138.8433" y1="289.3281" y2="289.3281"/><text fill="#000000" font-family="sans-serif" font-size="13" lengthAdjust="spacing" textLength="112.7725" x="84.1592" y="284.5859">rendered diagram</text></g><line style="stroke:#000000;stroke-width:1;stroke-dasharray:2,2;" x1="10" x2="1262.8916" y1="305.3281" y2="305.3281"/><text fill="#000000" font-family="sans-serif" font-size="11" font-weight="700" lengthAdjust="spacing" textLength="98.0063" x="15" y="315.9629">[toggle = Source]</text><g class="message" data-entity-1="part1" data-entity-2="part2" data-source-line="28" id="msg5"><polygon fill="#181818" points="456.3687,336.5938,466.3687,340.5938,456.3687,344.5938,460.3687,340.5938" style="stroke:#181818;stroke-width:1;"/><line style="stroke:#181818;stroke-width:1;" x1="67.1592" x2="462.3687" y1="340.5938" y2="340.5938"/><text fill="#000000" font-family="sans-serif" font-size="13" lengthAdjust="spacing" textLength="84.5317" x="74.1592" y="335.8516">click "Source"</text></g><g class="message" data-entity-1="part2" data-entity-2="part3" data-source-line="29" id="msg6"><polygon fill="#181818" points="583.3486,365.9043,593.3486,369.9043,583.3486,373.9043,587.3486,369.9043" style="stroke:#181818;stroke-width:1;"/><line style="stroke:#181818;stroke-width:1;" x1="468.3687" x2="589.3486" y1="369.9043" y2="369.9043"/><text fill="#000000" font-family="sans-serif" font-size="13" lengthAdjust="spacing" textLength="88.5815" x="475.3687" y="365.1621">view = Source</text></g><path d="M405.1064,384.9043 L467.2451,384.9043 L467.2451,392.2148 L457.2451,402.2148 L405.1064,402.2148 L405.1064,384.9043" fill="#EEEEEE" style="stroke:#000000;stroke-width:1.5;"/><rect fill="none" height="75.9316" style="stroke:#000000;stroke-width:1.5;" width="631.6885" x="405.1064" y="384.9043"/><text fill="#000000" font-family="sans-serif" font-size="13" font-weight="700" lengthAdjust="spacing" textLength="17.1387" x="420.1064" y="398.4727">alt</text><text fill="#000000" font-family="sans-serif" font-size="11" font-weight="700" lengthAdjust="spacing" textLength="205.2939" x="482.2451" y="397.5391">[source not yet loaded for this path]</text><g class="message" data-entity-1="part2" data-entity-2="part5" data-source-line="31" id="msg7"><polygon fill="#181818" points="932.833,419.5254,942.833,423.5254,932.833,427.5254,936.833,423.5254" style="stroke:#181818;stroke-width:1;"/><line style="stroke:#181818;stroke-width:1;" x1="468.3687" x2="938.833" y1="423.5254" y2="423.5254"/><text fill="#000000" font-family="sans-serif" font-size="13" lengthAdjust="spacing" textLength="83.605" x="475.3687" y="418.7832">read raw text</text></g><g class="message" data-entity-1="part5" data-entity-2="part4" data-source-line="32" id="msg8"><polygon fill="#181818" points="741.5112,448.8359,731.5112,452.8359,741.5112,456.8359,737.5112,452.8359" style="stroke:#181818;stroke-width:1;"/><line style="stroke:#181818;stroke-width:1;stroke-dasharray:2,2;" x1="735.5112" x2="943.833" y1="452.8359" y2="452.8359"/><text fill="#000000" font-family="sans-serif" font-size="13" lengthAdjust="spacing" textLength="190.3218" x="747.5112" y="448.0938">.puml source (cached by path)</text></g><path d="M20,474.8359 L94.4468,474.8359 L94.4468,482.1465 L84.4468,492.1465 L20,492.1465 L20,474.8359" fill="#EEEEEE" style="stroke:#000000;stroke-width:1.5;"/><rect fill="none" height="77.2422" style="stroke:#000000;stroke-width:1.5;" width="511.6309" x="20" y="474.8359"/><text fill="#000000" font-family="sans-serif" font-size="13" font-weight="700" lengthAdjust="spacing" textLength="29.4468" x="35" y="488.4043">loop</text><text fill="#000000" font-family="sans-serif" font-size="11" font-weight="700" lengthAdjust="spacing" textLength="117.2832" x="109.4468" y="487.4707">[each painted frame]</text><g class="message" data-entity-1="part2" data-entity-2="part1" data-source-line="35" id="msg9"><polygon fill="#181818" points="78.1592,540.0781,68.1592,544.0781,78.1592,548.0781,74.1592,544.0781" style="stroke:#181818;stroke-width:1;"/><line style="stroke:#181818;stroke-width:1;" x1="72.1592" x2="467.3687" y1="544.0781" y2="544.0781"/><text fill="#000000" font-family="sans-serif" font-size="13" lengthAdjust="spacing" textLength="155.6826" x="84.1592" y="508.7148">scrollable read-only text</text><text fill="#000000" font-family="sans-serif" font-size="13" lengthAdjust="spacing" textLength="200.0591" x="84.1592" y="524.0254">(@id / @ref / @desc / @sec and</text><text fill="#000000" font-family="sans-serif" font-size="13" lengthAdjust="spacing" textLength="209.7202" x="84.1592" y="539.3359">@startuml/@enduml highlighted)</text></g><path d="M539,571.0781 L539,672.0781 L921,672.0781 L921,581.0781 L911,571.0781 L539,571.0781" fill="#FEFFDD" style="stroke:#181818;stroke-width:0.5;"/><path d="M911,571.0781 L911,581.0781 L921,581.0781 L911,571.0781" fill="#FEFFDD" style="stroke:#181818;stroke-width:0.5;"/><text fill="#000000" font-family="sans-serif" font-size="13" lengthAdjust="spacing" textLength="328.0342" x="545" y="588.6465">SourceView caches (loaded path, source text) so the</text><text fill="#000000" font-family="sans-serif" font-size="13" lengthAdjust="spacing" textLength="319.1919" x="545" y="603.957">file is read once per selection, then repainted each</text><text fill="#000000" font-family="sans-serif" font-size="13" lengthAdjust="spacing" textLength="339.3013" x="545" y="619.2676">frame. Source depends on no rendered artifact &#8212; it is</text><text fill="#000000" font-family="sans-serif" font-size="13" lengthAdjust="spacing" textLength="361.2578" x="545" y="634.5781">always self-sufficient (OCL-PUML-SOURCE-NO-RENDER),</text><text fill="#000000" font-family="sans-serif" font-size="13" lengthAdjust="spacing" textLength="361.4165" x="545" y="649.8887">unlike the Diagram toggle which paints the pre-rendered</text><text fill="#000000" font-family="sans-serif" font-size="13" lengthAdjust="spacing" textLength="138.0298" x="545" y="665.1992">SVG via DiagramPage.</text><?plantuml-src ZLN1RXit4BtlLmnqiHRLQk-AQwYmXIH07BjMhLmC5DHoLikO8XSa9LMf2_GZ-eNzaioGkxAafa4EjgJbpF2zDszcBs2gv70--xLOl9zzAkuVRpyKyxl7X-jPdbt0r64zV9pFldL8ntVBprW5jSN2AubGQxk3sZhOAjmfim81QojHGwqqNdXmOWVtMfX0TM29CKS5JuKS6eaE9KWbLawin_1RWp2t6rSX1BjQQGHFeM3mZq0F8D3nJOe5OIHzhskgaq8zA1CZAZJ12GsjCAZVzFKS2kdZ-RZTh3LuYb6h9a3jx9eG-6Ugn4KDRj5HhQrzffgYH-d6aVnKeg--gTm81kz8YKghwfbb2F_XCknvT1noy8tT-Uy9DebbM5d2v7SgL0s1eX8BUZIPfFeZqEABqliZZXurzOYaJMG3NwmCvQKCpePX9QYQXEMUf0fDFehqaHwI9cADz9HIIDO0meEldDLQB7MIih26Benr2LN3VYhPDsKKg9nwh6AvgG_21S9GJab7njAGwfgLHpc6wrwjlgqEkrkPnS4WyyNRDs3ieHUWVDSX6QsNM8q7UHPK88IHtvci1m_wr9IXxNsSPvce0fKPt53ljMtH3PWo_SfQGgygHLuACBYLSX5RyMI663MQJ7vfspn6fvFJ17xsPFwSRrSl2U8BM_Ql67zBu4wZNtj3ETeAYNBKeKqfyqKcHH1BuH46uxMKPMJeoqkUgglooLoIcFAgl3I4xIhsFYRUqvVJkpgzxyKAYSp6RrUbG_gVmq-fxxzNmco5J-aKbMKa1nHN7K-OT1uxaRaVGHejdNM1bCAPasZsmyNmqW_7InpZGJyaZeA64cknqU4mADGW7Vg8dmzcwUFo341RsoRpHlXi36uGdG2y8c4c1EMO8GoFRJRYjL5-iNPTrietkCSybeY9nO7B-UgY67gIKI_m5MOYI4VdoiKTqVTxa1q3P5TG14_ySGMct_dMs01x390C4kqV6fe7dk5pjZnlapYlSQlmk2OsVC1ivWiwxnPYDnPdMw5ZzgC2Twt-lsL1NgDD0MLyn_07Rml-xFR5a_dkmkZHy5z6GY1ONjOq5t2ysI85Qcmd4VFe1ocYeCKRNoQKbLphaqRMK43BcpPQMrapuZ3JRoLCwv7JcFgujx34bX1voZzQKX9utchQBF3lt__m5bK-Td8dzfvlg0k_gMkQI7fVmV3k-iFnswJuU5Syp3xUp1xo4MLjZ5RFUF82x6osQrJVahGqMuT53u5bMRmbDmau6lWnwyS-mgy0?></g></svg>