<svg xmlns="http://www.w3.org/2000/svg" xmlns:xlink="http://www.w3.org/1999/xlink" contentStyleType="text/css" data-diagram-type="SEQUENCE" height="1029px" preserveAspectRatio="none" style="width:1503px;height:1029px;background:#FFFFFF;" version="1.1" viewBox="0 0 1503 1029" width="1503px" zoomAndPan="magnify"><?plantuml 1.2026.3?><defs/><g><g class="title" data-source-line="6"><text fill="#000000" font-family="sans-serif" font-size="14" font-weight="700" lengthAdjust="spacing" textLength="525.9707" x="485.0244" y="28.5352">mdd view &#8212; surface .mdd/deploy diagrams via a third source (objective)</text></g><rect fill="none" height="75.9316" style="stroke:#000000;stroke-width:1.5;" width="489.0557" x="237.7734" y="194.5977"/><rect fill="none" height="332.0371" style="stroke:#000000;stroke-width:1.5;" width="1029.4209" x="237.7734" y="284.5293"/><g class="participant-lifeline" data-entity-uid="part1" data-qualified-name="Dev" data-source-line="8" id="part1-lifeline"><g><title>Developer</title><rect fill="#000000" fill-opacity="0.00000" height="828.3164" width="8" x="38.1592" y="118.9766"/><line style="stroke:#181818;stroke-width:0.5;stroke-dasharray:5,5;" x1="42" x2="42" y1="118.9766" y2="947.293"/></g></g><g class="participant-lifeline" data-entity-uid="part2" data-qualified-name="Cli" data-source-line="9" id="part2-lifeline"><g><title>mdd-cli</title><rect fill="#000000" fill-opacity="0.00000" height="828.3164" width="8" x="151.0391" y="118.9766"/><line style="stroke:#181818;stroke-width:0.5;stroke-dasharray:5,5;" x1="154.3184" x2="154.3184" y1="118.9766" y2="947.293"/></g></g><g class="participant-lifeline" data-entity-uid="part3" data-qualified-name="Viewer" data-source-line="10" id="part3-lifeline"><g><title>MddViewer..new..</title><rect fill="#000000" fill-opacity="0.00000" height="828.3164" width="8" x="310.8921" y="118.9766"/><line style="stroke:#181818;stroke-width:0.5;stroke-dasharray:5,5;" x1="314.7734" x2="314.7734" y1="118.9766" y2="947.293"/></g></g><g class="participant-lifeline" data-entity-uid="part4" data-qualified-name="Core" data-source-line="11" id="part4-lifeline"><g><title>Project</title><rect fill="#000000" fill-opacity="0.00000" height="828.3164" width="8" x="667.23" y="118.9766"/><line style="stroke:#181818;stroke-width:0.5;stroke-dasharray:5,5;" x1="670.6309" x2="670.6309" y1="118.9766" y2="947.293"/></g></g><g class="participant-lifeline" data-entity-uid="part5" data-qualified-name="RT" data-source-line="12" id="part5-lifeline"><g><title>RenderTree..Deploy</title><rect fill="#000000" fill-opacity="0.00000" height="828.3164" width="8" x="920.3105" y="118.9766"/><line style="stroke:#181818;stroke-width:0.5;stroke-dasharray:5,5;" x1="923.4209" x2="923.4209" y1="118.9766" y2="947.293"/></g></g><g class="participant-lifeline" data-entity-uid="part6" data-qualified-name="Deploy" data-source-line="13" id="part6-lifeline"><g><title>.mdd.deploy......puml</title><rect fill="#000000" fill-opacity="0.00000" height="828.3164" width="8" x="1169.2842" y="118.9766"/><line style="stroke:#181818;stroke-width:0.5;stroke-dasharray:5,5;" x1="1172.374" x2="1172.374" y1="118.9766" y2="947.293"/></g></g><g class="participant-lifeline" data-entity-uid="part7" data-qualified-name="Rendered" data-source-line="14" id="part7-lifeline"><g><title>.mdd.rendered.deploy......svg</title><rect fill="#000000" fill-opacity="0.00000" height="828.3164" width="8" x="1375.6069" y="118.9766"/><line style="stroke:#181818;stroke-width:0.5;stroke-dasharray:5,5;" x1="1379.1943" x2="1379.1943" y1="118.9766" y2="947.293"/></g></g><g class="participant participant-head" data-entity-uid="part1" data-qualified-name="Dev" data-source-line="8" id="part1-head"><text fill="#000000" font-family="sans-serif" font-size="14" lengthAdjust="spacing" textLength="68.3184" x="5" y="116.0234">Developer</text><ellipse cx="42.1592" cy="50.9883" fill="#E2E2F0" rx="8" ry="8" style="stroke:#181818;stroke-width:0.5;"/><path d="M42.1592,58.9883 L42.1592,85.9883 M29.1592,66.9883 L55.1592,66.9883 M42.1592,85.9883 L29.1592,100.9883 M42.1592,85.9883 L55.1592,100.9883" fill="none" style="stroke:#181818;stroke-width:0.5;"/></g><g class="participant participant-tail" data-entity-uid="part1" data-qualified-name="Dev" data-source-line="8" id="part1-tail"><text fill="#000000" font-family="sans-serif" font-size="14" lengthAdjust="spacing" textLength="68.3184" x="5" y="959.8281">Developer</text><ellipse cx="42.1592" cy="971.2813" fill="#E2E2F0" rx="8" ry="8" style="stroke:#181818;stroke-width:0.5;"/><path d="M42.1592,979.2813 L42.1592,1006.2813 M29.1592,987.2813 L55.1592,987.2813 M42.1592,1006.2813 L29.1592,1021.2813 M42.1592,1006.2813 L55.1592,1021.2813" fill="none" style="stroke:#181818;stroke-width:0.5;"/></g><g class="participant participant-head" data-entity-uid="part2" data-qualified-name="Cli" data-source-line="9" id="part2-head"><rect fill="#E2E2F0" height="46.9766" rx="2.5" ry="2.5" style="stroke:#181818;stroke-width:0.5;" width="131.4414" x="89.3184" y="71"/><text fill="#000000" font-family="sans-serif" font-size="14" lengthAdjust="spacing" textLength="54.0586" x="128.0098" y="91.5352">mdd-cli</text><text fill="#000000" font-family="sans-serif" font-size="14" lengthAdjust="spacing" textLength="117.4414" x="96.3184" y="108.0234">Commands::View</text></g><g class="participant participant-tail" data-entity-uid="part2" data-qualified-name="Cli" data-source-line="9" id="part2-tail"><rect fill="#E2E2F0" height="46.9766" rx="2.5" ry="2.5" style="stroke:#181818;stroke-width:0.5;" width="131.4414" x="89.3184" y="946.293"/><text fill="#000000" font-family="sans-serif" font-size="14" lengthAdjust="spacing" textLength="54.0586" x="128.0098" y="966.8281">mdd-cli</text><text fill="#000000" font-family="sans-serif" font-size="14" lengthAdjust="spacing" textLength="117.4414" x="96.3184" y="983.3164">Commands::View</text></g><g class="participant participant-head" data-entity-uid="part3" data-qualified-name="Viewer" data-source-line="10" id="part3-head"><rect fill="#E2E2F0" height="30.4883" rx="2.5" ry="2.5" style="stroke:#181818;stroke-width:0.5;" width="134.2373" x="247.7734" y="87.4883"/><text fill="#000000" font-family="sans-serif" font-size="14" lengthAdjust="spacing" textLength="120.2373" x="254.7734" y="108.0234">MddViewer::new()</text></g><g class="participant participant-tail" data-entity-uid="part3" data-qualified-name="Viewer" data-source-line="10" id="part3-tail"><rect fill="#E2E2F0" height="30.4883" rx="2.5" ry="2.5" style="stroke:#181818;stroke-width:0.5;" width="134.2373" x="247.7734" y="946.293"/><text fill="#000000" font-family="sans-serif" font-size="14" lengthAdjust="spacing" textLength="120.2373" x="254.7734" y="966.8281">MddViewer::new()</text></g><g class="participant participant-head" data-entity-uid="part4" data-qualified-name="Core" data-source-line="11" id="part4-head"><rect fill="#E2E2F0" height="46.9766" rx="2.5" ry="2.5" style="stroke:#181818;stroke-width:0.5;" width="91.1982" x="625.6309" y="71"/><text fill="#000000" font-family="sans-serif" font-size="14" lengthAdjust="spacing" textLength="46.5322" x="647.9639" y="91.5352">Project</text><text fill="#000000" font-family="sans-serif" font-size="14" lengthAdjust="spacing" textLength="77.1982" x="632.6309" y="108.0234">(mdd-core)</text></g><g class="participant participant-tail" data-entity-uid="part4" data-qualified-name="Core" data-source-line="11" id="part4-tail"><rect fill="#E2E2F0" height="46.9766" rx="2.5" ry="2.5" style="stroke:#181818;stroke-width:0.5;" width="91.1982" x="625.6309" y="946.293"/><text fill="#000000" font-family="sans-serif" font-size="14" lengthAdjust="spacing" textLength="46.5322" x="647.9639" y="966.8281">Project</text><text fill="#000000" font-family="sans-serif" font-size="14" lengthAdjust="spacing" textLength="77.1982" x="632.6309" y="983.3164">(mdd-core)</text></g><g class="participant participant-head" data-entity-uid="part5" data-qualified-name="RT" data-source-line="12" id="part5-head"><rect fill="#E2E2F0" height="46.9766" rx="2.5" ry="2.5" style="stroke:#181818;stroke-width:0.5;" width="147.7793" x="850.4209" y="71"/><text fill="#000000" font-family="sans-serif" font-size="14" lengthAdjust="spacing" textLength="133.7793" x="857.4209" y="91.5352">RenderTree::Deploy</text><text fill="#000000" font-family="sans-serif" font-size="14" lengthAdjust="spacing" textLength="112.9229" x="867.8491" y="108.0234">render_sources()</text></g><g class="participant participant-tail" data-entity-uid="part5" data-qualified-name="RT" data-source-line="12" id="part5-tail"><rect fill="#E2E2F0" height="46.9766" rx="2.5" ry="2.5" style="stroke:#181818;stroke-width:0.5;" width="147.7793" x="850.4209" y="946.293"/><text fill="#000000" font-family="sans-serif" font-size="14" lengthAdjust="spacing" textLength="133.7793" x="857.4209" y="966.8281">RenderTree::Deploy</text><text fill="#000000" font-family="sans-serif" font-size="14" lengthAdjust="spacing" textLength="112.9229" x="867.8491" y="983.3164">render_sources()</text></g><g class="participant participant-head" data-entity-uid="part6" data-qualified-name="Deploy" data-source-line="13" id="part6-head"><text fill="#000000" font-family="sans-serif" font-size="14" lengthAdjust="spacing" textLength="161.8203" x="1089.374" y="116.0234">.mdd/deploy/**/*.puml</text><path d="M1155.2842,66.4883 C1155.2842,56.4883 1173.2842,56.4883 1173.2842,56.4883 C1173.2842,56.4883 1191.2842,56.4883 1191.2842,66.4883 L1191.2842,92.4883 C1191.2842,102.4883 1173.2842,102.4883 1173.2842,102.4883 C1173.2842,102.4883 1155.2842,102.4883 1155.2842,92.4883 L1155.2842,66.4883" fill="#E2E2F0" style="stroke:#181818;stroke-width:0.5;"/><path d="M1155.2842,66.4883 C1155.2842,76.4883 1173.2842,76.4883 1173.2842,76.4883 C1173.2842,76.4883 1191.2842,76.4883 1191.2842,66.4883" fill="none" style="stroke:#181818;stroke-width:0.5;"/></g><g class="participant participant-tail" data-entity-uid="part6" data-qualified-name="Deploy" data-source-line="13" id="part6-tail"><text fill="#000000" font-family="sans-serif" font-size="14" lengthAdjust="spacing" textLength="161.8203" x="1089.374" y="959.8281">.mdd/deploy/**/*.puml</text><path d="M1155.2842,972.7813 C1155.2842,962.7813 1173.2842,962.7813 1173.2842,962.7813 C1173.2842,962.7813 1191.2842,962.7813 1191.2842,972.7813 L1191.2842,998.7813 C1191.2842,1008.7813 1173.2842,1008.7813 1173.2842,1008.7813 C1173.2842,1008.7813 1155.2842,1008.7813 1155.2842,998.7813 L1155.2842,972.7813" fill="#E2E2F0" style="stroke:#181818;stroke-width:0.5;"/><path d="M1155.2842,972.7813 C1155.2842,982.7813 1173.2842,982.7813 1173.2842,982.7813 C1173.2842,982.7813 1191.2842,982.7813 1191.2842,972.7813" fill="none" style="stroke:#181818;stroke-width:0.5;"/></g><g class="participant participant-head" data-entity-uid="part7" data-qualified-name="Rendered" data-source-line="14" id="part7-head"><text fill="#000000" font-family="sans-serif" font-size="14" lengthAdjust="spacing" textLength="218.8252" x="1267.1943" y="116.0234">.mdd/rendered/deploy/**/*.svg</text><path d="M1361.6069,66.4883 C1361.6069,56.4883 1379.6069,56.4883 1379.6069,56.4883 C1379.6069,56.4883 1397.6069,56.4883 1397.6069,66.4883 L1397.6069,92.4883 C1397.6069,102.4883 1379.6069,102.4883 1379.6069,102.4883 C1379.6069,102.4883 1361.6069,102.4883 1361.6069,92.4883 L1361.6069,66.4883" fill="#E2E2F0" style="stroke:#181818;stroke-width:0.5;"/><path d="M1361.6069,66.4883 C1361.6069,76.4883 1379.6069,76.4883 1379.6069,76.4883 C1379.6069,76.4883 1397.6069,76.4883 1397.6069,66.4883" fill="none" style="stroke:#181818;stroke-width:0.5;"/></g><g class="participant participant-tail" data-entity-uid="part7" data-qualified-name="Rendered" data-source-line="14" id="part7-tail"><text fill="#000000" font-family="sans-serif" font-size="14" lengthAdjust="spacing" textLength="218.8252" x="1267.1943" y="959.8281">.mdd/rendered/deploy/**/*.svg</text><path d="M1361.6069,972.7813 C1361.6069,962.7813 1379.6069,962.7813 1379.6069,962.7813 C1379.6069,962.7813 1397.6069,962.7813 1397.6069,972.7813 L1397.6069,998.7813 C1397.6069,1008.7813 1379.6069,1008.7813 1379.6069,1008.7813 C1379.6069,1008.7813 1361.6069,1008.7813 1361.6069,998.7813 L1361.6069,972.7813" fill="#E2E2F0" style="stroke:#181818;stroke-width:0.5;"/><path d="M1361.6069,972.7813 C1361.6069,982.7813 1379.6069,982.7813 1379.6069,982.7813 C1379.6069,982.7813 1397.6069,982.7813 1397.6069,972.7813" fill="none" style="stroke:#181818;stroke-width:0.5;"/></g><g class="message" data-entity-1="part1" data-entity-2="part2" data-source-line="16" id="msg1"><polygon fill="#181818" points="143.0391,146.2871,153.0391,150.2871,143.0391,154.2871,147.0391,150.2871" style="stroke:#181818;stroke-width:1;"/><line style="stroke:#181818;stroke-width:1;" x1="42.1592" x2="149.0391" y1="150.2871" y2="150.2871"/><text fill="#000000" font-family="sans-serif" font-size="13" lengthAdjust="spacing" textLength="60.3599" x="49.1592" y="145.5449">mdd view</text></g><g class="message" data-entity-1="part2" data-entity-2="part3" data-source-line="17" id="msg2"><polygon fill="#181818" points="302.8921,175.5977,312.8921,179.5977,302.8921,183.5977,306.8921,179.5977" style="stroke:#181818;stroke-width:1;"/><line style="stroke:#181818;stroke-width:1;" x1="155.0391" x2="308.8921" y1="179.5977" y2="179.5977"/><text fill="#000000" font-family="sans-serif" font-size="13" lengthAdjust="spacing" textLength="74.1152" x="162.0391" y="174.8555">run(project)</text></g><path d="M237.7734,194.5977 L544.519,194.5977 L544.519,201.9082 L534.519,211.9082 L237.7734,211.9082 L237.7734,194.5977" fill="#EEEEEE" style="stroke:#000000;stroke-width:1.5;"/><rect fill="none" height="75.9316" style="stroke:#000000;stroke-width:1.5;" width="489.0557" x="237.7734" y="194.5977"/><text fill="#000000" font-family="sans-serif" font-size="13" font-weight="700" lengthAdjust="spacing" textLength="261.7456" x="252.7734" y="208.166">Two parity-gated sources (unchanged)</text><g class="message" data-entity-1="part3" data-entity-2="part4" data-source-line="20" id="msg3"><polygon fill="#181818" points="659.23,229.2188,669.23,233.2188,659.23,237.2188,663.23,233.2188" style="stroke:#181818;stroke-width:1;"/><line style="stroke:#181818;stroke-width:1;" x1="314.8921" x2="665.23" y1="233.2188" y2="233.2188"/><text fill="#000000" font-family="sans-serif" font-size="13" lengthAdjust="spacing" textLength="332.3379" x="321.8921" y="228.4766">model_registry()  (.mdd/models + .mdd/constraints)</text></g><g class="message" data-entity-1="part3" data-entity-2="part4" data-source-line="21" id="msg4"><polygon fill="#181818" points="659.23,258.5293,669.23,262.5293,659.23,266.5293,663.23,262.5293" style="stroke:#181818;stroke-width:1;"/><line style="stroke:#181818;stroke-width:1;" x1="314.8921" x2="665.23" y1="262.5293" y2="262.5293"/><text fill="#000000" font-family="sans-serif" font-size="13" lengthAdjust="spacing" textLength="187.9414" x="321.8921" y="257.7871">cycle_registry()  (.mdd/cycles)</text></g><path d="M237.7734,284.5293 L563.251,284.5293 L563.251,291.8398 L553.251,301.8398 L237.7734,301.8398 L237.7734,284.5293" fill="#EEEEEE" style="stroke:#000000;stroke-width:1.5;"/><rect fill="none" height="332.0371" style="stroke:#000000;stroke-width:1.5;" width="1029.4209" x="237.7734" y="284.5293"/><text fill="#000000" font-family="sans-serif" font-size="13" font-weight="700" lengthAdjust="spacing" textLength="280.4775" x="252.7734" y="298.0977">Third source &#8212; DEPLOY (new, NOT gated)</text><g class="message" data-entity-1="part3" data-entity-2="part4" data-source-line="25" id="msg5"><polygon fill="#181818" points="659.23,319.1504,669.23,323.1504,659.23,327.1504,663.23,323.1504" style="stroke:#181818;stroke-width:1;"/><line style="stroke:#181818;stroke-width:1;" x1="314.8921" x2="665.23" y1="323.1504" y2="323.1504"/><text fill="#000000" font-family="sans-serif" font-size="13" lengthAdjust="spacing" textLength="83.2622" x="321.8921" y="318.4082">deploy_files()</text></g><g class="message" data-entity-1="part4" data-entity-2="part5" data-source-line="26" id="msg6"><polygon fill="#181818" points="912.3105,348.4609,922.3105,352.4609,912.3105,356.4609,916.3105,352.4609" style="stroke:#181818;stroke-width:1;"/><line style="stroke:#181818;stroke-width:1;" x1="671.23" x2="918.3105" y1="352.4609" y2="352.4609"/><text fill="#000000" font-family="sans-serif" font-size="13" lengthAdjust="spacing" textLength="229.0806" x="678.23" y="347.7188">render_sources(RenderTree::Deploy)</text></g><g class="message" data-entity-1="part5" data-entity-2="part6" data-source-line="27" id="msg7"><polygon fill="#181818" points="1161.2842,377.7715,1171.2842,381.7715,1161.2842,385.7715,1165.2842,381.7715" style="stroke:#181818;stroke-width:1;"/><line style="stroke:#181818;stroke-width:1;" x1="924.3105" x2="1167.2842" y1="381.7715" y2="381.7715"/><text fill="#000000" font-family="sans-serif" font-size="13" lengthAdjust="spacing" textLength="224.9736" x="931.3105" y="377.0293">walk_suffix(".mdd/deploy", ".puml")</text></g><g class="message" data-entity-1="part6" data-entity-2="part5" data-source-line="28" id="msg8"><polygon fill="#181818" points="935.3105,407.082,925.3105,411.082,935.3105,415.082,931.3105,411.082" style="stroke:#181818;stroke-width:1;"/><line style="stroke:#181818;stroke-width:1;stroke-dasharray:2,2;" x1="929.3105" x2="1172.2842" y1="411.082" y2="411.082"/><text fill="#000000" font-family="sans-serif" font-size="13" lengthAdjust="spacing" textLength="113.0264" x="941.3105" y="406.3398">[diagram.puml ...]</text></g><g class="message" data-entity-1="part5" data-entity-2="part4" data-source-line="29" id="msg9"><polygon fill="#181818" points="682.23,436.3926,672.23,440.3926,682.23,444.3926,678.23,440.3926" style="stroke:#181818;stroke-width:1;"/><line style="stroke:#181818;stroke-width:1;stroke-dasharray:2,2;" x1="676.23" x2="923.3105" y1="440.3926" y2="440.3926"/><text fill="#000000" font-family="sans-serif" font-size="13" lengthAdjust="spacing" textLength="48.5278" x="688.23" y="435.6504">sources</text></g><g class="message" data-entity-1="part4" data-entity-2="part4" data-source-line="30" id="msg10"><line style="stroke:#181818;stroke-width:1;" x1="671.23" x2="713.23" y1="485.0137" y2="485.0137"/><line style="stroke:#181818;stroke-width:1;" x1="713.23" x2="713.23" y1="485.0137" y2="498.0137"/><line style="stroke:#181818;stroke-width:1;" x1="672.23" x2="713.23" y1="498.0137" y2="498.0137"/><polygon fill="#181818" points="682.23,494.0137,672.23,498.0137,682.23,502.0137,678.23,498.0137" style="stroke:#181818;stroke-width:1;"/><text fill="#000000" font-family="sans-serif" font-size="13" lengthAdjust="spacing" textLength="149.9951" x="678.23" y="464.9609">rendered_pages_for(rel)</text><text fill="#000000" font-family="sans-serif" font-size="13" lengthAdjust="spacing" textLength="199.3799" x="678.23" y="480.2715">-&gt; ModelFile{ rendered_pages }</text></g><path d="M676,511.0137 L676,582.0137 L942,582.0137 L942,521.0137 L932,511.0137 L676,511.0137" fill="#FEFFDD" style="stroke:#181818;stroke-width:0.5;"/><path d="M932,511.0137 L932,521.0137 L942,521.0137 L932,511.0137" fill="#FEFFDD" style="stroke:#181818;stroke-width:0.5;"/><text fill="#000000" font-family="sans-serif" font-size="13" lengthAdjust="spacing" textLength="222.2188" x="682" y="528.582">Returned as plain ModelFile values.</text><text fill="#000000" font-family="sans-serif" font-size="13" lengthAdjust="spacing" textLength="223.4375" x="682" y="543.8926">NOT pushed into ModelRegistry, so</text><text fill="#000000" font-family="sans-serif" font-size="13" lengthAdjust="spacing" textLength="245.248" x="682" y="559.2031">/mdd-validate and /mdd-review never</text><text fill="#000000" font-family="sans-serif" font-size="13" lengthAdjust="spacing" textLength="221.7871" x="682" y="574.5137">see them &#8212; parity gate untouched.</text><g class="message" data-entity-1="part4" data-entity-2="part3" data-source-line="37" id="msg11"><polygon fill="#181818" points="325.8921,604.5664,315.8921,608.5664,325.8921,612.5664,321.8921,608.5664" style="stroke:#181818;stroke-width:1;"/><line style="stroke:#181818;stroke-width:1;stroke-dasharray:2,2;" x1="319.8921" x2="670.23" y1="608.5664" y2="608.5664"/><text fill="#000000" font-family="sans-serif" font-size="13" lengthAdjust="spacing" textLength="157.8726" x="331.8921" y="603.8242">Vec&lt;ModelFile&gt; (deploy)</text></g><g class="message" data-entity-1="part3" data-entity-2="part3" data-source-line="40" id="msg12"><line style="stroke:#181818;stroke-width:1;" x1="314.8921" x2="356.8921" y1="675.498" y2="675.498"/><line style="stroke:#181818;stroke-width:1;" x1="356.8921" x2="356.8921" y1="675.498" y2="688.498"/><line style="stroke:#181818;stroke-width:1;" x1="315.8921" x2="356.8921" y1="688.498" y2="688.498"/><polygon fill="#181818" points="325.8921,684.498,315.8921,688.498,325.8921,692.498,321.8921,688.498" style="stroke:#181818;stroke-width:1;"/><text fill="#000000" font-family="sans-serif" font-size="13" lengthAdjust="spacing" textLength="151.8105" x="321.8921" y="640.1348">TreeNode::build(deploy)</text><text fill="#000000" font-family="sans-serif" font-size="13" lengthAdjust="spacing" textLength="264.9385" x="321.8921" y="655.4453">render "DEPLOY &#183; utility, not parity-gated"</text><text fill="#000000" font-family="sans-serif" font-size="13" lengthAdjust="spacing" textLength="216.3853" x="321.8921" y="670.7559">(shown in Directory AND By-cycle)</text></g><g class="message" data-entity-1="part1" data-entity-2="part3" data-source-line="41" id="msg13"><polygon fill="#181818" points="302.8921,713.8086,312.8921,717.8086,302.8921,721.8086,306.8921,717.8086" style="stroke:#181818;stroke-width:1;"/><line style="stroke:#181818;stroke-width:1;" x1="42.1592" x2="308.8921" y1="717.8086" y2="717.8086"/><text fill="#000000" font-family="sans-serif" font-size="13" lengthAdjust="spacing" textLength="101.7593" x="49.1592" y="713.0664">click deploy leaf</text></g><g class="message" data-entity-1="part3" data-entity-2="part3" data-source-line="42" id="msg14"><line style="stroke:#181818;stroke-width:1;" x1="314.8921" x2="356.8921" y1="747.1191" y2="747.1191"/><line style="stroke:#181818;stroke-width:1;" x1="356.8921" x2="356.8921" y1="747.1191" y2="760.1191"/><line style="stroke:#181818;stroke-width:1;" x1="315.8921" x2="356.8921" y1="760.1191" y2="760.1191"/><polygon fill="#181818" points="325.8921,756.1191,315.8921,760.1191,325.8921,764.1191,321.8921,760.1191" style="stroke:#181818;stroke-width:1;"/><text fill="#000000" font-family="sans-serif" font-size="13" lengthAdjust="spacing" textLength="180.6162" x="321.8921" y="742.377">load_file(file)  (existing path)</text></g><g class="message" data-entity-1="part3" data-entity-2="part7" data-source-line="43" id="msg15"><polygon fill="#181818" points="1367.6069,785.4297,1377.6069,789.4297,1367.6069,793.4297,1371.6069,789.4297" style="stroke:#181818;stroke-width:1;"/><line style="stroke:#181818;stroke-width:1;" x1="314.8921" x2="1373.6069" y1="789.4297" y2="789.4297"/><text fill="#000000" font-family="sans-serif" font-size="13" lengthAdjust="spacing" textLength="246.6064" x="321.8921" y="784.6875">read .mdd/rendered/deploy/&lt;rel&gt;.svg</text></g><g class="message" data-entity-1="part7" data-entity-2="part3" data-source-line="44" id="msg16"><polygon fill="#181818" points="325.8921,814.7402,315.8921,818.7402,325.8921,822.7402,321.8921,818.7402" style="stroke:#181818;stroke-width:1;"/><line style="stroke:#181818;stroke-width:1;stroke-dasharray:2,2;" x1="319.8921" x2="1378.6069" y1="818.7402" y2="818.7402"/><text fill="#000000" font-family="sans-serif" font-size="13" lengthAdjust="spacing" textLength="62.7148" x="331.8921" y="813.998">SVG bytes</text></g><g class="message" data-entity-1="part3" data-entity-2="part1" data-source-line="45" id="msg17"><polygon fill="#181818" points="53.1592,844.0508,43.1592,848.0508,53.1592,852.0508,49.1592,848.0508" style="stroke:#181818;stroke-width:1;"/><line style="stroke:#181818;stroke-width:1;stroke-dasharray:2,2;" x1="47.1592" x2="313.8921" y1="848.0508" y2="848.0508"/><text fill="#000000" font-family="sans-serif" font-size="13" lengthAdjust="spacing" textLength="248.7329" x="59.1592" y="843.3086">deployment diagram painted on canvas</text></g><path d="M1077,861.0508 L1077,932.0508 L1474,932.0508 L1474,871.0508 L1464,861.0508 L1077,861.0508" fill="#FEFFDD" style="stroke:#181818;stroke-width:0.5;"/><path d="M1464,861.0508 L1464,871.0508 L1474,871.0508 L1464,861.0508" fill="#FEFFDD" style="stroke:#181818;stroke-width:0.5;"/><text fill="#000000" font-family="sans-serif" font-size="13" lengthAdjust="spacing" textLength="305.7856" x="1098.7078" y="878.6191">If the .svg mirror is absent the canvas shows the</text><text fill="#000000" font-family="sans-serif" font-size="13" lengthAdjust="spacing" textLength="345.23" x="1098.7078" y="893.9297">same "not rendered &#8212; run mdd render" placeholder as</text><text fill="#000000" font-family="sans-serif" font-size="13" lengthAdjust="spacing" textLength="327.2534" x="1098.7078" y="909.2402">any unrendered model. The viewer never rasterizes;</text><text fill="#000000" font-family="sans-serif" font-size="13" lengthAdjust="spacing" textLength="316.8496" x="1098.7078" y="924.5508">`mdd render` already covers RenderTree::Deploy.</text><?plantuml-src XLR1Sjis4BtpAtPq2UMAr9tDU19RQkAPM79anPbCtP4XOYMXXW0L0AMedSxq8_ellVTJ-YLT02GjAUhK1ui4TXUBjs_VyXMy4Joz7txC7cw6dxF1yEx3-4itUGLl32xIJ_V3i-k3yMqs6Ou6mqas7Bsx6Gt33aTRdeRgGMSy_nbB9xO82wbtiD06R6KMh1Hg2VcQypx7ZTHxu88j3LjR40gUQ1ss0dTFETno_a1FQ8f2uIxjmf89PO61Mmd3oNg9rWcje6HIzc1Zj3ymZr5d2o7HfjqUpD4AZh3M7ENCu59OP_OKZIaEvRwKUB2Omx4t6AmiMlfH7CtCwigKj3u9hrE3M1I3uD25rAqGB2KbwIVOWLw0CvLRXRlxxVh2ZXpXdp_-XF7rXmRFwMGupExUJcwcNs9g6oQC1MJbwX2i_iL5_oBVL6i9Eq6HXMkIGpxRC49aHeTHulSFxs0jZD6cHmQkCih3lf448TnwA7wW6yAMoOgkz_bc-dxyQKgGMZJE6rAsQtfrEXfFQeHocD8rjg4gCA-4vBuU5ZVCC8VW4HcHVRX0J8kgwg3oJsJ8AOXGfUl5HEG-asoEKYA7I1iALOQIKfPNu-bxC4p8K3hxFUr9lqlPCP385arnFBBuDOHUWjICX-hr1v5MTmGAWKbOqMK8LEKYdWrgHy3QxJA7AomP1Gvn0mz0uPRoDw4OHtZqu2wohYWCUbZIRfym5PpGe2AakvKW5tBat_2l2y-86n1BfSr9H_JpZc-ije6oG62BlrIeIYngAd5HqYcy1qghZ0eWt3vR-fKMoy32F772KQcRnWh4Yus8vzjmArZRP3MJKztaqaqILZhYSsT0e4YzGTC1Pe7U4ah2YL9i667SeSXPASMZkjRhDV715eNlvc1yBSMnyMch1wkuScnOm_seqX1V6uosr_HqRFbjZpwgapQEhfDfGkLYSqObxvnjjVg2Vl7KzBzO52FNcqb2w41swUyDHLk9nB_IQhmdRPXAfRMA4SnBewiDJ7UUjGV5hPE7j5BbYf46ycu2JGn_1Y7X3pcLEqX3mc7TmdUnzALMjEsRmfwDSggFJPImJYvqmJRHGxvuZjKiJAcWFHYDfn3oFtlCiUYIHLYd_SdKm_A_uaiUP4dsyPryTam-psorM8YlwM5HEpIOOaszKssUDIVzMFT05DWypt-g8x-aMcTna6EzSKQ53ShkeoAJLd1_Ep63tocGqYITHYnNpa-Cm6IWlqbGRQeuCUcyRkV1paExgUmA-Hd1xb72mQhl-wMHfg3FOIMgLXIuO6SHe_Zx4aRYXSAHXZjTbNIAFvKk4T9kOJYayGEMhzjKBo7bTP42MLvgtzetKwCemaHfx9js9QM9JFhxBwYSa9IHrpntr1OTKWIxqhimEGR2eDUeFRmT3U1gdmMwTfikR0ycUIgVcw7i9ygvxDg1alf_lWFQMUEdIlV0f-dtm0QI_BCAyPfOSUab8cdDZz3pWtk-TqIn9d3WzRPjapMIlDL4ZGEDGeIl8BLbDaa2dRGVM97UlHST0hXPXEdXpwy_3q3G29zR7zJln2ZWiGoJbNmiMvFSUSIRkmHoa5e5AOkB7S_H4bTQXb7l6uIfFR6czGdAS_G1KOzLPXqQyIkDU79wUWdv14nw7FTG-kiqUdhO-NdICF5V?></g></svg>