<svg xmlns="http://www.w3.org/2000/svg" xmlns:xlink="http://www.w3.org/1999/xlink" contentStyleType="text/css" data-diagram-type="SEQUENCE" height="951px" preserveAspectRatio="none" style="width:1075px;height:951px;background:#FFFFFF;" version="1.1" viewBox="0 0 1075 951" width="1075px" zoomAndPan="magnify"><?plantuml 1.2026.3?><defs/><g><g class="title" data-source-line="10"><text fill="#000000" font-family="sans-serif" font-size="14" font-weight="700" lengthAdjust="spacing" textLength="444.7666" x="311.7471" y="28.5352">Accumulate the whole-map baseline at cycle close (objective)</text></g><rect fill="none" height="232.75" style="stroke:#000000;stroke-width:1.5;" width="951.1538" x="100" y="310.127"/><rect fill="none" height="201.4395" style="stroke:#000000;stroke-width:1.5;" width="931.1538" x="110" y="334.4375"/><rect fill="none" height="46.6211" style="stroke:#000000;stroke-width:1.5;" width="772.439" x="110" y="556.877"/><g class="participant-lifeline" data-entity-uid="part1" data-qualified-name="Close" data-source-line="12" id="part1-lifeline"><g><title>.mdd-cycle</title><rect fill="#000000" fill-opacity="0.00000" height="711.6504" width="8" x="162.8945" y="137.9531"/><line style="stroke:#181818;stroke-width:0.5;stroke-dasharray:5,5;" x1="166" x2="166" y1="137.9531" y2="849.6035"/></g></g><g class="participant-lifeline" data-entity-uid="part2" data-qualified-name="Snap" data-source-line="13" id="part2-lifeline"><g><title>.mdd.cycles..N..</title><rect fill="#000000" fill-opacity="0.00000" height="711.6504" width="8" x="485.4185" y="137.9531"/><line style="stroke:#181818;stroke-width:0.5;stroke-dasharray:5,5;" x1="489.2241" x2="489.2241" y1="137.9531" y2="849.6035"/></g></g><g class="participant-lifeline" data-entity-uid="part3" data-qualified-name="Diff" data-source-line="14" id="part3-lifeline"><g><title>CycleDiff per</title><rect fill="#000000" fill-opacity="0.00000" height="711.6504" width="8" x="629.064" y="137.9531"/><line style="stroke:#181818;stroke-width:0.5;stroke-dasharray:5,5;" x1="632.6128" x2="632.6128" y1="137.9531" y2="849.6035"/></g></g><g class="participant-lifeline" data-entity-uid="part4" data-qualified-name="Map" data-source-line="15" id="part4-lifeline"><g><title>.mdd.map.</title><rect fill="#000000" fill-opacity="0.00000" height="711.6504" width="8" x="786.4771" y="137.9531"/><line style="stroke:#181818;stroke-width:0.5;stroke-dasharray:5,5;" x1="789.5151" x2="789.5151" y1="137.9531" y2="849.6035"/></g></g><g class="participant-lifeline" data-entity-uid="part5" data-qualified-name="Render" data-source-line="16" id="part5-lifeline"><g><title>.mdd-render</title><rect fill="#000000" fill-opacity="0.00000" height="711.6504" width="8" x="1007.9146" y="137.9531"/><line style="stroke:#181818;stroke-width:0.5;stroke-dasharray:5,5;" x1="1011.5684" x2="1011.5684" y1="137.9531" y2="849.6035"/></g></g><g class="participant participant-head" data-entity-uid="part1" data-qualified-name="Close" data-source-line="12" id="part1-head"><rect fill="#E2E2F0" height="46.9766" rx="2.5" ry="2.5" style="stroke:#181818;stroke-width:0.5;" width="93.7891" x="120" y="89.9766"/><text fill="#000000" font-family="sans-serif" font-size="14" lengthAdjust="spacing" textLength="79.6387" x="127.0752" y="110.5117">/mdd-cycle</text><text fill="#000000" font-family="sans-serif" font-size="14" lengthAdjust="spacing" textLength="79.7891" x="127" y="127">(Close step)</text></g><g class="participant participant-tail" data-entity-uid="part1" data-qualified-name="Close" data-source-line="12" id="part1-tail"><rect fill="#E2E2F0" height="46.9766" rx="2.5" ry="2.5" style="stroke:#181818;stroke-width:0.5;" width="93.7891" x="120" y="848.6035"/><text fill="#000000" font-family="sans-serif" font-size="14" lengthAdjust="spacing" textLength="79.6387" x="127.0752" y="869.1387">/mdd-cycle</text><text fill="#000000" font-family="sans-serif" font-size="14" lengthAdjust="spacing" textLength="79.7891" x="127" y="885.627">(Close step)</text></g><g class="participant participant-head" data-entity-uid="part2" data-qualified-name="Snap" data-source-line="13" id="part2-head"><text fill="#000000" font-family="sans-serif" font-size="14" lengthAdjust="spacing" textLength="130.3887" x="421.2241" y="118.5117">.mdd/cycles/&lt;N&gt;/</text><text fill="#000000" font-family="sans-serif" font-size="14" lengthAdjust="spacing" textLength="99.0732" x="436.8818" y="135">before/, after/</text><path d="M471.4185,68.9766 C471.4185,58.9766 489.4185,58.9766 489.4185,58.9766 C489.4185,58.9766 507.4185,58.9766 507.4185,68.9766 L507.4185,94.9766 C507.4185,104.9766 489.4185,104.9766 489.4185,104.9766 C489.4185,104.9766 471.4185,104.9766 471.4185,94.9766 L471.4185,68.9766" fill="#E2E2F0" style="stroke:#181818;stroke-width:0.5;"/><path d="M471.4185,68.9766 C471.4185,78.9766 489.4185,78.9766 489.4185,78.9766 C489.4185,78.9766 507.4185,78.9766 507.4185,68.9766" fill="none" style="stroke:#181818;stroke-width:0.5;"/></g><g class="participant participant-tail" data-entity-uid="part2" data-qualified-name="Snap" data-source-line="13" id="part2-tail"><text fill="#000000" font-family="sans-serif" font-size="14" lengthAdjust="spacing" textLength="130.3887" x="421.2241" y="862.1387">.mdd/cycles/&lt;N&gt;/</text><text fill="#000000" font-family="sans-serif" font-size="14" lengthAdjust="spacing" textLength="99.0732" x="436.8818" y="878.627">before/, after/</text><path d="M471.4185,891.5801 C471.4185,881.5801 489.4185,881.5801 489.4185,881.5801 C489.4185,881.5801 507.4185,881.5801 507.4185,891.5801 L507.4185,917.5801 C507.4185,927.5801 489.4185,927.5801 489.4185,927.5801 C489.4185,927.5801 471.4185,927.5801 471.4185,917.5801 L471.4185,891.5801" fill="#E2E2F0" style="stroke:#181818;stroke-width:0.5;"/><path d="M471.4185,891.5801 C471.4185,901.5801 489.4185,901.5801 489.4185,901.5801 C489.4185,901.5801 507.4185,901.5801 507.4185,891.5801" fill="none" style="stroke:#181818;stroke-width:0.5;"/></g><g class="participant participant-head" data-entity-uid="part3" data-qualified-name="Diff" data-source-line="14" id="part3-head"><rect fill="#E2E2F0" height="46.9766" style="stroke:#181818;stroke-width:0.5;" width="126.9023" x="571.6128" y="85.9766"/><rect fill="#E2E2F0" height="46.9766" style="stroke:#181818;stroke-width:0.5;" width="126.9023" x="567.6128" y="89.9766"/><text fill="#000000" font-family="sans-serif" font-size="14" lengthAdjust="spacing" textLength="87.6162" x="587.2559" y="110.5117">CycleDiff per</text><text fill="#000000" font-family="sans-serif" font-size="14" lengthAdjust="spacing" textLength="112.9023" x="574.6128" y="127">touched concept</text></g><g class="participant participant-tail" data-entity-uid="part3" data-qualified-name="Diff" data-source-line="14" id="part3-tail"><rect fill="#E2E2F0" height="46.9766" style="stroke:#181818;stroke-width:0.5;" width="126.9023" x="571.6128" y="848.6035"/><rect fill="#E2E2F0" height="46.9766" style="stroke:#181818;stroke-width:0.5;" width="126.9023" x="567.6128" y="852.6035"/><text fill="#000000" font-family="sans-serif" font-size="14" lengthAdjust="spacing" textLength="87.6162" x="587.2559" y="873.1387">CycleDiff per</text><text fill="#000000" font-family="sans-serif" font-size="14" lengthAdjust="spacing" textLength="112.9023" x="574.6128" y="889.627">touched concept</text></g><g class="participant participant-head" data-entity-uid="part4" data-qualified-name="Map" data-source-line="15" id="part4-head"><text fill="#000000" font-family="sans-serif" font-size="14" lengthAdjust="spacing" textLength="79.4199" x="747.7671" y="102.0234">.mdd/map/</text><text fill="#000000" font-family="sans-serif" font-size="14" lengthAdjust="spacing" textLength="157.9238" x="708.5151" y="118.5117">&lt;kind&gt;/&lt;name&gt;.puml</text><text fill="#000000" font-family="sans-serif" font-size="14" lengthAdjust="spacing" textLength="103.2773" x="735.8384" y="135">+ manifest.yml</text><path d="M772.4771,52.4883 C772.4771,42.4883 790.4771,42.4883 790.4771,42.4883 C790.4771,42.4883 808.4771,42.4883 808.4771,52.4883 L808.4771,78.4883 C808.4771,88.4883 790.4771,88.4883 790.4771,88.4883 C790.4771,88.4883 772.4771,88.4883 772.4771,78.4883 L772.4771,52.4883" fill="#E2E2F0" style="stroke:#181818;stroke-width:0.5;"/><path d="M772.4771,52.4883 C772.4771,62.4883 790.4771,62.4883 790.4771,62.4883 C790.4771,62.4883 808.4771,62.4883 808.4771,52.4883" fill="none" style="stroke:#181818;stroke-width:0.5;"/></g><g class="participant participant-tail" data-entity-uid="part4" data-qualified-name="Map" data-source-line="15" id="part4-tail"><text fill="#000000" font-family="sans-serif" font-size="14" lengthAdjust="spacing" textLength="79.4199" x="747.7671" y="862.1387">.mdd/map/</text><text fill="#000000" font-family="sans-serif" font-size="14" lengthAdjust="spacing" textLength="157.9238" x="708.5151" y="878.627">&lt;kind&gt;/&lt;name&gt;.puml</text><text fill="#000000" font-family="sans-serif" font-size="14" lengthAdjust="spacing" textLength="103.2773" x="735.8384" y="895.1152">+ manifest.yml</text><path d="M772.4771,908.0684 C772.4771,898.0684 790.4771,898.0684 790.4771,898.0684 C790.4771,898.0684 808.4771,898.0684 808.4771,908.0684 L808.4771,934.0684 C808.4771,944.0684 790.4771,944.0684 790.4771,944.0684 C790.4771,944.0684 772.4771,944.0684 772.4771,934.0684 L772.4771,908.0684" fill="#E2E2F0" style="stroke:#181818;stroke-width:0.5;"/><path d="M772.4771,908.0684 C772.4771,918.0684 790.4771,918.0684 790.4771,918.0684 C790.4771,918.0684 808.4771,918.0684 808.4771,908.0684" fill="none" style="stroke:#181818;stroke-width:0.5;"/></g><g class="participant participant-head" data-entity-uid="part5" data-qualified-name="Render" data-source-line="16" id="part5-head"><rect fill="#E2E2F0" height="30.4883" rx="2.5" ry="2.5" style="stroke:#181818;stroke-width:0.5;" width="104.6924" x="959.5684" y="106.4648"/><text fill="#000000" font-family="sans-serif" font-size="14" lengthAdjust="spacing" textLength="90.6924" x="966.5684" y="127">/mdd-render</text></g><g class="participant participant-tail" data-entity-uid="part5" data-qualified-name="Render" data-source-line="16" id="part5-tail"><rect fill="#E2E2F0" height="30.4883" rx="2.5" ry="2.5" style="stroke:#181818;stroke-width:0.5;" width="104.6924" x="959.5684" y="848.6035"/><text fill="#000000" font-family="sans-serif" font-size="14" lengthAdjust="spacing" textLength="90.6924" x="966.5684" y="869.1387">/mdd-render</text></g><path d="M5,152.9531 L5,223.9531 L329,223.9531 L329,162.9531 L319,152.9531 L5,152.9531" fill="#FEFFDD" style="stroke:#181818;stroke-width:0.5;"/><path d="M319,152.9531 L319,162.9531 L329,162.9531 L319,152.9531" fill="#FEFFDD" style="stroke:#181818;stroke-width:0.5;"/><text fill="#000000" font-family="sans-serif" font-size="13" lengthAdjust="spacing" textLength="276.6245" x="11" y="170.5215">Runs only after parity closed and the cycle's</text><text fill="#000000" font-family="sans-serif" font-size="13" lengthAdjust="spacing" textLength="224.0596" x="11" y="185.832">current/ -&gt; after/ snapshot + each</text><text fill="#000000" font-family="sans-serif" font-size="13" lengthAdjust="spacing" textLength="260.3745" x="11" y="201.1426">&lt;diagram&gt;.diff.puml are already written.</text><text fill="#000000" font-family="sans-serif" font-size="13" lengthAdjust="spacing" textLength="303.0371" x="11" y="216.4531">Whole-map accumulation reuses that same diff.</text><g class="message" data-entity-1="part1" data-entity-2="part2" data-source-line="25" id="msg1"><polygon fill="#181818" points="477.4185,246.5059,487.4185,250.5059,477.4185,254.5059,481.4185,250.5059" style="stroke:#181818;stroke-width:1;"/><line style="stroke:#181818;stroke-width:1;" x1="166.8945" x2="483.4185" y1="250.5059" y2="250.5059"/><text fill="#000000" font-family="sans-serif" font-size="13" lengthAdjust="spacing" textLength="218.6006" x="173.8945" y="245.7637">read before/ and after/ for cycle N</text></g><g class="message" data-entity-1="part1" data-entity-2="part3" data-source-line="26" id="msg2"><polygon fill="#181818" points="621.064,291.127,631.064,295.127,621.064,299.127,625.064,295.127" style="stroke:#181818;stroke-width:1;"/><line style="stroke:#181818;stroke-width:1;" x1="166.8945" x2="627.064" y1="295.127" y2="295.127"/><text fill="#000000" font-family="sans-serif" font-size="13" lengthAdjust="spacing" textLength="199.0562" x="173.8945" y="275.0742">CycleDiff(@id keys) per concept</text><text fill="#000000" font-family="sans-serif" font-size="13" lengthAdjust="spacing" textLength="201.9888" x="173.8945" y="290.3848">(added / removed / unchanged)</text></g><path d="M100,310.127 L174.4468,310.127 L174.4468,317.4375 L164.4468,327.4375 L100,327.4375 L100,310.127" fill="#EEEEEE" style="stroke:#000000;stroke-width:1.5;"/><rect fill="none" height="232.75" style="stroke:#000000;stroke-width:1.5;" width="951.1538" x="100" y="310.127"/><text fill="#000000" font-family="sans-serif" font-size="13" font-weight="700" lengthAdjust="spacing" textLength="29.4468" x="115" y="323.6953">loop</text><text fill="#000000" font-family="sans-serif" font-size="11" font-weight="700" lengthAdjust="spacing" textLength="254.0313" x="189.4468" y="322.7617">[for each concept &lt;kind&gt;/&lt;name&gt; in after/]</text><path d="M110,334.4375 L172.1387,334.4375 L172.1387,341.748 L162.1387,351.748 L110,351.748 L110,334.4375" fill="#EEEEEE" style="stroke:#000000;stroke-width:1.5;"/><rect fill="none" height="201.4395" style="stroke:#000000;stroke-width:1.5;" width="931.1538" x="110" y="334.4375"/><text fill="#000000" font-family="sans-serif" font-size="13" font-weight="700" lengthAdjust="spacing" textLength="17.1387" x="125" y="348.0059">alt</text><text fill="#000000" font-family="sans-serif" font-size="11" font-weight="700" lengthAdjust="spacing" textLength="243.2515" x="187.1387" y="347.0723">[.mdd/map/&lt;kind&gt;/&lt;name&gt;.puml absent]</text><g class="message" data-entity-1="part1" data-entity-2="part4" data-source-line="30" id="msg3"><polygon fill="#181818" points="778.4771,384.3691,788.4771,388.3691,778.4771,392.3691,782.4771,388.3691" style="stroke:#181818;stroke-width:1;"/><line style="stroke:#181818;stroke-width:1;" x1="166.8945" x2="784.4771" y1="388.3691" y2="388.3691"/><text fill="#000000" font-family="sans-serif" font-size="13" lengthAdjust="spacing" textLength="169.127" x="173.8945" y="368.3164">create from after/ content;</text><text fill="#000000" font-family="sans-serif" font-size="13" lengthAdjust="spacing" textLength="215.2617" x="173.8945" y="383.627">tag every @id ' @cycle(&lt;ID&gt;,&lt;N&gt;)</text></g><line style="stroke:#000000;stroke-width:1;stroke-dasharray:2,2;" x1="110" x2="1041.1538" y1="397.3691" y2="397.3691"/><text fill="#000000" font-family="sans-serif" font-size="11" font-weight="700" lengthAdjust="spacing" textLength="132.1934" x="115" y="408.0039">[whole-map file exists]</text><g class="message" data-entity-1="part1" data-entity-2="part4" data-source-line="32" id="msg4"><polygon fill="#181818" points="778.4771,443.9453,788.4771,447.9453,778.4771,451.9453,782.4771,447.9453" style="stroke:#181818;stroke-width:1;"/><line style="stroke:#181818;stroke-width:1;" x1="166.8945" x2="784.4771" y1="447.9453" y2="447.9453"/><text fill="#000000" font-family="sans-serif" font-size="13" lengthAdjust="spacing" textLength="192.8799" x="173.8945" y="427.8926">insert added @ids (+elements)</text><text fill="#000000" font-family="sans-serif" font-size="13" lengthAdjust="spacing" textLength="229.3726" x="173.8945" y="443.2031">from after/, tag ' @cycle(&lt;ID&gt;,&lt;N&gt;)</text></g><g class="message" data-entity-1="part1" data-entity-2="part4" data-source-line="33" id="msg5"><polygon fill="#181818" points="778.4771,488.5664,788.4771,492.5664,778.4771,496.5664,782.4771,492.5664" style="stroke:#181818;stroke-width:1;"/><line style="stroke:#181818;stroke-width:1;" x1="166.8945" x2="784.4771" y1="492.5664" y2="492.5664"/><text fill="#000000" font-family="sans-serif" font-size="13" lengthAdjust="spacing" textLength="158.8628" x="173.8945" y="472.5137">delete removed @ids and</text><text fill="#000000" font-family="sans-serif" font-size="13" lengthAdjust="spacing" textLength="244.0039" x="173.8945" y="487.8242">their elements (net cancel &#8212; no ghost)</text></g><path d="M795,505.5664 L795,530.5664 L1031,530.5664 L1031,515.5664 L1021,505.5664 L795,505.5664" fill="#FEFFDD" style="stroke:#181818;stroke-width:0.5;"/><path d="M1021,505.5664 L1021,515.5664 L1031,515.5664 L1021,505.5664" fill="#FEFFDD" style="stroke:#181818;stroke-width:0.5;"/><text fill="#000000" font-family="sans-serif" font-size="13" lengthAdjust="spacing" textLength="215.1538" x="801" y="523.1348">unchanged @ids keep their earlier</text><path d="M110,556.877 L172.1387,556.877 L172.1387,564.1875 L162.1387,574.1875 L110,574.1875 L110,556.877" fill="#EEEEEE" style="stroke:#000000;stroke-width:1.5;"/><rect fill="none" height="46.6211" style="stroke:#000000;stroke-width:1.5;" width="772.439" x="110" y="556.877"/><text fill="#000000" font-family="sans-serif" font-size="13" font-weight="700" lengthAdjust="spacing" textLength="17.1387" x="125" y="570.4453">alt</text><text fill="#000000" font-family="sans-serif" font-size="11" font-weight="700" lengthAdjust="spacing" textLength="270.5581" x="187.1387" y="569.5117">[concept in before/ but not after/ (file deleted)]</text><g class="message" data-entity-1="part1" data-entity-2="part4" data-source-line="42" id="msg6"><polygon fill="#181818" points="778.4771,591.498,788.4771,595.498,778.4771,599.498,782.4771,595.498" style="stroke:#181818;stroke-width:1;"/><line style="stroke:#181818;stroke-width:1;" x1="166.8945" x2="784.4771" y1="595.498" y2="595.498"/><text fill="#000000" font-family="sans-serif" font-size="13" lengthAdjust="spacing" textLength="271.1592" x="173.8945" y="590.7559">remove .mdd/map/&lt;kind&gt;/&lt;name&gt;.puml</text></g><g class="message" data-entity-1="part1" data-entity-2="part4" data-source-line="45" id="msg7"><polygon fill="#181818" points="778.4771,643.1191,788.4771,647.1191,778.4771,651.1191,782.4771,647.1191" style="stroke:#181818;stroke-width:1;"/><line style="stroke:#181818;stroke-width:1;" x1="166.8945" x2="784.4771" y1="647.1191" y2="647.1191"/><text fill="#000000" font-family="sans-serif" font-size="13" lengthAdjust="spacing" textLength="129.3271" x="173.8945" y="627.0664">rewrite manifest.yml</text><text fill="#000000" font-family="sans-serif" font-size="13" lengthAdjust="spacing" textLength="266.9888" x="173.8945" y="642.377">(version, last_cycle=N, generated_at, files)</text></g><g class="message" data-entity-1="part1" data-entity-2="part2" data-source-line="46" id="msg8"><polygon fill="#181818" points="477.4185,672.4297,487.4185,676.4297,477.4185,680.4297,481.4185,676.4297" style="stroke:#181818;stroke-width:1;"/><line style="stroke:#181818;stroke-width:1;" x1="166.8945" x2="483.4185" y1="676.4297" y2="676.4297"/><text fill="#000000" font-family="sans-serif" font-size="13" lengthAdjust="spacing" textLength="298.5239" x="173.8945" y="671.6875">copy .mdd/map/ -&gt; .mdd/cycles/&lt;N&gt;/whole/</text></g><g class="message" data-entity-1="part1" data-entity-2="part5" data-source-line="47" id="msg9"><polygon fill="#181818" points="999.9146,701.7402,1009.9146,705.7402,999.9146,709.7402,1003.9146,705.7402" style="stroke:#181818;stroke-width:1;"/><line style="stroke:#181818;stroke-width:1;" x1="166.8945" x2="1005.9146" y1="705.7402" y2="705.7402"/><text fill="#000000" font-family="sans-serif" font-size="13" lengthAdjust="spacing" textLength="84.2144" x="173.8945" y="700.998">/mdd-render</text></g><g class="message" data-entity-1="part5" data-entity-2="part4" data-source-line="48" id="msg10"><polygon fill="#181818" points="801.4771,746.3613,791.4771,750.3613,801.4771,754.3613,797.4771,750.3613" style="stroke:#181818;stroke-width:1;"/><line style="stroke:#181818;stroke-width:1;" x1="795.4771" x2="1010.9146" y1="750.3613" y2="750.3613"/><text fill="#000000" font-family="sans-serif" font-size="13" lengthAdjust="spacing" textLength="181.6509" x="807.4771" y="730.3086">rasterize .mdd/map/**.puml</text><text fill="#000000" font-family="sans-serif" font-size="13" lengthAdjust="spacing" textLength="197.4375" x="807.4771" y="745.6191">-&gt; .mdd/rendered/map/**.svg</text></g><path d="M623,763.3613 L623,834.3613 L956,834.3613 L956,773.3613 L946,763.3613 L623,763.3613" fill="#FEFFDD" style="stroke:#181818;stroke-width:0.5;"/><path d="M946,763.3613 L946,773.3613 L956,773.3613 L946,763.3613" fill="#FEFFDD" style="stroke:#181818;stroke-width:0.5;"/><text fill="#000000" font-family="sans-serif" font-size="13" lengthAdjust="spacing" textLength="260.4697" x="629" y="780.9297">.mdd/map/ is an inspection artifact only.</text><text fill="#000000" font-family="sans-serif" font-size="13" lengthAdjust="spacing" textLength="312.9966" x="629" y="796.2402">/mdd-validate, /mdd-review and the /mdd-cycle</text><text fill="#000000" font-family="sans-serif" font-size="13" lengthAdjust="spacing" textLength="297.2671" x="629" y="811.5508">parity loop never read it (OCL-MAP-* constrain</text><text fill="#000000" font-family="sans-serif" font-size="13" lengthAdjust="spacing" textLength="225.5195" x="629" y="826.8613">WholeMap but are not parity gates).</text><?plantuml-src VLRRRjiu47tNLmpy4gcnfVTiraYG1cY1N7QR1dqnK33YoE9M8WMITjRxj1_HBzmlsKDIjfpBRe42iZISEMVEp65Ew4B9_E7wzyMtJ_StrulRozyMbrTNZxUFDvTVhuliX2uiD_dZm_KKWBTuV__q1zTURNdXb6Io6-rLpzHqvfbCGxvbUcvDnujU32JgUjDlEk6LqVWaF19KlPIBUbTtJ0FRnjZUaN0q2Ej30kKTNNN6CJdFGqbVMxPCof4sv1XHmZEoM5v8jcgRKW_28OcM8SYonfT5GcKwUHOnePHJo2YfHFqAu2fayPQPFZ_42Cr-JhrGskC_uencgbi6Ywi0zgDg6XB3qAbwhCcM8eqozkL2igl_iwDpcdr2WoRk9ySi8quGe3gyadI8E1G6AlEA1vuMjT4r3txYb1ZbGaf4G697jHaKdf-LR-bYRBirMzO2H-VeLeyVagGrmy1oJXjTjqAlyUe70zbWbR579ufmfB7iMdRebbODEr_k-cvEJel1jGRw0Mj45CkvwlnkMSMPgEPH9EG7C0DQ28mjIPg5drQ0d5L_ySJfmuToLcHUUK2_t0yKlvgq9-6uWsuaV6fVwYNbPZ-lHPQ56LEr6eJsD9kqMEbyqgAOXMcClpCfl0Y9QVQQpae_CKOtCce0k8gd7j21h3PT5oeQxMWsAGYvLX1nWv62m4ctU2XyVLqfq5xfynzAosLrhaNFotBOzDrAdxveUanmYw9lcQMMne0lyJ7Bj47R8AGTwH5zsG2aqTqkiGXBgFnkFuP1gz3bSHmHNsyiylgA5ikHzq5rEYKMTOkWSwd4sef-MKfGYxX9O8T5Prd87JsZXcTT8lJR-qvXUUCmNi4mo84ynKGPnmN7-cT9Be087QSp2ebfL2J27i7XnJWDTzEPACVPj5mvzWJ3ldD5skca3OOYRL5rs95gMWuCKsVC40i4sljJz48phEs815n5TxIdRwKbyUJGMWGI7Q3UHdOrw46vnff-Jmpbq4B_2qPAh8cXwIwiEvsCEvwVV_wud6DI2oJapXslIgFG3_uJBkBUgwQqOrZnaONafznnZtAkMEaZ57CAnTyj-IQhH0fmsBSoveLGmD-oGW_70fJ3XgaEJjFHFt__38Q-RetpAMcSOAlMRRmgmk1J_3UPLamSdMjCB6odCFmfxe2rBClYoDNA-FqmN_4nZ5kM1TNssaBD_OmzRNm8tSkHnvucZZ90VSK-qVu_-LErDyV2hl2BbSTSRiCTOFISEfZbzqZerxivhLbpk1tbTu6RB21onPjDmNMmExekyE5zfvuE9lV0qIDRoSQN4z9tRJjPrhv6Eig7hswxFlQafEO4JOK12TCu93UbO76Dg7qqhA1O1BGLdO9xuYeRyMqLFn-iQp9vn8_k5XTNXvr9lg4yvVTND_76_X34TjxYJu2zFGM2GUvWOK7oCSiQDLqncTA_?></g></svg>