<svg xmlns="http://www.w3.org/2000/svg" xmlns:xlink="http://www.w3.org/1999/xlink" contentStyleType="text/css" data-diagram-type="DESCRIPTION" height="851px" preserveAspectRatio="none" style="width:785px;height:851px;background:#FFFFFF;" version="1.1" viewBox="0 0 785 851" width="785px" zoomAndPan="magnify"><?plantuml 1.2026.3?><defs/><g><g class="title" data-source-line="36"><text fill="#000000" font-family="sans-serif" font-size="14" font-weight="700" lengthAdjust="spacing" textLength="397.9336" x="190.0882" y="23.5352">mdd view &#8212; diagram viewer &#183; cycle 0011 diff (current)</text></g><!--cluster mdd-viewer--><g class="cluster" data-qualified-name="mdd-viewer" data-source-line="42" id="ent0003"><rect fill="none" height="460" rx="2.5" ry="2.5" style="stroke:#181818;stroke-width:1;" width="649.79" x="121.32" y="44.4883"/><text fill="#000000" font-family="sans-serif" font-size="14" font-weight="700" lengthAdjust="spacing" textLength="88.7783" x="401.8258" y="60.0234">mdd-viewer</text></g><!--entity View--><g class="entity" data-qualified-name="mdd-viewer.View" data-source-line="43" id="ent0004"><ellipse cx="262.4749" cy="135.4873" fill="#F1F1F1" rx="119.7449" ry="26.349" style="stroke:#181818;stroke-width:0.5;"/><text fill="#000000" font-family="sans-serif" font-size="14" lengthAdjust="spacing" textLength="157.6641" x="183.6428" y="131.2536">View rendered diagram</text><text fill="#000000" font-family="sans-serif" font-size="14" lengthAdjust="spacing" textLength="172.3271" x="176.3113" y="147.7419">(shapes AND text legible)</text></g><!--entity Browse--><g class="entity" data-qualified-name="mdd-viewer.Browse" data-source-line="44" id="ent0005"><ellipse cx="631.8731" cy="97.4889" fill="#F1F1F1" rx="78.9031" ry="18.1806" style="stroke:#181818;stroke-width:0.5;"/><text fill="#000000" font-family="sans-serif" font-size="14" lengthAdjust="spacing" textLength="127.4697" x="568.1382" y="102.233">Browse model files</text></g><!--entity PanZoom--><g class="entity" data-qualified-name="mdd-viewer.PanZoom" data-source-line="45" id="ent0006"><ellipse cx="631.8744" cy="300.4845" fill="#F1F1F1" rx="112.8544" ry="25.9162" style="stroke:#181818;stroke-width:0.5;"/><text fill="#000000" font-family="sans-serif" font-size="14" lengthAdjust="spacing" textLength="146.6787" x="558.535" y="296.4113">Pan and zoom canvas</text><text fill="#000000" font-family="sans-serif" font-size="14" lengthAdjust="spacing" textLength="158.0811" x="552.8339" y="312.8996">(scroll zoom, drag pan)</text></g><!--entity Fisheye--><g class="entity" data-qualified-name="mdd-viewer.Fisheye" data-source-line="46" id="ent0007"><ellipse cx="631.874" cy="467.4851" fill="#F1F1F1" rx="93.784" ry="21.1568" style="stroke:#181818;stroke-width:0.5;"/><text fill="#000000" font-family="sans-serif" font-size="14" lengthAdjust="spacing" textLength="161.7725" x="550.9877" y="472.2292">Focus via center fisheye</text></g><!--entity Panels--><g class="entity" data-qualified-name="mdd-viewer.Panels" data-source-line="47" id="ent0008"><ellipse cx="631.8743" cy="386.4871" fill="#F1F1F1" rx="113.6443" ry="25.1289" style="stroke:#181818;stroke-width:0.5;"/><text fill="#000000" font-family="sans-serif" font-size="14" lengthAdjust="spacing" textLength="205.3584" x="529.1951" y="391.2313">Collapse / expand side panels</text></g><!--entity Trace--><g class="entity" data-qualified-name="mdd-viewer.Trace" data-source-line="48" id="ent0009"><ellipse cx="262.4682" cy="223.4859" fill="#F1F1F1" rx="123.2882" ry="27.0576" style="stroke:#181818;stroke-width:0.5;"/><text fill="#000000" font-family="sans-serif" font-size="14" lengthAdjust="spacing" textLength="226.0098" x="149.4633" y="228.2301">Inspect model IDs and trace links</text></g><!--entity ViewOcl--><g class="entity" data-qualified-name="mdd-viewer.ViewOcl" data-source-line="49" id="ent0010"><ellipse cx="262.4739" cy="311.4892" fill="#F1F1F1" rx="103.0539" ry="25.9009" style="stroke:#181818;stroke-width:0.5;"/><text fill="#000000" font-family="sans-serif" font-size="14" lengthAdjust="spacing" textLength="144.0742" x="190.4368" y="308.5844">View OCL constraints</text><text fill="#000000" font-family="sans-serif" font-size="14" lengthAdjust="spacing" textLength="133.2666" x="195.8406" y="325.0727">(source or diagram)</text></g><!--entity ViewDeploy--><g class="entity" data-qualified-name="mdd-viewer.ViewDeploy" data-source-line="50" id="ent0011"><ellipse cx="262.4729" cy="407.4908" fill="#F1F1F1" rx="125.1529" ry="35.5525" style="stroke:#181818;stroke-width:0.5;"/><text fill="#000000" font-family="sans-serif" font-size="14" lengthAdjust="spacing" textLength="183.8115" x="170.5671" y="399.0359">View deployment diagrams</text><text fill="#000000" font-family="sans-serif" font-size="14" lengthAdjust="spacing" textLength="185.6162" x="169.6648" y="415.5242">(dedicated DEPLOY section,</text><text fill="#000000" font-family="sans-serif" font-size="14" lengthAdjust="spacing" textLength="124.332" x="200.3069" y="432.0125">NOT parity-gated)</text></g><!--entity Themed--><g class="entity" data-qualified-name="mdd-viewer.Themed" data-source-line="51" id="ent0012"><ellipse cx="631.8736" cy="195.4902" fill="#90EE90" rx="123.2436" ry="44.5319" style="stroke:#181818;stroke-width:0.5;"/><text fill="#000000" font-family="sans-serif" font-size="14" font-style="italic" lengthAdjust="spacing" textLength="56.6357" x="603.5558" y="168.1147">&#171;added&#187;</text><text fill="#000000" font-family="sans-serif" font-size="14" lengthAdjust="spacing" textLength="190.9482" x="536.3995" y="184.603">View themed viewer chrome</text><text fill="#000000" font-family="sans-serif" font-size="14" lengthAdjust="spacing" textLength="188.7813" x="537.483" y="201.0913">(Catppuccin, bundled fonts,</text><text fill="#000000" font-family="sans-serif" font-size="14" lengthAdjust="spacing" textLength="189.417" x="537.1651" y="217.5796">OS appearance auto-follow)</text></g><!--entity Dev--><g class="entity" data-qualified-name="Dev" data-source-line="40" id="ent0002"><ellipse cx="40.1592" cy="466.7483" fill="#F1F1F1" rx="8" ry="8" style="stroke:#181818;stroke-width:0.5;"/><path d="M40.1592,474.7483 L40.1592,501.7483 M27.1592,482.7483 L53.1592,482.7483 M40.1592,501.7483 L27.1592,516.7483 M40.1592,501.7483 L53.1592,516.7483" fill="none" style="stroke:#181818;stroke-width:0.5;"/><text fill="#000000" font-family="sans-serif" font-size="14" lengthAdjust="spacing" textLength="68.3184" x="6" y="531.7834">Developer</text></g><!--link Dev to View--><g class="link" data-entity-1="ent0002" data-entity-2="ent0004" data-link-type="dependency" data-source-line="54" id="lnk13"><path d="M45.05,457.7683 C53.41,382.1383 75.46,218.6583 113.32,178.4883 C125.9,165.1383 136.735,157.9362 154.085,151.4962" fill="none" id="Dev-to-View" style="stroke:#181818;stroke-width:1;"/><polygon fill="#181818" points="159.71,149.4083,149.8806,148.7901,155.0225,151.1482,152.6644,156.2901,159.71,149.4083" style="stroke:#181818;stroke-width:1;"/></g><!--link Dev to Browse--><g class="link" data-entity-1="ent0002" data-entity-2="ent0005" data-link-type="dependency" data-source-line="55" id="lnk14"><path d="M74.74,497.9983 C167.41,501.3683 423.55,505.1883 478.62,447.4883 C527.02,396.7783 464.02,187.5583 508.62,133.4883 C521.01,118.4683 533.5555,111.1578 552.2655,105.8778" fill="none" id="Dev-to-Browse" style="stroke:#181818;stroke-width:1;"/><polygon fill="#181818" points="558.04,104.2483,548.2919,102.843,553.2279,105.6063,550.4647,110.5423,558.04,104.2483" style="stroke:#181818;stroke-width:1;"/></g><!--link Dev to PanZoom--><g class="link" data-entity-1="ent0002" data-entity-2="ent0006" data-link-type="dependency" data-source-line="56" id="lnk15"><path d="M55.31,534.7983 C65.42,556.2183 81.35,581.0383 104.32,593.4883 C250.56,672.7783 354.18,703.8883 478.62,593.4883 C520.48,556.3583 473.62,387.1383 508.62,343.4883 C517.98,331.8183 525.261,325.7761 539.001,319.5761" fill="none" id="Dev-to-PanZoom" style="stroke:#181818;stroke-width:1;"/><polygon fill="#181818" points="544.47,317.1083,534.6213,317.164,539.9125,319.1648,537.9117,324.456,544.47,317.1083" style="stroke:#181818;stroke-width:1;"/></g><!--link Dev to Fisheye--><g class="link" data-entity-1="ent0002" data-entity-2="ent0007" data-link-type="dependency" data-source-line="57" id="lnk16"><path d="M45.65,534.8583 C53.68,596.0083 72.69,711.1383 104.32,735.4883 C236.12,836.9883 334.85,819.1683 478.62,735.4883 C573.2,680.4383 612.4592,548.1696 624.9792,494.8196" fill="none" id="Dev-to-Fisheye" style="stroke:#181818;stroke-width:1;"/><polygon fill="#181818" points="626.35,488.9783,620.3996,496.8264,625.2077,493.846,628.188,498.6541,626.35,488.9783" style="stroke:#181818;stroke-width:1;"/></g><!--link Dev to Panels--><g class="link" data-entity-1="ent0002" data-entity-2="ent0008" data-link-type="dependency" data-source-line="58" id="lnk17"><path d="M43.53,535.0783 C48.29,574.9983 62.43,635.4883 104.32,664.4883 C241.09,759.1883 353.79,774.4583 478.62,664.4883 C557.96,594.5983 441.88,510.4983 508.62,428.4883 C517.9,417.0883 524.9655,411.2239 538.4755,405.1639" fill="none" id="Dev-to-Panels" style="stroke:#181818;stroke-width:1;"/><polygon fill="#181818" points="543.95,402.7083,534.1012,402.742,539.3879,404.7546,537.3754,410.0414,543.95,402.7083" style="stroke:#181818;stroke-width:1;"/></g><!--link Dev to Trace--><g class="link" data-entity-1="ent0002" data-entity-2="ent0009" data-link-type="dependency" data-source-line="59" id="lnk18"><path d="M42.74,457.7983 C46.9,407.3583 61.64,319.5683 113.32,268.4883 C126.7,255.2583 138.2134,247.9819 156.0634,241.3719" fill="none" id="Dev-to-Trace" style="stroke:#181818;stroke-width:1;"/><polygon fill="#181818" points="161.69,239.2883,151.861,238.6626,157.0012,241.0246,154.6391,246.1647,161.69,239.2883" style="stroke:#181818;stroke-width:1;"/></g><!--link Dev to ViewOcl--><g class="link" data-entity-1="ent0002" data-entity-2="ent0010" data-link-type="dependency" data-source-line="60" id="lnk19"><path d="M51.39,457.8583 C61.83,425.7383 81.16,381.1183 113.32,354.4883 C130.34,340.3983 146.0229,332.6419 167.2629,326.2719" fill="none" id="Dev-to-ViewOcl" style="stroke:#181818;stroke-width:1;"/><polygon fill="#181818" points="173.01,324.5483,163.2403,323.3023,168.2207,325.9846,165.5384,330.9651,173.01,324.5483" style="stroke:#181818;stroke-width:1;"/></g><!--link Dev to ViewDeploy--><g class="link" data-entity-1="ent0002" data-entity-2="ent0011" data-link-type="dependency" data-source-line="61" id="lnk20"><path d="M74.57,482.6683 C84.17,478.7183 94.65,474.4183 104.32,470.4883 C131.82,459.3183 156.5196,449.3777 183.0796,438.7477" fill="none" id="Dev-to-ViewDeploy" style="stroke:#181818;stroke-width:1;"/><polygon fill="#181818" points="188.65,436.5183,178.8081,436.1488,184.008,438.3761,181.7806,443.576,188.65,436.5183" style="stroke:#181818;stroke-width:1;"/></g><!--link Dev to Themed--><g class="link" data-entity-1="ent0002" data-entity-2="ent0012" data-link-type="dependency" data-source-line="62" id="lnk21"><path d="M74.54,512.4683 C155.34,548.5483 363.29,625.4983 478.62,522.4883 C522.83,483.0083 474.82,306.1683 508.62,257.4883 C517.38,244.8783 524.3805,237.8499 537.5905,229.6599" fill="none" id="Dev-to-Themed" style="stroke:#181818;stroke-width:1;"/><polygon fill="#181818" points="542.69,226.4983,532.9331,227.841,538.4405,229.1329,537.1485,234.6403,542.69,226.4983" style="stroke:#181818;stroke-width:1;"/></g><!--link View to Browse--><g class="link" data-entity-1="ent0004" data-entity-2="ent0005" data-link-type="dependency" data-source-line="64" id="lnk22"><path d="M371.72,124.2883 C432.15,118.0383 499.7918,111.0451 553.1018,105.5351" fill="none" id="View-to-Browse" style="stroke:#181818;stroke-width:1;stroke-dasharray:7,7;"/><polygon fill="#181818" points="559.07,104.9183,549.7065,101.8648,554.0965,105.4323,550.5289,109.8224,559.07,104.9183" style="stroke:#181818;stroke-width:1;"/><text fill="#000000" font-family="sans-serif" font-size="13" lengthAdjust="spacing" textLength="59.3569" x="418.62" y="110.7866">&#171;include&#187;</text></g><!--link View to PanZoom--><g class="link" data-entity-1="ent0004" data-entity-2="ent0006" data-link-type="dependency" data-source-line="65" id="lnk23"><path d="M334.95,156.8983 C352.51,163.0583 371.03,170.3583 387.62,178.4883 C445.29,206.7683 451.03,229.0683 508.62,257.4883 C525.57,265.8483 538.9017,271.3624 556.7617,277.6624" fill="none" id="View-to-PanZoom" style="stroke:#181818;stroke-width:1;stroke-dasharray:7,7;"/><polygon fill="#181818" points="562.42,279.6583,555.2632,272.8922,557.7048,277.995,552.6019,280.4366,562.42,279.6583" style="stroke:#181818;stroke-width:1;"/><text fill="#000000" font-family="sans-serif" font-size="13" lengthAdjust="spacing" textLength="57.1924" x="419.62" y="192.9766">&#171;extend&#187;</text></g><!--link View to Fisheye--><g class="link" data-entity-1="ent0004" data-entity-2="ent0007" data-link-type="dependency" data-source-line="66" id="lnk24"><path d="M353.23,153.0183 C366.36,159.1283 378.51,167.3783 387.62,178.4883 C449.66,254.0983 356.14,320.4283 417.62,396.4883 C447.98,434.0383 492.9247,450.7621 537.3447,459.1721" fill="none" id="View-to-Fisheye" style="stroke:#181818;stroke-width:1;stroke-dasharray:7,7;"/><polygon fill="#181818" points="543.24,460.2883,535.1412,454.6839,538.3273,459.3582,533.653,462.5442,543.24,460.2883" style="stroke:#181818;stroke-width:1;"/><text fill="#000000" font-family="sans-serif" font-size="13" lengthAdjust="spacing" textLength="57.1924" x="419.62" y="393.0566">&#171;extend&#187;</text></g><!--link View to Panels--><g class="link" data-entity-1="ent0004" data-entity-2="ent0008" data-link-type="dependency" data-source-line="67" id="lnk25"><path d="M349.51,153.8183 C363.55,159.8483 376.97,167.8583 387.62,178.4883 C416.28,207.0783 393.07,232.3083 417.62,264.4883 C437.59,290.6583 454.46,284.1383 478.62,306.4883 C494.17,320.8583 491.32,331.2983 508.62,343.4883 C522.78,353.4683 533.8674,359.2439 550.2974,365.3639" fill="none" id="View-to-Panels" style="stroke:#181818;stroke-width:1;stroke-dasharray:7,7;"/><polygon fill="#181818" points="555.92,367.4583,548.8823,360.5683,551.2345,365.713,546.0899,368.0651,555.92,367.4583" style="stroke:#181818;stroke-width:1;"/><text fill="#000000" font-family="sans-serif" font-size="13" lengthAdjust="spacing" textLength="57.1924" x="419.62" y="261.0566">&#171;extend&#187;</text></g><!--link View to Themed--><g class="link" data-entity-1="ent0004" data-entity-2="ent0012" data-link-type="dependency" data-source-line="68" id="lnk26"><path d="M359.52,151.1783 C408.42,159.1583 462.2184,167.9515 513.1784,176.2715" fill="none" id="View-to-Themed" style="stroke:#181818;stroke-width:1;stroke-dasharray:7,7;"/><polygon fill="#181818" points="519.1,177.2383,510.8621,171.8404,514.1653,176.4326,509.5731,179.7358,519.1,177.2383" style="stroke:#181818;stroke-width:1;"/><text fill="#000000" font-family="sans-serif" font-size="13" lengthAdjust="spacing" textLength="59.3569" x="418.62" y="158.4666">&#171;include&#187;</text></g><!--link ViewOcl to PanZoom--><g class="link" data-entity-1="ent0010" data-entity-2="ent0006" data-link-type="dependency" data-source-line="69" id="lnk27"><path d="M352.23,324.5483 C391.05,328.5983 437.11,331.1383 478.62,327.4883 C501.09,325.5083 519.2914,322.9714 541.5514,319.0414" fill="none" id="ViewOcl-to-PanZoom" style="stroke:#181818;stroke-width:1;stroke-dasharray:7,7;"/><polygon fill="#181818" points="547.46,317.9983,537.9016,315.6239,542.5361,318.8676,539.2925,323.5021,547.46,317.9983" style="stroke:#181818;stroke-width:1;"/><text fill="#000000" font-family="sans-serif" font-size="13" lengthAdjust="spacing" textLength="57.1924" x="419.62" y="324.0566">&#171;extend&#187;</text></g><!--link ViewDeploy to PanZoom--><g class="link" data-entity-1="ent0011" data-entity-2="ent0006" data-link-type="dependency" data-source-line="70" id="lnk28"><path d="M362.09,385.5983 C398.91,376.7983 440.91,366.0083 478.62,354.4883 C492.21,350.3383 495.26,348.2883 508.62,343.4883 C528,336.5283 543.4787,331.0358 562.6487,324.3058" fill="none" id="ViewDeploy-to-PanZoom" style="stroke:#181818;stroke-width:1;stroke-dasharray:7,7;"/><polygon fill="#181818" points="568.31,322.3183,558.4931,321.5254,563.5923,323.9745,561.1431,329.0737,568.31,322.3183" style="stroke:#181818;stroke-width:1;"/><text fill="#000000" font-family="sans-serif" font-size="13" lengthAdjust="spacing" textLength="57.1924" x="419.62" y="351.0566">&#171;extend&#187;</text></g><?plantuml-src jLJBRXen5DtFLrpHHK5YKhAfb2YAIc18a4Y80acLAXl7le0LOuziJn9QLUf7z5-wxwVqItez3vYKfgkoWRaFdtCVntOFKgVCiYLa3Zbp25yYW1F67-RMP5hqZ3Bsw8W9WUBu6DuST9BaeFEt58jByrWa3GOdxtlxqTV8hT6vOixj2jiiKwDH-ntXEy_yhkPYaNkcvsfN-8nxOtU4JRzUSfco_ppvj_11YkRr98blXid7k3_idbvrpoUjMc0md9mbj_G_xbs_24p7fwUZ9BxiNYIZ5u4SQjmRRVdwoULeVFkdExcAfsV9UT9l0MmQyGlfWAyuhQlPwUplXrEzt0mM23cRGPDdrWOnEYcmTGYaJ425o-3ASTgWWw_iV2_oqXF0KWXubFW4lxvz9o0s3nCE3hJmyqT9kitIYYA5Cm_UW9NpXQTea9GqEegAtJVw-8ZAf6WRm1oG5KKRrJM8Dove6laIgsUWSHEA8Gg15aLLqPrkkWLBqK7teWyUdpqedCjxXQqSFHogWvnOyqJ_IoDGmKmgT7bQuQudNZ8DJ0luR0nTQAOVcGjSt1gbScSRX6LpqfmkcEZ09tBNCGQ6Puvcne3JP6XkC-aMkC8yVr1yr_D9WegbzFKEy3aDx65bWGALgqZeitvcg5rAmoix6lPTNhMtZ2CegH-ASzDWRmsJr4TlbNQKBRNF-pEPfOEqfNA-cocEkTe249WgiygLLEO749AKvFH22IYa3AuGGFjENuoduPPAluhd8MC3ty-XjXZyWeGgAjtnXJLB98eUyscQSIvr6-xfyYhAcHdgWJZ64s1fYlGYQ6g5PTx4CngiUIh8fWNY-WxH_Ov8Wn37nuLQAgFKH6LM-wtiQd-rU5XDPHOJhmE70TRjikFrWRokAChRtjkh-E6GIfMQgqmW5RkEbkNaOL8zNOjwj2pkbMXHwYl1SZxRj5J_lvcBXbxD-Gq0?></g></svg>