<svg xmlns="http://www.w3.org/2000/svg" xmlns:xlink="http://www.w3.org/1999/xlink" contentStyleType="text/css" data-diagram-type="DESCRIPTION" height="635px" preserveAspectRatio="none" style="width:1008px;height:635px;background:#FFFFFF;" version="1.1" viewBox="0 0 1008 635" width="1008px" zoomAndPan="magnify"><?plantuml 1.2026.3?><defs/><g><g class="title" data-source-line="13"><text fill="#000000" font-family="sans-serif" font-size="14" font-weight="700" lengthAdjust="spacing" textLength="355.4824" x="322.9431" y="23.5352">MDD init &#8212; ownership &#183; cycle 0018 diff (current)</text></g><!--entity Dev--><g class="entity" data-qualified-name="Dev" data-source-line="15" id="ent0002"><ellipse cx="495.3064" cy="51.4883" fill="#F1F1F1" rx="8" ry="8" style="stroke:#181818;stroke-width:0.5;"/><path d="M495.3064,59.4883 L495.3064,86.4883 M482.3064,67.4883 L508.3064,67.4883 M495.3064,86.4883 L482.3064,101.4883 M495.3064,86.4883 L508.3064,101.4883" fill="none" style="stroke:#181818;stroke-width:0.5;"/><text fill="#000000" font-family="sans-serif" font-size="14" lengthAdjust="spacing" textLength="124.6328" x="432.99" y="116.5234">Developer / Agent</text></g><!--entity Cli--><g class="entity" data-qualified-name="Cli" data-source-line="17" id="ent0003"><rect fill="#90EE90" height="95.9531" rx="2.5" ry="2.5" style="stroke:#181818;stroke-width:0.5;" width="179.6104" x="405.5" y="196.4783"/><rect fill="#90EE90" height="10" style="stroke:#181818;stroke-width:0.5;" width="15" x="565.1104" y="201.4783"/><rect fill="#90EE90" height="2" style="stroke:#181818;stroke-width:0.5;" width="4" x="563.1104" y="203.4783"/><rect fill="#90EE90" height="2" style="stroke:#181818;stroke-width:0.5;" width="4" x="563.1104" y="207.4783"/><text fill="#000000" font-family="sans-serif" font-size="14" font-style="italic" lengthAdjust="spacing" textLength="56.6357" x="461.9873" y="230.0134">&#171;added&#187;</text><text fill="#000000" font-family="sans-serif" font-size="14" lengthAdjust="spacing" textLength="121.3242" x="420.5" y="246.5017">mdd init [--force]</text><text fill="#000000" font-family="sans-serif" font-size="14" lengthAdjust="spacing" textLength="103.2363" x="420.5" y="262.99">(CMP-INIT-CLI)</text><text fill="#000000" font-family="sans-serif" font-size="14" lengthAdjust="spacing" textLength="139.6104" x="420.5" y="279.4783">mdd-cli/src/main.rs</text></g><!--entity Engine--><g class="entity" data-qualified-name="Engine" data-source-line="18" id="ent0004"><rect fill="#90EE90" height="95.9531" rx="2.5" ry="2.5" style="stroke:#181818;stroke-width:0.5;" width="268.7715" x="360.92" y="369.4283"/><rect fill="#90EE90" height="10" style="stroke:#181818;stroke-width:0.5;" width="15" x="609.6915" y="374.4283"/><rect fill="#90EE90" height="2" style="stroke:#181818;stroke-width:0.5;" width="4" x="607.6915" y="376.4283"/><rect fill="#90EE90" height="2" style="stroke:#181818;stroke-width:0.5;" width="4" x="607.6915" y="380.4283"/><text fill="#000000" font-family="sans-serif" font-size="14" font-style="italic" lengthAdjust="spacing" textLength="56.6357" x="461.9879" y="402.9634">&#171;added&#187;</text><text fill="#000000" font-family="sans-serif" font-size="14" lengthAdjust="spacing" textLength="228.7715" x="375.92" y="419.4517">Project::init_with_conflict_handler</text><text fill="#000000" font-family="sans-serif" font-size="14" lengthAdjust="spacing" textLength="132.0635" x="375.92" y="435.94">(CMP-INIT-ENGINE)</text><text fill="#000000" font-family="sans-serif" font-size="14" lengthAdjust="spacing" textLength="137.0127" x="375.92" y="452.4283">mdd-core/src/lib.rs</text></g><!--entity Text--><g class="entity" data-qualified-name="Text" data-source-line="19" id="ent0005"><rect fill="#90EE90" height="79.4648" rx="2.5" ry="2.5" style="stroke:#181818;stroke-width:0.5;" width="266.6113" x="7" y="542.3883"/><rect fill="#90EE90" height="10" style="stroke:#181818;stroke-width:0.5;" width="15" x="253.6113" y="547.3883"/><rect fill="#90EE90" height="2" style="stroke:#181818;stroke-width:0.5;" width="4" x="251.6113" y="549.3883"/><rect fill="#90EE90" height="2" style="stroke:#181818;stroke-width:0.5;" width="4" x="251.6113" y="553.3883"/><text fill="#000000" font-family="sans-serif" font-size="14" font-style="italic" lengthAdjust="spacing" textLength="56.6357" x="106.9878" y="575.9234">&#171;added&#187;</text><text fill="#000000" font-family="sans-serif" font-size="14" lengthAdjust="spacing" textLength="143.5068" x="22" y="592.4117">write_text_if_missing</text><text fill="#000000" font-family="sans-serif" font-size="14" lengthAdjust="spacing" textLength="226.6113" x="22" y="608.9">(regenerable: docs, skills, blocks)</text></g><!--entity Yaml--><g class="entity" data-qualified-name="Yaml" data-source-line="20" id="ent0006"><rect fill="#90EE90" height="79.4648" rx="2.5" ry="2.5" style="stroke:#181818;stroke-width:0.5;" width="247.6826" x="371.46" y="542.3883"/><rect fill="#90EE90" height="10" style="stroke:#181818;stroke-width:0.5;" width="15" x="599.1426" y="547.3883"/><rect fill="#90EE90" height="2" style="stroke:#181818;stroke-width:0.5;" width="4" x="597.1426" y="549.3883"/><rect fill="#90EE90" height="2" style="stroke:#181818;stroke-width:0.5;" width="4" x="597.1426" y="553.3883"/><text fill="#000000" font-family="sans-serif" font-size="14" font-style="italic" lengthAdjust="spacing" textLength="56.6357" x="461.9834" y="575.9234">&#171;added&#187;</text><text fill="#000000" font-family="sans-serif" font-size="14" lengthAdjust="spacing" textLength="201.8994" x="386.46" y="592.4117">write_yaml_create_or_migrate</text><text fill="#000000" font-family="sans-serif" font-size="14" lengthAdjust="spacing" textLength="207.6826" x="386.46" y="608.9">(state: config/trace/approvals)</text></g><!--entity Hook--><g class="entity" data-qualified-name="Hook" data-source-line="21" id="ent0007"><rect fill="#F1F1F1" height="62.9766" rx="2.5" ry="2.5" style="stroke:#181818;stroke-width:0.5;" width="208.4785" x="671.07" y="550.6283"/><rect fill="#F1F1F1" height="10" style="stroke:#181818;stroke-width:0.5;" width="15" x="859.5485" y="555.6283"/><rect fill="#F1F1F1" height="2" style="stroke:#181818;stroke-width:0.5;" width="4" x="857.5485" y="557.6283"/><rect fill="#F1F1F1" height="2" style="stroke:#181818;stroke-width:0.5;" width="4" x="857.5485" y="561.6283"/><text fill="#000000" font-family="sans-serif" font-size="14" lengthAdjust="spacing" textLength="168.4785" x="686.07" y="584.1634">SessionStart hook merge</text><text fill="#000000" font-family="sans-serif" font-size="14" lengthAdjust="spacing" textLength="123.2314" x="686.07" y="600.6517">(CMP-INIT-HOOK)</text></g><!--link Dev to Cli--><g class="link" data-entity-1="ent0002" data-entity-2="ent0003" data-link-type="dependency" data-source-line="23" id="lnk8"><path d="M495.31,119.6283 C495.31,142.4183 495.31,165.7483 495.31,190.1483" fill="none" id="Dev-to-Cli" style="stroke:#181818;stroke-width:1;"/><polygon fill="#181818" points="495.31,196.1483,499.31,187.1483,495.31,191.1483,491.31,187.1483,495.31,196.1483" style="stroke:#181818;stroke-width:1;"/><text fill="#000000" font-family="sans-serif" font-size="13" lengthAdjust="spacing" textLength="112.6582" x="496.31" y="163.0466">mdd init [--force]</text></g><!--link Cli to Engine--><g class="link" data-entity-1="ent0003" data-entity-2="ent0004" data-link-type="dependency" data-source-line="24" id="lnk9"><path d="M495.31,292.6183 C495.31,316.4383 495.31,339.2583 495.31,363.0983" fill="none" id="Cli-to-Engine" style="stroke:#181818;stroke-width:1;"/><polygon fill="#181818" points="495.31,369.0983,499.31,360.0983,495.31,364.0983,491.31,360.0983,495.31,369.0983" style="stroke:#181818;stroke-width:1;"/><text fill="#000000" font-family="sans-serif" font-size="13" lengthAdjust="spacing" textLength="217.2676" x="496.31" y="335.9966">init_with_conflict_handler(handler)</text></g><!--link Cli to Cli--><g class="link" data-entity-1="ent0003" data-entity-2="ent0003" data-link-type="dependency" data-source-line="25" id="lnk10"><path d="M585.34,228.6583 C605.44,230.1083 620.11,235.3783 620.11,244.4583 C620.11,253.5283 611.4244,258.3666 591.3244,259.8166" fill="none" id="Cli-to-Cli" style="stroke:#181818;stroke-width:1;"/><polygon fill="#181818" points="585.34,260.2483,594.6045,263.5903,590.327,259.8885,594.0289,255.6111,585.34,260.2483" style="stroke:#181818;stroke-width:1;"/><text fill="#000000" font-family="sans-serif" font-size="13" lengthAdjust="spacing" textLength="277.3354" x="626.11" y="249.5266">handler = force ? always Overwrite : prompt</text></g><!--link Engine to Text--><g class="link" data-entity-1="ent0004" data-entity-2="ent0005" data-link-type="dependency" data-source-line="26" id="lnk11"><path d="M360.79,436.7683 C284.13,449.7483 197.8,469.4583 169.31,495.3883 C156.17,507.3283 150.3702,519.6016 146.4402,536.1016" fill="none" id="Engine-to-Text" style="stroke:#181818;stroke-width:1;"/><polygon fill="#181818" points="145.05,541.9383,151.0265,534.11,146.2085,537.0743,143.2442,532.2564,145.05,541.9383" style="stroke:#181818;stroke-width:1;"/><text fill="#000000" font-family="sans-serif" font-size="13" lengthAdjust="spacing" textLength="313.1426" x="170.31" y="508.9566">regenerable files (handler decides overwrite/skip)</text></g><!--link Engine to Yaml--><g class="link" data-entity-1="ent0004" data-entity-2="ent0006" data-link-type="dependency" data-source-line="27" id="lnk12"><path d="M492.8,465.7283 C492.28,480.6583 491.97,497.2083 492.31,512.3883 C492.52,522.0583 492.6315,526.4939 493.0515,536.2339" fill="none" id="Engine-to-Yaml" style="stroke:#181818;stroke-width:1;"/><polygon fill="#181818" points="493.31,542.2283,496.9186,533.0643,493.0946,537.2329,488.926,533.409,493.31,542.2283" style="stroke:#181818;stroke-width:1;"/><text fill="#000000" font-family="sans-serif" font-size="13" lengthAdjust="spacing" textLength="238.564" x="493.31" y="508.9566">state files (create or forward-migrate)</text></g><!--link Engine to Hook--><g class="link" data-entity-1="ent0004" data-entity-2="ent0007" data-link-type="dependency" data-source-line="28" id="lnk13"><path d="M629.99,440.2183 C667.77,451.6183 706.59,468.9783 736.31,495.3883 C752.44,509.7183 760.4911,526.3474 766.2711,544.6274" fill="none" id="Engine-to-Hook" style="stroke:#181818;stroke-width:1;"/><polygon fill="#181818" points="768.08,550.3483,769.1806,540.5611,766.5726,545.5809,761.5528,542.973,768.08,550.3483" style="stroke:#181818;stroke-width:1;"/><text fill="#000000" font-family="sans-serif" font-size="13" lengthAdjust="spacing" textLength="241.7886" x="750.58" y="508.9566">upsert SessionStart hook (idempotent)</text></g><?plantuml-src hPFDRjD04CVlVefHEH1Bk4alY5gbGDEKHgKVKdj155dRtR6zPBrhpMwRHWY9X-1TkFCeF0dZZpGfBN0X5yUUcVz_vpUpVgPjBKXK85rLEuismES8O4_8MK7ksggnCuvsTeHIg7PtuSdsQ3BP7ZsMGbYvcoxfu63l-NWh-XBvEtqXWwF_glqKNcir61-V9TEJwKKoVZUDWNyhlL1g3t8X3S9WDDfw4VzUCZbvEpsPnFye6RUlpHiedUSmaDT43IYl5SOfM9olw7du-VKRoo0aIUv88l2v83UY064LgpKXIIW29ewIIXV4Vm5jeIr2BK89t2YrQNYhVT2s06rrW4h8adDeiHa57VX4n_lxNQHnT7CE-LBNyEDxty334yTHr8rXOnzlqBYQZORmfk3G1WWF_3MALekmKIdLENpec_buQUy3lxISaqYZXvxai1BQRf9ljSP6hxYkYvwH-uGof6cZdCrrA3FfR6wq35d9Z0pIkai_ezx84RPEHbyjZIOTkaUzvgG3PW5lGwRphDBUCqvM9-IUaSILmHIKa_uPyAOQmyyhu-JCnwtq1HV-JNWXAfDrmymSPVqmMTy7VgRGzAMBOI0XSIZgcjoDCBtsUwvzNFiS-PZEdWT10KhdPb0X5RWEvV3qzAYJEUHu5F7WUDzsM-WfF1nRr0IQX1vM2d-6F-YVyLrHfzf_XfVGxVKh46Ok5XvEULzR7fp4BLPrY7gRfhXbcC8QSSYrGGzB7r0e-IBvTkzRdI7FeexNHLfOARHOb-KTT-1jvlFC1QdbPRfNsV3XoklQ8zDyY7R0ram-DBVZ5m00?></g></svg>