<svg xmlns="http://www.w3.org/2000/svg" xmlns:xlink="http://www.w3.org/1999/xlink" contentStyleType="text/css" data-diagram-type="SEQUENCE" height="683px" preserveAspectRatio="none" style="width:1535px;height:683px;background:#FFFFFF;" version="1.1" viewBox="0 0 1535 683" width="1535px" zoomAndPan="magnify"><?plantuml 1.2026.3?><defs/><g><g class="title" data-source-line="38"><text fill="#000000" font-family="sans-serif" font-size="14" font-weight="700" lengthAdjust="spacing" textLength="306.1885" x="610.9272" y="28.5352">Rasterize cycle diff pumls to SVG (current)</text></g><rect fill="none" height="46.6211" style="stroke:#000000;stroke-width:1.5;" width="396.1455" x="185.1606" y="269.707"/><rect fill="none" height="148.8633" style="stroke:#000000;stroke-width:1.5;" width="662.8418" x="856.2012" y="359.6387"/><g class="participant-lifeline" data-entity-uid="part1" data-qualified-name="Dev" data-source-line="40" id="part1-lifeline"><g><title>..added..</title><rect fill="#000000" fill-opacity="0.00000" height="448.6582" width="8" x="38.1592" y="135.4648"/><line style="stroke:#181818;stroke-width:0.5;stroke-dasharray:5,5;" x1="42" x2="42" y1="135.4648" y2="584.123"/></g></g><g class="participant-lifeline" data-entity-uid="part2" data-qualified-name="Trigger" data-source-line="41" id="part2-lifeline"><g><title>.mdd-cycle close</title><rect fill="#000000" fill-opacity="0.00000" height="448.6582" width="8" x="257.5718" y="135.4648"/><line style="stroke:#181818;stroke-width:0.5;stroke-dasharray:5,5;" x1="261.1606" x2="261.1606" y1="135.4648" y2="584.123"/></g></g><g class="participant-lifeline" data-entity-uid="part3" data-qualified-name="Rend" data-source-line="42" id="part3-lifeline"><g><title>render_cycle_diffs</title><rect fill="#000000" fill-opacity="0.00000" height="448.6582" width="8" x="499.1313" y="135.4648"/><line style="stroke:#181818;stroke-width:0.5;stroke-dasharray:5,5;" x1="502.9565" x2="502.9565" y1="135.4648" y2="584.123"/></g></g><g class="participant-lifeline" data-entity-uid="part4" data-qualified-name="Core" data-source-line="43" id="part4-lifeline"><g><title>Project..cycle_diff_puml_files</title><rect fill="#000000" fill-opacity="0.00000" height="448.6582" width="8" x="747.2798" y="135.4648"/><line style="stroke:#181818;stroke-width:0.5;stroke-dasharray:5,5;" x1="750.3584" x2="750.3584" y1="135.4648" y2="584.123"/></g></g><g class="participant-lifeline" data-entity-uid="part5" data-qualified-name="Paths" data-source-line="44" id="part5-lifeline"><g><title>render_paths</title><rect fill="#000000" fill-opacity="0.00000" height="448.6582" width="8" x="941.939" y="135.4648"/><line style="stroke:#181818;stroke-width:0.5;stroke-dasharray:5,5;" x1="945.2012" x2="945.2012" y1="135.4648" y2="584.123"/></g></g><g class="participant-lifeline" data-entity-uid="part6" data-qualified-name="Store" data-source-line="45" id="part6-lifeline"><g><title>.mdd.cycles..N..</title><rect fill="#000000" fill-opacity="0.00000" height="448.6582" width="8" x="1221.9502" y="135.4648"/><line style="stroke:#181818;stroke-width:0.5;stroke-dasharray:5,5;" x1="1225.7559" x2="1225.7559" y1="135.4648" y2="584.123"/></g></g><g class="participant-lifeline" data-entity-uid="part7" data-qualified-name="Out" data-source-line="46" id="part7-lifeline"><g><title>.mdd.rendered.cycles..N..</title><rect fill="#000000" fill-opacity="0.00000" height="448.6582" width="8" x="1402.5938" y="135.4648"/><line style="stroke:#181818;stroke-width:0.5;stroke-dasharray:5,5;" x1="1406.1445" x2="1406.1445" y1="135.4648" y2="584.123"/></g></g><g class="participant participant-head" data-entity-uid="part1" data-qualified-name="Dev" data-source-line="40" id="part1-head"><text fill="#000000" font-family="sans-serif" font-size="14" font-style="italic" lengthAdjust="spacing" textLength="56.6357" x="10.8413" y="116.0234">&#171;added&#187;</text><text fill="#000000" font-family="sans-serif" font-size="14" lengthAdjust="spacing" textLength="68.3184" x="5" y="132.5117">Developer</text><ellipse cx="42.1592" cy="50.9883" fill="#90EE90" rx="8" ry="8" style="stroke:#181818;stroke-width:0.5;"/><path d="M42.1592,58.9883 L42.1592,85.9883 M29.1592,66.9883 L55.1592,66.9883 M42.1592,85.9883 L29.1592,100.9883 M42.1592,85.9883 L55.1592,100.9883" fill="none" style="stroke:#181818;stroke-width:0.5;"/></g><g class="participant participant-tail" data-entity-uid="part1" data-qualified-name="Dev" data-source-line="40" id="part1-tail"><text fill="#000000" font-family="sans-serif" font-size="14" font-style="italic" lengthAdjust="spacing" textLength="56.6357" x="10.8413" y="596.6582">&#171;added&#187;</text><text fill="#000000" font-family="sans-serif" font-size="14" lengthAdjust="spacing" textLength="68.3184" x="5" y="613.1465">Developer</text><ellipse cx="42.1592" cy="624.5996" fill="#90EE90" rx="8" ry="8" style="stroke:#181818;stroke-width:0.5;"/><path d="M42.1592,632.5996 L42.1592,659.5996 M29.1592,640.5996 L55.1592,640.5996 M42.1592,659.5996 L29.1592,674.5996 M42.1592,659.5996 L55.1592,674.5996" fill="none" style="stroke:#181818;stroke-width:0.5;"/></g><g class="participant participant-head" data-entity-uid="part2" data-qualified-name="Trigger" data-source-line="41" id="part2-head"><rect fill="#E2E2F0" height="46.9766" rx="2.5" ry="2.5" style="stroke:#181818;stroke-width:0.5;" width="132.8223" x="195.1606" y="87.4883"/><text fill="#000000" font-family="sans-serif" font-size="14" lengthAdjust="spacing" textLength="118.8223" x="202.1606" y="108.0234">/mdd-cycle close</text><text fill="#000000" font-family="sans-serif" font-size="14" lengthAdjust="spacing" textLength="109.4502" x="206.8467" y="124.5117">or /mdd-render</text></g><g class="participant participant-tail" data-entity-uid="part2" data-qualified-name="Trigger" data-source-line="41" id="part2-tail"><rect fill="#E2E2F0" height="46.9766" rx="2.5" ry="2.5" style="stroke:#181818;stroke-width:0.5;" width="132.8223" x="195.1606" y="583.123"/><text fill="#000000" font-family="sans-serif" font-size="14" lengthAdjust="spacing" textLength="118.8223" x="202.1606" y="603.6582">/mdd-cycle close</text><text fill="#000000" font-family="sans-serif" font-size="14" lengthAdjust="spacing" textLength="109.4502" x="206.8467" y="620.1465">or /mdd-render</text></g><g class="participant participant-head" data-entity-uid="part3" data-qualified-name="Rend" data-source-line="42" id="part3-head"><rect fill="#E2E2F0" height="46.9766" rx="2.5" ry="2.5" style="stroke:#181818;stroke-width:0.5;" width="136.3496" x="434.9565" y="87.4883"/><text fill="#000000" font-family="sans-serif" font-size="14" lengthAdjust="spacing" textLength="122.3496" x="441.9565" y="108.0234">render_cycle_diffs</text><text fill="#000000" font-family="sans-serif" font-size="14" lengthAdjust="spacing" textLength="92.4561" x="456.9033" y="124.5117">(mdd-render)</text></g><g class="participant participant-tail" data-entity-uid="part3" data-qualified-name="Rend" data-source-line="42" id="part3-tail"><rect fill="#E2E2F0" height="46.9766" rx="2.5" ry="2.5" style="stroke:#181818;stroke-width:0.5;" width="136.3496" x="434.9565" y="583.123"/><text fill="#000000" font-family="sans-serif" font-size="14" lengthAdjust="spacing" textLength="122.3496" x="441.9565" y="603.6582">render_cycle_diffs</text><text fill="#000000" font-family="sans-serif" font-size="14" lengthAdjust="spacing" textLength="92.4561" x="456.9033" y="620.1465">(mdd-render)</text></g><g class="participant participant-head" data-entity-uid="part4" data-qualified-name="Core" data-source-line="43" id="part4-head"><rect fill="#E2E2F0" height="46.9766" rx="2.5" ry="2.5" style="stroke:#181818;stroke-width:0.5;" width="209.8428" x="646.3584" y="87.4883"/><text fill="#000000" font-family="sans-serif" font-size="14" lengthAdjust="spacing" textLength="195.8428" x="653.3584" y="108.0234">Project::cycle_diff_puml_files</text><text fill="#000000" font-family="sans-serif" font-size="14" lengthAdjust="spacing" textLength="148.8389" x="676.8604" y="124.5117">(WalkDir .mdd/cycles)</text></g><g class="participant participant-tail" data-entity-uid="part4" data-qualified-name="Core" data-source-line="43" id="part4-tail"><rect fill="#E2E2F0" height="46.9766" rx="2.5" ry="2.5" style="stroke:#181818;stroke-width:0.5;" width="209.8428" x="646.3584" y="583.123"/><text fill="#000000" font-family="sans-serif" font-size="14" lengthAdjust="spacing" textLength="195.8428" x="653.3584" y="603.6582">Project::cycle_diff_puml_files</text><text fill="#000000" font-family="sans-serif" font-size="14" lengthAdjust="spacing" textLength="148.8389" x="676.8604" y="620.1465">(WalkDir .mdd/cycles)</text></g><g class="participant participant-head" data-entity-uid="part5" data-qualified-name="Paths" data-source-line="44" id="part5-head"><rect fill="#E2E2F0" height="46.9766" rx="2.5" ry="2.5" style="stroke:#181818;stroke-width:0.5;" width="159.4756" x="866.2012" y="87.4883"/><text fill="#000000" font-family="sans-serif" font-size="14" lengthAdjust="spacing" textLength="89.1611" x="901.3584" y="108.0234">render_paths</text><text fill="#000000" font-family="sans-serif" font-size="14" lengthAdjust="spacing" textLength="145.4756" x="873.2012" y="124.5117">+ PlantUmlCommand</text></g><g class="participant participant-tail" data-entity-uid="part5" data-qualified-name="Paths" data-source-line="44" id="part5-tail"><rect fill="#E2E2F0" height="46.9766" rx="2.5" ry="2.5" style="stroke:#181818;stroke-width:0.5;" width="159.4756" x="866.2012" y="583.123"/><text fill="#000000" font-family="sans-serif" font-size="14" lengthAdjust="spacing" textLength="89.1611" x="901.3584" y="603.6582">render_paths</text><text fill="#000000" font-family="sans-serif" font-size="14" lengthAdjust="spacing" textLength="145.4756" x="873.2012" y="620.1465">+ PlantUmlCommand</text></g><g class="participant participant-head" data-entity-uid="part6" data-qualified-name="Store" data-source-line="45" id="part6-head"><text fill="#000000" font-family="sans-serif" font-size="14" lengthAdjust="spacing" textLength="130.3887" x="1157.7559" y="116.0234">.mdd/cycles/&lt;N&gt;/</text><text fill="#000000" font-family="sans-serif" font-size="14" lengthAdjust="spacing" textLength="106.4629" x="1169.7188" y="132.5117">&lt;rel&gt;.diff.puml</text><path d="M1207.9502,66.4883 C1207.9502,56.4883 1225.9502,56.4883 1225.9502,56.4883 C1225.9502,56.4883 1243.9502,56.4883 1243.9502,66.4883 L1243.9502,92.4883 C1243.9502,102.4883 1225.9502,102.4883 1225.9502,102.4883 C1225.9502,102.4883 1207.9502,102.4883 1207.9502,92.4883 L1207.9502,66.4883" fill="#E2E2F0" style="stroke:#181818;stroke-width:0.5;"/><path d="M1207.9502,66.4883 C1207.9502,76.4883 1225.9502,76.4883 1225.9502,76.4883 C1225.9502,76.4883 1243.9502,76.4883 1243.9502,66.4883" fill="none" style="stroke:#181818;stroke-width:0.5;"/></g><g class="participant participant-tail" data-entity-uid="part6" data-qualified-name="Store" data-source-line="45" id="part6-tail"><text fill="#000000" font-family="sans-serif" font-size="14" lengthAdjust="spacing" textLength="130.3887" x="1157.7559" y="596.6582">.mdd/cycles/&lt;N&gt;/</text><text fill="#000000" font-family="sans-serif" font-size="14" lengthAdjust="spacing" textLength="106.4629" x="1169.7188" y="613.1465">&lt;rel&gt;.diff.puml</text><path d="M1207.9502,626.0996 C1207.9502,616.0996 1225.9502,616.0996 1225.9502,616.0996 C1225.9502,616.0996 1243.9502,616.0996 1243.9502,626.0996 L1243.9502,652.0996 C1243.9502,662.0996 1225.9502,662.0996 1225.9502,662.0996 C1225.9502,662.0996 1207.9502,662.0996 1207.9502,652.0996 L1207.9502,626.0996" fill="#E2E2F0" style="stroke:#181818;stroke-width:0.5;"/><path d="M1207.9502,626.0996 C1207.9502,636.0996 1225.9502,636.0996 1225.9502,636.0996 C1225.9502,636.0996 1243.9502,636.0996 1243.9502,626.0996" fill="none" style="stroke:#181818;stroke-width:0.5;"/></g><g class="participant participant-head" data-entity-uid="part7" data-qualified-name="Out" data-source-line="46" id="part7-head"><text fill="#000000" font-family="sans-serif" font-size="14" lengthAdjust="spacing" textLength="198.8984" x="1304.1445" y="116.0234">.mdd/rendered/cycles/&lt;N&gt;/</text><text fill="#000000" font-family="sans-serif" font-size="14" lengthAdjust="spacing" textLength="94.958" x="1356.1147" y="132.5117">&lt;rel&gt;.diff.svg</text><path d="M1388.5938,66.4883 C1388.5938,56.4883 1406.5938,56.4883 1406.5938,56.4883 C1406.5938,56.4883 1424.5938,56.4883 1424.5938,66.4883 L1424.5938,92.4883 C1424.5938,102.4883 1406.5938,102.4883 1406.5938,102.4883 C1406.5938,102.4883 1388.5938,102.4883 1388.5938,92.4883 L1388.5938,66.4883" fill="#E2E2F0" style="stroke:#181818;stroke-width:0.5;"/><path d="M1388.5938,66.4883 C1388.5938,76.4883 1406.5938,76.4883 1406.5938,76.4883 C1406.5938,76.4883 1424.5938,76.4883 1424.5938,66.4883" fill="none" style="stroke:#181818;stroke-width:0.5;"/></g><g class="participant participant-tail" data-entity-uid="part7" data-qualified-name="Out" data-source-line="46" id="part7-tail"><text fill="#000000" font-family="sans-serif" font-size="14" lengthAdjust="spacing" textLength="198.8984" x="1304.1445" y="596.6582">.mdd/rendered/cycles/&lt;N&gt;/</text><text fill="#000000" font-family="sans-serif" font-size="14" lengthAdjust="spacing" textLength="94.958" x="1356.1147" y="613.1465">&lt;rel&gt;.diff.svg</text><path d="M1388.5938,626.0996 C1388.5938,616.0996 1406.5938,616.0996 1406.5938,616.0996 C1406.5938,616.0996 1424.5938,616.0996 1424.5938,626.0996 L1424.5938,652.0996 C1424.5938,662.0996 1406.5938,662.0996 1406.5938,662.0996 C1406.5938,662.0996 1388.5938,662.0996 1388.5938,652.0996 L1388.5938,626.0996" fill="#E2E2F0" style="stroke:#181818;stroke-width:0.5;"/><path d="M1388.5938,626.0996 C1388.5938,636.0996 1406.5938,636.0996 1406.5938,636.0996 C1406.5938,636.0996 1424.5938,636.0996 1424.5938,626.0996" fill="none" style="stroke:#181818;stroke-width:0.5;"/></g><g class="message" data-entity-1="part1" data-entity-2="part2" data-source-line="48" id="msg1"><polygon fill="#181818" points="249.5718,162.7754,259.5718,166.7754,249.5718,170.7754,253.5718,166.7754" style="stroke:#181818;stroke-width:1;"/><line style="stroke:#181818;stroke-width:1;" x1="42.1592" x2="255.5718" y1="166.7754" y2="166.7754"/><text fill="#000000" font-family="sans-serif" font-size="13" lengthAdjust="spacing" textLength="195.4126" x="49.1592" y="162.0332">close cycle N (or /mdd-render)</text></g><g class="message" data-entity-1="part2" data-entity-2="part3" data-source-line="49" id="msg2"><polygon fill="#181818" points="491.1313,192.0859,501.1313,196.0859,491.1313,200.0859,495.1313,196.0859" style="stroke:#181818;stroke-width:1;"/><line style="stroke:#181818;stroke-width:1;" x1="261.5718" x2="497.1313" y1="196.0859" y2="196.0859"/><text fill="#000000" font-family="sans-serif" font-size="13" lengthAdjust="spacing" textLength="166.2705" x="268.5718" y="191.3438">render_cycle_diffs(project)</text></g><g class="message" data-entity-1="part3" data-entity-2="part4" data-source-line="50" id="msg3"><polygon fill="#181818" points="739.2798,221.3965,749.2798,225.3965,739.2798,229.3965,743.2798,225.3965" style="stroke:#181818;stroke-width:1;"/><line style="stroke:#181818;stroke-width:1;" x1="503.1313" x2="745.2798" y1="225.3965" y2="225.3965"/><text fill="#000000" font-family="sans-serif" font-size="13" lengthAdjust="spacing" textLength="138.874" x="510.1313" y="220.6543">cycle_diff_puml_files()</text></g><g class="message" data-entity-1="part4" data-entity-2="part3" data-source-line="51" id="msg4"><polygon fill="#181818" points="514.1313,250.707,504.1313,254.707,514.1313,258.707,510.1313,254.707" style="stroke:#181818;stroke-width:1;"/><line style="stroke:#181818;stroke-width:1;stroke-dasharray:2,2;" x1="508.1313" x2="750.2798" y1="254.707" y2="254.707"/><text fill="#000000" font-family="sans-serif" font-size="13" lengthAdjust="spacing" textLength="224.1484" x="520.1313" y="249.9648">sorted Vec&lt;PathBuf&gt; of *.diff.puml</text></g><path d="M185.1606,269.707 L252.3457,269.707 L252.3457,277.0176 L242.3457,287.0176 L185.1606,287.0176 L185.1606,269.707" fill="#EEEEEE" style="stroke:#000000;stroke-width:1.5;"/><rect fill="none" height="46.6211" style="stroke:#000000;stroke-width:1.5;" width="396.1455" x="185.1606" y="269.707"/><text fill="#000000" font-family="sans-serif" font-size="13" font-weight="700" lengthAdjust="spacing" textLength="22.1851" x="200.1606" y="283.2754">opt</text><text fill="#000000" font-family="sans-serif" font-size="11" font-weight="700" lengthAdjust="spacing" textLength="105.5581" x="267.3457" y="282.3418">[no diff pumls yet]</text><g class="message" data-entity-1="part3" data-entity-2="part2" data-source-line="53" id="msg5"><polygon fill="#181818" points="272.5718,304.3281,262.5718,308.3281,272.5718,312.3281,268.5718,308.3281" style="stroke:#181818;stroke-width:1;"/><line style="stroke:#181818;stroke-width:1;stroke-dasharray:2,2;" x1="266.5718" x2="502.1313" y1="308.3281" y2="308.3281"/><text fill="#000000" font-family="sans-serif" font-size="13" lengthAdjust="spacing" textLength="217.5596" x="278.5718" y="303.5859">empty RenderReport (not an error)</text></g><g class="message" data-entity-1="part3" data-entity-2="part5" data-source-line="55" id="msg6"><polygon fill="#181818" points="933.939,340.6387,943.939,344.6387,933.939,348.6387,937.939,344.6387" style="stroke:#181818;stroke-width:1;"/><line style="stroke:#181818;stroke-width:1;" x1="503.1313" x2="939.939" y1="344.6387" y2="344.6387"/><text fill="#000000" font-family="sans-serif" font-size="13" lengthAdjust="spacing" textLength="256.4453" x="510.1313" y="339.8965">render_paths(project, plantuml, sources)</text></g><path d="M856.2012,359.6387 L930.6479,359.6387 L930.6479,366.9492 L920.6479,376.9492 L856.2012,376.9492 L856.2012,359.6387" fill="#EEEEEE" style="stroke:#000000;stroke-width:1.5;"/><rect fill="none" height="148.8633" style="stroke:#000000;stroke-width:1.5;" width="662.8418" x="856.2012" y="359.6387"/><text fill="#000000" font-family="sans-serif" font-size="13" font-weight="700" lengthAdjust="spacing" textLength="29.4468" x="871.2012" y="373.207">loop</text><text fill="#000000" font-family="sans-serif" font-size="11" font-weight="700" lengthAdjust="spacing" textLength="124.4697" x="945.6479" y="372.2734">[each &lt;rel&gt;.diff.puml]</text><g class="message" data-entity-1="part5" data-entity-2="part6" data-source-line="57" id="msg7"><polygon fill="#181818" points="1213.9502,394.2598,1223.9502,398.2598,1213.9502,402.2598,1217.9502,398.2598" style="stroke:#181818;stroke-width:1;"/><line style="stroke:#181818;stroke-width:1;" x1="945.939" x2="1219.9502" y1="398.2598" y2="398.2598"/><text fill="#000000" font-family="sans-serif" font-size="13" lengthAdjust="spacing" textLength="73.9375" x="952.939" y="393.5176">read source</text></g><g class="message" data-entity-1="part5" data-entity-2="part5" data-source-line="58" id="msg8"><line style="stroke:#181818;stroke-width:1;" x1="945.939" x2="987.939" y1="458.1914" y2="458.1914"/><line style="stroke:#181818;stroke-width:1;" x1="987.939" x2="987.939" y1="458.1914" y2="471.1914"/><line style="stroke:#181818;stroke-width:1;" x1="946.939" x2="987.939" y1="471.1914" y2="471.1914"/><polygon fill="#181818" points="956.939,467.1914,946.939,471.1914,956.939,475.1914,952.939,471.1914" style="stroke:#181818;stroke-width:1;"/><text fill="#000000" font-family="sans-serif" font-size="13" lengthAdjust="spacing" textLength="235.2378" x="952.939" y="422.8281">out = Project::rendered_svg_path(rel)</text><text fill="#000000" font-family="sans-serif" font-size="13" lengthAdjust="spacing" textLength="266.0112" x="952.939" y="438.1387">(.mdd/cycles/ -&gt; .mdd/rendered/cycles/,</text><text fill="#000000" font-family="sans-serif" font-size="13" lengthAdjust="spacing" textLength="143.3682" x="952.939" y="453.4492">.diff.puml -&gt; .diff.svg)</text></g><g class="message" data-entity-1="part5" data-entity-2="part7" data-source-line="59" id="msg9"><polygon fill="#181818" points="1394.5938,496.502,1404.5938,500.502,1394.5938,504.502,1398.5938,500.502" style="stroke:#181818;stroke-width:1;"/><line style="stroke:#181818;stroke-width:1;" x1="945.939" x2="1400.5938" y1="500.502" y2="500.502"/><text fill="#000000" font-family="sans-serif" font-size="13" lengthAdjust="spacing" textLength="291.4463" x="952.939" y="495.7598">java -jar plantuml -tsvg -pipe -&gt; write mirror</text></g><g class="message" data-entity-1="part5" data-entity-2="part3" data-source-line="61" id="msg10"><polygon fill="#181818" points="514.1313,532.8125,504.1313,536.8125,514.1313,540.8125,510.1313,536.8125" style="stroke:#181818;stroke-width:1;"/><line style="stroke:#181818;stroke-width:1;stroke-dasharray:2,2;" x1="508.1313" x2="944.939" y1="536.8125" y2="536.8125"/><text fill="#000000" font-family="sans-serif" font-size="13" lengthAdjust="spacing" textLength="197.7612" x="520.1313" y="532.0703">rendered project-relative paths</text></g><g class="message" data-entity-1="part3" data-entity-2="part1" data-source-line="62" id="msg11"><polygon fill="#181818" points="53.1592,562.123,43.1592,566.123,53.1592,570.123,49.1592,566.123" style="stroke:#181818;stroke-width:1;"/><line style="stroke:#181818;stroke-width:1;stroke-dasharray:2,2;" x1="47.1592" x2="502.1313" y1="566.123" y2="566.123"/><text fill="#000000" font-family="sans-serif" font-size="13" lengthAdjust="spacing" textLength="163.6807" x="59.1592" y="561.3809">RenderReport { rendered }</text></g><?plantuml-src jLJHRjem57ttLronXoKRWUvbKYE6sWAj9grT1sltWeJSn81Rnuvi1yIg_lkk7GA1ikvbl40IttDyxpd7DazSvbJJ30h34ceOF1E02veypRGgPDfJGkbEXwOfIxjTU7TwCXYSdXmgqInJYxBeylBYS-yJUI5cmvu8Qionk5MMAycaFHA_iTGUInVD4albJ1oBdoPMwIDnuw_b2S_fVrR-FPpnD1WDVaJ3mKr_C8pwNoylez7zLUYMD9i6TwD1-R7_zVngU7wD2xZKAxJ654I6fmocGYs16k1PBbY6draAN4AMfXCiIfcEu_9_agmImIOfdqvDZ2nC5XdJpd6sO7e5BOIqVOrfTswwRMnPT5kkl9KNcO05fuYwrUeHhOpZBTl4BK-c7850PGgQ6iiq_ut4D9c3LS2jgKFBVbWwCOlP9ATs3XdN6krRSdosSuPfCKgWN70hKFIxwsyk-ncIjxm0PoapoI7Xcj0uDz53mOMDuVNOiAJYoVnZXgRhG5Pervw1dESud1-dfeYTeyEp-Rh9JFJA7hq8IyqjGjmmNjXgvhyeZ4giHMWrGcAvnOCotEZeCU0AmMridAOuBGH9cOIGa3B_ZJvwALJETCDb0jzWaqvIZt6ZZKr59MyYb65ZYN3_iUpKutzgFfinlOjyBUjO1bjWw953VDw5lIqwKln2R_fSrtDOSlMKPWTRyDwCvSTz0ppgrYsIb5hwu6xxndwynt8lu1uricwpFTGXxtRWw9v7Voyi8Kxqg5jf1t6fxzh36mXsTGv9LOWOfneS2cwGb-g5n9TWgHF5SHyICmY9Nuwsb4PfTp7SiwJZXBaefbrGK_Ym7P-et89KzPIjcCMhhDnnPoAMvNRb5vWUiXov8P3AOl21kGo7nDbVjUgTs8xbNQi6QaBklCFjcjXZeHCqdGYbylAmxLc4tPHaoEgTygmqNKFhozMcgh3mvOsh9y0TGanVFHuEVz3uvbZMZh-hgkmFwtjZ373dHxgW43rIlHaH8klEUUHk4rVdxuZriVUAhHdsau36hUN2q0Xg-OA1Lv5il76XYtSTUTwYN_u0?></g></svg>