<svg xmlns="http://www.w3.org/2000/svg" xmlns:xlink="http://www.w3.org/1999/xlink" contentStyleType="text/css" data-diagram-type="DESCRIPTION" height="604px" preserveAspectRatio="none" style="width:1472px;height:604px;background:#FFFFFF;" version="1.1" viewBox="0 0 1472 604" width="1472px" zoomAndPan="magnify"><?plantuml 1.2026.3?><defs/><g><g class="title" data-source-line="21"><text fill="#000000" font-family="sans-serif" font-size="14" font-weight="700" lengthAdjust="spacing" textLength="447.5693" x="508.8603" y="23.5352">/mdd-deploy becomes an executor &#183; cycle 0021 diff (current)</text></g><!--cluster mdd toolchain (utility, outside the parity gate)--><g class="cluster" data-qualified-name="mdd toolchain .utility. outside the parity gate." data-source-line="27" id="ent0003"><rect fill="none" height="510" rx="2.5" ry="2.5" style="stroke:#181818;stroke-width:1;" width="1344.78" x="113.51" y="52.5583"/><text fill="#000000" font-family="sans-serif" font-size="14" font-weight="700" lengthAdjust="spacing" textLength="333.1768" x="619.3116" y="68.0934">mdd toolchain (utility, outside the parity gate)</text></g><!--entity Guide--><g class="entity" data-qualified-name="mdd toolchain .utility. outside the parity gate..Guide" data-source-line="28" id="ent0004"><ellipse cx="308.6755" cy="253.5614" fill="#F1F1F1" rx="179.1655" ry="38.2331" style="stroke:#181818;stroke-width:0.5;"/><text fill="#000000" font-family="sans-serif" font-size="14" lengthAdjust="spacing" textLength="270.0605" x="173.6452" y="243.9213">PLAN then EXECUTE an Azure Container</text><text fill="#000000" font-family="sans-serif" font-size="14" lengthAdjust="spacing" textLength="240.7344" x="188.3083" y="260.4095">Apps deployment: diagram + IaC +</text><text fill="#000000" font-family="sans-serif" font-size="14" lengthAdjust="spacing" textLength="228.293" x="194.529" y="276.8978">runbook, then run it to live traffic</text></g><!--entity Dialect--><g class="entity" data-qualified-name="mdd toolchain .utility. outside the parity gate..Dialect" data-source-line="29" id="ent0005"><ellipse cx="823.8561" cy="205.5575" fill="#F1F1F1" rx="133.5961" ry="29.1192" style="stroke:#181818;stroke-width:0.5;"/><text fill="#000000" font-family="sans-serif" font-size="14" lengthAdjust="spacing" textLength="233.7959" x="706.9581" y="206.9007">Choose &amp; CONFIRM the IaC dialect</text><text fill="#000000" font-family="sans-serif" font-size="14" lengthAdjust="spacing" textLength="150.7256" x="748.4933" y="223.389">(Bicep XOR Terraform)</text></g><!--entity Purpose--><g class="entity" data-qualified-name="mdd toolchain .utility. outside the parity gate..Purpose" data-source-line="30" id="ent0006"><ellipse cx="823.8592" cy="517.5561" fill="#F1F1F1" rx="130.5892" ry="28.5178" style="stroke:#181818;stroke-width:0.5;"/><text fill="#000000" font-family="sans-serif" font-size="14" lengthAdjust="spacing" textLength="230.1934" x="708.7625" y="519.5321">Confirm the deployment PURPOSE</text><text fill="#000000" font-family="sans-serif" font-size="14" lengthAdjust="spacing" textLength="129.8965" x="758.911" y="536.0204">(dev/staging/prod)</text></g><!--entity AccessCheck--><g class="entity" data-qualified-name="mdd toolchain .utility. outside the parity gate..AccessCheck" data-source-line="31" id="ent0007"><ellipse cx="823.8611" cy="298.5565" fill="#F1F1F1" rx="134.7911" ry="29.3582" style="stroke:#181818;stroke-width:0.5;"/><text fill="#000000" font-family="sans-serif" font-size="14" lengthAdjust="spacing" textLength="243.1133" x="702.3044" y="301.3607">Account for who READS and WRITES</text><text fill="#000000" font-family="sans-serif" font-size="14" lengthAdjust="spacing" textLength="132.3848" x="757.6687" y="317.849">every secured store</text></g><!--entity Execute--><g class="entity" data-qualified-name="mdd toolchain .utility. outside the parity gate..Execute" data-source-line="32" id="ent0008"><ellipse cx="823.8592" cy="408.5621" fill="#90EE90" rx="215.0192" ry="45.4038" style="stroke:#181818;stroke-width:0.5;"/><text fill="#000000" font-family="sans-serif" font-size="14" font-style="italic" lengthAdjust="spacing" textLength="56.6357" x="795.5413" y="379.5265">&#171;added&#187;</text><text fill="#000000" font-family="sans-serif" font-size="14" lengthAdjust="spacing" textLength="249.4639" x="699.1273" y="396.0148">EXECUTE the runbook: manage auth,</text><text fill="#000000" font-family="sans-serif" font-size="14" lengthAdjust="spacing" textLength="294.9434" x="676.3875" y="412.503">dry-run, apply, provision, migrate, route &#8212;</text><text fill="#000000" font-family="sans-serif" font-size="14" lengthAdjust="spacing" textLength="350.0684" x="648.825" y="428.9913">autonomous except irreversible steps; halt on error</text></g><!--entity GoLive--><g class="entity" data-qualified-name="mdd toolchain .utility. outside the parity gate..GoLive" data-source-line="33" id="ent0009"><ellipse cx="1301.0853" cy="457.5535" fill="#90EE90" rx="141.2053" ry="40.6052" style="stroke:#181818;stroke-width:0.5;"/><text fill="#000000" font-family="sans-serif" font-size="14" font-style="italic" lengthAdjust="spacing" textLength="56.6357" x="1272.7675" y="433.7344">&#171;added&#187;</text><text fill="#000000" font-family="sans-serif" font-size="14" lengthAdjust="spacing" textLength="227.1309" x="1187.5199" y="450.2227">CONFIRM go-live: surface the full</text><text fill="#000000" font-family="sans-serif" font-size="14" lengthAdjust="spacing" textLength="242.3887" x="1179.891" y="466.711">production billing multi-factor gate</text><text fill="#000000" font-family="sans-serif" font-size="14" lengthAdjust="spacing" textLength="174.665" x="1213.7528" y="483.1993">before live-traffic cutover</text></g><!--entity Inspect--><g class="entity" data-qualified-name="mdd toolchain .utility. outside the parity gate..Inspect" data-source-line="34" id="ent0010"><ellipse cx="823.8648" cy="114.5592" fill="#F1F1F1" rx="122.2048" ry="26.841" style="stroke:#181818;stroke-width:0.5;"/><text fill="#000000" font-family="sans-serif" font-size="14" lengthAdjust="spacing" textLength="147.7861" x="749.9717" y="108.8397">Inspect the generated</text><text fill="#000000" font-family="sans-serif" font-size="14" lengthAdjust="spacing" textLength="190.9961" x="728.3667" y="125.3279">deployment diagram as SVG</text></g><!--entity Op--><g class="entity" data-qualified-name="Op" data-source-line="25" id="ent0002"><ellipse cx="36.2559" cy="411.8183" fill="#F1F1F1" rx="8" ry="8" style="stroke:#181818;stroke-width:0.5;"/><path d="M36.2559,419.8183 L36.2559,446.8183 M23.2559,427.8183 L49.2559,427.8183 M36.2559,446.8183 L23.2559,461.8183 M36.2559,446.8183 L49.2559,461.8183" fill="none" style="stroke:#181818;stroke-width:0.5;"/><text fill="#000000" font-family="sans-serif" font-size="14" lengthAdjust="spacing" textLength="60.5117" x="6" y="476.8534">Operator</text></g><!--link Op to Guide--><g class="link" data-entity-1="ent0002" data-entity-2="ent0004" data-link-type="dependency" data-source-line="37" id="lnk11"><path d="M53.77,403.0983 C63.78,383.4783 78.18,360.4683 96.51,344.5583 C126.66,318.3983 159.8952,300.9814 196.0052,286.8014" fill="none" id="Op-to-Guide" style="stroke:#181818;stroke-width:1;"/><polygon fill="#181818" points="201.59,284.6083,191.7507,284.1747,196.936,286.4359,194.6748,291.6212,201.59,284.6083" style="stroke:#181818;stroke-width:1;"/></g><!--link Op to Dialect--><g class="link" data-entity-1="ent0002" data-entity-2="ent0005" data-link-type="dependency" data-source-line="38" id="lnk12"><path d="M66.97,429.3683 C76.29,425.9983 86.7,422.6883 96.51,420.5583 C201.65,397.7383 497.45,448.9283 578.84,378.5583 C622.72,340.6283 567.42,292.1583 608.84,251.5583 C631.1,229.7483 655.2122,218.5311 685.6522,211.5411" fill="none" id="Op-to-Dialect" style="stroke:#181818;stroke-width:1;"/><polygon fill="#181818" points="691.5,210.1983,681.8331,208.314,686.6268,211.3173,683.6235,216.1111,691.5,210.1983" style="stroke:#181818;stroke-width:1;"/></g><!--link Op to Purpose--><g class="link" data-entity-1="ent0002" data-entity-2="ent0006" data-link-type="dependency" data-source-line="39" id="lnk13"><path d="M66.7,475.4983 C77.73,485.8383 91.11,495.9483 105.51,501.5583 C313.12,582.4983 574.9004,559.0548 717.3704,537.0348" fill="none" id="Op-to-Purpose" style="stroke:#181818;stroke-width:1;"/><polygon fill="#181818" points="723.3,536.1183,713.7946,533.5399,718.3587,536.882,715.0166,541.4461,723.3,536.1183" style="stroke:#181818;stroke-width:1;"/></g><!--link Op to AccessCheck--><g class="link" data-entity-1="ent0002" data-entity-2="ent0007" data-link-type="dependency" data-source-line="40" id="lnk14"><path d="M66.7,444.3983 C167.3,453.4983 495.72,478.0383 578.84,419.5583 C607.87,399.1383 581.72,368.4483 608.84,345.5583 C632.61,325.5083 657.1773,314.8333 687.5673,307.7333" fill="none" id="Op-to-AccessCheck" style="stroke:#181818;stroke-width:1;"/><polygon fill="#181818" points="693.41,306.3683,683.736,304.5207,688.5411,307.5058,685.556,312.3109,693.41,306.3683" style="stroke:#181818;stroke-width:1;"/></g><!--link Op to Execute--><g class="link" data-entity-1="ent0002" data-entity-2="ent0008" data-link-type="dependency" data-source-line="41" id="lnk15"><path d="M66.9,457.4283 C76.13,461.5683 86.51,465.4583 96.51,467.5583 C306.32,511.5683 365.98,492.9283 578.84,467.5583 C617.25,462.9883 652.5322,455.9156 689.8522,446.7756" fill="none" id="Op-to-Execute" style="stroke:#181818;stroke-width:1;"/><polygon fill="#181818" points="695.68,445.3483,685.9868,443.604,690.8235,446.5377,687.8899,451.3744,695.68,445.3483" style="stroke:#181818;stroke-width:1;"/></g><!--link Op to GoLive--><g class="link" data-entity-1="ent0002" data-entity-2="ent0009" data-link-type="dependency" data-source-line="42" id="lnk16"><path d="M47.03,480.1583 C56.65,509.2783 74.52,547.2483 105.51,565.5583 C140.16,586.0383 905.76,589.7983 1038.88,563.5583 C1107.54,550.0283 1175.6096,521.1733 1227.0796,496.0133" fill="none" id="Op-to-GoLive" style="stroke:#181818;stroke-width:1;"/><polygon fill="#181818" points="1232.47,493.3783,1222.6277,493.7372,1227.978,495.5741,1226.141,500.9244,1232.47,493.3783" style="stroke:#181818;stroke-width:1;"/></g><!--link Op to Inspect--><g class="link" data-entity-1="ent0002" data-entity-2="ent0010" data-link-type="dependency" data-source-line="43" id="lnk17"><path d="M42.85,402.8283 C52.59,341.0383 74.63,224.3883 105.51,197.5583 C282.84,43.4883 578.976,69.4859 728.166,95.0259" fill="none" id="Op-to-Inspect" style="stroke:#181818;stroke-width:1;"/><polygon fill="#181818" points="734.08,96.0383,725.884,90.577,729.1517,95.1946,724.5341,98.4623,734.08,96.0383" style="stroke:#181818;stroke-width:1;"/></g><!--link Guide to Dialect--><g class="link" data-entity-1="ent0004" data-entity-2="ent0005" data-link-type="dependency" data-source-line="45" id="lnk18"><path d="M473.46,238.2383 C547.09,231.3583 626.5261,223.9275 694.4661,217.5675" fill="none" id="Guide-to-Dialect" style="stroke:#181818;stroke-width:1;stroke-dasharray:7,7;"/><polygon fill="#181818" points="700.44,217.0083,691.1064,213.8645,695.4618,217.4743,691.852,221.8297,700.44,217.0083" style="stroke:#181818;stroke-width:1;"/><text fill="#000000" font-family="sans-serif" font-size="13" lengthAdjust="spacing" textLength="59.3569" x="518.84" y="226.1266">&#171;include&#187;</text></g><!--link Guide to Purpose--><g class="link" data-entity-1="ent0004" data-entity-2="ent0006" data-link-type="dependency" data-source-line="46" id="lnk19"><path d="M349.28,291.0083 C403.5,340.1383 505.89,425.4983 608.84,471.5583 C640.84,485.8783 671.6906,494.6516 705.5906,501.5516" fill="none" id="Guide-to-Purpose" style="stroke:#181818;stroke-width:1;stroke-dasharray:7,7;"/><polygon fill="#181818" points="711.47,502.7483,703.4486,497.0336,706.5705,501.751,701.853,504.8729,711.47,502.7483" style="stroke:#181818;stroke-width:1;"/><text fill="#000000" font-family="sans-serif" font-size="13" lengthAdjust="spacing" textLength="59.3569" x="518.84" y="419.6566">&#171;include&#187;</text></g><!--link Guide to AccessCheck--><g class="link" data-entity-1="ent0004" data-entity-2="ent0007" data-link-type="dependency" data-source-line="47" id="lnk20"><path d="M485.01,260.7883 C516.28,262.6183 548.55,264.8583 578.84,267.5583 C621.8,271.3983 662.9012,276.2561 704.1212,281.6761" fill="none" id="Guide-to-AccessCheck" style="stroke:#181818;stroke-width:1;stroke-dasharray:7,7;"/><polygon fill="#181818" points="710.07,282.4583,701.6683,277.3191,705.1127,281.8064,700.6253,285.2508,710.07,282.4583" style="stroke:#181818;stroke-width:1;"/><text fill="#000000" font-family="sans-serif" font-size="13" lengthAdjust="spacing" textLength="59.3569" x="518.84" y="259.5566">&#171;include&#187;</text></g><!--link Guide to Execute--><g class="link" data-entity-1="ent0004" data-entity-2="ent0008" data-link-type="dependency" data-source-line="48" id="lnk21"><path d="M443.67,279.0483 C487.88,290.0183 536.54,304.9383 578.84,324.5583 C593.61,331.4083 594.18,338.5083 608.84,345.5583 C631.7,356.5583 651.1724,364.2079 675.9724,372.2479" fill="none" id="Guide-to-Execute" style="stroke:#181818;stroke-width:1;stroke-dasharray:7,7;"/><polygon fill="#181818" points="681.68,374.0983,674.3522,367.5177,676.9237,372.5563,671.8851,375.1278,681.68,374.0983" style="stroke:#181818;stroke-width:1;"/><text fill="#000000" font-family="sans-serif" font-size="13" lengthAdjust="spacing" textLength="59.3569" x="518.84" y="298.6266">&#171;include&#187;</text></g><!--link Execute to GoLive--><g class="link" data-entity-1="ent0008" data-entity-2="ent0009" data-link-type="dependency" data-source-line="49" id="lnk22"><path d="M1017.81,428.4583 C1068.08,433.6383 1115.1516,438.4929 1161.5116,443.2729" fill="none" id="Execute-to-GoLive" style="stroke:#181818;stroke-width:1;stroke-dasharray:7,7;"/><polygon fill="#181818" points="1167.48,443.8883,1158.9377,438.9863,1162.5064,443.3755,1158.1172,446.9441,1167.48,443.8883" style="stroke:#181818;stroke-width:1;"/><text fill="#000000" font-family="sans-serif" font-size="13" lengthAdjust="spacing" textLength="59.3569" x="1069.88" y="431.0966">&#171;include&#187;</text></g><!--link Guide to Inspect--><g class="link" data-entity-1="ent0004" data-entity-2="ent0010" data-link-type="dependency" data-source-line="50" id="lnk23"><path d="M403.93,220.8383 C462.46,201.2183 539.5,176.6483 608.84,158.5583 C647.75,148.4183 685.2436,140.2905 722.7236,132.8905" fill="none" id="Guide-to-Inspect" style="stroke:#181818;stroke-width:1;stroke-dasharray:7,7;"/><polygon fill="#181818" points="728.61,131.7283,719.0057,129.5473,723.7047,132.6968,720.5552,137.3958,728.61,131.7283" style="stroke:#181818;stroke-width:1;"/><text fill="#000000" font-family="sans-serif" font-size="13" lengthAdjust="spacing" textLength="57.1924" x="519.84" y="164.0066">&#171;extend&#187;</text></g><?plantuml-src jLJHRjis57tNLrnum6QZbftkeK3T8fZZA861D3BifEi0lz3YbKo48WMISkeD0_eH-vUzxrFs9RkafDXk6knbUnF5otCFppcNza6eYXbMGcqnOnRXjmZWWcKFXT6ruZCjjNd_dd6E_FmSldjxbYHlpxvLOh3KkwRewkhYpUnrz7jadz1PvhJvdx0DPewfGlwtt7-0dmJltw-I-39PtAI_nCcdP7P_bmpW0EcsmaAspwXr_-pinzU3vwUkqvlvntyzD0jBlm8kyXpwMMqCAWTMS1nCO5no7dEifDu3dHPgXyOXXzpeaeuNjU1CPHXh9Qb0EGqCybfAQ4Ydon7SFMeec4CBp204Cl3tbp_WY2iXjPU4_YEJ3qGLmTHgepLzQv1YX-0CotEH3Q5Y51a87Pa3GNo9b1KRYOHZ7LPs25ic7PK06gFD09ZYy4mRwDlQv2p3q2wmtWWfXIe8fwob4t7UnCVJXmtcsZIrWKzME_BE34PmgqbQLK3hvZku9baGnWHpAPYabC0O5hMfDF4UmpJBqDhP5hC7MisLhNo55ySWtOoF8YSSkNAi_GOpNNe9wKgVqRSsyDUVhPlFxHj4aSJSUUsCABQETdrOXLPHr5ofbrPe67trW5b8goWwfBb7ZUcebjcM2GNzsWaft7u8kdO-5q436W7w5wGPzC80T8FSMznCRtsDUdALQ4z_hUc6CwqSOQ9PgsbLMMYkLnBb2N5aXH-hLp1dCtYrLcq2XWqMhK2uh-CGw0UzZndCjjfh_JtCqjkh-V93OEnHUUF7MlKlH8OLV4gNS4SXOUHjEGXWhMKdS5hbmfG1vS0O5lVBHRfA28pZRcmTAoW5uyfetY2rbXyZaVSq_Wwe7JnkDIoJwUKgnFFdvVmkMQsL3_CUg9xauXHdobm0EqhDCM2dyD74JA1aYXKqQxNR3jUActrCMqDWLIN9HIAu4vQoC8HIaE8EXq2F4aMSndAjw9HMkjIrfQYHHgSZrWpOkzC12mIJa4iyF3Wd2hO-53hsxatWwz5RAwzR7JBQZU7p8LohTWezIDn6e9l49WhwngVZcoIwKVCz2rG-_yX9duEZNGG9QFNnEW2sX-XXZj8AulYyJLkxwDBIBZlBs-MnQUslLgOdiC2tMtNDekO56OsU6i24xYHK9ckETAl3VlUklBH__DgyLDDPTxhV_VKLhQml0NJA-dtyx52Hyly0?></g></svg>