<svg xmlns="http://www.w3.org/2000/svg" xmlns:xlink="http://www.w3.org/1999/xlink" contentStyleType="text/css" data-diagram-type="STATE" height="691px" preserveAspectRatio="none" style="width:967px;height:691px;background:#FFFFFF;" version="1.1" viewBox="0 0 967 691" width="967px" zoomAndPan="magnify"><?plantuml 1.2026.3?><defs/><g><g class="title" data-source-line="9"><text fill="#000000" font-family="sans-serif" font-size="14" font-weight="700" lengthAdjust="spacing" textLength="182.1504" x="389.3722" y="23.5352">Cycle lifecycle (objective)</text></g><path d="M278.24,170.4883 L613.8413,170.4883 A12.5,12.5 0 0 1 626.3413,182.9883 L626.3413,196.9766 L265.74,196.9766 L265.74,182.9883 A12.5,12.5 0 0 1 278.24,170.4883" fill="#F1F1F1"/><rect fill="none" height="260.4883" rx="12.5" ry="12.5" style="stroke:#181818;stroke-width:0.5;" width="360.6013" x="265.74" y="170.4883"/><line style="stroke:#181818;stroke-width:0.5;" x1="265.74" x2="626.3413" y1="196.9766" y2="196.9766"/><text fill="#000000" font-family="sans-serif" font-size="14" lengthAdjust="spacing" textLength="36.1758" x="427.9528" y="189.0234">Open</text><g class="start_entity" data-qualified-name="Open..start.Open" data-source-line="14" id="ent0004"><ellipse cx="360.45" cy="217.9766" fill="#222222" rx="10" ry="10" style="stroke:#222222;stroke-width:1;"/></g><g class="entity" data-qualified-name="Open.Modeling" id="ent0005"><rect fill="#F1F1F1" height="50" rx="12.5" ry="12.5" style="stroke:#181818;stroke-width:0.5;" width="82.7813" x="319.06" y="264.9766"/><line style="stroke:#181818;stroke-width:0.5;" x1="319.06" x2="401.8413" y1="291.4648" y2="291.4648"/><text fill="#000000" font-family="sans-serif" font-size="14" lengthAdjust="spacing" textLength="62.7813" x="329.06" y="283.5117">Modeling</text></g><g class="entity" data-qualified-name="Open.Implementing" id="ent0007"><rect fill="#F1F1F1" height="50" rx="12.5" ry="12.5" style="stroke:#181818;stroke-width:0.5;" width="114.0215" x="303.44" y="367.9766"/><line style="stroke:#181818;stroke-width:0.5;" x1="303.44" x2="417.4615" y1="394.4648" y2="394.4648"/><text fill="#000000" font-family="sans-serif" font-size="14" lengthAdjust="spacing" textLength="94.0215" x="313.44" y="386.5117">Implementing</text></g><!--link *start*Open to Modeling--><g class="link" data-entity-1="ent0004" data-entity-2="ent0005" data-link-type="dependency" data-source-line="14" id="lnk6"><path d="M360.45,228.4166 C360.45,237.6766 360.45,246.1666 360.45,258.6566" fill="none" id="*start*Open-to-Modeling" style="stroke:#181818;stroke-width:1;"/><polygon fill="#181818" points="360.45,264.6566,364.45,255.6566,360.45,259.6566,356.45,255.6566,360.45,264.6566" style="stroke:#181818;stroke-width:1;"/></g><!--link Modeling to Implementing--><g class="link" data-entity-1="ent0005" data-entity-2="ent0007" data-link-type="dependency" data-source-line="15" id="lnk8"><path d="M318.85,304.6066 C305.83,311.0566 292.92,320.2266 285.45,332.9766 C276.74,347.8366 282.354,357.2482 298.184,366.8782" fill="none" id="Modeling-to-Implementing" style="stroke:#181818;stroke-width:1;"/><polygon fill="#181818" points="303.31,369.9966,297.6999,361.9017,299.0383,367.3979,293.5421,368.7364,303.31,369.9966" style="stroke:#181818;stroke-width:1;"/><text fill="#000000" font-family="sans-serif" font-size="13" lengthAdjust="spacing" textLength="128.7495" x="286.45" y="346.5449">/mdd-validate clean</text></g><!--link Implementing to Modeling--><g class="link" data-entity-1="ent0007" data-entity-2="ent0005" data-link-type="dependency" data-source-line="16" id="lnk9"><path d="M401.65,367.6766 C407.22,362.5566 412.15,356.6566 415.45,349.9766 C421.97,336.7966 418.4827,328.3675 406.6827,318.4475" fill="none" id="Implementing-to-Modeling" style="stroke:#181818;stroke-width:1;"/><polygon fill="#181818" points="402.09,314.5866,406.4051,323.4398,405.9172,317.804,411.553,317.3162,402.09,314.5866" style="stroke:#181818;stroke-width:1;"/><text fill="#000000" font-family="sans-serif" font-size="13" lengthAdjust="spacing" textLength="182.5713" x="418.77" y="346.5449">/mdd-map refreshes current</text></g><g class="start_entity" data-qualified-name=".start." data-source-line="11" id="ent0002"><ellipse cx="446.04" cy="53.4883" fill="#222222" rx="10" ry="10" style="stroke:#222222;stroke-width:1;"/></g><g class="entity" data-qualified-name="AwaitingClarification" id="ent0010"><rect fill="#F1F1F1" height="50" rx="12.5" ry="12.5" style="stroke:#181818;stroke-width:0.5;" width="160.834" x="468.62" y="533.5983"/><line style="stroke:#181818;stroke-width:0.5;" x1="468.62" x2="629.454" y1="560.0866" y2="560.0866"/><text fill="#000000" font-family="sans-serif" font-size="14" lengthAdjust="spacing" textLength="140.834" x="478.62" y="552.1334">AwaitingClarification</text></g><g class="entity" data-qualified-name="Closed" id="ent0013"><rect fill="#F1F1F1" height="50" rx="12.5" ry="12.5" style="stroke:#181818;stroke-width:0.5;" width="66.0811" x="7" y="533.5983"/><line style="stroke:#181818;stroke-width:0.5;" x1="7" x2="73.0811" y1="560.0866" y2="560.0866"/><text fill="#000000" font-family="sans-serif" font-size="14" lengthAdjust="spacing" textLength="46.0811" x="17" y="552.1334">Closed</text></g><g class="entity" data-qualified-name="Aborted" id="ent0015"><rect fill="#F1F1F1" height="50" rx="12.5" ry="12.5" style="stroke:#181818;stroke-width:0.5;" width="74.6465" x="664.72" y="533.5983"/><line style="stroke:#181818;stroke-width:0.5;" x1="664.72" x2="739.3665" y1="560.0866" y2="560.0866"/><text fill="#000000" font-family="sans-serif" font-size="14" lengthAdjust="spacing" textLength="54.6465" x="674.72" y="552.1334">Aborted</text></g><g class="end_entity" data-qualified-name=".end." data-source-line="25" id="ent0017"><ellipse cx="370.04" cy="666.2183" fill="none" rx="11" ry="11" style="stroke:#222222;stroke-width:1;"/><ellipse cx="370.04" cy="666.2183" fill="#222222" rx="6" ry="6" style="stroke:#222222;stroke-width:1;"/></g><g class="entity" data-qualified-name="GMN2" data-source-line="29" id="ent0003"><path d="M661.18,265.1083 L661.18,296.7283 L626.54,300.7283 L661.18,304.7283 L661.18,336.3505 A0,0 0 0 0 661.18,336.3505 L952.8948,336.3505 A0,0 0 0 0 952.8948,336.3505 L952.8948,275.1083 L942.8948,265.1083 L661.18,265.1083 A0,0 0 0 0 661.18,265.1083" fill="#FEFFDD" style="stroke:#181818;stroke-width:0.5;"/><path d="M942.8948,265.1083 L942.8948,275.1083 L952.8948,275.1083 L942.8948,265.1083" fill="#FEFFDD" style="stroke:#181818;stroke-width:0.5;"/><text fill="#000000" font-family="sans-serif" font-size="13" lengthAdjust="spacing" textLength="236.9136" x="667.18" y="282.6766">While Open: the cycle owns the active</text><text fill="#000000" font-family="sans-serif" font-size="13" lengthAdjust="spacing" textLength="257.8037" x="667.18" y="297.9872">snapshot. before/ was captured at entry.</text><text fill="#000000" font-family="sans-serif" font-size="13" lengthAdjust="spacing" textLength="270.7148" x="667.18" y="313.2977">Each implement-&gt;map-&gt;validate-&gt;review</text><text fill="#000000" font-family="sans-serif" font-size="13" lengthAdjust="spacing" textLength="169.9077" x="667.18" y="328.6083">mismatch loops back here.</text></g><g class="entity" data-qualified-name="GMN5" data-source-line="36" id="ent0006"><path d="M108.05,522.9783 L108.05,554.5983 L73.43,558.5983 L108.05,562.5983 L108.05,594.2205 A0,0 0 0 0 108.05,594.2205 L434.0358,594.2205 A0,0 0 0 0 434.0358,594.2205 L434.0358,532.9783 L424.0358,522.9783 L108.05,522.9783 A0,0 0 0 0 108.05,522.9783" fill="#FEFFDD" style="stroke:#181818;stroke-width:0.5;"/><path d="M424.0358,522.9783 L424.0358,532.9783 L434.0358,532.9783 L424.0358,522.9783" fill="#FEFFDD" style="stroke:#181818;stroke-width:0.5;"/><text fill="#000000" font-family="sans-serif" font-size="13" lengthAdjust="spacing" textLength="304.9858" x="114.05" y="540.5466">Terminal success. .mdd/cycles/&lt;n&gt;/ now holds</text><text fill="#000000" font-family="sans-serif" font-size="13" lengthAdjust="spacing" textLength="235.1045" x="114.05" y="555.8572">the manifest, before/, after/, and the</text><text fill="#000000" font-family="sans-serif" font-size="13" lengthAdjust="spacing" textLength="286.5649" x="114.05" y="571.1677">annotated &lt;diagram&gt;.diff.puml artifacts that</text><text fill="#000000" font-family="sans-serif" font-size="13" lengthAdjust="spacing" textLength="199.748" x="114.05" y="586.4783">USE-CYCLE-DIFF-VIEW renders.</text></g><!--link *start* to Open--><g class="link" data-entity-1="ent0002" data-entity-2="ent0002" data-link-type="dependency" data-source-line="11" id="lnk3"><path d="M446.04,63.7983 C446.04,82.2683 446.04,119.5783 446.04,164.1283" fill="none" id="*start*-to-Open" style="stroke:#181818;stroke-width:1;"/><polygon fill="#181818" points="446.04,170.1283,450.04,161.1283,446.04,165.1283,442.04,161.1283,446.04,170.1283" style="stroke:#181818;stroke-width:1;"/><text fill="#000000" font-family="sans-serif" font-size="13" lengthAdjust="spacing" textLength="178.3311" x="447.04" y="107.0566">USE-RUN-CYCLE picks entry</text><text fill="#000000" font-family="sans-serif" font-size="13" lengthAdjust="spacing" textLength="151.0107" x="460.7002" y="122.3672">(generate if description,</text><text fill="#000000" font-family="sans-serif" font-size="13" lengthAdjust="spacing" textLength="176.668" x="447.8715" y="137.6777">map-no-comments if none)</text></g><!--link Open to AwaitingClarification--><g class="link" data-entity-1="ent0002" data-entity-2="ent0010" data-link-type="dependency" data-source-line="19" id="lnk11"><path d="M324.77,431.2283 C317.4,452.4783 318.13,473.7983 333.04,492.9783 C366.26,535.6983 399.25,507.2783 451.04,522.9783 C461.23,526.0683 466.2517,527.6301 476.6817,531.1901" fill="none" id="Open-to-AwaitingClarification" style="stroke:#181818;stroke-width:1;"/><polygon fill="#181818" points="482.36,533.1283,475.1346,526.4355,477.628,531.5132,472.5504,534.0066,482.36,533.1283" style="stroke:#181818;stroke-width:1;"/><text fill="#000000" font-family="sans-serif" font-size="13" lengthAdjust="spacing" textLength="126.5024" x="360.2336" y="474.5466">ambiguous decision</text><text fill="#000000" font-family="sans-serif" font-size="13" lengthAdjust="spacing" textLength="178.8896" x="334.04" y="489.8572">(skill must ask, never guess)</text></g><!--link AwaitingClarification to Open--><g class="link" data-entity-1="ent0010" data-entity-2="ent0002" data-link-type="dependency" data-source-line="20" id="lnk12"><path d="M541.68,533.1383 C535.58,513.4583 526.42,485.1983 517.04,460.9783 C513.27,451.2383 511.5253,446.7677 507.3553,436.7477" fill="none" id="AwaitingClarification-to-Open" style="stroke:#181818;stroke-width:1;"/><polygon fill="#181818" points="505.05,431.2083,504.815,441.0543,506.9711,435.8245,512.201,437.9806,505.05,431.2083" style="stroke:#181818;stroke-width:1;"/><text fill="#000000" font-family="sans-serif" font-size="13" lengthAdjust="spacing" textLength="82.4497" x="529.48" y="482.0466">user answers</text></g><!--link Open to Closed--><g class="link" data-entity-1="ent0002" data-entity-2="ent0013" data-link-type="dependency" data-source-line="22" id="lnk14"><path d="M265.6,354.5783 C204.09,379.3183 138.45,413.9583 89.04,460.9783 C68.06,480.9383 56.5483,506.1769 49.1383,527.6369" fill="none" id="Open-to-Closed" style="stroke:#181818;stroke-width:1;"/><polygon fill="#181818" points="47.18,533.3083,53.8984,526.1067,48.8119,528.5821,46.3365,523.4956,47.18,533.3083" style="stroke:#181818;stroke-width:1;"/><text fill="#000000" font-family="sans-serif" font-size="13" lengthAdjust="spacing" textLength="180.2417" x="110.9746" y="474.5466">/mdd-review parity matches</text><text fill="#000000" font-family="sans-serif" font-size="13" lengthAdjust="spacing" textLength="222.1108" x="90.04" y="489.8572">(snapshot after/ + write .diff.puml)</text></g><!--link Open to Aborted--><g class="link" data-entity-1="ent0002" data-entity-2="ent0015" data-link-type="dependency" data-source-line="23" id="lnk16"><path d="M590.31,431.1183 C600.52,441.0783 610.52,451.0983 620.04,460.9783 C642.78,484.5883 663.0622,508.7788 679.1922,528.7688" fill="none" id="Open-to-Aborted" style="stroke:#181818;stroke-width:1;"/><polygon fill="#181818" points="682.96,533.4383,680.4213,523.9222,679.8202,529.5471,674.1953,528.946,682.96,533.4383" style="stroke:#181818;stroke-width:1;"/><text fill="#000000" font-family="sans-serif" font-size="13" lengthAdjust="spacing" textLength="127.4165" x="649.19" y="482.0466">user cancels the run</text></g><!--link Closed to *end*--><g class="link" data-entity-1="ent0013" data-entity-2="ent0017" data-link-type="dependency" data-source-line="25" id="lnk18"><path d="M72.53,584.0683 C78.48,587.8383 84.79,591.4083 91.04,594.2183 C189.49,638.5183 314.4839,657.8056 353.0039,663.0056" fill="none" id="Closed-to-*end*" style="stroke:#181818;stroke-width:1;"/><polygon fill="#181818" points="358.95,663.8083,350.566,658.6402,353.9949,663.1394,349.4958,666.5683,358.95,663.8083" style="stroke:#181818;stroke-width:1;"/></g><!--link Aborted to *end*--><g class="link" data-entity-1="ent0015" data-entity-2="ent0017" data-link-type="dependency" data-source-line="26" id="lnk19"><path d="M666.83,583.9883 C660.43,587.7683 653.67,591.3683 647.04,594.2183 C548.54,636.6083 424.9947,657.1257 386.9347,662.7857" fill="none" id="Aborted-to-*end*" style="stroke:#181818;stroke-width:1;"/><polygon fill="#181818" points="381,663.6683,390.4905,666.3009,385.9456,662.9328,389.3137,658.3879,381,663.6683" style="stroke:#181818;stroke-width:1;"/></g><?plantuml-src VLJBRjim4BphAnQvn6ub-Mu4HWhR0Gpa0JH9WwBfOKsj9DOKAP2KLQFeltSfMh3J1hr9g-5mPtPMbt0jYydZqrss_BgyNMUtcvlry3HDBk7QKZbPFHo_SOLh3ziV9BpSK-PaGQ1aIU8W584f0S5R53igu6wrWg6SmxtHcRToBr7DeJITPH9BA6hSyYddqPE3NleQwASdgr6f0_F8gYBBJCoedVJIQ0SJjvDA0Mbl3odJT8ui28LMbb9WmAGmQueYixINr4FBN_mXZJZS6kkd-I3YkY0dtbETmiNjkIAZ2PR3YoLXR367XvOqbuzDW3AcbRe2NrlJLVNRRW1r0R9f5JKCdyMkKbWgurYPqIoqhvdktvwXGIzgSld5DF7Igx6BazqJCmvYcYJVFdo7B5l4vkRm_BZEFZ_VHt7GIh5piTzNFQb8asNFGPOGNB2o7OnxrGsscJQPC4terWM0PlrCFmmfalzA0CRRxan1YiLpQNmSwfjHSIZCexezAba45kuTDPzu0pfd6qzmEsnwQScn3o0wQncS_4wIeOzmubEFCXnVll5y3jXiPTMPph508HqNMNUCJjCv3-XsAMZQSoYgZfoR9kypdJaQ4wHTJzQTTN2SvFm_4mnNQsnTRVZYaWC-Wu_GCu8WBsHPvctNgEcPg13JWJEc6xKWvJXV7C5E9ydnoW3bEIGZV7nFj65ctfxQX_m6MZRxfPOg3d0-C1tptUj8Z4EE63TsciEMIcDf1ZsozzZwBkmY-XYZdA5htk1JjhD5ICzYd7AsY5umhf5kS6BO50TR_Zz0pPkT9yJB4Rhzk-Uea8y-aMqa_m_0TKBmd7B8sURPqBoRNUd5ZC_tK1jLE8O79GrgtX3dqr50UZGz7NQH8Gn4pHTYSEsga5XPR1QdKG1QBqjs95Y3dk5Xc-9lOhMvkSc-RDOl74nTS1HE8lu0?></g></svg>