<svg xmlns="http://www.w3.org/2000/svg" xmlns:xlink="http://www.w3.org/1999/xlink" contentStyleType="text/css" data-diagram-type="DESCRIPTION" height="1019px" preserveAspectRatio="none" style="width:1051px;height:1019px;background:#FFFFFF;" version="1.1" viewBox="0 0 1051 1019" width="1051px" zoomAndPan="magnify"><?plantuml 1.2026.3?><defs/><g><g class="title" data-source-line="12"><text fill="#000000" font-family="sans-serif" font-size="14" font-weight="700" lengthAdjust="spacing" textLength="285.1611" x="379.4667" y="23.5352">mdd view &#8212; diagram viewer (objective)</text></g><!--cluster mdd-viewer--><g class="cluster" data-qualified-name="mdd-viewer" data-source-line="18" id="ent0003"><rect fill="none" height="336" rx="2.5" ry="2.5" style="stroke:#181818;stroke-width:1;" width="779.82" x="188.19" y="374.4583"/><text fill="#000000" font-family="sans-serif" font-size="14" font-weight="700" lengthAdjust="spacing" textLength="88.7783" x="533.7108" y="389.9934">mdd-viewer</text></g><!--entity View--><g class="entity" data-qualified-name="mdd-viewer.View" data-source-line="19" id="ent0004"><ellipse cx="327.4849" cy="540.4573" fill="#F1F1F1" rx="119.7449" ry="26.349" style="stroke:#181818;stroke-width:0.5;"/><text fill="#000000" font-family="sans-serif" font-size="14" lengthAdjust="spacing" textLength="157.6641" x="248.6528" y="536.2236">View rendered diagram</text><text fill="#000000" font-family="sans-serif" font-size="14" lengthAdjust="spacing" textLength="172.3271" x="241.3213" y="552.7119">(shapes AND text legible)</text></g><!--entity Browse--><g class="entity" data-qualified-name="mdd-viewer.Browse" data-source-line="20" id="ent0005"><ellipse cx="838.3731" cy="514.4589" fill="#F1F1F1" rx="78.9031" ry="18.1806" style="stroke:#181818;stroke-width:0.5;"/><text fill="#000000" font-family="sans-serif" font-size="14" lengthAdjust="spacing" textLength="127.4697" x="774.6382" y="519.203">Browse model files</text></g><!--entity PanZoom--><g class="entity" data-qualified-name="mdd-viewer.PanZoom" data-source-line="21" id="ent0006"><ellipse cx="838.3744" cy="435.4545" fill="#F1F1F1" rx="112.8544" ry="25.9162" style="stroke:#181818;stroke-width:0.5;"/><text fill="#000000" font-family="sans-serif" font-size="14" lengthAdjust="spacing" textLength="146.6787" x="765.035" y="431.3813">Pan and zoom canvas</text><text fill="#000000" font-family="sans-serif" font-size="14" lengthAdjust="spacing" textLength="158.0811" x="759.3339" y="447.8696">(scroll zoom, drag pan)</text></g><!--entity Fisheye--><g class="entity" data-qualified-name="mdd-viewer.Fisheye" data-source-line="22" id="ent0007"><ellipse cx="838.374" cy="673.4551" fill="#F1F1F1" rx="93.784" ry="21.1568" style="stroke:#181818;stroke-width:0.5;"/><text fill="#000000" font-family="sans-serif" font-size="14" lengthAdjust="spacing" textLength="161.7725" x="757.4877" y="678.1992">Focus via center fisheye</text></g><!--entity Panels--><g class="entity" data-qualified-name="mdd-viewer.Panels" data-source-line="23" id="ent0008"><ellipse cx="838.3743" cy="592.4571" fill="#F1F1F1" rx="113.6443" ry="25.1289" style="stroke:#181818;stroke-width:0.5;"/><text fill="#000000" font-family="sans-serif" font-size="14" lengthAdjust="spacing" textLength="205.3584" x="735.6951" y="597.2013">Collapse / expand side panels</text></g><!--entity Trace--><g class="entity" data-qualified-name="mdd-viewer.Trace" data-source-line="24" id="ent0009"><ellipse cx="327.4782" cy="628.4559" fill="#F1F1F1" rx="123.2882" ry="27.0576" style="stroke:#181818;stroke-width:0.5;"/><text fill="#000000" font-family="sans-serif" font-size="14" lengthAdjust="spacing" textLength="226.0098" x="214.4733" y="633.2001">Inspect model IDs and trace links</text></g><!--entity ViewOcl--><g class="entity" data-qualified-name="mdd-viewer.ViewOcl" data-source-line="25" id="ent0010"><ellipse cx="327.4839" cy="435.4592" fill="#F1F1F1" rx="103.0539" ry="25.9009" style="stroke:#181818;stroke-width:0.5;"/><text fill="#000000" font-family="sans-serif" font-size="14" lengthAdjust="spacing" textLength="144.0742" x="255.4468" y="432.5544">View OCL constraints</text><text fill="#000000" font-family="sans-serif" font-size="14" lengthAdjust="spacing" textLength="133.2666" x="260.8506" y="449.0427">(source or diagram)</text></g><!--entity Dev--><g class="entity" data-qualified-name="Dev" data-source-line="16" id="ent0002"><ellipse cx="40.1592" cy="678.7083" fill="#F1F1F1" rx="8" ry="8" style="stroke:#181818;stroke-width:0.5;"/><path d="M40.1592,686.7083 L40.1592,713.7083 M27.1592,694.7083 L53.1592,694.7083 M40.1592,713.7083 L27.1592,728.7083 M40.1592,713.7083 L53.1592,728.7083" fill="none" style="stroke:#181818;stroke-width:0.5;"/><text fill="#000000" font-family="sans-serif" font-size="14" lengthAdjust="spacing" textLength="68.3184" x="6" y="743.7434">Developer</text></g><g class="entity" data-qualified-name="GMN23" data-source-line="43" id="ent0024"><path d="M177.67,73.9083 L177.67,237.0137 L477.2877,237.0137 L477.2877,83.9083 L467.2877,73.9083 L177.67,73.9083" fill="#FEFFDD" style="stroke:#181818;stroke-width:0.5;"/><path d="M467.2877,73.9083 L467.2877,83.9083 L477.2877,83.9083 L467.2877,73.9083" fill="#FEFFDD" style="stroke:#181818;stroke-width:1;"/><text fill="#000000" font-family="sans-serif" font-size="13" lengthAdjust="spacing" textLength="241.6743" x="183.67" y="91.4766">Objective (USE-VIEW-OCL): selecting a</text><text fill="#000000" font-family="sans-serif" font-size="13" lengthAdjust="spacing" textLength="223.4248" x="183.67" y="106.7872">.mdd/constraints/*.ocl file shows a</text><text fill="#000000" font-family="sans-serif" font-size="13" lengthAdjust="spacing" textLength="248.0664" x="183.67" y="122.0977">Source | Diagram toggle on the canvas.</text><text fill="#000000" font-family="sans-serif" font-size="13" lengthAdjust="spacing" textLength="217.0454" x="183.67" y="137.4083">Source = raw OCL text (read-only,</text><text fill="#000000" font-family="sans-serif" font-size="13" lengthAdjust="spacing" textLength="259.3462" x="183.67" y="152.7188">@id/context/inv highlighted); Diagram =</text><text fill="#000000" font-family="sans-serif" font-size="13" lengthAdjust="spacing" textLength="278.6177" x="183.67" y="168.0294">a synthesized PlantUML constraints diagram</text><text fill="#000000" font-family="sans-serif" font-size="13" lengthAdjust="spacing" textLength="244.4546" x="183.67" y="183.3399">(context box + inv notes + @ref to the</text><text fill="#000000" font-family="sans-serif" font-size="13" lengthAdjust="spacing" textLength="270.9561" x="183.67" y="198.6505">DOM- it constrains) rasterized through the</text><text fill="#000000" font-family="sans-serif" font-size="13" lengthAdjust="spacing" textLength="214.0557" x="183.67" y="213.961">existing SVG pipeline. Realized by</text><text fill="#000000" font-family="sans-serif" font-size="13" lengthAdjust="spacing" textLength="99.7407" x="183.67" y="229.2716">SEQ-VIEW-OCL.</text></g><g class="entity" data-qualified-name="GMN26" data-source-line="56" id="ent0027"><path d="M135.32,272.1783 L135.32,358.731 L519.6408,358.731 L519.6408,282.1783 L509.6408,272.1783 L135.32,272.1783" fill="#FEFFDD" style="stroke:#181818;stroke-width:0.5;"/><path d="M509.6408,272.1783 L509.6408,282.1783 L519.6408,282.1783 L509.6408,272.1783" fill="#FEFFDD" style="stroke:#181818;stroke-width:1;"/><text fill="#000000" font-family="sans-serif" font-size="13" lengthAdjust="spacing" textLength="265.6748" x="141.32" y="289.7466">Objective: every label, actor, message and</text><text fill="#000000" font-family="sans-serif" font-size="13" lengthAdjust="spacing" textLength="271.1655" x="141.32" y="305.0572">note in a rendered diagram is visible in the</text><text fill="#000000" font-family="sans-serif" font-size="13" lengthAdjust="spacing" textLength="363.3208" x="141.32" y="320.3677">in-app canvas. Realized by SEQ-RENDER-DIAGRAM-PAGE</text><text fill="#000000" font-family="sans-serif" font-size="13" lengthAdjust="spacing" textLength="292.1191" x="141.32" y="335.6783">which must consult a populated font database</text><text fill="#000000" font-family="sans-serif" font-size="13" lengthAdjust="spacing" textLength="276.5991" x="141.32" y="350.9888">(DOM-FONT-DATABASE) before rasterizing.</text></g><g class="entity" data-qualified-name="GMN29" data-source-line="64" id="ent0030"><path d="M640.64,240.8683 L640.64,358.0421 L1036.0946,358.0421 L1036.0946,250.8683 L1026.0946,240.8683 L640.64,240.8683" fill="#FEFFDD" style="stroke:#181818;stroke-width:0.5;"/><path d="M1026.0946,240.8683 L1026.0946,250.8683 L1036.0946,250.8683 L1026.0946,240.8683" fill="#FEFFDD" style="stroke:#181818;stroke-width:1;"/><text fill="#000000" font-family="sans-serif" font-size="13" lengthAdjust="spacing" textLength="336.2163" x="646.64" y="258.4366">Objective (USE-FISHEYE-FOCUS): the canvas applies a</text><text fill="#000000" font-family="sans-serif" font-size="13" lengthAdjust="spacing" textLength="341.4341" x="646.64" y="273.7472">center-fixed fisheye over the rendered diagram &#8212; the</text><text fill="#000000" font-family="sans-serif" font-size="13" lengthAdjust="spacing" textLength="374.4546" x="646.64" y="289.0577">centre bulges/magnifies and content compresses smoothly</text><text fill="#000000" font-family="sans-serif" font-size="13" lengthAdjust="spacing" textLength="315.5674" x="646.64" y="304.3683">toward the edges. Layered ON TOP of the existing</text><text fill="#000000" font-family="sans-serif" font-size="13" lengthAdjust="spacing" textLength="344.1699" x="646.64" y="319.6788">scroll-to-zoom global zoom; drag still pans to bring a</text><text fill="#000000" font-family="sans-serif" font-size="13" lengthAdjust="spacing" textLength="284.7305" x="646.64" y="334.9894">region into the magnified centre. Realized by</text><text fill="#000000" font-family="sans-serif" font-size="13" lengthAdjust="spacing" textLength="144.8027" x="646.64" y="350.2999">SEQ-CANVAS-FISHEYE.</text></g><g class="entity" data-qualified-name="GMN32" data-source-line="74" id="ent0033"><path d="M662.83,43.4883 L662.83,99.4199 L1013.9018,99.4199 L1013.9018,53.4883 L1003.9018,43.4883 L662.83,43.4883" fill="#FEFFDD" style="stroke:#181818;stroke-width:0.5;"/><path d="M1003.9018,43.4883 L1003.9018,53.4883 L1013.9018,53.4883 L1003.9018,43.4883" fill="#FEFFDD" style="stroke:#181818;stroke-width:1;"/><text fill="#000000" font-family="sans-serif" font-size="13" lengthAdjust="spacing" textLength="330.0718" x="668.83" y="61.0566">The toolbar no longer has Reset / Zoom + / Zoom -</text><text fill="#000000" font-family="sans-serif" font-size="13" lengthAdjust="spacing" textLength="299.6982" x="668.83" y="76.3672">buttons. Zoom is scroll-only (global, at cursor);</text><text fill="#000000" font-family="sans-serif" font-size="13" lengthAdjust="spacing" textLength="300.8345" x="668.83" y="91.6777">the fisheye is the focus mechanism on top of it.</text></g><g class="entity" data-qualified-name="GMN35" data-source-line="80" id="ent0036"><path d="M649.62,134.8383 L649.62,206.0805 L1027.1171,206.0805 L1027.1171,144.8383 L1017.1171,134.8383 L649.62,134.8383" fill="#FEFFDD" style="stroke:#181818;stroke-width:0.5;"/><path d="M1017.1171,134.8383 L1017.1171,144.8383 L1027.1171,144.8383 L1017.1171,134.8383" fill="#FEFFDD" style="stroke:#181818;stroke-width:1;"/><text fill="#000000" font-family="sans-serif" font-size="13" lengthAdjust="spacing" textLength="356.4971" x="655.62" y="152.4066">Objective (USE-TOGGLE-PANELS): each side panel shows</text><text fill="#000000" font-family="sans-serif" font-size="13" lengthAdjust="spacing" textLength="322.3594" x="655.62" y="167.7172">an inner-edge chevron handle; clicking it collapses</text><text fill="#000000" font-family="sans-serif" font-size="13" lengthAdjust="spacing" textLength="271.8066" x="655.62" y="183.0277">the panel to a thin sliver, clicking the sliver</text><text fill="#000000" font-family="sans-serif" font-size="13" lengthAdjust="spacing" textLength="316.9321" x="655.62" y="198.3383">re-expands it. Realized by SEQ-PANEL-COLLAPSE.</text></g><!--link Dev to View--><g class="link" data-entity-1="ent0002" data-entity-2="ent0004" data-link-type="dependency" data-source-line="28" id="lnk11"><path d="M60.58,669.7983 C76.76,641.5783 102.45,604.6783 135.32,583.4583 C159.75,567.6883 183.3358,558.9628 211.7058,552.5928" fill="none" id="Dev-to-View" style="stroke:#181818;stroke-width:1;"/><polygon fill="#181818" points="217.56,551.2783,207.9023,549.3472,212.6815,552.3737,209.6549,557.1528,217.56,551.2783" style="stroke:#181818;stroke-width:1;"/></g><!--link Dev to Browse--><g class="link" data-entity-1="ent0002" data-entity-2="ent0005" data-link-type="dependency" data-source-line="29" id="lnk12"><path d="M74.74,724.2483 C171.28,767.0383 452.71,873.2983 610.64,738.4583 C675.32,683.2283 581.06,610.1583 640.64,549.4583 C672.11,517.3983 716.0807,508.9118 757.7807,508.2618" fill="none" id="Dev-to-Browse" style="stroke:#181818;stroke-width:1;"/><polygon fill="#181818" points="763.78,508.1683,754.7188,504.309,758.7806,508.2462,754.8434,512.3081,763.78,508.1683" style="stroke:#181818;stroke-width:1;"/></g><!--link Dev to PanZoom--><g class="link" data-entity-1="ent0002" data-entity-2="ent0006" data-link-type="dependency" data-source-line="30" id="lnk13"><path d="M74.54,709.8683 C153.35,712.3683 356.56,713.9883 519.64,673.4583 C562.51,662.7983 583.07,667.9783 610.64,633.4583 C654.43,578.6283 591.62,528.6683 640.64,478.4583 C662.92,455.6283 688.4289,444.7561 719.5989,438.7361" fill="none" id="Dev-to-PanZoom" style="stroke:#181818;stroke-width:1;"/><polygon fill="#181818" points="725.49,437.5983,715.8948,435.3775,720.5807,438.5464,717.4118,443.2324,725.49,437.5983" style="stroke:#181818;stroke-width:1;"/></g><!--link Dev to Fisheye--><g class="link" data-entity-1="ent0002" data-entity-2="ent0007" data-link-type="dependency" data-source-line="31" id="lnk14"><path d="M43.53,747.0483 C48.29,786.9683 62.43,847.4583 104.32,876.4583 C289.33,1004.5583 400.44,956.8083 610.64,876.4583 C708.11,839.1983 786.5739,743.4409 818.9739,699.4109" fill="none" id="Dev-to-Fisheye" style="stroke:#181818;stroke-width:1;"/><polygon fill="#181818" points="822.53,694.5783,813.9741,699.4564,819.5666,698.6054,820.4175,704.1979,822.53,694.5783" style="stroke:#181818;stroke-width:1;"/></g><!--link Dev to Panels--><g class="link" data-entity-1="ent0002" data-entity-2="ent0008" data-link-type="dependency" data-source-line="32" id="lnk15"><path d="M55.31,746.7683 C65.42,768.1883 81.35,793.0083 104.32,805.4583 C302.14,912.7183 438.32,950.1783 610.64,805.4583 C669.73,755.8383 587.09,690.0083 640.64,634.4583 C662.57,611.6983 687.6963,600.9125 718.6263,595.0125" fill="none" id="Dev-to-Panels" style="stroke:#181818;stroke-width:1;"/><polygon fill="#181818" points="724.52,593.8883,714.9299,591.6455,719.6086,594.8252,716.4289,599.5038,724.52,593.8883" style="stroke:#181818;stroke-width:1;"/></g><!--link Dev to Trace--><g class="link" data-entity-1="ent0002" data-entity-2="ent0009" data-link-type="dependency" data-source-line="33" id="lnk16"><path d="M74.57,693.5983 C84.07,689.6783 94.51,685.6483 104.32,682.4583 C147.16,668.5183 189.8292,657.6578 230.5792,648.3978" fill="none" id="Dev-to-Trace" style="stroke:#181818;stroke-width:1;"/><polygon fill="#181818" points="236.43,647.0683,226.7674,645.162,231.5543,648.1762,228.5401,652.9632,236.43,647.0683" style="stroke:#181818;stroke-width:1;"/></g><!--link Dev to ViewOcl--><g class="link" data-entity-1="ent0002" data-entity-2="ent0010" data-link-type="dependency" data-source-line="34" id="lnk17"><path d="M48.26,669.8983 C58.97,622.4983 83.74,542.6983 135.32,496.4583 C163.33,471.3483 195.9064,458.0025 230.9464,449.3125" fill="none" id="Dev-to-ViewOcl" style="stroke:#181818;stroke-width:1;"/><polygon fill="#181818" points="236.77,447.8683,227.0718,446.1523,231.917,449.0718,228.9975,453.9171,236.77,447.8683" style="stroke:#181818;stroke-width:1;"/></g><!--link View to Browse--><g class="link" data-entity-1="ent0004" data-entity-2="ent0005" data-link-type="dependency" data-source-line="36" id="lnk18"><path d="M447.27,542.3683 C480.41,542.8183 516.42,543.2283 549.64,543.4583 C576.75,543.6383 583.58,545.1783 610.64,543.4583 C665.69,539.9483 721.8666,532.5895 767.1366,525.7895" fill="none" id="View-to-Browse" style="stroke:#181818;stroke-width:1;stroke-dasharray:7,7;"/><polygon fill="#181818" points="773.07,524.8983,763.5757,522.2795,768.1255,525.641,764.764,530.1908,773.07,524.8983" style="stroke:#181818;stroke-width:1;"/><text fill="#000000" font-family="sans-serif" font-size="13" lengthAdjust="spacing" textLength="59.3569" x="550.64" y="540.0266">&#171;include&#187;</text></g><!--link View to PanZoom--><g class="link" data-entity-1="ent0004" data-entity-2="ent0006" data-link-type="dependency" data-source-line="37" id="lnk19"><path d="M416.25,522.3483 C510.79,502.8383 654.2638,473.2408 747.3638,454.0308" fill="none" id="View-to-PanZoom" style="stroke:#181818;stroke-width:1;stroke-dasharray:7,7;"/><polygon fill="#181818" points="753.24,452.8183,743.6174,450.7195,748.3432,453.8287,745.234,458.5545,753.24,452.8183" style="stroke:#181818;stroke-width:1;"/><text fill="#000000" font-family="sans-serif" font-size="13" lengthAdjust="spacing" textLength="57.1924" x="551.64" y="481.3766">&#171;extend&#187;</text></g><!--link View to Fisheye--><g class="link" data-entity-1="ent0004" data-entity-2="ent0007" data-link-type="dependency" data-source-line="38" id="lnk20"><path d="M423.28,556.5283 C454.49,563.1983 489.03,572.0883 519.64,583.4583 C533.8,588.7183 535.92,593.1083 549.64,599.4583 C589.11,617.7183 598.88,623.2783 640.64,635.4583 C679.04,646.6583 716.7283,654.4329 753.1083,660.7429" fill="none" id="View-to-Fisheye" style="stroke:#181818;stroke-width:1;stroke-dasharray:7,7;"/><polygon fill="#181818" points="759.02,661.7683,750.836,656.2891,754.0936,660.9138,749.4688,664.1714,759.02,661.7683" style="stroke:#181818;stroke-width:1;"/><text fill="#000000" font-family="sans-serif" font-size="13" lengthAdjust="spacing" textLength="57.1924" x="551.64" y="596.0266">&#171;extend&#187;</text></g><!--link View to Panels--><g class="link" data-entity-1="ent0004" data-entity-2="ent0008" data-link-type="dependency" data-source-line="39" id="lnk21"><path d="M429.09,554.7383 C466.85,559.8183 510.17,565.2983 549.64,569.4583 C608.94,575.7083 669.3064,580.6752 723.3264,584.6752" fill="none" id="View-to-Panels" style="stroke:#181818;stroke-width:1;stroke-dasharray:7,7;"/><polygon fill="#181818" points="729.31,585.1183,720.63,580.4646,724.3237,584.7491,720.0392,588.4428,729.31,585.1183" style="stroke:#181818;stroke-width:1;"/><text fill="#000000" font-family="sans-serif" font-size="13" lengthAdjust="spacing" textLength="57.1924" x="551.64" y="566.0266">&#171;extend&#187;</text></g><!--link ViewOcl to PanZoom--><g class="link" data-entity-1="ent0010" data-entity-2="ent0006" data-link-type="dependency" data-source-line="40" id="lnk22"><path d="M430.85,435.4583 C516.18,435.4583 631.55,435.4583 719.44,435.4583" fill="none" id="ViewOcl-to-PanZoom" style="stroke:#181818;stroke-width:1;stroke-dasharray:7,7;"/><polygon fill="#181818" points="725.44,435.4583,716.44,431.4583,720.44,435.4583,716.44,439.4583,725.44,435.4583" style="stroke:#181818;stroke-width:1;"/><text fill="#000000" font-family="sans-serif" font-size="13" lengthAdjust="spacing" textLength="57.1924" x="551.64" y="432.0266">&#171;extend&#187;</text></g><!--link ViewOcl to GMN23--><g class="link" data-entity-1="ent0010" data-entity-2="ent0024" data-link-type="association" data-source-line="43" id="lnk25"><path d="M226.83,429.6183 C180.07,420.9483 129.45,401.4883 104.82,358.9583 C85.44,325.4983 85.44,305.4183 104.82,271.9583 C121.54,243.0783 148.16,221.0483 177.25,204.3683" fill="none" id="ViewOcl-GMN23" style="stroke:#181818;stroke-width:1;stroke-dasharray:7,7;"/></g><!--link View to GMN26--><g class="link" data-entity-1="ent0004" data-entity-2="ent0027" data-link-type="association" data-source-line="56" id="lnk28"><path d="M215.78,530.7083 C172.34,520.4783 127.6,500.2983 104.82,460.9583 C78.84,416.0983 118.45,382.6083 171.13,359.1383" fill="none" id="View-GMN26" style="stroke:#181818;stroke-width:1;stroke-dasharray:7,7;"/></g><!--link Fisheye to GMN29--><g class="link" data-entity-1="ent0007" data-entity-2="ent0030" data-link-type="association" data-source-line="64" id="lnk31"><path d="M750.49,681.2083 C691.8,680.9783 618.58,669.0883 580.14,617.9583 C524.86,544.4183 529.6,487.8283 580.14,410.9583 C595.36,387.7983 616.53,369.4283 640.25,354.8683" fill="none" id="Fisheye-GMN29" style="stroke:#181818;stroke-width:1;stroke-dasharray:7,7;"/></g><!--link PanZoom to GMN32--><g class="link" data-entity-1="ent0006" data-entity-2="ent0033" data-link-type="association" data-source-line="74" id="lnk34"><path d="M726.54,431.3883 C673.24,423.1183 613.87,403.3083 580.14,357.9583 C520.98,278.4383 520.58,214.1783 580.14,134.9583 C600.46,107.9283 630.29,91.1683 662.53,81.0083" fill="none" id="PanZoom-GMN32" style="stroke:#181818;stroke-width:1;stroke-dasharray:7,7;"/></g><!--link Panels to GMN35--><g class="link" data-entity-1="ent0008" data-entity-2="ent0036" data-link-type="association" data-source-line="80" id="lnk37"><path d="M726.58,597.3883 C673.11,593.1783 613.59,577.4583 580.14,532.9583 C502.16,429.2183 502.16,344.6883 580.14,240.9583 C597.73,217.5583 622.3,201.3983 649.36,190.3483" fill="none" id="Panels-GMN35" style="stroke:#181818;stroke-width:1;stroke-dasharray:7,7;"/></g><?plantuml-src ZLRBSY8t5DttLzpoPY13mzxEJ0q3s74LDevXd4Tb8xe5A2EaBabWCqcgyX7vmdn9ZXuDtRPdAYjGw-e-pZqwkc_eWoWxd-QJ_E5wybC-lXvUtGzlvjti3NqekIrURlNeRCptNEgA6zeB_cY9aU6gv8QNjDKbbrGAjZPiIrgHst0IAcTLHGLJUsRfKRWDsGshE4wgaXn_SYJvMYmbxv-5o2cbo-lv3vDVy3iRVNgMKckhbT9A5piBruXTCUD8hv1VdT1UCAmAhXmt-Key8UELi1j-u4YKETgojH8hWUC-xvImDpSyv5heRMMuzVuB3IVAaTEFp9J1dfThRdiasI5WaQgtXT5Iqbhg9PFqHUjjkyh5xEfgEidlXhUJwRCgMrkjAWkuP5Meqn1_gf1Sp5dobQERsHW7KBz2CmB6s35YlKbRD9hTBYO_Bv95G4MXJGge-29eWqEIzz3NGZAn5Mfzwbw9zg6qaczXr2ub46Kschv27tnj5M2vv8Np3A2-BgI7qph3111T2HdHZkmIhaQoII16Sxqp1H-CKskTNgybFq-VGJ3z614nx94GFV2iHxLvt6Ta3mf6Ldn1m-uaK-xJpRIHZAsf4mkTBNz7rcBFSojAJY1QNZ3BGwPzchCj3s7oG6SXXJiGAmfUEQQG4t9VyfKsl0TNbTp5_09XtmOwFRcQZhrOSEoolnaK0eP-WM8U7QPyGgDcjY4FRYx2OQUrN393IfFKQkr9mupntFOS3Fm5CMq_SyB1_xQCWDE_V__Jk2_U7tLqNNStomB3d4vyAeNnErfb6IiSo7ZgyPal6AiiyoPCeJrqXZ1vz7f6VsJa8Gm8dZtus4STIGdyfZf9AOQtuvPIT8DtVwZfvAD1LtbI8SyZ6ypYvwRX7NZdGOnG15xvMF6g-eyzAWrRUy1Z91pu5P-RFYvzuyBbYO9IzoxONyR_JVjHkhCqI3UssTCw2FusprmhMm6yLD7rE4ccOQ2J5EfpFBVmwnTWjhaHwejt0rrA-9vGd1Ko-olBq2xAy_SHs7gHuAkNDHJrkYwriU-hg9SnkQPZ7oiBAVRxjNSwf--_5wgGkvA_Vt_QJS72DjeFVZHtK-YlxCP4NcuY_jTzPqexJalj77RmUDG9q-doKrlipfEOUPLaiEk3uuC6y8FlWi85MKko0wkaKtzIMy3QMjS_6Rvh2Hbr36TbhfKyz6030Hua1Ha8jQSDxgRqzvENtOjZX7Um_F-A1-DEhKfB_KHloNlsw5Zy_s3uogi0NC5mFBl9lL0VtTWkqhMu526CsnYzMs-ICNyIDe0rVxYYIbGSHEPzkkTC1klbmLSz-V68S3z3QqBaLxlJRCqvGNtC0M_maalef9Ua7ctnPBDrU5HW75m8rHnRQhqJ_Zv7lHKgfTkQNbffXYJl9xVZoNqz7k6jlfhWqED651lQxcp4P2STmbMwsadc_D01NAbaZYrPqAME1_0IZt8-7Yw67uVpIJSz5KSO0TWtS3Z9pJEMjcUey-OxYggaVmuy6ryTYJIWZ4_eSvpy6n7HISFHSYSn-mnEyrESbkA8r9YQx5Phjv6-myy7fpvDq-0qkwN5xCwN5JOJNN0awdFkT1vqkp5INKIvXY7q6ufgFJUNfhwI1e-6zXDEPEnnpYjJ_g-nRpIyVHZEQm2_WVtfQLYy-knkWFKzjzn1-8FUlAt_v3YptC6FGlNX2mYOYlHNcpgnH10PAEwCrQPxuQ7pOqDgacXC4I1wWT5Ds3Xwwygd9zotSuylpZFQj8TIt2e6Ef-UgwXZNavQOsEnuNk3o75ylA12YkApxq6GXZInfloZ7_I3OOdBPYM2uwuUpuJPENmC3SphAHVrlBY48SzyD9jEXtVpHg_-0m00?></g></svg>