<svg xmlns="http://www.w3.org/2000/svg" xmlns:xlink="http://www.w3.org/1999/xlink" contentStyleType="text/css" data-diagram-type="DESCRIPTION" height="1080px" preserveAspectRatio="none" style="width:1040px;height:1080px;background:#FFFFFF;" version="1.1" viewBox="0 0 1040 1080" width="1040px" zoomAndPan="magnify"><?plantuml 1.2026.3?><defs/><g><g class="title" data-source-line="39"><text fill="#000000" font-family="sans-serif" font-size="14" font-weight="700" lengthAdjust="spacing" textLength="272.3369" x="380.4596" y="23.5352">mdd view &#8212; diagram viewer (current)</text></g><!--cluster mdd-viewer--><g class="cluster" data-qualified-name="mdd-viewer" data-source-line="45" id="ent0003"><rect fill="none" height="425" rx="2.5" ry="2.5" style="stroke:#181818;stroke-width:1;" width="780.5" x="195.09" y="373.4183"/><text fill="#000000" font-family="sans-serif" font-size="14" font-weight="700" lengthAdjust="spacing" textLength="88.7783" x="540.9508" y="388.9534">mdd-viewer</text></g><!--entity View--><g class="entity" data-qualified-name="mdd-viewer.View" data-source-line="46" id="ent0004"><ellipse cx="330.8349" cy="510.4173" fill="#F1F1F1" rx="119.7449" ry="26.349" style="stroke:#181818;stroke-width:0.5;"/><text fill="#000000" font-family="sans-serif" font-size="14" lengthAdjust="spacing" textLength="157.6641" x="252.0028" y="506.1836">View rendered diagram</text><text fill="#000000" font-family="sans-serif" font-size="14" lengthAdjust="spacing" textLength="172.3271" x="244.6713" y="522.6719">(shapes AND text legible)</text></g><!--entity Browse--><g class="entity" data-qualified-name="mdd-viewer.Browse" data-source-line="47" id="ent0005"><ellipse cx="836.3031" cy="503.4189" fill="#F1F1F1" rx="78.9031" ry="18.1806" style="stroke:#181818;stroke-width:0.5;"/><text fill="#000000" font-family="sans-serif" font-size="14" lengthAdjust="spacing" textLength="127.4697" x="772.5682" y="508.163">Browse model files</text></g><!--entity PanZoom--><g class="entity" data-qualified-name="mdd-viewer.PanZoom" data-source-line="48" id="ent0006"><ellipse cx="836.3044" cy="582.4145" fill="#F1F1F1" rx="112.8544" ry="25.9162" style="stroke:#181818;stroke-width:0.5;"/><text fill="#000000" font-family="sans-serif" font-size="14" lengthAdjust="spacing" textLength="146.6787" x="762.965" y="578.3413">Pan and zoom canvas</text><text fill="#000000" font-family="sans-serif" font-size="14" lengthAdjust="spacing" textLength="158.0811" x="757.2639" y="594.8296">(scroll zoom, drag pan)</text></g><!--entity Fisheye--><g class="entity" data-qualified-name="mdd-viewer.Fisheye" data-source-line="49" id="ent0007"><ellipse cx="836.304" cy="429.4151" fill="#F1F1F1" rx="93.784" ry="21.1568" style="stroke:#181818;stroke-width:0.5;"/><text fill="#000000" font-family="sans-serif" font-size="14" lengthAdjust="spacing" textLength="161.7725" x="755.4177" y="434.1592">Focus via center fisheye</text></g><!--entity Panels--><g class="entity" data-qualified-name="mdd-viewer.Panels" data-source-line="50" id="ent0008"><ellipse cx="836.3043" cy="668.4171" fill="#F1F1F1" rx="113.6443" ry="25.1289" style="stroke:#181818;stroke-width:0.5;"/><text fill="#000000" font-family="sans-serif" font-size="14" lengthAdjust="spacing" textLength="205.3584" x="733.6251" y="673.1613">Collapse / expand side panels</text></g><!--entity Graph--><g class="entity" data-qualified-name="mdd-viewer.Graph" data-source-line="51" id="ent0009"><ellipse cx="330.8305" cy="625.4144" fill="#F1F1F1" rx="80.4305" ry="18.4861" style="stroke:#181818;stroke-width:0.5;"/><text fill="#000000" font-family="sans-serif" font-size="14" lengthAdjust="spacing" textLength="131.0928" x="265.2841" y="630.1585">Inspect trace graph</text></g><!--entity Trace--><g class="entity" data-qualified-name="mdd-viewer.Trace" data-source-line="52" id="ent0010"><ellipse cx="836.2982" cy="755.4159" fill="#F1F1F1" rx="123.2882" ry="27.0576" style="stroke:#181818;stroke-width:0.5;"/><text fill="#000000" font-family="sans-serif" font-size="14" lengthAdjust="spacing" textLength="226.0098" x="723.2933" y="760.1601">Inspect model IDs and trace links</text></g><!--entity Dev--><g class="entity" data-qualified-name="Dev" data-source-line="43" id="ent0002"><ellipse cx="40.1592" cy="745.9166" fill="#90EE90" rx="8" ry="8" style="stroke:#181818;stroke-width:0.5;"/><path d="M40.1592,753.9166 L40.1592,780.9166 M27.1592,761.9166 L53.1592,761.9166 M40.1592,780.9166 L27.1592,795.9166 M40.1592,780.9166 L53.1592,795.9166" fill="none" style="stroke:#181818;stroke-width:0.5;"/><text fill="#000000" font-family="sans-serif" font-size="14" lengthAdjust="spacing" textLength="68.3184" x="6" y="810.9517">Developer</text><text fill="#000000" font-family="sans-serif" font-size="14" font-style="italic" lengthAdjust="spacing" textLength="56.6357" x="11.8413" y="734.4634">&#171;added&#187;</text></g><g class="entity" data-qualified-name="GMN23" data-source-line="70" id="ent0024"><path d="M647.34,43.4883 L647.34,145.3516 L1025.256,145.3516 L1025.256,53.4883 L1015.256,43.4883 L647.34,43.4883" fill="#FEFFDD" style="stroke:#181818;stroke-width:0.5;"/><path d="M1015.256,43.4883 L1015.256,53.4883 L1025.256,53.4883 L1015.256,43.4883" fill="#FEFFDD" style="stroke:#181818;stroke-width:1;"/><text fill="#000000" font-family="sans-serif" font-size="13" lengthAdjust="spacing" textLength="316.6338" x="653.34" y="61.0566">Code (USE-FISHEYE-FOCUS): the canvas paints the</text><text fill="#000000" font-family="sans-serif" font-size="13" lengthAdjust="spacing" textLength="342.1387" x="653.34" y="76.3672">rendered texture through a center-fixed fisheye mesh</text><text fill="#000000" font-family="sans-serif" font-size="13" lengthAdjust="spacing" textLength="356.916" x="653.34" y="91.6777">(CanvasView::fisheye_mesh / warp) &#8212; the centre bulges,</text><text fill="#000000" font-family="sans-serif" font-size="13" lengthAdjust="spacing" textLength="354.3262" x="653.34" y="106.9883">content compresses toward the edges, corners stay put.</text><text fill="#000000" font-family="sans-serif" font-size="13" lengthAdjust="spacing" textLength="346.9375" x="653.34" y="122.2988">Layered on the scroll-at-cursor base zoom; drag pans.</text><text fill="#000000" font-family="sans-serif" font-size="13" lengthAdjust="spacing" textLength="221.0381" x="653.34" y="137.6094">Realized by SEQ-CANVAS-FISHEYE.</text></g><g class="entity" data-qualified-name="GMN26" data-source-line="79" id="ent0027"><path d="M656.68,180.4583 L656.68,236.3899 L1015.9276,236.3899 L1015.9276,190.4583 L1005.9276,180.4583 L656.68,180.4583" fill="#FEFFDD" style="stroke:#181818;stroke-width:0.5;"/><path d="M1005.9276,180.4583 L1005.9276,190.4583 L1015.9276,190.4583 L1005.9276,180.4583" fill="#FEFFDD" style="stroke:#181818;stroke-width:1;"/><text fill="#000000" font-family="sans-serif" font-size="13" lengthAdjust="spacing" textLength="338.2476" x="662.68" y="198.0266">The toolbar has no Reset / Zoom + / Zoom - buttons</text><text fill="#000000" font-family="sans-serif" font-size="13" lengthAdjust="spacing" textLength="325.0127" x="662.68" y="213.3372">(removed). Zoom is scroll-only at the cursor; pan is</text><text fill="#000000" font-family="sans-serif" font-size="13" lengthAdjust="spacing" textLength="318.2715" x="662.68" y="228.6477">drag-only. A small hint label replaces the buttons.</text></g><g class="entity" data-qualified-name="GMN29" data-source-line="85" id="ent0030"><path d="M649.06,271.1483 L649.06,357.701 L1023.5356,357.701 L1023.5356,281.1483 L1013.5356,271.1483 L649.06,271.1483" fill="#FEFFDD" style="stroke:#181818;stroke-width:0.5;"/><path d="M1013.5356,271.1483 L1013.5356,281.1483 L1023.5356,281.1483 L1013.5356,271.1483" fill="#FEFFDD" style="stroke:#181818;stroke-width:1;"/><text fill="#000000" font-family="sans-serif" font-size="13" lengthAdjust="spacing" textLength="353.4756" x="655.06" y="288.7166">Code (USE-TOGGLE-PANELS): each SidePanel renders an</text><text fill="#000000" font-family="sans-serif" font-size="13" lengthAdjust="spacing" textLength="303.0942" x="655.06" y="304.0272">inner-edge chevron; clicking it sets PanelLayout</text><text fill="#000000" font-family="sans-serif" font-size="13" lengthAdjust="spacing" textLength="316.8813" x="655.06" y="319.3377">collapsed and the panel shrinks to an exact-width</text><text fill="#000000" font-family="sans-serif" font-size="13" lengthAdjust="spacing" textLength="319.3696" x="655.06" y="334.6483">sliver button that re-expands on click. Realized by</text><text fill="#000000" font-family="sans-serif" font-size="13" lengthAdjust="spacing" textLength="146.1992" x="655.06" y="349.9588">SEQ-PANEL-COLLAPSE.</text></g><g class="entity" data-qualified-name="GMN32" data-source-line="93" id="ent0033"><path d="M135.32,271.1483 L135.32,357.701 A0,0 0 0 0 135.32,357.701 L326.83,357.701 L330.83,483.6283 L334.83,357.701 L526.3439,357.701 A0,0 0 0 0 526.3439,357.701 L526.3439,281.1483 L516.3439,271.1483 L135.32,271.1483 A0,0 0 0 0 135.32,271.1483" fill="#FEFFDD" style="stroke:#181818;stroke-width:0.5;"/><path d="M516.3439,271.1483 L516.3439,281.1483 L526.3439,281.1483 L516.3439,271.1483" fill="#FEFFDD" style="stroke:#181818;stroke-width:0.5;"/><text fill="#000000" font-family="sans-serif" font-size="13" lengthAdjust="spacing" textLength="340.6787" x="141.32" y="288.7166">Reads pre-rendered SVGs from .mdd/rendered/. If no</text><text fill="#000000" font-family="sans-serif" font-size="13" lengthAdjust="spacing" textLength="329.4561" x="141.32" y="304.0272">models are mapped/rendered the canvas shows "No</text><text fill="#000000" font-family="sans-serif" font-size="13" lengthAdjust="spacing" textLength="297.5718" x="141.32" y="319.3377">rendered output". Text rendering is realized by</text><text fill="#000000" font-family="sans-serif" font-size="13" lengthAdjust="spacing" textLength="370.0239" x="141.32" y="334.6483">SEQ-RENDER-DIAGRAM-PAGE, which consults a populated</text><text fill="#000000" font-family="sans-serif" font-size="13" lengthAdjust="spacing" textLength="367.1548" x="141.32" y="349.9588">font database (DOM-FONT-DATABASE) before rasterizing.</text></g><!--link Dev to View--><g class="link" data-entity-1="ent0002" data-entity-2="ent0004" data-link-type="dependency" data-source-line="55" id="lnk11"><path d="M55.4,720.5383 C69.71,680.6983 95.43,624.5283 135.32,589.4183 C167.47,561.1283 205.3719,544.0171 243.1619,531.7771" fill="none" id="Dev-to-View" style="stroke:#181818;stroke-width:1;"/><polygon fill="#181818" points="248.87,529.9283,239.0754,528.8961,244.1133,531.469,241.5405,536.5069,248.87,529.9283" style="stroke:#181818;stroke-width:1;"/></g><!--link Dev to Browse--><g class="link" data-entity-1="ent0002" data-entity-2="ent0005" data-link-type="dependency" data-source-line="56" id="lnk12"><path d="M74.62,770.9283 C185.38,781.7383 537.55,809.7283 617.34,737.4183 C683.3,677.6583 585.64,603.5683 647.34,539.4183 C675.9,509.7283 714.8963,500.6332 753.7063,498.8532" fill="none" id="Dev-to-Browse" style="stroke:#181818;stroke-width:1;"/><polygon fill="#181818" points="759.7,498.5783,750.5262,494.9948,754.7053,498.8074,750.8927,502.9864,759.7,498.5783" style="stroke:#181818;stroke-width:1;"/></g><!--link Dev to PanZoom--><g class="link" data-entity-1="ent0002" data-entity-2="ent0006" data-link-type="dependency" data-source-line="57" id="lnk13"><path d="M74.67,782.7183 C171.68,824.4383 456.11,928.4083 617.34,793.4183 C675.5,744.7283 595.02,680.3283 647.34,625.4183 C667.55,604.2183 690.039,593.7725 718.609,587.5125" fill="none" id="Dev-to-PanZoom" style="stroke:#181818;stroke-width:1;"/><polygon fill="#181818" points="724.47,586.2283,714.8224,584.2473,719.5859,587.2984,716.5347,592.0619,724.47,586.2283" style="stroke:#181818;stroke-width:1;"/></g><!--link Dev to Fisheye--><g class="link" data-entity-1="ent0002" data-entity-2="ent0007" data-link-type="dependency" data-source-line="58" id="lnk14"><path d="M74.6,755.5083 C84.1,752.4783 94.53,749.5083 104.32,747.4183 C216.54,723.5483 535.34,769.6583 617.34,689.4183 C688.51,619.7883 579.27,540.0783 647.34,467.4183 C671.7,441.4283 702.5673,431.1865 737.1873,427.3065" fill="none" id="Dev-to-Fisheye" style="stroke:#181818;stroke-width:1;"/><polygon fill="#181818" points="743.15,426.6383,733.7605,423.6656,738.1811,427.1952,734.6515,431.6158,743.15,426.6383" style="stroke:#181818;stroke-width:1;"/></g><!--link Dev to Panels--><g class="link" data-entity-1="ent0002" data-entity-2="ent0008" data-link-type="dependency" data-source-line="59" id="lnk15"><path d="M59.58,814.2783 C69.71,833.4283 84.36,853.5983 104.32,864.4183 C304.76,973.0983 441.37,1009.4183 617.34,864.4183 C671.16,820.0783 598.72,760.3983 647.34,710.4183 C667.51,689.6883 689.6484,679.4594 717.8784,673.2894" fill="none" id="Dev-to-Panels" style="stroke:#181818;stroke-width:1;"/><polygon fill="#181818" points="723.74,672.0083,714.0935,670.0222,718.8553,673.0759,715.8016,677.8377,723.74,672.0083" style="stroke:#181818;stroke-width:1;"/></g><!--link Dev to Graph--><g class="link" data-entity-1="ent0002" data-entity-2="ent0009" data-link-type="dependency" data-source-line="60" id="lnk16"><path d="M61.64,720.5983 C71.91,702.2883 86.1,682.7583 104.32,670.4183 C147.04,641.4883 198.1324,630.8163 244.1724,626.8263" fill="none" id="Dev-to-Graph" style="stroke:#181818;stroke-width:1;"/><polygon fill="#181818" points="250.15,626.3083,240.8382,623.1003,245.1687,626.74,241.529,631.0704,250.15,626.3083" style="stroke:#181818;stroke-width:1;"/></g><!--link Dev to Trace--><g class="link" data-entity-1="ent0002" data-entity-2="ent0010" data-link-type="dependency" data-source-line="61" id="lnk17"><path d="M44.63,814.3383 C50.32,853.9283 65.25,908.3683 104.32,935.4183 C291.78,1065.2183 402.78,1012.5683 617.34,935.4183 C702.78,904.7083 774.6995,828.9714 810.1595,786.7814" fill="none" id="Dev-to-Trace" style="stroke:#181818;stroke-width:1;"/><polygon fill="#181818" points="814.02,782.1883,805.1672,786.5043,810.803,786.0159,811.2914,791.6516,814.02,782.1883" style="stroke:#181818;stroke-width:1;"/></g><!--link View to Browse--><g class="link" data-entity-1="ent0004" data-entity-2="ent0005" data-link-type="dependency" data-source-line="63" id="lnk18"><path d="M450.83,508.7683 C545.47,507.4483 669.1706,505.7318 751.1006,504.5918" fill="none" id="View-to-Browse" style="stroke:#181818;stroke-width:1;stroke-dasharray:7,7;"/><polygon fill="#181818" points="757.1,504.5083,748.0452,500.6339,752.1005,504.5778,748.1565,508.6331,757.1,504.5083" style="stroke:#181818;stroke-width:1;"/><text fill="#000000" font-family="sans-serif" font-size="13" lengthAdjust="spacing" textLength="59.3569" x="557.34" y="503.0666">&#171;include&#187;</text></g><!--link View to PanZoom--><g class="link" data-entity-1="ent0004" data-entity-2="ent0006" data-link-type="dependency" data-source-line="64" id="lnk19"><path d="M432.2,524.7783 C521.71,537.5783 645.8705,555.3284 733.8605,567.9184" fill="none" id="View-to-PanZoom" style="stroke:#181818;stroke-width:1;stroke-dasharray:7,7;"/><polygon fill="#181818" points="739.8,568.7683,731.4573,563.5338,734.8504,568.0601,730.3242,571.4532,739.8,568.7683" style="stroke:#181818;stroke-width:1;"/><text fill="#000000" font-family="sans-serif" font-size="13" lengthAdjust="spacing" textLength="57.1924" x="558.34" y="540.8266">&#171;extend&#187;</text></g><!--link View to Fisheye--><g class="link" data-entity-1="ent0004" data-entity-2="ent0007" data-link-type="dependency" data-source-line="65" id="lnk20"><path d="M428.61,494.8483 C524.87,479.3683 664.6762,456.8714 753.0562,442.6514" fill="none" id="View-to-Fisheye" style="stroke:#181818;stroke-width:1;stroke-dasharray:7,7;"/><polygon fill="#181818" points="758.98,441.6983,749.4589,439.1788,754.0435,442.4925,750.7297,447.0772,758.98,441.6983" style="stroke:#181818;stroke-width:1;"/><text fill="#000000" font-family="sans-serif" font-size="13" lengthAdjust="spacing" textLength="57.1924" x="558.34" y="461.6366">&#171;extend&#187;</text></g><!--link View to Panels--><g class="link" data-entity-1="ent0004" data-entity-2="ent0008" data-link-type="dependency" data-source-line="66" id="lnk21"><path d="M389.26,533.8083 C451.95,558.7583 555.64,598.3383 647.34,625.4183 C680.89,635.3283 712.5096,643.0315 745.1196,650.1915" fill="none" id="View-to-Panels" style="stroke:#181818;stroke-width:1;stroke-dasharray:7,7;"/><polygon fill="#181818" points="750.98,651.4783,743.0472,645.6412,746.0963,650.406,741.3316,653.4551,750.98,651.4783" style="stroke:#181818;stroke-width:1;"/><text fill="#000000" font-family="sans-serif" font-size="13" lengthAdjust="spacing" textLength="57.1924" x="558.34" y="593.7966">&#171;extend&#187;</text></g><!--link Graph to Trace--><g class="link" data-entity-1="ent0009" data-entity-2="ent0010" data-link-type="dependency" data-source-line="67" id="lnk22"><path d="M382.78,639.9183 C445.03,657.4883 553.64,687.6883 647.34,711.4183 C680.48,719.8183 711.205,727.1434 743.215,734.5634" fill="none" id="Graph-to-Trace" style="stroke:#181818;stroke-width:1;stroke-dasharray:7,7;"/><polygon fill="#181818" points="749.06,735.9183,741.1957,729.9893,744.1891,734.7892,739.3892,737.7826,749.06,735.9183" style="stroke:#181818;stroke-width:1;"/><text fill="#000000" font-family="sans-serif" font-size="13" lengthAdjust="spacing" textLength="59.3569" x="557.34" y="685.3466">&#171;include&#187;</text></g><!--link Fisheye to GMN23--><g class="link" data-entity-1="ent0007" data-entity-2="ent0024" data-link-type="association" data-source-line="70" id="lnk25"><path d="M742.26,428.7683 C687.54,422.9183 622.51,405.3683 586.84,357.9183 C539.57,295.0383 541.23,245.0183 586.84,180.9183 C602.26,159.2583 623.49,142.9783 647.12,130.7383" fill="none" id="Fisheye-GMN23" style="stroke:#181818;stroke-width:1;stroke-dasharray:7,7;"/></g><!--link PanZoom to GMN26--><g class="link" data-entity-1="ent0006" data-entity-2="ent0027" data-link-type="association" data-source-line="79" id="lnk28"><path d="M723.56,585.1783 C673.21,579.8883 618.24,563.6883 586.84,521.9183 C519.81,432.7483 519.81,360.0883 586.84,270.9183 C604.35,247.6383 629.14,232.1583 656.36,222.0283" fill="none" id="PanZoom-GMN26" style="stroke:#181818;stroke-width:1;stroke-dasharray:7,7;"/></g><!--link Panels to GMN29--><g class="link" data-entity-1="ent0008" data-entity-2="ent0030" data-link-type="association" data-source-line="85" id="lnk31"><path d="M722.92,671.1083 C672.74,665.7483 618.11,649.5083 586.84,607.9183 C533.96,537.5783 536.97,482.4183 586.84,409.9183 C602.48,387.1883 624.33,369.8683 648.65,356.6583" fill="none" id="Panels-GMN29" style="stroke:#181818;stroke-width:1;stroke-dasharray:7,7;"/></g><?plantuml-src jLRRRjj647tdLmpKXrg8gAGl1U84HcL9TWquScefxWK5cXMv4XTUSOdTbMIdAD2Fw1VsItfcbvGeN_9KlqXSpixjpCmPkbjLLiAA5QsTp8IJz6T2T2goswKrwp8V6cti-_SYpsL-SaBVl7qp7hzzyzGLArTc4o-TdPr-F_mk-IjnE-kP5iwzb6spgamfI_z2zfqN_gLmiJBpebpgbx8lCc_i2zd6hrUPgiJ_ZFotz8FAZpvDn-dDnVZdT7GnEByUV9XsMP1BbpqMzQWpaXkfJIKjRPJSEXA0jiobbJcjJ2urvKeiEMfJaYyagJ8LLKMPA3V2qLRvWbmXAWdDCYSlxpnfkLHpBVkTRYkaiulfZ-DVyNyr_FGWf0FHGKWBas6y7FjcqCWi45yJq4O9d3BqhxJfGjqXueLoXRoN25HuMebbgHOAwXnt7J1VjpB4okrlfMFxcO4HLCERhR1vk2_pfNGzqk8-O55dxp9hjAQbDdEXwOingyCiPrVdvvVZzEDWChvyaEM1w23B32P55VAq9E_G5tcCMSk5fmzN8oWW_nB521X3OjMog4Kql9hCnh_CwXi1bH9bAe4A9q45bBJiySXeeLQgNEwhbwDyI2sNAroAgGpN5XtWKwTooUIM1dRZvc3usVddLPw75v_X1k1ZLjH6jkeYjzBsOChA1G0kk33MCD_ayhXTZD9i2SsakKRFL19DRc69bUOSHrq0HhuNAy9XXjJT3iZU3YTlZ9uB2mpO6mon8itNtflIzHElF1YaIOV-_VkV1rdGKHRXw2P9g8OtDVQvOWfIfaoIo1NxWdO8td2YtIGdoPwlEd2NHkkTCFxD0kdSS0oxwQi3-RqygkThC1aTp5St-66bjf5JQxRuZxExK5gwS2s-Rb_yY2vXc08YiI3igurlRiMIiOsUeF0RNhTjdF5yXfQBnMlA5kwVnUVs_M5T87fTztcxV8qJFBPrBafN0Jpow3D9WAGgmirpVdhgOapzObGpKb3JghoD3cPy1bacNA0qFOa0DeSQfkROfDoScvHQSewsESQGcbFqb8IgzlkDRJf6MwWoq-jSeZ5sqjfL4AF8w8Asj7RyZ3I6SIWCiGHfYEE1swGqMCrpWpbOyLZlQpK4UlG4OnyCRYKm-86ZeB7hM6xEjMNsnQPQ5i-Dz0gK0BMZOR35IHmVrx8_M8Rc00jNtJ2EmMdaxFbQCoL3jQ7h5eC_PkxCM52Wuw-GUwhMlW_5owVOF1K-nPGxp72W6ExzTxlUTwntBOLMNw0ulwVf-ATqE9ZS3AODGlq4210Z-WZN_SpC7h4Hh3hfaMse-wlc8MteYJ6grtot7sNADJ6RKjyJbbp09mJ_ZgF53QXnxE56dmRaLW83NQ1WM6PpJ8QLbKP7n1MpeyAlfH0dSjyPXrlkcAJ82ffYaiFTkY5u_A3LMaHP8JVMbE_mKQkoMzv3oXCWgASUnJ5h7yeRMIBVqNXSRQwmFCRCmSXKte5tqx32eECqLf2jqudxtygqMQPu5NpssvM45jSoP94Ehoul1n-dNwjbpRIm08lektJN-DERSnTNN1_a_hfv_xfF5mjUEnGv2OYWZLVOU79_gJrMhW13K6TYsbC5JD2zdJxDcFlZwu2Tm-5XCjVZoMXytNpV8RVpSO-sXK9zC3HkhJrlsifKQurlynnQ2ymIvSABqFj7ewiF6FZ9B1qDPeFJmNJSfRbS6CHjXSCigo_mlGVfFm00?></g></svg>