<svg xmlns="http://www.w3.org/2000/svg" xmlns:xlink="http://www.w3.org/1999/xlink" contentStyleType="text/css" data-diagram-type="SEQUENCE" height="901px" preserveAspectRatio="none" style="width:1353px;height:901px;background:#FFFFFF;" version="1.1" viewBox="0 0 1353 901" width="1353px" zoomAndPan="magnify"><?plantuml 1.2026.3?><defs/><g><g class="title" data-source-line="37"><text fill="#000000" font-family="sans-serif" font-size="14" font-weight="700" lengthAdjust="spacing" textLength="263.8809" x="541.5159" y="28.5352">View an OCL constraint file (current)</text></g><rect fill="none" height="347.6367" style="stroke:#000000;stroke-width:1.5;" width="1327.9126" x="10" y="341.3281"/><rect fill="none" height="61.9316" style="stroke:#000000;stroke-width:1.5;" width="528.2378" x="30" y="365.6387"/><rect fill="none" height="196.1289" style="stroke:#000000;stroke-width:1.5;" width="1307.9126" x="20" y="485.8359"/><rect fill="none" height="75.9316" style="stroke:#000000;stroke-width:1.5;" width="1287.9126" x="30" y="539.457"/><g class="participant-lifeline" data-entity-uid="part1" data-qualified-name="Dev" data-source-line="39" id="part1-lifeline"><g><title>..added..</title><rect fill="#000000" fill-opacity="0.00000" height="667.0527" width="8" x="73.1592" y="135.4648"/><line style="stroke:#181818;stroke-width:0.5;stroke-dasharray:5,5;" x1="77" x2="77" y1="135.4648" y2="802.5176"/></g></g><g class="participant-lifeline" data-entity-uid="part2" data-qualified-name="Viewer" data-source-line="40" id="part2-lifeline"><g><title>MddViewer..update</title><rect fill="#000000" fill-opacity="0.00000" height="667.0527" width="8" x="259.4751" y="135.4648"/><line style="stroke:#181818;stroke-width:0.5;stroke-dasharray:5,5;" x1="263.0073" x2="263.0073" y1="135.4648" y2="802.5176"/></g></g><g class="participant-lifeline" data-entity-uid="part3" data-qualified-name="OV" data-source-line="41" id="part3-lifeline"><g><title>MddViewer..ocl_ui</title><rect fill="#000000" fill-opacity="0.00000" height="667.0527" width="8" x="470.7856" y="135.4648"/><line style="stroke:#181818;stroke-width:0.5;stroke-dasharray:5,5;" x1="474.3335" x2="474.3335" y1="135.4648" y2="802.5176"/></g></g><g class="participant-lifeline" data-entity-uid="part4" data-qualified-name="Ocl" data-source-line="42" id="part4-lifeline"><g><title>.mdd.constraints.</title><rect fill="#000000" fill-opacity="0.00000" height="667.0527" width="8" x="711.6597" y="135.4648"/><line style="stroke:#181818;stroke-width:0.5;stroke-dasharray:5,5;" x1="715.0562" x2="715.0562" y1="135.4648" y2="802.5176"/></g></g><g class="participant-lifeline" data-entity-uid="part5" data-qualified-name="Rend" data-source-line="43" id="part5-lifeline"><g><title>mdd_render..</title><rect fill="#000000" fill-opacity="0.00000" height="667.0527" width="8" x="864.9434" y="135.4648"/><line style="stroke:#181818;stroke-width:0.5;stroke-dasharray:5,5;" x1="868.2632" x2="868.2632" y1="135.4648" y2="802.5176"/></g></g><g class="participant-lifeline" data-entity-uid="part6" data-qualified-name="Out" data-source-line="44" id="part6-lifeline"><g><title>.mdd.rendered.constraints.</title><rect fill="#000000" fill-opacity="0.00000" height="667.0527" width="8" x="1052.4819" y="135.4648"/><line style="stroke:#181818;stroke-width:0.5;stroke-dasharray:5,5;" x1="1055.6235" x2="1055.6235" y1="135.4648" y2="802.5176"/></g></g><g class="participant-lifeline" data-entity-uid="part7" data-qualified-name="Page" data-source-line="45" id="part7-lifeline"><g><title>DiagramPage..load</title><rect fill="#000000" fill-opacity="0.00000" height="667.0527" width="8" x="1233.1265" y="135.4648"/><line style="stroke:#181818;stroke-width:0.5;stroke-dasharray:5,5;" x1="1236.3403" x2="1236.3403" y1="135.4648" y2="802.5176"/></g></g><g class="participant participant-head" data-entity-uid="part1" data-qualified-name="Dev" data-source-line="39" id="part1-head"><text fill="#000000" font-family="sans-serif" font-size="14" font-style="italic" lengthAdjust="spacing" textLength="56.6357" x="45.8413" y="116.0234">&#171;added&#187;</text><text fill="#000000" font-family="sans-serif" font-size="14" lengthAdjust="spacing" textLength="68.3184" x="40" y="132.5117">Developer</text><ellipse cx="77.1592" cy="50.9883" fill="#90EE90" rx="8" ry="8" style="stroke:#181818;stroke-width:0.5;"/><path d="M77.1592,58.9883 L77.1592,85.9883 M64.1592,66.9883 L90.1592,66.9883 M77.1592,85.9883 L64.1592,100.9883 M77.1592,85.9883 L90.1592,100.9883" fill="none" style="stroke:#181818;stroke-width:0.5;"/></g><g class="participant participant-tail" data-entity-uid="part1" data-qualified-name="Dev" data-source-line="39" id="part1-tail"><text fill="#000000" font-family="sans-serif" font-size="14" font-style="italic" lengthAdjust="spacing" textLength="56.6357" x="45.8413" y="815.0527">&#171;added&#187;</text><text fill="#000000" font-family="sans-serif" font-size="14" lengthAdjust="spacing" textLength="68.3184" x="40" y="831.541">Developer</text><ellipse cx="77.1592" cy="842.9941" fill="#90EE90" rx="8" ry="8" style="stroke:#181818;stroke-width:0.5;"/><path d="M77.1592,850.9941 L77.1592,877.9941 M64.1592,858.9941 L90.1592,858.9941 M77.1592,877.9941 L64.1592,892.9941 M77.1592,877.9941 L90.1592,892.9941" fill="none" style="stroke:#181818;stroke-width:0.5;"/></g><g class="participant participant-head" data-entity-uid="part2" data-qualified-name="Viewer" data-source-line="40" id="part2-head"><rect fill="#E2E2F0" height="46.9766" rx="2.5" ry="2.5" style="stroke:#181818;stroke-width:0.5;" width="144.9355" x="191.0073" y="87.4883"/><text fill="#000000" font-family="sans-serif" font-size="14" lengthAdjust="spacing" textLength="130.9355" x="198.0073" y="108.0234">MddViewer::update</text><text fill="#000000" font-family="sans-serif" font-size="14" lengthAdjust="spacing" textLength="92.5244" x="217.2129" y="124.5117">(eframe::App)</text></g><g class="participant participant-tail" data-entity-uid="part2" data-qualified-name="Viewer" data-source-line="40" id="part2-tail"><rect fill="#E2E2F0" height="46.9766" rx="2.5" ry="2.5" style="stroke:#181818;stroke-width:0.5;" width="144.9355" x="191.0073" y="801.5176"/><text fill="#000000" font-family="sans-serif" font-size="14" lengthAdjust="spacing" textLength="130.9355" x="198.0073" y="822.0527">MddViewer::update</text><text fill="#000000" font-family="sans-serif" font-size="14" lengthAdjust="spacing" textLength="92.5244" x="217.2129" y="838.541">(eframe::App)</text></g><g class="participant participant-head" data-entity-uid="part3" data-qualified-name="OV" data-source-line="41" id="part3-head"><rect fill="#E2E2F0" height="46.9766" rx="2.5" ry="2.5" style="stroke:#181818;stroke-width:0.5;" width="146.9043" x="401.3335" y="87.4883"/><text fill="#000000" font-family="sans-serif" font-size="14" lengthAdjust="spacing" textLength="123.4092" x="413.0811" y="108.0234">MddViewer::ocl_ui</text><text fill="#000000" font-family="sans-serif" font-size="14" lengthAdjust="spacing" textLength="132.9043" x="408.3335" y="124.5117">OclView{sub_mode}</text></g><g class="participant participant-tail" data-entity-uid="part3" data-qualified-name="OV" data-source-line="41" id="part3-tail"><rect fill="#E2E2F0" height="46.9766" rx="2.5" ry="2.5" style="stroke:#181818;stroke-width:0.5;" width="146.9043" x="401.3335" y="801.5176"/><text fill="#000000" font-family="sans-serif" font-size="14" lengthAdjust="spacing" textLength="123.4092" x="413.0811" y="822.0527">MddViewer::ocl_ui</text><text fill="#000000" font-family="sans-serif" font-size="14" lengthAdjust="spacing" textLength="132.9043" x="408.3335" y="838.541">OclView{sub_mode}</text></g><g class="participant participant-head" data-entity-uid="part4" data-qualified-name="Ocl" data-source-line="42" id="part4-head"><text fill="#000000" font-family="sans-serif" font-size="14" lengthAdjust="spacing" textLength="125.207" x="650.0562" y="116.0234">.mdd/constraints/</text><text fill="#000000" font-family="sans-serif" font-size="14" lengthAdjust="spacing" textLength="83.7949" x="670.7622" y="132.5117">&lt;name&gt;.ocl</text><path d="M697.6597,66.4883 C697.6597,56.4883 715.6597,56.4883 715.6597,56.4883 C715.6597,56.4883 733.6597,56.4883 733.6597,66.4883 L733.6597,92.4883 C733.6597,102.4883 715.6597,102.4883 715.6597,102.4883 C715.6597,102.4883 697.6597,102.4883 697.6597,92.4883 L697.6597,66.4883" fill="#E2E2F0" style="stroke:#181818;stroke-width:0.5;"/><path d="M697.6597,66.4883 C697.6597,76.4883 715.6597,76.4883 715.6597,76.4883 C715.6597,76.4883 733.6597,76.4883 733.6597,66.4883" fill="none" style="stroke:#181818;stroke-width:0.5;"/></g><g class="participant participant-tail" data-entity-uid="part4" data-qualified-name="Ocl" data-source-line="42" id="part4-tail"><text fill="#000000" font-family="sans-serif" font-size="14" lengthAdjust="spacing" textLength="125.207" x="650.0562" y="815.0527">.mdd/constraints/</text><text fill="#000000" font-family="sans-serif" font-size="14" lengthAdjust="spacing" textLength="83.7949" x="670.7622" y="831.541">&lt;name&gt;.ocl</text><path d="M697.6597,844.4941 C697.6597,834.4941 715.6597,834.4941 715.6597,834.4941 C715.6597,834.4941 733.6597,834.4941 733.6597,844.4941 L733.6597,870.4941 C733.6597,880.4941 715.6597,880.4941 715.6597,880.4941 C715.6597,880.4941 697.6597,880.4941 697.6597,870.4941 L697.6597,844.4941" fill="#E2E2F0" style="stroke:#181818;stroke-width:0.5;"/><path d="M697.6597,844.4941 C697.6597,854.4941 715.6597,854.4941 715.6597,854.4941 C715.6597,854.4941 733.6597,854.4941 733.6597,844.4941" fill="none" style="stroke:#181818;stroke-width:0.5;"/></g><g class="participant participant-head" data-entity-uid="part5" data-qualified-name="Rend" data-source-line="43" id="part5-head"><rect fill="#E2E2F0" height="46.9766" rx="2.5" ry="2.5" style="stroke:#181818;stroke-width:0.5;" width="155.3604" x="791.2632" y="87.4883"/><text fill="#000000" font-family="sans-serif" font-size="14" lengthAdjust="spacing" textLength="91.1094" x="823.3887" y="108.0234">mdd_render::</text><text fill="#000000" font-family="sans-serif" font-size="14" lengthAdjust="spacing" textLength="141.3604" x="798.2632" y="124.5117">render_ocl_diagrams</text></g><g class="participant participant-tail" data-entity-uid="part5" data-qualified-name="Rend" data-source-line="43" id="part5-tail"><rect fill="#E2E2F0" height="46.9766" rx="2.5" ry="2.5" style="stroke:#181818;stroke-width:0.5;" width="155.3604" x="791.2632" y="801.5176"/><text fill="#000000" font-family="sans-serif" font-size="14" lengthAdjust="spacing" textLength="91.1094" x="823.3887" y="822.0527">mdd_render::</text><text fill="#000000" font-family="sans-serif" font-size="14" lengthAdjust="spacing" textLength="141.3604" x="798.2632" y="838.541">render_ocl_diagrams</text></g><g class="participant participant-head" data-entity-uid="part6" data-qualified-name="Out" data-source-line="44" id="part6-head"><text fill="#000000" font-family="sans-serif" font-size="14" lengthAdjust="spacing" textLength="193.7168" x="956.6235" y="116.0234">.mdd/rendered/constraints/</text><text fill="#000000" font-family="sans-serif" font-size="14" lengthAdjust="spacing" textLength="87.0898" x="1009.937" y="132.5117">&lt;name&gt;.svg</text><path d="M1038.4819,66.4883 C1038.4819,56.4883 1056.4819,56.4883 1056.4819,56.4883 C1056.4819,56.4883 1074.4819,56.4883 1074.4819,66.4883 L1074.4819,92.4883 C1074.4819,102.4883 1056.4819,102.4883 1056.4819,102.4883 C1056.4819,102.4883 1038.4819,102.4883 1038.4819,92.4883 L1038.4819,66.4883" fill="#E2E2F0" style="stroke:#181818;stroke-width:0.5;"/><path d="M1038.4819,66.4883 C1038.4819,76.4883 1056.4819,76.4883 1056.4819,76.4883 C1056.4819,76.4883 1074.4819,76.4883 1074.4819,66.4883" fill="none" style="stroke:#181818;stroke-width:0.5;"/></g><g class="participant participant-tail" data-entity-uid="part6" data-qualified-name="Out" data-source-line="44" id="part6-tail"><text fill="#000000" font-family="sans-serif" font-size="14" lengthAdjust="spacing" textLength="193.7168" x="956.6235" y="815.0527">.mdd/rendered/constraints/</text><text fill="#000000" font-family="sans-serif" font-size="14" lengthAdjust="spacing" textLength="87.0898" x="1009.937" y="831.541">&lt;name&gt;.svg</text><path d="M1038.4819,844.4941 C1038.4819,834.4941 1056.4819,834.4941 1056.4819,834.4941 C1056.4819,834.4941 1074.4819,834.4941 1074.4819,844.4941 L1074.4819,870.4941 C1074.4819,880.4941 1056.4819,880.4941 1056.4819,880.4941 C1056.4819,880.4941 1038.4819,880.4941 1038.4819,870.4941 L1038.4819,844.4941" fill="#E2E2F0" style="stroke:#181818;stroke-width:0.5;"/><path d="M1038.4819,844.4941 C1038.4819,854.4941 1056.4819,854.4941 1056.4819,854.4941 C1056.4819,854.4941 1074.4819,854.4941 1074.4819,844.4941" fill="none" style="stroke:#181818;stroke-width:0.5;"/></g><g class="participant participant-head" data-entity-uid="part7" data-qualified-name="Page" data-source-line="45" id="part7-head"><rect fill="#E2E2F0" height="46.9766" rx="2.5" ry="2.5" style="stroke:#181818;stroke-width:0.5;" width="141.5723" x="1166.3403" y="87.4883"/><text fill="#000000" font-family="sans-serif" font-size="14" lengthAdjust="spacing" textLength="127.5723" x="1173.3403" y="108.0234">DiagramPage::load</text><text fill="#000000" font-family="sans-serif" font-size="14" lengthAdjust="spacing" textLength="102.7783" x="1185.7373" y="124.5117">+ paint_canvas</text></g><g class="participant participant-tail" data-entity-uid="part7" data-qualified-name="Page" data-source-line="45" id="part7-tail"><rect fill="#E2E2F0" height="46.9766" rx="2.5" ry="2.5" style="stroke:#181818;stroke-width:0.5;" width="141.5723" x="1166.3403" y="801.5176"/><text fill="#000000" font-family="sans-serif" font-size="14" lengthAdjust="spacing" textLength="127.5723" x="1173.3403" y="822.0527">DiagramPage::load</text><text fill="#000000" font-family="sans-serif" font-size="14" lengthAdjust="spacing" textLength="102.7783" x="1185.7373" y="838.541">+ paint_canvas</text></g><g class="message" data-entity-1="part1" data-entity-2="part2" data-source-line="47" id="msg1"><polygon fill="#181818" points="251.4751,162.7754,261.4751,166.7754,251.4751,170.7754,255.4751,166.7754" style="stroke:#181818;stroke-width:1;"/><line style="stroke:#181818;stroke-width:1;" x1="77.1592" x2="257.4751" y1="166.7754" y2="166.7754"/><text fill="#000000" font-family="sans-serif" font-size="13" lengthAdjust="spacing" textLength="162.3159" x="84.1592" y="162.0332">select a .ocl file in the rail</text></g><g class="message" data-entity-1="part2" data-entity-2="part2" data-source-line="48" id="msg2"><line style="stroke:#181818;stroke-width:1;" x1="263.4751" x2="305.4751" y1="196.0859" y2="196.0859"/><line style="stroke:#181818;stroke-width:1;" x1="305.4751" x2="305.4751" y1="196.0859" y2="209.0859"/><line style="stroke:#181818;stroke-width:1;" x1="264.4751" x2="305.4751" y1="209.0859" y2="209.0859"/><polygon fill="#181818" points="274.4751,205.0859,264.4751,209.0859,274.4751,213.0859,270.4751,209.0859" style="stroke:#181818;stroke-width:1;"/><text fill="#000000" font-family="sans-serif" font-size="13" lengthAdjust="spacing" textLength="197.3105" x="270.4751" y="191.3438">kind == ModelKind::Constraint</text></g><g class="message" data-entity-1="part2" data-entity-2="part3" data-source-line="49" id="msg3"><polygon fill="#181818" points="462.7856,234.3965,472.7856,238.3965,462.7856,242.3965,466.7856,238.3965" style="stroke:#181818;stroke-width:1;"/><line style="stroke:#181818;stroke-width:1;" x1="263.4751" x2="468.7856" y1="238.3965" y2="238.3965"/><text fill="#000000" font-family="sans-serif" font-size="13" lengthAdjust="spacing" textLength="84.7285" x="270.4751" y="233.6543">ocl_ui(ui, ctx)</text></g><g class="message" data-entity-1="part3" data-entity-2="part4" data-source-line="50" id="msg4"><polygon fill="#181818" points="703.6597,263.707,713.6597,267.707,703.6597,271.707,707.6597,267.707" style="stroke:#181818;stroke-width:1;"/><line style="stroke:#181818;stroke-width:1;" x1="474.7856" x2="709.6597" y1="267.707" y2="267.707"/><text fill="#000000" font-family="sans-serif" font-size="13" lengthAdjust="spacing" textLength="216.874" x="481.7856" y="262.9648">read_to_string when loaded != file</text></g><g class="message" data-entity-1="part4" data-entity-2="part3" data-source-line="51" id="msg5"><polygon fill="#181818" points="485.7856,293.0176,475.7856,297.0176,485.7856,301.0176,481.7856,297.0176" style="stroke:#181818;stroke-width:1;"/><line style="stroke:#181818;stroke-width:1;stroke-dasharray:2,2;" x1="479.7856" x2="714.6597" y1="297.0176" y2="297.0176"/><text fill="#000000" font-family="sans-serif" font-size="13" lengthAdjust="spacing" textLength="194.1685" x="491.7856" y="292.2754">OCL source -&gt; OclView.source</text></g><g class="message" data-entity-1="part3" data-entity-2="part1" data-source-line="52" id="msg6"><polygon fill="#181818" points="88.1592,322.3281,78.1592,326.3281,88.1592,330.3281,84.1592,326.3281" style="stroke:#181818;stroke-width:1;"/><line style="stroke:#181818;stroke-width:1;" x1="82.1592" x2="473.7856" y1="326.3281" y2="326.3281"/><text fill="#000000" font-family="sans-serif" font-size="13" lengthAdjust="spacing" textLength="265.6875" x="94.1592" y="321.5859">"Source | Diagram" toggle (default Source)</text></g><path d="M10,341.3281 L72.1387,341.3281 L72.1387,348.6387 L62.1387,358.6387 L10,358.6387 L10,341.3281" fill="#EEEEEE" style="stroke:#000000;stroke-width:1.5;"/><rect fill="none" height="347.6367" style="stroke:#000000;stroke-width:1.5;" width="1327.9126" x="10" y="341.3281"/><text fill="#000000" font-family="sans-serif" font-size="13" font-weight="700" lengthAdjust="spacing" textLength="17.1387" x="25" y="354.8965">alt</text><text fill="#000000" font-family="sans-serif" font-size="11" font-weight="700" lengthAdjust="spacing" textLength="171.4453" x="87.1387" y="353.9629">[sub_mode = Source (default)]</text><path d="M30,365.6387 L104.4468,365.6387 L104.4468,372.9492 L94.4468,382.9492 L30,382.9492 L30,365.6387" fill="#EEEEEE" style="stroke:#000000;stroke-width:1.5;"/><rect fill="none" height="61.9316" style="stroke:#000000;stroke-width:1.5;" width="528.2378" x="30" y="365.6387"/><text fill="#000000" font-family="sans-serif" font-size="13" font-weight="700" lengthAdjust="spacing" textLength="29.4468" x="45" y="379.207">loop</text><text fill="#000000" font-family="sans-serif" font-size="11" font-weight="700" lengthAdjust="spacing" textLength="117.2832" x="119.4468" y="378.2734">[each painted frame]</text><g class="message" data-entity-1="part3" data-entity-2="part1" data-source-line="56" id="msg7"><polygon fill="#181818" points="88.1592,415.5703,78.1592,419.5703,88.1592,423.5703,84.1592,419.5703" style="stroke:#181818;stroke-width:1;"/><line style="stroke:#181818;stroke-width:1;" x1="82.1592" x2="473.7856" y1="419.5703" y2="419.5703"/><text fill="#000000" font-family="sans-serif" font-size="13" lengthAdjust="spacing" textLength="179.7974" x="94.1592" y="399.5176">ScrollArea of read-only lines</text><text fill="#000000" font-family="sans-serif" font-size="13" lengthAdjust="spacing" textLength="162.6396" x="94.1592" y="414.8281">(@id/context/inv colored)</text></g><line style="stroke:#000000;stroke-width:1;stroke-dasharray:2,2;" x1="10" x2="1337.9126" y1="435.5703" y2="435.5703"/><text fill="#000000" font-family="sans-serif" font-size="11" font-weight="700" lengthAdjust="spacing" textLength="129.9697" x="15" y="446.2051">[sub_mode = Diagram]</text><g class="message" data-entity-1="part3" data-entity-2="part6" data-source-line="59" id="msg8"><polygon fill="#181818" points="1044.4819,466.8359,1054.4819,470.8359,1044.4819,474.8359,1048.4819,470.8359" style="stroke:#181818;stroke-width:1;"/><line style="stroke:#181818;stroke-width:1;" x1="474.7856" x2="1050.4819" y1="470.8359" y2="470.8359"/><text fill="#000000" font-family="sans-serif" font-size="13" lengthAdjust="spacing" textLength="221.7998" x="481.7856" y="466.0938">Project::rendered_svg_path(file_rel)</text></g><path d="M20,485.8359 L82.1387,485.8359 L82.1387,493.1465 L72.1387,503.1465 L20,503.1465 L20,485.8359" fill="#EEEEEE" style="stroke:#000000;stroke-width:1.5;"/><rect fill="none" height="196.1289" style="stroke:#000000;stroke-width:1.5;" width="1307.9126" x="20" y="485.8359"/><text fill="#000000" font-family="sans-serif" font-size="13" font-weight="700" lengthAdjust="spacing" textLength="17.1387" x="35" y="499.4043">alt</text><text fill="#000000" font-family="sans-serif" font-size="11" font-weight="700" lengthAdjust="spacing" textLength="131.7959" x="97.1387" y="498.4707">[rendered SVG present]</text><g class="message" data-entity-1="part6" data-entity-2="part7" data-source-line="61" id="msg9"><polygon fill="#181818" points="1225.1265,520.457,1235.1265,524.457,1225.1265,528.457,1229.1265,524.457" style="stroke:#181818;stroke-width:1;"/><line style="stroke:#181818;stroke-width:1;stroke-dasharray:2,2;" x1="1056.4819" x2="1231.1265" y1="524.457" y2="524.457"/><text fill="#000000" font-family="sans-serif" font-size="13" lengthAdjust="spacing" textLength="148.3765" x="1063.4819" y="519.7148">DiagramPage::load(svg)</text></g><path d="M30,539.457 L104.4468,539.457 L104.4468,546.7676 L94.4468,556.7676 L30,556.7676 L30,539.457" fill="#EEEEEE" style="stroke:#000000;stroke-width:1.5;"/><rect fill="none" height="75.9316" style="stroke:#000000;stroke-width:1.5;" width="1287.9126" x="30" y="539.457"/><text fill="#000000" font-family="sans-serif" font-size="13" font-weight="700" lengthAdjust="spacing" textLength="29.4468" x="45" y="553.0254">loop</text><text fill="#000000" font-family="sans-serif" font-size="11" font-weight="700" lengthAdjust="spacing" textLength="117.2832" x="119.4468" y="552.0918">[each painted frame]</text><g class="message" data-entity-1="part3" data-entity-2="part7" data-source-line="63" id="msg10"><polygon fill="#181818" points="1225.1265,574.0781,1235.1265,578.0781,1225.1265,582.0781,1229.1265,578.0781" style="stroke:#181818;stroke-width:1;"/><line style="stroke:#181818;stroke-width:1;" x1="474.7856" x2="1231.1265" y1="578.0781" y2="578.0781"/><text fill="#000000" font-family="sans-serif" font-size="13" lengthAdjust="spacing" textLength="206.1592" x="481.7856" y="573.3359">paint_canvas (pan/zoom reused)</text></g><g class="message" data-entity-1="part7" data-entity-2="part1" data-source-line="64" id="msg11"><polygon fill="#181818" points="88.1592,603.3887,78.1592,607.3887,88.1592,611.3887,84.1592,607.3887" style="stroke:#181818;stroke-width:1;"/><line style="stroke:#181818;stroke-width:1;stroke-dasharray:2,2;" x1="82.1592" x2="1236.1265" y1="607.3887" y2="607.3887"/><text fill="#000000" font-family="sans-serif" font-size="13" lengthAdjust="spacing" textLength="205.0229" x="94.1592" y="602.6465">synthesized constraints diagram</text></g><line style="stroke:#000000;stroke-width:1;stroke-dasharray:2,2;" x1="20" x2="1327.9126" y1="623.3887" y2="623.3887"/><text fill="#000000" font-family="sans-serif" font-size="11" font-weight="700" lengthAdjust="spacing" textLength="78.6919" x="25" y="634.0234">[SVG missing]</text><g class="message" data-entity-1="part3" data-entity-2="part1" data-source-line="67" id="msg12"><polygon fill="#181818" points="88.1592,669.9648,78.1592,673.9648,88.1592,677.9648,84.1592,673.9648" style="stroke:#181818;stroke-width:1;"/><line style="stroke:#181818;stroke-width:1;" x1="82.1592" x2="473.7856" y1="673.9648" y2="673.9648"/><text fill="#000000" font-family="sans-serif" font-size="13" lengthAdjust="spacing" textLength="230.5723" x="94.1592" y="653.9121">"No rendered constraints diagram &#8212;</text><text fill="#000000" font-family="sans-serif" font-size="13" lengthAdjust="spacing" textLength="150.3887" x="94.1592" y="669.2227">run the render pipeline"</text></g><path d="M691,700.9648 L691,786.9648 L1045,786.9648 L1045,710.9648 L1035,700.9648 L691,700.9648" fill="#FEFFDD" style="stroke:#181818;stroke-width:0.5;"/><path d="M1035,700.9648 L1035,710.9648 L1045,710.9648 L1035,700.9648" fill="#FEFFDD" style="stroke:#181818;stroke-width:0.5;"/><text fill="#000000" font-family="sans-serif" font-size="13" lengthAdjust="spacing" textLength="209.3647" x="697" y="718.5332">render_ocl_diagrams enumerates</text><text fill="#000000" font-family="sans-serif" font-size="13" lengthAdjust="spacing" textLength="294.4551" x="697" y="733.8438">Project::constraint_files(); synthesize_ocl_puml</text><text fill="#000000" font-family="sans-serif" font-size="13" lengthAdjust="spacing" textLength="306.668" x="697" y="749.1543">builds a context/inv/@ref diagram; rasterized to</text><text fill="#000000" font-family="sans-serif" font-size="13" lengthAdjust="spacing" textLength="333.0996" x="697" y="764.4648">the .mdd/rendered/constraints/&lt;name&gt;.svg mirror.</text><text fill="#000000" font-family="sans-serif" font-size="13" lengthAdjust="spacing" textLength="284.5146" x="697" y="779.7754">Invoked by /mdd-render and the cycle close.</text><?plantuml-src jLRDZjis4BxhAQRgeHRgd_HI8DeVPBDnYg1DDwrHzs90u9AqpIv52YHbPvC6w4Fq2ViadI4bM-vkSkeUR5ZKp3SptymtjBzJfc6ErT1woPcNy343UCdutSRPreXhgwqxFsT2I75v2Ly_VpQVFt_sc8cJjTqbezUlNtv__LtsAVC7TAwPzq-5RUl66cd24-7xmC9JyU8a3yniz5FXCnwiUo9i_0wAguRzpyn_0o-K62tclqoMR-Q_JswkVohepCdrwBV5V7Y8nzUjSzZwYLT2mbhRFJ0FgcwqhF5OYXBsMsaWR2LugP5jAM2ja6yiGu3o166D3uuf4yRmLeYbadlfoj9oNRKA_DRkFJ1OsDPnENkbs8QA3tQ3NJk3xXbXd4G9-VxW7Tj8-1OvGjYACxF3j6pAerREMOTvOE92qe_5yeTfhEQ5a9wVb3w6_CfFRbkbGmbTIauouIFK54y08rYuuPeId_gO9gonwobZgAquvec-tkeTvldEsJ-GZhBiiwZyRbCrB6n7X5gCGLiAemBi51kMLPRq1XZo5ykBDdiLjYVLZa5gN2SC6isut5gDGQPvaGKLa7tA5H40AqJzzlodpenuwccHPMbyyrTo9xLjfCkfk_W4X-7AXbEO3zhNDW9bkp8ZkSQyCUchfYcYVxBuh6CYUMKwHZ_wzhOY3Zz5vvjbXhZibbPbFgs5c1tJzxELEJSOx98OJEPSdmP2ZoenNfOhatvL558aWdrq-nNF_nkdxzFZ0R5vAM0RJWC-QDpAd8vbTAFNMKRCJYuxWg3i58CzZ7CMcwFI36DudNLsGu-egeiBU8k4wH_neIoFyXeut2oX7-THgyR0m_iYmqDwXQ7AEEDLi1MwAhD98gRiKIrVNSHKCZASz5WqIDti9uo16ZfWggw4l9F5d_r8vvsMOIJachKwTCAXySE7llrmqGkgjojmeMbh6v2CTxDFouMc3Ty03ACkkBDQNs5LODUnk8ar-XwqCjBZaEB6exu6-JxCbDcX9ZIj20f1en2bDCYatpfz4Emw1lc2f8amd3jDW5JLSFL0Wqi1zPQIHYGYDUwlyg7iHmXPHCilbTxdrQ6SRC4HpkNiWxLrsfYYw3oYxUJ0cBytE6XUVK3WmSI3E9IUg86qPwYEMdcFm_A0_FndUopu4Ipuvw-_KOjjDzhH4XhLIEfEthS0Fvcn-4y0BooN50hmY83Hkgsbm-NZqU3GasFSYfhXHyNPeCQ8qBIrHXTQzeAkdC50pEZww_CzG_dv85ta9bXqYNV1PvV4SKLqTyyKNTwOdRr3_zjxcA7df2kRjZgXyNkEak3QUZcbse5A_nS0?></g></svg>