<svg xmlns="http://www.w3.org/2000/svg" xmlns:xlink="http://www.w3.org/1999/xlink" contentStyleType="text/css" data-diagram-type="CLASS" height="451px" preserveAspectRatio="none" style="width:988px;height:451px;background:#FFFFFF;" version="1.1" viewBox="0 0 988 451" width="988px" zoomAndPan="magnify"><?plantuml 1.2026.3?><defs/><g><g class="title" data-source-line="4"><text fill="#000000" font-family="sans-serif" font-size="14" font-weight="700" lengthAdjust="spacing" textLength="296.8096" x="342.5681" y="23.5352">Architecture diff + check model (current)</text></g><!--class ArchDiff--><g class="entity" data-qualified-name="ArchDiff" data-source-line="6" id="ent0002"><rect fill="#F1F1F1" height="212.8828" rx="2.5" ry="2.5" style="stroke:#181818;stroke-width:0.5;" width="243.6494" x="7" y="44.4883"/><ellipse cx="96.5371" cy="60.4883" fill="#ADD1B2" rx="11" ry="11" style="stroke:#181818;stroke-width:1;"/><path d="M99.0103,66.6313 Q98.4292,66.9302 97.79,67.0796 Q97.1509,67.229 96.4453,67.229 Q93.9385,67.229 92.6187,65.5771 Q91.2988,63.9253 91.2988,60.8042 Q91.2988,57.6748 92.6187,56.0229 Q93.9385,54.3711 96.4453,54.3711 Q97.1509,54.3711 97.7983,54.5205 Q98.4458,54.6699 99.0103,54.9688 L99.0103,57.6914 Q98.3794,57.1104 97.7859,56.8406 Q97.1924,56.5708 96.5615,56.5708 Q95.2168,56.5708 94.532,57.6375 Q93.8472,58.7041 93.8472,60.8042 Q93.8472,62.896 94.532,63.9626 Q95.2168,65.0293 96.5615,65.0293 Q97.1924,65.0293 97.7859,64.7595 Q98.3794,64.4897 99.0103,63.9087 Z " fill="#000000"/><text fill="#000000" font-family="sans-serif" font-size="14" lengthAdjust="spacing" textLength="56.0752" x="117.0371" y="65.7793">ArchDiff</text><line style="stroke:#181818;stroke-width:0.5;" x1="8" x2="249.6494" y1="76.4883" y2="76.4883"/><g data-visibility-modifier="PUBLIC_FIELD"><ellipse cx="18" cy="90.2324" fill="none" rx="3" ry="3" style="stroke:#038048;stroke-width:1;"/></g><text fill="#000000" font-family="sans-serif" font-size="14" lengthAdjust="spacing" textLength="200.5596" x="27" y="94.0234">addedComponents : List&lt;Id&gt;</text><g data-visibility-modifier="PUBLIC_FIELD"><ellipse cx="18" cy="106.7207" fill="none" rx="3" ry="3" style="stroke:#038048;stroke-width:1;"/></g><text fill="#000000" font-family="sans-serif" font-size="14" lengthAdjust="spacing" textLength="217.6494" x="27" y="110.5117">removedComponents : List&lt;Id&gt;</text><g data-visibility-modifier="PUBLIC_FIELD"><ellipse cx="18" cy="123.209" fill="none" rx="3" ry="3" style="stroke:#038048;stroke-width:1;"/></g><text fill="#000000" font-family="sans-serif" font-size="14" lengthAdjust="spacing" textLength="216.2139" x="27" y="127">changedComponents : List&lt;Id&gt;</text><g data-visibility-modifier="PUBLIC_FIELD"><ellipse cx="18" cy="139.6973" fill="none" rx="3" ry="3" style="stroke:#038048;stroke-width:1;"/></g><text fill="#000000" font-family="sans-serif" font-size="14" lengthAdjust="spacing" textLength="179.3545" x="27" y="143.4883">addedDecisions : List&lt;Id&gt;</text><g data-visibility-modifier="PUBLIC_FIELD"><ellipse cx="18" cy="156.1855" fill="none" rx="3" ry="3" style="stroke:#038048;stroke-width:1;"/></g><text fill="#000000" font-family="sans-serif" font-size="14" lengthAdjust="spacing" textLength="196.4443" x="27" y="159.9766">removedDecisions : List&lt;Id&gt;</text><g data-visibility-modifier="PUBLIC_FIELD"><ellipse cx="18" cy="172.6738" fill="none" rx="3" ry="3" style="stroke:#038048;stroke-width:1;"/></g><text fill="#000000" font-family="sans-serif" font-size="14" lengthAdjust="spacing" textLength="195.0088" x="27" y="176.4648">changedDecisions : List&lt;Id&gt;</text><g data-visibility-modifier="PUBLIC_FIELD"><ellipse cx="18" cy="189.1621" fill="none" rx="3" ry="3" style="stroke:#038048;stroke-width:1;"/></g><text fill="#000000" font-family="sans-serif" font-size="14" lengthAdjust="spacing" textLength="192.1582" x="27" y="192.9531">addedConstraints : List&lt;Id&gt;</text><g data-visibility-modifier="PUBLIC_FIELD"><ellipse cx="18" cy="205.6504" fill="none" rx="3" ry="3" style="stroke:#038048;stroke-width:1;"/></g><text fill="#000000" font-family="sans-serif" font-size="14" lengthAdjust="spacing" textLength="209.248" x="27" y="209.4414">removedConstraints : List&lt;Id&gt;</text><g data-visibility-modifier="PUBLIC_FIELD"><ellipse cx="18" cy="222.1387" fill="none" rx="3" ry="3" style="stroke:#038048;stroke-width:1;"/></g><text fill="#000000" font-family="sans-serif" font-size="14" lengthAdjust="spacing" textLength="207.8125" x="27" y="225.9297">changedConstraints : List&lt;Id&gt;</text><line style="stroke:#181818;stroke-width:0.5;" x1="8" x2="249.6494" y1="232.8828" y2="232.8828"/><g data-visibility-modifier="PUBLIC_METHOD"><ellipse cx="18" cy="246.627" fill="#84BE84" rx="3" ry="3" style="stroke:#038048;stroke-width:1;"/></g><text fill="#000000" font-family="sans-serif" font-size="14" lengthAdjust="spacing" textLength="129.1172" x="27" y="250.418">isEmpty() : Boolean</text></g><!--class ArchViolation--><g class="entity" data-qualified-name="ArchViolation" data-source-line="18" id="ent0003"><rect fill="#F1F1F1" height="97.4648" rx="2.5" ry="2.5" style="stroke:#181818;stroke-width:0.5;" width="159.8545" x="411.9" y="102.1983"/><ellipse cx="443.3061" cy="118.1983" fill="#ADD1B2" rx="11" ry="11" style="stroke:#181818;stroke-width:1;"/><path d="M445.7792,124.3413 Q445.1982,124.6402 444.559,124.7896 Q443.9199,124.939 443.2143,124.939 Q440.7075,124.939 439.3876,123.2871 Q438.0678,121.6353 438.0678,118.5142 Q438.0678,115.3848 439.3876,113.7329 Q440.7075,112.0811 443.2143,112.0811 Q443.9199,112.0811 444.5673,112.2305 Q445.2148,112.3799 445.7792,112.6787 L445.7792,115.4014 Q445.1484,114.8204 444.5549,114.5506 Q443.9614,114.2808 443.3305,114.2808 Q441.9858,114.2808 441.301,115.3475 Q440.6162,116.4141 440.6162,118.5142 Q440.6162,120.606 441.301,121.6726 Q441.9858,122.7393 443.3305,122.7393 Q443.9614,122.7393 444.5549,122.4695 Q445.1484,122.1997 445.7792,121.6187 Z " fill="#000000"/><text fill="#000000" font-family="sans-serif" font-size="14" lengthAdjust="spacing" textLength="91.3965" x="460.9519" y="123.4893">ArchViolation</text><line style="stroke:#181818;stroke-width:0.5;" x1="412.9" x2="570.7545" y1="134.1983" y2="134.1983"/><g data-visibility-modifier="PUBLIC_FIELD"><ellipse cx="422.9" cy="147.9424" fill="none" rx="3" ry="3" style="stroke:#038048;stroke-width:1;"/></g><text fill="#000000" font-family="sans-serif" font-size="14" lengthAdjust="spacing" textLength="133.8545" x="431.9" y="151.7334">kind : ViolationKind</text><g data-visibility-modifier="PUBLIC_FIELD"><ellipse cx="422.9" cy="164.4307" fill="none" rx="3" ry="3" style="stroke:#038048;stroke-width:1;"/></g><text fill="#000000" font-family="sans-serif" font-size="14" lengthAdjust="spacing" textLength="75.2363" x="431.9" y="168.2217">subject : Id</text><g data-visibility-modifier="PUBLIC_FIELD"><ellipse cx="422.9" cy="180.919" fill="none" rx="3" ry="3" style="stroke:#038048;stroke-width:1;"/></g><text fill="#000000" font-family="sans-serif" font-size="14" lengthAdjust="spacing" textLength="112.6631" x="431.9" y="184.71">message : String</text><line style="stroke:#181818;stroke-width:0.5;" x1="412.9" x2="570.7545" y1="191.6631" y2="191.6631"/></g><!--class ViolationKind--><g class="entity" data-qualified-name="ViolationKind" data-source-line="23" id="ent0004"><rect fill="#F1F1F1" height="97.4648" rx="2.5" ry="2.5" style="stroke:#181818;stroke-width:0.5;" width="209.7432" x="386.95" y="336.5783"/><ellipse cx="442.1536" cy="352.5783" fill="#EB937F" rx="11" ry="11" style="stroke:#181818;stroke-width:1;"/><path d="M445.7679,359.0783 L438.0481,359.0783 L438.0481,346.6852 L445.7679,346.6852 L445.7679,348.8434 L440.4969,348.8434 L440.4969,351.5163 L445.2698,351.5163 L445.2698,353.6745 L440.4969,353.6745 L440.4969,356.9201 L445.7679,356.9201 Z " fill="#000000"/><text fill="#000000" font-family="sans-serif" font-size="14" lengthAdjust="spacing" textLength="90.8359" x="462.6536" y="357.8693">ViolationKind</text><line style="stroke:#181818;stroke-width:0.5;" x1="387.95" x2="595.6932" y1="368.5783" y2="368.5783"/><text fill="#000000" font-family="sans-serif" font-size="14" lengthAdjust="spacing" textLength="151.3887" x="392.95" y="386.1134">DecisionMissingStatus</text><text fill="#000000" font-family="sans-serif" font-size="14" lengthAdjust="spacing" textLength="197.7432" x="392.95" y="402.6017">SupersededMissingSuccessor</text><text fill="#000000" font-family="sans-serif" font-size="14" lengthAdjust="spacing" textLength="176.5381" x="392.95" y="419.09">ComponentRefUnresolved</text><line style="stroke:#181818;stroke-width:0.5;" x1="387.95" x2="595.6932" y1="426.0431" y2="426.0431"/></g><!--class ArchitectureSpec--><g class="entity" data-qualified-name="ArchitectureSpec" data-source-line="29" id="ent0005"><rect fill="#F1F1F1" height="48" rx="2.5" ry="2.5" style="stroke:#181818;stroke-width:0.5;" width="146.2764" x="130.69" y="361.3083"/><ellipse cx="145.69" cy="377.3083" fill="#ADD1B2" rx="11" ry="11" style="stroke:#181818;stroke-width:1;"/><path d="M148.1631,383.4513 Q147.5821,383.7502 146.9429,383.8996 Q146.3038,384.049 145.5982,384.049 Q143.0914,384.049 141.7715,382.3971 Q140.4517,380.7453 140.4517,377.6242 Q140.4517,374.4948 141.7715,372.8429 Q143.0914,371.1911 145.5982,371.1911 Q146.3038,371.1911 146.9512,371.3405 Q147.5987,371.4899 148.1631,371.7888 L148.1631,374.5114 Q147.5323,373.9304 146.9388,373.6606 Q146.3453,373.3908 145.7144,373.3908 Q144.3697,373.3908 143.6849,374.4575 Q143.0001,375.5241 143.0001,377.6242 Q143.0001,379.716 143.6849,380.7826 Q144.3697,381.8493 145.7144,381.8493 Q146.3453,381.8493 146.9388,381.5795 Q147.5323,381.3097 148.1631,380.7287 Z " fill="#000000"/><text fill="#000000" font-family="sans-serif" font-size="14" lengthAdjust="spacing" textLength="114.2764" x="159.69" y="382.5993">ArchitectureSpec</text><line style="stroke:#181818;stroke-width:0.5;" x1="131.69" x2="275.9664" y1="393.3083" y2="393.3083"/><line style="stroke:#181818;stroke-width:0.5;" x1="131.69" x2="275.9664" y1="401.3083" y2="401.3083"/></g><g class="entity" data-qualified-name="GMN9" data-source-line="34" id="ent0010"><path d="M631.71,334.3783 L631.71,436.2416 A0,0 0 0 0 631.71,436.2416 L973.9458,436.2416 A0,0 0 0 0 973.9458,436.2416 L973.9458,344.3783 L963.9458,334.3783 L739.51,334.3783 L556.26,200.0783 L731.51,334.3783 L631.71,334.3783 A0,0 0 0 0 631.71,334.3783" fill="#FEFFDD" style="stroke:#181818;stroke-width:0.5;"/><path d="M963.9458,334.3783 L963.9458,344.3783 L973.9458,344.3783 L963.9458,334.3783" fill="#FEFFDD" style="stroke:#181818;stroke-width:0.5;"/><text fill="#000000" font-family="sans-serif" font-size="13" lengthAdjust="spacing" textLength="279.3159" x="637.71" y="351.9466">check() backs both `mdd arch status` (exits</text><text fill="#000000" font-family="sans-serif" font-size="13" lengthAdjust="spacing" textLength="321.2358" x="637.71" y="367.2572">non-zero on any violation) and the WARNING-level</text><text fill="#000000" font-family="sans-serif" font-size="13" lengthAdjust="spacing" textLength="223.8691" x="637.71" y="382.5677">OCL-ARCH-* rules in mdd validate:</text><text fill="#000000" font-family="sans-serif" font-size="13" lengthAdjust="spacing" textLength="229.8804" x="637.71" y="397.8783">OCL-ARCH-DECISION-HAS-STATUS,</text><text fill="#000000" font-family="sans-serif" font-size="13" lengthAdjust="spacing" textLength="203.2837" x="637.71" y="413.1888">OCL-ARCH-SUPERSEDE-LINKED,</text><text fill="#000000" font-family="sans-serif" font-size="13" lengthAdjust="spacing" textLength="232.064" x="637.71" y="428.4994">OCL-ARCH-COMPONENTS-IN-SYNC.</text></g><!--link ArchDiff to ArchitectureSpec--><g class="link" data-entity-1="ent0002" data-entity-2="ent0005" data-link-type="dependency" data-source-line="29" id="lnk6"><path codeLine="29" d="M115.74,257.7183 C116.87,273.7483 119.89,289.7883 125.82,304.3783 C135.04,326.9983 149.4782,342.8681 166.4382,357.0581" fill="none" id="ArchDiff-to-ArchitectureSpec" style="stroke:#181818;stroke-width:1;stroke-dasharray:7,7;"/><polygon fill="#181818" points="171.04,360.9083,166.7041,352.0652,167.2052,357.6998,161.5706,358.2009,171.04,360.9083" style="stroke:#181818;stroke-width:1;"/><polygon fill="#000000" points="133.0929,300.4871,131.5989,291.0946,126.3635,293.7665,133.0929,300.4871" style="stroke:#000000;stroke-width:1;"/><text fill="#000000" font-family="sans-serif" font-size="13" lengthAdjust="spacing" textLength="114.9624" x="139.82" y="300.9466">diff(base, head) of</text></g><!--link ArchViolation to ArchitectureSpec--><g class="link" data-entity-1="ent0003" data-entity-2="ent0005" data-link-type="dependency" data-source-line="30" id="lnk7"><path codeLine="30" d="M425.82,199.9283 C391.6,225.2983 349.42,257.3383 312.82,287.3783 C283.27,311.6383 255.0784,336.939 233.2984,356.949" fill="none" id="ArchViolation-to-ArchitectureSpec" style="stroke:#181818;stroke-width:1;stroke-dasharray:7,7;"/><polygon fill="#181818" points="228.88,361.0083,238.2138,357.8649,232.562,357.6255,232.8014,351.9737,228.88,361.0083" style="stroke:#181818;stroke-width:1;"/><polygon fill="#000000" points="313.9453,299.1937,322.8122,295.7544,319.0972,291.1994,313.9453,299.1937" style="stroke:#000000;stroke-width:1;"/><text fill="#000000" font-family="sans-serif" font-size="13" lengthAdjust="spacing" textLength="156.3555" x="326.82" y="300.9466">check(spec, modelIds) of</text></g><!--link ArchViolation to ViolationKind--><g class="link" data-entity-1="ent0003" data-entity-2="ent0004" data-link-type="dependency" data-source-line="31" id="lnk8"><path codeLine="31" d="M491.82,200.0783 C491.82,239.9583 491.82,290.3583 491.82,330.2183" fill="none" id="ArchViolation-to-ViolationKind" style="stroke:#181818;stroke-width:1;"/><polygon fill="#181818" points="491.82,336.2183,495.82,327.2183,491.82,331.2183,487.82,327.2183,491.82,336.2183" style="stroke:#181818;stroke-width:1;"/></g><?plantuml-src XLHDRzf04BtxLunw2MwnYNehgL0eaCPAOYASjEgfMNO7s6BlMhjhLBVgV-_O68AJMZs5pDURVM-Up-1IYjvqVXUC5vFhO1fTNVdU6LmAjBmTxiERACjJp50v520LSCCSsa4cHC2rmO4rVC0CtqY7t1K6GsE7CAR0LAvMa3FZf9DQMU0RfjPeOLa23PEkX7SW1VIO42W61ZEzex_xAW5SPxbML6Zx891BMyteKrXPPvYak0yxoS1j47A21K5mlIMps8SDCk5Vr4jyaJfb5Jw17N_VI2N0OAwDWwNHMrGmdzpk7_sMthXZHZ92Q0Fm3V9jp-R8-v1fWUbtAQmVmYVjDi1CKzLJ6gBvO2sTtmUhg_OI2YLTGAmvsj8GJMbvqOppOSduri8JyGaLZM0TSuLz0aOxLjWxbaf1bCFNyIAEuizWYXHj-AOIR58OGnG5LWeYG6V42woqgVjEDQd98GPgpFtoqECbJn7Epzz_y4EFzA1_nl_jsGFwdiTJPkspphyzeDfQoibHEHZ2hRJkOoH6TRhHkBkW4R-xe0QO7iwXOtvdlXdVcM_MFrvOv_wT5SS7T5P8EyjoLvBmGxeSdI9JtfyJDfyFTa_fjhhLOVjswuGjbZz8ASf5-q26rh8rKY1nHgerZKLLP2_Elffw8E1EMak5INrn54-A78r58k6GAJYdgTfGyYZA0bUFog3LAN518Dxn2C9mr3gXXBn2wxnq9kWLZBpsOpjQNtak8ilzgpy8HYyuyfGcqoorSpghEbhrz9ws_vQLYL-Ri8S_fQkeKLe5lz1e82ocIleoD9Fyer4RVmOfxZ2bbfDFIctPwkDP0HmCFJojcSucKHBDu-1wd0J9m_ZXCUcVvfF7-zaYcKrdmMqKtyochUHaVdS_ZsVnGn94SP1yYoSXII-WOk0l?></g></svg>