<svg xmlns="http://www.w3.org/2000/svg" xmlns:xlink="http://www.w3.org/1999/xlink" contentStyleType="text/css" data-diagram-type="CLASS" height="401px" preserveAspectRatio="none" style="width:428px;height:401px;background:#FFFFFF;" version="1.1" viewBox="0 0 428 401" width="428px" zoomAndPan="magnify"><?plantuml 1.2026.3?><defs/><g><g class="title" data-source-line="5"><text fill="#000000" font-family="sans-serif" font-size="14" font-weight="700" lengthAdjust="spacing" textLength="260.7363" x="80.2498" y="23.5352">Diagram canvas view state (current)</text></g><!--class CanvasView--><g class="entity" data-qualified-name="CanvasView" data-source-line="7" id="ent0002"><rect fill="#F1F1F1" height="179.9063" rx="2.5" ry="2.5" style="stroke:#181818;stroke-width:0.5;" width="273.6797" x="72.78" y="44.4883"/><ellipse cx="165.3659" cy="60.4883" fill="#ADD1B2" rx="11" ry="11" style="stroke:#181818;stroke-width:1;"/><path d="M167.8391,66.6313 Q167.258,66.9302 166.6189,67.0796 Q165.9797,67.229 165.2741,67.229 Q162.7673,67.229 161.4475,65.5771 Q160.1277,63.9253 160.1277,60.8042 Q160.1277,57.6748 161.4475,56.0229 Q162.7673,54.3711 165.2741,54.3711 Q165.9797,54.3711 166.6272,54.5205 Q167.2746,54.6699 167.8391,54.9688 L167.8391,57.6914 Q167.2082,57.1104 166.6147,56.8406 Q166.0212,56.5708 165.3904,56.5708 Q164.0456,56.5708 163.3608,57.6375 Q162.676,58.7041 162.676,60.8042 Q162.676,62.896 163.3608,63.9626 Q164.0456,65.0293 165.3904,65.0293 Q166.0212,65.0293 166.6147,64.7595 Q167.2082,64.4897 167.8391,63.9087 Z " fill="#000000"/><text fill="#000000" font-family="sans-serif" font-size="14" lengthAdjust="spacing" textLength="80.0078" x="185.8659" y="65.7793">CanvasView</text><line style="stroke:#181818;stroke-width:0.5;" x1="73.78" x2="345.4597" y1="76.4883" y2="76.4883"/><g data-visibility-modifier="PUBLIC_FIELD"><ellipse cx="83.78" cy="90.2324" fill="none" rx="3" ry="3" style="stroke:#038048;stroke-width:1;"/></g><text fill="#000000" font-family="sans-serif" font-size="14" lengthAdjust="spacing" textLength="112.916" x="92.78" y="94.0234">base_zoom : f32</text><g data-visibility-modifier="PUBLIC_FIELD"><ellipse cx="83.78" cy="106.7207" fill="none" rx="3" ry="3" style="stroke:#038048;stroke-width:1;"/></g><text fill="#000000" font-family="sans-serif" font-size="14" lengthAdjust="spacing" textLength="71.4971" x="92.78" y="110.5117">pan : Vec2</text><g data-visibility-modifier="PUBLIC_FIELD"><ellipse cx="83.78" cy="123.209" fill="none" rx="3" ry="3" style="stroke:#038048;stroke-width:1;"/></g><text fill="#000000" font-family="sans-serif" font-size="14" lengthAdjust="spacing" textLength="151.9697" x="92.78" y="127">fisheye_enabled : bool</text><g data-visibility-modifier="PUBLIC_FIELD"><ellipse cx="83.78" cy="139.6973" fill="none" rx="3" ry="3" style="stroke:#038048;stroke-width:1;"/></g><text fill="#000000" font-family="sans-serif" font-size="14" lengthAdjust="spacing" textLength="148.3193" x="92.78" y="143.4883">fisheye_strength : f32</text><g data-visibility-modifier="PUBLIC_FIELD"><ellipse cx="83.78" cy="156.1855" fill="none" rx="3" ry="3" style="stroke:#038048;stroke-width:1;"/></g><text fill="#000000" font-family="sans-serif" font-size="14" lengthAdjust="spacing" textLength="133.2188" x="92.78" y="159.9766">fisheye_radius : f32</text><line style="stroke:#181818;stroke-width:0.5;" x1="73.78" x2="345.4597" y1="166.9297" y2="166.9297"/><g data-visibility-modifier="PUBLIC_METHOD"><ellipse cx="83.78" cy="180.6738" fill="#84BE84" rx="3" ry="3" style="stroke:#038048;stroke-width:1;"/></g><text fill="#000000" font-family="sans-serif" font-size="14" lengthAdjust="spacing" textLength="113.3535" x="92.78" y="184.4648">focal(rect) : Pos2</text><g data-visibility-modifier="PUBLIC_METHOD"><ellipse cx="83.78" cy="197.1621" fill="#84BE84" rx="3" ry="3" style="stroke:#038048;stroke-width:1;"/></g><text fill="#000000" font-family="sans-serif" font-size="14" lengthAdjust="spacing" textLength="138.1475" x="92.78" y="200.9531">warp(p, focal) : Pos2</text><g data-visibility-modifier="PUBLIC_METHOD"><ellipse cx="83.78" cy="213.6504" fill="#84BE84" rx="3" ry="3" style="stroke:#038048;stroke-width:1;"/></g><text fill="#000000" font-family="sans-serif" font-size="14" lengthAdjust="spacing" textLength="247.6797" x="92.78" y="217.4414">fisheye_mesh(tex, rect, focal) : Mesh</text></g><g class="entity" data-qualified-name="GMN3" data-source-line="19" id="ent0004"><path d="M6,284.3983 L6,386.2616 A0,0 0 0 0 6,386.2616 L413.2358,386.2616 A0,0 0 0 0 413.2358,386.2616 L413.2358,294.3983 L403.2358,284.3983 L213.62,284.3983 L209.62,224.7083 L205.62,284.3983 L6,284.3983 A0,0 0 0 0 6,284.3983" fill="#FEFFDD" style="stroke:#181818;stroke-width:0.5;"/><path d="M403.2358,284.3983 L403.2358,294.3983 L413.2358,294.3983 L403.2358,284.3983" fill="#FEFFDD" style="stroke:#181818;stroke-width:0.5;"/><text fill="#000000" font-family="sans-serif" font-size="13" lengthAdjust="spacing" textLength="330.1479" x="12" y="301.9666">base_zoom is changed only by scroll-at-cursor; pan</text><text fill="#000000" font-family="sans-serif" font-size="13" lengthAdjust="spacing" textLength="335.626" x="12" y="317.2772">only by drag. focal(rect) = rect.center() (center-fixed,</text><text fill="#000000" font-family="sans-serif" font-size="13" lengthAdjust="spacing" textLength="386.2358" x="12" y="332.5877">OCL-FISHEYE-FOCAL-CENTER). fisheye_radius is recomputed</text><text fill="#000000" font-family="sans-serif" font-size="13" lengthAdjust="spacing" textLength="309.334" x="12" y="347.8983">each frame as the farthest-corner distance (&gt; 0).</text><text fill="#000000" font-family="sans-serif" font-size="13" lengthAdjust="spacing" textLength="332.8521" x="12" y="363.2088">fisheye_strength is clamped to [0,1]; 0 short-circuits</text><text fill="#000000" font-family="sans-serif" font-size="13" lengthAdjust="spacing" textLength="222.3584" x="12" y="378.5194">warp() to the plain base placement.</text></g><?plantuml-src PLFHRfj047pdArPv2QY0tVRDLgjOn54Z9N7LLAwggagEkxKv2UxGtk74gVhltGDRnSaJi7CpEpktdCE5Ll7bwZOh5dVhnNsslbx-IA9pk53ev6iWXRF2AWJdgPCU2c5smgqrFisW50xXnTe6X57G2WDjtJdm5O94uv6oZNv61HljAjmZdo3H8DSTn6X4MQDAWowQhQzI8A5qvv8vRAmKTPm0eU_870JxlXaXUmZYXFbPy5nqn7oVESqUbMs4Dg2Gz2xq9RRs-CRu8sZ3J4d2eviqIcKxhY9D7Cb9hSkSN1vvxMk4IossxFdG7S8vDimyYENGE8aYMGldHlhm9m9urwVpqASpWyt73tqjP3I3DShXyn3Cmo4CXafhwnFe6Cz8v0WDUOs1FhSGKSBLhzODvIT1RToc0to279KQT5NiyPdlWCcZaxSCH7-Zo5WUkRJUypHsCvgLPVxFgHt8IfWjJs9DlOTo3qwIhUjC-8ppSfRc8G8c7N55OfkV6F_KUyY71U8bYCUhb39rLTnaLzVtNvO_bzdLgbZSPCNoxlloMvA_JeRzi9PjsiwZOYOAMV5Iy0w26BPg8uWVZjrPCaYWDD-kaNozds6QvCnvSmzXo5eqBG_fBVoQfkz_ps4AhhB4CffafxrZOfzw4iw4HcqT5hF_OVXLOiD3vH7oRnEY_GS0?></g></svg>