<svg xmlns="http://www.w3.org/2000/svg" xmlns:xlink="http://www.w3.org/1999/xlink" contentStyleType="text/css" data-diagram-type="CLASS" height="812px" preserveAspectRatio="none" style="width:751px;height:812px;background:#FFFFFF;" version="1.1" viewBox="0 0 751 812" width="751px" zoomAndPan="magnify"><?plantuml 1.2026.3?><defs/><g><g class="title" data-source-line="14"><text fill="#000000" font-family="sans-serif" font-size="14" font-weight="700" lengthAdjust="spacing" textLength="228.3408" x="258.2582" y="23.5352">Cycle tracking domain (current)</text></g><!--class EntryPoint--><g class="entity" data-qualified-name="EntryPoint" data-source-line="16" id="ent0002"><rect fill="#F1F1F1" height="80.9766" rx="2.5" ry="2.5" style="stroke:#181818;stroke-width:0.5;" width="100.8652" x="205.36" y="716.7583"/><ellipse cx="220.36" cy="732.7583" fill="#EB937F" rx="11" ry="11" style="stroke:#181818;stroke-width:1;"/><path d="M223.9743,739.2583 L216.2545,739.2583 L216.2545,726.8652 L223.9743,726.8652 L223.9743,729.0234 L218.7033,729.0234 L218.7033,731.6963 L223.4762,731.6963 L223.4762,733.8545 L218.7033,733.8545 L218.7033,737.1001 L223.9743,737.1001 Z " fill="#000000"/><text fill="#000000" font-family="sans-serif" font-size="14" lengthAdjust="spacing" textLength="68.8652" x="234.36" y="738.0493">EntryPoint</text><line style="stroke:#181818;stroke-width:0.5;" x1="206.36" x2="305.2252" y1="748.7583" y2="748.7583"/><text fill="#000000" font-family="sans-serif" font-size="14" lengthAdjust="spacing" textLength="60.9014" x="211.36" y="766.2934">Generate</text><text fill="#000000" font-family="sans-serif" font-size="14" lengthAdjust="spacing" textLength="28.6016" x="211.36" y="782.7817">Map</text><line style="stroke:#181818;stroke-width:0.5;" x1="206.36" x2="305.2252" y1="789.7348" y2="789.7348"/></g><!--class CycleStatus--><g class="entity" data-qualified-name="CycleStatus" data-source-line="21" id="ent0003"><rect fill="#F1F1F1" height="97.4648" rx="2.5" ry="2.5" style="stroke:#181818;stroke-width:0.5;" width="109.5879" x="7" y="517.0783"/><ellipse cx="22" cy="533.0783" fill="#EB937F" rx="11" ry="11" style="stroke:#181818;stroke-width:1;"/><path d="M25.6143,539.5783 L17.8945,539.5783 L17.8945,527.1852 L25.6143,527.1852 L25.6143,529.3434 L20.3433,529.3434 L20.3433,532.0163 L25.1162,532.0163 L25.1162,534.1745 L20.3433,534.1745 L20.3433,537.4201 L25.6143,537.4201 Z " fill="#000000"/><text fill="#000000" font-family="sans-serif" font-size="14" lengthAdjust="spacing" textLength="77.5879" x="36" y="538.3693">CycleStatus</text><line style="stroke:#181818;stroke-width:0.5;" x1="8" x2="115.5879" y1="549.0783" y2="549.0783"/><text fill="#000000" font-family="sans-serif" font-size="14" lengthAdjust="spacing" textLength="36.1758" x="13" y="566.6134">Open</text><text fill="#000000" font-family="sans-serif" font-size="14" lengthAdjust="spacing" textLength="46.0811" x="13" y="583.1017">Closed</text><text fill="#000000" font-family="sans-serif" font-size="14" lengthAdjust="spacing" textLength="54.6465" x="13" y="599.59">Aborted</text><line style="stroke:#181818;stroke-width:0.5;" x1="8" x2="115.5879" y1="606.5431" y2="606.5431"/></g><!--class CycleManifest--><g class="entity" data-qualified-name="CycleManifest" data-source-line="27" id="ent0004"><rect fill="#F1F1F1" height="179.9063" rx="2.5" ry="2.5" style="stroke:#181818;stroke-width:0.5;" width="215.8135" x="151.89" y="475.8583"/><ellipse cx="208.6146" cy="491.8583" fill="#ADD1B2" rx="11" ry="11" style="stroke:#181818;stroke-width:1;"/><path d="M211.0878,498.0013 Q210.5067,498.3002 209.8675,498.4496 Q209.2284,498.599 208.5228,498.599 Q206.016,498.599 204.6962,496.9471 Q203.3763,495.2953 203.3763,492.1742 Q203.3763,489.0448 204.6962,487.3929 Q206.016,485.7411 208.5228,485.7411 Q209.2284,485.7411 209.8758,485.8905 Q210.5233,486.0399 211.0878,486.3388 L211.0878,489.0614 Q210.4569,488.4804 209.8634,488.2106 Q209.2699,487.9408 208.639,487.9408 Q207.2943,487.9408 206.6095,489.0075 Q205.9247,490.0741 205.9247,492.1742 Q205.9247,494.266 206.6095,495.3326 Q207.2943,496.3993 208.639,496.3993 Q209.2699,496.3993 209.8634,496.1295 Q210.4569,495.8597 211.0878,495.2787 Z " fill="#000000"/><text fill="#000000" font-family="sans-serif" font-size="14" lengthAdjust="spacing" textLength="93.8643" x="229.1146" y="497.1493">CycleManifest</text><line style="stroke:#181818;stroke-width:0.5;" x1="152.89" x2="366.7035" y1="507.8583" y2="507.8583"/><g data-visibility-modifier="PUBLIC_FIELD"><ellipse cx="162.89" cy="521.6024" fill="none" rx="3" ry="3" style="stroke:#038048;stroke-width:1;"/></g><text fill="#000000" font-family="sans-serif" font-size="14" lengthAdjust="spacing" textLength="92.4697" x="171.89" y="525.3934">number : u32</text><g data-visibility-modifier="PUBLIC_FIELD"><ellipse cx="162.89" cy="538.0907" fill="none" rx="3" ry="3" style="stroke:#038048;stroke-width:1;"/></g><text fill="#000000" font-family="sans-serif" font-size="14" lengthAdjust="spacing" textLength="81.8604" x="171.89" y="541.8817">slug : String</text><g data-visibility-modifier="PUBLIC_FIELD"><ellipse cx="162.89" cy="554.579" fill="none" rx="3" ry="3" style="stroke:#038048;stroke-width:1;"/></g><text fill="#000000" font-family="sans-serif" font-size="14" lengthAdjust="spacing" textLength="116.9219" x="171.89" y="558.37">entry : EntryPoint</text><g data-visibility-modifier="PUBLIC_FIELD"><ellipse cx="162.89" cy="571.0673" fill="none" rx="3" ry="3" style="stroke:#038048;stroke-width:1;"/></g><text fill="#000000" font-family="sans-serif" font-size="14" lengthAdjust="spacing" textLength="129.3359" x="171.89" y="574.8583">description : String</text><g data-visibility-modifier="PUBLIC_FIELD"><ellipse cx="162.89" cy="587.5555" fill="none" rx="3" ry="3" style="stroke:#038048;stroke-width:1;"/></g><text fill="#000000" font-family="sans-serif" font-size="14" lengthAdjust="spacing" textLength="132.043" x="171.89" y="591.3466">status : CycleStatus</text><g data-visibility-modifier="PUBLIC_FIELD"><ellipse cx="162.89" cy="604.0438" fill="none" rx="3" ry="3" style="stroke:#038048;stroke-width:1;"/></g><text fill="#000000" font-family="sans-serif" font-size="14" lengthAdjust="spacing" textLength="123.7373" x="171.89" y="607.8348">opened_at : String</text><g data-visibility-modifier="PUBLIC_FIELD"><ellipse cx="162.89" cy="620.5321" fill="none" rx="3" ry="3" style="stroke:#038048;stroke-width:1;"/></g><text fill="#000000" font-family="sans-serif" font-size="14" lengthAdjust="spacing" textLength="185.3086" x="171.89" y="624.3231">closed_at : Option&lt;String&gt;</text><g data-visibility-modifier="PUBLIC_FIELD"><ellipse cx="162.89" cy="637.0204" fill="none" rx="3" ry="3" style="stroke:#038048;stroke-width:1;"/></g><text fill="#000000" font-family="sans-serif" font-size="14" lengthAdjust="spacing" textLength="189.8135" x="171.89" y="640.8114">touched_files : Vec&lt;String&gt;</text><line style="stroke:#181818;stroke-width:0.5;" x1="152.89" x2="366.7035" y1="647.7645" y2="647.7645"/></g><!--class Cycle--><g class="entity" data-qualified-name="Cycle" data-source-line="38" id="ent0005"><rect fill="#F1F1F1" height="163.418" rx="2.5" ry="2.5" style="stroke:#181818;stroke-width:0.5;" width="216.3193" x="151.63" y="235.4383"/><ellipse cx="237.5304" cy="251.4383" fill="#ADD1B2" rx="11" ry="11" style="stroke:#181818;stroke-width:1;"/><path d="M240.0035,257.5813 Q239.4225,257.8802 238.7833,258.0296 Q238.1442,258.179 237.4386,258.179 Q234.9318,258.179 233.6119,256.5271 Q232.2921,254.8753 232.2921,251.7542 Q232.2921,248.6248 233.6119,246.9729 Q234.9318,245.3211 237.4386,245.3211 Q238.1442,245.3211 238.7916,245.4705 Q239.4391,245.6199 240.0035,245.9188 L240.0035,248.6414 Q239.3727,248.0604 238.7792,247.7906 Q238.1857,247.5208 237.5548,247.5208 Q236.2101,247.5208 235.5253,248.5875 Q234.8404,249.6541 234.8404,251.7542 Q234.8404,253.846 235.5253,254.9126 Q236.2101,255.9793 237.5548,255.9793 Q238.1857,255.9793 238.7792,255.7095 Q239.3727,255.4397 240.0035,254.8587 Z " fill="#000000"/><text fill="#000000" font-family="sans-serif" font-size="14" lengthAdjust="spacing" textLength="36.0186" x="258.0304" y="256.7293">Cycle</text><line style="stroke:#181818;stroke-width:0.5;" x1="152.63" x2="366.9493" y1="267.4383" y2="267.4383"/><g data-visibility-modifier="PUBLIC_FIELD"><ellipse cx="162.63" cy="281.1824" fill="none" rx="3" ry="3" style="stroke:#038048;stroke-width:1;"/></g><text fill="#000000" font-family="sans-serif" font-size="14" lengthAdjust="spacing" textLength="166.0107" x="171.63" y="284.9734">manifest : CycleManifest</text><g data-visibility-modifier="PUBLIC_FIELD"><ellipse cx="162.63" cy="297.6707" fill="none" rx="3" ry="3" style="stroke:#038048;stroke-width:1;"/></g><text fill="#000000" font-family="sans-serif" font-size="14" lengthAdjust="spacing" textLength="83.1592" x="171.63" y="301.4617">dir : PathBuf</text><g data-visibility-modifier="PUBLIC_FIELD"><ellipse cx="162.63" cy="314.159" fill="none" rx="3" ry="3" style="stroke:#038048;stroke-width:1;"/></g><text fill="#000000" font-family="sans-serif" font-size="14" lengthAdjust="spacing" textLength="134.0459" x="171.63" y="317.95">before_dir : PathBuf</text><g data-visibility-modifier="PUBLIC_FIELD"><ellipse cx="162.63" cy="330.6473" fill="none" rx="3" ry="3" style="stroke:#038048;stroke-width:1;"/></g><text fill="#000000" font-family="sans-serif" font-size="14" lengthAdjust="spacing" textLength="190.3193" x="171.63" y="334.4383">after_dir : Option&lt;PathBuf&gt;</text><line style="stroke:#181818;stroke-width:0.5;" x1="152.63" x2="366.9493" y1="341.3914" y2="341.3914"/><g data-visibility-modifier="PUBLIC_METHOD"><ellipse cx="162.63" cy="355.1355" fill="#84BE84" rx="3" ry="3" style="stroke:#038048;stroke-width:1;"/></g><text fill="#000000" font-family="sans-serif" font-size="14" lengthAdjust="spacing" textLength="101.5752" x="171.63" y="358.9266">number() : u32</text><g data-visibility-modifier="PUBLIC_METHOD"><ellipse cx="162.63" cy="371.6238" fill="#84BE84" rx="3" ry="3" style="stroke:#038048;stroke-width:1;"/></g><text fill="#000000" font-family="sans-serif" font-size="14" lengthAdjust="spacing" textLength="114.2012" x="171.63" y="375.4148">is_closed() : bool</text><g data-visibility-modifier="PUBLIC_METHOD"><ellipse cx="162.63" cy="388.1121" fill="#84BE84" rx="3" ry="3" style="stroke:#038048;stroke-width:1;"/></g><text fill="#000000" font-family="sans-serif" font-size="14" lengthAdjust="spacing" textLength="94.8008" x="171.63" y="391.9031">label() : String</text></g><!--class CycleDiff--><g class="entity" data-qualified-name="CycleDiff" data-source-line="48" id="ent0006"><rect fill="#F1F1F1" height="130.4414" rx="2.5" ry="2.5" style="stroke:#181818;stroke-width:0.5;" width="200.6377" x="407.48" y="500.5883"/><ellipse cx="473.1255" cy="516.5883" fill="#ADD1B2" rx="11" ry="11" style="stroke:#181818;stroke-width:1;"/><path d="M475.5987,522.7313 Q475.0176,523.0302 474.3784,523.1796 Q473.7393,523.329 473.0337,523.329 Q470.5269,523.329 469.2071,521.6771 Q467.8872,520.0253 467.8872,516.9042 Q467.8872,513.7748 469.2071,512.1229 Q470.5269,510.4711 473.0337,510.4711 Q473.7393,510.4711 474.3867,510.6205 Q475.0342,510.7699 475.5987,511.0688 L475.5987,513.7914 Q474.9678,513.2104 474.3743,512.9406 Q473.7808,512.6708 473.1499,512.6708 Q471.8052,512.6708 471.1204,513.7375 Q470.4356,514.8041 470.4356,516.9042 Q470.4356,518.996 471.1204,520.0626 Q471.8052,521.1293 473.1499,521.1293 Q473.7808,521.1293 474.3743,520.8595 Q474.9678,520.5897 475.5987,520.0087 Z " fill="#000000"/><text fill="#000000" font-family="sans-serif" font-size="14" lengthAdjust="spacing" textLength="60.8467" x="493.6255" y="521.8793">CycleDiff</text><line style="stroke:#181818;stroke-width:0.5;" x1="408.48" x2="607.1177" y1="532.5883" y2="532.5883"/><g data-visibility-modifier="PUBLIC_FIELD"><ellipse cx="418.48" cy="546.3324" fill="none" rx="3" ry="3" style="stroke:#038048;stroke-width:1;"/></g><text fill="#000000" font-family="sans-serif" font-size="14" lengthAdjust="spacing" textLength="109.1084" x="427.48" y="550.1234">diagram : String</text><g data-visibility-modifier="PUBLIC_FIELD"><ellipse cx="418.48" cy="562.8207" fill="none" rx="3" ry="3" style="stroke:#038048;stroke-width:1;"/></g><text fill="#000000" font-family="sans-serif" font-size="14" lengthAdjust="spacing" textLength="174.6377" x="427.48" y="566.6117">unchanged : Vec&lt;String&gt;</text><g data-visibility-modifier="PUBLIC_FIELD"><ellipse cx="418.48" cy="579.309" fill="none" rx="3" ry="3" style="stroke:#038048;stroke-width:1;"/></g><text fill="#000000" font-family="sans-serif" font-size="14" lengthAdjust="spacing" textLength="141.6064" x="427.48" y="583.1">added : Vec&lt;String&gt;</text><g data-visibility-modifier="PUBLIC_FIELD"><ellipse cx="418.48" cy="595.7973" fill="none" rx="3" ry="3" style="stroke:#038048;stroke-width:1;"/></g><text fill="#000000" font-family="sans-serif" font-size="14" lengthAdjust="spacing" textLength="158.6963" x="427.48" y="599.5883">removed : Vec&lt;String&gt;</text><line style="stroke:#181818;stroke-width:0.5;" x1="408.48" x2="607.1177" y1="606.5414" y2="606.5414"/><g data-visibility-modifier="PUBLIC_METHOD"><ellipse cx="418.48" cy="620.2855" fill="#84BE84" rx="3" ry="3" style="stroke:#038048;stroke-width:1;"/></g><text fill="#000000" font-family="sans-serif" font-size="14" lengthAdjust="spacing" textLength="112.8682" x="427.48" y="624.0766">is_empty() : bool</text></g><!--class CycleRegistry--><g class="entity" data-qualified-name="CycleRegistry" data-source-line="56" id="ent0007"><rect fill="#F1F1F1" height="113.9531" rx="2.5" ry="2.5" style="stroke:#181818;stroke-width:0.5;" width="239.2197" x="140.18" y="44.4883"/><ellipse cx="210.1082" cy="60.4883" fill="#ADD1B2" rx="11" ry="11" style="stroke:#181818;stroke-width:1;"/><path d="M212.5814,66.6313 Q212.0003,66.9302 211.3612,67.0796 Q210.722,67.229 210.0164,67.229 Q207.5096,67.229 206.1898,65.5771 Q204.8699,63.9253 204.8699,60.8042 Q204.8699,57.6748 206.1898,56.0229 Q207.5096,54.3711 210.0164,54.3711 Q210.722,54.3711 211.3695,54.5205 Q212.0169,54.6699 212.5814,54.9688 L212.5814,57.6914 Q211.9505,57.1104 211.357,56.8406 Q210.7635,56.5708 210.1326,56.5708 Q208.7879,56.5708 208.1031,57.6375 Q207.4183,58.7041 207.4183,60.8042 Q207.4183,62.896 208.1031,63.9626 Q208.7879,65.0293 210.1326,65.0293 Q210.7635,65.0293 211.357,64.7595 Q211.9505,64.4897 212.5814,63.9087 Z " fill="#000000"/><text fill="#000000" font-family="sans-serif" font-size="14" lengthAdjust="spacing" textLength="90.8633" x="230.6082" y="65.7793">CycleRegistry</text><line style="stroke:#181818;stroke-width:0.5;" x1="141.18" x2="378.3997" y1="76.4883" y2="76.4883"/><g data-visibility-modifier="PUBLIC_FIELD"><ellipse cx="151.18" cy="90.2324" fill="none" rx="3" ry="3" style="stroke:#038048;stroke-width:1;"/></g><text fill="#000000" font-family="sans-serif" font-size="14" lengthAdjust="spacing" textLength="136.3291" x="160.18" y="94.0234">cycles : Vec&lt;Cycle&gt;</text><line style="stroke:#181818;stroke-width:0.5;" x1="141.18" x2="378.3997" y1="100.9766" y2="100.9766"/><g data-visibility-modifier="PUBLIC_METHOD"><ellipse cx="151.18" cy="114.7207" fill="#84BE84" rx="3" ry="3" style="stroke:#038048;stroke-width:1;"/></g><text fill="#000000" font-family="sans-serif" font-size="14" lengthAdjust="spacing" textLength="172.1494" x="160.18" y="118.5117">scan(root) : CycleRegistry</text><g data-visibility-modifier="PUBLIC_METHOD"><ellipse cx="151.18" cy="131.209" fill="#84BE84" rx="3" ry="3" style="stroke:#038048;stroke-width:1;"/></g><text fill="#000000" font-family="sans-serif" font-size="14" lengthAdjust="spacing" textLength="213.2197" x="160.18" y="135">cycle(number) : Option&lt;Cycle&gt;</text><g data-visibility-modifier="PUBLIC_METHOD"><ellipse cx="151.18" cy="147.6973" fill="#84BE84" rx="3" ry="3" style="stroke:#038048;stroke-width:1;"/></g><text fill="#000000" font-family="sans-serif" font-size="14" lengthAdjust="spacing" textLength="164.1172" x="160.18" y="151.4883">latest() : Option&lt;Cycle&gt;</text></g><!--class ElementDescription--><g class="entity" data-qualified-name="ElementDescription" data-source-line="63" id="ent0008"><rect fill="#F1F1F1" height="80.9766" rx="2.5" ry="2.5" style="stroke:#181818;stroke-width:0.5;" width="163.9814" x="451.8" y="60.9683"/><ellipse cx="466.8" cy="76.9683" fill="#ADD1B2" rx="11" ry="11" style="stroke:#181818;stroke-width:1;"/><path d="M469.2731,83.1113 Q468.6921,83.4102 468.0529,83.5596 Q467.4138,83.709 466.7082,83.709 Q464.2014,83.709 462.8815,82.0571 Q461.5617,80.4053 461.5617,77.2842 Q461.5617,74.1548 462.8815,72.5029 Q464.2014,70.8511 466.7082,70.8511 Q467.4138,70.8511 468.0612,71.0005 Q468.7087,71.1499 469.2731,71.4488 L469.2731,74.1714 Q468.6423,73.5904 468.0488,73.3206 Q467.4553,73.0508 466.8244,73.0508 Q465.4797,73.0508 464.7949,74.1175 Q464.1101,75.1841 464.1101,77.2842 Q464.1101,79.376 464.7949,80.4426 Q465.4797,81.5093 466.8244,81.5093 Q467.4553,81.5093 468.0488,81.2395 Q468.6423,80.9697 469.2731,80.3887 Z " fill="#000000"/><text fill="#000000" font-family="sans-serif" font-size="14" lengthAdjust="spacing" textLength="131.9814" x="480.8" y="82.2593">ElementDescription</text><line style="stroke:#181818;stroke-width:0.5;" x1="452.8" x2="614.7814" y1="92.9683" y2="92.9683"/><g data-visibility-modifier="PUBLIC_FIELD"><ellipse cx="462.8" cy="106.7124" fill="none" rx="3" ry="3" style="stroke:#038048;stroke-width:1;"/></g><text fill="#000000" font-family="sans-serif" font-size="14" lengthAdjust="spacing" textLength="106.5654" x="471.8" y="110.5034">targetId : String</text><g data-visibility-modifier="PUBLIC_FIELD"><ellipse cx="462.8" cy="123.2007" fill="none" rx="3" ry="3" style="stroke:#038048;stroke-width:1;"/></g><text fill="#000000" font-family="sans-serif" font-size="14" lengthAdjust="spacing" textLength="80.1172" x="471.8" y="126.9917">text : String</text><line style="stroke:#181818;stroke-width:0.5;" x1="452.8" x2="614.7814" y1="133.9448" y2="133.9448"/></g><g class="entity" data-qualified-name="GMN15" data-source-line="76" id="ent0016"><path d="M341.21,721.6283 L341.21,792.8705 A0,0 0 0 0 341.21,792.8705 L692.377,792.8705 A0,0 0 0 0 692.377,792.8705 L692.377,731.6283 L682.377,721.6283 L519.14,721.6283 L510.87,631.4783 L511.14,721.6283 L341.21,721.6283 A0,0 0 0 0 341.21,721.6283" fill="#FEFFDD" style="stroke:#181818;stroke-width:0.5;"/><path d="M682.377,721.6283 L682.377,731.6283 L692.377,731.6283 L682.377,721.6283" fill="#FEFFDD" style="stroke:#181818;stroke-width:0.5;"/><text fill="#000000" font-family="sans-serif" font-size="13" lengthAdjust="spacing" textLength="330.167" x="347.21" y="739.1966">diff_documents() builds unchanged/added/removed</text><text fill="#000000" font-family="sans-serif" font-size="13" lengthAdjust="spacing" textLength="277.1514" x="347.21" y="754.5072">from element_keys (every @id plus declared</text><text fill="#000000" font-family="sans-serif" font-size="13" lengthAdjust="spacing" textLength="263.4023" x="347.21" y="769.8177">element aliases/labels); the three sets are</text><text fill="#000000" font-family="sans-serif" font-size="13" lengthAdjust="spacing" textLength="304.1606" x="347.21" y="785.1283">pairwise disjoint (OCL-CYCLE-DIFF-PARTITION).</text></g><g class="entity" data-qualified-name="GMN18" data-source-line="83" id="ent0019"><path d="M402.74,281.5283 L402.74,352.7705 A0,0 0 0 0 402.74,352.7705 L736.8572,352.7705 A0,0 0 0 0 736.8572,352.7705 L736.8572,291.5283 L726.8572,281.5283 L567.93,281.5283 L540.52,142.3983 L559.93,281.5283 L402.74,281.5283 A0,0 0 0 0 402.74,281.5283" fill="#FEFFDD" style="stroke:#181818;stroke-width:0.5;"/><path d="M726.8572,281.5283 L726.8572,291.5283 L736.8572,291.5283 L726.8572,281.5283" fill="#FEFFDD" style="stroke:#181818;stroke-width:0.5;"/><text fill="#000000" font-family="sans-serif" font-size="13" lengthAdjust="spacing" textLength="254.376" x="408.74" y="299.0966">Not a stored struct: the @desc marker is</text><text fill="#000000" font-family="sans-serif" font-size="13" lengthAdjust="spacing" textLength="274.625" x="408.74" y="314.4072">parsed by extract_descs() and exposed as a</text><text fill="#000000" font-family="sans-serif" font-size="13" lengthAdjust="spacing" textLength="290.8877" x="408.74" y="329.7177">BTreeMap&lt;id,text&gt; via Project::descriptions().</text><text fill="#000000" font-family="sans-serif" font-size="13" lengthAdjust="spacing" textLength="313.1172" x="408.74" y="345.0283">Constrained by OCL-ELEMENT-DESC-NONEMPTY.</text></g><!--reverse link CycleRegistry to Cycle--><g class="link" data-entity-1="ent0007" data-entity-2="ent0005" data-link-type="aggregation" data-source-line="68" id="lnk9"><path codeLine="68" d="M259.79,170.8883 C259.79,194.2583 259.79,209.7983 259.79,235.2583" fill="none" id="CycleRegistry-backto-Cycle" style="stroke:#181818;stroke-width:1;"/><polygon fill="none" points="259.79,158.8883,255.79,164.8883,259.79,170.8883,263.79,164.8883,259.79,158.8883" style="stroke:#181818;stroke-width:1;"/><polygon fill="#000000" points="264.79,202.0936,267.7289,193.0485,261.8511,193.0485,264.79,202.0936" style="stroke:#000000;stroke-width:1;"/><text fill="#000000" font-family="sans-serif" font-size="13" lengthAdjust="spacing" textLength="35.1597" x="273.79" y="202.0066">scans</text><text fill="#000000" font-family="sans-serif" font-size="13" lengthAdjust="spacing" textLength="8.2202" x="251.3402" y="178.9814">1</text><text fill="#000000" font-family="sans-serif" font-size="13" lengthAdjust="spacing" textLength="6.2651" x="253.5257" y="224.6004">*</text></g><!--reverse link Cycle to CycleManifest--><g class="link" data-entity-1="ent0005" data-entity-2="ent0004" data-link-type="composition" data-source-line="69" id="lnk10"><path codeLine="69" d="M259.79,411.2583 C259.79,435.6883 259.79,450.6283 259.79,475.5583" fill="none" id="Cycle-backto-CycleManifest" style="stroke:#181818;stroke-width:1;"/><polygon fill="#181818" points="259.79,399.2583,255.79,405.2583,259.79,411.2583,263.79,405.2583,259.79,399.2583" style="stroke:#181818;stroke-width:1;"/><text fill="#000000" font-family="sans-serif" font-size="13" lengthAdjust="spacing" textLength="8.2202" x="251.4557" y="419.5409">1</text><text fill="#000000" font-family="sans-serif" font-size="13" lengthAdjust="spacing" textLength="8.2202" x="251.4673" y="465.0443">1</text></g><!--reverse link Cycle to CycleDiff--><g class="link" data-entity-1="ent0005" data-entity-2="ent0006" data-link-type="aggregation" data-source-line="70" id="lnk11"><path codeLine="70" d="M349.8497,407.7191 C382.8897,440.5691 411.98,469.5183 443.08,500.4483" fill="none" id="Cycle-backto-CycleDiff" style="stroke:#181818;stroke-width:1;"/><polygon fill="none" points="341.34,399.2583,342.7746,406.3252,349.8497,407.7191,348.4151,400.6521,341.34,399.2583" style="stroke:#181818;stroke-width:1;"/><polygon fill="#000000" points="392.335,441.0395,387.9945,432.5772,383.8495,436.7447,392.335,441.0395" style="stroke:#000000;stroke-width:1;"/><text fill="#000000" font-family="sans-serif" font-size="13" lengthAdjust="spacing" textLength="74.1914" x="397.79" y="442.4266">cycle_diffs()</text><text fill="#000000" font-family="sans-serif" font-size="13" lengthAdjust="spacing" textLength="8.2202" x="340.0139" y="419.5409">1</text><text fill="#000000" font-family="sans-serif" font-size="13" lengthAdjust="spacing" textLength="6.2651" x="429.6878" y="490.0645">*</text></g><!--link Cycle to CycleStatus--><g class="link" data-entity-1="ent0005" data-entity-2="ent0003" data-link-type="dependency" data-source-line="71" id="lnk12"><path codeLine="71" d="M194.69,399.2583 C163.47,438.1483 130.886,478.7394 104.106,512.0994" fill="none" id="Cycle-to-CycleStatus" style="stroke:#181818;stroke-width:1;"/><polygon fill="#181818" points="100.35,516.7783,109.1033,512.2639,103.48,512.8792,102.8648,507.2559,100.35,516.7783" style="stroke:#181818;stroke-width:1;"/></g><!--link CycleManifest to EntryPoint--><g class="link" data-entity-1="ent0004" data-entity-2="ent0002" data-link-type="dependency" data-source-line="72" id="lnk13"><path codeLine="72" d="M257.91,656.2583 C257.46,677.3383 257.1362,692.7596 256.7662,710.3496" fill="none" id="CycleManifest-to-EntryPoint" style="stroke:#181818;stroke-width:1;"/><polygon fill="#181818" points="256.64,716.3483,260.8284,707.4344,256.7452,711.3494,252.8302,707.2662,256.64,716.3483" style="stroke:#181818;stroke-width:1;"/></g><!--link ElementDescription to Cycle--><g class="link" data-entity-1="ent0008" data-entity-2="ent0005" data-link-type="dependency" data-source-line="73" id="lnk14"><path codeLine="73" d="M482.58,142.3983 C449.2,168.4383 409.1811,199.6382 368.5511,231.3282" fill="none" id="ElementDescription-to-Cycle" style="stroke:#181818;stroke-width:1;stroke-dasharray:7,7;"/><polygon fill="#181818" points="363.82,235.0183,373.3767,232.6372,367.7626,231.9432,368.4566,226.3291,363.82,235.0183" style="stroke:#181818;stroke-width:1;"/><text fill="#000000" font-family="sans-serif" font-size="13" lengthAdjust="spacing" textLength="102.521" x="422.34" y="202.0066">authored during</text><text fill="#000000" font-family="sans-serif" font-size="13" lengthAdjust="spacing" textLength="6.2651" x="468.2993" y="162.4081">*</text><text fill="#000000" font-family="sans-serif" font-size="13" lengthAdjust="spacing" textLength="8.2202" x="364.7388" y="224.6179">1</text></g><?plantuml-src VLPHRziu37xlho3oigIB4-pkpLS4sv9i2D0sGHiSK610e5XqejMs34dk5Wpttu-KxDfkiht4DabH7ycFPDx1HoM7Y_LTD7-Qtov7L-_wWcYn-lAbArtUBk-MzzjeiNoSFwmsszNw_lpGm_Bhwd7xy4GQqiqhOx1maLKIGUfSg68C4erwGGcfqJaaHZYqqrpAAD46fzOaq-IKP3Wn5aGXmHsH7E5FPqJYTX9jOc4A6wE_O-BYc0L6bKxfme918Q4KxZY1UQOjMZvD0gFS2GwY94S_b3jwgTwp0m9Iuu9SIymc7lP7zje6DOR1AYypp2aKmYqiU8HnFES7l0V_l1E5Ij4w65eq4YCF9g-5arEUZM8egdoFPWmsgmvZ87VcnFbu3O4qJhZAZi6fd8w9lEHtNIL7bBjKPKYVjX2bFMe7KXax6OpE0VlI_HdrGgLf32MQI2fnC2A7gaYEeZYWd0efwTTWhhbC65p0CvxeSgdiTwteSty2YmuIohipLSBetsAvG9XpK5oBSEHcjPYDlmqSrVhRO4IfCyzek7gMBEcwFWS8WxvCW-7eSb8QQluvCGzuK1JHAOvj8ehOSyh2X0WQU6cdrzDkLGCGKO2ceXlozoycDzxJZ64uvOWYWIWC_raLXuPnmoIqn-Zg2eaPi6G-R7nsVrq1VCK2kJlezOwu-rzjvNqzUffuitM91JqyuIMzVDfhGt6nVP89Qz-mau-yhua8CLH__-K5p4ZwV7I607g9PoU9MbHUtCbqtpumbsGTW5wX2I2nLxY-VU811_7Q-xi9sfbNzqXF9fpMHjyFhGwfAKg3e8aue5OSx8P6m-SgzP8zfZHlTkSAaJeqjRp6LQjddTGDHvtaARiBqNZfNklCYpEnnyoBwh3xkBa5Q-nD3_OIzDgGRwBt8Bb5ByYRfZtN44RCItTg8VRHDBol4GMkrtu2dKELgIc6HcitQlBS76oF3KEAHcq2EmuodlTkUAvyXRCChRde42rWSi8SqAraFqqyBtefxeSp-3007KKmk1xKT8bz41PcmT9RNBF5Xy4RvhJwdWTVk3Z4IaH9KnevhzwYQDRhW7xtiRRJK1T2vLicarcBXcuIbJjgdYsoya5U5TeX5T4vsg0wRL5HGXZFJkgaOiSCR5-fZ2RORyOxdV1xk9xoEvxoCCGNfDJHPeSoevwMI9KnthZP1Y9JWXRir7FSZlxnSzmT3IAl1LhTXkTMAPJveIosQsEudjzsbbIq-VImNVc_4XCQRn8uihFupjD4lkzf0mgQEZunOGV5xJPfreUo7iR57KB9uNyO-BFatkL58CZuyvQ2e85xe-IOkJM35oL-ksbuyleLI0CzNC41TZTVTB--NzvjjazjWFy3?></g></svg>