<svg xmlns="http://www.w3.org/2000/svg" xmlns:xlink="http://www.w3.org/1999/xlink" contentStyleType="text/css" data-diagram-type="CLASS" height="1126px" preserveAspectRatio="none" style="width:2265px;height:1126px;background:#FFFFFF;" version="1.1" viewBox="0 0 2265 1126" width="2265px" zoomAndPan="magnify"><?plantuml 1.2026.3?><defs/><g><g class="title" data-source-line="20"><text fill="#000000" font-family="sans-serif" font-size="14" font-weight="700" lengthAdjust="spacing" textLength="450.5361" x="903.83" y="23.5352">/mdd-deploy generated IaC structure (current &#8212; two dialects)</text></g><!--class DialectChoice--><g class="entity" data-qualified-name="DialectChoice" data-source-line="22" id="ent0002"><rect fill="#F1F1F1" height="139.0625" rx="2.5" ry="2.5" style="stroke:#181818;stroke-width:0.5;" width="288.582" x="1057.94" y="44.4883"/><ellipse cx="1151.7256" cy="64.7988" fill="#ADD1B2" rx="11" ry="11" style="stroke:#181818;stroke-width:1;"/><path d="M1154.1988,70.9419 Q1153.6177,71.2407 1152.9786,71.3901 Q1152.3394,71.5396 1151.6338,71.5396 Q1149.127,71.5396 1147.8072,69.8877 Q1146.4874,68.2358 1146.4874,65.1147 Q1146.4874,61.9854 1147.8072,60.3335 Q1149.127,58.6816 1151.6338,58.6816 Q1152.3394,58.6816 1152.9869,58.8311 Q1153.6343,58.9805 1154.1988,59.2793 L1154.1988,62.002 Q1153.5679,61.4209 1152.9744,61.1511 Q1152.3809,60.8813 1151.7501,60.8813 Q1150.4053,60.8813 1149.7205,61.948 Q1149.0357,63.0146 1149.0357,65.1147 Q1149.0357,67.2065 1149.7205,68.2732 Q1150.4053,69.3398 1151.7501,69.3398 Q1152.3809,69.3398 1152.9744,69.0701 Q1153.5679,68.8003 1154.1988,68.2192 Z " fill="#000000"/><text fill="#000000" font-family="sans-serif" font-size="12" font-style="italic" lengthAdjust="spacing" textLength="37.8574" x="1199.5523" y="61.0898">&#171;gate&#187;</text><text fill="#000000" font-family="sans-serif" font-size="14" lengthAdjust="spacing" textLength="92.5107" x="1172.2256" y="77.1563">DialectChoice</text><line style="stroke:#181818;stroke-width:0.5;" x1="1058.94" x2="1345.522" y1="85.1094" y2="85.1094"/><text fill="#000000" font-family="sans-serif" font-size="14" lengthAdjust="spacing" textLength="173.4072" x="1063.94" y="102.6445">value : {bicep | terraform}</text><text fill="#000000" font-family="sans-serif" font-size="14" lengthAdjust="spacing" textLength="135.8711" x="1063.94" y="119.1328">confirmed : Boolean</text><text fill="#000000" font-family="sans-serif" font-size="14" lengthAdjust="spacing" textLength="227.2334" x="1063.94" y="135.6211">rule = exactly one dialect per run</text><text fill="#000000" font-family="sans-serif" font-size="14" lengthAdjust="spacing" textLength="276.582" x="1063.94" y="152.1094">rule = no artifact written until confirmed</text><text fill="#000000" font-family="sans-serif" font-size="14" lengthAdjust="spacing" textLength="156.8164" x="1063.94" y="168.5977">rule = no silent default</text><line style="stroke:#181818;stroke-width:0.5;" x1="1058.94" x2="1345.522" y1="175.5508" y2="175.5508"/></g><!--class IaCArtifact--><g class="entity" data-qualified-name="IaCArtifact" data-source-line="30" id="ent0003"><rect fill="#F1F1F1" height="106.0859" rx="2.5" ry="2.5" style="stroke:#181818;stroke-width:0.5;" width="397.1504" x="791.65" y="260.5483"/><ellipse cx="950.2711" cy="280.8588" fill="#A9DCDF" rx="11" ry="11" style="stroke:#181818;stroke-width:1;"/><path d="M950.1344,276.207 L948.9806,281.2788 L951.2965,281.2788 Z M948.6402,273.9658 L951.6368,273.9658 L954.982,286.3588 L952.5333,286.3588 L951.7696,283.2958 L948.4908,283.2958 L947.7438,286.3588 L945.295,286.3588 Z " fill="#000000"/><text fill="#000000" font-family="sans-serif" font-size="12" font-style="italic" lengthAdjust="spacing" textLength="53.7422" x="979.6041" y="277.1498">&#171;artifact&#187;</text><text fill="#000000" font-family="sans-serif" font-size="14" font-style="italic" lengthAdjust="spacing" textLength="71.4082" x="970.7711" y="293.2163">IaCArtifact</text><line style="stroke:#181818;stroke-width:0.5;" x1="792.65" x2="1187.8004" y1="301.1694" y2="301.1694"/><text fill="#000000" font-family="sans-serif" font-size="14" lengthAdjust="spacing" textLength="143.6504" x="797.65" y="318.7045">appliedBy = operator</text><line style="stroke:#181818;stroke-width:0.5;" x1="792.65" x2="1187.8004" y1="325.6577" y2="325.6577"/><text fill="#000000" font-family="sans-serif" font-size="14" lengthAdjust="spacing" textLength="277.9492" x="797.65" y="343.1928">target = azure-container-apps (v1, only)</text><text fill="#000000" font-family="sans-serif" font-size="14" lengthAdjust="spacing" textLength="385.1504" x="797.65" y="359.6811">generatedBy = /mdd-deploy (writes files, never deploys)</text></g><!--class BicepIaC--><g class="entity" data-qualified-name="BicepIaC" data-source-line="35" id="ent0004"><rect fill="#F1F1F1" height="139.0625" rx="2.5" ry="2.5" style="stroke:#181818;stroke-width:0.5;" width="366.457" x="7" y="435.8783"/><ellipse cx="157.312" cy="456.1888" fill="#ADD1B2" rx="11" ry="11" style="stroke:#181818;stroke-width:1;"/><path d="M159.7852,462.3319 Q159.2041,462.6307 158.5649,462.7801 Q157.9258,462.9296 157.2202,462.9296 Q154.7134,462.9296 153.3936,461.2777 Q152.0737,459.6258 152.0737,456.5047 Q152.0737,453.3754 153.3936,451.7235 Q154.7134,450.0716 157.2202,450.0716 Q157.9258,450.0716 158.5732,450.2211 Q159.2207,450.3705 159.7852,450.6693 L159.7852,453.392 Q159.1543,452.8109 158.5608,452.5411 Q157.9673,452.2713 157.3364,452.2713 Q155.9917,452.2713 155.3069,453.338 Q154.6221,454.4046 154.6221,456.5047 Q154.6221,458.5965 155.3069,459.6632 Q155.9917,460.7298 157.3364,460.7298 Q157.9673,460.7298 158.5608,460.4601 Q159.1543,460.1903 159.7852,459.6092 Z " fill="#000000"/><text fill="#000000" font-family="sans-serif" font-size="12" font-style="italic" lengthAdjust="spacing" textLength="53.7422" x="179.6074" y="452.4798">&#171;artifact&#187;</text><text fill="#000000" font-family="sans-serif" font-size="14" lengthAdjust="spacing" textLength="57.333" x="177.812" y="468.5463">BicepIaC</text><line style="stroke:#181818;stroke-width:0.5;" x1="8" x2="372.457" y1="476.4994" y2="476.4994"/><text fill="#000000" font-family="sans-serif" font-size="14" lengthAdjust="spacing" textLength="164.7461" x="13" y="494.0345">entrypoint = main.bicep</text><text fill="#000000" font-family="sans-serif" font-size="14" lengthAdjust="spacing" textLength="274.4629" x="13" y="510.5228">structure = main.bicep + Bicep modules</text><text fill="#000000" font-family="sans-serif" font-size="14" lengthAdjust="spacing" textLength="191.3447" x="13" y="527.0111">appliedVia = az deployment</text><line style="stroke:#181818;stroke-width:0.5;" x1="8" x2="372.457" y1="533.9642" y2="533.9642"/><text fill="#000000" font-family="sans-serif" font-size="14" lengthAdjust="spacing" textLength="285.2227" x="13" y="551.4994">language = Bicep (Azure-native ARM DSL)</text><text fill="#000000" font-family="sans-serif" font-size="14" lengthAdjust="spacing" textLength="354.457" x="13" y="567.9877">transpilesTo = ARM (Azure Resource Manager) JSON</text></g><!--class TerraformIaC--><g class="entity" data-qualified-name="TerraformIaC" data-source-line="42" id="ent0005"><rect fill="#F1F1F1" height="155.5508" rx="2.5" ry="2.5" style="stroke:#181818;stroke-width:0.5;" width="301.7344" x="408.36" y="427.6283"/><ellipse cx="510.0582" cy="447.9388" fill="#ADD1B2" rx="11" ry="11" style="stroke:#181818;stroke-width:1;"/><path d="M512.5314,454.0819 Q511.9503,454.3807 511.3112,454.5301 Q510.672,454.6796 509.9664,454.6796 Q507.4596,454.6796 506.1398,453.0277 Q504.82,451.3758 504.82,448.2547 Q504.82,445.1254 506.1398,443.4735 Q507.4596,441.8216 509.9664,441.8216 Q510.672,441.8216 511.3195,441.9711 Q511.9669,442.1205 512.5314,442.4193 L512.5314,445.142 Q511.9005,444.5609 511.307,444.2911 Q510.7135,444.0213 510.0827,444.0213 Q508.7379,444.0213 508.0531,445.088 Q507.3683,446.1546 507.3683,448.2547 Q507.3683,450.3465 508.0531,451.4132 Q508.7379,452.4798 510.0827,452.4798 Q510.7135,452.4798 511.307,452.2101 Q511.9005,451.9403 512.5314,451.3592 Z " fill="#000000"/><text fill="#000000" font-family="sans-serif" font-size="12" font-style="italic" lengthAdjust="spacing" textLength="53.7422" x="548.6061" y="444.2298">&#171;artifact&#187;</text><text fill="#000000" font-family="sans-serif" font-size="14" lengthAdjust="spacing" textLength="89.8379" x="530.5582" y="460.2963">TerraformIaC</text><line style="stroke:#181818;stroke-width:0.5;" x1="409.36" x2="709.0944" y1="468.2494" y2="468.2494"/><text fill="#000000" font-family="sans-serif" font-size="14" lengthAdjust="spacing" textLength="182.3896" x="414.36" y="485.7845">language = Terraform HCL</text><text fill="#000000" font-family="sans-serif" font-size="14" lengthAdjust="spacing" textLength="138.4893" x="414.36" y="502.2728">entrypoint = main.tf</text><text fill="#000000" font-family="sans-serif" font-size="14" lengthAdjust="spacing" textLength="207.8945" x="414.36" y="518.7611">structure = main.tf + modules</text><text fill="#000000" font-family="sans-serif" font-size="14" lengthAdjust="spacing" textLength="133.5332" x="414.36" y="535.2494">provider = azurerm</text><text fill="#000000" font-family="sans-serif" font-size="14" lengthAdjust="spacing" textLength="246.1621" x="414.36" y="551.7377">appliedVia = terraform plan + apply</text><line style="stroke:#181818;stroke-width:0.5;" x1="409.36" x2="709.0944" y1="558.6908" y2="558.6908"/><text fill="#000000" font-family="sans-serif" font-size="14" lengthAdjust="spacing" textLength="289.7344" x="414.36" y="576.2259">stateBackend = remote (azurerm backend)</text></g><!--class ContainerRegistry--><g class="entity" data-qualified-name="ContainerRegistry" data-source-line="51" id="ent0006"><rect fill="#F1F1F1" height="56.6211" rx="2.5" ry="2.5" style="stroke:#181818;stroke-width:0.5;" width="153.0508" x="695.7" y="882.9983"/><ellipse cx="710.7" cy="903.3088" fill="#ADD1B2" rx="11" ry="11" style="stroke:#181818;stroke-width:1;"/><path d="M713.1731,909.4519 Q712.5921,909.7507 711.9529,909.9001 Q711.3138,910.0496 710.6082,910.0496 Q708.1014,910.0496 706.7815,908.3977 Q705.4617,906.7458 705.4617,903.6247 Q705.4617,900.4954 706.7815,898.8435 Q708.1014,897.1916 710.6082,897.1916 Q711.3138,897.1916 711.9612,897.3411 Q712.6087,897.4905 713.1731,897.7893 L713.1731,900.512 Q712.5423,899.9309 711.9488,899.6611 Q711.3553,899.3913 710.7244,899.3913 Q709.3797,899.3913 708.6949,900.458 Q708.0101,901.5246 708.0101,903.6247 Q708.0101,905.7165 708.6949,906.7832 Q709.3797,907.8498 710.7244,907.8498 Q711.3553,907.8498 711.9488,907.5801 Q712.5423,907.3103 713.1731,906.7292 Z " fill="#000000"/><text fill="#000000" font-family="sans-serif" font-size="12" font-style="italic" lengthAdjust="spacing" textLength="74.7422" x="747.8543" y="899.5998">&#171;Azure ACR&#187;</text><text fill="#000000" font-family="sans-serif" font-size="14" lengthAdjust="spacing" textLength="121.0508" x="724.7" y="915.6663">ContainerRegistry</text><line style="stroke:#181818;stroke-width:0.5;" x1="696.7" x2="847.7508" y1="923.6194" y2="923.6194"/><line style="stroke:#181818;stroke-width:0.5;" x1="696.7" x2="847.7508" y1="931.6194" y2="931.6194"/></g><!--class ContainerAppsEnv--><g class="entity" data-qualified-name="ContainerAppsEnv" data-source-line="52" id="ent0007"><rect fill="#F1F1F1" height="56.6211" rx="2.5" ry="2.5" style="stroke:#181818;stroke-width:0.5;" width="168.6191" x="905.92" y="477.0983"/><ellipse cx="920.92" cy="497.4088" fill="#ADD1B2" rx="11" ry="11" style="stroke:#181818;stroke-width:1;"/><path d="M923.3931,503.5519 Q922.8121,503.8507 922.1729,504.0001 Q921.5338,504.1496 920.8282,504.1496 Q918.3214,504.1496 917.0015,502.4977 Q915.6817,500.8458 915.6817,497.7247 Q915.6817,494.5954 917.0015,492.9435 Q918.3214,491.2916 920.8282,491.2916 Q921.5338,491.2916 922.1812,491.4411 Q922.8287,491.5905 923.3931,491.8893 L923.3931,494.612 Q922.7623,494.0309 922.1688,493.7611 Q921.5753,493.4913 920.9444,493.4913 Q919.5997,493.4913 918.9149,494.558 Q918.2301,495.6246 918.2301,497.7247 Q918.2301,499.8165 918.9149,500.8832 Q919.5997,501.9498 920.9444,501.9498 Q921.5753,501.9498 922.1688,501.6801 Q922.7623,501.4103 923.3931,500.8292 Z " fill="#000000"/><text fill="#000000" font-family="sans-serif" font-size="12" font-style="italic" lengthAdjust="spacing" textLength="140.6191" x="932.92" y="493.6998">&#171;Azure Container Apps&#187;</text><text fill="#000000" font-family="sans-serif" font-size="14" lengthAdjust="spacing" textLength="124.1475" x="941.1558" y="509.7663">ContainerAppsEnv</text><line style="stroke:#181818;stroke-width:0.5;" x1="906.92" x2="1073.5391" y1="517.7194" y2="517.7194"/><line style="stroke:#181818;stroke-width:0.5;" x1="906.92" x2="1073.5391" y1="525.7194" y2="525.7194"/></g><!--class AppRevision--><g class="entity" data-qualified-name="AppRevision" data-source-line="53" id="ent0008"><rect fill="#F1F1F1" height="106.0859" rx="2.5" ry="2.5" style="stroke:#181818;stroke-width:0.5;" width="214.6104" x="1043.92" y="675.1883"/><ellipse cx="1079.616" cy="695.4988" fill="#ADD1B2" rx="11" ry="11" style="stroke:#181818;stroke-width:1;"/><path d="M1082.0892,701.6419 Q1081.5081,701.9407 1080.869,702.0901 Q1080.2298,702.2396 1079.5242,702.2396 Q1077.0174,702.2396 1075.6976,700.5877 Q1074.3778,698.9358 1074.3778,695.8147 Q1074.3778,692.6854 1075.6976,691.0335 Q1077.0174,689.3816 1079.5242,689.3816 Q1080.2298,689.3816 1080.8773,689.5311 Q1081.5247,689.6805 1082.0892,689.9793 L1082.0892,692.702 Q1081.4583,692.1209 1080.8648,691.8511 Q1080.2713,691.5813 1079.6405,691.5813 Q1078.2957,691.5813 1077.6109,692.648 Q1076.9261,693.7146 1076.9261,695.8147 Q1076.9261,697.9065 1077.6109,698.9732 Q1078.2957,700.0398 1079.6405,700.0398 Q1080.2713,700.0398 1080.8648,699.7701 Q1081.4583,699.5003 1082.0892,698.9192 Z " fill="#000000"/><text fill="#000000" font-family="sans-serif" font-size="12" font-style="italic" lengthAdjust="spacing" textLength="140.6191" x="1096.2152" y="691.7898">&#171;Azure Container Apps&#187;</text><text fill="#000000" font-family="sans-serif" font-size="14" lengthAdjust="spacing" textLength="83.6992" x="1124.6751" y="707.8563">AppRevision</text><line style="stroke:#181818;stroke-width:0.5;" x1="1044.92" x2="1257.5304" y1="715.8094" y2="715.8094"/><text fill="#000000" font-family="sans-serif" font-size="14" lengthAdjust="spacing" textLength="164.7119" x="1049.92" y="733.3445">ingress = 8080 external</text><text fill="#000000" font-family="sans-serif" font-size="14" lengthAdjust="spacing" textLength="111.583" x="1049.92" y="749.8328">user = non-root</text><text fill="#000000" font-family="sans-serif" font-size="14" lengthAdjust="spacing" textLength="202.6104" x="1049.92" y="766.3211">env = NODE_ENV=production</text><line style="stroke:#181818;stroke-width:0.5;" x1="1044.92" x2="1257.5304" y1="773.2742" y2="773.2742"/></g><!--class PostgresFlexibleServer--><g class="entity" data-qualified-name="PostgresFlexibleServer" data-source-line="58" id="ent0009"><rect fill="#F1F1F1" height="89.5977" rx="2.5" ry="2.5" style="stroke:#181818;stroke-width:0.5;" width="211.2197" x="1352.62" y="866.5183"/><ellipse cx="1379.5894" cy="886.8288" fill="#ADD1B2" rx="11" ry="11" style="stroke:#181818;stroke-width:1;"/><path d="M1382.0625,892.9719 Q1381.4815,893.2707 1380.8423,893.4201 Q1380.2032,893.5696 1379.4976,893.5696 Q1376.9908,893.5696 1375.6709,891.9177 Q1374.3511,890.2658 1374.3511,887.1447 Q1374.3511,884.0154 1375.6709,882.3635 Q1376.9908,880.7116 1379.4976,880.7116 Q1380.2032,880.7116 1380.8506,880.8611 Q1381.4981,881.0105 1382.0625,881.3093 L1382.0625,884.032 Q1381.4317,883.4509 1380.8382,883.1811 Q1380.2447,882.9113 1379.6138,882.9113 Q1378.2691,882.9113 1377.5843,883.978 Q1376.8994,885.0446 1376.8994,887.1447 Q1376.8994,889.2365 1377.5843,890.3032 Q1378.2691,891.3698 1379.6138,891.3698 Q1380.2447,891.3698 1380.8382,891.1001 Q1381.4317,890.8303 1382.0625,890.2492 Z " fill="#000000"/><text fill="#000000" font-family="sans-serif" font-size="12" font-style="italic" lengthAdjust="spacing" textLength="156.6211" x="1394.2492" y="883.1198">&#171;Azure DB for PostgreSQL&#187;</text><text fill="#000000" font-family="sans-serif" font-size="14" lengthAdjust="spacing" textLength="152.5918" x="1396.2639" y="899.1863">PostgresFlexibleServer</text><line style="stroke:#181818;stroke-width:0.5;" x1="1353.62" x2="1562.8397" y1="907.1394" y2="907.1394"/><text fill="#000000" font-family="sans-serif" font-size="14" lengthAdjust="spacing" textLength="199.2197" x="1358.62" y="924.6745">transport = sslmode=require</text><text fill="#000000" font-family="sans-serif" font-size="14" lengthAdjust="spacing" textLength="139.043" x="1358.62" y="941.1628">encryption = at-rest</text><line style="stroke:#181818;stroke-width:0.5;" x1="1353.62" x2="1562.8397" y1="948.1159" y2="948.1159"/></g><!--class KeyVault--><g class="entity" data-qualified-name="KeyVault" data-source-line="62" id="ent0010"><rect fill="#F1F1F1" height="106.0859" rx="2.5" ry="2.5" style="stroke:#181818;stroke-width:0.5;" width="344.5957" x="1598.93" y="858.2683"/><ellipse cx="1716.4603" cy="878.5788" fill="#ADD1B2" rx="11" ry="11" style="stroke:#181818;stroke-width:1;"/><path d="M1718.9334,884.7219 Q1718.3524,885.0207 1717.7132,885.1701 Q1717.074,885.3196 1716.3685,885.3196 Q1713.8616,885.3196 1712.5418,883.6677 Q1711.222,882.0158 1711.222,878.8947 Q1711.222,875.7654 1712.5418,874.1135 Q1713.8616,872.4616 1716.3685,872.4616 Q1717.074,872.4616 1717.7215,872.6111 Q1718.369,872.7605 1718.9334,873.0593 L1718.9334,875.782 Q1718.3026,875.2009 1717.7091,874.9311 Q1717.1155,874.6613 1716.4847,874.6613 Q1715.14,874.6613 1714.4551,875.728 Q1713.7703,876.7946 1713.7703,878.8947 Q1713.7703,880.9865 1714.4551,882.0532 Q1715.14,883.1198 1716.4847,883.1198 Q1717.1155,883.1198 1717.7091,882.8501 Q1718.3026,882.5803 1718.9334,881.9992 Z " fill="#000000"/><text fill="#000000" font-family="sans-serif" font-size="12" font-style="italic" lengthAdjust="spacing" textLength="105.0352" x="1734.9603" y="874.8698">&#171;Azure Key Vault&#187;</text><text fill="#000000" font-family="sans-serif" font-size="14" lengthAdjust="spacing" textLength="59.1104" x="1757.9227" y="890.9363">KeyVault</text><line style="stroke:#181818;stroke-width:0.5;" x1="1599.93" x2="1942.5257" y1="898.8894" y2="898.8894"/><text fill="#000000" font-family="sans-serif" font-size="14" lengthAdjust="spacing" textLength="201.8379" x="1604.93" y="916.4245">networkDefaultAction = Deny</text><text fill="#000000" font-family="sans-serif" font-size="14" lengthAdjust="spacing" textLength="161.3008" x="1604.93" y="932.9128">bypass = AzureServices</text><line style="stroke:#181818;stroke-width:0.5;" x1="1599.93" x2="1942.5257" y1="939.8659" y2="939.8659"/><text fill="#000000" font-family="sans-serif" font-size="14" lengthAdjust="spacing" textLength="332.5957" x="1604.93" y="957.4011">holds = every secret (Container Apps secret refs)</text></g><!--class AzureOpenAI--><g class="entity" data-qualified-name="AzureOpenAI" data-source-line="67" id="ent0011"><rect fill="#F1F1F1" height="56.6211" rx="2.5" ry="2.5" style="stroke:#181818;stroke-width:0.5;" width="121.7695" x="892.34" y="882.9983"/><ellipse cx="907.34" cy="903.3088" fill="#ADD1B2" rx="11" ry="11" style="stroke:#181818;stroke-width:1;"/><path d="M909.8131,909.4519 Q909.2321,909.7507 908.5929,909.9001 Q907.9538,910.0496 907.2482,910.0496 Q904.7414,910.0496 903.4215,908.3977 Q902.1017,906.7458 902.1017,903.6247 Q902.1017,900.4954 903.4215,898.8435 Q904.7414,897.1916 907.2482,897.1916 Q907.9538,897.1916 908.6012,897.3411 Q909.2487,897.4905 909.8131,897.7893 L909.8131,900.512 Q909.1823,899.9309 908.5888,899.6611 Q907.9953,899.3913 907.3644,899.3913 Q906.0197,899.3913 905.3349,900.458 Q904.6501,901.5246 904.6501,903.6247 Q904.6501,905.7165 905.3349,906.7832 Q906.0197,907.8498 907.3644,907.8498 Q907.9953,907.8498 908.5888,907.5801 Q909.1823,907.3103 909.8131,906.7292 Z " fill="#000000"/><text fill="#000000" font-family="sans-serif" font-size="12" font-style="italic" lengthAdjust="spacing" textLength="93.3164" x="919.5666" y="899.5998">&#171;Azure OpenAI&#187;</text><text fill="#000000" font-family="sans-serif" font-size="14" lengthAdjust="spacing" textLength="89.7695" x="921.34" y="915.6663">AzureOpenAI</text><line style="stroke:#181818;stroke-width:0.5;" x1="893.34" x2="1013.1095" y1="923.6194" y2="923.6194"/><line style="stroke:#181818;stroke-width:0.5;" x1="893.34" x2="1013.1095" y1="931.6194" y2="931.6194"/></g><!--class MigrationJob--><g class="entity" data-qualified-name="MigrationJob" data-source-line="68" id="ent0012"><rect fill="#F1F1F1" height="73.1094" rx="2.5" ry="2.5" style="stroke:#181818;stroke-width:0.5;" width="297.2158" x="1109.62" y="468.8583"/><ellipse cx="1174.4418" cy="489.1688" fill="#ADD1B2" rx="11" ry="11" style="stroke:#181818;stroke-width:1;"/><path d="M1176.9149,495.3119 Q1176.3339,495.6107 1175.6947,495.7601 Q1175.0555,495.9096 1174.35,495.9096 Q1171.8431,495.9096 1170.5233,494.2577 Q1169.2035,492.6058 1169.2035,489.4847 Q1169.2035,486.3554 1170.5233,484.7035 Q1171.8431,483.0516 1174.35,483.0516 Q1175.0555,483.0516 1175.703,483.2011 Q1176.3505,483.3505 1176.9149,483.6493 L1176.9149,486.372 Q1176.2841,485.7909 1175.6906,485.5211 Q1175.0971,485.2513 1174.4662,485.2513 Q1173.1215,485.2513 1172.4367,486.318 Q1171.7518,487.3846 1171.7518,489.4847 Q1171.7518,491.5765 1172.4367,492.6432 Q1173.1215,493.7098 1174.4662,493.7098 Q1175.0971,493.7098 1175.6906,493.4401 Q1176.2841,493.1703 1176.9149,492.5892 Z " fill="#000000"/><text fill="#000000" font-family="sans-serif" font-size="12" font-style="italic" lengthAdjust="spacing" textLength="163.0723" x="1192.9418" y="485.4598">&#171;Azure Container Apps Job&#187;</text><text fill="#000000" font-family="sans-serif" font-size="14" lengthAdjust="spacing" textLength="86.6318" x="1231.162" y="501.5263">MigrationJob</text><line style="stroke:#181818;stroke-width:0.5;" x1="1110.62" x2="1405.8358" y1="509.4794" y2="509.4794"/><text fill="#000000" font-family="sans-serif" font-size="14" lengthAdjust="spacing" textLength="285.2158" x="1115.62" y="527.0145">order = before any revision traffic routing</text><line style="stroke:#181818;stroke-width:0.5;" x1="1110.62" x2="1405.8358" y1="533.9677" y2="533.9677"/></g><g class="entity" data-qualified-name="GMN29" data-source-line="91" id="ent0030"><path d="M1224.21,262.6583 L1224.21,364.5216 A0,0 0 0 0 1224.21,364.5216 L1606.252,364.5216 A0,0 0 0 0 1606.252,364.5216 L1606.252,272.6583 L1596.252,262.6583 L1365.09,262.6583 L1276.43,183.8383 L1357.09,262.6583 L1224.21,262.6583 A0,0 0 0 0 1224.21,262.6583" fill="#FEFFDD" style="stroke:#181818;stroke-width:0.5;"/><path d="M1596.252,262.6583 L1596.252,272.6583 L1606.252,272.6583 L1596.252,262.6583" fill="#FEFFDD" style="stroke:#181818;stroke-width:0.5;"/><text fill="#000000" font-family="sans-serif" font-size="13" lengthAdjust="spacing" textLength="344.9888" x="1230.21" y="280.2266">Implemented step 4: mandatory blocking confirmation</text><text fill="#000000" font-family="sans-serif" font-size="13" lengthAdjust="spacing" textLength="336.1084" x="1230.21" y="295.5372">BEFORE any deploy artifact (diagram.puml, generated</text><text fill="#000000" font-family="sans-serif" font-size="13" lengthAdjust="spacing" textLength="361.042" x="1230.21" y="310.8477">IaC, runbook.md). Invariants: OCL-DEPLOY-IAC-DIALECT</text><text fill="#000000" font-family="sans-serif" font-size="13" lengthAdjust="spacing" textLength="212.145" x="1230.21" y="326.1583">(value in the set, exactly one) and</text><text fill="#000000" font-family="sans-serif" font-size="13" lengthAdjust="spacing" textLength="302.4404" x="1230.21" y="341.4688">OCL-DEPLOY-IAC-CONFIRM-BEFORE-ARTIFACT</text><text fill="#000000" font-family="sans-serif" font-size="13" lengthAdjust="spacing" textLength="261.0854" x="1230.21" y="356.7794">(artifact =&gt; confirmed; no silent default).</text></g><g class="entity" data-qualified-name="GMN32" data-source-line="100" id="ent0033"><path d="M1596.34,1025.3583 L1596.34,1111.911 A0,0 0 0 0 1596.34,1111.911 L1946.1169,1111.911 A0,0 0 0 0 1946.1169,1111.911 L1946.1169,1035.3583 L1936.1169,1025.3583 L1775.23,1025.3583 L1771.23,964.4683 L1767.23,1025.3583 L1596.34,1025.3583 A0,0 0 0 0 1596.34,1025.3583" fill="#FEFFDD" style="stroke:#181818;stroke-width:0.5;"/><path d="M1936.1169,1025.3583 L1936.1169,1035.3583 L1946.1169,1035.3583 L1936.1169,1025.3583" fill="#FEFFDD" style="stroke:#181818;stroke-width:0.5;"/><text fill="#000000" font-family="sans-serif" font-size="13" lengthAdjust="spacing" textLength="291.3574" x="1602.34" y="1042.9266">Secure-by-default, identical for BOTH dialects</text><text fill="#000000" font-family="sans-serif" font-size="13" lengthAdjust="spacing" textLength="328.7769" x="1602.34" y="1058.2372">(step 6): when Postgres + Azure OpenAI are private,</text><text fill="#000000" font-family="sans-serif" font-size="13" lengthAdjust="spacing" textLength="171.8755" x="1602.34" y="1073.5477">Key Vault is generated with</text><text fill="#000000" font-family="sans-serif" font-size="13" lengthAdjust="spacing" textLength="286.2031" x="1602.34" y="1088.8583">networkAcls.defaultAction='Deny' + bypass=</text><text fill="#000000" font-family="sans-serif" font-size="13" lengthAdjust="spacing" textLength="321.4644" x="1602.34" y="1104.1688">Invariant: OCL-DEPLOY-IAC-SECURE-BY-DEFAULT.</text></g><g class="entity" data-qualified-name="GMN35" data-source-line="109" id="ent0036"><path d="M1824.26,454.4783 L1824.26,556.3416 L2250.196,556.3416 L2250.196,464.4783 L2240.196,454.4783 L1824.26,454.4783" fill="#FEFFDD" style="stroke:#181818;stroke-width:0.5;"/><path d="M2240.196,454.4783 L2240.196,464.4783 L2250.196,464.4783 L2240.196,454.4783" fill="#FEFFDD" style="stroke:#181818;stroke-width:1;"/><text fill="#000000" font-family="sans-serif" font-size="13" lengthAdjust="spacing" textLength="340.1519" x="1830.26" y="472.0466">FULL PARITY: BicepIaC and TerraformIaC compose the</text><text fill="#000000" font-family="sans-serif" font-size="13" lengthAdjust="spacing" textLength="339.3076" x="1830.26" y="487.3572">same secured topology and satisfy the same invariant</text><text fill="#000000" font-family="sans-serif" font-size="13" lengthAdjust="spacing" textLength="295.604" x="1830.26" y="502.6677">checklist; only language/structure/state differ.</text><text fill="#000000" font-family="sans-serif" font-size="13" lengthAdjust="spacing" textLength="317.9541" x="1830.26" y="517.9783">Produced by SEQ-DEPLOY-GUIDANCE; written into</text><text fill="#000000" font-family="sans-serif" font-size="13" lengthAdjust="spacing" textLength="245.1909" x="1830.26" y="533.2888">CMP-DEPLOY-TARGET. Constrained by</text><text fill="#000000" font-family="sans-serif" font-size="13" lengthAdjust="spacing" textLength="404.936" x="1830.26" y="548.5994">OCL-DEPLOY-IAC-SECURE-BY-DEFAULT / -MIGRATION-ORDER.</text></g><!--link DialectChoice to IaCArtifact--><g class="link" data-entity-1="ent0002" data-entity-2="ent0003" data-link-type="dependency" data-source-line="72" id="lnk13"><path codeLine="72" d="M1128.38,183.8383 C1101.49,208.8983 1075.9503,232.7086 1050.8303,256.1086" fill="none" id="DialectChoice-to-IaCArtifact" style="stroke:#181818;stroke-width:1;"/><polygon fill="#181818" points="1046.44,260.1983,1055.7519,256.9906,1050.0986,256.7902,1050.299,251.1369,1046.44,260.1983" style="stroke:#181818;stroke-width:1;"/><text fill="#000000" font-family="sans-serif" font-size="13" lengthAdjust="spacing" textLength="94.3262" x="1097.23" y="227.1166">selects &amp; gates</text><text fill="#000000" font-family="sans-serif" font-size="13" lengthAdjust="spacing" textLength="8.2202" x="1112.7274" y="204.033">1</text><text fill="#000000" font-family="sans-serif" font-size="13" lengthAdjust="spacing" textLength="8.2202" x="1045.1441" y="249.9846">1</text></g><!--reverse link IaCArtifact to BicepIaC--><g class="link" data-entity-1="ent0003" data-entity-2="ent0004" data-link-type="extension" data-source-line="73" id="lnk14"><path codeLine="73" d="M773.4617,345.8873 C655.8917,364.9373 522.59,390.4683 391.23,427.6283 C382.69,430.0483 374.01,432.6783 365.28,435.4583" fill="none" id="IaCArtifact-backto-BicepIaC" style="stroke:#181818;stroke-width:1;"/><polygon fill="none" points="791.23,343.0083,772.5021,339.9645,774.4214,351.81,791.23,343.0083" style="stroke:#181818;stroke-width:1;"/></g><!--reverse link IaCArtifact to TerraformIaC--><g class="link" data-entity-1="ent0003" data-entity-2="ent0005" data-link-type="extension" data-source-line="74" id="lnk15"><path codeLine="74" d="M793.6846,373.1891 C768.6746,382.1491 760.53,385.9683 737.23,396.6283 C717.68,405.5783 697.61,416.1783 678.3,427.1983" fill="none" id="IaCArtifact-backto-TerraformIaC" style="stroke:#181818;stroke-width:1;"/><polygon fill="none" points="810.63,367.1183,791.661,367.5406,795.7082,378.8375,810.63,367.1183" style="stroke:#181818;stroke-width:1;"/></g><!--reverse link IaCArtifact to ContainerRegistry--><g class="link" data-entity-1="ent0003" data-entity-2="ent0006" data-link-type="composition" data-source-line="76" id="lnk16"><path codeLine="76" d="M886.6846,374.251 C864.6946,390.861 853.21,403.9383 839.23,427.6283 C749.48,579.7383 761.55,804.7283 769.06,882.5983" fill="none" id="IaCArtifact-backto-ContainerRegistry" style="stroke:#181818;stroke-width:1;"/><polygon fill="#181818" points="896.26,367.0183,889.0614,367.4428,886.6846,374.251,893.8832,373.8264,896.26,367.0183" style="stroke:#181818;stroke-width:1;"/><text fill="#000000" font-family="sans-serif" font-size="13" lengthAdjust="spacing" textLength="8.2202" x="876.3339" y="387.031">1</text><text fill="#000000" font-family="sans-serif" font-size="13" lengthAdjust="spacing" textLength="8.2202" x="759.5167" y="872.2795">1</text></g><!--reverse link IaCArtifact to ContainerAppsEnv--><g class="link" data-entity-1="ent0003" data-entity-2="ent0007" data-link-type="composition" data-source-line="77" id="lnk17"><path codeLine="77" d="M990.23,378.9583 C990.23,414.5183 990.23,448.1083 990.23,476.8083" fill="none" id="IaCArtifact-backto-ContainerAppsEnv" style="stroke:#181818;stroke-width:1;"/><polygon fill="#181818" points="990.23,366.9583,986.23,372.9583,990.23,378.9583,994.23,372.9583,990.23,366.9583" style="stroke:#181818;stroke-width:1;"/><text fill="#000000" font-family="sans-serif" font-size="13" lengthAdjust="spacing" textLength="8.2202" x="981.7322" y="387.3451">1</text><text fill="#000000" font-family="sans-serif" font-size="13" lengthAdjust="spacing" textLength="8.2202" x="981.3792" y="466.5136">1</text></g><!--reverse link IaCArtifact to KeyVault--><g class="link" data-entity-1="ent0003" data-entity-2="ent0010" data-link-type="composition" data-source-line="78" id="lnk18"><path codeLine="78" d="M1200.7613,365.4993 C1206.5513,366.7693 1200.57,365.4383 1206.23,366.6283 C1353.86,397.8783 1415.54,342.6383 1540.23,427.6283 C1689.72,529.5383 1745.45,755.7383 1763.56,858.1383" fill="none" id="IaCArtifact-backto-KeyVault" style="stroke:#181818;stroke-width:1;"/><polygon fill="#181818" points="1189.04,362.9283,1194.0437,368.1209,1200.7613,365.4993,1195.7577,360.3067,1189.04,362.9283" style="stroke:#181818;stroke-width:1;"/><text fill="#000000" font-family="sans-serif" font-size="13" lengthAdjust="spacing" textLength="8.2202" x="1196.9668" y="362.137">1</text><text fill="#000000" font-family="sans-serif" font-size="13" lengthAdjust="spacing" textLength="8.2202" x="1754.0069" y="847.5746">1</text></g><!--reverse link IaCArtifact to PostgresFlexibleServer--><g class="link" data-entity-1="ent0003" data-entity-2="ent0009" data-link-type="composition" data-source-line="79" id="lnk19"><path codeLine="79" d="M1200.6379,366.6438 C1309.5979,394.0338 1413.21,420.9983 1424.23,427.6283 C1552.13,504.6083 1591.04,538.5783 1651.23,675.1883 C1678.75,737.6383 1702.33,772.3283 1663.23,828.2683 C1641,860.0783 1617.33,844.0383 1581.23,858.2683 C1574.86,860.7783 1568.33,863.3983 1561.76,866.0783" fill="none" id="IaCArtifact-backto-PostgresFlexibleServer" style="stroke:#181818;stroke-width:1;"/><polygon fill="#181818" points="1189,363.7183,1193.8438,369.0603,1200.6379,366.6438,1195.7941,361.3017,1189,363.7183" style="stroke:#181818;stroke-width:1;"/><text fill="#000000" font-family="sans-serif" font-size="13" lengthAdjust="spacing" textLength="8.2202" x="1196.9252" y="378.5438">1</text><text fill="#000000" font-family="sans-serif" font-size="13" lengthAdjust="spacing" textLength="8.2202" x="1568.3947" y="855.9234">1</text></g><!--reverse link IaCArtifact to AzureOpenAI--><g class="link" data-entity-1="ent0003" data-entity-2="ent0011" data-link-type="composition" data-source-line="80" id="lnk20"><path codeLine="80" d="M922.2095,375.7277 C905.8195,393.3177 898.07,405.3883 888.23,427.6283 C818.93,584.3283 858.68,640.1383 850.23,811.2683 C849.86,818.8183 846.95,821.4583 850.23,828.2683 C861.1,850.8183 881.51,869.0883 901.32,882.6183" fill="none" id="IaCArtifact-backto-AzureOpenAI" style="stroke:#181818;stroke-width:1;"/><polygon fill="#181818" points="930.39,366.9483,923.3732,368.6112,922.2095,375.7277,929.2262,374.0649,930.39,366.9483" style="stroke:#181818;stroke-width:1;"/><text fill="#000000" font-family="sans-serif" font-size="13" lengthAdjust="spacing" textLength="8.2202" x="914.2252" y="387.3338">1</text><text fill="#000000" font-family="sans-serif" font-size="13" lengthAdjust="spacing" textLength="8.2202" x="881.1149" y="872.3039">1</text></g><!--reverse link IaCArtifact to MigrationJob--><g class="link" data-entity-1="ent0003" data-entity-2="ent0012" data-link-type="composition" data-source-line="81" id="lnk21"><path codeLine="81" d="M1073.9617,373.8953 C1119.5117,406.1653 1166.95,439.7583 1207.42,468.4183" fill="none" id="IaCArtifact-backto-MigrationJob" style="stroke:#181818;stroke-width:1;"/><polygon fill="#181818" points="1064.17,366.9583,1066.7535,373.6907,1073.9617,373.8953,1071.3782,367.1629,1064.17,366.9583" style="stroke:#181818;stroke-width:1;"/><text fill="#000000" font-family="sans-serif" font-size="13" lengthAdjust="spacing" textLength="8.2202" x="1065.1458" y="387.3451">1</text><text fill="#000000" font-family="sans-serif" font-size="13" lengthAdjust="spacing" textLength="8.2202" x="1189.677" y="458.0887">1</text></g><!--reverse link ContainerAppsEnv to AppRevision--><g class="link" data-entity-1="ent0007" data-entity-2="ent0008" data-link-type="composition" data-source-line="82" id="lnk22"><path codeLine="82" d="M1017.36,543.6244 C1042.99,578.7744 1080.8,630.6283 1113.04,674.8483" fill="none" id="ContainerAppsEnv-backto-AppRevision" style="stroke:#181818;stroke-width:1;"/><polygon fill="#181818" points="1010.29,533.9283,1010.593,541.133,1017.36,543.6244,1017.0571,536.4197,1010.29,533.9283" style="stroke:#181818;stroke-width:1;"/><text fill="#000000" font-family="sans-serif" font-size="13" lengthAdjust="spacing" textLength="8.2202" x="1005.8273" y="554.4099">1</text><text fill="#000000" font-family="sans-serif" font-size="13" lengthAdjust="spacing" textLength="22.7119" x="1084.4786" y="664.2564">1..*</text></g><!--link AppRevision to ContainerRegistry--><g class="link" data-entity-1="ent0008" data-entity-2="ent0006" data-link-type="dependency" data-source-line="83" id="lnk23"><path codeLine="83" d="M1043.74,750.5783 C992.68,763.5183 932.06,783.0983 882.23,811.2683 C848.9,830.1083 821.199,856.1867 800.449,878.3667" fill="none" id="AppRevision-to-ContainerRegistry" style="stroke:#181818;stroke-width:1;stroke-dasharray:7,7;"/><polygon fill="#181818" points="796.35,882.7483,805.4196,878.9087,799.7659,879.097,799.5775,873.4433,796.35,882.7483" style="stroke:#181818;stroke-width:1;"/><text fill="#000000" font-family="sans-serif" font-size="13" lengthAdjust="spacing" textLength="66.3013" x="883.23" y="824.8366">pull image</text></g><!--link AppRevision to KeyVault--><g class="link" data-entity-1="ent0008" data-entity-2="ent0010" data-link-type="dependency" data-source-line="84" id="lnk24"><path codeLine="84" d="M1258.74,752.0483 C1326.25,767.1383 1414.89,788.3083 1492.23,811.2683 C1538.3,824.9483 1582.2822,839.8229 1626.7322,855.7629" fill="none" id="AppRevision-to-KeyVault" style="stroke:#181818;stroke-width:1;stroke-dasharray:7,7;"/><polygon fill="#181818" points="1632.38,857.7883,1625.2585,850.985,1627.6735,856.1005,1622.558,858.5155,1632.38,857.7883" style="stroke:#181818;stroke-width:1;"/><text fill="#000000" font-family="sans-serif" font-size="13" lengthAdjust="spacing" textLength="107.8086" x="1547.29" y="824.8366">secret references</text></g><!--link AppRevision to PostgresFlexibleServer--><g class="link" data-entity-1="ent0008" data-entity-2="ent0009" data-link-type="dependency" data-source-line="85" id="lnk25"><path codeLine="85" d="M1210.47,781.5583 C1230.29,797.6683 1253,814.7083 1275.23,828.2683 C1299.31,842.9583 1321.0059,854.0796 1346.8859,865.8196" fill="none" id="AppRevision-to-PostgresFlexibleServer" style="stroke:#181818;stroke-width:1;stroke-dasharray:7,7;"/><polygon fill="#181818" points="1352.35,868.2983,1345.8063,860.9375,1347.7966,866.2327,1342.5014,868.223,1352.35,868.2983" style="stroke:#181818;stroke-width:1;"/><text fill="#000000" font-family="sans-serif" font-size="13" lengthAdjust="spacing" textLength="207.4097" x="1276.23" y="824.8366">&#171;Encrypt&#187; TLS (sslmode=require)</text></g><!--link AppRevision to AzureOpenAI--><g class="link" data-entity-1="ent0008" data-entity-2="ent0011" data-link-type="dependency" data-source-line="86" id="lnk26"><path codeLine="86" d="M1043.84,756.0683 C1014.86,768.3383 986.28,785.9883 967.23,811.2683 C951.86,831.6583 949.3101,855.2923 950.1001,876.8323" fill="none" id="AppRevision-to-AzureOpenAI" style="stroke:#181818;stroke-width:1;stroke-dasharray:7,7;"/><polygon fill="#181818" points="950.32,882.8283,953.9875,873.6877,950.1367,877.8316,945.9928,873.9809,950.32,882.8283" style="stroke:#181818;stroke-width:1;"/><text fill="#000000" font-family="sans-serif" font-size="13" lengthAdjust="spacing" textLength="266.6016" x="968.23" y="824.8366">API key (landmine: NOT managed identity)</text></g><!--link MigrationJob to PostgresFlexibleServer--><g class="link" data-entity-1="ent0012" data-entity-2="ent0009" data-link-type="dependency" data-source-line="87" id="lnk27"><path codeLine="87" d="M1298.37,542.4583 C1353.65,595.1083 1450.64,699.0483 1488.23,811.2683 C1494.22,829.1583 1492.4453,843.4543 1485.6753,860.6743" fill="none" id="MigrationJob-to-PostgresFlexibleServer" style="stroke:#181818;stroke-width:1;stroke-dasharray:7,7;"/><polygon fill="#181818" points="1483.48,866.2583,1490.4956,859.3459,1485.3094,861.605,1483.0503,856.4188,1483.48,866.2583" style="stroke:#181818;stroke-width:1;"/><text fill="#000000" font-family="sans-serif" font-size="13" lengthAdjust="spacing" textLength="165.293" x="1476.91" y="733.2966">&#171;Encrypt&#187; schema migrate</text></g><!--link MigrationJob to AppRevision--><g class="link" data-entity-1="ent0012" data-entity-2="ent0008" data-link-type="dependency" data-source-line="88" id="lnk28"><path codeLine="88" d="M1240.8,542.3783 C1223.39,578.3083 1199.0564,628.5288 1179.2664,669.3688" fill="none" id="MigrationJob-to-AppRevision" style="stroke:#181818;stroke-width:1;"/><polygon fill="#181818" points="1176.65,674.7683,1184.1743,668.4134,1178.8304,670.2687,1176.975,664.9248,1176.65,674.7683" style="stroke:#181818;stroke-width:1;"/><text fill="#000000" font-family="sans-serif" font-size="13" lengthAdjust="spacing" textLength="115.667" x="1205.73" y="626.7566">completes BEFORE</text><text fill="#000000" font-family="sans-serif" font-size="13" lengthAdjust="spacing" textLength="87.6167" x="1219.7551" y="642.0672">traffic routing</text><text fill="#000000" font-family="sans-serif" font-size="13" lengthAdjust="spacing" textLength="8.2202" x="1229.136" y="562.6158">1</text><text fill="#000000" font-family="sans-serif" font-size="13" lengthAdjust="spacing" textLength="8.2202" x="1171.4092" y="664.5457">1</text></g><!--link IaCArtifact to GMN35--><g class="link" data-entity-1="ent0003" data-entity-2="ent0036" data-link-type="association" data-source-line="109" id="lnk37"><path d="M1189.16,363.9683 C1194.9,364.9283 1200.6,365.8183 1206.23,366.6283 C1466.53,404.2683 1541.54,335.0383 1797.23,396.6283 C1848.74,409.0383 1902.84,432.3383 1946.62,454.0983" fill="none" id="IaCArtifact-GMN35" style="stroke:#181818;stroke-width:1;stroke-dasharray:7,7;"/></g><?plantuml-src ZLZRRkD64dtNLnJyiAOoefG0GH1eniR8aZnH8bkE9CzYW0Kc5DcokIRPtEwcFCe5s8_OBzmlsLFTl4coitcotQokhikfqwTzJk_Zo9iiRlp9z6w--EJFHkDkvvpUAx7rxbVJQld3_MmokXrFyGrVnuLI8ZE-ZYD1aKo3EADKHY8XkINpA6WMZ2bG9ju6eQ516aL-9F94xkb1P485HkWUt0IQuZHFH0fV8khJECXa5eT1GbeMAXH32gsjTH1A9GPQXGCZi8UN-qh3oN1uCvbyTc5-Nlqqcyz96v5h-fR-Hj_H6-fZzo2IeHwu6FnSoMsS2AnZktV6iKPna0Y4-jz__uTapX5AXHEpRQnI4VL8PeAmJAh8phezId6ymfRuLn5Hd1a9H_qm2Of83FeX2l5be9_Y9D6jr0SsDXnAcptzWdLiZCqlVLlGDMfcTr0cdqaNUIwLqRJ--w8AJHy4qQC7X61T1TW-SJRZHnc7mZQWIeBIGXigCw6DsAAA56JxfZin5_5PnSQ8hDyAX9U49gwKnew8Lkl5tSfMA3QKYHqYSPbfbyCADH7Ix7FOFme-HZ4umeBR6vXOPhxCahrDWKCi4L5suotMR2Zy1uM1KZ7yt2v8Yx10A6XRm3zGU_Kab2Ql3QjOaooCXIDSmqjfp5NgzkbMOY5y2Xu4RH8PFf5tbmIPkR-Par4YGAK7DiL-7qsfJE4b2r9ENhjVi8xY2BZcohgY0A3wKUYkAy7xIEZmQ9fwT3PhGCwjCChMFQCQoQzZUC08Fi7ja8AZddkx82a4E_rjWx_p7fmh5Q3TwHyzgf4yl98o4K7MjPNH3Gf2BWDQPFlBPsDyIWHa4ft97gZ8J9nGQoWoIHhnP0O1ReCYCUGjnlDMwlvaDffFn-iU7QsF5xVNi-MDVpMzNYod_cYvdbsFncjqweg3vudqc5JwDXTK0EHIC0xzInejR-Z7rUAsHy6lPMMuj5tRZdMLTEF2R9lzlATG0fE0Mkw05jKZ9L9fq5T05EX0wqKMjQf7GPud-ovjK0Kad-PIkmd3RXJ4aXKZ5AqrCfU9VDZR6ex6onwDqMp40C2FSdHJP3l4eiGkrbng3rLLGclw_klll-PoPhwIqe1VHXmbJQu84T2Tr0Psgv_dvAtdAtp-IUpfeoluH62Mtu07ya3h2xjl9TGEPTFq_2W0Pi73agjunwDGkLxa8XlDUbWNFk2utSOXfV63SXZufzpO7BYY6ajwkxSfQqn1cQs_sVjLrzyqMtsfK5J0S8VvmuHXJBS5oCIDOyyXwxjkcsV45pXiuQn_rksOs804Nhet8dkrQAEAq70YNkYk8XklUPOrNNOx7H0oYdiu9-_UCV0lB-ct3f6RcM4vClHxQsRmjKOwBCgnmQe2ZkW2KMDgG6RCoTNbKN9pOuG1gGUiPDZZAJemFfocpX-TJh3HZYrSBiXzL3byzwxoNMPZ0lKW33nPZFFjvR3d1umzR_SDto20CaphQbxjOT-kizUc_TuXpVDEdeQut5VTCGZKXLSFxqbiODk7WkdtmXcHPt7ePq3DJjYPdgpcV00AeFQvnAKAsuO3yALfUli3qESybYFEXL11fdDEO2rXoyxTSRGKJbZGJP0X6jMrJDAazJ4ERFrQl58dTq0jVvPWRKW_ZESlPcIsBwNJ9YfyhnYgQgXAxIPqxSgH53wKtELLh5RIL_SueuRDSDzaECQI6WFCvLRpr58yn0XiZmHTnK1ZbvV7LancKt1PPNH8SxKz_bXMNFUQgIrUnOCNbWanMuWt2n9yARGjG4MDjfexBDmk9jFFqzkF5wXIX3BYYBfH9L_gwqHyYJU9vKDugI8uOTLgV2ng8BlWNkk4vUo54lygOYNiiI6QQDaH_J0-_3VG01yxEgxEg0cwzFqeauZJusdQCuCg3AftT3kKon3UTj8o0JfJJnD71gEmF9i97ryTuJEwsvHVHsHN7SdNGRa_w-xSL9pz8zZ-vVOGFfKPE5w_Q2l8-XwhBX052OPMCgmEIVVicpFoSNNpppQ53P6p9MieTQj7EWS4zxllrvHo-gKzZvs3ptpCLx3WdoV8_l-M9RfVDQow_Qh1om1yrRpLgrTjsitgdCnXOzdlVtNMdhjEUmRx_SiN9dr8ET_GSSgIzzYyHlQm1Kze-up1Tcpyok0DWQwf6n-02Gg6lAFvwfwuQkDtIAEx6JrXf3oGLvGY-Y48O0tMP1AFIYLcSBCTOFelXwJ3Hv46fOWHXqxQq6q7ERHQC15yLpeL-u_iU0uw6PCpXAEHAJ-C3uO2CzL-5ZZ9FUIS8hvJz-wXmhgxr0es9Enofza9BE_iMcDuK2A8FUtdHPhqcbkUpmhm484usKZvX0S45DYircX3UbcsOrlphB3wJvXUM_bOpGshlwRksLqTwiLbeu7UdceVlAVuXkC2dfIndZ-YrR4MxRLaERFyrMBzGoq9EO1IW0wTEAxWWHknpP7svLfAvXvsDNeRxyn6YJx7vh4Xwb6Ow7xKPkkBSoRhyqQUm_ZyWA_FoKEGGNKMRfd82WMaJqs3JlgpcexlKTYhJrYy7jtFrtzIhHQZmEVrFPwMTwFbRFrfsCYravTJwvt3egEH_Qr7pekFWrhuitv-5E5J0f9vQtLdBP46jV8Pk4TN56_1APpodRtDtVyrLjEVZ__vzBPMqVP_BaJZcxlAPZrQVfYk-qnmB9b14kpb59mdjSFJtx-PVLYErhF5hRzOJgRBffp_0m00?></g></svg>