<svg xmlns="http://www.w3.org/2000/svg" xmlns:xlink="http://www.w3.org/1999/xlink" contentStyleType="text/css" data-diagram-type="CLASS" height="462px" preserveAspectRatio="none" style="width:365px;height:462px;background:#FFFFFF;" version="1.1" viewBox="0 0 365 462" width="365px" zoomAndPan="magnify"><?plantuml 1.2026.3?><defs/><g><g class="title" data-source-line="5"><text fill="#000000" font-family="sans-serif" font-size="14" font-weight="700" lengthAdjust="spacing" textLength="324.2764" x="17.3604" y="23.5352">Font database for SVG rasterization (current)</text></g><!--class SvgRasterizer--><g class="entity" data-qualified-name="SvgRasterizer" data-source-line="7" id="ent0002"><rect fill="#F1F1F1" height="80.9766" rx="2.5" ry="2.5" style="stroke:#181818;stroke-width:0.5;" width="250.6768" x="53.16" y="44.4883"/><ellipse cx="128.4476" cy="60.4883" fill="#ADD1B2" rx="11" ry="11" style="stroke:#181818;stroke-width:1;"/><path d="M130.9207,66.6313 Q130.3397,66.9302 129.7005,67.0796 Q129.0614,67.229 128.3558,67.229 Q125.849,67.229 124.5291,65.5771 Q123.2093,63.9253 123.2093,60.8042 Q123.2093,57.6748 124.5291,56.0229 Q125.849,54.3711 128.3558,54.3711 Q129.0614,54.3711 129.7088,54.5205 Q130.3563,54.6699 130.9207,54.9688 L130.9207,57.6914 Q130.2899,57.1104 129.6964,56.8406 Q129.1029,56.5708 128.472,56.5708 Q127.1273,56.5708 126.4425,57.6375 Q125.7577,58.7041 125.7577,60.8042 Q125.7577,62.896 126.4425,63.9626 Q127.1273,65.0293 128.472,65.0293 Q129.1029,65.0293 129.6964,64.7595 Q130.2899,64.4897 130.9207,63.9087 Z " fill="#000000"/><text fill="#000000" font-family="sans-serif" font-size="14" lengthAdjust="spacing" textLength="91.6016" x="148.9476" y="65.7793">SvgRasterizer</text><line style="stroke:#181818;stroke-width:0.5;" x1="54.16" x2="302.8368" y1="76.4883" y2="76.4883"/><line style="stroke:#181818;stroke-width:0.5;" x1="54.16" x2="302.8368" y1="84.4883" y2="84.4883"/><g data-visibility-modifier="PUBLIC_METHOD"><ellipse cx="64.16" cy="98.2324" fill="#84BE84" rx="3" ry="3" style="stroke:#038048;stroke-width:1;"/></g><text fill="#000000" font-family="sans-serif" font-size="14" lengthAdjust="spacing" textLength="224.6768" x="73.16" y="102.0234">parse_intrinsic_size(bytes) : Vec2</text><g data-visibility-modifier="PUBLIC_METHOD"><ellipse cx="64.16" cy="114.7207" fill="#84BE84" rx="3" ry="3" style="stroke:#038048;stroke-width:1;"/></g><text fill="#000000" font-family="sans-serif" font-size="14" lengthAdjust="spacing" textLength="180.2363" x="73.16" y="118.5117">rebuild(ctx, zoom) : Result</text></g><!--class FontDatabase--><g class="entity" data-qualified-name="FontDatabase" data-source-line="12" id="ent0003"><rect fill="#F1F1F1" height="97.4648" rx="2.5" ry="2.5" style="stroke:#181818;stroke-width:0.5;" width="191.5527" x="82.72" y="202.4583"/><ellipse cx="127.8987" cy="218.4583" fill="#ADD1B2" rx="11" ry="11" style="stroke:#181818;stroke-width:1;"/><path d="M130.3719,224.6013 Q129.7908,224.9002 129.1516,225.0496 Q128.5125,225.199 127.8069,225.199 Q125.3001,225.199 123.9803,223.5471 Q122.6604,221.8953 122.6604,218.7742 Q122.6604,215.6448 123.9803,213.9929 Q125.3001,212.3411 127.8069,212.3411 Q128.5125,212.3411 129.1599,212.4905 Q129.8074,212.6399 130.3719,212.9388 L130.3719,215.6614 Q129.741,215.0804 129.1475,214.8106 Q128.554,214.5408 127.9231,214.5408 Q126.5784,214.5408 125.8936,215.6075 Q125.2088,216.6741 125.2088,218.7742 Q125.2088,220.866 125.8936,221.9326 Q126.5784,222.9993 127.9231,222.9993 Q128.554,222.9993 129.1475,222.7295 Q129.741,222.4597 130.3719,221.8787 Z " fill="#000000"/><text fill="#000000" font-family="sans-serif" font-size="14" lengthAdjust="spacing" textLength="92.6953" x="148.3987" y="223.7493">FontDatabase</text><line style="stroke:#181818;stroke-width:0.5;" x1="83.72" x2="273.2727" y1="234.4583" y2="234.4583"/><g data-visibility-modifier="PUBLIC_FIELD"><ellipse cx="93.72" cy="248.2024" fill="none" rx="3" ry="3" style="stroke:#038048;stroke-width:1;"/></g><text fill="#000000" font-family="sans-serif" font-size="14" lengthAdjust="spacing" textLength="99.832" x="102.72" y="251.9934">fontCount : int</text><g data-visibility-modifier="PUBLIC_FIELD"><ellipse cx="93.72" cy="264.6907" fill="none" rx="3" ry="3" style="stroke:#038048;stroke-width:1;"/></g><text fill="#000000" font-family="sans-serif" font-size="14" lengthAdjust="spacing" textLength="144.4365" x="102.72" y="268.4817">defaultFamily : String</text><line style="stroke:#181818;stroke-width:0.5;" x1="83.72" x2="273.2727" y1="275.4348" y2="275.4348"/><g data-visibility-modifier="PUBLIC_METHOD"><ellipse cx="93.72" cy="289.179" fill="#84BE84" rx="3" ry="3" style="stroke:#038048;stroke-width:1;"/></g><text fill="#000000" font-family="sans-serif" font-size="14" lengthAdjust="spacing" textLength="165.5527" x="102.72" y="292.97">loadSystemFonts() : void</text></g><g class="entity" data-qualified-name="GMN5" data-source-line="21" id="ent0006"><path d="M6,360.9283 L6,447.481 A0,0 0 0 0 6,447.481 L350.9971,447.481 A0,0 0 0 0 350.9971,447.481 L350.9971,370.9283 L340.9971,360.9283 L182.5,360.9283 L178.5,300.3883 L174.5,360.9283 L6,360.9283 A0,0 0 0 0 6,360.9283" fill="#FEFFDD" style="stroke:#181818;stroke-width:0.5;"/><path d="M340.9971,360.9283 L340.9971,370.9283 L350.9971,370.9283 L340.9971,360.9283" fill="#FEFFDD" style="stroke:#181818;stroke-width:0.5;"/><text fill="#000000" font-family="sans-serif" font-size="13" lengthAdjust="spacing" textLength="283.9878" x="12" y="378.4966">Backed by usvg::fontdb::Database. Built once</text><text fill="#000000" font-family="sans-serif" font-size="13" lengthAdjust="spacing" textLength="267.1475" x="12" y="393.8072">in shared_fontdb() (static OnceLock), filled</text><text fill="#000000" font-family="sans-serif" font-size="13" lengthAdjust="spacing" textLength="283.9878" x="12" y="409.1177">by load_system_fonts(), then Arc-cloned into</text><text fill="#000000" font-family="sans-serif" font-size="13" lengthAdjust="spacing" textLength="256.4834" x="12" y="424.4283">usvg::Options.fontdb at every parse site.</text><text fill="#000000" font-family="sans-serif" font-size="13" lengthAdjust="spacing" textLength="323.9971" x="12" y="439.7388">defaultFamily = usvg default ("Times New Roman").</text></g><!--reverse link SvgRasterizer to FontDatabase--><g class="link" data-entity-1="ent0002" data-entity-2="ent0003" data-link-type="aggregation" data-source-line="18" id="lnk4"><path codeLine="18" d="M178.5,137.7283 C178.5,160.6983 178.5,177.7583 178.5,202.0283" fill="none" id="SvgRasterizer-backto-FontDatabase" style="stroke:#181818;stroke-width:1;"/><polygon fill="none" points="178.5,125.7283,174.5,131.7283,178.5,137.7283,182.5,131.7283,178.5,125.7283" style="stroke:#181818;stroke-width:1;"/><polygon fill="#000000" points="183.5,169.1136,186.4389,160.0685,180.5611,160.0685,183.5,169.1136" style="stroke:#000000;stroke-width:1;"/><text fill="#000000" font-family="sans-serif" font-size="13" lengthAdjust="spacing" textLength="123.0303" x="192.5" y="169.0266">resolves &lt;text&gt; via</text><text fill="#000000" font-family="sans-serif" font-size="13" lengthAdjust="spacing" textLength="8.2202" x="169.8803" y="146.0115">1</text><text fill="#000000" font-family="sans-serif" font-size="13" lengthAdjust="spacing" textLength="8.2202" x="169.9535" y="191.6503">1</text></g><?plantuml-src NL9BRzim3BxxLn2vrCRY0DlHs8hbiUooDK1Iz1h84fDgbKL3ejswm_xxA1l1u9q4KEJtuCSx-6fDlZlyBFU7XyTojtvSRzQdRqLs1zik1FHSHciG33NAUj3aDROCdbwX3HZb7yQomGhu6U52KZ6ALQqYfee0dPw-Gr2HCTXt362mHMyYa5z2Istd5AE110pr0F5P1JJdX6Fgl03b3RGgHZI2P3qJTB6_LjMXPKi-hc3hA68SoQd-XPfjZoLvDyXOi3p0LRMhZ2qxXFrCtON2J9jAY93hoNUHPTe9CPpww_6V-jyPm8S47V4iSeBrqUfpbB-y7XXZ0HKyeVuqjWMiE-jChlbj2Uz4JVezOkmSPtzk-4dKxgPfWa_kjzI9s2fv7ci6Bqhczggnugs2K-A-Zb-Eb3aD8h59M35FB3rPapZcwXSV5q1bERuptagqHdAzRF8punlVGsyLt6UP9vPSY9aQeCjiIBWtIhz8U9BRbCeKMrNTMbQmaGNmcAwqowdydsyUMVQkuI0TFqY_54kuMESaRaYmoTevZjx66J6tJ5bxM0TTQaTUwDDPIFlyC2O6K0pOOnYco21QnfNqphVvPPoz5I5VFDf6Dl60ht2Km_UBOfN9pK9Qnby0?></g></svg>