<svg xmlns="http://www.w3.org/2000/svg" xmlns:xlink="http://www.w3.org/1999/xlink" contentStyleType="text/css" data-diagram-type="CLASS" height="499px" preserveAspectRatio="none" style="width:932px;height:499px;background:#FFFFFF;" version="1.1" viewBox="0 0 932 499" width="932px" zoomAndPan="magnify"><?plantuml 1.2026.3?><defs/><g><g class="title" data-source-line="7"><text fill="#000000" font-family="sans-serif" font-size="14" font-weight="700" lengthAdjust="spacing" textLength="365.0732" x="280.3118" y="23.5352">MDD init &#8212; file classes + state migration (current)</text></g><!--class InitFileClass--><g class="entity" data-qualified-name="InitFileClass" data-source-line="9" id="ent0002"><rect fill="#F1F1F1" height="80.9766" rx="2.5" ry="2.5" style="stroke:#181818;stroke-width:0.5;" width="138.4717" x="114.61" y="253.5383"/><ellipse cx="141.0081" cy="269.5383" fill="#EB937F" rx="11" ry="11" style="stroke:#181818;stroke-width:1;"/><path d="M144.6224,276.0383 L136.9026,276.0383 L136.9026,263.6452 L144.6224,263.6452 L144.6224,265.8034 L139.3514,265.8034 L139.3514,268.4763 L144.1243,268.4763 L144.1243,270.6345 L139.3514,270.6345 L139.3514,273.8801 L144.6224,273.8801 Z " fill="#000000"/><text fill="#000000" font-family="sans-serif" font-size="14" lengthAdjust="spacing" textLength="81.1426" x="157.541" y="274.8293">InitFileClass</text><line style="stroke:#181818;stroke-width:0.5;" x1="115.61" x2="252.0817" y1="285.5383" y2="285.5383"/><text fill="#000000" font-family="sans-serif" font-size="14" lengthAdjust="spacing" textLength="83.7881" x="120.61" y="303.0734">Regenerable</text><text fill="#000000" font-family="sans-serif" font-size="14" lengthAdjust="spacing" textLength="126.4717" x="120.61" y="319.5617">AccumulatingState</text><line style="stroke:#181818;stroke-width:0.5;" x1="115.61" x2="252.0817" y1="326.5148" y2="326.5148"/></g><!--class StateMigration--><g class="entity" data-qualified-name="StateMigration" data-source-line="14" id="ent0003"><rect fill="#F1F1F1" height="113.9531" rx="2.5" ry="2.5" style="stroke:#181818;stroke-width:0.5;" width="168.4336" x="337.63" y="44.4883"/><ellipse cx="369.7405" cy="60.4883" fill="#ADD1B2" rx="11" ry="11" style="stroke:#181818;stroke-width:1;"/><path d="M372.2137,66.6313 Q371.6326,66.9302 370.9935,67.0796 Q370.3543,67.229 369.6488,67.229 Q367.1419,67.229 365.8221,65.5771 Q364.5023,63.9253 364.5023,60.8042 Q364.5023,57.6748 365.8221,56.0229 Q367.1419,54.3711 369.6488,54.3711 Q370.3543,54.3711 371.0018,54.5205 Q371.6492,54.6699 372.2137,54.9688 L372.2137,57.6914 Q371.5828,57.1104 370.9893,56.8406 Q370.3958,56.5708 369.765,56.5708 Q368.4202,56.5708 367.7354,57.6375 Q367.0506,58.7041 367.0506,60.8042 Q367.0506,62.896 367.7354,63.9626 Q368.4202,65.0293 369.765,65.0293 Q370.3958,65.0293 370.9893,64.7595 Q371.5828,64.4897 372.2137,63.9087 Z " fill="#000000"/><text fill="#000000" font-family="sans-serif" font-size="14" lengthAdjust="spacing" textLength="98.4102" x="387.5429" y="65.7793">StateMigration</text><line style="stroke:#181818;stroke-width:0.5;" x1="338.63" x2="505.0636" y1="76.4883" y2="76.4883"/><g data-visibility-modifier="PUBLIC_FIELD"><ellipse cx="348.63" cy="90.2324" fill="none" rx="3" ry="3" style="stroke:#038048;stroke-width:1;"/></g><text fill="#000000" font-family="sans-serif" font-size="14" lengthAdjust="spacing" textLength="83.7266" x="357.63" y="94.0234">path : String</text><g data-visibility-modifier="PUBLIC_FIELD"><ellipse cx="348.63" cy="106.7207" fill="none" rx="3" ry="3" style="stroke:#038048;stroke-width:1;"/></g><text fill="#000000" font-family="sans-serif" font-size="14" lengthAdjust="spacing" textLength="142.4336" x="357.63" y="110.5117">schemaVersion : u32</text><g data-visibility-modifier="PUBLIC_FIELD"><ellipse cx="348.63" cy="123.209" fill="none" rx="3" ry="3" style="stroke:#038048;stroke-width:1;"/></g><text fill="#000000" font-family="sans-serif" font-size="14" lengthAdjust="spacing" textLength="137.9766" x="357.63" y="127">onDiskVersion : u32</text><line style="stroke:#181818;stroke-width:0.5;" x1="338.63" x2="505.0636" y1="133.9531" y2="133.9531"/><g data-visibility-modifier="PUBLIC_METHOD"><ellipse cx="348.63" cy="147.6973" fill="#84BE84" rx="3" ry="3" style="stroke:#038048;stroke-width:1;"/></g><text fill="#000000" font-family="sans-serif" font-size="14" lengthAdjust="spacing" textLength="136.1787" x="357.63" y="151.4883">migrate() : Outcome</text></g><!--class Outcome--><g class="entity" data-qualified-name="Outcome" data-source-line="21" id="ent0004"><rect fill="#F1F1F1" height="97.4648" rx="2.5" ry="2.5" style="stroke:#181818;stroke-width:0.5;" width="93.4414" x="375.12" y="245.2983"/><ellipse cx="390.12" cy="261.2983" fill="#EB937F" rx="11" ry="11" style="stroke:#181818;stroke-width:1;"/><path d="M393.7343,267.7983 L386.0145,267.7983 L386.0145,255.4052 L393.7343,255.4052 L393.7343,257.5634 L388.4633,257.5634 L388.4633,260.2363 L393.2362,260.2363 L393.2362,262.3945 L388.4633,262.3945 L388.4633,265.6401 L393.7343,265.6401 Z " fill="#000000"/><text fill="#000000" font-family="sans-serif" font-size="14" lengthAdjust="spacing" textLength="61.4414" x="404.12" y="266.5893">Outcome</text><line style="stroke:#181818;stroke-width:0.5;" x1="376.12" x2="467.5614" y1="277.2983" y2="277.2983"/><text fill="#000000" font-family="sans-serif" font-size="14" lengthAdjust="spacing" textLength="52.7939" x="381.12" y="294.8334">Created</text><text fill="#000000" font-family="sans-serif" font-size="14" lengthAdjust="spacing" textLength="60.1426" x="381.12" y="311.3217">Migrated</text><text fill="#000000" font-family="sans-serif" font-size="14" lengthAdjust="spacing" textLength="54.0039" x="381.12" y="327.81">Skipped</text><line style="stroke:#181818;stroke-width:0.5;" x1="376.12" x2="467.5614" y1="334.7631" y2="334.7631"/></g><g class="entity" data-qualified-name="GMN7" data-source-line="31" id="ent0008"><path d="M503.98,235.4383 L503.98,352.6121 A0,0 0 0 0 503.98,352.6121 L917.6968,352.6121 A0,0 0 0 0 917.6968,352.6121 L917.6968,245.4383 L907.6968,235.4383 L626.85,235.4383 L506.21,158.0983 L618.85,235.4383 L503.98,235.4383 A0,0 0 0 0 503.98,235.4383" fill="#FEFFDD" style="stroke:#181818;stroke-width:0.5;"/><path d="M907.6968,235.4383 L907.6968,245.4383 L917.6968,245.4383 L907.6968,235.4383" fill="#FEFFDD" style="stroke:#181818;stroke-width:0.5;"/><text fill="#000000" font-family="sans-serif" font-size="13" lengthAdjust="spacing" textLength="261.2188" x="509.98" y="253.0066">migrate() (write_yaml_create_or_migrate):</text><text fill="#000000" font-family="sans-serif" font-size="13" lengthAdjust="spacing" textLength="287.1743" x="518.2066" y="268.3172">onDiskVersion &lt; schemaVersion -&gt; Migrated</text><text fill="#000000" font-family="sans-serif" font-size="13" lengthAdjust="spacing" textLength="236.8184" x="526.4331" y="283.6277">(parse into current struct, defaults fill</text><text fill="#000000" font-family="sans-serif" font-size="13" lengthAdjust="spacing" textLength="235.8091" x="530.5464" y="298.9383">new fields, bump version, write back)</text><text fill="#000000" font-family="sans-serif" font-size="13" lengthAdjust="spacing" textLength="361.2451" x="518.2066" y="314.2488">onDiskVersion = schemaVersion -&gt; Skipped (untouched)</text><text fill="#000000" font-family="sans-serif" font-size="13" lengthAdjust="spacing" textLength="384.4902" x="518.2066" y="329.5594">onDiskVersion &gt; schemaVersion -&gt; Skipped (no downgrade)</text><text fill="#000000" font-family="sans-serif" font-size="13" lengthAdjust="spacing" textLength="305.5635" x="509.98" y="344.8699">Preserves all prior content; no per-version code.</text></g><g class="entity" data-qualified-name="GMN10" data-source-line="41" id="ent0011"><path d="M6,413.6183 L6,484.8605 A0,0 0 0 0 6,484.8605 L361.6865,484.8605 A0,0 0 0 0 361.6865,484.8605 L361.6865,423.6183 L351.6865,413.6183 L187.84,413.6183 L183.84,334.8783 L179.84,413.6183 L6,413.6183 A0,0 0 0 0 6,413.6183" fill="#FEFFDD" style="stroke:#181818;stroke-width:0.5;"/><path d="M351.6865,413.6183 L351.6865,423.6183 L361.6865,423.6183 L351.6865,413.6183" fill="#FEFFDD" style="stroke:#181818;stroke-width:0.5;"/><text fill="#000000" font-family="sans-serif" font-size="13" lengthAdjust="spacing" textLength="320.6646" x="12" y="431.1866">Regenerable: docs, skills, CLAUDE.md/AGENTS.md</text><text fill="#000000" font-family="sans-serif" font-size="13" lengthAdjust="spacing" textLength="307.7598" x="12" y="446.4972">blocks, SessionStart hook -&gt; --force overwrites.</text><text fill="#000000" font-family="sans-serif" font-size="13" lengthAdjust="spacing" textLength="317.7954" x="12" y="461.8077">AccumulatingState (StateFile trait): config / trace /</text><text fill="#000000" font-family="sans-serif" font-size="13" lengthAdjust="spacing" textLength="334.6865" x="12" y="477.1183">approvals -&gt; never overwritten; created or migrated.</text></g><!--link StateMigration to InitFileClass--><g class="link" data-entity-1="ent0003" data-entity-2="ent0002" data-link-type="dependency" data-source-line="27" id="lnk5"><path codeLine="27" d="M337.19,119.8283 C295.47,132.4083 247.46,153.5483 215.84,188.4383 C199.78,206.1683 192.8778,225.8896 188.8878,247.3296" fill="none" id="StateMigration-to-InitFileClass" style="stroke:#181818;stroke-width:1;stroke-dasharray:7,7;"/><polygon fill="#181818" points="187.79,253.2283,193.3691,245.112,188.7048,248.3127,185.5042,243.6484,187.79,253.2283" style="stroke:#181818;stroke-width:1;"/><polygon fill="#000000" points="217.0486,200.3532,225.8233,196.685,221.9914,192.2279,217.0486,200.3532" style="stroke:#000000;stroke-width:1;"/><text fill="#000000" font-family="sans-serif" font-size="13" lengthAdjust="spacing" textLength="183.4409" x="229.84" y="202.0066">applies to AccumulatingState</text></g><!--link StateMigration to Outcome--><g class="link" data-entity-1="ent0003" data-entity-2="ent0004" data-link-type="dependency" data-source-line="28" id="lnk6"><path codeLine="28" d="M421.84,158.8683 C421.84,186.1983 421.84,212.6783 421.84,238.8283" fill="none" id="StateMigration-to-Outcome" style="stroke:#181818;stroke-width:1;stroke-dasharray:7,7;"/><polygon fill="#181818" points="421.84,244.8283,425.84,235.8283,421.84,239.8283,417.84,235.8283,421.84,244.8283" style="stroke:#181818;stroke-width:1;"/><polygon fill="#000000" points="426.84,202.0936,429.7789,193.0485,423.9011,193.0485,426.84,202.0936" style="stroke:#000000;stroke-width:1;"/><text fill="#000000" font-family="sans-serif" font-size="13" lengthAdjust="spacing" textLength="36.3594" x="435.84" y="202.0066">yields</text></g><?plantuml-src bLRRRkCs47ttLmos3v4GIygsBuNI66l4sONHN1Phjoz5OT0aRREcI86audMB0ls8Vc6_f4DIliXs0zHFCicvd3DdXho23u8bevUdRFmydcOVnuyFsVtZS399UrVmWN5BBstsuTsugYMlk7AS0R7WLXoCRfnGIn0AFXlz6wUkB8KIRhOHRZMZMYsae6ws8ef9Rg2MJRIREEBuHo4vE4E4WuGQNB15nLX6jU65DRIGOfuRc-RmXI-vueRCyVm2ZImaJ5FRXuqswuNK6vZyE7vyp2lM1qpsfz43VXR3Jm_Fqmb-GKKKMMBISwdf6iqct5gX5IPX7AoqNgUmr9WNebckO6E4upF7lxgPMCmgWMVLCcaXf52q1rgdi-1qlsgZwvdt2cW2n72mP850DUXNRiAn78QKDbKZYMSlaB43vZaJotnRoRxdXlBuIUhQw5SYhV-RWjYLuYARFkuPe2sfv8mQZaTdsY2kfQSSELm9kWB5CJSmd7BnocEDTjM3NVN--Ujli1goRA4DvGSqyVXnaIntC6ySKABsdWb6yUVEaUFf7AQuPMk9sOjzUCfhrn3fZQrMVXN9z8IwZGOcBBh0z48EK1EtilcxeE5MtfFfSFgGFOq_VHbEno_FNNcVR9x8UxvzapMuzZcnk8lmVCbnxVyhsz8LhyZFhOUxWtLPngsTzoI5n8U4XT4L13AjCmrrLnP6V44QwK9zd6Pa2-y1ImHFZDq7DHLJBwHYkDDGUWjQZOHT7mAVmS60UX4GyQ-1wMLGA2Gtg1YkWCmjKbKqgYR6SbzrXDFIWxOBOL0NMibjFDwDzqCNU1dY1FTOV2mHDu98yJiMGYYdenmQOxpU8sf85e9BPe4mXgUmGsbm82C_t_o2BXXFM6Gc_JNjUvNDkfoYBrBLjkE-tUg77efYD3mxIiYJx1MzXTe895aAjIvstLd4xWNyR53EZNdrtTIFF2Y-aTkiJGazxH1W89_1BYcAxRR42T5bR71teXLCpAv5NQEZ1ZbgS9D18XYlQkqGoMtRU4nl51Q5SImwTkDHlK1BXWTsjACkD4Y-S4V-i9ZOSvWUMbAfvtDiG9R3iuQQcsoViMOyTjvzP36pc0T6hWZU2rw9T4inoCtD--yFfSwe9DP2hN76RDlMRxb0JpYv5CkS4NNVUzWGmxB0OfHOA5550lnGSUzL73KmLqkXUDvpmc7afz48_BKKgXS0X-2eq6il0cpelLjis0WYxVMuQYeOevtloFkGxXyzE9vq-EzidlN-xFKYjl3tQU_Psrw7GGKbxXaq22lTmfRGVFTjMEyguB1-wB8INXf7THLYXcpR_o7MVHXR3BzY3k5p4aNZ3KxIo_F12TZINpjI-06lBypjmIKFkmHAs4Pz3tezXOg4kNOE2uL3fMk5EHq09MzDtRJ4i_3sA85iS8pM_vAW-3X9kbEa3sqtsZ0xslE-KTlcxECjLjM7eH2lcZcXw_H2AdVdgRHiGxBlgKk6WpSCbJvgORJzRFnuz7SqmMaNPn1EdRRbBpGcweA1hy1P7Jh5xkgwXFZ0mX4ZfRtugaA3_tnFUGJdpuJyKhT0Sd9ZfYMqKxI83o0eq6x__l6kusJREKRejn35mW3PQDN23iZ_1G00?></g></svg>