<svg xmlns="http://www.w3.org/2000/svg" xmlns:xlink="http://www.w3.org/1999/xlink" contentStyleType="text/css" data-diagram-type="CLASS" height="365px" preserveAspectRatio="none" style="width:1168px;height:365px;background:#FFFFFF;" version="1.1" viewBox="0 0 1168 365" width="1168px" zoomAndPan="magnify"><?plantuml 1.2026.3?><defs/><g><g class="title" data-source-line="8"><text fill="#000000" font-family="sans-serif" font-size="14" font-weight="700" lengthAdjust="spacing" textLength="321.2139" x="420.1084" y="23.5352">Agent session bootstrap &#8212; domain (current)</text></g><!--class SessionContext--><g class="entity" data-qualified-name="SessionContext" data-source-line="10" id="ent0002"><rect fill="#F1F1F1" height="122.5742" rx="2.5" ry="2.5" style="stroke:#181818;stroke-width:0.5;" width="224.7754" x="371.25" y="44.4883"/><ellipse cx="426.9971" cy="64.7988" fill="#ADD1B2" rx="11" ry="11" style="stroke:#181818;stroke-width:1;"/><path d="M429.4702,70.9419 Q428.8892,71.2407 428.25,71.3901 Q427.6108,71.5396 426.9053,71.5396 Q424.3984,71.5396 423.0786,69.8877 Q421.7588,68.2358 421.7588,65.1147 Q421.7588,61.9854 423.0786,60.3335 Q424.3984,58.6816 426.9053,58.6816 Q427.6108,58.6816 428.2583,58.8311 Q428.9058,58.9805 429.4702,59.2793 L429.4702,62.002 Q428.8394,61.4209 428.2458,61.1511 Q427.6523,60.8813 427.0215,60.8813 Q425.6768,60.8813 424.9919,61.948 Q424.3071,63.0146 424.3071,65.1147 Q424.3071,67.2065 424.9919,68.2732 Q425.6768,69.3398 427.0215,69.3398 Q427.6523,69.3398 428.2458,69.0701 Q428.8394,68.8003 429.4702,68.2192 Z " fill="#000000"/><text fill="#000000" font-family="sans-serif" font-size="12" font-style="italic" lengthAdjust="spacing" textLength="43.0137" x="478.3809" y="61.0898">&#171;value&#187;</text><text fill="#000000" font-family="sans-serif" font-size="14" lengthAdjust="spacing" textLength="104.7813" x="447.4971" y="77.1563">SessionContext</text><line style="stroke:#181818;stroke-width:0.5;" x1="372.25" x2="595.0254" y1="85.1094" y2="85.1094"/><g data-visibility-modifier="PUBLIC_FIELD"><ellipse cx="382.25" cy="98.8535" fill="none" rx="3" ry="3" style="stroke:#038048;stroke-width:1;"/></g><text fill="#000000" font-family="sans-serif" font-size="14" lengthAdjust="spacing" textLength="102.5801" x="391.25" y="102.6445">toc : TocEntry[]</text><g data-visibility-modifier="PUBLIC_FIELD"><ellipse cx="382.25" cy="115.3418" fill="none" rx="3" ry="3" style="stroke:#038048;stroke-width:1;"/></g><text fill="#000000" font-family="sans-serif" font-size="14" lengthAdjust="spacing" textLength="102.0674" x="391.25" y="119.1328">fresh : boolean</text><g data-visibility-modifier="PUBLIC_FIELD"><ellipse cx="382.25" cy="131.8301" fill="none" rx="3" ry="3" style="stroke:#038048;stroke-width:1;"/></g><text fill="#000000" font-family="sans-serif" font-size="14" lengthAdjust="spacing" textLength="198.7754" x="391.25" y="135.6211">source_revision : String [0..1]</text><g data-visibility-modifier="PUBLIC_FIELD"><ellipse cx="382.25" cy="148.3184" fill="none" rx="3" ry="3" style="stroke:#038048;stroke-width:1;"/></g><text fill="#000000" font-family="sans-serif" font-size="14" lengthAdjust="spacing" textLength="110.6123" x="391.25" y="152.1094">drift : MapDrift[]</text><line style="stroke:#181818;stroke-width:0.5;" x1="372.25" x2="595.0254" y1="159.0625" y2="159.0625"/></g><!--class TocEntry--><g class="entity" data-qualified-name="TocEntry" data-source-line="17" id="ent0003"><rect fill="#F1F1F1" height="106.0859" rx="2.5" ry="2.5" style="stroke:#181818;stroke-width:0.5;" width="156.1221" x="592.57" y="244.0583"/><ellipse cx="636.7945" cy="264.3688" fill="#ADD1B2" rx="11" ry="11" style="stroke:#181818;stroke-width:1;"/><path d="M639.2677,270.5119 Q638.6866,270.8107 638.0474,270.9601 Q637.4083,271.1096 636.7027,271.1096 Q634.1959,271.1096 632.8761,269.4577 Q631.5562,267.8058 631.5562,264.6847 Q631.5562,261.5554 632.8761,259.9035 Q634.1959,258.2516 636.7027,258.2516 Q637.4083,258.2516 638.0557,258.4011 Q638.7032,258.5505 639.2677,258.8493 L639.2677,261.572 Q638.6368,260.9909 638.0433,260.7211 Q637.4498,260.4513 636.8189,260.4513 Q635.4742,260.4513 634.7894,261.518 Q634.1046,262.5846 634.1046,264.6847 Q634.1046,266.7765 634.7894,267.8432 Q635.4742,268.9098 636.8189,268.9098 Q637.4498,268.9098 638.0433,268.6401 Q638.6368,268.3703 639.2677,267.7892 Z " fill="#000000"/><text fill="#000000" font-family="sans-serif" font-size="12" font-style="italic" lengthAdjust="spacing" textLength="43.0137" x="665.3714" y="260.6598">&#171;value&#187;</text><text fill="#000000" font-family="sans-serif" font-size="14" lengthAdjust="spacing" textLength="59.1787" x="657.2888" y="276.7263">TocEntry</text><line style="stroke:#181818;stroke-width:0.5;" x1="593.57" x2="747.6921" y1="284.6794" y2="284.6794"/><g data-visibility-modifier="PUBLIC_FIELD"><ellipse cx="603.57" cy="298.4235" fill="none" rx="3" ry="3" style="stroke:#038048;stroke-width:1;"/></g><text fill="#000000" font-family="sans-serif" font-size="14" lengthAdjust="spacing" textLength="82.9883" x="612.57" y="302.2145">kind : String</text><g data-visibility-modifier="PUBLIC_FIELD"><ellipse cx="603.57" cy="314.9118" fill="none" rx="3" ry="3" style="stroke:#038048;stroke-width:1;"/></g><text fill="#000000" font-family="sans-serif" font-size="14" lengthAdjust="spacing" textLength="130.1221" x="612.57" y="318.7028">concept_count : int</text><g data-visibility-modifier="PUBLIC_FIELD"><ellipse cx="603.57" cy="331.4001" fill="none" rx="3" ry="3" style="stroke:#038048;stroke-width:1;"/></g><text fill="#000000" font-family="sans-serif" font-size="14" lengthAdjust="spacing" textLength="89.5029" x="612.57" y="335.1911">id_count : int</text><line style="stroke:#181818;stroke-width:0.5;" x1="593.57" x2="747.6921" y1="342.1442" y2="342.1442"/></g><!--class MapBaseline--><g class="entity" data-qualified-name="MapBaseline" data-source-line="23" id="ent0004"><rect fill="#F1F1F1" height="89.5977" rx="2.5" ry="2.5" style="stroke:#181818;stroke-width:0.5;" width="193.2686" x="7" y="252.3083"/><ellipse cx="57.4321" cy="272.6188" fill="#ADD1B2" rx="11" ry="11" style="stroke:#181818;stroke-width:1;"/><path d="M59.9053,278.7619 Q59.3242,279.0607 58.6851,279.2101 Q58.0459,279.3596 57.3403,279.3596 Q54.8335,279.3596 53.5137,277.7077 Q52.1938,276.0558 52.1938,272.9347 Q52.1938,269.8054 53.5137,268.1535 Q54.8335,266.5016 57.3403,266.5016 Q58.0459,266.5016 58.6934,266.6511 Q59.3408,266.8005 59.9053,267.0993 L59.9053,269.822 Q59.2744,269.2409 58.6809,268.9711 Q58.0874,268.7013 57.4565,268.7013 Q56.1118,268.7013 55.427,269.768 Q54.7422,270.8346 54.7422,272.9347 Q54.7422,275.0265 55.427,276.0932 Q56.1118,277.1598 57.4565,277.1598 Q58.0874,277.1598 58.6809,276.8901 Q59.2744,276.6203 59.9053,276.0392 Z " fill="#000000"/><text fill="#000000" font-family="sans-serif" font-size="12" font-style="italic" lengthAdjust="spacing" textLength="43.0137" x="98.3774" y="268.9098">&#171;value&#187;</text><text fill="#000000" font-family="sans-serif" font-size="14" lengthAdjust="spacing" textLength="83.9043" x="77.9321" y="284.9763">MapBaseline</text><line style="stroke:#181818;stroke-width:0.5;" x1="8" x2="199.2686" y1="292.9294" y2="292.9294"/><g data-visibility-modifier="PUBLIC_FIELD"><ellipse cx="18" cy="306.6735" fill="none" rx="3" ry="3" style="stroke:#038048;stroke-width:1;"/></g><text fill="#000000" font-family="sans-serif" font-size="14" lengthAdjust="spacing" textLength="159.5508" x="27" y="310.4645">explicit : Revision [0..1]</text><line style="stroke:#181818;stroke-width:0.5;" x1="8" x2="199.2686" y1="317.4177" y2="317.4177"/><g data-visibility-modifier="PUBLIC_METHOD"><ellipse cx="18" cy="331.1618" fill="#84BE84" rx="3" ry="3" style="stroke:#038048;stroke-width:1;"/></g><text fill="#000000" font-family="sans-serif" font-size="14" lengthAdjust="spacing" textLength="167.2686" x="27" y="334.9528">resolve() : Revision [0..1]</text></g><!--class SessionHook--><g class="entity" data-qualified-name="SessionHook" data-source-line="28" id="ent0005"><rect fill="#F1F1F1" height="106.0859" rx="2.5" ry="2.5" style="stroke:#181818;stroke-width:0.5;" width="203.3311" x="866.97" y="52.7283"/><ellipse cx="921.0764" cy="73.0388" fill="#ADD1B2" rx="11" ry="11" style="stroke:#181818;stroke-width:1;"/><path d="M923.5496,79.1819 Q922.9685,79.4807 922.3294,79.6301 Q921.6902,79.7796 920.9846,79.7796 Q918.4778,79.7796 917.158,78.1277 Q915.8382,76.4758 915.8382,73.3547 Q915.8382,70.2254 917.158,68.5735 Q918.4778,66.9216 920.9846,66.9216 Q921.6902,66.9216 922.3377,67.0711 Q922.9851,67.2205 923.5496,67.5193 L923.5496,70.242 Q922.9187,69.6609 922.3252,69.3911 Q921.7317,69.1213 921.1009,69.1213 Q919.7561,69.1213 919.0713,70.188 Q918.3865,71.2546 918.3865,73.3547 Q918.3865,75.4465 919.0713,76.5132 Q919.7561,77.5798 921.1009,77.5798 Q921.7317,77.5798 922.3252,77.3101 Q922.9187,77.0403 923.5496,76.4592 Z " fill="#000000"/><text fill="#000000" font-family="sans-serif" font-size="12" font-style="italic" lengthAdjust="spacing" textLength="43.0137" x="963.3787" y="69.3298">&#171;value&#187;</text><text fill="#000000" font-family="sans-serif" font-size="14" lengthAdjust="spacing" textLength="86.6182" x="941.5764" y="85.3963">SessionHook</text><line style="stroke:#181818;stroke-width:0.5;" x1="867.97" x2="1069.3011" y1="93.3494" y2="93.3494"/><g data-visibility-modifier="PUBLIC_FIELD"><ellipse cx="877.97" cy="107.0935" fill="none" rx="3" ry="3" style="stroke:#038048;stroke-width:1;"/></g><text fill="#000000" font-family="sans-serif" font-size="14" lengthAdjust="spacing" textLength="142.9395" x="886.97" y="110.8845">event : "SessionStart"</text><g data-visibility-modifier="PUBLIC_FIELD"><ellipse cx="877.97" cy="123.5818" fill="none" rx="3" ry="3" style="stroke:#038048;stroke-width:1;"/></g><text fill="#000000" font-family="sans-serif" font-size="14" lengthAdjust="spacing" textLength="120.0527" x="886.97" y="127.3728">type : "command"</text><g data-visibility-modifier="PUBLIC_FIELD"><ellipse cx="877.97" cy="140.0701" fill="none" rx="3" ry="3" style="stroke:#038048;stroke-width:1;"/></g><text fill="#000000" font-family="sans-serif" font-size="14" lengthAdjust="spacing" textLength="177.3311" x="886.97" y="143.8611">command : "mdd context"</text><line style="stroke:#181818;stroke-width:0.5;" x1="867.97" x2="1069.3011" y1="150.8142" y2="150.8142"/></g><g class="entity" data-qualified-name="GMN8" data-source-line="38" id="ent0009"><path d="M235.63,261.4883 L235.63,293.1083 L200.63,297.1083 L235.63,301.1083 L235.63,332.7305 A0,0 0 0 0 235.63,332.7305 L557.6295,332.7305 A0,0 0 0 0 557.6295,332.7305 L557.6295,271.4883 L547.6295,261.4883 L235.63,261.4883 A0,0 0 0 0 235.63,261.4883" fill="#FEFFDD" style="stroke:#181818;stroke-width:0.5;"/><path d="M547.6295,261.4883 L547.6295,271.4883 L557.6295,271.4883 L547.6295,261.4883" fill="#FEFFDD" style="stroke:#181818;stroke-width:0.5;"/><text fill="#000000" font-family="sans-serif" font-size="13" lengthAdjust="spacing" textLength="292.646" x="241.63" y="279.0566">resolve() = read_map_source_revision: explicit</text><text fill="#000000" font-family="sans-serif" font-size="13" lengthAdjust="spacing" textLength="266.1255" x="241.63" y="294.3672">source_revision, else derive_map_baseline</text><text fill="#000000" font-family="sans-serif" font-size="13" lengthAdjust="spacing" textLength="300.9995" x="241.63" y="309.6777">(git log over .mdd/models/current). None when</text><text fill="#000000" font-family="sans-serif" font-size="13" lengthAdjust="spacing" textLength="196.3394" x="241.63" y="324.9883">no whole-map manifest exists.</text></g><g class="entity" data-qualified-name="GMN11" data-source-line="45" id="ent0012"><path d="M783.83,276.7983 L783.83,317.4194 A0,0 0 0 0 783.83,317.4194 L1153.4306,317.4194 A0,0 0 0 0 1153.4306,317.4194 L1153.4306,286.7983 L1143.4306,276.7983 L972.63,276.7983 L968.63,159.2583 L964.63,276.7983 L783.83,276.7983 A0,0 0 0 0 783.83,276.7983" fill="#FEFFDD" style="stroke:#181818;stroke-width:0.5;"/><path d="M1143.4306,276.7983 L1143.4306,286.7983 L1153.4306,286.7983 L1143.4306,276.7983" fill="#FEFFDD" style="stroke:#181818;stroke-width:0.5;"/><text fill="#000000" font-family="sans-serif" font-size="13" lengthAdjust="spacing" textLength="287.4028" x="789.83" y="294.3666">upsert_session_hook / strip_session_hook on</text><text fill="#000000" font-family="sans-serif" font-size="13" lengthAdjust="spacing" textLength="348.6006" x="789.83" y="309.6772">.claude/settings.json. Idempotent, keyed by command.</text></g><!--reverse link SessionContext to TocEntry--><g class="link" data-entity-1="ent0002" data-entity-2="ent0003" data-link-type="aggregation" data-source-line="34" id="lnk6"><path codeLine="34" d="M552.0012,175.9973 C576.2512,200.5573 595.55,220.0783 618.9,243.7183" fill="none" id="SessionContext-backto-TocEntry" style="stroke:#181818;stroke-width:1;"/><polygon fill="none" points="543.57,167.4583,544.9393,174.5382,552.0012,175.9973,550.6319,168.9174,543.57,167.4583" style="stroke:#181818;stroke-width:1;"/><text fill="#000000" font-family="sans-serif" font-size="13" lengthAdjust="spacing" textLength="8.2202" x="541.6996" y="187.6105">1</text><text fill="#000000" font-family="sans-serif" font-size="13" lengthAdjust="spacing" textLength="6.2651" x="605.5633" y="233.1264">*</text></g><!--link SessionContext to MapBaseline--><g class="link" data-entity-1="ent0002" data-entity-2="ent0004" data-link-type="dependency" data-source-line="35" id="lnk7"><path codeLine="35" d="M370.91,162.9383 C313.91,191.3383 251.09,222.6319 197.86,249.1619" fill="none" id="SessionContext-to-MapBaseline" style="stroke:#181818;stroke-width:1;stroke-dasharray:7,7;"/><polygon fill="#181818" points="192.49,251.8383,202.3293,251.4036,196.965,249.6079,198.7607,244.2437,192.49,251.8383" style="stroke:#181818;stroke-width:1;"/><text fill="#000000" font-family="sans-serif" font-size="13" lengthAdjust="spacing" textLength="158.7168" x="294.63" y="210.6266">freshness via map_status</text></g><?plantuml-src VLNRRjj647tNLmm8595QaRA1Fj6E4DyA6wsjm3AA0aaXK-H8sfZS9NQNijN0G3-YNzWlwTabAKkCqWU2qkvSpioSENn77qJMlvpSXjEhwVHcSXTUJEuUhlvu6FJUqOUCJNheSaZ1UILoIuaXksAQiZ52oGibBRzOCbPNgIKXATM9PJCgiYnCbUQHqUae5_D8cvY-abLfJBzpUlgWqYjfzMOyf8LciuffhbG-9ACgdV9Cyrgu-35DIeltwTHg8PUmphHOs3h6RL9UkdzZUese3KZ28C-Ja5bCjTEGKYLJBkqiLPM4RsN4NpmaaUqTk23tR2ijEQFvXZvgzOLJ6yUcBXN6ljOJNxy7FV9WHXtCj12SPuOIpSXS2eHRQ5KGu4vjOYjppwNIw9doaUPQy88IcT4ZcaP5KeR6cpsIv3LhoeH9bfev2lo4ck7TddqCpy-cLx_Tt5tjJsxtPdTisu8q9zaCUMPTu3-zsMIinPgzrJmnd0l9_p_TYCuayKkPYrHOaag6N9Hsqnse2nB1VOJ8UAHOiB7HfiZfMKXpGWejqS_2C1r2e2jfw7691BbQKdXCORXGkaZi-n-kyRk9h3BEpIYjj6Pf7wdlkfmdnc8QHG5Vgwfq1MBuzZTcw3AQd1Hc4D6TsaAa5YA5Ovm3Gl-N-wlfzH0LKWlBkrWV4UHxri9QbZLDjiZnMeH58gJ5OqWj5YsQbJ1MwSt-TDljkvvCVZsyb-u6qtr04ZSDu4oMO5gpbo0Q6CP-8R1rcv9Zdmyq6xO_OleSECOrlFuSq2jwXQdbRiPnt6IQkKopYydjxTdT9KgjIiFQpjgjM2drH0Nh9HiIJW4ikfVcIPM17MmjkcAYBmQJV-9DlLbDVkgB3DaKccK79qv2HBaVLdEXreZBBqbgyusBx_nAqC2TWbzkkPPQ0TC8uS6V9hRt1tTikeBbgBQPhH8pQvExxNGJgcqSVoyTt-JUwhjPyZwclf323ZoEdOLoE3jsQSw97DHZlQX95XfKJ9boF21FKm9z2OC30HjlfuCMlG3t-ka6GUZewFZdmT1jyDojSjIpmkBux3jU__xzJvkYtv1xqEjX8iPqLVlqT9ta5O_7zBL7s7weCyLR9Vtqfp_qIaUrFgCYVzPTwbPgwTDH51tNVbuRSTEgDCAzjZYsOjr5u7Hx6ysVx6atha0mVzwgTtEq3Orqv-tITQDlvIc6qZVGTn2ZK9MlkJyuSF_QQU6rc_4tyTVi0GMxMnZKhSKAkfk6Va5JMyr5dEyiOk2ITIOL70Ua8731Zy6sULsRA1hlLH_NeyEg65gBXBpY-ozBhoUnTQJ5ScKXHRjUmFNMXlVqlKz5lEqb73ftGuBy7jHlsFPRyLRkqtP0hxsO0ltpYXtN8BFFAn0lt1DZVe5ecgZ7Q9uhfIbehgp5XnOLxKm9GGv9rkYGu2YNyg1wHNIp5QlXDrBsXkG_?></g></svg>