<svg xmlns="http://www.w3.org/2000/svg" xmlns:xlink="http://www.w3.org/1999/xlink" contentStyleType="text/css" data-diagram-type="CLASS" height="705px" preserveAspectRatio="none" style="width:338px;height:705px;background:#FFFFFF;" version="1.1" viewBox="0 0 338 705" width="338px" zoomAndPan="magnify"><?plantuml 1.2026.3?><defs/><g><g class="title" data-source-line="8"><text fill="#000000" font-family="sans-serif" font-size="14" font-weight="700" lengthAdjust="spacing" textLength="264.8857" x="33.1191" y="23.5352">MDD traceability &#8212; domain (current)</text></g><!--class SymbolSpan--><g class="entity" data-qualified-name="SymbolSpan" data-source-line="10" id="ent0002"><rect fill="#F1F1F1" height="130.4414" rx="2.5" ry="2.5" style="stroke:#181818;stroke-width:0.5;" width="137.6377" x="96.24" y="442.8883"/><ellipse cx="121.8075" cy="458.8883" fill="#ADD1B2" rx="11" ry="11" style="stroke:#181818;stroke-width:1;"/><path d="M124.2807,465.0313 Q123.6996,465.3302 123.0605,465.4796 Q122.4213,465.629 121.7157,465.629 Q119.2089,465.629 117.8891,463.9771 Q116.5692,462.3253 116.5692,459.2042 Q116.5692,456.0748 117.8891,454.4229 Q119.2089,452.7711 121.7157,452.7711 Q122.4213,452.7711 123.0688,452.9205 Q123.7162,453.0699 124.2807,453.3688 L124.2807,456.0914 Q123.6498,455.5104 123.0563,455.2406 Q122.4628,454.9708 121.8319,454.9708 Q120.4872,454.9708 119.8024,456.0375 Q119.1176,457.1041 119.1176,459.2042 Q119.1176,461.296 119.8024,462.3626 Q120.4872,463.4293 121.8319,463.4293 Q122.4628,463.4293 123.0563,463.1595 Q123.6498,462.8897 124.2807,462.3087 Z " fill="#000000"/><text fill="#000000" font-family="sans-serif" font-size="14" lengthAdjust="spacing" textLength="82.1543" x="138.1559" y="464.1793">SymbolSpan</text><line style="stroke:#181818;stroke-width:0.5;" x1="97.24" x2="232.8777" y1="474.8883" y2="474.8883"/><g data-visibility-modifier="PUBLIC_FIELD"><ellipse cx="107.24" cy="488.6324" fill="none" rx="3" ry="3" style="stroke:#038048;stroke-width:1;"/></g><text fill="#000000" font-family="sans-serif" font-size="14" lengthAdjust="spacing" textLength="83.7266" x="116.24" y="492.4234">path : String</text><g data-visibility-modifier="PUBLIC_FIELD"><ellipse cx="107.24" cy="505.1207" fill="none" rx="3" ry="3" style="stroke:#038048;stroke-width:1;"/></g><text fill="#000000" font-family="sans-serif" font-size="14" lengthAdjust="spacing" textLength="102.2383" x="116.24" y="508.9117">symbol : String</text><g data-visibility-modifier="PUBLIC_FIELD"><ellipse cx="107.24" cy="521.609" fill="none" rx="3" ry="3" style="stroke:#038048;stroke-width:1;"/></g><text fill="#000000" font-family="sans-serif" font-size="14" lengthAdjust="spacing" textLength="111.6377" x="116.24" y="525.4">line_start : usize</text><g data-visibility-modifier="PUBLIC_FIELD"><ellipse cx="107.24" cy="538.0973" fill="none" rx="3" ry="3" style="stroke:#038048;stroke-width:1;"/></g><text fill="#000000" font-family="sans-serif" font-size="14" lengthAdjust="spacing" textLength="105.8682" x="116.24" y="541.8883">line_end : usize</text><g data-visibility-modifier="PUBLIC_FIELD"><ellipse cx="107.24" cy="554.5855" fill="none" rx="3" ry="3" style="stroke:#038048;stroke-width:1;"/></g><text fill="#000000" font-family="sans-serif" font-size="14" lengthAdjust="spacing" textLength="82.9883" x="116.24" y="558.3766">kind : String</text><line style="stroke:#181818;stroke-width:0.5;" x1="97.24" x2="232.8777" y1="565.3297" y2="565.3297"/></g><!--class SourceLink--><g class="entity" data-qualified-name="SourceLink" data-source-line="18" id="ent0003"><rect fill="#F1F1F1" height="97.4648" rx="2.5" ry="2.5" style="stroke:#181818;stroke-width:0.5;" width="196.7549" x="66.68" y="268.4183"/><ellipse cx="123.8524" cy="284.4183" fill="#ADD1B2" rx="11" ry="11" style="stroke:#181818;stroke-width:1;"/><path d="M126.3255,290.5613 Q125.7445,290.8602 125.1053,291.0096 Q124.4661,291.159 123.7606,291.159 Q121.2537,291.159 119.9339,289.5071 Q118.6141,287.8553 118.6141,284.7342 Q118.6141,281.6048 119.9339,279.9529 Q121.2537,278.3011 123.7606,278.3011 Q124.4661,278.3011 125.1136,278.4505 Q125.7611,278.5999 126.3255,278.8988 L126.3255,281.6214 Q125.6946,281.0404 125.1011,280.7706 Q124.5076,280.5008 123.8768,280.5008 Q122.5321,280.5008 121.8472,281.5675 Q121.1624,282.6341 121.1624,284.7342 Q121.1624,286.826 121.8472,287.8926 Q122.5321,288.9593 123.8768,288.9593 Q124.5076,288.9593 125.1011,288.6895 Q125.6946,288.4197 126.3255,287.8387 Z " fill="#000000"/><text fill="#000000" font-family="sans-serif" font-size="14" lengthAdjust="spacing" textLength="73.9102" x="144.3524" y="289.7093">SourceLink</text><line style="stroke:#181818;stroke-width:0.5;" x1="67.68" x2="262.4349" y1="300.4183" y2="300.4183"/><g data-visibility-modifier="PUBLIC_FIELD"><ellipse cx="77.68" cy="314.1624" fill="none" rx="3" ry="3" style="stroke:#038048;stroke-width:1;"/></g><text fill="#000000" font-family="sans-serif" font-size="14" lengthAdjust="spacing" textLength="115.4453" x="86.68" y="317.9534">model_id : String</text><g data-visibility-modifier="PUBLIC_FIELD"><ellipse cx="77.68" cy="330.6507" fill="none" rx="3" ry="3" style="stroke:#038048;stroke-width:1;"/></g><text fill="#000000" font-family="sans-serif" font-size="14" lengthAdjust="spacing" textLength="83.7266" x="86.68" y="334.4417">path : String</text><g data-visibility-modifier="PUBLIC_FIELD"><ellipse cx="77.68" cy="347.139" fill="none" rx="3" ry="3" style="stroke:#038048;stroke-width:1;"/></g><text fill="#000000" font-family="sans-serif" font-size="14" lengthAdjust="spacing" textLength="170.7549" x="86.68" y="350.93">symbol : Option&lt;String&gt;</text><line style="stroke:#181818;stroke-width:0.5;" x1="67.68" x2="262.4349" y1="357.8831" y2="357.8831"/></g><!--class TraceabilityReport--><g class="entity" data-qualified-name="TraceabilityReport" data-source-line="24" id="ent0004"><rect fill="#F1F1F1" height="146.9297" rx="2.5" ry="2.5" style="stroke:#181818;stroke-width:0.5;" width="316.124" x="7" y="44.4883"/><ellipse cx="99.0391" cy="60.4883" fill="#ADD1B2" rx="11" ry="11" style="stroke:#181818;stroke-width:1;"/><path d="M101.5122,66.6313 Q100.9312,66.9302 100.292,67.0796 Q99.6528,67.229 98.9473,67.229 Q96.4404,67.229 95.1206,65.5771 Q93.8008,63.9253 93.8008,60.8042 Q93.8008,57.6748 95.1206,56.0229 Q96.4404,54.3711 98.9473,54.3711 Q99.6528,54.3711 100.3003,54.5205 Q100.9478,54.6699 101.5122,54.9688 L101.5122,57.6914 Q100.8813,57.1104 100.2878,56.8406 Q99.6943,56.5708 99.0635,56.5708 Q97.7188,56.5708 97.0339,57.6375 Q96.3491,58.7041 96.3491,60.8042 Q96.3491,62.896 97.0339,63.9626 Q97.7188,65.0293 99.0635,65.0293 Q99.6943,65.0293 100.2878,64.7595 Q100.8813,64.4897 101.5122,63.9087 Z " fill="#000000"/><text fill="#000000" font-family="sans-serif" font-size="14" lengthAdjust="spacing" textLength="123.5459" x="119.5391" y="65.7793">TraceabilityReport</text><line style="stroke:#181818;stroke-width:0.5;" x1="8" x2="322.124" y1="76.4883" y2="76.4883"/><g data-visibility-modifier="PUBLIC_FIELD"><ellipse cx="18" cy="90.2324" fill="none" rx="3" ry="3" style="stroke:#038048;stroke-width:1;"/></g><text fill="#000000" font-family="sans-serif" font-size="14" lengthAdjust="spacing" textLength="101.8555" x="27" y="94.0234">matched : bool</text><g data-visibility-modifier="PUBLIC_FIELD"><ellipse cx="18" cy="106.7207" fill="none" rx="3" ry="3" style="stroke:#038048;stroke-width:1;"/></g><text fill="#000000" font-family="sans-serif" font-size="14" lengthAdjust="spacing" textLength="126.6357" x="27" y="110.5117">mode : ParityMode</text><g data-visibility-modifier="PUBLIC_FIELD"><ellipse cx="18" cy="123.209" fill="none" rx="3" ry="3" style="stroke:#038048;stroke-width:1;"/></g><text fill="#000000" font-family="sans-serif" font-size="14" lengthAdjust="spacing" textLength="84.7383" x="27" y="127">base : String</text><g data-visibility-modifier="PUBLIC_FIELD"><ellipse cx="18" cy="139.6973" fill="none" rx="3" ry="3" style="stroke:#038048;stroke-width:1;"/></g><text fill="#000000" font-family="sans-serif" font-size="14" lengthAdjust="spacing" textLength="248.1924" x="27" y="143.4883">forward_errors : Vec&lt;ForwardError&gt;</text><g data-visibility-modifier="PUBLIC_FIELD"><ellipse cx="18" cy="156.1855" fill="none" rx="3" ry="3" style="stroke:#038048;stroke-width:1;"/></g><text fill="#000000" font-family="sans-serif" font-size="14" lengthAdjust="spacing" textLength="216.501" x="27" y="159.9766">reverse_bucket_a : Vec&lt;String&gt;</text><g data-visibility-modifier="PUBLIC_FIELD"><ellipse cx="18" cy="172.6738" fill="none" rx="3" ry="3" style="stroke:#038048;stroke-width:1;"/></g><text fill="#000000" font-family="sans-serif" font-size="14" lengthAdjust="spacing" textLength="290.124" x="27" y="176.4648">reverse_bucket_b : Vec&lt;ReverseViolation&gt;</text><line style="stroke:#181818;stroke-width:0.5;" x1="8" x2="322.124" y1="183.418" y2="183.418"/></g><g class="entity" data-qualified-name="GMN7" data-source-line="37" id="ent0008"><path d="M17.61,634.3283 L17.61,690.2599 A0,0 0 0 0 17.61,690.2599 L312.5177,690.2599 A0,0 0 0 0 312.5177,690.2599 L312.5177,644.3283 L302.5177,634.3283 L169.06,634.3283 L165.06,573.6483 L161.06,634.3283 L17.61,634.3283 A0,0 0 0 0 17.61,634.3283" fill="#FEFFDD" style="stroke:#181818;stroke-width:0.5;"/><path d="M302.5177,634.3283 L302.5177,644.3283 L312.5177,644.3283 L302.5177,634.3283" fill="#FEFFDD" style="stroke:#181818;stroke-width:0.5;"/><text fill="#000000" font-family="sans-serif" font-size="13" lengthAdjust="spacing" textLength="243.1533" x="23.61" y="651.8966">Built by syn::parse_file + proc-macro2</text><text fill="#000000" font-family="sans-serif" font-size="13" lengthAdjust="spacing" textLength="273.9077" x="23.61" y="667.2072">span-locations; a changed line maps to the</text><text fill="#000000" font-family="sans-serif" font-size="13" lengthAdjust="spacing" textLength="185.707" x="23.61" y="682.5177">innermost span containing it.</text></g><!--link SourceLink to SymbolSpan--><g class="link" data-entity-1="ent0003" data-entity-2="ent0002" data-link-type="dependency" data-source-line="33" id="lnk5"><path codeLine="33" d="M165.06,366.3183 C165.06,389.4983 165.06,411.6283 165.06,436.6183" fill="none" id="SourceLink-to-SymbolSpan" style="stroke:#181818;stroke-width:1;stroke-dasharray:7,7;"/><polygon fill="#181818" points="165.06,442.6183,169.06,433.6183,165.06,437.6183,161.06,433.6183,165.06,442.6183" style="stroke:#181818;stroke-width:1;"/><polygon fill="#000000" points="170.06,409.5436,172.9989,400.4985,167.1211,400.4985,170.06,409.5436" style="stroke:#000000;stroke-width:1;"/><text fill="#000000" font-family="sans-serif" font-size="13" lengthAdjust="spacing" textLength="68.4912" x="179.06" y="409.4566">resolves to</text><text fill="#000000" font-family="sans-serif" font-size="13" lengthAdjust="spacing" textLength="8.2202" x="156.5376" y="386.5222">1</text><text fill="#000000" font-family="sans-serif" font-size="13" lengthAdjust="spacing" textLength="24.667" x="139.7841" y="432.2203">0..1</text></g><!--reverse link TraceabilityReport to SourceLink--><g class="link" data-entity-1="ent0004" data-entity-2="ent0003" data-link-type="aggregation" data-source-line="34" id="lnk6"><path codeLine="34" d="M165.06,203.8283 C165.06,229.2783 165.06,245.1883 165.06,268.1083" fill="none" id="TraceabilityReport-backto-SourceLink" style="stroke:#181818;stroke-width:1;"/><polygon fill="none" points="165.06,191.8283,161.06,197.8283,165.06,203.8283,169.06,197.8283,165.06,191.8283" style="stroke:#181818;stroke-width:1;"/><polygon fill="#000000" points="170.06,235.0736,172.9989,226.0285,167.1211,226.0285,170.06,235.0736" style="stroke:#000000;stroke-width:1;"/><text fill="#000000" font-family="sans-serif" font-size="13" lengthAdjust="spacing" textLength="45.4556" x="179.06" y="234.9866">verifies</text><text fill="#000000" font-family="sans-serif" font-size="13" lengthAdjust="spacing" textLength="8.2202" x="156.7012" y="211.9127">1</text><text fill="#000000" font-family="sans-serif" font-size="13" lengthAdjust="spacing" textLength="6.2651" x="158.6571" y="257.7472">*</text></g><?plantuml-src VLNDRkCs4BxxAGQ-hDsLv6nxKzfWatKA58tZm7O3z2HGrDWc8f42INdZBXReG_G9zqaw92L7yhgz21A7y_TztupUmKTHJERBHRp-St6tV8ZNJxUFqz4x-5YWuUU62CPtZIWjC0DMCuui5wMmnpHT7wjSbUkQIVW2DRFx28m_Yg0K4ZDZcRRjEyeYWXSX2_WAGWBNpAAPLKKHSwLnPZIVzOCdsi14OuoljT8M2zXgLL6ad0pJf4q3ma2XB9dZ_1YdAKnofX5AP5lOAaq-Y20iLYQ2UzbKQVhCj63IUkiXl9DjSwmnJIkqUrLuawZg4iAtcLw7iYdNLiwCrGstCwHehbvXPvQSPrn9Oyd8hE2pDd02JreL3QVYyoFWgslFPg5oSmtEfQc2KQDHvO40Kutcc15WBp2XGZupNKo1KNQ-PtA7HSPLWGwO0sg318GmMOvxTX3acVaw2-I2Q8IyuIzeuGuE1cwJiQUtPNspklrq7w_kdvQhpP3slgNFUm0UDZs6LkYO8U8hPlaUYTsAQeiWPuQURV4PQgsqIU4P-S-_XhDxTtGJGTj45WhDMBYqjbh8tVVcF9XNuVHPg9AmLlA6v5INZO45gzS4VsDETH7xnYaoO4hXX26720ejjZP48wUv-t9H7EzsZy5DeZ5W2CUaQmz-EUi9iAhj4MuVvz-L6apNv50Mv2caLK252_mSYalwIlVqKfIB5xlaZInGWq_iOHxokLx-iIBQ7dvx_FriYjyCnEQ6kiDNOIm1t36wzkWyEC5zyP7BJ12L_M5EOLaxg3jg2AkTEA04Qbfi1LLN8PCkfjtJaF0ZBmcsIvAcLlYByIYx1A4Oum3mWW46hgHkXTWzi-TZ0rkIE7cqbxA03t4XhIR0jSSk6y3R6B8Bsx4N3KU9A-g2xV1qhUMIrCngjy18KVqGGJq1_a-DrfGuTZgXFLGnsckTYWObeDpH2eI9XmQkhZxyD8tSLELkl9AH5PQE5_FvqElRt_zqKISyf9gEHhna9Ct-vXq1l0zufX0eyYVjYXoSlMrbEc-C-0lVZcb13mxzCZbvVprbxWd6t-j4CypqF_KCrVGM-T9o2HdQ8KWXLwey9QNl9zgqzhYW3t_gLiymwTd8NjX3_jhvAeB1Bhfq9OV_s4Ukdnv6umzZI98R65yb2RtsU4kx4Q61K70pkj2-SrPn3ECVndtSqsxo3BcDfB98m5XB_qUrxMMWiiF-fX-CESeqhPbhO2j8R4IGLZok6DVgHxfew7vSAkvxe9yJwwR4QyFDWg-Ib4sNXPIeAsMiTtC_CaiYTGj0a9gTZbnD_m80?></g></svg>