<svg xmlns="http://www.w3.org/2000/svg" xmlns:xlink="http://www.w3.org/1999/xlink" contentStyleType="text/css" data-diagram-type="CLASS" height="347px" preserveAspectRatio="none" style="width:766px;height:347px;background:#FFFFFF;" version="1.1" viewBox="0 0 766 347" width="766px" zoomAndPan="magnify"><?plantuml 1.2026.3?><defs/><g><g class="title" data-source-line="33"><text fill="#000000" font-family="sans-serif" font-size="14" font-weight="700" lengthAdjust="spacing" textLength="651.3008" x="54.3427" y="23.5352">Viewer domain &#8212; font database + OCL view + PlantUML source &#183; cycle 0012 diff (current)</text></g><!--class OclSubMode--><g class="entity" data-qualified-name="OclSubMode" data-source-line="35" id="ent0002"><rect fill="#F1F1F1" height="80.9766" rx="2.5" ry="2.5" style="stroke:#181818;stroke-width:0.5;" width="116.4033" x="64" y="243.6883"/><ellipse cx="79" cy="259.6883" fill="#EB937F" rx="11" ry="11" style="stroke:#181818;stroke-width:1;"/><path d="M82.6143,266.1883 L74.8945,266.1883 L74.8945,253.7952 L82.6143,253.7952 L82.6143,255.9534 L77.3433,255.9534 L77.3433,258.6263 L82.1162,258.6263 L82.1162,260.7845 L77.3433,260.7845 L77.3433,264.0301 L82.6143,264.0301 Z " fill="#000000"/><text fill="#000000" font-family="sans-serif" font-size="14" lengthAdjust="spacing" textLength="84.4033" x="93" y="264.9793">OclSubMode</text><line style="stroke:#181818;stroke-width:0.5;" x1="65" x2="179.4033" y1="275.6883" y2="275.6883"/><text fill="#000000" font-family="sans-serif" font-size="14" lengthAdjust="spacing" textLength="45.5273" x="70" y="293.2234">Source</text><text fill="#000000" font-family="sans-serif" font-size="14" lengthAdjust="spacing" textLength="57.5244" x="70" y="309.7117">Diagram</text><line style="stroke:#181818;stroke-width:0.5;" x1="65" x2="179.4033" y1="316.6648" y2="316.6648"/></g><!--class SvgRasterizer--><g class="entity" data-qualified-name="SvgRasterizer" data-source-line="40" id="ent0003"><rect fill="#F1F1F1" height="80.9766" rx="2.5" ry="2.5" style="stroke:#181818;stroke-width:0.5;" width="250.6768" x="272.86" y="60.9783"/><ellipse cx="348.1476" cy="76.9783" fill="#ADD1B2" rx="11" ry="11" style="stroke:#181818;stroke-width:1;"/><path d="M350.6207,83.1213 Q350.0397,83.4202 349.4005,83.5696 Q348.7614,83.719 348.0558,83.719 Q345.549,83.719 344.2291,82.0671 Q342.9093,80.4153 342.9093,77.2942 Q342.9093,74.1648 344.2291,72.5129 Q345.549,70.8611 348.0558,70.8611 Q348.7614,70.8611 349.4088,71.0105 Q350.0563,71.1599 350.6207,71.4588 L350.6207,74.1814 Q349.9899,73.6004 349.3964,73.3306 Q348.8029,73.0608 348.172,73.0608 Q346.8273,73.0608 346.1425,74.1275 Q345.4577,75.1941 345.4577,77.2942 Q345.4577,79.386 346.1425,80.4526 Q346.8273,81.5193 348.172,81.5193 Q348.8029,81.5193 349.3964,81.2495 Q349.9899,80.9797 350.6207,80.3987 Z " fill="#000000"/><text fill="#000000" font-family="sans-serif" font-size="14" lengthAdjust="spacing" textLength="91.6016" x="368.6476" y="82.2693">SvgRasterizer</text><line style="stroke:#181818;stroke-width:0.5;" x1="273.86" x2="522.5368" y1="92.9783" y2="92.9783"/><line style="stroke:#181818;stroke-width:0.5;" x1="273.86" x2="522.5368" y1="100.9783" y2="100.9783"/><g data-visibility-modifier="PUBLIC_METHOD"><ellipse cx="283.86" cy="114.7224" fill="#84BE84" rx="3" ry="3" style="stroke:#038048;stroke-width:1;"/></g><text fill="#000000" font-family="sans-serif" font-size="14" lengthAdjust="spacing" textLength="224.6768" x="292.86" y="118.5134">parse_intrinsic_size(bytes) : Vec2</text><g data-visibility-modifier="PUBLIC_METHOD"><ellipse cx="283.86" cy="131.2107" fill="#84BE84" rx="3" ry="3" style="stroke:#038048;stroke-width:1;"/></g><text fill="#000000" font-family="sans-serif" font-size="14" lengthAdjust="spacing" textLength="180.2363" x="292.86" y="135.0017">rebuild(ctx, zoom) : Result</text></g><!--class FontDatabase--><g class="entity" data-qualified-name="FontDatabase" data-source-line="45" id="ent0004"><rect fill="#F1F1F1" height="97.4648" rx="2.5" ry="2.5" style="stroke:#181818;stroke-width:0.5;" width="191.5527" x="302.42" y="235.4483"/><ellipse cx="347.5987" cy="251.4483" fill="#ADD1B2" rx="11" ry="11" style="stroke:#181818;stroke-width:1;"/><path d="M350.0719,257.5913 Q349.4908,257.8902 348.8516,258.0396 Q348.2125,258.189 347.5069,258.189 Q345.0001,258.189 343.6803,256.5371 Q342.3604,254.8853 342.3604,251.7642 Q342.3604,248.6348 343.6803,246.9829 Q345.0001,245.3311 347.5069,245.3311 Q348.2125,245.3311 348.8599,245.4805 Q349.5074,245.6299 350.0719,245.9288 L350.0719,248.6514 Q349.441,248.0704 348.8475,247.8006 Q348.254,247.5308 347.6231,247.5308 Q346.2784,247.5308 345.5936,248.5975 Q344.9088,249.6641 344.9088,251.7642 Q344.9088,253.856 345.5936,254.9226 Q346.2784,255.9893 347.6231,255.9893 Q348.254,255.9893 348.8475,255.7195 Q349.441,255.4497 350.0719,254.8687 Z " fill="#000000"/><text fill="#000000" font-family="sans-serif" font-size="14" lengthAdjust="spacing" textLength="92.6953" x="368.0987" y="256.7393">FontDatabase</text><line style="stroke:#181818;stroke-width:0.5;" x1="303.42" x2="492.9727" y1="267.4483" y2="267.4483"/><g data-visibility-modifier="PUBLIC_FIELD"><ellipse cx="313.42" cy="281.1924" fill="none" rx="3" ry="3" style="stroke:#038048;stroke-width:1;"/></g><text fill="#000000" font-family="sans-serif" font-size="14" lengthAdjust="spacing" textLength="99.832" x="322.42" y="284.9834">fontCount : int</text><g data-visibility-modifier="PUBLIC_FIELD"><ellipse cx="313.42" cy="297.6807" fill="none" rx="3" ry="3" style="stroke:#038048;stroke-width:1;"/></g><text fill="#000000" font-family="sans-serif" font-size="14" lengthAdjust="spacing" textLength="144.4365" x="322.42" y="301.4717">defaultFamily : String</text><line style="stroke:#181818;stroke-width:0.5;" x1="303.42" x2="492.9727" y1="308.4248" y2="308.4248"/><g data-visibility-modifier="PUBLIC_METHOD"><ellipse cx="313.42" cy="322.169" fill="#84BE84" rx="3" ry="3" style="stroke:#038048;stroke-width:1;"/></g><text fill="#000000" font-family="sans-serif" font-size="14" lengthAdjust="spacing" textLength="165.5527" x="322.42" y="325.96">loadSystemFonts() : void</text></g><!--class OclView--><g class="entity" data-qualified-name="OclView" data-source-line="51" id="ent0005"><rect fill="#F1F1F1" height="113.9531" rx="2.5" ry="2.5" style="stroke:#181818;stroke-width:0.5;" width="230.4014" x="7" y="44.4883"/><ellipse cx="91.0103" cy="60.4883" fill="#ADD1B2" rx="11" ry="11" style="stroke:#181818;stroke-width:1;"/><path d="M93.4834,66.6313 Q92.9023,66.9302 92.2632,67.0796 Q91.624,67.229 90.9185,67.229 Q88.4116,67.229 87.0918,65.5771 Q85.772,63.9253 85.772,60.8042 Q85.772,57.6748 87.0918,56.0229 Q88.4116,54.3711 90.9185,54.3711 Q91.624,54.3711 92.2715,54.5205 Q92.9189,54.6699 93.4834,54.9688 L93.4834,57.6914 Q92.8525,57.1104 92.259,56.8406 Q91.6655,56.5708 91.0347,56.5708 Q89.6899,56.5708 89.0051,57.6375 Q88.3203,58.7041 88.3203,60.8042 Q88.3203,62.896 89.0051,63.9626 Q89.6899,65.0293 91.0347,65.0293 Q91.6655,65.0293 92.259,64.7595 Q92.8525,64.4897 93.4834,63.9087 Z " fill="#000000"/><text fill="#000000" font-family="sans-serif" font-size="14" lengthAdjust="spacing" textLength="53.8809" x="111.5103" y="65.7793">OclView</text><line style="stroke:#181818;stroke-width:0.5;" x1="8" x2="236.4014" y1="76.4883" y2="76.4883"/><g data-visibility-modifier="PUBLIC_FIELD"><ellipse cx="18" cy="90.2324" fill="none" rx="3" ry="3" style="stroke:#038048;stroke-width:1;"/></g><text fill="#000000" font-family="sans-serif" font-size="14" lengthAdjust="spacing" textLength="167.6104" x="27" y="94.0234">sub_mode : OclSubMode</text><g data-visibility-modifier="PUBLIC_FIELD"><ellipse cx="18" cy="106.7207" fill="none" rx="3" ry="3" style="stroke:#038048;stroke-width:1;"/></g><text fill="#000000" font-family="sans-serif" font-size="14" lengthAdjust="spacing" textLength="167.5762" x="27" y="110.5117">loaded : Option&lt;String&gt;</text><g data-visibility-modifier="PUBLIC_FIELD"><ellipse cx="18" cy="123.209" fill="none" rx="3" ry="3" style="stroke:#038048;stroke-width:1;"/></g><text fill="#000000" font-family="sans-serif" font-size="14" lengthAdjust="spacing" textLength="98.3828" x="27" y="127">source : String</text><g data-visibility-modifier="PUBLIC_FIELD"><ellipse cx="18" cy="139.6973" fill="none" rx="3" ry="3" style="stroke:#038048;stroke-width:1;"/></g><text fill="#000000" font-family="sans-serif" font-size="14" lengthAdjust="spacing" textLength="204.4014" x="27" y="143.4883">page : Option&lt;DiagramPage&gt;</text><line style="stroke:#181818;stroke-width:0.5;" x1="8" x2="236.4014" y1="150.4414" y2="150.4414"/></g><!--class SourceView--><g class="entity" data-qualified-name="SourceView" data-source-line="58" id="ent0006"><rect fill="#90EE90" height="89.5977" rx="2.5" ry="2.5" style="stroke:#181818;stroke-width:0.5;" width="193.5762" x="558.41" y="56.6683"/><ellipse cx="612.2909" cy="76.9788" fill="#ADD1B2" rx="11" ry="11" style="stroke:#181818;stroke-width:1;"/><path d="M614.764,83.1219 Q614.1829,83.4207 613.5438,83.5701 Q612.9046,83.7196 612.1991,83.7196 Q609.6922,83.7196 608.3724,82.0677 Q607.0526,80.4158 607.0526,77.2947 Q607.0526,74.1654 608.3724,72.5135 Q609.6922,70.8616 612.1991,70.8616 Q612.9046,70.8616 613.5521,71.0111 Q614.1996,71.1605 614.764,71.4593 L614.764,74.182 Q614.1331,73.6009 613.5396,73.3311 Q612.9461,73.0613 612.3153,73.0613 Q610.9705,73.0613 610.2857,74.128 Q609.6009,75.1946 609.6009,77.2947 Q609.6009,79.3865 610.2857,80.4532 Q610.9705,81.5198 612.3153,81.5198 Q612.9461,81.5198 613.5396,81.2501 Q614.1331,80.9803 614.764,80.3992 Z " fill="#000000"/><text fill="#000000" font-family="sans-serif" font-size="12" font-style="italic" lengthAdjust="spacing" textLength="48.5449" x="647.1756" y="73.2698">&#171;added&#187;</text><text fill="#000000" font-family="sans-serif" font-size="14" lengthAdjust="spacing" textLength="77.3145" x="632.7909" y="89.3363">SourceView</text><line style="stroke:#181818;stroke-width:0.5;" x1="559.41" x2="750.9862" y1="97.2894" y2="97.2894"/><g data-visibility-modifier="PUBLIC_FIELD"><ellipse cx="569.41" cy="111.0335" fill="none" rx="3" ry="3" style="stroke:#038048;stroke-width:1;"/></g><text fill="#000000" font-family="sans-serif" font-size="14" lengthAdjust="spacing" textLength="167.5762" x="578.41" y="114.8245">loaded : Option&lt;String&gt;</text><g data-visibility-modifier="PUBLIC_FIELD"><ellipse cx="569.41" cy="127.5218" fill="none" rx="3" ry="3" style="stroke:#038048;stroke-width:1;"/></g><text fill="#000000" font-family="sans-serif" font-size="14" lengthAdjust="spacing" textLength="98.3828" x="578.41" y="131.3128">source : String</text><line style="stroke:#181818;stroke-width:0.5;" x1="559.41" x2="750.9862" y1="138.2659" y2="138.2659"/></g><!--reverse link SvgRasterizer to FontDatabase--><g class="link" data-entity-1="ent0003" data-entity-2="ent0004" data-link-type="aggregation" data-source-line="63" id="lnk7"><path codeLine="63" d="M398.2,154.1283 C398.2,181.5483 398.2,206.1983 398.2,235.2583" fill="none" id="SvgRasterizer-backto-FontDatabase" style="stroke:#181818;stroke-width:1;"/><polygon fill="none" points="398.2,142.1283,394.2,148.1283,398.2,154.1283,402.2,148.1283,398.2,142.1283" style="stroke:#181818;stroke-width:1;"/><polygon fill="#000000" points="403.2,202.1036,406.1389,193.0585,400.2611,193.0585,403.2,202.1036" style="stroke:#000000;stroke-width:1;"/><text fill="#000000" font-family="sans-serif" font-size="13" lengthAdjust="spacing" textLength="123.0303" x="412.2" y="202.0166">resolves &lt;text&gt; via</text><text fill="#000000" font-family="sans-serif" font-size="13" lengthAdjust="spacing" textLength="8.2202" x="389.5803" y="162.3972">1</text><text fill="#000000" font-family="sans-serif" font-size="13" lengthAdjust="spacing" textLength="8.2202" x="389.6292" y="224.5624">1</text></g><!--link OclView to OclSubMode--><g class="link" data-entity-1="ent0005" data-entity-2="ent0002" data-link-type="dependency" data-source-line="64" id="lnk8"><path codeLine="64" d="M122.2,158.6583 C122.2,186.1083 122.2,212.4983 122.2,237.3683" fill="none" id="OclView-to-OclSubMode" style="stroke:#181818;stroke-width:1;"/><polygon fill="#181818" points="122.2,243.3683,126.2,234.3683,122.2,238.3683,118.2,234.3683,122.2,243.3683" style="stroke:#181818;stroke-width:1;"/></g><?plantuml-src jLFDRXen4BxlKupIGnSbMq4EbOBGgh20L2afY4te4Hbxs5hnsiZsqf0eKX-Yxz9x7wLFql4k2Q3sKgbSTktv-RwPRyRkNkeriwo4oY5d3k4f0XWmVbzOKscH6MLihyU4G96cyEQgFHfTjVyMOh4qcoPeF1wypphHS-HUqRbYpfqAsvHher7x4-4xp_ofTB78FTE5EXK-uzxO4s7Jrqikr-m_A_yMFaWH3oStoNZowJOPzc_xWtu-QXqu9jbrClyu-dneczxTN2Vvv6wMZHeVmBu4_qKwu5jEGiVjTkSo96RrDTn0oDKAObvP6zR8IO6jBj1E0IeiWwd6kG0TRBkQtqLUUWAOI_oA5eGfcTJmwzjtM1dA4CopPNXGvq3LmeQYw3XLf1OL2ivKbYFy_B6hwiyoMb64kYfXmbLUBM-CQ7OahnFfC9Iie36GO57pkl9DCMFEevMFsCpyFCp8uK9gRwLsaYyS-UBbrgDhGHVco2_hC8lBIYeHS_zm0O_6bC4xGrSflySVKrl3bwuQ-D1fHkFq54uajKtWYb7Uc9LIRScU1-wYTYd3HBwb4ik0vUB0iZ5Ix3cesQ3d3jvLoqKP6kyUgF2AX2BOrruQtMj8qYQhaVQ8USqAt4Vlf9kICJtGhywhwVUBy_JFT8HtF8cppXcO9Ad_HnfsINTdr0OTz3m--9IsX44QlOYG9Eb1txy1?></g></svg>