<svg xmlns="http://www.w3.org/2000/svg" xmlns:xlink="http://www.w3.org/1999/xlink" contentStyleType="text/css" data-diagram-type="CLASS" height="365px" preserveAspectRatio="none" style="width:517px;height:365px;background:#FFFFFF;" version="1.1" viewBox="0 0 517 365" width="517px" zoomAndPan="magnify"><?plantuml 1.2026.3?><defs/><g><g class="title" data-source-line="9"><text fill="#000000" font-family="sans-serif" font-size="14" font-weight="700" lengthAdjust="spacing" textLength="490.6699" x="10" y="23.5352">MDD init &#8212; file classes + state migration &#183; cycle 0018 diff (current)</text></g><!--class InitFileClass--><g class="entity" data-qualified-name="InitFileClass" data-source-line="11" id="ent0002"><rect fill="#90EE90" height="89.5977" rx="2.5" ry="2.5" style="stroke:#181818;stroke-width:0.5;" width="138.4717" x="77.8543" y="252.3083"/><ellipse cx="104.2524" cy="272.6188" fill="#EB937F" rx="11" ry="11" style="stroke:#181818;stroke-width:1;"/><path d="M107.8666,279.1188 L100.1469,279.1188 L100.1469,266.7258 L107.8666,266.7258 L107.8666,268.884 L102.5956,268.884 L102.5956,271.5568 L107.3686,271.5568 L107.3686,273.715 L102.5956,273.715 L102.5956,276.9606 L107.8666,276.9606 Z " fill="#000000"/><text fill="#000000" font-family="sans-serif" font-size="12" font-style="italic" lengthAdjust="spacing" textLength="48.5449" x="137.0841" y="268.9098">&#171;added&#187;</text><text fill="#000000" font-family="sans-serif" font-size="14" lengthAdjust="spacing" textLength="81.1426" x="120.7853" y="284.9763">InitFileClass</text><line style="stroke:#181818;stroke-width:0.5;" x1="78.8543" x2="215.3259" y1="292.9294" y2="292.9294"/><text fill="#000000" font-family="sans-serif" font-size="14" lengthAdjust="spacing" textLength="83.7881" x="83.8543" y="310.4645">Regenerable</text><text fill="#000000" font-family="sans-serif" font-size="14" lengthAdjust="spacing" textLength="126.4717" x="83.8543" y="326.9528">AccumulatingState</text><line style="stroke:#181818;stroke-width:0.5;" x1="78.8543" x2="215.3259" y1="333.9059" y2="333.9059"/></g><!--class StateMigration--><g class="entity" data-qualified-name="StateMigration" data-source-line="16" id="ent0003"><rect fill="#90EE90" height="122.5742" rx="2.5" ry="2.5" style="stroke:#181818;stroke-width:0.5;" width="168.4336" x="181.8743" y="44.4883"/><ellipse cx="213.9848" cy="64.7988" fill="#ADD1B2" rx="11" ry="11" style="stroke:#181818;stroke-width:1;"/><path d="M216.4579,70.9419 Q215.8769,71.2407 215.2377,71.3901 Q214.5986,71.5396 213.893,71.5396 Q211.3862,71.5396 210.0663,69.8877 Q208.7465,68.2358 208.7465,65.1147 Q208.7465,61.9854 210.0663,60.3335 Q211.3862,58.6816 213.893,58.6816 Q214.5986,58.6816 215.246,58.8311 Q215.8935,58.9805 216.4579,59.2793 L216.4579,62.002 Q215.8271,61.4209 215.2336,61.1511 Q214.6401,60.8813 214.0092,60.8813 Q212.6645,60.8813 211.9797,61.948 Q211.2949,63.0146 211.2949,65.1147 Q211.2949,67.2065 211.9797,68.2732 Q212.6645,69.3398 214.0092,69.3398 Q214.6401,69.3398 215.2336,69.0701 Q215.8271,68.8003 216.4579,68.2192 Z " fill="#000000"/><text fill="#000000" font-family="sans-serif" font-size="12" font-style="italic" lengthAdjust="spacing" textLength="48.5449" x="256.7198" y="61.0898">&#171;added&#187;</text><text fill="#000000" font-family="sans-serif" font-size="14" lengthAdjust="spacing" textLength="98.4102" x="231.7871" y="77.1563">StateMigration</text><line style="stroke:#181818;stroke-width:0.5;" x1="182.8743" x2="349.3079" y1="85.1094" y2="85.1094"/><g data-visibility-modifier="PUBLIC_FIELD"><ellipse cx="192.8743" cy="98.8535" fill="none" rx="3" ry="3" style="stroke:#038048;stroke-width:1;"/></g><text fill="#000000" font-family="sans-serif" font-size="14" lengthAdjust="spacing" textLength="83.7266" x="201.8743" y="102.6445">path : String</text><g data-visibility-modifier="PUBLIC_FIELD"><ellipse cx="192.8743" cy="115.3418" fill="none" rx="3" ry="3" style="stroke:#038048;stroke-width:1;"/></g><text fill="#000000" font-family="sans-serif" font-size="14" lengthAdjust="spacing" textLength="142.4336" x="201.8743" y="119.1328">schemaVersion : u32</text><g data-visibility-modifier="PUBLIC_FIELD"><ellipse cx="192.8743" cy="131.8301" fill="none" rx="3" ry="3" style="stroke:#038048;stroke-width:1;"/></g><text fill="#000000" font-family="sans-serif" font-size="14" lengthAdjust="spacing" textLength="137.9766" x="201.8743" y="135.6211">onDiskVersion : u32</text><line style="stroke:#181818;stroke-width:0.5;" x1="182.8743" x2="349.3079" y1="142.5742" y2="142.5742"/><g data-visibility-modifier="PUBLIC_METHOD"><ellipse cx="192.8743" cy="156.3184" fill="#84BE84" rx="3" ry="3" style="stroke:#038048;stroke-width:1;"/></g><text fill="#000000" font-family="sans-serif" font-size="14" lengthAdjust="spacing" textLength="136.1787" x="201.8743" y="160.1094">migrate() : Outcome</text></g><!--class Outcome--><g class="entity" data-qualified-name="Outcome" data-source-line="23" id="ent0004"><rect fill="#90EE90" height="106.0859" rx="2.5" ry="2.5" style="stroke:#181818;stroke-width:0.5;" width="93.4414" x="338.3743" y="244.0583"/><ellipse cx="353.3743" cy="264.3688" fill="#EB937F" rx="11" ry="11" style="stroke:#181818;stroke-width:1;"/><path d="M356.9885,270.8688 L349.2688,270.8688 L349.2688,258.4758 L356.9885,258.4758 L356.9885,260.634 L351.7175,260.634 L351.7175,263.3068 L356.4905,263.3068 L356.4905,265.465 L351.7175,265.465 L351.7175,268.7106 L356.9885,268.7106 Z " fill="#000000"/><text fill="#000000" font-family="sans-serif" font-size="12" font-style="italic" lengthAdjust="spacing" textLength="48.5449" x="373.8225" y="260.6598">&#171;added&#187;</text><text fill="#000000" font-family="sans-serif" font-size="14" lengthAdjust="spacing" textLength="61.4414" x="367.3743" y="276.7263">Outcome</text><line style="stroke:#181818;stroke-width:0.5;" x1="339.3743" x2="430.8157" y1="284.6794" y2="284.6794"/><text fill="#000000" font-family="sans-serif" font-size="14" lengthAdjust="spacing" textLength="52.7939" x="344.3743" y="302.2145">Created</text><text fill="#000000" font-family="sans-serif" font-size="14" lengthAdjust="spacing" textLength="60.1426" x="344.3743" y="318.7028">Migrated</text><text fill="#000000" font-family="sans-serif" font-size="14" lengthAdjust="spacing" textLength="54.0039" x="344.3743" y="335.1911">Skipped</text><line style="stroke:#181818;stroke-width:0.5;" x1="339.3743" x2="430.8157" y1="342.1442" y2="342.1442"/></g><!--link StateMigration to InitFileClass--><g class="link" data-entity-1="ent0003" data-entity-2="ent0002" data-link-type="dependency" data-source-line="29" id="lnk5"><path codeLine="29" d="M181.4643,152.8883 C166.3843,165.1583 152.7443,179.8883 144.0943,197.0583 C135.6543,213.8083 134.2897,228.2841 136.2597,246.2341" fill="none" id="StateMigration-to-InitFileClass" style="stroke:#181818;stroke-width:1;stroke-dasharray:7,7;"/><polygon fill="#181818" points="136.9143,252.1983,139.9085,242.8156,136.3688,247.2281,131.9563,243.6884,136.9143,252.1983" style="stroke:#181818;stroke-width:1;"/><polygon fill="#000000" points="146.915,210.2136,153.5024,203.3538,148.2122,200.792,146.915,210.2136" style="stroke:#000000;stroke-width:1;"/><text fill="#000000" font-family="sans-serif" font-size="13" lengthAdjust="spacing" textLength="183.4409" x="158.0943" y="210.6266">applies to AccumulatingState</text></g><!--link StateMigration to Outcome--><g class="link" data-entity-1="ent0003" data-entity-2="ent0004" data-link-type="dependency" data-source-line="30" id="lnk6"><path codeLine="30" d="M324.8543,167.4283 C332.5543,176.9383 339.9043,186.9783 346.0943,197.0583 C354.8843,211.3983 360.2001,222.4583 366.1701,237.9783" fill="none" id="StateMigration-to-Outcome" style="stroke:#181818;stroke-width:1;stroke-dasharray:7,7;"/><polygon fill="#181818" points="368.3243,243.5783,368.8264,233.7422,366.5292,238.9116,361.3598,236.6144,368.3243,243.5783" style="stroke:#181818;stroke-width:1;"/><polygon fill="#000000" points="362.061,210.0281,360.0261,200.7378,354.954,203.7082,362.061,210.0281" style="stroke:#000000;stroke-width:1;"/><text fill="#000000" font-family="sans-serif" font-size="13" lengthAdjust="spacing" textLength="36.3594" x="368.5343" y="210.6266">yields</text></g><?plantuml-src XL7DQjj04BxhAGPwg4KYuwHG4X547DakWZY6oFI-tHtBYrUxo-ugmPH27wBlqdiVfK_IqIe_hHteRMRuVkQRyJkfBNEi1QwOz_0r0RXXVDSuqsbH6cNSrHKJ0aLHmBlBoNn-ENaBuh0r3mDeiRZvM9ubtvBtS2t5QBPQPjLTjSuMrUqyAs-dTPt2gsROIWzypnN2Q38vkqZ_ejNhwNgUBQjFzzDrjRhx7wsCRT-1a9iDZ7Zd7Ee0NWfCSz3u2DneZZR0HXBqz_SV98InoORyrYZ9zoJchP81c1O3mhX7vaHcjDgVzYA1T3FhqADxaBe17rX0Q6NZM916ZvCW0paiPpEGceHwg-WPRT33oI45Vlry2dIS84qIr5qB5KajIAMCkxvUe__QFJQeqR4l2gcRSjwrdI9btTIz4VqZ6IB6TlbY-w_A2LWMjf0JoX4rJZpVOii-e_CzFeVkmtcS6psJVdSy7oBXAANPgWlSjD4z9dZg3rnBXqGGL0rxnRBUIMkf8kh1okDnSN2A79YbXz5TWpdE3iLR2i-hvB2Ng8I7uWy0?></g></svg>