<svg xmlns="http://www.w3.org/2000/svg" xmlns:xlink="http://www.w3.org/1999/xlink" contentStyleType="text/css" data-diagram-type="CLASS" height="409px" preserveAspectRatio="none" style="width:428px;height:409px;background:#FFFFFF;" version="1.1" viewBox="0 0 428 409" width="428px" zoomAndPan="magnify"><?plantuml 1.2026.3?><defs/><g><g class="title" data-source-line="33"><text fill="#000000" font-family="sans-serif" font-size="14" font-weight="700" lengthAdjust="spacing" textLength="260.7363" x="80.2498" y="23.5352">Diagram canvas view state (current)</text></g><!--class CanvasView--><g class="entity" data-qualified-name="CanvasView" data-source-line="35" id="ent0002"><rect fill="#90EE90" height="188.5273" rx="2.5" ry="2.5" style="stroke:#181818;stroke-width:0.5;" width="273.6797" x="72.78" y="44.4883"/><ellipse cx="165.3659" cy="64.7988" fill="#ADD1B2" rx="11" ry="11" style="stroke:#181818;stroke-width:1;"/><path d="M167.8391,70.9419 Q167.258,71.2407 166.6189,71.3901 Q165.9797,71.5396 165.2741,71.5396 Q162.7673,71.5396 161.4475,69.8877 Q160.1277,68.2358 160.1277,65.1147 Q160.1277,61.9854 161.4475,60.3335 Q162.7673,58.6816 165.2741,58.6816 Q165.9797,58.6816 166.6272,58.8311 Q167.2746,58.9805 167.8391,59.2793 L167.8391,62.002 Q167.2082,61.4209 166.6147,61.1511 Q166.0212,60.8813 165.3904,60.8813 Q164.0456,60.8813 163.3608,61.948 Q162.676,63.0146 162.676,65.1147 Q162.676,67.2065 163.3608,68.2732 Q164.0456,69.3398 165.3904,69.3398 Q166.0212,69.3398 166.6147,69.0701 Q167.2082,68.8003 167.8391,68.2192 Z " fill="#000000"/><text fill="#000000" font-family="sans-serif" font-size="12" font-style="italic" lengthAdjust="spacing" textLength="48.5449" x="201.5974" y="61.0898">&#171;added&#187;</text><text fill="#000000" font-family="sans-serif" font-size="14" lengthAdjust="spacing" textLength="80.0078" x="185.8659" y="77.1563">CanvasView</text><line style="stroke:#181818;stroke-width:0.5;" x1="73.78" x2="345.4597" y1="85.1094" y2="85.1094"/><g data-visibility-modifier="PUBLIC_FIELD"><ellipse cx="83.78" cy="98.8535" fill="none" rx="3" ry="3" style="stroke:#038048;stroke-width:1;"/></g><text fill="#000000" font-family="sans-serif" font-size="14" lengthAdjust="spacing" textLength="112.916" x="92.78" y="102.6445">base_zoom : f32</text><g data-visibility-modifier="PUBLIC_FIELD"><ellipse cx="83.78" cy="115.3418" fill="none" rx="3" ry="3" style="stroke:#038048;stroke-width:1;"/></g><text fill="#000000" font-family="sans-serif" font-size="14" lengthAdjust="spacing" textLength="71.4971" x="92.78" y="119.1328">pan : Vec2</text><g data-visibility-modifier="PUBLIC_FIELD"><ellipse cx="83.78" cy="131.8301" fill="none" rx="3" ry="3" style="stroke:#038048;stroke-width:1;"/></g><text fill="#000000" font-family="sans-serif" font-size="14" lengthAdjust="spacing" textLength="151.9697" x="92.78" y="135.6211">fisheye_enabled : bool</text><g data-visibility-modifier="PUBLIC_FIELD"><ellipse cx="83.78" cy="148.3184" fill="none" rx="3" ry="3" style="stroke:#038048;stroke-width:1;"/></g><text fill="#000000" font-family="sans-serif" font-size="14" lengthAdjust="spacing" textLength="148.3193" x="92.78" y="152.1094">fisheye_strength : f32</text><g data-visibility-modifier="PUBLIC_FIELD"><ellipse cx="83.78" cy="164.8066" fill="none" rx="3" ry="3" style="stroke:#038048;stroke-width:1;"/></g><text fill="#000000" font-family="sans-serif" font-size="14" lengthAdjust="spacing" textLength="133.2188" x="92.78" y="168.5977">fisheye_radius : f32</text><line style="stroke:#181818;stroke-width:0.5;" x1="73.78" x2="345.4597" y1="175.5508" y2="175.5508"/><g data-visibility-modifier="PUBLIC_METHOD"><ellipse cx="83.78" cy="189.2949" fill="#84BE84" rx="3" ry="3" style="stroke:#038048;stroke-width:1;"/></g><text fill="#000000" font-family="sans-serif" font-size="14" lengthAdjust="spacing" textLength="113.3535" x="92.78" y="193.0859">focal(rect) : Pos2</text><g data-visibility-modifier="PUBLIC_METHOD"><ellipse cx="83.78" cy="205.7832" fill="#84BE84" rx="3" ry="3" style="stroke:#038048;stroke-width:1;"/></g><text fill="#000000" font-family="sans-serif" font-size="14" lengthAdjust="spacing" textLength="138.1475" x="92.78" y="209.5742">warp(p, focal) : Pos2</text><g data-visibility-modifier="PUBLIC_METHOD"><ellipse cx="83.78" cy="222.2715" fill="#84BE84" rx="3" ry="3" style="stroke:#038048;stroke-width:1;"/></g><text fill="#000000" font-family="sans-serif" font-size="14" lengthAdjust="spacing" textLength="247.6797" x="92.78" y="226.0625">fisheye_mesh(tex, rect, focal) : Mesh</text></g><g class="entity" data-qualified-name="GMN3" data-source-line="47" id="ent0004"><path d="M6,293.0183 L6,394.8816 A0,0 0 0 0 6,394.8816 L413.2358,394.8816 A0,0 0 0 0 413.2358,394.8816 L413.2358,303.0183 L403.2358,293.0183 L213.62,293.0183 L209.62,233.3183 L205.62,293.0183 L6,293.0183 A0,0 0 0 0 6,293.0183" fill="#FEFFDD" style="stroke:#181818;stroke-width:0.5;"/><path d="M403.2358,293.0183 L403.2358,303.0183 L413.2358,303.0183 L403.2358,293.0183" fill="#FEFFDD" style="stroke:#181818;stroke-width:0.5;"/><text fill="#000000" font-family="sans-serif" font-size="13" lengthAdjust="spacing" textLength="330.1479" x="12" y="310.5866">base_zoom is changed only by scroll-at-cursor; pan</text><text fill="#000000" font-family="sans-serif" font-size="13" lengthAdjust="spacing" textLength="335.626" x="12" y="325.8972">only by drag. focal(rect) = rect.center() (center-fixed,</text><text fill="#000000" font-family="sans-serif" font-size="13" lengthAdjust="spacing" textLength="386.2358" x="12" y="341.2077">OCL-FISHEYE-FOCAL-CENTER). fisheye_radius is recomputed</text><text fill="#000000" font-family="sans-serif" font-size="13" lengthAdjust="spacing" textLength="309.334" x="12" y="356.5183">each frame as the farthest-corner distance (&gt; 0).</text><text fill="#000000" font-family="sans-serif" font-size="13" lengthAdjust="spacing" textLength="332.8521" x="12" y="371.8288">fisheye_strength is clamped to [0,1]; 0 short-circuits</text><text fill="#000000" font-family="sans-serif" font-size="13" lengthAdjust="spacing" textLength="222.3584" x="12" y="387.1394">warp() to the plain base placement.</text></g><?plantuml-src jLHTRzCm57tFhxY21nAHP1r8IFjWOijICMaVYA4YXD3cshUDDSUERAVRGFnthfsMTHkFzALgxyVnkUUUMtSZTSSiQw5to9b3-9K0735-CxUcrw8oojZzVIO4YeC3UBapgkkTqRzABBPcCHIDnqVlgktaT-B-edF5dDiKjcaxer7x3U4xp_ocTB78FTDpjIbynhsn6yAcJo-vxDX_LluLV90YFRuuAwh3yydXPJ4vgRzc8IpGyQU975vKHY1joVRSGyNqWhc9nDjTc0O__pI6PD22w6heLE_0DmYSx8AscCax532Jhi5xX3WMKjn1YffD5OeyuAAU-oO7ouJiNRO7CyEPIZDQdk-jNWB6TukmpmXkiNmHE5UzfNvVE4aSXMcPr23GoaLurnArwsV4hq5gwkIMREUsMY6A1KNHRZdBjvISbjQLYPUUJ7CisJoUG6o6KBUqQyg7XxCa6Mxl0HyUDXFMzZhgT1LrseNPspSn5jJQXGdouUTIegkbB9IQ6gCUfLP2hO6iKeDowuceO10he-WduuRmBRDTskL3-b5cXTIYQrAFTtcydBNACqgGTn9jQFYfyPwcCRErgGdcOKxfW3TqTpI9qUeUflVWk3LA5SmNf9mpTYz8G4shlB1iNZuY_ZvoA0ShaHtITLFbr7fHdHRZaykFzRUw65zKXwT5LPz_gJzdvLDbY0zXqVzOxr5G9pBUa3t8ZS06Vytes1fqnCvOZHQ4f3rhJei-W55MKi-pFOGX5Mix6j8R-3xAjt_imGXSOop1ICjxwHqrHjMpK1CUwbImQ3mT-ignfQ7A1Ec0WhH_0000?></g></svg>