<svg xmlns="http://www.w3.org/2000/svg" xmlns:xlink="http://www.w3.org/1999/xlink" contentStyleType="text/css" data-diagram-type="DESCRIPTION" height="1507px" preserveAspectRatio="none" style="width:1699px;height:1507px;background:#FFFFFF;" version="1.1" viewBox="0 0 1699 1507" width="1699px" zoomAndPan="magnify"><?plantuml 1.2026.3?><defs/><g><g class="title" data-source-line="31"><text fill="#000000" font-family="sans-serif" font-size="14" font-weight="700" lengthAdjust="spacing" textLength="507.3838" x="592.4643" y="23.5352">/mdd-deploy deployment guidance + execution &#8212; use cases (current)</text></g><!--cluster mdd toolchain (utility, outside the parity gate)--><g class="cluster" data-qualified-name="mdd toolchain .utility. outside the parity gate." data-source-line="37" id="ent0003"><rect fill="none" height="560" rx="2.5" ry="2.5" style="stroke:#181818;stroke-width:1;" width="1495.29" x="178.48" y="724.4583"/><text fill="#000000" font-family="sans-serif" font-size="14" font-weight="700" lengthAdjust="spacing" textLength="333.1768" x="759.5366" y="739.9934">mdd toolchain (utility, outside the parity gate)</text></g><!--entity Guide--><g class="entity" data-qualified-name="mdd toolchain .utility. outside the parity gate..Guide" data-source-line="38" id="ent0004"><ellipse cx="373.6355" cy="892.4614" fill="#F1F1F1" rx="179.1655" ry="38.2331" style="stroke:#181818;stroke-width:0.5;"/><text fill="#000000" font-family="sans-serif" font-size="14" lengthAdjust="spacing" textLength="270.0605" x="238.6052" y="882.8213">PLAN then EXECUTE an Azure Container</text><text fill="#000000" font-family="sans-serif" font-size="14" lengthAdjust="spacing" textLength="240.7344" x="253.2683" y="899.3095">Apps deployment: diagram + IaC +</text><text fill="#000000" font-family="sans-serif" font-size="14" lengthAdjust="spacing" textLength="228.293" x="259.489" y="915.7978">runbook, then run it to live traffic</text></g><!--entity Dialect--><g class="entity" data-qualified-name="mdd toolchain .utility. outside the parity gate..Dialect" data-source-line="39" id="ent0005"><ellipse cx="964.1673" cy="885.4557" fill="#F1F1F1" rx="175.8873" ry="37.5775" style="stroke:#181818;stroke-width:0.5;"/><text fill="#000000" font-family="sans-serif" font-size="14" lengthAdjust="spacing" textLength="233.7959" x="847.2694" y="872.9686">Choose &amp; CONFIRM the IaC dialect</text><text fill="#000000" font-family="sans-serif" font-size="14" lengthAdjust="spacing" textLength="227.2061" x="850.5643" y="889.4569">(Bicep XOR Terraform) before any</text><text fill="#000000" font-family="sans-serif" font-size="14" lengthAdjust="spacing" textLength="249.0195" x="839.6575" y="905.9452">artifact is written &#8212; no silent default</text></g><!--entity Purpose--><g class="entity" data-qualified-name="mdd toolchain .utility. outside the parity gate..Purpose" data-source-line="40" id="ent0006"><ellipse cx="964.1719" cy="1229.4607" fill="#F1F1F1" rx="184.0619" ry="39.2124" style="stroke:#181818;stroke-width:0.5;"/><text fill="#000000" font-family="sans-serif" font-size="14" lengthAdjust="spacing" textLength="230.1934" x="849.0752" y="1214.4946">Confirm the deployment PURPOSE</text><text fill="#000000" font-family="sans-serif" font-size="14" lengthAdjust="spacing" textLength="206.377" x="860.9834" y="1230.9829">(dev/staging/prod) before any</text><text fill="#000000" font-family="sans-serif" font-size="14" lengthAdjust="spacing" textLength="291.3135" x="818.5151" y="1247.4711">purpose-driven default &#8212; no silent default</text></g><!--entity AccessCheck--><g class="entity" data-qualified-name="mdd toolchain .utility. outside the parity gate..AccessCheck" data-source-line="41" id="ent0007"><ellipse cx="964.1726" cy="996.4548" fill="#F1F1F1" rx="179.0326" ry="38.2065" style="stroke:#181818;stroke-width:0.5;"/><text fill="#000000" font-family="sans-serif" font-size="14" lengthAdjust="spacing" textLength="243.1133" x="842.616" y="983.9782">Account for who READS and WRITES</text><text fill="#000000" font-family="sans-serif" font-size="14" lengthAdjust="spacing" textLength="273.2803" x="827.5325" y="1000.4665">every secured store (identity + admitted</text><text fill="#000000" font-family="sans-serif" font-size="14" lengthAdjust="spacing" textLength="257.585" x="835.3802" y="1016.9548">path) before emitting &#8212; surface holes</text></g><!--entity Execute--><g class="entity" data-qualified-name="mdd toolchain .utility. outside the parity gate..Execute" data-source-line="42" id="ent0008"><ellipse cx="964.1705" cy="1112.4564" fill="#F1F1F1" rx="201.2905" ry="42.6581" style="stroke:#181818;stroke-width:0.5;"/><text fill="#000000" font-family="sans-serif" font-size="14" lengthAdjust="spacing" textLength="249.4639" x="839.4385" y="1094.6154">EXECUTE the runbook: manage auth,</text><text fill="#000000" font-family="sans-serif" font-size="14" lengthAdjust="spacing" textLength="294.9434" x="816.6988" y="1111.1037">dry-run, apply, provision, migrate, route &#8212;</text><text fill="#000000" font-family="sans-serif" font-size="14" lengthAdjust="spacing" textLength="350.0684" x="789.1363" y="1127.592">autonomous except irreversible steps; halt on error</text></g><!--entity GoLive--><g class="entity" data-qualified-name="mdd toolchain .utility. outside the parity gate..GoLive" data-source-line="43" id="ent0009"><ellipse cx="1496.4397" cy="1112.459" fill="#F1F1F1" rx="161.3297" ry="35.3107" style="stroke:#181818;stroke-width:0.5;"/><text fill="#000000" font-family="sans-serif" font-size="14" lengthAdjust="spacing" textLength="227.1309" x="1382.8743" y="1102.9334">CONFIRM go-live: surface the full</text><text fill="#000000" font-family="sans-serif" font-size="14" lengthAdjust="spacing" textLength="242.3887" x="1375.2453" y="1119.4217">production billing multi-factor gate</text><text fill="#000000" font-family="sans-serif" font-size="14" lengthAdjust="spacing" textLength="174.665" x="1409.1072" y="1135.9099">before live-traffic cutover</text></g><!--entity Inspect--><g class="entity" data-qualified-name="mdd toolchain .utility. outside the parity gate..Inspect" data-source-line="44" id="ent0010"><ellipse cx="964.1748" cy="786.4592" fill="#F1F1F1" rx="122.2048" ry="26.841" style="stroke:#181818;stroke-width:0.5;"/><text fill="#000000" font-family="sans-serif" font-size="14" lengthAdjust="spacing" textLength="147.7861" x="890.2817" y="780.7397">Inspect the generated</text><text fill="#000000" font-family="sans-serif" font-size="14" lengthAdjust="spacing" textLength="190.9961" x="868.6767" y="797.2279">deployment diagram as SVG</text></g><!--entity Op--><g class="entity" data-qualified-name="Op" data-source-line="35" id="ent0002"><ellipse cx="36.2559" cy="1076.7083" fill="#F1F1F1" rx="8" ry="8" style="stroke:#181818;stroke-width:0.5;"/><path d="M36.2559,1084.7083 L36.2559,1111.7083 M23.2559,1092.7083 L49.2559,1092.7083 M36.2559,1111.7083 L23.2559,1126.7083 M36.2559,1111.7083 L49.2559,1126.7083" fill="none" style="stroke:#181818;stroke-width:0.5;"/><text fill="#000000" font-family="sans-serif" font-size="14" lengthAdjust="spacing" textLength="60.5117" x="6" y="1141.7434">Operator</text></g><g class="entity" data-qualified-name="GMN24" data-source-line="63" id="ent0025"><path d="M127.51,560.5583 L127.51,708.3532 A0,0 0 0 0 127.51,708.3532 L369.64,708.3532 L373.64,853.9083 L377.64,708.3532 L619.7727,708.3532 A0,0 0 0 0 619.7727,708.3532 L619.7727,570.5583 L609.7727,560.5583 L127.51,560.5583 A0,0 0 0 0 127.51,560.5583" fill="#FEFFDD" style="stroke:#181818;stroke-width:0.5;"/><path d="M609.7727,560.5583 L609.7727,570.5583 L619.7727,570.5583 L609.7727,560.5583" fill="#FEFFDD" style="stroke:#181818;stroke-width:0.5;"/><text fill="#000000" font-family="sans-serif" font-size="13" lengthAdjust="spacing" textLength="303.1514" x="133.51" y="578.1266">Implemented in templates::MDD_DEPLOY_SKILL:</text><text fill="#000000" font-family="sans-serif" font-size="13" lengthAdjust="spacing" textLength="379.8691" x="133.51" y="593.4372">v1 supports only azure-container-apps. Reads MDD models</text><text fill="#000000" font-family="sans-serif" font-size="13" lengthAdjust="spacing" textLength="356.4399" x="133.51" y="608.7477">+ the target repo read-only to PLAN, then EXECUTES the</text><text fill="#000000" font-family="sans-serif" font-size="13" lengthAdjust="spacing" textLength="302.6118" x="133.51" y="624.0583">runbook to live traffic. PAUSES with a BLOCKING</text><text fill="#000000" font-family="sans-serif" font-size="13" lengthAdjust="spacing" textLength="333.4932" x="133.51" y="639.3688">clarification on ambiguity OR a GENERALIZED go-live</text><text fill="#000000" font-family="sans-serif" font-size="13" lengthAdjust="spacing" textLength="373.6611" x="133.51" y="654.6794">landmine (app-config / purpose / access-path). Now RUNS</text><text fill="#000000" font-family="sans-serif" font-size="13" lengthAdjust="spacing" textLength="320.417" x="133.51" y="669.9899">az / terraform / docker via Bash; the old "executes</text><text fill="#000000" font-family="sans-serif" font-size="13" lengthAdjust="spacing" textLength="181.2065" x="133.51" y="685.3005">nothing" non-goal is retired.</text><text fill="#000000" font-family="sans-serif" font-size="13" lengthAdjust="spacing" textLength="471.2627" x="133.51" y="700.611">Realized by SEQ-DEPLOY-GUIDANCE (plan) + SEQ-DEPLOY-EXECUTE (run).</text></g><g class="entity" data-qualified-name="GMN27" data-source-line="75" id="ent0028"><path d="M780.42,134.1783 L780.42,220.731 L1147.9322,220.731 L1147.9322,144.1783 L1137.9322,134.1783 L780.42,134.1783" fill="#FEFFDD" style="stroke:#181818;stroke-width:0.5;"/><path d="M1137.9322,134.1783 L1137.9322,144.1783 L1147.9322,144.1783 L1137.9322,134.1783" fill="#FEFFDD" style="stroke:#181818;stroke-width:1;"/><text fill="#000000" font-family="sans-serif" font-size="13" lengthAdjust="spacing" textLength="346.5122" x="786.42" y="151.7466">Implemented in templates::MDD_DEPLOY_SKILL step 4.</text><text fill="#000000" font-family="sans-serif" font-size="13" lengthAdjust="spacing" textLength="330.2114" x="786.42" y="167.0572">Mandatory &#171;include&#187;: guidance cannot proceed until</text><text fill="#000000" font-family="sans-serif" font-size="13" lengthAdjust="spacing" textLength="293.5854" x="786.42" y="182.3677">the dialect is explicitly confirmed. One per run</text><text fill="#000000" font-family="sans-serif" font-size="13" lengthAdjust="spacing" textLength="341.5864" x="786.42" y="197.6783">(Bicep XOR Terraform). FULL PARITY; no silent default.</text><text fill="#000000" font-family="sans-serif" font-size="13" lengthAdjust="spacing" textLength="235.1362" x="786.42" y="212.9888">Realized by SEQ-DEPLOY-GUIDANCE.</text></g><g class="entity" data-qualified-name="GMN30" data-source-line="83" id="ent0031"><path d="M779.37,590.8683 L779.37,708.0421 L1148.9769,708.0421 L1148.9769,600.8683 L1138.9769,590.8683 L779.37,590.8683" fill="#FEFFDD" style="stroke:#181818;stroke-width:0.5;"/><path d="M1138.9769,590.8683 L1138.9769,600.8683 L1148.9769,600.8683 L1138.9769,590.8683" fill="#FEFFDD" style="stroke:#181818;stroke-width:1;"/><text fill="#000000" font-family="sans-serif" font-size="13" lengthAdjust="spacing" textLength="346.5122" x="785.37" y="608.4366">Implemented in templates::MDD_DEPLOY_SKILL step 5.</text><text fill="#000000" font-family="sans-serif" font-size="13" lengthAdjust="spacing" textLength="319.7378" x="785.37" y="623.7472">Mandatory &#171;include&#187;: no purpose-driven default is</text><text fill="#000000" font-family="sans-serif" font-size="13" lengthAdjust="spacing" textLength="320.9058" x="785.37" y="639.0577">generated until dev/staging/prod is confirmed. No</text><text fill="#000000" font-family="sans-serif" font-size="13" lengthAdjust="spacing" textLength="340.1582" x="785.37" y="654.3683">silent default. RECOMMENDS sizing/posture; operator</text><text fill="#000000" font-family="sans-serif" font-size="13" lengthAdjust="spacing" textLength="348.6069" x="785.37" y="669.6788">confirms; secure-by-default preserved. Constrained by</text><text fill="#000000" font-family="sans-serif" font-size="13" lengthAdjust="spacing" textLength="347.3057" x="785.37" y="684.9894">OCL-DEPLOY-IAC-PURPOSE / -SURFACE-NOT-DECIDE.</text><text fill="#000000" font-family="sans-serif" font-size="13" lengthAdjust="spacing" textLength="235.1362" x="785.37" y="700.2999">Realized by SEQ-DEPLOY-GUIDANCE.</text></g><g class="entity" data-qualified-name="GMN33" data-source-line="93" id="ent0034"><path d="M746.77,256.2183 L746.77,388.7027 L1181.5801,388.7027 L1181.5801,266.2183 L1171.5801,256.2183 L746.77,256.2183" fill="#FEFFDD" style="stroke:#181818;stroke-width:0.5;"/><path d="M1171.5801,256.2183 L1171.5801,266.2183 L1181.5801,266.2183 L1171.5801,256.2183" fill="#FEFFDD" style="stroke:#181818;stroke-width:1;"/><text fill="#000000" font-family="sans-serif" font-size="13" lengthAdjust="spacing" textLength="346.5122" x="752.77" y="273.7866">Implemented in templates::MDD_DEPLOY_SKILL step 6.</text><text fill="#000000" font-family="sans-serif" font-size="13" lengthAdjust="spacing" textLength="331.1255" x="752.77" y="289.0972">Mandatory &#171;include&#187;: before emitting, every secured</text><text fill="#000000" font-family="sans-serif" font-size="13" lengthAdjust="spacing" textLength="359.1631" x="752.77" y="304.4077">store must have a named READER and WRITER, each with</text><text fill="#000000" font-family="sans-serif" font-size="13" lengthAdjust="spacing" textLength="335.0166" x="752.77" y="319.7183">an admitted network path. A read-but-never-written</text><text fill="#000000" font-family="sans-serif" font-size="13" lengthAdjust="spacing" textLength="338.0698" x="752.77" y="335.0288">store, or a writer with no admitted path, is SURFACED</text><text fill="#000000" font-family="sans-serif" font-size="13" lengthAdjust="spacing" textLength="245.832" x="752.77" y="350.3394">as a blocking question. Constrained by</text><text fill="#000000" font-family="sans-serif" font-size="13" lengthAdjust="spacing" textLength="413.8101" x="752.77" y="365.6499">OCL-DEPLOY-IAC-ACCESS-COMPLETE / -SURFACE-NOT-DECIDE.</text><text fill="#000000" font-family="sans-serif" font-size="13" lengthAdjust="spacing" textLength="235.1362" x="752.77" y="380.9605">Realized by SEQ-DEPLOY-GUIDANCE.</text></g><g class="entity" data-qualified-name="GMN36" data-source-line="104" id="ent0037"><path d="M740.77,423.2183 L740.77,555.7027 L1187.5708,555.7027 L1187.5708,433.2183 L1177.5708,423.2183 L740.77,423.2183" fill="#FEFFDD" style="stroke:#181818;stroke-width:0.5;"/><path d="M1177.5708,423.2183 L1177.5708,433.2183 L1187.5708,433.2183 L1177.5708,423.2183" fill="#FEFFDD" style="stroke:#181818;stroke-width:1;"/><text fill="#000000" font-family="sans-serif" font-size="13" lengthAdjust="spacing" textLength="351.0444" x="746.77" y="440.7866">Implemented in templates::MDD_DEPLOY_SKILL Phase B</text><text fill="#000000" font-family="sans-serif" font-size="13" lengthAdjust="spacing" textLength="343.3574" x="746.77" y="456.0972">(steps 11-16). Mandatory &#171;include&#187;: walk the runbook</text><text fill="#000000" font-family="sans-serif" font-size="13" lengthAdjust="spacing" textLength="330.8589" x="746.77" y="471.4077">itself &#8212; manage auth, dry-run before any apply, run</text><text fill="#000000" font-family="sans-serif" font-size="13" lengthAdjust="spacing" textLength="394.3228" x="746.77" y="486.7183">idempotent steps AUTONOMOUSLY, BLOCK only at irreversible</text><text fill="#000000" font-family="sans-serif" font-size="13" lengthAdjust="spacing" textLength="326.1489" x="746.77" y="502.0288">steps. HALT on first error; new revision at 0% traffic</text><text fill="#000000" font-family="sans-serif" font-size="13" lengthAdjust="spacing" textLength="183.2378" x="746.77" y="517.3394">until verified. Constrained by</text><text fill="#000000" font-family="sans-serif" font-size="13" lengthAdjust="spacing" textLength="425.8008" x="746.77" y="532.6499">OCL-DEPLOY-EXEC-DRYRUN-BEFORE-APPLY / -HALT-ON-ERROR /</text><text fill="#000000" font-family="sans-serif" font-size="13" lengthAdjust="spacing" textLength="369.8145" x="746.77" y="547.9605">-PAUSE-IRREVERSIBLE. Realized by SEQ-DEPLOY-EXECUTE.</text></g><g class="entity" data-qualified-name="GMN39" data-source-line="115" id="ent0040"><path d="M1308.58,576.2183 L1308.58,708.7027 A0,0 0 0 0 1308.58,708.7027 L1492.44,708.7027 L1496.44,1076.6583 L1500.44,708.7027 L1684.3124,708.7027 A0,0 0 0 0 1684.3124,708.7027 L1684.3124,586.2183 L1674.3124,576.2183 L1308.58,576.2183 A0,0 0 0 0 1308.58,576.2183" fill="#FEFFDD" style="stroke:#181818;stroke-width:0.5;"/><path d="M1674.3124,576.2183 L1674.3124,586.2183 L1684.3124,586.2183 L1674.3124,576.2183" fill="#FEFFDD" style="stroke:#181818;stroke-width:0.5;"/><text fill="#000000" font-family="sans-serif" font-size="13" lengthAdjust="spacing" textLength="354.7324" x="1314.58" y="593.7866">Implemented in templates::MDD_DEPLOY_SKILL step 15.</text><text fill="#000000" font-family="sans-serif" font-size="13" lengthAdjust="spacing" textLength="351.4443" x="1314.58" y="609.0972">Mandatory &#171;include&#187; of Execute: the ONE stop full-auto</text><text fill="#000000" font-family="sans-serif" font-size="13" lengthAdjust="spacing" textLength="298.0542" x="1314.58" y="624.4077">never skips. Surfaces the full production billing</text><text fill="#000000" font-family="sans-serif" font-size="13" lengthAdjust="spacing" textLength="305.354" x="1314.58" y="639.7183">multi-factor gate state, then BLOCKS for explicit</text><text fill="#000000" font-family="sans-serif" font-size="13" lengthAdjust="spacing" textLength="333.4487" x="1314.58" y="655.0288">operator confirmation before the live-traffic cutover.</text><text fill="#000000" font-family="sans-serif" font-size="13" lengthAdjust="spacing" textLength="243.5977" x="1314.58" y="670.3394">Never auto-confirmed. Constrained by</text><text fill="#000000" font-family="sans-serif" font-size="13" lengthAdjust="spacing" textLength="261.8789" x="1314.58" y="685.6499">OCL-DEPLOY-EXEC-GOLIVE-CONFIRMED.</text><text fill="#000000" font-family="sans-serif" font-size="13" lengthAdjust="spacing" textLength="224.1357" x="1314.58" y="700.9605">Realized by SEQ-DEPLOY-EXECUTE.</text></g><g class="entity" data-qualified-name="GMN42" data-source-line="126" id="ent0043"><path d="M796.9,43.4883 L796.9,99.4199 L1131.4488,99.4199 L1131.4488,53.4883 L1121.4488,43.4883 L796.9,43.4883" fill="#FEFFDD" style="stroke:#181818;stroke-width:0.5;"/><path d="M1121.4488,43.4883 L1121.4488,53.4883 L1131.4488,53.4883 L1121.4488,43.4883" fill="#FEFFDD" style="stroke:#181818;stroke-width:1;"/><text fill="#000000" font-family="sans-serif" font-size="13" lengthAdjust="spacing" textLength="308.4072" x="802.9" y="61.0566">Not a gate. /mdd-validate, /mdd-review and the</text><text fill="#000000" font-family="sans-serif" font-size="13" lengthAdjust="spacing" textLength="313.5488" x="802.9" y="76.3672">/mdd-cycle parity loop never read .mdd/deploy/.</text><text fill="#000000" font-family="sans-serif" font-size="13" lengthAdjust="spacing" textLength="220.4351" x="802.9" y="91.6777">Realized by SEQ-DEPLOY-INSPECT.</text></g><!--link Op to Guide--><g class="link" data-entity-1="ent0002" data-entity-2="ent0004" data-link-type="dependency" data-source-line="47" id="lnk11"><path d="M53.73,1067.9483 C63.73,1048.3183 78.13,1025.3083 96.51,1009.4583 C143.43,968.9983 200.7251,942.8164 254.6751,924.2964" fill="none" id="Op-to-Guide" style="stroke:#181818;stroke-width:1;"/><polygon fill="#181818" points="260.35,922.3483,250.5389,921.4871,255.6209,923.9717,253.1363,929.0537,260.35,922.3483" style="stroke:#181818;stroke-width:1;"/></g><!--link Op to Dialect--><g class="link" data-entity-1="ent0002" data-entity-2="ent0005" data-link-type="dependency" data-source-line="48" id="lnk12"><path d="M66.9,1093.5483 C76.21,1090.0183 86.64,1086.5783 96.51,1084.4583 C230.27,1055.6783 604.09,1128.1183 710.77,1042.4583 C747.62,1012.8683 706.64,973.1283 740.77,940.4583 C759.09,922.9183 776.4156,912.6869 800.6056,904.2369" fill="none" id="Op-to-Dialect" style="stroke:#181818;stroke-width:1;"/><polygon fill="#181818" points="806.27,902.2583,796.4544,901.45,801.5497,903.9072,799.0926,909.0025,806.27,902.2583" style="stroke:#181818;stroke-width:1;"/></g><!--link Op to Purpose--><g class="link" data-entity-1="ent0002" data-entity-2="ent0006" data-link-type="dependency" data-source-line="49" id="lnk13"><path d="M66.83,1132.2483 C83.49,1145.2083 105.36,1159.7683 127.51,1167.4583 C346.54,1243.5083 610.7446,1249.1332 783.5046,1242.3632" fill="none" id="Op-to-Purpose" style="stroke:#181818;stroke-width:1;"/><polygon fill="#181818" points="789.5,1242.1283,780.3503,1238.4838,784.5038,1242.3241,780.6635,1246.4776,789.5,1242.1283" style="stroke:#181818;stroke-width:1;"/></g><!--link Op to AccessCheck--><g class="link" data-entity-1="ent0002" data-entity-2="ent0007" data-link-type="dependency" data-source-line="50" id="lnk14"><path d="M66.9,1108.4483 C181.33,1115.6783 593.67,1137.4783 710.77,1084.4583 C728.53,1076.4183 723.98,1062.3483 740.77,1052.4583 C765.05,1038.1583 787.1246,1029.1496 814.7146,1021.1996" fill="none" id="Op-to-AccessCheck" style="stroke:#181818;stroke-width:1;"/><polygon fill="#181818" points="820.48,1019.5383,810.7243,1018.1866,815.6755,1020.9227,812.9394,1025.8738,820.48,1019.5383" style="stroke:#181818;stroke-width:1;"/></g><!--link Op to Execute--><g class="link" data-entity-1="ent0002" data-entity-2="ent0008" data-link-type="dependency" data-source-line="51" id="lnk15"><path d="M66.9,1122.3183 C76.13,1126.4683 86.51,1130.3583 96.51,1132.4583 C363.7,1188.4983 437.98,1143.2483 710.77,1132.4583 C732.41,1131.5983 749.0731,1130.7353 771.5431,1129.2453" fill="none" id="Op-to-Execute" style="stroke:#181818;stroke-width:1;"/><polygon fill="#181818" points="777.53,1128.8483,768.2851,1125.4525,772.541,1129.1791,768.8144,1133.435,777.53,1128.8483" style="stroke:#181818;stroke-width:1;"/></g><!--link Op to GoLive--><g class="link" data-entity-1="ent0002" data-entity-2="ent0009" data-link-type="dependency" data-source-line="52" id="lnk16"><path d="M49.73,1145.0683 C63.08,1179.4783 87.86,1227.9283 127.51,1251.4583 C532.91,1492.0083 731.69,1406.3683 1187.58,1286.4583 C1290.59,1259.3583 1390.574,1192.6603 1447.424,1150.1703" fill="none" id="Op-to-GoLive" style="stroke:#181818;stroke-width:1;"/><polygon fill="#181818" points="1452.23,1146.5783,1442.6264,1148.7623,1448.225,1149.5716,1447.4157,1155.1703,1452.23,1146.5783" style="stroke:#181818;stroke-width:1;"/></g><!--link Op to Inspect--><g class="link" data-entity-1="ent0002" data-entity-2="ent0010" data-link-type="dependency" data-source-line="53" id="lnk17"><path d="M37.26,1067.8983 C38.19,952.1483 47.75,611.4483 127.51,543.4583 C294.01,401.5283 426.94,440.0983 619.77,543.4583 C705.39,589.3483 662.05,668.5583 740.77,725.4583 C774.52,749.8483 811.6953,763.1758 850.9053,771.9658" fill="none" id="Op-to-Inspect" style="stroke:#181818;stroke-width:1;"/><polygon fill="#181818" points="856.76,773.2783,848.853,767.4064,851.8811,772.1845,847.103,775.2127,856.76,773.2783" style="stroke:#181818;stroke-width:1;"/></g><!--link Guide to Dialect--><g class="link" data-entity-1="ent0004" data-entity-2="ent0005" data-link-type="dependency" data-source-line="55" id="lnk18"><path d="M541.26,878.5683 C595.31,875.3883 655.56,873.2583 710.77,874.4583 C737.19,875.0283 759.1645,875.7157 786.4845,876.7757" fill="none" id="Guide-to-Dialect" style="stroke:#181818;stroke-width:1;stroke-dasharray:7,7;"/><polygon fill="#181818" points="792.48,877.0083,783.6418,872.6624,787.4838,876.8144,783.3317,880.6563,792.48,877.0083" style="stroke:#181818;stroke-width:1;"/><text fill="#000000" font-family="sans-serif" font-size="13" lengthAdjust="spacing" textLength="59.3569" x="650.77" y="870.6866">&#171;include&#187;</text></g><!--link Guide to Purpose--><g class="link" data-entity-1="ent0004" data-entity-2="ent0006" data-link-type="dependency" data-source-line="56" id="lnk19"><path d="M412.78,930.2083 C475.7,990.3783 607.59,1107.8083 740.77,1172.4583 C767.13,1185.2483 790.8975,1193.7973 819.6475,1201.7573" fill="none" id="Guide-to-Purpose" style="stroke:#181818;stroke-width:1;stroke-dasharray:7,7;"/><polygon fill="#181818" points="825.43,1203.3583,817.8236,1197.1018,820.6113,1202.0241,815.689,1204.8118,825.43,1203.3583" style="stroke:#181818;stroke-width:1;"/><text fill="#000000" font-family="sans-serif" font-size="13" lengthAdjust="spacing" textLength="59.3569" x="650.77" y="1119.5166">&#171;include&#187;</text></g><!--link Guide to AccessCheck--><g class="link" data-entity-1="ent0004" data-entity-2="ent0007" data-link-type="dependency" data-source-line="57" id="lnk20"><path d="M541.84,905.9983 C596.05,911.9383 656.26,920.2083 710.77,931.4583 C724.41,934.2683 727.35,936.7583 740.77,940.4583 C774.36,949.7183 805.1512,957.7249 838.7912,966.1849" fill="none" id="Guide-to-AccessCheck" style="stroke:#181818;stroke-width:1;stroke-dasharray:7,7;"/><polygon fill="#181818" points="844.61,967.6483,836.8573,961.574,839.761,966.4288,834.9062,969.3325,844.61,967.6483" style="stroke:#181818;stroke-width:1;"/><text fill="#000000" font-family="sans-serif" font-size="13" lengthAdjust="spacing" textLength="59.3569" x="650.77" y="918.0066">&#171;include&#187;</text></g><!--link Guide to Execute--><g class="link" data-entity-1="ent0004" data-entity-2="ent0008" data-link-type="dependency" data-source-line="58" id="lnk21"><path d="M506.7,918.4283 C586.79,936.3783 679.41,961.7483 710.77,988.4583 C734.69,1008.8183 716.71,1032.2683 740.77,1052.4583 C758.47,1067.2983 773.8994,1076.3458 795.8594,1084.7858" fill="none" id="Guide-to-Execute" style="stroke:#181818;stroke-width:1;stroke-dasharray:7,7;"/><polygon fill="#181818" points="801.46,1086.9383,794.4941,1079.9758,796.7928,1085.1445,791.6241,1087.4433,801.46,1086.9383" style="stroke:#181818;stroke-width:1;"/><text fill="#000000" font-family="sans-serif" font-size="13" lengthAdjust="spacing" textLength="59.3569" x="650.77" y="955.7066">&#171;include&#187;</text></g><!--link Execute to GoLive--><g class="link" data-entity-1="ent0008" data-entity-2="ent0009" data-link-type="dependency" data-source-line="59" id="lnk22"><path d="M1165.65,1112.4583 C1221.52,1112.4583 1275.47,1112.4583 1328.73,1112.4583" fill="none" id="Execute-to-GoLive" style="stroke:#181818;stroke-width:1;stroke-dasharray:7,7;"/><polygon fill="#181818" points="1334.73,1112.4583,1325.73,1108.4583,1329.73,1112.4583,1325.73,1116.4583,1334.73,1112.4583" style="stroke:#181818;stroke-width:1;"/><text fill="#000000" font-family="sans-serif" font-size="13" lengthAdjust="spacing" textLength="59.3569" x="1218.58" y="1109.0266">&#171;include&#187;</text></g><!--link Guide to Inspect--><g class="link" data-entity-1="ent0004" data-entity-2="ent0010" data-link-type="dependency" data-source-line="60" id="lnk23"><path d="M511.88,867.7383 C621.43,848.0083 766.1151,821.9521 862.5851,804.5721" fill="none" id="Guide-to-Inspect" style="stroke:#181818;stroke-width:1;stroke-dasharray:7,7;"/><polygon fill="#181818" points="868.49,803.5083,858.9234,801.1674,863.5692,804.3948,860.3418,809.0407,868.49,803.5083" style="stroke:#181818;stroke-width:1;"/><text fill="#000000" font-family="sans-serif" font-size="13" lengthAdjust="spacing" textLength="57.1924" x="651.77" y="829.6766">&#171;extend&#187;</text></g><!--link Dialect to GMN27--><g class="link" data-entity-1="ent0005" data-entity-2="ent0028" data-link-type="association" data-source-line="75" id="lnk29"><path d="M790.75,878.5483 C747.94,867.9283 706.79,848.2283 680.27,812.9583 C605.9,714.0183 605.9,354.8983 680.27,255.9583 C704.7,223.4583 741.34,203.5783 780.24,191.6083" fill="none" id="Dialect-GMN27" style="stroke:#181818;stroke-width:1;stroke-dasharray:7,7;"/></g><!--link Purpose to GMN30--><g class="link" data-entity-1="ent0006" data-entity-2="ent0031" data-link-type="association" data-source-line="83" id="lnk32"><path d="M785.64,1219.7883 C744.7,1208.5983 705.77,1188.8683 680.27,1154.9583 C627.66,1084.9683 630.96,833.3083 680.27,760.9583 C703.98,726.1683 740.35,702.2383 779.22,685.7683" fill="none" id="Purpose-GMN30" style="stroke:#181818;stroke-width:1;stroke-dasharray:7,7;"/></g><!--link AccessCheck to GMN33--><g class="link" data-entity-1="ent0007" data-entity-2="ent0034" data-link-type="association" data-source-line="93" id="lnk35"><path d="M788.93,988.3783 C746.78,977.5083 706.43,957.7483 680.27,922.9583 C613.51,834.1383 616.14,513.6883 680.27,422.9583 C697.25,398.9383 720.47,380.6283 746.38,366.6683" fill="none" id="AccessCheck-GMN33" style="stroke:#181818;stroke-width:1;stroke-dasharray:7,7;"/></g><!--link Execute to GMN36--><g class="link" data-entity-1="ent0008" data-entity-2="ent0037" data-link-type="association" data-source-line="104" id="lnk38"><path d="M775.09,1097.4283 C738.11,1085.4383 703.61,1065.9983 680.27,1034.9583 C620.99,956.0883 623.45,671.6183 680.27,590.9583 C695.95,568.7083 716.97,551.3083 740.52,537.7083" fill="none" id="Execute-GMN36" style="stroke:#181818;stroke-width:1;stroke-dasharray:7,7;"/></g><!--link Inspect to GMN42--><g class="link" data-entity-1="ent0010" data-entity-2="ent0043" data-link-type="association" data-source-line="126" id="lnk44"><path d="M841.61,785.2483 C782.91,777.6583 717.46,757.4183 680.27,707.9583 C603.63,605.9983 603.63,235.9183 680.27,133.9583 C707.8,97.3483 751.48,78.8383 796.41,70.1983" fill="none" id="Inspect-GMN42" style="stroke:#181818;stroke-width:1;stroke-dasharray:7,7;"/></g><?plantuml-src fLd_Rjl84VvVJx4mq9vq9qf9qRi_dCFXQ8bnXCYYAjdffJ3WMv4hQskAo-EITfIYG1-YJzWdwJUxIucIA2U-0u8aud9dP-V7DzyCls4_oxXzCm-yOJ0TXn-zovlHq9yCWaxhcyEbqMG-3GRN3Il3aJzkNfdUpARXl4cQFnW4yxatU1SCtZSi1xy4WvlhfesNuNZqWHQmD2ZpNAI5fsKiMAa5YxWMcYrLplhhEFPYaILgqsMnoEMZYDaoLsjMh0IJwomHQsmLCSH4AXRdh11uo0kXpy-lXiCxUzpT_FreF6RjwGgIcSzq8JBDNdklNx7lc7ruOHz2pciy_w63XHuExySgqdshWPVbQYaJWUTTjiOPkUI9_0oDP5eexEn52IzZqU-HAf_w-a4cYQvTeM_Km7QssB1VyHmRPV5hZyqBdiOyKQc0bBAGYInmNywqN2GolMTgQIq1Cy48NJO9hrckoi8TpNYwOVTGg6Vj-SwVN0Qi7MsYHB1Nh_xokdD-Q2zcb6DIGy2Zo0jdLko-BsNCqqXuAaqsJZnxUmFpMM-6inuR5R0MxP-E_ScSjKbu36E8gEXdPPufBVeGnQD8Q6qqqx0dthZF-Hh_6_41_ixBTA7KGwTBogLEV30tgherPkoQmEsioFboAQCUktvIB1LFJkm_bKpD3dWzzJBZIxDopeu34RBQJpnvs3k2buLArLgLEe7H5ucA7epDwVgyO1B12GkHAuIDaJTinPC2ibJAbZBN1HDvhl8Et12penXdRLtcInu9S-YoXDKMC1sEW8HrcHJImsg1O2UrdG9i8H3-TekvVGGbeKK7rySZbSJiJ7mIU2eeP5DLh4ZdFWo3j-Xgcl7FPrX8lNl5ZQDdmVLe5WnjZFmS2nqrGKQNdOrgOKB6FPrHv_K4hOB1_gBzDOzhw9eBRx71oqkEMviOSAvJcSWvBE0DmidRqUmg65RHL8iIOzt3G85_AZSAMbRLF_MGCKZ2FzFvaKeBBbEHUpm30lplF_z58gVydemN9QgCAHfMW9fyuq5mYkV8monBDkP_0817gQMYvtIbN1IwozoBDWfnI7NiMkBo1Tv6a2u8liWkrOi8AYEfQ-v5oMnMgY17XcMy91XyaiKA6RYDIs1CBl6EbOm_VBsGIDfYOoJH0w31PJ09Plvuz0_O4eaHht5friPDo0HBINUnUTfrMUfbdCxv97J7gXINEHrdeuoEabkLmiduOtDgT4rgsFInyMxoOya1cx5vfNVMQGe_LvRse-y8pMV1P1ZC79hdN1C4VuP25gajndxxRV_RNbQk4me3is1HK-o_eH_lUyoFOraWKhesKJXfVa91LnrVb1xcmkolhFqTEweW3fAhE4T-Ya-00M0EgW01_a96s8p8nIKH5IfViyoczXkpqm9uBhHA7c42U8UyTZ4E1-_d9kB5fooH4PvNwSMCw_ErZHo7C4-vDFxo9n-TaepdXIH8wh69GWbAJ2RRh7t3hhVQY1J_87IiDdmjg9GWDdbQwCQCHxWLUCIuPXTqEQI4N2v5laLRM5CNUHdHMoVSuAZ8xt33zwVSu0n1MUDomek9QAJLfRirUmjTSDHalSAzO_7Onqy2ZpuanYzq085FUcZWhaDmhdMvnXaarwCem64Uu2GMjW8uIRYxqvaPdJKRNh12YXn17vSf5NAgQJnwA3F4Ie6Jf4480wKe2OFmwegIQeXpYoULFu3mgFo9RoflrOFD5JAD2v4OIz7g04ufvpGpPm0DjSX9hQDewB41903l04o63uM3yHOC_47bQ9GqRtupU-iF0W-i1syCHiFWH73KsUZlY90VlX0XLQfK-Q7hWG4KLIL5FjdaQQLWMtyuDrQWNt-VZQXYaMytpXY4XoIs_Lvis0Vh_E55b_c36MgAMAk2G1KA0v05ZrQk4W28OtAZmtlyva3tWYxfNCW8odk6vfByNF3OMvI5PoBBeriW3heKLDpS2U5cH2COjw98H9TGoHb_I5bRgqA_bSW42YMpix0HcGB9v2DfjWqGL7_hNXUcNt9xvSBmQZeEhb_cViSBNkRvYlstNKzWoFyvuqio2t5Aom5sZcwagRBG8bcQictu129-HoTGTp-pH04d32mItki-N84gNg5dkT1HBetHkkIsB2CZooN1EfpmbAlq7c7mY7uZDhINTe51THtLgmWBgFYkMa1vs0zdFu4dUN9fAPHUgIVjQizowRWtaMAzTwD7oTa5ruYZKGppAOAE_c6vfxUPZvvW4bw5D_FnHuiMbZCWlcfWs8o15SaUpMR1Xs0s7rsC0oUQu95AeJ-TWcqGDyRMHrijP8h0ihpCLXf0cmrbgZoamXxtCh8Cfp79RIzABKH5maY5Lt_QyaNaiKpOIe3AhBne9Q874VVOEtzyFJ_DQvu9R0ePRpZxEBkPU1V1st0MUEPMNUQHK2-SUC5i5YBjlQbF0LqtnubWjyt5xq2vrzzRvg5XIFXnJPqd_B8nOKS0bP8OwbCywenwxCAYNqLHzvWr6JNAbTOx_gjY5713C6oNqzJZD9GKUcIwJEDfWtl6RS74Xn7kfhDmU3Eu7eMJkmjSPJIvx59at0MJ3q1D_zg_yEV1tPK_Un_0ZDERY_5eSFSkd5-Rro00BuvcuGJ5ZXvb6VE1St2XATnRHAq2vQkhE3YIhTSmbRSjobyC1kkzNRz3JeO2y4UzeQfrKbLNZl3UCNBITZSlQKTsZj9fjHAnBAWMv_9-HLrOBenBMYthXBFGNUMCK3tCMYrwWPjuEAEnHA5K4gsWFMjlfn5mlndG62-3vXLsvD0vO_zgCLA3j61dr0JkjMbKeNngliWcjlcwJNtgldRNEp-S3Toc3eSSFX7EoEAmiJFgNy8oegx1OAM83_sPEUjMM5bnxTkqRUWd-oMSxUXifyO3RzEgn5lmDGMpcQyP5OPMy9uIZWKPdDsvqR4Qg7187lVFRoQYpwWmjHlgAlYMaJGG4aj6RjD6DhBDXU-sR03wW0viDHJqb3ARrAc66okL26rKyKq_EI3OhAjJXKEjo9oxOccRxjlK5J7NSTVQxQx3Sq276NlHoN3ITd23d813Jyzg2BNDZCOe6DZ1oPwxNAZSAuy2x9mTpcnWWgz0jjlKcOY4RES0RdPZerMDiLG_UfJgZ3f0EkbUf9IOPF66AGgsppzS6Z5kK-lVhLQOCS_xoQM1-r45fFjP1OVxMNUGUrIPf19cjNI_giDQvWpMwsqFOEVinnzb6YLbB7xwgRRkJZovNbFXv3jEfuFrwYczOTKyAQ2oBAsBJqZX6Ckjb7ZrGXM5MbERNS772uPUUFlnDI8aorGEmcyvJCDugSTceDwQGG1RgrWa6ZijFIbuVW_AaejCMNvkX03U23uRvg7Ok9k87in33MMOLtCYKxbG7h7ZcKaHa8_lpOXSu6DNqxG8DB9gC_lrUL67HWHF3BncZfrWcltQjABFOZGBg8qLbRJaS7zsoQhPvVwi4dmEHIlkOHqsj4DsbD5vyBV3UILh4y-bSNrjiSAQDepMwRLe9aXkFtB-3hXVFDGXrQwstAaMWEUxMXsXUr26OaG2SWsjnBQZkOyb60Y06e48uG4txy6MnehLiuHfwWFEmRoF2iDNMEyPs-mgoeidBS_O1agUg6sIWc4BW8w37urOOA-QaIOAUmuklHjgpB7qsUoiHXaLXQFai59G81e6LMviSSJZiEz5Oue_v83zElhYOSOpJZYeuztziGIPr521TGb-lEB06ivIqySJXGXcEmungqqc202UcKKqJo6giruwZQ336kSHN_ROrqqO_f3dTWJZvOC8IlRwAA9toec7tx6mqKuXTbyrnFxNZFgaqp4iYovos-6xthlUqdTjIMdy7cRS9wZIKHzxy3tipJCjDX4Wa-1k3FA5J3lLG9FpzZferiV6fYRwb3TTfNZ6cLl6zl96-sGAreB4DkFX9B3zzxRlfifeEalqoMJWURrHDbyHZmafzXnHKjjAEqhHqDPYpxFV1wela8TibkxsDQrlWoEFcj_JoVPbzrJa5DgWr7Bx6TnsqTMqh5jzF7-K24Wt-yO6yzH-97SDRQBW0lS95NYrzrtf6ItTnwkTbly7?></g></svg>