<svg xmlns="http://www.w3.org/2000/svg" xmlns:xlink="http://www.w3.org/1999/xlink" contentStyleType="text/css" data-diagram-type="DESCRIPTION" height="1058px" preserveAspectRatio="none" style="width:1079px;height:1058px;background:#FFFFFF;" version="1.1" viewBox="0 0 1079 1058" width="1079px" zoomAndPan="magnify"><?plantuml 1.2026.3?><defs/><g><g class="title" data-source-line="23"><text fill="#000000" font-family="sans-serif" font-size="14" font-weight="700" lengthAdjust="spacing" textLength="417.334" x="327.503" y="23.5352">/mdd-deploy deployment guidance &#8212; use cases (current)</text></g><!--cluster mdd toolchain (utility, outside the parity gate)--><g class="cluster" data-qualified-name="mdd toolchain .utility. outside the parity gate." data-source-line="29" id="ent0003"><rect fill="none" height="440" rx="2.5" ry="2.5" style="stroke:#181818;stroke-width:1;" width="895.42" x="151.58" y="571.7683"/><text fill="#000000" font-family="sans-serif" font-size="14" font-weight="700" lengthAdjust="spacing" textLength="333.1768" x="432.7016" y="587.3034">mdd toolchain (utility, outside the parity gate)</text></g><!--entity Guide--><g class="entity" data-qualified-name="mdd toolchain .utility. outside the parity gate..Guide" data-source-line="30" id="ent0004"><ellipse cx="318.0157" cy="708.769" fill="#F1F1F1" rx="150.4457" ry="37.0607" style="stroke:#181818;stroke-width:0.5;"/><text fill="#000000" font-family="sans-serif" font-size="14" lengthAdjust="spacing" textLength="214.1289" x="210.9513" y="698.3385">Guide an Azure Container Apps</text><text fill="#000000" font-family="sans-serif" font-size="14" lengthAdjust="spacing" textLength="180.5029" x="227.7643" y="714.8268">deployment via a diagram,</text><text fill="#000000" font-family="sans-serif" font-size="14" lengthAdjust="spacing" textLength="190.0254" x="223.003" y="731.3151">runbook, and generated IaC</text></g><!--entity Dialect--><g class="entity" data-qualified-name="mdd toolchain .utility. outside the parity gate..Dialect" data-source-line="31" id="ent0005"><ellipse cx="846.9373" cy="644.7657" fill="#F1F1F1" rx="175.8873" ry="37.5775" style="stroke:#181818;stroke-width:0.5;"/><text fill="#000000" font-family="sans-serif" font-size="14" lengthAdjust="spacing" textLength="233.7959" x="730.0394" y="632.2786">Choose &amp; CONFIRM the IaC dialect</text><text fill="#000000" font-family="sans-serif" font-size="14" lengthAdjust="spacing" textLength="227.2061" x="733.3343" y="648.7669">(Bicep XOR Terraform) before any</text><text fill="#000000" font-family="sans-serif" font-size="14" lengthAdjust="spacing" textLength="249.0195" x="722.4275" y="665.2552">artifact is written &#8212; no silent default</text></g><!--entity Purpose--><g class="entity" data-qualified-name="mdd toolchain .utility. outside the parity gate..Purpose" data-source-line="32" id="ent0006"><ellipse cx="846.9419" cy="756.7707" fill="#F1F1F1" rx="184.0619" ry="39.2124" style="stroke:#181818;stroke-width:0.5;"/><text fill="#000000" font-family="sans-serif" font-size="14" lengthAdjust="spacing" textLength="230.1934" x="731.8452" y="741.8046">Confirm the deployment PURPOSE</text><text fill="#000000" font-family="sans-serif" font-size="14" lengthAdjust="spacing" textLength="206.377" x="743.7534" y="758.2929">(dev/staging/prod) before any</text><text fill="#000000" font-family="sans-serif" font-size="14" lengthAdjust="spacing" textLength="291.3135" x="701.2851" y="774.7811">purpose-driven default &#8212; no silent default</text></g><!--entity AccessCheck--><g class="entity" data-qualified-name="mdd toolchain .utility. outside the parity gate..AccessCheck" data-source-line="33" id="ent0007"><ellipse cx="846.9426" cy="868.7648" fill="#F1F1F1" rx="179.0326" ry="38.2065" style="stroke:#181818;stroke-width:0.5;"/><text fill="#000000" font-family="sans-serif" font-size="14" lengthAdjust="spacing" textLength="243.1133" x="725.386" y="856.2882">Account for who READS and WRITES</text><text fill="#000000" font-family="sans-serif" font-size="14" lengthAdjust="spacing" textLength="273.2803" x="710.3025" y="872.7765">every secured store (identity + admitted</text><text fill="#000000" font-family="sans-serif" font-size="14" lengthAdjust="spacing" textLength="257.585" x="718.1502" y="889.2648">path) before emitting &#8212; surface holes</text></g><!--entity Inspect--><g class="entity" data-qualified-name="mdd toolchain .utility. outside the parity gate..Inspect" data-source-line="34" id="ent0008"><ellipse cx="846.9448" cy="968.7692" fill="#F1F1F1" rx="122.2048" ry="26.841" style="stroke:#181818;stroke-width:0.5;"/><text fill="#000000" font-family="sans-serif" font-size="14" lengthAdjust="spacing" textLength="147.7861" x="773.0517" y="963.0497">Inspect the generated</text><text fill="#000000" font-family="sans-serif" font-size="14" lengthAdjust="spacing" textLength="190.9961" x="751.4467" y="979.5379">deployment diagram as SVG</text></g><!--entity Op--><g class="entity" data-qualified-name="Op" data-source-line="27" id="ent0002"><ellipse cx="36.2559" cy="879.0283" fill="#F1F1F1" rx="8" ry="8" style="stroke:#181818;stroke-width:0.5;"/><path d="M36.2559,887.0283 L36.2559,914.0283 M23.2559,895.0283 L49.2559,895.0283 M36.2559,914.0283 L23.2559,929.0283 M36.2559,914.0283 L49.2559,929.0283" fill="none" style="stroke:#181818;stroke-width:0.5;"/><text fill="#000000" font-family="sans-serif" font-size="14" lengthAdjust="spacing" textLength="60.5117" x="6" y="944.0634">Operator</text></g><g class="entity" data-qualified-name="GMN18" data-source-line="49" id="ent0019"><path d="M127.51,361.9083 L127.51,555.6348 A0,0 0 0 0 127.51,555.6348 L314.02,555.6348 L318.02,671.6583 L322.02,555.6348 L508.53,555.6348 A0,0 0 0 0 508.53,555.6348 L508.53,371.9083 L498.53,361.9083 L127.51,361.9083 A0,0 0 0 0 127.51,361.9083" fill="#FEFFDD" style="stroke:#181818;stroke-width:0.5;"/><path d="M498.53,361.9083 L498.53,371.9083 L508.53,371.9083 L498.53,361.9083" fill="#FEFFDD" style="stroke:#181818;stroke-width:0.5;"/><text fill="#000000" font-family="sans-serif" font-size="13" lengthAdjust="spacing" textLength="303.1514" x="133.51" y="379.4766">Implemented in templates::MDD_DEPLOY_SKILL:</text><text fill="#000000" font-family="sans-serif" font-size="13" lengthAdjust="spacing" textLength="329.8242" x="133.51" y="394.7872">v1 supports only azure-container-apps. Reads MDD</text><text fill="#000000" font-family="sans-serif" font-size="13" lengthAdjust="spacing" textLength="321.9023" x="133.51" y="410.0977">models + the target repo read-only. PAUSES with a</text><text fill="#000000" font-family="sans-serif" font-size="13" lengthAdjust="spacing" textLength="315.231" x="133.51" y="425.4083">BLOCKING clarification (step 3) on ambiguity OR a</text><text fill="#000000" font-family="sans-serif" font-size="13" lengthAdjust="spacing" textLength="329.1196" x="133.51" y="440.7188">GENERALIZED go-live landmine &#8212; any choice whose</text><text fill="#000000" font-family="sans-serif" font-size="13" lengthAdjust="spacing" textLength="327.0313" x="133.51" y="456.0294">correctness depends on a fact NOT grounded in the</text><text fill="#000000" font-family="sans-serif" font-size="13" lengthAdjust="spacing" textLength="331.3032" x="133.51" y="471.3399">inputs (app-config / purpose / access-path axes) &#8212;</text><text fill="#000000" font-family="sans-serif" font-size="13" lengthAdjust="spacing" textLength="339.7393" x="133.51" y="486.6505">surfacing the gap, never a buried runbook STOP note.</text><text fill="#000000" font-family="sans-serif" font-size="13" lengthAdjust="spacing" textLength="360.02" x="133.51" y="501.961">Writes diagram + runbook + SECURE-BY-DEFAULT IaC in</text><text fill="#000000" font-family="sans-serif" font-size="13" lengthAdjust="spacing" textLength="290.8179" x="133.51" y="517.2716">the confirmed dialect, then STOPS. Never runs</text><text fill="#000000" font-family="sans-serif" font-size="13" lengthAdjust="spacing" textLength="173.0879" x="133.51" y="532.5821">az/docker/terraform/brew.</text><text fill="#000000" font-family="sans-serif" font-size="13" lengthAdjust="spacing" textLength="235.1362" x="133.51" y="547.8927">Realized by SEQ-DEPLOY-GUIDANCE.</text></g><g class="entity" data-qualified-name="GMN21" data-source-line="64" id="ent0022"><path d="M663.18,43.4883 L663.18,130.041 L1030.6922,130.041 L1030.6922,53.4883 L1020.6922,43.4883 L663.18,43.4883" fill="#FEFFDD" style="stroke:#181818;stroke-width:0.5;"/><path d="M1020.6922,43.4883 L1020.6922,53.4883 L1030.6922,53.4883 L1020.6922,43.4883" fill="#FEFFDD" style="stroke:#181818;stroke-width:1;"/><text fill="#000000" font-family="sans-serif" font-size="13" lengthAdjust="spacing" textLength="346.5122" x="669.18" y="61.0566">Implemented in templates::MDD_DEPLOY_SKILL step 4.</text><text fill="#000000" font-family="sans-serif" font-size="13" lengthAdjust="spacing" textLength="330.2114" x="669.18" y="76.3672">Mandatory &#171;include&#187;: guidance cannot proceed until</text><text fill="#000000" font-family="sans-serif" font-size="13" lengthAdjust="spacing" textLength="293.5854" x="669.18" y="91.6777">the dialect is explicitly confirmed. One per run</text><text fill="#000000" font-family="sans-serif" font-size="13" lengthAdjust="spacing" textLength="341.5864" x="669.18" y="106.9883">(Bicep XOR Terraform). FULL PARITY; no silent default.</text><text fill="#000000" font-family="sans-serif" font-size="13" lengthAdjust="spacing" textLength="235.1362" x="669.18" y="122.2988">Realized by SEQ-DEPLOY-GUIDANCE.</text></g><g class="entity" data-qualified-name="GMN24" data-source-line="72" id="ent0025"><path d="M662.78,165.5283 L662.78,298.0127 L1031.0857,298.0127 L1031.0857,175.5283 L1021.0857,165.5283 L662.78,165.5283" fill="#FEFFDD" style="stroke:#181818;stroke-width:0.5;"/><path d="M1021.0857,165.5283 L1021.0857,175.5283 L1031.0857,175.5283 L1021.0857,165.5283" fill="#FEFFDD" style="stroke:#181818;stroke-width:1;"/><text fill="#000000" font-family="sans-serif" font-size="13" lengthAdjust="spacing" textLength="346.5122" x="668.78" y="183.0966">Implemented in templates::MDD_DEPLOY_SKILL step 5.</text><text fill="#000000" font-family="sans-serif" font-size="13" lengthAdjust="spacing" textLength="319.7378" x="668.78" y="198.4072">Mandatory &#171;include&#187;: no purpose-driven default is</text><text fill="#000000" font-family="sans-serif" font-size="13" lengthAdjust="spacing" textLength="320.9058" x="668.78" y="213.7177">generated until dev/staging/prod is confirmed. No</text><text fill="#000000" font-family="sans-serif" font-size="13" lengthAdjust="spacing" textLength="309.9751" x="668.78" y="229.0283">silent default; never assume prod- or dev-grade.</text><text fill="#000000" font-family="sans-serif" font-size="13" lengthAdjust="spacing" textLength="312.9902" x="668.78" y="244.3388">RECOMMENDS sizing/posture; operator confirms;</text><text fill="#000000" font-family="sans-serif" font-size="13" lengthAdjust="spacing" textLength="285.0479" x="668.78" y="259.6494">secure-by-default preserved. Constrained by</text><text fill="#000000" font-family="sans-serif" font-size="13" lengthAdjust="spacing" textLength="347.3057" x="668.78" y="274.9599">OCL-DEPLOY-IAC-PURPOSE / -SURFACE-NOT-DECIDE.</text><text fill="#000000" font-family="sans-serif" font-size="13" lengthAdjust="spacing" textLength="235.1362" x="668.78" y="290.2705">Realized by SEQ-DEPLOY-GUIDANCE.</text></g><g class="entity" data-qualified-name="GMN27" data-source-line="83" id="ent0028"><path d="M629.53,332.5283 L629.53,465.0127 L1064.3401,465.0127 L1064.3401,342.5283 L1054.3401,332.5283 L629.53,332.5283" fill="#FEFFDD" style="stroke:#181818;stroke-width:0.5;"/><path d="M1054.3401,332.5283 L1054.3401,342.5283 L1064.3401,342.5283 L1054.3401,332.5283" fill="#FEFFDD" style="stroke:#181818;stroke-width:1;"/><text fill="#000000" font-family="sans-serif" font-size="13" lengthAdjust="spacing" textLength="346.5122" x="635.53" y="350.0966">Implemented in templates::MDD_DEPLOY_SKILL step 6.</text><text fill="#000000" font-family="sans-serif" font-size="13" lengthAdjust="spacing" textLength="331.1255" x="635.53" y="365.4072">Mandatory &#171;include&#187;: before emitting, every secured</text><text fill="#000000" font-family="sans-serif" font-size="13" lengthAdjust="spacing" textLength="359.1631" x="635.53" y="380.7177">store must have a named READER and WRITER, each with</text><text fill="#000000" font-family="sans-serif" font-size="13" lengthAdjust="spacing" textLength="335.0166" x="635.53" y="396.0283">an admitted network path. A read-but-never-written</text><text fill="#000000" font-family="sans-serif" font-size="13" lengthAdjust="spacing" textLength="338.0698" x="635.53" y="411.3388">store, or a writer with no admitted path, is SURFACED</text><text fill="#000000" font-family="sans-serif" font-size="13" lengthAdjust="spacing" textLength="342.3291" x="635.53" y="426.6494">as a blocking question &#8212; not shipped. Constrained by</text><text fill="#000000" font-family="sans-serif" font-size="13" lengthAdjust="spacing" textLength="413.8101" x="635.53" y="441.9599">OCL-DEPLOY-IAC-ACCESS-COMPLETE / -SURFACE-NOT-DECIDE.</text><text fill="#000000" font-family="sans-serif" font-size="13" lengthAdjust="spacing" textLength="235.1362" x="635.53" y="457.2705">Realized by SEQ-DEPLOY-GUIDANCE.</text></g><g class="entity" data-qualified-name="GMN30" data-source-line="94" id="ent0031"><path d="M679.66,499.7983 L679.66,555.7299 L1014.2088,555.7299 L1014.2088,509.7983 L1004.2088,499.7983 L679.66,499.7983" fill="#FEFFDD" style="stroke:#181818;stroke-width:0.5;"/><path d="M1004.2088,499.7983 L1004.2088,509.7983 L1014.2088,509.7983 L1004.2088,499.7983" fill="#FEFFDD" style="stroke:#181818;stroke-width:1;"/><text fill="#000000" font-family="sans-serif" font-size="13" lengthAdjust="spacing" textLength="308.4072" x="685.66" y="517.3666">Not a gate. /mdd-validate, /mdd-review and the</text><text fill="#000000" font-family="sans-serif" font-size="13" lengthAdjust="spacing" textLength="313.5488" x="685.66" y="532.6772">/mdd-cycle parity loop never read .mdd/deploy/.</text><text fill="#000000" font-family="sans-serif" font-size="13" lengthAdjust="spacing" textLength="220.4351" x="685.66" y="547.9877">Realized by SEQ-DEPLOY-INSPECT.</text></g><!--link Op to Guide--><g class="link" data-entity-1="ent0002" data-entity-2="ent0004" data-link-type="dependency" data-source-line="37" id="lnk9"><path d="M54.22,870.0483 C64.27,850.5983 78.57,827.8183 96.51,811.7683 C133.12,779.0183 176.3779,756.9782 218.7779,740.2682" fill="none" id="Op-to-Guide" style="stroke:#181818;stroke-width:1;"/><polygon fill="#181818" points="224.36,738.0683,214.5202,737.6468,219.7082,739.9016,217.4534,745.0896,224.36,738.0683" style="stroke:#181818;stroke-width:1;"/></g><!--link Op to Dialect--><g class="link" data-entity-1="ent0002" data-entity-2="ent0005" data-link-type="dependency" data-source-line="38" id="lnk10"><path d="M66.96,896.1183 C76.27,892.5983 86.69,889.0983 96.51,886.7683 C205.94,860.7783 515.59,905.6283 599.53,830.7683 C644.11,791.0183 587.8,742.4983 629.53,699.7683 C646.26,682.6383 661.8794,672.6779 684.4994,664.2279" fill="none" id="Op-to-Dialect" style="stroke:#181818;stroke-width:1;"/><polygon fill="#181818" points="690.12,662.1283,680.2893,661.5307,685.4361,663.878,683.0888,669.0249,690.12,662.1283" style="stroke:#181818;stroke-width:1;"/></g><!--link Op to Purpose--><g class="link" data-entity-1="ent0002" data-entity-2="ent0006" data-link-type="dependency" data-source-line="39" id="lnk11"><path d="M66.68,911.0783 C169.62,918.5883 512.02,938.4783 599.53,878.7683 C626.15,860.6083 604.86,833.4983 629.53,812.7683 C647.66,797.5383 663.7841,788.4189 686.4441,780.2689" fill="none" id="Op-to-Purpose" style="stroke:#181818;stroke-width:1;"/><polygon fill="#181818" points="692.09,778.2383,682.2673,777.5203,687.3851,779.9305,684.9749,785.0482,692.09,778.2383" style="stroke:#181818;stroke-width:1;"/></g><!--link Op to AccessCheck--><g class="link" data-entity-1="ent0002" data-entity-2="ent0007" data-link-type="dependency" data-source-line="40" id="lnk12"><path d="M66.9,924.6283 C76.13,928.7783 86.51,932.6683 96.51,934.7683 C315.32,980.6583 378.85,970.5783 599.53,934.7683 C613.4,932.5183 616.05,928.7583 629.53,924.7683 C661.35,915.3583 690.2413,907.4911 722.3613,899.1811" fill="none" id="Op-to-AccessCheck" style="stroke:#181818;stroke-width:1;"/><polygon fill="#181818" points="728.17,897.6783,718.455,896.06,723.3294,898.9306,720.4588,903.805,728.17,897.6783" style="stroke:#181818;stroke-width:1;"/></g><!--link Op to Inspect--><g class="link" data-entity-1="ent0002" data-entity-2="ent0008" data-link-type="dependency" data-source-line="41" id="lnk13"><path d="M66.72,937.2683 C83.19,951.1883 104.91,966.4783 127.51,973.7683 C344.15,1043.6583 611.1099,1012.3932 749.9399,988.0832" fill="none" id="Op-to-Inspect" style="stroke:#181818;stroke-width:1;"/><polygon fill="#181818" points="755.85,987.0483,746.295,984.6606,750.9249,987.9107,747.6748,992.5407,755.85,987.0483" style="stroke:#181818;stroke-width:1;"/></g><!--link Guide to Dialect--><g class="link" data-entity-1="ent0004" data-entity-2="ent0005" data-link-type="dependency" data-source-line="43" id="lnk14"><path d="M453.69,692.4083 C526.87,683.5183 611.6737,673.2214 687.4537,664.0214" fill="none" id="Guide-to-Dialect" style="stroke:#181818;stroke-width:1;stroke-dasharray:7,7;"/><polygon fill="#181818" points="693.41,663.2983,683.9935,660.4121,688.4464,663.9009,684.9577,668.3538,693.41,663.2983" style="stroke:#181818;stroke-width:1;"/><text fill="#000000" font-family="sans-serif" font-size="13" lengthAdjust="spacing" textLength="59.3569" x="539.53" y="671.4166">&#171;include&#187;</text></g><!--link Guide to Purpose--><g class="link" data-entity-1="ent0004" data-entity-2="ent0006" data-link-type="dependency" data-source-line="44" id="lnk15"><path d="M468.44,711.5783 C510.87,713.2083 557.08,715.7583 599.53,719.7683 C632.69,722.8983 662.2631,726.6301 695.7031,731.5201" fill="none" id="Guide-to-Purpose" style="stroke:#181818;stroke-width:1;stroke-dasharray:7,7;"/><polygon fill="#181818" points="701.64,732.3883,693.3135,727.1281,696.6926,731.6648,692.1559,735.0439,701.64,732.3883" style="stroke:#181818;stroke-width:1;"/><text fill="#000000" font-family="sans-serif" font-size="13" lengthAdjust="spacing" textLength="59.3569" x="539.53" y="712.1066">&#171;include&#187;</text></g><!--link Guide to AccessCheck--><g class="link" data-entity-1="ent0004" data-entity-2="ent0007" data-link-type="dependency" data-source-line="45" id="lnk16"><path d="M456.3,723.6983 C504.32,733.5183 556.86,749.7983 599.53,776.7683 C617.43,788.0783 611.7,802.3583 629.53,813.7683 C651.41,827.7683 670.9239,836.4485 696.2839,844.2285" fill="none" id="Guide-to-AccessCheck" style="stroke:#181818;stroke-width:1;stroke-dasharray:7,7;"/><polygon fill="#181818" points="702.02,845.9883,694.589,839.5246,697.2399,844.5218,692.2426,847.1728,702.02,845.9883" style="stroke:#181818;stroke-width:1;"/><text fill="#000000" font-family="sans-serif" font-size="13" lengthAdjust="spacing" textLength="59.3569" x="539.53" y="745.4566">&#171;include&#187;</text></g><!--link Guide to Inspect--><g class="link" data-entity-1="ent0004" data-entity-2="ent0008" data-link-type="dependency" data-source-line="46" id="lnk17"><path d="M358.95,744.7183 C415.14,793.2983 522.66,879.0583 629.53,924.7683 C663.81,939.4283 697.3797,948.2193 733.1397,954.8193" fill="none" id="Guide-to-Inspect" style="stroke:#181818;stroke-width:1;stroke-dasharray:7,7;"/><polygon fill="#181818" points="739.04,955.9083,730.9155,950.3412,734.123,955.0008,729.4635,958.2084,739.04,955.9083" style="stroke:#181818;stroke-width:1;"/><text fill="#000000" font-family="sans-serif" font-size="13" lengthAdjust="spacing" textLength="57.1924" x="540.53" y="878.8566">&#171;extend&#187;</text></g><!--link Dialect to GMN21--><g class="link" data-entity-1="ent0005" data-entity-2="ent0022" data-link-type="association" data-source-line="64" id="lnk23"><path d="M687.26,628.7683 C641.77,615.9583 597.01,593.6783 569.03,555.2683 C518,485.2183 516.95,234.5483 569.03,165.2683 C592.15,134.5083 626.39,115.1383 663,103.0883" fill="none" id="Dialect-GMN21" style="stroke:#181818;stroke-width:1;stroke-dasharray:7,7;"/></g><!--link Purpose to GMN24--><g class="link" data-entity-1="ent0006" data-entity-2="ent0025" data-link-type="association" data-source-line="72" id="lnk26"><path d="M670.06,745.5783 C630.77,734.2983 593.57,714.9083 569.03,682.2683 C522.3,620.0983 524.35,395.9383 569.03,332.2683 C591.72,299.9283 625.91,277.9583 662.62,263.0283" fill="none" id="Purpose-GMN24" style="stroke:#181818;stroke-width:1;stroke-dasharray:7,7;"/></g><!--link AccessCheck to GMN27--><g class="link" data-entity-1="ent0007" data-entity-2="ent0028" data-link-type="association" data-source-line="83" id="lnk29"><path d="M672.52,859.7083 C632.31,848.8283 594.05,829.5483 569.03,796.2683 C489.98,691.1083 493.63,608.0783 569.03,500.2683 C584.63,477.9583 605.69,460.5383 629.27,446.9383" fill="none" id="AccessCheck-GMN27" style="stroke:#181818;stroke-width:1;stroke-dasharray:7,7;"/></g><!--link Inspect to GMN30--><g class="link" data-entity-1="ent0008" data-entity-2="ent0031" data-link-type="association" data-source-line="94" id="lnk32"><path d="M728,975.4683 C670.07,971.6783 605.26,955.4583 569.03,907.2683 C489.18,801.0483 489.2,714.5083 569.03,608.2683 C595.59,572.9283 636.72,552.3783 679.28,540.6183" fill="none" id="Inspect-GMN30" style="stroke:#181818;stroke-width:1;stroke-dasharray:7,7;"/></g><?plantuml-src fLZjRjj65lslfxZmZyQAHQb1j_bX5q5bYN65s99NijFD8a0x8aVIr1I7vGnbAui2-n3xXFiaU-vmA56oxAqRm40YSkP-ddllkNn5Fwhu-7OI1ltm-dBqARYu7VIxmrxORBpQVpKOJgx3tis1D_r1z_Bmc-lRyVLeSaXQjzSB9vEWzrFO-u3NED0hybocDZ0gbbGOIP4mqj1CvzHPnd4GoopHwnR5CbSh6TCirqko2qbgcILoYQioXfX8n_AKhCH3OQKvFRtgztyfbVuo-J2ulAHZOsLcw4tmvasJJgWDuPrOHwPJQWWW9ClrJ2KIhrgqX9XSYKHzWLALMatjA155B3jjrlNGCNSgIKpDnexJWykGD5tJhtY3Yyh-sgQ95Mai4ft2HQiIPU6G8AEcYKhdf6UbguW3l6pHS7H3kIvAnvngaQvf3eFQPSX-wWulGZgErb4YwTjltxnjdkw7X9nvf0ob-fww_UxrpU1ZIF_zzt_8tcjAvJq4wKpcmkeyc8c83M4LXevBTrWEPKMUQIDXRHH9Ou98imehK_neqczQfQmOecA4IaRMYS3fD7O69VZFKi7hJ71gOSqSLtCVLUzOaSxXBLndTs69RTEvjWksqLiqkHs_x_P2s6kLJiqPorxZ_KhcD1Lt49n24lxClSpB6FqOInCTWdYBZWQrCB43JuFcj8v1XaTS80n8NIr4y7oUYoKWPMHKv3AOhd5X9eh4UczPpq3qg0pMDkgzqV3zO7mLzZVHEu7eoSteEfYxItcHJhM-SyKWlh3iIATM8A1v8BBCj5nSENFt2W4JD4rqTCU_0TLSpLGaE624Fx6Sgda1uBdSy0D4_Y8SXkFkvU2VC66JAeO8lumMMaMIxXUQYrAZIYFBQMVV0LJZXBXy0M9mrUUmybAbMM4DAKkv534TmrwsVgRchHggO8j7LYROWmU9x9Q5-btd-yxRfZF75Bb7A4kUYmpISGXYKJg_5SlClT9SKZefsEKsXG_81eCdrJvRS6AvXCRsKVCGG7oZsyN7evOo3eVzSEnRIYuCDualq5Asax8Fl7xTUTtEYcN2DhaNPMNBtHDcDMzJDuwLHMDhmSwKqmvNdZ3GzziN0TZ5alv6noS-2C6sn_ccKM4FnIaVaCraJTod4DafyfyHi0SdSm4GBWdGPLIw2lGj9fS8-agwL7C-poz7lGyJXrdva2KgmlCAykGGa2zBM4ub3W5XkMAlgJlyL6LAv5QLdM2eqIOJLsTbJPtHpSOQcU8VBaXdZLWowbO0laY1l4Fr2DHPF29Xw9oTmrXHinbIo5quXUU8fh5v4V6f9zBWXzjVICFt1zD0h_gF-gr3_QPF-A39-1LIveF65UeF1p5FnhGAKAkM6scim8mn2ybbk-hWvno-ThYJlJ1PR56wduoMRyB2c6897ImtOCH0MO2k6CistImaRJpOEEXiDjG_9wjaZWA9qJr46c4mJaLqLsJ05SQCKrrDat7O6rrTSG7seHTZBB_31DVvlLXNcQq3i-mQ7Xr-T3XFwqsOIzHRv_HaWBFCsRH7w6bJ3n9iplqtvWa_wbrkcaUtLm63EXJuWHLWakD4Rz0Fdm1JdG_z1KIzVG9HtSVJkeQTgk2gAZDroA0Tev7RCb9e_eXwjpzniU5VFuy7D-64EEjh7o9m3SjYZpzWA7yiOT4_Rr6tDsuXYqjj8Tl2ZMQBf8WMVbYb1CQ71FkH9AgKafi4RD2cMZ6Oh46lz8fue0JJmWOEV06x0nzRZ3lXd0CYdGxWrTtbSBBK5ZSvdvi-Du7QnFozGB4msjnDMu8sHMDKApPnWn-C-ZBx7ibdkt32rCH3y_-mKkLzT7Lz6TuyWnd41nolpa9gr0C3dMkcR1TRxdmSbPowsMWaScOPuhcQBvYgy1277uq6qWvhZqRUxYEEnYXhDFY0IEVGUSJyrMgTH0juGSSRuWfcwiYwIn6whIsvQVE8_jKWDeEjeAEBWWyXpLrcBXoFahbG5ypbSrfpOwK4KwgIHxK-fvxsbFHWXq8vCvtWkgQUYpbzGvvGESkOSFdHzZazTjsU_Z4QRwT7izPAFwTLBJ12FA0EjpndGhyKl6E4Ro9kf6vzyqq19kpttrtzXtlvCoPSbnVg9dJBqZrGkMNLVauFbksc34ysrG9xK2uR2oK_vIBPaZ592vr8uqmfkqrl8QExkZc3r6HCB1ndgxAua_YAEaF6vEE5a-KlDVveD4OP1S4xdsx_emgy_ra5mV-i6-8VLV8Q9HpRxOqCEgKVVb1fb62dU_UkzjuBVV9zJSkJPohV-Rry09XYl6wat0gdsbgiiE1N5P1Vi8_WzEeDKf1bEhUcv2o7DeCsZT4a3K40hYoni2RCY3WLLkHpoQmyqsKdPI5jkkvYB4ryRyOTnmm6mukzLS9jqVHTStUdG5tndVe-CTT10YW_lrVWplER1Q_2Uvi5xlZTehPJe85MpABpQADmImIkFLeZDlI5faMkQWiNxs2yrM3X9lgP9ugfxNdLgHEQXBtRSHYSWvo7xxktbpT-pyCjkqDxV2ToWpPruYVWjauvf1cS5r_uQyGTkD26RNUckRnd2v3BScF689c4VzzVQTiDHCsP-mXYsqRrufs15L_nPmjqYNKTvgVRkHE9b7S_jBD8GYwQZqgyxpjhHSaia_Ks8cqQyMU1qdzSETYXs_J-5lPSTz6-FfqzReHV5vjj1tqnaNycDZ3oYLwkECtRSUQ2zPYL8rwr80qrutPl0QfpxaEKcwDIKUK9RdznmYk2l4_lpHchUBmgUI8SxrCPd7uHyVsg7EsEbXVJusVoj3VQMhkKbaFYfkEoC9OM0eqC1DLHFvwguNWxLiSrLijrd6uvPvtHCdqzJ5mhNIybiApiC8KjMOCbir1PzcSo-EVew5TbiXh414nRMEq-PvR4TWMPiVjkw3-3hfIyhxO-N71Fou-TdcycMcU-3DpNfVhNbsVCz9zujbR-3m00?></g></svg>