<svg xmlns="http://www.w3.org/2000/svg" xmlns:xlink="http://www.w3.org/1999/xlink" contentStyleType="text/css" data-diagram-type="DESCRIPTION" height="1731px" preserveAspectRatio="none" style="width:1082px;height:1731px;background:#FFFFFF;" version="1.1" viewBox="0 0 1082 1731" width="1082px" zoomAndPan="magnify"><?plantuml 1.2026.3?><defs/><g><g class="title" data-source-line="23"><text fill="#000000" font-family="sans-serif" font-size="14" font-weight="700" lengthAdjust="spacing" textLength="272.3369" x="401.3338" y="23.5352">mdd view &#8212; diagram viewer (current)</text></g><!--cluster mdd-viewer--><g class="cluster" data-qualified-name="mdd-viewer" data-source-line="29" id="ent0003"><rect fill="none" height="538" rx="2.5" ry="2.5" style="stroke:#181818;stroke-width:1;" width="821.25" x="189.68" y="785.4583"/><text fill="#000000" font-family="sans-serif" font-size="14" font-weight="700" lengthAdjust="spacing" textLength="88.7783" x="555.9158" y="800.9934">mdd-viewer</text></g><!--entity View--><g class="entity" data-qualified-name="mdd-viewer.View" data-source-line="30" id="ent0004"><ellipse cx="330.8349" cy="1080.4573" fill="#F1F1F1" rx="119.7449" ry="26.349" style="stroke:#181818;stroke-width:0.5;"/><text fill="#000000" font-family="sans-serif" font-size="14" lengthAdjust="spacing" textLength="157.6641" x="252.0028" y="1076.2236">View rendered diagram</text><text fill="#000000" font-family="sans-serif" font-size="14" lengthAdjust="spacing" textLength="172.3271" x="244.6713" y="1092.7119">(shapes AND text legible)</text></g><!--entity Browse--><g class="entity" data-qualified-name="mdd-viewer.Browse" data-source-line="31" id="ent0005"><ellipse cx="857.1731" cy="1036.4589" fill="#F1F1F1" rx="78.9031" ry="18.1806" style="stroke:#181818;stroke-width:0.5;"/><text fill="#000000" font-family="sans-serif" font-size="14" lengthAdjust="spacing" textLength="127.4697" x="793.4382" y="1041.203">Browse model files</text></g><!--entity PanZoom--><g class="entity" data-qualified-name="mdd-viewer.PanZoom" data-source-line="32" id="ent0006"><ellipse cx="857.1744" cy="846.4545" fill="#F1F1F1" rx="112.8544" ry="25.9162" style="stroke:#181818;stroke-width:0.5;"/><text fill="#000000" font-family="sans-serif" font-size="14" lengthAdjust="spacing" textLength="146.6787" x="783.835" y="842.3813">Pan and zoom canvas</text><text fill="#000000" font-family="sans-serif" font-size="14" lengthAdjust="spacing" textLength="158.0811" x="778.1339" y="858.8696">(scroll zoom, drag pan)</text></g><!--entity Fisheye--><g class="entity" data-qualified-name="mdd-viewer.Fisheye" data-source-line="33" id="ent0007"><ellipse cx="857.174" cy="1110.4551" fill="#F1F1F1" rx="93.784" ry="21.1568" style="stroke:#181818;stroke-width:0.5;"/><text fill="#000000" font-family="sans-serif" font-size="14" lengthAdjust="spacing" textLength="161.7725" x="776.2877" y="1115.1992">Focus via center fisheye</text></g><!--entity Panels--><g class="entity" data-qualified-name="mdd-viewer.Panels" data-source-line="34" id="ent0008"><ellipse cx="857.1743" cy="1191.4571" fill="#F1F1F1" rx="113.6443" ry="25.1289" style="stroke:#181818;stroke-width:0.5;"/><text fill="#000000" font-family="sans-serif" font-size="14" lengthAdjust="spacing" textLength="205.3584" x="754.4951" y="1196.2013">Collapse / expand side panels</text></g><!--entity Trace--><g class="entity" data-qualified-name="mdd-viewer.Trace" data-source-line="35" id="ent0009"><ellipse cx="330.8282" cy="1184.4559" fill="#F1F1F1" rx="123.2882" ry="27.0576" style="stroke:#181818;stroke-width:0.5;"/><text fill="#000000" font-family="sans-serif" font-size="14" lengthAdjust="spacing" textLength="226.0098" x="217.8233" y="1189.2001">Inspect model IDs and trace links</text></g><!--entity ViewOcl--><g class="entity" data-qualified-name="mdd-viewer.ViewOcl" data-source-line="36" id="ent0010"><ellipse cx="330.8339" cy="952.4592" fill="#F1F1F1" rx="103.0539" ry="25.9009" style="stroke:#181818;stroke-width:0.5;"/><text fill="#000000" font-family="sans-serif" font-size="14" lengthAdjust="spacing" textLength="144.0742" x="258.7968" y="949.5544">View OCL constraints</text><text fill="#000000" font-family="sans-serif" font-size="14" lengthAdjust="spacing" textLength="133.2666" x="264.2006" y="966.0427">(source or diagram)</text></g><!--entity ViewDeploy--><g class="entity" data-qualified-name="mdd-viewer.ViewDeploy" data-source-line="37" id="ent0011"><ellipse cx="330.8329" cy="856.4608" fill="#F1F1F1" rx="125.1529" ry="35.5525" style="stroke:#181818;stroke-width:0.5;"/><text fill="#000000" font-family="sans-serif" font-size="14" lengthAdjust="spacing" textLength="183.8115" x="238.9271" y="848.0059">View deployment diagrams</text><text fill="#000000" font-family="sans-serif" font-size="14" lengthAdjust="spacing" textLength="185.6162" x="238.0248" y="864.4942">(dedicated DEPLOY section,</text><text fill="#000000" font-family="sans-serif" font-size="14" lengthAdjust="spacing" textLength="124.332" x="268.6669" y="880.9825">NOT parity-gated)</text></g><!--entity Themed--><g class="entity" data-qualified-name="mdd-viewer.Themed" data-source-line="38" id="ent0012"><ellipse cx="857.1715" cy="945.4554" fill="#F1F1F1" rx="137.7515" ry="37.9072" style="stroke:#181818;stroke-width:0.5;"/><text fill="#000000" font-family="sans-serif" font-size="14" lengthAdjust="spacing" textLength="190.9482" x="761.6973" y="933.8101">View themed viewer chrome</text><text fill="#000000" font-family="sans-serif" font-size="14" lengthAdjust="spacing" textLength="188.7813" x="762.7808" y="950.2983">(Catppuccin, bundled fonts,</text><text fill="#000000" font-family="sans-serif" font-size="14" lengthAdjust="spacing" textLength="189.417" x="762.463" y="966.7866">OS appearance auto-follow)</text></g><!--entity ViewSource--><g class="entity" data-qualified-name="mdd-viewer.ViewSource" data-source-line="39" id="ent0013"><ellipse cx="857.1724" cy="1279.4548" fill="#F1F1F1" rx="128.7324" ry="28.1465" style="stroke:#181818;stroke-width:0.5;"/><text fill="#000000" font-family="sans-serif" font-size="14" lengthAdjust="spacing" textLength="148.4355" x="782.9546" y="1272.1449">View PlantUML source</text><text fill="#000000" font-family="sans-serif" font-size="14" lengthAdjust="spacing" textLength="217.1641" x="748.5903" y="1288.6332">(Source toggle next to Diagram)</text></g><!--entity Dev--><g class="entity" data-qualified-name="Dev" data-source-line="27" id="ent0002"><ellipse cx="40.1592" cy="1270.7083" fill="#F1F1F1" rx="8" ry="8" style="stroke:#181818;stroke-width:0.5;"/><path d="M40.1592,1278.7083 L40.1592,1305.7083 M27.1592,1286.7083 L53.1592,1286.7083 M40.1592,1305.7083 L27.1592,1320.7083 M40.1592,1305.7083 L53.1592,1320.7083" fill="none" style="stroke:#181818;stroke-width:0.5;"/><text fill="#000000" font-family="sans-serif" font-size="14" lengthAdjust="spacing" textLength="68.3184" x="6" y="1335.7434">Developer</text></g><g class="entity" data-qualified-name="GMN32" data-source-line="63" id="ent0033"><path d="M171.49,530.8683 L171.49,648.0421 L490.176,648.0421 L490.176,540.8683 L480.176,530.8683 L171.49,530.8683" fill="#FEFFDD" style="stroke:#181818;stroke-width:0.5;"/><path d="M480.176,530.8683 L480.176,540.8683 L490.176,540.8683 L480.176,530.8683" fill="#FEFFDD" style="stroke:#181818;stroke-width:1;"/><text fill="#000000" font-family="sans-serif" font-size="13" lengthAdjust="spacing" textLength="284.9971" x="177.49" y="548.4366">Code (USE-VIEW-OCL): when the selected file</text><text fill="#000000" font-family="sans-serif" font-size="13" lengthAdjust="spacing" textLength="289.4912" x="177.49" y="563.7472">kind is Constraint, MddViewer::ocl_ui shows a</text><text fill="#000000" font-family="sans-serif" font-size="13" lengthAdjust="spacing" textLength="271.1528" x="177.49" y="579.0577">Source | Diagram toggle. Source = raw .ocl</text><text fill="#000000" font-family="sans-serif" font-size="13" lengthAdjust="spacing" textLength="266.0811" x="177.49" y="594.3683">text (read-only, @id/context/inv colored);</text><text fill="#000000" font-family="sans-serif" font-size="13" lengthAdjust="spacing" textLength="274.3203" x="177.49" y="609.6788">Diagram = the synthesized constraints SVG</text><text fill="#000000" font-family="sans-serif" font-size="13" lengthAdjust="spacing" textLength="297.686" x="177.49" y="624.9894">(mdd_render::render_ocl_diagrams) painted via</text><text fill="#000000" font-family="sans-serif" font-size="13" lengthAdjust="spacing" textLength="265.1924" x="177.49" y="640.2999">paint_canvas. Realized by SEQ-VIEW-OCL.</text></g><g class="entity" data-qualified-name="GMN35" data-source-line="73" id="ent0036"><path d="M668.22,317.5283 L668.22,419.3916 L1046.136,419.3916 L1046.136,327.5283 L1036.136,317.5283 L668.22,317.5283" fill="#FEFFDD" style="stroke:#181818;stroke-width:0.5;"/><path d="M1036.136,317.5283 L1036.136,327.5283 L1046.136,327.5283 L1036.136,317.5283" fill="#FEFFDD" style="stroke:#181818;stroke-width:1;"/><text fill="#000000" font-family="sans-serif" font-size="13" lengthAdjust="spacing" textLength="316.6338" x="674.22" y="335.0966">Code (USE-FISHEYE-FOCUS): the canvas paints the</text><text fill="#000000" font-family="sans-serif" font-size="13" lengthAdjust="spacing" textLength="342.1387" x="674.22" y="350.4072">rendered texture through a center-fixed fisheye mesh</text><text fill="#000000" font-family="sans-serif" font-size="13" lengthAdjust="spacing" textLength="356.916" x="674.22" y="365.7177">(CanvasView::fisheye_mesh / warp) &#8212; the centre bulges,</text><text fill="#000000" font-family="sans-serif" font-size="13" lengthAdjust="spacing" textLength="354.3262" x="674.22" y="381.0283">content compresses toward the edges, corners stay put.</text><text fill="#000000" font-family="sans-serif" font-size="13" lengthAdjust="spacing" textLength="346.9375" x="674.22" y="396.3388">Layered on the scroll-at-cursor base zoom; drag pans.</text><text fill="#000000" font-family="sans-serif" font-size="13" lengthAdjust="spacing" textLength="221.0381" x="674.22" y="411.6494">Realized by SEQ-CANVAS-FISHEYE.</text></g><g class="entity" data-qualified-name="GMN38" data-source-line="82" id="ent0039"><path d="M677.55,43.4883 L677.55,99.4199 L1036.7976,99.4199 L1036.7976,53.4883 L1026.7976,43.4883 L677.55,43.4883" fill="#FEFFDD" style="stroke:#181818;stroke-width:0.5;"/><path d="M1026.7976,43.4883 L1026.7976,53.4883 L1036.7976,53.4883 L1026.7976,43.4883" fill="#FEFFDD" style="stroke:#181818;stroke-width:1;"/><text fill="#000000" font-family="sans-serif" font-size="13" lengthAdjust="spacing" textLength="338.2476" x="683.55" y="61.0566">The toolbar has no Reset / Zoom + / Zoom - buttons</text><text fill="#000000" font-family="sans-serif" font-size="13" lengthAdjust="spacing" textLength="325.0127" x="683.55" y="76.3672">(removed). Zoom is scroll-only at the cursor; pan is</text><text fill="#000000" font-family="sans-serif" font-size="13" lengthAdjust="spacing" textLength="318.2715" x="683.55" y="91.6777">drag-only. A small hint label replaces the buttons.</text></g><g class="entity" data-qualified-name="GMN41" data-source-line="88" id="ent0042"><path d="M669.94,454.1783 L669.94,540.731 L1044.4156,540.731 L1044.4156,464.1783 L1034.4156,454.1783 L669.94,454.1783" fill="#FEFFDD" style="stroke:#181818;stroke-width:0.5;"/><path d="M1034.4156,454.1783 L1034.4156,464.1783 L1044.4156,464.1783 L1034.4156,454.1783" fill="#FEFFDD" style="stroke:#181818;stroke-width:1;"/><text fill="#000000" font-family="sans-serif" font-size="13" lengthAdjust="spacing" textLength="353.4756" x="675.94" y="471.7466">Code (USE-TOGGLE-PANELS): each SidePanel renders an</text><text fill="#000000" font-family="sans-serif" font-size="13" lengthAdjust="spacing" textLength="303.0942" x="675.94" y="487.0572">inner-edge chevron; clicking it sets PanelLayout</text><text fill="#000000" font-family="sans-serif" font-size="13" lengthAdjust="spacing" textLength="316.8813" x="675.94" y="502.3677">collapsed and the panel shrinks to an exact-width</text><text fill="#000000" font-family="sans-serif" font-size="13" lengthAdjust="spacing" textLength="319.3696" x="675.94" y="517.6783">sliver button that re-expands on click. Realized by</text><text fill="#000000" font-family="sans-serif" font-size="13" lengthAdjust="spacing" textLength="146.1992" x="675.94" y="532.9888">SEQ-PANEL-COLLAPSE.</text></g><g class="entity" data-qualified-name="GMN44" data-source-line="96" id="ent0045"><path d="M135.32,683.1783 L135.32,769.731 L526.3439,769.731 L526.3439,693.1783 L516.3439,683.1783 L135.32,683.1783" fill="#FEFFDD" style="stroke:#181818;stroke-width:0.5;"/><path d="M516.3439,683.1783 L516.3439,693.1783 L526.3439,693.1783 L516.3439,683.1783" fill="#FEFFDD" style="stroke:#181818;stroke-width:1;"/><text fill="#000000" font-family="sans-serif" font-size="13" lengthAdjust="spacing" textLength="340.6787" x="141.32" y="700.7466">Reads pre-rendered SVGs from .mdd/rendered/. If no</text><text fill="#000000" font-family="sans-serif" font-size="13" lengthAdjust="spacing" textLength="329.4561" x="141.32" y="716.0572">models are mapped/rendered the canvas shows "No</text><text fill="#000000" font-family="sans-serif" font-size="13" lengthAdjust="spacing" textLength="297.5718" x="141.32" y="731.3677">rendered output". Text rendering is realized by</text><text fill="#000000" font-family="sans-serif" font-size="13" lengthAdjust="spacing" textLength="370.0239" x="141.32" y="746.6783">SEQ-RENDER-DIAGRAM-PAGE, which consults a populated</text><text fill="#000000" font-family="sans-serif" font-size="13" lengthAdjust="spacing" textLength="367.1548" x="141.32" y="761.9888">font database (DOM-FONT-DATABASE) before rasterizing.</text></g><g class="entity" data-qualified-name="GMN47" data-source-line="104" id="ent0048"><path d="M647.34,134.5583 L647.34,282.3532 L1067.0046,282.3532 L1067.0046,144.5583 L1057.0046,134.5583 L647.34,134.5583" fill="#FEFFDD" style="stroke:#181818;stroke-width:0.5;"/><path d="M1057.0046,134.5583 L1057.0046,144.5583 L1067.0046,144.5583 L1057.0046,134.5583" fill="#FEFFDD" style="stroke:#181818;stroke-width:1;"/><text fill="#000000" font-family="sans-serif" font-size="13" lengthAdjust="spacing" textLength="398.6646" x="653.34" y="152.1266">Code (USE-VIEWER-THEMED): crates/mdd-viewer/src/theme.rs</text><text fill="#000000" font-family="sans-serif" font-size="13" lengthAdjust="spacing" textLength="360.9341" x="653.34" y="167.4372">bundles assets/fonts/Inter-Regular.ttf, Inter-Medium.ttf,</text><text fill="#000000" font-family="sans-serif" font-size="13" lengthAdjust="spacing" textLength="345.4712" x="653.34" y="182.7477">and JetBrainsMono-Regular.ttf via include_bytes!. run()</text><text fill="#000000" font-family="sans-serif" font-size="13" lengthAdjust="spacing" textLength="349.4258" x="653.34" y="198.0583">registers them once through eframe's CreationContext.</text><text fill="#000000" font-family="sans-serif" font-size="13" lengthAdjust="spacing" textLength="373.5215" x="653.34" y="213.3688">MddViewer::update's FIRST call is theme::apply_theme(ctx),</text><text fill="#000000" font-family="sans-serif" font-size="13" lengthAdjust="spacing" textLength="251.3481" x="653.34" y="228.6794">which queries dark_light::detect(), picks</text><text fill="#000000" font-family="sans-serif" font-size="13" lengthAdjust="spacing" textLength="332.522" x="653.34" y="243.9899">catppuccin_egui::MOCHA / LATTE, and then mutates</text><text fill="#000000" font-family="sans-serif" font-size="13" lengthAdjust="spacing" textLength="365.917" x="653.34" y="259.3005">style.spacing.item_spacing and widget rounding. Realized</text><text fill="#000000" font-family="sans-serif" font-size="13" lengthAdjust="spacing" textLength="347.9087" x="653.34" y="274.611">by SEQ-APPLY-THEME, owned by CMP-VIEWER-THEME.</text></g><g class="entity" data-qualified-name="GMN50" data-source-line="116" id="ent0051"><path d="M146.06,317.2483 L146.06,495.6643 L515.6035,495.6643 L515.6035,327.2483 L505.6035,317.2483 L146.06,317.2483" fill="#FEFFDD" style="stroke:#181818;stroke-width:0.5;"/><path d="M505.6035,317.2483 L505.6035,327.2483 L515.6035,327.2483 L505.6035,317.2483" fill="#FEFFDD" style="stroke:#181818;stroke-width:1;"/><text fill="#000000" font-family="sans-serif" font-size="13" lengthAdjust="spacing" textLength="314.5518" x="152.06" y="334.8166">Code (USE-VIEW-DEPLOY): MddViewer::new() calls</text><text fill="#000000" font-family="sans-serif" font-size="13" lengthAdjust="spacing" textLength="301.5073" x="152.06" y="350.1272">project.deploy_files() as a third source; update()</text><text fill="#000000" font-family="sans-serif" font-size="13" lengthAdjust="spacing" textLength="317.2178" x="152.06" y="365.4377">builds deploy_tree and renders a "DEPLOY" header</text><text fill="#000000" font-family="sans-serif" font-size="13" lengthAdjust="spacing" textLength="297.2861" x="152.06" y="380.7483">("/mdd-deploy &#183; utility, not parity-gated") after</text><text fill="#000000" font-family="sans-serif" font-size="13" lengthAdjust="spacing" textLength="319.5474" x="152.06" y="396.0588">the rail-mode match, so it shows in Directory AND</text><text fill="#000000" font-family="sans-serif" font-size="13" lengthAdjust="spacing" textLength="325.1143" x="152.06" y="411.3694">By-cycle. Clicking a leaf -&gt; lookup_file -&gt; load_file</text><text fill="#000000" font-family="sans-serif" font-size="13" lengthAdjust="spacing" textLength="348.5435" x="152.06" y="426.6799">paints .mdd/rendered/deploy/&lt;rel&gt;.svg on the shared</text><text fill="#000000" font-family="sans-serif" font-size="13" lengthAdjust="spacing" textLength="338.8442" x="152.06" y="441.9905">canvas (same placeholder as any unrendered model if</text><text fill="#000000" font-family="sans-serif" font-size="13" lengthAdjust="spacing" textLength="250.9102" x="152.06" y="457.301">the SVG is absent). deploy_files() reuses</text><text fill="#000000" font-family="sans-serif" font-size="13" lengthAdjust="spacing" textLength="331.5889" x="152.06" y="472.6116">render_sources(RenderTree::Deploy) and is NEVER in</text><text fill="#000000" font-family="sans-serif" font-size="13" lengthAdjust="spacing" textLength="296.5688" x="152.06" y="487.9221">ModelRegistry. Realized by SEQ-VIEW-DEPLOY.</text></g><g class="entity" data-qualified-name="GMN53" data-source-line="130" id="ent0054"><path d="M649.83,575.5883 L649.83,769.3148 L1064.5116,769.3148 L1064.5116,585.5883 L1054.5116,575.5883 L649.83,575.5883" fill="#FEFFDD" style="stroke:#181818;stroke-width:0.5;"/><path d="M1054.5116,575.5883 L1054.5116,585.5883 L1064.5116,585.5883 L1054.5116,575.5883" fill="#FEFFDD" style="stroke:#181818;stroke-width:1;"/><text fill="#000000" font-family="sans-serif" font-size="13" lengthAdjust="spacing" textLength="361.2388" x="655.83" y="593.1566">Code (USE-VIEW-PUML-SOURCE): the CentralPanel toggle</text><text fill="#000000" font-family="sans-serif" font-size="13" lengthAdjust="spacing" textLength="331.3413" x="655.83" y="608.4672">row is Diagram | Source | Diff. Clicking "Source" sets</text><text fill="#000000" font-family="sans-serif" font-size="13" lengthAdjust="spacing" textLength="245.3369" x="655.83" y="623.7777">self.view = View::Source; update() calls</text><text fill="#000000" font-family="sans-serif" font-size="13" lengthAdjust="spacing" textLength="353.793" x="655.83" y="639.0883">MddViewer::source_ui (returning before the OCL/canvas</text><text fill="#000000" font-family="sans-serif" font-size="13" lengthAdjust="spacing" textLength="331.4111" x="655.83" y="654.3988">branch). source_ui reads the selected file's text once</text><text fill="#000000" font-family="sans-serif" font-size="13" lengthAdjust="spacing" textLength="318.8745" x="655.83" y="669.7094">into SourceView { loaded, source } and paints it via</text><text fill="#000000" font-family="sans-serif" font-size="13" lengthAdjust="spacing" textLength="351.6221" x="655.83" y="685.0199">egui::ScrollArea::both as read-only monospace &#8212; `' @`</text><text fill="#000000" font-family="sans-serif" font-size="13" lengthAdjust="spacing" textLength="343.6431" x="655.83" y="700.3305">marker lines yellow, `@start`/`@end` directives blue,</text><text fill="#000000" font-family="sans-serif" font-size="13" lengthAdjust="spacing" textLength="369.332" x="655.83" y="715.641">other `'` comments dimmed. No DiagramPage / usvg call,</text><text fill="#000000" font-family="sans-serif" font-size="13" lengthAdjust="spacing" textLength="209.9106" x="655.83" y="730.9516">so it works with no rendered SVG</text><text fill="#000000" font-family="sans-serif" font-size="13" lengthAdjust="spacing" textLength="299.1841" x="655.83" y="746.2621">(OCL-PUML-SOURCE-NO-RENDER). Realized by</text><text fill="#000000" font-family="sans-serif" font-size="13" lengthAdjust="spacing" textLength="393.6816" x="655.83" y="761.5727">SEQ-VIEW-PUML-SOURCE; state in DOM-PUML-SOURCE-VIEW.</text></g><!--link Dev to View--><g class="link" data-entity-1="ent0002" data-entity-2="ent0004" data-link-type="dependency" data-source-line="42" id="lnk14"><path d="M54.2,1262.0183 C68.53,1225.3883 95.03,1171.2483 135.32,1139.4583 C162.74,1117.8183 192.2485,1105.6187 225.2285,1096.9187" fill="none" id="Dev-to-View" style="stroke:#181818;stroke-width:1;"/><polygon fill="#181818" points="231.03,1095.3883,221.3074,1093.8162,226.1954,1096.6636,223.348,1101.5516,231.03,1095.3883" style="stroke:#181818;stroke-width:1;"/></g><!--link Dev to Browse--><g class="link" data-entity-1="ent0002" data-entity-2="ent0005" data-link-type="dependency" data-source-line="43" id="lnk15"><path d="M71.64,1338.9283 C81.05,1348.0483 92.16,1356.5483 104.32,1361.4583 C210.02,1404.1683 532.68,1437.8083 617.34,1361.4583 C665.45,1318.0683 602.99,1118.6883 647.34,1071.4583 C682,1034.5383 733.8317,1027.0736 779.8517,1028.1836" fill="none" id="Dev-to-Browse" style="stroke:#181818;stroke-width:1;"/><polygon fill="#181818" points="785.85,1028.3283,776.9491,1024.1124,780.8515,1028.2077,776.7562,1032.1101,785.85,1028.3283" style="stroke:#181818;stroke-width:1;"/></g><!--link Dev to PanZoom--><g class="link" data-entity-1="ent0002" data-entity-2="ent0006" data-link-type="dependency" data-source-line="44" id="lnk16"><path d="M74.78,1292.2483 C84.29,1290.1383 94.67,1288.0183 104.32,1286.4583 C217.46,1268.1383 536.94,1315.1283 617.34,1233.4583 C671.02,1178.9283 596.59,947.7183 647.34,890.4583 C671.61,863.0683 702.297,851.1625 738.127,845.7625" fill="none" id="Dev-to-PanZoom" style="stroke:#181818;stroke-width:1;"/><polygon fill="#181818" points="744.06,844.8683,734.5644,842.2542,739.1158,845.6134,735.7566,850.1649,744.06,844.8683" style="stroke:#181818;stroke-width:1;"/></g><!--link Dev to Fisheye--><g class="link" data-entity-1="ent0002" data-entity-2="ent0007" data-link-type="dependency" data-source-line="45" id="lnk17"><path d="M48.09,1339.1583 C55.93,1370.3083 72.08,1412.1383 104.32,1432.4583 C200.77,1493.2283 532.6,1508.7183 617.34,1432.4583 C664.52,1389.9983 604.18,1194.9783 647.34,1148.4583 C677.48,1115.9683 719.3957,1105.8789 761.7157,1104.0389" fill="none" id="Dev-to-Fisheye" style="stroke:#181818;stroke-width:1;"/><polygon fill="#181818" points="767.71,1103.7783,758.5447,1100.173,762.7147,1103.9955,758.8922,1108.1654,767.71,1103.7783" style="stroke:#181818;stroke-width:1;"/></g><!--link Dev to Panels--><g class="link" data-entity-1="ent0002" data-entity-2="ent0008" data-link-type="dependency" data-source-line="46" id="lnk18"><path d="M40.57,1339.1083 C42.19,1386.6583 53.04,1465.7083 104.32,1503.4583 C196.13,1571.0383 532.39,1579.4883 617.34,1503.4583 C662.33,1463.1983 606.57,1277.9783 647.34,1233.4583 C671.82,1206.7283 702.2221,1195.169 737.7521,1190.019" fill="none" id="Dev-to-Panels" style="stroke:#181818;stroke-width:1;"/><polygon fill="#181818" points="743.69,1189.1583,734.2093,1186.4907,738.7417,1189.8755,735.3569,1194.408,743.69,1189.1583" style="stroke:#181818;stroke-width:1;"/></g><!--link Dev to Trace--><g class="link" data-entity-1="ent0002" data-entity-2="ent0009" data-link-type="dependency" data-source-line="47" id="lnk19"><path d="M73.75,1261.9183 C82.85,1253.1083 93.3,1244.5583 104.32,1238.4583 C140.42,1218.4683 177.8916,1207.0299 216.8816,1199.0599" fill="none" id="Dev-to-Trace" style="stroke:#181818;stroke-width:1;"/><polygon fill="#181818" points="222.76,1197.8583,213.1413,1195.7417,217.8613,1198.8596,214.7434,1203.5797,222.76,1197.8583" style="stroke:#181818;stroke-width:1;"/></g><!--link Dev to ViewOcl--><g class="link" data-entity-1="ent0002" data-entity-2="ent0010" data-link-type="dependency" data-source-line="48" id="lnk20"><path d="M45.23,1261.8383 C53.09,1205.5083 75.26,1100.5483 135.32,1036.4583 C166.63,1003.0383 207.7659,984.0568 247.6459,971.5268" fill="none" id="Dev-to-ViewOcl" style="stroke:#181818;stroke-width:1;"/><polygon fill="#181818" points="253.37,969.7283,243.5848,968.6099,248.5999,971.227,245.9828,976.2421,253.37,969.7283" style="stroke:#181818;stroke-width:1;"/></g><!--link Dev to ViewDeploy--><g class="link" data-entity-1="ent0002" data-entity-2="ent0011" data-link-type="dependency" data-source-line="49" id="lnk21"><path d="M45.44,1262.0283 C56.05,1173.7183 86.26,959.9883 135.32,909.4583 C155.67,888.4883 177.6727,877.1779 205.8527,869.2779" fill="none" id="Dev-to-ViewDeploy" style="stroke:#181818;stroke-width:1;"/><polygon fill="#181818" points="211.63,867.6583,201.8844,866.2362,206.8156,869.008,204.0438,873.9392,211.63,867.6583" style="stroke:#181818;stroke-width:1;"/></g><!--link Dev to Themed--><g class="link" data-entity-1="ent0002" data-entity-2="ent0012" data-link-type="dependency" data-source-line="50" id="lnk22"><path d="M74.64,1306.9183 C185.44,1327.4583 537.74,1385.7883 617.34,1313.4583 C669.05,1266.4583 602.09,1053.6983 647.34,1000.4583 C666.83,977.5283 688.8552,965.2318 717.8252,956.8718" fill="none" id="Dev-to-Themed" style="stroke:#181818;stroke-width:1;"/><polygon fill="#181818" points="723.59,955.2083,713.8338,953.8604,718.786,956.5946,716.0519,961.5468,723.59,955.2083" style="stroke:#181818;stroke-width:1;"/></g><!--link Dev to ViewSource--><g class="link" data-entity-1="ent0002" data-entity-2="ent0013" data-link-type="dependency" data-source-line="51" id="lnk23"><path d="M44.28,1339.1283 C50.68,1407.5483 67.89,1545.4683 104.32,1574.4583 C282.74,1716.4283 411.55,1672.6283 617.34,1574.4583 C736.29,1517.7083 812.6249,1375.0211 841.4349,1312.9211" fill="none" id="Dev-to-ViewSource" style="stroke:#181818;stroke-width:1;"/><polygon fill="#181818" points="843.96,1307.4783,836.5439,1313.9591,841.8558,1312.0139,843.8009,1317.3259,843.96,1307.4783" style="stroke:#181818;stroke-width:1;"/></g><!--link View to Browse--><g class="link" data-entity-1="ent0004" data-entity-2="ent0005" data-link-type="dependency" data-source-line="53" id="lnk24"><path d="M450.41,1077.8883 C501.8,1076.1583 562.61,1073.2583 617.34,1068.4583 C676.42,1063.2683 737.3569,1054.902 785.2869,1047.682" fill="none" id="View-to-Browse" style="stroke:#181818;stroke-width:1;stroke-dasharray:7,7;"/><polygon fill="#181818" points="791.22,1046.7883,781.7246,1044.1735,786.2758,1047.5331,782.9162,1052.0843,791.22,1046.7883" style="stroke:#181818;stroke-width:1;"/><text fill="#000000" font-family="sans-serif" font-size="13" lengthAdjust="spacing" textLength="59.3569" x="557.34" y="1065.0266">&#171;include&#187;</text></g><!--link View to PanZoom--><g class="link" data-entity-1="ent0004" data-entity-2="ent0006" data-link-type="dependency" data-source-line="54" id="lnk25"><path d="M392.99,1057.5483 C432.11,1041.9683 483.39,1019.8283 526.34,995.4583 C569.57,970.9283 581.79,965.1883 617.34,930.4583 C633.24,914.9283 628.6,902.3983 647.34,890.4583 C677.41,871.2883 708.4858,861.376 742.9358,855.146" fill="none" id="View-to-PanZoom" style="stroke:#181818;stroke-width:1;stroke-dasharray:7,7;"/><polygon fill="#181818" points="748.84,854.0783,739.2718,851.7437,743.9198,854.9681,740.6955,859.616,748.84,854.0783" style="stroke:#181818;stroke-width:1;"/><text fill="#000000" font-family="sans-serif" font-size="13" lengthAdjust="spacing" textLength="57.1924" x="558.34" y="927.0266">&#171;extend&#187;</text></g><!--link View to Fisheye--><g class="link" data-entity-1="ent0004" data-entity-2="ent0007" data-link-type="dependency" data-source-line="55" id="lnk26"><path d="M411.26,1100.3583 C453.96,1110.0483 507.69,1120.6283 556.34,1125.4583 C630.25,1132.7883 708.8123,1127.9304 769.2423,1121.6304" fill="none" id="View-to-Fisheye" style="stroke:#181818;stroke-width:1;stroke-dasharray:7,7;"/><polygon fill="#181818" points="775.21,1121.0083,765.8438,1117.9631,770.237,1121.5267,766.6733,1125.9199,775.21,1121.0083" style="stroke:#181818;stroke-width:1;"/><text fill="#000000" font-family="sans-serif" font-size="13" lengthAdjust="spacing" textLength="57.1924" x="558.34" y="1122.0266">&#171;extend&#187;</text></g><!--link View to Panels--><g class="link" data-entity-1="ent0004" data-entity-2="ent0008" data-link-type="dependency" data-source-line="56" id="lnk27"><path d="M408.42,1100.9583 C444.59,1111.3383 488.11,1124.8183 526.34,1139.4583 C540.08,1144.7183 542.21,1149.3683 556.34,1153.4583 C617.84,1171.2283 682.843,1180.1639 740.293,1185.2039" fill="none" id="View-to-Panels" style="stroke:#181818;stroke-width:1;stroke-dasharray:7,7;"/><polygon fill="#181818" points="746.27,1185.7283,737.654,1180.9571,741.2891,1185.2913,736.9549,1188.9264,746.27,1185.7283" style="stroke:#181818;stroke-width:1;"/><text fill="#000000" font-family="sans-serif" font-size="13" lengthAdjust="spacing" textLength="57.1924" x="558.34" y="1150.0266">&#171;extend&#187;</text></g><!--link View to Themed--><g class="link" data-entity-1="ent0004" data-entity-2="ent0012" data-link-type="dependency" data-source-line="57" id="lnk28"><path d="M418.73,1062.1683 C475.66,1049.5183 551.46,1031.4283 617.34,1011.4583 C630.93,1007.3383 633.79,1004.7083 647.34,1000.4583 C681.41,989.7483 713.2325,980.906 747.0525,972.126" fill="none" id="View-to-Themed" style="stroke:#181818;stroke-width:1;stroke-dasharray:7,7;"/><polygon fill="#181818" points="752.86,970.6183,743.1437,969.0081,748.0204,971.8747,745.1539,976.7515,752.86,970.6183" style="stroke:#181818;stroke-width:1;"/><text fill="#000000" font-family="sans-serif" font-size="13" lengthAdjust="spacing" textLength="59.3569" x="557.34" y="1008.0266">&#171;include&#187;</text></g><!--link View to ViewSource--><g class="link" data-entity-1="ent0004" data-entity-2="ent0013" data-link-type="dependency" data-source-line="58" id="lnk29"><path d="M431.05,1095.2383 C463.98,1103.9183 499.14,1117.6783 526.34,1139.4583 C547.47,1156.3683 536.43,1174.1183 556.34,1192.4583 C589.11,1222.6283 605.09,1220.3483 647.34,1234.4583 C681.55,1245.8783 714.0328,1253.9107 748.4428,1260.9807" fill="none" id="View-to-ViewSource" style="stroke:#181818;stroke-width:1;stroke-dasharray:7,7;"/><polygon fill="#181818" points="754.32,1262.1883,746.3092,1256.4588,749.4223,1261.182,744.6991,1264.2951,754.32,1262.1883" style="stroke:#181818;stroke-width:1;"/><text fill="#000000" font-family="sans-serif" font-size="13" lengthAdjust="spacing" textLength="57.1924" x="558.34" y="1189.0266">&#171;extend&#187;</text></g><!--link ViewOcl to PanZoom--><g class="link" data-entity-1="ent0010" data-entity-2="ent0006" data-link-type="dependency" data-source-line="59" id="lnk30"><path d="M412.32,936.1783 C509.5,916.5383 666.3089,884.837 765.4089,864.807" fill="none" id="ViewOcl-to-PanZoom" style="stroke:#181818;stroke-width:1;stroke-dasharray:7,7;"/><polygon fill="#181818" points="771.29,863.6183,761.6759,861.4806,766.3891,864.6088,763.2608,869.322,771.29,863.6183" style="stroke:#181818;stroke-width:1;"/><text fill="#000000" font-family="sans-serif" font-size="13" lengthAdjust="spacing" textLength="57.1924" x="558.34" y="892.8466">&#171;extend&#187;</text></g><!--link ViewDeploy to PanZoom--><g class="link" data-entity-1="ent0011" data-entity-2="ent0006" data-link-type="dependency" data-source-line="60" id="lnk31"><path d="M456.09,854.0883 C543.61,852.4183 653.8011,850.3124 738.4111,848.7024" fill="none" id="ViewDeploy-to-PanZoom" style="stroke:#181818;stroke-width:1;stroke-dasharray:7,7;"/><polygon fill="#181818" points="744.41,848.5883,735.3355,844.7602,739.4109,848.6834,735.4877,852.7588,744.41,848.5883" style="stroke:#181818;stroke-width:1;"/><text fill="#000000" font-family="sans-serif" font-size="13" lengthAdjust="spacing" textLength="57.1924" x="558.34" y="847.7266">&#171;extend&#187;</text></g><!--link ViewOcl to GMN32--><g class="link" data-entity-1="ent0010" data-entity-2="ent0033" data-link-type="association" data-source-line="63" id="lnk34"><path d="M227.93,955.0883 C180.43,950.0683 129.25,934.1383 104.82,891.9583 C81.54,851.7683 81.54,723.1483 104.82,682.9583 C119.93,656.8683 144.04,638.0583 171,624.4983" fill="none" id="ViewOcl-GMN32" style="stroke:#181818;stroke-width:1;stroke-dasharray:7,7;"/></g><!--link Fisheye to GMN35--><g class="link" data-entity-1="ent0007" data-entity-2="ent0036" data-link-type="association" data-source-line="73" id="lnk37"><path d="M771.67,1119.5383 C709.21,1120.8483 628.44,1110.2983 586.84,1054.9583 C506.59,948.1983 507.92,561.6983 586.84,453.9583 C607.06,426.3583 636.22,407.4383 667.99,394.5283" fill="none" id="Fisheye-GMN35" style="stroke:#181818;stroke-width:1;stroke-dasharray:7,7;"/></g><!--link PanZoom to GMN38--><g class="link" data-entity-1="ent0006" data-entity-2="ent0039" data-link-type="association" data-source-line="82" id="lnk40"><path d="M744.35,844.4383 C687.52,836.9583 623.15,817.2483 586.84,768.9583 C544.51,712.6483 544.51,191.2683 586.84,134.9583 C608.93,105.5683 641.84,88.0583 677.17,77.9483" fill="none" id="PanZoom-GMN38" style="stroke:#181818;stroke-width:1;stroke-dasharray:7,7;"/></g><!--link Panels to GMN41--><g class="link" data-entity-1="ent0008" data-entity-2="ent0042" data-link-type="association" data-source-line="88" id="lnk43"><path d="M747.67,1198.4883 C689.81,1195.6483 623.37,1180.5483 586.84,1131.9583 C512.6,1033.1883 512.65,674.7583 586.84,575.9583 C607.53,548.4083 637.33,530.0783 669.64,517.9783" fill="none" id="Panels-GMN41" style="stroke:#181818;stroke-width:1;stroke-dasharray:7,7;"/></g><!--link View to GMN44--><g class="link" data-entity-1="ent0004" data-entity-2="ent0045" data-link-type="association" data-source-line="96" id="lnk46"><path d="M235.64,1064.1783 C186.76,1050.2983 131.92,1024.7483 104.82,977.9583 C70.07,917.9583 70.07,881.9483 104.82,821.9583 C117.52,800.0183 136.53,783.1283 158.22,770.1083" fill="none" id="View-GMN44" style="stroke:#181818;stroke-width:1;stroke-dasharray:7,7;"/></g><!--link Themed to GMN47--><g class="link" data-entity-1="ent0012" data-entity-2="ent0048" data-link-type="association" data-source-line="104" id="lnk49"><path d="M719.76,941.8283 C669.74,932.9383 617.89,913.2583 586.84,871.9583 C512.87,773.5483 518.04,420.0483 586.84,317.9583 C602.26,295.0683 623.37,276.9683 647.05,262.6483" fill="none" id="Themed-GMN47" style="stroke:#181818;stroke-width:1;stroke-dasharray:7,7;"/></g><!--link ViewDeploy to GMN50--><g class="link" data-entity-1="ent0011" data-entity-2="ent0051" data-link-type="association" data-source-line="116" id="lnk52"><path d="M214.95,842.6883 C171.74,830.9483 127.66,809.3983 104.82,769.9583 C78.2,723.9983 78.2,576.9183 104.82,530.9583 C115.31,512.8283 129.51,497.1783 145.71,483.6883" fill="none" id="ViewDeploy-GMN50" style="stroke:#181818;stroke-width:1;stroke-dasharray:7,7;"/></g><!--link ViewSource to GMN53--><g class="link" data-entity-1="ent0013" data-entity-2="ent0054" data-link-type="association" data-source-line="130" id="lnk55"><path d="M729.33,1283.5083 C676.3,1277.8183 619.62,1260.5583 586.84,1216.9583 C534.1,1146.7883 542.25,897.5683 586.84,821.9583 C602.44,795.5083 624.58,773.4083 649.56,755.0483" fill="none" id="ViewSource-GMN53" style="stroke:#181818;stroke-width:1;stroke-dasharray:7,7;"/></g><?plantuml-src bLdDSjl84RxpAIOyHEGQ0FUKIb6xBjCKRIibYOf8UxEfhQA6m91410881f14hxSgfpn0Ak-IUnvbdoHVTmz8KAIipM5N7CnV_tpT_KtxHBs9eyx7oSZ_T3xwmJyx7xo_6LnEkgqJzIOoDZoSybJxpDoR9CjDeUvZys2LLeL98rEOIAspo2GgYlMoq6kLfQfS6HMdlivp5UhqNblr49ShPLSwDzYPHgeqZwLAp3AU9oPeyyrEf7Vdam-Z7_5tFFpuHAIzgJsH5bbOMHoDktDTb2fRGBvQeFjOOnIQj3I5luWV8V4YjYkpCH1KbsgjbscyYB6Tv7O2q_B2iAnXjiuBO-dyCCCXQQdAx44N4QytqT9OJoLwmxPmsjkmo994BPDihXFrESlM-rfEn-_VNupywy7LwEA9bdjJUrg6E5Bdh6UXp6CEuKJcn2nATJa-mmRedy8PR6FC5F5ovQRKS7mr7VrbwbQmLLAuAOLLI0crmgR4UF1hcEXu7QVBdVSYk0-gHMQDHVkgC536muiZyC5NA72-pXEp9lD7VMLDOiAIpjOgoC84haXWhbK6I5r6qITWonJzFcPcLIomqMgILKLeUcVEeMMsN6BJh__ujvk1Id5QYYqA_Q1mBoFCK_MMnWAxIV77nfyDkJQrPI5paq_lZoXsDhg-6FzuB3Huugbw3HLIyz3fgYJJ4GNBzCFvpPcoBAwdyYBx6ymGH2PFiisCR60xNK_D8LTa9A1c1S83qcrm2iDm4oQcyJ5Gqzhrq21nuKXtHIQAGmrvr8b8gVxx7zLRHv4lzz6mAkCaBZUUIhEIOWQ__INjEL53WHbyzC5e7Aawv1w2Ydexddw0JO6GCYisBDRRZS-IiT0M2aCySc-0-tfoN--RRthV17crJavLcCJXdRW_CNe1gJbmoKni1ZXNd2N1zTWyhKuuUyVQ-sM0xTbTbSi1rkWYX8DLRIhrIZNjVEf6Z3ohKeGNeecIWxeakz-uRHwyfQx5KVr-OIZjTRgzUvt44Gm5hzmPawjucMR5KuKFWJIwyQSVHfUZiqCeRQVsmQGe2nMuoRBhxXbMFLk4FLXcROB2zbLHfP0Zr4d2s5uR4fJ4DyLiWLnbExyFmy0igtWMbezTX3221IdFbiYILQuwvwmtLAuINS1Gbu1EjOQhiI99I0Xnn0f8eApw3eU-q-iusVJxi4sU5MMSfJhnr9zC-POY2M6SfTdsoA_iftKsrnGF927Sij1LWaYyCtb9sYyWmbo7Tu1w8wwgdCo_hpGgJRAPyQ33YhuxlvbCbT7XIYqG_wQl8btSpH9AX_r-P4eu5PRxzP__ma5bdbTX6ASp4gFVjwRS7UKXUGu_3DGNTJ6OJaU8KKobCE06XOkaX-k3k3JhcHkexrNdZy6tdlf3yAq4Rf5LQIGp-4Pfb22tKJ_4oBhbfzXM6fhS8mOrOFyAII-DiWVy00wgG5rNg4FXgiX8YzhrAbwJxIrRpdkgWzVGzbJ5LAyg3Wa4-ueagIYG1B4iOfGPcvwKny90zTIGuhinTadrMYyfyvOhUoHlNd-ylF0duuytmz6HvDcOVPf12Ir3AhuwkUP2vR9z0PEa-2zRB2ZBrOdzIrq2lk3JOg4w11Fe0H0l6OqqxlTb4O0qhFEFsmPdMofAYu0232vghZzL0ZOW9OhXtvADY0pLWAEaT2fMSxF82YCaObjNUgw4pWkTXgj0xPOd-ZF205bAkoekfP7PIM9Eh70a794vMLcpdpbLciXp9wbVL2S4pB5jlc5l2EXSmOlf1Ahp0kq9qv81xkptvndLLii2-5aAKTPrG4AskG4cgS8cSGgTEM6GsMxXorkr0h8ONRXsOv84Vkci0Jbu1X5o-uQNt_Pkto1ZtwfvKXdLYRXinFU6bk1k0Etsv9RO5RdUmiBu4GNgAci2p5CLCZnIF_vFj4Tg04U_OCMP8HP559kTECy20KDUk-Cy3ZiyPCMTfT1BrGE5C6r6pQUTLLgN5a7oi2hmeVIv6AC--Q6sXdalvJ3QU8lGuG-tv25JQDQiGJa971wEAim2ifDxMA0GeTLlyapAN4Gzdo6e6J85Jg4DSvB1yKeYb9weJo8oexDRVYWpPPOXUnQWTHJtE8GsgNbLbW2djoDVjhQfyEIZNCjJ6WViU4MQfS8Mb2CObboBp6QhOW40sMOrhArYMIwS8ycC3C_fZ96hLKxAKwvMmsqsssP59kgBZ91ctIdZ2HaFnLvJKMEcEA-8mKPAgjghfpM9AwB7uK7gX99bVE73BX-uR2E4LBkdZGj8efRN2SH1zkBe35fbN1BrSM3WWDd70A9JmDHjjPYh8Po5bBjuoD9MInETQZ3zDiKbHgqMBT4fITJUaO2s-hcb29SCopRdXUrZp5t_Kzfnpwt1rTdUSwlBfzEcvY5laL-jQUXhUPbyRYv4KcOBCfe4n7HN4vTHePU4IRa96_wApyqptj5pZV4ceA_XpklVoU_cUiT83MgFF7kQiAylmS_cdlFKvZ2Uq-ZypBqx2qvlSNed-wOqFZ0clHyQJmFIJz01Bpdxxgmu3fE30mJubDUsuCSXk_ZPZnhlf_HgFDrZuRlZp_YeWnjSv3YGIKJXYbteUDje4DZ_bEu7ZAxAp9U8aikcVEB1HLl0Ymbmntwaf0IjSfkpTuBBijOlhHQGh7p_jM2k7ZXarSCQ9VMuHa5ZdXnS3yLlpOF93SsnizjsWsZNNE44RB6QGL2BfFhgk-_YD4ogoBn-lPjr4l8qT4QyDMUTlC_CYlJFJ8feprsxa_HmEtJ-kcXYXEVNj408KLaor8GrbROTdeS86xN_lk_lwkOULS5gCAg8ylbm6pJUaTUyIwfOt-1ipJ8Jr1FVSwwb4eN5dBmwMvhY4T7iSIVciUp5wJtLFH2lg7kAnVM1tx_qriVQ3bBgJ18dlPlexun4hKEsAooAmuoavj5CSbw05mvUWf-bUar6VzxQAMZX96BQvi2ykzIsC-z-lskF6-oQ5jYnJV2aTiKy4m-BvUevvh06wo0TXtoMi5etDwCvvD87NUHThbbygNIyvbL23IrihPjTZVxNOTyhp8gK-3WO7-XdXPAerCMnNfYlIn-bq2A5CfEXKd6wBHMMzZsrw71mzMamgItq5RlkIipqWFZWL71yQCleVrN_y6icH3Ogp1f4AyBpWES0P2SpqsBtX1NXJqbQhC0safrN16gWx1gC5BmOzcBo37_b2JCXvcvorzTLa0AsGyP-Zx0lhza92f-yYxRzdXIx6cqyl0NkYonjj5f0VlcPm_lWdAmgsRrILADjir28a5qLL1uffzExuH7anES68FRO9APkYQWZfAmmVjsAn2U-SoysADhXIzR27uulBWRNaw_vqX6J6tuM0NV-5lW8MYiiUhyR5AZp1J5S9RKU5W6CrrJgTekQOILfg7sLDQCADW5wsu6QKhQHpsmxVbSyKUPcT7Kskgcxuz3jFPwn3wiO_g4imqqC4Deihn8gvjX5DHYFyb8pzZjduqi4_DNKFnjC1sy7ar6tVZqMcfetyMTgApnlf6sjta_JkoPJ_uNM4ROAFO2Wbi3HOvRGO-Rik-PDK9OBJyYqBuqX_eAzX9WjkIPktTp2nCvLijby0ob-5qYdYWqkxIdX_jAGgZEPOVeFeZs4oOaO3IN9KsuuQ01XcJHvw2cuVKiSje98N77DtoiO5WeVwmHvAWTmoIm7xI3f__Ia_-FLmPAgTLMIXIagdcy6qUe7xlDisq2xw20dIAORN5zV_2Y-mzlu8PKSEBoytdFh2r6pPOfFQhThOHzfJdCFZGhRqNOq4JaDNMDaVFka7yBuYHE4gDk3qY7_Mh9hGxVbuZOt__2CHQ9j_zOkT1ktBqhU94tzEF4fkX7NPRYgd_GIoNWcxbhIUErWJzsKRlHxNByPtA_PBEQXQptN5TuUxpP_LvZaTS1j25VNLaWq4KE6yqh7qkELi_ugI-X5JGPCDutsWdkDn0kdb-i_wBcb5sAWdZX0ckFRD3KJBzZE3G-dC7c_BrwNfW-EkXfz6jt091GopJRUCtn5NFG2i1nHFW1MiyVtREEEfCyUIBHdMdOD7xLbeitbYWBhvRvS3U6Z7JaKTb2bb8vkDEV0qLnNZb3CVRbkip7tGaUEKXPNt1SRS_jzEE6G_ryVZhWPTzoek75_pVNZfEbss6hRDTcuwqR9xpUtsf3ZgDV69gMDpROPjrT0ffh5c08Qjcp2mByQk-BOFKO2dgBcb6XZQJY2KH6R1z7I7Ip_1m00?></g></svg>