<svg xmlns="http://www.w3.org/2000/svg" xmlns:xlink="http://www.w3.org/1999/xlink" contentStyleType="text/css" data-diagram-type="DESCRIPTION" height="1371px" preserveAspectRatio="none" style="width:1082px;height:1371px;background:#FFFFFF;" version="1.1" viewBox="0 0 1082 1371" width="1082px" zoomAndPan="magnify"><?plantuml 1.2026.3?><defs/><g><g class="title" data-source-line="20"><text fill="#000000" font-family="sans-serif" font-size="14" font-weight="700" lengthAdjust="spacing" textLength="272.3369" x="401.3338" y="23.5352">mdd view &#8212; diagram viewer (current)</text></g><!--cluster mdd-viewer--><g class="cluster" data-qualified-name="mdd-viewer" data-source-line="26" id="ent0003"><rect fill="none" height="447" rx="2.5" ry="2.5" style="stroke:#181818;stroke-width:1;" width="821.25" x="189.68" y="556.4483"/><text fill="#000000" font-family="sans-serif" font-size="14" font-weight="700" lengthAdjust="spacing" textLength="88.7783" x="555.9158" y="571.9834">mdd-viewer</text></g><!--entity View--><g class="entity" data-qualified-name="mdd-viewer.View" data-source-line="27" id="ent0004"><ellipse cx="330.8349" cy="810.4473" fill="#F1F1F1" rx="119.7449" ry="26.349" style="stroke:#181818;stroke-width:0.5;"/><text fill="#000000" font-family="sans-serif" font-size="14" lengthAdjust="spacing" textLength="157.6641" x="252.0028" y="806.2136">View rendered diagram</text><text fill="#000000" font-family="sans-serif" font-size="14" lengthAdjust="spacing" textLength="172.3271" x="244.6713" y="822.7019">(shapes AND text legible)</text></g><!--entity Browse--><g class="entity" data-qualified-name="mdd-viewer.Browse" data-source-line="28" id="ent0005"><ellipse cx="857.1731" cy="781.4489" fill="#F1F1F1" rx="78.9031" ry="18.1806" style="stroke:#181818;stroke-width:0.5;"/><text fill="#000000" font-family="sans-serif" font-size="14" lengthAdjust="spacing" textLength="127.4697" x="793.4382" y="786.193">Browse model files</text></g><!--entity PanZoom--><g class="entity" data-qualified-name="mdd-viewer.PanZoom" data-source-line="29" id="ent0006"><ellipse cx="857.1744" cy="617.4445" fill="#F1F1F1" rx="112.8544" ry="25.9162" style="stroke:#181818;stroke-width:0.5;"/><text fill="#000000" font-family="sans-serif" font-size="14" lengthAdjust="spacing" textLength="146.6787" x="783.835" y="613.3713">Pan and zoom canvas</text><text fill="#000000" font-family="sans-serif" font-size="14" lengthAdjust="spacing" textLength="158.0811" x="778.1339" y="629.8596">(scroll zoom, drag pan)</text></g><!--entity Fisheye--><g class="entity" data-qualified-name="mdd-viewer.Fisheye" data-source-line="30" id="ent0007"><ellipse cx="857.174" cy="855.4451" fill="#F1F1F1" rx="93.784" ry="21.1568" style="stroke:#181818;stroke-width:0.5;"/><text fill="#000000" font-family="sans-serif" font-size="14" lengthAdjust="spacing" textLength="161.7725" x="776.2877" y="860.1892">Focus via center fisheye</text></g><!--entity Panels--><g class="entity" data-qualified-name="mdd-viewer.Panels" data-source-line="31" id="ent0008"><ellipse cx="857.1743" cy="703.4471" fill="#F1F1F1" rx="113.6443" ry="25.1289" style="stroke:#181818;stroke-width:0.5;"/><text fill="#000000" font-family="sans-serif" font-size="14" lengthAdjust="spacing" textLength="205.3584" x="754.4951" y="708.1913">Collapse / expand side panels</text></g><!--entity Trace--><g class="entity" data-qualified-name="mdd-viewer.Trace" data-source-line="32" id="ent0009"><ellipse cx="330.8282" cy="898.4459" fill="#F1F1F1" rx="123.2882" ry="27.0576" style="stroke:#181818;stroke-width:0.5;"/><text fill="#000000" font-family="sans-serif" font-size="14" lengthAdjust="spacing" textLength="226.0098" x="217.8233" y="903.1901">Inspect model IDs and trace links</text></g><!--entity ViewOcl--><g class="entity" data-qualified-name="mdd-viewer.ViewOcl" data-source-line="33" id="ent0010"><ellipse cx="330.8339" cy="617.4492" fill="#F1F1F1" rx="103.0539" ry="25.9009" style="stroke:#181818;stroke-width:0.5;"/><text fill="#000000" font-family="sans-serif" font-size="14" lengthAdjust="spacing" textLength="144.0742" x="258.7968" y="614.5444">View OCL constraints</text><text fill="#000000" font-family="sans-serif" font-size="14" lengthAdjust="spacing" textLength="133.2666" x="264.2006" y="631.0327">(source or diagram)</text></g><!--entity ViewDeploy--><g class="entity" data-qualified-name="mdd-viewer.ViewDeploy" data-source-line="34" id="ent0011"><ellipse cx="330.8329" cy="713.4508" fill="#F1F1F1" rx="125.1529" ry="35.5525" style="stroke:#181818;stroke-width:0.5;"/><text fill="#000000" font-family="sans-serif" font-size="14" lengthAdjust="spacing" textLength="183.8115" x="238.9271" y="704.9959">View deployment diagrams</text><text fill="#000000" font-family="sans-serif" font-size="14" lengthAdjust="spacing" textLength="185.6162" x="238.0248" y="721.4842">(dedicated DEPLOY section,</text><text fill="#000000" font-family="sans-serif" font-size="14" lengthAdjust="spacing" textLength="124.332" x="268.6669" y="737.9725">NOT parity-gated)</text></g><!--entity Themed--><g class="entity" data-qualified-name="mdd-viewer.Themed" data-source-line="35" id="ent0012"><ellipse cx="857.1715" cy="949.4454" fill="#F1F1F1" rx="137.7515" ry="37.9072" style="stroke:#181818;stroke-width:0.5;"/><text fill="#000000" font-family="sans-serif" font-size="14" lengthAdjust="spacing" textLength="190.9482" x="761.6973" y="937.8001">View themed viewer chrome</text><text fill="#000000" font-family="sans-serif" font-size="14" lengthAdjust="spacing" textLength="188.7813" x="762.7808" y="954.2883">(Catppuccin, bundled fonts,</text><text fill="#000000" font-family="sans-serif" font-size="14" lengthAdjust="spacing" textLength="189.417" x="762.463" y="970.7766">OS appearance auto-follow)</text></g><!--entity Dev--><g class="entity" data-qualified-name="Dev" data-source-line="24" id="ent0002"><ellipse cx="40.1592" cy="948.7083" fill="#F1F1F1" rx="8" ry="8" style="stroke:#181818;stroke-width:0.5;"/><path d="M40.1592,956.7083 L40.1592,983.7083 M27.1592,964.7083 L53.1592,964.7083 M40.1592,983.7083 L27.1592,998.7083 M40.1592,983.7083 L53.1592,998.7083" fill="none" style="stroke:#181818;stroke-width:0.5;"/><text fill="#000000" font-family="sans-serif" font-size="14" lengthAdjust="spacing" textLength="68.3184" x="6" y="1013.7434">Developer</text></g><g class="entity" data-qualified-name="GMN29" data-source-line="57" id="ent0030"><path d="M171.49,88.8583 L171.49,206.0321 L490.176,206.0321 L490.176,98.8583 L480.176,88.8583 L171.49,88.8583" fill="#FEFFDD" style="stroke:#181818;stroke-width:0.5;"/><path d="M480.176,88.8583 L480.176,98.8583 L490.176,98.8583 L480.176,88.8583" fill="#FEFFDD" style="stroke:#181818;stroke-width:1;"/><text fill="#000000" font-family="sans-serif" font-size="13" lengthAdjust="spacing" textLength="284.9971" x="177.49" y="106.4266">Code (USE-VIEW-OCL): when the selected file</text><text fill="#000000" font-family="sans-serif" font-size="13" lengthAdjust="spacing" textLength="289.4912" x="177.49" y="121.7372">kind is Constraint, MddViewer::ocl_ui shows a</text><text fill="#000000" font-family="sans-serif" font-size="13" lengthAdjust="spacing" textLength="271.1528" x="177.49" y="137.0477">Source | Diagram toggle. Source = raw .ocl</text><text fill="#000000" font-family="sans-serif" font-size="13" lengthAdjust="spacing" textLength="266.0811" x="177.49" y="152.3583">text (read-only, @id/context/inv colored);</text><text fill="#000000" font-family="sans-serif" font-size="13" lengthAdjust="spacing" textLength="274.3203" x="177.49" y="167.6688">Diagram = the synthesized constraints SVG</text><text fill="#000000" font-family="sans-serif" font-size="13" lengthAdjust="spacing" textLength="297.686" x="177.49" y="182.9794">(mdd_render::render_ocl_diagrams) painted via</text><text fill="#000000" font-family="sans-serif" font-size="13" lengthAdjust="spacing" textLength="265.1924" x="177.49" y="198.2899">paint_canvas. Realized by SEQ-VIEW-OCL.</text></g><g class="entity" data-qualified-name="GMN32" data-source-line="67" id="ent0033"><path d="M668.22,255.5183 L668.22,357.3816 L1046.136,357.3816 L1046.136,265.5183 L1036.136,255.5183 L668.22,255.5183" fill="#FEFFDD" style="stroke:#181818;stroke-width:0.5;"/><path d="M1036.136,255.5183 L1036.136,265.5183 L1046.136,265.5183 L1036.136,255.5183" fill="#FEFFDD" style="stroke:#181818;stroke-width:1;"/><text fill="#000000" font-family="sans-serif" font-size="13" lengthAdjust="spacing" textLength="316.6338" x="674.22" y="273.0866">Code (USE-FISHEYE-FOCUS): the canvas paints the</text><text fill="#000000" font-family="sans-serif" font-size="13" lengthAdjust="spacing" textLength="342.1387" x="674.22" y="288.3972">rendered texture through a center-fixed fisheye mesh</text><text fill="#000000" font-family="sans-serif" font-size="13" lengthAdjust="spacing" textLength="356.916" x="674.22" y="303.7077">(CanvasView::fisheye_mesh / warp) &#8212; the centre bulges,</text><text fill="#000000" font-family="sans-serif" font-size="13" lengthAdjust="spacing" textLength="354.3262" x="674.22" y="319.0183">content compresses toward the edges, corners stay put.</text><text fill="#000000" font-family="sans-serif" font-size="13" lengthAdjust="spacing" textLength="346.9375" x="674.22" y="334.3288">Layered on the scroll-at-cursor base zoom; drag pans.</text><text fill="#000000" font-family="sans-serif" font-size="13" lengthAdjust="spacing" textLength="221.0381" x="674.22" y="349.6394">Realized by SEQ-CANVAS-FISHEYE.</text></g><g class="entity" data-qualified-name="GMN35" data-source-line="76" id="ent0036"><path d="M677.55,43.4883 L677.55,99.4199 L1036.7976,99.4199 L1036.7976,53.4883 L1026.7976,43.4883 L677.55,43.4883" fill="#FEFFDD" style="stroke:#181818;stroke-width:0.5;"/><path d="M1026.7976,43.4883 L1026.7976,53.4883 L1036.7976,53.4883 L1026.7976,43.4883" fill="#FEFFDD" style="stroke:#181818;stroke-width:1;"/><text fill="#000000" font-family="sans-serif" font-size="13" lengthAdjust="spacing" textLength="338.2476" x="683.55" y="61.0566">The toolbar has no Reset / Zoom + / Zoom - buttons</text><text fill="#000000" font-family="sans-serif" font-size="13" lengthAdjust="spacing" textLength="325.0127" x="683.55" y="76.3672">(removed). Zoom is scroll-only at the cursor; pan is</text><text fill="#000000" font-family="sans-serif" font-size="13" lengthAdjust="spacing" textLength="318.2715" x="683.55" y="91.6777">drag-only. A small hint label replaces the buttons.</text></g><g class="entity" data-qualified-name="GMN38" data-source-line="82" id="ent0039"><path d="M669.94,134.1783 L669.94,220.731 L1044.4156,220.731 L1044.4156,144.1783 L1034.4156,134.1783 L669.94,134.1783" fill="#FEFFDD" style="stroke:#181818;stroke-width:0.5;"/><path d="M1034.4156,134.1783 L1034.4156,144.1783 L1044.4156,144.1783 L1034.4156,134.1783" fill="#FEFFDD" style="stroke:#181818;stroke-width:1;"/><text fill="#000000" font-family="sans-serif" font-size="13" lengthAdjust="spacing" textLength="353.4756" x="675.94" y="151.7466">Code (USE-TOGGLE-PANELS): each SidePanel renders an</text><text fill="#000000" font-family="sans-serif" font-size="13" lengthAdjust="spacing" textLength="303.0942" x="675.94" y="167.0572">inner-edge chevron; clicking it sets PanelLayout</text><text fill="#000000" font-family="sans-serif" font-size="13" lengthAdjust="spacing" textLength="316.8813" x="675.94" y="182.3677">collapsed and the panel shrinks to an exact-width</text><text fill="#000000" font-family="sans-serif" font-size="13" lengthAdjust="spacing" textLength="319.3696" x="675.94" y="197.6783">sliver button that re-expands on click. Realized by</text><text fill="#000000" font-family="sans-serif" font-size="13" lengthAdjust="spacing" textLength="146.1992" x="675.94" y="212.9888">SEQ-PANEL-COLLAPSE.</text></g><g class="entity" data-qualified-name="GMN41" data-source-line="90" id="ent0042"><path d="M135.32,454.1783 L135.32,540.731 L526.3439,540.731 L526.3439,464.1783 L516.3439,454.1783 L135.32,454.1783" fill="#FEFFDD" style="stroke:#181818;stroke-width:0.5;"/><path d="M516.3439,454.1783 L516.3439,464.1783 L526.3439,464.1783 L516.3439,454.1783" fill="#FEFFDD" style="stroke:#181818;stroke-width:1;"/><text fill="#000000" font-family="sans-serif" font-size="13" lengthAdjust="spacing" textLength="340.6787" x="141.32" y="471.7466">Reads pre-rendered SVGs from .mdd/rendered/. If no</text><text fill="#000000" font-family="sans-serif" font-size="13" lengthAdjust="spacing" textLength="329.4561" x="141.32" y="487.0572">models are mapped/rendered the canvas shows "No</text><text fill="#000000" font-family="sans-serif" font-size="13" lengthAdjust="spacing" textLength="297.5718" x="141.32" y="502.3677">rendered output". Text rendering is realized by</text><text fill="#000000" font-family="sans-serif" font-size="13" lengthAdjust="spacing" textLength="370.0239" x="141.32" y="517.6783">SEQ-RENDER-DIAGRAM-PAGE, which consults a populated</text><text fill="#000000" font-family="sans-serif" font-size="13" lengthAdjust="spacing" textLength="367.1548" x="141.32" y="532.9888">font database (DOM-FONT-DATABASE) before rasterizing.</text></g><g class="entity" data-qualified-name="GMN44" data-source-line="98" id="ent0045"><path d="M647.34,392.5483 L647.34,540.3432 L1067.0046,540.3432 L1067.0046,402.5483 L1057.0046,392.5483 L647.34,392.5483" fill="#FEFFDD" style="stroke:#181818;stroke-width:0.5;"/><path d="M1057.0046,392.5483 L1057.0046,402.5483 L1067.0046,402.5483 L1057.0046,392.5483" fill="#FEFFDD" style="stroke:#181818;stroke-width:1;"/><text fill="#000000" font-family="sans-serif" font-size="13" lengthAdjust="spacing" textLength="398.6646" x="653.34" y="410.1166">Code (USE-VIEWER-THEMED): crates/mdd-viewer/src/theme.rs</text><text fill="#000000" font-family="sans-serif" font-size="13" lengthAdjust="spacing" textLength="360.9341" x="653.34" y="425.4272">bundles assets/fonts/Inter-Regular.ttf, Inter-Medium.ttf,</text><text fill="#000000" font-family="sans-serif" font-size="13" lengthAdjust="spacing" textLength="345.4712" x="653.34" y="440.7377">and JetBrainsMono-Regular.ttf via include_bytes!. run()</text><text fill="#000000" font-family="sans-serif" font-size="13" lengthAdjust="spacing" textLength="349.4258" x="653.34" y="456.0483">registers them once through eframe's CreationContext.</text><text fill="#000000" font-family="sans-serif" font-size="13" lengthAdjust="spacing" textLength="373.5215" x="653.34" y="471.3588">MddViewer::update's FIRST call is theme::apply_theme(ctx),</text><text fill="#000000" font-family="sans-serif" font-size="13" lengthAdjust="spacing" textLength="251.3481" x="653.34" y="486.6694">which queries dark_light::detect(), picks</text><text fill="#000000" font-family="sans-serif" font-size="13" lengthAdjust="spacing" textLength="332.522" x="653.34" y="501.9799">catppuccin_egui::MOCHA / LATTE, and then mutates</text><text fill="#000000" font-family="sans-serif" font-size="13" lengthAdjust="spacing" textLength="365.917" x="653.34" y="517.2905">style.spacing.item_spacing and widget rounding. Realized</text><text fill="#000000" font-family="sans-serif" font-size="13" lengthAdjust="spacing" textLength="347.9087" x="653.34" y="532.601">by SEQ-APPLY-THEME, owned by CMP-VIEWER-THEME.</text></g><g class="entity" data-qualified-name="GMN47" data-source-line="110" id="ent0048"><path d="M146.06,241.2383 L146.06,419.6543 L515.6035,419.6543 L515.6035,251.2383 L505.6035,241.2383 L146.06,241.2383" fill="#FEFFDD" style="stroke:#181818;stroke-width:0.5;"/><path d="M505.6035,241.2383 L505.6035,251.2383 L515.6035,251.2383 L505.6035,241.2383" fill="#FEFFDD" style="stroke:#181818;stroke-width:1;"/><text fill="#000000" font-family="sans-serif" font-size="13" lengthAdjust="spacing" textLength="314.5518" x="152.06" y="258.8066">Code (USE-VIEW-DEPLOY): MddViewer::new() calls</text><text fill="#000000" font-family="sans-serif" font-size="13" lengthAdjust="spacing" textLength="301.5073" x="152.06" y="274.1172">project.deploy_files() as a third source; update()</text><text fill="#000000" font-family="sans-serif" font-size="13" lengthAdjust="spacing" textLength="317.2178" x="152.06" y="289.4277">builds deploy_tree and renders a "DEPLOY" header</text><text fill="#000000" font-family="sans-serif" font-size="13" lengthAdjust="spacing" textLength="297.2861" x="152.06" y="304.7383">("/mdd-deploy &#183; utility, not parity-gated") after</text><text fill="#000000" font-family="sans-serif" font-size="13" lengthAdjust="spacing" textLength="319.5474" x="152.06" y="320.0488">the rail-mode match, so it shows in Directory AND</text><text fill="#000000" font-family="sans-serif" font-size="13" lengthAdjust="spacing" textLength="325.1143" x="152.06" y="335.3594">By-cycle. Clicking a leaf -&gt; lookup_file -&gt; load_file</text><text fill="#000000" font-family="sans-serif" font-size="13" lengthAdjust="spacing" textLength="348.5435" x="152.06" y="350.6699">paints .mdd/rendered/deploy/&lt;rel&gt;.svg on the shared</text><text fill="#000000" font-family="sans-serif" font-size="13" lengthAdjust="spacing" textLength="338.8442" x="152.06" y="365.9805">canvas (same placeholder as any unrendered model if</text><text fill="#000000" font-family="sans-serif" font-size="13" lengthAdjust="spacing" textLength="250.9102" x="152.06" y="381.291">the SVG is absent). deploy_files() reuses</text><text fill="#000000" font-family="sans-serif" font-size="13" lengthAdjust="spacing" textLength="331.5889" x="152.06" y="396.6016">render_sources(RenderTree::Deploy) and is NEVER in</text><text fill="#000000" font-family="sans-serif" font-size="13" lengthAdjust="spacing" textLength="296.5688" x="152.06" y="411.9121">ModelRegistry. Realized by SEQ-VIEW-DEPLOY.</text></g><!--link Dev to View--><g class="link" data-entity-1="ent0002" data-entity-2="ent0004" data-link-type="dependency" data-source-line="38" id="lnk13"><path d="M60.56,939.7583 C76.73,911.5183 102.41,874.6083 135.32,853.4483 C160.48,837.2683 184.9876,828.396 214.1676,822.036" fill="none" id="Dev-to-View" style="stroke:#181818;stroke-width:1;"/><polygon fill="#181818" points="220.03,820.7583,210.3846,818.7667,215.1447,821.8231,212.0883,826.5831,220.03,820.7583" style="stroke:#181818;stroke-width:1;"/></g><!--link Dev to Browse--><g class="link" data-entity-1="ent0002" data-entity-2="ent0005" data-link-type="dependency" data-source-line="39" id="lnk14"><path d="M55.31,1016.7683 C65.42,1038.1783 81.35,1062.9983 104.32,1075.4483 C204.54,1129.7883 532.22,1151.2883 617.34,1075.4483 C660.61,1036.9083 607.42,858.4483 647.34,816.4483 C682.1,779.8783 733.6214,772.3288 779.5014,773.3188" fill="none" id="Dev-to-Browse" style="stroke:#181818;stroke-width:1;"/><polygon fill="#181818" points="785.5,773.4483,776.5884,769.2551,780.5012,773.3404,776.4158,777.2532,785.5,773.4483" style="stroke:#181818;stroke-width:1;"/></g><!--link Dev to PanZoom--><g class="link" data-entity-1="ent0002" data-entity-2="ent0006" data-link-type="dependency" data-source-line="40" id="lnk15"><path d="M74.78,981.5183 C186.05,990.8783 539.64,1014.1383 617.34,939.4483 C662.3,896.2383 605.41,706.6083 647.34,660.4483 C671.86,633.4583 702.4843,621.754 738.2043,616.484" fill="none" id="Dev-to-PanZoom" style="stroke:#181818;stroke-width:1;"/><polygon fill="#181818" points="744.14,615.6083,734.6526,612.9647,739.1935,616.3381,735.8202,620.8791,744.14,615.6083" style="stroke:#181818;stroke-width:1;"/></g><!--link Dev to Fisheye--><g class="link" data-entity-1="ent0002" data-entity-2="ent0007" data-link-type="dependency" data-source-line="41" id="lnk16"><path d="M43.53,1017.0383 C48.29,1056.9683 62.43,1117.4483 104.32,1146.4483 C198.05,1211.3483 532.1,1222.1483 617.34,1146.4483 C701.68,1071.5583 570.27,976.7983 647.34,894.4483 C677.4,862.3383 718.7784,851.9948 760.8084,849.7748" fill="none" id="Dev-to-Fisheye" style="stroke:#181818;stroke-width:1;"/><polygon fill="#181818" points="766.8,849.4583,757.6015,845.9386,761.807,849.722,758.0235,853.9274,766.8,849.4583" style="stroke:#181818;stroke-width:1;"/></g><!--link Dev to Panels--><g class="link" data-entity-1="ent0002" data-entity-2="ent0008" data-link-type="dependency" data-source-line="42" id="lnk17"><path d="M74.56,994.6683 C83.98,998.5483 94.37,1002.2183 104.32,1004.4483 C215.67,1029.4283 532.49,1103.7583 617.34,1027.4483 C664.2,985.3083 604.89,792.0283 647.34,745.4483 C671.76,718.6683 702.1418,707.0871 737.6818,701.9471" fill="none" id="Dev-to-Panels" style="stroke:#181818;stroke-width:1;"/><polygon fill="#181818" points="743.62,701.0883,734.1401,698.4177,738.6715,701.804,735.2852,706.3353,743.62,701.0883" style="stroke:#181818;stroke-width:1;"/></g><!--link Dev to Trace--><g class="link" data-entity-1="ent0002" data-entity-2="ent0009" data-link-type="dependency" data-source-line="43" id="lnk18"><path d="M74.56,963.5683 C84.06,959.6483 94.5,955.6283 104.32,952.4483 C147.99,938.3283 191.6238,927.3842 233.1038,918.1342" fill="none" id="Dev-to-Trace" style="stroke:#181818;stroke-width:1;"/><polygon fill="#181818" points="238.96,916.8283,229.3052,914.8831,234.0799,917.9165,231.0464,922.6913,238.96,916.8283" style="stroke:#181818;stroke-width:1;"/></g><!--link Dev to ViewOcl--><g class="link" data-entity-1="ent0002" data-entity-2="ent0010" data-link-type="dependency" data-source-line="44" id="lnk19"><path d="M40.77,939.7483 C42.33,872.6183 55.71,734.6483 135.32,660.4483 C160.24,637.2183 188.8651,626.5153 221.9351,620.8853" fill="none" id="Dev-to-ViewOcl" style="stroke:#181818;stroke-width:1;"/><polygon fill="#181818" points="227.85,619.8783,218.3063,617.4455,222.9209,620.7174,219.649,625.332,227.85,619.8783" style="stroke:#181818;stroke-width:1;"/></g><!--link Dev to ViewDeploy--><g class="link" data-entity-1="ent0002" data-entity-2="ent0011" data-link-type="dependency" data-source-line="45" id="lnk20"><path d="M47.85,939.9383 C58.18,892.2283 82.61,811.6983 135.32,766.4483 C157.63,747.2983 180.4583,736.6121 208.8283,728.7421" fill="none" id="Dev-to-ViewDeploy" style="stroke:#181818;stroke-width:1;"/><polygon fill="#181818" points="214.61,727.1383,204.8683,725.6896,209.7919,728.4748,207.0068,733.3985,214.61,727.1383" style="stroke:#181818;stroke-width:1;"/></g><!--link Dev to Themed--><g class="link" data-entity-1="ent0002" data-entity-2="ent0012" data-link-type="dependency" data-source-line="46" id="lnk21"><path d="M45.65,1016.8283 C53.68,1077.9683 72.69,1193.0983 104.32,1217.4483 C284.97,1356.5683 409.28,1310.7283 617.34,1217.4483 C723.69,1169.7783 799.182,1053.9854 833.722,992.2054" fill="none" id="Dev-to-Themed" style="stroke:#181818;stroke-width:1;"/><polygon fill="#181818" points="836.65,986.9683,828.7667,992.8719,834.21,991.3325,835.7495,996.7759,836.65,986.9683" style="stroke:#181818;stroke-width:1;"/></g><!--link View to Browse--><g class="link" data-entity-1="ent0004" data-entity-2="ent0005" data-link-type="dependency" data-source-line="48" id="lnk22"><path d="M429.37,825.8183 C468.7,831.2883 514.57,836.7683 556.34,839.4483 C583.4,841.1883 591.67,848.1583 617.34,839.4483 C633.25,834.0483 631.93,823.1483 647.34,816.4483 C688.98,798.3483 733.0723,790.1903 773.7523,785.9503" fill="none" id="View-to-Browse" style="stroke:#181818;stroke-width:1;stroke-dasharray:7,7;"/><polygon fill="#181818" points="779.72,785.3283,770.3538,782.2828,774.7469,785.8466,771.1832,790.2397,779.72,785.3283" style="stroke:#181818;stroke-width:1;"/><text fill="#000000" font-family="sans-serif" font-size="13" lengthAdjust="spacing" textLength="59.3569" x="557.34" y="836.0166">&#171;include&#187;</text></g><!--link View to PanZoom--><g class="link" data-entity-1="ent0004" data-entity-2="ent0006" data-link-type="dependency" data-source-line="49" id="lnk23"><path d="M432.79,796.2483 C463.74,789.6383 497.28,780.0983 526.34,766.4483 C572.53,744.7583 580.56,731.8183 617.34,696.4483 C632.35,682.0083 629.47,671.1483 647.34,660.4483 C677.83,642.1883 708.9134,632.633 743.2434,626.503" fill="none" id="View-to-PanZoom" style="stroke:#181818;stroke-width:1;stroke-dasharray:7,7;"/><polygon fill="#181818" points="749.15,625.4483,739.587,623.0926,744.2279,626.3272,740.9933,630.968,749.15,625.4483" style="stroke:#181818;stroke-width:1;"/><text fill="#000000" font-family="sans-serif" font-size="13" lengthAdjust="spacing" textLength="57.1924" x="558.34" y="693.0166">&#171;extend&#187;</text></g><!--link View to Fisheye--><g class="link" data-entity-1="ent0004" data-entity-2="ent0007" data-link-type="dependency" data-source-line="50" id="lnk24"><path d="M426.64,826.5383 C458.77,833.2683 494.56,842.1883 526.34,853.4483 C540.39,858.4283 541.83,865.0283 556.34,868.4483 C632.91,886.5283 717.5394,879.6682 778.9394,870.2482" fill="none" id="View-to-Fisheye" style="stroke:#181818;stroke-width:1;stroke-dasharray:7,7;"/><polygon fill="#181818" points="784.87,869.3383,775.3675,866.7494,779.9278,870.0965,776.5807,874.6568,784.87,869.3383" style="stroke:#181818;stroke-width:1;"/><text fill="#000000" font-family="sans-serif" font-size="13" lengthAdjust="spacing" textLength="57.1924" x="558.34" y="865.0166">&#171;extend&#187;</text></g><!--link View to Panels--><g class="link" data-entity-1="ent0004" data-entity-2="ent0008" data-link-type="dependency" data-source-line="51" id="lnk25"><path d="M444.43,819.1083 C499.51,818.5883 565.04,810.5883 617.34,782.4483 C635.99,772.4183 629.23,756.4083 647.34,745.4483 C677.4,727.2683 708.0005,717.8367 742.0305,711.8567" fill="none" id="View-to-Panels" style="stroke:#181818;stroke-width:1;stroke-dasharray:7,7;"/><polygon fill="#181818" points="747.94,710.8183,738.3835,708.4363,743.0155,711.6837,739.7681,716.3156,747.94,710.8183" style="stroke:#181818;stroke-width:1;"/><text fill="#000000" font-family="sans-serif" font-size="13" lengthAdjust="spacing" textLength="57.1924" x="558.34" y="779.0166">&#171;extend&#187;</text></g><!--link View to Themed--><g class="link" data-entity-1="ent0004" data-entity-2="ent0012" data-link-type="dependency" data-source-line="52" id="lnk26"><path d="M443.96,819.4683 C472.75,825.8483 502.34,836.3283 526.34,853.4483 C547.13,868.2783 535.1,888.2783 556.34,902.4483 C603.89,934.1783 659.0227,946.9363 713.6427,951.7063" fill="none" id="View-to-Themed" style="stroke:#181818;stroke-width:1;stroke-dasharray:7,7;"/><polygon fill="#181818" points="719.62,952.2283,711.0021,947.4605,714.639,951.7933,710.3061,955.4301,719.62,952.2283" style="stroke:#181818;stroke-width:1;"/><text fill="#000000" font-family="sans-serif" font-size="13" lengthAdjust="spacing" textLength="59.3569" x="557.34" y="899.0166">&#171;include&#187;</text></g><!--link ViewOcl to PanZoom--><g class="link" data-entity-1="ent0010" data-entity-2="ent0006" data-link-type="dependency" data-source-line="53" id="lnk27"><path d="M434.17,617.4483 C523.29,617.4483 646.24,617.4483 738.1,617.4483" fill="none" id="ViewOcl-to-PanZoom" style="stroke:#181818;stroke-width:1;stroke-dasharray:7,7;"/><polygon fill="#181818" points="744.1,617.4483,735.1,613.4483,739.1,617.4483,735.1,621.4483,744.1,617.4483" style="stroke:#181818;stroke-width:1;"/><text fill="#000000" font-family="sans-serif" font-size="13" lengthAdjust="spacing" textLength="57.1924" x="558.34" y="614.0166">&#171;extend&#187;</text></g><!--link ViewDeploy to PanZoom--><g class="link" data-entity-1="ent0011" data-entity-2="ent0006" data-link-type="dependency" data-source-line="54" id="lnk28"><path d="M436.99,694.1983 C534.01,676.4383 670.5282,651.4391 761.8282,634.7191" fill="none" id="ViewDeploy-to-PanZoom" style="stroke:#181818;stroke-width:1;stroke-dasharray:7,7;"/><polygon fill="#181818" points="767.73,633.6383,758.1567,631.3249,762.8118,634.539,759.5978,639.1941,767.73,633.6383" style="stroke:#181818;stroke-width:1;"/><text fill="#000000" font-family="sans-serif" font-size="13" lengthAdjust="spacing" textLength="57.1924" x="558.34" y="659.1366">&#171;extend&#187;</text></g><!--link ViewOcl to GMN29--><g class="link" data-entity-1="ent0010" data-entity-2="ent0030" data-link-type="association" data-source-line="57" id="lnk31"><path d="M229.52,612.2483 C181.8,603.7883 129.94,584.3283 104.82,540.9483 C71.41,483.2583 71.41,298.6383 104.82,240.9483 C119.93,214.8583 144.04,196.0483 171,182.4883" fill="none" id="ViewOcl-GMN29" style="stroke:#181818;stroke-width:1;stroke-dasharray:7,7;"/></g><!--link Fisheye to GMN32--><g class="link" data-entity-1="ent0007" data-entity-2="ent0033" data-link-type="association" data-source-line="67" id="lnk34"><path d="M771.67,864.5283 C709.21,865.8383 628.44,855.2883 586.84,799.9483 C532.5,727.6583 533.52,465.9983 586.84,392.9483 C607.03,365.2883 636.19,346.2683 667.95,333.2383" fill="none" id="Fisheye-GMN32" style="stroke:#181818;stroke-width:1;stroke-dasharray:7,7;"/></g><!--link PanZoom to GMN35--><g class="link" data-entity-1="ent0006" data-entity-2="ent0036" data-link-type="association" data-source-line="76" id="lnk37"><path d="M744.35,615.4383 C687.52,607.9583 623.15,588.2483 586.84,539.9483 C532.63,467.8283 532.63,206.0683 586.84,133.9483 C608.91,104.5883 641.82,87.1783 677.15,77.1983" fill="none" id="PanZoom-GMN35" style="stroke:#181818;stroke-width:1;stroke-dasharray:7,7;"/></g><!--link Panels to GMN38--><g class="link" data-entity-1="ent0008" data-entity-2="ent0039" data-link-type="association" data-source-line="82" id="lnk40"><path d="M747.01,709.9683 C689.31,706.7983 623.25,691.3883 586.84,642.9483 C535.17,574.2083 535.2,324.7183 586.84,255.9483 C607.53,228.3983 637.33,210.0683 669.64,197.9683" fill="none" id="Panels-GMN38" style="stroke:#181818;stroke-width:1;stroke-dasharray:7,7;"/></g><!--link View to GMN41--><g class="link" data-entity-1="ent0004" data-entity-2="ent0042" data-link-type="association" data-source-line="90" id="lnk43"><path d="M210.63,810.1683 C168.48,803.0483 126.32,786.0783 104.82,748.9483 C70.07,688.9483 70.07,652.9483 104.82,592.9483 C117.52,571.0183 136.53,554.1183 158.22,541.1083" fill="none" id="View-GMN41" style="stroke:#181818;stroke-width:1;stroke-dasharray:7,7;"/></g><!--link Themed to GMN44--><g class="link" data-entity-1="ent0012" data-entity-2="ent0045" data-link-type="association" data-source-line="98" id="lnk46"><path d="M719.38,946.3483 C669.46,937.6283 617.79,918.1183 586.84,876.9483 C511,776.0583 519.09,699.4483 586.84,592.9483 C602.07,569.0083 623.15,549.5283 646.88,533.6883" fill="none" id="Themed-GMN44" style="stroke:#181818;stroke-width:1;stroke-dasharray:7,7;"/></g><!--link ViewDeploy to GMN47--><g class="link" data-entity-1="ent0011" data-entity-2="ent0048" data-link-type="association" data-source-line="110" id="lnk49"><path d="M207.28,707.1283 C166.37,697.9683 125.93,679.4083 104.82,642.9483 C83.77,606.6083 83.77,490.2983 104.82,453.9483 C115.29,435.8583 129.48,420.2583 145.68,406.8383" fill="none" id="ViewDeploy-GMN47" style="stroke:#181818;stroke-width:1;stroke-dasharray:7,7;"/></g><?plantuml-src ZLZDSkEu4RxhAJewnD8CIUqfbP9dfbOZoMEdRCknjDvCQgkq40b9Z26I8K3RccogSie3fF8kkUTHzadoDK2Ar8zdSh8f08t--VhhRfpHzt7K-M4wzX-knZ_wewl1f_l1pRJREgFl8wd3uoMFsYFv95MQoPoUOlciIL0kaqZcCg9D6ab5KInMkTXGcf1PIueJNsGPXI9v4fgUOxCclHQPnCaa8YDV32cvYXTA1crxSwdInTNqSlmPVoV37mvKsblQKscPXeM6QDoTYTnGkeH-bK9FiS1NA1CZStyPlq3ZPQpNSYkXg32q4QiaNiOupdgN2lFsN5fTmtIJvLAp_325aCIGIPz57jdzCbf9xP4IM-kBqdeTvgbIj5BfGYZwagQRVIjdaq-VhiV-tU1sV7rWvTxIdfKXH8hCsfcJVCcWdDDPoQMXcya81s1_Wc1O7sCbZrVhSec6azlP-4-pSeVrIe8m9V0A6q5h75BIGrn39U9DdApgw4K87qoBv0QRzasnG9aChq_01x_2WAjDfkI6tH_rIKibGyEo1GLfg10A1NUjKq3g9eeUW2sPz_jOcHUnWusWQLhaeUoDoe2QTBN2eL__yUzo1IR5YN6-oCKpuLwBC8-g8uqDUflWZuw_I0vjeatkrgOFdquODXhVNKy-dqeDkt1eNiE4H3vtkgHI4N6op2wlxaUahReUPNdw5xWXY6IcqksSVQ0xNOyMq2kIBg7cET83scqXnS9m6ohP-36WMHLwMA3ATEIx8Xd5eO0-TEQqfF_-XtgRAFBTVVnPc5Z5PkjHaXhE6Vplh_ZC6GqTp12ZIoaWaZeS7eOAVPpCBk5J8CIa-TQgzN7hMysiqXe6GpqERu3xUkw-tfitlJT1LcpKEOKg3XzT-9KKIsXj4vVTPDs0uBfWkUHwQKgh26TFh7vQ1JYUFXQP4w2bo4C4c2fNqLjg-lcy_BB8qvGWlP1DJ0vqmtw_BuzvY1RTkK3r-xbaskjqUqz2nH4SXQWyIfbHl4hI_D3WOo2Dx_tPvVXcF3g6qcvf7qp4B9JZ9cr3zsHXrTDvs8DdDZB8TP_o8e4UeL3AOdiZML5MN-Rp9RXATtuRXe5S5V4yD2zTf32I1PId3LYooAXpPUs6oOKIEHnr0-WK6uGQEvHY9LmWra02i-e5X5w8JQos_JvyawMvYTD4A8_-8Cr7pYIaSPgaEv5VES_xT2Ou7rX3X6Kf2eLCV9IPOUkNK64XmaT0lP5NHSRktpSQbKPjv_QZOmszkBgVpaYAS4rBvB_iKoJonxbYEkpt8saGL7Zkrt_-2u9CbXLX62TpLgFVrzBKeZoGv_1oGB_GzM0s6oD7iPJ0WLiKBjOUeGzY8pVpyeFUK-VtmNSU_IxupYLkdXP9v5Rm6zCeGsvBFyPWNVCGwqB0aYVae03ituBqaYXznZ_0GH7GNO4w5AxpbAseGa_nXdslhUUyGnkyXhNd57EzAcnA8DdNh4d1YUGGQrMCKgcJCtCg3QX7GyxlndT9gdTYnSnhrjh1VLZao53ZMmf3LlkXqD9s2nnvHi7FkD3-y3CGXfi4Ai6JR1HgZh07KRbSekAkkLB3Rj1qv6ol2XB7cmlsAsKzXNyXXGyiM8Uo6dCPzbmDO1Lj7TIxgkfMJ9e2SpcA8NiBGlWGBGfZK2gykcJfac_Bxk9aXV98G43DnacQE8wbafOrbqBWGHVv4dcWcnnIUGMN8aAbDGu659V0ZsW14gQC7S0ef-4E1piysHPd2Hkvmk8K94scx43Gf4Wu-MoHNHHS_2DoXF3sC9qjcGGj4njc-ZAAjWBl1uyweKD1jzMofGbqxdgGo5ODMDjg2QuUZSQcpScEhrQBjuY4Ytkxvhms_Qr532YBfpRpGDrxbjV_b7JAxd9mEzhhBhjMEXzg2lcOmnrbeNNnjDlSpysDT-YHE4Ci31pw-AuceA9Sh1XCxYOS-3D-RiguuExK0iMXjSAftN_X_c_kBmkmHAgvBg-9r-eI_DiySvNe3CuhBReQbMqsKWmzGfmykdCp_Zvo9hTBZKw8xNDj5Q9K-hVsuYHKHm8SOhbixL0B8JNmz-7k_PJSJcPxJKSjVcH57TrGmhq4cKi3N57ZtTiXs48LT-oXd4HXKj-bWRjiPYMs_jvg0Nda-nySHggF4WdLPnNLwhkAMcET0r9zEZyt1RFRcj-bdRi3JfkMDJO8glkfJ-_UnKceYaX--52lbkhOPM0ToT1SBPLxPTMf-igYq-F4jT3_wpSxWrxVqqBj0Hsd8D8DruCQIqD0blP7YJuzSvMrL6q71alkYg6BvZ5Y0Xpk0EkT61pSG26mlvmGVg5zRWwgXVTsOc1UnsPB79qSpOgV9Wej85gudXtwNamlJfwuMAIWdUuvDbS2ttzhhC3U3kXixaYBMpJ-EsTLgtJfkgRNGforjbzpnpS1cYaqdLyStK_7VzpvAMX14XTrUUJUcbPgz-wFrdi5jPwFS697hcmsTny6-LQirg-LsmrADTiujB8u4lr-kJRdDV0OnkMiQ-k5lTGDruj2yUoCezLStHYrZqViCCqJ7d3GccufAqo0WzUdncvV61zbI8E-RFbdcZxVqRJcSuSU7Gvk7mRJoaDVyMjDxxEZRW5IqJl2Mel-jzK_VjK-i8zokK5t4g6bjMi0SgapuwtgbftovwmjTk0Owsvt13GWlK7hIskUaPHOI9xyCcNR1zlmkBk-Re8h7ZKozfyZ-gvndgBesBtrQ9dWLEF503tbKvucZQaElIPSK1Oe12SjZ0slAsZHxbt2lK7eTSwbYPi4M2fVq1Zuzgq1PxIAUJ1pvhWk9fT-zUg1d-oTUxd1sOvOMYlyuUJwUd0t_LeiowO04Y0HkFDtm4VIQjTwxW-U0LqjkIqaLsVX4S1umsMctjHCAqT3xTkqcLNm2T3RnlpERED-jhxZdlBGcFlnxGW3OlaG1zi-ZT6nhMF4Xrd6pale0DCCqnRe0wUu_g7_Dy9YlpEQt23XRsV-Q30RV1nCnrrQo2L83Bp7SsByXIUOrvrKLgP3cgxdsVutfbGSTQKPYce6HyzMw9xjDFroJWoCMNgk-VJT36f_mLb6pAuPvLwqUSGsLMMXcY-sqE8tWHkAhSFT9EoQPJVxLamcRRzyXZ82btDJCdGapznmD6jYcvidUURSDT_7KoUhwqBprmAEXS6dXawFCW2NtN8qURfHi-T6JQzAbeGsXM4FSrQyFdVoxcSxKkucpZexE0YEwGPtTzUVNUmyIfyJnu73cxkzi7uZQtPTsa7jBb_BJho3sN6T2zl9bozko0HiZS7uhlSy9-Tx6yb54IkaQ7a6fSCzpDOlNcrtSTk-Cs3s0z6s_zy7hpPkNnfxoBqVnihdx4PUct1jNu6OrMmcOwwgNxymQU1CzVuLqF3WQGjjNVDTodwMhrnLXTUd7xRUvL9zu9UjNLrRWsWY2ndBAntDqvvb_NMgU0nb1oPR3FO7h_BnihGBbCRG5GlDqrb01m5mxt0xcfgxAEZElVsSmUNzlekwUzI0gDlnm_WUBk6KQRuOlDAlk13LmFeV?></g></svg>