<svg xmlns="http://www.w3.org/2000/svg" xmlns:xlink="http://www.w3.org/1999/xlink" contentStyleType="text/css" data-diagram-type="DESCRIPTION" height="1249px" preserveAspectRatio="none" style="width:1040px;height:1249px;background:#FFFFFF;" version="1.1" viewBox="0 0 1040 1249" width="1040px" zoomAndPan="magnify"><?plantuml 1.2026.3?><defs/><g><g class="title" data-source-line="16"><text fill="#000000" font-family="sans-serif" font-size="14" font-weight="700" lengthAdjust="spacing" textLength="272.3369" x="380.4596" y="23.5352">mdd view &#8212; diagram viewer (current)</text></g><!--cluster mdd-viewer--><g class="cluster" data-qualified-name="mdd-viewer" data-source-line="22" id="ent0003"><rect fill="none" height="388" rx="2.5" ry="2.5" style="stroke:#181818;stroke-width:1;" width="776.26" x="189.68" y="511.6983"/><text fill="#000000" font-family="sans-serif" font-size="14" font-weight="700" lengthAdjust="spacing" textLength="88.7783" x="533.4208" y="527.2334">mdd-viewer</text></g><!--entity View--><g class="entity" data-qualified-name="mdd-viewer.View" data-source-line="23" id="ent0004"><ellipse cx="330.8349" cy="765.6973" fill="#F1F1F1" rx="119.7449" ry="26.349" style="stroke:#181818;stroke-width:0.5;"/><text fill="#000000" font-family="sans-serif" font-size="14" lengthAdjust="spacing" textLength="157.6641" x="252.0028" y="761.4636">View rendered diagram</text><text fill="#000000" font-family="sans-serif" font-size="14" lengthAdjust="spacing" textLength="172.3271" x="244.6713" y="777.9519">(shapes AND text legible)</text></g><!--entity Browse--><g class="entity" data-qualified-name="mdd-viewer.Browse" data-source-line="24" id="ent0005"><ellipse cx="836.3031" cy="865.6989" fill="#F1F1F1" rx="78.9031" ry="18.1806" style="stroke:#181818;stroke-width:0.5;"/><text fill="#000000" font-family="sans-serif" font-size="14" lengthAdjust="spacing" textLength="127.4697" x="772.5682" y="870.443">Browse model files</text></g><!--entity PanZoom--><g class="entity" data-qualified-name="mdd-viewer.PanZoom" data-source-line="25" id="ent0006"><ellipse cx="836.3044" cy="620.6945" fill="#F1F1F1" rx="112.8544" ry="25.9162" style="stroke:#181818;stroke-width:0.5;"/><text fill="#000000" font-family="sans-serif" font-size="14" lengthAdjust="spacing" textLength="146.6787" x="762.965" y="616.6213">Pan and zoom canvas</text><text fill="#000000" font-family="sans-serif" font-size="14" lengthAdjust="spacing" textLength="158.0811" x="757.2639" y="633.1096">(scroll zoom, drag pan)</text></g><!--entity Fisheye--><g class="entity" data-qualified-name="mdd-viewer.Fisheye" data-source-line="26" id="ent0007"><ellipse cx="836.304" cy="791.6951" fill="#F1F1F1" rx="93.784" ry="21.1568" style="stroke:#181818;stroke-width:0.5;"/><text fill="#000000" font-family="sans-serif" font-size="14" lengthAdjust="spacing" textLength="161.7725" x="755.4177" y="796.4392">Focus via center fisheye</text></g><!--entity Panels--><g class="entity" data-qualified-name="mdd-viewer.Panels" data-source-line="27" id="ent0008"><ellipse cx="836.3043" cy="710.6971" fill="#F1F1F1" rx="113.6443" ry="25.1289" style="stroke:#181818;stroke-width:0.5;"/><text fill="#000000" font-family="sans-serif" font-size="14" lengthAdjust="spacing" textLength="205.3584" x="733.6251" y="715.4413">Collapse / expand side panels</text></g><!--entity Trace--><g class="entity" data-qualified-name="mdd-viewer.Trace" data-source-line="28" id="ent0009"><ellipse cx="330.8282" cy="853.6959" fill="#F1F1F1" rx="123.2882" ry="27.0576" style="stroke:#181818;stroke-width:0.5;"/><text fill="#000000" font-family="sans-serif" font-size="14" lengthAdjust="spacing" textLength="226.0098" x="217.8233" y="858.4401">Inspect model IDs and trace links</text></g><!--entity ViewOcl--><g class="entity" data-qualified-name="mdd-viewer.ViewOcl" data-source-line="29" id="ent0010"><ellipse cx="330.8339" cy="678.6992" fill="#F1F1F1" rx="103.0539" ry="25.9009" style="stroke:#181818;stroke-width:0.5;"/><text fill="#000000" font-family="sans-serif" font-size="14" lengthAdjust="spacing" textLength="144.0742" x="258.7968" y="675.7944">View OCL constraints</text><text fill="#000000" font-family="sans-serif" font-size="14" lengthAdjust="spacing" textLength="133.2666" x="264.2006" y="692.2827">(source or diagram)</text></g><!--entity ViewDeploy--><g class="entity" data-qualified-name="mdd-viewer.ViewDeploy" data-source-line="30" id="ent0011"><ellipse cx="330.8329" cy="582.7008" fill="#F1F1F1" rx="125.1529" ry="35.5525" style="stroke:#181818;stroke-width:0.5;"/><text fill="#000000" font-family="sans-serif" font-size="14" lengthAdjust="spacing" textLength="183.8115" x="238.9271" y="574.2459">View deployment diagrams</text><text fill="#000000" font-family="sans-serif" font-size="14" lengthAdjust="spacing" textLength="185.6162" x="238.0248" y="590.7342">(dedicated DEPLOY section,</text><text fill="#000000" font-family="sans-serif" font-size="14" lengthAdjust="spacing" textLength="124.332" x="268.6669" y="607.2225">NOT parity-gated)</text></g><!--entity Dev--><g class="entity" data-qualified-name="Dev" data-source-line="20" id="ent0002"><ellipse cx="40.1592" cy="883.9583" fill="#F1F1F1" rx="8" ry="8" style="stroke:#181818;stroke-width:0.5;"/><path d="M40.1592,891.9583 L40.1592,918.9583 M27.1592,899.9583 L53.1592,899.9583 M40.1592,918.9583 L27.1592,933.9583 M40.1592,918.9583 L53.1592,933.9583" fill="none" style="stroke:#181818;stroke-width:0.5;"/><text fill="#000000" font-family="sans-serif" font-size="14" lengthAdjust="spacing" textLength="68.3184" x="6" y="948.9934">Developer</text></g><g class="entity" data-qualified-name="GMN26" data-source-line="50" id="ent0027"><path d="M171.49,257.1083 L171.49,374.2821 L490.176,374.2821 L490.176,267.1083 L480.176,257.1083 L171.49,257.1083" fill="#FEFFDD" style="stroke:#181818;stroke-width:0.5;"/><path d="M480.176,257.1083 L480.176,267.1083 L490.176,267.1083 L480.176,257.1083" fill="#FEFFDD" style="stroke:#181818;stroke-width:1;"/><text fill="#000000" font-family="sans-serif" font-size="13" lengthAdjust="spacing" textLength="284.9971" x="177.49" y="274.6766">Code (USE-VIEW-OCL): when the selected file</text><text fill="#000000" font-family="sans-serif" font-size="13" lengthAdjust="spacing" textLength="289.4912" x="177.49" y="289.9872">kind is Constraint, MddViewer::ocl_ui shows a</text><text fill="#000000" font-family="sans-serif" font-size="13" lengthAdjust="spacing" textLength="271.1528" x="177.49" y="305.2977">Source | Diagram toggle. Source = raw .ocl</text><text fill="#000000" font-family="sans-serif" font-size="13" lengthAdjust="spacing" textLength="266.0811" x="177.49" y="320.6083">text (read-only, @id/context/inv colored);</text><text fill="#000000" font-family="sans-serif" font-size="13" lengthAdjust="spacing" textLength="274.3203" x="177.49" y="335.9188">Diagram = the synthesized constraints SVG</text><text fill="#000000" font-family="sans-serif" font-size="13" lengthAdjust="spacing" textLength="297.686" x="177.49" y="351.2294">(mdd_render::render_ocl_diagrams) painted via</text><text fill="#000000" font-family="sans-serif" font-size="13" lengthAdjust="spacing" textLength="265.1924" x="177.49" y="366.5399">paint_canvas. Realized by SEQ-VIEW-OCL.</text></g><g class="entity" data-qualified-name="GMN29" data-source-line="60" id="ent0030"><path d="M647.34,393.7683 L647.34,495.6316 L1025.256,495.6316 L1025.256,403.7683 L1015.256,393.7683 L647.34,393.7683" fill="#FEFFDD" style="stroke:#181818;stroke-width:0.5;"/><path d="M1015.256,393.7683 L1015.256,403.7683 L1025.256,403.7683 L1015.256,393.7683" fill="#FEFFDD" style="stroke:#181818;stroke-width:1;"/><text fill="#000000" font-family="sans-serif" font-size="13" lengthAdjust="spacing" textLength="316.6338" x="653.34" y="411.3366">Code (USE-FISHEYE-FOCUS): the canvas paints the</text><text fill="#000000" font-family="sans-serif" font-size="13" lengthAdjust="spacing" textLength="342.1387" x="653.34" y="426.6472">rendered texture through a center-fixed fisheye mesh</text><text fill="#000000" font-family="sans-serif" font-size="13" lengthAdjust="spacing" textLength="356.916" x="653.34" y="441.9577">(CanvasView::fisheye_mesh / warp) &#8212; the centre bulges,</text><text fill="#000000" font-family="sans-serif" font-size="13" lengthAdjust="spacing" textLength="354.3262" x="653.34" y="457.2683">content compresses toward the edges, corners stay put.</text><text fill="#000000" font-family="sans-serif" font-size="13" lengthAdjust="spacing" textLength="346.9375" x="653.34" y="472.5788">Layered on the scroll-at-cursor base zoom; drag pans.</text><text fill="#000000" font-family="sans-serif" font-size="13" lengthAdjust="spacing" textLength="221.0381" x="653.34" y="487.8894">Realized by SEQ-CANVAS-FISHEYE.</text></g><g class="entity" data-qualified-name="GMN32" data-source-line="69" id="ent0033"><path d="M656.68,181.7383 L656.68,237.6699 L1015.9276,237.6699 L1015.9276,191.7383 L1005.9276,181.7383 L656.68,181.7383" fill="#FEFFDD" style="stroke:#181818;stroke-width:0.5;"/><path d="M1005.9276,181.7383 L1005.9276,191.7383 L1015.9276,191.7383 L1005.9276,181.7383" fill="#FEFFDD" style="stroke:#181818;stroke-width:1;"/><text fill="#000000" font-family="sans-serif" font-size="13" lengthAdjust="spacing" textLength="338.2476" x="662.68" y="199.3066">The toolbar has no Reset / Zoom + / Zoom - buttons</text><text fill="#000000" font-family="sans-serif" font-size="13" lengthAdjust="spacing" textLength="325.0127" x="662.68" y="214.6172">(removed). Zoom is scroll-only at the cursor; pan is</text><text fill="#000000" font-family="sans-serif" font-size="13" lengthAdjust="spacing" textLength="318.2715" x="662.68" y="229.9277">drag-only. A small hint label replaces the buttons.</text></g><g class="entity" data-qualified-name="GMN35" data-source-line="75" id="ent0036"><path d="M649.06,272.4183 L649.06,358.971 L1023.5356,358.971 L1023.5356,282.4183 L1013.5356,272.4183 L649.06,272.4183" fill="#FEFFDD" style="stroke:#181818;stroke-width:0.5;"/><path d="M1013.5356,272.4183 L1013.5356,282.4183 L1023.5356,282.4183 L1013.5356,272.4183" fill="#FEFFDD" style="stroke:#181818;stroke-width:1;"/><text fill="#000000" font-family="sans-serif" font-size="13" lengthAdjust="spacing" textLength="353.4756" x="655.06" y="289.9866">Code (USE-TOGGLE-PANELS): each SidePanel renders an</text><text fill="#000000" font-family="sans-serif" font-size="13" lengthAdjust="spacing" textLength="303.0942" x="655.06" y="305.2972">inner-edge chevron; clicking it sets PanelLayout</text><text fill="#000000" font-family="sans-serif" font-size="13" lengthAdjust="spacing" textLength="316.8813" x="655.06" y="320.6077">collapsed and the panel shrinks to an exact-width</text><text fill="#000000" font-family="sans-serif" font-size="13" lengthAdjust="spacing" textLength="319.3696" x="655.06" y="335.9183">sliver button that re-expands on click. Realized by</text><text fill="#000000" font-family="sans-serif" font-size="13" lengthAdjust="spacing" textLength="146.1992" x="655.06" y="351.2288">SEQ-PANEL-COLLAPSE.</text></g><g class="entity" data-qualified-name="GMN38" data-source-line="83" id="ent0039"><path d="M135.32,409.4183 L135.32,495.971 L526.3439,495.971 L526.3439,419.4183 L516.3439,409.4183 L135.32,409.4183" fill="#FEFFDD" style="stroke:#181818;stroke-width:0.5;"/><path d="M516.3439,409.4183 L516.3439,419.4183 L526.3439,419.4183 L516.3439,409.4183" fill="#FEFFDD" style="stroke:#181818;stroke-width:1;"/><text fill="#000000" font-family="sans-serif" font-size="13" lengthAdjust="spacing" textLength="340.6787" x="141.32" y="426.9866">Reads pre-rendered SVGs from .mdd/rendered/. If no</text><text fill="#000000" font-family="sans-serif" font-size="13" lengthAdjust="spacing" textLength="329.4561" x="141.32" y="442.2972">models are mapped/rendered the canvas shows "No</text><text fill="#000000" font-family="sans-serif" font-size="13" lengthAdjust="spacing" textLength="297.5718" x="141.32" y="457.6077">rendered output". Text rendering is realized by</text><text fill="#000000" font-family="sans-serif" font-size="13" lengthAdjust="spacing" textLength="370.0239" x="141.32" y="472.9183">SEQ-RENDER-DIAGRAM-PAGE, which consults a populated</text><text fill="#000000" font-family="sans-serif" font-size="13" lengthAdjust="spacing" textLength="367.1548" x="141.32" y="488.2288">font database (DOM-FONT-DATABASE) before rasterizing.</text></g><g class="entity" data-qualified-name="GMN41" data-source-line="91" id="ent0042"><path d="M146.06,43.4883 L146.06,221.9043 L515.6035,221.9043 L515.6035,53.4883 L505.6035,43.4883 L146.06,43.4883" fill="#FEFFDD" style="stroke:#181818;stroke-width:0.5;"/><path d="M505.6035,43.4883 L505.6035,53.4883 L515.6035,53.4883 L505.6035,43.4883" fill="#FEFFDD" style="stroke:#181818;stroke-width:1;"/><text fill="#000000" font-family="sans-serif" font-size="13" lengthAdjust="spacing" textLength="314.5518" x="152.06" y="61.0566">Code (USE-VIEW-DEPLOY): MddViewer::new() calls</text><text fill="#000000" font-family="sans-serif" font-size="13" lengthAdjust="spacing" textLength="301.5073" x="152.06" y="76.3672">project.deploy_files() as a third source; update()</text><text fill="#000000" font-family="sans-serif" font-size="13" lengthAdjust="spacing" textLength="317.2178" x="152.06" y="91.6777">builds deploy_tree and renders a "DEPLOY" header</text><text fill="#000000" font-family="sans-serif" font-size="13" lengthAdjust="spacing" textLength="297.2861" x="152.06" y="106.9883">("/mdd-deploy &#183; utility, not parity-gated") after</text><text fill="#000000" font-family="sans-serif" font-size="13" lengthAdjust="spacing" textLength="319.5474" x="152.06" y="122.2988">the rail-mode match, so it shows in Directory AND</text><text fill="#000000" font-family="sans-serif" font-size="13" lengthAdjust="spacing" textLength="325.1143" x="152.06" y="137.6094">By-cycle. Clicking a leaf -&gt; lookup_file -&gt; load_file</text><text fill="#000000" font-family="sans-serif" font-size="13" lengthAdjust="spacing" textLength="348.5435" x="152.06" y="152.9199">paints .mdd/rendered/deploy/&lt;rel&gt;.svg on the shared</text><text fill="#000000" font-family="sans-serif" font-size="13" lengthAdjust="spacing" textLength="338.8442" x="152.06" y="168.2305">canvas (same placeholder as any unrendered model if</text><text fill="#000000" font-family="sans-serif" font-size="13" lengthAdjust="spacing" textLength="250.9102" x="152.06" y="183.541">the SVG is absent). deploy_files() reuses</text><text fill="#000000" font-family="sans-serif" font-size="13" lengthAdjust="spacing" textLength="331.5889" x="152.06" y="198.8516">render_sources(RenderTree::Deploy) and is NEVER in</text><text fill="#000000" font-family="sans-serif" font-size="13" lengthAdjust="spacing" textLength="296.5688" x="152.06" y="214.1621">ModelRegistry. Realized by SEQ-VIEW-DEPLOY.</text></g><!--link Dev to View--><g class="link" data-entity-1="ent0002" data-entity-2="ent0004" data-link-type="dependency" data-source-line="33" id="lnk12"><path d="M66.39,875.1383 C83.25,852.4083 107.41,824.9983 135.32,808.6983 C161.52,793.3883 186.7543,784.7907 216.3043,778.4307" fill="none" id="Dev-to-View" style="stroke:#181818;stroke-width:1;"/><polygon fill="#181818" points="222.17,777.1683,212.5298,775.1515,217.2819,778.2203,214.2131,782.9724,222.17,777.1683" style="stroke:#181818;stroke-width:1;"/></g><!--link Dev to Browse--><g class="link" data-entity-1="ent0002" data-entity-2="ent0005" data-link-type="dependency" data-source-line="34" id="lnk13"><path d="M41.71,952.3083 C44.68,996.6783 57.07,1067.7283 104.32,1101.6983 C289.45,1234.7983 408.46,1193.1183 617.34,1101.6983 C722.59,1055.6283 796.6791,936.1349 822.7391,889.1649" fill="none" id="Dev-to-Browse" style="stroke:#181818;stroke-width:1;"/><polygon fill="#181818" points="825.65,883.9183,817.7859,889.8475,823.2242,888.2904,824.7813,893.7288,825.65,883.9183" style="stroke:#181818;stroke-width:1;"/></g><!--link Dev to PanZoom--><g class="link" data-entity-1="ent0002" data-entity-2="ent0006" data-link-type="dependency" data-source-line="35" id="lnk14"><path d="M74.75,918.4683 C154.95,928.6183 363.08,947.6483 526.34,898.6983 C571.83,885.0583 590.75,882.0383 617.34,842.6983 C661.54,777.3283 593.68,725.5583 647.34,667.6983 C667.81,645.6283 691.0946,634.5917 720.3346,627.8217" fill="none" id="Dev-to-PanZoom" style="stroke:#181818;stroke-width:1;"/><polygon fill="#181818" points="726.18,626.4683,716.5097,624.6015,721.3089,627.5961,718.3142,632.3953,726.18,626.4683" style="stroke:#181818;stroke-width:1;"/></g><!--link Dev to Fisheye--><g class="link" data-entity-1="ent0002" data-entity-2="ent0007" data-link-type="dependency" data-source-line="36" id="lnk15"><path d="M50.74,952.3583 C59.7,979.5083 76.07,1013.8483 104.32,1030.6983 C300.13,1147.5183 444.62,1179.5483 617.34,1030.6983 C685.76,971.7383 585.13,895.1883 647.34,829.6983 C671.76,803.9883 702.4292,793.7833 736.8892,789.8233" fill="none" id="Dev-to-Fisheye" style="stroke:#181818;stroke-width:1;"/><polygon fill="#181818" points="742.85,789.1383,733.4522,786.1919,737.8827,789.7091,734.3655,794.1396,742.85,789.1383" style="stroke:#181818;stroke-width:1;"/></g><!--link Dev to Panels--><g class="link" data-entity-1="ent0002" data-entity-2="ent0008" data-link-type="dependency" data-source-line="37" id="lnk16"><path d="M74.7,944.0283 C83.71,950.4483 93.87,956.2983 104.32,959.6983 C321.13,1030.2883 444.94,1108.9183 617.34,959.6983 C687.63,898.8583 584.15,820.8783 647.34,752.6983 C667,731.4883 688.9779,721.0974 717.2079,714.9374" fill="none" id="Dev-to-Panels" style="stroke:#181818;stroke-width:1;"/><polygon fill="#181818" points="723.07,713.6583,713.4241,711.669,718.1849,714.7242,715.1297,719.485,723.07,713.6583" style="stroke:#181818;stroke-width:1;"/></g><!--link Dev to Trace--><g class="link" data-entity-1="ent0002" data-entity-2="ent0009" data-link-type="dependency" data-source-line="38" id="lnk17"><path d="M74.56,906.7583 C114.78,898.3983 178.0656,885.2394 234.2556,873.5594" fill="none" id="Dev-to-Trace" style="stroke:#181818;stroke-width:1;"/><polygon fill="#181818" points="240.13,872.3383,230.5043,870.2536,235.2346,873.3559,232.1324,878.0862,240.13,872.3383" style="stroke:#181818;stroke-width:1;"/></g><!--link Dev to ViewOcl--><g class="link" data-entity-1="ent0002" data-entity-2="ent0010" data-link-type="dependency" data-source-line="39" id="lnk18"><path d="M49.4,875.2883 C60.91,831.3083 86.14,760.3583 135.32,721.6983 C161.9,700.8083 190.6346,690.6593 223.3046,684.7893" fill="none" id="Dev-to-ViewOcl" style="stroke:#181818;stroke-width:1;"/><polygon fill="#181818" points="229.21,683.7283,219.6445,681.3829,224.2888,684.6125,221.0592,689.2568,229.21,683.7283" style="stroke:#181818;stroke-width:1;"/></g><!--link Dev to ViewDeploy--><g class="link" data-entity-1="ent0002" data-entity-2="ent0011" data-link-type="dependency" data-source-line="40" id="lnk19"><path d="M43.1,875.3283 C48.24,815.4283 66.99,699.8983 135.32,635.6983 C156.68,615.6283 179.1006,604.6301 207.3906,596.7401" fill="none" id="Dev-to-ViewDeploy" style="stroke:#181818;stroke-width:1;"/><polygon fill="#181818" points="213.17,595.1283,203.4263,593.6931,208.3538,596.4715,205.5754,601.399,213.17,595.1283" style="stroke:#181818;stroke-width:1;"/></g><!--link View to Browse--><g class="link" data-entity-1="ent0004" data-entity-2="ent0005" data-link-type="dependency" data-source-line="42" id="lnk20"><path d="M423.18,782.6883 C456.01,789.6283 493.13,798.4583 526.34,808.6983 C540.07,812.9283 542.5,816.8683 556.34,820.6983 C625.37,839.8183 700.4317,851.0624 757.3217,857.8024" fill="none" id="View-to-Browse" style="stroke:#181818;stroke-width:1;stroke-dasharray:7,7;"/><polygon fill="#181818" points="763.28,858.5083,754.8131,853.4772,758.3147,857.92,753.8719,861.4216,763.28,858.5083" style="stroke:#181818;stroke-width:1;"/><text fill="#000000" font-family="sans-serif" font-size="13" lengthAdjust="spacing" textLength="59.3569" x="557.34" y="817.2666">&#171;include&#187;</text></g><!--link View to PanZoom--><g class="link" data-entity-1="ent0004" data-entity-2="ent0006" data-link-type="dependency" data-source-line="43" id="lnk21"><path d="M423.89,748.7683 C456.62,741.7283 493.49,732.6283 526.34,721.6983 C582.22,703.1083 591.68,686.9183 647.34,667.6983 C681.05,656.0683 713.2207,647.3875 746.2007,639.5975" fill="none" id="View-to-PanZoom" style="stroke:#181818;stroke-width:1;stroke-dasharray:7,7;"/><polygon fill="#181818" points="752.04,638.2183,742.3615,636.3943,747.1739,639.3677,744.2005,644.1801,752.04,638.2183" style="stroke:#181818;stroke-width:1;"/><text fill="#000000" font-family="sans-serif" font-size="13" lengthAdjust="spacing" textLength="57.1924" x="558.34" y="676.5666">&#171;extend&#187;</text></g><!--link View to Fisheye--><g class="link" data-entity-1="ent0004" data-entity-2="ent0007" data-link-type="dependency" data-source-line="44" id="lnk22"><path d="M429.37,781.0683 C468.7,786.5383 514.57,792.0083 556.34,794.6983 C583.4,796.4383 590.23,794.8883 617.34,794.6983 C658.4,794.4183 697.8107,793.9282 736.5007,793.3482" fill="none" id="View-to-Fisheye" style="stroke:#181818;stroke-width:1;stroke-dasharray:7,7;"/><polygon fill="#181818" points="742.5,793.2583,733.4411,789.3936,737.5006,793.3332,733.561,797.3927,742.5,793.2583" style="stroke:#181818;stroke-width:1;"/><text fill="#000000" font-family="sans-serif" font-size="13" lengthAdjust="spacing" textLength="57.1924" x="558.34" y="791.2666">&#171;extend&#187;</text></g><!--link View to Panels--><g class="link" data-entity-1="ent0004" data-entity-2="ent0008" data-link-type="dependency" data-source-line="45" id="lnk23"><path d="M442.06,755.5483 C495.09,750.4983 559.55,744.1083 617.34,737.6983 C656.57,733.3483 693.7467,728.845 731.2167,724.145" fill="none" id="View-to-Panels" style="stroke:#181818;stroke-width:1;stroke-dasharray:7,7;"/><polygon fill="#181818" points="737.17,723.3983,727.7421,720.5495,732.2089,724.0206,728.7378,728.4873,737.17,723.3983" style="stroke:#181818;stroke-width:1;"/><text fill="#000000" font-family="sans-serif" font-size="13" lengthAdjust="spacing" textLength="57.1924" x="558.34" y="734.2666">&#171;extend&#187;</text></g><!--link ViewOcl to PanZoom--><g class="link" data-entity-1="ent0010" data-entity-2="ent0006" data-link-type="dependency" data-source-line="46" id="lnk24"><path d="M425.35,667.9283 C513.22,657.7983 638.3894,643.3852 728.5494,632.9952" fill="none" id="ViewOcl-to-PanZoom" style="stroke:#181818;stroke-width:1;stroke-dasharray:7,7;"/><polygon fill="#181818" points="734.51,632.3083,725.1112,629.3649,729.5429,632.8807,726.0271,637.3123,734.51,632.3083" style="stroke:#181818;stroke-width:1;"/><text fill="#000000" font-family="sans-serif" font-size="13" lengthAdjust="spacing" textLength="57.1924" x="558.34" y="642.7966">&#171;extend&#187;</text></g><!--link ViewDeploy to PanZoom--><g class="link" data-entity-1="ent0011" data-entity-2="ent0006" data-link-type="dependency" data-source-line="47" id="lnk25"><path d="M453.07,590.8583 C503.84,594.3583 563.46,598.5883 617.34,602.6983 C653.97,605.4983 688.0607,608.2507 723.7507,611.2207" fill="none" id="ViewDeploy-to-PanZoom" style="stroke:#181818;stroke-width:1;stroke-dasharray:7,7;"/><polygon fill="#181818" points="729.73,611.7183,721.0927,606.9857,724.7472,611.3036,720.4293,614.9581,729.73,611.7183" style="stroke:#181818;stroke-width:1;"/><text fill="#000000" font-family="sans-serif" font-size="13" lengthAdjust="spacing" textLength="57.1924" x="558.34" y="595.1966">&#171;extend&#187;</text></g><!--link ViewOcl to GMN26--><g class="link" data-entity-1="ent0010" data-entity-2="ent0027" data-link-type="association" data-source-line="50" id="lnk28"><path d="M227.93,681.3283 C180.43,676.3083 129.25,660.3783 104.82,618.1983 C81.54,578.0083 81.54,449.3883 104.82,409.1983 C119.93,383.1083 144.04,364.2983 171,350.7383" fill="none" id="ViewOcl-GMN26" style="stroke:#181818;stroke-width:1;stroke-dasharray:7,7;"/></g><!--link Fisheye to GMN29--><g class="link" data-entity-1="ent0007" data-entity-2="ent0030" data-link-type="association" data-source-line="60" id="lnk31"><path d="M746.84,798.3383 C690.99,797.0283 623.03,784.3383 586.84,736.1983 C536.63,669.4083 540.44,617.6883 586.84,548.1983 C602.01,525.4883 623.19,507.7483 646.86,493.8983" fill="none" id="Fisheye-GMN29" style="stroke:#181818;stroke-width:1;stroke-dasharray:7,7;"/></g><!--link PanZoom to GMN32--><g class="link" data-entity-1="ent0006" data-entity-2="ent0033" data-link-type="association" data-source-line="69" id="lnk34"><path d="M752.83,602.8883 C695.25,585.7783 622.84,553.5983 586.84,495.1983 C534.84,410.8283 527.29,351.4183 586.84,272.1983 C604.35,248.9083 629.14,233.4383 656.36,223.2983" fill="none" id="PanZoom-GMN32" style="stroke:#181818;stroke-width:1;stroke-dasharray:7,7;"/></g><!--link Panels to GMN35--><g class="link" data-entity-1="ent0008" data-entity-2="ent0036" data-link-type="association" data-source-line="75" id="lnk37"><path d="M722.38,711.1783 C672.4,704.8783 618.09,687.7683 586.84,646.1983 C519.54,556.6783 520.59,484.4983 586.84,394.1983 C602.69,372.5983 624.48,356.7883 648.64,345.2383" fill="none" id="Panels-GMN35" style="stroke:#181818;stroke-width:1;stroke-dasharray:7,7;"/></g><!--link View to GMN38--><g class="link" data-entity-1="ent0004" data-entity-2="ent0039" data-link-type="association" data-source-line="83" id="lnk40"><path d="M210.63,765.4183 C168.48,758.2983 126.32,741.3283 104.82,704.1983 C70.07,644.1983 70.07,608.1983 104.82,548.1983 C117.52,526.2683 136.53,509.3683 158.22,496.3583" fill="none" id="View-GMN38" style="stroke:#181818;stroke-width:1;stroke-dasharray:7,7;"/></g><!--link ViewDeploy to GMN41--><g class="link" data-entity-1="ent0011" data-entity-2="ent0042" data-link-type="association" data-source-line="91" id="lnk43"><path d="M214.95,568.9283 C171.74,557.1983 127.66,535.6483 104.82,496.1983 C78.2,450.2383 78.2,303.1583 104.82,257.1983 C115.31,239.0783 129.51,223.4183 145.71,209.9383" fill="none" id="ViewDeploy-GMN41" style="stroke:#181818;stroke-width:1;stroke-dasharray:7,7;"/></g><?plantuml-src ZLZDSkEu4RxhARfq6MbMfE_oxDHg98t7LRRbjRHEDhLLNeY496OWWWMGiZL9gl8GUPVSyoXvadmDW2PfoxCvMI3GZVxv-kk6tz5FMJhuPJcFxY_dVufcbvEBkydrSjXxHp-bqYQljqRKdyc3LBgGXWwPVBGaoCWybKQcjDUfL9HcOcl4ddHEvKvIbaUYA2WH-K5OUipA7TcTA2GayvHA-LIIajjihMJSTpS7apvVBh_CVyNVnVIN5oPrjZecRNHIMQZ6tOKm9UaDxAiDEcG2gqJcfJJH9dk2nPlCxkHHmb1HqbviysoJGPpj3WRpSIEThOdU5qPQrfzeACbBAlMZCAaxBzEjj2DIukXY4RotYT5AqLRfjL3qJUjzrylLukBYQXxTJcxcLo-yx6nrl4oWKXJEJqFogO1ntcObDoLTBsOGWFyvak5YZ1sJRNTXYwQBczNypwjmmaKbHvfoH8MTe1s4b1mXhuaIsJxBjqtsKgGFhgLoZqDTLnnG5jEh4_31LpXmkI-Kt7Fuqp5PgMHIicv1iKuKKg4Ghfq6fAxJz1xOacOyniv3bNdO25hgoYJoR1OIMkhj5aB__UU_mWvSolBInyA8HyAz3c4ZgaLQ1-mnnn-RVPESsjoMnkyjxozEE3QRtrujVZrL6cxZfNij5tBvE1YIqYBbObbzkRoRaNNcZgWm-gy8GvpAGkdZ0yV03eOZMiEkLFg2UZ0e3rXtX1O7msEYPEjZJAiwzV10XNBakrAPPec0FVJEMqd_-JUTxTCqylVniYepbPN74UMwv9h1xsZBCkzewc6677sH0YffmEbXgD2dnUeBOWg4bDeSdLcVZf6pp1bjuJ3Cu_J6kE_CttVs_ltP-xYezkgS4fKbNttwbHGRMEqAbyFame3a-cJvudfgQwi9fwFM7hOnnFNNgl0Ah1GcGOAf3XNzGEquduULGvwb7EM5Qc9oe6kE-rqG6o5RTEiJDHuRoRGt69uTXCfI10fP-IfbGTasr-Qbmnv8qyh0v39oEOMRKIAiTFJ91CN-_GuPz-5tH1SM29J6GRQOYw4qWYeZDw2W7LENqNlWDfNZDbs1QXKps1iyf-4ZjB30ccq8zCIyDF95mIOwOh3FDEDtIgtLMXYm0sAbeOI5Q5sL9MfdrDIm3G0CT7koP4SECG9A6eZcElV0eu1Lo_m0hh6LsOW4Ubk1hIDZurwPbGow43z71jsmqI3nyH_sUgvAW2nFXwa3CExezGG3kSMnVOARMFLwV4Jap3DzhXoliqz_wn6dqcMopwNUjC5m_M_v83IwoSsiq-Y6JZiBjPLyCk2-KFC-akwO_zm-U0kwvlYv1FYyyrtjLAP6R3cD_YO8_0MVspe-SwDqAV8ugH7Ypd_slzld0nT8EWiDfusK-XByRCjSvhP0y897bxFGyG5kq5MMV_LoArw_2YOpTukKsJ_FyCXIY6yJnKMYNYdmE64wViOAb3Hmwu9iz5j-irXr-AzHFtEgUl_ezG08YgAFFdNr8YIeNjR1hjTrC5lx7ATwwTrlAsPlskjmVS-v5SVrXJIc3n-oF55LAZz-R7R3_MuRc0Cesxl1cZTslMslDs7IztLx6zy-qqDt0ULeaCMUEQ_9sXJWeExyCAR7dGpZaviI784f1WawHagPXLGDZT69QS5F4GBdmrZmT-hoJrnl_EZ61EOk77ObEZ3eTP7E5NWV0y2Pc_IUohCiFp0XQXJuy1o7QuK__j4iWRC34CU3fmTk8FptWKsjWJdqdKuoXR7LRlNWApkcEubEmuhNHrhEVtwEKzo39cxRybLucm9kmjkTfpjDencA8F5CO-nsPNWsDhhQxjvgANkq8_PnwdHn9iRZiFV0Us0CpCZ5q36pkzHFrEjAyS0CqNgORitNh-VgH9kSfnfRYYCLLHb3yEhKh1s9CWBXMn25Qt5CYEVFX6XPxcL4fvER-ycoZj1tujeGwUfLHuHMAqjuwz3_G_qZgbianyZ8FJfmYf7DxG78mMR66ma_wtZZpzbQd80Os-vEn3GXknTW-HqFHagi9OzxXNBjqJLrVzVtNV0qtI2Z-mOPanJ9ZfQWTtUscITpIBMU2PYj3aRdhL4kAr6mPMW5I8wkIfTUtphIvyU8VtZOdU4cmEqOdiedjE38FJ0WOrN6qvXtnx_EZ8pgfmu-kJixjS7LZbmwBwBfukfgShlyNYv3-uK6Q0JkecVWesYj7w-wqsPCbniUVSXtD4G4CDvZufBDeNPPUHhgt-XsLI4cG6yVGpkpZV_iOiTpqqjdxkOti_bT_Vg6RnVp4SWnGtwOPIfLygHNwA9ItB8WjT7Sy4Gf7FO7iyKr2lvc5SqcgycdoN8-nDDY0n83xrdKSlODT_z1a4B_UKNLuKLqugsJ0A8CiTEl6swh0d7AKE2-gPzJLVXH6aBhAbF8I901K_Z7T_EgwVkB-xHphnAkg_x_-wZfu_PDwOJy6p5J4ISJQIoJdPlq6SGkSNZcD2ySZ72GgTyuCKrVF5_Ggzjl3xSCBvcQqEtfnyi78zL7VhqyqzWEkE9S1XWDhDYZPhZ8TrhnPCq1p8zKvI_-yv9jWbz0C0DAh2sFlJ6zI81_QpsZyi5dmGxkt7A5a8_7Fkl-nGbLD_Fx-Hr20g7Eu-YDzkHJr03hVm00?></g></svg>