<svg xmlns="http://www.w3.org/2000/svg" xmlns:xlink="http://www.w3.org/1999/xlink" contentStyleType="text/css" data-diagram-type="DESCRIPTION" height="608px" preserveAspectRatio="none" style="width:1285px;height:608px;background:#FFFFFF;" version="1.1" viewBox="0 0 1285 608" width="1285px" zoomAndPan="magnify"><?plantuml 1.2026.3?><defs/><g><g class="title" data-source-line="5"><text fill="#000000" font-family="sans-serif" font-size="14" font-weight="700" lengthAdjust="spacing" textLength="272.3369" x="503.2419" y="23.5352">mdd view &#8212; diagram viewer (current)</text></g><!--cluster mdd-viewer--><g class="cluster" data-qualified-name="mdd-viewer" data-source-line="11" id="ent0003"><rect fill="none" height="251" rx="2.5" ry="2.5" style="stroke:#181818;stroke-width:1;" width="733.32" x="164.01" y="177.0783"/><text fill="#000000" font-family="sans-serif" font-size="14" font-weight="700" lengthAdjust="spacing" textLength="88.7783" x="486.2808" y="192.6134">mdd-viewer</text></g><!--entity View--><g class="entity" data-qualified-name="mdd-viewer.View" data-source-line="12" id="ent0004"><ellipse cx="299.7649" cy="244.0773" fill="#F1F1F1" rx="119.7449" ry="26.349" style="stroke:#181818;stroke-width:0.5;"/><text fill="#000000" font-family="sans-serif" font-size="14" lengthAdjust="spacing" textLength="157.6641" x="220.9328" y="239.8436">View rendered diagram</text><text fill="#000000" font-family="sans-serif" font-size="14" lengthAdjust="spacing" textLength="172.3271" x="213.6013" y="256.3319">(shapes AND text legible)</text></g><!--entity Browse--><g class="entity" data-qualified-name="mdd-viewer.Browse" data-source-line="13" id="ent0005"><ellipse cx="758.0431" cy="230.0789" fill="#F1F1F1" rx="78.9031" ry="18.1806" style="stroke:#181818;stroke-width:0.5;"/><text fill="#000000" font-family="sans-serif" font-size="14" lengthAdjust="spacing" textLength="127.4697" x="694.3082" y="234.823">Browse model files</text></g><!--entity PanZoom--><g class="entity" data-qualified-name="mdd-viewer.PanZoom" data-source-line="14" id="ent0006"><ellipse cx="758.0397" cy="303.0742" fill="#F1F1F1" rx="87.1297" ry="19.8259" style="stroke:#181818;stroke-width:0.5;"/><text fill="#000000" font-family="sans-serif" font-size="14" lengthAdjust="spacing" textLength="146.6787" x="684.7004" y="307.8184">Pan and zoom canvas</text></g><!--entity Graph--><g class="entity" data-qualified-name="mdd-viewer.Graph" data-source-line="15" id="ent0007"><ellipse cx="299.7605" cy="330.0744" fill="#F1F1F1" rx="80.4305" ry="18.4861" style="stroke:#181818;stroke-width:0.5;"/><text fill="#000000" font-family="sans-serif" font-size="14" lengthAdjust="spacing" textLength="131.0928" x="234.2141" y="334.8185">Inspect trace graph</text></g><!--entity Trace--><g class="entity" data-qualified-name="mdd-viewer.Trace" data-source-line="16" id="ent0008"><ellipse cx="758.0382" cy="385.0759" fill="#F1F1F1" rx="123.2882" ry="27.0576" style="stroke:#181818;stroke-width:0.5;"/><text fill="#000000" font-family="sans-serif" font-size="14" lengthAdjust="spacing" textLength="226.0098" x="645.0333" y="389.8201">Inspect model IDs and trace links</text></g><!--entity Dev--><g class="entity" data-qualified-name="Dev" data-source-line="9" id="ent0002"><ellipse cx="40.1592" cy="371.3283" fill="#F1F1F1" rx="8" ry="8" style="stroke:#181818;stroke-width:0.5;"/><path d="M40.1592,379.3283 L40.1592,406.3283 M27.1592,387.3283 L53.1592,387.3283 M40.1592,406.3283 L27.1592,421.3283 M40.1592,406.3283 L53.1592,421.3283" fill="none" style="stroke:#181818;stroke-width:0.5;"/><text fill="#000000" font-family="sans-serif" font-size="14" lengthAdjust="spacing" textLength="68.3184" x="6" y="436.3634">Developer</text></g><g class="entity" data-qualified-name="GMN17" data-source-line="30" id="ent0018"><path d="M991.89,194.4583 L991.89,226.0783 L837.34,230.0783 L991.89,234.0783 L991.89,265.7005 A0,0 0 0 0 991.89,265.7005 L1270.8207,265.7005 A0,0 0 0 0 1270.8207,265.7005 L1270.8207,204.4583 L1260.8207,194.4583 L991.89,194.4583 A0,0 0 0 0 991.89,194.4583" fill="#FEFFDD" style="stroke:#181818;stroke-width:0.5;"/><path d="M1260.8207,194.4583 L1260.8207,204.4583 L1270.8207,204.4583 L1260.8207,194.4583" fill="#FEFFDD" style="stroke:#181818;stroke-width:0.5;"/><text fill="#000000" font-family="sans-serif" font-size="13" lengthAdjust="spacing" textLength="242.582" x="997.89" y="212.0266">Today: a single flat, alphabetical scroll</text><text fill="#000000" font-family="sans-serif" font-size="13" lengthAdjust="spacing" textLength="223.5454" x="997.89" y="227.3372">list of every model file (left rail). No</text><text fill="#000000" font-family="sans-serif" font-size="13" lengthAdjust="spacing" textLength="257.9307" x="997.89" y="242.6477">directory tree, no cycle grouping, and no</text><text fill="#000000" font-family="sans-serif" font-size="13" lengthAdjust="spacing" textLength="247.5205" x="997.89" y="257.9583">before/after diff view exist in the code.</text></g><g class="entity" data-qualified-name="GMN20" data-source-line="37" id="ent0021"><path d="M585.19,43.4883 L585.19,160.6621 L930.8917,160.6621 L930.8917,53.4883 L920.8917,43.4883 L585.19,43.4883" fill="#FEFFDD" style="stroke:#181818;stroke-width:0.5;"/><path d="M920.8917,43.4883 L920.8917,53.4883 L930.8917,53.4883 L920.8917,43.4883" fill="#FEFFDD" style="stroke:#181818;stroke-width:1;"/><text fill="#000000" font-family="sans-serif" font-size="13" lengthAdjust="spacing" textLength="298.2256" x="591.19" y="61.0566">Right "MODEL CONTEXT" panel today: file path,</text><text fill="#000000" font-family="sans-serif" font-size="13" lengthAdjust="spacing" textLength="261.8218" x="591.19" y="76.3672">kind, a raw @id list, and mechanical trace</text><text fill="#000000" font-family="sans-serif" font-size="13" lengthAdjust="spacing" textLength="273.5586" x="591.19" y="91.6777">links (from &#8594; relation &#8594; to) plus test paths</text><text fill="#000000" font-family="sans-serif" font-size="13" lengthAdjust="spacing" textLength="306.4268" x="591.19" y="106.9883">for the selected id. There is NO human-readable</text><text fill="#000000" font-family="sans-serif" font-size="13" lengthAdjust="spacing" textLength="280.4712" x="591.19" y="122.2988">description of the action / cycle that created</text><text fill="#000000" font-family="sans-serif" font-size="13" lengthAdjust="spacing" textLength="324.7017" x="591.19" y="137.6094">a diagram element, and no per-element annotation</text><text fill="#000000" font-family="sans-serif" font-size="13" lengthAdjust="spacing" textLength="204.8389" x="591.19" y="152.9199">surfaced on clicking an element.</text></g><g class="entity" data-qualified-name="GMN23" data-source-line="47" id="ent0024"><path d="M135.32,59.1483 L135.32,161.0116 A0,0 0 0 0 135.32,161.0116 L295.76,161.0116 L299.76,217.3783 L303.76,161.0116 L464.194,161.0116 A0,0 0 0 0 464.194,161.0116 L464.194,69.1483 L454.194,59.1483 L135.32,59.1483 A0,0 0 0 0 135.32,59.1483" fill="#FEFFDD" style="stroke:#181818;stroke-width:0.5;"/><path d="M454.194,59.1483 L454.194,69.1483 L464.194,69.1483 L454.194,59.1483" fill="#FEFFDD" style="stroke:#181818;stroke-width:0.5;"/><text fill="#000000" font-family="sans-serif" font-size="13" lengthAdjust="spacing" textLength="307.874" x="141.32" y="76.7166">Reads pre-rendered SVGs from .mdd/rendered/.</text><text fill="#000000" font-family="sans-serif" font-size="13" lengthAdjust="spacing" textLength="292.2651" x="141.32" y="92.0272">If no models are mapped/rendered the canvas</text><text fill="#000000" font-family="sans-serif" font-size="13" lengthAdjust="spacing" textLength="294.2329" x="141.32" y="107.3377">shows "No rendered output". Text rendering is</text><text fill="#000000" font-family="sans-serif" font-size="13" lengthAdjust="spacing" textLength="307.5439" x="141.32" y="122.6483">realized by SEQ-RENDER-DIAGRAM-PAGE, which</text><text fill="#000000" font-family="sans-serif" font-size="13" lengthAdjust="spacing" textLength="222.2568" x="141.32" y="137.9588">consults a populated font database</text><text fill="#000000" font-family="sans-serif" font-size="13" lengthAdjust="spacing" textLength="276.5991" x="141.32" y="153.2694">(DOM-FONT-DATABASE) before rasterizing.</text></g><!--link Dev to View--><g class="link" data-entity-1="ent0002" data-entity-2="ent0004" data-link-type="dependency" data-source-line="19" id="lnk9"><path d="M66.71,362.5483 C83.7,339.6783 107.87,311.7883 135.32,294.0783 C157.63,279.6783 178.5672,270.9427 203.8472,263.4527" fill="none" id="Dev-to-View" style="stroke:#181818;stroke-width:1;"/><polygon fill="#181818" points="209.6,261.7483,199.8345,260.4698,204.806,263.1687,202.1071,268.1402,209.6,261.7483" style="stroke:#181818;stroke-width:1;"/></g><!--link Dev to Browse--><g class="link" data-entity-1="ent0002" data-entity-2="ent0005" data-link-type="dependency" data-source-line="20" id="lnk10"><path d="M74.57,403.6283 C176.49,410.6983 481.04,426.3183 555.19,367.0783 C591.78,337.8483 550.75,297.7983 585.19,266.0783 C610.31,242.9483 640.3781,233.8433 672.9681,230.1533" fill="none" id="Dev-to-Browse" style="stroke:#181818;stroke-width:1;"/><polygon fill="#181818" points="678.93,229.4783,669.5371,226.5162,673.9617,230.0408,670.4372,234.4654,678.93,229.4783" style="stroke:#181818;stroke-width:1;"/></g><!--link Dev to PanZoom--><g class="link" data-entity-1="ent0002" data-entity-2="ent0006" data-link-type="dependency" data-source-line="21" id="lnk11"><path d="M74.53,415.6283 C162.62,451.5883 404.95,534.1983 555.19,427.0783 C588.5,403.3283 554.59,367.2083 585.19,340.0783 C608.6,319.3283 634.8786,310.1631 665.0986,305.5531" fill="none" id="Dev-to-PanZoom" style="stroke:#181818;stroke-width:1;"/><polygon fill="#181818" points="671.03,304.6483,661.5297,302.0513,666.0872,305.4023,662.7361,309.9598,671.03,304.6483" style="stroke:#181818;stroke-width:1;"/></g><!--link Dev to Graph--><g class="link" data-entity-1="ent0002" data-entity-2="ent0007" data-link-type="dependency" data-source-line="22" id="lnk12"><path d="M74.54,386.1483 C84.05,382.2183 94.49,378.2183 104.32,375.0783 C147.72,361.2183 191.9626,350.9349 230.4426,343.0349" fill="none" id="Dev-to-Graph" style="stroke:#181818;stroke-width:1;"/><polygon fill="#181818" points="236.32,341.8283,226.6994,339.72,231.4222,342.8338,228.3083,347.5565,236.32,341.8283" style="stroke:#181818;stroke-width:1;"/></g><!--link Dev to Trace--><g class="link" data-entity-1="ent0002" data-entity-2="ent0008" data-link-type="dependency" data-source-line="23" id="lnk13"><path d="M55.31,439.3883 C65.42,460.8083 81.35,485.6283 104.32,498.0783 C280.48,593.5883 361.29,548.6583 555.19,498.0783 C619.31,481.3483 679.7738,442.762 718.1138,414.942" fill="none" id="Dev-to-Trace" style="stroke:#181818;stroke-width:1;"/><polygon fill="#181818" points="722.97,411.4183,713.3365,413.4664,718.9231,414.3547,718.0348,419.9414,722.97,411.4183" style="stroke:#181818;stroke-width:1;"/></g><!--link View to Browse--><g class="link" data-entity-1="ent0004" data-entity-2="ent0005" data-link-type="dependency" data-source-line="25" id="lnk14"><path d="M418.85,240.4583 C500.98,237.9383 602.1128,234.8321 673.5728,232.6421" fill="none" id="View-to-Browse" style="stroke:#181818;stroke-width:1;stroke-dasharray:7,7;"/><polygon fill="#181818" points="679.57,232.4583,670.4517,228.7358,674.5723,232.6114,670.6968,236.7321,679.57,232.4583" style="stroke:#181818;stroke-width:1;"/><text fill="#000000" font-family="sans-serif" font-size="13" lengthAdjust="spacing" textLength="59.3569" x="495.19" y="233.2266">&#171;include&#187;</text></g><!--link View to PanZoom--><g class="link" data-entity-1="ent0004" data-entity-2="ent0006" data-link-type="dependency" data-source-line="26" id="lnk15"><path d="M404.01,257.4283 C488.4,268.3383 599.7896,282.7382 675.5896,292.5482" fill="none" id="View-to-PanZoom" style="stroke:#181818;stroke-width:1;stroke-dasharray:7,7;"/><polygon fill="#181818" points="681.54,293.3183,673.1278,288.1962,676.5814,292.6765,672.101,296.1301,681.54,293.3183" style="stroke:#181818;stroke-width:1;"/><text fill="#000000" font-family="sans-serif" font-size="13" lengthAdjust="spacing" textLength="57.1924" x="496.19" y="266.6166">&#171;extend&#187;</text></g><!--link Graph to Trace--><g class="link" data-entity-1="ent0007" data-entity-2="ent0008" data-link-type="dependency" data-source-line="27" id="lnk16"><path d="M371.55,338.6083 C445.77,347.5583 557.3531,361.0103 643.1431,371.3503" fill="none" id="Graph-to-Trace" style="stroke:#181818;stroke-width:1;stroke-dasharray:7,7;"/><polygon fill="#181818" points="649.1,372.0683,640.6433,367.0201,644.1359,371.47,639.686,374.9626,649.1,372.0683" style="stroke:#181818;stroke-width:1;"/><text fill="#000000" font-family="sans-serif" font-size="13" lengthAdjust="spacing" textLength="59.3569" x="495.19" y="350.8566">&#171;include&#187;</text></g><!--link Trace to GMN20--><g class="link" data-entity-1="ent0008" data-entity-2="ent0021" data-link-type="association" data-source-line="37" id="lnk22"><path d="M635.44,381.7883 C593.49,373.9683 550.65,357.1083 524.69,322.5783 C495.58,283.8583 498.86,254.5583 524.69,213.5783 C539.54,190.0283 560.88,171.3483 584.7,156.5583" fill="none" id="Trace-GMN20" style="stroke:#181818;stroke-width:1;stroke-dasharray:7,7;"/></g><?plantuml-src VLJ1RkCs4BthAmQwh8rQpZrO1FMktS10usnZRxOeUbXQ6bb4Q58WANkJea1F_O2YNxXVieyZAKcBeYURr9kPDu_pvWrzhwl9n-sgk5-lFXNBzUBwRd6pdMPlw7tdFTjO15qnTO6BKWMca-OpkPfYm_JvM5LoyPcqZUnL6VM9gTBguDLHlh2V8zMsT2rVIan-zZfgUq24d3-kSzfpeqxQUVhwnz_KAkHA01Ils7D5HrUnGPOXRw19Q5JBWRwZo5_Yb9oDJfA5qZFREUrmJTQTXnnXdaKT3TF8LmhzaoPDohxVQPOPhYCXfTU79WBd6OqvcsLe42pp9P_Oe2EVamg4KvObYB87rCXHfEXpvlHRHaawKIw_JvMVknhA_sh7RXQRfVH3XWzwRtWgsLFGwoJll3lZLpIXMXiE0kklNmC_A4lALlJat95APK-gH-B-5rozXgvjQC6V8bwG2QpQHg3NwTz_0VlgwsMG2dsOqVQXhx1Bv-ptB8CoL1HNVG_ZOM0w7aSwuxclEPxwL9aeDv-FmNH9RzzgMvgkugkhbwz3BlaC8Q4qlaf2-Ip9_XMRMHTvU6XCzRECErUfnqjI5BIyQcrKd94oRQFs77MfJ1esPmomHWS9nbJunrSlGnCP9A-qcSvfum3jPya15Z6fCymebO-bIQAxhaMfcIXg4tRFjVDyeMeu2u5rtOykVqdb1lUKA3RFM48Y3ztiNOnG0Onw-OZkfB_yvdQv-f7UtsvsgvztEPncmJJsdGhXLiLc1lo3jXMOWFevxGVfi6TsvB9HLlgFGt9vU9hK7ZM__laN9XnQmIvoY6vAhUa29XkiK_w043JM-vKDv80PT0NJDl05wK2RMsgwexA5PrKfE249nv1Rjv9ts3vAJ4aNWuAnKP7WVuLy253F_aQD8tmzAalmRJ7SuGgA2Lk4XCxNQAd2Fg7IwF8XRI6uQ03_Zyw3IU_0Dr3hkNXs-VR-Ef18CyTUk1ZlB-Q0h-j4H-O5HaBlHzMs_0BgNrYSczWr64tAD-vbXRWkjbtCXttNNyjgJNWeOVGJKFj7sgv-AkvMc-NgRjpmnOV5zMf6vqQNoU6biw4p4JIeTMrdaeXu9IXKgQZsIZmnMTxU53zWUehbOhTujzYkfiEGOb02fbG_eVgBJDy0?></g></svg>