<svg xmlns="http://www.w3.org/2000/svg" xmlns:xlink="http://www.w3.org/1999/xlink" contentStyleType="text/css" data-diagram-type="DESCRIPTION" height="592px" preserveAspectRatio="none" style="width:861px;height:592px;background:#FFFFFF;" version="1.1" viewBox="0 0 861 592" width="861px" zoomAndPan="magnify"><?plantuml 1.2026.3?><defs/><g><g class="title" data-source-line="5"><text fill="#000000" font-family="sans-serif" font-size="14" font-weight="700" lengthAdjust="spacing" textLength="272.3369" x="291.2165" y="23.5352">mdd view &#8212; diagram viewer (current)</text></g><!--cluster mdd-viewer--><g class="cluster" data-qualified-name="mdd-viewer" data-source-line="11" id="ent0003"><rect fill="none" height="251" rx="2.5" ry="2.5" style="stroke:#181818;stroke-width:1;" width="683.76" x="164.01" y="161.4183"/><text fill="#000000" font-family="sans-serif" font-size="14" font-weight="700" lengthAdjust="spacing" textLength="88.7783" x="461.5008" y="176.9534">mdd-viewer</text></g><!--entity View--><g class="entity" data-qualified-name="mdd-viewer.View" data-source-line="12" id="ent0004"><ellipse cx="299.7649" cy="228.4173" fill="#F1F1F1" rx="119.7449" ry="26.349" style="stroke:#181818;stroke-width:0.5;"/><text fill="#000000" font-family="sans-serif" font-size="14" lengthAdjust="spacing" textLength="157.6641" x="220.9328" y="224.1836">View rendered diagram</text><text fill="#000000" font-family="sans-serif" font-size="14" lengthAdjust="spacing" textLength="172.3271" x="213.6013" y="240.6719">(shapes AND text legible)</text></g><!--entity Browse--><g class="entity" data-qualified-name="mdd-viewer.Browse" data-source-line="13" id="ent0005"><ellipse cx="708.4831" cy="214.4189" fill="#F1F1F1" rx="78.9031" ry="18.1806" style="stroke:#181818;stroke-width:0.5;"/><text fill="#000000" font-family="sans-serif" font-size="14" lengthAdjust="spacing" textLength="127.4697" x="644.7482" y="219.163">Browse model files</text></g><!--entity PanZoom--><g class="entity" data-qualified-name="mdd-viewer.PanZoom" data-source-line="14" id="ent0006"><ellipse cx="708.4797" cy="287.4142" fill="#F1F1F1" rx="87.1297" ry="19.8259" style="stroke:#181818;stroke-width:0.5;"/><text fill="#000000" font-family="sans-serif" font-size="14" lengthAdjust="spacing" textLength="146.6787" x="635.1404" y="292.1584">Pan and zoom canvas</text></g><!--entity Graph--><g class="entity" data-qualified-name="mdd-viewer.Graph" data-source-line="15" id="ent0007"><ellipse cx="299.7605" cy="314.4144" fill="#F1F1F1" rx="80.4305" ry="18.4861" style="stroke:#181818;stroke-width:0.5;"/><text fill="#000000" font-family="sans-serif" font-size="14" lengthAdjust="spacing" textLength="131.0928" x="234.2141" y="319.1585">Inspect trace graph</text></g><!--entity Trace--><g class="entity" data-qualified-name="mdd-viewer.Trace" data-source-line="16" id="ent0008"><ellipse cx="708.4782" cy="369.4159" fill="#F1F1F1" rx="123.2882" ry="27.0576" style="stroke:#181818;stroke-width:0.5;"/><text fill="#000000" font-family="sans-serif" font-size="14" lengthAdjust="spacing" textLength="226.0098" x="595.4733" y="374.1601">Inspect model IDs and trace links</text></g><!--entity Dev--><g class="entity" data-qualified-name="Dev" data-source-line="9" id="ent0002"><ellipse cx="40.1592" cy="355.6783" fill="#F1F1F1" rx="8" ry="8" style="stroke:#181818;stroke-width:0.5;"/><path d="M40.1592,363.6783 L40.1592,390.6783 M27.1592,371.6783 L53.1592,371.6783 M40.1592,390.6783 L27.1592,405.6783 M40.1592,390.6783 L53.1592,405.6783" fill="none" style="stroke:#181818;stroke-width:0.5;"/><text fill="#000000" font-family="sans-serif" font-size="14" lengthAdjust="spacing" textLength="68.3184" x="6" y="420.7134">Developer</text></g><g class="entity" data-qualified-name="GMN17" data-source-line="30" id="ent0018"><path d="M135.32,43.4883 L135.32,145.3516 A0,0 0 0 0 135.32,145.3516 L295.76,145.3516 L299.76,201.7283 L303.76,145.3516 L464.194,145.3516 A0,0 0 0 0 464.194,145.3516 L464.194,53.4883 L454.194,43.4883 L135.32,43.4883 A0,0 0 0 0 135.32,43.4883" fill="#FEFFDD" style="stroke:#181818;stroke-width:0.5;"/><path d="M454.194,43.4883 L454.194,53.4883 L464.194,53.4883 L454.194,43.4883" fill="#FEFFDD" style="stroke:#181818;stroke-width:0.5;"/><text fill="#000000" font-family="sans-serif" font-size="13" lengthAdjust="spacing" textLength="307.874" x="141.32" y="61.0566">Reads pre-rendered SVGs from .mdd/rendered/.</text><text fill="#000000" font-family="sans-serif" font-size="13" lengthAdjust="spacing" textLength="292.2651" x="141.32" y="76.3672">If no models are mapped/rendered the canvas</text><text fill="#000000" font-family="sans-serif" font-size="13" lengthAdjust="spacing" textLength="294.2329" x="141.32" y="91.6777">shows "No rendered output". Text rendering is</text><text fill="#000000" font-family="sans-serif" font-size="13" lengthAdjust="spacing" textLength="307.5439" x="141.32" y="106.9883">realized by SEQ-RENDER-DIAGRAM-PAGE, which</text><text fill="#000000" font-family="sans-serif" font-size="13" lengthAdjust="spacing" textLength="222.2568" x="141.32" y="122.2988">consults a populated font database</text><text fill="#000000" font-family="sans-serif" font-size="13" lengthAdjust="spacing" textLength="276.5991" x="141.32" y="137.6094">(DOM-FONT-DATABASE) before rasterizing.</text></g><!--link Dev to View--><g class="link" data-entity-1="ent0002" data-entity-2="ent0004" data-link-type="dependency" data-source-line="19" id="lnk9"><path d="M66.71,346.8983 C83.7,324.0283 107.87,296.1283 135.32,278.4183 C157.63,264.0283 178.5672,255.2827 203.8472,247.7927" fill="none" id="Dev-to-View" style="stroke:#181818;stroke-width:1;"/><polygon fill="#181818" points="209.6,246.0883,199.8345,244.8098,204.806,247.5087,202.1071,252.4802,209.6,246.0883" style="stroke:#181818;stroke-width:1;"/></g><!--link Dev to Browse--><g class="link" data-entity-1="ent0002" data-entity-2="ent0005" data-link-type="dependency" data-source-line="20" id="lnk10"><path d="M74.58,388.3683 C176.54,396.6383 481.18,415.7483 555.19,356.4183 C593.4,325.7983 550.75,285.2283 585.19,250.4183 C599.05,236.4183 612.2723,229.4263 631.1623,224.1363" fill="none" id="Dev-to-Browse" style="stroke:#181818;stroke-width:1;"/><polygon fill="#181818" points="636.94,222.5183,627.1947,221.0935,632.1252,223.8666,629.3521,228.7971,636.94,222.5183" style="stroke:#181818;stroke-width:1;"/></g><!--link Dev to PanZoom--><g class="link" data-entity-1="ent0002" data-entity-2="ent0006" data-link-type="dependency" data-source-line="21" id="lnk11"><path d="M74.53,399.9783 C162.62,435.9283 404.95,518.5383 555.19,411.4183 C588.5,387.6783 555.72,352.7883 585.19,324.4183 C598.46,311.6583 610.2519,305.064 627.8619,299.574" fill="none" id="Dev-to-PanZoom" style="stroke:#181818;stroke-width:1;"/><polygon fill="#181818" points="633.59,297.7883,623.8074,296.6482,628.8166,299.2764,626.1884,304.2857,633.59,297.7883" style="stroke:#181818;stroke-width:1;"/></g><!--link Dev to Graph--><g class="link" data-entity-1="ent0002" data-entity-2="ent0007" data-link-type="dependency" data-source-line="22" id="lnk12"><path d="M74.54,370.4883 C84.05,366.5683 94.49,362.5583 104.32,359.4183 C147.72,345.5683 191.9626,335.2749 230.4426,327.3749" fill="none" id="Dev-to-Graph" style="stroke:#181818;stroke-width:1;"/><polygon fill="#181818" points="236.32,326.1683,226.6994,324.06,231.4222,327.1738,228.3083,331.8965,236.32,326.1683" style="stroke:#181818;stroke-width:1;"/></g><!--link Dev to Trace--><g class="link" data-entity-1="ent0002" data-entity-2="ent0008" data-link-type="dependency" data-source-line="23" id="lnk13"><path d="M55.31,423.7383 C65.42,445.1483 81.35,469.9683 104.32,482.4183 C280.48,577.9283 364.93,545.2983 555.19,482.4183 C606.46,465.4783 650.2806,428.0941 678.2206,400.3741" fill="none" id="Dev-to-Trace" style="stroke:#181818;stroke-width:1;"/><polygon fill="#181818" points="682.48,396.1483,673.2737,399.6475,678.9305,399.6698,678.9082,405.3266,682.48,396.1483" style="stroke:#181818;stroke-width:1;"/></g><!--link View to Browse--><g class="link" data-entity-1="ent0004" data-entity-2="ent0005" data-link-type="dependency" data-source-line="25" id="lnk14"><path d="M418.4,224.3683 C486.43,222.0283 564.1436,219.3548 623.9436,217.2948" fill="none" id="View-to-Browse" style="stroke:#181818;stroke-width:1;stroke-dasharray:7,7;"/><polygon fill="#181818" points="629.94,217.0883,620.8076,213.4005,624.943,217.2604,621.083,221.3958,629.94,217.0883" style="stroke:#181818;stroke-width:1;"/><text fill="#000000" font-family="sans-serif" font-size="13" lengthAdjust="spacing" textLength="59.3569" x="495.19" y="216.3266">&#171;include&#187;</text></g><!--link View to PanZoom--><g class="link" data-entity-1="ent0004" data-entity-2="ent0006" data-link-type="dependency" data-source-line="26" id="lnk15"><path d="M400.77,242.9283 C472.98,253.4083 562.9322,266.4569 628.1422,275.9169" fill="none" id="View-to-PanZoom" style="stroke:#181818;stroke-width:1;stroke-dasharray:7,7;"/><polygon fill="#181818" points="634.08,276.7783,625.7475,271.5276,629.1318,276.0604,624.599,279.4447,634.08,276.7783" style="stroke:#181818;stroke-width:1;"/><text fill="#000000" font-family="sans-serif" font-size="13" lengthAdjust="spacing" textLength="57.1924" x="496.19" y="254.4866">&#171;extend&#187;</text></g><!--link Graph to Trace--><g class="link" data-entity-1="ent0007" data-entity-2="ent0008" data-link-type="dependency" data-source-line="27" id="lnk16"><path d="M369.75,323.7483 C433.55,332.3783 523.344,344.5248 596.604,354.4248" fill="none" id="Graph-to-Trace" style="stroke:#181818;stroke-width:1;stroke-dasharray:7,7;"/><polygon fill="#181818" points="602.55,355.2283,594.1667,350.0591,597.595,354.5587,593.0954,357.987,602.55,355.2283" style="stroke:#181818;stroke-width:1;"/><text fill="#000000" font-family="sans-serif" font-size="13" lengthAdjust="spacing" textLength="59.3569" x="495.19" y="338.4866">&#171;include&#187;</text></g><?plantuml-src RLDBRjim4Dtp50DjOgEbiWy2eqgb6bh4IMt71OekGaiZYwXC2YHbjouAv10zOK_I4Id5Rj6LD3DltfiVh-2TB2TFgunlykmJJ_DalapkLrDs1UyxOr0vRcM9q5daXR081ub7q1Mu6k5vNvRUyGnIEJIYSFA0K4gnCsBl8sXYebeLkiKRdnCTZNHIxIZ3sqzv15kinK5g0xzVVa4hYAi7a7Y91alOwn8ROXbuBKniBLgqy0OSVdDJqCffJsOBWwXYM9CRb3uE73PcJhe6OQpN2_rT9aoAqE-KiGOh1qHfvAvsX3D8ZMd563L8LKOf7h2XZam4mW9PZFKGeNQa4P483vmH_63GZyvFBjhqogzT3V9VrDXDiaXzFz3WJcuRd7hsFkcIvCxe8ttzJA2I3LeF2-vBuADG85G99wttK0Xr4059_i_akeJcohPKFpZQ809LrTOUEk___WSCwdbglK98QwJw6XJMlSr-CaQJ0SvdeOVH62eTpR6SqGwQenMec9zS78_9S0Etjr8LJLVYR7QE3bm-J8EaILFK4_gm9_idbodj4BRQESgZinx6lKHHMcWDyjTzhJPp2vKXM4mRlXxzrp71yugkBKo5Hc9eFQ9jyGponnbsG6XRKnCGBVJv67Jdsiv5m-K6jtyaFTwWQEI9KDlliCe-ycMsIBFb-5RvOpBFtiAnbaM_gq8hspMEoe1MjrqZ72LMz4AW54viXJ-IIVfmppyyBDOyJTR9NRBAflG8AqsL6s7f9SiJgSUCwe1-G7y0?></g></svg>