<svg xmlns="http://www.w3.org/2000/svg" xmlns:xlink="http://www.w3.org/1999/xlink" contentStyleType="text/css" data-diagram-type="DESCRIPTION" height="307px" preserveAspectRatio="none" style="width:1244px;height:307px;background:#FFFFFF;" version="1.1" viewBox="0 0 1244 307" width="1244px" zoomAndPan="magnify"><?plantuml 1.2026.3?><defs/><g><g class="title" data-source-line="6"><text fill="#000000" font-family="sans-serif" font-size="14" font-weight="700" lengthAdjust="spacing" textLength="337.0869" x="450.3771" y="23.5352">Agent session bootstrap &#8212; use cases (current)</text></g><!--cluster mdd toolchain--><g class="cluster" data-qualified-name="mdd toolchain" data-source-line="12" id="ent0003"><rect fill="none" height="123" rx="2.5" ry="2.5" style="stroke:#181818;stroke-width:1;" width="811.57" x="333.5" y="115.4583"/><text fill="#000000" font-family="sans-serif" font-size="14" font-weight="700" lengthAdjust="spacing" textLength="103.4756" x="687.5472" y="130.9934">mdd toolchain</text></g><!--entity Brief--><g class="entity" data-qualified-name="mdd toolchain.Brief" data-source-line="13" id="ent0004"><ellipse cx="440.663" cy="186.4535" fill="#F1F1F1" rx="91.163" ry="35.5052" style="stroke:#181818;stroke-width:0.5;"/><text fill="#000000" font-family="sans-serif" font-size="14" lengthAdjust="spacing" textLength="134.1621" x="373.5819" y="178.3492">Receive map TOC +</text><text fill="#000000" font-family="sans-serif" font-size="14" lengthAdjust="spacing" textLength="118.624" x="381.351" y="194.8375">freshness brief at</text><text fill="#000000" font-family="sans-serif" font-size="14" lengthAdjust="spacing" textLength="86.0439" x="397.641" y="211.3258">session start</text></g><!--entity First--><g class="entity" data-qualified-name="mdd toolchain.First" data-source-line="14" id="ent0005"><ellipse cx="1002.5285" cy="186.4573" fill="#F1F1F1" rx="126.5385" ry="36.449" style="stroke:#181818;stroke-width:0.5;"/><text fill="#000000" font-family="sans-serif" font-size="14" lengthAdjust="spacing" textLength="146.3984" x="929.3293" y="172.5006">Follow diagrams-first</text><text fill="#000000" font-family="sans-serif" font-size="14" lengthAdjust="spacing" textLength="92.6338" x="956.2116" y="188.9888">reading order</text><text fill="#000000" font-family="sans-serif" font-size="14" lengthAdjust="spacing" textLength="182.6904" x="911.1833" y="205.4771">(fresh: read / stale: remap)</text></g><!--entity Agent--><g class="entity" data-qualified-name="Agent" data-source-line="10" id="ent0002"><ellipse cx="86.0488" cy="225.7083" fill="#F1F1F1" rx="8" ry="8" style="stroke:#181818;stroke-width:0.5;"/><path d="M86.0488,233.7083 L86.0488,260.7083 M73.0488,241.7083 L99.0488,241.7083 M86.0488,260.7083 L73.0488,275.7083 M86.0488,260.7083 L99.0488,275.7083" fill="none" style="stroke:#181818;stroke-width:0.5;"/><text fill="#000000" font-family="sans-serif" font-size="14" lengthAdjust="spacing" textLength="160.0977" x="6" y="290.7434">Agent (Claude / Codex)</text></g><g class="entity" data-qualified-name="GMN9" data-source-line="22" id="ent0010"><path d="M227.1,43.4883 L227.1,99.4199 A0,0 0 0 0 227.1,99.4199 L436.66,99.4199 L440.66,150.5183 L444.66,99.4199 L654.223,99.4199 A0,0 0 0 0 654.223,99.4199 L654.223,53.4883 L644.223,43.4883 L227.1,43.4883 A0,0 0 0 0 227.1,43.4883" fill="#FEFFDD" style="stroke:#181818;stroke-width:0.5;"/><path d="M644.223,43.4883 L644.223,53.4883 L654.223,53.4883 L644.223,43.4883" fill="#FEFFDD" style="stroke:#181818;stroke-width:0.5;"/><text fill="#000000" font-family="sans-serif" font-size="13" lengthAdjust="spacing" textLength="406.123" x="233.1" y="61.0566">USE-SESSION-BRIEF: `mdd context` -&gt; Project::session_context</text><text fill="#000000" font-family="sans-serif" font-size="13" lengthAdjust="spacing" textLength="382.7129" x="233.1" y="76.3672">(map_toc + map_status). Wired by mdd init as a SessionStart</text><text fill="#000000" font-family="sans-serif" font-size="13" lengthAdjust="spacing" textLength="244.3594" x="233.1" y="91.6777">hook. Realized by SEQ-SESSION-BRIEF.</text></g><g class="entity" data-qualified-name="GMN12" data-source-line="28" id="ent0013"><path d="M775.22,43.4883 L775.22,99.4199 A0,0 0 0 0 775.22,99.4199 L998.53,99.4199 L1002.53,149.6183 L1006.53,99.4199 L1229.8411,99.4199 A0,0 0 0 0 1229.8411,99.4199 L1229.8411,53.4883 L1219.8411,43.4883 L775.22,43.4883 A0,0 0 0 0 775.22,43.4883" fill="#FEFFDD" style="stroke:#181818;stroke-width:0.5;"/><path d="M1219.8411,43.4883 L1219.8411,53.4883 L1229.8411,53.4883 L1219.8411,43.4883" fill="#FEFFDD" style="stroke:#181818;stroke-width:0.5;"/><text fill="#000000" font-family="sans-serif" font-size="13" lengthAdjust="spacing" textLength="433.6211" x="781.22" y="61.0566">USE-DIAGRAMS-FIRST: directive text in templates::claude_entrypoint</text><text fill="#000000" font-family="sans-serif" font-size="13" lengthAdjust="spacing" textLength="418.5073" x="781.22" y="76.3672">/ agents_entrypoint. Realized by SEQ-DIAGRAMS-FIRST; owned by</text><text fill="#000000" font-family="sans-serif" font-size="13" lengthAdjust="spacing" textLength="191.8325" x="781.22" y="91.6777">CMP-ENTRYPOINT-DIRECTIVE.</text></g><!--link Agent to Brief--><g class="link" data-entity-1="ent0002" data-entity-2="ent0004" data-link-type="dependency" data-source-line="17" id="lnk6"><path d="M166.18,239.9683 C223.54,228.7483 294.9717,214.7707 352.7617,203.4607" fill="none" id="Agent-to-Brief" style="stroke:#181818;stroke-width:1;"/><polygon fill="#181818" points="358.65,202.3083,349.0493,200.1113,353.7431,203.2686,350.5858,207.9624,358.65,202.3083" style="stroke:#181818;stroke-width:1;"/></g><!--link Agent to First--><g class="link" data-entity-1="ent0002" data-entity-2="ent0005" data-link-type="dependency" data-source-line="18" id="lnk7"><path d="M166.14,256.2883 C275.91,256.7583 480.57,255.0983 654.22,239.4583 C735.47,232.1383 820.7174,219.0189 889.2474,207.1889" fill="none" id="Agent-to-First" style="stroke:#181818;stroke-width:1;"/><polygon fill="#181818" points="895.16,206.1683,885.6107,203.7576,890.2329,207.0188,886.9716,211.641,895.16,206.1683" style="stroke:#181818;stroke-width:1;"/></g><!--link Brief to First--><g class="link" data-entity-1="ent0004" data-entity-2="ent0005" data-link-type="dependency" data-source-line="19" id="lnk8"><path d="M532.23,186.4583 C625.39,186.4583 765.21,186.4583 869.58,186.4583" fill="none" id="Brief-to-First" style="stroke:#181818;stroke-width:1;stroke-dasharray:7,7;"/><polygon fill="#181818" points="875.58,186.4583,866.58,182.4583,870.58,186.4583,866.58,190.4583,875.58,186.4583" style="stroke:#181818;stroke-width:1;"/><text fill="#000000" font-family="sans-serif" font-size="13" lengthAdjust="spacing" textLength="59.3569" x="685.22" y="183.0266">&#171;include&#187;</text></g><?plantuml-src ZLJTRjem5BxFKnnnKw8sePDsbLLLQHgwQ2rqX6wQX4IDOy1ji95jIjaqQG-n9zoJxDW62cNLUXF5FZu_t_c-SmxWZ9VrsoABYgmeyauxEk_cMIiC3k2iP9hkcuwWbazd5PioOLYPmDsqB85AF3oPEwZZAQ8LXrHEfqIKEabIRmk1aghISAFaFQCcIJJJcainMFaUmMB2wGI6SrwL6io4uOMiM3GbC-XrKWnDPWCZASX7fY36H0sy2G6pm4XQ7owSctsd3J5p3IF5z4HW8a2VabCJWosN2svWmT48-4Cq44WhCYyPbesVmbTM6A8CJAHyi95ZwbuqD3E6Yx6ExxKKKD_0MIXks60Dodg5CNGPgVXtLi9m2KNsURUJ7q0kXBUbrpSRMtgLmw6xoTjvB_hOwNoAQuwG5LCNUVEosxmkebRUBNgxLEtQThcoG6r_Iax6YanrDE9A6r2Cb0Weagh4lbegN2CPEXB3a40FV80nr78ckJ3G03B6ezw-gtDX6y5iTus4zAfvUv4XI_YuUPcrUuNzHqcW9qAk97tG5lcQZZ3nP45qwYh25Y2fbLo0bdD5sQ3Y0ZqQWCnMpBvgMAbPSJXCYeySHFG5Xok67jxxrF1852TOf65MWfRa9y0YrLoyq2yME4UPBlUfs-ti2-umIVVRJITlz_1TDqjx-PVCavREbS8kHPgZiEQQuHIWHX2RyZs4bM9WAANHHY6UEbrIX7Xy_EvzU6H9ioDXui1mWzVDLxp-_Fgz5RzEVTum22esCWui7qyCag-G9NGD0a8DLb7p0Ukh0MZuxeGrczYPWi1w4376v3NRB2DbHIU4Ynhy2C0cjJcXrcMKyKStVsvW3_lYUVw6YhCH4DCNwzAr7I-NvjpQjYErFFExGksBbLB1ARKlwYvwukMo4eOzsQtWuhQiM_0p23p424NZKpsV_HDt2t6yEaC29oTSq0eRSdeQ148QXfqsHav1ZZRbxgt6byiGux-sxT1ziyyEjpOMxeolo52vFHf-GMql9VIs2-O_-oKE6Av6M_mU10_RGzWLTh9M21Bvbbs0GVwn3Tu-FkZ_wW1jwlyB?></g></svg>