<svg xmlns="http://www.w3.org/2000/svg" xmlns:xlink="http://www.w3.org/1999/xlink" contentStyleType="text/css" data-diagram-type="SEQUENCE" height="1208px" preserveAspectRatio="none" style="width:1348px;height:1208px;background:#FFFFFF;" version="1.1" viewBox="0 0 1348 1208" width="1348px" zoomAndPan="magnify"><?plantuml 1.2026.3?><defs/><g><g class="title" data-source-line="9"><text fill="#000000" font-family="sans-serif" font-size="14" font-weight="700" lengthAdjust="spacing" textLength="373.2764" x="484.1548" y="28.5352">Run a full MDD cycle from one description (current)</text></g><rect fill="none" height="132.1973" style="stroke:#000000;stroke-width:1.5;" width="286.644" x="196.9858" y="167.7754"/><rect fill="none" height="526.5449" style="stroke:#000000;stroke-width:1.5;" width="1322.5859" x="10" y="461.8359"/><rect fill="none" height="126.5527" style="stroke:#000000;stroke-width:1.5;" width="541.6128" x="20" y="544.7676"/><rect fill="none" height="90.8867" style="stroke:#000000;stroke-width:1.5;" width="1125.6001" x="196.9858" y="890.4941"/><g class="participant-lifeline" data-entity-uid="part1" data-qualified-name="Dev" data-source-line="11" id="part1-lifeline"><g><title>Developer</title><rect fill="#000000" fill-opacity="0.00000" height="1002.4688" width="8" x="63.1592" y="121.4648"/><line style="stroke:#181818;stroke-width:0.5;stroke-dasharray:5,5;" x1="67" x2="67" y1="121.4648" y2="1123.9336"/></g></g><g class="participant-lifeline" data-entity-uid="part2" data-qualified-name="Orch" data-source-line="12" id="part2-lifeline"><g><title>.mdd-cycle</title><rect fill="#000000" fill-opacity="0.00000" height="1002.4688" width="8" x="249.8052" y="121.4648"/><line style="stroke:#181818;stroke-width:0.5;stroke-dasharray:5,5;" x1="252.9858" x2="252.9858" y1="121.4648" y2="1123.9336"/></g></g><g class="participant-lifeline" data-entity-uid="part3" data-qualified-name="Store" data-source-line="13" id="part3-lifeline"><g><title>.mdd.cycles..N..</title><rect fill="#000000" fill-opacity="0.00000" height="1002.4688" width="8" x="599.3257" y="121.4648"/><line style="stroke:#181818;stroke-width:0.5;stroke-dasharray:5,5;" x1="602.5" x2="602.5" y1="121.4648" y2="1123.9336"/></g></g><g class="participant-lifeline" data-entity-uid="part4" data-qualified-name="Entry" data-source-line="14" id="part4-lifeline"><g><title>.mdd-generate</title><rect fill="#000000" fill-opacity="0.00000" height="1002.4688" width="8" x="769.9761" y="121.4648"/><line style="stroke:#181818;stroke-width:0.5;stroke-dasharray:5,5;" x1="773.1514" x2="773.1514" y1="121.4648" y2="1123.9336"/></g></g><g class="participant-lifeline" data-entity-uid="part5" data-qualified-name="Val" data-source-line="15" id="part5-lifeline"><g><title>.mdd-validate</title><rect fill="#000000" fill-opacity="0.00000" height="1002.4688" width="8" x="896.1938" y="121.4648"/><line style="stroke:#181818;stroke-width:0.5;stroke-dasharray:5,5;" x1="899.8008" x2="899.8008" y1="121.4648" y2="1123.9336"/></g></g><g class="participant-lifeline" data-entity-uid="part6" data-qualified-name="Impl" data-source-line="16" id="part6-lifeline"><g><title>.mdd-implement</title><rect fill="#000000" fill-opacity="0.00000" height="1002.4688" width="8" x="1028.9399" y="121.4648"/><line style="stroke:#181818;stroke-width:0.5;stroke-dasharray:5,5;" x1="1032.5869" x2="1032.5869" y1="121.4648" y2="1123.9336"/></g></g><g class="participant-lifeline" data-entity-uid="part7" data-qualified-name="Map" data-source-line="17" id="part7-lifeline"><g><title>.mdd-map</title><rect fill="#000000" fill-opacity="0.00000" height="1002.4688" width="8" x="1150.1675" y="121.4648"/><line style="stroke:#181818;stroke-width:0.5;stroke-dasharray:5,5;" x1="1153.293" x2="1153.293" y1="121.4648" y2="1123.9336"/></g></g><g class="participant-lifeline" data-entity-uid="part8" data-qualified-name="Rev" data-source-line="18" id="part8-lifeline"><g><title>.mdd-review</title><rect fill="#000000" fill-opacity="0.00000" height="1002.4688" width="8" x="1256.814" y="121.4648"/><line style="stroke:#181818;stroke-width:0.5;stroke-dasharray:5,5;" x1="1260.042" x2="1260.042" y1="121.4648" y2="1123.9336"/></g></g><g class="participant participant-head" data-entity-uid="part1" data-qualified-name="Dev" data-source-line="11" id="part1-head"><text fill="#000000" font-family="sans-serif" font-size="14" lengthAdjust="spacing" textLength="68.3184" x="30" y="118.5117">Developer</text><ellipse cx="67.1592" cy="53.4766" fill="#E2E2F0" rx="8" ry="8" style="stroke:#181818;stroke-width:0.5;"/><path d="M67.1592,61.4766 L67.1592,88.4766 M54.1592,69.4766 L80.1592,69.4766 M67.1592,88.4766 L54.1592,103.4766 M67.1592,88.4766 L80.1592,103.4766" fill="none" style="stroke:#181818;stroke-width:0.5;"/></g><g class="participant participant-tail" data-entity-uid="part1" data-qualified-name="Dev" data-source-line="11" id="part1-tail"><text fill="#000000" font-family="sans-serif" font-size="14" lengthAdjust="spacing" textLength="68.3184" x="30" y="1136.4688">Developer</text><ellipse cx="67.1592" cy="1147.9219" fill="#E2E2F0" rx="8" ry="8" style="stroke:#181818;stroke-width:0.5;"/><path d="M67.1592,1155.9219 L67.1592,1182.9219 M54.1592,1163.9219 L80.1592,1163.9219 M67.1592,1182.9219 L54.1592,1197.9219 M67.1592,1182.9219 L80.1592,1197.9219" fill="none" style="stroke:#181818;stroke-width:0.5;"/></g><g class="participant participant-head" data-entity-uid="part2" data-qualified-name="Orch" data-source-line="12" id="part2-head"><rect fill="#E2E2F0" height="46.9766" rx="2.5" ry="2.5" style="stroke:#181818;stroke-width:0.5;" width="93.6387" x="206.9858" y="73.4883"/><text fill="#000000" font-family="sans-serif" font-size="14" lengthAdjust="spacing" textLength="79.6387" x="213.9858" y="94.0234">/mdd-cycle</text><text fill="#000000" font-family="sans-serif" font-size="14" lengthAdjust="spacing" textLength="71.0596" x="218.2754" y="110.5117">(SKILL.md)</text></g><g class="participant participant-tail" data-entity-uid="part2" data-qualified-name="Orch" data-source-line="12" id="part2-tail"><rect fill="#E2E2F0" height="46.9766" rx="2.5" ry="2.5" style="stroke:#181818;stroke-width:0.5;" width="93.6387" x="206.9858" y="1122.9336"/><text fill="#000000" font-family="sans-serif" font-size="14" lengthAdjust="spacing" textLength="79.6387" x="213.9858" y="1143.4688">/mdd-cycle</text><text fill="#000000" font-family="sans-serif" font-size="14" lengthAdjust="spacing" textLength="71.0596" x="218.2754" y="1159.957">(SKILL.md)</text></g><g class="participant participant-head" data-entity-uid="part3" data-qualified-name="Store" data-source-line="13" id="part3-head"><text fill="#000000" font-family="sans-serif" font-size="14" lengthAdjust="spacing" textLength="130.3887" x="535.1313" y="102.0234">.mdd/cycles/&lt;N&gt;/</text><text fill="#000000" font-family="sans-serif" font-size="14" lengthAdjust="spacing" textLength="195.6514" x="502.5" y="118.5117">manifest.yml, before/, after/</text><path d="M585.3257,52.4883 C585.3257,42.4883 603.3257,42.4883 603.3257,42.4883 C603.3257,42.4883 621.3257,42.4883 621.3257,52.4883 L621.3257,78.4883 C621.3257,88.4883 603.3257,88.4883 603.3257,88.4883 C603.3257,88.4883 585.3257,88.4883 585.3257,78.4883 L585.3257,52.4883" fill="#E2E2F0" style="stroke:#181818;stroke-width:0.5;"/><path d="M585.3257,52.4883 C585.3257,62.4883 603.3257,62.4883 603.3257,62.4883 C603.3257,62.4883 621.3257,62.4883 621.3257,52.4883" fill="none" style="stroke:#181818;stroke-width:0.5;"/></g><g class="participant participant-tail" data-entity-uid="part3" data-qualified-name="Store" data-source-line="13" id="part3-tail"><text fill="#000000" font-family="sans-serif" font-size="14" lengthAdjust="spacing" textLength="130.3887" x="535.1313" y="1136.4688">.mdd/cycles/&lt;N&gt;/</text><text fill="#000000" font-family="sans-serif" font-size="14" lengthAdjust="spacing" textLength="195.6514" x="502.5" y="1152.957">manifest.yml, before/, after/</text><path d="M585.3257,1165.9102 C585.3257,1155.9102 603.3257,1155.9102 603.3257,1155.9102 C603.3257,1155.9102 621.3257,1155.9102 621.3257,1165.9102 L621.3257,1191.9102 C621.3257,1201.9102 603.3257,1201.9102 603.3257,1201.9102 C603.3257,1201.9102 585.3257,1201.9102 585.3257,1191.9102 L585.3257,1165.9102" fill="#E2E2F0" style="stroke:#181818;stroke-width:0.5;"/><path d="M585.3257,1165.9102 C585.3257,1175.9102 603.3257,1175.9102 603.3257,1175.9102 C603.3257,1175.9102 621.3257,1175.9102 621.3257,1165.9102" fill="none" style="stroke:#181818;stroke-width:0.5;"/></g><g class="participant participant-head" data-entity-uid="part4" data-qualified-name="Entry" data-source-line="14" id="part4-head"><rect fill="#E2E2F0" height="46.9766" rx="2.5" ry="2.5" style="stroke:#181818;stroke-width:0.5;" width="119.6494" x="714.1514" y="73.4883"/><text fill="#000000" font-family="sans-serif" font-size="14" lengthAdjust="spacing" textLength="105.6494" x="721.1514" y="94.0234">/mdd-generate</text><text fill="#000000" font-family="sans-serif" font-size="14" lengthAdjust="spacing" textLength="94.5068" x="726.7227" y="110.5117">or /mdd-map</text></g><g class="participant participant-tail" data-entity-uid="part4" data-qualified-name="Entry" data-source-line="14" id="part4-tail"><rect fill="#E2E2F0" height="46.9766" rx="2.5" ry="2.5" style="stroke:#181818;stroke-width:0.5;" width="119.6494" x="714.1514" y="1122.9336"/><text fill="#000000" font-family="sans-serif" font-size="14" lengthAdjust="spacing" textLength="105.6494" x="721.1514" y="1143.4688">/mdd-generate</text><text fill="#000000" font-family="sans-serif" font-size="14" lengthAdjust="spacing" textLength="94.5068" x="726.7227" y="1159.957">or /mdd-map</text></g><g class="participant participant-head" data-entity-uid="part5" data-qualified-name="Val" data-source-line="15" id="part5-head"><rect fill="#E2E2F0" height="30.4883" rx="2.5" ry="2.5" style="stroke:#181818;stroke-width:0.5;" width="112.7861" x="843.8008" y="89.9766"/><text fill="#000000" font-family="sans-serif" font-size="14" lengthAdjust="spacing" textLength="98.7861" x="850.8008" y="110.5117">/mdd-validate</text></g><g class="participant participant-tail" data-entity-uid="part5" data-qualified-name="Val" data-source-line="15" id="part5-tail"><rect fill="#E2E2F0" height="30.4883" rx="2.5" ry="2.5" style="stroke:#181818;stroke-width:0.5;" width="112.7861" x="843.8008" y="1122.9336"/><text fill="#000000" font-family="sans-serif" font-size="14" lengthAdjust="spacing" textLength="98.7861" x="850.8008" y="1143.4688">/mdd-validate</text></g><g class="participant participant-head" data-entity-uid="part6" data-qualified-name="Impl" data-source-line="16" id="part6-head"><rect fill="#E2E2F0" height="30.4883" rx="2.5" ry="2.5" style="stroke:#181818;stroke-width:0.5;" width="132.7061" x="966.5869" y="89.9766"/><text fill="#000000" font-family="sans-serif" font-size="14" lengthAdjust="spacing" textLength="118.7061" x="973.5869" y="110.5117">/mdd-implement</text></g><g class="participant participant-tail" data-entity-uid="part6" data-qualified-name="Impl" data-source-line="16" id="part6-tail"><rect fill="#E2E2F0" height="30.4883" rx="2.5" ry="2.5" style="stroke:#181818;stroke-width:0.5;" width="132.7061" x="966.5869" y="1122.9336"/><text fill="#000000" font-family="sans-serif" font-size="14" lengthAdjust="spacing" textLength="118.7061" x="973.5869" y="1143.4688">/mdd-implement</text></g><g class="participant participant-head" data-entity-uid="part7" data-qualified-name="Map" data-source-line="17" id="part7-head"><rect fill="#E2E2F0" height="30.4883" rx="2.5" ry="2.5" style="stroke:#181818;stroke-width:0.5;" width="89.749" x="1109.293" y="89.9766"/><text fill="#000000" font-family="sans-serif" font-size="14" lengthAdjust="spacing" textLength="75.749" x="1116.293" y="110.5117">/mdd-map</text></g><g class="participant participant-tail" data-entity-uid="part7" data-qualified-name="Map" data-source-line="17" id="part7-tail"><rect fill="#E2E2F0" height="30.4883" rx="2.5" ry="2.5" style="stroke:#181818;stroke-width:0.5;" width="89.749" x="1109.293" y="1122.9336"/><text fill="#000000" font-family="sans-serif" font-size="14" lengthAdjust="spacing" textLength="75.749" x="1116.293" y="1143.4688">/mdd-map</text></g><g class="participant participant-head" data-entity-uid="part8" data-qualified-name="Rev" data-source-line="18" id="part8-head"><rect fill="#E2E2F0" height="30.4883" rx="2.5" ry="2.5" style="stroke:#181818;stroke-width:0.5;" width="103.5439" x="1209.042" y="89.9766"/><text fill="#000000" font-family="sans-serif" font-size="14" lengthAdjust="spacing" textLength="89.5439" x="1216.042" y="110.5117">/mdd-review</text></g><g class="participant participant-tail" data-entity-uid="part8" data-qualified-name="Rev" data-source-line="18" id="part8-tail"><rect fill="#E2E2F0" height="30.4883" rx="2.5" ry="2.5" style="stroke:#181818;stroke-width:0.5;" width="103.5439" x="1209.042" y="1122.9336"/><text fill="#000000" font-family="sans-serif" font-size="14" lengthAdjust="spacing" textLength="89.5439" x="1216.042" y="1143.4688">/mdd-review</text></g><g class="message" data-entity-1="part1" data-entity-2="part2" data-source-line="20" id="msg1"><polygon fill="#181818" points="241.8052,148.7754,251.8052,152.7754,241.8052,156.7754,245.8052,152.7754" style="stroke:#181818;stroke-width:1;"/><line style="stroke:#181818;stroke-width:1;" x1="67.1592" x2="247.8052" y1="152.7754" y2="152.7754"/><text fill="#000000" font-family="sans-serif" font-size="13" lengthAdjust="spacing" textLength="162.646" x="74.1592" y="148.0332">/mdd-cycle [description?]</text></g><path d="M196.9858,167.7754 L259.1245,167.7754 L259.1245,175.0859 L249.1245,185.0859 L196.9858,185.0859 L196.9858,167.7754" fill="#EEEEEE" style="stroke:#000000;stroke-width:1.5;"/><rect fill="none" height="132.1973" style="stroke:#000000;stroke-width:1.5;" width="286.644" x="196.9858" y="167.7754"/><text fill="#000000" font-family="sans-serif" font-size="13" font-weight="700" lengthAdjust="spacing" textLength="17.1387" x="211.9858" y="181.3438">alt</text><text fill="#000000" font-family="sans-serif" font-size="11" font-weight="700" lengthAdjust="spacing" textLength="126.1777" x="274.1245" y="180.4102">[description provided]</text><g class="message" data-entity-1="part2" data-entity-2="part2" data-source-line="23" id="msg2"><line style="stroke:#181818;stroke-width:1;" x1="253.8052" x2="295.8052" y1="206.3965" y2="206.3965"/><line style="stroke:#181818;stroke-width:1;" x1="295.8052" x2="295.8052" y1="206.3965" y2="219.3965"/><line style="stroke:#181818;stroke-width:1;" x1="254.8052" x2="295.8052" y1="219.3965" y2="219.3965"/><polygon fill="#181818" points="264.8052,215.3965,254.8052,219.3965,264.8052,223.3965,260.8052,219.3965" style="stroke:#181818;stroke-width:1;"/><text fill="#000000" font-family="sans-serif" font-size="13" lengthAdjust="spacing" textLength="106.1074" x="260.8052" y="201.6543">entry = generate</text></g><line style="stroke:#000000;stroke-width:1;stroke-dasharray:2,2;" x1="196.9858" x2="483.6299" y1="228.3965" y2="228.3965"/><text fill="#000000" font-family="sans-serif" font-size="11" font-weight="700" lengthAdjust="spacing" textLength="89.9873" x="201.9858" y="239.0313">[no description]</text><g class="message" data-entity-1="part2" data-entity-2="part2" data-source-line="25" id="msg3"><line style="stroke:#181818;stroke-width:1;" x1="253.8052" x2="295.8052" y1="278.9727" y2="278.9727"/><line style="stroke:#181818;stroke-width:1;" x1="295.8052" x2="295.8052" y1="278.9727" y2="291.9727"/><line style="stroke:#181818;stroke-width:1;" x1="254.8052" x2="295.8052" y1="291.9727" y2="291.9727"/><polygon fill="#181818" points="264.8052,287.9727,254.8052,291.9727,264.8052,295.9727,260.8052,291.9727" style="stroke:#181818;stroke-width:1;"/><text fill="#000000" font-family="sans-serif" font-size="13" lengthAdjust="spacing" textLength="176.7949" x="260.8052" y="258.9199">entry = map (no comments)</text><text fill="#000000" font-family="sans-serif" font-size="13" lengthAdjust="spacing" textLength="210.8247" x="260.8052" y="274.2305">refresh use-case view, then STOP</text></g><g class="message" data-entity-1="part2" data-entity-2="part3" data-source-line="28" id="msg4"><polygon fill="#181818" points="591.3257,354.9043,601.3257,358.9043,591.3257,362.9043,595.3257,358.9043" style="stroke:#181818;stroke-width:1;"/><line style="stroke:#181818;stroke-width:1;" x1="253.8052" x2="597.3257" y1="358.9043" y2="358.9043"/><text fill="#000000" font-family="sans-serif" font-size="13" lengthAdjust="spacing" textLength="162.1826" x="260.8052" y="323.541">mkdir .mdd/cycles/&lt;N&gt;/</text><text fill="#000000" font-family="sans-serif" font-size="13" lengthAdjust="spacing" textLength="159.7388" x="260.8052" y="338.8516">copy current/ -&gt; before/</text><text fill="#000000" font-family="sans-serif" font-size="13" lengthAdjust="spacing" textLength="207.2637" x="260.8052" y="354.1621">write manifest.yml (status: open)</text></g><g class="message" data-entity-1="part3" data-entity-2="part2" data-source-line="29" id="msg5"><polygon fill="#181818" points="264.8052,384.2148,254.8052,388.2148,264.8052,392.2148,260.8052,388.2148" style="stroke:#181818;stroke-width:1;"/><line style="stroke:#181818;stroke-width:1;stroke-dasharray:2,2;" x1="258.8052" x2="602.3257" y1="388.2148" y2="388.2148"/><text fill="#000000" font-family="sans-serif" font-size="13" lengthAdjust="spacing" textLength="95.8433" x="270.8052" y="383.4727">cycle N opened</text></g><g class="message" data-entity-1="part2" data-entity-2="part4" data-source-line="31" id="msg6"><polygon fill="#181818" points="761.9761,413.5254,771.9761,417.5254,761.9761,421.5254,765.9761,417.5254" style="stroke:#181818;stroke-width:1;"/><line style="stroke:#181818;stroke-width:1;" x1="253.8052" x2="767.9761" y1="417.5254" y2="417.5254"/><text fill="#000000" font-family="sans-serif" font-size="13" lengthAdjust="spacing" textLength="144.9106" x="260.8052" y="412.7832">run entry skill (scoped)</text></g><g class="message" data-entity-1="part4" data-entity-2="part2" data-source-line="32" id="msg7"><polygon fill="#181818" points="264.8052,442.8359,254.8052,446.8359,264.8052,450.8359,260.8052,446.8359" style="stroke:#181818;stroke-width:1;"/><line style="stroke:#181818;stroke-width:1;stroke-dasharray:2,2;" x1="258.8052" x2="772.9761" y1="446.8359" y2="446.8359"/><text fill="#000000" font-family="sans-serif" font-size="13" lengthAdjust="spacing" textLength="213.1289" x="270.8052" y="442.0938">models written (+ @desc per @id)</text></g><path d="M10,461.8359 L84.4468,461.8359 L84.4468,469.1465 L74.4468,479.1465 L10,479.1465 L10,461.8359" fill="#EEEEEE" style="stroke:#000000;stroke-width:1.5;"/><rect fill="none" height="526.5449" style="stroke:#000000;stroke-width:1.5;" width="1322.5859" x="10" y="461.8359"/><text fill="#000000" font-family="sans-serif" font-size="13" font-weight="700" lengthAdjust="spacing" textLength="29.4468" x="25" y="475.4043">loop</text><text fill="#000000" font-family="sans-serif" font-size="11" font-weight="700" lengthAdjust="spacing" textLength="201.604" x="99.4468" y="474.4707">[until /mdd-review parity matches]</text><g class="message" data-entity-1="part2" data-entity-2="part5" data-source-line="35" id="msg8"><polygon fill="#181818" points="888.1938,496.457,898.1938,500.457,888.1938,504.457,892.1938,500.457" style="stroke:#181818;stroke-width:1;"/><line style="stroke:#181818;stroke-width:1;" x1="253.8052" x2="894.1938" y1="500.457" y2="500.457"/><text fill="#000000" font-family="sans-serif" font-size="13" lengthAdjust="spacing" textLength="91.73" x="260.8052" y="495.7148">/mdd-validate</text></g><g class="message" data-entity-1="part5" data-entity-2="part2" data-source-line="36" id="msg9"><polygon fill="#181818" points="264.8052,525.7676,254.8052,529.7676,264.8052,533.7676,260.8052,529.7676" style="stroke:#181818;stroke-width:1;"/><line style="stroke:#181818;stroke-width:1;stroke-dasharray:2,2;" x1="258.8052" x2="899.1938" y1="529.7676" y2="529.7676"/><text fill="#000000" font-family="sans-serif" font-size="13" lengthAdjust="spacing" textLength="85.7632" x="270.8052" y="525.0254">clean / errors</text></g><path d="M20,544.7676 L87.1851,544.7676 L87.1851,552.0781 L77.1851,562.0781 L20,562.0781 L20,544.7676" fill="#EEEEEE" style="stroke:#000000;stroke-width:1.5;"/><rect fill="none" height="126.5527" style="stroke:#000000;stroke-width:1.5;" width="541.6128" x="20" y="544.7676"/><text fill="#000000" font-family="sans-serif" font-size="13" font-weight="700" lengthAdjust="spacing" textLength="22.1851" x="35" y="558.3359">opt</text><text fill="#000000" font-family="sans-serif" font-size="11" font-weight="700" lengthAdjust="spacing" textLength="180.9521" x="102.1851" y="557.4023">[decision genuinely ambiguous]</text><g class="message" data-entity-1="part2" data-entity-2="part1" data-source-line="39" id="msg10"><polygon fill="#181818" points="78.1592,579.3887,68.1592,583.3887,78.1592,587.3887,74.1592,583.3887" style="stroke:#181818;stroke-width:1;"/><line style="stroke:#181818;stroke-width:1;" x1="72.1592" x2="252.8052" y1="583.3887" y2="583.3887"/><text fill="#000000" font-family="sans-serif" font-size="13" lengthAdjust="spacing" textLength="142.6001" x="84.1592" y="578.6465">ask clarifying question</text></g><g class="message" data-entity-1="part1" data-entity-2="part2" data-source-line="40" id="msg11"><polygon fill="#181818" points="241.8052,608.6992,251.8052,612.6992,241.8052,616.6992,245.8052,612.6992" style="stroke:#181818;stroke-width:1;"/><line style="stroke:#181818;stroke-width:1;stroke-dasharray:2,2;" x1="67.1592" x2="247.8052" y1="612.6992" y2="612.6992"/><text fill="#000000" font-family="sans-serif" font-size="13" lengthAdjust="spacing" textLength="44.4526" x="74.1592" y="607.957">answer</text></g><path d="M258,625.6992 L258,665.6992 L551,665.6992 L551,635.6992 L541,625.6992 L258,625.6992" fill="#FEFFDD" style="stroke:#181818;stroke-width:0.5;"/><path d="M541,625.6992 L541,635.6992 L551,635.6992 L541,625.6992" fill="#FEFFDD" style="stroke:#181818;stroke-width:0.5;"/><text fill="#000000" font-family="sans-serif" font-size="13" lengthAdjust="spacing" textLength="272.6128" x="264" y="643.2676">Mandatory pause documented in SKILL.md:</text><text fill="#000000" font-family="sans-serif" font-size="13" lengthAdjust="spacing" textLength="197.7295" x="264" y="658.5781">never guess; block on the user.</text><g class="message" data-entity-1="part2" data-entity-2="part6" data-source-line="47" id="msg12"><polygon fill="#181818" points="1020.9399,695.6309,1030.9399,699.6309,1020.9399,703.6309,1024.9399,699.6309" style="stroke:#181818;stroke-width:1;"/><line style="stroke:#181818;stroke-width:1;" x1="253.8052" x2="1026.9399" y1="699.6309" y2="699.6309"/><text fill="#000000" font-family="sans-serif" font-size="13" lengthAdjust="spacing" textLength="110.2271" x="260.8052" y="694.8887">/mdd-implement</text></g><g class="message" data-entity-1="part6" data-entity-2="part2" data-source-line="48" id="msg13"><polygon fill="#181818" points="264.8052,724.9414,254.8052,728.9414,264.8052,732.9414,260.8052,728.9414" style="stroke:#181818;stroke-width:1;"/><line style="stroke:#181818;stroke-width:1;stroke-dasharray:2,2;" x1="258.8052" x2="1031.9399" y1="728.9414" y2="728.9414"/><text fill="#000000" font-family="sans-serif" font-size="13" lengthAdjust="spacing" textLength="87.6865" x="270.8052" y="724.1992">code changed</text></g><g class="message" data-entity-1="part2" data-entity-2="part7" data-source-line="49" id="msg14"><polygon fill="#181818" points="1142.1675,754.252,1152.1675,758.252,1142.1675,762.252,1146.1675,758.252" style="stroke:#181818;stroke-width:1;"/><line style="stroke:#181818;stroke-width:1;" x1="253.8052" x2="1148.1675" y1="758.252" y2="758.252"/><text fill="#000000" font-family="sans-serif" font-size="13" lengthAdjust="spacing" textLength="235.5869" x="260.8052" y="753.5098">/mdd-map (refresh current + @desc)</text></g><g class="message" data-entity-1="part7" data-entity-2="part2" data-source-line="50" id="msg15"><polygon fill="#181818" points="264.8052,783.5625,254.8052,787.5625,264.8052,791.5625,260.8052,787.5625" style="stroke:#181818;stroke-width:1;"/><line style="stroke:#181818;stroke-width:1;stroke-dasharray:2,2;" x1="258.8052" x2="1153.1675" y1="787.5625" y2="787.5625"/><text fill="#000000" font-family="sans-serif" font-size="13" lengthAdjust="spacing" textLength="109.6748" x="270.8052" y="782.8203">current refreshed</text></g><g class="message" data-entity-1="part2" data-entity-2="part5" data-source-line="51" id="msg16"><polygon fill="#181818" points="888.1938,812.873,898.1938,816.873,888.1938,820.873,892.1938,816.873" style="stroke:#181818;stroke-width:1;"/><line style="stroke:#181818;stroke-width:1;" x1="253.8052" x2="894.1938" y1="816.873" y2="816.873"/><text fill="#000000" font-family="sans-serif" font-size="13" lengthAdjust="spacing" textLength="91.73" x="260.8052" y="812.1309">/mdd-validate</text></g><g class="message" data-entity-1="part5" data-entity-2="part2" data-source-line="52" id="msg17"><polygon fill="#181818" points="264.8052,842.1836,254.8052,846.1836,264.8052,850.1836,260.8052,846.1836" style="stroke:#181818;stroke-width:1;"/><line style="stroke:#181818;stroke-width:1;stroke-dasharray:2,2;" x1="258.8052" x2="899.1938" y1="846.1836" y2="846.1836"/><text fill="#000000" font-family="sans-serif" font-size="13" lengthAdjust="spacing" textLength="32.9063" x="270.8052" y="841.4414">clean</text></g><g class="message" data-entity-1="part2" data-entity-2="part8" data-source-line="53" id="msg18"><polygon fill="#181818" points="1248.814,871.4941,1258.814,875.4941,1248.814,879.4941,1252.814,875.4941" style="stroke:#181818;stroke-width:1;"/><line style="stroke:#181818;stroke-width:1;" x1="253.8052" x2="1254.814" y1="875.4941" y2="875.4941"/><text fill="#000000" font-family="sans-serif" font-size="13" lengthAdjust="spacing" textLength="217.293" x="260.8052" y="870.752">/mdd-review (ID + security parity)</text></g><path d="M196.9858,890.4941 L259.1245,890.4941 L259.1245,897.8047 L249.1245,907.8047 L196.9858,907.8047 L196.9858,890.4941" fill="#EEEEEE" style="stroke:#000000;stroke-width:1.5;"/><rect fill="none" height="90.8867" style="stroke:#000000;stroke-width:1.5;" width="1125.6001" x="196.9858" y="890.4941"/><text fill="#000000" font-family="sans-serif" font-size="13" font-weight="700" lengthAdjust="spacing" textLength="17.1387" x="211.9858" y="904.0625">alt</text><text fill="#000000" font-family="sans-serif" font-size="11" font-weight="700" lengthAdjust="spacing" textLength="63.2876" x="274.1245" y="903.1289">[mismatch]</text><g class="message" data-entity-1="part8" data-entity-2="part2" data-source-line="55" id="msg19"><polygon fill="#181818" points="264.8052,925.1152,254.8052,929.1152,264.8052,933.1152,260.8052,929.1152" style="stroke:#181818;stroke-width:1;"/><line style="stroke:#181818;stroke-width:1;stroke-dasharray:2,2;" x1="258.8052" x2="1259.814" y1="929.1152" y2="929.1152"/><text fill="#000000" font-family="sans-serif" font-size="13" lengthAdjust="spacing" textLength="61.8706" x="270.8052" y="924.373">.diff.puml</text></g><line style="stroke:#000000;stroke-width:1;stroke-dasharray:2,2;" x1="196.9858" x2="1322.5859" y1="938.1152" y2="938.1152"/><text fill="#000000" font-family="sans-serif" font-size="11" font-weight="700" lengthAdjust="spacing" textLength="42.8237" x="201.9858" y="948.75">[match]</text><g class="message" data-entity-1="part8" data-entity-2="part2" data-source-line="57" id="msg20"><polygon fill="#181818" points="264.8052,969.3809,254.8052,973.3809,264.8052,977.3809,260.8052,973.3809" style="stroke:#181818;stroke-width:1;"/><line style="stroke:#181818;stroke-width:1;stroke-dasharray:2,2;" x1="258.8052" x2="1259.814" y1="973.3809" y2="973.3809"/><text fill="#000000" font-family="sans-serif" font-size="13" lengthAdjust="spacing" textLength="80.6597" x="270.8052" y="968.6387">parity closed</text></g><g class="message" data-entity-1="part2" data-entity-2="part3" data-source-line="61" id="msg21"><polygon fill="#181818" points="591.3257,1043.3125,601.3257,1047.3125,591.3257,1051.3125,595.3257,1047.3125" style="stroke:#181818;stroke-width:1;"/><line style="stroke:#181818;stroke-width:1;" x1="253.8052" x2="597.3257" y1="1047.3125" y2="1047.3125"/><text fill="#000000" font-family="sans-serif" font-size="13" lengthAdjust="spacing" textLength="148.3701" x="260.8052" y="1011.9492">copy current/ -&gt; after/</text><text fill="#000000" font-family="sans-serif" font-size="13" lengthAdjust="spacing" textLength="169.7109" x="260.8052" y="1027.2598">write &lt;diagram&gt;.diff.puml</text><text fill="#000000" font-family="sans-serif" font-size="13" lengthAdjust="spacing" textLength="325.5205" x="260.8052" y="1042.5703">manifest status: closed + closed_at + touched_files</text></g><g class="message" data-entity-1="part3" data-entity-2="part2" data-source-line="62" id="msg22"><polygon fill="#181818" points="264.8052,1072.623,254.8052,1076.623,264.8052,1080.623,260.8052,1076.623" style="stroke:#181818;stroke-width:1;"/><line style="stroke:#181818;stroke-width:1;stroke-dasharray:2,2;" x1="258.8052" x2="602.3257" y1="1076.623" y2="1076.623"/><text fill="#000000" font-family="sans-serif" font-size="13" lengthAdjust="spacing" textLength="89.394" x="270.8052" y="1071.8809">cycle N closed</text></g><g class="message" data-entity-1="part2" data-entity-2="part1" data-source-line="63" id="msg23"><polygon fill="#181818" points="78.1592,1101.9336,68.1592,1105.9336,78.1592,1109.9336,74.1592,1105.9336" style="stroke:#181818;stroke-width:1;"/><line style="stroke:#181818;stroke-width:1;stroke-dasharray:2,2;" x1="72.1592" x2="252.8052" y1="1105.9336" y2="1105.9336"/><text fill="#000000" font-family="sans-serif" font-size="13" lengthAdjust="spacing" textLength="107.0088" x="84.1592" y="1101.1914">cycle N complete</text></g><?plantuml-src ZLHDR-Cs5BphLppuiXBMik_UhPiYoI5eactjtG95KmIqIDb4A58bgGJwzpia9Lj67A0-oUIyhvbv_4HNakVRsp_BpO_7ylhlw_lR8lj4LrRK-O_jxTafpgyxQuNsfPDSKAtC6p57iccLQ70iEErwyWT1ouRpikeh9SYzIAKGcdi17FF2hLOFDpVFCUlpzlUx-_jYGTyF0vAa8xOFDRYLhq9_ePZAM84ShcjR9OMBDQnWF3MINuTA6x6Npjk-8APvH3HCoreuJwuwY8OjuWXNNBZgVE8vpNvpvQwJoayxDnPXoCYyD7f5hQnU28tPVawc5PeIwZCvpLftC9vseaQVopafOrfwPKfop5kkZmILwuQrvVfqOyMh56_pq2toAUFEyh7Q2xl4oPkLNX2NTRsO5PcN7dKtdIP6TGVAGEVGJ6rDGqO3Yo6jR4Fdb5T9jIBBMEMDfTcDU1KACzXPq0__ifPPBolPCkrfTkBWIUTHeKN3YuZz1auozCvs3BtESCwN4UcMNn_NooSzShxe6pK_CP96YIcsFeZvlY145-0QDT5YF05PCU8sa7uXOkGnWlvYwWBaI7t4tE7V1T1Ovu6r5swJHX6m0LCPwA9o7PcWrTGl_qn8__LVa0qxJNLehNc5NNb6AVYK9BgAVg6HWameiAlDDFpZABHFES2LQSAahdZIM5yht84w9yegA3MnsVRxjpyoeNcMZVcY8aZOl71fwRscbMbx6aoq3063h4yw6NEgEUNECz-vLToH8akvorFNYQl7U2qcJKIHSM_XwpHPUWzoX_A25ra2J38rXeEdk1mUS-MVqsuJV1rUDTWzxc6dlLGqaPAWiVGzslPXmIV4maEZfAEtS1jEfmCemJGjILXhhCi0C6qGkf8kg0mDEwc5wearExdlJ1Sgd6e4-wnWfXSaGXzrB_MU_kj0NnAP8c9IZsdt9coyqGPiMxa_U39rsaMAlmSyUGnCzvWDcXCtLJUyo1AA3oky6j0QwszfZvhk2-sKmRk6niEBYLYxY2WO99RBucSs8IaiqSZISRrm7y-dF44UgWvCxyyiZoKRewDnHwiE_g91nIAZ29qc7113n5dM_w_S96WJfPWw8x-x2G-mGAdWa6IKq4hOvKQwQ9d8p-PSf4LydDkkKO6miBqVGWVtnTUU3_HUNCTtQvSUqN7hldB9zfOrwrFjq_DBunQcCXWgVJopmB0t7PpFdsk99VzuHOSMKrz7wnvlJH3VYvy0?></g></svg>