<svg xmlns="http://www.w3.org/2000/svg" xmlns:xlink="http://www.w3.org/1999/xlink" contentStyleType="text/css" data-diagram-type="SEQUENCE" height="1003px" preserveAspectRatio="none" style="width:1598px;height:1003px;background:#FFFFFF;" version="1.1" viewBox="0 0 1598 1003" width="1598px" zoomAndPan="magnify"><?plantuml 1.2026.3?><defs/><g><g class="title" data-source-line="11"><text fill="#000000" font-family="sans-serif" font-size="14" font-weight="700" lengthAdjust="spacing" textLength="319.7031" x="635.6641" y="28.5352">Render the selected file's cycle diff (current)</text></g><rect fill="none" height="46.6211" style="stroke:#000000;stroke-width:1.5;" width="432.1172" x="30" y="329.6387"/><rect fill="none" height="46.6211" style="stroke:#000000;stroke-width:1.5;" width="432.1172" x="30" y="390.2598"/><rect fill="none" height="46.6211" style="stroke:#000000;stroke-width:1.5;" width="432.1172" x="30" y="450.8809"/><rect fill="none" height="389.9473" style="stroke:#000000;stroke-width:1.5;" width="1572.0313" x="10" y="511.502"/><rect fill="none" height="225.4395" style="stroke:#000000;stroke-width:1.5;" width="1552.0313" x="20" y="593.4336"/><rect fill="none" height="91.2422" style="stroke:#000000;stroke-width:1.5;" width="1532.0313" x="30" y="676.3652"/><rect fill="none" height="46.6211" style="stroke:#000000;stroke-width:1.5;" width="432.1172" x="30" y="847.8281"/><g class="participant-lifeline" data-entity-uid="part1" data-qualified-name="Dev" data-source-line="13" id="part1-lifeline"><g><title>Developer</title><rect fill="#000000" fill-opacity="0.00000" height="796.9844" width="8" x="73.1592" y="121.4648"/><line style="stroke:#181818;stroke-width:0.5;stroke-dasharray:5,5;" x1="77" x2="77" y1="121.4648" y2="918.4492"/></g></g><g class="participant-lifeline" data-entity-uid="part2" data-qualified-name="Viewer" data-source-line="14" id="part2-lifeline"><g><title>MddViewer..diff_ui</title><rect fill="#000000" fill-opacity="0.00000" height="796.9844" width="8" x="377.7446" y="121.4648"/><line style="stroke:#181818;stroke-width:0.5;stroke-dasharray:5,5;" x1="381.3721" x2="381.3721" y1="121.4648" y2="918.4492"/></g></g><g class="participant-lifeline" data-entity-uid="part3" data-qualified-name="DV" data-source-line="15" id="part3-lifeline"><g><title>DiffView</title><rect fill="#000000" fill-opacity="0.00000" height="796.9844" width="8" x="635.6494" y="121.4648"/><line style="stroke:#181818;stroke-width:0.5;stroke-dasharray:5,5;" x1="638.6934" x2="638.6934" y1="121.4648" y2="918.4492"/></g></g><g class="participant-lifeline" data-entity-uid="part4" data-qualified-name="Core" data-source-line="16" id="part4-lifeline"><g><title>Project..cycle_diffs</title><rect fill="#000000" fill-opacity="0.00000" height="796.9844" width="8" x="842.6055" y="121.4648"/><line style="stroke:#181818;stroke-width:0.5;stroke-dasharray:5,5;" x1="846.5132" x2="846.5132" y1="121.4648" y2="918.4492"/></g></g><g class="participant-lifeline" data-entity-uid="part5" data-qualified-name="Store" data-source-line="17" id="part5-lifeline"><g><title>.mdd.cycles..N..</title><rect fill="#000000" fill-opacity="0.00000" height="796.9844" width="8" x="1098.3457" y="121.4648"/><line style="stroke:#181818;stroke-width:0.5;stroke-dasharray:5,5;" x1="1102.1514" x2="1102.1514" y1="121.4648" y2="918.4492"/></g></g><g class="participant-lifeline" data-entity-uid="part6" data-qualified-name="Rendered" data-source-line="18" id="part6-lifeline"><g><title>.mdd.rendered.cycles..N..</title><rect fill="#000000" fill-opacity="0.00000" height="796.9844" width="8" x="1278.9893" y="121.4648"/><line style="stroke:#181818;stroke-width:0.5;stroke-dasharray:5,5;" x1="1282.54" x2="1282.54" y1="121.4648" y2="918.4492"/></g></g><g class="participant-lifeline" data-entity-uid="part7" data-qualified-name="Page" data-source-line="19" id="part7-lifeline"><g><title>DiagramPage..load</title><rect fill="#000000" fill-opacity="0.00000" height="796.9844" width="8" x="1477.2451" y="121.4648"/><line style="stroke:#181818;stroke-width:0.5;stroke-dasharray:5,5;" x1="1480.459" x2="1480.459" y1="121.4648" y2="918.4492"/></g></g><g class="participant participant-head" data-entity-uid="part1" data-qualified-name="Dev" data-source-line="13" id="part1-head"><text fill="#000000" font-family="sans-serif" font-size="14" lengthAdjust="spacing" textLength="68.3184" x="40" y="118.5117">Developer</text><ellipse cx="77.1592" cy="53.4766" fill="#E2E2F0" rx="8" ry="8" style="stroke:#181818;stroke-width:0.5;"/><path d="M77.1592,61.4766 L77.1592,88.4766 M64.1592,69.4766 L90.1592,69.4766 M77.1592,88.4766 L64.1592,103.4766 M77.1592,88.4766 L90.1592,103.4766" fill="none" style="stroke:#181818;stroke-width:0.5;"/></g><g class="participant participant-tail" data-entity-uid="part1" data-qualified-name="Dev" data-source-line="13" id="part1-tail"><text fill="#000000" font-family="sans-serif" font-size="14" lengthAdjust="spacing" textLength="68.3184" x="40" y="930.9844">Developer</text><ellipse cx="77.1592" cy="942.4375" fill="#E2E2F0" rx="8" ry="8" style="stroke:#181818;stroke-width:0.5;"/><path d="M77.1592,950.4375 L77.1592,977.4375 M64.1592,958.4375 L90.1592,958.4375 M77.1592,977.4375 L64.1592,992.4375 M77.1592,977.4375 L90.1592,992.4375" fill="none" style="stroke:#181818;stroke-width:0.5;"/></g><g class="participant participant-head" data-entity-uid="part2" data-qualified-name="Viewer" data-source-line="14" id="part2-head"><rect fill="#E2E2F0" height="46.9766" rx="2.5" ry="2.5" style="stroke:#181818;stroke-width:0.5;" width="140.7451" x="311.3721" y="73.4883"/><text fill="#000000" font-family="sans-serif" font-size="14" lengthAdjust="spacing" textLength="126.7451" x="318.3721" y="94.0234">MddViewer::diff_ui</text><text fill="#000000" font-family="sans-serif" font-size="14" lengthAdjust="spacing" textLength="92.5244" x="335.4824" y="110.5117">(eframe::App)</text></g><g class="participant participant-tail" data-entity-uid="part2" data-qualified-name="Viewer" data-source-line="14" id="part2-tail"><rect fill="#E2E2F0" height="46.9766" rx="2.5" ry="2.5" style="stroke:#181818;stroke-width:0.5;" width="140.7451" x="311.3721" y="917.4492"/><text fill="#000000" font-family="sans-serif" font-size="14" lengthAdjust="spacing" textLength="126.7451" x="318.3721" y="937.9844">MddViewer::diff_ui</text><text fill="#000000" font-family="sans-serif" font-size="14" lengthAdjust="spacing" textLength="92.5244" x="335.4824" y="954.4727">(eframe::App)</text></g><g class="participant participant-head" data-entity-uid="part3" data-qualified-name="DV" data-source-line="15" id="part3-head"><rect fill="#E2E2F0" height="46.9766" rx="2.5" ry="2.5" style="stroke:#181818;stroke-width:0.5;" width="219.9121" x="529.6934" y="73.4883"/><text fill="#000000" font-family="sans-serif" font-size="14" lengthAdjust="spacing" textLength="56.6152" x="611.3418" y="94.0234">DiffView</text><text fill="#000000" font-family="sans-serif" font-size="14" lengthAdjust="spacing" textLength="205.9121" x="536.6934" y="110.5117">{sub_mode, loaded_key, page}</text></g><g class="participant participant-tail" data-entity-uid="part3" data-qualified-name="DV" data-source-line="15" id="part3-tail"><rect fill="#E2E2F0" height="46.9766" rx="2.5" ry="2.5" style="stroke:#181818;stroke-width:0.5;" width="219.9121" x="529.6934" y="917.4492"/><text fill="#000000" font-family="sans-serif" font-size="14" lengthAdjust="spacing" textLength="56.6152" x="611.3418" y="937.9844">DiffView</text><text fill="#000000" font-family="sans-serif" font-size="14" lengthAdjust="spacing" textLength="205.9121" x="536.6934" y="954.4727">{sub_mode, loaded_key, page}</text></g><g class="participant participant-head" data-entity-uid="part4" data-qualified-name="Core" data-source-line="16" id="part4-head"><rect fill="#E2E2F0" height="46.9766" rx="2.5" ry="2.5" style="stroke:#181818;stroke-width:0.5;" width="140.1846" x="776.5132" y="73.4883"/><text fill="#000000" font-family="sans-serif" font-size="14" lengthAdjust="spacing" textLength="126.1846" x="783.5132" y="94.0234">Project::cycle_diffs</text><text fill="#000000" font-family="sans-serif" font-size="14" lengthAdjust="spacing" textLength="113.1553" x="790.0278" y="110.5117">cycle::cycle_diffs</text></g><g class="participant participant-tail" data-entity-uid="part4" data-qualified-name="Core" data-source-line="16" id="part4-tail"><rect fill="#E2E2F0" height="46.9766" rx="2.5" ry="2.5" style="stroke:#181818;stroke-width:0.5;" width="140.1846" x="776.5132" y="917.4492"/><text fill="#000000" font-family="sans-serif" font-size="14" lengthAdjust="spacing" textLength="126.1846" x="783.5132" y="937.9844">Project::cycle_diffs</text><text fill="#000000" font-family="sans-serif" font-size="14" lengthAdjust="spacing" textLength="113.1553" x="790.0278" y="954.4727">cycle::cycle_diffs</text></g><g class="participant participant-head" data-entity-uid="part5" data-qualified-name="Store" data-source-line="17" id="part5-head"><text fill="#000000" font-family="sans-serif" font-size="14" lengthAdjust="spacing" textLength="130.3887" x="1034.1514" y="102.0234">.mdd/cycles/&lt;N&gt;/</text><text fill="#000000" font-family="sans-serif" font-size="14" lengthAdjust="spacing" textLength="103.5029" x="1047.5942" y="118.5117">before/ , after/</text><path d="M1084.3457,52.4883 C1084.3457,42.4883 1102.3457,42.4883 1102.3457,42.4883 C1102.3457,42.4883 1120.3457,42.4883 1120.3457,52.4883 L1120.3457,78.4883 C1120.3457,88.4883 1102.3457,88.4883 1102.3457,88.4883 C1102.3457,88.4883 1084.3457,88.4883 1084.3457,78.4883 L1084.3457,52.4883" fill="#E2E2F0" style="stroke:#181818;stroke-width:0.5;"/><path d="M1084.3457,52.4883 C1084.3457,62.4883 1102.3457,62.4883 1102.3457,62.4883 C1102.3457,62.4883 1120.3457,62.4883 1120.3457,52.4883" fill="none" style="stroke:#181818;stroke-width:0.5;"/></g><g class="participant participant-tail" data-entity-uid="part5" data-qualified-name="Store" data-source-line="17" id="part5-tail"><text fill="#000000" font-family="sans-serif" font-size="14" lengthAdjust="spacing" textLength="130.3887" x="1034.1514" y="930.9844">.mdd/cycles/&lt;N&gt;/</text><text fill="#000000" font-family="sans-serif" font-size="14" lengthAdjust="spacing" textLength="103.5029" x="1047.5942" y="947.4727">before/ , after/</text><path d="M1084.3457,960.4258 C1084.3457,950.4258 1102.3457,950.4258 1102.3457,950.4258 C1102.3457,950.4258 1120.3457,950.4258 1120.3457,960.4258 L1120.3457,986.4258 C1120.3457,996.4258 1102.3457,996.4258 1102.3457,996.4258 C1102.3457,996.4258 1084.3457,996.4258 1084.3457,986.4258 L1084.3457,960.4258" fill="#E2E2F0" style="stroke:#181818;stroke-width:0.5;"/><path d="M1084.3457,960.4258 C1084.3457,970.4258 1102.3457,970.4258 1102.3457,970.4258 C1102.3457,970.4258 1120.3457,970.4258 1120.3457,960.4258" fill="none" style="stroke:#181818;stroke-width:0.5;"/></g><g class="participant participant-head" data-entity-uid="part6" data-qualified-name="Rendered" data-source-line="18" id="part6-head"><text fill="#000000" font-family="sans-serif" font-size="14" lengthAdjust="spacing" textLength="198.8984" x="1180.54" y="102.0234">.mdd/rendered/cycles/&lt;N&gt;/</text><text fill="#000000" font-family="sans-serif" font-size="14" lengthAdjust="spacing" textLength="94.958" x="1232.5103" y="118.5117">&lt;rel&gt;.diff.svg</text><path d="M1264.9893,52.4883 C1264.9893,42.4883 1282.9893,42.4883 1282.9893,42.4883 C1282.9893,42.4883 1300.9893,42.4883 1300.9893,52.4883 L1300.9893,78.4883 C1300.9893,88.4883 1282.9893,88.4883 1282.9893,88.4883 C1282.9893,88.4883 1264.9893,88.4883 1264.9893,78.4883 L1264.9893,52.4883" fill="#E2E2F0" style="stroke:#181818;stroke-width:0.5;"/><path d="M1264.9893,52.4883 C1264.9893,62.4883 1282.9893,62.4883 1282.9893,62.4883 C1282.9893,62.4883 1300.9893,62.4883 1300.9893,52.4883" fill="none" style="stroke:#181818;stroke-width:0.5;"/></g><g class="participant participant-tail" data-entity-uid="part6" data-qualified-name="Rendered" data-source-line="18" id="part6-tail"><text fill="#000000" font-family="sans-serif" font-size="14" lengthAdjust="spacing" textLength="198.8984" x="1180.54" y="930.9844">.mdd/rendered/cycles/&lt;N&gt;/</text><text fill="#000000" font-family="sans-serif" font-size="14" lengthAdjust="spacing" textLength="94.958" x="1232.5103" y="947.4727">&lt;rel&gt;.diff.svg</text><path d="M1264.9893,960.4258 C1264.9893,950.4258 1282.9893,950.4258 1282.9893,950.4258 C1282.9893,950.4258 1300.9893,950.4258 1300.9893,960.4258 L1300.9893,986.4258 C1300.9893,996.4258 1282.9893,996.4258 1282.9893,996.4258 C1282.9893,996.4258 1264.9893,996.4258 1264.9893,986.4258 L1264.9893,960.4258" fill="#E2E2F0" style="stroke:#181818;stroke-width:0.5;"/><path d="M1264.9893,960.4258 C1264.9893,970.4258 1282.9893,970.4258 1282.9893,970.4258 C1282.9893,970.4258 1300.9893,970.4258 1300.9893,960.4258" fill="none" style="stroke:#181818;stroke-width:0.5;"/></g><g class="participant participant-head" data-entity-uid="part7" data-qualified-name="Page" data-source-line="19" id="part7-head"><rect fill="#E2E2F0" height="46.9766" rx="2.5" ry="2.5" style="stroke:#181818;stroke-width:0.5;" width="141.5723" x="1410.459" y="73.4883"/><text fill="#000000" font-family="sans-serif" font-size="14" lengthAdjust="spacing" textLength="127.5723" x="1417.459" y="94.0234">DiagramPage::load</text><text fill="#000000" font-family="sans-serif" font-size="14" lengthAdjust="spacing" textLength="102.7783" x="1429.856" y="110.5117">+ paint_canvas</text></g><g class="participant participant-tail" data-entity-uid="part7" data-qualified-name="Page" data-source-line="19" id="part7-tail"><rect fill="#E2E2F0" height="46.9766" rx="2.5" ry="2.5" style="stroke:#181818;stroke-width:0.5;" width="141.5723" x="1410.459" y="917.4492"/><text fill="#000000" font-family="sans-serif" font-size="14" lengthAdjust="spacing" textLength="127.5723" x="1417.459" y="937.9844">DiagramPage::load</text><text fill="#000000" font-family="sans-serif" font-size="14" lengthAdjust="spacing" textLength="102.7783" x="1429.856" y="954.4727">+ paint_canvas</text></g><g class="message" data-entity-1="part1" data-entity-2="part2" data-source-line="21" id="msg1"><polygon fill="#181818" points="369.7446,148.7754,379.7446,152.7754,369.7446,156.7754,373.7446,152.7754" style="stroke:#181818;stroke-width:1;"/><line style="stroke:#181818;stroke-width:1;" x1="77.1592" x2="375.7446" y1="152.7754" y2="152.7754"/><text fill="#000000" font-family="sans-serif" font-size="13" lengthAdjust="spacing" textLength="210.8247" x="84.1592" y="148.0332">Diff tab; pick cycle N (CYCLE row)</text></g><g class="message" data-entity-1="part1" data-entity-2="part2" data-source-line="22" id="msg2"><polygon fill="#181818" points="369.7446,178.0859,379.7446,182.0859,369.7446,186.0859,373.7446,182.0859" style="stroke:#181818;stroke-width:1;"/><line style="stroke:#181818;stroke-width:1;" x1="77.1592" x2="375.7446" y1="182.0859" y2="182.0859"/><text fill="#000000" font-family="sans-serif" font-size="13" lengthAdjust="spacing" textLength="178.896" x="84.1592" y="177.3438">select model file F in the rail</text></g><g class="message" data-entity-1="part2" data-entity-2="part4" data-source-line="23" id="msg3"><polygon fill="#181818" points="834.6055,207.3965,844.6055,211.3965,834.6055,215.3965,838.6055,211.3965" style="stroke:#181818;stroke-width:1;"/><line style="stroke:#181818;stroke-width:1;" x1="381.7446" x2="840.6055" y1="211.3965" y2="211.3965"/><text fill="#000000" font-family="sans-serif" font-size="13" lengthAdjust="spacing" textLength="212.5703" x="388.7446" y="206.6543">cycle_diffs(N) (cached by number)</text></g><g class="message" data-entity-1="part4" data-entity-2="part5" data-source-line="24" id="msg4"><polygon fill="#181818" points="1090.3457,236.707,1100.3457,240.707,1090.3457,244.707,1094.3457,240.707" style="stroke:#181818;stroke-width:1;"/><line style="stroke:#181818;stroke-width:1;" x1="846.6055" x2="1096.3457" y1="240.707" y2="240.707"/><text fill="#000000" font-family="sans-serif" font-size="13" lengthAdjust="spacing" textLength="231.7402" x="853.6055" y="235.9648">scan + diff_documents(before, after)</text></g><g class="message" data-entity-1="part4" data-entity-2="part2" data-source-line="25" id="msg5"><polygon fill="#181818" points="392.7446,266.0176,382.7446,270.0176,392.7446,274.0176,388.7446,270.0176" style="stroke:#181818;stroke-width:1;"/><line style="stroke:#181818;stroke-width:1;stroke-dasharray:2,2;" x1="386.7446" x2="845.6055" y1="270.0176" y2="270.0176"/><text fill="#000000" font-family="sans-serif" font-size="13" lengthAdjust="spacing" textLength="99.5693" x="398.7446" y="265.2754">Vec&lt;CycleDiff&gt;</text></g><g class="message" data-entity-1="part2" data-entity-2="part3" data-source-line="26" id="msg6"><polygon fill="#181818" points="627.6494,310.6387,637.6494,314.6387,627.6494,318.6387,631.6494,314.6387" style="stroke:#181818;stroke-width:1;"/><line style="stroke:#181818;stroke-width:1;" x1="381.7446" x2="633.6494" y1="314.6387" y2="314.6387"/><text fill="#000000" font-family="sans-serif" font-size="13" lengthAdjust="spacing" textLength="196.4092" x="388.7446" y="294.5859">key = DiffView::diagram_key(F)</text><text fill="#000000" font-family="sans-serif" font-size="13" lengthAdjust="spacing" textLength="233.9048" x="388.7446" y="309.8965">find CycleDiff where diagram == key</text></g><path d="M30,329.6387 L97.1851,329.6387 L97.1851,336.9492 L87.1851,346.9492 L30,346.9492 L30,329.6387" fill="#EEEEEE" style="stroke:#000000;stroke-width:1.5;"/><rect fill="none" height="46.6211" style="stroke:#000000;stroke-width:1.5;" width="432.1172" x="30" y="329.6387"/><text fill="#000000" font-family="sans-serif" font-size="13" font-weight="700" lengthAdjust="spacing" textLength="22.1851" x="45" y="343.207">opt</text><text fill="#000000" font-family="sans-serif" font-size="11" font-weight="700" lengthAdjust="spacing" textLength="94.5474" x="112.1851" y="342.2734">[no selected file]</text><g class="message" data-entity-1="part2" data-entity-2="part1" data-source-line="29" id="msg7"><polygon fill="#181818" points="88.1592,364.2598,78.1592,368.2598,88.1592,372.2598,84.1592,368.2598" style="stroke:#181818;stroke-width:1;"/><line style="stroke:#181818;stroke-width:1;" x1="82.1592" x2="380.7446" y1="368.2598" y2="368.2598"/><text fill="#000000" font-family="sans-serif" font-size="13" lengthAdjust="spacing" textLength="189.1919" x="94.1592" y="363.5176">"Select a model file in the rail"</text></g><path d="M30,390.2598 L97.1851,390.2598 L97.1851,397.5703 L87.1851,407.5703 L30,407.5703 L30,390.2598" fill="#EEEEEE" style="stroke:#000000;stroke-width:1.5;"/><rect fill="none" height="46.6211" style="stroke:#000000;stroke-width:1.5;" width="432.1172" x="30" y="390.2598"/><text fill="#000000" font-family="sans-serif" font-size="13" font-weight="700" lengthAdjust="spacing" textLength="22.1851" x="45" y="403.8281">opt</text><text fill="#000000" font-family="sans-serif" font-size="11" font-weight="700" lengthAdjust="spacing" textLength="155.7456" x="112.1851" y="402.8945">[cycle still open (no after/)]</text><g class="message" data-entity-1="part2" data-entity-2="part1" data-source-line="32" id="msg8"><polygon fill="#181818" points="88.1592,424.8809,78.1592,428.8809,88.1592,432.8809,84.1592,428.8809" style="stroke:#181818;stroke-width:1;"/><line style="stroke:#181818;stroke-width:1;" x1="82.1592" x2="380.7446" y1="428.8809" y2="428.8809"/><text fill="#000000" font-family="sans-serif" font-size="13" lengthAdjust="spacing" textLength="226.3066" x="94.1592" y="424.1387">"diff available after the cycle closes"</text></g><path d="M30,450.8809 L97.1851,450.8809 L97.1851,458.1914 L87.1851,468.1914 L30,468.1914 L30,450.8809" fill="#EEEEEE" style="stroke:#000000;stroke-width:1.5;"/><rect fill="none" height="46.6211" style="stroke:#000000;stroke-width:1.5;" width="432.1172" x="30" y="450.8809"/><text fill="#000000" font-family="sans-serif" font-size="13" font-weight="700" lengthAdjust="spacing" textLength="22.1851" x="45" y="464.4492">opt</text><text fill="#000000" font-family="sans-serif" font-size="11" font-weight="700" lengthAdjust="spacing" textLength="138.5796" x="112.1851" y="463.5156">[F unchanged in cycle N]</text><g class="message" data-entity-1="part2" data-entity-2="part1" data-source-line="35" id="msg9"><polygon fill="#181818" points="88.1592,485.502,78.1592,489.502,88.1592,493.502,84.1592,489.502" style="stroke:#181818;stroke-width:1;"/><line style="stroke:#181818;stroke-width:1;" x1="82.1592" x2="380.7446" y1="489.502" y2="489.502"/><text fill="#000000" font-family="sans-serif" font-size="13" lengthAdjust="spacing" textLength="200.9287" x="94.1592" y="484.7598">"&lt;F&gt; did not change in cycle N"</text></g><path d="M10,511.502 L72.1387,511.502 L72.1387,518.8125 L62.1387,528.8125 L10,528.8125 L10,511.502" fill="#EEEEEE" style="stroke:#000000;stroke-width:1.5;"/><rect fill="none" height="389.9473" style="stroke:#000000;stroke-width:1.5;" width="1572.0313" x="10" y="511.502"/><text fill="#000000" font-family="sans-serif" font-size="13" font-weight="700" lengthAdjust="spacing" textLength="17.1387" x="25" y="525.0703">alt</text><text fill="#000000" font-family="sans-serif" font-size="11" font-weight="700" lengthAdjust="spacing" textLength="181.7686" x="87.1387" y="524.1367">[sub_mode = Diagram (default)]</text><g class="message" data-entity-1="part3" data-entity-2="part3" data-source-line="39" id="msg10"><line style="stroke:#181818;stroke-width:1;" x1="639.6494" x2="681.6494" y1="565.4336" y2="565.4336"/><line style="stroke:#181818;stroke-width:1;" x1="681.6494" x2="681.6494" y1="565.4336" y2="578.4336"/><line style="stroke:#181818;stroke-width:1;" x1="640.6494" x2="681.6494" y1="578.4336" y2="578.4336"/><polygon fill="#181818" points="650.6494,574.4336,640.6494,578.4336,650.6494,582.4336,646.6494,578.4336" style="stroke:#181818;stroke-width:1;"/><text fill="#000000" font-family="sans-serif" font-size="13" lengthAdjust="spacing" textLength="140.061" x="646.6494" y="545.3809">Cycle::diff_puml_rel(F)</text><text fill="#000000" font-family="sans-serif" font-size="13" lengthAdjust="spacing" textLength="192.9561" x="646.6494" y="560.6914">-&gt; Project::rendered_svg_path</text></g><path d="M20,593.4336 L82.1387,593.4336 L82.1387,600.7441 L72.1387,610.7441 L20,610.7441 L20,593.4336" fill="#EEEEEE" style="stroke:#000000;stroke-width:1.5;"/><rect fill="none" height="225.4395" style="stroke:#000000;stroke-width:1.5;" width="1552.0313" x="20" y="593.4336"/><text fill="#000000" font-family="sans-serif" font-size="13" font-weight="700" lengthAdjust="spacing" textLength="17.1387" x="35" y="607.002">alt</text><text fill="#000000" font-family="sans-serif" font-size="11" font-weight="700" lengthAdjust="spacing" textLength="155.0474" x="97.1387" y="606.0684">[rendered .diff.svg present]</text><g class="message" data-entity-1="part3" data-entity-2="part7" data-source-line="41" id="msg11"><polygon fill="#181818" points="1469.2451,628.0547,1479.2451,632.0547,1469.2451,636.0547,1473.2451,632.0547" style="stroke:#181818;stroke-width:1;"/><line style="stroke:#181818;stroke-width:1;" x1="639.6494" x2="1475.2451" y1="632.0547" y2="632.0547"/><text fill="#000000" font-family="sans-serif" font-size="13" lengthAdjust="spacing" textLength="318.2778" x="646.6494" y="627.3125">DiagramPage::load(svg) when loaded_key changed</text></g><g class="message" data-entity-1="part7" data-entity-2="part6" data-source-line="42" id="msg12"><polygon fill="#181818" points="1293.9893,657.3652,1283.9893,661.3652,1293.9893,665.3652,1289.9893,661.3652" style="stroke:#181818;stroke-width:1;"/><line style="stroke:#181818;stroke-width:1;" x1="1287.9893" x2="1480.2451" y1="661.3652" y2="661.3652"/><text fill="#000000" font-family="sans-serif" font-size="13" lengthAdjust="spacing" textLength="174.2559" x="1299.9893" y="656.623">read svg bytes (usvg/resvg)</text></g><path d="M30,676.3652 L104.4468,676.3652 L104.4468,683.6758 L94.4468,693.6758 L30,693.6758 L30,676.3652" fill="#EEEEEE" style="stroke:#000000;stroke-width:1.5;"/><rect fill="none" height="91.2422" style="stroke:#000000;stroke-width:1.5;" width="1532.0313" x="30" y="676.3652"/><text fill="#000000" font-family="sans-serif" font-size="13" font-weight="700" lengthAdjust="spacing" textLength="29.4468" x="45" y="689.9336">loop</text><text fill="#000000" font-family="sans-serif" font-size="11" font-weight="700" lengthAdjust="spacing" textLength="117.2832" x="119.4468" y="689">[each painted frame]</text><g class="message" data-entity-1="part2" data-entity-2="part7" data-source-line="44" id="msg13"><polygon fill="#181818" points="1469.2451,710.9863,1479.2451,714.9863,1469.2451,718.9863,1473.2451,714.9863" style="stroke:#181818;stroke-width:1;"/><line style="stroke:#181818;stroke-width:1;" x1="381.7446" x2="1475.2451" y1="714.9863" y2="714.9863"/><text fill="#000000" font-family="sans-serif" font-size="13" lengthAdjust="spacing" textLength="257.4863" x="388.7446" y="710.2441">paint_canvas (pan/zoom/fisheye reused)</text></g><g class="message" data-entity-1="part7" data-entity-2="part1" data-source-line="45" id="msg14"><polygon fill="#181818" points="88.1592,755.6074,78.1592,759.6074,88.1592,763.6074,84.1592,759.6074" style="stroke:#181818;stroke-width:1;"/><line style="stroke:#181818;stroke-width:1;stroke-dasharray:2,2;" x1="82.1592" x2="1480.2451" y1="759.6074" y2="759.6074"/><text fill="#000000" font-family="sans-serif" font-size="13" lengthAdjust="spacing" textLength="155.2446" x="94.1592" y="739.5547">superposed diff diagram</text><text fill="#000000" font-family="sans-serif" font-size="13" lengthAdjust="spacing" textLength="267.9346" x="94.1592" y="754.8652">(&#171;added&#187; green / &#171;removed&#187; red baked in)</text></g><line style="stroke:#000000;stroke-width:1;stroke-dasharray:2,2;" x1="20" x2="1572.0313" y1="775.6074" y2="775.6074"/><text fill="#000000" font-family="sans-serif" font-size="11" font-weight="700" lengthAdjust="spacing" textLength="76.522" x="25" y="786.2422">[svg missing]</text><g class="message" data-entity-1="part2" data-entity-2="part1" data-source-line="48" id="msg15"><polygon fill="#181818" points="88.1592,806.873,78.1592,810.873,88.1592,814.873,84.1592,810.873" style="stroke:#181818;stroke-width:1;"/><line style="stroke:#181818;stroke-width:1;" x1="82.1592" x2="380.7446" y1="810.873" y2="810.873"/><text fill="#000000" font-family="sans-serif" font-size="13" lengthAdjust="spacing" textLength="280.5854" x="94.1592" y="806.1309">"No rendered diff &#8212; run the render pipeline"</text></g><line style="stroke:#000000;stroke-width:1;stroke-dasharray:2,2;" x1="10" x2="1582.0313" y1="826.873" y2="826.873"/><text fill="#000000" font-family="sans-serif" font-size="11" font-weight="700" lengthAdjust="spacing" textLength="102.4644" x="15" y="837.5078">[sub_mode = List]</text><path d="M30,847.8281 L104.4468,847.8281 L104.4468,855.1387 L94.4468,865.1387 L30,865.1387 L30,847.8281" fill="#EEEEEE" style="stroke:#000000;stroke-width:1.5;"/><rect fill="none" height="46.6211" style="stroke:#000000;stroke-width:1.5;" width="432.1172" x="30" y="847.8281"/><text fill="#000000" font-family="sans-serif" font-size="13" font-weight="700" lengthAdjust="spacing" textLength="29.4468" x="45" y="861.3965">loop</text><text fill="#000000" font-family="sans-serif" font-size="11" font-weight="700" lengthAdjust="spacing" textLength="302.4141" x="119.4468" y="860.4629">[unchanged / added / removed of that one CycleDiff]</text><g class="message" data-entity-1="part2" data-entity-2="part1" data-source-line="52" id="msg16"><polygon fill="#181818" points="88.1592,882.4492,78.1592,886.4492,88.1592,890.4492,84.1592,886.4492" style="stroke:#181818;stroke-width:1;"/><line style="stroke:#181818;stroke-width:1;" x1="82.1592" x2="380.7446" y1="886.4492" y2="886.4492"/><text fill="#000000" font-family="sans-serif" font-size="13" lengthAdjust="spacing" textLength="253.6777" x="94.1592" y="881.707">neutral / green / red strikethrough keys</text></g><?plantuml-src RLNBRkis4DthAmRUHCAruxtY60dyA0BS6BS9wgA00OCIHpORcXH8oe5R5EX7z0lx9HsIaY8tsVX1pfd7cJF36tWGF7rT_JnvMMsMgvV9uhV5zzLa-RHUPyaDF1YiqbzULuFZoVPfzUlLNJXTFZt-zFBuJ1TqjMYCGUKcLd24IkftO1R4gPPuecFa81GySxuL-8ucpxcegdqZSbZI3pXf0WbBRWhTA0vEWpiYM9HOUcn81SgZg87vQxepJCX9Rr09YNTqHr4K6lBZtRusnRDtxFJX815gKRxPY4N5qH2C2tOmx0JfClxumGvanqH8kBYGd_1dNp9rPZO3RGA-HZFn4G5ZTL0qvHiwUnkOUE1eow_v7SFeqKwAHaYNGqi1lE75WbPzjVjOJ7af9Thzkt37VJ2jA3fTEJInYaYA8QQ9hcXDvymHJqmTFECEKeuLQwG3oHnQDuQIrKvGC55HICpkeAqSf6Oy-WskuDR7lBNd0vm5Wm4_O_WkB3caZpQUp_V6zYICiiG9HovU0itNdMnjOmmV0j8oAYTB4bOwgd6qn3DAJIIFl8ReNr8puqGfQaPSZpwhQATIh2WzpFF7kiu2B9fS8xqe_FbE_McROkzLDmw54-dKXJ5r-u1_nQZRQ-WFet-d2l8yP1uQOdSg_Baw2-25DfXmvbZ1BCBeziJvD3PeEjlCfpjL83KJfp06Lb4_fm7rwhw0TLAzniyCoddVeO1-QGt_Nt7VjpptbUxKjojD1wo_JX8Y6YRpbZXe9vEIkGkJqxPi0sclk-mJ9BOvZBCChOQrd_jkNfFMa22U8W8Cc4it6Mc1bSSmUg2QKu4cIu8X0G8xFWJb3T_Yy71TDdx-R1e9RUdiGCFCjbZE5ZwOhse-I6IvfLjgFjn39m-lgq2R5qMwpdQg4hHrUZYy7udfVddSttjyakZQWTBNKay01g68hHn6hv4aDgHfGD8eeKu6Pv5nwuIKGEEW82NtKJ3PLux3EB4p-M050OFbOA9BgItQ3_ThQ5I_AbJNtwySpzPpgfPJTTro6G2YmuJHakc6Ad3PRjPs0Vc4YUgEy4KSdD35kZd9FGawC4q6_QXrsj-JnlSrSqVouSFqw_jZHzK6BGc13BemOPNdy6a0KZBFV0VLOFAxbHdm0KaUkeaYBmOP1n-dkD0QXRIXtpIQtbM0IArhGD9k_tY4THJkXdosIGq745AQrEaVMf-cbR17lFZdgR78inOTq-cROHjQZ3LraiVrsQgGLk1inZZLCv_3mI2LDuKPxOcJFeSpNqZ1taAleslVDlgKj6jyQITXhL27v3hZLW4RFNmqAUo_V_y3fb63vvIsH8rIA1mbqNVq_249_smaBLSVofj2o9g-srn1L_5PeVVfO-Q-J4jXumoJXEqgzlbPPmGzH4UZcyCnlAvTGeh_1m00?></g></svg>