<svg xmlns="http://www.w3.org/2000/svg" xmlns:xlink="http://www.w3.org/1999/xlink" contentStyleType="text/css" data-diagram-type="CLASS" height="896px" preserveAspectRatio="none" style="width:1216px;height:896px;background:#FFFFFF;" version="1.1" viewBox="0 0 1216 896" width="1216px" zoomAndPan="magnify"><?plantuml 1.2026.3?><defs/><g><g class="title" data-source-line="16"><text fill="#000000" font-family="sans-serif" font-size="14" font-weight="700" lengthAdjust="spacing" textLength="228.3408" x="490.5663" y="23.5352">Cycle tracking domain (current)</text></g><!--class EntryPoint--><g class="entity" data-qualified-name="EntryPoint" data-source-line="18" id="ent0002"><rect fill="#F1F1F1" height="80.9766" rx="2.5" ry="2.5" style="stroke:#181818;stroke-width:0.5;" width="100.8652" x="1043.14" y="766.6583"/><ellipse cx="1058.14" cy="782.6583" fill="#EB937F" rx="11" ry="11" style="stroke:#181818;stroke-width:1;"/><path d="M1061.7543,789.1583 L1054.0345,789.1583 L1054.0345,776.7652 L1061.7543,776.7652 L1061.7543,778.9234 L1056.4833,778.9234 L1056.4833,781.5963 L1061.2562,781.5963 L1061.2562,783.7545 L1056.4833,783.7545 L1056.4833,787.0001 L1061.7543,787.0001 Z " fill="#000000"/><text fill="#000000" font-family="sans-serif" font-size="14" lengthAdjust="spacing" textLength="68.8652" x="1072.14" y="787.9493">EntryPoint</text><line style="stroke:#181818;stroke-width:0.5;" x1="1044.14" x2="1143.0052" y1="798.6583" y2="798.6583"/><text fill="#000000" font-family="sans-serif" font-size="14" lengthAdjust="spacing" textLength="60.9014" x="1049.14" y="816.1934">Generate</text><text fill="#000000" font-family="sans-serif" font-size="14" lengthAdjust="spacing" textLength="28.6016" x="1049.14" y="832.6817">Map</text><line style="stroke:#181818;stroke-width:0.5;" x1="1044.14" x2="1143.0052" y1="839.6348" y2="839.6348"/></g><!--class CycleStatus--><g class="entity" data-qualified-name="CycleStatus" data-source-line="23" id="ent0003"><rect fill="#F1F1F1" height="97.4648" rx="2.5" ry="2.5" style="stroke:#181818;stroke-width:0.5;" width="109.5879" x="840.77" y="533.5683"/><ellipse cx="855.77" cy="549.5683" fill="#EB937F" rx="11" ry="11" style="stroke:#181818;stroke-width:1;"/><path d="M859.3843,556.0683 L851.6645,556.0683 L851.6645,543.6752 L859.3843,543.6752 L859.3843,545.8334 L854.1133,545.8334 L854.1133,548.5063 L858.8862,548.5063 L858.8862,550.6645 L854.1133,550.6645 L854.1133,553.9101 L859.3843,553.9101 Z " fill="#000000"/><text fill="#000000" font-family="sans-serif" font-size="14" lengthAdjust="spacing" textLength="77.5879" x="869.77" y="554.8593">CycleStatus</text><line style="stroke:#181818;stroke-width:0.5;" x1="841.77" x2="949.3579" y1="565.5683" y2="565.5683"/><text fill="#000000" font-family="sans-serif" font-size="14" lengthAdjust="spacing" textLength="36.1758" x="846.77" y="583.1034">Open</text><text fill="#000000" font-family="sans-serif" font-size="14" lengthAdjust="spacing" textLength="46.0811" x="846.77" y="599.5917">Closed</text><text fill="#000000" font-family="sans-serif" font-size="14" lengthAdjust="spacing" textLength="54.6465" x="846.77" y="616.08">Aborted</text><line style="stroke:#181818;stroke-width:0.5;" x1="841.77" x2="949.3579" y1="623.0331" y2="623.0331"/></g><!--class DiffSubMode--><g class="entity" data-qualified-name="DiffSubMode" data-source-line="29" id="ent0004"><rect fill="#F1F1F1" height="80.9766" rx="2.5" ry="2.5" style="stroke:#181818;stroke-width:0.5;" width="119.1377" x="7" y="541.8083"/><ellipse cx="22" cy="557.8083" fill="#EB937F" rx="11" ry="11" style="stroke:#181818;stroke-width:1;"/><path d="M25.6143,564.3083 L17.8945,564.3083 L17.8945,551.9152 L25.6143,551.9152 L25.6143,554.0734 L20.3433,554.0734 L20.3433,556.7463 L25.1162,556.7463 L25.1162,558.9045 L20.3433,558.9045 L20.3433,562.1501 L25.6143,562.1501 Z " fill="#000000"/><text fill="#000000" font-family="sans-serif" font-size="14" lengthAdjust="spacing" textLength="87.1377" x="36" y="563.0993">DiffSubMode</text><line style="stroke:#181818;stroke-width:0.5;" x1="8" x2="125.1377" y1="573.8083" y2="573.8083"/><text fill="#000000" font-family="sans-serif" font-size="14" lengthAdjust="spacing" textLength="57.5244" x="13" y="591.3434">Diagram</text><text fill="#000000" font-family="sans-serif" font-size="14" lengthAdjust="spacing" textLength="23.8848" x="13" y="607.8317">List</text><line style="stroke:#181818;stroke-width:0.5;" x1="8" x2="125.1377" y1="614.7848" y2="614.7848"/></g><!--class CycleManifest--><g class="entity" data-qualified-name="CycleManifest" data-source-line="34" id="ent0005"><rect fill="#F1F1F1" height="179.9063" rx="2.5" ry="2.5" style="stroke:#181818;stroke-width:0.5;" width="215.8135" x="985.66" y="492.3483"/><ellipse cx="1042.3846" cy="508.3483" fill="#ADD1B2" rx="11" ry="11" style="stroke:#181818;stroke-width:1;"/><path d="M1044.8578,514.4913 Q1044.2767,514.7902 1043.6375,514.9396 Q1042.9984,515.089 1042.2928,515.089 Q1039.786,515.089 1038.4662,513.4371 Q1037.1463,511.7853 1037.1463,508.6642 Q1037.1463,505.5348 1038.4662,503.8829 Q1039.786,502.2311 1042.2928,502.2311 Q1042.9984,502.2311 1043.6458,502.3805 Q1044.2933,502.5299 1044.8578,502.8287 L1044.8578,505.5514 Q1044.2269,504.9704 1043.6334,504.7006 Q1043.0399,504.4308 1042.409,504.4308 Q1041.0643,504.4308 1040.3795,505.4975 Q1039.6947,506.5641 1039.6947,508.6642 Q1039.6947,510.756 1040.3795,511.8226 Q1041.0643,512.8893 1042.409,512.8893 Q1043.0399,512.8893 1043.6334,512.6195 Q1044.2269,512.3497 1044.8578,511.7687 Z " fill="#000000"/><text fill="#000000" font-family="sans-serif" font-size="14" lengthAdjust="spacing" textLength="93.8643" x="1062.8846" y="513.6393">CycleManifest</text><line style="stroke:#181818;stroke-width:0.5;" x1="986.66" x2="1200.4735" y1="524.3483" y2="524.3483"/><g data-visibility-modifier="PUBLIC_FIELD"><ellipse cx="996.66" cy="538.0924" fill="none" rx="3" ry="3" style="stroke:#038048;stroke-width:1;"/></g><text fill="#000000" font-family="sans-serif" font-size="14" lengthAdjust="spacing" textLength="92.4697" x="1005.66" y="541.8834">number : u32</text><g data-visibility-modifier="PUBLIC_FIELD"><ellipse cx="996.66" cy="554.5807" fill="none" rx="3" ry="3" style="stroke:#038048;stroke-width:1;"/></g><text fill="#000000" font-family="sans-serif" font-size="14" lengthAdjust="spacing" textLength="81.8604" x="1005.66" y="558.3717">slug : String</text><g data-visibility-modifier="PUBLIC_FIELD"><ellipse cx="996.66" cy="571.069" fill="none" rx="3" ry="3" style="stroke:#038048;stroke-width:1;"/></g><text fill="#000000" font-family="sans-serif" font-size="14" lengthAdjust="spacing" textLength="116.9219" x="1005.66" y="574.86">entry : EntryPoint</text><g data-visibility-modifier="PUBLIC_FIELD"><ellipse cx="996.66" cy="587.5573" fill="none" rx="3" ry="3" style="stroke:#038048;stroke-width:1;"/></g><text fill="#000000" font-family="sans-serif" font-size="14" lengthAdjust="spacing" textLength="129.3359" x="1005.66" y="591.3483">description : String</text><g data-visibility-modifier="PUBLIC_FIELD"><ellipse cx="996.66" cy="604.0455" fill="none" rx="3" ry="3" style="stroke:#038048;stroke-width:1;"/></g><text fill="#000000" font-family="sans-serif" font-size="14" lengthAdjust="spacing" textLength="132.043" x="1005.66" y="607.8366">status : CycleStatus</text><g data-visibility-modifier="PUBLIC_FIELD"><ellipse cx="996.66" cy="620.5338" fill="none" rx="3" ry="3" style="stroke:#038048;stroke-width:1;"/></g><text fill="#000000" font-family="sans-serif" font-size="14" lengthAdjust="spacing" textLength="123.7373" x="1005.66" y="624.3248">opened_at : String</text><g data-visibility-modifier="PUBLIC_FIELD"><ellipse cx="996.66" cy="637.0221" fill="none" rx="3" ry="3" style="stroke:#038048;stroke-width:1;"/></g><text fill="#000000" font-family="sans-serif" font-size="14" lengthAdjust="spacing" textLength="185.3086" x="1005.66" y="640.8131">closed_at : Option&lt;String&gt;</text><g data-visibility-modifier="PUBLIC_FIELD"><ellipse cx="996.66" cy="653.5104" fill="none" rx="3" ry="3" style="stroke:#038048;stroke-width:1;"/></g><text fill="#000000" font-family="sans-serif" font-size="14" lengthAdjust="spacing" textLength="189.8135" x="1005.66" y="657.3014">touched_files : Vec&lt;String&gt;</text><line style="stroke:#181818;stroke-width:0.5;" x1="986.66" x2="1200.4735" y1="664.2545" y2="664.2545"/></g><!--class Cycle--><g class="entity" data-qualified-name="Cycle" data-source-line="45" id="ent0006"><rect fill="#F1F1F1" height="179.9063" rx="2.5" ry="2.5" style="stroke:#181818;stroke-width:0.5;" width="313.1299" x="799" y="235.4383"/><ellipse cx="933.3057" cy="251.4383" fill="#ADD1B2" rx="11" ry="11" style="stroke:#181818;stroke-width:1;"/><path d="M935.7788,257.5813 Q935.1978,257.8802 934.5586,258.0296 Q933.9194,258.179 933.2139,258.179 Q930.707,258.179 929.3872,256.5271 Q928.0674,254.8753 928.0674,251.7542 Q928.0674,248.6248 929.3872,246.9729 Q930.707,245.3211 933.2139,245.3211 Q933.9194,245.3211 934.5669,245.4705 Q935.2144,245.6199 935.7788,245.9187 L935.7788,248.6414 Q935.1479,248.0604 934.5544,247.7906 Q933.9609,247.5208 933.3301,247.5208 Q931.9854,247.5208 931.3005,248.5875 Q930.6157,249.6541 930.6157,251.7542 Q930.6157,253.846 931.3005,254.9126 Q931.9854,255.9793 933.3301,255.9793 Q933.9609,255.9793 934.5544,255.7095 Q935.1479,255.4397 935.7788,254.8587 Z " fill="#000000"/><text fill="#000000" font-family="sans-serif" font-size="14" lengthAdjust="spacing" textLength="36.0186" x="953.8057" y="256.7293">Cycle</text><line style="stroke:#181818;stroke-width:0.5;" x1="800" x2="1111.1299" y1="267.4383" y2="267.4383"/><g data-visibility-modifier="PUBLIC_FIELD"><ellipse cx="810" cy="281.1824" fill="none" rx="3" ry="3" style="stroke:#038048;stroke-width:1;"/></g><text fill="#000000" font-family="sans-serif" font-size="14" lengthAdjust="spacing" textLength="166.0107" x="819" y="284.9734">manifest : CycleManifest</text><g data-visibility-modifier="PUBLIC_FIELD"><ellipse cx="810" cy="297.6707" fill="none" rx="3" ry="3" style="stroke:#038048;stroke-width:1;"/></g><text fill="#000000" font-family="sans-serif" font-size="14" lengthAdjust="spacing" textLength="83.1592" x="819" y="301.4617">dir : PathBuf</text><g data-visibility-modifier="PUBLIC_FIELD"><ellipse cx="810" cy="314.159" fill="none" rx="3" ry="3" style="stroke:#038048;stroke-width:1;"/></g><text fill="#000000" font-family="sans-serif" font-size="14" lengthAdjust="spacing" textLength="134.0459" x="819" y="317.95">before_dir : PathBuf</text><g data-visibility-modifier="PUBLIC_FIELD"><ellipse cx="810" cy="330.6473" fill="none" rx="3" ry="3" style="stroke:#038048;stroke-width:1;"/></g><text fill="#000000" font-family="sans-serif" font-size="14" lengthAdjust="spacing" textLength="190.3193" x="819" y="334.4383">after_dir : Option&lt;PathBuf&gt;</text><line style="stroke:#181818;stroke-width:0.5;" x1="800" x2="1111.1299" y1="341.3914" y2="341.3914"/><g data-visibility-modifier="PUBLIC_METHOD"><ellipse cx="810" cy="355.1355" fill="#84BE84" rx="3" ry="3" style="stroke:#038048;stroke-width:1;"/></g><text fill="#000000" font-family="sans-serif" font-size="14" lengthAdjust="spacing" textLength="101.5752" x="819" y="358.9266">number() : u32</text><g data-visibility-modifier="PUBLIC_METHOD"><ellipse cx="810" cy="371.6238" fill="#84BE84" rx="3" ry="3" style="stroke:#038048;stroke-width:1;"/></g><text fill="#000000" font-family="sans-serif" font-size="14" lengthAdjust="spacing" textLength="114.2012" x="819" y="375.4148">is_closed() : bool</text><g data-visibility-modifier="PUBLIC_METHOD"><ellipse cx="810" cy="388.1121" fill="#84BE84" rx="3" ry="3" style="stroke:#038048;stroke-width:1;"/></g><text fill="#000000" font-family="sans-serif" font-size="14" lengthAdjust="spacing" textLength="94.8008" x="819" y="391.9031">label() : String</text><g data-visibility-modifier="PUBLIC_METHOD"><ellipse cx="810" cy="404.6004" fill="#84BE84" rx="3" ry="3" style="stroke:#038048;stroke-width:1;"/></g><text fill="#000000" font-family="sans-serif" font-size="14" lengthAdjust="spacing" textLength="287.1299" x="819" y="408.3914">diff_puml_rel(model_rel) : Option&lt;String&gt;</text></g><!--class CycleDiff--><g class="entity" data-qualified-name="CycleDiff" data-source-line="56" id="ent0007"><rect fill="#F1F1F1" height="130.4414" rx="2.5" ry="2.5" style="stroke:#181818;stroke-width:0.5;" width="200.6377" x="578.25" y="517.0783"/><ellipse cx="643.8955" cy="533.0783" fill="#ADD1B2" rx="11" ry="11" style="stroke:#181818;stroke-width:1;"/><path d="M646.3687,539.2213 Q645.7876,539.5202 645.1484,539.6696 Q644.5093,539.819 643.8037,539.819 Q641.2969,539.819 639.9771,538.1671 Q638.6572,536.5153 638.6572,533.3942 Q638.6572,530.2648 639.9771,528.6129 Q641.2969,526.9611 643.8037,526.9611 Q644.5093,526.9611 645.1567,527.1105 Q645.8042,527.2599 646.3687,527.5587 L646.3687,530.2814 Q645.7378,529.7004 645.1443,529.4306 Q644.5508,529.1608 643.9199,529.1608 Q642.5752,529.1608 641.8904,530.2275 Q641.2056,531.2941 641.2056,533.3942 Q641.2056,535.486 641.8904,536.5526 Q642.5752,537.6193 643.9199,537.6193 Q644.5508,537.6193 645.1443,537.3495 Q645.7378,537.0797 646.3687,536.4987 Z " fill="#000000"/><text fill="#000000" font-family="sans-serif" font-size="14" lengthAdjust="spacing" textLength="60.8467" x="664.3955" y="538.3693">CycleDiff</text><line style="stroke:#181818;stroke-width:0.5;" x1="579.25" x2="777.8877" y1="549.0783" y2="549.0783"/><g data-visibility-modifier="PUBLIC_FIELD"><ellipse cx="589.25" cy="562.8224" fill="none" rx="3" ry="3" style="stroke:#038048;stroke-width:1;"/></g><text fill="#000000" font-family="sans-serif" font-size="14" lengthAdjust="spacing" textLength="109.1084" x="598.25" y="566.6134">diagram : String</text><g data-visibility-modifier="PUBLIC_FIELD"><ellipse cx="589.25" cy="579.3107" fill="none" rx="3" ry="3" style="stroke:#038048;stroke-width:1;"/></g><text fill="#000000" font-family="sans-serif" font-size="14" lengthAdjust="spacing" textLength="174.6377" x="598.25" y="583.1017">unchanged : Vec&lt;String&gt;</text><g data-visibility-modifier="PUBLIC_FIELD"><ellipse cx="589.25" cy="595.799" fill="none" rx="3" ry="3" style="stroke:#038048;stroke-width:1;"/></g><text fill="#000000" font-family="sans-serif" font-size="14" lengthAdjust="spacing" textLength="141.6064" x="598.25" y="599.59">added : Vec&lt;String&gt;</text><g data-visibility-modifier="PUBLIC_FIELD"><ellipse cx="589.25" cy="612.2873" fill="none" rx="3" ry="3" style="stroke:#038048;stroke-width:1;"/></g><text fill="#000000" font-family="sans-serif" font-size="14" lengthAdjust="spacing" textLength="158.6963" x="598.25" y="616.0783">removed : Vec&lt;String&gt;</text><line style="stroke:#181818;stroke-width:0.5;" x1="579.25" x2="777.8877" y1="623.0314" y2="623.0314"/><g data-visibility-modifier="PUBLIC_METHOD"><ellipse cx="589.25" cy="636.7755" fill="#84BE84" rx="3" ry="3" style="stroke:#038048;stroke-width:1;"/></g><text fill="#000000" font-family="sans-serif" font-size="14" lengthAdjust="spacing" textLength="112.8682" x="598.25" y="640.5666">is_empty() : bool</text></g><!--class CycleRegistry--><g class="entity" data-qualified-name="CycleRegistry" data-source-line="64" id="ent0008"><rect fill="#F1F1F1" height="113.9531" rx="2.5" ry="2.5" style="stroke:#181818;stroke-width:0.5;" width="239.2197" x="835.96" y="44.4883"/><ellipse cx="905.8882" cy="60.4883" fill="#ADD1B2" rx="11" ry="11" style="stroke:#181818;stroke-width:1;"/><path d="M908.3614,66.6313 Q907.7803,66.9302 907.1412,67.0796 Q906.502,67.229 905.7964,67.229 Q903.2896,67.229 901.9698,65.5771 Q900.6499,63.9253 900.6499,60.8042 Q900.6499,57.6748 901.9698,56.0229 Q903.2896,54.3711 905.7964,54.3711 Q906.502,54.3711 907.1495,54.5205 Q907.7969,54.6699 908.3614,54.9688 L908.3614,57.6914 Q907.7305,57.1104 907.137,56.8406 Q906.5435,56.5708 905.9126,56.5708 Q904.5679,56.5708 903.8831,57.6375 Q903.1983,58.7041 903.1983,60.8042 Q903.1983,62.896 903.8831,63.9626 Q904.5679,65.0293 905.9126,65.0293 Q906.5435,65.0293 907.137,64.7595 Q907.7305,64.4897 908.3614,63.9087 Z " fill="#000000"/><text fill="#000000" font-family="sans-serif" font-size="14" lengthAdjust="spacing" textLength="90.8633" x="926.3882" y="65.7793">CycleRegistry</text><line style="stroke:#181818;stroke-width:0.5;" x1="836.96" x2="1074.1797" y1="76.4883" y2="76.4883"/><g data-visibility-modifier="PUBLIC_FIELD"><ellipse cx="846.96" cy="90.2324" fill="none" rx="3" ry="3" style="stroke:#038048;stroke-width:1;"/></g><text fill="#000000" font-family="sans-serif" font-size="14" lengthAdjust="spacing" textLength="136.3291" x="855.96" y="94.0234">cycles : Vec&lt;Cycle&gt;</text><line style="stroke:#181818;stroke-width:0.5;" x1="836.96" x2="1074.1797" y1="100.9766" y2="100.9766"/><g data-visibility-modifier="PUBLIC_METHOD"><ellipse cx="846.96" cy="114.7207" fill="#84BE84" rx="3" ry="3" style="stroke:#038048;stroke-width:1;"/></g><text fill="#000000" font-family="sans-serif" font-size="14" lengthAdjust="spacing" textLength="172.1494" x="855.96" y="118.5117">scan(root) : CycleRegistry</text><g data-visibility-modifier="PUBLIC_METHOD"><ellipse cx="846.96" cy="131.209" fill="#84BE84" rx="3" ry="3" style="stroke:#038048;stroke-width:1;"/></g><text fill="#000000" font-family="sans-serif" font-size="14" lengthAdjust="spacing" textLength="213.2197" x="855.96" y="135">cycle(number) : Option&lt;Cycle&gt;</text><g data-visibility-modifier="PUBLIC_METHOD"><ellipse cx="846.96" cy="147.6973" fill="#84BE84" rx="3" ry="3" style="stroke:#038048;stroke-width:1;"/></g><text fill="#000000" font-family="sans-serif" font-size="14" lengthAdjust="spacing" textLength="164.1172" x="855.96" y="151.4883">latest() : Option&lt;Cycle&gt;</text></g><!--class ElementDescription--><g class="entity" data-qualified-name="ElementDescription" data-source-line="71" id="ent0009"><rect fill="#F1F1F1" height="80.9766" rx="2.5" ry="2.5" style="stroke:#181818;stroke-width:0.5;" width="163.9814" x="575.58" y="60.9783"/><ellipse cx="590.58" cy="76.9783" fill="#ADD1B2" rx="11" ry="11" style="stroke:#181818;stroke-width:1;"/><path d="M593.0531,83.1213 Q592.4721,83.4202 591.8329,83.5696 Q591.1938,83.719 590.4882,83.719 Q587.9814,83.719 586.6615,82.0671 Q585.3417,80.4153 585.3417,77.2942 Q585.3417,74.1648 586.6615,72.5129 Q587.9814,70.8611 590.4882,70.8611 Q591.1938,70.8611 591.8412,71.0105 Q592.4887,71.1599 593.0531,71.4587 L593.0531,74.1814 Q592.4223,73.6004 591.8288,73.3306 Q591.2353,73.0608 590.6044,73.0608 Q589.2597,73.0608 588.5749,74.1275 Q587.8901,75.1941 587.8901,77.2942 Q587.8901,79.386 588.5749,80.4526 Q589.2597,81.5193 590.6044,81.5193 Q591.2353,81.5193 591.8288,81.2495 Q592.4223,80.9797 593.0531,80.3987 Z " fill="#000000"/><text fill="#000000" font-family="sans-serif" font-size="14" lengthAdjust="spacing" textLength="131.9814" x="604.58" y="82.2693">ElementDescription</text><line style="stroke:#181818;stroke-width:0.5;" x1="576.58" x2="738.5614" y1="92.9783" y2="92.9783"/><g data-visibility-modifier="PUBLIC_FIELD"><ellipse cx="586.58" cy="106.7224" fill="none" rx="3" ry="3" style="stroke:#038048;stroke-width:1;"/></g><text fill="#000000" font-family="sans-serif" font-size="14" lengthAdjust="spacing" textLength="106.5654" x="595.58" y="110.5134">targetId : String</text><g data-visibility-modifier="PUBLIC_FIELD"><ellipse cx="586.58" cy="123.2107" fill="none" rx="3" ry="3" style="stroke:#038048;stroke-width:1;"/></g><text fill="#000000" font-family="sans-serif" font-size="14" lengthAdjust="spacing" textLength="80.1172" x="595.58" y="127.0017">text : String</text><line style="stroke:#181818;stroke-width:0.5;" x1="576.58" x2="738.5614" y1="133.9548" y2="133.9548"/></g><!--class DiffView--><g class="entity" data-qualified-name="DiffView" data-source-line="76" id="ent0010"><rect fill="#F1F1F1" height="130.4414" rx="2.5" ry="2.5" style="stroke:#181818;stroke-width:0.5;" width="309.9307" x="84.6" y="260.1783"/><ellipse cx="207.0077" cy="276.1783" fill="#ADD1B2" rx="11" ry="11" style="stroke:#181818;stroke-width:1;"/><path d="M209.4809,282.3213 Q208.8998,282.6202 208.2606,282.7696 Q207.6215,282.919 206.9159,282.919 Q204.4091,282.919 203.0893,281.2671 Q201.7694,279.6153 201.7694,276.4942 Q201.7694,273.3648 203.0893,271.7129 Q204.4091,270.0611 206.9159,270.0611 Q207.6215,270.0611 208.2689,270.2105 Q208.9164,270.3599 209.4809,270.6587 L209.4809,273.3814 Q208.85,272.8004 208.2565,272.5306 Q207.663,272.2608 207.0321,272.2608 Q205.6874,272.2608 205.0026,273.3275 Q204.3178,274.3941 204.3178,276.4942 Q204.3178,278.586 205.0026,279.6526 Q205.6874,280.7193 207.0321,280.7193 Q207.663,280.7193 208.2565,280.4495 Q208.85,280.1797 209.4809,279.5987 Z " fill="#000000"/><text fill="#000000" font-family="sans-serif" font-size="14" lengthAdjust="spacing" textLength="56.6152" x="227.5077" y="281.4693">DiffView</text><line style="stroke:#181818;stroke-width:0.5;" x1="85.6" x2="393.5307" y1="292.1783" y2="292.1783"/><g data-visibility-modifier="PUBLIC_FIELD"><ellipse cx="95.6" cy="305.9224" fill="none" rx="3" ry="3" style="stroke:#038048;stroke-width:1;"/></g><text fill="#000000" font-family="sans-serif" font-size="14" lengthAdjust="spacing" textLength="170.3447" x="104.6" y="309.7134">sub_mode : DiffSubMode</text><g data-visibility-modifier="PUBLIC_FIELD"><ellipse cx="95.6" cy="322.4107" fill="none" rx="3" ry="3" style="stroke:#038048;stroke-width:1;"/></g><text fill="#000000" font-family="sans-serif" font-size="14" lengthAdjust="spacing" textLength="204.4014" x="104.6" y="326.2017">page : Option&lt;DiagramPage&gt;</text><line style="stroke:#181818;stroke-width:0.5;" x1="85.6" x2="393.5307" y1="333.1548" y2="333.1548"/><g data-visibility-modifier="PUBLIC_METHOD"><ellipse cx="95.6" cy="346.899" fill="#84BE84" rx="3" ry="3" style="stroke:#038048;stroke-width:1;"/></g><text fill="#000000" font-family="sans-serif" font-size="14" lengthAdjust="spacing" textLength="242.2314" x="104.6" y="350.69">loaded_key : Option&lt;(u32, String)&gt;</text><g data-visibility-modifier="PUBLIC_METHOD"><ellipse cx="95.6" cy="363.3873" fill="#84BE84" rx="3" ry="3" style="stroke:#038048;stroke-width:1;"/></g><text fill="#000000" font-family="sans-serif" font-size="14" lengthAdjust="spacing" textLength="283.9307" x="104.6" y="367.1783">diagram_key(model_rel) : Option&lt;String&gt;</text><g data-visibility-modifier="PUBLIC_METHOD"><ellipse cx="95.6" cy="379.8755" fill="#84BE84" rx="3" ry="3" style="stroke:#038048;stroke-width:1;"/></g><text fill="#000000" font-family="sans-serif" font-size="14" lengthAdjust="spacing" textLength="249.2383" x="104.6" y="383.6666">cycles_with_diff_for(file) : Vec&lt;u32&gt;</text></g><g class="entity" data-qualified-name="GMN19" data-source-line="94" id="ent0020"><path d="M502.99,733.2583 L502.99,881.0532 A0,0 0 0 0 502.99,881.0532 L854.157,881.0532 A0,0 0 0 0 854.157,881.0532 L854.157,743.2583 L844.157,733.2583 L682.57,733.2583 L678.57,647.7583 L674.57,733.2583 L502.99,733.2583 A0,0 0 0 0 502.99,733.2583" fill="#FEFFDD" style="stroke:#181818;stroke-width:0.5;"/><path d="M844.157,733.2583 L844.157,743.2583 L854.157,743.2583 L844.157,733.2583" fill="#FEFFDD" style="stroke:#181818;stroke-width:0.5;"/><text fill="#000000" font-family="sans-serif" font-size="13" lengthAdjust="spacing" textLength="330.167" x="508.99" y="750.8266">diff_documents() builds unchanged/added/removed</text><text fill="#000000" font-family="sans-serif" font-size="13" lengthAdjust="spacing" textLength="277.1514" x="508.99" y="766.1372">from element_keys (every @id plus declared</text><text fill="#000000" font-family="sans-serif" font-size="13" lengthAdjust="spacing" textLength="263.4023" x="508.99" y="781.4477">element aliases/labels); the three sets are</text><text fill="#000000" font-family="sans-serif" font-size="13" lengthAdjust="spacing" textLength="304.1606" x="508.99" y="796.7583">pairwise disjoint (OCL-CYCLE-DIFF-PARTITION).</text><text fill="#000000" font-family="sans-serif" font-size="13" lengthAdjust="spacing" textLength="284.0195" x="508.99" y="812.0688">annotate_cycle_diff_puml re-injects removed</text><text fill="#000000" font-family="sans-serif" font-size="13" lengthAdjust="spacing" textLength="293.0776" x="508.99" y="827.3794">elements as a diagram-type ghost (participant</text><text fill="#000000" font-family="sans-serif" font-size="13" lengthAdjust="spacing" textLength="269.8896" x="508.99" y="842.6899">in sequences, state in state diagrams, card</text><text fill="#000000" font-family="sans-serif" font-size="13" lengthAdjust="spacing" textLength="281.0806" x="508.99" y="858.0005">otherwise; skipped for salt) so the .diff.puml</text><text fill="#000000" font-family="sans-serif" font-size="13" lengthAdjust="spacing" textLength="279.0239" x="508.99" y="873.311">stays valid PlantUML for every diagram type.</text></g><g class="entity" data-qualified-name="GMN22" data-source-line="106" id="ent0023"><path d="M429.51,289.7683 L429.51,361.0105 A0,0 0 0 0 429.51,361.0105 L763.6272,361.0105 A0,0 0 0 0 763.6272,361.0105 L763.6272,299.7683 L753.6272,289.7683 L610.15,289.7683 L646.59,142.3983 L602.15,289.7683 L429.51,289.7683 A0,0 0 0 0 429.51,289.7683" fill="#FEFFDD" style="stroke:#181818;stroke-width:0.5;"/><path d="M753.6272,289.7683 L753.6272,299.7683 L763.6272,299.7683 L753.6272,289.7683" fill="#FEFFDD" style="stroke:#181818;stroke-width:0.5;"/><text fill="#000000" font-family="sans-serif" font-size="13" lengthAdjust="spacing" textLength="254.376" x="435.51" y="307.3366">Not a stored struct: the @desc marker is</text><text fill="#000000" font-family="sans-serif" font-size="13" lengthAdjust="spacing" textLength="274.625" x="435.51" y="322.6472">parsed by extract_descs() and exposed as a</text><text fill="#000000" font-family="sans-serif" font-size="13" lengthAdjust="spacing" textLength="290.8877" x="435.51" y="337.9577">BTreeMap&lt;id,text&gt; via Project::descriptions().</text><text fill="#000000" font-family="sans-serif" font-size="13" lengthAdjust="spacing" textLength="313.1172" x="435.51" y="353.2683">Constrained by OCL-ELEMENT-DESC-NONEMPTY.</text></g><g class="entity" data-qualified-name="GMN25" data-source-line="113" id="ent0026"><path d="M161.13,508.3983 L161.13,656.1932 A0,0 0 0 0 161.13,656.1932 L489.9977,656.1932 A0,0 0 0 0 489.9977,656.1932 L489.9977,518.3983 L479.9977,508.3983 L304.89,508.3983 L261.38,391.0483 L296.89,508.3983 L161.13,508.3983 A0,0 0 0 0 161.13,508.3983" fill="#FEFFDD" style="stroke:#181818;stroke-width:0.5;"/><path d="M479.9977,508.3983 L479.9977,518.3983 L489.9977,518.3983 L479.9977,508.3983" fill="#FEFFDD" style="stroke:#181818;stroke-width:0.5;"/><text fill="#000000" font-family="sans-serif" font-size="13" lengthAdjust="spacing" textLength="271.9844" x="167.13" y="525.9666">diff_ui keys on selected_file; selected_cycle</text><text fill="#000000" font-family="sans-serif" font-size="13" lengthAdjust="spacing" textLength="284.4829" x="167.13" y="541.2772">is constrained to Project::cycles_with_diff_for</text><text fill="#000000" font-family="sans-serif" font-size="13" lengthAdjust="spacing" textLength="243.5405" x="167.13" y="556.5877">(file) and defaults to the latest of them</text><text fill="#000000" font-family="sans-serif" font-size="13" lengthAdjust="spacing" textLength="297.8701" x="167.13" y="571.8983">(OCL-DIFF-CYCLE-SCOPED), then bound as the</text><text fill="#000000" font-family="sans-serif" font-size="13" lengthAdjust="spacing" textLength="268.1821" x="167.13" y="587.2088">(cycle,file) pair (OCL-DIFF-VIEW-BINDING).</text><text fill="#000000" font-family="sans-serif" font-size="13" lengthAdjust="spacing" textLength="307.8677" x="167.13" y="602.5194">Diagram sub-mode resolves Cycle::diff_puml_rel</text><text fill="#000000" font-family="sans-serif" font-size="13" lengthAdjust="spacing" textLength="283.3086" x="167.13" y="617.8299">-&gt; Project::rendered_svg_path; it paints only</text><text fill="#000000" font-family="sans-serif" font-size="13" lengthAdjust="spacing" textLength="281.0615" x="167.13" y="633.1405">when that .diff.svg exists, else a placeholder</text><text fill="#000000" font-family="sans-serif" font-size="13" lengthAdjust="spacing" textLength="246.6445" x="167.13" y="648.451">(OCL-DIFF-DIAGRAM-NEEDS-RENDER).</text></g><!--reverse link CycleRegistry to Cycle--><g class="link" data-entity-1="ent0008" data-entity-2="ent0006" data-link-type="aggregation" data-source-line="84" id="lnk11"><path codeLine="84" d="M955.57,170.7583 C955.57,193.9983 955.57,209.5083 955.57,235.3583" fill="none" id="CycleRegistry-backto-Cycle" style="stroke:#181818;stroke-width:1;"/><polygon fill="none" points="955.57,158.7583,951.57,164.7583,955.57,170.7583,959.57,164.7583,955.57,158.7583" style="stroke:#181818;stroke-width:1;"/><polygon fill="#000000" points="960.57,202.0936,963.5089,193.0485,957.6311,193.0485,960.57,202.0936" style="stroke:#000000;stroke-width:1;"/><text fill="#000000" font-family="sans-serif" font-size="13" lengthAdjust="spacing" textLength="35.1597" x="969.57" y="202.0066">scans</text><text fill="#000000" font-family="sans-serif" font-size="13" lengthAdjust="spacing" textLength="8.2202" x="947.1202" y="178.8363">1</text><text fill="#000000" font-family="sans-serif" font-size="13" lengthAdjust="spacing" textLength="6.2651" x="949.324" y="224.5582">*</text></g><!--reverse link Cycle to CycleManifest--><g class="link" data-entity-1="ent0006" data-entity-2="ent0005" data-link-type="composition" data-source-line="85" id="lnk12"><path codeLine="85" d="M1009.5438,426.1007 C1022.9938,450.9407 1031.89,467.3583 1045.33,492.1983" fill="none" id="Cycle-backto-CycleManifest" style="stroke:#181818;stroke-width:1;"/><polygon fill="#181818" points="1003.83,415.5483,1003.1694,422.7291,1009.5438,426.1007,1010.2043,418.9199,1003.83,415.5483" style="stroke:#181818;stroke-width:1;"/><text fill="#000000" font-family="sans-serif" font-size="13" lengthAdjust="spacing" textLength="8.2202" x="999.3661" y="435.911">1</text><text fill="#000000" font-family="sans-serif" font-size="13" lengthAdjust="spacing" textLength="8.2202" x="1033.0133" y="481.6967">1</text></g><!--reverse link Cycle to CycleDiff--><g class="link" data-entity-1="ent0006" data-entity-2="ent0007" data-link-type="aggregation" data-source-line="86" id="lnk13"><path codeLine="86" d="M849.8596,423.6738 C813.6596,456.9838 782.12,486.0083 748.78,516.6883" fill="none" id="Cycle-backto-CycleDiff" style="stroke:#181818;stroke-width:1;"/><polygon fill="none" points="858.69,415.5483,851.5663,416.6675,849.8596,423.6738,856.9833,422.5545,858.69,415.5483" style="stroke:#181818;stroke-width:1;"/><polygon fill="#000000" points="826.6907,457.3893,835.3367,453.4271,831.3565,449.1018,826.6907,457.3893" style="stroke:#000000;stroke-width:1;"/><text fill="#000000" font-family="sans-serif" font-size="13" lengthAdjust="spacing" textLength="74.1914" x="839.37" y="458.9166">cycle_diffs()</text><text fill="#000000" font-family="sans-serif" font-size="13" lengthAdjust="spacing" textLength="8.2202" x="842.6603" y="435.911">1</text><text fill="#000000" font-family="sans-serif" font-size="13" lengthAdjust="spacing" textLength="6.2651" x="750.1457" y="506.2771">*</text></g><!--link Cycle to CycleStatus--><g class="link" data-entity-1="ent0006" data-entity-2="ent0003" data-link-type="dependency" data-source-line="87" id="lnk14"><path codeLine="87" d="M934.58,415.5483 C925.26,455.1683 916.025,494.398 908.225,527.528" fill="none" id="Cycle-to-CycleStatus" style="stroke:#181818;stroke-width:1;"/><polygon fill="#181818" points="906.85,533.3683,912.8061,525.5245,907.9959,528.5013,905.019,523.6911,906.85,533.3683" style="stroke:#181818;stroke-width:1;"/></g><!--link CycleManifest to EntryPoint--><g class="link" data-entity-1="ent0005" data-entity-2="ent0002" data-link-type="dependency" data-source-line="88" id="lnk15"><path codeLine="88" d="M1093.57,672.6583 C1093.57,705.1083 1093.57,734.1683 1093.57,760.2083" fill="none" id="CycleManifest-to-EntryPoint" style="stroke:#181818;stroke-width:1;"/><polygon fill="#181818" points="1093.57,766.2083,1097.57,757.2083,1093.57,761.2083,1089.57,757.2083,1093.57,766.2083" style="stroke:#181818;stroke-width:1;"/></g><!--link ElementDescription to Cycle--><g class="link" data-entity-1="ent0009" data-entity-2="ent0006" data-link-type="dependency" data-source-line="89" id="lnk16"><path codeLine="89" d="M711.19,142.3983 C745.88,168.2283 787.6481,199.3342 830.8381,231.5042" fill="none" id="ElementDescription-to-Cycle" style="stroke:#181818;stroke-width:1;stroke-dasharray:7,7;"/><polygon fill="#181818" points="835.65,235.0883,830.8216,226.5042,831.6401,232.1015,826.0428,232.92,835.65,235.0883" style="stroke:#181818;stroke-width:1;"/><text fill="#000000" font-family="sans-serif" font-size="13" lengthAdjust="spacing" textLength="102.521" x="789.73" y="202.0066">authored during</text><text fill="#000000" font-family="sans-serif" font-size="13" lengthAdjust="spacing" textLength="6.2651" x="712.9614" y="162.4065">*</text><text fill="#000000" font-family="sans-serif" font-size="13" lengthAdjust="spacing" textLength="8.2202" x="817.3974" y="224.5702">1</text></g><!--link DiffView to DiffSubMode--><g class="link" data-entity-1="ent0010" data-entity-2="ent0004" data-link-type="dependency" data-source-line="90" id="lnk17"><path codeLine="90" d="M195.69,391.0483 C163.56,438.3983 124.3299,496.1941 97.0199,536.4241" fill="none" id="DiffView-to-DiffSubMode" style="stroke:#181818;stroke-width:1;"/><polygon fill="#181818" points="93.65,541.3883,102.0144,536.1886,96.4583,537.2514,95.3954,531.6953,93.65,541.3883" style="stroke:#181818;stroke-width:1;"/></g><!--link DiffView to CycleDiff--><g class="link" data-entity-1="ent0010" data-entity-2="ent0007" data-link-type="dependency" data-source-line="91" id="lnk18"><path codeLine="91" d="M350.91,391.0483 C420.77,431.6083 504.9212,480.4756 572.6612,519.8056" fill="none" id="DiffView-to-CycleDiff" style="stroke:#181818;stroke-width:1;stroke-dasharray:7,7;"/><polygon fill="#181818" points="577.85,522.8183,572.0752,514.8401,573.526,520.3077,568.0583,521.7585,577.85,522.8183" style="stroke:#181818;stroke-width:1;"/><polygon fill="#000000" points="481.554,456.5142,475.2076,449.4308,472.2561,454.5139,481.554,456.5142" style="stroke:#000000;stroke-width:1;"/><text fill="#000000" font-family="sans-serif" font-size="13" lengthAdjust="spacing" textLength="185.999" x="486.23" y="458.9166">resolves selected file/cycle to</text></g><?plantuml-src VLTTRnex47tdLunuARGigFU-RIBK56Y450WAkRsgL0cPNGDkblLUsviKLVtlTsQydu7c9TaTZsVFp1oF3-_Waufxq_j5CFaskPlrE-_QXc0w__AbQPtTpHQpvMCmdQqd3_FLu_n-URxfONOxNpy-V6kkKA3WwtpsBnhHFCcDaQaBh8ebnFeeL3g0M1hrB6FO6Ns4o0WdxUWOnq6aZHnP4usYKvJ8eR43S0U9KUHFPqJaDh6qaOKHh8p-8ICNXcGmAdDAfnQC535amXq68DAOjiApaY_IlBCOOwfskw_uEeH9egsql9u9ezm9zYA35-KERDDRYeq02xnmrB5CXfpE9_fWNO41TEV7B957J17p4HOOUHXEw1zy0Fw_4AdQIUkWPwM9PS0uZuLnU3ec_IllYFaWo4sM7vEDaGdwP1Q4_pud1aw3SXQ6M2rV93kwNev7r-Wz7jBc8MqUTlldMBapRmEc4eMGIHF4IkoDE4AUHWUHxcKy4d6CVuqyQkgSz27WIPwmIR6oFxJ2r-q9h7GGOJUSoIDgosii5uXr3ehQuBTSpwVZmVUkGmPyx_Qn8kP96cgRHK_yN9iPY45V9aUlVxae9ONVBio3t2lCw1I6DX9fo4nhT-7zgDbG3qIaeB7V1kDzbT4rHng_Xb6TbtC4T2GyWIlomY-m-NP3Z0ZPkCwt2tmPGA85DcY33HbWUVOIVeVGs1pG5h0EpnfiTKx7GsEl4YmKVYmgw6g4Ic2d4dc5cpm3CZm1pdS43xBFnZxl1t275M7pDe-UfBEKc5CEutZoKr-ULBelJr4lygEWt-d8D3_2BCM2hfWslpe0jpALD0dmSI6opk_2YsEj4NPksUq-aod-uoCSuyFDLXlCeF9lr8JzYpJmYV2IMvG8QryTJFBy0BX_Y-KA8V_xBpRO9D_ZwzePp8Cjaa2ZgGRFvWRJslxM8m-RUV22nZomNSAr_IFEovllETwrNntpijDvTC1rQX559LgLw-tKYfHAKfO8oemzQaN9hd2kVCvtRDdA7OxWpVc2s3bf2dk1grWUDqhNwpUAf-p6PyFMhTO9cnEnbGcR6cctnbwFvnqzzS-hqCwIkbraMawiLjngVBsg5QT40-s2lHnnvokOaJncxbGdr4PJJea2aPyCHHn_-3qdS8JqZDQkNtQbt5Xlw_c2DWhG293GXUbwvuiLd9aV8zC6BJqc9ynUkddSBXDDrzfIHQc7ZiTT31veJHwFg1e-DQOU4c5GnEnxu3oNAeVYQAxGE6wsaCAyoO6wk1kwj3VC7YHkZuv5loWuVfqBqkvCzsCNT110ztstE2SXzyF2s7kontlo-DXzTMJgzLO4vc3e0J4Kl6kgQ44mRXtzzjYXrSOakT0r-ifmEAxHu9T4xWwQnd2SSx-gDb6uPcUg1OhGn6garSapShEw0AXo_YgZUs7SwQIQBmhdKA7fNRqRYy_bZdMK4rXATfkh1A_3FsW5tC4whv0Cr5qBFVaiiHqe6Y5BS4364YbdsBcK5Y9H0cNQY0U6HOb4Tuqx62b9Ow0kCiGzl9xCYxAorY2z-ybTG_44gvk7npdhro7wYnGpm_EpgVl5WmTh4gYKT8E56dY1nT9jB4f-1kwKITWVD2awL29EHIeJV1FWDMVbVxbC8ucooD-sPEE7OZikHC9GT8qPCVWhi4ygowWFse0L2Ou6gpdXMjJX1eo3jNl6oiImIl2J_opkU8klPZa22TyGhyCOg8jdlJod6OPUQgmuVe29vSLRMCkmKdSfooM_ABwG2AIwvS-CXZvN39q_FsB3y4A_Ll60nimOHOdueqIZcvsr8me6_mbgPbCo1ilxvMonUlpsHe8bxqkkvefrAkYq8lp6YvpgbTb03RI5UFK0cchoqiJ17SNGeTHZkHDvGcB9zyxFQKA4RoH1c9fCIi_FzUH-DPls-LTEMiWohtx9cJyuyE69vetjf1U3p_FbTBwyvQgLQWrdj5TwrH6_zCC2D-2eg38hTTq6TTs6VcPSuO-CKlZfDA5xwOKGkWCA4yz8TCLMur15EkFnb4YUB16HFEW4OxLodSvlRXzk5i5oDfkkKN0lfxE7Vjs-_m40?></g></svg>