<svg xmlns="http://www.w3.org/2000/svg" xmlns:xlink="http://www.w3.org/1999/xlink" contentStyleType="text/css" data-diagram-type="CLASS" height="321px" preserveAspectRatio="none" style="width:392px;height:321px;background:#FFFFFF;" version="1.1" viewBox="0 0 392 321" width="392px" zoomAndPan="magnify"><?plantuml 1.2026.3?><defs/><g><g class="title" data-source-line="5"><text fill="#000000" font-family="sans-serif" font-size="14" font-weight="700" lengthAdjust="spacing" textLength="235.5459" x="74.9033" y="23.5352">Side-panel layout state (current)</text></g><!--class PanelLayout--><g class="entity" data-qualified-name="PanelLayout" data-source-line="7" id="ent0002"><rect fill="#F1F1F1" height="130.4414" rx="2.5" ry="2.5" style="stroke:#181818;stroke-width:0.5;" width="172.9316" x="105.21" y="44.4883"/><ellipse cx="147.1612" cy="60.4883" fill="#ADD1B2" rx="11" ry="11" style="stroke:#181818;stroke-width:1;"/><path d="M149.6344,66.6313 Q149.0533,66.9302 148.4142,67.0796 Q147.775,67.229 147.0694,67.229 Q144.5626,67.229 143.2428,65.5771 Q141.9229,63.9253 141.9229,60.8042 Q141.9229,57.6748 143.2428,56.0229 Q144.5626,54.3711 147.0694,54.3711 Q147.775,54.3711 148.4225,54.5205 Q149.0699,54.6699 149.6344,54.9688 L149.6344,57.6914 Q149.0035,57.1104 148.41,56.8406 Q147.8165,56.5708 147.1856,56.5708 Q145.8409,56.5708 145.1561,57.6375 Q144.4713,58.7041 144.4713,60.8042 Q144.4713,62.896 145.1561,63.9626 Q145.8409,65.0293 147.1856,65.0293 Q147.8165,65.0293 148.41,64.7595 Q149.0035,64.4897 149.6344,63.9087 Z " fill="#000000"/><text fill="#000000" font-family="sans-serif" font-size="14" lengthAdjust="spacing" textLength="81.04" x="167.1504" y="65.7793">PanelLayout</text><line style="stroke:#181818;stroke-width:0.5;" x1="106.21" x2="277.1416" y1="76.4883" y2="76.4883"/><g data-visibility-modifier="PUBLIC_FIELD"><ellipse cx="116.21" cy="90.2324" fill="none" rx="3" ry="3" style="stroke:#038048;stroke-width:1;"/></g><text fill="#000000" font-family="sans-serif" font-size="14" lengthAdjust="spacing" textLength="136.7324" x="125.21" y="94.0234">left_collapsed : bool</text><g data-visibility-modifier="PUBLIC_FIELD"><ellipse cx="116.21" cy="106.7207" fill="none" rx="3" ry="3" style="stroke:#038048;stroke-width:1;"/></g><text fill="#000000" font-family="sans-serif" font-size="14" lengthAdjust="spacing" textLength="146.9316" x="125.21" y="110.5117">right_collapsed : bool</text><g data-visibility-modifier="PUBLIC_FIELD"><ellipse cx="116.21" cy="123.209" fill="none" rx="3" ry="3" style="stroke:#038048;stroke-width:1;"/></g><text fill="#000000" font-family="sans-serif" font-size="14" lengthAdjust="spacing" textLength="116.7168" x="125.21" y="127">sliver_width : f32</text><line style="stroke:#181818;stroke-width:0.5;" x1="106.21" x2="277.1416" y1="133.9531" y2="133.9531"/><g data-visibility-modifier="PUBLIC_METHOD"><ellipse cx="116.21" cy="147.6973" fill="#84BE84" rx="3" ry="3" style="stroke:#038048;stroke-width:1;"/></g><text fill="#000000" font-family="sans-serif" font-size="14" lengthAdjust="spacing" textLength="123.4707" x="125.21" y="151.4883">toggle_left() : void</text><g data-visibility-modifier="PUBLIC_METHOD"><ellipse cx="116.21" cy="164.1855" fill="#84BE84" rx="3" ry="3" style="stroke:#038048;stroke-width:1;"/></g><text fill="#000000" font-family="sans-serif" font-size="14" lengthAdjust="spacing" textLength="133.6699" x="125.21" y="167.9766">toggle_right() : void</text></g><g class="entity" data-qualified-name="GMN3" data-source-line="16" id="ent0004"><path d="M6,234.9283 L6,306.1705 A0,0 0 0 0 6,306.1705 L377.3525,306.1705 A0,0 0 0 0 377.3525,306.1705 L377.3525,244.9283 L367.3525,234.9283 L195.68,234.9283 L191.68,175.3083 L187.68,234.9283 L6,234.9283 A0,0 0 0 0 6,234.9283" fill="#FEFFDD" style="stroke:#181818;stroke-width:0.5;"/><path d="M367.3525,234.9283 L367.3525,244.9283 L377.3525,244.9283 L367.3525,234.9283" fill="#FEFFDD" style="stroke:#181818;stroke-width:0.5;"/><text fill="#000000" font-family="sans-serif" font-size="13" lengthAdjust="spacing" textLength="334.1406" x="12" y="252.4966">Initialised with sliver_width = 18.0 (&gt; 0). A collapsed</text><text fill="#000000" font-family="sans-serif" font-size="13" lengthAdjust="spacing" textLength="349.8638" x="12" y="267.8072">panel is rebuilt as a SidePanel.exact_width(sliver_width)</text><text fill="#000000" font-family="sans-serif" font-size="13" lengthAdjust="spacing" textLength="350.3525" x="12" y="283.1177">whose whole area is an expand button, so it can always</text><text fill="#000000" font-family="sans-serif" font-size="13" lengthAdjust="spacing" textLength="274.8599" x="12" y="298.4283">be brought back (OCL-PANEL-SLIVER-MIN).</text></g><?plantuml-src RP91Rzf048Nl_XLFkSHMiKdRIuNKAeXmG38uAhHgJsJj7V0gYnVjhd6YAl-zipOILEd5Xnc_RsRUsrlSAna_5ClqSRgQvsa-_Ltys2JHBUubkUfTPuIRcP44vsrRUJoAXdGkNath9-XgyZLPy0UQTXxBuc6Uhs65qX2DX5Nx-bp5h5XjvhysE0O2X2LKHcjnT2H7EEhMzHYdrOc9dPA-nZCTFPo1kFnwbbUYGKcmbD8BLoJ9x2RSC6kjfSQdJl7AqXo4QY39CbDYPyq1J-_lU89gM5fPuScD3rAc9qKTsR6prLYhChCkYxpoch1cR3fie7ijsy8gnDKmDucYIWldhl7u4m4VUd-sbpCcA8tHVQStwV-jmOtjuCO4ky-V-h8t-xscRK362TTFHidhHa-yTDwYg36yPMcyPmlCxdezrYqQvPNGAWpl54_wP-nNVFoItI7-Xhiam_GI1Ii7AvJZ8CfMQG_XEApWKZyXenTH-O4JNqCJrdQrSHI-x2k_1X4mdEgG9ygMTsr68Ntb-xY5xiIhOo7dNbhJXfTLYkePSJ7BpqzsdIz-ph-doyKgoI9YJBZxBm00?></g></svg>