<svg xmlns="http://www.w3.org/2000/svg" xmlns:xlink="http://www.w3.org/1999/xlink" contentStyleType="text/css" data-diagram-type="DESCRIPTION" height="1804px" preserveAspectRatio="none" style="width:1154px;height:1804px;background:#FFFFFF;" version="1.1" viewBox="0 0 1154 1804" width="1154px" zoomAndPan="magnify"><?plantuml 1.2026.3?><defs/><g><g class="title" data-source-line="53"><text fill="#000000" font-family="sans-serif" font-size="14" font-weight="700" lengthAdjust="spacing" textLength="272.3369" x="437.6388" y="23.5352">mdd view &#8212; diagram viewer (current)</text></g><!--cluster mdd-viewer--><g class="cluster" data-qualified-name="mdd-viewer" data-source-line="59" id="ent0003"><rect fill="none" height="559" rx="2.5" ry="2.5" style="stroke:#181818;stroke-width:1;" width="857.55" x="225.98" y="785.4483"/><text fill="#000000" font-family="sans-serif" font-size="14" font-weight="700" lengthAdjust="spacing" textLength="88.7783" x="610.3658" y="800.9834">mdd-viewer</text></g><!--entity View--><g class="entity" data-qualified-name="mdd-viewer.View" data-source-line="60" id="ent0004"><ellipse cx="367.1349" cy="1140.4473" fill="#F1F1F1" rx="119.7449" ry="26.349" style="stroke:#181818;stroke-width:0.5;"/><text fill="#000000" font-family="sans-serif" font-size="14" lengthAdjust="spacing" textLength="157.6641" x="288.3028" y="1136.2136">View rendered diagram</text><text fill="#000000" font-family="sans-serif" font-size="14" lengthAdjust="spacing" textLength="172.3271" x="280.9713" y="1152.7019">(shapes AND text legible)</text></g><!--entity Browse--><g class="entity" data-qualified-name="mdd-viewer.Browse" data-source-line="61" id="ent0005"><ellipse cx="929.7831" cy="946.4489" fill="#F1F1F1" rx="78.9031" ry="18.1806" style="stroke:#181818;stroke-width:0.5;"/><text fill="#000000" font-family="sans-serif" font-size="14" lengthAdjust="spacing" textLength="127.4697" x="866.0482" y="951.193">Browse model files</text></g><!--entity PanZoom--><g class="entity" data-qualified-name="mdd-viewer.PanZoom" data-source-line="62" id="ent0006"><ellipse cx="929.7844" cy="867.4445" fill="#F1F1F1" rx="112.8544" ry="25.9162" style="stroke:#181818;stroke-width:0.5;"/><text fill="#000000" font-family="sans-serif" font-size="14" lengthAdjust="spacing" textLength="146.6787" x="856.445" y="863.3713">Pan and zoom canvas</text><text fill="#000000" font-family="sans-serif" font-size="14" lengthAdjust="spacing" textLength="158.0811" x="850.7439" y="879.8596">(scroll zoom, drag pan)</text></g><!--entity Fisheye--><g class="entity" data-qualified-name="mdd-viewer.Fisheye" data-source-line="63" id="ent0007"><ellipse cx="929.784" cy="1020.4451" fill="#F1F1F1" rx="93.784" ry="21.1568" style="stroke:#181818;stroke-width:0.5;"/><text fill="#000000" font-family="sans-serif" font-size="14" lengthAdjust="spacing" textLength="161.7725" x="848.8977" y="1025.1892">Focus via center fisheye</text></g><!--entity Panels--><g class="entity" data-qualified-name="mdd-viewer.Panels" data-source-line="64" id="ent0008"><ellipse cx="929.7843" cy="1192.4471" fill="#F1F1F1" rx="113.6443" ry="25.1289" style="stroke:#181818;stroke-width:0.5;"/><text fill="#000000" font-family="sans-serif" font-size="14" lengthAdjust="spacing" textLength="205.3584" x="827.1051" y="1197.1913">Collapse / expand side panels</text></g><!--entity Trace--><g class="entity" data-qualified-name="mdd-viewer.Trace" data-source-line="65" id="ent0009"><ellipse cx="367.1282" cy="1234.4459" fill="#F1F1F1" rx="123.2882" ry="27.0576" style="stroke:#181818;stroke-width:0.5;"/><text fill="#000000" font-family="sans-serif" font-size="14" lengthAdjust="spacing" textLength="226.0098" x="254.1233" y="1239.1901">Inspect model IDs and trace links</text></g><!--entity ViewOcl--><g class="entity" data-qualified-name="mdd-viewer.ViewOcl" data-source-line="66" id="ent0010"><ellipse cx="367.1339" cy="952.4492" fill="#F1F1F1" rx="103.0539" ry="25.9009" style="stroke:#181818;stroke-width:0.5;"/><text fill="#000000" font-family="sans-serif" font-size="14" lengthAdjust="spacing" textLength="144.0742" x="295.0968" y="949.5444">View OCL constraints</text><text fill="#000000" font-family="sans-serif" font-size="14" lengthAdjust="spacing" textLength="133.2666" x="300.5006" y="966.0327">(source or diagram)</text></g><!--entity ViewDeploy--><g class="entity" data-qualified-name="mdd-viewer.ViewDeploy" data-source-line="67" id="ent0011"><ellipse cx="367.1329" cy="856.4508" fill="#F1F1F1" rx="125.1529" ry="35.5525" style="stroke:#181818;stroke-width:0.5;"/><text fill="#000000" font-family="sans-serif" font-size="14" lengthAdjust="spacing" textLength="183.8115" x="275.2271" y="847.9959">View deployment diagrams</text><text fill="#000000" font-family="sans-serif" font-size="14" lengthAdjust="spacing" textLength="185.6162" x="274.3248" y="864.4842">(dedicated DEPLOY section,</text><text fill="#000000" font-family="sans-serif" font-size="14" lengthAdjust="spacing" textLength="124.332" x="304.9669" y="880.9725">NOT parity-gated)</text></g><!--entity Themed--><g class="entity" data-qualified-name="mdd-viewer.Themed" data-source-line="68" id="ent0012"><ellipse cx="929.7815" cy="1290.4454" fill="#F1F1F1" rx="137.7515" ry="37.9072" style="stroke:#181818;stroke-width:0.5;"/><text fill="#000000" font-family="sans-serif" font-size="14" lengthAdjust="spacing" textLength="190.9482" x="834.3073" y="1278.8001">View themed viewer chrome</text><text fill="#000000" font-family="sans-serif" font-size="14" lengthAdjust="spacing" textLength="188.7813" x="835.3908" y="1295.2883">(Catppuccin, bundled fonts,</text><text fill="#000000" font-family="sans-serif" font-size="14" lengthAdjust="spacing" textLength="189.417" x="835.073" y="1311.7766">OS appearance auto-follow)</text></g><!--entity ViewSource--><g class="entity" data-qualified-name="mdd-viewer.ViewSource" data-source-line="69" id="ent0013"><ellipse cx="929.7824" cy="1104.4448" fill="#F1F1F1" rx="128.7324" ry="28.1465" style="stroke:#181818;stroke-width:0.5;"/><text fill="#000000" font-family="sans-serif" font-size="14" lengthAdjust="spacing" textLength="148.4355" x="855.5646" y="1097.1349">View PlantUML source</text><text fill="#000000" font-family="sans-serif" font-size="14" lengthAdjust="spacing" textLength="217.1641" x="821.2003" y="1113.6232">(Source toggle next to Diagram)</text></g><!--entity OpenRender--><g class="entity" data-qualified-name="mdd-viewer.OpenRender" data-source-line="70" id="ent0014"><ellipse cx="367.1305" cy="1040.4484" fill="#F1F1F1" rx="122.5505" ry="26.9101" style="stroke:#181818;stroke-width:0.5;"/><text fill="#000000" font-family="sans-serif" font-size="14" lengthAdjust="spacing" textLength="185.3359" x="274.4625" y="1038.3304">Open React mockup render</text><text fill="#000000" font-family="sans-serif" font-size="14" lengthAdjust="spacing" textLength="158.8535" x="287.7037" y="1054.8187">(button opens browser)</text></g><!--entity Dev--><g class="entity" data-qualified-name="Dev" data-source-line="57" id="ent0002"><ellipse cx="40.1592" cy="1292.9566" fill="#90EE90" rx="8" ry="8" style="stroke:#181818;stroke-width:0.5;"/><path d="M40.1592,1300.9566 L40.1592,1327.9566 M27.1592,1308.9566 L53.1592,1308.9566 M40.1592,1327.9566 L27.1592,1342.9566 M40.1592,1327.9566 L53.1592,1342.9566" fill="none" style="stroke:#181818;stroke-width:0.5;"/><text fill="#000000" font-family="sans-serif" font-size="14" lengthAdjust="spacing" textLength="68.3184" x="6" y="1357.9917">Developer</text><text fill="#000000" font-family="sans-serif" font-size="14" font-style="italic" lengthAdjust="spacing" textLength="56.6357" x="11.8413" y="1281.5034">&#171;added&#187;</text></g><g class="entity" data-qualified-name="GMN35" data-source-line="96" id="ent0036"><path d="M135.32,515.2083 L135.32,647.6927 L598.9484,647.6927 L598.9484,525.2083 L588.9484,515.2083 L135.32,515.2083" fill="#FEFFDD" style="stroke:#181818;stroke-width:0.5;"/><path d="M588.9484,515.2083 L588.9484,525.2083 L598.9484,525.2083 L588.9484,515.2083" fill="#FEFFDD" style="stroke:#181818;stroke-width:1;"/><text fill="#000000" font-family="sans-serif" font-size="13" lengthAdjust="spacing" textLength="428.8667" x="141.32" y="532.7766">Code (USE-OPEN-RENDER): the view-tab row adds an "Open render"</text><text fill="#000000" font-family="sans-serif" font-size="13" lengthAdjust="spacing" textLength="302.2881" x="141.32" y="548.0872">button (MddViewer::update). Enabled only when</text><text fill="#000000" font-family="sans-serif" font-size="13" lengthAdjust="spacing" textLength="399.5532" x="141.32" y="563.3977">MddViewer::selected_render_slug() is Some &#8212; the selection is a</text><text fill="#000000" font-family="sans-serif" font-size="13" lengthAdjust="spacing" textLength="442.6284" x="141.32" y="578.7083">ModelKind::Mockup whose mockups/src/mockups/&lt;slug&gt;.tsx exists.</text><text fill="#000000" font-family="sans-serif" font-size="13" lengthAdjust="spacing" textLength="408.6304" x="141.32" y="594.0188">Click runs open_mockup_render off-thread: mockup_server_up()</text><text fill="#000000" font-family="sans-serif" font-size="13" lengthAdjust="spacing" textLength="395.5161" x="141.32" y="609.3294">probes :4317, spawns npm run dev in mockups/ if down, then</text><text fill="#000000" font-family="sans-serif" font-size="13" lengthAdjust="spacing" textLength="345.1665" x="141.32" y="624.6399">open_in_browser opens /mockup/&lt;slug&gt;. Realized by</text><text fill="#000000" font-family="sans-serif" font-size="13" lengthAdjust="spacing" textLength="344.2651" x="141.32" y="639.9505">SEQ-OPEN-RENDER; launcher CMP-MOCKUP-LAUNCH.</text></g><g class="entity" data-qualified-name="GMN38" data-source-line="107" id="ent0039"><path d="M207.79,362.8683 L207.79,480.0421 L526.476,480.0421 L526.476,372.8683 L516.476,362.8683 L207.79,362.8683" fill="#FEFFDD" style="stroke:#181818;stroke-width:0.5;"/><path d="M516.476,362.8683 L516.476,372.8683 L526.476,372.8683 L516.476,362.8683" fill="#FEFFDD" style="stroke:#181818;stroke-width:1;"/><text fill="#000000" font-family="sans-serif" font-size="13" lengthAdjust="spacing" textLength="284.9971" x="213.79" y="380.4366">Code (USE-VIEW-OCL): when the selected file</text><text fill="#000000" font-family="sans-serif" font-size="13" lengthAdjust="spacing" textLength="289.4912" x="213.79" y="395.7472">kind is Constraint, MddViewer::ocl_ui shows a</text><text fill="#000000" font-family="sans-serif" font-size="13" lengthAdjust="spacing" textLength="271.1528" x="213.79" y="411.0577">Source | Diagram toggle. Source = raw .ocl</text><text fill="#000000" font-family="sans-serif" font-size="13" lengthAdjust="spacing" textLength="266.0811" x="213.79" y="426.3683">text (read-only, @id/context/inv colored);</text><text fill="#000000" font-family="sans-serif" font-size="13" lengthAdjust="spacing" textLength="274.3203" x="213.79" y="441.6788">Diagram = the synthesized constraints SVG</text><text fill="#000000" font-family="sans-serif" font-size="13" lengthAdjust="spacing" textLength="297.686" x="213.79" y="456.9894">(mdd_render::render_ocl_diagrams) painted via</text><text fill="#000000" font-family="sans-serif" font-size="13" lengthAdjust="spacing" textLength="265.1924" x="213.79" y="472.2999">paint_canvas. Realized by SEQ-VIEW-OCL.</text></g><g class="entity" data-qualified-name="GMN41" data-source-line="117" id="ent0042"><path d="M740.82,134.5183 L740.82,236.3816 L1118.736,236.3816 L1118.736,144.5183 L1108.736,134.5183 L740.82,134.5183" fill="#FEFFDD" style="stroke:#181818;stroke-width:0.5;"/><path d="M1108.736,134.5183 L1108.736,144.5183 L1118.736,144.5183 L1108.736,134.5183" fill="#FEFFDD" style="stroke:#181818;stroke-width:1;"/><text fill="#000000" font-family="sans-serif" font-size="13" lengthAdjust="spacing" textLength="316.6338" x="746.82" y="152.0866">Code (USE-FISHEYE-FOCUS): the canvas paints the</text><text fill="#000000" font-family="sans-serif" font-size="13" lengthAdjust="spacing" textLength="342.1387" x="746.82" y="167.3972">rendered texture through a center-fixed fisheye mesh</text><text fill="#000000" font-family="sans-serif" font-size="13" lengthAdjust="spacing" textLength="356.916" x="746.82" y="182.7077">(CanvasView::fisheye_mesh / warp) &#8212; the centre bulges,</text><text fill="#000000" font-family="sans-serif" font-size="13" lengthAdjust="spacing" textLength="354.3262" x="746.82" y="198.0183">content compresses toward the edges, corners stay put.</text><text fill="#000000" font-family="sans-serif" font-size="13" lengthAdjust="spacing" textLength="346.9375" x="746.82" y="213.3288">Layered on the scroll-at-cursor base zoom; drag pans.</text><text fill="#000000" font-family="sans-serif" font-size="13" lengthAdjust="spacing" textLength="221.0381" x="746.82" y="228.6394">Realized by SEQ-CANVAS-FISHEYE.</text></g><g class="entity" data-qualified-name="GMN44" data-source-line="126" id="ent0045"><path d="M750.16,43.4883 L750.16,99.4199 L1109.4076,99.4199 L1109.4076,53.4883 L1099.4076,43.4883 L750.16,43.4883" fill="#FEFFDD" style="stroke:#181818;stroke-width:0.5;"/><path d="M1099.4076,43.4883 L1099.4076,53.4883 L1109.4076,53.4883 L1099.4076,43.4883" fill="#FEFFDD" style="stroke:#181818;stroke-width:1;"/><text fill="#000000" font-family="sans-serif" font-size="13" lengthAdjust="spacing" textLength="338.2476" x="756.16" y="61.0566">The toolbar has no Reset / Zoom + / Zoom - buttons</text><text fill="#000000" font-family="sans-serif" font-size="13" lengthAdjust="spacing" textLength="325.0127" x="756.16" y="76.3672">(removed). Zoom is scroll-only at the cursor; pan is</text><text fill="#000000" font-family="sans-serif" font-size="13" lengthAdjust="spacing" textLength="318.2715" x="756.16" y="91.6777">drag-only. A small hint label replaces the buttons.</text></g><g class="entity" data-qualified-name="GMN47" data-source-line="132" id="ent0048"><path d="M742.54,500.1783 L742.54,586.731 L1117.0156,586.731 L1117.0156,510.1783 L1107.0156,500.1783 L742.54,500.1783" fill="#FEFFDD" style="stroke:#181818;stroke-width:0.5;"/><path d="M1107.0156,500.1783 L1107.0156,510.1783 L1117.0156,510.1783 L1107.0156,500.1783" fill="#FEFFDD" style="stroke:#181818;stroke-width:1;"/><text fill="#000000" font-family="sans-serif" font-size="13" lengthAdjust="spacing" textLength="353.4756" x="748.54" y="517.7466">Code (USE-TOGGLE-PANELS): each SidePanel renders an</text><text fill="#000000" font-family="sans-serif" font-size="13" lengthAdjust="spacing" textLength="303.0942" x="748.54" y="533.0572">inner-edge chevron; clicking it sets PanelLayout</text><text fill="#000000" font-family="sans-serif" font-size="13" lengthAdjust="spacing" textLength="316.8813" x="748.54" y="548.3677">collapsed and the panel shrinks to an exact-width</text><text fill="#000000" font-family="sans-serif" font-size="13" lengthAdjust="spacing" textLength="319.3696" x="748.54" y="563.6783">sliver button that re-expands on click. Realized by</text><text fill="#000000" font-family="sans-serif" font-size="13" lengthAdjust="spacing" textLength="146.1992" x="748.54" y="578.9888">SEQ-PANEL-COLLAPSE.</text></g><g class="entity" data-qualified-name="GMN50" data-source-line="140" id="ent0051"><path d="M171.62,683.1783 L171.62,769.731 L562.6439,769.731 L562.6439,693.1783 L552.6439,683.1783 L171.62,683.1783" fill="#FEFFDD" style="stroke:#181818;stroke-width:0.5;"/><path d="M552.6439,683.1783 L552.6439,693.1783 L562.6439,693.1783 L552.6439,683.1783" fill="#FEFFDD" style="stroke:#181818;stroke-width:1;"/><text fill="#000000" font-family="sans-serif" font-size="13" lengthAdjust="spacing" textLength="340.6787" x="177.62" y="700.7466">Reads pre-rendered SVGs from .mdd/rendered/. If no</text><text fill="#000000" font-family="sans-serif" font-size="13" lengthAdjust="spacing" textLength="329.4561" x="177.62" y="716.0572">models are mapped/rendered the canvas shows "No</text><text fill="#000000" font-family="sans-serif" font-size="13" lengthAdjust="spacing" textLength="297.5718" x="177.62" y="731.3677">rendered output". Text rendering is realized by</text><text fill="#000000" font-family="sans-serif" font-size="13" lengthAdjust="spacing" textLength="370.0239" x="177.62" y="746.6783">SEQ-RENDER-DIAGRAM-PAGE, which consults a populated</text><text fill="#000000" font-family="sans-serif" font-size="13" lengthAdjust="spacing" textLength="367.1548" x="177.62" y="761.9888">font database (DOM-FONT-DATABASE) before rasterizing.</text></g><g class="entity" data-qualified-name="GMN53" data-source-line="148" id="ent0054"><path d="M719.95,621.5583 L719.95,769.3532 L1139.6146,769.3532 L1139.6146,631.5583 L1129.6146,621.5583 L719.95,621.5583" fill="#FEFFDD" style="stroke:#181818;stroke-width:0.5;"/><path d="M1129.6146,621.5583 L1129.6146,631.5583 L1139.6146,631.5583 L1129.6146,621.5583" fill="#FEFFDD" style="stroke:#181818;stroke-width:1;"/><text fill="#000000" font-family="sans-serif" font-size="13" lengthAdjust="spacing" textLength="398.6646" x="725.95" y="639.1266">Code (USE-VIEWER-THEMED): crates/mdd-viewer/src/theme.rs</text><text fill="#000000" font-family="sans-serif" font-size="13" lengthAdjust="spacing" textLength="360.9341" x="725.95" y="654.4372">bundles assets/fonts/Inter-Regular.ttf, Inter-Medium.ttf,</text><text fill="#000000" font-family="sans-serif" font-size="13" lengthAdjust="spacing" textLength="345.4712" x="725.95" y="669.7477">and JetBrainsMono-Regular.ttf via include_bytes!. run()</text><text fill="#000000" font-family="sans-serif" font-size="13" lengthAdjust="spacing" textLength="349.4258" x="725.95" y="685.0583">registers them once through eframe's CreationContext.</text><text fill="#000000" font-family="sans-serif" font-size="13" lengthAdjust="spacing" textLength="373.5215" x="725.95" y="700.3688">MddViewer::update's FIRST call is theme::apply_theme(ctx),</text><text fill="#000000" font-family="sans-serif" font-size="13" lengthAdjust="spacing" textLength="251.3481" x="725.95" y="715.6794">which queries dark_light::detect(), picks</text><text fill="#000000" font-family="sans-serif" font-size="13" lengthAdjust="spacing" textLength="332.522" x="725.95" y="730.9899">catppuccin_egui::MOCHA / LATTE, and then mutates</text><text fill="#000000" font-family="sans-serif" font-size="13" lengthAdjust="spacing" textLength="365.917" x="725.95" y="746.3005">style.spacing.item_spacing and widget rounding. Realized</text><text fill="#000000" font-family="sans-serif" font-size="13" lengthAdjust="spacing" textLength="347.9087" x="725.95" y="761.611">by SEQ-APPLY-THEME, owned by CMP-VIEWER-THEME.</text></g><g class="entity" data-qualified-name="GMN56" data-source-line="160" id="ent0057"><path d="M182.36,149.2483 L182.36,327.6643 L551.9035,327.6643 L551.9035,159.2483 L541.9035,149.2483 L182.36,149.2483" fill="#FEFFDD" style="stroke:#181818;stroke-width:0.5;"/><path d="M541.9035,149.2483 L541.9035,159.2483 L551.9035,159.2483 L541.9035,149.2483" fill="#FEFFDD" style="stroke:#181818;stroke-width:1;"/><text fill="#000000" font-family="sans-serif" font-size="13" lengthAdjust="spacing" textLength="314.5518" x="188.36" y="166.8166">Code (USE-VIEW-DEPLOY): MddViewer::new() calls</text><text fill="#000000" font-family="sans-serif" font-size="13" lengthAdjust="spacing" textLength="301.5073" x="188.36" y="182.1272">project.deploy_files() as a third source; update()</text><text fill="#000000" font-family="sans-serif" font-size="13" lengthAdjust="spacing" textLength="317.2178" x="188.36" y="197.4377">builds deploy_tree and renders a "DEPLOY" header</text><text fill="#000000" font-family="sans-serif" font-size="13" lengthAdjust="spacing" textLength="297.2861" x="188.36" y="212.7483">("/mdd-deploy &#183; utility, not parity-gated") after</text><text fill="#000000" font-family="sans-serif" font-size="13" lengthAdjust="spacing" textLength="319.5474" x="188.36" y="228.0588">the rail-mode match, so it shows in Directory AND</text><text fill="#000000" font-family="sans-serif" font-size="13" lengthAdjust="spacing" textLength="325.1143" x="188.36" y="243.3694">By-cycle. Clicking a leaf -&gt; lookup_file -&gt; load_file</text><text fill="#000000" font-family="sans-serif" font-size="13" lengthAdjust="spacing" textLength="348.5435" x="188.36" y="258.6799">paints .mdd/rendered/deploy/&lt;rel&gt;.svg on the shared</text><text fill="#000000" font-family="sans-serif" font-size="13" lengthAdjust="spacing" textLength="338.8442" x="188.36" y="273.9905">canvas (same placeholder as any unrendered model if</text><text fill="#000000" font-family="sans-serif" font-size="13" lengthAdjust="spacing" textLength="250.9102" x="188.36" y="289.301">the SVG is absent). deploy_files() reuses</text><text fill="#000000" font-family="sans-serif" font-size="13" lengthAdjust="spacing" textLength="331.5889" x="188.36" y="304.6116">render_sources(RenderTree::Deploy) and is NEVER in</text><text fill="#000000" font-family="sans-serif" font-size="13" lengthAdjust="spacing" textLength="296.5688" x="188.36" y="319.9221">ModelRegistry. Realized by SEQ-VIEW-DEPLOY.</text></g><g class="entity" data-qualified-name="GMN59" data-source-line="174" id="ent0060"><path d="M722.44,271.5883 L722.44,465.3148 L1137.1216,465.3148 L1137.1216,281.5883 L1127.1216,271.5883 L722.44,271.5883" fill="#FEFFDD" style="stroke:#181818;stroke-width:0.5;"/><path d="M1127.1216,271.5883 L1127.1216,281.5883 L1137.1216,281.5883 L1127.1216,271.5883" fill="#FEFFDD" style="stroke:#181818;stroke-width:1;"/><text fill="#000000" font-family="sans-serif" font-size="13" lengthAdjust="spacing" textLength="361.2388" x="728.44" y="289.1566">Code (USE-VIEW-PUML-SOURCE): the CentralPanel toggle</text><text fill="#000000" font-family="sans-serif" font-size="13" lengthAdjust="spacing" textLength="331.3413" x="728.44" y="304.4672">row is Diagram | Source | Diff. Clicking "Source" sets</text><text fill="#000000" font-family="sans-serif" font-size="13" lengthAdjust="spacing" textLength="245.3369" x="728.44" y="319.7777">self.view = View::Source; update() calls</text><text fill="#000000" font-family="sans-serif" font-size="13" lengthAdjust="spacing" textLength="353.793" x="728.44" y="335.0883">MddViewer::source_ui (returning before the OCL/canvas</text><text fill="#000000" font-family="sans-serif" font-size="13" lengthAdjust="spacing" textLength="331.4111" x="728.44" y="350.3988">branch). source_ui reads the selected file's text once</text><text fill="#000000" font-family="sans-serif" font-size="13" lengthAdjust="spacing" textLength="318.8745" x="728.44" y="365.7094">into SourceView { loaded, source } and paints it via</text><text fill="#000000" font-family="sans-serif" font-size="13" lengthAdjust="spacing" textLength="351.6221" x="728.44" y="381.0199">egui::ScrollArea::both as read-only monospace &#8212; `' @`</text><text fill="#000000" font-family="sans-serif" font-size="13" lengthAdjust="spacing" textLength="343.6431" x="728.44" y="396.3305">marker lines yellow, `@start`/`@end` directives blue,</text><text fill="#000000" font-family="sans-serif" font-size="13" lengthAdjust="spacing" textLength="369.332" x="728.44" y="411.641">other `'` comments dimmed. No DiagramPage / usvg call,</text><text fill="#000000" font-family="sans-serif" font-size="13" lengthAdjust="spacing" textLength="209.9106" x="728.44" y="426.9516">so it works with no rendered SVG</text><text fill="#000000" font-family="sans-serif" font-size="13" lengthAdjust="spacing" textLength="299.1841" x="728.44" y="442.2621">(OCL-PUML-SOURCE-NO-RENDER). Realized by</text><text fill="#000000" font-family="sans-serif" font-size="13" lengthAdjust="spacing" textLength="393.6816" x="728.44" y="457.5727">SEQ-VIEW-PUML-SOURCE; state in DOM-PUML-SOURCE-VIEW.</text></g><!--link Dev to View--><g class="link" data-entity-1="ent0002" data-entity-2="ent0004" data-link-type="dependency" data-source-line="73" id="lnk15"><path d="M65.3,1267.5183 C81.53,1240.6083 105.41,1208.4983 135.32,1189.4483 C169.96,1167.3883 206.9472,1156.1075 246.3372,1149.3175" fill="none" id="Dev-to-View" style="stroke:#181818;stroke-width:1;"/><polygon fill="#181818" points="252.25,1148.2983,242.7013,1145.8853,247.3227,1149.1476,244.0603,1153.769,252.25,1148.2983" style="stroke:#181818;stroke-width:1;"/></g><!--link Dev to Browse--><g class="link" data-entity-1="ent0002" data-entity-2="ent0005" data-link-type="dependency" data-source-line="74" id="lnk16"><path d="M74.57,1330.6283 C83.98,1334.5083 94.37,1338.1883 104.32,1340.4483 C231.38,1369.3783 594.33,1458.9783 689.95,1370.4483 C753.57,1311.5483 661.43,1045.4283 719.95,981.4483 C754.31,943.8883 806.6225,936.5446 852.9025,937.8846" fill="none" id="Dev-to-Browse" style="stroke:#181818;stroke-width:1;"/><polygon fill="#181818" points="858.9,938.0583,850.0195,933.7995,853.9021,937.9136,849.788,941.7961,858.9,938.0583" style="stroke:#181818;stroke-width:1;"/></g><!--link Dev to PanZoom--><g class="link" data-entity-1="ent0002" data-entity-2="ent0006" data-link-type="dependency" data-source-line="75" id="lnk17"><path d="M74.8,1318.1783 C195.17,1330.7083 601.98,1365.9383 689.95,1280.4483 C749.1,1222.9583 665.29,972.2383 719.95,910.4483 C744.23,883.0083 775.0217,871.2163 810.9417,866.0263" fill="none" id="Dev-to-PanZoom" style="stroke:#181818;stroke-width:1;"/><polygon fill="#181818" points="816.88,865.1683,807.4005,862.4964,811.9314,865.8833,808.5445,870.4142,816.88,865.1683" style="stroke:#181818;stroke-width:1;"/></g><!--link Dev to Fisheye--><g class="link" data-entity-1="ent0002" data-entity-2="ent0007" data-link-type="dependency" data-source-line="76" id="lnk18"><path d="M59.78,1361.4383 C69.92,1380.4883 84.52,1400.5483 104.32,1411.4483 C218.32,1474.2483 594.17,1506.5783 689.95,1418.4483 C749.02,1364.0983 666,1117.8983 719.95,1058.4483 C749.85,1025.4983 792.0148,1015.4179 834.5448,1013.7179" fill="none" id="Dev-to-Fisheye" style="stroke:#181818;stroke-width:1;"/><polygon fill="#181818" points="840.54,1013.4783,831.3874,1009.8409,835.544,1013.678,831.7069,1017.8345,840.54,1013.4783" style="stroke:#181818;stroke-width:1;"/></g><!--link Dev to Panels--><g class="link" data-entity-1="ent0002" data-entity-2="ent0008" data-link-type="dependency" data-source-line="77" id="lnk19"><path d="M46.78,1361.2683 C55.39,1424.0083 74.1,1530.1783 104.32,1553.4483 C207.43,1632.8583 593.7,1641.0483 689.95,1553.4483 C742.44,1505.6783 672.56,1288.2983 719.95,1235.4483 C744.16,1208.4383 774.5056,1196.6928 810.0656,1191.3928" fill="none" id="Dev-to-Panels" style="stroke:#181818;stroke-width:1;"/><polygon fill="#181818" points="816,1190.5083,806.5087,1187.8787,811.0546,1191.2454,807.688,1195.7913,816,1190.5083" style="stroke:#181818;stroke-width:1;"/></g><!--link Dev to Trace--><g class="link" data-entity-1="ent0002" data-entity-2="ent0009" data-link-type="dependency" data-source-line="78" id="lnk20"><path d="M74.5,1299.3683 C84,1295.4383 94.45,1291.4683 104.32,1288.4483 C157.02,1272.3283 211.2589,1260.6231 260.5989,1251.5531" fill="none" id="Dev-to-Trace" style="stroke:#181818;stroke-width:1;"/><polygon fill="#181818" points="266.5,1250.4683,256.9251,1248.1614,261.5824,1251.3723,258.3715,1256.0295,266.5,1250.4683" style="stroke:#181818;stroke-width:1;"/></g><!--link Dev to ViewOcl--><g class="link" data-entity-1="ent0002" data-entity-2="ent0010" data-link-type="dependency" data-source-line="79" id="lnk21"><path d="M40.74,1267.7283 C42.81,1197.8383 57.63,1066.7783 135.32,996.4483 C170.02,965.0383 214.0115,953.4552 258.5915,949.6752" fill="none" id="Dev-to-ViewOcl" style="stroke:#181818;stroke-width:1;"/><polygon fill="#181818" points="264.57,949.1683,255.2642,945.943,259.5879,949.5907,255.9401,953.9144,264.57,949.1683" style="stroke:#181818;stroke-width:1;"/></g><!--link Dev to ViewDeploy--><g class="link" data-entity-1="ent0002" data-entity-2="ent0011" data-link-type="dependency" data-source-line="80" id="lnk22"><path d="M45.51,1267.4883 C55.4,1171.4383 82.91,957.5083 135.32,909.4483 C164.49,882.7083 198.4531,869.6858 236.8431,862.4758" fill="none" id="Dev-to-ViewDeploy" style="stroke:#181818;stroke-width:1;"/><polygon fill="#181818" points="242.74,861.3683,233.1563,859.0983,237.8259,862.2912,234.633,866.9608,242.74,861.3683" style="stroke:#181818;stroke-width:1;"/></g><!--link Dev to Themed--><g class="link" data-entity-1="ent0002" data-entity-2="ent0012" data-link-type="dependency" data-source-line="81" id="lnk23"><path d="M43.68,1361.2283 C48.97,1439.5083 64.28,1591.7483 104.32,1624.4483 C305.9,1789.1083 458.48,1743.4883 689.95,1624.4483 C812.93,1561.2083 884.4976,1407.6012 913.0076,1334.2012" fill="none" id="Dev-to-Themed" style="stroke:#181818;stroke-width:1;"/><polygon fill="#181818" points="915.18,1328.6083,908.1928,1335.5494,913.3697,1333.269,915.65,1338.4459,915.18,1328.6083" style="stroke:#181818;stroke-width:1;"/></g><!--link Dev to ViewSource--><g class="link" data-entity-1="ent0002" data-entity-2="ent0013" data-link-type="dependency" data-source-line="82" id="lnk24"><path d="M44.63,1361.3683 C50.32,1400.9583 65.25,1455.3983 104.32,1482.4483 C211.31,1556.5383 593.88,1570.2483 689.95,1482.4483 C744.79,1432.3283 670.72,1205.1083 719.95,1149.4483 C740.65,1126.0483 764.4811,1114.4717 795.0111,1107.7317" fill="none" id="Dev-to-ViewSource" style="stroke:#181818;stroke-width:1;"/><polygon fill="#181818" points="800.87,1106.4383,791.2193,1104.4725,795.9876,1107.5162,792.9439,1112.2844,800.87,1106.4383" style="stroke:#181818;stroke-width:1;"/></g><!--link Dev to OpenRender--><g class="link" data-entity-1="ent0002" data-entity-2="ent0014" data-link-type="dependency" data-source-line="83" id="lnk25"><path d="M48.78,1267.5683 C59.38,1217.7183 83.47,1140.1683 135.32,1096.4483 C166.92,1069.8083 203.2772,1056.5676 242.9872,1048.9576" fill="none" id="Dev-to-OpenRender" style="stroke:#181818;stroke-width:1;"/><polygon fill="#181818" points="248.88,1047.8283,239.288,1045.5937,243.9694,1048.7694,240.7937,1053.4507,248.88,1047.8283" style="stroke:#181818;stroke-width:1;"/></g><!--link View to Browse--><g class="link" data-entity-1="ent0004" data-entity-2="ent0005" data-link-type="dependency" data-source-line="85" id="lnk26"><path d="M473.54,1128.0683 C554.69,1116.5383 658.2,1096.8283 689.95,1068.4483 C720.44,1041.1983 688.73,1007.8783 719.95,981.4483 C756.56,950.4583 804.1212,942.0877 847.8212,941.2177" fill="none" id="View-to-Browse" style="stroke:#181818;stroke-width:1;stroke-dasharray:7,7;"/><polygon fill="#181818" points="853.82,941.0983,844.7422,937.2782,848.821,941.1978,844.9014,945.2766,853.82,941.0983" style="stroke:#181818;stroke-width:1;"/><text fill="#000000" font-family="sans-serif" font-size="13" lengthAdjust="spacing" textLength="59.3569" x="629.95" y="1065.0166">&#171;include&#187;</text></g><!--link View to PanZoom--><g class="link" data-entity-1="ent0004" data-entity-2="ent0006" data-link-type="dependency" data-source-line="86" id="lnk27"><path d="M476.11,1129.1383 C516.95,1121.1683 562.35,1107.5883 598.95,1084.4483 C616.84,1073.1383 612.57,1060.8683 628.95,1047.4483 C652.63,1028.0483 670.63,1039.1983 689.95,1015.4483 C720.58,977.8083 684.36,943.4583 719.95,910.4483 C746,886.2883 775.9586,875.1664 810.6386,869.4964" fill="none" id="View-to-PanZoom" style="stroke:#181818;stroke-width:1;stroke-dasharray:7,7;"/><polygon fill="#181818" points="816.56,868.5283,807.0325,866.0329,811.6255,869.335,808.3233,873.928,816.56,868.5283" style="stroke:#181818;stroke-width:1;"/><text fill="#000000" font-family="sans-serif" font-size="13" lengthAdjust="spacing" textLength="57.1924" x="630.95" y="1012.0166">&#171;extend&#187;</text></g><!--link View to Fisheye--><g class="link" data-entity-1="ent0004" data-entity-2="ent0007" data-link-type="dependency" data-source-line="87" id="lnk28"><path d="M452.65,1159.2183 C522.38,1169.7383 620.73,1172.6183 689.95,1125.4483 C716.91,1107.0783 694.27,1078.5783 719.95,1058.4483 C752.5,1032.9283 790.6862,1023.0489 830.0062,1019.3589" fill="none" id="View-to-Fisheye" style="stroke:#181818;stroke-width:1;stroke-dasharray:7,7;"/><polygon fill="#181818" points="835.98,1018.7983,826.6456,1015.6567,831.0019,1019.2655,827.3931,1023.6217,835.98,1018.7983" style="stroke:#181818;stroke-width:1;"/><text fill="#000000" font-family="sans-serif" font-size="13" lengthAdjust="spacing" textLength="57.1924" x="630.95" y="1122.0166">&#171;extend&#187;</text></g><!--link View to Panels--><g class="link" data-entity-1="ent0004" data-entity-2="ent0008" data-link-type="dependency" data-source-line="88" id="lnk29"><path d="M475.37,1152.1383 C515.56,1159.3283 560.71,1170.8883 598.95,1189.4483 C614.56,1197.0283 612.63,1208.5483 628.95,1214.4483 C654.44,1223.6783 662.86,1215.6983 689.95,1214.4483 C735.29,1212.3683 779.3398,1208.6652 821.8498,1204.4152" fill="none" id="View-to-Panels" style="stroke:#181818;stroke-width:1;stroke-dasharray:7,7;"/><polygon fill="#181818" points="827.82,1203.8183,818.4667,1200.7334,822.8448,1204.3157,819.2626,1208.6938,827.82,1203.8183" style="stroke:#181818;stroke-width:1;"/><text fill="#000000" font-family="sans-serif" font-size="13" lengthAdjust="spacing" textLength="57.1924" x="630.95" y="1211.0166">&#171;extend&#187;</text></g><!--link View to Themed--><g class="link" data-entity-1="ent0004" data-entity-2="ent0012" data-link-type="dependency" data-source-line="89" id="lnk30"><path d="M484.7,1145.8383 C524,1152.4283 566.17,1165.2283 598.95,1189.4483 C621.03,1205.7683 606.44,1227.7383 628.95,1243.4483 C676.03,1276.3383 731.4005,1289.243 786.3305,1293.793" fill="none" id="View-to-Themed" style="stroke:#181818;stroke-width:1;stroke-dasharray:7,7;"/><polygon fill="#181818" points="792.31,1294.2883,783.6709,1289.559,787.3271,1293.8755,783.0105,1297.5317,792.31,1294.2883" style="stroke:#181818;stroke-width:1;"/><text fill="#000000" font-family="sans-serif" font-size="13" lengthAdjust="spacing" textLength="59.3569" x="629.95" y="1240.0166">&#171;include&#187;</text></g><!--link View to ViewSource--><g class="link" data-entity-1="ent0004" data-entity-2="ent0013" data-link-type="dependency" data-source-line="90" id="lnk31"><path d="M447.69,1160.3283 C528.6,1178.8583 647.89,1201.0583 689.95,1182.4483 C708.07,1174.4383 702.77,1159.3483 719.95,1149.4483 C747.91,1133.3483 775.1096,1124.2284 806.5896,1117.5784" fill="none" id="View-to-ViewSource" style="stroke:#181818;stroke-width:1;stroke-dasharray:7,7;"/><polygon fill="#181818" points="812.46,1116.3383,802.8276,1114.2848,807.568,1117.3717,804.4811,1122.1121,812.46,1116.3383" style="stroke:#181818;stroke-width:1;"/><text fill="#000000" font-family="sans-serif" font-size="13" lengthAdjust="spacing" textLength="57.1924" x="630.95" y="1179.0166">&#171;extend&#187;</text></g><!--link ViewOcl to PanZoom--><g class="link" data-entity-1="ent0010" data-entity-2="ent0006" data-link-type="dependency" data-source-line="91" id="lnk32"><path d="M456.35,939.0783 C559.35,923.4583 723.0778,898.6378 828.5978,882.6378" fill="none" id="ViewOcl-to-PanZoom" style="stroke:#181818;stroke-width:1;stroke-dasharray:7,7;"/><polygon fill="#181818" points="834.53,881.7383,825.032,879.1327,829.5865,882.4879,826.2314,887.0423,834.53,881.7383" style="stroke:#181818;stroke-width:1;"/><text fill="#000000" font-family="sans-serif" font-size="13" lengthAdjust="spacing" textLength="57.1924" x="630.95" y="901.4366">&#171;extend&#187;</text></g><!--link ViewDeploy to PanZoom--><g class="link" data-entity-1="ent0011" data-entity-2="ent0006" data-link-type="dependency" data-source-line="92" id="lnk33"><path d="M492.21,858.8883 C589.29,860.7883 717.1112,863.3006 810.9212,865.1406" fill="none" id="ViewDeploy-to-PanZoom" style="stroke:#181818;stroke-width:1;stroke-dasharray:7,7;"/><polygon fill="#181818" points="816.92,865.2583,808.0002,861.0826,811.921,865.1602,807.8433,869.081,816.92,865.2583" style="stroke:#181818;stroke-width:1;"/><text fill="#000000" font-family="sans-serif" font-size="13" lengthAdjust="spacing" textLength="57.1924" x="630.95" y="858.1866">&#171;extend&#187;</text></g><!--link OpenRender to Browse--><g class="link" data-entity-1="ent0014" data-entity-2="ent0005" data-link-type="dependency" data-source-line="93" id="lnk34"><path d="M458.48,1022.1283 C508.61,1012.2083 572.12,1000.0683 628.95,990.4483 C708.32,977.0283 793.966,964.7558 854.826,956.3858" fill="none" id="OpenRender-to-Browse" style="stroke:#181818;stroke-width:1;stroke-dasharray:7,7;"/><polygon fill="#181818" points="860.77,955.5683,851.3089,952.8318,855.8166,956.2495,852.3989,960.7572,860.77,955.5683" style="stroke:#181818;stroke-width:1;"/><text fill="#000000" font-family="sans-serif" font-size="13" lengthAdjust="spacing" textLength="59.3569" x="629.95" y="977.6966">&#171;include&#187;</text></g><!--link OpenRender to GMN35--><g class="link" data-entity-1="ent0014" data-entity-2="ent0036" data-link-type="association" data-source-line="96" id="lnk37"><path d="M248.22,1047.4883 C192.87,1043.4783 133.09,1026.7683 104.82,977.9483 C71.96,921.2283 71.96,739.6783 104.82,682.9483 C112.83,669.1183 123.09,657.1583 134.88,646.8183" fill="none" id="OpenRender-GMN35" style="stroke:#181818;stroke-width:1;stroke-dasharray:7,7;"/></g><!--link ViewOcl to GMN38--><g class="link" data-entity-1="ent0010" data-entity-2="ent0039" data-link-type="association" data-source-line="107" id="lnk40"><path d="M269.59,961.2983 C208.98,960.6383 136.73,947.0583 104.82,891.9483 C83.83,855.7083 83.83,551.1983 104.82,514.9483 C126.75,477.0883 165.95,454.3083 207.48,440.6883" fill="none" id="ViewOcl-GMN38" style="stroke:#181818;stroke-width:1;stroke-dasharray:7,7;"/></g><!--link Fisheye to GMN41--><g class="link" data-entity-1="ent0007" data-entity-2="ent0042" data-link-type="association" data-source-line="117" id="lnk43"><path d="M844.28,1029.5283 C781.81,1030.8383 701.05,1020.2883 659.45,964.9483 C613.18,903.4083 614.05,334.1483 659.45,271.9483 C679.64,244.2883 708.79,225.2783 740.55,212.2483" fill="none" id="Fisheye-GMN41" style="stroke:#181818;stroke-width:1;stroke-dasharray:7,7;"/></g><!--link PanZoom to GMN44--><g class="link" data-entity-1="ent0006" data-entity-2="ent0045" data-link-type="association" data-source-line="126" id="lnk46"><path d="M824.16,857.8883 C765.28,846.5283 696.54,821.9483 659.45,768.9483 C619.05,711.2383 617.12,191.2583 659.45,134.9483 C681.54,105.5683 714.45,88.0583 749.78,77.9483" fill="none" id="PanZoom-GMN44" style="stroke:#181818;stroke-width:1;stroke-dasharray:7,7;"/></g><!--link Panels to GMN47--><g class="link" data-entity-1="ent0008" data-entity-2="ent0048" data-link-type="association" data-source-line="132" id="lnk49"><path d="M820.28,1199.4783 C762.41,1196.6383 695.98,1181.5483 659.45,1132.9483 C591.21,1042.1883 591.26,712.7583 659.45,621.9483 C680.14,594.3983 709.93,576.0683 742.25,563.9783" fill="none" id="Panels-GMN47" style="stroke:#181818;stroke-width:1;stroke-dasharray:7,7;"/></g><!--link View to GMN50--><g class="link" data-entity-1="ent0004" data-entity-2="ent0051" data-link-type="association" data-source-line="140" id="lnk52"><path d="M247.09,1141.7583 C192.18,1135.1183 133.14,1115.8583 104.82,1066.9483 C77.53,1019.8383 77.53,869.0683 104.82,821.9483 C120.24,795.3183 144.15,776.0283 171.39,762.0683" fill="none" id="View-GMN50" style="stroke:#181818;stroke-width:1;stroke-dasharray:7,7;"/></g><!--link Themed to GMN53--><g class="link" data-entity-1="ent0012" data-entity-2="ent0054" data-link-type="association" data-source-line="148" id="lnk55"><path d="M791.99,1287.3583 C742.06,1278.6283 690.4,1259.1283 659.45,1217.9483 C606.57,1147.6083 612.21,896.1983 659.45,821.9483 C674.67,798.0183 695.75,778.5283 719.48,762.6883" fill="none" id="Themed-GMN53" style="stroke:#181818;stroke-width:1;stroke-dasharray:7,7;"/></g><!--link ViewDeploy to GMN56--><g class="link" data-entity-1="ent0011" data-entity-2="ent0057" data-link-type="association" data-source-line="160" id="lnk58"><path d="M243.29,850.4583 C189.66,840.5483 132.82,818.2983 104.82,769.9483 C82.15,730.8183 82.15,402.0883 104.82,362.9483 C122.69,332.0883 150.72,308.7783 181.93,291.1983" fill="none" id="ViewDeploy-GMN56" style="stroke:#181818;stroke-width:1;stroke-dasharray:7,7;"/></g><!--link ViewSource to GMN59--><g class="link" data-entity-1="ent0013" data-entity-2="ent0060" data-link-type="association" data-source-line="174" id="lnk61"><path d="M801.93,1108.4983 C748.91,1102.8183 692.23,1085.5583 659.45,1041.9483 C587.07,945.6783 595.57,602.0583 659.45,499.9483 C675.16,474.8383 697.18,454.4083 721.96,437.7983" fill="none" id="ViewSource-GMN59" style="stroke:#181818;stroke-width:1;stroke-dasharray:7,7;"/></g><?plantuml-src jLhTSjl65RxdKspPcOgA2T2PTjA6SZoXASfM8ucgIBjD9pFK4bYIg40iYWKeqKbcUjK7wFHTUjz7oPFqEsSN8FWZAUtK5uq5xkxPy_ETtwsvYv9KPd8f2gC2QPJulY746ndSpJDT965VnpfxzKg6eGfVlnQ__FBbOF3boqDRChNKAxlfxEpD5_tF6pysJ4KzYAKndugsNgOwKKd-YUYRNEQVIY-P2dAPpEDFHLy6kSu-4MtyDu-2A9N_PyqVYQ-ZiFL-DF0-d0_-w9sUzzxUz2v7nxGGAXFiBxL5yrIjLAnJbObLfEwDa51j4gfCXMAfGnMBC99pubed8bye4IMUJ5CHo6GbZRYFyeKm2vagd4n2aQk7NCHg7arZvJUFQooTdO_U3Rx5lyF--nsMjfQsM9hf0Evbw6vIcj0py5Soj8ealWBWLsNUB7e0nxF8BDHQWL6PYwMS9z4imd7Ysp5CspF5l1ByCsM8Vg111DR8zRtCGjwlmhaoRH7BDUl2IM-2JCUncCTwAcFnKUlbjfJZuTkt5mFlkdSrkDYHScjfIye096NAScP2FG0NeUKvLhDSN0vFSG3o9p06wnWhMJHVk2NH7rwD1tyQknsibGHcIg0L4a8iS2XMRNAPM4RBA9blh1V2V10jL4jisXQ5WJBiNno03tw50EVBD5PBKd_O5KR5y4YYBOMlWnYcW6-QXGQaBiFm0x2bicuNAvCYih2HOgIBB52TKsVGNC_9eN_wsp_T2aIAajpg8fFt0lSomjgYF5BRODO9_Z7HHqMcJKoUsRNHXxS713iTN5yClpta6homArvDX4JTjuv5h6L8pZ9-TtvpAWopsnPffly2DVYXIcEzdf0EJEkuBQRWArJMeIOPt0FShK65ORWEObNxqHVZqlIG87RkI7SXA4G1GceeZYoNuj__4frb67hsFleiyYYEydLR93eddy7VtfpE78c-XHbiz4v9a1GjCWz1HRmPZjz1fnHKTRPcjjwiFUQCcJOG6EoHUNtSrx7tTJxxhFEPdnRB-0HvAWhkhFbZ9MVWcXsNrCHgW76jiQnpFTIfbG5dYwnPpNqSrtT5QWaO9RC01XQbgiGBKTVpYVjYv1cHmBtWJHGSn2Nf_SOTQyDQujeQgjlD58Mzrd5d9UCeXA9WbJkbKX7D4vtj2hmFfC6DDtutk1oSxaEfMje6aw0ebE4cmwPRCQmw9WiwqCnI-PdfYgn8m4SWuvYnlLJ4AB6liiaCiSgqVXK4lfeNqIJ87uxXmd0MX3nat2mlKj4wPxaXSX7B38gw17IA9KoD7N5CJ5X3B804Ygfd87ecbr6yxdQXcrGZG-b4nctnUvM_8K-26-j4LoIVE4_xJ2h97uX3c6KcYnYUUAVIdAIVWOKf4XgWNlEh8YNrRmkDJ1El9_pHOa7Fpcz6Ow5ai10p-B_gYb1cTvEOmc6t6weSHeNcVlhxFq0eJzCY2A9aGcnqkqRb6r9j1C_-kvxuGLpqnkC1V1HB2HIuHk8Yxc5wFyhLSk8-n5UYzJl_PLjyuR-qZilfsAxWDmgZ1Bcr-6E4g9j_Y4mX8SaAFaY9_WM2NXBgU_m171I-k2wGXu95facAqlGYMfBk3MkklIj3koRjYOWeNnNi4d3s1N5Ia2DPn3ABeLOcESeFkO7eY3xvT-tR1TLhEQV8co_CWRXv_VxomXiDtz_q1mU2PsrrDu8IMlgKV6LypOdAHViCAadmFpsRKPGh0_iFPGhu0J_DPg95C84S0F6SqKZVtQxT123ro_ZZZi7OXfBIp2S7Wudg-q-41HkG4aQmRyvAH8IgmT66T4fMKpNJcR95H9LNEYw5JZEP10jVRBR7yYFS055AkYnkKoDN9x4wChP60WdjU6N9lkTGgSAseoH-5Aq0CCUnwPgjOK7d4bv452ZFMsYFk2pfuSvkTwefjnfcmDC9M5cM3WdUfWgOf0mRHmbave11Qhk5BM_50iXYTE7QjOfZsAMr1EHW6NZ8xTUy_RPp-pKYzgsOneKIhP3JHhHIj0Lt0sYtHxTKNP7f3JICFq9VNEawmDhecrPpX7xybyeUcmFO-orMd1eYAuXWjLFDCuF3aDNkE8v33_SwkpFaUecu9nUcmyZvTB98ojIoZUJXzU3AknbSdGvkja5SMm1-Up1l4SMvPIYmuFNACalTUxcSCduNagfVSJHCSR-zyWX7ynmneRKNue3MyvpOKucSnbnRmaZCUnr_3ZKJIszYuc8ElEBO2163JRW7BbgLris_GR2XK1mWVuAsHeFgLBpatmnddFBlLqJzjP-R1vkQZOiaPJsJQPstIY-Zx8HI5R9Ex7d78hamy_J-7F-GrRf4OAf4zpU__loti5SgKMuawP8e82si2CCb2oAQCQevc0aPq_arnCjMWAUBpdGdtp0SmV5GMYfEH4wCKWesTR_8m5NkSTs5KiJZ7frZWRPStY9AyW-tv8mgampYMdT1TcY3LAPcW2bv8cClW7gxzPQ2aXHr6O_q8cZJCb2X0rFYmRKGr3kqhGc9HKQLgLe1kv9hZKIPCRuI3I9qo04BlKbLPvlIjhObEbXMjuK4WKq9cUZ45eR2rPA6l1Y0DKKsGwmmzSAdr8fXla37vYso5cSk3b9If2GyfMNHhn9NbG2v9vjf2Yh6KO4PeJpKTPBg5suAfWKrAw6m1SoBtVA3YvysHq8IPzidNUXtYSNs7j9riIxsKXTn7OCT92eEn7uZZtAgSXqOsB6sCO10RC5qt6XmMOx8RVil5_fqqcZOUS6cgMjI2CQNgBhvHcCpisXkAhycZm3A8LAJaq7LWJj6lajQhiVkNPrkzTZ7V0yTgXDvmxvHazpmDljpVICoCUkISMNXJ7VL4HfcSaxej3VXm9_nSvt66VNeZ3mB_nBulF_C_btVxzeGXOB3zhfr1oWlmP_rC-U9IQ4y9z7vgHisP9pJekJEdXlJzvuogMcizOCadyK9xENqkz7YC8Zt25WNe6HMkG68R3nfst_QtoLNm_5MwxKXVygazcvmFkJWPdqBLsoSg5tvXNM0xv9jrv55hZthM_QoCLFSkwY2lbK1xjZscOIWbLU9UiEutLQdnxdk1fLuxaAuGorekin7qTgKSTgIeaCtlAtnOwD1xk5vhoryomy7qlAp15pvNGAgjavOAJyj1Eg4oQBrRsU2we1LL7s7axNygSPpWvNe-oMNeWltZf8WBa851wzM7TEy38tYS7tLYV38gXNeaKNBxMFNRfZVFmurFCsQrSlZUpPgU5m13QHkP3aDyoyfpTPK9qGVlYlsoY-RIRUgASHBBgUQjNAg2G9F5LI3tL8A-__NOegI81LIHEAHKkfdrL0-2VrSmUILbP9ReO8731PfwnZ7kNmoM_MJUQg0Gd-Ps5e9X_b2T8vbfMJzSQTO8XUEUMOsfRWq6loXRfuJT0m5-XkSxbzUUsYPltb_xLtqtb_rt_aD2475cjgp-oQIRenUZHExcp9zgtZ5RZHm8Qc-NuNhze7XeKlinEscHQoNEdwvy1NdUogJi9dJPglgYjhK3NHuyFkGTw9aHRKN-hpm-0IRIu9VFJTQnDuMahcpA8rf6634QfaiZctJnW6UkEQlYSssM_fdxPTwUaAzcwIwKU_sU7shFjtCI76YAYr8x8BRsamNyyLZrUiIbI_9s6TQjebsQnDQGnQ_brbwNFcG6x1FYvZcvpXQpjPhu_RzCNkWiuJQVpIOw7QBd7pduj3etPEvXtBC87bpDKr5oabLfB3FxMgqtxlwq1kL6df2hvlYPhnNV8EgKMWr14V65-KVNbcDauxScmp24Qy1o8vdZafkOcQPFo5kiGF7Y7VUuOkUC4iqm6Z3eI_krM6lDEPgdFi7UzVJ8jZIQOECxIU9hXsUZL1osJ5CDLwca55xDO3JhpATr2QxwCvugiBdO1nTv6nUMyw5rTk4BSRD8gF2ZAe96bCye53m-Bq1PqmSqN3M1NHk33BbbIyV-8dlF1IRM0glFxouw5sF1i-488i5K0Jkl0huS5fZExdjuJEwyXbrMS9McT08OBoa8ckpgUvMDWmrhtJTgw0JeBVfYp556_ipwux763l2s1XRFiP1jhU3De9Z1FjGbE6PAPegdHOnbP4uHTMVGCgJZFtMwV0I3dyrzavxuzwRtcXmN0whCacpukWZJJ4VLr9L9Mw7wSrCk_lCf9gpCXMcODGGE3fSdtQuU_FShDZFyrdRDdIUdKFpBpXBYAaQFEhlwaUufN2rnMIw1XU_yErWd1Lkf-6s_xJpxpAIAMv1qUpreNBAvdqRvFtjci3M3jXcPyeqUQhwsVt9Cx5hJVFN0eg5m8S6pssH0hYabhtfinqtT-oukLqw2z9tGQ_aTEI9sJFjlkUnSZLrtdW76S56kjxrzSMtrdPjWLB0na3At7MpFkCrLO-oaxlTYzc1jp0UsTjgvS3h5zNz4h96YFXcP_pA-8bYkAWxWzHX7sSthrvDUt6JtnguacmrV-wZLnEtpt8-PDyGezWZxuPVvy6Yd21QJqOfjNa1GvzDh-xk3QmsNdRFM-WBwczJ_EbUkieCRmu_RhtALFpQvwcdosiB19gG8SDnfMLeWC9HVw5ZAXDvkhYkJJDT7npDd5nkt2cdXgOKljWnW7sBgyBKn5h1j6nfFeRAkrrhTJjZ1gchmOV13LHIri3bAy4ZzOerqJF0gdh87M3LdnGUVISWxj4RH8--4DHirBGBJKvNv5ZFFmEK43xu0834Zb8f8TArjm3KQEuHW53Cpm37zNU0Pnu0A6Hnndts7M1xx6zhoFzkx4-r6G_uARdnED-D_-sCVt-olvdfyv2VWj_FdkmZnj5edrLA1-jJUXxnePYg9sDoQEYo3WFlQbZsXuUAW5tKdBZ_fn5vC39YdH1jtS3oFm00?></g></svg>