<svg xmlns="http://www.w3.org/2000/svg" xmlns:xlink="http://www.w3.org/1999/xlink" contentStyleType="text/css" data-diagram-type="DESCRIPTION" height="237px" preserveAspectRatio="none" style="width:1259px;height:237px;background:#FFFFFF;" version="1.1" viewBox="0 0 1259 237" width="1259px" zoomAndPan="magnify"><?plantuml 1.2026.3?><defs/><g><g class="title" data-source-line="4"><text fill="#000000" font-family="sans-serif" font-size="14" font-weight="700" lengthAdjust="spacing" textLength="309.6406" x="471.6739" y="23.5352">Architecture-tracking component (current)</text></g><!--entity Init--><g class="entity" data-qualified-name="Init" data-source-line="6" id="ent0002"><rect fill="#F1F1F1" height="62.9766" rx="2.5" ry="2.5" style="stroke:#181818;stroke-width:0.5;" width="181.333" x="438.08" y="44.4883"/><rect fill="#F1F1F1" height="10" style="stroke:#181818;stroke-width:0.5;" width="15" x="599.413" y="49.4883"/><rect fill="#F1F1F1" height="2" style="stroke:#181818;stroke-width:0.5;" width="4" x="597.413" y="51.4883"/><rect fill="#F1F1F1" height="2" style="stroke:#181818;stroke-width:0.5;" width="4" x="597.413" y="55.4883"/><text fill="#000000" font-family="sans-serif" font-size="14" lengthAdjust="spacing" textLength="57.1416" x="453.08" y="78.0234">mdd init</text><text fill="#000000" font-family="sans-serif" font-size="14" lengthAdjust="spacing" textLength="141.333" x="453.08" y="94.5117">(scaffolds templates)</text></g><!--entity Comp--><g class="entity" data-qualified-name="Comp" data-source-line="7" id="ent0003"><rect fill="#F1F1F1" height="39.4883" rx="2.5" ry="2.5" style="stroke:#181818;stroke-width:0.5;" width="273.4961" x="7" y="184.4583"/><polygon fill="#F1F1F1" points="263.4961,189.4583,263.4961,203.4583,275.4961,203.4583,275.4961,195.4583,269.4961,189.4583,263.4961,189.4583" style="stroke:#181818;stroke-width:0.5;"/><line style="stroke:#181818;stroke-width:0.5;" x1="269.4961" x2="269.4961" y1="189.4583" y2="195.4583"/><line style="stroke:#181818;stroke-width:0.5;" x1="275.4961" x2="269.4961" y1="195.4583" y2="195.4583"/><text fill="#000000" font-family="sans-serif" font-size="14" lengthAdjust="spacing" textLength="243.4961" x="17" y="210.9934">.mdd/architecture/components.yml</text></g><!--entity Dec--><g class="entity" data-qualified-name="Dec" data-source-line="8" id="ent0004"><rect fill="#F1F1F1" height="39.4883" rx="2.5" ry="2.5" style="stroke:#181818;stroke-width:0.5;" width="253.1318" x="653.18" y="184.4583"/><polygon fill="#F1F1F1" points="889.3118,189.4583,889.3118,203.4583,901.3118,203.4583,901.3118,195.4583,895.3118,189.4583,889.3118,189.4583" style="stroke:#181818;stroke-width:0.5;"/><line style="stroke:#181818;stroke-width:0.5;" x1="895.3118" x2="895.3118" y1="189.4583" y2="195.4583"/><line style="stroke:#181818;stroke-width:0.5;" x1="901.3118" x2="895.3118" y1="195.4583" y2="195.4583"/><text fill="#000000" font-family="sans-serif" font-size="14" lengthAdjust="spacing" textLength="223.1318" x="663.18" y="210.9934">.mdd/architecture/decisions.yml</text></g><!--entity Con--><g class="entity" data-qualified-name="Con" data-source-line="9" id="ent0005"><rect fill="#F1F1F1" height="39.4883" rx="2.5" ry="2.5" style="stroke:#181818;stroke-width:0.5;" width="265.0947" x="320.2" y="184.4583"/><polygon fill="#F1F1F1" points="568.2947,189.4583,568.2947,203.4583,580.2947,203.4583,580.2947,195.4583,574.2947,189.4583,568.2947,189.4583" style="stroke:#181818;stroke-width:0.5;"/><line style="stroke:#181818;stroke-width:0.5;" x1="574.2947" x2="574.2947" y1="189.4583" y2="195.4583"/><line style="stroke:#181818;stroke-width:0.5;" x1="580.2947" x2="574.2947" y1="195.4583" y2="195.4583"/><text fill="#000000" font-family="sans-serif" font-size="14" lengthAdjust="spacing" textLength="235.0947" x="330.2" y="210.9934">.mdd/architecture/constraints.yml</text></g><!--entity Doc--><g class="entity" data-qualified-name="Doc" data-source-line="10" id="ent0006"><rect fill="#F1F1F1" height="39.4883" rx="2.5" ry="2.5" style="stroke:#181818;stroke-width:0.5;" width="282.4785" x="957.51" y="184.4583"/><polygon fill="#F1F1F1" points="1222.9885,189.4583,1222.9885,203.4583,1234.9885,203.4583,1234.9885,195.4583,1228.9885,189.4583,1222.9885,189.4583" style="stroke:#181818;stroke-width:0.5;"/><line style="stroke:#181818;stroke-width:0.5;" x1="1228.9885" x2="1228.9885" y1="189.4583" y2="195.4583"/><line style="stroke:#181818;stroke-width:0.5;" x1="1234.9885" x2="1228.9885" y1="195.4583" y2="195.4583"/><text fill="#000000" font-family="sans-serif" font-size="14" lengthAdjust="spacing" textLength="252.4785" x="967.51" y="210.9934">.mdd/docs/architecture-tracking.md</text></g><!--entity Kick--><g class="entity" data-qualified-name="Kick" data-source-line="11" id="ent0007"><rect fill="#F1F1F1" height="46.4883" rx="2.5" ry="2.5" style="stroke:#181818;stroke-width:0.5;" width="132.6133" x="71.44" y="52.7283"/><rect fill="#F1F1F1" height="10" style="stroke:#181818;stroke-width:0.5;" width="15" x="184.0533" y="57.7283"/><rect fill="#F1F1F1" height="2" style="stroke:#181818;stroke-width:0.5;" width="4" x="182.0533" y="59.7283"/><rect fill="#F1F1F1" height="2" style="stroke:#181818;stroke-width:0.5;" width="4" x="182.0533" y="63.7283"/><text fill="#000000" font-family="sans-serif" font-size="14" lengthAdjust="spacing" textLength="92.6133" x="86.44" y="86.2634">/mdd-kickoff</text></g><!--entity Agent--><g class="entity" data-qualified-name="Agent" data-source-line="12" id="ent0008"><rect fill="#F1F1F1" height="46.4883" rx="2.5" ry="2.5" style="stroke:#181818;stroke-width:0.5;" width="106.3496" x="941.57" y="52.7283"/><rect fill="#F1F1F1" height="10" style="stroke:#181818;stroke-width:0.5;" width="15" x="1027.9196" y="57.7283"/><rect fill="#F1F1F1" height="2" style="stroke:#181818;stroke-width:0.5;" width="4" x="1025.9196" y="59.7283"/><rect fill="#F1F1F1" height="2" style="stroke:#181818;stroke-width:0.5;" width="4" x="1025.9196" y="63.7283"/><text fill="#000000" font-family="sans-serif" font-size="14" lengthAdjust="spacing" textLength="66.3496" x="956.57" y="86.2634">any agent</text></g><!--link Init to Comp--><g class="link" data-entity-1="ent0002" data-entity-2="ent0003" data-link-type="dependency" data-source-line="14" id="lnk9"><path d="M437.79,102.4683 C402.08,112.8283 360.84,125.2283 323.75,137.4583 C279.36,152.0983 235.0822,168.3463 199.1122,181.9463" fill="none" id="Init-to-Comp" style="stroke:#181818;stroke-width:1;"/><polygon fill="#181818" points="193.5,184.0683,203.333,184.6269,198.1769,182.3,200.5037,177.1439,193.5,184.0683" style="stroke:#181818;stroke-width:1;"/><text fill="#000000" font-family="sans-serif" font-size="13" lengthAdjust="spacing" textLength="111.1665" x="324.75" y="151.0266">create-if-missing</text></g><!--link Init to Dec--><g class="link" data-entity-1="ent0002" data-entity-2="ent0004" data-link-type="dependency" data-source-line="15" id="lnk10"><path d="M551.37,107.7083 C564.68,123.7783 582.79,142.5383 602.75,154.4583 C624.36,167.3783 643.7273,175.2875 668.1473,182.3675" fill="none" id="Init-to-Dec" style="stroke:#181818;stroke-width:1;"/><polygon fill="#181818" points="673.91,184.0383,666.3798,177.6904,669.1078,182.646,664.1521,185.3739,673.91,184.0383" style="stroke:#181818;stroke-width:1;"/><text fill="#000000" font-family="sans-serif" font-size="13" lengthAdjust="spacing" textLength="111.1665" x="603.75" y="151.0266">create-if-missing</text></g><!--link Init to Con--><g class="link" data-entity-1="ent0002" data-entity-2="ent0005" data-link-type="dependency" data-source-line="16" id="lnk11"><path d="M474.32,107.8383 C464.4,116.1083 455.41,125.9983 449.75,137.4583 C442.62,151.9083 443.0025,164.5094 445.9125,178.1994" fill="none" id="Init-to-Con" style="stroke:#181818;stroke-width:1;"/><polygon fill="#181818" points="447.16,184.0683,449.2013,174.4333,446.1204,179.1776,441.3761,176.0966,447.16,184.0683" style="stroke:#181818;stroke-width:1;"/><text fill="#000000" font-family="sans-serif" font-size="13" lengthAdjust="spacing" textLength="111.1665" x="450.75" y="151.0266">create-if-missing</text></g><!--link Init to Doc--><g class="link" data-entity-1="ent0002" data-entity-2="ent0006" data-link-type="dependency" data-source-line="17" id="lnk12"><path d="M619.77,103.6683 C651.64,113.5783 687.51,125.3683 719.75,137.4583 C737.45,144.0983 740.56,149.2983 758.75,154.4583 C795.6,164.9283 875.1672,176.4168 951.2172,186.0168" fill="none" id="Init-to-Doc" style="stroke:#181818;stroke-width:1;"/><polygon fill="#181818" points="957.17,186.7683,948.7418,181.6726,952.2094,186.1421,947.7399,189.6096,957.17,186.7683" style="stroke:#181818;stroke-width:1;"/><text fill="#000000" font-family="sans-serif" font-size="13" lengthAdjust="spacing" textLength="74.9023" x="759.75" y="151.0266">regenerable</text></g><!--link Kick to Comp--><g class="link" data-entity-1="ent0007" data-entity-2="ent0003" data-link-type="dependency" data-source-line="18" id="lnk13"><path d="M135.34,99.3883 C134.06,114.8883 133.05,135.9583 134.75,154.4583 C135.66,164.3983 136.3882,169.4599 138.2282,178.4599" fill="none" id="Kick-to-Comp" style="stroke:#181818;stroke-width:1;"/><polygon fill="#181818" points="139.43,184.3383,141.5462,174.7195,138.4285,179.4396,133.7084,176.3219,139.43,184.3383" style="stroke:#181818;stroke-width:1;"/><text fill="#000000" font-family="sans-serif" font-size="13" lengthAdjust="spacing" textLength="120.1865" x="135.75" y="151.0266">authors initial spec</text></g><!--link Agent to Dec--><g class="link" data-entity-1="ent0008" data-entity-2="ent0004" data-link-type="dependency" data-source-line="19" id="lnk14"><path d="M941.32,99.5783 C918.16,110.0983 891.06,123.3883 867.75,137.4583 C844.56,151.4583 824.6946,166.3869 807.4446,180.2669" fill="none" id="Agent-to-Dec" style="stroke:#181818;stroke-width:1;"/><polygon fill="#181818" points="802.77,184.0283,812.2895,181.5026,806.6655,180.8938,807.2743,175.2698,802.77,184.0283" style="stroke:#181818;stroke-width:1;"/><text fill="#000000" font-family="sans-serif" font-size="13" lengthAdjust="spacing" textLength="199.9321" x="868.75" y="151.0266">append + supersede on change</text></g><!--link Agent to Doc--><g class="link" data-entity-1="ent0008" data-entity-2="ent0006" data-link-type="dependency" data-source-line="20" id="lnk15"><path d="M1035.27,99.6083 C1050.06,109.5683 1065.82,122.4383 1076.75,137.4583 C1086.88,151.3783 1091.2733,164.3957 1094.3133,178.3557" fill="none" id="Agent-to-Doc" style="stroke:#181818;stroke-width:1;"/><polygon fill="#181818" points="1095.59,184.2183,1097.5834,174.5733,1094.5261,179.3328,1089.7666,176.2755,1095.59,184.2183" style="stroke:#181818;stroke-width:1;"/><text fill="#000000" font-family="sans-serif" font-size="13" lengthAdjust="spacing" textLength="85.103" x="1087" y="151.0266">reads how-to</text></g><?plantuml-src XLF1Rjim3BtxAuXSOgzrKkmq9C3G80EseDWm53qM21I9ZedOaY7Aw_BtevGcSPSYlTWIoST7KezZk2UJBt_-BXUFon_bq-DY-R3wzRt8nd1laFMbwnP6gxPhi4KRq83ItZ53QqofdKUuWL0Zl3Y_uqvfd4KFaAK0h5LLkSOmJCGsLLxN5527tkFq5HPgZmZxje60mg42CkIdusmMCUjFwwFb5hH7-PTKbIqnazqMeAn9kJnkqQ9NcmOFXCPfViDQ1g_qJa3Ylg0v1gsFGMl15tEOnavtf7Ukga3reNQU4r_iaLG3tA6U9uiCoEyxHpP0-gA7hWyCCWkoW7_Gxq59aM7Ce9tu_uO9F0cGW-yJkG53LJMjYOEJO45i88y3ZHKMG0mAf6Xh9L96sxYNik_ci8qCnwg4bjgK1rhKjRB4xMGK7tZPUo_i9PD1AQ3jd9Mh9F89-kweGAjERQYXi8TSxxKCz-xkyvTYaWKASbcy3pebp_M1jCYoit5qrCYppSygEJr8CGB5i19_fdoWIcc1N6heb8ydeg24MOhfAiQW9YPdpv1lg3zWiV8yYjxIsFynLyLs879wE8AXhfB_GSx306LVrPAyYtZAiZWKACklgLEONUx3EK8QknuWNNoGmSKCWxtAOer3-kC-37SXIwKEIb1TXxAZDy1zXvvHn2VCKPbR70Q_iYcHGYt23kuV?></g></svg>