<svg xmlns="http://www.w3.org/2000/svg" xmlns:xlink="http://www.w3.org/1999/xlink" contentStyleType="text/css" data-diagram-type="DESCRIPTION" height="616px" preserveAspectRatio="none" style="width:2334px;height:616px;background:#FFFFFF;" version="1.1" viewBox="0 0 2334 616" width="2334px" zoomAndPan="magnify"><?plantuml 1.2026.3?><defs/><g><g class="title" data-source-line="16"><text fill="#000000" font-family="sans-serif" font-size="14" font-weight="700" lengthAdjust="spacing" textLength="268.9053" x="1029.2685" y="23.5352">Cycle tracking &#8212; ownership (current)</text></g><!--cluster existing workflow skills--><g class="cluster" data-qualified-name="existing workflow skills" data-source-line="21" id="ent0004"><path d="M8.5,338.9383 L182.2988,338.9383 A3.75,3.75 0 0 1 184.7988,341.4383 L191.7988,361.4266 L864.5,361.4266 A2.5,2.5 0 0 1 867,363.9266 L867,433.9283 A2.5,2.5 0 0 1 864.5,436.4283 L8.5,436.4283 A2.5,2.5 0 0 1 6,433.9283 L6,341.4383 A2.5,2.5 0 0 1 8.5,338.9383" fill="none" style="stroke:#000000;stroke-width:1.5;"/><line style="stroke:#000000;stroke-width:1.5;" x1="6" x2="191.7988" y1="361.4266" y2="361.4266"/><text fill="#000000" font-family="sans-serif" font-size="14" font-weight="700" lengthAdjust="spacing" textLength="172.7988" x="10" y="354.4734">existing workflow skills</text></g><!--entity Gen--><g class="entity" data-qualified-name="existing workflow skills.Gen" data-source-line="22" id="ent0005"><rect fill="#F1F1F1" height="46.4883" rx="2.5" ry="2.5" style="stroke:#181818;stroke-width:0.5;" width="145.6494" x="187.18" y="373.9383"/><rect fill="#F1F1F1" height="10" style="stroke:#181818;stroke-width:0.5;" width="15" x="312.8294" y="378.9383"/><rect fill="#F1F1F1" height="2" style="stroke:#181818;stroke-width:0.5;" width="4" x="310.8294" y="380.9383"/><rect fill="#F1F1F1" height="2" style="stroke:#181818;stroke-width:0.5;" width="4" x="310.8294" y="384.9383"/><text fill="#000000" font-family="sans-serif" font-size="14" lengthAdjust="spacing" textLength="105.6494" x="202.18" y="407.4734">/mdd-generate</text></g><!--entity MapS--><g class="entity" data-qualified-name="existing workflow skills.MapS" data-source-line="23" id="ent0006"><rect fill="#F1F1F1" height="46.4883" rx="2.5" ry="2.5" style="stroke:#181818;stroke-width:0.5;" width="115.749" x="368.13" y="373.9383"/><rect fill="#F1F1F1" height="10" style="stroke:#181818;stroke-width:0.5;" width="15" x="463.879" y="378.9383"/><rect fill="#F1F1F1" height="2" style="stroke:#181818;stroke-width:0.5;" width="4" x="461.879" y="380.9383"/><rect fill="#F1F1F1" height="2" style="stroke:#181818;stroke-width:0.5;" width="4" x="461.879" y="384.9383"/><text fill="#000000" font-family="sans-serif" font-size="14" lengthAdjust="spacing" textLength="75.749" x="383.13" y="407.4734">/mdd-map</text></g><!--entity ValS--><g class="entity" data-qualified-name="existing workflow skills.ValS" data-source-line="24" id="ent0007"><rect fill="#F1F1F1" height="46.4883" rx="2.5" ry="2.5" style="stroke:#181818;stroke-width:0.5;" width="138.7861" x="518.61" y="373.9383"/><rect fill="#F1F1F1" height="10" style="stroke:#181818;stroke-width:0.5;" width="15" x="637.3961" y="378.9383"/><rect fill="#F1F1F1" height="2" style="stroke:#181818;stroke-width:0.5;" width="4" x="635.3961" y="380.9383"/><rect fill="#F1F1F1" height="2" style="stroke:#181818;stroke-width:0.5;" width="4" x="635.3961" y="384.9383"/><text fill="#000000" font-family="sans-serif" font-size="14" lengthAdjust="spacing" textLength="98.7861" x="533.61" y="407.4734">/mdd-validate</text></g><!--entity ImplS--><g class="entity" data-qualified-name="existing workflow skills.ImplS" data-source-line="25" id="ent0008"><rect fill="#F1F1F1" height="46.4883" rx="2.5" ry="2.5" style="stroke:#181818;stroke-width:0.5;" width="158.7061" x="692.65" y="373.9383"/><rect fill="#F1F1F1" height="10" style="stroke:#181818;stroke-width:0.5;" width="15" x="831.3561" y="378.9383"/><rect fill="#F1F1F1" height="2" style="stroke:#181818;stroke-width:0.5;" width="4" x="829.3561" y="380.9383"/><rect fill="#F1F1F1" height="2" style="stroke:#181818;stroke-width:0.5;" width="4" x="829.3561" y="384.9383"/><text fill="#000000" font-family="sans-serif" font-size="14" lengthAdjust="spacing" textLength="118.7061" x="707.65" y="407.4734">/mdd-implement</text></g><!--entity RevS--><g class="entity" data-qualified-name="existing workflow skills.RevS" data-source-line="26" id="ent0009"><rect fill="#F1F1F1" height="46.4883" rx="2.5" ry="2.5" style="stroke:#181818;stroke-width:0.5;" width="129.5439" x="22.23" y="373.9383"/><rect fill="#F1F1F1" height="10" style="stroke:#181818;stroke-width:0.5;" width="15" x="131.7739" y="378.9383"/><rect fill="#F1F1F1" height="2" style="stroke:#181818;stroke-width:0.5;" width="4" x="129.7739" y="380.9383"/><rect fill="#F1F1F1" height="2" style="stroke:#181818;stroke-width:0.5;" width="4" x="129.7739" y="384.9383"/><text fill="#000000" font-family="sans-serif" font-size="14" lengthAdjust="spacing" textLength="89.5439" x="37.23" y="407.4734">/mdd-review</text></g><!--entity Dev--><g class="entity" data-qualified-name="Dev" data-source-line="18" id="ent0002"><ellipse cx="1738.9992" cy="51.4883" fill="#F1F1F1" rx="8" ry="8" style="stroke:#181818;stroke-width:0.5;"/><path d="M1738.9992,59.4883 L1738.9992,86.4883 M1725.9992,67.4883 L1751.9992,67.4883 M1738.9992,86.4883 L1725.9992,101.4883 M1738.9992,86.4883 L1751.9992,101.4883" fill="none" style="stroke:#181818;stroke-width:0.5;"/><text fill="#000000" font-family="sans-serif" font-size="14" lengthAdjust="spacing" textLength="68.3184" x="1704.84" y="116.5234">Developer</text></g><!--entity Orch--><g class="entity" data-qualified-name="Orch" data-source-line="20" id="ent0003"><rect fill="#F1F1F1" height="62.9766" rx="2.5" ry="2.5" style="stroke:#181818;stroke-width:0.5;" width="190.7803" x="602.61" y="204.7183"/><rect fill="#F1F1F1" height="10" style="stroke:#181818;stroke-width:0.5;" width="15" x="773.3903" y="209.7183"/><rect fill="#F1F1F1" height="2" style="stroke:#181818;stroke-width:0.5;" width="4" x="771.3903" y="211.7183"/><rect fill="#F1F1F1" height="2" style="stroke:#181818;stroke-width:0.5;" width="4" x="771.3903" y="215.7183"/><text fill="#000000" font-family="sans-serif" font-size="14" lengthAdjust="spacing" textLength="79.6387" x="617.61" y="238.2534">/mdd-cycle</text><text fill="#000000" font-family="sans-serif" font-size="14" lengthAdjust="spacing" textLength="150.7803" x="617.61" y="254.7417">(SKILL.md + template)</text></g><!--entity Store--><g class="entity" data-qualified-name="Store" data-source-line="29" id="ent0010"><path d="M1327.46,513.9183 L1368.46,513.9183 A3.75,3.75 0 0 1 1370.96,516.4183 L1377.96,534.9183 L1552.5411,534.9183 A2.5,2.5 0 0 1 1555.0411,537.4183 L1555.0411,598.8831 A2.5,2.5 0 0 1 1552.5411,601.3831 L1327.46,601.3831 A2.5,2.5 0 0 1 1324.96,598.8831 L1324.96,516.4183 A2.5,2.5 0 0 1 1327.46,513.9183" fill="#F1F1F1" style="stroke:#181818;stroke-width:0.5;"/><line style="stroke:#181818;stroke-width:0.5;" x1="1324.96" x2="1377.96" y1="534.9183" y2="534.9183"/><text fill="#000000" font-family="sans-serif" font-size="14" lengthAdjust="spacing" textLength="130.3887" x="1334.96" y="555.4534">.mdd/cycles/&lt;N&gt;/</text><text fill="#000000" font-family="sans-serif" font-size="14" lengthAdjust="spacing" textLength="200.0811" x="1334.96" y="571.9417">manifest.yml, before/, after/,</text><text fill="#000000" font-family="sans-serif" font-size="14" lengthAdjust="spacing" textLength="144.7373" x="1334.96" y="588.43">&lt;diagram&gt;.diff.puml</text></g><!--entity Models--><g class="entity" data-qualified-name="Models" data-source-line="30" id="ent0011"><path d="M306.94,530.3983 L347.94,530.3983 A3.75,3.75 0 0 1 350.44,532.8983 L357.44,551.3983 L545.064,551.3983 A2.5,2.5 0 0 1 547.564,553.8983 L547.564,582.3866 A2.5,2.5 0 0 1 545.064,584.8866 L306.94,584.8866 A2.5,2.5 0 0 1 304.44,582.3866 L304.44,532.8983 A2.5,2.5 0 0 1 306.94,530.3983" fill="#F1F1F1" style="stroke:#181818;stroke-width:0.5;"/><line style="stroke:#181818;stroke-width:0.5;" x1="304.44" x2="357.44" y1="551.3983" y2="551.3983"/><text fill="#000000" font-family="sans-serif" font-size="14" lengthAdjust="spacing" textLength="213.124" x="314.44" y="571.9334">.mdd/models/, .mdd/trace.yml</text></g><!--entity Core--><g class="entity" data-qualified-name="Core" data-source-line="32" id="ent0012"><rect fill="#F1F1F1" height="79.4648" rx="2.5" ry="2.5" style="stroke:#181818;stroke-width:0.5;" width="249.5078" x="1521.25" y="357.4483"/><rect fill="#F1F1F1" height="10" style="stroke:#181818;stroke-width:0.5;" width="15" x="1750.7578" y="362.4483"/><rect fill="#F1F1F1" height="2" style="stroke:#181818;stroke-width:0.5;" width="4" x="1748.7578" y="364.4483"/><rect fill="#F1F1F1" height="2" style="stroke:#181818;stroke-width:0.5;" width="4" x="1748.7578" y="368.4483"/><text fill="#000000" font-family="sans-serif" font-size="14" lengthAdjust="spacing" textLength="110.4551" x="1536.25" y="390.9834">mdd-core::cycle</text><text fill="#000000" font-family="sans-serif" font-size="14" lengthAdjust="spacing" textLength="209.5078" x="1536.25" y="407.4717">CycleRegistry, diff_documents,</text><text fill="#000000" font-family="sans-serif" font-size="14" lengthAdjust="spacing" textLength="92.5449" x="1536.25" y="423.96">extract_descs</text></g><!--entity Viewer--><g class="entity" data-qualified-name="Viewer" data-source-line="33" id="ent0013"><rect fill="#F1F1F1" height="79.4648" rx="2.5" ry="2.5" style="stroke:#181818;stroke-width:0.5;" width="171.2705" x="1653.36" y="196.4683"/><rect fill="#F1F1F1" height="10" style="stroke:#181818;stroke-width:0.5;" width="15" x="1804.6305" y="201.4683"/><rect fill="#F1F1F1" height="2" style="stroke:#181818;stroke-width:0.5;" width="4" x="1802.6305" y="203.4683"/><rect fill="#F1F1F1" height="2" style="stroke:#181818;stroke-width:0.5;" width="4" x="1802.6305" y="207.4683"/><text fill="#000000" font-family="sans-serif" font-size="14" lengthAdjust="spacing" textLength="82.2021" x="1668.36" y="230.0034">mdd-viewer</text><text fill="#000000" font-family="sans-serif" font-size="14" lengthAdjust="spacing" textLength="100.0371" x="1668.36" y="246.4917">tree.rs, diff_ui,</text><text fill="#000000" font-family="sans-serif" font-size="14" lengthAdjust="spacing" textLength="131.2705" x="1668.36" y="262.98">DESCRIPTION block</text></g><!--entity Egui--><g class="entity" data-qualified-name="Egui" data-source-line="34" id="ent0014"><rect fill="#F1F1F1" height="46.4883" rx="2.5" ry="2.5" style="stroke:#181818;stroke-width:0.5;" width="168.1602" x="1929.92" y="373.9383"/><rect fill="#F1F1F1" height="10" style="stroke:#181818;stroke-width:0.5;" width="15" x="2078.0802" y="378.9383"/><rect fill="#F1F1F1" height="2" style="stroke:#181818;stroke-width:0.5;" width="4" x="2076.0802" y="380.9383"/><rect fill="#F1F1F1" height="2" style="stroke:#181818;stroke-width:0.5;" width="4" x="2076.0802" y="384.9383"/><text fill="#000000" font-family="sans-serif" font-size="14" lengthAdjust="spacing" textLength="128.1602" x="1944.92" y="407.4734">eframe / egui 0.30</text></g><g class="entity" data-qualified-name="GMN30" data-source-line="54" id="ent0031"><path d="M886.59,369.2183 L886.59,425.1499 A0,0 0 0 0 886.59,425.1499 L1199.4108,425.1499 A0,0 0 0 0 1199.4108,425.1499 L1199.4108,379.2183 L1189.4108,369.2183 L987.46,369.2183 L764.93,268.0483 L979.46,369.2183 L886.59,369.2183 A0,0 0 0 0 886.59,369.2183" fill="#FEFFDD" style="stroke:#181818;stroke-width:0.5;"/><path d="M1189.4108,369.2183 L1189.4108,379.2183 L1199.4108,379.2183 L1189.4108,369.2183" fill="#FEFFDD" style="stroke:#181818;stroke-width:0.5;"/><text fill="#000000" font-family="sans-serif" font-size="13" lengthAdjust="spacing" textLength="235.9614" x="892.59" y="386.7866">Owns the cycle boundary. Standalone</text><text fill="#000000" font-family="sans-serif" font-size="13" lengthAdjust="spacing" textLength="291.8208" x="892.59" y="402.0972">/mdd-map and /mdd-generate never open or</text><text fill="#000000" font-family="sans-serif" font-size="13" lengthAdjust="spacing" textLength="251.6782" x="892.59" y="417.4077">close a cycle (documented in SKILL.md).</text></g><!--link Dev to Orch--><g class="link" data-entity-1="ent0002" data-entity-2="ent0003" data-link-type="dependency" data-source-line="36" id="lnk15"><path d="M1704.36,87.3183 C1561.66,108.2883 1022.2462,187.5559 799.5262,220.2859" fill="none" id="Dev-to-Orch" style="stroke:#181818;stroke-width:1;"/><polygon fill="#181818" points="793.59,221.1583,803.0759,223.8072,798.5369,220.4313,801.9128,215.8922,793.59,221.1583" style="stroke:#181818;stroke-width:1;"/><text fill="#000000" font-family="sans-serif" font-size="13" lengthAdjust="spacing" textLength="162.646" x="1281.83" y="163.0366">/mdd-cycle [description?]</text></g><!--link Orch to Gen--><g class="link" data-entity-1="ent0003" data-entity-2="ent0005" data-link-type="dependency" data-source-line="37" id="lnk16"><path d="M602.27,245.1283 C503.84,254.8583 358.69,274.1283 313,305.9383 C289.59,322.2383 277.055,346.8659 269.245,367.8259" fill="none" id="Orch-to-Gen" style="stroke:#181818;stroke-width:1;"/><polygon fill="#181818" points="267.15,373.4483,274.0407,366.4114,268.8958,368.763,266.5442,363.6181,267.15,373.4483" style="stroke:#181818;stroke-width:1;"/><text fill="#000000" font-family="sans-serif" font-size="13" lengthAdjust="spacing" textLength="153.5117" x="314" y="319.5066">entry (description given)</text></g><!--link Orch to MapS--><g class="link" data-entity-1="ent0003" data-entity-2="ent0006" data-link-type="dependency" data-source-line="38" id="lnk17"><path d="M602.32,257.0383 C566.41,267.5883 526.67,283.2183 495,305.9383 C470.16,323.7583 453.136,347.9031 441.186,368.2731" fill="none" id="Orch-to-MapS" style="stroke:#181818;stroke-width:1;"/><polygon fill="#181818" points="438.15,373.4483,446.1541,367.7095,440.68,369.1356,439.2539,363.6615,438.15,373.4483" style="stroke:#181818;stroke-width:1;"/><text fill="#000000" font-family="sans-serif" font-size="13" lengthAdjust="spacing" textLength="135.6621" x="496" y="319.5066">entry (no description)</text></g><!--link Orch to ValS--><g class="link" data-entity-1="ent0003" data-entity-2="ent0007" data-link-type="dependency" data-source-line="39" id="lnk18"><path d="M676.79,267.8583 C655.31,298.8983 626.0345,341.2246 606.8845,368.8946" fill="none" id="Orch-to-ValS" style="stroke:#181818;stroke-width:1;"/><polygon fill="#181818" points="603.47,373.8283,611.8809,368.7041,606.3154,369.7169,605.3027,364.1514,603.47,373.8283" style="stroke:#181818;stroke-width:1;"/><text fill="#000000" font-family="sans-serif" font-size="13" lengthAdjust="spacing" textLength="27.3901" x="650.59" y="319.5066">gate</text></g><!--link Orch to ImplS--><g class="link" data-entity-1="ent0003" data-entity-2="ent0008" data-link-type="dependency" data-source-line="40" id="lnk19"><path d="M712.27,267.8583 C726.72,298.8983 746.178,340.7187 759.058,368.3887" fill="none" id="Orch-to-ImplS" style="stroke:#181818;stroke-width:1;"/><polygon fill="#181818" points="761.59,373.8283,761.4183,363.9809,759.48,369.2953,754.1656,367.357,761.59,373.8283" style="stroke:#181818;stroke-width:1;"/><text fill="#000000" font-family="sans-serif" font-size="13" lengthAdjust="spacing" textLength="65.3809" x="738.22" y="319.5066">write code</text></g><!--link Orch to RevS--><g class="link" data-entity-1="ent0003" data-entity-2="ent0009" data-link-type="dependency" data-source-line="41" id="lnk20"><path d="M602.38,247.6383 C511.14,258.5883 370.16,278.1083 250,305.9383 C213.71,314.3383 202.96,313.5883 170,330.9383 C148.27,342.3783 131.0356,355.7447 115.2756,369.6747" fill="none" id="Orch-to-RevS" style="stroke:#181818;stroke-width:1;"/><polygon fill="#181818" points="110.78,373.6483,120.1725,370.685,114.5263,370.337,114.8744,364.6908,110.78,373.6483" style="stroke:#181818;stroke-width:1;"/><text fill="#000000" font-family="sans-serif" font-size="13" lengthAdjust="spacing" textLength="36.0928" x="251" y="319.5066">parity</text></g><!--link Orch to Store--><g class="link" data-entity-1="ent0003" data-entity-2="ent0010" data-link-type="dependency" data-source-line="42" id="lnk21"><path d="M793.73,244.1583 C924.95,255.4083 1151.87,281.4783 1217,330.9383 C1277.15,376.6083 1237.69,430.4083 1291,483.9183 C1302.28,495.2283 1310.5283,501.9659 1324.5783,510.4159" fill="none" id="Orch-to-Store" style="stroke:#181818;stroke-width:1;"/><polygon fill="#181818" points="1329.72,513.5083,1324.069,505.4419,1325.4352,510.9313,1319.9458,512.2976,1329.72,513.5083" style="stroke:#181818;stroke-width:1;"/><text fill="#000000" font-family="sans-serif" font-size="13" lengthAdjust="spacing" textLength="215.5601" x="1266.09" y="402.2466">open / before / close / after / diff</text></g><!--link Gen to Models--><g class="link" data-entity-1="ent0005" data-entity-2="ent0011" data-link-type="dependency" data-source-line="43" id="lnk22"><path d="M266.64,420.7483 C273.03,439.4183 284.22,465.7183 301,483.9183 C318.45,502.8283 336.6663,536.434 358.5963,548.134" fill="none" id="Gen-to-Models" style="stroke:#181818;stroke-width:1;"/><polygon fill="#181818" points="363.89,550.9583,357.8323,543.1927,359.4786,548.6047,354.0666,550.251,363.89,550.9583" style="stroke:#181818;stroke-width:1;"/><text fill="#000000" font-family="sans-serif" font-size="13" lengthAdjust="spacing" textLength="115.0449" x="302" y="480.4866">objective + @desc</text></g><!--link MapS to Models--><g class="link" data-entity-1="ent0006" data-entity-2="ent0011" data-link-type="dependency" data-source-line="44" id="lnk23"><path d="M426,420.8883 C426,449.7283 426,514.4183 426,545.0183" fill="none" id="MapS-to-Models" style="stroke:#181818;stroke-width:1;"/><polygon fill="#181818" points="426,551.0183,430,542.0183,426,546.0183,422,542.0183,426,551.0183" style="stroke:#181818;stroke-width:1;"/><text fill="#000000" font-family="sans-serif" font-size="13" lengthAdjust="spacing" textLength="103.9683" x="427" y="480.4866">current + @desc</text></g><!--link Dev to Viewer--><g class="link" data-entity-1="ent0002" data-entity-2="ent0013" data-link-type="dependency" data-source-line="46" id="lnk24"><path d="M1739,119.6483 C1739,142.8283 1739,166.5383 1739,190.0383" fill="none" id="Dev-to-Viewer" style="stroke:#181818;stroke-width:1;"/><polygon fill="#181818" points="1739,196.0383,1743,187.0383,1739,191.0383,1735,187.0383,1739,196.0383" style="stroke:#181818;stroke-width:1;"/><text fill="#000000" font-family="sans-serif" font-size="13" lengthAdjust="spacing" textLength="60.3599" x="1740" y="163.0366">mdd view</text></g><!--link Viewer to Core--><g class="link" data-entity-1="ent0013" data-entity-2="ent0012" data-link-type="dependency" data-source-line="47" id="lnk25"><path d="M1653.06,254.3683 C1624.95,264.4983 1596.68,280.5583 1580,305.9383 C1568.7,323.1283 1573.9427,337.2034 1588.8127,352.8934" fill="none" id="Viewer-to-Core" style="stroke:#181818;stroke-width:1;"/><polygon fill="#181818" points="1592.94,357.2483,1589.6523,347.9644,1589.5006,353.6192,1583.8458,353.4675,1592.94,357.2483" style="stroke:#181818;stroke-width:1;"/><text fill="#000000" font-family="sans-serif" font-size="13" lengthAdjust="spacing" textLength="270.4609" x="1581" y="319.5066">descriptions(), cycle_registry(), cycle_diffs()</text></g><!--link Core to Store--><g class="link" data-entity-1="ent0012" data-entity-2="ent0010" data-link-type="dependency" data-source-line="48" id="lnk26"><path d="M1601.26,437.2583 C1583.69,452.2083 1563.18,469.1983 1544,483.9183 C1531.15,493.7783 1522.0122,521.5088 1508.5222,531.0288" fill="none" id="Core-to-Store" style="stroke:#181818;stroke-width:1;"/><polygon fill="#181818" points="1503.62,534.4883,1513.2797,532.5671,1507.7052,531.6053,1508.667,526.0308,1503.62,534.4883" style="stroke:#181818;stroke-width:1;"/><text fill="#000000" font-family="sans-serif" font-size="13" lengthAdjust="spacing" textLength="169.4761" x="1565.03" y="480.4866">read manifest + snapshots</text></g><!--link Core to Models--><g class="link" data-entity-1="ent0012" data-entity-2="ent0011" data-link-type="dependency" data-source-line="49" id="lnk27"><path d="M1524.57,437.3583 C1514.29,439.9883 1504,442.3983 1494,444.4283 C1155.28,513.0883 753.0921,561.85 553.6621,572.11" fill="none" id="Core-to-Models" style="stroke:#181818;stroke-width:1;"/><polygon fill="#181818" points="547.67,572.4183,556.8636,575.9506,552.6634,572.1614,556.4526,567.9612,547.67,572.4183" style="stroke:#181818;stroke-width:1;"/><text fill="#000000" font-family="sans-serif" font-size="13" lengthAdjust="spacing" textLength="137.0078" x="1351.43" y="480.4866">scan models + @desc</text></g><!--link Viewer to Egui--><g class="link" data-entity-1="ent0013" data-entity-2="ent0014" data-link-type="dependency" data-source-line="50" id="lnk28"><path d="M1806.62,276.2983 C1859.42,306.8183 1925.7454,345.1657 1969.5154,370.4657" fill="none" id="Viewer-to-Egui" style="stroke:#181818;stroke-width:1;"/><polygon fill="#181818" points="1974.71,373.4683,1968.9198,365.5013,1970.3811,370.9661,1964.9163,372.4275,1974.71,373.4683" style="stroke:#181818;stroke-width:1;"/><text fill="#000000" font-family="sans-serif" font-size="13" lengthAdjust="spacing" textLength="156.5015" x="1885.75" y="319.5066">tree / diff / card widgets</text></g><!--link Egui to Dev--><g class="link" data-entity-1="ent0014" data-entity-2="ent0002" data-link-type="dependency" data-source-line="51" id="lnk29"><path d="M2034.31,373.4483 C2048.29,354.9083 2062.45,328.2283 2051,305.9383 C1991.63,190.3183 1847.2728,123.2109 1779.1828,96.7609" fill="none" id="Egui-to-Dev" style="stroke:#181818;stroke-width:1;"/><polygon fill="#181818" points="1773.59,94.5883,1780.5309,101.5757,1778.2507,96.3988,1783.4277,94.1186,1773.59,94.5883" style="stroke:#181818;stroke-width:1;"/><text fill="#000000" font-family="sans-serif" font-size="13" lengthAdjust="spacing" textLength="287.2822" x="2031.16" y="241.2766">tree rail + superposed diff + description card</text></g><?plantuml-src VLLHRo8t47xVNp7YvK07koVrZPpIQu6qw4Y88BceQYfaTWrnsRLNjXU2JYVrH_GNzfTqPho4XN9z0di-V_vcvlFiE_YailRWzhut-6qm6VMciy6le_d3xAU7wQmJlJkBpd5tTBADwpfsEnsE9itOb_7eQJIheuzZ3bcvQZ_EHxtPurq8dEm6w71ySyE7CORHGMMjrBxdL2R1xBIqxaML81miAvNx61vU9BYDodDe5y9kCiHq2EZmiB7fYtJU2g-CXlVW4Plkqrp2qbGw4tP_1KMMzL9ZcTmnmagHGM4ocLyX1yMtIkwaFIAybJB9r6gLPDAbLfNC_pY-WXZX2L_X4b01xJpInvpD9y9_fzvTQFrCAL5kT2nXPQoMy-k3bqMP2ozTltyx72wOOZ7_F9vCKFDQEI-jp41fU9hEFjzCfayXEEy2rQp4c3SGfxceCfc0q1akCCtNXFdTySA4ps4kSQjpGJNxe2ctcVN7k-i4i1gPSXjgYLOhR46yB_8kBEKAIv5qGQnGA_v-p9HOMr5SnrJDkAoAlDE553lWKUro7-h7tHKURAMzAkH_H9sviAaijLIlvD3anDaq28sjWpAl7CXNz4Vg5qJdk2ZtrlmfKz_lVsrqrtNvs28Kskxh9SbstyuLdNd_EuA2grWI6OeKqVLiGQ7oP4W66uxcWzdu_c4ylGDg5hNtCaUkbaX1KhpoQ9e1MuUIsoYzXd_--hlnVjffU5UTACBaZONMK6vbRaffMoGJLr6Kcg8q6b7GEdhZMRSFxg0NLLkomwUc-DwY4YyKQmaj-OgLegjtncvMkTc5JheMV8q0pidN4hKX4nFz8lK5I25AZjwASduXl1MvoWuCNqH-2QDGhYnmpQ0nhYwXhAIwCcGcj_FeMnIjJ9xX26YTM_rP_x_5d_K5ZpFpdCR2AIyF7OU7UKMjayGQakROILCEhkxtwyvmosS7XmBTjyXCMb723gMSU9rP1wJXZ39uwbdNfgnvAeK4JJSkSvDkGgtvG9D6hZ1X764WrvM23_4F7nWumbKKeRUWrxjcjq2_EUT-Rpou7_-86418j0C2aTdkeTqSkMkrbRfp198pZaXje05kmCWS25kZMOwRR0RStLdb9R-rOunSWA5IO6n_tEOMuZu-6ut9XjxZdpGtZdxP0_XB1Ome2TR8ZQHJInepc06-8vuT4Si_mTJFz0tnLhnGSqHWzO0w5jKx51m4MStnrQQvUZB1ZZiynDgTY8yrymfVmjhVgC5fKReNuzqH-gRKfKA7hwPxKzkGHAr757cgBWZLITWCTYfRIwHa144fnHf9Sv3khN0kbLZJB9nytqoDMQ986q-VTUzD0MOLHX70zF39FltinvWYpbgHeryHTPWkF7zFfX5e78isDDXO6XNSMb7pjG-lAtnt3uEn4qSIcKZIlm00?></g></svg>