<svg xmlns="http://www.w3.org/2000/svg" xmlns:xlink="http://www.w3.org/1999/xlink" contentStyleType="text/css" data-diagram-type="DESCRIPTION" height="1041px" preserveAspectRatio="none" style="width:2625px;height:1041px;background:#FFFFFF;" version="1.1" viewBox="0 0 2625 1041" width="2625px" zoomAndPan="magnify"><?plantuml 1.2026.3?><defs/><g><g class="title" data-source-line="22"><text fill="#000000" font-family="sans-serif" font-size="14" font-weight="700" lengthAdjust="spacing" textLength="268.9053" x="1174.9852" y="23.5352">Cycle tracking &#8212; ownership (current)</text></g><!--cluster existing workflow skills--><g class="cluster" data-qualified-name="existing workflow skills" data-source-line="27" id="ent0004"><path d="M8.5,338.9483 L182.2988,338.9483 A3.75,3.75 0 0 1 184.7988,341.4483 L191.7988,361.4366 L1029.5,361.4366 A2.5,2.5 0 0 1 1032,363.9366 L1032,433.9383 A2.5,2.5 0 0 1 1029.5,436.4383 L8.5,436.4383 A2.5,2.5 0 0 1 6,433.9383 L6,341.4483 A2.5,2.5 0 0 1 8.5,338.9483" fill="none" style="stroke:#000000;stroke-width:1.5;"/><line style="stroke:#000000;stroke-width:1.5;" x1="6" x2="191.7988" y1="361.4366" y2="361.4366"/><text fill="#000000" font-family="sans-serif" font-size="14" font-weight="700" lengthAdjust="spacing" textLength="172.7988" x="10" y="354.4834">existing workflow skills</text></g><!--entity Gen--><g class="entity" data-qualified-name="existing workflow skills.Gen" data-source-line="28" id="ent0005"><rect fill="#F1F1F1" height="46.4883" rx="2.5" ry="2.5" style="stroke:#181818;stroke-width:0.5;" width="145.6494" x="705.18" y="373.9483"/><rect fill="#F1F1F1" height="10" style="stroke:#181818;stroke-width:0.5;" width="15" x="830.8294" y="378.9483"/><rect fill="#F1F1F1" height="2" style="stroke:#181818;stroke-width:0.5;" width="4" x="828.8294" y="380.9483"/><rect fill="#F1F1F1" height="2" style="stroke:#181818;stroke-width:0.5;" width="4" x="828.8294" y="384.9483"/><text fill="#000000" font-family="sans-serif" font-size="14" lengthAdjust="spacing" textLength="105.6494" x="720.18" y="407.4834">/mdd-generate</text></g><!--entity MapS--><g class="entity" data-qualified-name="existing workflow skills.MapS" data-source-line="29" id="ent0006"><rect fill="#F1F1F1" height="46.4883" rx="2.5" ry="2.5" style="stroke:#181818;stroke-width:0.5;" width="115.749" x="554.13" y="373.9483"/><rect fill="#F1F1F1" height="10" style="stroke:#181818;stroke-width:0.5;" width="15" x="649.879" y="378.9483"/><rect fill="#F1F1F1" height="2" style="stroke:#181818;stroke-width:0.5;" width="4" x="647.879" y="380.9483"/><rect fill="#F1F1F1" height="2" style="stroke:#181818;stroke-width:0.5;" width="4" x="647.879" y="384.9483"/><text fill="#000000" font-family="sans-serif" font-size="14" lengthAdjust="spacing" textLength="75.749" x="569.13" y="407.4834">/mdd-map</text></g><!--entity ValS--><g class="entity" data-qualified-name="existing workflow skills.ValS" data-source-line="30" id="ent0007"><rect fill="#F1F1F1" height="46.4883" rx="2.5" ry="2.5" style="stroke:#181818;stroke-width:0.5;" width="138.7861" x="21.61" y="373.9483"/><rect fill="#F1F1F1" height="10" style="stroke:#181818;stroke-width:0.5;" width="15" x="140.3961" y="378.9483"/><rect fill="#F1F1F1" height="2" style="stroke:#181818;stroke-width:0.5;" width="4" x="138.3961" y="380.9483"/><rect fill="#F1F1F1" height="2" style="stroke:#181818;stroke-width:0.5;" width="4" x="138.3961" y="384.9483"/><text fill="#000000" font-family="sans-serif" font-size="14" lengthAdjust="spacing" textLength="98.7861" x="36.61" y="407.4834">/mdd-validate</text></g><!--entity ImplS--><g class="entity" data-qualified-name="existing workflow skills.ImplS" data-source-line="31" id="ent0008"><rect fill="#F1F1F1" height="46.4883" rx="2.5" ry="2.5" style="stroke:#181818;stroke-width:0.5;" width="158.7061" x="195.65" y="373.9483"/><rect fill="#F1F1F1" height="10" style="stroke:#181818;stroke-width:0.5;" width="15" x="334.3561" y="378.9483"/><rect fill="#F1F1F1" height="2" style="stroke:#181818;stroke-width:0.5;" width="4" x="332.3561" y="380.9483"/><rect fill="#F1F1F1" height="2" style="stroke:#181818;stroke-width:0.5;" width="4" x="332.3561" y="384.9483"/><text fill="#000000" font-family="sans-serif" font-size="14" lengthAdjust="spacing" textLength="118.7061" x="210.65" y="407.4834">/mdd-implement</text></g><!--entity RevS--><g class="entity" data-qualified-name="existing workflow skills.RevS" data-source-line="32" id="ent0009"><rect fill="#F1F1F1" height="46.4883" rx="2.5" ry="2.5" style="stroke:#181818;stroke-width:0.5;" width="129.5439" x="389.23" y="373.9483"/><rect fill="#F1F1F1" height="10" style="stroke:#181818;stroke-width:0.5;" width="15" x="498.7739" y="378.9483"/><rect fill="#F1F1F1" height="2" style="stroke:#181818;stroke-width:0.5;" width="4" x="496.7739" y="380.9483"/><rect fill="#F1F1F1" height="2" style="stroke:#181818;stroke-width:0.5;" width="4" x="496.7739" y="384.9483"/><text fill="#000000" font-family="sans-serif" font-size="14" lengthAdjust="spacing" textLength="89.5439" x="404.23" y="407.4834">/mdd-review</text></g><!--entity RendS--><g class="entity" data-qualified-name="existing workflow skills.RendS" data-source-line="33" id="ent0010"><rect fill="#F1F1F1" height="46.4883" rx="2.5" ry="2.5" style="stroke:#181818;stroke-width:0.5;" width="130.6924" x="885.65" y="373.9483"/><rect fill="#F1F1F1" height="10" style="stroke:#181818;stroke-width:0.5;" width="15" x="996.3424" y="378.9483"/><rect fill="#F1F1F1" height="2" style="stroke:#181818;stroke-width:0.5;" width="4" x="994.3424" y="380.9483"/><rect fill="#F1F1F1" height="2" style="stroke:#181818;stroke-width:0.5;" width="4" x="994.3424" y="384.9483"/><text fill="#000000" font-family="sans-serif" font-size="14" lengthAdjust="spacing" textLength="90.6924" x="900.65" y="407.4834">/mdd-render</text></g><!--entity Dev--><g class="entity" data-qualified-name="Dev" data-source-line="24" id="ent0002"><ellipse cx="2068.9992" cy="51.4883" fill="#F1F1F1" rx="8" ry="8" style="stroke:#181818;stroke-width:0.5;"/><path d="M2068.9992,59.4883 L2068.9992,86.4883 M2055.9992,67.4883 L2081.9992,67.4883 M2068.9992,86.4883 L2055.9992,101.4883 M2068.9992,86.4883 L2081.9992,101.4883" fill="none" style="stroke:#181818;stroke-width:0.5;"/><text fill="#000000" font-family="sans-serif" font-size="14" lengthAdjust="spacing" textLength="68.3184" x="2034.84" y="116.5234">Developer</text></g><!--entity Orch--><g class="entity" data-qualified-name="Orch" data-source-line="26" id="ent0003"><rect fill="#F1F1F1" height="62.9766" rx="2.5" ry="2.5" style="stroke:#181818;stroke-width:0.5;" width="190.7803" x="693.61" y="204.7283"/><rect fill="#F1F1F1" height="10" style="stroke:#181818;stroke-width:0.5;" width="15" x="864.3903" y="209.7283"/><rect fill="#F1F1F1" height="2" style="stroke:#181818;stroke-width:0.5;" width="4" x="862.3903" y="211.7283"/><rect fill="#F1F1F1" height="2" style="stroke:#181818;stroke-width:0.5;" width="4" x="862.3903" y="215.7283"/><text fill="#000000" font-family="sans-serif" font-size="14" lengthAdjust="spacing" textLength="79.6387" x="708.61" y="238.2634">/mdd-cycle</text><text fill="#000000" font-family="sans-serif" font-size="14" lengthAdjust="spacing" textLength="150.7803" x="708.61" y="254.7517">(SKILL.md + template)</text></g><!--entity Store--><g class="entity" data-qualified-name="Store" data-source-line="36" id="ent0011"><path d="M1359.46,938.5783 L1400.46,938.5783 A3.75,3.75 0 0 1 1402.96,941.0783 L1409.96,959.5783 L1584.5411,959.5783 A2.5,2.5 0 0 1 1587.0411,962.0783 L1587.0411,1023.5431 A2.5,2.5 0 0 1 1584.5411,1026.0431 L1359.46,1026.0431 A2.5,2.5 0 0 1 1356.96,1023.5431 L1356.96,941.0783 A2.5,2.5 0 0 1 1359.46,938.5783" fill="#F1F1F1" style="stroke:#181818;stroke-width:0.5;"/><line style="stroke:#181818;stroke-width:0.5;" x1="1356.96" x2="1409.96" y1="959.5783" y2="959.5783"/><text fill="#000000" font-family="sans-serif" font-size="14" lengthAdjust="spacing" textLength="130.3887" x="1366.96" y="980.1134">.mdd/cycles/&lt;N&gt;/</text><text fill="#000000" font-family="sans-serif" font-size="14" lengthAdjust="spacing" textLength="200.0811" x="1366.96" y="996.6017">manifest.yml, before/, after/,</text><text fill="#000000" font-family="sans-serif" font-size="14" lengthAdjust="spacing" textLength="106.4629" x="1366.96" y="1013.09">&lt;rel&gt;.diff.puml</text></g><!--entity Rendered--><g class="entity" data-qualified-name="Rendered" data-source-line="37" id="ent0012"><path d="M1843.05,786.3483 L1884.05,786.3483 A3.75,3.75 0 0 1 1886.55,788.8483 L1893.55,807.3483 L2066.9484,807.3483 A2.5,2.5 0 0 1 2069.4484,809.8483 L2069.4484,854.8248 A2.5,2.5 0 0 1 2066.9484,857.3248 L1843.05,857.3248 A2.5,2.5 0 0 1 1840.55,854.8248 L1840.55,788.8483 A2.5,2.5 0 0 1 1843.05,786.3483" fill="#F1F1F1" style="stroke:#181818;stroke-width:0.5;"/><line style="stroke:#181818;stroke-width:0.5;" x1="1840.55" x2="1893.55" y1="807.3483" y2="807.3483"/><text fill="#000000" font-family="sans-serif" font-size="14" lengthAdjust="spacing" textLength="198.8984" x="1850.55" y="827.8834">.mdd/rendered/cycles/&lt;N&gt;/</text><text fill="#000000" font-family="sans-serif" font-size="14" lengthAdjust="spacing" textLength="94.958" x="1850.55" y="844.3717">&lt;rel&gt;.diff.svg</text></g><!--entity Models--><g class="entity" data-qualified-name="Models" data-source-line="38" id="ent0013"><path d="M667.94,955.0583 L708.94,955.0583 A3.75,3.75 0 0 1 711.44,957.5583 L718.44,976.0583 L906.064,976.0583 A2.5,2.5 0 0 1 908.564,978.5583 L908.564,1007.0466 A2.5,2.5 0 0 1 906.064,1009.5466 L667.94,1009.5466 A2.5,2.5 0 0 1 665.44,1007.0466 L665.44,957.5583 A2.5,2.5 0 0 1 667.94,955.0583" fill="#F1F1F1" style="stroke:#181818;stroke-width:0.5;"/><line style="stroke:#181818;stroke-width:0.5;" x1="665.44" x2="718.44" y1="976.0583" y2="976.0583"/><text fill="#000000" font-family="sans-serif" font-size="14" lengthAdjust="spacing" textLength="213.124" x="675.44" y="996.5934">.mdd/models/, .mdd/trace.yml</text></g><!--entity Core--><g class="entity" data-qualified-name="Core" data-source-line="40" id="ent0014"><rect fill="#F1F1F1" height="79.4648" rx="2.5" ry="2.5" style="stroke:#181818;stroke-width:0.5;" width="248.3047" x="1001.85" y="782.1083"/><rect fill="#F1F1F1" height="10" style="stroke:#181818;stroke-width:0.5;" width="15" x="1230.1547" y="787.1083"/><rect fill="#F1F1F1" height="2" style="stroke:#181818;stroke-width:0.5;" width="4" x="1228.1547" y="789.1083"/><rect fill="#F1F1F1" height="2" style="stroke:#181818;stroke-width:0.5;" width="4" x="1228.1547" y="793.1083"/><text fill="#000000" font-family="sans-serif" font-size="14" lengthAdjust="spacing" textLength="208.3047" x="1016.85" y="815.6434">mdd-core::cycle + RenderTree</text><text fill="#000000" font-family="sans-serif" font-size="14" lengthAdjust="spacing" textLength="196.6973" x="1016.85" y="832.1317">CycleRegistry, extract_descs,</text><text fill="#000000" font-family="sans-serif" font-size="14" lengthAdjust="spacing" textLength="102.1289" x="1016.85" y="848.62">Project tree set</text></g><!--entity RenderCli--><g class="entity" data-qualified-name="RenderCli" data-source-line="41" id="ent0015"><rect fill="#F1F1F1" height="62.9766" rx="2.5" ry="2.5" style="stroke:#181818;stroke-width:0.5;" width="240.9287" x="1271.54" y="502.1583"/><rect fill="#F1F1F1" height="10" style="stroke:#181818;stroke-width:0.5;" width="15" x="1492.4687" y="507.1583"/><rect fill="#F1F1F1" height="2" style="stroke:#181818;stroke-width:0.5;" width="4" x="1490.4687" y="509.1583"/><rect fill="#F1F1F1" height="2" style="stroke:#181818;stroke-width:0.5;" width="4" x="1490.4687" y="513.1583"/><text fill="#000000" font-family="sans-serif" font-size="14" lengthAdjust="spacing" textLength="79.6797" x="1286.54" y="535.6934">mdd render</text><text fill="#000000" font-family="sans-serif" font-size="14" lengthAdjust="spacing" textLength="200.9287" x="1286.54" y="552.1817">(mdd-cli Commands::Render)</text></g><!--entity DiffRend--><g class="entity" data-qualified-name="DiffRend" data-source-line="42" id="ent0016"><rect fill="#F1F1F1" height="62.9766" rx="2.5" ry="2.5" style="stroke:#181818;stroke-width:0.5;" width="211.3701" x="1359.31" y="642.1283"/><rect fill="#F1F1F1" height="10" style="stroke:#181818;stroke-width:0.5;" width="15" x="1550.6801" y="647.1283"/><rect fill="#F1F1F1" height="2" style="stroke:#181818;stroke-width:0.5;" width="4" x="1548.6801" y="649.1283"/><rect fill="#F1F1F1" height="2" style="stroke:#181818;stroke-width:0.5;" width="4" x="1548.6801" y="653.1283"/><text fill="#000000" font-family="sans-serif" font-size="14" lengthAdjust="spacing" textLength="83.3506" x="1374.31" y="675.6634">mdd-render</text><text fill="#000000" font-family="sans-serif" font-size="14" lengthAdjust="spacing" textLength="171.3701" x="1374.31" y="692.1517">render_selection (engine)</text></g><!--entity Viewer--><g class="entity" data-qualified-name="Viewer" data-source-line="43" id="ent0017"><rect fill="#F1F1F1" height="79.4648" rx="2.5" ry="2.5" style="stroke:#181818;stroke-width:0.5;" width="226.1084" x="1955.95" y="196.4783"/><rect fill="#F1F1F1" height="10" style="stroke:#181818;stroke-width:0.5;" width="15" x="2162.0584" y="201.4783"/><rect fill="#F1F1F1" height="2" style="stroke:#181818;stroke-width:0.5;" width="4" x="2160.0584" y="203.4783"/><rect fill="#F1F1F1" height="2" style="stroke:#181818;stroke-width:0.5;" width="4" x="2160.0584" y="207.4783"/><text fill="#000000" font-family="sans-serif" font-size="14" lengthAdjust="spacing" textLength="82.2021" x="1970.95" y="230.0134">mdd-viewer</text><text fill="#000000" font-family="sans-serif" font-size="14" lengthAdjust="spacing" textLength="170.1875" x="1970.95" y="246.5017">tree.rs, diff_ui (DiffView),</text><text fill="#000000" font-family="sans-serif" font-size="14" lengthAdjust="spacing" textLength="186.1084" x="1970.95" y="262.99">paint_canvas, DESCRIPTION</text></g><!--entity Egui--><g class="entity" data-qualified-name="Egui" data-source-line="44" id="ent0018"><rect fill="#F1F1F1" height="46.4883" rx="2.5" ry="2.5" style="stroke:#181818;stroke-width:0.5;" width="168.1602" x="2194.92" y="373.9483"/><rect fill="#F1F1F1" height="10" style="stroke:#181818;stroke-width:0.5;" width="15" x="2343.0802" y="378.9483"/><rect fill="#F1F1F1" height="2" style="stroke:#181818;stroke-width:0.5;" width="4" x="2341.0802" y="380.9483"/><rect fill="#F1F1F1" height="2" style="stroke:#181818;stroke-width:0.5;" width="4" x="2341.0802" y="384.9483"/><text fill="#000000" font-family="sans-serif" font-size="14" lengthAdjust="spacing" textLength="128.1602" x="2209.92" y="407.4834">eframe / egui 0.30</text></g><g class="entity" data-qualified-name="GMN41" data-source-line="71" id="ent0042"><path d="M1051.59,369.2283 L1051.59,425.1599 A0,0 0 0 0 1051.59,425.1599 L1364.4108,425.1599 A0,0 0 0 0 1364.4108,425.1599 L1364.4108,379.2283 L1354.4108,369.2283 L1139.68,369.2283 L870.28,268.0583 L1131.68,369.2283 L1051.59,369.2283 A0,0 0 0 0 1051.59,369.2283" fill="#FEFFDD" style="stroke:#181818;stroke-width:0.5;"/><path d="M1354.4108,369.2283 L1354.4108,379.2283 L1364.4108,379.2283 L1354.4108,369.2283" fill="#FEFFDD" style="stroke:#181818;stroke-width:0.5;"/><text fill="#000000" font-family="sans-serif" font-size="13" lengthAdjust="spacing" textLength="235.9614" x="1057.59" y="386.7966">Owns the cycle boundary. Standalone</text><text fill="#000000" font-family="sans-serif" font-size="13" lengthAdjust="spacing" textLength="291.8208" x="1057.59" y="402.1072">/mdd-map and /mdd-generate never open or</text><text fill="#000000" font-family="sans-serif" font-size="13" lengthAdjust="spacing" textLength="251.6782" x="1057.59" y="417.4177">close a cycle (documented in SKILL.md).</text></g><g class="entity" data-qualified-name="GMN44" data-source-line="77" id="ent0045"><path d="M1785.37,946.6883 L1785.37,1017.9305 A0,0 0 0 0 1785.37,1017.9305 L2124.6288,1017.9305 A0,0 0 0 0 2124.6288,1017.9305 L2124.6288,956.6883 L2114.6288,946.6883 L1959,946.6883 L1955,857.6183 L1951,946.6883 L1785.37,946.6883 A0,0 0 0 0 1785.37,946.6883" fill="#FEFFDD" style="stroke:#181818;stroke-width:0.5;"/><path d="M2114.6288,946.6883 L2114.6288,956.6883 L2124.6288,956.6883 L2114.6288,946.6883" fill="#FEFFDD" style="stroke:#181818;stroke-width:0.5;"/><text fill="#000000" font-family="sans-serif" font-size="13" lengthAdjust="spacing" textLength="244.6958" x="1791.37" y="964.2566">Viewer has no PlantUML engine; it only</text><text fill="#000000" font-family="sans-serif" font-size="13" lengthAdjust="spacing" textLength="293.7441" x="1791.37" y="979.5672">consumes pre-rendered SVG. Every tree's path</text><text fill="#000000" font-family="sans-serif" font-size="13" lengthAdjust="spacing" textLength="284.8447" x="1791.37" y="994.8777">is a 1:1 mirror (OCL-RENDER-PATH-MIRROR;</text><text fill="#000000" font-family="sans-serif" font-size="13" lengthAdjust="spacing" textLength="318.2588" x="1791.37" y="1010.1883">OCL-DIFF-SVG-PATH-DERIVED for the cycle case).</text></g><!--link Dev to Orch--><g class="link" data-entity-1="ent0002" data-entity-2="ent0003" data-link-type="dependency" data-source-line="46" id="lnk19"><path d="M2034.43,86.3683 C1868,106.2583 1152.4876,191.7763 890.4876,223.0863" fill="none" id="Dev-to-Orch" style="stroke:#181818;stroke-width:1;"/><polygon fill="#181818" points="884.53,223.7983,893.9411,226.7021,889.4947,223.205,892.9918,218.7586,884.53,223.7983" style="stroke:#181818;stroke-width:1;"/><text fill="#000000" font-family="sans-serif" font-size="13" lengthAdjust="spacing" textLength="162.646" x="1506.64" y="163.0466">/mdd-cycle [description?]</text></g><!--link Orch to Gen--><g class="link" data-entity-1="ent0003" data-entity-2="ent0005" data-link-type="dependency" data-source-line="47" id="lnk20"><path d="M786.88,267.8683 C784.73,298.9083 781.873,340.1725 779.963,367.8525" fill="none" id="Orch-to-Gen" style="stroke:#181818;stroke-width:1;"/><polygon fill="#181818" points="779.55,373.8383,784.1601,365.135,779.8942,368.8501,776.179,364.5843,779.55,373.8383" style="stroke:#181818;stroke-width:1;"/><text fill="#000000" font-family="sans-serif" font-size="13" lengthAdjust="spacing" textLength="153.5117" x="785.16" y="319.5166">entry (description given)</text></g><!--link Orch to MapS--><g class="link" data-entity-1="ent0003" data-entity-2="ent0006" data-link-type="dependency" data-source-line="48" id="lnk21"><path d="M693.19,265.8383 C672.69,275.7483 652.77,288.8283 638,305.9483 C621.59,324.9583 616.1901,347.7858 613.9501,367.7158" fill="none" id="Orch-to-MapS" style="stroke:#181818;stroke-width:1;"/><polygon fill="#181818" points="613.28,373.6783,618.2602,365.1814,613.8385,368.7096,610.3102,364.2878,613.28,373.6783" style="stroke:#181818;stroke-width:1;"/><text fill="#000000" font-family="sans-serif" font-size="13" lengthAdjust="spacing" textLength="135.6621" x="639" y="319.5166">entry (no description)</text></g><!--link Orch to ValS--><g class="link" data-entity-1="ent0003" data-entity-2="ent0007" data-link-type="dependency" data-source-line="49" id="lnk22"><path d="M693.28,237.6583 C569.6,241.3683 349.78,258.7583 178,330.9483 C154.16,340.9683 135.4154,354.9745 118.9554,369.5245" fill="none" id="Orch-to-ValS" style="stroke:#181818;stroke-width:1;"/><polygon fill="#181818" points="114.46,373.4983,123.8524,370.5346,118.2062,370.1868,118.554,364.5406,114.46,373.4983" style="stroke:#181818;stroke-width:1;"/><text fill="#000000" font-family="sans-serif" font-size="13" lengthAdjust="spacing" textLength="27.3901" x="241.55" y="319.5166">gate</text></g><!--link Orch to ImplS--><g class="link" data-entity-1="ent0003" data-entity-2="ent0008" data-link-type="dependency" data-source-line="50" id="lnk23"><path d="M693.49,248.2483 C606.84,260.6683 476.98,285.3483 372,330.9483 C346.87,341.8583 326.0443,355.7743 307.4543,369.9243" fill="none" id="Orch-to-ImplS" style="stroke:#181818;stroke-width:1;"/><polygon fill="#181818" points="302.68,373.5583,312.2641,371.2901,306.6586,370.5299,307.4188,364.9244,302.68,373.5583" style="stroke:#181818;stroke-width:1;"/><text fill="#000000" font-family="sans-serif" font-size="13" lengthAdjust="spacing" textLength="65.3809" x="438.15" y="319.5166">write code</text></g><!--link Orch to RevS--><g class="link" data-entity-1="ent0003" data-entity-2="ent0009" data-link-type="dependency" data-source-line="51" id="lnk24"><path d="M693.31,261.1783 C643.97,276.3283 584.37,299.1283 537,330.9483 C517.37,344.1283 501.0843,356.7773 485.1543,369.8773" fill="none" id="Orch-to-RevS" style="stroke:#181818;stroke-width:1;"/><polygon fill="#181818" points="480.52,373.6883,490.0121,371.0613,484.3819,370.5125,484.9307,364.8823,480.52,373.6883" style="stroke:#181818;stroke-width:1;"/><text fill="#000000" font-family="sans-serif" font-size="13" lengthAdjust="spacing" textLength="36.0928" x="575.67" y="319.5166">parity</text></g><!--link Orch to Store--><g class="link" data-entity-1="ent0003" data-entity-2="ent0011" data-link-type="dependency" data-source-line="52" id="lnk25"><path d="M884.59,242.2783 C1082.59,253.6583 1523.22,284.0183 1572,330.9483 C1657.45,413.1483 1680.44,755.2283 1628,861.5783 C1612.37,893.2683 1588.8428,936.5362 1560.4528,955.8262" fill="none" id="Orch-to-Store" style="stroke:#181818;stroke-width:1;"/><polygon fill="#181818" points="1555.49,959.1983,1565.1822,957.4487,1559.6257,956.3882,1560.6862,950.8317,1555.49,959.1983" style="stroke:#181818;stroke-width:1;"/><text fill="#000000" font-family="sans-serif" font-size="13" lengthAdjust="spacing" textLength="251.8179" x="1654.45" y="608.6966">open / before / close / after / diff puml</text></g><!--link Orch to RenderCli--><g class="link" data-entity-1="ent0003" data-entity-2="ent0015" data-link-type="dependency" data-source-line="53" id="lnk26"><path d="M884.81,238.5083 C1035.22,242.7183 1316.39,260.1183 1382,330.9483 C1424.77,377.1183 1413.9551,451.8824 1402.7851,495.9224" fill="none" id="Orch-to-RenderCli" style="stroke:#181818;stroke-width:1;"/><polygon fill="#181818" points="1401.31,501.7383,1407.3999,493.9979,1402.5392,496.8917,1399.6454,492.0311,1401.31,501.7383" style="stroke:#181818;stroke-width:1;"/><text fill="#000000" font-family="sans-serif" font-size="13" lengthAdjust="spacing" textLength="150.6235" x="1412.97" y="402.2566">on close, `mdd render`</text></g><!--link RendS to RenderCli--><g class="link" data-entity-1="ent0010" data-entity-2="ent0015" data-link-type="dependency" data-source-line="54" id="lnk27"><path d="M987.25,420.8483 C1001.45,429.0683 1018.13,437.9183 1034,444.4383 C1110.25,475.7183 1194.4685,496.6618 1265.2085,510.9318" fill="none" id="RendS-to-RenderCli" style="stroke:#181818;stroke-width:1;"/><polygon fill="#181818" points="1271.09,512.1183,1263.0587,506.4176,1266.1887,511.1296,1261.4767,514.2596,1271.09,512.1183" style="stroke:#181818;stroke-width:1;"/><text fill="#000000" font-family="sans-serif" font-size="13" lengthAdjust="spacing" textLength="272.4858" x="1110.91" y="468.7266">thin wrapper: `mdd render [--only|paths]`</text></g><!--link RenderCli to DiffRend--><g class="link" data-entity-1="ent0015" data-entity-2="ent0016" data-link-type="dependency" data-source-line="55" id="lnk28"><path d="M1406.5,565.4383 C1413.39,579.7483 1421.89,596.9283 1430,612.1283 C1435.2,621.8683 1438.1077,627.1392 1443.5877,636.5792" fill="none" id="RenderCli-to-DiffRend" style="stroke:#181818;stroke-width:1;"/><polygon fill="#181818" points="1446.6,641.7683,1445.5409,631.9765,1444.0898,637.4441,1438.6222,635.9929,1446.6,641.7683" style="stroke:#181818;stroke-width:1;"/><text fill="#000000" font-family="sans-serif" font-size="13" lengthAdjust="spacing" textLength="182.5903" x="1431" y="608.6966">render_selection(project, sel)</text></g><!--link DiffRend to Core--><g class="link" data-entity-1="ent0016" data-entity-2="ent0014" data-link-type="dependency" data-source-line="56" id="lnk29"><path d="M1359.12,683.4083 C1280.6,692.0283 1182.16,707.9183 1152,735.1083 C1138.83,746.9783 1133.3829,759.3901 1130.1229,776.0401" fill="none" id="DiffRend-to-Core" style="stroke:#181818;stroke-width:1;"/><polygon fill="#181818" points="1128.97,781.9283,1134.6248,773.8646,1129.9307,777.0215,1126.7739,772.3274,1128.97,781.9283" style="stroke:#181818;stroke-width:1;"/><text fill="#000000" font-family="sans-serif" font-size="13" lengthAdjust="spacing" textLength="325.3237" x="1153" y="748.6766">all_render_sources (RenderTree::ALL, single source)</text></g><!--link DiffRend to Store--><g class="link" data-entity-1="ent0016" data-entity-2="ent0011" data-link-type="dependency" data-source-line="57" id="lnk30"><path d="M1476,705.3183 C1478.87,714.7483 1481.56,725.2383 1483,735.1083 C1493.3,805.8183 1486.2851,904.0925 1479.6051,953.4225" fill="none" id="DiffRend-to-Store" style="stroke:#181818;stroke-width:1;"/><polygon fill="#181818" points="1478.8,959.3683,1483.9715,950.9864,1479.4709,954.4135,1476.0439,949.9129,1478.8,959.3683" style="stroke:#181818;stroke-width:1;"/><text fill="#000000" font-family="sans-serif" font-size="13" lengthAdjust="spacing" textLength="130.895" x="1488.98" y="826.9066">read &lt;rel&gt;.diff.puml</text></g><!--link DiffRend to Rendered--><g class="link" data-entity-1="ent0016" data-entity-2="ent0012" data-link-type="dependency" data-source-line="58" id="lnk31"><path d="M1568.62,705.5383 C1648.24,729.2983 1752.4005,760.3827 1834.6405,784.9227" fill="none" id="DiffRend-to-Rendered" style="stroke:#181818;stroke-width:1;"/><polygon fill="#181818" points="1840.39,786.6383,1832.9095,780.2319,1835.5988,785.2086,1830.622,787.8978,1840.39,786.6383" style="stroke:#181818;stroke-width:1;"/><text fill="#000000" font-family="sans-serif" font-size="13" lengthAdjust="spacing" textLength="273.9839" x="1711" y="748.6766">write &lt;rel&gt;.diff.svg (rendered_mirror_path)</text></g><!--link Gen to Models--><g class="link" data-entity-1="ent0005" data-entity-2="ent0013" data-link-type="dependency" data-source-line="59" id="lnk32"><path d="M780.41,420.5183 C783.08,447.1783 787,493.1083 787,532.6483 C787,532.6483 787,532.6483 787,822.8383 C787,869.1983 787,938.1783 787,969.6683" fill="none" id="Gen-to-Models" style="stroke:#181818;stroke-width:1;"/><polygon fill="#181818" points="787,975.6683,791,966.6683,787,970.6683,783,966.6683,787,975.6683" style="stroke:#181818;stroke-width:1;"/><text fill="#000000" font-family="sans-serif" font-size="13" lengthAdjust="spacing" textLength="115.0449" x="788" y="678.6866">objective + @desc</text></g><!--link MapS to Models--><g class="link" data-entity-1="ent0006" data-entity-2="ent0013" data-link-type="dependency" data-source-line="60" id="lnk33"><path d="M612,420.5483 C612,447.2383 612,493.1983 612,532.6483 C612,532.6483 612,532.6483 612,822.8383 C612,884.9383 667.9506,946.6272 717.9906,972.2772" fill="none" id="MapS-to-Models" style="stroke:#181818;stroke-width:1;"/><polygon fill="#181818" points="723.33,975.0142,717.1455,967.3492,718.8805,972.7334,713.4963,974.4684,723.33,975.0142" style="stroke:#181818;stroke-width:1;"/><text fill="#000000" font-family="sans-serif" font-size="13" lengthAdjust="spacing" textLength="103.9683" x="613" y="678.6866">current + @desc</text></g><!--link Dev to Viewer--><g class="link" data-entity-1="ent0002" data-entity-2="ent0017" data-link-type="dependency" data-source-line="62" id="lnk34"><path d="M2069,119.6583 C2069,142.8383 2069,166.5483 2069,190.0383" fill="none" id="Dev-to-Viewer" style="stroke:#181818;stroke-width:1;"/><polygon fill="#181818" points="2069,196.0383,2073,187.0383,2069,191.0383,2065,187.0383,2069,196.0383" style="stroke:#181818;stroke-width:1;"/><text fill="#000000" font-family="sans-serif" font-size="13" lengthAdjust="spacing" textLength="60.3599" x="2070" y="163.0466">mdd view</text></g><!--link Viewer to Core--><g class="link" data-entity-1="ent0017" data-entity-2="ent0014" data-link-type="dependency" data-source-line="63" id="lnk35"><path d="M2024.08,276.3483 C1922.6,363.9283 1676.74,571.2483 1577,612.1283 C1479.58,652.0683 1443.42,613.8583 1342,642.1283 C1243.68,669.5483 1190.64,651.5583 1132,735.1083 C1122.66,748.4183 1120.0885,759.939 1120.3285,775.669" fill="none" id="Viewer-to-Core" style="stroke:#181818;stroke-width:1;"/><polygon fill="#181818" points="1120.42,781.6683,1124.2822,772.6083,1120.3437,776.6689,1116.2832,772.7304,1120.42,781.6683" style="stroke:#181818;stroke-width:1;"/><text fill="#000000" font-family="sans-serif" font-size="13" lengthAdjust="spacing" textLength="270.4609" x="1747.99" y="538.7166">descriptions(), cycle_registry(), cycle_diffs()</text></g><!--link Core to Store--><g class="link" data-entity-1="ent0014" data-entity-2="ent0011" data-link-type="dependency" data-source-line="64" id="lnk36"><path d="M1188.55,861.9683 C1214.73,877.5083 1245.81,894.9083 1275,908.5783 C1300.92,920.7083 1323.8513,930.1334 1350.9713,940.2934" fill="none" id="Core-to-Store" style="stroke:#181818;stroke-width:1;"/><polygon fill="#181818" points="1356.59,942.3983,1349.5653,935.4951,1351.9078,940.6442,1346.7587,942.9867,1356.59,942.3983" style="stroke:#181818;stroke-width:1;"/><text fill="#000000" font-family="sans-serif" font-size="13" lengthAdjust="spacing" textLength="169.4761" x="1276" y="905.1466">read manifest + snapshots</text></g><!--link Core to Models--><g class="link" data-entity-1="ent0014" data-entity-2="ent0013" data-link-type="dependency" data-source-line="65" id="lnk37"><path d="M1042.2,862.0083 C980.54,890.8383 903.7753,947.717 849.5353,973.077" fill="none" id="Core-to-Models" style="stroke:#181818;stroke-width:1;"/><polygon fill="#181818" points="844.1,975.6183,853.9471,975.4299,848.6294,973.5006,850.5587,968.1829,844.1,975.6183" style="stroke:#181818;stroke-width:1;"/><text fill="#000000" font-family="sans-serif" font-size="13" lengthAdjust="spacing" textLength="137.0078" x="977.8" y="905.1466">scan models + @desc</text></g><!--link Viewer to Rendered--><g class="link" data-entity-1="ent0017" data-entity-2="ent0012" data-link-type="dependency" data-source-line="66" id="lnk38"><path d="M2069,276.4083 C2069,308.5883 2069,355.3383 2069,396.1883 C2069,396.1883 2069,396.1883 2069,674.6183 C2069,719.8483 2039.2151,776.563 2008.2351,803.123" fill="none" id="Viewer-to-Rendered" style="stroke:#181818;stroke-width:1;"/><polygon fill="#181818" points="2003.68,807.0283,2013.1162,804.2072,2007.4759,803.7739,2007.9092,798.1337,2003.68,807.0283" style="stroke:#181818;stroke-width:1;"/><text fill="#000000" font-family="sans-serif" font-size="13" lengthAdjust="spacing" textLength="344.6206" x="2070" y="538.7166">load selected file's &lt;rel&gt;.diff.svg (Diagram sub-mode)</text></g><!--link Viewer to Egui--><g class="link" data-entity-1="ent0017" data-entity-2="ent0018" data-link-type="dependency" data-source-line="67" id="lnk39"><path d="M2087.75,276.0983 C2096.96,292.1483 2109.25,309.9883 2124,322.9483 C2148.93,344.8483 2176.0018,359.2841 2204.8818,371.1741" fill="none" id="Viewer-to-Egui" style="stroke:#181818;stroke-width:1;"/><polygon fill="#181818" points="2210.43,373.4583,2203.6305,366.3332,2205.8065,371.5548,2200.5849,373.7308,2210.43,373.4583" style="stroke:#181818;stroke-width:1;"/><text fill="#000000" font-family="sans-serif" font-size="13" lengthAdjust="spacing" textLength="200.6748" x="2125" y="319.5166">tree / diff toggle / card widgets</text></g><!--link Egui to Dev--><g class="link" data-entity-1="ent0018" data-entity-2="ent0002" data-link-type="dependency" data-source-line="68" id="lnk40"><path d="M2305.24,373.7483 C2322.85,355.8083 2340.98,329.8183 2330,305.9483 C2282.87,203.4683 2168.3819,133.1582 2108.9019,101.9182" fill="none" id="Egui-to-Dev" style="stroke:#181818;stroke-width:1;"/><polygon fill="#181818" points="2103.59,99.1283,2109.6979,106.8544,2108.0166,101.4532,2113.4178,99.7719,2103.59,99.1283" style="stroke:#181818;stroke-width:1;"/><text fill="#000000" font-family="sans-serif" font-size="13" lengthAdjust="spacing" textLength="296.0356" x="2313.84" y="241.2766">tree rail + Diagram/List diff + description card</text></g><?plantuml-src ZLTVRzis47_NfpZafH9gMItsfXHTCzjDZTbnO2SfXgPmQOcskSYKGCfElQx0FiG-uJx9xaZ9fcHts4jYahyxtXr_zqSlu9r8_TxuDkpzrXiDmicqzs4mkvjUtKscWVUYTJh3tK5Z6zVLsNZI7upSiuVXuEDWMftU3zsZ_l3z-t0wkEaFx2MAB_txsI2StjzOV6FNQZ0ofBDnPdRxmwlhwTNuSD2VZ2ljuU3cUdX3wl2ijrMAopBK8kMGFqkkz5eKm3GijY8hkt2tvg2VH9Q1ls7gAKLCG42DmhbArboNYfKYb_0IIiGc-oJZiCYtCcLgVmcRD0sJN1dbsY0KPobiyfHdm6IAQcXJ2xb2kLkL_ywJ4ah5EN2vtN2h_DA0I1TQctA5PoiXEVYf4ZikOR6lz7n135ZC5tjt9a1l5qc-sU1j0IYcIwx47zmOix46xWH_HgMLMwI738XIiLn6ATU94eLnyNvu2LqKY8oNEW9XNT8bUjWr0Nr7-1-GfmCNlr1KARma5Xa3JS1CY6Ce-QR8MCbr78_x_RbHCP_zEXoDqAcL8DDv2aB2nydqr_UZoKTxEEi0FLk1PsKEtIHZsvH755vSOAI_HaQ_FbuO6JdqvH94gI79SarkyA8LeEezAH9GR3UPxbu4PxmqIU2wvqRfpStR231wgT1Fn28fbiYQxdwJTM31bnYwg0DiYRVY_pUfO2l5Dc-xT6UNxWmwa21fIlHkiRVnDeHa9QYjBCM6dnZLIa7NiaHHVAEQbv5MYJMqgpJuGYPP5tgqZcEoO4uMp1NF0YYohGR-5VcUb7EwIvi8LvoDusyELNJ7w9pRLrFxQaaQjVFRQbyA3DFtjXEjMl437onrZHV4MNA2Z3A9naGMzUdbVFhxWCWE54p8SfumkMCwYFg3MMywlBqRJcw0Y4BKEgyy4mlKtRRHALfjSbSPZMhcDX_ZsFwVQvvXl2YVwYok3fmOKMR9_1aOwaARdXL3TcE6xl2FA94HGkxo9-BxMkNRrVh_93_uFVi3isjgK47iqfspP7r2t3Vuz0uNARyeOGpCNiL_XDUx5Mo4KhcoPTIWGYVLweUAdC96xeQrkvRdYxnSGyBmb-lWvQ5EWUPbNOboQKDErAwzl2DCTAYjJbc5Css1dhWK9JwToG8WkZ_XMy8_V_tjT0W_iPqZy3nCXrp1HP_lU9QZsHT40Lnv7WQ-G8ja2HV7qlCe_RhuKC-eAbvWf2ROKRm2BsGh3XVyA-OENVsSgwTbXdImPUm2lda0RUKhBiajRXHTSta6ic65EHspOdRcUCSoaTOQ7bXs3YFGNBx1jG4DSNKEfJYbZe5C-UuyWfwcGiXqvdttl6MU4GKksXnybFzTD1zbYwL6xOoQKbFdES8sX96o1vC8s1GtJLlZlMP5nE1aa0sfEMiyULrYuzWsaPTmvEEZDEoQrkMnMLVHeyOaW0Gtb_J8e-ODLJeWgUg4FqbonwDU9jeMrl8dnSctrScAKm4b5MrfMo4VPLLxEwPJphVYM783TCOjkXrmYgvbcj7XQkPBx82Kito5gbvrVtfbW0DSUHvc5eJXMvCh4Bj3n2Ud0VtysJC0Gc8o810rgprEJCuyiwBXAJW2AI-EI9c30tPWb1e8Ms6g73TDAk3kin8bDytaU4OvW4S5mxFzSTim5FUnQ4Xqrj8QVzWI6Lbwu__3zE5gh9wJnAMLw3JgesVIwWJijfFO5O1FOPZBRFzdmSgr_cpbhHJfg0c0AjfCyGlBLHp2S4pm3aWIwraFiNZFQx5ygnBiDlun6UBuQeGpIjKnBQ2bfmwL6PvRsTv4rgbxU8fMH_Bh8Z2tlMbE_WOUSSHGmEGnHNL1FY51C6zDm_SCEngOgWSS40TkMaeZWk9BEU9LEqvCt6d9fnclCJ0TTymyu0UU4Jk9HLqPqGOjMQ7NUQcFq8Eb6fFFVdJeWxMEIKxGiXorshV5DOrcB_H93FjsIANX8YIjWQkCqfIOPjkk8M-Ph-XfaTfCfV0iqXL7CmtGa0l3LWdGq8OMLXT48mo6LV7I3PZHutaoB-bRgopp3UHBspq19lMNLlDRh8k1mxh8CYmoYAeRefb26WqK9ASnosHbhgXtcNnabJu_pPCjTK3x9LBtyg3h4GN9f1F33kq4QcQi6SrtS9inMTwFHzKaI1yZG4be6gRKU8s6Gl6mvYpC7gwxC43pzYPS-3H4NuJZ_CFWTVowchZ0d_H6zMHpUtNt8HmFfzF9z9BYWoTcS4LbzWn1muT17x3-E85BcEQEL_y2?></g></svg>