<svg xmlns="http://www.w3.org/2000/svg" xmlns:xlink="http://www.w3.org/1999/xlink" contentStyleType="text/css" data-diagram-type="DESCRIPTION" height="517px" preserveAspectRatio="none" style="width:2166px;height:517px;background:#FFFFFF;" version="1.1" viewBox="0 0 2166 517" width="2166px" zoomAndPan="magnify"><?plantuml 1.2026.3?><defs/><g><g class="title" data-source-line="20"><text fill="#000000" font-family="sans-serif" font-size="14" font-weight="700" lengthAdjust="spacing" textLength="245.1709" x="957.2155" y="23.5352">/mdd-deploy ownership (current)</text></g><!--cluster canonical source of truth--><g class="cluster" data-qualified-name="canonical source of truth" data-source-line="32" id="ent0009"><path d="M1560.35,43.4883 L1741.9076,43.4883 A3.75,3.75 0 0 1 1744.4076,45.9883 L1751.4076,65.9766 L1911.35,65.9766 A2.5,2.5 0 0 1 1913.85,68.4766 L1913.85,171.4483 A2.5,2.5 0 0 1 1911.35,173.9483 L1560.35,173.9483 A2.5,2.5 0 0 1 1557.85,171.4483 L1557.85,45.9883 A2.5,2.5 0 0 1 1560.35,43.4883" fill="none" style="stroke:#000000;stroke-width:1.5;"/><line style="stroke:#000000;stroke-width:1.5;" x1="1557.85" x2="1751.4076" y1="65.9766" y2="65.9766"/><text fill="#000000" font-family="sans-serif" font-size="14" font-weight="700" lengthAdjust="spacing" textLength="180.5576" x="1561.85" y="59.0234">canonical source of truth</text></g><!--cluster existing gated MDD pipeline\n(unaffected)--><g class="cluster" data-qualified-name="existing gated MDD pipeline.n.unaffected." data-source-line="36" id="ent0011"><path d="M773.35,222.9483 L979.1342,222.9483 A3.75,3.75 0 0 1 981.6342,225.4483 L988.6342,261.9248 L1046.35,261.9248 A2.5,2.5 0 0 1 1048.85,264.4248 L1048.85,350.4283 A2.5,2.5 0 0 1 1046.35,352.9283 L773.35,352.9283 A2.5,2.5 0 0 1 770.85,350.4283 L770.85,225.4483 A2.5,2.5 0 0 1 773.35,222.9483" fill="none" style="stroke:#000000;stroke-width:1.5;"/><line style="stroke:#000000;stroke-width:1.5;" x1="770.85" x2="988.6342" y1="261.9248" y2="261.9248"/><text fill="#000000" font-family="sans-serif" font-size="14" font-weight="700" lengthAdjust="spacing" textLength="204.7842" x="774.85" y="238.4834">existing gated MDD pipeline</text><text fill="#000000" font-family="sans-serif" font-size="14" font-weight="700" lengthAdjust="spacing" textLength="87.4111" x="833.5365" y="254.9717">(unaffected)</text></g><!--entity Templates--><g class="entity" data-qualified-name="canonical source of truth.Templates" data-source-line="33" id="ent0010"><rect fill="#F1F1F1" height="79.4648" rx="2.5" ry="2.5" style="stroke:#181818;stroke-width:0.5;" width="324.3887" x="1573.66" y="78.4883"/><rect fill="#F1F1F1" height="10" style="stroke:#181818;stroke-width:0.5;" width="15" x="1878.0487" y="83.4883"/><rect fill="#F1F1F1" height="2" style="stroke:#181818;stroke-width:0.5;" width="4" x="1876.0487" y="85.4883"/><rect fill="#F1F1F1" height="2" style="stroke:#181818;stroke-width:0.5;" width="4" x="1876.0487" y="89.4883"/><text fill="#000000" font-family="sans-serif" font-size="14" lengthAdjust="spacing" textLength="235.1221" x="1588.66" y="112.0234">crates/mdd-core/src/templates.rs</text><text fill="#000000" font-family="sans-serif" font-size="14" lengthAdjust="spacing" textLength="284.3887" x="1588.66" y="128.5117">MDD_DEPLOY_SKILL + WORKFLOW_SKILLS</text><text fill="#000000" font-family="sans-serif" font-size="14" lengthAdjust="spacing" textLength="207.5732" x="1588.66" y="145">+ MDD_DEPLOY_PROFILE_DOC</text></g><!--entity Gate--><g class="entity" data-qualified-name="existing gated MDD pipeline.n.unaffected..Gate" data-source-line="37" id="ent0012"><rect fill="#F1F1F1" height="62.9766" rx="2.5" ry="2.5" style="stroke:#181818;stroke-width:0.5;" width="246.3975" x="786.65" y="273.9483"/><rect fill="#F1F1F1" height="10" style="stroke:#181818;stroke-width:0.5;" width="15" x="1013.0475" y="278.9483"/><rect fill="#F1F1F1" height="2" style="stroke:#181818;stroke-width:0.5;" width="4" x="1011.0475" y="280.9483"/><rect fill="#F1F1F1" height="2" style="stroke:#181818;stroke-width:0.5;" width="4" x="1011.0475" y="284.9483"/><text fill="#000000" font-family="sans-serif" font-size="14" lengthAdjust="spacing" textLength="206.3975" x="801.65" y="307.4834">/mdd-cycle / /mdd-validate /</text><text fill="#000000" font-family="sans-serif" font-size="14" lengthAdjust="spacing" textLength="175.875" x="801.65" y="323.9717">/mdd-review (parity gate)</text></g><!--entity Op--><g class="entity" data-qualified-name="Op" data-source-line="22" id="ent0002"><ellipse cx="1363.8459" cy="88.4683" fill="#F1F1F1" rx="8" ry="8" style="stroke:#181818;stroke-width:0.5;"/><path d="M1363.8459,96.4683 L1363.8459,123.4683 M1350.8459,104.4683 L1376.8459,104.4683 M1363.8459,123.4683 L1350.8459,138.4683 M1363.8459,123.4683 L1376.8459,138.4683" fill="none" style="stroke:#181818;stroke-width:0.5;"/><text fill="#000000" font-family="sans-serif" font-size="14" lengthAdjust="spacing" textLength="60.5117" x="1333.59" y="153.5034">Operator</text></g><!--entity Skill--><g class="entity" data-qualified-name="Skill" data-source-line="24" id="ent0003"><rect fill="#F1F1F1" height="62.9766" rx="2.5" ry="2.5" style="stroke:#181818;stroke-width:0.5;" width="131.5195" x="1485.09" y="273.9483"/><rect fill="#F1F1F1" height="10" style="stroke:#181818;stroke-width:0.5;" width="15" x="1596.6095" y="278.9483"/><rect fill="#F1F1F1" height="2" style="stroke:#181818;stroke-width:0.5;" width="4" x="1594.6095" y="280.9483"/><rect fill="#F1F1F1" height="2" style="stroke:#181818;stroke-width:0.5;" width="4" x="1594.6095" y="284.9483"/><text fill="#000000" font-family="sans-serif" font-size="14" lengthAdjust="spacing" textLength="91.5195" x="1500.09" y="307.4834">/mdd-deploy</text><text fill="#000000" font-family="sans-serif" font-size="14" lengthAdjust="spacing" textLength="79.6113" x="1500.09" y="323.9717">(utility skill)</text></g><!--entity Render--><g class="entity" data-qualified-name="Render" data-source-line="25" id="ent0004"><rect fill="#F1F1F1" height="62.9766" rx="2.5" ry="2.5" style="stroke:#181818;stroke-width:0.5;" width="270.7061" x="299.5" y="273.9483"/><rect fill="#F1F1F1" height="10" style="stroke:#181818;stroke-width:0.5;" width="15" x="550.2061" y="278.9483"/><rect fill="#F1F1F1" height="2" style="stroke:#181818;stroke-width:0.5;" width="4" x="548.2061" y="280.9483"/><rect fill="#F1F1F1" height="2" style="stroke:#181818;stroke-width:0.5;" width="4" x="548.2061" y="284.9483"/><text fill="#000000" font-family="sans-serif" font-size="14" lengthAdjust="spacing" textLength="90.6924" x="314.5" y="307.4834">/mdd-render</text><text fill="#000000" font-family="sans-serif" font-size="14" lengthAdjust="spacing" textLength="230.7061" x="314.5" y="323.9717">(thin wrapper over `mdd render`)</text></g><!--entity Store--><g class="entity" data-qualified-name="Store" data-source-line="27" id="ent0005"><path d="M985.91,423.7183 L1026.91,423.7183 A3.75,3.75 0 0 1 1029.41,426.2183 L1036.41,444.7183 L1263.7987,444.7183 A2.5,2.5 0 0 1 1266.2987,447.2183 L1266.2987,492.1948 A2.5,2.5 0 0 1 1263.7987,494.6948 L985.91,494.6948 A2.5,2.5 0 0 1 983.41,492.1948 L983.41,426.2183 A2.5,2.5 0 0 1 985.91,423.7183" fill="#F1F1F1" style="stroke:#181818;stroke-width:0.5;"/><line style="stroke:#181818;stroke-width:0.5;" x1="983.41" x2="1036.41" y1="444.7183" y2="444.7183"/><text fill="#000000" font-family="sans-serif" font-size="14" lengthAdjust="spacing" textLength="252.8887" x="993.41" y="465.2534">.mdd/deploy/azure-container-apps/</text><text fill="#000000" font-family="sans-serif" font-size="14" lengthAdjust="spacing" textLength="187.3662" x="993.41" y="481.7417">diagram.puml, runbook.md</text></g><!--entity Target--><g class="entity" data-qualified-name="Target" data-source-line="28" id="ent0006"><path d="M1304.08,423.7183 L1345.08,423.7183 A3.75,3.75 0 0 1 1347.58,426.2183 L1354.58,444.7183 L1529.6191,444.7183 A2.5,2.5 0 0 1 1532.1191,447.2183 L1532.1191,492.1948 A2.5,2.5 0 0 1 1529.6191,494.6948 L1304.08,494.6948 A2.5,2.5 0 0 1 1301.58,492.1948 L1301.58,426.2183 A2.5,2.5 0 0 1 1304.08,423.7183" fill="#F1F1F1" style="stroke:#181818;stroke-width:0.5;"/><line style="stroke:#181818;stroke-width:0.5;" x1="1301.58" x2="1354.58" y1="444.7183" y2="444.7183"/><text fill="#000000" font-family="sans-serif" font-size="14" lengthAdjust="spacing" textLength="133.834" x="1311.58" y="465.2534">../atlas-ate-server/</text><text fill="#000000" font-family="sans-serif" font-size="14" lengthAdjust="spacing" textLength="200.5391" x="1311.58" y="481.7417">infra/main.bicep (+ modules)</text></g><!--entity Rendered--><g class="entity" data-qualified-name="Rendered" data-source-line="29" id="ent0007"><path d="M8.5,423.7183 L49.5,423.7183 A3.75,3.75 0 0 1 52,426.2183 L59,444.7183 L197.2002,444.7183 A2.5,2.5 0 0 1 199.7002,447.2183 L199.7002,492.1948 A2.5,2.5 0 0 1 197.2002,494.6948 L8.5,494.6948 A2.5,2.5 0 0 1 6,492.1948 L6,426.2183 A2.5,2.5 0 0 1 8.5,423.7183" fill="#F1F1F1" style="stroke:#181818;stroke-width:0.5;"/><line style="stroke:#181818;stroke-width:0.5;" x1="6" x2="59" y1="444.7183" y2="444.7183"/><text fill="#000000" font-family="sans-serif" font-size="14" lengthAdjust="spacing" textLength="163.7002" x="16" y="465.2534">.mdd/rendered/deploy/</text><text fill="#000000" font-family="sans-serif" font-size="14" lengthAdjust="spacing" textLength="55.125" x="16" y="481.7417">**/*.svg</text></g><!--entity ProfileDoc--><g class="entity" data-qualified-name="ProfileDoc" data-source-line="30" id="ent0008"><path d="M1918.6,431.9583 L1959.6,431.9583 A3.75,3.75 0 0 1 1962.1,434.4583 L1969.1,452.9583 L2149.102,452.9583 A2.5,2.5 0 0 1 2151.602,455.4583 L2151.602,483.9466 A2.5,2.5 0 0 1 2149.102,486.4466 L1918.6,486.4466 A2.5,2.5 0 0 1 1916.1,483.9466 L1916.1,434.4583 A2.5,2.5 0 0 1 1918.6,431.9583" fill="#F1F1F1" style="stroke:#181818;stroke-width:0.5;"/><line style="stroke:#181818;stroke-width:0.5;" x1="1916.1" x2="1969.1" y1="452.9583" y2="452.9583"/><text fill="#000000" font-family="sans-serif" font-size="14" lengthAdjust="spacing" textLength="205.502" x="1926.1" y="473.4934">.mdd/docs/deploy-profile.md</text></g><g class="entity" data-qualified-name="GMN23" data-source-line="52" id="ent0024"><path d="M1567.09,438.8883 L1567.09,479.5094 L1880.609,479.5094 L1880.609,448.8883 L1870.609,438.8883 L1567.09,438.8883" fill="#FEFFDD" style="stroke:#181818;stroke-width:0.5;"/><path d="M1870.609,438.8883 L1870.609,448.8883 L1880.609,448.8883 L1870.609,438.8883" fill="#FEFFDD" style="stroke:#181818;stroke-width:1;"/><text fill="#000000" font-family="sans-serif" font-size="13" lengthAdjust="spacing" textLength="292.519" x="1573.09" y="456.4566">Guidance only. Never runs az / docker / brew.</text><text fill="#000000" font-family="sans-serif" font-size="13" lengthAdjust="spacing" textLength="213.4019" x="1573.09" y="471.7672">Realizes USE-DEPLOY-GUIDANCE.</text></g><g class="entity" data-qualified-name="GMN26" data-source-line="57" id="ent0027"><path d="M599.43,415.9283 L599.43,502.481 L948.2611,502.481 L948.2611,425.9283 L938.2611,415.9283 L599.43,415.9283" fill="#FEFFDD" style="stroke:#181818;stroke-width:0.5;"/><path d="M938.2611,415.9283 L938.2611,425.9283 L948.2611,425.9283 L938.2611,415.9283" fill="#FEFFDD" style="stroke:#181818;stroke-width:1;"/><text fill="#000000" font-family="sans-serif" font-size="13" lengthAdjust="spacing" textLength="327.8311" x="605.43" y="433.4966">/mdd-deploy is decoupled: no objective&lt;-&gt;current</text><text fill="#000000" font-family="sans-serif" font-size="13" lengthAdjust="spacing" textLength="254.7822" x="605.43" y="448.8072">parity, no security-marker parity. A UML</text><text fill="#000000" font-family="sans-serif" font-size="13" lengthAdjust="spacing" textLength="264.9385" x="605.43" y="464.1177">deployment diagram has no code-derived</text><text fill="#000000" font-family="sans-serif" font-size="13" lengthAdjust="spacing" textLength="288.5898" x="605.43" y="479.4283">counterpart, so by design it is not routed into</text><text fill="#000000" font-family="sans-serif" font-size="13" lengthAdjust="spacing" textLength="55.7896" x="605.43" y="494.7388">the gate.</text></g><!--link Op to Skill--><g class="link" data-entity-1="ent0002" data-entity-2="ent0003" data-link-type="dependency" data-source-line="40" id="lnk13"><path d="M1394.31,149.3883 C1428.88,183.6283 1480.6966,234.9565 1515.5166,269.4365" fill="none" id="Op-to-Skill" style="stroke:#181818;stroke-width:1;"/><polygon fill="#181818" points="1519.78,273.6583,1516.1994,264.4833,1516.2272,270.1401,1510.5704,270.1679,1519.78,273.6583" style="stroke:#181818;stroke-width:1;"/><text fill="#000000" font-family="sans-serif" font-size="13" lengthAdjust="spacing" textLength="180.4067" x="1452.74" y="203.5166">/mdd-deploy &lt;description&gt;</text></g><!--link Templates to Skill--><g class="link" data-entity-1="ent0010" data-entity-2="ent0003" data-link-type="dependency" data-source-line="41" id="lnk14"><path d="M1697.07,158.0483 C1662.74,192.4183 1617.54,237.663 1585.87,269.373" fill="none" id="Templates-to-Skill" style="stroke:#181818;stroke-width:1;stroke-dasharray:7,7;"/><polygon fill="#181818" points="1581.63,273.6183,1590.8202,270.0769,1585.1633,270.0805,1585.1597,264.4237,1581.63,273.6183" style="stroke:#181818;stroke-width:1;"/><text fill="#000000" font-family="sans-serif" font-size="13" lengthAdjust="spacing" textLength="170.3013" x="1660.92" y="203.5166">materialized by `mdd init`</text></g><!--link Templates to ProfileDoc--><g class="link" data-entity-1="ent0010" data-entity-2="ent0008" data-link-type="dependency" data-source-line="42" id="lnk15"><path d="M1800.96,158.3683 C1814.5,167.8883 1828.18,178.6183 1839.85,189.9483 C1919.41,267.2483 1986.2627,396.2664 2015.8327,447.3164" fill="none" id="Templates-to-ProfileDoc" style="stroke:#181818;stroke-width:1;stroke-dasharray:7,7;"/><polygon fill="#181818" points="2018.84,452.5083,2017.7903,442.7155,2016.3339,448.1817,2010.8677,446.7253,2018.84,452.5083" style="stroke:#181818;stroke-width:1;"/><text fill="#000000" font-family="sans-serif" font-size="13" lengthAdjust="spacing" textLength="170.3013" x="1975.05" y="310.5066">materialized by `mdd init`</text></g><!--link Skill to Store--><g class="link" data-entity-1="ent0003" data-entity-2="ent0005" data-link-type="dependency" data-source-line="43" id="lnk16"><path d="M1484.85,306.9283 C1413.56,310.0283 1298.57,322.6383 1211.85,368.9283 C1187.41,381.9683 1169.466,420.65 1153.826,439.71" fill="none" id="Skill-to-Store" style="stroke:#181818;stroke-width:1;"/><polygon fill="#181818" points="1150.02,444.3483,1158.8213,439.9282,1153.1917,440.483,1152.6369,434.8534,1150.02,444.3483" style="stroke:#181818;stroke-width:1;"/><text fill="#000000" font-family="sans-serif" font-size="13" lengthAdjust="spacing" textLength="219.6289" x="1212.85" y="382.4966">write diagram.puml + runbook.md</text></g><!--link Skill to Target--><g class="link" data-entity-1="ent0003" data-entity-2="ent0006" data-link-type="dependency" data-source-line="44" id="lnk17"><path d="M1487.49,337.3383 C1474.07,346.1083 1460.93,356.6683 1450.85,368.9283 C1438,384.5583 1431.3704,420.8113 1426.1704,438.5213" fill="none" id="Skill-to-Target" style="stroke:#181818;stroke-width:1;"/><polygon fill="#181818" points="1424.48,444.2783,1430.8535,436.7697,1425.8886,439.4808,1423.1776,434.5159,1424.48,444.2783" style="stroke:#181818;stroke-width:1;"/><text fill="#000000" font-family="sans-serif" font-size="13" lengthAdjust="spacing" textLength="245.5908" x="1451.85" y="382.4966">generate infra/main.bicep (+ modules)</text></g><!--link Skill to ProfileDoc--><g class="link" data-entity-1="ent0003" data-entity-2="ent0008" data-link-type="dependency" data-source-line="45" id="lnk18"><path d="M1617,327.2183 C1703.29,354.3383 1848.6658,400.0199 1943.2958,429.7499" fill="none" id="Skill-to-ProfileDoc" style="stroke:#181818;stroke-width:1;stroke-dasharray:7,7;"/><polygon fill="#181818" points="1949.02,431.5483,1941.6327,425.0346,1944.2499,430.0496,1939.2349,432.6668,1949.02,431.5483" style="stroke:#181818;stroke-width:1;"/><text fill="#000000" font-family="sans-serif" font-size="13" lengthAdjust="spacing" textLength="125.0742" x="1793.35" y="382.4966">follows conventions</text></g><!--link Op to Render--><g class="link" data-entity-1="ent0002" data-entity-2="ent0004" data-link-type="dependency" data-source-line="46" id="lnk19"><path d="M1333.1,123.0783 C1244.99,134.3583 984.26,169.4183 770.85,214.9483 C692.92,231.5783 611.7934,253.215 545.9034,271.855" fill="none" id="Op-to-Render" style="stroke:#181818;stroke-width:1;"/><polygon fill="#181818" points="540.13,273.4883,549.879,274.8873,544.9412,272.1272,547.7013,267.1894,540.13,273.4883" style="stroke:#181818;stroke-width:1;"/><text fill="#000000" font-family="sans-serif" font-size="13" lengthAdjust="spacing" textLength="254.8457" x="884.57" y="203.5166">/mdd-render (or `mdd render` directly)</text></g><!--link Render to Store--><g class="link" data-entity-1="ent0004" data-entity-2="ent0005" data-link-type="dependency" data-source-line="47" id="lnk20"><path d="M448.8,337.0883 C458.5,354.5983 473.23,375.1583 492.85,385.9283 C585.18,436.5983 861.9,398.9783 965.85,415.9283 C978.11,417.9283 984.9466,419.15 997.5566,421.99" fill="none" id="Render-to-Store" style="stroke:#181818;stroke-width:1;"/><polygon fill="#181818" points="1003.41,423.3083,995.5088,417.4286,998.5322,422.2097,993.7511,425.2331,1003.41,423.3083" style="stroke:#181818;stroke-width:1;"/><text fill="#000000" font-family="sans-serif" font-size="13" lengthAdjust="spacing" textLength="421.8398" x="493.85" y="382.4966">`mdd render` reads .mdd/deploy/**/*.puml (Project-enumerated)</text></g><!--link Render to Rendered--><g class="link" data-entity-1="ent0004" data-entity-2="ent0007" data-link-type="dependency" data-source-line="48" id="lnk21"><path d="M299.08,314.4483 C217.81,322.3983 125.46,338.0983 99.85,368.9283 C87.56,383.7183 86.712,420.2431 90.312,438.3831" fill="none" id="Render-to-Rendered" style="stroke:#181818;stroke-width:1;"/><polygon fill="#181818" points="91.48,444.2683,93.6515,434.6618,90.5067,439.3639,85.8046,436.2191,91.48,444.2683" style="stroke:#181818;stroke-width:1;"/><text fill="#000000" font-family="sans-serif" font-size="13" lengthAdjust="spacing" textLength="290.9131" x="100.85" y="382.4966">write .mdd/rendered/deploy/**/*.svg (mirror)</text></g><!--link Gate to Store--><g class="link" data-entity-1="ent0012" data-entity-2="ent0005" data-link-type="dependency" data-source-line="49" id="lnk22"><path d="M913.48,337.2483 C916.84,353.5183 923.34,372.7783 935.85,385.9283 C950.63,401.4483 963.7059,411.0303 983.2659,420.6503" fill="none" id="Gate-to-Store" style="stroke:#181818;stroke-width:1;stroke-dasharray:7,7;"/><polygon fill="#181818" points="988.65,423.2983,982.3392,415.7369,984.1633,421.0916,978.8086,422.9157,988.65,423.2983" style="stroke:#181818;stroke-width:1;"/><text fill="#000000" font-family="sans-serif" font-size="13" lengthAdjust="spacing" textLength="194.1621" x="936.85" y="382.4966">NEVER reads (outside the gate)</text></g><!--link Skill to GMN23--><g class="link" data-entity-1="ent0003" data-entity-2="ent0024" data-link-type="association" data-source-line="52" id="lnk25"><path d="M1616.92,319.4383 C1646.81,328.5383 1680.21,343.7483 1701.85,368.9283 C1718.6,388.4183 1722.99,418.6983 1723.93,438.4983" fill="none" id="Skill-GMN23" style="stroke:#181818;stroke-width:1;stroke-dasharray:7,7;"/></g><!--link Gate to GMN26--><g class="link" data-entity-1="ent0012" data-entity-2="ent0027" data-link-type="association" data-source-line="57" id="lnk28"><path d="M892.93,337.3583 C883.81,352.7183 871.8,371.1083 858.85,385.9283 C849.8,396.2783 839.23,406.4483 828.68,415.7483" fill="none" id="Gate-GMN26" style="stroke:#181818;stroke-width:1;stroke-dasharray:7,7;"/></g><?plantuml-src bLTTR-8u57tFhxZYPM1AmZipggOgJ5LD2nLbTZHI9SOa1hnDxCXsOEXg__iUsu66ZtPtdqgIUw_lnpdtk1_eYyZQr_SFyM3uS3V-6Jz-kxsxwqGVJjvFnvFXcVVJgydDS7hcmsGu6WmdPpuyJCPVR--6yM1yxRzglcX_VnpkFjzylnrSZQw7vxxTZXuVXjVJ_QV1-Bu-9nwERcv7pWdVhYkjkRIn4HadjP5ScvKeQQugcJ4jkA65qjGhiYpEU9chBJ53eYXpNi2DPucBmQII8cKv6LNf574MP7LbLoGCfPfPRdo0L6dUCphjMOu0xdMYpIUoAuuWIPgpAkEz95KP_qs-jqcHKI6qLjeGandXEUjbAZMza4jSQhKGENTsJBie1Q9gmNBnmZEQR-aNF4X8ONzH-q6hFtbg-tttFDi8kvgbIYvoaThP2k5phZk9RygNZ9lqPD9TQjs-5jwdVHNz_lrWC0kcCszA5oIieSTdaUVJsepWfhT8fkduOppvzlLk_2EuFNOF2n3IggF6z8oBQHe3wUrQbT1D9J8cKnuhcMy_aUHhhed_vcc5muXHFS5K5GNg_OGtHinp8PTkOZuai91ntILLMOy8p8PAuC1kQOdCabRdR7iSuD6UnvAdOY52wzzfJx-UPCZ_isLwoUrbZzgPO4lDYgIiYXmzr9MSA_KCuquNGEA8bf6IFgk5qCOU01FM2OsOhJJBy-s-16-oHaSpDmG7exhIjU0RCgagUPToyHoA1PBZfJ_7frYmiWSiyxSg3vJ-NwMxKqB63aWKYYVDIumwwJ6RCnF3DpPShzqeK7P6a-7L81wFxdvwEbfLgbmjjsYHmN3zU8HSOqvCMZ1goS5ZNuIG2yrGXP39NAIyf0sCBVSjrEY69O-d6BqZAugtoWoBuuG0gAGvo8yVUn_3w5p77FcTnI1CPww1p9K36ZncRXNq-nEFjgapVcLdWE0ih1A3mIiPDWfYkRWXgW5gSnxu7Jn-xN2DlsYSeJChhrkl4tJ6CSlb7fpvOH5clKoEfnWYrVn6RL9jG22x0g4tcfKbg6PNQ2ZsO6uE4tD9EKfIfjn2hLvUjcIgkS7SGN46w5sGWxvKneeKLU8tJ-WgouGLQy2pHYLgVcD03Q4udj8xI_DetIoqAffL1_jPRJz336ety5oVENFYv53_7_PhGWELLYwpC4NsKcaENK0J120ReuscGOwutWUOg5pZMIWPXC3vxW5FwOgdpxamrZN72flpWxtmgchjDAXT9ufOQa6arhXqH56wvMHjN4OHC5G2S8ZQQiHuaktAYjpnpFEbu-tzUZ_n24E7nm4q72GFG15210P4qKBb-4kj9ftEDQVt99ixijjOaI4brC9Vevtk4mGusGdj2ofKLkLWcmyozIlfCATZcZp97L4QTV3ig92pgFCE3-4HS8YYagNF03orqhSk4YtwAo9gTFhVRXLFyema7udjaxoWyt0ENTY5Y_vkfCX_0sTECOD8m9zAKNA8A7SWaMon00TurZb9EIIxJHqwZqG9tMngKhkXk64YD_ZbqXYN5CUN0NZKFq3vPxSIj2WTIIwZVVBGb5Vxjsz7HmwlqtdVAmJsAJdWmTZf2wStTRpX4L06bvrQqNl0h1rFaWFUShKnpGsnwrB0vAvD0S3KLeSqHAeQ0yktdQYsRrPpOEc4sBmXU3lvYhd4UlFQUn1mnuzzXzxL7ce7cUf4Rl1XX7L6e-4VmqcTIhjvI_DWYIAfu31NrcALWprXHT7-PkXb2BSaVpF4MB1ENm174FKPBtfGQRv9O3_XVjw6plotaKH8czn19yTvdD81BeLRwAcge4WG8wb8pLsZ86kVuyjw7yCbGDuftVvA4nTCkwp29yWXVR-_WsdZyhJJXnLpUapkXenpDO9dddmL9533ttQnKHnsGHAnbBYS1mN7lGizh6_QyDWryhN4Vm00?></g></svg>