<svg xmlns="http://www.w3.org/2000/svg" xmlns:xlink="http://www.w3.org/1999/xlink" contentStyleType="text/css" data-diagram-type="DESCRIPTION" height="739px" preserveAspectRatio="none" style="width:1724px;height:739px;background:#FFFFFF;" version="1.1" viewBox="0 0 1724 739" width="1724px" zoomAndPan="magnify"><?plantuml 1.2026.3?><defs/><g><g class="title" data-source-line="5"><text fill="#000000" font-family="sans-serif" font-size="14" font-weight="700" lengthAdjust="spacing" textLength="369.8105" x="673.7947" y="23.5352">mdd-viewer render pipeline &#8212; ownership (current)</text></g><!--cluster SVG rasterization (external crates)--><g class="cluster" data-qualified-name="SVG rasterization .external crates." data-source-line="15" id="ent0008"><path d="M1286.9,322.4483 L1535.0396,322.4483 A3.75,3.75 0 0 1 1537.5396,324.9483 L1544.5396,344.9366 L1706.9,344.9366 A2.5,2.5 0 0 1 1709.4,347.4366 L1709.4,586.1483 A2.5,2.5 0 0 1 1706.9,588.6483 L1286.9,588.6483 A2.5,2.5 0 0 1 1284.4,586.1483 L1284.4,324.9483 A2.5,2.5 0 0 1 1286.9,322.4483" fill="none" style="stroke:#000000;stroke-width:1.5;"/><line style="stroke:#000000;stroke-width:1.5;" x1="1284.4" x2="1544.5396" y1="344.9366" y2="344.9366"/><text fill="#000000" font-family="sans-serif" font-size="14" font-weight="700" lengthAdjust="spacing" textLength="247.1396" x="1288.4" y="337.9834">SVG rasterization (external crates)</text></g><!--entity Usvg--><g class="entity" data-qualified-name="SVG rasterization .external crates..Usvg" data-source-line="16" id="ent0009"><rect fill="#F1F1F1" height="62.9766" rx="2.5" ry="2.5" style="stroke:#181818;stroke-width:0.5;" width="245.9736" x="1309.41" y="357.4483"/><rect fill="#F1F1F1" height="10" style="stroke:#181818;stroke-width:0.5;" width="15" x="1535.3836" y="362.4483"/><rect fill="#F1F1F1" height="2" style="stroke:#181818;stroke-width:0.5;" width="4" x="1533.3836" y="364.4483"/><rect fill="#F1F1F1" height="2" style="stroke:#181818;stroke-width:0.5;" width="4" x="1533.3836" y="368.4483"/><text fill="#000000" font-family="sans-serif" font-size="14" lengthAdjust="spacing" textLength="67.2178" x="1324.41" y="390.9834">usvg 0.44</text><text fill="#000000" font-family="sans-serif" font-size="14" lengthAdjust="spacing" textLength="205.9736" x="1324.41" y="407.4717">Options { fontdb, font_family }</text></g><!--entity FontDb--><g class="entity" data-qualified-name="SVG rasterization .external crates..FontDb" data-source-line="17" id="ent0010"><rect fill="#F1F1F1" height="62.9766" rx="2.5" ry="2.5" style="stroke:#181818;stroke-width:0.5;" width="222.957" x="1299.92" y="509.6683"/><rect fill="#F1F1F1" height="10" style="stroke:#181818;stroke-width:0.5;" width="15" x="1502.877" y="514.6683"/><rect fill="#F1F1F1" height="2" style="stroke:#181818;stroke-width:0.5;" width="4" x="1500.877" y="516.6683"/><rect fill="#F1F1F1" height="2" style="stroke:#181818;stroke-width:0.5;" width="4" x="1500.877" y="520.6683"/><text fill="#000000" font-family="sans-serif" font-size="14" lengthAdjust="spacing" textLength="80.7119" x="1314.92" y="543.2034">fontdb 0.22</text><text fill="#000000" font-family="sans-serif" font-size="14" lengthAdjust="spacing" textLength="182.957" x="1314.92" y="559.6917">(system fonts loaded once)</text></g><!--entity Resvg--><g class="entity" data-qualified-name="SVG rasterization .external crates..Resvg" data-source-line="18" id="ent0011"><rect fill="#F1F1F1" height="62.9766" rx="2.5" ry="2.5" style="stroke:#181818;stroke-width:0.5;" width="135.9014" x="1557.45" y="509.6683"/><rect fill="#F1F1F1" height="10" style="stroke:#181818;stroke-width:0.5;" width="15" x="1673.3514" y="514.6683"/><rect fill="#F1F1F1" height="2" style="stroke:#181818;stroke-width:0.5;" width="4" x="1671.3514" y="516.6683"/><rect fill="#F1F1F1" height="2" style="stroke:#181818;stroke-width:0.5;" width="4" x="1671.3514" y="520.6683"/><text fill="#000000" font-family="sans-serif" font-size="14" lengthAdjust="spacing" textLength="87.6162" x="1572.45" y="543.2034">resvg 0.44 +</text><text fill="#000000" font-family="sans-serif" font-size="14" lengthAdjust="spacing" textLength="95.9014" x="1572.45" y="559.6917">tiny-skia 0.11</text></g><!--entity Dev--><g class="entity" data-qualified-name="Dev" data-source-line="7" id="ent0002"><ellipse cx="88.3992" cy="51.4883" fill="#F1F1F1" rx="8" ry="8" style="stroke:#181818;stroke-width:0.5;"/><path d="M88.3992,59.4883 L88.3992,86.4883 M75.3992,67.4883 L101.3992,67.4883 M88.3992,86.4883 L75.3992,101.4883 M88.3992,86.4883 L101.3992,101.4883" fill="none" style="stroke:#181818;stroke-width:0.5;"/><text fill="#000000" font-family="sans-serif" font-size="14" lengthAdjust="spacing" textLength="68.3184" x="54.24" y="116.5234">Developer</text></g><!--entity Cli--><g class="entity" data-qualified-name="Cli" data-source-line="9" id="ent0003"><rect fill="#F1F1F1" height="62.9766" rx="2.5" ry="2.5" style="stroke:#181818;stroke-width:0.5;" width="157.4414" x="231.68" y="196.4683"/><rect fill="#F1F1F1" height="10" style="stroke:#181818;stroke-width:0.5;" width="15" x="369.1214" y="201.4683"/><rect fill="#F1F1F1" height="2" style="stroke:#181818;stroke-width:0.5;" width="4" x="367.1214" y="203.4683"/><rect fill="#F1F1F1" height="2" style="stroke:#181818;stroke-width:0.5;" width="4" x="367.1214" y="207.4683"/><text fill="#000000" font-family="sans-serif" font-size="14" lengthAdjust="spacing" textLength="54.0586" x="246.68" y="230.0034">mdd-cli</text><text fill="#000000" font-family="sans-serif" font-size="14" lengthAdjust="spacing" textLength="117.4414" x="246.68" y="246.4917">Commands::View</text></g><!--entity Viewer--><g class="entity" data-qualified-name="Viewer" data-source-line="10" id="ent0004"><rect fill="#F1F1F1" height="79.4648" rx="2.5" ry="2.5" style="stroke:#181818;stroke-width:0.5;" width="245.6797" x="672.56" y="349.2083"/><rect fill="#F1F1F1" height="10" style="stroke:#181818;stroke-width:0.5;" width="15" x="898.2397" y="354.2083"/><rect fill="#F1F1F1" height="2" style="stroke:#181818;stroke-width:0.5;" width="4" x="896.2397" y="356.2083"/><rect fill="#F1F1F1" height="2" style="stroke:#181818;stroke-width:0.5;" width="4" x="896.2397" y="360.2083"/><text fill="#000000" font-family="sans-serif" font-size="14" lengthAdjust="spacing" textLength="82.2021" x="687.56" y="382.7434">mdd-viewer</text><text fill="#000000" font-family="sans-serif" font-size="14" lengthAdjust="spacing" textLength="171.9512" x="687.56" y="399.2317">MddViewer (eframe::App)</text><text fill="#000000" font-family="sans-serif" font-size="14" lengthAdjust="spacing" textLength="205.6797" x="687.56" y="415.72">DiagramPage, shared_fontdb()</text></g><!--entity Core--><g class="entity" data-qualified-name="Core" data-source-line="11" id="ent0005"><rect fill="#F1F1F1" height="62.9766" rx="2.5" ry="2.5" style="stroke:#181818;stroke-width:0.5;" width="237.6953" x="382.55" y="509.6683"/><rect fill="#F1F1F1" height="10" style="stroke:#181818;stroke-width:0.5;" width="15" x="600.2453" y="514.6683"/><rect fill="#F1F1F1" height="2" style="stroke:#181818;stroke-width:0.5;" width="4" x="598.2453" y="516.6683"/><rect fill="#F1F1F1" height="2" style="stroke:#181818;stroke-width:0.5;" width="4" x="598.2453" y="520.6683"/><text fill="#000000" font-family="sans-serif" font-size="14" lengthAdjust="spacing" textLength="68.0928" x="397.55" y="543.2034">mdd-core</text><text fill="#000000" font-family="sans-serif" font-size="14" lengthAdjust="spacing" textLength="197.6953" x="397.55" y="559.6917">Project, ModelRegistry, Trace</text></g><!--entity Rendered--><g class="entity" data-qualified-name="Rendered" data-source-line="12" id="ent0006"><path d="M716.92,505.6683 L757.92,505.6683 A3.75,3.75 0 0 1 760.42,508.1683 L767.42,526.6683 L873.8741,526.6683 A2.5,2.5 0 0 1 876.3741,529.1683 L876.3741,574.1448 A2.5,2.5 0 0 1 873.8741,576.6448 L716.92,576.6448 A2.5,2.5 0 0 1 714.42,574.1448 L714.42,508.1683 A2.5,2.5 0 0 1 716.92,505.6683" fill="#F1F1F1" style="stroke:#181818;stroke-width:0.5;"/><line style="stroke:#181818;stroke-width:0.5;" x1="714.42" x2="767.42" y1="526.6683" y2="526.6683"/><text fill="#000000" font-family="sans-serif" font-size="14" lengthAdjust="spacing" textLength="110.9746" x="724.42" y="547.2034">.mdd/rendered/</text><text fill="#000000" font-family="sans-serif" font-size="14" lengthAdjust="spacing" textLength="131.9541" x="724.42" y="563.6917">(pre-rendered SVG)</text></g><!--entity Models--><g class="entity" data-qualified-name="Models" data-source-line="13" id="ent0007"><path d="M382.34,662.0183 L423.34,662.0183 A3.75,3.75 0 0 1 425.84,664.5183 L432.84,683.0183 L620.464,683.0183 A2.5,2.5 0 0 1 622.964,685.5183 L622.964,714.0066 A2.5,2.5 0 0 1 620.464,716.5066 L382.34,716.5066 A2.5,2.5 0 0 1 379.84,714.0066 L379.84,664.5183 A2.5,2.5 0 0 1 382.34,662.0183" fill="#F1F1F1" style="stroke:#181818;stroke-width:0.5;"/><line style="stroke:#181818;stroke-width:0.5;" x1="379.84" x2="432.84" y1="683.0183" y2="683.0183"/><text fill="#000000" font-family="sans-serif" font-size="14" lengthAdjust="spacing" textLength="213.124" x="389.84" y="703.5534">.mdd/models/, .mdd/trace.yml</text></g><!--entity Egui--><g class="entity" data-qualified-name="Egui" data-source-line="20" id="ent0012"><rect fill="#F1F1F1" height="62.9766" rx="2.5" ry="2.5" style="stroke:#181818;stroke-width:0.5;" width="222.7998" x="7" y="509.6683"/><rect fill="#F1F1F1" height="10" style="stroke:#181818;stroke-width:0.5;" width="15" x="209.7998" y="514.6683"/><rect fill="#F1F1F1" height="2" style="stroke:#181818;stroke-width:0.5;" width="4" x="207.7998" y="516.6683"/><rect fill="#F1F1F1" height="2" style="stroke:#181818;stroke-width:0.5;" width="4" x="207.7998" y="520.6683"/><text fill="#000000" font-family="sans-serif" font-size="14" lengthAdjust="spacing" textLength="128.1602" x="22" y="543.2034">eframe / egui 0.30</text><text fill="#000000" font-family="sans-serif" font-size="14" lengthAdjust="spacing" textLength="182.7998" x="22" y="559.6917">(window, painter, textures)</text></g><g class="entity" data-qualified-name="GMN26" data-source-line="37" id="ent0027"><path d="M1265.01,653.6483 L1265.01,724.8905 A0,0 0 0 0 1265.01,724.8905 L1557.7976,724.8905 A0,0 0 0 0 1557.7976,724.8905 L1557.7976,663.6483 L1547.7976,653.6483 L1415.4,653.6483 L1411.4,573.1483 L1407.4,653.6483 L1265.01,653.6483 A0,0 0 0 0 1265.01,653.6483" fill="#FEFFDD" style="stroke:#181818;stroke-width:0.5;"/><path d="M1547.7976,653.6483 L1547.7976,663.6483 L1557.7976,663.6483 L1547.7976,653.6483" fill="#FEFFDD" style="stroke:#181818;stroke-width:0.5;"/><text fill="#000000" font-family="sans-serif" font-size="13" lengthAdjust="spacing" textLength="262.7739" x="1271.01" y="671.2166">The font database lives HERE, not in egui.</text><text fill="#000000" font-family="sans-serif" font-size="13" lengthAdjust="spacing" textLength="252.9604" x="1271.01" y="686.5272">Loaded once via shared_fontdb()'s static</text><text fill="#000000" font-family="sans-serif" font-size="13" lengthAdjust="spacing" textLength="271.7876" x="1271.01" y="701.8377">OnceLock and Arc-cloned per parse. egui's</text><text fill="#000000" font-family="sans-serif" font-size="13" lengthAdjust="spacing" textLength="223.7549" x="1271.01" y="717.1483">`default_fonts` is a separate stack.</text></g><!--link Dev to Cli--><g class="link" data-entity-1="ent0002" data-entity-2="ent0003" data-link-type="dependency" data-source-line="22" id="lnk13"><path d="M122.6,104.5283 C160.18,129.0283 215.7737,165.2717 257.9437,192.7617" fill="none" id="Dev-to-Cli" style="stroke:#181818;stroke-width:1;"/><polygon fill="#181818" points="262.97,196.0383,257.6149,187.7725,258.7814,193.3078,253.2461,194.4743,262.97,196.0383" style="stroke:#181818;stroke-width:1;"/><text fill="#000000" font-family="sans-serif" font-size="13" lengthAdjust="spacing" textLength="60.3599" x="213.69" y="163.0366">mdd view</text></g><!--link Cli to Viewer--><g class="link" data-entity-1="ent0003" data-entity-2="ent0004" data-link-type="dependency" data-source-line="23" id="lnk14"><path d="M389.4,254.8583 C467.11,280.3283 581.0386,317.6691 670.3486,346.9491" fill="none" id="Cli-to-Viewer" style="stroke:#181818;stroke-width:1;"/><polygon fill="#181818" points="676.05,348.8183,668.744,342.2136,671.2988,347.2606,666.2518,349.8154,676.05,348.8183" style="stroke:#181818;stroke-width:1;"/><text fill="#000000" font-family="sans-serif" font-size="13" lengthAdjust="spacing" textLength="74.1152" x="539.36" y="303.0166">run(project)</text></g><!--link Cli to Core--><g class="link" data-entity-1="ent0003" data-entity-2="ent0005" data-link-type="dependency" data-source-line="24" id="lnk15"><path d="M303.94,259.9183 C295.25,310.5783 285.98,411.9283 334.4,475.6683 C346.71,491.8783 358.2806,501.3608 376.6806,510.4508" fill="none" id="Cli-to-Core" style="stroke:#181818;stroke-width:1;"/><polygon fill="#181818" points="382.06,513.1083,375.7626,505.5358,377.5772,510.8937,372.2193,512.7082,382.06,513.1083" style="stroke:#181818;stroke-width:1;"/><text fill="#000000" font-family="sans-serif" font-size="13" lengthAdjust="spacing" textLength="103.9365" x="310.48" y="394.0066">Project::discover</text></g><!--link Viewer to Core--><g class="link" data-entity-1="ent0004" data-entity-2="ent0005" data-link-type="dependency" data-source-line="25" id="lnk16"><path d="M672.3,425.1383 C647.1,434.4683 621.31,445.6383 598.4,458.6683 C574.12,472.4783 554.4553,488.564 536.3653,505.374" fill="none" id="Viewer-to-Core" style="stroke:#181818;stroke-width:1;"/><polygon fill="#181818" points="531.97,509.4583,541.2858,506.262,535.6327,506.0547,535.8401,500.4017,531.97,509.4583" style="stroke:#181818;stroke-width:1;"/><text fill="#000000" font-family="sans-serif" font-size="13" lengthAdjust="spacing" textLength="184.6533" x="599.4" y="472.2366">model_registry(), read_trace()</text></g><!--link Core to Models--><g class="link" data-entity-1="ent0005" data-entity-2="ent0007" data-link-type="dependency" data-source-line="26" id="lnk17"><path d="M501.4,573.1483 C501.4,599.4483 501.4,651.7883 501.4,676.7383" fill="none" id="Core-to-Models" style="stroke:#181818;stroke-width:1;"/><polygon fill="#181818" points="501.4,682.7383,505.4,673.7383,501.4,677.7383,497.4,673.7383,501.4,682.7383" style="stroke:#181818;stroke-width:1;"/><text fill="#000000" font-family="sans-serif" font-size="13" lengthAdjust="spacing" textLength="28.5327" x="502.4" y="620.2166">scan</text></g><!--link Viewer to Rendered--><g class="link" data-entity-1="ent0004" data-entity-2="ent0006" data-link-type="dependency" data-source-line="27" id="lnk18"><path d="M793.08,428.7683 C792.46,443.4583 792.04,460.3383 792.4,475.6683 C792.62,485.3083 792.7656,510.7546 793.2056,520.3646" fill="none" id="Viewer-to-Rendered" style="stroke:#181818;stroke-width:1;"/><polygon fill="#181818" points="793.48,526.3583,797.0642,517.1847,793.2513,521.3635,789.0725,517.5507,793.48,526.3583" style="stroke:#181818;stroke-width:1;"/><text fill="#000000" font-family="sans-serif" font-size="13" lengthAdjust="spacing" textLength="94.7515" x="793.4" y="472.2366">read SVG bytes</text></g><!--link Viewer to FontDb--><g class="link" data-entity-1="ent0004" data-entity-2="ent0010" data-link-type="dependency" data-source-line="28" id="lnk19"><path d="M850.55,428.9483 C879.43,448.6683 912.09,469.6683 928.4,475.6683 C1050.27,520.5183 1193.6453,534.5155 1293.7253,538.7355" fill="none" id="Viewer-to-FontDb" style="stroke:#181818;stroke-width:1;"/><polygon fill="#181818" points="1299.72,538.9883,1290.8965,534.6127,1294.7244,538.7776,1290.5595,542.6056,1299.72,538.9883" style="stroke:#181818;stroke-width:1;"/><text fill="#000000" font-family="sans-serif" font-size="13" lengthAdjust="spacing" textLength="211.6245" x="929.4" y="472.2366">shared_fontdb() (OnceLock, once)</text></g><!--link Usvg to FontDb--><g class="link" data-entity-1="ent0009" data-entity-2="ent0010" data-link-type="dependency" data-source-line="29" id="lnk20"><path d="M1428.1,420.6983 C1424.49,446.5383 1420.1805,477.336 1416.5605,503.236" fill="none" id="Usvg-to-FontDb" style="stroke:#181818;stroke-width:1;"/><polygon fill="#181818" points="1415.73,509.1783,1420.9373,500.8186,1416.4221,504.2264,1413.0143,499.7112,1415.73,509.1783" style="stroke:#181818;stroke-width:1;"/><text fill="#000000" font-family="sans-serif" font-size="13" lengthAdjust="spacing" textLength="184.4121" x="1423.53" y="472.2366">resolves &lt;text&gt; font families</text></g><!--link Viewer to Usvg--><g class="link" data-entity-1="ent0004" data-entity-2="ent0009" data-link-type="dependency" data-source-line="30" id="lnk21"><path d="M918.6,388.9383 C1031.08,388.9383 1190.48,388.9383 1303.02,388.9383" fill="none" id="Viewer-to-Usvg" style="stroke:#181818;stroke-width:1;"/><polygon fill="#181818" points="1309.02,388.9383,1300.02,384.9383,1304.02,388.9383,1300.02,392.9383,1309.02,388.9383" style="stroke:#181818;stroke-width:1;"/><text fill="#000000" font-family="sans-serif" font-size="13" lengthAdjust="spacing" textLength="290.2466" x="968.83" y="382.5066">Tree::from_data(Options { fontdb, ..default() })</text></g><!--link Usvg to Resvg--><g class="link" data-entity-1="ent0009" data-entity-2="ent0011" data-link-type="dependency" data-source-line="31" id="lnk22"><path d="M1555.66,414.5683 C1578.98,424.6183 1600.9,438.7583 1616.4,458.6683 C1627.42,472.8183 1629.9323,486.7805 1629.4823,503.4105" fill="none" id="Usvg-to-Resvg" style="stroke:#181818;stroke-width:1;"/><polygon fill="#181818" points="1629.32,509.4083,1633.562,500.5198,1629.4552,504.4101,1625.5649,500.3034,1629.32,509.4083" style="stroke:#181818;stroke-width:1;"/><text fill="#000000" font-family="sans-serif" font-size="13" lengthAdjust="spacing" textLength="24.667" x="1625.6" y="472.2366">tree</text></g><!--link Resvg to Viewer--><g class="link" data-entity-1="ent0011" data-entity-2="ent0004" data-link-type="dependency" data-source-line="32" id="lnk23"><path d="M1557.32,510.5083 C1551.66,508.6683 1545.97,507.0183 1540.4,505.6683 C1394.67,470.4283 1351.77,503.2183 1204.4,475.6683 C1177.58,470.6583 1171.92,465.0783 1145.4,458.6683 C1070.61,440.5883 991.8704,424.957 924.5604,412.537" fill="none" id="Resvg-to-Viewer" style="stroke:#181818;stroke-width:1;"/><polygon fill="#181818" points="918.66,411.4483,926.7848,417.015,923.577,412.3556,928.2364,409.1478,918.66,411.4483" style="stroke:#181818;stroke-width:1;"/><text fill="#000000" font-family="sans-serif" font-size="13" lengthAdjust="spacing" textLength="206.9844" x="1205.4" y="472.2366">RGBA pixmap (glyphs rasterized)</text></g><!--link Viewer to Egui--><g class="link" data-entity-1="ent0004" data-entity-2="ent0012" data-link-type="dependency" data-source-line="33" id="lnk24"><path d="M672.12,408.4583 C595.3,420.7983 494.64,438.4483 406.4,458.6683 C343.34,473.1183 279.2508,491.0769 224.1408,507.4769" fill="none" id="Viewer-to-Egui" style="stroke:#181818;stroke-width:1;"/><polygon fill="#181818" points="218.39,509.1883,228.157,510.4551,223.1823,507.7622,225.8752,502.7874,218.39,509.1883" style="stroke:#181818;stroke-width:1;"/><text fill="#000000" font-family="sans-serif" font-size="13" lengthAdjust="spacing" textLength="159.7324" x="407.4" y="472.2366">texture + painter.image()</text></g><!--link Egui to Dev--><g class="link" data-entity-1="ent0012" data-entity-2="ent0002" data-link-type="dependency" data-source-line="34" id="lnk25"><path d="M105.65,509.3483 C87.61,462.4883 57.35,370.2383 62.4,289.4483 C66.12,229.9183 74.8668,167.2568 81.3168,125.8368" fill="none" id="Egui-to-Dev" style="stroke:#181818;stroke-width:1;"/><polygon fill="#181818" points="82.24,119.9083,76.9028,128.1856,81.4707,124.8487,84.8076,129.4166,82.24,119.9083" style="stroke:#181818;stroke-width:1;"/><text fill="#000000" font-family="sans-serif" font-size="13" lengthAdjust="spacing" textLength="226.7383" x="63.4" y="303.0166">on-screen diagram with legible text</text></g><?plantuml-src PLJRRjiu47tdLmpy4XcLbDwUX4LHRwnD0oIjuRJP5mCkBOviRYHI86axRX6W7x5Vk5-oCvJTsCcJGEhCcSivd3Fug5LoSJF9xgxAlyjfDYq_Z-apkPgKrrUVow4uWuyEw-JRRHaXsVXgT3aTtTpodukrSsX2vhL2g6pRMKD7s6ZSWgm3EWWhXDhINQqVYgUJaa4kf4VG7YGHTRPRDpAW0eKT6eMcse7T6hgG8OQj_MO92xisIhfT2ZNzMUp0hwH3DMTEjKY6kGWwD0YjKXaNGGKuPdFGwGuRRH3--_Ll97P-fJj8ghw3eH2o2jR1O8mRR6o7RW3I0vs4U6fimCHLesVcmhQjDCeNnHtbYTYBHZ-7zZNCp8rITtqv2TPEjbWKewuRpinOooMT9tA9wVDc8caVzg84wt1c9ix-WrL8uSOgRAQur3xmRBuwMM5V4k54RHkUm22doFD-7AZEPoRf76Q7CzpUNVOPf_kRqxYMK_Zp5E8fS8PyrpOn8gRtGdIokgT6O41SuAGd_VKF6RGrrFO3dOnie78aiwTKFmKSMMOGzNsTlty_CrywZl7m4_fHfF4xhsMhcnqynfpV27vAq6E9ukrRwitlA7qR0pqqLYfgqPeA-nx_eklnuZJUuQ42U3KpGPjTvk-rf9itR_Q3uPoFnrhqOi8vu7Aj2VdkDQNUQgFiDeLEQaDDfn2e-RMBJHDDIL0Xo5YGPH_OD52mN-EZ4NpawxrR2d1hrYdgFFpzbsMbVtlzYq9fNzaDsMGVTeI9kitTtXl9CAK78TKy2fWG8wCOtcj80RwIvfZdO0UkXIBP9_JmIC9ZK3zFZZwrC2HVQERNjhfF--aBrkqqX0PZcmrw-8Fdz66_BLXhVPeaXXRaRgJdKplRpdcB92_TakSAQxbk0XNmU9Go2aWCWHX4VpYPzVJopn4jYeTMqc9ODhjkvN_R6DNmk1OMaPbwPU7LGUnSj_G2QB0Hm4WMkg3cCrzHMWEgV_6mrM453Ucoe7t5F48O6v1MN0Ys1Li_cVJhYwtPQ1xOft9Qfa1He4rqO4xWwoUlawNaSqNEFFX0Rx8Yw44Re4K68rVHPhEySJlUbz9vp2FhcIViz_r88v7_7lSsU2GOFMUchEvpGLRXSl1_?></g></svg>