<svg xmlns="http://www.w3.org/2000/svg" xmlns:xlink="http://www.w3.org/1999/xlink" contentStyleType="text/css" data-diagram-type="DESCRIPTION" height="767px" preserveAspectRatio="none" style="width:2524px;height:767px;background:#FFFFFF;" version="1.1" viewBox="0 0 2524 767" width="2524px" zoomAndPan="magnify"><?plantuml 1.2026.3?><defs/><g><g class="title" data-source-line="12"><text fill="#000000" font-family="sans-serif" font-size="14" font-weight="700" lengthAdjust="spacing" textLength="369.8105" x="1073.6747" y="23.5352">mdd-viewer render pipeline &#8212; ownership (current)</text></g><!--cluster SVG rasterization (external crates)--><g class="cluster" data-qualified-name="SVG rasterization .external crates." data-source-line="22" id="ent0008"><path d="M2086.66,322.4583 L2334.7996,322.4583 A3.75,3.75 0 0 1 2337.2996,324.9583 L2344.2996,344.9466 L2506.66,344.9466 A2.5,2.5 0 0 1 2509.16,347.4466 L2509.16,613.3983 A2.5,2.5 0 0 1 2506.66,615.8983 L2086.66,615.8983 A2.5,2.5 0 0 1 2084.16,613.3983 L2084.16,324.9583 A2.5,2.5 0 0 1 2086.66,322.4583" fill="none" style="stroke:#000000;stroke-width:1.5;"/><line style="stroke:#000000;stroke-width:1.5;" x1="2084.16" x2="2344.2996" y1="344.9466" y2="344.9466"/><text fill="#000000" font-family="sans-serif" font-size="14" font-weight="700" lengthAdjust="spacing" textLength="247.1396" x="2088.16" y="337.9934">SVG rasterization (external crates)</text></g><!--entity Usvg--><g class="entity" data-qualified-name="SVG rasterization .external crates..Usvg" data-source-line="23" id="ent0009"><rect fill="#F1F1F1" height="62.9766" rx="2.5" ry="2.5" style="stroke:#181818;stroke-width:0.5;" width="245.9736" x="2247.17" y="376.4583"/><rect fill="#F1F1F1" height="10" style="stroke:#181818;stroke-width:0.5;" width="15" x="2473.1436" y="381.4583"/><rect fill="#F1F1F1" height="2" style="stroke:#181818;stroke-width:0.5;" width="4" x="2471.1436" y="383.4583"/><rect fill="#F1F1F1" height="2" style="stroke:#181818;stroke-width:0.5;" width="4" x="2471.1436" y="387.4583"/><text fill="#000000" font-family="sans-serif" font-size="14" lengthAdjust="spacing" textLength="67.2178" x="2262.17" y="409.9934">usvg 0.44</text><text fill="#000000" font-family="sans-serif" font-size="14" lengthAdjust="spacing" textLength="205.9736" x="2262.17" y="426.4817">Options { fontdb, font_family }</text></g><!--entity FontDb--><g class="entity" data-qualified-name="SVG rasterization .external crates..FontDb" data-source-line="24" id="ent0010"><rect fill="#F1F1F1" height="62.9766" rx="2.5" ry="2.5" style="stroke:#181818;stroke-width:0.5;" width="222.957" x="2099.68" y="536.9183"/><rect fill="#F1F1F1" height="10" style="stroke:#181818;stroke-width:0.5;" width="15" x="2302.637" y="541.9183"/><rect fill="#F1F1F1" height="2" style="stroke:#181818;stroke-width:0.5;" width="4" x="2300.637" y="543.9183"/><rect fill="#F1F1F1" height="2" style="stroke:#181818;stroke-width:0.5;" width="4" x="2300.637" y="547.9183"/><text fill="#000000" font-family="sans-serif" font-size="14" lengthAdjust="spacing" textLength="80.7119" x="2114.68" y="570.4534">fontdb 0.22</text><text fill="#000000" font-family="sans-serif" font-size="14" lengthAdjust="spacing" textLength="182.957" x="2114.68" y="586.9417">(system fonts loaded once)</text></g><!--entity Resvg--><g class="entity" data-qualified-name="SVG rasterization .external crates..Resvg" data-source-line="25" id="ent0011"><rect fill="#F1F1F1" height="62.9766" rx="2.5" ry="2.5" style="stroke:#181818;stroke-width:0.5;" width="135.9014" x="2357.21" y="536.9183"/><rect fill="#F1F1F1" height="10" style="stroke:#181818;stroke-width:0.5;" width="15" x="2473.1114" y="541.9183"/><rect fill="#F1F1F1" height="2" style="stroke:#181818;stroke-width:0.5;" width="4" x="2471.1114" y="543.9183"/><rect fill="#F1F1F1" height="2" style="stroke:#181818;stroke-width:0.5;" width="4" x="2471.1114" y="547.9183"/><text fill="#000000" font-family="sans-serif" font-size="14" lengthAdjust="spacing" textLength="87.6162" x="2372.21" y="570.4534">resvg 0.44 +</text><text fill="#000000" font-family="sans-serif" font-size="14" lengthAdjust="spacing" textLength="95.9014" x="2372.21" y="586.9417">tiny-skia 0.11</text></g><!--entity Dev--><g class="entity" data-qualified-name="Dev" data-source-line="14" id="ent0002"><ellipse cx="40.1592" cy="51.4883" fill="#F1F1F1" rx="8" ry="8" style="stroke:#181818;stroke-width:0.5;"/><path d="M40.1592,59.4883 L40.1592,86.4883 M27.1592,67.4883 L53.1592,67.4883 M40.1592,86.4883 L27.1592,101.4883 M40.1592,86.4883 L53.1592,101.4883" fill="none" style="stroke:#181818;stroke-width:0.5;"/><text fill="#000000" font-family="sans-serif" font-size="14" lengthAdjust="spacing" textLength="68.3184" x="6" y="116.5234">Developer</text></g><!--entity Cli--><g class="entity" data-qualified-name="Cli" data-source-line="16" id="ent0003"><rect fill="#F1F1F1" height="62.9766" rx="2.5" ry="2.5" style="stroke:#181818;stroke-width:0.5;" width="157.4414" x="1261.44" y="196.4783"/><rect fill="#F1F1F1" height="10" style="stroke:#181818;stroke-width:0.5;" width="15" x="1398.8814" y="201.4783"/><rect fill="#F1F1F1" height="2" style="stroke:#181818;stroke-width:0.5;" width="4" x="1396.8814" y="203.4783"/><rect fill="#F1F1F1" height="2" style="stroke:#181818;stroke-width:0.5;" width="4" x="1396.8814" y="207.4783"/><text fill="#000000" font-family="sans-serif" font-size="14" lengthAdjust="spacing" textLength="54.0586" x="1276.44" y="230.0134">mdd-cli</text><text fill="#000000" font-family="sans-serif" font-size="14" lengthAdjust="spacing" textLength="117.4414" x="1276.44" y="246.5017">Commands::View</text></g><!--entity Viewer--><g class="entity" data-qualified-name="Viewer" data-source-line="17" id="ent0004"><rect fill="#F1F1F1" height="79.4648" rx="2.5" ry="2.5" style="stroke:#181818;stroke-width:0.5;" width="245.6797" x="1217.32" y="368.2083"/><rect fill="#F1F1F1" height="10" style="stroke:#181818;stroke-width:0.5;" width="15" x="1442.9997" y="373.2083"/><rect fill="#F1F1F1" height="2" style="stroke:#181818;stroke-width:0.5;" width="4" x="1440.9997" y="375.2083"/><rect fill="#F1F1F1" height="2" style="stroke:#181818;stroke-width:0.5;" width="4" x="1440.9997" y="379.2083"/><text fill="#000000" font-family="sans-serif" font-size="14" lengthAdjust="spacing" textLength="82.2021" x="1232.32" y="401.7434">mdd-viewer</text><text fill="#000000" font-family="sans-serif" font-size="14" lengthAdjust="spacing" textLength="171.9512" x="1232.32" y="418.2317">MddViewer (eframe::App)</text><text fill="#000000" font-family="sans-serif" font-size="14" lengthAdjust="spacing" textLength="205.6797" x="1232.32" y="434.72">DiagramPage, shared_fontdb()</text></g><!--entity Core--><g class="entity" data-qualified-name="Core" data-source-line="18" id="ent0005"><rect fill="#F1F1F1" height="62.9766" rx="2.5" ry="2.5" style="stroke:#181818;stroke-width:0.5;" width="237.6953" x="1505.31" y="536.9183"/><rect fill="#F1F1F1" height="10" style="stroke:#181818;stroke-width:0.5;" width="15" x="1723.0053" y="541.9183"/><rect fill="#F1F1F1" height="2" style="stroke:#181818;stroke-width:0.5;" width="4" x="1721.0053" y="543.9183"/><rect fill="#F1F1F1" height="2" style="stroke:#181818;stroke-width:0.5;" width="4" x="1721.0053" y="547.9183"/><text fill="#000000" font-family="sans-serif" font-size="14" lengthAdjust="spacing" textLength="68.0928" x="1520.31" y="570.4534">mdd-core</text><text fill="#000000" font-family="sans-serif" font-size="14" lengthAdjust="spacing" textLength="197.6953" x="1520.31" y="586.9417">Project, ModelRegistry, Trace</text></g><!--entity Rendered--><g class="entity" data-qualified-name="Rendered" data-source-line="19" id="ent0006"><path d="M798.68,532.9183 L839.68,532.9183 A3.75,3.75 0 0 1 842.18,535.4183 L849.18,553.9183 L955.6341,553.9183 A2.5,2.5 0 0 1 958.1341,556.4183 L958.1341,601.3948 A2.5,2.5 0 0 1 955.6341,603.8948 L798.68,603.8948 A2.5,2.5 0 0 1 796.18,601.3948 L796.18,535.4183 A2.5,2.5 0 0 1 798.68,532.9183" fill="#F1F1F1" style="stroke:#181818;stroke-width:0.5;"/><line style="stroke:#181818;stroke-width:0.5;" x1="796.18" x2="849.18" y1="553.9183" y2="553.9183"/><text fill="#000000" font-family="sans-serif" font-size="14" lengthAdjust="spacing" textLength="110.9746" x="806.18" y="574.4534">.mdd/rendered/</text><text fill="#000000" font-family="sans-serif" font-size="14" lengthAdjust="spacing" textLength="131.9541" x="806.18" y="590.9417">(pre-rendered SVG)</text></g><!--entity Models--><g class="entity" data-qualified-name="Models" data-source-line="20" id="ent0007"><path d="M1505.1,689.2683 L1546.1,689.2683 A3.75,3.75 0 0 1 1548.6,691.7683 L1555.6,710.2683 L1743.224,710.2683 A2.5,2.5 0 0 1 1745.724,712.7683 L1745.724,741.2566 A2.5,2.5 0 0 1 1743.224,743.7566 L1505.1,743.7566 A2.5,2.5 0 0 1 1502.6,741.2566 L1502.6,691.7683 A2.5,2.5 0 0 1 1505.1,689.2683" fill="#F1F1F1" style="stroke:#181818;stroke-width:0.5;"/><line style="stroke:#181818;stroke-width:0.5;" x1="1502.6" x2="1555.6" y1="710.2683" y2="710.2683"/><text fill="#000000" font-family="sans-serif" font-size="14" lengthAdjust="spacing" textLength="213.124" x="1512.6" y="730.8034">.mdd/models/, .mdd/trace.yml</text></g><!--entity Egui--><g class="entity" data-qualified-name="Egui" data-source-line="27" id="ent0012"><rect fill="#F1F1F1" height="62.9766" rx="2.5" ry="2.5" style="stroke:#181818;stroke-width:0.5;" width="222.7998" x="7.76" y="536.9183"/><rect fill="#F1F1F1" height="10" style="stroke:#181818;stroke-width:0.5;" width="15" x="210.5598" y="541.9183"/><rect fill="#F1F1F1" height="2" style="stroke:#181818;stroke-width:0.5;" width="4" x="208.5598" y="543.9183"/><rect fill="#F1F1F1" height="2" style="stroke:#181818;stroke-width:0.5;" width="4" x="208.5598" y="547.9183"/><text fill="#000000" font-family="sans-serif" font-size="14" lengthAdjust="spacing" textLength="128.1602" x="22.76" y="570.4534">eframe / egui 0.30</text><text fill="#000000" font-family="sans-serif" font-size="14" lengthAdjust="spacing" textLength="182.7998" x="22.76" y="586.9417">(window, painter, textures)</text></g><!--entity OclRend--><g class="entity" data-qualified-name="OclRend" data-source-line="28" id="ent0013"><rect fill="#F1F1F1" height="95.9531" rx="2.5" ry="2.5" style="stroke:#181818;stroke-width:0.5;" width="245.7412" x="64.29" y="359.9683"/><rect fill="#F1F1F1" height="10" style="stroke:#181818;stroke-width:0.5;" width="15" x="290.0312" y="364.9683"/><rect fill="#F1F1F1" height="2" style="stroke:#181818;stroke-width:0.5;" width="4" x="288.0312" y="366.9683"/><rect fill="#F1F1F1" height="2" style="stroke:#181818;stroke-width:0.5;" width="4" x="288.0312" y="370.9683"/><text fill="#000000" font-family="sans-serif" font-size="14" lengthAdjust="spacing" textLength="133.5332" x="79.29" y="393.5034">mdd-render engine</text><text fill="#000000" font-family="sans-serif" font-size="14" lengthAdjust="spacing" textLength="112.082" x="79.29" y="409.9917">render_selection</text><text fill="#000000" font-family="sans-serif" font-size="14" lengthAdjust="spacing" textLength="149.29" x="79.29" y="426.48">(synthesize_ocl_puml,</text><text fill="#000000" font-family="sans-serif" font-size="14" lengthAdjust="spacing" textLength="205.7412" x="79.29" y="442.9683">render_ocl_diagrams wrapper)</text></g><!--entity Ocl--><g class="entity" data-qualified-name="Ocl" data-source-line="29" id="ent0014"><path d="M376.06,532.9183 L417.06,532.9183 A3.75,3.75 0 0 1 419.56,535.4183 L426.56,553.9183 L526.267,553.9183 A2.5,2.5 0 0 1 528.767,556.4183 L528.767,601.3948 A2.5,2.5 0 0 1 526.267,603.8948 L376.06,603.8948 A2.5,2.5 0 0 1 373.56,601.3948 L373.56,535.4183 A2.5,2.5 0 0 1 376.06,532.9183" fill="#F1F1F1" style="stroke:#181818;stroke-width:0.5;"/><line style="stroke:#181818;stroke-width:0.5;" x1="373.56" x2="426.56" y1="553.9183" y2="553.9183"/><text fill="#000000" font-family="sans-serif" font-size="14" lengthAdjust="spacing" textLength="125.207" x="383.56" y="574.4534">.mdd/constraints/</text><ellipse cx="389.06" cy="586.3948" fill="#000000" rx="2.5" ry="2.5"/><text fill="#000000" font-family="sans-serif" font-size="14" lengthAdjust="spacing" textLength="24.2471" x="395.56" y="590.9417">.ocl</text></g><g class="entity" data-qualified-name="GMN32" data-source-line="50" id="ent0033"><path d="M2064.77,680.8983 L2064.77,752.1405 A0,0 0 0 0 2064.77,752.1405 L2357.5576,752.1405 A0,0 0 0 0 2357.5576,752.1405 L2357.5576,690.8983 L2347.5576,680.8983 L2215.16,680.8983 L2211.16,600.3983 L2207.16,680.8983 L2064.77,680.8983 A0,0 0 0 0 2064.77,680.8983" fill="#FEFFDD" style="stroke:#181818;stroke-width:0.5;"/><path d="M2347.5576,680.8983 L2347.5576,690.8983 L2357.5576,690.8983 L2347.5576,680.8983" fill="#FEFFDD" style="stroke:#181818;stroke-width:0.5;"/><text fill="#000000" font-family="sans-serif" font-size="13" lengthAdjust="spacing" textLength="262.7739" x="2070.77" y="698.4666">The font database lives HERE, not in egui.</text><text fill="#000000" font-family="sans-serif" font-size="13" lengthAdjust="spacing" textLength="252.9604" x="2070.77" y="713.7772">Loaded once via shared_fontdb()'s static</text><text fill="#000000" font-family="sans-serif" font-size="13" lengthAdjust="spacing" textLength="271.7876" x="2070.77" y="729.0877">OnceLock and Arc-cloned per parse. egui's</text><text fill="#000000" font-family="sans-serif" font-size="13" lengthAdjust="spacing" textLength="223.7549" x="2070.77" y="744.3983">`default_fonts` is a separate stack.</text></g><!--link Dev to Cli--><g class="link" data-entity-1="ent0002" data-entity-2="ent0003" data-link-type="dependency" data-source-line="31" id="lnk15"><path d="M74.6,86.0683 C246.33,105.1883 1005.8968,189.7544 1255.3368,217.5244" fill="none" id="Dev-to-Cli" style="stroke:#181818;stroke-width:1;"/><polygon fill="#181818" points="1261.3,218.1883,1252.7978,213.217,1256.3307,217.6351,1251.9127,221.1679,1261.3,218.1883" style="stroke:#181818;stroke-width:1;"/><text fill="#000000" font-family="sans-serif" font-size="13" lengthAdjust="spacing" textLength="60.3599" x="768.99" y="163.0466">mdd view</text></g><!--link Cli to Viewer--><g class="link" data-entity-1="ent0003" data-entity-2="ent0004" data-link-type="dependency" data-source-line="32" id="lnk16"><path d="M1340.16,259.5583 C1340.16,289.4783 1340.16,329.1583 1340.16,361.7283" fill="none" id="Cli-to-Viewer" style="stroke:#181818;stroke-width:1;"/><polygon fill="#181818" points="1340.16,367.7283,1344.16,358.7283,1340.16,362.7283,1336.16,358.7283,1340.16,367.7283" style="stroke:#181818;stroke-width:1;"/><text fill="#000000" font-family="sans-serif" font-size="13" lengthAdjust="spacing" textLength="74.1152" x="1341.16" y="303.0266">run(project)</text></g><!--link OclRend to Ocl--><g class="link" data-entity-1="ent0013" data-entity-2="ent0014" data-link-type="dependency" data-source-line="33" id="lnk17"><path d="M84.84,456.2783 C68.03,470.2283 60.09,486.2483 74.16,502.9183 C74.46,503.2783 256.885,534.3619 367.205,553.1319" fill="none" id="OclRend-to-Ocl" style="stroke:#181818;stroke-width:1;"/><polygon fill="#181818" points="373.12,554.1383,364.9184,548.6854,368.1908,553.2996,363.5766,556.572,373.12,554.1383" style="stroke:#181818;stroke-width:1;"/><text fill="#000000" font-family="sans-serif" font-size="13" lengthAdjust="spacing" textLength="60.8169" x="75.16" y="499.4866">read *.ocl</text></g><!--link OclRend to Rendered--><g class="link" data-entity-1="ent0013" data-entity-2="ent0006" data-link-type="dependency" data-source-line="34" id="lnk18"><path d="M167.78,456.1983 C164.23,472.8383 164.69,490.4783 176.16,502.9183 C204.12,533.2383 505.09,529.1183 546.16,532.9183 C631.45,540.8183 722.9951,550.4899 789.9651,557.7699" fill="none" id="OclRend-to-Rendered" style="stroke:#181818;stroke-width:1;"/><polygon fill="#181818" points="795.93,558.4183,787.415,553.4691,790.9593,557.8779,786.5504,561.4222,795.93,558.4183" style="stroke:#181818;stroke-width:1;"/><text fill="#000000" font-family="sans-serif" font-size="13" lengthAdjust="spacing" textLength="245.4194" x="177.16" y="499.4866">write constraints/&lt;name&gt;.svg (mirror)</text></g><!--link Viewer to Rendered--><g class="link" data-entity-1="ent0004" data-entity-2="ent0006" data-link-type="dependency" data-source-line="35" id="lnk19"><path d="M1217.17,433.0183 C1160.5,445.8483 1092.93,463.6183 1034.16,485.9183 C1000.71,498.6083 970.4449,534.7324 941.6649,550.5924" fill="none" id="Viewer-to-Rendered" style="stroke:#181818;stroke-width:1;"/><polygon fill="#181818" points="936.41,553.4883,946.2229,552.6478,940.7891,551.0751,942.3618,545.6412,936.41,553.4883" style="stroke:#181818;stroke-width:1;"/><text fill="#000000" font-family="sans-serif" font-size="13" lengthAdjust="spacing" textLength="285.0415" x="1035.16" y="499.4866">load constraints/&lt;name&gt;.svg (OCL Diagram)</text></g><!--link Viewer to Rendered--><g class="link" data-entity-1="ent0004" data-entity-2="ent0006" data-link-type="dependency" data-source-line="40" id="lnk24"><path d="M1217.03,414.9483 C1101.27,423.2183 939.23,442.3883 894.16,485.9183 C881.79,497.8683 877.7337,531.3378 876.4137,547.6578" fill="none" id="Viewer-to-Rendered-1" style="stroke:#181818;stroke-width:1;"/><polygon fill="#181818" points="875.93,553.6383,880.6426,544.9901,876.3331,548.6546,872.6686,544.3451,875.93,553.6383" style="stroke:#181818;stroke-width:1;"/><text fill="#000000" font-family="sans-serif" font-size="13" lengthAdjust="spacing" textLength="94.7515" x="895.16" y="499.4866">read SVG bytes</text></g><!--link Viewer to Ocl--><g class="link" data-entity-1="ent0004" data-entity-2="ent0014" data-link-type="dependency" data-source-line="36" id="lnk20"><path d="M1216.97,416.9183 C1088.18,426.8683 880.76,447.4683 705.16,485.9183 C644.99,499.0883 584.4362,539.5665 534.7062,557.1665" fill="none" id="Viewer-to-Ocl" style="stroke:#181818;stroke-width:1;"/><polygon fill="#181818" points="529.05,559.1683,538.8689,559.9364,533.7635,557.5001,536.1998,552.3948,529.05,559.1683" style="stroke:#181818;stroke-width:1;"/><text fill="#000000" font-family="sans-serif" font-size="13" lengthAdjust="spacing" textLength="168.5874" x="706.16" y="499.4866">read raw text (OCL Source)</text></g><!--link Cli to Core--><g class="link" data-entity-1="ent0003" data-entity-2="ent0005" data-link-type="dependency" data-source-line="37" id="lnk21"><path d="M1419.25,255.8083 C1596.18,316.2083 2009.89,459.5983 2028.16,485.9183 C2062.71,535.6983 1880.6801,554.9336 1749.4901,562.4836" fill="none" id="Cli-to-Core" style="stroke:#181818;stroke-width:1;"/><polygon fill="#181818" points="1743.5,562.8283,1752.715,566.3046,1748.4917,562.541,1752.2553,558.3178,1743.5,562.8283" style="stroke:#181818;stroke-width:1;"/><text fill="#000000" font-family="sans-serif" font-size="13" lengthAdjust="spacing" textLength="103.9365" x="1970.12" y="413.0066">Project::discover</text></g><!--link Viewer to Core--><g class="link" data-entity-1="ent0004" data-entity-2="ent0005" data-link-type="dependency" data-source-line="38" id="lnk22"><path d="M1328.07,447.8483 C1324.82,466.3783 1325.02,487.7483 1337.16,502.9183 C1358.5,529.5883 1429.9371,545.1628 1498.9771,554.7528" fill="none" id="Viewer-to-Core" style="stroke:#181818;stroke-width:1;"/><polygon fill="#181818" points="1504.92,555.5783,1496.5559,550.3781,1499.9675,554.8904,1495.4553,558.302,1504.92,555.5783" style="stroke:#181818;stroke-width:1;"/><text fill="#000000" font-family="sans-serif" font-size="13" lengthAdjust="spacing" textLength="184.6533" x="1338.16" y="499.4866">model_registry(), read_trace()</text></g><!--link Core to Models--><g class="link" data-entity-1="ent0005" data-entity-2="ent0007" data-link-type="dependency" data-source-line="39" id="lnk23"><path d="M1624.16,600.3983 C1624.16,626.6983 1624.16,679.0383 1624.16,703.9883" fill="none" id="Core-to-Models" style="stroke:#181818;stroke-width:1;"/><polygon fill="#181818" points="1624.16,709.9883,1628.16,700.9883,1624.16,704.9883,1620.16,700.9883,1624.16,709.9883" style="stroke:#181818;stroke-width:1;"/><text fill="#000000" font-family="sans-serif" font-size="13" lengthAdjust="spacing" textLength="28.5327" x="1625.16" y="647.4666">scan</text></g><!--link Viewer to FontDb--><g class="link" data-entity-1="ent0004" data-entity-2="ent0010" data-link-type="dependency" data-source-line="41" id="lnk25"><path d="M1438.09,448.1683 C1466.91,459.9983 1498.42,473.2283 1527.16,485.9183 C1543.35,493.0683 1546.11,498.1983 1563.16,502.9183 C1613.41,516.8383 1921.8304,543.6938 2093.5304,557.8938" fill="none" id="Viewer-to-FontDb" style="stroke:#181818;stroke-width:1;"/><polygon fill="#181818" points="2099.51,558.3883,2090.8703,553.6601,2094.527,557.9762,2090.2109,561.6329,2099.51,558.3883" style="stroke:#181818;stroke-width:1;"/><text fill="#000000" font-family="sans-serif" font-size="13" lengthAdjust="spacing" textLength="211.6245" x="1564.16" y="499.4866">shared_fontdb() (OnceLock, once)</text></g><!--link Usvg to FontDb--><g class="link" data-entity-1="ent0009" data-entity-2="ent0010" data-link-type="dependency" data-source-line="42" id="lnk26"><path d="M2257.78,439.8583 C2236.54,450.9183 2216.98,465.8383 2204.16,485.9183 C2194.68,500.7583 2194.6264,514.5048 2198.5364,530.7548" fill="none" id="Usvg-to-FontDb" style="stroke:#181818;stroke-width:1;"/><polygon fill="#181818" points="2199.94,536.5883,2201.7236,526.9023,2198.7703,531.727,2193.9455,528.7738,2199.94,536.5883" style="stroke:#181818;stroke-width:1;"/><text fill="#000000" font-family="sans-serif" font-size="13" lengthAdjust="spacing" textLength="184.4121" x="2205.16" y="499.4866">resolves &lt;text&gt; font families</text></g><!--link Viewer to Usvg--><g class="link" data-entity-1="ent0004" data-entity-2="ent0009" data-link-type="dependency" data-source-line="43" id="lnk27"><path d="M1463.41,371.5783 C1603.83,334.8283 1840.14,287.1883 2043.16,315.3683 C2126,326.8683 2211.6748,352.1005 2276.7148,374.0405" fill="none" id="Viewer-to-Usvg" style="stroke:#181818;stroke-width:1;"/><polygon fill="#181818" points="2282.4,375.9583,2275.1507,369.2914,2277.6623,374.3601,2272.5936,376.8717,2282.4,375.9583" style="stroke:#181818;stroke-width:1;"/><text fill="#000000" font-family="sans-serif" font-size="13" lengthAdjust="spacing" textLength="290.2466" x="1921.16" y="303.0266">Tree::from_data(Options { fontdb, ..default() })</text></g><!--link Usvg to Resvg--><g class="link" data-entity-1="ent0009" data-entity-2="ent0011" data-link-type="dependency" data-source-line="44" id="lnk28"><path d="M2380.89,439.8683 C2390.59,467.7983 2402.8033,502.9898 2412.4833,530.8898" fill="none" id="Usvg-to-Resvg" style="stroke:#181818;stroke-width:1;"/><polygon fill="#181818" points="2414.45,536.5583,2415.2789,526.7444,2412.8111,531.8345,2407.7209,529.3667,2414.45,536.5583" style="stroke:#181818;stroke-width:1;"/><text fill="#000000" font-family="sans-serif" font-size="13" lengthAdjust="spacing" textLength="24.667" x="2403.59" y="499.4866">tree</text></g><!--link Resvg to Viewer--><g class="link" data-entity-1="ent0011" data-entity-2="ent0004" data-link-type="dependency" data-source-line="45" id="lnk29"><path d="M2357.08,537.7283 C2351.42,535.8883 2345.74,534.2483 2340.16,532.9183 C2184.86,495.8183 2140.78,521.1583 1982.16,502.9183 C1801.01,482.0883 1598.1838,450.9815 1469.1638,430.2215" fill="none" id="Resvg-to-Viewer" style="stroke:#181818;stroke-width:1;"/><polygon fill="#181818" points="1463.24,429.2683,1471.4903,434.6472,1468.1765,430.0626,1472.7612,426.7488,1463.24,429.2683" style="stroke:#181818;stroke-width:1;"/><text fill="#000000" font-family="sans-serif" font-size="13" lengthAdjust="spacing" textLength="206.9844" x="1983.16" y="499.4866">RGBA pixmap (glyphs rasterized)</text></g><!--link Viewer to Egui--><g class="link" data-entity-1="ent0004" data-entity-2="ent0012" data-link-type="dependency" data-source-line="46" id="lnk30"><path d="M1217.05,409.3683 C1047.32,412.3183 732.83,426.3083 472.16,485.9183 C451.32,490.6883 447.68,496.9283 427.16,502.9183 C363.04,521.6183 295.8255,536.0532 236.9255,547.1932" fill="none" id="Viewer-to-Egui" style="stroke:#181818;stroke-width:1;"/><polygon fill="#181818" points="231.03,548.3083,240.6166,550.566,235.9429,547.3791,239.1299,542.7054,231.03,548.3083" style="stroke:#181818;stroke-width:1;"/><text fill="#000000" font-family="sans-serif" font-size="13" lengthAdjust="spacing" textLength="159.7324" x="473.16" y="499.4866">texture + painter.image()</text></g><!--link Egui to Dev--><g class="link" data-entity-1="ent0012" data-entity-2="ent0002" data-link-type="dependency" data-source-line="47" id="lnk31"><path d="M84.51,536.4683 C75.13,526.5583 65.75,514.9983 59.16,502.9183 C48.83,483.9983 50.05,477.2883 47.16,455.9183 C30.67,333.9083 34.4937,193.4614 37.7237,125.8414" fill="none" id="Egui-to-Dev" style="stroke:#181818;stroke-width:1;"/><polygon fill="#181818" points="38.01,119.8483,33.5851,128.6472,37.7714,124.8426,41.576,129.0289,38.01,119.8483" style="stroke:#181818;stroke-width:1;"/><text fill="#000000" font-family="sans-serif" font-size="13" lengthAdjust="spacing" textLength="226.7383" x="36.83" y="303.0266">on-screen diagram with legible text</text></g><?plantuml-src ZLRTRjis5BxNKnpu9lPgAstNAwqebYLU5Y1f0gVDRWmuj4JRN2HI8AcuNb5W3x4dt9FiEwGSMquwx2OEgU_yV-SS7j7FgkYVNjsCxYx6luydeyduunb-RYvknfSN7yU3vEW9SNrwsNuEjrOk-fzlnq5mT7PnSZuvkRfz_WLIJvTdrrTR0-EFvrlrXNJvVxWmfDv5LPUoajhB8gEgA4QFIgwb9Ij5uQYsScIbBgIL1TtUdPFG1LdXlBJgJ-b8UV8hQvhbYXhtk3os4dzfhVoAt4f0QBOmsXVp_k08oapTb0A6Y2-f45xCXPDfh-lgBXTTzqWuTd0M_Saojz5-9Htyc9cydDLDLT8hYb_3JQ74qehAKL-RDGbugZIjhQXhn6SUGv01x6GfSw-C7cG0IRhEorEZdRT2QUzeReNELsGMuQFHaYP1xfELagHkAca5IvDlh7Oa1S0f72186zYzAONsdwykATzJsZhtKa9Di9CYrkDjxe_tH8_VQr793obdkbBM6fl28HX5YkQR8Ei0e7ieQ2EyX-cgObD-9JmE21wEuY_m7CKBz8bbEMqiLFYHKuLa9JN2H-sO92GMy3hO2_LSg2_PxhIjBYb70efsnIzapKxfV4DchRckFeWnWMXk6bq8kndI8ePpGAEVe0e4WR4IsLfAZ_pkY52ycEA5DLMmmFIE2O4MgPTAoo4eReec_p-v4zkK6U1iI5oQUELBsMqSbg9QrRA40Vhdhxz3dDQjL4tzF2Pqa2GYzyPIxmmwImDAzjW0JacootEF5UUbckhJw8JBiZlO2TZJKXr2emzJVLKKTz6TlbmW1pBBJkfwCDLdCIStOedG3t8Rb4QnPouOAwVwnfe_q2X3kZA5B2TogP1hbEgJ5RcCBW6NB4p96UXr6JpL_SDf4YrEsfkkNCKctF4mze5d2-ccAeD4CE-If1Rv0mAX7a-cRHF5LkpBBpXfKLAEvfGEfhucjCVWNg3Rw_JTkwc-hbd6qLUAgHY6tzb2LAhSqBTWypFWNGKH2nLlto8sju7vAWWwAeqe4ABHkOmn_ehhitbNFivAze1UJRLNUZDo3qhWvisRDZ5iyzj-BM8nwPZaib50_lWQfjTA5sOD9ZFjfHsIH_2D3K53pHZGmtgs98qzCDM7Sp34ysow3f-0dUdQJjHe3AEJwzcjvVxmckeVU3PkmKa2njDez87PJ643XU6Iy96lMnfdP1icK23W86dD10J-vy_OLnHKTpvkoGN4sYelwJk3j1ydwI1fxHt8Sa6_AyhpgEshZloUOrQiGrKY-DOq5inuYf6x1iYslRAiK2wCw7rbBIQq1LPWRBt-O1Zqpq9_zA6HKGoFBG81bmlzdQ22PzmwymqwP1yKwShItGa1zq7fIvC_32Ev4swBhWXuPyf73EVt7F27TZTmAwckaI2Q4M_HBECPFUETqN_UZ6bQo8LeIWy7lksP3Fq13Jo8atZeC6Po_ii9vl2NIc3kBijDlNAxLLjqIiKzmffYu-0PqVPIgYeC62Gs01Z9TCqG_CZbCAkVbanuyvIeonphWFKaYJRWsznuZ_M3nyFJ3FZqR4UMYXFsstY25ncay7083Pu2VBaR9MWCySApodcCl1pGRMt2c-B4vbWSXlShFtTgOV7I2bgF7B3tRKg38dSVjZGv2HYc9QlC7zA4cuY3-1S0?></g></svg>