<svg xmlns="http://www.w3.org/2000/svg" xmlns:xlink="http://www.w3.org/1999/xlink" contentStyleType="text/css" data-diagram-type="DESCRIPTION" height="719px" preserveAspectRatio="none" style="width:1009px;height:719px;background:#FFFFFF;" version="1.1" viewBox="0 0 1009 719" width="1009px" zoomAndPan="magnify"><?plantuml 1.2026.3?><defs/><g><g class="title" data-source-line="7"><text fill="#000000" font-family="sans-serif" font-size="14" font-weight="700" lengthAdjust="spacing" textLength="229.8857" x="386.1664" y="23.5352">MDD init &#8212; ownership (current)</text></g><!--entity Dev--><g class="entity" data-qualified-name="Dev" data-source-line="9" id="ent0002"><ellipse cx="495.3064" cy="51.4883" fill="#F1F1F1" rx="8" ry="8" style="stroke:#181818;stroke-width:0.5;"/><path d="M495.3064,59.4883 L495.3064,86.4883 M482.3064,67.4883 L508.3064,67.4883 M495.3064,86.4883 L482.3064,101.4883 M495.3064,86.4883 L508.3064,101.4883" fill="none" style="stroke:#181818;stroke-width:0.5;"/><text fill="#000000" font-family="sans-serif" font-size="14" lengthAdjust="spacing" textLength="124.6328" x="432.99" y="116.5234">Developer / Agent</text></g><!--entity Cli--><g class="entity" data-qualified-name="Cli" data-source-line="11" id="ent0003"><rect fill="#F1F1F1" height="79.4648" rx="2.5" ry="2.5" style="stroke:#181818;stroke-width:0.5;" width="179.6104" x="405.5" y="196.4783"/><rect fill="#F1F1F1" height="10" style="stroke:#181818;stroke-width:0.5;" width="15" x="565.1104" y="201.4783"/><rect fill="#F1F1F1" height="2" style="stroke:#181818;stroke-width:0.5;" width="4" x="563.1104" y="203.4783"/><rect fill="#F1F1F1" height="2" style="stroke:#181818;stroke-width:0.5;" width="4" x="563.1104" y="207.4783"/><text fill="#000000" font-family="sans-serif" font-size="14" lengthAdjust="spacing" textLength="121.3242" x="420.5" y="230.0134">mdd init [--force]</text><text fill="#000000" font-family="sans-serif" font-size="14" lengthAdjust="spacing" textLength="103.2363" x="420.5" y="246.5017">(CMP-INIT-CLI)</text><text fill="#000000" font-family="sans-serif" font-size="14" lengthAdjust="spacing" textLength="139.6104" x="420.5" y="262.99">mdd-cli/src/main.rs</text></g><!--entity Engine--><g class="entity" data-qualified-name="Engine" data-source-line="12" id="ent0004"><rect fill="#F1F1F1" height="79.4648" rx="2.5" ry="2.5" style="stroke:#181818;stroke-width:0.5;" width="268.7715" x="360.92" y="352.9483"/><rect fill="#F1F1F1" height="10" style="stroke:#181818;stroke-width:0.5;" width="15" x="609.6915" y="357.9483"/><rect fill="#F1F1F1" height="2" style="stroke:#181818;stroke-width:0.5;" width="4" x="607.6915" y="359.9483"/><rect fill="#F1F1F1" height="2" style="stroke:#181818;stroke-width:0.5;" width="4" x="607.6915" y="363.9483"/><text fill="#000000" font-family="sans-serif" font-size="14" lengthAdjust="spacing" textLength="228.7715" x="375.92" y="386.4834">Project::init_with_conflict_handler</text><text fill="#000000" font-family="sans-serif" font-size="14" lengthAdjust="spacing" textLength="132.0635" x="375.92" y="402.9717">(CMP-INIT-ENGINE)</text><text fill="#000000" font-family="sans-serif" font-size="14" lengthAdjust="spacing" textLength="137.0127" x="375.92" y="419.46">mdd-core/src/lib.rs</text></g><!--entity Text--><g class="entity" data-qualified-name="Text" data-source-line="13" id="ent0005"><rect fill="#F1F1F1" height="62.9766" rx="2.5" ry="2.5" style="stroke:#181818;stroke-width:0.5;" width="266.6113" x="7" y="509.4083"/><rect fill="#F1F1F1" height="10" style="stroke:#181818;stroke-width:0.5;" width="15" x="253.6113" y="514.4083"/><rect fill="#F1F1F1" height="2" style="stroke:#181818;stroke-width:0.5;" width="4" x="251.6113" y="516.4083"/><rect fill="#F1F1F1" height="2" style="stroke:#181818;stroke-width:0.5;" width="4" x="251.6113" y="520.4083"/><text fill="#000000" font-family="sans-serif" font-size="14" lengthAdjust="spacing" textLength="143.5068" x="22" y="542.9434">write_text_if_missing</text><text fill="#000000" font-family="sans-serif" font-size="14" lengthAdjust="spacing" textLength="226.6113" x="22" y="559.4317">(regenerable: docs, skills, blocks)</text></g><!--entity Yaml--><g class="entity" data-qualified-name="Yaml" data-source-line="14" id="ent0006"><rect fill="#F1F1F1" height="62.9766" rx="2.5" ry="2.5" style="stroke:#181818;stroke-width:0.5;" width="247.6826" x="371.46" y="509.4083"/><rect fill="#F1F1F1" height="10" style="stroke:#181818;stroke-width:0.5;" width="15" x="599.1426" y="514.4083"/><rect fill="#F1F1F1" height="2" style="stroke:#181818;stroke-width:0.5;" width="4" x="597.1426" y="516.4083"/><rect fill="#F1F1F1" height="2" style="stroke:#181818;stroke-width:0.5;" width="4" x="597.1426" y="520.4083"/><text fill="#000000" font-family="sans-serif" font-size="14" lengthAdjust="spacing" textLength="201.8994" x="386.46" y="542.9434">write_yaml_create_or_migrate</text><text fill="#000000" font-family="sans-serif" font-size="14" lengthAdjust="spacing" textLength="207.6826" x="386.46" y="559.4317">(state: config/trace/approvals)</text></g><!--entity Hook--><g class="entity" data-qualified-name="Hook" data-source-line="15" id="ent0007"><rect fill="#F1F1F1" height="62.9766" rx="2.5" ry="2.5" style="stroke:#181818;stroke-width:0.5;" width="208.4785" x="671.07" y="509.4083"/><rect fill="#F1F1F1" height="10" style="stroke:#181818;stroke-width:0.5;" width="15" x="859.5485" y="514.4083"/><rect fill="#F1F1F1" height="2" style="stroke:#181818;stroke-width:0.5;" width="4" x="857.5485" y="516.4083"/><rect fill="#F1F1F1" height="2" style="stroke:#181818;stroke-width:0.5;" width="4" x="857.5485" y="520.4083"/><text fill="#000000" font-family="sans-serif" font-size="14" lengthAdjust="spacing" textLength="168.4785" x="686.07" y="542.9434">SessionStart hook merge</text><text fill="#000000" font-family="sans-serif" font-size="14" lengthAdjust="spacing" textLength="123.2314" x="686.07" y="559.4317">(CMP-INIT-HOOK)</text></g><g class="entity" data-qualified-name="GMN14" data-source-line="25" id="ent0015"><path d="M314.06,633.3883 L314.06,704.6305 A0,0 0 0 0 314.06,704.6305 L676.5512,704.6305 A0,0 0 0 0 676.5512,704.6305 L676.5512,643.3883 L666.5512,633.3883 L499.31,633.3883 L495.31,572.7483 L491.31,633.3883 L314.06,633.3883 A0,0 0 0 0 314.06,633.3883" fill="#FEFFDD" style="stroke:#181818;stroke-width:0.5;"/><path d="M666.5512,633.3883 L666.5512,643.3883 L676.5512,643.3883 L666.5512,633.3883" fill="#FEFFDD" style="stroke:#181818;stroke-width:0.5;"/><text fill="#000000" font-family="sans-serif" font-size="13" lengthAdjust="spacing" textLength="333.3599" x="320.06" y="650.9566">Never consulted with the conflict handler, so --force</text><text fill="#000000" font-family="sans-serif" font-size="13" lengthAdjust="spacing" textLength="341.4912" x="320.06" y="666.2672">cannot overwrite config/trace/approvals. Create when</text><text fill="#000000" font-family="sans-serif" font-size="13" lengthAdjust="spacing" textLength="332.9917" x="320.06" y="681.5777">missing; round-trip migrate when on-disk version is</text><text fill="#000000" font-family="sans-serif" font-size="13" lengthAdjust="spacing" textLength="339.9995" x="320.06" y="696.8883">older; skip when equal or newer. Reports `migrated`.</text></g><!--link Dev to Cli--><g class="link" data-entity-1="ent0002" data-entity-2="ent0003" data-link-type="dependency" data-source-line="17" id="lnk8"><path d="M495.31,119.6583 C495.31,142.8283 495.31,166.5483 495.31,190.0383" fill="none" id="Dev-to-Cli" style="stroke:#181818;stroke-width:1;"/><polygon fill="#181818" points="495.31,196.0383,499.31,187.0383,495.31,191.0383,491.31,187.0383,495.31,196.0383" style="stroke:#181818;stroke-width:1;"/><text fill="#000000" font-family="sans-serif" font-size="13" lengthAdjust="spacing" textLength="112.6582" x="496.31" y="163.0466">mdd init [--force]</text></g><!--link Cli to Engine--><g class="link" data-entity-1="ent0003" data-entity-2="ent0004" data-link-type="dependency" data-source-line="18" id="lnk9"><path d="M495.31,276.1883 C495.31,299.6083 495.31,323.2983 495.31,346.7083" fill="none" id="Cli-to-Engine" style="stroke:#181818;stroke-width:1;"/><polygon fill="#181818" points="495.31,352.7083,499.31,343.7083,495.31,347.7083,491.31,343.7083,495.31,352.7083" style="stroke:#181818;stroke-width:1;"/><text fill="#000000" font-family="sans-serif" font-size="13" lengthAdjust="spacing" textLength="217.2676" x="496.31" y="319.5166">init_with_conflict_handler(handler)</text></g><!--link Cli to Cli--><g class="link" data-entity-1="ent0003" data-entity-2="ent0003" data-link-type="dependency" data-source-line="19" id="lnk10"><path d="M585.34,221.9183 C605.44,223.2383 620.11,227.9983 620.11,236.2083 C620.11,244.4283 611.4271,248.7951 591.3271,250.1151" fill="none" id="Cli-to-Cli" style="stroke:#181818;stroke-width:1;"/><polygon fill="#181818" points="585.34,250.5083,594.5828,253.9099,590.3293,250.1806,594.0585,245.9271,585.34,250.5083" style="stroke:#181818;stroke-width:1;"/><text fill="#000000" font-family="sans-serif" font-size="13" lengthAdjust="spacing" textLength="277.3354" x="626.11" y="241.2766">handler = force ? always Overwrite : prompt</text></g><!--link Engine to Text--><g class="link" data-entity-1="ent0004" data-entity-2="ent0005" data-link-type="dependency" data-source-line="20" id="lnk11"><path d="M360.75,408.8483 C284.34,419.9583 198.31,437.4683 169.31,462.4083 C155.69,474.1183 149.8504,487.0316 146.0104,503.1516" fill="none" id="Engine-to-Text" style="stroke:#181818;stroke-width:1;"/><polygon fill="#181818" points="144.62,508.9883,150.5967,501.1602,145.7786,504.1244,142.8144,499.3063,144.62,508.9883" style="stroke:#181818;stroke-width:1;"/><text fill="#000000" font-family="sans-serif" font-size="13" lengthAdjust="spacing" textLength="313.1426" x="170.31" y="475.9766">regenerable files (handler decides overwrite/skip)</text></g><!--link Engine to Yaml--><g class="link" data-entity-1="ent0004" data-entity-2="ent0006" data-link-type="dependency" data-source-line="21" id="lnk12"><path d="M492.96,432.5083 C492.34,447.1983 491.93,464.0783 492.31,479.4083 C492.55,489.0783 492.6982,493.6159 493.1782,503.1459" fill="none" id="Engine-to-Yaml" style="stroke:#181818;stroke-width:1;"/><polygon fill="#181818" points="493.48,509.1383,497.0222,499.9485,493.2285,504.1446,489.0323,500.3509,493.48,509.1383" style="stroke:#181818;stroke-width:1;"/><text fill="#000000" font-family="sans-serif" font-size="13" lengthAdjust="spacing" textLength="238.564" x="493.31" y="475.9766">state files (create or forward-migrate)</text></g><!--link Engine to Hook--><g class="link" data-entity-1="ent0004" data-entity-2="ent0007" data-link-type="dependency" data-source-line="22" id="lnk13"><path d="M630.14,411.4983 C667.61,421.6283 706.22,437.5183 736.31,462.4083 C750.81,474.4083 758.3276,487.5562 764.3976,503.6062" fill="none" id="Engine-to-Hook" style="stroke:#181818;stroke-width:1;"/><polygon fill="#181818" points="766.52,509.2183,767.0777,499.3852,764.7513,504.5416,759.595,502.2152,766.52,509.2183" style="stroke:#181818;stroke-width:1;"/><text fill="#000000" font-family="sans-serif" font-size="13" lengthAdjust="spacing" textLength="241.7886" x="751.43" y="475.9766">upsert SessionStart hook (idempotent)</text></g><?plantuml-src ZLRRRXit57pNLnpu9HAWbTAtGa7QgBBY2FKbiDK2HLF8zEwHn9fBRabAgX04w4Vq2_ib7LuahsiRpPiWyjpcp0pt5RsJLNToyR6ONSxcnUHyrkkyedSLk_BHltqwcTMDufgrvug48xzccfYw5hfoez5CIq-VQMbioIEwCqRH5zeAAuNsX2ialQDQ-79DmjOaDPLMU7R3kggAKicXi-Mm5b8FhADk-D4Rq1mbReiY9hsbfH8hggMr1bTk4KUbOg7fS27T3zaRMTwd1akZbqgMdjReGR6bV_xw6-sGK3knTyNLbktEIe-BohYDPTgjMQSfI3foxFl4od5C9Z6w5QMNMwR6chhn2ucn5ySY8Nafb7BqqPhVkVIZKRomatvzlBN8hVGZB8r5rjHhWF2Q6sCzAfLgKqcz8e59vIf0LT7dHlZrbrjIKZFTiPCL-hOSpeOcJc8y3zszR1gk0Xf0kR7ii3BXfT6an3xKLVA-lRgVXP8Laho9NIobug8nw7GV6qpLOxHPoHB1su047SanlJoRNKu79v4tRIwbWsVeb0wUCkehG3jIAMrjpQfXiE4_T3AM8v-Kl0ET1ZJp6QS4T2KjoXYx9s-P-ocNe-lfsVHoUZt-uNmQKN2qbI8TBZp_YMKl5xLq3clfvdPwVRAy1CJhd7foFlxfT3geg-4OoUOt-0NMQx72X7VAW9PfxL9lpNsEkM7aDFh62sn-RSmzrMnNJ0-0VRYw-X5oU6zi3F1hj4tZijpK6uNTw1LYFUUceSF4mTJvNjHgaQPV6Bl8PA9k84mg7sBV8nHe2EbxeunLiGJ5YugNOgDyqaMUFaj219tiXAqAezMUhDdegl1MDYtET4-lBegR-NW-BIvcPzVZ-UpgifUIXTf65vLqzuHU0WH1SaPLWQEnGg1oKhMB0mR-a-RGEJR8OEBpAk-JCmTR01XQ6uy00Uy9D-LgY4bB7ee6AjuA1OPSizzOxTeQ_7pGLfzCjWdFkay7EVOfAus-9F9FDjQ2oqNKfTbfpBG66EY2oZsiYbw__kPRn8iO5D1Dhj8I0OmMYQBH1PR4sT8oZ2qEgsEz2WOGm1XqlFJ8V75wIa4qqO4UIdVBr5Alqn61y7Ho2l2KWMPeIECLZaw2yF1lfrF2q8p6NtGIl3Mc-pM3-Did_VYD-AIVyUsOQw9aEzLNQBgTEtj6JlzOnp7zD0xVhl2iG97JCkQ3NzyfF4YLALrS68JHpqhinOHp13vDzxnga3KISVG2ZrB6Nn3RplY2ljjZHu77u0yuxtIm4F3tkm0cZUZfEZhX85n8SE3Eo_0UlUeObB8U7FLjVkw-puyYFJoAe_pCTNAP41pmma4BtUmxXpfKSGa5kADgqfFKQoS94269QzbMDw5DOEd1LZBgZo83FeZSD8w1vbDekoWDv7rYFOIFbz9u3wsPPTeCqMLq4E3au6nGNO3jVtq4STb9pCD7mmjkCacZ19j3MARacwSEcJytdheWeg8FleaUasxn7nkX0ZoQTso3PGMRSW_V1xU33iCqmip_0W00?></g></svg>