<svg xmlns="http://www.w3.org/2000/svg" xmlns:xlink="http://www.w3.org/1999/xlink" contentStyleType="text/css" data-diagram-type="DESCRIPTION" height="718px" preserveAspectRatio="none" style="width:1218px;height:718px;background:#FFFFFF;" version="1.1" viewBox="0 0 1218 718" width="1218px" zoomAndPan="magnify"><?plantuml 1.2026.3?><defs/><g><g class="title" data-source-line="8"><text fill="#000000" font-family="sans-serif" font-size="14" font-weight="700" lengthAdjust="spacing" textLength="377.9111" x="416.8944" y="23.5352">MDD traceability + freshness &#8212; ownership (current)</text></g><!--entity Dev--><g class="entity" data-qualified-name="Dev" data-source-line="10" id="ent0002"><ellipse cx="564.1064" cy="51.4883" fill="#F1F1F1" rx="8" ry="8" style="stroke:#181818;stroke-width:0.5;"/><path d="M564.1064,59.4883 L564.1064,86.4883 M551.1064,67.4883 L577.1064,67.4883 M564.1064,86.4883 L551.1064,101.4883 M564.1064,86.4883 L577.1064,101.4883" fill="none" style="stroke:#181818;stroke-width:0.5;"/><text fill="#000000" font-family="sans-serif" font-size="14" lengthAdjust="spacing" textLength="124.6328" x="501.79" y="116.5234">Developer / Agent</text></g><!--entity Cli--><g class="entity" data-qualified-name="Cli" data-source-line="12" id="ent0003"><rect fill="#F1F1F1" height="62.9766" rx="2.5" ry="2.5" style="stroke:#181818;stroke-width:0.5;" width="248.7354" x="439.74" y="196.4783"/><rect fill="#F1F1F1" height="10" style="stroke:#181818;stroke-width:0.5;" width="15" x="668.4754" y="201.4783"/><rect fill="#F1F1F1" height="2" style="stroke:#181818;stroke-width:0.5;" width="4" x="666.4754" y="203.4783"/><rect fill="#F1F1F1" height="2" style="stroke:#181818;stroke-width:0.5;" width="4" x="666.4754" y="207.4783"/><text fill="#000000" font-family="sans-serif" font-size="14" lengthAdjust="spacing" textLength="208.7354" x="454.74" y="230.0134">mdd review / mdd map-status</text><text fill="#000000" font-family="sans-serif" font-size="14" lengthAdjust="spacing" textLength="120.6133" x="454.74" y="246.5017">(CMP-TRACE-CLI)</text></g><!--entity Gate--><g class="entity" data-qualified-name="Gate" data-source-line="13" id="ent0004"><rect fill="#F1F1F1" height="79.4648" rx="2.5" ry="2.5" style="stroke:#181818;stroke-width:0.5;" width="187.3281" x="283.44" y="336.4483"/><rect fill="#F1F1F1" height="10" style="stroke:#181818;stroke-width:0.5;" width="15" x="450.7681" y="341.4483"/><rect fill="#F1F1F1" height="2" style="stroke:#181818;stroke-width:0.5;" width="4" x="448.7681" y="343.4483"/><rect fill="#F1F1F1" height="2" style="stroke:#181818;stroke-width:0.5;" width="4" x="448.7681" y="347.4483"/><text fill="#000000" font-family="sans-serif" font-size="14" lengthAdjust="spacing" textLength="147.3281" x="298.44" y="369.9834">Project::review pass 3</text><text fill="#000000" font-family="sans-serif" font-size="14" lengthAdjust="spacing" textLength="136.9033" x="298.44" y="386.4717">+ validate existence</text><text fill="#000000" font-family="sans-serif" font-size="14" lengthAdjust="spacing" textLength="135.6455" x="298.44" y="402.96">(CMP-TRACE-GATE)</text></g><!--entity Engine--><g class="entity" data-qualified-name="Engine" data-source-line="14" id="ent0005"><rect fill="#F1F1F1" height="62.9766" rx="2.5" ry="2.5" style="stroke:#181818;stroke-width:0.5;" width="189.4404" x="505.39" y="492.9183"/><rect fill="#F1F1F1" height="10" style="stroke:#181818;stroke-width:0.5;" width="15" x="674.8304" y="497.9183"/><rect fill="#F1F1F1" height="2" style="stroke:#181818;stroke-width:0.5;" width="4" x="672.8304" y="499.9183"/><rect fill="#F1F1F1" height="2" style="stroke:#181818;stroke-width:0.5;" width="4" x="672.8304" y="503.9183"/><text fill="#000000" font-family="sans-serif" font-size="14" lengthAdjust="spacing" textLength="92.1963" x="520.39" y="526.4534">traceability.rs</text><text fill="#000000" font-family="sans-serif" font-size="14" lengthAdjust="spacing" textLength="149.4404" x="520.39" y="542.9417">(CMP-TRACE-ENGINE)</text></g><!--entity Config--><g class="entity" data-qualified-name="Config" data-source-line="15" id="ent0006"><rect fill="#F1F1F1" height="62.9766" rx="2.5" ry="2.5" style="stroke:#181818;stroke-width:0.5;" width="204.2129" x="7" y="492.9183"/><rect fill="#F1F1F1" height="10" style="stroke:#181818;stroke-width:0.5;" width="15" x="191.2129" y="497.9183"/><rect fill="#F1F1F1" height="2" style="stroke:#181818;stroke-width:0.5;" width="4" x="189.2129" y="499.9183"/><rect fill="#F1F1F1" height="2" style="stroke:#181818;stroke-width:0.5;" width="4" x="189.2129" y="503.9183"/><text fill="#000000" font-family="sans-serif" font-size="14" lengthAdjust="spacing" textLength="74.5801" x="22" y="526.4534">MddConfig</text><text fill="#000000" font-family="sans-serif" font-size="14" lengthAdjust="spacing" textLength="164.2129" x="22" y="542.9417">traceability.parity_check</text></g><!--entity Trace--><g class="entity" data-qualified-name="Trace" data-source-line="16" id="ent0007"><rect fill="#F1F1F1" height="62.9766" rx="2.5" ry="2.5" style="stroke:#181818;stroke-width:0.5;" width="124.2256" x="254.99" y="492.9183"/><rect fill="#F1F1F1" height="10" style="stroke:#181818;stroke-width:0.5;" width="15" x="359.2156" y="497.9183"/><rect fill="#F1F1F1" height="2" style="stroke:#181818;stroke-width:0.5;" width="4" x="357.2156" y="499.9183"/><rect fill="#F1F1F1" height="2" style="stroke:#181818;stroke-width:0.5;" width="4" x="357.2156" y="503.9183"/><text fill="#000000" font-family="sans-serif" font-size="14" lengthAdjust="spacing" textLength="62.5283" x="269.99" y="526.4534">trace.yml</text><text fill="#000000" font-family="sans-serif" font-size="14" lengthAdjust="spacing" textLength="84.2256" x="269.99" y="542.9417">source_links</text></g><!--entity Manifest--><g class="entity" data-qualified-name="Manifest" data-source-line="17" id="ent0008"><path d="M126.04,632.8883 L167.04,632.8883 A3.75,3.75 0 0 1 169.54,635.3883 L176.54,653.8883 L318.1787,653.8883 A2.5,2.5 0 0 1 320.6787,656.3883 L320.6787,701.3648 A2.5,2.5 0 0 1 318.1787,703.8648 L126.04,703.8648 A2.5,2.5 0 0 1 123.54,701.3648 L123.54,635.3883 A2.5,2.5 0 0 1 126.04,632.8883" fill="#F1F1F1" style="stroke:#181818;stroke-width:0.5;"/><line style="stroke:#181818;stroke-width:0.5;" x1="123.54" x2="176.54" y1="653.8883" y2="653.8883"/><text fill="#000000" font-family="sans-serif" font-size="14" lengthAdjust="spacing" textLength="167.1387" x="133.54" y="674.4234">.mdd/map/manifest.yml</text><text fill="#000000" font-family="sans-serif" font-size="14" lengthAdjust="spacing" textLength="105.417" x="133.54" y="690.9117">source_revision</text></g><!--entity Git--><g class="entity" data-qualified-name="Git" data-source-line="18" id="ent0009"><rect fill="#F1F1F1" height="46.4883" rx="2.5" ry="2.5" style="stroke:#181818;stroke-width:0.5;" width="58.0127" x="450.1" y="645.1383"/><rect fill="#F1F1F1" height="10" style="stroke:#181818;stroke-width:0.5;" width="15" x="488.1127" y="650.1383"/><rect fill="#F1F1F1" height="2" style="stroke:#181818;stroke-width:0.5;" width="4" x="486.1127" y="652.1383"/><rect fill="#F1F1F1" height="2" style="stroke:#181818;stroke-width:0.5;" width="4" x="486.1127" y="656.1383"/><text fill="#000000" font-family="sans-serif" font-size="14" lengthAdjust="spacing" textLength="18.0127" x="465.1" y="678.6734">git</text></g><!--entity Syn--><g class="entity" data-qualified-name="Syn" data-source-line="19" id="ent0010"><rect fill="#F1F1F1" height="62.9766" rx="2.5" ry="2.5" style="stroke:#181818;stroke-width:0.5;" width="172.6924" x="634.76" y="636.8883"/><rect fill="#F1F1F1" height="10" style="stroke:#181818;stroke-width:0.5;" width="15" x="787.4524" y="641.8883"/><rect fill="#F1F1F1" height="2" style="stroke:#181818;stroke-width:0.5;" width="4" x="785.4524" y="643.8883"/><rect fill="#F1F1F1" height="2" style="stroke:#181818;stroke-width:0.5;" width="4" x="785.4524" y="647.8883"/><text fill="#000000" font-family="sans-serif" font-size="14" lengthAdjust="spacing" textLength="132.6924" x="649.76" y="670.4234">syn + proc-macro2</text><text fill="#000000" font-family="sans-serif" font-size="14" lengthAdjust="spacing" textLength="110.8311" x="649.76" y="686.9117">(span-locations)</text></g><g class="entity" data-qualified-name="GMN20" data-source-line="32" id="ent0021"><path d="M842.51,648.0683 L842.51,688.6894 L1203.6999,688.6894 L1203.6999,658.0683 L1193.6999,648.0683 L842.51,648.0683" fill="#FEFFDD" style="stroke:#181818;stroke-width:0.5;"/><path d="M1193.6999,648.0683 L1193.6999,658.0683 L1203.6999,658.0683 L1193.6999,648.0683" fill="#FEFFDD" style="stroke:#181818;stroke-width:1;"/><text fill="#000000" font-family="sans-serif" font-size="13" lengthAdjust="spacing" textLength="302.5293" x="848.51" y="665.6366">Single language (Rust): syn, not a full LSP client.</text><text fill="#000000" font-family="sans-serif" font-size="13" lengthAdjust="spacing" textLength="340.1899" x="848.51" y="680.9472">Realized by SEQ-TRACE-REVIEW + SEQ-MAP-STATUS.</text></g><!--link Dev to Cli--><g class="link" data-entity-1="ent0002" data-entity-2="ent0003" data-link-type="dependency" data-source-line="21" id="lnk11"><path d="M564.11,119.8783 C564.11,143.6683 564.11,168.0083 564.11,190.3183" fill="none" id="Dev-to-Cli" style="stroke:#181818;stroke-width:1;"/><polygon fill="#181818" points="564.11,196.3183,568.11,187.3183,564.11,191.3183,560.11,187.3183,564.11,196.3183" style="stroke:#181818;stroke-width:1;"/><text fill="#000000" font-family="sans-serif" font-size="13" lengthAdjust="spacing" textLength="193.8257" x="565.11" y="163.0466">mdd review / mdd map-status</text></g><!--link Cli to Gate--><g class="link" data-entity-1="ent0003" data-entity-2="ent0004" data-link-type="dependency" data-source-line="22" id="lnk12"><path d="M524.91,259.6183 C496.42,281.8883 462.3671,308.5231 431.6771,332.5131" fill="none" id="Cli-to-Gate" style="stroke:#181818;stroke-width:1;"/><polygon fill="#181818" points="426.95,336.2083,436.5041,333.817,430.8893,333.129,431.5773,327.5141,426.95,336.2083" style="stroke:#181818;stroke-width:1;"/><text fill="#000000" font-family="sans-serif" font-size="13" lengthAdjust="spacing" textLength="48.7627" x="482.8" y="303.0166">review()</text></g><!--link Cli to Engine--><g class="link" data-entity-1="ent0003" data-entity-2="ent0005" data-link-type="dependency" data-source-line="23" id="lnk13"><path d="M584.71,259.6083 C610.61,300.1583 653.67,374.8483 670.11,445.9183 C671.81,453.2783 673.25,456.0483 670.11,462.9183 C664.96,474.1583 661.0083,480.0698 651.7983,488.4898" fill="none" id="Cli-to-Engine" style="stroke:#181818;stroke-width:1;"/><polygon fill="#181818" points="647.37,492.5383,656.7114,489.4178,651.0603,489.1646,651.3135,483.5134,647.37,492.5383" style="stroke:#181818;stroke-width:1;"/><text fill="#000000" font-family="sans-serif" font-size="13" lengthAdjust="spacing" textLength="153.8481" x="662.26" y="381.2466">map_status() (freshness)</text></g><!--link Gate to Engine--><g class="link" data-entity-1="ent0004" data-entity-2="ent0005" data-link-type="dependency" data-source-line="24" id="lnk14"><path d="M395.99,416.2883 C405.5,432.5783 418.38,450.5383 434.11,462.9183 C454.84,479.2283 474.7292,489.3633 499.4992,498.3433" fill="none" id="Gate-to-Engine" style="stroke:#181818;stroke-width:1;"/><polygon fill="#181818" points="505.14,500.3883,498.0422,493.5603,500.4394,498.6841,495.3156,501.0813,505.14,500.3883" style="stroke:#181818;stroke-width:1;"/><text fill="#000000" font-family="sans-serif" font-size="13" lengthAdjust="spacing" textLength="230.2485" x="435.11" y="459.4866">forward resolve + reverse changeset</text></g><!--link Gate to Config--><g class="link" data-entity-1="ent0004" data-entity-2="ent0006" data-link-type="dependency" data-source-line="25" id="lnk15"><path d="M283.22,382.7383 C233.13,390.3883 173.79,407.6483 134.11,445.9183 C121.49,458.0783 116.3775,470.749 113.2775,486.659" fill="none" id="Gate-to-Config" style="stroke:#181818;stroke-width:1;"/><polygon fill="#181818" points="112.13,492.5483,117.7774,484.4794,113.0862,487.6406,109.9251,482.9494,112.13,492.5483" style="stroke:#181818;stroke-width:1;"/><text fill="#000000" font-family="sans-serif" font-size="13" lengthAdjust="spacing" textLength="166.2388" x="135.11" y="459.4866">parity_check (error | warn)</text></g><!--link Gate to Trace--><g class="link" data-entity-1="ent0004" data-entity-2="ent0007" data-link-type="dependency" data-source-line="26" id="lnk16"><path d="M332.48,416.2083 C324.97,425.1483 318.27,435.2083 314.11,445.9183 C308.4,460.5983 307.7848,472.0847 309.6148,486.7047" fill="none" id="Gate-to-Trace" style="stroke:#181818;stroke-width:1;"/><polygon fill="#181818" points="310.36,492.6583,313.2112,483.2312,309.739,487.697,305.2732,484.2248,310.36,492.6583" style="stroke:#181818;stroke-width:1;"/><text fill="#000000" font-family="sans-serif" font-size="13" lengthAdjust="spacing" textLength="78.2095" x="315.11" y="459.4866">source_links</text></g><!--link Engine to Git--><g class="link" data-entity-1="ent0005" data-entity-2="ent0009" data-link-type="dependency" data-source-line="27" id="lnk17"><path d="M506.44,556.2483 C494.4,564.0683 483.66,573.8083 476.11,585.8883 C465.15,603.4183 466.27,621.6239 470.45,639.0439" fill="none" id="Engine-to-Git" style="stroke:#181818;stroke-width:1;"/><polygon fill="#181818" points="471.85,644.8783,473.6396,635.1934,470.6833,640.0163,465.8604,637.06,471.85,644.8783" style="stroke:#181818;stroke-width:1;"/><text fill="#000000" font-family="sans-serif" font-size="13" lengthAdjust="spacing" textLength="200.2241" x="477.11" y="599.4566">diff --unified=0 base..worktree</text></g><!--link Engine to Syn--><g class="link" data-entity-1="ent0005" data-entity-2="ent0010" data-link-type="dependency" data-source-line="28" id="lnk18"><path d="M649.87,556.0783 C661.41,564.7383 672.98,574.8483 682.11,585.8883 C694.5,600.8783 701.7951,614.9041 708.3351,631.1141" fill="none" id="Engine-to-Syn" style="stroke:#181818;stroke-width:1;"/><polygon fill="#181818" points="710.58,636.6783,710.9221,626.8354,708.7092,632.0414,703.5032,629.8286,710.58,636.6783" style="stroke:#181818;stroke-width:1;"/><text fill="#000000" font-family="sans-serif" font-size="13" lengthAdjust="spacing" textLength="172.9482" x="694.45" y="599.4566">parse_file -&gt; symbol spans</text></g><!--link Engine to Manifest--><g class="link" data-entity-1="ent0005" data-entity-2="ent0008" data-link-type="dependency" data-source-line="29" id="lnk19"><path d="M505.29,540.2983 C401.8,556.7483 250,581.4983 245.11,585.8883 C232.1,597.5883 227.14,631.0908 224.57,647.4708" fill="none" id="Engine-to-Manifest" style="stroke:#181818;stroke-width:1;"/><polygon fill="#181818" points="223.64,653.3983,228.9867,645.1271,224.415,648.4587,221.0834,643.887,223.64,653.3983" style="stroke:#181818;stroke-width:1;"/><text fill="#000000" font-family="sans-serif" font-size="13" lengthAdjust="spacing" textLength="215.7378" x="246.11" y="599.4566">read source_revision (map-status)</text></g><!--link Engine to GMN20--><g class="link" data-entity-1="ent0005" data-entity-2="ent0021" data-link-type="association" data-source-line="32" id="lnk22"><path d="M695.27,539.3983 C749.14,549.0283 817.12,564.0683 875.11,585.8883 C918.34,602.1583 964.4,629.2583 993.44,647.6983" fill="none" id="Engine-GMN20" style="stroke:#181818;stroke-width:1;stroke-dasharray:7,7;"/></g><?plantuml-src XLRTRjis5BxNKnou5xKHonwsEmqhcZbU5Y0fKjlhBfh2fINAvaoH0ad5LR6BFSIUS4-oZvGSIswoNHWs3i_lzvqVlwQt8XlExkxZrU9oDe_dxwvltir7qMjwct6RVlCofi7FbP2EcANKCCVjjCYoEDM6Jwr9fywmbBEDaCBL4sCJub-yoArjNMoqj3IqjKgIaXdBrxcGd2weD3gD2vOQ_JtPagbOwfGvePMb-0qjW-4IyZ7PlIXBeRRqwYCYkq_JLn_JV3lqlqUVI3XUM68g8w4o_iNhSLKLzCYCOCfPd_CSWYJvq4X6OzeAjqvtJ6rvjfP2ePmcjKg9N42MYJod8RGe_8hZzk6dxsZ3B9zC3jhidU5yJ2WNhnatSK22j98r8lXyZX5IdN4Q5goqjAlKtfBJo5LnKsZha6mgjVLf7y6weAsi-6ZI2jO5S-cEUpF90_X8ml0GObMNF4aAxdOweroRmaxelZ8yeOnl3Sk25V6YT3KTTbpvoaa0autbof7LPFYZu0TI_94RsZ6JnJaJI49NpWhapIYjKyadWz0TlQwvlbmzspDU_jGnGZtRCL9iGgFS6_q7JrsID7cikvr4GrHqG4f0nFZyB1-XI9bnppNgEZFsJ9VCMlfXt7soMZxojTMLIRbdUqyMTSB7GRWTkHr7gqYH8STrO0NDAwm3BHmCydJVa7cNPJEjSh6Tz9eTVOElTL2auQhpr6YFGKJEAW31ZT46fCwO1Bpd4-R9Q_cca7BbHo54zXashMIvUuw7sUtDSpH0t9rRxoPG80NDT570jKsIHOiSufo4TwnSEkOgIxRQfAtud4af0f454oem-HdIjfi-OxY57xsRgwdbQUKXwks840ymGqLf5N_bHfElbZPO0di_2uMmeUr_RFnYU68RKdho_SjYllnrkbnTtixH7vaHkNl1BGpHmBJ23A6VCJaUYemx3A1Ge5gaj4LTy983-XtMWSLKEbDJgKEejhrA_wqhAskIBDtph25ZLXa3zJYCYpwWW-nEb85G7wXNTp_45gjdxBdPU98caHCEg_7kwkfbet_--hiJOvWsiKTHX6sBW8Chp8dK9RfuIfTRF0syVqYZ24IMMlcn7voeWbeVtmTrrbd1mKoAhltvu3LJzw0kdaRfD4GzXs5b18_NKEgwF3iXFQlsF0sQLUvHwre-JUQ3Ud4qcoA2rZT19tKX7rHdFzYW7MOv2ki6k4w04dgzn0Ud09UdP-LXi9ZNO7ZNQdG3OUqsLOkU65UnVmbHTlyMDaKlQnL5816Nw8tdWXBw3meZh-4rFSPGRTI6eoTvWw5tmifrOpCSOTiUksmK1SkUwd4Lj_lqj99Fk-barI0Dg_vw32kG_YGuKfqO0MaeToc8si2X3DoivFykSTS0S3MnZ_ys86jtgqUtv_p8Li29PNJ6QBZRBQwOCgMHyqOxfmlI-R4PYPROMOWZWKJ5jhZsYmf_Jb1IZVylCC9gooifwNPvJzYS87y2gmN7j7p59ThKj9o_RxjzCVzmC_yT07lHtULzZ1st-cqvYJYscq_WNm00?></g></svg>