<svg xmlns="http://www.w3.org/2000/svg" xmlns:xlink="http://www.w3.org/1999/xlink" contentStyleType="text/css" data-diagram-type="DESCRIPTION" height="656px" preserveAspectRatio="none" style="width:2523px;height:656px;background:#FFFFFF;" version="1.1" viewBox="0 0 2523 656" width="2523px" zoomAndPan="magnify"><?plantuml 1.2026.3?><defs/><g><g class="title" data-source-line="10"><text fill="#000000" font-family="sans-serif" font-size="14" font-weight="700" lengthAdjust="spacing" textLength="313.7627" x="1101.4666" y="23.5352">mdd-viewer UI shell &#8212; ownership (current)</text></g><!--entity Dev--><g class="entity" data-qualified-name="Dev" data-source-line="12" id="ent0002"><ellipse cx="42.1392" cy="51.4883" fill="#F1F1F1" rx="8" ry="8" style="stroke:#181818;stroke-width:0.5;"/><path d="M42.1392,59.4883 L42.1392,86.4883 M29.1392,67.4883 L55.1392,67.4883 M42.1392,86.4883 L29.1392,101.4883 M42.1392,86.4883 L55.1392,101.4883" fill="none" style="stroke:#181818;stroke-width:0.5;"/><text fill="#000000" font-family="sans-serif" font-size="14" lengthAdjust="spacing" textLength="68.3184" x="7.98" y="116.5234">Developer</text></g><!--entity Viewer--><g class="entity" data-qualified-name="Viewer" data-source-line="14" id="ent0003"><rect fill="#F1F1F1" height="79.4648" rx="2.5" ry="2.5" style="stroke:#181818;stroke-width:0.5;" width="132.5244" x="854.88" y="196.4783"/><rect fill="#F1F1F1" height="10" style="stroke:#181818;stroke-width:0.5;" width="15" x="967.4044" y="201.4783"/><rect fill="#F1F1F1" height="2" style="stroke:#181818;stroke-width:0.5;" width="4" x="965.4044" y="203.4783"/><rect fill="#F1F1F1" height="2" style="stroke:#181818;stroke-width:0.5;" width="4" x="965.4044" y="207.4783"/><text fill="#000000" font-family="sans-serif" font-size="14" lengthAdjust="spacing" textLength="74.9971" x="869.88" y="230.0134">MddViewer</text><text fill="#000000" font-family="sans-serif" font-size="14" lengthAdjust="spacing" textLength="92.5244" x="869.88" y="246.5017">(eframe::App)</text><text fill="#000000" font-family="sans-serif" font-size="14" lengthAdjust="spacing" textLength="56.1846" x="869.88" y="262.99">update()</text></g><!--entity Left--><g class="entity" data-qualified-name="Left" data-source-line="15" id="ent0004"><rect fill="#F1F1F1" height="62.9766" rx="2.5" ry="2.5" style="stroke:#181818;stroke-width:0.5;" width="138.9023" x="1546.69" y="376.1883"/><rect fill="#F1F1F1" height="10" style="stroke:#181818;stroke-width:0.5;" width="15" x="1665.5923" y="381.1883"/><rect fill="#F1F1F1" height="2" style="stroke:#181818;stroke-width:0.5;" width="4" x="1663.5923" y="383.1883"/><rect fill="#F1F1F1" height="2" style="stroke:#181818;stroke-width:0.5;" width="4" x="1663.5923" y="387.1883"/><text fill="#000000" font-family="sans-serif" font-size="14" lengthAdjust="spacing" textLength="90.8633" x="1561.69" y="409.7234">SidePanel left</text><text fill="#000000" font-family="sans-serif" font-size="14" lengthAdjust="spacing" textLength="98.9023" x="1561.69" y="426.2117">\"rail\" / sliver</text></g><!--entity Right--><g class="entity" data-qualified-name="Right" data-source-line="16" id="ent0005"><rect fill="#F1F1F1" height="62.9766" rx="2.5" ry="2.5" style="stroke:#181818;stroke-width:0.5;" width="168.666" x="1720.81" y="376.1883"/><rect fill="#F1F1F1" height="10" style="stroke:#181818;stroke-width:0.5;" width="15" x="1869.476" y="381.1883"/><rect fill="#F1F1F1" height="2" style="stroke:#181818;stroke-width:0.5;" width="4" x="1867.476" y="383.1883"/><rect fill="#F1F1F1" height="2" style="stroke:#181818;stroke-width:0.5;" width="4" x="1867.476" y="387.1883"/><text fill="#000000" font-family="sans-serif" font-size="14" lengthAdjust="spacing" textLength="101.0625" x="1735.81" y="409.7234">SidePanel right</text><text fill="#000000" font-family="sans-serif" font-size="14" lengthAdjust="spacing" textLength="128.666" x="1735.81" y="426.2117">\"context\" / sliver</text></g><!--entity Toolbar--><g class="entity" data-qualified-name="Toolbar" data-source-line="17" id="ent0006"><rect fill="#F1F1F1" height="79.4648" rx="2.5" ry="2.5" style="stroke:#181818;stroke-width:0.5;" width="214.4736" x="213.9" y="367.9383"/><rect fill="#F1F1F1" height="10" style="stroke:#181818;stroke-width:0.5;" width="15" x="408.3736" y="372.9383"/><rect fill="#F1F1F1" height="2" style="stroke:#181818;stroke-width:0.5;" width="4" x="406.3736" y="374.9383"/><rect fill="#F1F1F1" height="2" style="stroke:#181818;stroke-width:0.5;" width="4" x="406.3736" y="378.9383"/><text fill="#000000" font-family="sans-serif" font-size="14" lengthAdjust="spacing" textLength="78.8662" x="228.9" y="401.4734">svg_toolbar</text><text fill="#000000" font-family="sans-serif" font-size="14" lengthAdjust="spacing" textLength="148.6816" x="228.9" y="417.9617">(PAGE selector + hint;</text><text fill="#000000" font-family="sans-serif" font-size="14" lengthAdjust="spacing" textLength="174.4736" x="228.9" y="434.45">no Reset/Zoom+/Zoom-)</text></g><!--entity Fisheye--><g class="entity" data-qualified-name="Fisheye" data-source-line="18" id="ent0007"><rect fill="#F1F1F1" height="62.9766" rx="2.5" ry="2.5" style="stroke:#181818;stroke-width:0.5;" width="220.4961" x="1924.89" y="376.1883"/><rect fill="#F1F1F1" height="10" style="stroke:#181818;stroke-width:0.5;" width="15" x="2125.3861" y="381.1883"/><rect fill="#F1F1F1" height="2" style="stroke:#181818;stroke-width:0.5;" width="4" x="2123.3861" y="383.1883"/><rect fill="#F1F1F1" height="2" style="stroke:#181818;stroke-width:0.5;" width="4" x="2123.3861" y="387.1883"/><text fill="#000000" font-family="sans-serif" font-size="14" lengthAdjust="spacing" textLength="141.4902" x="1939.89" y="409.7234">Fisheye canvas stage</text><text fill="#000000" font-family="sans-serif" font-size="14" lengthAdjust="spacing" textLength="180.4961" x="1939.89" y="426.2117">CanvasView::fisheye_mesh</text></g><!--entity PL--><g class="entity" data-qualified-name="PL" data-source-line="19" id="ent0008"><rect fill="#F1F1F1" height="46.4883" rx="2.5" ry="2.5" style="stroke:#181818;stroke-width:0.5;" width="121.04" x="1788.62" y="559.7483"/><rect fill="#F1F1F1" height="10" style="stroke:#181818;stroke-width:0.5;" width="15" x="1889.66" y="564.7483"/><rect fill="#F1F1F1" height="2" style="stroke:#181818;stroke-width:0.5;" width="4" x="1887.66" y="566.7483"/><rect fill="#F1F1F1" height="2" style="stroke:#181818;stroke-width:0.5;" width="4" x="1887.66" y="570.7483"/><text fill="#000000" font-family="sans-serif" font-size="14" lengthAdjust="spacing" textLength="81.04" x="1803.62" y="593.2834">PanelLayout</text></g><!--entity CV--><g class="entity" data-qualified-name="CV" data-source-line="20" id="ent0009"><rect fill="#F1F1F1" height="46.4883" rx="2.5" ry="2.5" style="stroke:#181818;stroke-width:0.5;" width="120.0078" x="1960.14" y="559.7483"/><rect fill="#F1F1F1" height="10" style="stroke:#181818;stroke-width:0.5;" width="15" x="2060.1478" y="564.7483"/><rect fill="#F1F1F1" height="2" style="stroke:#181818;stroke-width:0.5;" width="4" x="2058.1478" y="566.7483"/><rect fill="#F1F1F1" height="2" style="stroke:#181818;stroke-width:0.5;" width="4" x="2058.1478" y="570.7483"/><text fill="#000000" font-family="sans-serif" font-size="14" lengthAdjust="spacing" textLength="80.0078" x="1975.14" y="593.2834">CanvasView</text></g><!--entity Egui--><g class="entity" data-qualified-name="Egui" data-source-line="21" id="ent0010"><rect fill="#F1F1F1" height="62.9766" rx="2.5" ry="2.5" style="stroke:#181818;stroke-width:0.5;" width="213.0586" x="380.61" y="551.4983"/><rect fill="#F1F1F1" height="10" style="stroke:#181818;stroke-width:0.5;" width="15" x="573.6686" y="556.4983"/><rect fill="#F1F1F1" height="2" style="stroke:#181818;stroke-width:0.5;" width="4" x="571.6686" y="558.4983"/><rect fill="#F1F1F1" height="2" style="stroke:#181818;stroke-width:0.5;" width="4" x="571.6686" y="562.4983"/><text fill="#000000" font-family="sans-serif" font-size="14" lengthAdjust="spacing" textLength="128.1602" x="395.61" y="585.0334">eframe / egui 0.30</text><text fill="#000000" font-family="sans-serif" font-size="14" lengthAdjust="spacing" textLength="173.0586" x="395.61" y="601.5217">painter.add(Shape::mesh)</text></g><!--entity Theme--><g class="entity" data-qualified-name="Theme" data-source-line="22" id="ent0011"><rect fill="#F1F1F1" height="79.4648" rx="2.5" ry="2.5" style="stroke:#181818;stroke-width:0.5;" width="185.8037" x="463.24" y="367.9383"/><rect fill="#F1F1F1" height="10" style="stroke:#181818;stroke-width:0.5;" width="15" x="629.0437" y="372.9383"/><rect fill="#F1F1F1" height="2" style="stroke:#181818;stroke-width:0.5;" width="4" x="627.0437" y="374.9383"/><rect fill="#F1F1F1" height="2" style="stroke:#181818;stroke-width:0.5;" width="4" x="627.0437" y="378.9383"/><text fill="#000000" font-family="sans-serif" font-size="14" lengthAdjust="spacing" textLength="101.6572" x="478.24" y="401.4734">Theme module</text><text fill="#000000" font-family="sans-serif" font-size="14" lengthAdjust="spacing" textLength="68.8721" x="478.24" y="417.9617">(theme.rs,</text><text fill="#000000" font-family="sans-serif" font-size="14" lengthAdjust="spacing" textLength="145.8037" x="478.24" y="434.45">CMP-VIEWER-THEME)</text></g><g class="entity" data-qualified-name="GMN24" data-source-line="38" id="ent0025"><path d="M2115.59,547.3683 L2115.59,618.6105 L2508.696,618.6105 L2508.696,557.3683 L2498.696,547.3683 L2115.59,547.3683" fill="#FEFFDD" style="stroke:#181818;stroke-width:0.5;"/><path d="M2498.696,547.3683 L2498.696,557.3683 L2508.696,557.3683 L2498.696,547.3683" fill="#FEFFDD" style="stroke:#181818;stroke-width:1;"/><text fill="#000000" font-family="sans-serif" font-size="13" lengthAdjust="spacing" textLength="340.0059" x="2121.59" y="564.9366">The fisheye is a display-time stage on top of the base</text><text fill="#000000" font-family="sans-serif" font-size="13" lengthAdjust="spacing" textLength="362.9971" x="2121.59" y="580.2472">zoom/pan placement; it does not change the render/font</text><text fill="#000000" font-family="sans-serif" font-size="13" lengthAdjust="spacing" textLength="372.106" x="2121.59" y="595.5577">pipeline (CMP-VIEWER-RENDER-PIPELINE) &#8212; it only remaps</text><text fill="#000000" font-family="sans-serif" font-size="13" lengthAdjust="spacing" textLength="302.5293" x="2121.59" y="610.8683">where the already-rasterized texture is painted.</text></g><!--entity Launch--><g class="entity" data-qualified-name="Launch" data-source-line="44" id="ent0027"><rect fill="#F1F1F1" height="79.4648" rx="2.5" ry="2.5" style="stroke:#181818;stroke-width:0.5;" width="456.2471" x="1055.02" y="367.9383"/><rect fill="#F1F1F1" height="10" style="stroke:#181818;stroke-width:0.5;" width="15" x="1491.2671" y="372.9383"/><rect fill="#F1F1F1" height="2" style="stroke:#181818;stroke-width:0.5;" width="4" x="1489.2671" y="374.9383"/><rect fill="#F1F1F1" height="2" style="stroke:#181818;stroke-width:0.5;" width="4" x="1489.2671" y="378.9383"/><text fill="#000000" font-family="sans-serif" font-size="14" lengthAdjust="spacing" textLength="115.4727" x="1070.02" y="401.4734">MockupLauncher</text><text fill="#000000" font-family="sans-serif" font-size="14" lengthAdjust="spacing" textLength="171.1309" x="1070.02" y="417.9617">(CMP-MOCKUP-LAUNCH)</text><text fill="#000000" font-family="sans-serif" font-size="14" lengthAdjust="spacing" textLength="416.2471" x="1070.02" y="434.45">open_mockup_render &#183; mockup_server_up &#183; open_in_browser</text></g><!--entity Vite--><g class="entity" data-qualified-name="Vite" data-source-line="45" id="ent0028"><rect fill="#F1F1F1" height="62.9766" rx="2.5" ry="2.5" style="stroke:#181818;stroke-width:0.5;" width="307.2578" x="1446.51" y="551.4983"/><rect fill="#F1F1F1" height="10" style="stroke:#181818;stroke-width:0.5;" width="15" x="1733.7678" y="556.4983"/><rect fill="#F1F1F1" height="2" style="stroke:#181818;stroke-width:0.5;" width="4" x="1731.7678" y="558.4983"/><rect fill="#F1F1F1" height="2" style="stroke:#181818;stroke-width:0.5;" width="4" x="1731.7678" y="562.4983"/><text fill="#000000" font-family="sans-serif" font-size="14" lengthAdjust="spacing" textLength="86.3926" x="1461.51" y="585.0334">npm run dev</text><text fill="#000000" font-family="sans-serif" font-size="14" lengthAdjust="spacing" textLength="267.2578" x="1461.51" y="601.5217">(Vite dev server, :4317, cwd mockups/)</text></g><!--entity Browser--><g class="entity" data-qualified-name="Browser" data-source-line="46" id="ent0029"><rect fill="#F1F1F1" height="62.9766" rx="2.5" ry="2.5" style="stroke:#181818;stroke-width:0.5;" width="214.6035" x="658.84" y="551.4983"/><rect fill="#F1F1F1" height="10" style="stroke:#181818;stroke-width:0.5;" width="15" x="853.4435" y="556.4983"/><rect fill="#F1F1F1" height="2" style="stroke:#181818;stroke-width:0.5;" width="4" x="851.4435" y="558.4983"/><rect fill="#F1F1F1" height="2" style="stroke:#181818;stroke-width:0.5;" width="4" x="851.4435" y="562.4983"/><text fill="#000000" font-family="sans-serif" font-size="14" lengthAdjust="spacing" textLength="129.3291" x="673.84" y="585.0334">OS default browser</text><text fill="#000000" font-family="sans-serif" font-size="14" lengthAdjust="spacing" textLength="174.6035" x="673.84" y="601.5217">(open / xdg-open / start)</text></g><g class="entity" data-qualified-name="GMN33" data-source-line="53" id="ent0034"><path d="M908.74,524.4083 L908.74,641.5821 A0,0 0 0 0 908.74,641.5821 L1411.5462,641.5821 A0,0 0 0 0 1411.5462,641.5821 L1411.5462,534.4083 L1401.5462,524.4083 L1205.2,524.4083 L1255.54,447.5683 L1197.2,524.4083 L908.74,524.4083 A0,0 0 0 0 908.74,524.4083" fill="#FEFFDD" style="stroke:#181818;stroke-width:0.5;"/><path d="M1401.5462,524.4083 L1401.5462,534.4083 L1411.5462,534.4083 L1401.5462,524.4083" fill="#FEFFDD" style="stroke:#181818;stroke-width:0.5;"/><text fill="#000000" font-family="sans-serif" font-size="13" lengthAdjust="spacing" textLength="481.8062" x="914.74" y="541.9766">Code (CMP-MOCKUP-LAUNCH / USE-OPEN-RENDER): selected_render_slug()</text><text fill="#000000" font-family="sans-serif" font-size="13" lengthAdjust="spacing" textLength="355.875" x="914.74" y="557.2872">enables the button only for a ModelKind::Mockup whose</text><text fill="#000000" font-family="sans-serif" font-size="13" lengthAdjust="spacing" textLength="442.4761" x="914.74" y="572.5977">mockups/src/mockups/&lt;slug&gt;.tsx exists. open_mockup_render runs</text><text fill="#000000" font-family="sans-serif" font-size="13" lengthAdjust="spacing" textLength="412.896" x="914.74" y="587.9083">off the UI thread (std::thread): mockup_server_up() probes :4317,</text><text fill="#000000" font-family="sans-serif" font-size="13" lengthAdjust="spacing" textLength="441.8096" x="914.74" y="603.2188">spawns npm run dev (cwd &lt;root&gt;/mockups) if down and polls until it</text><text fill="#000000" font-family="sans-serif" font-size="13" lengthAdjust="spacing" textLength="420.564" x="914.74" y="618.5294">binds, then open_in_browser opens /mockup/&lt;slug&gt;. Realized by</text><text fill="#000000" font-family="sans-serif" font-size="13" lengthAdjust="spacing" textLength="127.1118" x="914.74" y="633.8399">SEQ-OPEN-RENDER.</text></g><!--link Dev to Viewer--><g class="link" data-entity-1="ent0002" data-entity-2="ent0003" data-link-type="dependency" data-source-line="24" id="lnk12"><path d="M76.6,88.2283 C208.01,111.0983 673.1689,192.0494 848.6889,222.5994" fill="none" id="Dev-to-Viewer" style="stroke:#181818;stroke-width:1;"/><polygon fill="#181818" points="854.6,223.6283,846.4192,218.1442,849.6741,222.7709,845.0474,226.0257,854.6,223.6283" style="stroke:#181818;stroke-width:1;"/><text fill="#000000" font-family="sans-serif" font-size="13" lengthAdjust="spacing" textLength="60.3599" x="509" y="163.0466">mdd view</text></g><!--link Viewer to Theme--><g class="link" data-entity-1="ent0003" data-entity-2="ent0011" data-link-type="dependency" data-source-line="25" id="lnk13"><path d="M854.46,239.1083 C754.77,243.5283 574.24,258.0883 534.14,305.9383 C519.88,322.9483 522.2577,341.5943 530.9077,361.9943" fill="none" id="Viewer-to-Theme" style="stroke:#181818;stroke-width:1;"/><polygon fill="#181818" points="533.25,367.5183,533.4192,357.6709,531.2981,362.915,526.054,360.7939,533.25,367.5183" style="stroke:#181818;stroke-width:1;"/><text fill="#000000" font-family="sans-serif" font-size="13" lengthAdjust="spacing" textLength="257.2642" x="539.212" y="319.5066">theme::register_fonts(&amp;cc.egui_ctx) once</text><text fill="#000000" font-family="sans-serif" font-size="13" lengthAdjust="spacing" textLength="265.4082" x="535.14" y="334.8172">+ theme::apply_theme(ctx) first per frame</text></g><!--link Theme to Egui--><g class="link" data-entity-1="ent0011" data-entity-2="ent0010" data-link-type="dependency" data-source-line="26" id="lnk14"><path d="M504.52,447.5683 C496.22,456.3983 488.83,466.4383 484.14,477.4083 C474.14,500.7883 474.9498,523.9556 478.6698,545.5156" fill="none" id="Theme-to-Egui" style="stroke:#181818;stroke-width:1;"/><polygon fill="#181818" points="479.69,551.4283,482.1015,541.8792,478.8399,546.5011,474.218,543.2394,479.69,551.4283" style="stroke:#181818;stroke-width:1;"/><text fill="#000000" font-family="sans-serif" font-size="13" lengthAdjust="spacing" textLength="270.3403" x="485.14" y="490.9766">FontDefinitions + Visuals + Style overrides</text></g><!--link Viewer to Left--><g class="link" data-entity-1="ent0003" data-entity-2="ent0004" data-link-type="dependency" data-source-line="27" id="lnk15"><path d="M987.57,241.8783 C1074.35,249.2883 1230.28,267.0683 1358.14,305.9383 C1390.48,315.7683 1395.5,326.0283 1427.14,337.9383 C1471.36,354.5883 1484.79,351.6283 1529.14,367.9383 C1535.66,370.3383 1536.8347,370.6971 1543.5147,373.4571" fill="none" id="Viewer-to-Left" style="stroke:#181818;stroke-width:1;"/><polygon fill="#181818" points="1549.06,375.7483,1542.2695,368.6146,1544.4389,373.839,1539.2146,376.0084,1549.06,375.7483" style="stroke:#181818;stroke-width:1;"/><text fill="#000000" font-family="sans-serif" font-size="13" lengthAdjust="spacing" textLength="203.3091" x="1428.14" y="327.0066">draw + collapse chevron / sliver</text></g><!--link Viewer to Right--><g class="link" data-entity-1="ent0003" data-entity-2="ent0005" data-link-type="dependency" data-source-line="28" id="lnk16"><path d="M987.79,239.7683 C1141.52,246.2883 1516.88,265.9183 1636.14,305.9383 C1661.87,314.5683 1664.88,323.9583 1688.14,337.9383 C1708.93,350.4483 1726.7639,360.9738 1746.8239,372.7338" fill="none" id="Viewer-to-Right" style="stroke:#181818;stroke-width:1;"/><polygon fill="#181818" points="1752,375.7683,1746.2588,367.7659,1747.6866,373.2396,1742.2129,374.6673,1752,375.7683" style="stroke:#181818;stroke-width:1;"/><text fill="#000000" font-family="sans-serif" font-size="13" lengthAdjust="spacing" textLength="203.3091" x="1689.14" y="327.0066">draw + collapse chevron / sliver</text></g><!--link Left to PL--><g class="link" data-entity-1="ent0004" data-entity-2="ent0008" data-link-type="dependency" data-source-line="29" id="lnk17"><path d="M1657.79,439.6583 C1704,474.0283 1772.6354,525.0878 1813.7954,555.6978" fill="none" id="Left-to-PL" style="stroke:#181818;stroke-width:1;"/><polygon fill="#181818" points="1818.61,559.2783,1813.7752,550.6978,1814.5979,556.2945,1809.0012,557.1172,1818.61,559.2783" style="stroke:#181818;stroke-width:1;"/><text fill="#000000" font-family="sans-serif" font-size="13" lengthAdjust="spacing" textLength="75.6577" x="1726.65" y="490.9766">toggle_left()</text></g><!--link Right to PL--><g class="link" data-entity-1="ent0005" data-entity-2="ent0008" data-link-type="dependency" data-source-line="30" id="lnk18"><path d="M1813.01,439.6583 C1821.73,474.0283 1834.1238,522.8527 1841.8938,553.4627" fill="none" id="Right-to-PL" style="stroke:#181818;stroke-width:1;"/><polygon fill="#181818" points="1843.37,559.2783,1845.0327,549.5708,1842.1398,554.432,1837.2786,551.5391,1843.37,559.2783" style="stroke:#181818;stroke-width:1;"/><text fill="#000000" font-family="sans-serif" font-size="13" lengthAdjust="spacing" textLength="85.1284" x="1826.82" y="490.9766">toggle_right()</text></g><!--link Viewer to Toolbar--><g class="link" data-entity-1="ent0003" data-entity-2="ent0006" data-link-type="dependency" data-source-line="31" id="lnk19"><path d="M854.54,237.1083 C723.18,238.2083 436.88,247.4683 361.14,305.9383 C342,320.7183 333.4119,340.2068 328.1919,361.7668" fill="none" id="Viewer-to-Toolbar" style="stroke:#181818;stroke-width:1;"/><polygon fill="#181818" points="326.78,367.5983,332.7855,359.7923,327.9566,362.7387,325.0102,357.9097,326.78,367.5983" style="stroke:#181818;stroke-width:1;"/><text fill="#000000" font-family="sans-serif" font-size="13" lengthAdjust="spacing" textLength="154.3687" x="362.14" y="327.0066">draw (no zoom controls)</text></g><!--link Viewer to Fisheye--><g class="link" data-entity-1="ent0003" data-entity-2="ent0007" data-link-type="dependency" data-source-line="32" id="lnk20"><path d="M987.78,237.1383 C1179.52,237.6783 1729.52,244.6783 1897.14,305.9383 C1938.23,320.9583 1973.3351,348.0781 1999.4851,371.7881" fill="none" id="Viewer-to-Fisheye" style="stroke:#181818;stroke-width:1;"/><polygon fill="#181818" points="2003.93,375.8183,1999.9494,366.8097,2000.2259,372.4598,1994.5758,372.7363,2003.93,375.8183" style="stroke:#181818;stroke-width:1;"/><text fill="#000000" font-family="sans-serif" font-size="13" lengthAdjust="spacing" textLength="206.9209" x="1955.59" y="327.0066">warp rendered texture per frame</text></g><!--link Fisheye to CV--><g class="link" data-entity-1="ent0007" data-entity-2="ent0009" data-link-type="dependency" data-source-line="33" id="lnk21"><path d="M2032.46,439.6583 C2029.48,474.0283 2025.2675,522.6906 2022.6175,553.3006" fill="none" id="Fisheye-to-CV" style="stroke:#181818;stroke-width:1;"/><polygon fill="#181818" points="2022.1,559.2783,2026.8613,550.6568,2022.5313,554.2969,2018.8912,549.9668,2022.1,559.2783" style="stroke:#181818;stroke-width:1;"/><text fill="#000000" font-family="sans-serif" font-size="13" lengthAdjust="spacing" textLength="236.209" x="2029.98" y="490.9766">focal=centre, strength, radius, warp()</text></g><!--link Viewer to Egui--><g class="link" data-entity-1="ent0003" data-entity-2="ent0010" data-link-type="dependency" data-source-line="34" id="lnk22"><path d="M875.67,276.2183 C850.03,300.3583 819.21,333.2883 799.14,367.9383 C769.66,418.8383 802.8,453.9083 760.14,494.4083 C720.58,531.9583 693.21,508.1583 641.14,524.4083 C615.93,532.2683 594.4537,539.8502 570.1237,549.0302" fill="none" id="Viewer-to-Egui" style="stroke:#181818;stroke-width:1;"/><polygon fill="#181818" points="564.51,551.1483,574.3426,551.7136,569.1881,549.3832,571.5185,544.2286,564.51,551.1483" style="stroke:#181818;stroke-width:1;"/><text fill="#000000" font-family="sans-serif" font-size="13" lengthAdjust="spacing" textLength="236.9009" x="800.14" y="412.7366">textured Mesh, clipped to canvas rect</text></g><!--link Egui to Dev--><g class="link" data-entity-1="ent0010" data-entity-2="ent0002" data-link-type="dependency" data-source-line="35" id="lnk23"><path d="M380.2,559.4383 C270.9,529.8083 108.11,465.7683 42.14,337.9383 C6,267.9183 18.6389,177.9165 30.6089,125.7165" fill="none" id="Egui-to-Dev" style="stroke:#181818;stroke-width:1;"/><polygon fill="#181818" points="31.95,119.8683,26.0396,127.7466,30.8325,124.7418,33.8372,129.5346,31.95,119.8683" style="stroke:#181818;stroke-width:1;"/><text fill="#000000" font-family="sans-serif" font-size="13" lengthAdjust="spacing" textLength="286.584" x="43.14" y="327.0066">centre-magnified diagram, collapsible panels</text></g><!--link Fisheye to GMN24--><g class="link" data-entity-1="ent0007" data-entity-2="ent0025" data-link-type="association" data-source-line="38" id="lnk26"><path d="M2145.79,418.2383 C2190.77,427.2983 2240.26,444.5883 2275.14,477.4083 C2294.36,495.4883 2303.6,524.1683 2308.05,546.9283" fill="none" id="Fisheye-GMN24" style="stroke:#181818;stroke-width:1;stroke-dasharray:7,7;"/></g><!--link Viewer to Launch--><g class="link" data-entity-1="ent0003" data-entity-2="ent0027" data-link-type="dependency" data-source-line="48" id="lnk30"><path d="M974.79,276.3383 C1004.27,296.5983 1042.07,320.6483 1078.14,337.9383 C1100.9,348.8483 1120.198,356.7547 1144.618,365.4547" fill="none" id="Viewer-to-Launch" style="stroke:#181818;stroke-width:1;"/><polygon fill="#181818" points="1150.27,367.4683,1143.1344,360.6798,1145.56,365.7903,1140.4496,368.2159,1150.27,367.4683" style="stroke:#181818;stroke-width:1;"/><text fill="#000000" font-family="sans-serif" font-size="13" lengthAdjust="spacing" textLength="205.8735" x="1113.5379" y="319.5066">open_mockup_render(root, slug)</text><text fill="#000000" font-family="sans-serif" font-size="13" lengthAdjust="spacing" textLength="274.6694" x="1079.14" y="334.8172">on "Open render" click (UIC-OPEN-RENDER)</text></g><!--link Launch to Vite--><g class="link" data-entity-1="ent0027" data-entity-2="ent0028" data-link-type="dependency" data-source-line="49" id="lnk31"><path d="M1341.85,447.6983 C1365.51,462.8883 1393.27,480.0483 1419.14,494.4083 C1455.62,514.6483 1492.0452,532.5361 1526.3152,548.5661" fill="none" id="Launch-to-Vite" style="stroke:#181818;stroke-width:1;"/><polygon fill="#181818" points="1531.75,551.1083,1525.2925,543.6718,1527.221,548.9898,1521.903,550.9182,1531.75,551.1083" style="stroke:#181818;stroke-width:1;"/><text fill="#000000" font-family="sans-serif" font-size="13" lengthAdjust="spacing" textLength="283.6641" x="1420.14" y="490.9766">spawn in mockups/ only if :4317 not serving</text></g><!--link Launch to Browser--><g class="link" data-entity-1="ent0027" data-entity-2="ent0029" data-link-type="dependency" data-source-line="50" id="lnk32"><path d="M1131.61,447.8883 C1058.17,468.2983 969.19,495.0783 891.14,524.4083 C870.45,532.1783 853.8289,539.3149 834.0989,548.5049" fill="none" id="Launch-to-Browser" style="stroke:#181818;stroke-width:1;"/><polygon fill="#181818" points="828.66,551.0383,838.5073,550.8642,833.1924,548.9271,835.1295,543.6122,828.66,551.0383" style="stroke:#181818;stroke-width:1;"/><text fill="#000000" font-family="sans-serif" font-size="13" lengthAdjust="spacing" textLength="147.0815" x="1030.49" y="490.9766">open /mockup/&lt;slug&gt;</text></g><?plantuml-src ZLRTRjis5BxNKn2-M6JKiZjqm02rAvgvRXlKIRmuoO31W45Bj4LK9WMIikDUxI7sBhlVe-n9zXrITkGuwtPZIoBF_tVE-SxOEvd7myj9Sdyn-dLqaqm_ZSRZRdJ6tXcnZE-c8t-GlByu_tXpVZdr9xcmsObCZtLk2y74gfRC5g8icLwoTPud6ocsmZ1ksQAMfMEB7RlCytl_DKthAkTEf2pJPSahAnUbOALOke6HgyAngSp5X2jHsXxZp6bTBhXXM-aAfZJxglKQMftJ2kSEvZEXd339KZw8d2qb7DdX8rSRcBUEhmHkSSUst5JM2nYXSc5msOa7Lnl15cAfyLTngPnKAvXLEKnNfDNmDIaGQnn0dQY2jboKOeKee56pLbvkFuqkHomc0T4tjjll-FGr2R-y7dw-coJZyxkhuQUZZ5zFHbV9pUZg_UZcEDz78aZu-JwdSMR8_k0ntmDhia4f5sGtzP6Ml5PPmL0Qn091KKX4HYSaaJY-O6VNbL1DIiwQnFQPHNYP4_ay7CnjMQ_YBciYXdou-9ffIC_NEljILytTs6ZjUemakinMVAiibR4mWkSXTnalIyiQ8IlC1WRg2kgHoihe1VpMk5Dewz8VNdt_Os-lHbLhPcg5v6y27h9jpjwGlRU3eCuohSeTaqllPAMDOn9osZ6oGoMCAw2E7chKkcGIu4HERDTZIOLuf9elZDv2nB-7YA-diBlaDS6vEKGiZTt16uhtRPzTQU-bL41UMVO8iLaXopn1O9cmG6HHkrnl5NE6Pr_WI438i3P8dqiim8_6M5TQuTMN2MQDt12s3Q1_qaUm1VblWQ7FXWL47s6CbC03Q5pioFGtq1ivwT2ThPw-ksXQ_U_V__1QZ2ra1JI60BfHn3Ed3Uky5njH8dscGtC0Rr7q65Vd4CPCnS8tMPgULrLtfa9KSTUBXJjjmSDqy2DZfcOTmsKvwx0188Sq1NDZd3qlvMSCYMLQKVy_bRoXyxQetQpcpH22hvFpZwEcEn3a2uQ6Sgzd2cM-4LQumMyOJo_yRn8Yk0sYROqVdfbHCpNqRnHmcZPJRBuMjl1Q6f6s5X_EcEzqxVoLoRXz-gZD7mxlsuSXuOZRJ-wN_LSlPyeFFs7wFC_ZQS4hr8EiXo16kDTMS4i0GGVdTGdF3tZf8OedO6gIG1UY221WIVAsgIfB2LSUub7pXGw3RZ-_21H6h2J6hfalKIyRVvTbVV9wdhc7BfezW_qN-xkygihTtB_4_dmfZNKqnvcFE0gwoGf512CVeFIzM4ebdSH2GK7lfQrvIKzJjmFqDO1XW1xRzf7W1UdSy2qkDdiC1It4ncXr05HRnEFg_yXutIGn6LCMz6fLYZbXFUv6GSdJGmzfdBQJs6pDnbwyNvm4UgDBUtHvZyVKxyZJzVYOl_rDaXhUGs19W_edsi16O4pZLwrSqME6vxB6VYQ5nvurYMzqv-mI8Eknh9HLHIRrlYiCEYpobqcAa9EoO2TPyvMIIudhkUGhEDOxeXALvmvHXAcFFQMnfzR4I_Ojn0XX1vuWQJdbqbObtoLE0Xs1Cg0YJbSavxSTjoH8AHn0FSFj34X2wzC2oRK8EoOhkF9qOyyn1WHQ25Qo4bWwWhKfLDZsoUHYCXfVN8swVg92dTzWHgmH3qIt1MhXLVAILkWkCPpwGNvjLGXHXFxD-n4CapFYUDpwBJNsTC3Ft5CsCbEdkvpzzUV9dgPlJxPa6BbUUTjeQrt3uhr4EMXp1qqzrknssk7DyXxiXxuxcdIdcnVgo0KqpKE-Iff75CwueE7dS2qwwjd0XTB_e2n8WuB9HrBK8N1cNrXyTp4yfccDnZ3H7FMFvobOo8U03dJ41zic8ctfnjt6joUSuWJ8JQ8P6-gyGTHH9P6Afumo_HT21oL2SJHDczG5dy68qHcNC55-1a5Aqm0Xu57xNjX7I3HZ_zoG86SVc7Z0r0RpU0PJW0G1Moz3Ru5GDEGmjWvsmWjSVeOWUdPe6-H0npEyC3xbX5qgWETSnEk9_za3-uCIp_--IV-UahmRmKlVV-1FZ4r7lxIJ_TY1_m00?></g></svg>