<svg xmlns="http://www.w3.org/2000/svg" xmlns:xlink="http://www.w3.org/1999/xlink" contentStyleType="text/css" data-diagram-type="DESCRIPTION" height="610px" preserveAspectRatio="none" style="width:1741px;height:610px;background:#FFFFFF;" version="1.1" viewBox="0 0 1741 610" width="1741px" zoomAndPan="magnify"><?plantuml 1.2026.3?><defs/><g><g class="title" data-source-line="7"><text fill="#000000" font-family="sans-serif" font-size="14" font-weight="700" lengthAdjust="spacing" textLength="313.7627" x="710.4606" y="23.5352">mdd-viewer UI shell &#8212; ownership (current)</text></g><!--entity Dev--><g class="entity" data-qualified-name="Dev" data-source-line="9" id="ent0002"><ellipse cx="1119.4492" cy="51.4883" fill="#F1F1F1" rx="8" ry="8" style="stroke:#181818;stroke-width:0.5;"/><path d="M1119.4492,59.4883 L1119.4492,86.4883 M1106.4492,67.4883 L1132.4492,67.4883 M1119.4492,86.4883 L1106.4492,101.4883 M1119.4492,86.4883 L1132.4492,101.4883" fill="none" style="stroke:#181818;stroke-width:0.5;"/><text fill="#000000" font-family="sans-serif" font-size="14" lengthAdjust="spacing" textLength="68.3184" x="1085.29" y="116.5234">Developer</text></g><!--entity Viewer--><g class="entity" data-qualified-name="Viewer" data-source-line="11" id="ent0003"><rect fill="#F1F1F1" height="79.4648" rx="2.5" ry="2.5" style="stroke:#181818;stroke-width:0.5;" width="132.5244" x="682.19" y="196.4783"/><rect fill="#F1F1F1" height="10" style="stroke:#181818;stroke-width:0.5;" width="15" x="794.7144" y="201.4783"/><rect fill="#F1F1F1" height="2" style="stroke:#181818;stroke-width:0.5;" width="4" x="792.7144" y="203.4783"/><rect fill="#F1F1F1" height="2" style="stroke:#181818;stroke-width:0.5;" width="4" x="792.7144" y="207.4783"/><text fill="#000000" font-family="sans-serif" font-size="14" lengthAdjust="spacing" textLength="74.9971" x="697.19" y="230.0134">MddViewer</text><text fill="#000000" font-family="sans-serif" font-size="14" lengthAdjust="spacing" textLength="92.5244" x="697.19" y="246.5017">(eframe::App)</text><text fill="#000000" font-family="sans-serif" font-size="14" lengthAdjust="spacing" textLength="56.1846" x="697.19" y="262.99">update()</text></g><!--entity Left--><g class="entity" data-qualified-name="Left" data-source-line="12" id="ent0004"><rect fill="#F1F1F1" height="62.9766" rx="2.5" ry="2.5" style="stroke:#181818;stroke-width:0.5;" width="138.9023" x="7" y="376.1883"/><rect fill="#F1F1F1" height="10" style="stroke:#181818;stroke-width:0.5;" width="15" x="125.9023" y="381.1883"/><rect fill="#F1F1F1" height="2" style="stroke:#181818;stroke-width:0.5;" width="4" x="123.9023" y="383.1883"/><rect fill="#F1F1F1" height="2" style="stroke:#181818;stroke-width:0.5;" width="4" x="123.9023" y="387.1883"/><text fill="#000000" font-family="sans-serif" font-size="14" lengthAdjust="spacing" textLength="90.8633" x="22" y="409.7234">SidePanel left</text><text fill="#000000" font-family="sans-serif" font-size="14" lengthAdjust="spacing" textLength="98.9023" x="22" y="426.2117">\"rail\" / sliver</text></g><!--entity Right--><g class="entity" data-qualified-name="Right" data-source-line="13" id="ent0005"><rect fill="#F1F1F1" height="62.9766" rx="2.5" ry="2.5" style="stroke:#181818;stroke-width:0.5;" width="168.666" x="209.12" y="376.1883"/><rect fill="#F1F1F1" height="10" style="stroke:#181818;stroke-width:0.5;" width="15" x="357.786" y="381.1883"/><rect fill="#F1F1F1" height="2" style="stroke:#181818;stroke-width:0.5;" width="4" x="355.786" y="383.1883"/><rect fill="#F1F1F1" height="2" style="stroke:#181818;stroke-width:0.5;" width="4" x="355.786" y="387.1883"/><text fill="#000000" font-family="sans-serif" font-size="14" lengthAdjust="spacing" textLength="101.0625" x="224.12" y="409.7234">SidePanel right</text><text fill="#000000" font-family="sans-serif" font-size="14" lengthAdjust="spacing" textLength="128.666" x="224.12" y="426.2117">\"context\" / sliver</text></g><!--entity Toolbar--><g class="entity" data-qualified-name="Toolbar" data-source-line="14" id="ent0006"><rect fill="#F1F1F1" height="79.4648" rx="2.5" ry="2.5" style="stroke:#181818;stroke-width:0.5;" width="214.4736" x="440.21" y="367.9383"/><rect fill="#F1F1F1" height="10" style="stroke:#181818;stroke-width:0.5;" width="15" x="634.6836" y="372.9383"/><rect fill="#F1F1F1" height="2" style="stroke:#181818;stroke-width:0.5;" width="4" x="632.6836" y="374.9383"/><rect fill="#F1F1F1" height="2" style="stroke:#181818;stroke-width:0.5;" width="4" x="632.6836" y="378.9383"/><text fill="#000000" font-family="sans-serif" font-size="14" lengthAdjust="spacing" textLength="78.8662" x="455.21" y="401.4734">svg_toolbar</text><text fill="#000000" font-family="sans-serif" font-size="14" lengthAdjust="spacing" textLength="148.6816" x="455.21" y="417.9617">(PAGE selector + hint;</text><text fill="#000000" font-family="sans-serif" font-size="14" lengthAdjust="spacing" textLength="174.4736" x="455.21" y="434.45">no Reset/Zoom+/Zoom-)</text></g><!--entity Fisheye--><g class="entity" data-qualified-name="Fisheye" data-source-line="15" id="ent0007"><rect fill="#F1F1F1" height="62.9766" rx="2.5" ry="2.5" style="stroke:#181818;stroke-width:0.5;" width="220.4961" x="689.2" y="376.1883"/><rect fill="#F1F1F1" height="10" style="stroke:#181818;stroke-width:0.5;" width="15" x="889.6961" y="381.1883"/><rect fill="#F1F1F1" height="2" style="stroke:#181818;stroke-width:0.5;" width="4" x="887.6961" y="383.1883"/><rect fill="#F1F1F1" height="2" style="stroke:#181818;stroke-width:0.5;" width="4" x="887.6961" y="387.1883"/><text fill="#000000" font-family="sans-serif" font-size="14" lengthAdjust="spacing" textLength="141.4902" x="704.2" y="409.7234">Fisheye canvas stage</text><text fill="#000000" font-family="sans-serif" font-size="14" lengthAdjust="spacing" textLength="180.4961" x="704.2" y="426.2117">CanvasView::fisheye_mesh</text></g><!--entity PL--><g class="entity" data-qualified-name="PL" data-source-line="16" id="ent0008"><rect fill="#F1F1F1" height="46.4883" rx="2.5" ry="2.5" style="stroke:#181818;stroke-width:0.5;" width="121.04" x="122.93" y="536.7783"/><rect fill="#F1F1F1" height="10" style="stroke:#181818;stroke-width:0.5;" width="15" x="223.97" y="541.7783"/><rect fill="#F1F1F1" height="2" style="stroke:#181818;stroke-width:0.5;" width="4" x="221.97" y="543.7783"/><rect fill="#F1F1F1" height="2" style="stroke:#181818;stroke-width:0.5;" width="4" x="221.97" y="547.7783"/><text fill="#000000" font-family="sans-serif" font-size="14" lengthAdjust="spacing" textLength="81.04" x="137.93" y="570.3134">PanelLayout</text></g><!--entity CV--><g class="entity" data-qualified-name="CV" data-source-line="17" id="ent0009"><rect fill="#F1F1F1" height="46.4883" rx="2.5" ry="2.5" style="stroke:#181818;stroke-width:0.5;" width="120.0078" x="476.45" y="536.7783"/><rect fill="#F1F1F1" height="10" style="stroke:#181818;stroke-width:0.5;" width="15" x="576.4578" y="541.7783"/><rect fill="#F1F1F1" height="2" style="stroke:#181818;stroke-width:0.5;" width="4" x="574.4578" y="543.7783"/><rect fill="#F1F1F1" height="2" style="stroke:#181818;stroke-width:0.5;" width="4" x="574.4578" y="547.7783"/><text fill="#000000" font-family="sans-serif" font-size="14" lengthAdjust="spacing" textLength="80.0078" x="491.45" y="570.3134">CanvasView</text></g><!--entity Egui--><g class="entity" data-qualified-name="Egui" data-source-line="18" id="ent0010"><rect fill="#F1F1F1" height="62.9766" rx="2.5" ry="2.5" style="stroke:#181818;stroke-width:0.5;" width="213.0586" x="1089.92" y="528.5383"/><rect fill="#F1F1F1" height="10" style="stroke:#181818;stroke-width:0.5;" width="15" x="1282.9786" y="533.5383"/><rect fill="#F1F1F1" height="2" style="stroke:#181818;stroke-width:0.5;" width="4" x="1280.9786" y="535.5383"/><rect fill="#F1F1F1" height="2" style="stroke:#181818;stroke-width:0.5;" width="4" x="1280.9786" y="539.5383"/><text fill="#000000" font-family="sans-serif" font-size="14" lengthAdjust="spacing" textLength="128.1602" x="1104.92" y="562.0734">eframe / egui 0.30</text><text fill="#000000" font-family="sans-serif" font-size="14" lengthAdjust="spacing" textLength="173.0586" x="1104.92" y="578.5617">painter.add(Shape::mesh)</text></g><!--entity Theme--><g class="entity" data-qualified-name="Theme" data-source-line="19" id="ent0011"><rect fill="#F1F1F1" height="79.4648" rx="2.5" ry="2.5" style="stroke:#181818;stroke-width:0.5;" width="185.8037" x="1252.55" y="367.9383"/><rect fill="#F1F1F1" height="10" style="stroke:#181818;stroke-width:0.5;" width="15" x="1418.3537" y="372.9383"/><rect fill="#F1F1F1" height="2" style="stroke:#181818;stroke-width:0.5;" width="4" x="1416.3537" y="374.9383"/><rect fill="#F1F1F1" height="2" style="stroke:#181818;stroke-width:0.5;" width="4" x="1416.3537" y="378.9383"/><text fill="#000000" font-family="sans-serif" font-size="14" lengthAdjust="spacing" textLength="101.6572" x="1267.55" y="401.4734">Theme module</text><text fill="#000000" font-family="sans-serif" font-size="14" lengthAdjust="spacing" textLength="68.8721" x="1267.55" y="417.9617">(theme.rs,</text><text fill="#000000" font-family="sans-serif" font-size="14" lengthAdjust="spacing" textLength="145.8037" x="1267.55" y="434.45">CMP-VIEWER-THEME)</text></g><g class="entity" data-qualified-name="GMN24" data-source-line="35" id="ent0025"><path d="M631.9,524.4083 L631.9,595.6505 A0,0 0 0 0 631.9,595.6505 L1025.006,595.6505 A0,0 0 0 0 1025.006,595.6505 L1025.006,534.4083 L1015.006,524.4083 L825.71,524.4083 L805.39,439.4583 L817.71,524.4083 L631.9,524.4083 A0,0 0 0 0 631.9,524.4083" fill="#FEFFDD" style="stroke:#181818;stroke-width:0.5;"/><path d="M1015.006,524.4083 L1015.006,534.4083 L1025.006,534.4083 L1015.006,524.4083" fill="#FEFFDD" style="stroke:#181818;stroke-width:0.5;"/><text fill="#000000" font-family="sans-serif" font-size="13" lengthAdjust="spacing" textLength="340.0059" x="637.9" y="541.9766">The fisheye is a display-time stage on top of the base</text><text fill="#000000" font-family="sans-serif" font-size="13" lengthAdjust="spacing" textLength="362.9971" x="637.9" y="557.2872">zoom/pan placement; it does not change the render/font</text><text fill="#000000" font-family="sans-serif" font-size="13" lengthAdjust="spacing" textLength="372.106" x="637.9" y="572.5977">pipeline (CMP-VIEWER-RENDER-PIPELINE) &#8212; it only remaps</text><text fill="#000000" font-family="sans-serif" font-size="13" lengthAdjust="spacing" textLength="302.5293" x="637.9" y="587.9083">where the already-rasterized texture is painted.</text></g><!--link Dev to Viewer--><g class="link" data-entity-1="ent0002" data-entity-2="ent0003" data-link-type="dependency" data-source-line="21" id="lnk12"><path d="M1084.88,96.4883 C1023.45,121.8183 899.847,172.7811 820.637,205.4411" fill="none" id="Dev-to-Viewer" style="stroke:#181818;stroke-width:1;"/><polygon fill="#181818" points="815.09,207.7283,824.9352,207.9956,819.7125,205.8223,821.8857,200.5996,815.09,207.7283" style="stroke:#181818;stroke-width:1;"/><text fill="#000000" font-family="sans-serif" font-size="13" lengthAdjust="spacing" textLength="60.3599" x="957.16" y="163.0466">mdd view</text></g><!--link Viewer to Theme--><g class="link" data-entity-1="ent0003" data-entity-2="ent0011" data-link-type="dependency" data-source-line="22" id="lnk13"><path d="M815.13,254.3183 C907.63,278.3083 1079.96,323.9783 1225.45,367.9383 C1234.15,370.5683 1237.4564,371.5582 1246.4864,374.3982" fill="none" id="Viewer-to-Theme" style="stroke:#181818;stroke-width:1;"/><polygon fill="#181818" points="1252.21,376.1983,1244.8247,369.6824,1247.4403,374.6982,1242.4245,377.3138,1252.21,376.1983" style="stroke:#181818;stroke-width:1;"/><text fill="#000000" font-family="sans-serif" font-size="13" lengthAdjust="spacing" textLength="257.2642" x="1126.532" y="319.5066">theme::register_fonts(&amp;cc.egui_ctx) once</text><text fill="#000000" font-family="sans-serif" font-size="13" lengthAdjust="spacing" textLength="265.4082" x="1122.46" y="334.8172">+ theme::apply_theme(ctx) first per frame</text></g><!--link Theme to Egui--><g class="link" data-entity-1="ent0011" data-entity-2="ent0010" data-link-type="dependency" data-source-line="23" id="lnk14"><path d="M1252.42,441.0983 C1225.47,452.4883 1201.18,465.4183 1193.45,477.4083 C1183.92,492.1783 1183.248,505.8848 1186.208,522.1848" fill="none" id="Theme-to-Egui" style="stroke:#181818;stroke-width:1;"/><polygon fill="#181818" points="1187.28,528.0883,1189.6076,518.5184,1186.3866,523.1687,1181.7363,519.9478,1187.28,528.0883" style="stroke:#181818;stroke-width:1;"/><text fill="#000000" font-family="sans-serif" font-size="13" lengthAdjust="spacing" textLength="270.3403" x="1194.45" y="490.9766">FontDefinitions + Visuals + Style overrides</text></g><!--link Viewer to Left--><g class="link" data-entity-1="ent0003" data-entity-2="ent0004" data-link-type="dependency" data-source-line="24" id="lnk15"><path d="M681.93,240.1583 C526.44,247.6283 149,269.3683 105.45,305.9383 C85.24,322.9083 79.1269,346.9897 77.1869,369.8697" fill="none" id="Viewer-to-Left" style="stroke:#181818;stroke-width:1;"/><polygon fill="#181818" points="76.68,375.8483,81.4261,367.2184,77.1024,370.8662,73.4547,366.5425,76.68,375.8483" style="stroke:#181818;stroke-width:1;"/><text fill="#000000" font-family="sans-serif" font-size="13" lengthAdjust="spacing" textLength="203.3091" x="106.45" y="327.0066">draw + collapse chevron / sliver</text></g><!--link Viewer to Right--><g class="link" data-entity-1="ent0003" data-entity-2="ent0005" data-link-type="dependency" data-source-line="25" id="lnk16"><path d="M681.83,241.3383 C581.28,248.7383 396.92,267.2583 344.45,305.9383 C321.57,322.8083 310.0603,347.1679 302.8103,370.0779" fill="none" id="Viewer-to-Right" style="stroke:#181818;stroke-width:1;"/><polygon fill="#181818" points="301,375.7983,307.529,368.4245,302.5085,371.0313,299.9018,366.0108,301,375.7983" style="stroke:#181818;stroke-width:1;"/><text fill="#000000" font-family="sans-serif" font-size="13" lengthAdjust="spacing" textLength="203.3091" x="345.45" y="327.0066">draw + collapse chevron / sliver</text></g><!--link Left to PL--><g class="link" data-entity-1="ent0004" data-entity-2="ent0008" data-link-type="dependency" data-source-line="26" id="lnk17"><path d="M98.36,439.4583 C118.91,468.3283 145.6515,505.9095 164.0015,531.6995" fill="none" id="Left-to-PL" style="stroke:#181818;stroke-width:1;"/><polygon fill="#181818" points="167.48,536.5883,165.5215,526.9361,164.5813,532.5143,159.0031,531.5741,167.48,536.5883" style="stroke:#181818;stroke-width:1;"/><text fill="#000000" font-family="sans-serif" font-size="13" lengthAdjust="spacing" textLength="75.6577" x="137.36" y="490.9766">toggle_left()</text></g><!--link Right to PL--><g class="link" data-entity-1="ent0005" data-entity-2="ent0008" data-link-type="dependency" data-source-line="27" id="lnk18"><path d="M270.93,439.4583 C249.81,468.3283 222.2717,505.9551 203.4117,531.7451" fill="none" id="Right-to-PL" style="stroke:#181818;stroke-width:1;"/><polygon fill="#181818" points="199.87,536.5883,208.4114,531.6847,202.8215,532.5523,201.9539,526.9624,199.87,536.5883" style="stroke:#181818;stroke-width:1;"/><text fill="#000000" font-family="sans-serif" font-size="13" lengthAdjust="spacing" textLength="85.1284" x="242.75" y="490.9766">toggle_right()</text></g><!--link Viewer to Toolbar--><g class="link" data-entity-1="ent0003" data-entity-2="ent0006" data-link-type="dependency" data-source-line="28" id="lnk19"><path d="M681.83,248.7183 C645.67,258.2483 602.88,275.4083 575.45,305.9383 C560.29,322.8183 554.1907,341.3009 550.9607,361.8709" fill="none" id="Viewer-to-Toolbar" style="stroke:#181818;stroke-width:1;"/><polygon fill="#181818" points="550.03,367.7983,555.3777,359.5277,550.8056,362.8588,547.4745,358.2867,550.03,367.7983" style="stroke:#181818;stroke-width:1;"/><text fill="#000000" font-family="sans-serif" font-size="13" lengthAdjust="spacing" textLength="154.3687" x="576.45" y="327.0066">draw (no zoom controls)</text></g><!--link Viewer to Fisheye--><g class="link" data-entity-1="ent0003" data-entity-2="ent0007" data-link-type="dependency" data-source-line="29" id="lnk20"><path d="M740.95,275.9683 C738.82,295.1183 738.65,318.2683 745.45,337.9383 C750.21,351.7083 755.1705,360.1993 764.2905,371.1993" fill="none" id="Viewer-to-Fisheye" style="stroke:#181818;stroke-width:1;"/><polygon fill="#181818" points="768.12,375.8183,765.455,366.3368,764.9287,371.9692,759.2964,371.4429,768.12,375.8183" style="stroke:#181818;stroke-width:1;"/><text fill="#000000" font-family="sans-serif" font-size="13" lengthAdjust="spacing" textLength="206.9209" x="746.45" y="327.0066">warp rendered texture per frame</text></g><!--link Fisheye to CV--><g class="link" data-entity-1="ent0007" data-entity-2="ent0009" data-link-type="dependency" data-source-line="30" id="lnk21"><path d="M698.64,439.5983 C689.79,442.2583 680.96,444.8883 672.45,447.4083 C625.9,461.1483 603.19,444.5683 567.45,477.4083 C550.71,492.7883 544.0809,512.2778 540.5209,530.6578" fill="none" id="Fisheye-to-CV" style="stroke:#181818;stroke-width:1;"/><polygon fill="#181818" points="539.38,536.5483,545.0184,528.4731,540.3308,531.6395,537.1644,526.9519,539.38,536.5483" style="stroke:#181818;stroke-width:1;"/><text fill="#000000" font-family="sans-serif" font-size="13" lengthAdjust="spacing" textLength="236.209" x="568.45" y="490.9766">focal=centre, strength, radius, warp()</text></g><!--link Viewer to Egui--><g class="link" data-entity-1="ent0003" data-entity-2="ent0010" data-link-type="dependency" data-source-line="31" id="lnk22"><path d="M815.01,242.8983 C860.99,250.2783 920.31,267.1983 957.45,305.9383 C1002.67,353.1083 957,396.0983 997.45,447.4083 C1026.08,483.7283 1064.5347,507.6304 1103.8247,525.6204" fill="none" id="Viewer-to-Egui" style="stroke:#181818;stroke-width:1;"/><polygon fill="#181818" points="1109.28,528.1183,1102.7623,520.7346,1104.7339,526.0367,1099.4318,528.0084,1109.28,528.1183" style="stroke:#181818;stroke-width:1;"/><text fill="#000000" font-family="sans-serif" font-size="13" lengthAdjust="spacing" textLength="236.9009" x="998.45" y="412.7466">textured Mesh, clipped to canvas rect</text></g><!--link Egui to Dev--><g class="link" data-entity-1="ent0010" data-entity-2="ent0002" data-link-type="dependency" data-source-line="32" id="lnk23"><path d="M1303.33,547.3483 C1370.62,537.5483 1448.57,520.8083 1469.45,494.4083 C1474.14,488.4783 1469.93,484.9483 1469.45,477.4083 C1466.33,428.4583 1476.52,412.2383 1455.45,367.9383 C1390.5,231.3683 1231.1239,138.2064 1159.2339,101.5064" fill="none" id="Egui-to-Dev" style="stroke:#181818;stroke-width:1;"/><polygon fill="#181818" points="1153.89,98.7783,1160.0872,106.433,1158.3433,101.0517,1163.7246,99.3078,1153.89,98.7783" style="stroke:#181818;stroke-width:1;"/><text fill="#000000" font-family="sans-serif" font-size="13" lengthAdjust="spacing" textLength="286.584" x="1439.1" y="327.0066">centre-magnified diagram, collapsible panels</text></g><?plantuml-src ZLLTRzis57tNhxZmmseZbbrWRnesD73KDe1J676Q0OC1WvOeYG1D2YHjrttgZzWlt2_PkPISA4anxCMoTEyvz-lmyXrzKELuSRTA7s_pF_FxTFqvNoudoJlwu6Gr_hhEeo6zkRt-T7zzjuwMKlhY3MPAeuT6agmFYdmZjIPRqRuiqwEI9-b8UDeTb0wqEzDTMJx6hrbsQ4iHP4Q5rLgqNksq92shC7UgRWAjLIbNmaZjfoGeMAjtmj59XOQCfU_Mxi4QWZMm1uGlf0dIfPNw9akg518vuwCmHuJtGTGINYBGIRZMHu2JffGEpa5-2mSdQIShYqShb0dAr0XhIeHkcTM9FHF8FGoWast7LaejQrG1Hak3lZnypkzo6ZD0pfoVp4RSliN18MX8FKf3sVlM6hmIjmbCJXqvSuV2tdI9b06-S1ng_jpQkNV5NAiTGineqG3wdAJoP4y6ZBipX_wFt9AW0de_cDZNstwG__puEx8utwYMnaLNm2H9H16iez6DF4fjqQ4HJnblIV9Sr-YfZ8qPozZ2BBjksyd6T5MD9n7M-Go1JxEFWjYOpSW9fJSZcfFNQ5CNRWdRpr5HGGmhhE7flaRUitq8zSTwsqiCkQwkF-NaCTfOv1Kr4CHl6mFPtKilm_mlYEyg_gPT1GyTTCZuyISAt9X5VEE2iwpNw7OlVHDPUiYG9PQp56Tx2D5bjHnQdzcYSV4uD7ODHztnNBwV_Vf-OwAqfPk9iXol6z5Y7XozAoA7tv3WWGL2UriUD39_qiiKLRmIKzy4TaWIY83Iz8z-gfInhgB4a_uB6plkB8eLIJXPAnmgjwqmBp_-fIXcdFMs2DycP4s1-5SNNz6s-hoDB-DehvJpWKyfnOgJZfkZS4K8yX6aDx9IHWM5TO61FYf_49h_hSCPqhSGXeDw_317bXVGfHCdEFPR2WDjvD5PyoIe8IJgwlzW8ZSZLalkWgrhBRUizV4awKXU6wEaOHqsiT-9VRpnPIsow9tL_eNpHOzPt81lbzzp_owUZ5ey0b3PGkZVURywEOMIWQr3CoKdIdN0zcN2bvdrZU-vIxg3oAPKQDMs7D9UJeN32KkYCwDOEHbrSTAzg8sg5DnB9MeaDdrnKRJnPaWIOx4STnRtm9vldSiH8bROqos0LIX0urijpcbGK4Tt8M0YmRQCu_jW9pm3kOLpq1Ey2oW9HvyKDht5aaSqp5AOU9bSRf0vYnR0LhLIAoDfU47Uvrzky5ZThlBbxPTy4ZSgwApHP-3tg0VGKuDPH4gXdHJbENM2puFwFfWGgkZERpbB49YJaVy2?></g></svg>