<svg xmlns="http://www.w3.org/2000/svg" xmlns:xlink="http://www.w3.org/1999/xlink" contentStyleType="text/css" data-diagram-type="DESCRIPTION" height="873px" preserveAspectRatio="none" style="width:2541px;height:873px;background:#FFFFFF;" version="1.1" viewBox="0 0 2541 873" width="2541px" zoomAndPan="magnify"><?plantuml 1.2026.3?><defs/><g><g class="title" data-source-line="20"><text fill="#000000" font-family="sans-serif" font-size="14" font-weight="700" lengthAdjust="spacing" textLength="281.7295" x="1126.5981" y="23.5352">Cycle tracking &#8212; ownership (objective)</text></g><!--cluster existing workflow skills--><g class="cluster" data-qualified-name="existing workflow skills" data-source-line="25" id="ent0004"><path d="M674.55,338.9383 L848.3488,338.9383 A3.75,3.75 0 0 1 850.8488,341.4383 L857.8488,361.4266 L1695.55,361.4266 A2.5,2.5 0 0 1 1698.05,363.9266 L1698.05,433.9283 A2.5,2.5 0 0 1 1695.55,436.4283 L674.55,436.4283 A2.5,2.5 0 0 1 672.05,433.9283 L672.05,341.4383 A2.5,2.5 0 0 1 674.55,338.9383" fill="none" style="stroke:#000000;stroke-width:1.5;"/><line style="stroke:#000000;stroke-width:1.5;" x1="672.05" x2="857.8488" y1="361.4266" y2="361.4266"/><text fill="#000000" font-family="sans-serif" font-size="14" font-weight="700" lengthAdjust="spacing" textLength="172.7988" x="676.05" y="354.4734">existing workflow skills</text></g><!--entity Gen--><g class="entity" data-qualified-name="existing workflow skills.Gen" data-source-line="26" id="ent0005"><rect fill="#F1F1F1" height="46.4883" rx="2.5" ry="2.5" style="stroke:#181818;stroke-width:0.5;" width="145.6494" x="1018.23" y="373.9383"/><rect fill="#F1F1F1" height="10" style="stroke:#181818;stroke-width:0.5;" width="15" x="1143.8794" y="378.9383"/><rect fill="#F1F1F1" height="2" style="stroke:#181818;stroke-width:0.5;" width="4" x="1141.8794" y="380.9383"/><rect fill="#F1F1F1" height="2" style="stroke:#181818;stroke-width:0.5;" width="4" x="1141.8794" y="384.9383"/><text fill="#000000" font-family="sans-serif" font-size="14" lengthAdjust="spacing" textLength="105.6494" x="1033.23" y="407.4734">/mdd-generate</text></g><!--entity MapS--><g class="entity" data-qualified-name="existing workflow skills.MapS" data-source-line="27" id="ent0006"><rect fill="#F1F1F1" height="46.4883" rx="2.5" ry="2.5" style="stroke:#181818;stroke-width:0.5;" width="115.749" x="1199.18" y="373.9383"/><rect fill="#F1F1F1" height="10" style="stroke:#181818;stroke-width:0.5;" width="15" x="1294.929" y="378.9383"/><rect fill="#F1F1F1" height="2" style="stroke:#181818;stroke-width:0.5;" width="4" x="1292.929" y="380.9383"/><rect fill="#F1F1F1" height="2" style="stroke:#181818;stroke-width:0.5;" width="4" x="1292.929" y="384.9383"/><text fill="#000000" font-family="sans-serif" font-size="14" lengthAdjust="spacing" textLength="75.749" x="1214.18" y="407.4734">/mdd-map</text></g><!--entity ValS--><g class="entity" data-qualified-name="existing workflow skills.ValS" data-source-line="28" id="ent0007"><rect fill="#F1F1F1" height="46.4883" rx="2.5" ry="2.5" style="stroke:#181818;stroke-width:0.5;" width="138.7861" x="1349.66" y="373.9383"/><rect fill="#F1F1F1" height="10" style="stroke:#181818;stroke-width:0.5;" width="15" x="1468.4461" y="378.9383"/><rect fill="#F1F1F1" height="2" style="stroke:#181818;stroke-width:0.5;" width="4" x="1466.4461" y="380.9383"/><rect fill="#F1F1F1" height="2" style="stroke:#181818;stroke-width:0.5;" width="4" x="1466.4461" y="384.9383"/><text fill="#000000" font-family="sans-serif" font-size="14" lengthAdjust="spacing" textLength="98.7861" x="1364.66" y="407.4734">/mdd-validate</text></g><!--entity ImplS--><g class="entity" data-qualified-name="existing workflow skills.ImplS" data-source-line="29" id="ent0008"><rect fill="#F1F1F1" height="46.4883" rx="2.5" ry="2.5" style="stroke:#181818;stroke-width:0.5;" width="158.7061" x="1523.7" y="373.9383"/><rect fill="#F1F1F1" height="10" style="stroke:#181818;stroke-width:0.5;" width="15" x="1662.4061" y="378.9383"/><rect fill="#F1F1F1" height="2" style="stroke:#181818;stroke-width:0.5;" width="4" x="1660.4061" y="380.9383"/><rect fill="#F1F1F1" height="2" style="stroke:#181818;stroke-width:0.5;" width="4" x="1660.4061" y="384.9383"/><text fill="#000000" font-family="sans-serif" font-size="14" lengthAdjust="spacing" textLength="118.7061" x="1538.7" y="407.4734">/mdd-implement</text></g><!--entity RevS--><g class="entity" data-qualified-name="existing workflow skills.RevS" data-source-line="30" id="ent0009"><rect fill="#F1F1F1" height="46.4883" rx="2.5" ry="2.5" style="stroke:#181818;stroke-width:0.5;" width="129.5439" x="688.28" y="373.9383"/><rect fill="#F1F1F1" height="10" style="stroke:#181818;stroke-width:0.5;" width="15" x="797.8239" y="378.9383"/><rect fill="#F1F1F1" height="2" style="stroke:#181818;stroke-width:0.5;" width="4" x="795.8239" y="380.9383"/><rect fill="#F1F1F1" height="2" style="stroke:#181818;stroke-width:0.5;" width="4" x="795.8239" y="384.9383"/><text fill="#000000" font-family="sans-serif" font-size="14" lengthAdjust="spacing" textLength="89.5439" x="703.28" y="407.4734">/mdd-review</text></g><!--entity RendS--><g class="entity" data-qualified-name="existing workflow skills.RendS" data-source-line="31" id="ent0010"><rect fill="#F1F1F1" height="46.4883" rx="2.5" ry="2.5" style="stroke:#181818;stroke-width:0.5;" width="130.6924" x="852.7" y="373.9383"/><rect fill="#F1F1F1" height="10" style="stroke:#181818;stroke-width:0.5;" width="15" x="963.3924" y="378.9383"/><rect fill="#F1F1F1" height="2" style="stroke:#181818;stroke-width:0.5;" width="4" x="961.3924" y="380.9383"/><rect fill="#F1F1F1" height="2" style="stroke:#181818;stroke-width:0.5;" width="4" x="961.3924" y="384.9383"/><text fill="#000000" font-family="sans-serif" font-size="14" lengthAdjust="spacing" textLength="90.6924" x="867.7" y="407.4734">/mdd-render</text></g><!--entity Dev--><g class="entity" data-qualified-name="Dev" data-source-line="22" id="ent0002"><ellipse cx="1985.0492" cy="51.4883" fill="#F1F1F1" rx="8" ry="8" style="stroke:#181818;stroke-width:0.5;"/><path d="M1985.0492,59.4883 L1985.0492,86.4883 M1972.0492,67.4883 L1998.0492,67.4883 M1985.0492,86.4883 L1972.0492,101.4883 M1985.0492,86.4883 L1998.0492,101.4883" fill="none" style="stroke:#181818;stroke-width:0.5;"/><text fill="#000000" font-family="sans-serif" font-size="14" lengthAdjust="spacing" textLength="68.3184" x="1950.89" y="116.5234">Developer</text></g><!--entity Orch--><g class="entity" data-qualified-name="Orch" data-source-line="24" id="ent0003"><rect fill="#F1F1F1" height="62.9766" rx="2.5" ry="2.5" style="stroke:#181818;stroke-width:0.5;" width="171.3867" x="961.36" y="204.7183"/><rect fill="#F1F1F1" height="10" style="stroke:#181818;stroke-width:0.5;" width="15" x="1112.7467" y="209.7183"/><rect fill="#F1F1F1" height="2" style="stroke:#181818;stroke-width:0.5;" width="4" x="1110.7467" y="211.7183"/><rect fill="#F1F1F1" height="2" style="stroke:#181818;stroke-width:0.5;" width="4" x="1110.7467" y="215.7183"/><text fill="#000000" font-family="sans-serif" font-size="14" lengthAdjust="spacing" textLength="79.6387" x="976.36" y="238.2534">/mdd-cycle</text><text fill="#000000" font-family="sans-serif" font-size="14" lengthAdjust="spacing" textLength="131.3867" x="976.36" y="254.7417">(orchestration skill)</text></g><!--entity Store--><g class="entity" data-qualified-name="Store" data-source-line="34" id="ent0011"><path d="M772.51,653.8883 L813.51,653.8883 A3.75,3.75 0 0 1 816.01,656.3883 L823.01,674.8883 L997.5911,674.8883 A2.5,2.5 0 0 1 1000.0911,677.3883 L1000.0911,738.8531 A2.5,2.5 0 0 1 997.5911,741.3531 L772.51,741.3531 A2.5,2.5 0 0 1 770.01,738.8531 L770.01,656.3883 A2.5,2.5 0 0 1 772.51,653.8883" fill="#F1F1F1" style="stroke:#181818;stroke-width:0.5;"/><line style="stroke:#181818;stroke-width:0.5;" x1="770.01" x2="823.01" y1="674.8883" y2="674.8883"/><text fill="#000000" font-family="sans-serif" font-size="14" lengthAdjust="spacing" textLength="128.7344" x="780.01" y="695.4234">.mdd/cycles/&lt;n&gt;/</text><text fill="#000000" font-family="sans-serif" font-size="14" lengthAdjust="spacing" textLength="200.0811" x="780.01" y="711.9117">manifest.yml, before/, after/,</text><text fill="#000000" font-family="sans-serif" font-size="14" lengthAdjust="spacing" textLength="106.4629" x="780.01" y="728.4">&lt;rel&gt;.diff.puml</text></g><!--entity Rendered--><g class="entity" data-qualified-name="Rendered" data-source-line="35" id="ent0012"><path d="M1252.93,662.1383 L1293.93,662.1383 A3.75,3.75 0 0 1 1296.43,664.6383 L1303.43,683.1383 L1475.1741,683.1383 A2.5,2.5 0 0 1 1477.6741,685.6383 L1477.6741,730.6148 A2.5,2.5 0 0 1 1475.1741,733.1148 L1252.93,733.1148 A2.5,2.5 0 0 1 1250.43,730.6148 L1250.43,664.6383 A2.5,2.5 0 0 1 1252.93,662.1383" fill="#F1F1F1" style="stroke:#181818;stroke-width:0.5;"/><line style="stroke:#181818;stroke-width:0.5;" x1="1250.43" x2="1303.43" y1="683.1383" y2="683.1383"/><text fill="#000000" font-family="sans-serif" font-size="14" lengthAdjust="spacing" textLength="197.2441" x="1260.43" y="703.6734">.mdd/rendered/cycles/&lt;n&gt;/</text><text fill="#000000" font-family="sans-serif" font-size="14" lengthAdjust="spacing" textLength="94.958" x="1260.43" y="720.1617">&lt;rel&gt;.diff.svg</text></g><!--entity Models--><g class="entity" data-qualified-name="Models" data-source-line="36" id="ent0013"><path d="M1191.99,518.1583 L1232.99,518.1583 A3.75,3.75 0 0 1 1235.49,520.6583 L1242.49,539.1583 L1430.114,539.1583 A2.5,2.5 0 0 1 1432.614,541.6583 L1432.614,570.1466 A2.5,2.5 0 0 1 1430.114,572.6466 L1191.99,572.6466 A2.5,2.5 0 0 1 1189.49,570.1466 L1189.49,520.6583 A2.5,2.5 0 0 1 1191.99,518.1583" fill="#F1F1F1" style="stroke:#181818;stroke-width:0.5;"/><line style="stroke:#181818;stroke-width:0.5;" x1="1189.49" x2="1242.49" y1="539.1583" y2="539.1583"/><text fill="#000000" font-family="sans-serif" font-size="14" lengthAdjust="spacing" textLength="213.124" x="1199.49" y="559.6934">.mdd/models/, .mdd/trace.yml</text></g><!--entity Core--><g class="entity" data-qualified-name="Core" data-source-line="38" id="ent0014"><rect fill="#F1F1F1" height="79.4648" rx="2.5" ry="2.5" style="stroke:#181818;stroke-width:0.5;" width="214.665" x="1717.72" y="357.4483"/><rect fill="#F1F1F1" height="10" style="stroke:#181818;stroke-width:0.5;" width="15" x="1912.385" y="362.4483"/><rect fill="#F1F1F1" height="2" style="stroke:#181818;stroke-width:0.5;" width="4" x="1910.385" y="364.4483"/><rect fill="#F1F1F1" height="2" style="stroke:#181818;stroke-width:0.5;" width="4" x="1910.385" y="368.4483"/><text fill="#000000" font-family="sans-serif" font-size="14" lengthAdjust="spacing" textLength="68.0928" x="1732.72" y="390.9834">mdd-core</text><text fill="#000000" font-family="sans-serif" font-size="14" lengthAdjust="spacing" textLength="174.665" x="1732.72" y="407.4717">CycleRegistry, DescIndex,</text><text fill="#000000" font-family="sans-serif" font-size="14" lengthAdjust="spacing" textLength="70.3691" x="1732.72" y="423.96">DiffEngine</text></g><!--entity DiffRend--><g class="entity" data-qualified-name="DiffRend" data-source-line="39" id="ent0015"><rect fill="#F1F1F1" height="62.9766" rx="2.5" ry="2.5" style="stroke:#181818;stroke-width:0.5;" width="202.2373" x="783.93" y="513.9183"/><rect fill="#F1F1F1" height="10" style="stroke:#181818;stroke-width:0.5;" width="15" x="966.1673" y="518.9183"/><rect fill="#F1F1F1" height="2" style="stroke:#181818;stroke-width:0.5;" width="4" x="964.1673" y="520.9183"/><rect fill="#F1F1F1" height="2" style="stroke:#181818;stroke-width:0.5;" width="4" x="964.1673" y="524.9183"/><text fill="#000000" font-family="sans-serif" font-size="14" lengthAdjust="spacing" textLength="83.3506" x="798.93" y="547.4534">mdd-render</text><text fill="#000000" font-family="sans-serif" font-size="14" lengthAdjust="spacing" textLength="162.2373" x="798.93" y="563.9417">DiffRenderer (PlantUML)</text></g><!--entity Viewer--><g class="entity" data-qualified-name="Viewer" data-source-line="40" id="ent0016"><rect fill="#F1F1F1" height="79.4648" rx="2.5" ry="2.5" style="stroke:#181818;stroke-width:0.5;" width="168.5908" x="1900.75" y="196.4783"/><rect fill="#F1F1F1" height="10" style="stroke:#181818;stroke-width:0.5;" width="15" x="2049.3408" y="201.4783"/><rect fill="#F1F1F1" height="2" style="stroke:#181818;stroke-width:0.5;" width="4" x="2047.3408" y="203.4783"/><rect fill="#F1F1F1" height="2" style="stroke:#181818;stroke-width:0.5;" width="4" x="2047.3408" y="207.4783"/><text fill="#000000" font-family="sans-serif" font-size="14" lengthAdjust="spacing" textLength="82.2021" x="1915.75" y="230.0134">mdd-viewer</text><text fill="#000000" font-family="sans-serif" font-size="14" lengthAdjust="spacing" textLength="128.5908" x="1915.75" y="246.5017">Tree rail, Diff view,</text><text fill="#000000" font-family="sans-serif" font-size="14" lengthAdjust="spacing" textLength="111.624" x="1915.75" y="262.99">Description card</text></g><!--entity Egui--><g class="entity" data-qualified-name="Egui" data-source-line="41" id="ent0017"><rect fill="#F1F1F1" height="46.4883" rx="2.5" ry="2.5" style="stroke:#181818;stroke-width:0.5;" width="168.1602" x="2110.97" y="373.9383"/><rect fill="#F1F1F1" height="10" style="stroke:#181818;stroke-width:0.5;" width="15" x="2259.1302" y="378.9383"/><rect fill="#F1F1F1" height="2" style="stroke:#181818;stroke-width:0.5;" width="4" x="2257.1302" y="380.9383"/><rect fill="#F1F1F1" height="2" style="stroke:#181818;stroke-width:0.5;" width="4" x="2257.1302" y="384.9383"/><text fill="#000000" font-family="sans-serif" font-size="14" lengthAdjust="spacing" textLength="128.1602" x="2125.97" y="407.4734">eframe / egui 0.30</text></g><g class="entity" data-qualified-name="GMN38" data-source-line="66" id="ent0039"><path d="M748.25,802.3583 L748.25,858.2899 A0,0 0 0 0 748.25,858.2899 L1021.8486,858.2899 A0,0 0 0 0 1021.8486,858.2899 L1021.8486,812.3583 L1011.8486,802.3583 L889.05,802.3583 L885.05,741.7783 L881.05,802.3583 L748.25,802.3583 A0,0 0 0 0 748.25,802.3583" fill="#FEFFDD" style="stroke:#181818;stroke-width:0.5;"/><path d="M1011.8486,802.3583 L1011.8486,812.3583 L1021.8486,812.3583 L1011.8486,802.3583" fill="#FEFFDD" style="stroke:#181818;stroke-width:0.5;"/><text fill="#000000" font-family="sans-serif" font-size="13" lengthAdjust="spacing" textLength="249.2217" x="754.25" y="819.9266">Per-cycle history is durable: every cycle</text><text fill="#000000" font-family="sans-serif" font-size="13" lengthAdjust="spacing" textLength="252.5986" x="754.25" y="835.2372">keeps its own folder, so any past cycle's</text><text fill="#000000" font-family="sans-serif" font-size="13" lengthAdjust="spacing" textLength="167.2227" x="754.25" y="850.5477">diff can be reopened later.</text></g><g class="entity" data-qualified-name="GMN41" data-source-line="72" id="ent0042"><path d="M1207.56,802.3583 L1207.56,858.2899 A0,0 0 0 0 1207.56,858.2899 L1520.5458,858.2899 A0,0 0 0 0 1520.5458,858.2899 L1520.5458,812.3583 L1510.5458,802.3583 L1368.05,802.3583 L1364.05,733.3083 L1360.05,802.3583 L1207.56,802.3583 A0,0 0 0 0 1207.56,802.3583" fill="#FEFFDD" style="stroke:#181818;stroke-width:0.5;"/><path d="M1510.5458,802.3583 L1510.5458,812.3583 L1520.5458,812.3583 L1510.5458,802.3583" fill="#FEFFDD" style="stroke:#181818;stroke-width:0.5;"/><text fill="#000000" font-family="sans-serif" font-size="13" lengthAdjust="spacing" textLength="244.6958" x="1213.56" y="819.9266">Viewer has no PlantUML engine; it only</text><text fill="#000000" font-family="sans-serif" font-size="13" lengthAdjust="spacing" textLength="291.9858" x="1213.56" y="835.2372">consumes pre-rendered SVG. Path mirrors the</text><text fill="#000000" font-family="sans-serif" font-size="13" lengthAdjust="spacing" textLength="279.6396" x="1213.56" y="850.5477">source 1:1 (OCL-DIFF-SVG-PATH-DERIVED).</text></g><g class="entity" data-qualified-name="GMN44" data-source-line="78" id="ent0045"><path d="M6,369.2183 L6,425.1499 L306.1001,425.1499 L306.1001,379.2183 L296.1001,369.2183 L6,369.2183" fill="#FEFFDD" style="stroke:#181818;stroke-width:0.5;"/><path d="M296.1001,369.2183 L296.1001,379.2183 L306.1001,379.2183 L296.1001,369.2183" fill="#FEFFDD" style="stroke:#181818;stroke-width:1;"/><text fill="#000000" font-family="sans-serif" font-size="13" lengthAdjust="spacing" textLength="257.2896" x="12" y="386.7866">Owns the cycle boundary. No standalone</text><text fill="#000000" font-family="sans-serif" font-size="13" lengthAdjust="spacing" textLength="279.1001" x="12" y="402.0972">/mdd-map or /mdd-generate auto-opens a</text><text fill="#000000" font-family="sans-serif" font-size="13" lengthAdjust="spacing" textLength="161.2432" x="12" y="417.4077">cycle; only this skill does.</text></g><!--link Dev to Orch--><g class="link" data-entity-1="ent0002" data-entity-2="ent0003" data-link-type="dependency" data-source-line="43" id="lnk18"><path d="M1950.55,87.8583 C1817.11,109.6183 1338.2018,187.7225 1139.1618,220.1825" fill="none" id="Dev-to-Orch" style="stroke:#181818;stroke-width:1;"/><polygon fill="#181818" points="1133.24,221.1483,1142.7665,223.6475,1138.1748,220.3435,1141.4788,215.7518,1133.24,221.1483" style="stroke:#181818;stroke-width:1;"/><text fill="#000000" font-family="sans-serif" font-size="13" lengthAdjust="spacing" textLength="162.646" x="1573.21" y="163.0466">/mdd-cycle [description?]</text></g><!--link Orch to Gen--><g class="link" data-entity-1="ent0003" data-entity-2="ent0005" data-link-type="dependency" data-source-line="44" id="lnk19"><path d="M1041.33,267.9483 C1039.39,284.5483 1038.85,305.2183 1044.05,322.9383 C1049.49,341.4983 1057.6093,355.0314 1067.9993,368.7014" fill="none" id="Orch-to-Gen" style="stroke:#181818;stroke-width:1;"/><polygon fill="#181818" points="1071.63,373.4783,1069.3685,363.8926,1068.6044,369.4976,1062.9994,368.7335,1071.63,373.4783" style="stroke:#181818;stroke-width:1;"/><text fill="#000000" font-family="sans-serif" font-size="13" lengthAdjust="spacing" textLength="153.5117" x="1045.05" y="319.5066">entry (description given)</text></g><!--link Orch to MapS--><g class="link" data-entity-1="ent0003" data-entity-2="ent0006" data-link-type="dependency" data-source-line="45" id="lnk20"><path d="M1133.17,264.0183 C1157.59,274.4283 1182.97,288.2083 1203.05,305.9383 C1224.13,324.5483 1236.9763,347.9352 1245.7863,367.9852" fill="none" id="Orch-to-MapS" style="stroke:#181818;stroke-width:1;"/><polygon fill="#181818" points="1248.2,373.4783,1248.2416,363.6295,1246.1886,368.9007,1240.9174,366.8477,1248.2,373.4783" style="stroke:#181818;stroke-width:1;"/><text fill="#000000" font-family="sans-serif" font-size="13" lengthAdjust="spacing" textLength="135.6621" x="1219.62" y="319.5066">entry (no description)</text></g><!--link Orch to ValS--><g class="link" data-entity-1="ent0003" data-entity-2="ent0007" data-link-type="dependency" data-source-line="46" id="lnk21"><path d="M1133,248.0983 C1213.77,259.6883 1327.52,279.9383 1364.05,305.9383 C1387.52,322.6383 1400.6506,347.2319 1409.0306,368.0619" fill="none" id="Orch-to-ValS" style="stroke:#181818;stroke-width:1;"/><polygon fill="#181818" points="1411.27,373.6283,1411.6219,363.7857,1409.4038,368.9896,1404.2,366.7716,1411.27,373.6283" style="stroke:#181818;stroke-width:1;"/><text fill="#000000" font-family="sans-serif" font-size="13" lengthAdjust="spacing" textLength="27.3901" x="1381.78" y="319.5066">gate</text></g><!--link Orch to ImplS--><g class="link" data-entity-1="ent0003" data-entity-2="ent0008" data-link-type="dependency" data-source-line="47" id="lnk22"><path d="M1133.23,242.8683 C1228.36,251.7783 1384.13,274.3683 1506.05,330.9383 C1530.72,342.3883 1551.3335,356.137 1569.9635,370.057" fill="none" id="Orch-to-ImplS" style="stroke:#181818;stroke-width:1;"/><polygon fill="#181818" points="1574.77,373.6483,1569.9545,365.057,1570.7646,370.6555,1565.166,371.4656,1574.77,373.6483" style="stroke:#181818;stroke-width:1;"/><text fill="#000000" font-family="sans-serif" font-size="13" lengthAdjust="spacing" textLength="65.3809" x="1484.02" y="319.5066">write code</text></g><!--link Orch to RevS--><g class="link" data-entity-1="ent0003" data-entity-2="ent0009" data-link-type="dependency" data-source-line="48" id="lnk23"><path d="M964.07,268.1183 C923.89,284.5183 875.68,306.3583 835.05,330.9383 C814.66,343.2783 798.2177,356.1544 782.5777,369.6144" fill="none" id="Orch-to-RevS" style="stroke:#181818;stroke-width:1;"/><polygon fill="#181818" points="778.03,373.5283,787.4608,370.6893,781.8198,370.2667,782.2424,364.6257,778.03,373.5283" style="stroke:#181818;stroke-width:1;"/><text fill="#000000" font-family="sans-serif" font-size="13" lengthAdjust="spacing" textLength="36.0928" x="880.45" y="319.5066">parity</text></g><!--link Orch to Store--><g class="link" data-entity-1="ent0003" data-entity-2="ent0011" data-link-type="dependency" data-source-line="49" id="lnk24"><path d="M960.88,242.4383 C825.86,251.5183 571.2,272.5183 487.05,305.9383 C417.92,333.3983 354.1,460.6983 352.05,466.9183 C293.71,643.2983 589.8888,684.4443 763.5388,693.8343" fill="none" id="Orch-to-Store" style="stroke:#181818;stroke-width:1;"/><polygon fill="#181818" points="769.53,694.1583,760.7591,689.6782,764.5373,693.8883,760.3271,697.6665,769.53,694.1583" style="stroke:#181818;stroke-width:1;"/><text fill="#000000" font-family="sans-serif" font-size="13" lengthAdjust="spacing" textLength="410.5537" x="353.05" y="480.4866">open / snapshot before / close / snapshot after / write diff puml</text></g><!--link Orch to DiffRend--><g class="link" data-entity-1="ent0003" data-entity-2="ent0015" data-link-type="dependency" data-source-line="50" id="lnk25"><path d="M960.9,238.5683 C819.01,242.8483 545.87,260.2883 486.05,330.9383 C453.46,369.4283 451.81,407.3883 486.05,444.4283 C529.33,491.2383 711.94,445.6683 772.05,466.9183 C800.98,477.1383 824.7685,492.9855 845.8885,509.9155" fill="none" id="Orch-to-DiffRend" style="stroke:#181818;stroke-width:1;"/><polygon fill="#181818" points="850.57,513.6683,846.0495,504.9181,846.6687,510.541,841.0459,511.1602,850.57,513.6683" style="stroke:#181818;stroke-width:1;"/><text fill="#000000" font-family="sans-serif" font-size="13" lengthAdjust="spacing" textLength="184.1646" x="487.05" y="402.2466">on close, rasterize diff pumls</text></g><!--link RendS to DiffRend--><g class="link" data-entity-1="ent0010" data-entity-2="ent0015" data-link-type="dependency" data-source-line="51" id="lnk26"><path d="M902.58,420.9083 C894.75,433.7983 886.07,450.5683 882.05,466.9183 C878.35,481.9483 878.0056,493.1358 879.3856,507.4858" fill="none" id="RendS-to-DiffRend" style="stroke:#181818;stroke-width:1;"/><polygon fill="#181818" points="879.96,513.4583,883.0801,504.1167,879.4814,508.4812,875.1168,504.8825,879.96,513.4583" style="stroke:#181818;stroke-width:1;"/><text fill="#000000" font-family="sans-serif" font-size="13" lengthAdjust="spacing" textLength="227.9824" x="883.05" y="480.4866">/mdd-render diff pumls on demand</text></g><!--link DiffRend to Store--><g class="link" data-entity-1="ent0015" data-entity-2="ent0011" data-link-type="dependency" data-source-line="52" id="lnk27"><path d="M885.05,577.1683 C885.05,599.2283 885.05,644.2383 885.05,668.6583" fill="none" id="DiffRend-to-Store" style="stroke:#181818;stroke-width:1;"/><polygon fill="#181818" points="885.05,674.6583,889.05,665.6583,885.05,669.6583,881.05,665.6583,885.05,674.6583" style="stroke:#181818;stroke-width:1;"/><text fill="#000000" font-family="sans-serif" font-size="13" lengthAdjust="spacing" textLength="130.895" x="886.05" y="620.4566">read &lt;rel&gt;.diff.puml</text></g><!--link DiffRend to Rendered--><g class="link" data-entity-1="ent0015" data-entity-2="ent0012" data-link-type="dependency" data-source-line="53" id="lnk28"><path d="M983.72,577.3483 C1061.91,601.8683 1165.4351,634.3323 1246.7851,659.8523" fill="none" id="DiffRend-to-Rendered" style="stroke:#181818;stroke-width:1;"/><polygon fill="#181818" points="1252.51,661.6483,1245.1199,655.1378,1247.7392,660.1517,1242.7253,662.771,1252.51,661.6483" style="stroke:#181818;stroke-width:1;"/><text fill="#000000" font-family="sans-serif" font-size="13" lengthAdjust="spacing" textLength="262.4819" x="1125.55" y="620.4566">write &lt;rel&gt;.diff.svg (deterministic mirror)</text></g><!--link Gen to Models--><g class="link" data-entity-1="ent0005" data-entity-2="ent0013" data-link-type="dependency" data-source-line="54" id="lnk29"><path d="M1104.13,420.5983 C1116.25,439.6883 1135.88,466.6783 1159.05,483.9183 C1177.74,497.8183 1194.4902,506.7626 1216.1802,515.5626" fill="none" id="Gen-to-Models" style="stroke:#181818;stroke-width:1;"/><polygon fill="#181818" points="1221.74,517.8183,1214.9041,510.7281,1217.1068,515.9385,1211.8964,518.1413,1221.74,517.8183" style="stroke:#181818;stroke-width:1;"/><text fill="#000000" font-family="sans-serif" font-size="13" lengthAdjust="spacing" textLength="115.0449" x="1160.05" y="480.4866">objective + @desc</text></g><!--link MapS to Models--><g class="link" data-entity-1="ent0006" data-entity-2="ent0013" data-link-type="dependency" data-source-line="55" id="lnk30"><path d="M1265.37,420.7083 C1275.04,446.9083 1288.9101,505.4703 1299.1801,533.2603" fill="none" id="MapS-to-Models" style="stroke:#181818;stroke-width:1;"/><polygon fill="#181818" points="1301.26,538.8883,1301.8922,529.0597,1299.5268,534.1983,1294.3882,531.8329,1301.26,538.8883" style="stroke:#181818;stroke-width:1;"/><text fill="#000000" font-family="sans-serif" font-size="13" lengthAdjust="spacing" textLength="103.9683" x="1288.28" y="480.4866">current + @desc</text></g><!--link Dev to Viewer--><g class="link" data-entity-1="ent0002" data-entity-2="ent0016" data-link-type="dependency" data-source-line="57" id="lnk31"><path d="M1985.05,119.6483 C1985.05,142.8283 1985.05,166.5383 1985.05,190.0383" fill="none" id="Dev-to-Viewer" style="stroke:#181818;stroke-width:1;"/><polygon fill="#181818" points="1985.05,196.0383,1989.05,187.0383,1985.05,191.0383,1981.05,187.0383,1985.05,196.0383" style="stroke:#181818;stroke-width:1;"/><text fill="#000000" font-family="sans-serif" font-size="13" lengthAdjust="spacing" textLength="60.3599" x="1986.05" y="163.0466">mdd view</text></g><!--link Viewer to Core--><g class="link" data-entity-1="ent0016" data-entity-2="ent0014" data-link-type="dependency" data-source-line="58" id="lnk32"><path d="M1900.34,250.1183 C1838.2,261.5183 1761.42,280.3283 1742.05,305.9383 C1728.76,323.5083 1735.2295,337.7177 1753.0795,353.0577" fill="none" id="Viewer-to-Core" style="stroke:#181818;stroke-width:1;"/><polygon fill="#181818" points="1757.63,356.9683,1753.4113,348.0687,1753.8379,353.7094,1748.1972,354.136,1757.63,356.9683" style="stroke:#181818;stroke-width:1;"/><text fill="#000000" font-family="sans-serif" font-size="13" lengthAdjust="spacing" textLength="215.8394" x="1743.05" y="319.5066">registry, cycles, descriptions, diffs</text></g><!--link Core to Store--><g class="link" data-entity-1="ent0014" data-entity-2="ent0011" data-link-type="dependency" data-source-line="59" id="lnk33"><path d="M1773.89,437.2783 C1752.57,452.7383 1727.19,470.0683 1703.05,483.9183 C1573.32,558.3283 1540.57,581.8383 1397.05,623.8883 C1359.84,634.7983 1145.651,663.3432 1006.411,681.2432" fill="none" id="Core-to-Store" style="stroke:#181818;stroke-width:1;"/><polygon fill="#181818" points="1000.46,682.0083,1009.8966,684.8281,1005.4192,681.3708,1008.8765,676.8934,1000.46,682.0083" style="stroke:#181818;stroke-width:1;"/><text fill="#000000" font-family="sans-serif" font-size="13" lengthAdjust="spacing" textLength="169.4761" x="1649.77" y="550.4766">read manifest + snapshots</text></g><!--link Core to Models--><g class="link" data-entity-1="ent0014" data-entity-2="ent0013" data-link-type="dependency" data-source-line="60" id="lnk34"><path d="M1722.64,437.3183 C1714.38,439.9083 1706.11,442.3183 1698.05,444.4283 C1637.92,460.1283 1620.53,452.6483 1560.05,466.9183 C1501.22,480.7883 1441.7281,520.3591 1392.8081,536.7791" fill="none" id="Core-to-Models" style="stroke:#181818;stroke-width:1;"/><polygon fill="#181818" points="1387.12,538.6883,1396.925,539.6165,1391.8601,537.0973,1394.3794,532.0324,1387.12,538.6883" style="stroke:#181818;stroke-width:1;"/><text fill="#000000" font-family="sans-serif" font-size="13" lengthAdjust="spacing" textLength="137.0078" x="1561.05" y="480.4866">scan models + @desc</text></g><!--link Viewer to Rendered--><g class="link" data-entity-1="ent0016" data-entity-2="ent0012" data-link-type="dependency" data-source-line="61" id="lnk35"><path d="M1984.99,276.2583 C1983.47,319.4883 1976.63,390.2083 1950.05,444.4283 C1914.82,516.2983 1896.72,535.7783 1828.05,576.8883 C1719.56,641.8583 1582.263,671.0632 1483.793,684.7332" fill="none" id="Viewer-to-Rendered" style="stroke:#181818;stroke-width:1;"/><polygon fill="#181818" points="1477.85,685.5583,1487.3145,688.2827,1482.8025,684.8708,1486.2145,680.3587,1477.85,685.5583" style="stroke:#181818;stroke-width:1;"/><text fill="#000000" font-family="sans-serif" font-size="13" lengthAdjust="spacing" textLength="344.6206" x="1939.43" y="480.4866">load selected file's &lt;rel&gt;.diff.svg (Diagram sub-mode)</text></g><!--link Viewer to Egui--><g class="link" data-entity-1="ent0016" data-entity-2="ent0017" data-link-type="dependency" data-source-line="62" id="lnk36"><path d="M2003.8,276.0883 C2013.01,292.1483 2025.3,309.9783 2040.05,322.9383 C2064.98,344.8483 2092.0525,359.2724 2120.9325,371.1724" fill="none" id="Viewer-to-Egui" style="stroke:#181818;stroke-width:1;"/><polygon fill="#181818" points="2126.48,373.4583,2119.6826,366.3312,2121.8571,371.5534,2116.6348,373.7278,2126.48,373.4583" style="stroke:#181818;stroke-width:1;"/><text fill="#000000" font-family="sans-serif" font-size="13" lengthAdjust="spacing" textLength="200.6748" x="2041.05" y="319.5066">tree / diff toggle / card widgets</text></g><!--link Egui to Dev--><g class="link" data-entity-1="ent0017" data-entity-2="ent0002" data-link-type="dependency" data-source-line="63" id="lnk37"><path d="M2221.29,373.7383 C2238.9,355.8083 2257.03,329.8083 2246.05,305.9383 C2198.92,203.4683 2084.4315,133.1589 2024.9515,101.9089" fill="none" id="Egui-to-Dev" style="stroke:#181818;stroke-width:1;"/><polygon fill="#181818" points="2019.64,99.1183,2025.7469,106.8452,2024.0663,101.4438,2029.4677,99.7632,2019.64,99.1183" style="stroke:#181818;stroke-width:1;"/><text fill="#000000" font-family="sans-serif" font-size="13" lengthAdjust="spacing" textLength="296.0356" x="2229.89" y="241.2766">tree rail + Diagram/List diff + description card</text></g><!--link Orch to GMN44--><g class="link" data-entity-1="ent0003" data-entity-2="ent0045" data-link-type="association" data-source-line="78" id="lnk46"><path d="M961.16,241.4483 C797.9,250.1683 448.79,272.1883 333.05,305.9383 C284.37,320.1283 233.24,347.7783 198.52,368.7583" fill="none" id="Orch-GMN44" style="stroke:#181818;stroke-width:1;stroke-dasharray:7,7;"/></g><?plantuml-src VLVRZXf747sVhoZniY1piPMtjULa1TX6sbrMm6uIPVFGC0rqcEaUTG-iSHGf7v4lp9VaLFSCCyFYl35TfwlhSkh25VsaulRmxg4t_7LuE-vDPyClu_bYThEOpZhHrPbqZjDnunZVXUnkEXhVrcLFa_7FuraXVPpKHQF9fq-zsVX-D0wFMBbkFyx7lTdZVS0tJeC6VuTrDcJ-T3Iv-JoxkOC0ekdo3xdArK7sd8ebcHSjhTkgZ9PchsDXbNIqDfPMnrKYARTYjLDwqwV5LfBRgIJXAmwAZ5rjfGCWLqRJc-92eUNudj8uxgsCzKyuoeHrq4CvgydvMEYOBOsbMr4gx0vcX4jMwbZQSCqAbqkhll7LMAtNbEtJfC0Tb7mfS534YdChvO1X0zPgLUPDUvpqlUV-gU_aiaijTd3WZVQEU5-loSa4uN9UlTIvFL9cbCwxmJm-RVhTfSIOB4ZSVjdpQl1fE08gXnn-u_VUbN5ESBvMAn_6VgjpmL1FArZOXtK3_vmR41oBbTjTKoPjON8gj5eZ9KZ6KaAt7E2NM2E00t9QP6vhu0cEj3Qvo6LCVGvMdsDAmkPgBU3gAnlEE0n3JgcrKY1Lxfg6RC1CRXG80H_P-v1P-PKfX8G7nrammfjZlL4Q2TkAd0EJA_RUbMPxcmcHJn5ofE2rKMV5KzXKCE9nSetOMCdF7WSbaINC5IhfdcoWrCH5uZW_8TC8Yh_mPgrmwqNbMn90YuqLwU0MxW6wsIIoSiS7XORJ-yNubmNLYRSIDZutl5RQXT45tKkcuwUFIhwt24WzvH_qny47AvEFjQo1YYQ0WXhvFRGxRDu3VJ0xUBWyLipjhHBZk2Pbvbs2R52PnUOZEGZ5iD4FwD-__wdrZhOfkqedYdowgJMI1vaOiBD5mX6-ecXbqinepcchghHdtMws4byo7Nzh2a6KuKcnaTIINn5_Vlp5sDqwCIy1wbhqPqHqhdmZOHrOxXLzble291MPbzw9R7v1V129YaiDJoAvX55f5cZgGHDyNK9PoTJqa9ayN4Pmk0k4ZkVHNr6qDWapetLEWcTTLdh_c8BGHTLqYrhlFkipcdYrS-wwJPsNEDEu3DQSJ69WyphNJ-BmhlzYQaWsA8JKonefBxl6ipxh5YCKnmGFV8NbLNFmQePiyvcEO7M05ePPQZyaGkUFTxU1EANi_6xe4CzwKRK3tmhud5y_gzwGUN-dhackqGqmBKXkzehUzdzuwu5ZV4KHc4wztaVFNRgkZvJVQitXnzyZ3s0ao0bWc2xjUWFPeA1qfm8oJokaDlLkKuCnLG7RWBhLeQScJbymXL3wI4ybOqv252PKTUmPWtCKiQPgX1Hymqbe7JL9QDo3uf7JmAvKbdbXhJhSxrQjhpRY8ry5vtTgfLB3-baeKrueJjYw_JobwAmaciYItwVuD6k0im8BKwMv0M5TKTOQsuauSJuldkpiKza6CMLzpuzyoXgOrTvQPb69E14cy0m8EEa96HKdB1oMhfH54qgsMwS0Vy5Y5tdmgmZKreFJDb11J_QvbT0KIljaOysGMgWI0wsdiSa3yygzYbmnE_qon5exTMLSCL3aX_CWP3ICLoONwWy3EDvW_4SUwCc0O5rNqnmMDeQpL_7crHIE8cmyFElptAHaraKp97euBKzRnMlfaPIZU6_5Cf4ej8F4YPS3kvCIYvt22eN1Hw4JTiaPZ4riXU1mG5uvOBqT7CWbBqbSG8XGWeAq_OX9n-QyCkhKPQdamXPT1MLUzZPKFdT63F8Sd4-EVevejq-nIsPMzif-JlEdptrw45XU0bNzFWgqCtkxalJk-XsrfyFRi8q0t7kuMNpfOIUPF8r7dVynqGzaekdbvRTFzzYZSXIYID0g0Ip7BFujK6CgazZdfiU1SIJO3rRqtdi5nKX2-AyH6-agS_u3?></g></svg>