<svg xmlns="http://www.w3.org/2000/svg" xmlns:xlink="http://www.w3.org/1999/xlink" contentStyleType="text/css" data-diagram-type="DESCRIPTION" height="602px" preserveAspectRatio="none" style="width:2427px;height:602px;background:#FFFFFF;" version="1.1" viewBox="0 0 2427 602" width="2427px" zoomAndPan="magnify"><?plantuml 1.2026.3?><defs/><g><g class="title" data-source-line="10"><text fill="#000000" font-family="sans-serif" font-size="14" font-weight="700" lengthAdjust="spacing" textLength="382.6348" x="1018.7031" y="23.5352">mdd-viewer render pipeline &#8212; ownership (objective)</text></g><!--cluster SVG rasterization (external crates)--><g class="cluster" data-qualified-name="SVG rasterization .external crates." data-source-line="17" id="ent0005"><path d="M1925.43,182.4783 L2173.5696,182.4783 A3.75,3.75 0 0 1 2176.0696,184.9783 L2183.0696,204.9666 L2309.43,204.9666 A2.5,2.5 0 0 1 2311.93,207.4666 L2311.93,465.1783 A2.5,2.5 0 0 1 2309.43,467.6783 L1925.43,467.6783 A2.5,2.5 0 0 1 1922.93,465.1783 L1922.93,184.9783 A2.5,2.5 0 0 1 1925.43,182.4783" fill="none" style="stroke:#000000;stroke-width:1.5;"/><line style="stroke:#000000;stroke-width:1.5;" x1="1922.93" x2="2183.0696" y1="204.9666" y2="204.9666"/><text fill="#000000" font-family="sans-serif" font-size="14" font-weight="700" lengthAdjust="spacing" textLength="247.1396" x="1926.93" y="198.0134">SVG rasterization (external crates)</text></g><!--entity Usvg--><g class="entity" data-qualified-name="SVG rasterization .external crates..Usvg" data-source-line="18" id="ent0006"><rect fill="#F1F1F1" height="62.9766" rx="2.5" ry="2.5" style="stroke:#181818;stroke-width:0.5;" width="245.9736" x="1957.95" y="236.4783"/><rect fill="#F1F1F1" height="10" style="stroke:#181818;stroke-width:0.5;" width="15" x="2183.9236" y="241.4783"/><rect fill="#F1F1F1" height="2" style="stroke:#181818;stroke-width:0.5;" width="4" x="2181.9236" y="243.4783"/><rect fill="#F1F1F1" height="2" style="stroke:#181818;stroke-width:0.5;" width="4" x="2181.9236" y="247.4783"/><text fill="#000000" font-family="sans-serif" font-size="14" lengthAdjust="spacing" textLength="67.2178" x="1972.95" y="270.0134">usvg 0.44</text><text fill="#000000" font-family="sans-serif" font-size="14" lengthAdjust="spacing" textLength="205.9736" x="1972.95" y="286.5017">Options { fontdb, font_family }</text></g><!--entity FontDb--><g class="entity" data-qualified-name="SVG rasterization .external crates..FontDb" data-source-line="19" id="ent0007"><rect fill="#F1F1F1" height="62.9766" rx="2.5" ry="2.5" style="stroke:#181818;stroke-width:0.5;" width="186.2686" x="2109.8" y="388.6983"/><rect fill="#F1F1F1" height="10" style="stroke:#181818;stroke-width:0.5;" width="15" x="2276.0686" y="393.6983"/><rect fill="#F1F1F1" height="2" style="stroke:#181818;stroke-width:0.5;" width="4" x="2274.0686" y="395.6983"/><rect fill="#F1F1F1" height="2" style="stroke:#181818;stroke-width:0.5;" width="4" x="2274.0686" y="399.6983"/><text fill="#000000" font-family="sans-serif" font-size="14" lengthAdjust="spacing" textLength="92.6953" x="2124.8" y="422.2334">FontDatabase</text><text fill="#000000" font-family="sans-serif" font-size="14" lengthAdjust="spacing" textLength="146.2686" x="2124.8" y="438.7217">(system fonts loaded)</text></g><!--entity Resvg--><g class="entity" data-qualified-name="SVG rasterization .external crates..Resvg" data-source-line="20" id="ent0008"><rect fill="#F1F1F1" height="62.9766" rx="2.5" ry="2.5" style="stroke:#181818;stroke-width:0.5;" width="135.9014" x="1938.98" y="388.6983"/><rect fill="#F1F1F1" height="10" style="stroke:#181818;stroke-width:0.5;" width="15" x="2054.8814" y="393.6983"/><rect fill="#F1F1F1" height="2" style="stroke:#181818;stroke-width:0.5;" width="4" x="2052.8814" y="395.6983"/><rect fill="#F1F1F1" height="2" style="stroke:#181818;stroke-width:0.5;" width="4" x="2052.8814" y="399.6983"/><text fill="#000000" font-family="sans-serif" font-size="14" lengthAdjust="spacing" textLength="87.6162" x="1953.98" y="422.2334">resvg 0.44 +</text><text fill="#000000" font-family="sans-serif" font-size="14" lengthAdjust="spacing" textLength="95.9014" x="1953.98" y="438.7217">tiny-skia 0.11</text></g><!--entity Dev--><g class="entity" data-qualified-name="Dev" data-source-line="12" id="ent0002"><ellipse cx="1567.9292" cy="51.4883" fill="#F1F1F1" rx="8" ry="8" style="stroke:#181818;stroke-width:0.5;"/><path d="M1567.9292,59.4883 L1567.9292,86.4883 M1554.9292,67.4883 L1580.9292,67.4883 M1567.9292,86.4883 L1554.9292,101.4883 M1567.9292,86.4883 L1580.9292,101.4883" fill="none" style="stroke:#181818;stroke-width:0.5;"/><text fill="#000000" font-family="sans-serif" font-size="14" lengthAdjust="spacing" textLength="68.3184" x="1533.77" y="116.5234">Developer</text></g><!--entity Viewer--><g class="entity" data-qualified-name="Viewer" data-source-line="14" id="ent0003"><rect fill="#F1F1F1" height="79.4648" rx="2.5" ry="2.5" style="stroke:#181818;stroke-width:0.5;" width="211.9512" x="1350.96" y="228.2383"/><rect fill="#F1F1F1" height="10" style="stroke:#181818;stroke-width:0.5;" width="15" x="1542.9112" y="233.2383"/><rect fill="#F1F1F1" height="2" style="stroke:#181818;stroke-width:0.5;" width="4" x="1540.9112" y="235.2383"/><rect fill="#F1F1F1" height="2" style="stroke:#181818;stroke-width:0.5;" width="4" x="1540.9112" y="239.2383"/><text fill="#000000" font-family="sans-serif" font-size="14" lengthAdjust="spacing" textLength="82.2021" x="1365.96" y="261.7734">mdd-viewer</text><text fill="#000000" font-family="sans-serif" font-size="14" lengthAdjust="spacing" textLength="171.9512" x="1365.96" y="278.2617">MddViewer (eframe::App)</text><text fill="#000000" font-family="sans-serif" font-size="14" lengthAdjust="spacing" textLength="89.5234" x="1365.96" y="294.75">DiagramPage</text></g><!--entity Rendered--><g class="entity" data-qualified-name="Rendered" data-source-line="15" id="ent0004"><path d="M644.46,384.6983 L685.46,384.6983 A3.75,3.75 0 0 1 687.96,387.1983 L694.96,405.6983 L801.4141,405.6983 A2.5,2.5 0 0 1 803.9141,408.1983 L803.9141,453.1748 A2.5,2.5 0 0 1 801.4141,455.6748 L644.46,455.6748 A2.5,2.5 0 0 1 641.96,453.1748 L641.96,387.1983 A2.5,2.5 0 0 1 644.46,384.6983" fill="#F1F1F1" style="stroke:#181818;stroke-width:0.5;"/><line style="stroke:#181818;stroke-width:0.5;" x1="641.96" x2="694.96" y1="405.6983" y2="405.6983"/><text fill="#000000" font-family="sans-serif" font-size="14" lengthAdjust="spacing" textLength="110.9746" x="651.96" y="426.2334">.mdd/rendered/</text><text fill="#000000" font-family="sans-serif" font-size="14" lengthAdjust="spacing" textLength="131.9541" x="651.96" y="442.7217">(pre-rendered SVG)</text></g><!--entity Egui--><g class="entity" data-qualified-name="Egui" data-source-line="22" id="ent0009"><rect fill="#F1F1F1" height="62.9766" rx="2.5" ry="2.5" style="stroke:#181818;stroke-width:0.5;" width="222.7998" x="1412.53" y="388.6983"/><rect fill="#F1F1F1" height="10" style="stroke:#181818;stroke-width:0.5;" width="15" x="1615.3298" y="393.6983"/><rect fill="#F1F1F1" height="2" style="stroke:#181818;stroke-width:0.5;" width="4" x="1613.3298" y="395.6983"/><rect fill="#F1F1F1" height="2" style="stroke:#181818;stroke-width:0.5;" width="4" x="1613.3298" y="399.6983"/><text fill="#000000" font-family="sans-serif" font-size="14" lengthAdjust="spacing" textLength="128.1602" x="1427.53" y="422.2334">eframe / egui 0.30</text><text fill="#000000" font-family="sans-serif" font-size="14" lengthAdjust="spacing" textLength="182.7998" x="1427.53" y="438.7217">(window, painter, textures)</text></g><!--entity OclRend--><g class="entity" data-qualified-name="OclRend" data-source-line="23" id="ent0010"><rect fill="#F1F1F1" height="79.4648" rx="2.5" ry="2.5" style="stroke:#181818;stroke-width:0.5;" width="195.8662" x="7" y="228.2383"/><rect fill="#F1F1F1" height="10" style="stroke:#181818;stroke-width:0.5;" width="15" x="182.8662" y="233.2383"/><rect fill="#F1F1F1" height="2" style="stroke:#181818;stroke-width:0.5;" width="4" x="180.8662" y="235.2383"/><rect fill="#F1F1F1" height="2" style="stroke:#181818;stroke-width:0.5;" width="4" x="180.8662" y="239.2383"/><text fill="#000000" font-family="sans-serif" font-size="14" lengthAdjust="spacing" textLength="83.3506" x="22" y="261.7734">mdd-render</text><text fill="#000000" font-family="sans-serif" font-size="14" lengthAdjust="spacing" textLength="155.8662" x="22" y="278.2617">synthesize_ocl_puml +</text><text fill="#000000" font-family="sans-serif" font-size="14" lengthAdjust="spacing" textLength="141.3604" x="22" y="294.75">render_ocl_diagrams</text></g><!--entity Ocl--><g class="entity" data-qualified-name="Ocl" data-source-line="24" id="ent0011"><path d="M173.83,384.6983 L214.83,384.6983 A3.75,3.75 0 0 1 217.33,387.1983 L224.33,405.6983 L324.037,405.6983 A2.5,2.5 0 0 1 326.537,408.1983 L326.537,453.1748 A2.5,2.5 0 0 1 324.037,455.6748 L173.83,455.6748 A2.5,2.5 0 0 1 171.33,453.1748 L171.33,387.1983 A2.5,2.5 0 0 1 173.83,384.6983" fill="#F1F1F1" style="stroke:#181818;stroke-width:0.5;"/><line style="stroke:#181818;stroke-width:0.5;" x1="171.33" x2="224.33" y1="405.6983" y2="405.6983"/><text fill="#000000" font-family="sans-serif" font-size="14" lengthAdjust="spacing" textLength="125.207" x="181.33" y="426.2334">.mdd/constraints/</text><ellipse cx="186.83" cy="438.1748" fill="#000000" rx="2.5" ry="2.5"/><text fill="#000000" font-family="sans-serif" font-size="14" lengthAdjust="spacing" textLength="24.2471" x="193.33" y="442.7217">.ocl</text></g><g class="entity" data-qualified-name="GMN25" data-source-line="41" id="ent0026"><path d="M1993.83,516.6783 L1993.83,587.9205 A0,0 0 0 0 1993.83,587.9205 L2412.0409,587.9205 A0,0 0 0 0 2412.0409,587.9205 L2412.0409,526.6783 L2402.0409,516.6783 L2206.93,516.6783 L2202.93,452.0183 L2198.93,516.6783 L1993.83,516.6783 A0,0 0 0 0 1993.83,516.6783" fill="#FEFFDD" style="stroke:#181818;stroke-width:0.5;"/><path d="M2402.0409,516.6783 L2402.0409,526.6783 L2412.0409,526.6783 L2402.0409,516.6783" fill="#FEFFDD" style="stroke:#181818;stroke-width:0.5;"/><text fill="#000000" font-family="sans-serif" font-size="13" lengthAdjust="spacing" textLength="275.4185" x="1999.83" y="534.2466">Objective: the font database is a first-class,</text><text fill="#000000" font-family="sans-serif" font-size="13" lengthAdjust="spacing" textLength="327.2661" x="1999.83" y="549.5572">populated dependency of the usvg/resvg boundary.</text><text fill="#000000" font-family="sans-serif" font-size="13" lengthAdjust="spacing" textLength="271.1782" x="1999.83" y="564.8677">It is independent of egui's `default_fonts`.</text><text fill="#000000" font-family="sans-serif" font-size="13" lengthAdjust="spacing" textLength="397.2109" x="1999.83" y="580.1783">Invariant: DOM-FONT-DATABASE / OCL-FONTDB-POPULATED.</text></g><!--link Dev to Viewer--><g class="link" data-entity-1="ent0002" data-entity-2="ent0003" data-link-type="dependency" data-source-line="26" id="lnk12"><path d="M1545.47,119.6183 C1526.53,151.1383 1502.6105,190.9555 1483.4105,222.9055" fill="none" id="Dev-to-Viewer" style="stroke:#181818;stroke-width:1;"/><polygon fill="#181818" points="1480.32,228.0483,1488.3843,222.3944,1482.8954,223.7626,1481.5272,218.2737,1480.32,228.0483" style="stroke:#181818;stroke-width:1;"/><text fill="#000000" font-family="sans-serif" font-size="13" lengthAdjust="spacing" textLength="60.3599" x="1526.64" y="163.0466">mdd view</text></g><!--link Viewer to Rendered--><g class="link" data-entity-1="ent0003" data-entity-2="ent0004" data-link-type="dependency" data-source-line="27" id="lnk13"><path d="M1350.5,290.4083 C1289.03,303.2083 1210.38,320.3283 1140.93,337.6983 C1114.05,344.4283 1107.94,348.4583 1080.93,354.6983 C986.64,376.4983 882.8755,394.3658 810.0055,405.9558" fill="none" id="Viewer-to-Rendered" style="stroke:#181818;stroke-width:1;"/><polygon fill="#181818" points="804.08,406.8983,813.5966,409.4349,809.0179,406.1129,812.34,401.5343,804.08,406.8983" style="stroke:#181818;stroke-width:1;"/><text fill="#000000" font-family="sans-serif" font-size="13" lengthAdjust="spacing" textLength="94.7515" x="1141.93" y="351.2666">read SVG bytes</text></g><!--link Viewer to Rendered--><g class="link" data-entity-1="ent0003" data-entity-2="ent0004" data-link-type="dependency" data-source-line="30" id="lnk16"><path d="M1350.51,271.0783 C1155.7,276.0383 757.82,291.7483 715.93,337.6983 C704.65,350.0783 703.8288,383.529 707.7588,399.649" fill="none" id="Viewer-to-Rendered-1" style="stroke:#181818;stroke-width:1;"/><polygon fill="#181818" points="709.18,405.4783,710.9344,395.7869,707.9957,400.6206,703.1621,397.6818,709.18,405.4783" style="stroke:#181818;stroke-width:1;"/><text fill="#000000" font-family="sans-serif" font-size="13" lengthAdjust="spacing" textLength="355.1006" x="716.93" y="351.2666">load constraints/&lt;name&gt;.svg (OCL Diagram sub-mode)</text></g><!--link OclRend to Ocl--><g class="link" data-entity-1="ent0010" data-entity-2="ent0011" data-link-type="dependency" data-source-line="28" id="lnk14"><path d="M59.06,308.0883 C47.08,322.9683 40.19,339.8983 50.93,354.6983 C78.33,392.4383 122.4611,407.5971 165.3911,414.2671" fill="none" id="OclRend-to-Ocl" style="stroke:#181818;stroke-width:1;"/><polygon fill="#181818" points="171.32,415.1883,163.0408,409.854,166.3793,414.4206,161.8126,417.7591,171.32,415.1883" style="stroke:#181818;stroke-width:1;"/><text fill="#000000" font-family="sans-serif" font-size="13" lengthAdjust="spacing" textLength="60.8169" x="51.93" y="351.2666">read *.ocl</text></g><!--link OclRend to Rendered--><g class="link" data-entity-1="ent0010" data-entity-2="ent0004" data-link-type="dependency" data-source-line="29" id="lnk15"><path d="M117.51,308.0183 C125.05,325.1183 136.45,343.7483 152.93,354.6983 C173.01,368.0383 482.8146,397.5459 635.5046,411.4059" fill="none" id="OclRend-to-Rendered" style="stroke:#181818;stroke-width:1;"/><polygon fill="#181818" points="641.48,411.9483,632.8785,407.1511,636.5005,411.4963,632.1552,415.1183,641.48,411.9483" style="stroke:#181818;stroke-width:1;"/><text fill="#000000" font-family="sans-serif" font-size="13" lengthAdjust="spacing" textLength="245.4194" x="153.93" y="351.2666">write constraints/&lt;name&gt;.svg (mirror)</text></g><!--link Viewer to Ocl--><g class="link" data-entity-1="ent0003" data-entity-2="ent0011" data-link-type="dependency" data-source-line="31" id="lnk17"><path d="M1350.74,272.2683 C1129.77,279.7983 627.18,300.5283 459.93,337.6983 C433.77,343.5183 381.0699,385.0181 332.3899,405.0181" fill="none" id="Viewer-to-Ocl" style="stroke:#181818;stroke-width:1;"/><polygon fill="#181818" points="326.84,407.2983,336.6849,407.578,331.4649,405.3982,333.6447,400.1782,326.84,407.2983" style="stroke:#181818;stroke-width:1;"/><text fill="#000000" font-family="sans-serif" font-size="13" lengthAdjust="spacing" textLength="238.6465" x="460.93" y="351.2666">read raw text (OCL Source sub-mode)</text></g><!--link Viewer to FontDb--><g class="link" data-entity-1="ent0003" data-entity-2="ent0007" data-link-type="dependency" data-source-line="32" id="lnk18"><path d="M1563.17,294.8983 C1641.96,313.4583 1752.18,338.0183 1849.93,354.6983 C1956.77,372.9383 1985.99,361.8683 2091.93,384.6983 C2097.65,385.9283 2097.6886,385.8359 2103.5686,387.3459" fill="none" id="Viewer-to-FontDb" style="stroke:#181818;stroke-width:1;"/><polygon fill="#181818" points="2109.38,388.8383,2101.6578,382.7254,2104.5371,387.5946,2099.6679,390.474,2109.38,388.8383" style="stroke:#181818;stroke-width:1;"/><text fill="#000000" font-family="sans-serif" font-size="13" lengthAdjust="spacing" textLength="159.2373" x="1850.93" y="351.2666">load_system_fonts() once</text></g><!--link Usvg to FontDb--><g class="link" data-entity-1="ent0006" data-entity-2="ent0007" data-link-type="dependency" data-source-line="33" id="lnk19"><path d="M2105.92,299.7283 C2126.9,325.5683 2152.9579,357.6504 2173.9879,383.5504" fill="none" id="Usvg-to-FontDb" style="stroke:#181818;stroke-width:1;"/><polygon fill="#181818" points="2177.77,388.2083,2175.2022,378.7001,2174.6183,384.3267,2168.9916,383.7428,2177.77,388.2083" style="stroke:#181818;stroke-width:1;"/><text fill="#000000" font-family="sans-serif" font-size="13" lengthAdjust="spacing" textLength="184.4121" x="2150.24" y="351.2666">resolves &lt;text&gt; font families</text></g><!--link Viewer to Usvg--><g class="link" data-entity-1="ent0003" data-entity-2="ent0006" data-link-type="dependency" data-source-line="34" id="lnk20"><path d="M1517.9,227.8083 C1551.27,208.2283 1594.22,186.7883 1635.93,176.7683 C1756.51,147.8283 1794.82,145.9483 1914.93,176.7683 C1959.68,188.2483 2000.322,211.2636 2032.392,232.7036" fill="none" id="Viewer-to-Usvg" style="stroke:#181818;stroke-width:1;"/><polygon fill="#181818" points="2037.38,236.0383,2032.1211,227.711,2033.2233,233.2594,2027.6749,234.3616,2037.38,236.0383" style="stroke:#181818;stroke-width:1;"/><text fill="#000000" font-family="sans-serif" font-size="13" lengthAdjust="spacing" textLength="219.4131" x="1703.43" y="163.0466">Tree::from_data(opts WITH fontdb)</text></g><!--link Usvg to Resvg--><g class="link" data-entity-1="ent0006" data-entity-2="ent0008" data-link-type="dependency" data-source-line="35" id="lnk21"><path d="M2051.42,299.7983 C2042.07,310.9983 2032.47,324.2283 2025.93,337.6983 C2018.26,353.5083 2014.6349,366.67 2011.8549,382.39" fill="none" id="Usvg-to-Resvg" style="stroke:#181818;stroke-width:1;"/><polygon fill="#181818" points="2010.81,388.2983,2016.3162,380.1324,2011.6807,383.3747,2008.4384,378.7392,2010.81,388.2983" style="stroke:#181818;stroke-width:1;"/><text fill="#000000" font-family="sans-serif" font-size="13" lengthAdjust="spacing" textLength="24.667" x="2026.93" y="351.2666">tree</text></g><!--link Resvg to Viewer--><g class="link" data-entity-1="ent0008" data-entity-2="ent0003" data-link-type="dependency" data-source-line="36" id="lnk22"><path d="M1938.64,412.4083 C1792.48,397.7483 1461.94,363.6883 1453.93,354.6983 C1442.84,342.2383 1441.0832,330.1931 1443.6832,313.9231" fill="none" id="Resvg-to-Viewer" style="stroke:#181818;stroke-width:1;"/><polygon fill="#181818" points="1444.63,307.9983,1439.2599,316.2543,1443.841,312.9356,1447.1597,317.5167,1444.63,307.9983" style="stroke:#181818;stroke-width:1;"/><text fill="#000000" font-family="sans-serif" font-size="13" lengthAdjust="spacing" textLength="206.9844" x="1454.93" y="351.2666">RGBA pixmap (glyphs rasterized)</text></g><!--link Viewer to Egui--><g class="link" data-entity-1="ent0003" data-entity-2="ent0009" data-link-type="dependency" data-source-line="37" id="lnk23"><path d="M1350.79,279.4783 C1285.12,290.3483 1219.24,312.0383 1252.93,354.6983 C1273.09,380.2183 1340.9477,395.8297 1406.4377,405.7497" fill="none" id="Viewer-to-Egui" style="stroke:#181818;stroke-width:1;"/><polygon fill="#181818" points="1412.37,406.6483,1404.0706,401.3455,1407.4264,405.8995,1402.8724,409.2553,1412.37,406.6483" style="stroke:#181818;stroke-width:1;"/><text fill="#000000" font-family="sans-serif" font-size="13" lengthAdjust="spacing" textLength="159.7324" x="1253.93" y="351.2666">texture + painter.image()</text></g><!--link Egui to Dev--><g class="link" data-entity-1="ent0009" data-entity-2="ent0002" data-link-type="dependency" data-source-line="38" id="lnk24"><path d="M1635.41,413.2783 C1724.02,405.9683 1837.77,389.8483 1866.93,354.6983 C1917.53,293.7083 1759.65,353.4383 1694.93,307.6983 C1661.09,283.7783 1612.5157,182.7027 1586.6557,125.0527" fill="none" id="Egui-to-Dev" style="stroke:#181818;stroke-width:1;"/><polygon fill="#181818" points="1584.2,119.5783,1584.2339,129.4271,1586.2464,124.1403,1591.5331,126.1529,1584.2,119.5783" style="stroke:#181818;stroke-width:1;"/><text fill="#000000" font-family="sans-serif" font-size="13" lengthAdjust="spacing" textLength="226.7383" x="1695.93" y="273.0366">on-screen diagram with legible text</text></g><?plantuml-src VLNDRY8v4BxxAKfS0ZiqPBHpOaVHae798eM02CbSa1ZJhWPlkksMxOOmev7s8VO9zqcsx6xIz6oo5ngNg-ghdw_A5_2x5ErFqtdqE1b_6I-YnVXkH9_vP3w-dToDE-pYHMFswRQw3bA3IVlXVXmCez5aUBCOJk__UqDMGIZGnly3r8LM9aIqbtX0Ss4XDnWPL08DYkZ-yGPYhMoHeHc0GIuiUDdcwD02Lm8CjmwD_4P7jyECVemkjZiex7xRDqY_S91k1nnodHSfToWWqSg1u8vlkCLUgnbbdMmLMHaCa1piKH689JIAnXL6-HYWf-CK4faYIEKq8SrJhjp3z3Q4xWmdiGKX-TRmxEUWfGEo8QyWa6IPLD8w6KEFeFkdElJF7FK_AfxXLSzdbabZjEb2Afym-8YFCOKXP990PMlA_6QRFp5sSe-HbOBqT9PhXLG6N_T1i6rK1MH83P_pLCRITSb5NJ-1kNUkuYFeWo81Ty63hpbiTA44DyVVGiLyMIniqG4d5tNznAkrsKiETSbxp4b7wTJqg9A2NEQOIeNmprz_Xn2CtSaSslgKPOSn7Zjje3N2FQOwHzC2Re5EZDN9dp5lfQP2F9OeRKme6XmCXddUMQbH6TsSRp4uARLOebCVIwlPgPLgdpFOixKJh1QLXB6Snq_a2rgUoISgS2Ur8kHdEYcUGcoer9PClpCuQrShrFYoz-73IiroRsFXUsYTs7J3TvtmJAP7-15G7qYzwU0pwOogBbEmzaZuMR2qa6ekK9Jn1hrDqxQS9uyExrRAINMCx1FrxBBt_dsLfCVxSLxYifRG1zmMaZH_lIJKWrH27xgG-_uZCTXHueK92PERCQd-tAQoeYjLSsXDSxVEYoprmPJNGLInoGPNipZrbMzswtoSLkeNFy0dPSQ88n15LrMROU3v5yQ4LH9_UUecb5kfNagi0WnQzF-a440QbsSk3aOwX3U6l5rEUUSDUD-pDqtz25Rq1LjieamBR3WwYz3mGsX3QNMl2nFZwqObDIhiTScWTM1GkmDQnSWyxPggr5kTxcaNVFGOL-Ms2LILLBGpvy5q04k3D829qTdQxwIspecVNoRBFogoTsgCG3eoSMJ2oaEZVukRwo6jZEUCquhOfiTyP-iDB1gPUU9vJoKRuTs9e3sPqSIsEomeU4tFaW4b6zcOODNB2WkFJOfRkQ7DvVqmfZGrTwETqndef1wibvtyrlwbxMciY-AKMzibWzStSFAoUwltxhI1UsGoSTuJJLjbuBo-dqHwQRyAJ7YHkh9rNuEwsdCZwVKQm6WsZJxFxfRHQBWSNW_lnpJ2_ctqij5rD9_D7sw7o_6enpoXVOx_0W00?></g></svg>