<svg xmlns="http://www.w3.org/2000/svg" xmlns:xlink="http://www.w3.org/1999/xlink" contentStyleType="text/css" data-diagram-type="DESCRIPTION" height="579px" preserveAspectRatio="none" style="width:1420px;height:579px;background:#FFFFFF;" version="1.1" viewBox="0 0 1420 579" width="1420px" zoomAndPan="magnify"><?plantuml 1.2026.3?><defs/><g><g class="title" data-source-line="6"><text fill="#000000" font-family="sans-serif" font-size="14" font-weight="700" lengthAdjust="spacing" textLength="326.5869" x="543.5785" y="23.5352">mdd-viewer UI shell &#8212; ownership (objective)</text></g><!--entity Dev--><g class="entity" data-qualified-name="Dev" data-source-line="8" id="ent0002"><ellipse cx="989.8992" cy="51.4883" fill="#F1F1F1" rx="8" ry="8" style="stroke:#181818;stroke-width:0.5;"/><path d="M989.8992,59.4883 L989.8992,86.4883 M976.8992,67.4883 L1002.8992,67.4883 M989.8992,86.4883 L976.8992,101.4883 M989.8992,86.4883 L1002.8992,101.4883" fill="none" style="stroke:#181818;stroke-width:0.5;"/><text fill="#000000" font-family="sans-serif" font-size="14" lengthAdjust="spacing" textLength="68.3184" x="955.74" y="116.5234">Developer</text></g><!--entity Viewer--><g class="entity" data-qualified-name="Viewer" data-source-line="10" id="ent0003"><rect fill="#F1F1F1" height="62.9766" rx="2.5" ry="2.5" style="stroke:#181818;stroke-width:0.5;" width="132.5244" x="653.64" y="196.4783"/><rect fill="#F1F1F1" height="10" style="stroke:#181818;stroke-width:0.5;" width="15" x="766.1644" y="201.4783"/><rect fill="#F1F1F1" height="2" style="stroke:#181818;stroke-width:0.5;" width="4" x="764.1644" y="203.4783"/><rect fill="#F1F1F1" height="2" style="stroke:#181818;stroke-width:0.5;" width="4" x="764.1644" y="207.4783"/><text fill="#000000" font-family="sans-serif" font-size="14" lengthAdjust="spacing" textLength="74.9971" x="668.64" y="230.0134">MddViewer</text><text fill="#000000" font-family="sans-serif" font-size="14" lengthAdjust="spacing" textLength="92.5244" x="668.64" y="246.5017">(eframe::App)</text></g><!--entity Left--><g class="entity" data-qualified-name="Left" data-source-line="11" id="ent0004"><rect fill="#F1F1F1" height="62.9766" rx="2.5" ry="2.5" style="stroke:#181818;stroke-width:0.5;" width="181.7979" x="7" y="344.6983"/><rect fill="#F1F1F1" height="10" style="stroke:#181818;stroke-width:0.5;" width="15" x="168.7979" y="349.6983"/><rect fill="#F1F1F1" height="2" style="stroke:#181818;stroke-width:0.5;" width="4" x="166.7979" y="351.6983"/><rect fill="#F1F1F1" height="2" style="stroke:#181818;stroke-width:0.5;" width="4" x="166.7979" y="355.6983"/><text fill="#000000" font-family="sans-serif" font-size="14" lengthAdjust="spacing" textLength="94.2813" x="22" y="378.2334">Left SidePanel</text><text fill="#000000" font-family="sans-serif" font-size="14" lengthAdjust="spacing" textLength="141.7979" x="22" y="394.7217">MODELS (collapsible)</text></g><!--entity Right--><g class="entity" data-qualified-name="Right" data-source-line="12" id="ent0005"><rect fill="#F1F1F1" height="62.9766" rx="2.5" ry="2.5" style="stroke:#181818;stroke-width:0.5;" width="243.6494" x="228.07" y="344.6983"/><rect fill="#F1F1F1" height="10" style="stroke:#181818;stroke-width:0.5;" width="15" x="451.7194" y="349.6983"/><rect fill="#F1F1F1" height="2" style="stroke:#181818;stroke-width:0.5;" width="4" x="449.7194" y="351.6983"/><rect fill="#F1F1F1" height="2" style="stroke:#181818;stroke-width:0.5;" width="4" x="449.7194" y="355.6983"/><text fill="#000000" font-family="sans-serif" font-size="14" lengthAdjust="spacing" textLength="104.1865" x="243.07" y="378.2334">Right SidePanel</text><text fill="#000000" font-family="sans-serif" font-size="14" lengthAdjust="spacing" textLength="203.6494" x="243.07" y="394.7217">MODEL CONTEXT (collapsible)</text></g><!--entity Toolbar--><g class="entity" data-qualified-name="Toolbar" data-source-line="13" id="ent0006"><rect fill="#F1F1F1" height="79.4648" rx="2.5" ry="2.5" style="stroke:#181818;stroke-width:0.5;" width="214.4736" x="514.66" y="336.4483"/><rect fill="#F1F1F1" height="10" style="stroke:#181818;stroke-width:0.5;" width="15" x="709.1336" y="341.4483"/><rect fill="#F1F1F1" height="2" style="stroke:#181818;stroke-width:0.5;" width="4" x="707.1336" y="343.4483"/><rect fill="#F1F1F1" height="2" style="stroke:#181818;stroke-width:0.5;" width="4" x="707.1336" y="347.4483"/><text fill="#000000" font-family="sans-serif" font-size="14" lengthAdjust="spacing" textLength="52.3701" x="529.66" y="369.9834">Toolbar</text><text fill="#000000" font-family="sans-serif" font-size="14" lengthAdjust="spacing" textLength="149.1123" x="529.66" y="386.4717">(PAGE selector only &#8212;</text><text fill="#000000" font-family="sans-serif" font-size="14" lengthAdjust="spacing" textLength="174.4736" x="529.66" y="402.96">no Reset/Zoom+/Zoom-)</text></g><!--entity Fisheye--><g class="entity" data-qualified-name="Fisheye" data-source-line="14" id="ent0007"><rect fill="#F1F1F1" height="62.9766" rx="2.5" ry="2.5" style="stroke:#181818;stroke-width:0.5;" width="181.4902" x="764.15" y="344.6983"/><rect fill="#F1F1F1" height="10" style="stroke:#181818;stroke-width:0.5;" width="15" x="925.6402" y="349.6983"/><rect fill="#F1F1F1" height="2" style="stroke:#181818;stroke-width:0.5;" width="4" x="923.6402" y="351.6983"/><rect fill="#F1F1F1" height="2" style="stroke:#181818;stroke-width:0.5;" width="4" x="923.6402" y="355.6983"/><text fill="#000000" font-family="sans-serif" font-size="14" lengthAdjust="spacing" textLength="141.4902" x="779.15" y="378.2334">Fisheye canvas stage</text><text fill="#000000" font-family="sans-serif" font-size="14" lengthAdjust="spacing" textLength="131.5098" x="779.15" y="394.7217">(center-fixed warp)</text></g><!--entity PL--><g class="entity" data-qualified-name="PL" data-source-line="15" id="ent0008"><rect fill="#F1F1F1" height="62.9766" rx="2.5" ry="2.5" style="stroke:#181818;stroke-width:0.5;" width="179.6924" x="167.05" y="497.0483"/><rect fill="#F1F1F1" height="10" style="stroke:#181818;stroke-width:0.5;" width="15" x="326.7424" y="502.0483"/><rect fill="#F1F1F1" height="2" style="stroke:#181818;stroke-width:0.5;" width="4" x="324.7424" y="504.0483"/><rect fill="#F1F1F1" height="2" style="stroke:#181818;stroke-width:0.5;" width="4" x="324.7424" y="508.0483"/><text fill="#000000" font-family="sans-serif" font-size="14" lengthAdjust="spacing" textLength="81.04" x="182.05" y="530.5834">PanelLayout</text><text fill="#000000" font-family="sans-serif" font-size="14" lengthAdjust="spacing" textLength="139.6924" x="182.05" y="547.0717">(left/right collapsed)</text></g><!--entity CV--><g class="entity" data-qualified-name="CV" data-source-line="16" id="ent0009"><rect fill="#F1F1F1" height="62.9766" rx="2.5" ry="2.5" style="stroke:#181818;stroke-width:0.5;" width="232.9238" x="445.44" y="497.0483"/><rect fill="#F1F1F1" height="10" style="stroke:#181818;stroke-width:0.5;" width="15" x="658.3638" y="502.0483"/><rect fill="#F1F1F1" height="2" style="stroke:#181818;stroke-width:0.5;" width="4" x="656.3638" y="504.0483"/><rect fill="#F1F1F1" height="2" style="stroke:#181818;stroke-width:0.5;" width="4" x="656.3638" y="508.0483"/><text fill="#000000" font-family="sans-serif" font-size="14" lengthAdjust="spacing" textLength="80.0078" x="460.44" y="530.5834">CanvasView</text><text fill="#000000" font-family="sans-serif" font-size="14" lengthAdjust="spacing" textLength="192.9238" x="460.44" y="547.0717">(zoom, pan, fisheye params)</text></g><!--entity Egui--><g class="entity" data-qualified-name="Egui" data-source-line="17" id="ent0010"><rect fill="#F1F1F1" height="46.4883" rx="2.5" ry="2.5" style="stroke:#181818;stroke-width:0.5;" width="168.1602" x="1028.82" y="352.9383"/><rect fill="#F1F1F1" height="10" style="stroke:#181818;stroke-width:0.5;" width="15" x="1176.9802" y="357.9383"/><rect fill="#F1F1F1" height="2" style="stroke:#181818;stroke-width:0.5;" width="4" x="1174.9802" y="359.9383"/><rect fill="#F1F1F1" height="2" style="stroke:#181818;stroke-width:0.5;" width="4" x="1174.9802" y="363.9383"/><text fill="#000000" font-family="sans-serif" font-size="14" lengthAdjust="spacing" textLength="128.1602" x="1043.82" y="386.4734">eframe / egui 0.30</text></g><g class="entity" data-qualified-name="GMN21" data-source-line="31" id="ent0022"><path d="M713.01,492.9183 L713.01,564.1605 A0,0 0 0 0 713.01,564.1605 L1096.7913,564.1605 A0,0 0 0 0 1096.7913,564.1605 L1096.7913,502.9183 L1086.7913,492.9183 L897.27,492.9183 L865.14,407.9683 L889.27,492.9183 L713.01,492.9183 A0,0 0 0 0 713.01,492.9183" fill="#FEFFDD" style="stroke:#181818;stroke-width:0.5;"/><path d="M1086.7913,492.9183 L1086.7913,502.9183 L1096.7913,502.9183 L1086.7913,492.9183" fill="#FEFFDD" style="stroke:#181818;stroke-width:0.5;"/><text fill="#000000" font-family="sans-serif" font-size="13" lengthAdjust="spacing" textLength="333.6138" x="719.01" y="510.4866">Objective: the fisheye is a display-time stage layered</text><text fill="#000000" font-family="sans-serif" font-size="13" lengthAdjust="spacing" textLength="362.7813" x="719.01" y="525.7972">on the base zoom/pan placement. It does not change the</text><text fill="#000000" font-family="sans-serif" font-size="13" lengthAdjust="spacing" textLength="355.5894" x="719.01" y="541.1077">render/font pipeline (CMP-VIEWER-RENDER-PIPELINE); it</text><text fill="#000000" font-family="sans-serif" font-size="13" lengthAdjust="spacing" textLength="353.3296" x="719.01" y="556.4183">remaps where the already-rasterized texture is painted.</text></g><!--link Dev to Viewer--><g class="link" data-entity-1="ent0002" data-entity-2="ent0003" data-link-type="dependency" data-source-line="19" id="lnk11"><path d="M955.43,100.7083 C910.58,124.7483 836.8585,164.2742 782.8185,193.2342" fill="none" id="Dev-to-Viewer" style="stroke:#181818;stroke-width:1;"/><polygon fill="#181818" points="777.53,196.0683,787.3521,195.3428,781.9371,193.7065,783.5733,188.2915,777.53,196.0683" style="stroke:#181818;stroke-width:1;"/><text fill="#000000" font-family="sans-serif" font-size="13" lengthAdjust="spacing" textLength="60.3599" x="863.99" y="163.0466">mdd view</text></g><!--link Viewer to Left--><g class="link" data-entity-1="ent0003" data-entity-2="ent0004" data-link-type="dependency" data-source-line="20" id="lnk12"><path d="M653.26,232.0883 C508.71,239.3883 175.98,259.2983 134.9,289.4483 C117.26,302.3983 109.4219,319.7267 104.5519,338.6967" fill="none" id="Viewer-to-Left" style="stroke:#181818;stroke-width:1;"/><polygon fill="#181818" points="103.06,344.5083,109.1723,336.7856,104.3033,339.6653,101.4236,334.7963,103.06,344.5083" style="stroke:#181818;stroke-width:1;"/><text fill="#000000" font-family="sans-serif" font-size="13" lengthAdjust="spacing" textLength="222.1235" x="135.9" y="303.0166">draw + inner-edge collapse handle</text></g><!--link Viewer to Right--><g class="link" data-entity-1="ent0003" data-entity-2="ent0005" data-link-type="dependency" data-source-line="21" id="lnk13"><path d="M653.43,233.0283 C566.69,239.6283 421.19,255.4983 380.9,289.4483 C364.8,303.0183 358.2373,319.7449 354.5173,338.3349" fill="none" id="Viewer-to-Right" style="stroke:#181818;stroke-width:1;"/><polygon fill="#181818" points="353.34,344.2183,359.0282,336.1781,354.3211,339.3155,351.1837,334.6084,353.34,344.2183" style="stroke:#181818;stroke-width:1;"/><text fill="#000000" font-family="sans-serif" font-size="13" lengthAdjust="spacing" textLength="222.1235" x="381.9" y="303.0166">draw + inner-edge collapse handle</text></g><!--link Left to PL--><g class="link" data-entity-1="ent0004" data-entity-2="ent0008" data-link-type="dependency" data-source-line="22" id="lnk14"><path d="M130.46,407.9683 C157.9,433.9183 192.6006,466.7357 220.0206,492.6657" fill="none" id="Left-to-PL" style="stroke:#181818;stroke-width:1;"/><polygon fill="#181818" points="224.38,496.7883,220.5892,487.6982,220.7471,493.3528,215.0925,493.5108,224.38,496.7883" style="stroke:#181818;stroke-width:1;"/><text fill="#000000" font-family="sans-serif" font-size="13" lengthAdjust="spacing" textLength="72.3315" x="187.92" y="459.4866">toggleLeft()</text></g><!--link Right to PL--><g class="link" data-entity-1="ent0005" data-entity-2="ent0008" data-link-type="dependency" data-source-line="23" id="lnk15"><path d="M330.85,407.9683 C314.81,433.9183 295.1164,465.7556 279.0764,491.6856" fill="none" id="Right-to-PL" style="stroke:#181818;stroke-width:1;"/><polygon fill="#181818" points="275.92,496.7883,284.0564,491.2386,278.5504,492.5361,277.2529,487.03,275.92,496.7883" style="stroke:#181818;stroke-width:1;"/><text fill="#000000" font-family="sans-serif" font-size="13" lengthAdjust="spacing" textLength="81.5293" x="307.19" y="459.4866">toggleRight()</text></g><!--link Viewer to Toolbar--><g class="link" data-entity-1="ent0003" data-entity-2="ent0006" data-link-type="dependency" data-source-line="24" id="lnk16"><path d="M653.23,255.5783 C639.53,264.2683 626.86,275.4083 618.9,289.4483 C611.04,303.3183 609.594,314.6076 611.364,329.9876" fill="none" id="Viewer-to-Toolbar" style="stroke:#181818;stroke-width:1;"/><polygon fill="#181818" points="612.05,335.9483,614.9948,326.55,611.4784,330.9811,607.0473,327.4646,612.05,335.9483" style="stroke:#181818;stroke-width:1;"/><text fill="#000000" font-family="sans-serif" font-size="13" lengthAdjust="spacing" textLength="154.3687" x="619.9" y="303.0166">draw (no zoom controls)</text></g><!--link Viewer to Fisheye--><g class="link" data-entity-1="ent0003" data-entity-2="ent0007" data-link-type="dependency" data-source-line="25" id="lnk17"><path d="M750.5,259.7683 C759.73,269.2083 769.81,279.6783 778.9,289.4483 C795.56,307.3683 809.8094,323.3425 824.2094,339.8025" fill="none" id="Viewer-to-Fisheye" style="stroke:#181818;stroke-width:1;"/><polygon fill="#181818" points="828.16,344.3183,825.2446,334.9108,824.8678,340.5551,819.2235,340.1783,828.16,344.3183" style="stroke:#181818;stroke-width:1;"/><text fill="#000000" font-family="sans-serif" font-size="13" lengthAdjust="spacing" textLength="141.2925" x="794.72" y="303.0166">warp rendered texture</text></g><!--link Fisheye to CV--><g class="link" data-entity-1="ent0007" data-entity-2="ent0009" data-link-type="dependency" data-source-line="26" id="lnk18"><path d="M769.28,408.1183 C726.3,423.8683 681.34,440.7683 671.9,445.9183 C645.59,460.2483 623.2097,476.4932 602.5097,493.1032" fill="none" id="Fisheye-to-CV" style="stroke:#181818;stroke-width:1;"/><polygon fill="#181818" points="597.83,496.8583,607.3529,494.3455,601.7297,493.7291,602.3462,488.1059,597.83,496.8583" style="stroke:#181818;stroke-width:1;"/><text fill="#000000" font-family="sans-serif" font-size="13" lengthAdjust="spacing" textLength="197.0566" x="672.9" y="459.4866">focal = centre, strength, radius</text></g><!--link Viewer to Egui--><g class="link" data-entity-1="ent0003" data-entity-2="ent0010" data-link-type="dependency" data-source-line="27" id="lnk19"><path d="M786.53,243.0083 C831.93,253.5183 892.99,269.4783 944.9,289.4483 C990.89,307.1483 1035.6455,330.7179 1069.0255,349.5679" fill="none" id="Viewer-to-Egui" style="stroke:#181818;stroke-width:1;"/><polygon fill="#181818" points="1074.25,352.5183,1068.3801,344.6098,1069.8962,350.0597,1064.4463,351.5758,1074.25,352.5183" style="stroke:#181818;stroke-width:1;"/><text fill="#000000" font-family="sans-serif" font-size="13" lengthAdjust="spacing" textLength="136.2651" x="983.92" y="303.0166">painter mesh / image</text></g><!--link Egui to Dev--><g class="link" data-entity-1="ent0010" data-entity-2="ent0002" data-link-type="dependency" data-source-line="28" id="lnk20"><path d="M1122.92,352.6483 C1129.31,335.1683 1135.29,310.4583 1128.9,289.4483 C1108.53,222.5183 1062.5011,162.0749 1028.3711,123.2449" fill="none" id="Egui-to-Dev" style="stroke:#181818;stroke-width:1;"/><polygon fill="#181818" points="1024.41,118.7383,1027.3473,128.1389,1027.7109,122.4938,1033.3561,122.8574,1024.41,118.7383" style="stroke:#181818;stroke-width:1;"/><text fill="#000000" font-family="sans-serif" font-size="13" lengthAdjust="spacing" textLength="286.584" x="1118.16" y="233.0266">centre-magnified diagram, collapsible panels</text></g><?plantuml-src ZLHBRjim4Dth50DlOgEM7Q0x5IqIE6fgm4aCst6B8XjQ74aiA58WwJZEgeVe2NkI3YavbfiKw4OVphmtlySvWml1-vERURoUfb_JHRpyaivcW-WCBWpc_Vjb6WpnrVJoUd5vimmMZZPxXHb2RrKYOB4LO4kK4dGE5UVney0TcWGoBIMhhTX818cv6njHb0wMWkESAPHs20oSrdB33Eo4Aq5fUDQwWitMEQsyNN7ooL0vD74kdf13BYZO7Y5Zwf5Pi8uL2Ava3dRCr9O-4GmgZeQS7JwvhK7OOAxfLJEXd535gEVBkjlymCo9HumjfKJfLhLM50fy0RuOJzKK0_VJjiRVFt-5yvePHn_24b6spwZ4h6IgG3k2rKi6urmJNIrgb4BvmueIiD3fv2AzlQBNV3fFPzFRT1GvuOZhsCRJo7gdqDXIrD3NX-m7KSGofmtqhl0HfQxHz80wGtzHT2ogTyFvEb0-g3xcXbMO99TrFGZEZQNhFgE97MVre6xkhjBP4lgTgJPGxzW5Bawdt29XSdUxIh-jtY08W2x3gj44vJc_l4x1eiHGe5Poxzlme4We2xJenjz9Bk_2Csx8McoNxlCRYY7k4rLvxJG4hNUN8DGnOtkzTOJhIBaj1Na3dS-wg4a8vnjB82_h8Ob63Ly4J0fYbMsGatKNsKm7nitTEX-zFmzEAVr54OqLulXJEp58l5Q2IgFsn1l3y1BWXktW7GX5gecH5_YICP1OkSGkffdR_u02kuVCP-JlT558z6VzGTIG_6KBXsJi16l7T0ZNFzpyZ2wCqTAUE1y6c8GnlRhTqS7kVIThSijrnYHy38l3u916JfZ2bKCmZ8kjxPBxhX8ah0Owgj2Mr7bHaKYYOFDElkb9InUJIObSK09Si896DJnPTNNORL6ajAF5escJLNwP77G5nxsJX4roq8EmjEguiBLa-zW94a2ps-ZNLqj0hG9WmsWKlbjZ2WNadc55cOrWwe1hjBH6NRkDl3y1tzn6_N-leS4742xWAgeATYKb448pQP3nVMoOfMQ9vywAfVIR7l9HHE5y4lW7?></g></svg>