<svg xmlns="http://www.w3.org/2000/svg" xmlns:xlink="http://www.w3.org/1999/xlink" contentStyleType="text/css" data-diagram-type="DESCRIPTION" height="590px" preserveAspectRatio="none" style="width:1341px;height:590px;background:#FFFFFF;" version="1.1" viewBox="0 0 1341 590" width="1341px" zoomAndPan="magnify"><?plantuml 1.2026.3?><defs/><g><g class="title" data-source-line="23"><text fill="#000000" font-family="sans-serif" font-size="14" font-weight="700" lengthAdjust="spacing" textLength="466.8057" x="433.8643" y="23.5352">/mdd-deploy execution engine added &#183; cycle 0021 diff (current)</text></g><!--entity Op--><g class="entity" data-qualified-name="Op" data-source-line="25" id="ent0002"><ellipse cx="48.8359" cy="51.4883" fill="#F1F1F1" rx="8" ry="8" style="stroke:#181818;stroke-width:0.5;"/><path d="M48.8359,59.4883 L48.8359,86.4883 M35.8359,67.4883 L61.8359,67.4883 M48.8359,86.4883 L35.8359,101.4883 M48.8359,86.4883 L61.8359,101.4883" fill="none" style="stroke:#181818;stroke-width:0.5;"/><text fill="#000000" font-family="sans-serif" font-size="14" lengthAdjust="spacing" textLength="60.5117" x="18.58" y="116.5234">Operator</text></g><!--entity Skill--><g class="entity" data-qualified-name="Skill" data-source-line="27" id="ent0003"><rect fill="#F1F1F1" height="62.9766" rx="2.5" ry="2.5" style="stroke:#181818;stroke-width:0.5;" width="194.3008" x="398.69" y="196.4683"/><rect fill="#F1F1F1" height="10" style="stroke:#181818;stroke-width:0.5;" width="15" x="572.9908" y="201.4683"/><rect fill="#F1F1F1" height="2" style="stroke:#181818;stroke-width:0.5;" width="4" x="570.9908" y="203.4683"/><rect fill="#F1F1F1" height="2" style="stroke:#181818;stroke-width:0.5;" width="4" x="570.9908" y="207.4683"/><text fill="#000000" font-family="sans-serif" font-size="14" lengthAdjust="spacing" textLength="91.5195" x="413.69" y="230.0034">/mdd-deploy</text><text fill="#000000" font-family="sans-serif" font-size="14" lengthAdjust="spacing" textLength="154.3008" x="413.69" y="246.4917">(skill: plan + executor)</text></g><!--entity Exec--><g class="entity" data-qualified-name="Exec" data-source-line="28" id="ent0004"><rect fill="#90EE90" height="79.4648" rx="2.5" ry="2.5" style="stroke:#181818;stroke-width:0.5;" width="315.0713" x="317.3" y="336.4483"/><rect fill="#90EE90" height="10" style="stroke:#181818;stroke-width:0.5;" width="15" x="612.3713" y="341.4483"/><rect fill="#90EE90" height="2" style="stroke:#181818;stroke-width:0.5;" width="4" x="610.3713" y="343.4483"/><rect fill="#90EE90" height="2" style="stroke:#181818;stroke-width:0.5;" width="4" x="610.3713" y="347.4483"/><text fill="#000000" font-family="sans-serif" font-size="14" font-style="italic" lengthAdjust="spacing" textLength="56.6357" x="441.5178" y="369.9834">&#171;added&#187;</text><text fill="#000000" font-family="sans-serif" font-size="14" lengthAdjust="spacing" textLength="116.7988" x="332.3" y="386.4717">execution engine</text><text fill="#000000" font-family="sans-serif" font-size="14" lengthAdjust="spacing" textLength="275.0713" x="332.3" y="402.96">(agent -&gt; Bash: az / terraform / docker)</text></g><!--entity Store--><g class="entity" data-qualified-name="Store" data-source-line="29" id="ent0005"><path d="M839.89,497.1583 L880.89,497.1583 A3.75,3.75 0 0 1 883.39,499.6583 L890.39,518.1583 L1117.7787,518.1583 A2.5,2.5 0 0 1 1120.2787,520.6583 L1120.2787,565.6348 A2.5,2.5 0 0 1 1117.7787,568.1348 L839.89,568.1348 A2.5,2.5 0 0 1 837.39,565.6348 L837.39,499.6583 A2.5,2.5 0 0 1 839.89,497.1583" fill="#F1F1F1" style="stroke:#181818;stroke-width:0.5;"/><line style="stroke:#181818;stroke-width:0.5;" x1="837.39" x2="890.39" y1="518.1583" y2="518.1583"/><text fill="#000000" font-family="sans-serif" font-size="14" lengthAdjust="spacing" textLength="252.8887" x="847.39" y="538.6934">.mdd/deploy/azure-container-apps/</text><text fill="#000000" font-family="sans-serif" font-size="14" lengthAdjust="spacing" textLength="187.3662" x="847.39" y="555.1817">diagram.puml, runbook.md</text></g><!--entity Target--><g class="entity" data-qualified-name="Target" data-source-line="30" id="ent0006"><path d="M8.5,497.1583 L49.5,497.1583 A3.75,3.75 0 0 1 52,499.6583 L59,518.1583 L213.1758,518.1583 A2.5,2.5 0 0 1 215.6758,520.6583 L215.6758,565.6348 A2.5,2.5 0 0 1 213.1758,568.1348 L8.5,568.1348 A2.5,2.5 0 0 1 6,565.6348 L6,499.6583 A2.5,2.5 0 0 1 8.5,497.1583" fill="#F1F1F1" style="stroke:#181818;stroke-width:0.5;"/><line style="stroke:#181818;stroke-width:0.5;" x1="6" x2="59" y1="518.1583" y2="518.1583"/><text fill="#000000" font-family="sans-serif" font-size="14" lengthAdjust="spacing" textLength="133.834" x="16" y="538.6934">../atlas-ate-server/</text><text fill="#000000" font-family="sans-serif" font-size="14" lengthAdjust="spacing" textLength="179.6758" x="16" y="555.1817">infra/ (Bicep or Terraform)</text></g><!--entity Az--><g class="entity" data-qualified-name="Az" data-source-line="31" id="ent0007"><path d="M403.8221,502.8741 C406.9535,494.5217 411.6805,494.5556 417.5459,500.1919 C419.4227,494.4988 424.2326,493.8113 427.7927,498.5364 C432.0311,492.1802 436.5201,491.9843 440.7962,498.4984 C443.7465,492.1387 447.563,491.8367 452.8143,495.8263 C455.1644,489.1071 460.8714,489.1955 464.5065,494.5855 C467.7182,489.2569 473.0436,489.7143 475.9723,494.8943 C480.0139,490.2635 483.5913,489.0989 487.4662,495.0749 C491.41,489.2991 497.6067,488.6627 500.5888,496.0348 C504.3593,491.8188 508.3706,491.6351 510.8545,497.3631 C515.7472,491.054 520.3884,492.6952 523.3979,499.2057 C527.8552,493.7645 534.0479,495.089 536.1505,501.6977 C540.1478,497.2387 544.3294,496.5079 547.6372,502.4585 C553.1067,503.9291 554.3903,509.1526 550.6451,513.2028 C557.5188,515.1784 557.2396,518.9253 553.6885,523.874 C559.7397,524.8974 560.3011,528.6886 557.3872,533.249 C561.2936,537.4071 559.9952,542.3456 554.1289,543.352 C558.6406,548.9532 556.4082,553.0278 549.9146,554.4499 C553.8906,560.181 552.3959,563.8815 546.0921,566.2954 C542.2622,571.6127 538.4641,569.8472 535.5786,565.2899 C531.9093,571.837 528.0278,572.279 522.6967,567.1184 C519.1586,572.1123 515.3681,573.0666 511.7482,567.2008 C508.6675,574.271 504.8829,573.649 499.9066,569.1392 C497.1661,575.8313 491.2262,575.7631 487.7008,569.9025 C484.0019,575.9211 478.7546,574.3741 475.7204,569.1916 C472.2157,575.0804 466.5124,573.3722 463.823,568.3061 C460.8768,574.9173 456.4669,574.141 452.3165,569.5422 C447.5599,574.1277 443.4557,575.3358 440.0075,568.1716 C435.9127,572.3049 431.8059,572.3266 428.8041,566.8918 C425.1695,571.7116 419.6762,571.2474 417.018,565.7738 C413.0571,572.8505 407.6538,571.6132 403.7049,565.7615 C395.9975,562.4112 393.0254,556.7704 400.1558,550.0652 C391.8739,546.8174 388.9867,540.3717 395.4743,533.0582 C389.1459,525.8804 392.578,520.4928 400.4252,517.965 C393.5528,510.9983 395.8973,506.51 403.8221,502.8741" fill="#90EE90" style="stroke:#181818;stroke-width:0.5;"/><text fill="#000000" font-family="sans-serif" font-size="14" font-style="italic" lengthAdjust="spacing" textLength="56.6357" x="446.5189" y="521.4534">&#171;added&#187;</text><text fill="#000000" font-family="sans-serif" font-size="14" lengthAdjust="spacing" textLength="128.4336" x="410.62" y="537.9417">Azure subscription</text><text fill="#000000" font-family="sans-serif" font-size="14" lengthAdjust="spacing" textLength="37.3447" x="410.62" y="554.43">(LIVE)</text></g><!--link Op to Skill--><g class="link" data-entity-1="ent0002" data-entity-2="ent0003" data-link-type="dependency" data-source-line="33" id="lnk8"><path d="M79.56,92.1783 C144.75,113.2883 293.5219,161.4496 394.8619,194.2696" fill="none" id="Op-to-Skill" style="stroke:#181818;stroke-width:1;"/><polygon fill="#181818" points="400.57,196.1183,393.2403,189.5399,395.8132,194.5778,390.7754,197.1507,400.57,196.1183" style="stroke:#181818;stroke-width:1;"/><text fill="#000000" font-family="sans-serif" font-size="13" lengthAdjust="spacing" textLength="180.4067" x="300.1" y="163.0366">/mdd-deploy &lt;description&gt;</text></g><!--link Skill to Store--><g class="link" data-entity-1="ent0003" data-entity-2="ent0005" data-link-type="dependency" data-source-line="34" id="lnk9"><path d="M593.45,231.2683 C732.61,240.5183 983.37,280.6383 1093.84,445.9183 C1107.26,465.9983 1099.0828,500.9801 1077.4328,514.5601" fill="none" id="Skill-to-Store" style="stroke:#181818;stroke-width:1;"/><polygon fill="#181818" points="1072.35,517.7483,1082.0997,516.3545,1076.5857,515.0914,1077.8488,509.5774,1072.35,517.7483" style="stroke:#181818;stroke-width:1;"/><text fill="#000000" font-family="sans-serif" font-size="13" lengthAdjust="spacing" textLength="259.3843" x="1066.15" y="381.2466">write diagram.puml + runbook.md (plan)</text></g><!--link Skill to Target--><g class="link" data-entity-1="ent0003" data-entity-2="ent0006" data-link-type="dependency" data-source-line="35" id="lnk10"><path d="M398.4,255.2983 C306.25,281.0083 179.62,318.7683 162.84,336.4483 C121.18,380.3183 112.2724,468.702 110.7424,511.902" fill="none" id="Skill-to-Target" style="stroke:#181818;stroke-width:1;"/><polygon fill="#181818" points="110.53,517.8983,114.846,509.0455,110.707,512.9014,106.8511,508.7623,110.53,517.8983" style="stroke:#181818;stroke-width:1;"/><text fill="#000000" font-family="sans-serif" font-size="13" lengthAdjust="spacing" textLength="135.0527" x="163.84" y="381.2466">generate infra/ (plan)</text></g><!--link Skill to Exec--><g class="link" data-entity-1="ent0003" data-entity-2="ent0004" data-link-type="dependency" data-source-line="36" id="lnk11"><path d="M491.44,259.6083 C488.24,281.8883 484.7313,306.269 481.2913,330.269" fill="none" id="Skill-to-Exec" style="stroke:#181818;stroke-width:1;"/><polygon fill="#181818" points="480.44,336.2083,485.6765,327.8669,481.1494,331.2589,477.7574,326.7318,480.44,336.2083" style="stroke:#181818;stroke-width:1;"/><text fill="#000000" font-family="sans-serif" font-size="13" lengthAdjust="spacing" textLength="219.9272" x="487.6" y="303.0166">drive execution (walk the runbook)</text></g><!--link Exec to Store--><g class="link" data-entity-1="ent0004" data-entity-2="ent0005" data-link-type="dependency" data-source-line="37" id="lnk12"><path d="M632.55,402.0483 C687.26,412.8183 748.48,427.2983 802.84,445.9183 C805.71,446.8983 854.9017,491.889 902.5317,515.219" fill="none" id="Exec-to-Store" style="stroke:#181818;stroke-width:1;"/><polygon fill="#181818" points="907.92,517.8583,901.597,510.3071,903.4297,515.6589,898.078,517.4916,907.92,517.8583" style="stroke:#181818;stroke-width:1;"/><text fill="#000000" font-family="sans-serif" font-size="13" lengthAdjust="spacing" textLength="249.1519" x="835.54" y="459.4866">read runbook.md as the execution plan</text></g><!--link Exec to Target--><g class="link" data-entity-1="ent0004" data-entity-2="ent0006" data-link-type="dependency" data-source-line="38" id="lnk13"><path d="M317.21,401.6483 C255.75,413.4283 194.03,428.7383 168.84,445.9183 C150.43,458.4683 139.1166,494.7128 129.3866,512.5228" fill="none" id="Exec-to-Target" style="stroke:#181818;stroke-width:1;"/><polygon fill="#181818" points="126.51,517.7883,134.3353,511.8079,128.9072,513.4004,127.3146,507.9723,126.51,517.7883" style="stroke:#181818;stroke-width:1;"/><text fill="#000000" font-family="sans-serif" font-size="13" lengthAdjust="spacing" textLength="293.2871" x="169.84" y="459.4866">apply infra/ (terraform apply / az deployment)</text></g><!--link Exec to Az--><g class="link" data-entity-1="ent0004" data-entity-2="ent0007" data-link-type="dependency" data-source-line="39" id="lnk14"><path d="M472.84,416.0683 C472.43,425.8083 472.05,436.2383 471.84,445.9183 C471.5,461.2483 471.6629,472.1338 472.2929,486.8238" fill="none" id="Exec-to-Az" style="stroke:#181818;stroke-width:1;"/><polygon fill="#181818" points="472.55,492.8183,476.1607,483.6552,472.3358,487.8229,468.1681,483.9979,472.55,492.8183" style="stroke:#181818;stroke-width:1;"/><text fill="#000000" font-family="sans-serif" font-size="13" lengthAdjust="spacing" textLength="325.8125" x="472.84" y="459.4866">auth, apply, provision secrets, migrate, route traffic</text></g><!--link Op to Exec--><g class="link" data-entity-1="ent0002" data-entity-2="ent0004" data-link-type="dependency" data-source-line="40" id="lnk15"><path d="M33.09,119.6283 C19.42,158.6683 6.17,219.6283 36.84,259.4483 C45.85,271.1483 189.3258,307.5874 311.1458,336.8374" fill="none" id="Op-to-Exec" style="stroke:#181818;stroke-width:1;stroke-dasharray:7,7;"/><polygon fill="#181818" points="316.98,338.2383,309.1626,332.2476,312.1182,337.0709,307.2948,340.0265,316.98,338.2383" style="stroke:#181818;stroke-width:1;"/><text fill="#000000" font-family="sans-serif" font-size="13" lengthAdjust="spacing" textLength="342.4243" x="37.84" y="233.0266">auth handshake + confirm irreversible steps &amp; go-live</text></g><?plantuml-src jLJ1RjD04BtxAqP10bl4Tk20r515jC6La0gfr0g1rClMEtPMiNUjtNLAYf3u2Fw5Ev_2bp2xJcstXHkzsV7CcpVllOdP2DampMh8LTqeYTB2rm3WcEMRKgjMygMgb3uyP9mZNopWoS4iomvcVolHMAjjLtHoSlng-IBu5fW1lr8jVoHibbkb7mcxK1N7_ml-3Du87YxVdyLlixFJrUSu-vGj8nZmx5eOo7TvXH3EPYzVHDIozA_k3RWe2WZpLcjdbn4Sepdr813hgeAI2Mc0IS0lcBTMA7gIfP08lx__82HMKblCjTYY9C9c3RgLKiWIs0saO55hLYXTqpDN-OQMPnxI-XcdxpvcS7JJQYGeqrwPN8l63Pd2DQis3iQLqGpKp29tu5TARH8ujuwTQgrZx8j8OM5tX5DIPG8V52rE_NlDNezsIi6GnUZeCLsYfGTQtXcJGgDL8IgCYIn1zJac2QX1OskG9u4LbkHBQyvZZasbTW_LyUh3hvzxvHzA7GL1bxJ9gd7BAJq1Pc3L1C5mFPFHZ4iPUlfpQ2hou_b-fjAHRpnttyQjzobHlpSBueKtQlulXpgyZDg750Nxv4uI8fHsX5BcZ8jp9IqvYZfcJMFIIya5AodiITFMrRHthEOTJQVyW9Qap5RCn6HPR51lKHE0a8LcAOJ78iS6IAABMuuTjGllMj3z2KnyVEw4XpPrmUgAZsv6MmIh1cBQtui5ypiM7dBi4HP1L-5hVLRcS4tnGXWlHnuCsq7eR8b6ZHrDwhoDBzmkTh_IQpq7VqMZA8Nk1dnkzsEYm5UEMMbaVCo2DdOD0uYRDRJrdCYhQjSJ6aBG_PwwR7Iwr3whFG39ISsjNK-xqgcxcAqmRfJ1NACrKwX5wVOby-b0wJe9kn2v4pz9-cqT2AoPv6RDDaXQKf0AGHG4tGS5mOWhEXnZiJ7m54eLLwJE7m00?></g></svg>