<svg xmlns="http://www.w3.org/2000/svg" xmlns:xlink="http://www.w3.org/1999/xlink" contentStyleType="text/css" data-diagram-type="DESCRIPTION" height="1834px" preserveAspectRatio="none" style="width:1188px;height:1834px;background:#FFFFFF;" version="1.1" viewBox="0 0 1188 1834" width="1188px" zoomAndPan="magnify"><?plantuml 1.2026.3?><defs/><g><g class="title" data-source-line="55"><text fill="#000000" font-family="sans-serif" font-size="14" font-weight="700" lengthAdjust="spacing" textLength="285.1611" x="448.3231" y="23.5352">mdd view &#8212; diagram viewer (objective)</text></g><!--cluster mdd-viewer--><g class="cluster" data-qualified-name="mdd-viewer" data-source-line="61" id="ent0003"><rect fill="none" height="559" rx="2.5" ry="2.5" style="stroke:#181818;stroke-width:1;" width="874.05" x="225.63" y="816.4583"/><text fill="#000000" font-family="sans-serif" font-size="14" font-weight="700" lengthAdjust="spacing" textLength="88.7783" x="618.2658" y="831.9934">mdd-viewer</text></g><!--entity View--><g class="entity" data-qualified-name="mdd-viewer.View" data-source-line="62" id="ent0004"><ellipse cx="366.7949" cy="1171.4573" fill="#F1F1F1" rx="119.7449" ry="26.349" style="stroke:#181818;stroke-width:0.5;"/><text fill="#000000" font-family="sans-serif" font-size="14" lengthAdjust="spacing" textLength="157.6641" x="287.9628" y="1167.2236">View rendered diagram</text><text fill="#000000" font-family="sans-serif" font-size="14" lengthAdjust="spacing" textLength="172.3271" x="280.6313" y="1183.7119">(shapes AND text legible)</text></g><!--entity Browse--><g class="entity" data-qualified-name="mdd-viewer.Browse" data-source-line="63" id="ent0005"><ellipse cx="945.9331" cy="977.4589" fill="#F1F1F1" rx="78.9031" ry="18.1806" style="stroke:#181818;stroke-width:0.5;"/><text fill="#000000" font-family="sans-serif" font-size="14" lengthAdjust="spacing" textLength="127.4697" x="882.1982" y="982.203">Browse model files</text></g><!--entity PanZoom--><g class="entity" data-qualified-name="mdd-viewer.PanZoom" data-source-line="64" id="ent0006"><ellipse cx="945.9344" cy="898.4545" fill="#F1F1F1" rx="112.8544" ry="25.9162" style="stroke:#181818;stroke-width:0.5;"/><text fill="#000000" font-family="sans-serif" font-size="14" lengthAdjust="spacing" textLength="146.6787" x="872.595" y="894.3813">Pan and zoom canvas</text><text fill="#000000" font-family="sans-serif" font-size="14" lengthAdjust="spacing" textLength="158.0811" x="866.8939" y="910.8696">(scroll zoom, drag pan)</text></g><!--entity Fisheye--><g class="entity" data-qualified-name="mdd-viewer.Fisheye" data-source-line="65" id="ent0007"><ellipse cx="945.934" cy="1051.4551" fill="#F1F1F1" rx="93.784" ry="21.1568" style="stroke:#181818;stroke-width:0.5;"/><text fill="#000000" font-family="sans-serif" font-size="14" lengthAdjust="spacing" textLength="161.7725" x="865.0477" y="1056.1992">Focus via center fisheye</text></g><!--entity Panels--><g class="entity" data-qualified-name="mdd-viewer.Panels" data-source-line="66" id="ent0008"><ellipse cx="945.9343" cy="1223.4571" fill="#F1F1F1" rx="113.6443" ry="25.1289" style="stroke:#181818;stroke-width:0.5;"/><text fill="#000000" font-family="sans-serif" font-size="14" lengthAdjust="spacing" textLength="205.3584" x="843.2551" y="1228.2013">Collapse / expand side panels</text></g><!--entity Trace--><g class="entity" data-qualified-name="mdd-viewer.Trace" data-source-line="67" id="ent0009"><ellipse cx="366.7882" cy="1265.4559" fill="#F1F1F1" rx="123.2882" ry="27.0576" style="stroke:#181818;stroke-width:0.5;"/><text fill="#000000" font-family="sans-serif" font-size="14" lengthAdjust="spacing" textLength="226.0098" x="253.7833" y="1270.2001">Inspect model IDs and trace links</text></g><!--entity ViewOcl--><g class="entity" data-qualified-name="mdd-viewer.ViewOcl" data-source-line="68" id="ent0010"><ellipse cx="366.7939" cy="983.4592" fill="#F1F1F1" rx="103.0539" ry="25.9009" style="stroke:#181818;stroke-width:0.5;"/><text fill="#000000" font-family="sans-serif" font-size="14" lengthAdjust="spacing" textLength="144.0742" x="294.7568" y="980.5544">View OCL constraints</text><text fill="#000000" font-family="sans-serif" font-size="14" lengthAdjust="spacing" textLength="133.2666" x="300.1606" y="997.0427">(source or diagram)</text></g><!--entity ViewDeploy--><g class="entity" data-qualified-name="mdd-viewer.ViewDeploy" data-source-line="69" id="ent0011"><ellipse cx="366.7929" cy="887.4608" fill="#F1F1F1" rx="125.1529" ry="35.5525" style="stroke:#181818;stroke-width:0.5;"/><text fill="#000000" font-family="sans-serif" font-size="14" lengthAdjust="spacing" textLength="183.8115" x="274.8871" y="879.0059">View deployment diagrams</text><text fill="#000000" font-family="sans-serif" font-size="14" lengthAdjust="spacing" textLength="185.6162" x="273.9848" y="895.4942">(dedicated DEPLOY section,</text><text fill="#000000" font-family="sans-serif" font-size="14" lengthAdjust="spacing" textLength="124.332" x="304.6269" y="911.9825">NOT parity-gated)</text></g><!--entity Themed--><g class="entity" data-qualified-name="mdd-viewer.Themed" data-source-line="70" id="ent0012"><ellipse cx="945.9315" cy="1321.4554" fill="#F1F1F1" rx="137.7515" ry="37.9072" style="stroke:#181818;stroke-width:0.5;"/><text fill="#000000" font-family="sans-serif" font-size="14" lengthAdjust="spacing" textLength="190.9482" x="850.4573" y="1309.8101">View themed viewer chrome</text><text fill="#000000" font-family="sans-serif" font-size="14" lengthAdjust="spacing" textLength="188.7813" x="851.5408" y="1326.2983">(Catppuccin, bundled fonts,</text><text fill="#000000" font-family="sans-serif" font-size="14" lengthAdjust="spacing" textLength="189.417" x="851.223" y="1342.7866">OS appearance auto-follow)</text></g><!--entity ViewSource--><g class="entity" data-qualified-name="mdd-viewer.ViewSource" data-source-line="71" id="ent0013"><ellipse cx="945.9324" cy="1135.4548" fill="#F1F1F1" rx="128.7324" ry="28.1465" style="stroke:#181818;stroke-width:0.5;"/><text fill="#000000" font-family="sans-serif" font-size="14" lengthAdjust="spacing" textLength="148.4355" x="871.7146" y="1128.1449">View PlantUML source</text><text fill="#000000" font-family="sans-serif" font-size="14" lengthAdjust="spacing" textLength="217.1641" x="837.3503" y="1144.6332">(Source toggle next to Diagram)</text></g><!--entity OpenRender--><g class="entity" data-qualified-name="mdd-viewer.OpenRender" data-source-line="72" id="ent0014"><ellipse cx="366.7905" cy="1071.4584" fill="#F1F1F1" rx="122.5505" ry="26.9101" style="stroke:#181818;stroke-width:0.5;"/><text fill="#000000" font-family="sans-serif" font-size="14" lengthAdjust="spacing" textLength="185.3359" x="274.1225" y="1069.3404">Open React mockup render</text><text fill="#000000" font-family="sans-serif" font-size="14" lengthAdjust="spacing" textLength="158.8535" x="287.3637" y="1085.8287">(button opens browser)</text></g><!--entity Dev--><g class="entity" data-qualified-name="Dev" data-source-line="59" id="ent0002"><ellipse cx="40.7627" cy="1323.9566" fill="#90EE90" rx="8" ry="8" style="stroke:#181818;stroke-width:0.5;"/><path d="M40.7627,1331.9566 L40.7627,1358.9566 M27.7627,1339.9566 L53.7627,1339.9566 M40.7627,1358.9566 L27.7627,1373.9566 M40.7627,1358.9566 L53.7627,1373.9566" fill="none" style="stroke:#181818;stroke-width:0.5;"/><text fill="#000000" font-family="sans-serif" font-size="14" lengthAdjust="spacing" textLength="68.3184" x="6.6035" y="1388.9917">Developer</text><text fill="#000000" font-family="sans-serif" font-size="14" font-style="italic" lengthAdjust="spacing" textLength="67.5254" x="7" y="1312.5034">&#171;missing&#187;</text></g><g class="entity" data-qualified-name="GMN35" data-source-line="98" id="ent0036"><path d="M136.53,546.2083 L136.53,678.6927 L597.0544,678.6927 L597.0544,556.2083 L587.0544,546.2083 L136.53,546.2083" fill="#FEFFDD" style="stroke:#181818;stroke-width:0.5;"/><path d="M587.0544,546.2083 L587.0544,556.2083 L597.0544,556.2083 L587.0544,546.2083" fill="#FEFFDD" style="stroke:#181818;stroke-width:1;"/><text fill="#000000" font-family="sans-serif" font-size="13" lengthAdjust="spacing" textLength="397.7949" x="142.53" y="563.7766">Objective (USE-OPEN-RENDER): the central-panel view-tab row</text><text fill="#000000" font-family="sans-serif" font-size="13" lengthAdjust="spacing" textLength="342.6084" x="142.53" y="579.0872">shows an "Open render" button (UIC-OPEN-RENDER in</text><text fill="#000000" font-family="sans-serif" font-size="13" lengthAdjust="spacing" textLength="380.8594" x="142.53" y="594.3977">MCK-VIEWER-FULL). It is enabled only when the selected file</text><text fill="#000000" font-family="sans-serif" font-size="13" lengthAdjust="spacing" textLength="272.1875" x="142.53" y="609.7083">is a mockup whose slug has a React render</text><text fill="#000000" font-family="sans-serif" font-size="13" lengthAdjust="spacing" textLength="390.438" x="142.53" y="625.0188">(mockups/src/mockups/&lt;slug&gt;.tsx). Click starts the Vite dev</text><text fill="#000000" font-family="sans-serif" font-size="13" lengthAdjust="spacing" textLength="394.3037" x="142.53" y="640.3294">server in mockups/ if :4317 is not already serving, then opens</text><text fill="#000000" font-family="sans-serif" font-size="13" lengthAdjust="spacing" textLength="439.5244" x="142.53" y="655.6399">the OS browser at /mockup/&lt;slug&gt;. Realized by SEQ-OPEN-RENDER;</text><text fill="#000000" font-family="sans-serif" font-size="13" lengthAdjust="spacing" textLength="277.7354" x="142.53" y="670.9505">launcher owned by CMP-MOCKUP-LAUNCH.</text></g><g class="entity" data-qualified-name="GMN38" data-source-line="109" id="ent0039"><path d="M216.98,347.8983 L216.98,511.0038 L516.5977,511.0038 L516.5977,357.8983 L506.5977,347.8983 L216.98,347.8983" fill="#FEFFDD" style="stroke:#181818;stroke-width:0.5;"/><path d="M506.5977,347.8983 L506.5977,357.8983 L516.5977,357.8983 L506.5977,347.8983" fill="#FEFFDD" style="stroke:#181818;stroke-width:1;"/><text fill="#000000" font-family="sans-serif" font-size="13" lengthAdjust="spacing" textLength="241.6743" x="222.98" y="365.4666">Objective (USE-VIEW-OCL): selecting a</text><text fill="#000000" font-family="sans-serif" font-size="13" lengthAdjust="spacing" textLength="223.4248" x="222.98" y="380.7772">.mdd/constraints/*.ocl file shows a</text><text fill="#000000" font-family="sans-serif" font-size="13" lengthAdjust="spacing" textLength="248.0664" x="222.98" y="396.0877">Source | Diagram toggle on the canvas.</text><text fill="#000000" font-family="sans-serif" font-size="13" lengthAdjust="spacing" textLength="217.0454" x="222.98" y="411.3983">Source = raw OCL text (read-only,</text><text fill="#000000" font-family="sans-serif" font-size="13" lengthAdjust="spacing" textLength="259.3462" x="222.98" y="426.7088">@id/context/inv highlighted); Diagram =</text><text fill="#000000" font-family="sans-serif" font-size="13" lengthAdjust="spacing" textLength="278.6177" x="222.98" y="442.0194">a synthesized PlantUML constraints diagram</text><text fill="#000000" font-family="sans-serif" font-size="13" lengthAdjust="spacing" textLength="244.4546" x="222.98" y="457.3299">(context box + inv notes + @ref to the</text><text fill="#000000" font-family="sans-serif" font-size="13" lengthAdjust="spacing" textLength="270.9561" x="222.98" y="472.6405">DOM- it constrains) rasterized through the</text><text fill="#000000" font-family="sans-serif" font-size="13" lengthAdjust="spacing" textLength="214.0557" x="222.98" y="487.951">existing SVG pipeline. Realized by</text><text fill="#000000" font-family="sans-serif" font-size="13" lengthAdjust="spacing" textLength="99.7407" x="222.98" y="503.2616">SEQ-VIEW-OCL.</text></g><g class="entity" data-qualified-name="GMN41" data-source-line="122" id="ent0042"><path d="M174.63,714.1783 L174.63,800.731 L558.9508,800.731 L558.9508,724.1783 L548.9508,714.1783 L174.63,714.1783" fill="#FEFFDD" style="stroke:#181818;stroke-width:0.5;"/><path d="M548.9508,714.1783 L548.9508,724.1783 L558.9508,724.1783 L548.9508,714.1783" fill="#FEFFDD" style="stroke:#181818;stroke-width:1;"/><text fill="#000000" font-family="sans-serif" font-size="13" lengthAdjust="spacing" textLength="265.6748" x="180.63" y="731.7466">Objective: every label, actor, message and</text><text fill="#000000" font-family="sans-serif" font-size="13" lengthAdjust="spacing" textLength="271.1655" x="180.63" y="747.0572">note in a rendered diagram is visible in the</text><text fill="#000000" font-family="sans-serif" font-size="13" lengthAdjust="spacing" textLength="363.3208" x="180.63" y="762.3677">in-app canvas. Realized by SEQ-RENDER-DIAGRAM-PAGE</text><text fill="#000000" font-family="sans-serif" font-size="13" lengthAdjust="spacing" textLength="292.1191" x="180.63" y="777.6783">which must consult a populated font database</text><text fill="#000000" font-family="sans-serif" font-size="13" lengthAdjust="spacing" textLength="276.5991" x="180.63" y="792.9888">(DOM-FONT-DATABASE) before rasterizing.</text></g><g class="entity" data-qualified-name="GMN44" data-source-line="130" id="ent0045"><path d="M748.2,134.8683 L748.2,252.0421 L1143.6546,252.0421 L1143.6546,144.8683 L1133.6546,134.8683 L748.2,134.8683" fill="#FEFFDD" style="stroke:#181818;stroke-width:0.5;"/><path d="M1133.6546,134.8683 L1133.6546,144.8683 L1143.6546,144.8683 L1133.6546,134.8683" fill="#FEFFDD" style="stroke:#181818;stroke-width:1;"/><text fill="#000000" font-family="sans-serif" font-size="13" lengthAdjust="spacing" textLength="336.2163" x="754.2" y="152.4366">Objective (USE-FISHEYE-FOCUS): the canvas applies a</text><text fill="#000000" font-family="sans-serif" font-size="13" lengthAdjust="spacing" textLength="341.4341" x="754.2" y="167.7472">center-fixed fisheye over the rendered diagram &#8212; the</text><text fill="#000000" font-family="sans-serif" font-size="13" lengthAdjust="spacing" textLength="374.4546" x="754.2" y="183.0577">centre bulges/magnifies and content compresses smoothly</text><text fill="#000000" font-family="sans-serif" font-size="13" lengthAdjust="spacing" textLength="315.5674" x="754.2" y="198.3683">toward the edges. Layered ON TOP of the existing</text><text fill="#000000" font-family="sans-serif" font-size="13" lengthAdjust="spacing" textLength="344.1699" x="754.2" y="213.6788">scroll-to-zoom global zoom; drag still pans to bring a</text><text fill="#000000" font-family="sans-serif" font-size="13" lengthAdjust="spacing" textLength="284.7305" x="754.2" y="228.9894">region into the magnified centre. Realized by</text><text fill="#000000" font-family="sans-serif" font-size="13" lengthAdjust="spacing" textLength="144.8027" x="754.2" y="244.2999">SEQ-CANVAS-FISHEYE.</text></g><g class="entity" data-qualified-name="GMN47" data-source-line="140" id="ent0048"><path d="M770.39,43.4883 L770.39,99.4199 L1121.4618,99.4199 L1121.4618,53.4883 L1111.4618,43.4883 L770.39,43.4883" fill="#FEFFDD" style="stroke:#181818;stroke-width:0.5;"/><path d="M1111.4618,43.4883 L1111.4618,53.4883 L1121.4618,53.4883 L1111.4618,43.4883" fill="#FEFFDD" style="stroke:#181818;stroke-width:1;"/><text fill="#000000" font-family="sans-serif" font-size="13" lengthAdjust="spacing" textLength="330.0718" x="776.39" y="61.0566">The toolbar no longer has Reset / Zoom + / Zoom -</text><text fill="#000000" font-family="sans-serif" font-size="13" lengthAdjust="spacing" textLength="299.6982" x="776.39" y="76.3672">buttons. Zoom is scroll-only (global, at cursor);</text><text fill="#000000" font-family="sans-serif" font-size="13" lengthAdjust="spacing" textLength="300.8345" x="776.39" y="91.6777">the fisheye is the focus mechanism on top of it.</text></g><g class="entity" data-qualified-name="GMN50" data-source-line="146" id="ent0051"><path d="M757.18,530.8283 L757.18,602.0705 L1134.6771,602.0705 L1134.6771,540.8283 L1124.6771,530.8283 L757.18,530.8283" fill="#FEFFDD" style="stroke:#181818;stroke-width:0.5;"/><path d="M1124.6771,530.8283 L1124.6771,540.8283 L1134.6771,540.8283 L1124.6771,530.8283" fill="#FEFFDD" style="stroke:#181818;stroke-width:1;"/><text fill="#000000" font-family="sans-serif" font-size="13" lengthAdjust="spacing" textLength="356.4971" x="763.18" y="548.3966">Objective (USE-TOGGLE-PANELS): each side panel shows</text><text fill="#000000" font-family="sans-serif" font-size="13" lengthAdjust="spacing" textLength="322.3594" x="763.18" y="563.7072">an inner-edge chevron handle; clicking it collapses</text><text fill="#000000" font-family="sans-serif" font-size="13" lengthAdjust="spacing" textLength="271.8066" x="763.18" y="579.0177">the panel to a thin sliver, clicking the sliver</text><text fill="#000000" font-family="sans-serif" font-size="13" lengthAdjust="spacing" textLength="316.9321" x="763.18" y="594.3283">re-expands it. Realized by SEQ-PANEL-COLLAPSE.</text></g><g class="entity" data-qualified-name="GMN53" data-source-line="153" id="ent0054"><path d="M767.82,636.8983 L767.82,800.0038 L1124.0334,800.0038 L1124.0334,646.8983 L1114.0334,636.8983 L767.82,636.8983" fill="#FEFFDD" style="stroke:#181818;stroke-width:0.5;"/><path d="M1114.0334,636.8983 L1114.0334,646.8983 L1124.0334,646.8983 L1114.0334,636.8983" fill="#FEFFDD" style="stroke:#181818;stroke-width:1;"/><text fill="#000000" font-family="sans-serif" font-size="13" lengthAdjust="spacing" textLength="281.3662" x="773.82" y="654.4666">Objective (USE-VIEWER-THEMED): on startup</text><text fill="#000000" font-family="sans-serif" font-size="13" lengthAdjust="spacing" textLength="282.1597" x="773.82" y="669.7772">MddViewer registers a bundled Inter (UI) and</text><text fill="#000000" font-family="sans-serif" font-size="13" lengthAdjust="spacing" textLength="279.2017" x="773.82" y="685.0877">JetBrains Mono (monospace) FontDefinitions</text><text fill="#000000" font-family="sans-serif" font-size="13" lengthAdjust="spacing" textLength="276.3833" x="773.82" y="700.3983">set, then on every frame asks dark-light for</text><text fill="#000000" font-family="sans-serif" font-size="13" lengthAdjust="spacing" textLength="300.5806" x="773.82" y="715.7088">the OS appearance and applies catppuccin_egui</text><text fill="#000000" font-family="sans-serif" font-size="13" lengthAdjust="spacing" textLength="270.918" x="773.82" y="731.0194">Mocha (dark) or Latte (light) plus tightened</text><text fill="#000000" font-family="sans-serif" font-size="13" lengthAdjust="spacing" textLength="268.6963" x="773.82" y="746.3299">spacing.item_spacing and softened widget</text><text fill="#000000" font-family="sans-serif" font-size="13" lengthAdjust="spacing" textLength="304.3765" x="773.82" y="761.6405">rounding. No new SVG rendering, no new model</text><text fill="#000000" font-family="sans-serif" font-size="13" lengthAdjust="spacing" textLength="335.2134" x="773.82" y="776.951">state &#8212; chrome only. Realized by SEQ-APPLY-THEME</text><text fill="#000000" font-family="sans-serif" font-size="13" lengthAdjust="spacing" textLength="227.5127" x="773.82" y="792.2616">and owned by CMP-VIEWER-THEME.</text></g><g class="entity" data-qualified-name="GMN56" data-source-line="166" id="ent0057"><path d="M170.13,88.2783 L170.13,312.6259 L563.4454,312.6259 L563.4454,98.2783 L553.4454,88.2783 L170.13,88.2783" fill="#FEFFDD" style="stroke:#181818;stroke-width:0.5;"/><path d="M553.4454,88.2783 L553.4454,98.2783 L563.4454,98.2783 L553.4454,88.2783" fill="#FEFFDD" style="stroke:#181818;stroke-width:1;"/><text fill="#000000" font-family="sans-serif" font-size="13" lengthAdjust="spacing" textLength="315.3325" x="176.13" y="105.8466">Objective (USE-VIEW-DEPLOY): the left rail gains a</text><text fill="#000000" font-family="sans-serif" font-size="13" lengthAdjust="spacing" textLength="334.2612" x="176.13" y="121.1572">THIRD source. Today MddViewer::new() loads exactly</text><text fill="#000000" font-family="sans-serif" font-size="13" lengthAdjust="spacing" textLength="372.3154" x="176.13" y="136.4677">two &#8212; model_registry() (.mdd/models + .mdd/constraints)</text><text fill="#000000" font-family="sans-serif" font-size="13" lengthAdjust="spacing" textLength="315.6689" x="176.13" y="151.7783">and cycle_registry() (.mdd/cycles); .mdd/deploy is</text><text fill="#000000" font-family="sans-serif" font-size="13" lengthAdjust="spacing" textLength="355.4624" x="176.13" y="167.0888">reachable only as RenderTree::Deploy (an `mdd render`</text><text fill="#000000" font-family="sans-serif" font-size="13" lengthAdjust="spacing" textLength="294.0615" x="176.13" y="182.3994">rasterization target), so it never appears in the</text><text fill="#000000" font-family="sans-serif" font-size="13" lengthAdjust="spacing" textLength="311.2764" x="176.13" y="197.7099">interactive viewer. Objective: a dedicated DEPLOY</text><text fill="#000000" font-family="sans-serif" font-size="13" lengthAdjust="spacing" textLength="265.3892" x="176.13" y="213.0205">section, fed by Project::deploy_files(), lists</text><text fill="#000000" font-family="sans-serif" font-size="13" lengthAdjust="spacing" textLength="299.3872" x="176.13" y="228.331">.mdd/deploy/**/*.puml and paints the existing</text><text fill="#000000" font-family="sans-serif" font-size="13" lengthAdjust="spacing" textLength="345.0459" x="176.13" y="243.6416">.mdd/rendered/deploy/**/*.svg on the shared canvas.</text><text fill="#000000" font-family="sans-serif" font-size="13" lengthAdjust="spacing" textLength="305.5317" x="176.13" y="258.9521">It stays OUT of ModelRegistry: /mdd-deploy is a</text><text fill="#000000" font-family="sans-serif" font-size="13" lengthAdjust="spacing" textLength="301.374" x="176.13" y="274.2627">utility outside the parity gate, so /mdd-validate</text><text fill="#000000" font-family="sans-serif" font-size="13" lengthAdjust="spacing" textLength="363.4922" x="176.13" y="289.5732">and /mdd-review must continue to ignore .mdd/deploy/.</text><text fill="#000000" font-family="sans-serif" font-size="13" lengthAdjust="spacing" textLength="199.0498" x="176.13" y="304.8837">Realized by SEQ-VIEW-DEPLOY.</text></g><g class="entity" data-qualified-name="GMN59" data-source-line="183" id="ent0060"><path d="M718.05,286.9383 L718.05,495.9754 L1173.8073,495.9754 L1173.8073,296.9383 L1163.8073,286.9383 L718.05,286.9383" fill="#FEFFDD" style="stroke:#181818;stroke-width:0.5;"/><path d="M1163.8073,286.9383 L1163.8073,296.9383 L1173.8073,296.9383 L1163.8073,286.9383" fill="#FEFFDD" style="stroke:#181818;stroke-width:1;"/><text fill="#000000" font-family="sans-serif" font-size="13" lengthAdjust="spacing" textLength="346.1631" x="724.05" y="304.5066">Objective (USE-VIEW-PUML-SOURCE): the central panel</text><text fill="#000000" font-family="sans-serif" font-size="13" lengthAdjust="spacing" textLength="343.0908" x="724.05" y="319.8172">toggle row gains a "Source" button between "Diagram"</text><text fill="#000000" font-family="sans-serif" font-size="13" lengthAdjust="spacing" textLength="254.4648" x="724.05" y="335.1277">and "Diff". Selecting it puts the viewer in</text><text fill="#000000" font-family="sans-serif" font-size="13" lengthAdjust="spacing" textLength="324.4922" x="724.05" y="350.4383">View::Source, which paints the selected model file's</text><text fill="#000000" font-family="sans-serif" font-size="13" lengthAdjust="spacing" textLength="316.9829" x="724.05" y="365.7488">raw .puml text &#8212; read-only, scrollable, with @id /</text><text fill="#000000" font-family="sans-serif" font-size="13" lengthAdjust="spacing" textLength="346.7407" x="724.05" y="381.0594">@ref / @desc / @sec markers and @startuml/@enduml</text><text fill="#000000" font-family="sans-serif" font-size="13" lengthAdjust="spacing" textLength="338.8125" x="724.05" y="396.3699">directives highlighted &#8212; instead of the rendered SVG.</text><text fill="#000000" font-family="sans-serif" font-size="13" lengthAdjust="spacing" textLength="333.9438" x="724.05" y="411.6805">No new rendering: the text is read straight from disk</text><text fill="#000000" font-family="sans-serif" font-size="13" lengthAdjust="spacing" textLength="340.5264" x="724.05" y="426.991">(analogous to the OCL Source sub-mode, which never</text><text fill="#000000" font-family="sans-serif" font-size="13" lengthAdjust="spacing" textLength="434.7573" x="724.05" y="442.3016">depends on a rendered artifact &#8212; OCL-PUML-SOURCE-NO-RENDER).</text><text fill="#000000" font-family="sans-serif" font-size="13" lengthAdjust="spacing" textLength="333.3535" x="724.05" y="457.6121">Toggling back to "Diagram" repaints the SVG canvas.</text><text fill="#000000" font-family="sans-serif" font-size="13" lengthAdjust="spacing" textLength="324.3525" x="724.05" y="472.9227">Realized by SEQ-VIEW-PUML-SOURCE; state held in</text><text fill="#000000" font-family="sans-serif" font-size="13" lengthAdjust="spacing" textLength="172.8149" x="724.05" y="488.2332">DOM-PUML-SOURCE-VIEW.</text></g><!--link Dev to View--><g class="link" data-entity-1="ent0002" data-entity-2="ent0004" data-link-type="dependency" data-source-line="75" id="lnk15"><path d="M66.13,1298.5283 C82.5,1271.6283 106.54,1239.5183 136.53,1220.4583 C170.87,1198.6183 207.4595,1187.3908 246.4995,1180.5708" fill="none" id="Dev-to-View" style="stroke:#181818;stroke-width:1;"/><polygon fill="#181818" points="252.41,1179.5383,242.8559,1177.1467,247.4846,1180.3987,244.2326,1185.0274,252.41,1179.5383" style="stroke:#181818;stroke-width:1;"/></g><!--link Dev to Browse--><g class="link" data-entity-1="ent0002" data-entity-2="ent0005" data-link-type="dependency" data-source-line="76" id="lnk16"><path d="M75.84,1361.7583 C85.25,1365.5983 95.61,1369.2183 105.53,1371.4583 C231.96,1400.0383 592.93,1489.5183 688.05,1401.4583 C751.67,1342.5483 659.12,1076.0483 718.05,1012.4583 C757.87,969.4783 820.7831,963.9226 872.2331,967.3226" fill="none" id="Dev-to-Browse" style="stroke:#181818;stroke-width:1;"/><polygon fill="#181818" points="878.22,967.7183,869.5033,963.1335,873.2309,967.3886,868.9758,971.1161,878.22,967.7183" style="stroke:#181818;stroke-width:1;"/></g><!--link Dev to PanZoom--><g class="link" data-entity-1="ent0002" data-entity-2="ent0006" data-link-type="dependency" data-source-line="77" id="lnk17"><path d="M75.65,1349.8883 C195.93,1364.8183 599.93,1407.7483 688.05,1323.4583 C749.58,1264.5983 661.21,1004.8483 718.05,941.4583 C747.29,908.8483 786.9129,896.762 829.5929,893.022" fill="none" id="Dev-to-PanZoom" style="stroke:#181818;stroke-width:1;"/><polygon fill="#181818" points="835.57,892.4983,826.2552,889.2992,830.5891,892.9348,826.9535,897.2687,835.57,892.4983" style="stroke:#181818;stroke-width:1;"/></g><!--link Dev to Fisheye--><g class="link" data-entity-1="ent0002" data-entity-2="ent0007" data-link-type="dependency" data-source-line="78" id="lnk18"><path d="M60.53,1392.1983 C70.79,1411.3283 85.56,1431.5083 105.53,1442.4583 C219.05,1504.6683 592.78,1537.1083 688.05,1449.4583 C747.12,1395.0983 663.68,1148.5183 718.05,1089.4583 C753.48,1050.9583 806.0601,1041.8664 854.8201,1042.2064" fill="none" id="Dev-to-Fisheye" style="stroke:#181818;stroke-width:1;"/><polygon fill="#181818" points="860.82,1042.2483,851.8481,1038.1856,855.8201,1042.2134,851.7923,1046.1854,860.82,1042.2483" style="stroke:#181818;stroke-width:1;"/></g><!--link Dev to Panels--><g class="link" data-entity-1="ent0002" data-entity-2="ent0008" data-link-type="dependency" data-source-line="79" id="lnk19"><path d="M47.51,1392.2783 C56.28,1455.0183 75.26,1561.1983 105.53,1584.4583 C208.18,1663.3183 592.31,1671.5883 688.05,1584.4583 C740.54,1536.6783 670.25,1318.9283 718.05,1266.4583 C747.27,1234.3683 786.3754,1222.2793 828.6654,1218.3793" fill="none" id="Dev-to-Panels" style="stroke:#181818;stroke-width:1;"/><polygon fill="#181818" points="834.64,1217.8283,825.3107,1214.6717,829.6611,1218.2874,826.0454,1222.6379,834.64,1217.8283" style="stroke:#181818;stroke-width:1;"/></g><!--link Dev to Trace--><g class="link" data-entity-1="ent0002" data-entity-2="ent0009" data-link-type="dependency" data-source-line="80" id="lnk20"><path d="M75.76,1330.2483 C85.27,1326.3683 95.69,1322.4483 105.53,1319.4583 C157.94,1303.4783 211.8307,1291.7928 260.8807,1282.6928" fill="none" id="Dev-to-Trace" style="stroke:#181818;stroke-width:1;"/><polygon fill="#181818" points="266.78,1281.5983,257.2014,1279.3071,261.8639,1282.5103,258.6606,1287.1729,266.78,1281.5983" style="stroke:#181818;stroke-width:1;"/></g><!--link Dev to ViewOcl--><g class="link" data-entity-1="ent0002" data-entity-2="ent0010" data-link-type="dependency" data-source-line="81" id="lnk21"><path d="M41.45,1298.7383 C43.68,1228.8483 58.78,1097.7883 136.53,1027.4583 C170.79,996.4583 214.0234,984.8674 258.0734,980.9674" fill="none" id="Dev-to-ViewOcl" style="stroke:#181818;stroke-width:1;"/><polygon fill="#181818" points="264.05,980.4383,254.7323,977.2476,259.0695,980.8792,255.4378,985.2164,264.05,980.4383" style="stroke:#181818;stroke-width:1;"/></g><!--link Dev to ViewDeploy--><g class="link" data-entity-1="ent0002" data-entity-2="ent0011" data-link-type="dependency" data-source-line="82" id="lnk22"><path d="M46.19,1298.4983 C56.26,1202.4583 84.13,988.5583 136.53,940.4583 C165.34,913.9983 198.7769,901.0457 236.7269,893.7857" fill="none" id="Dev-to-ViewDeploy" style="stroke:#181818;stroke-width:1;"/><polygon fill="#181818" points="242.62,892.6583,233.0287,890.4206,237.7091,893.5978,234.5319,898.2781,242.62,892.6583" style="stroke:#181818;stroke-width:1;"/></g><!--link Dev to Themed--><g class="link" data-entity-1="ent0002" data-entity-2="ent0012" data-link-type="dependency" data-source-line="83" id="lnk23"><path d="M44.37,1392.2283 C49.83,1470.5283 65.44,1622.7783 105.53,1655.4583 C306.19,1819.0483 455.79,1769.8283 688.05,1655.4583 C815.53,1592.6783 895.0472,1438.3662 927.1472,1364.9162" fill="none" id="Dev-to-Themed" style="stroke:#181818;stroke-width:1;"/><polygon fill="#181818" points="929.55,1359.4183,922.2806,1366.0633,927.5477,1363.9999,929.6111,1369.2669,929.55,1359.4183" style="stroke:#181818;stroke-width:1;"/></g><!--link Dev to ViewSource--><g class="link" data-entity-1="ent0002" data-entity-2="ent0013" data-link-type="dependency" data-source-line="84" id="lnk24"><path d="M45.4,1392.3783 C51.24,1431.9883 66.37,1486.4383 105.53,1513.4583 C212.07,1586.9783 592.5,1600.7883 688.05,1513.4583 C742.89,1463.3283 668.37,1235.6983 718.05,1180.4583 C743.22,1152.4583 774.4649,1139.8834 811.4549,1133.9834" fill="none" id="Dev-to-ViewSource" style="stroke:#181818;stroke-width:1;"/><polygon fill="#181818" points="817.38,1133.0383,807.8623,1130.5058,812.4424,1133.8258,809.1224,1138.406,817.38,1133.0383" style="stroke:#181818;stroke-width:1;"/></g><!--link Dev to OpenRender--><g class="link" data-entity-1="ent0002" data-entity-2="ent0014" data-link-type="dependency" data-source-line="85" id="lnk25"><path d="M49.53,1298.5783 C60.29,1248.7383 84.61,1171.1983 136.53,1127.4583 C167.78,1101.1183 203.6013,1087.9587 242.8613,1080.2887" fill="none" id="Dev-to-OpenRender" style="stroke:#181818;stroke-width:1;"/><polygon fill="#181818" points="248.75,1079.1383,239.15,1076.9382,243.8428,1080.097,240.6839,1084.7897,248.75,1079.1383" style="stroke:#181818;stroke-width:1;"/></g><!--link View to Browse--><g class="link" data-entity-1="ent0004" data-entity-2="ent0005" data-link-type="dependency" data-source-line="87" id="lnk26"><path d="M473.1,1158.9583 C553.8,1147.3783 656.52,1127.6683 688.05,1099.4583 C718.53,1072.1783 686.66,1038.6783 718.05,1012.4583 C760.49,977.0083 817.5707,969.6062 866.4507,970.3562" fill="none" id="View-to-Browse" style="stroke:#181818;stroke-width:1;stroke-dasharray:7,7;"/><polygon fill="#181818" points="872.45,970.4483,863.5124,966.3107,867.4506,970.3716,863.3897,974.3097,872.45,970.4483" style="stroke:#181818;stroke-width:1;"/><text fill="#000000" font-family="sans-serif" font-size="13" lengthAdjust="spacing" textLength="59.3569" x="628.05" y="1096.0266">&#171;include&#187;</text></g><!--link View to PanZoom--><g class="link" data-entity-1="ent0004" data-entity-2="ent0006" data-link-type="dependency" data-source-line="88" id="lnk27"><path d="M475.34,1159.9583 C515.82,1151.9683 560.79,1138.4183 597.05,1115.4583 C614.94,1104.1283 610.67,1091.8683 627.05,1078.4583 C650.73,1059.0583 668.73,1070.1983 688.05,1046.4583 C718.68,1008.8083 682.21,974.1783 718.05,941.4583 C748.99,913.2083 786.5202,901.5521 827.1502,896.8221" fill="none" id="View-to-PanZoom" style="stroke:#181818;stroke-width:1;stroke-dasharray:7,7;"/><polygon fill="#181818" points="833.11,896.1283,823.7078,893.1958,828.1435,896.7065,824.6329,901.1422,833.11,896.1283" style="stroke:#181818;stroke-width:1;"/><text fill="#000000" font-family="sans-serif" font-size="13" lengthAdjust="spacing" textLength="57.1924" x="629.05" y="1043.0266">&#171;extend&#187;</text></g><!--link View to Fisheye--><g class="link" data-entity-1="ent0004" data-entity-2="ent0007" data-link-type="dependency" data-source-line="89" id="lnk28"><path d="M452.6,1190.2183 C521.94,1200.5783 619.41,1203.2483 688.05,1156.4583 C715.01,1138.0783 692.23,1109.3983 718.05,1089.4583 C756.13,1060.0283 802.6393,1050.2218 847.5493,1047.7218" fill="none" id="View-to-Fisheye" style="stroke:#181818;stroke-width:1;stroke-dasharray:7,7;"/><polygon fill="#181818" points="853.54,1047.3883,844.3316,1043.8947,848.5477,1047.6662,844.7762,1051.8823,853.54,1047.3883" style="stroke:#181818;stroke-width:1;"/><text fill="#000000" font-family="sans-serif" font-size="13" lengthAdjust="spacing" textLength="57.1924" x="629.05" y="1153.0266">&#171;extend&#187;</text></g><!--link View to Panels--><g class="link" data-entity-1="ent0004" data-entity-2="ent0008" data-link-type="dependency" data-source-line="90" id="lnk29"><path d="M474.6,1183.2883 C514.44,1190.4983 559.17,1202.0283 597.05,1220.4583 C612.66,1228.0483 610.73,1239.5483 627.05,1245.4583 C709.1,1275.1583 804.9109,1261.3202 870.8309,1245.2402" fill="none" id="View-to-Panels" style="stroke:#181818;stroke-width:1;stroke-dasharray:7,7;"/><polygon fill="#181818" points="876.66,1243.8183,866.9684,1242.0651,871.8024,1245.0032,868.8643,1249.8372,876.66,1243.8183" style="stroke:#181818;stroke-width:1;"/><text fill="#000000" font-family="sans-serif" font-size="13" lengthAdjust="spacing" textLength="57.1924" x="629.05" y="1242.0266">&#171;extend&#187;</text></g><!--link View to Themed--><g class="link" data-entity-1="ent0004" data-entity-2="ent0012" data-link-type="dependency" data-source-line="91" id="lnk30"><path d="M485.11,1175.8483 C524.07,1182.3783 565.5,1195.3883 597.05,1220.4583 C621.64,1239.9983 601.56,1266.0983 627.05,1284.4583 C680.81,1323.1783 747.4601,1333.8136 809.7401,1334.1736" fill="none" id="View-to-Themed" style="stroke:#181818;stroke-width:1;stroke-dasharray:7,7;"/><polygon fill="#181818" points="815.74,1334.2083,806.7633,1330.1563,810.7401,1334.1794,806.717,1338.1562,815.74,1334.2083" style="stroke:#181818;stroke-width:1;"/><text fill="#000000" font-family="sans-serif" font-size="13" lengthAdjust="spacing" textLength="59.3569" x="628.05" y="1281.0266">&#171;include&#187;</text></g><!--link View to ViewSource--><g class="link" data-entity-1="ent0004" data-entity-2="ent0013" data-link-type="dependency" data-source-line="92" id="lnk31"><path d="M447.33,1191.3783 C527.84,1209.8583 646.25,1231.9483 688.05,1213.4583 C706.18,1205.4383 700.79,1190.2083 718.05,1180.4583 C750.13,1162.3283 782.4474,1152.4851 818.2974,1145.9451" fill="none" id="View-to-ViewSource" style="stroke:#181818;stroke-width:1;stroke-dasharray:7,7;"/><polygon fill="#181818" points="824.2,1144.8683,814.6283,1142.5484,819.2812,1145.7656,816.064,1150.4185,824.2,1144.8683" style="stroke:#181818;stroke-width:1;"/><text fill="#000000" font-family="sans-serif" font-size="13" lengthAdjust="spacing" textLength="57.1924" x="629.05" y="1210.0266">&#171;extend&#187;</text></g><!--link ViewOcl to PanZoom--><g class="link" data-entity-1="ent0010" data-entity-2="ent0006" data-link-type="dependency" data-source-line="93" id="lnk32"><path d="M456.7,970.3583 C563.26,954.6683 735.1241,929.3527 844.2141,913.2827" fill="none" id="ViewOcl-to-PanZoom" style="stroke:#181818;stroke-width:1;stroke-dasharray:7,7;"/><polygon fill="#181818" points="850.15,912.4083,840.6631,909.7626,845.2034,913.137,841.829,917.6772,850.15,912.4083" style="stroke:#181818;stroke-width:1;"/><text fill="#000000" font-family="sans-serif" font-size="13" lengthAdjust="spacing" textLength="57.1924" x="629.05" y="934.9766">&#171;extend&#187;</text></g><!--link ViewDeploy to PanZoom--><g class="link" data-entity-1="ent0011" data-entity-2="ent0006" data-link-type="dependency" data-source-line="94" id="lnk33"><path d="M491.95,889.8183 C593.33,891.7483 729.3311,894.3436 827.1811,896.2136" fill="none" id="ViewDeploy-to-PanZoom" style="stroke:#181818;stroke-width:1;stroke-dasharray:7,7;"/><polygon fill="#181818" points="833.18,896.3283,824.2581,892.157,828.1809,896.2327,824.1052,900.1556,833.18,896.3283" style="stroke:#181818;stroke-width:1;"/><text fill="#000000" font-family="sans-serif" font-size="13" lengthAdjust="spacing" textLength="57.1924" x="629.05" y="889.1966">&#171;extend&#187;</text></g><!--link OpenRender to Browse--><g class="link" data-entity-1="ent0014" data-entity-2="ent0005" data-link-type="dependency" data-source-line="95" id="lnk34"><path d="M457.27,1052.9883 C507.13,1042.9983 570.41,1030.8283 627.05,1021.4583 C712.38,1007.3283 805.1778,994.9141 869.6778,986.7241" fill="none" id="OpenRender-to-Browse" style="stroke:#181818;stroke-width:1;stroke-dasharray:7,7;"/><polygon fill="#181818" points="875.63,985.9683,866.1978,983.1338,870.6698,986.5981,867.2055,991.0701,875.63,985.9683" style="stroke:#181818;stroke-width:1;"/><text fill="#000000" font-family="sans-serif" font-size="13" lengthAdjust="spacing" textLength="59.3569" x="628.05" y="1008.4466">&#171;include&#187;</text></g><!--link OpenRender to GMN35--><g class="link" data-entity-1="ent0014" data-entity-2="ent0036" data-link-type="association" data-source-line="98" id="lnk37"><path d="M247.56,1078.1783 C192.82,1073.9783 133.96,1057.1983 106.03,1008.9583 C73.17,952.2283 73.17,770.6783 106.03,713.9583 C114.06,700.0783 124.36,688.0983 136.2,677.7483" fill="none" id="OpenRender-GMN35" style="stroke:#181818;stroke-width:1;stroke-dasharray:7,7;"/></g><!--link ViewOcl to GMN38--><g class="link" data-entity-1="ent0010" data-entity-2="ent0039" data-link-type="association" data-source-line="109" id="lnk40"><path d="M269.16,992.0883 C209.05,991.2583 137.64,977.5483 106.03,922.9583 C85.03,886.7083 85.03,582.1983 106.03,545.9583 C129.88,504.7583 172.51,478.0783 216.49,460.8183" fill="none" id="ViewOcl-GMN38" style="stroke:#181818;stroke-width:1;stroke-dasharray:7,7;"/></g><!--link View to GMN41--><g class="link" data-entity-1="ent0004" data-entity-2="ent0042" data-link-type="association" data-source-line="122" id="lnk43"><path d="M246.78,1172.4483 C192.39,1165.6783 134.08,1146.3883 106.03,1097.9583 C78.74,1050.8383 78.74,900.0683 106.03,852.9583 C121.73,825.8383 146.27,806.3283 174.15,792.3283" fill="none" id="View-GMN41" style="stroke:#181818;stroke-width:1;stroke-dasharray:7,7;"/></g><!--link Fisheye to GMN44--><g class="link" data-entity-1="ent0007" data-entity-2="ent0045" data-link-type="association" data-source-line="130" id="lnk46"><path d="M864.2,1062.1283 C796.44,1065.7983 703.96,1057.6983 657.55,995.9583 C610.21,932.9883 611.23,350.6683 657.55,286.9583 C679.91,256.1983 712.62,235.3583 748.05,221.2783" fill="none" id="Fisheye-GMN44" style="stroke:#181818;stroke-width:1;stroke-dasharray:7,7;"/></g><!--link PanZoom to GMN47--><g class="link" data-entity-1="ent0006" data-entity-2="ent0048" data-link-type="association" data-source-line="140" id="lnk49"><path d="M836.73,891.4383 C773.29,881.0783 698.1,856.6483 657.55,799.9583 C614.57,739.8483 613.15,194.0183 657.55,134.9583 C684.43,99.1983 726.48,80.4383 770.24,71.2483" fill="none" id="PanZoom-GMN47" style="stroke:#181818;stroke-width:1;stroke-dasharray:7,7;"/></g><!--link Panels to GMN50--><g class="link" data-entity-1="ent0008" data-entity-2="ent0051" data-link-type="association" data-source-line="146" id="lnk52"><path d="M840.27,1233.1083 C776.08,1232.4983 698.79,1218.8083 657.55,1163.9583 C587.18,1070.3483 587.18,730.5683 657.55,636.9583 C681.78,604.7183 718.15,585.5983 756.96,574.5983" fill="none" id="Panels-GMN50" style="stroke:#181818;stroke-width:1;stroke-dasharray:7,7;"/></g><!--link Themed to GMN53--><g class="link" data-entity-1="ent0012" data-entity-2="ent0054" data-link-type="association" data-source-line="153" id="lnk55"><path d="M807.82,1322.3083 C751.83,1314.8283 692.29,1295.1683 657.55,1248.9583 C604.67,1178.6083 610.27,927.1783 657.55,852.9583 C683.15,812.7683 724.23,784.3883 767.46,764.4283" fill="none" id="Themed-GMN53" style="stroke:#181818;stroke-width:1;stroke-dasharray:7,7;"/></g><!--link ViewDeploy to GMN56--><g class="link" data-entity-1="ent0011" data-entity-2="ent0057" data-link-type="association" data-source-line="166" id="lnk58"><path d="M243.35,881.1583 C190.14,871.1783 133.81,848.9383 106.03,800.9583 C80.8,757.3983 80.8,391.5083 106.03,347.9583 C121.67,320.9483 144.3,298.4983 169.79,279.9583" fill="none" id="ViewDeploy-GMN56" style="stroke:#181818;stroke-width:1;stroke-dasharray:7,7;"/></g><!--link ViewSource to GMN59--><g class="link" data-entity-1="ent0013" data-entity-2="ent0060" data-link-type="association" data-source-line="183" id="lnk61"><path d="M821.37,1142.9983 C761.53,1139.2383 694.87,1122.6083 657.55,1072.9583 C585.18,976.6783 593.56,632.9983 657.55,530.9583 C672.91,506.4483 693.94,486.1483 717.68,469.3483" fill="none" id="ViewSource-GMN59" style="stroke:#181818;stroke-width:1;stroke-dasharray:7,7;"/></g><?plantuml-src jLdTSXkt5RxNKs3K2vC9bqocdNP2EHxB96MhaKHMejocana7t0L9HCi5Px4KfRITwKFq2Via_Su1mCMIj9sB-iOM5y31-VtE3-o3BjQob2kniIgLLeb_d0ZnHgOFYz9iYcnWSbE-VBdIrkfYyUgL-Drttun6ttrpR9Dwgaf9MouktlnnyEt9lqxiZdgQIsk_56spMfj25TKNecyhMNqflPGghMInoByKVPbMfln2jF5lfLEzbbzCyuN9_h-AUI5UwwnrVpTAtb-E_feCBy_VtfvVtxLf8LCsFLpgYDEXUbIvMQjIF6grjKB2QaMcIfM95HZCHQRbWjWrXQYMIkWYaUkrI6NnAAtOwcefx5Ak5KuMcQZ0bSZLGizorJrjHonTNDwz6_s8_yU3-psM6aiDbkOcHUHQkfli8SmS_0M67hN4hnIXeSfahf_0yLpRfNfMO5HMOYKNXPvh72U-FSEqlLJCAqLMgIpHJms8mD2LsSeou_qgMoZR4RbyPbruwMrQcZmNYzpCP2v-DMRLb78wVllsQfHCpcz6LtjIDfOQKgOWATSiPodK4rmkSppdQbw9w_4G1o1_0MEmZh5IwiNIBud1-6Ow-jlKxs2j531J0QsG46A9GxdgK3JcKg_WMBNrCfWFecLgXKrDKTXHneEh8-w3hmq1hCeHwUG1eclIdDHfuPmQ6ftht6dRUPUkWYPZ1vBYpcpALFM6thILMG0r-lup7CnidKPAkHMudVsi8y9sjow5VIwmoUfVOR19ZiYzlxwAcB71TOu8EXnDhiO_7WiLNjWJ5wRghR8ioTGwDy_2_RSY3_8tMD7gOaFFhVI--ghtLNUzMULj64RyZ1NMny_mBsqhS8klKWn7myl1-NGq52_ShIyWhyvnNrffLXkyMbiSjOYlP_ZcJEKvJaiIVbFfN5VFWd1h3cGKu_lftULmvBIzAH7MrSlabPdzGkGU5KKKxLy0_xlYZar8le5aWoLMboQRvgMIsNEoGmMMA_ng26WV5xiuaQjWugwOqWSlWoPMf-ykRuUi0MWJTohBQzPPM-QcM5YTAQRaGAW4fC2Apxi0I9zJE5RuV1QRW5pEYWBcGZGHE8Xhed7hztPmZxFUeynrHjcFYFANKX5Jo8aQGUueaFGYjkMXyunka-cxqVLeUEW-kwL31sBXY0kdXdHP6kWiOqJAn0oYYe6irkjDccg2lrnLOBLrRTAb5DkbSeeUtv5ACra-TCILf1syb1C-TCHQfmyCNb0husb9TfdZfd0OMAwGZR2XtH6p3I559YvPQtEWqVsbWtJIq9zLzORYo4AVXU7b58hjPNe-Ppy6ND8-Q-O0KtBgIY4srp8bj_eQcyk254evZBxyzz__WV7X_b0mW9qOcabWirfiDEmvbvkyWlSCIcDjiivbXHj1JtD1CTE59BjxjPa2yK04YShT-xS1Nae9-YK0eIGrROhARDAbEePq4s15SZU-lnsCZg10jDgm97b7ZKmxp66TUPaSEExIAGEYIrqUtHpO2KYOObT1Hol3HmE-jKYjGwYv7JPh3wAKpP286FgxWM2fc9RdAyHjI9kCkCHtGahh-9GcaR05GvHZlWNbz5wNQjvZJVHU8u2HKSi7LRfC_ng5OrbXV-yrRg1pcIuTibYnXFkn2wgiVUPu9elFKCEGR44kCEg0nbkjAwvrMPhIVI2StyiByqt1C28PwMQRYhtGb1bxGxDWiUmFSDG24Usq01uwpYPEKN093c_E3vHGEJ8oRH-Q3ZAUZ6wIsz7DS7JRz8re8NQBJaXhAvC-RDPUhpj7s2uDMX6RRnR8pOI7juhmsl7OGJU1gELa-cAyHYoxxoz8t0eeQHgcJqBMLzkaaZD4r_QCrpsii9Kys30pLhn7N2A-7i5GIGZNMXkKLd_u_RT_GdQQKug6NWfJ1UWNvQOeo7naTeXNs00UCzm68W9fgUUezrwIMAySvdk62P-q9GVBQjnooY3K9nN0IavAf_Tno549fm6KW0btRoGJl9mmZ9mquKBJPxqqLUkAS8oouKp1BrG7fDRvnh7BfUJNNEWzLQ5GTDxWwo-gMGLVo3fbD2Dc1d4DuVNQeJfKPJgLPD325Cc2_t9vEsIxGE4kgM4scUCsioLzHl0EDY0KUqq0uJbOzOWgGQG95bmAXBAd1fONjeb3CyNowAZq0IcoJMLC3hGbpLEwfGGaovAAPIfgkI06BDZkIQMhd1CLIyunLHVWx6AjNKdHFZdXaXKXxWfK3mccE3bnlLeT8wTa9_mIKRjpSb9tZATrRZpbBYcqyAVlzIwWQrZxgMZvDkJyPjXeGzfy4nsAYRnXrurKPtcR-nnld20EoGPEBPnLw2xN1z373dAsN93Fk9jmuE_u7DEu8DzZq7VTId0_td_X_ext3tn387g-7OZTCbo2F-CpbuLTGtbUeikXxyTA908av-B1dPlIxmDbDbsSvNFU1ejv_TPQ7AVv0O4Z1J28r06o5nO_5JVZgQy_NU3Kv8TCwk063f1CD8ebN567K6SlS7ug6jMDa9lA-DXpbqsPui55kzXnAi0TpSWB-NcuhnUtBQR7wEsmtIS2vxMW6R2SqTJ3g2D5Xsvv6phw4mgG97dbt3Vyy4uQVWQ72x-3GqNhv2lXftE1c31PDFxjJR0xu1GLx_2oXayHpoUin6utS2dw271TfFacKmZmtQfdcfUXKHoELxq87rbr0draqN7xiMjhvW-FGmsVPitfvUDxQZLyN04dIAp8Z0RcNr656AbEr7bF79GT_SyaVPpswQ3mZkTyxJHauTRzvI2cY18IPwu7FuG-vUB-wghT5PUS_bNXyZNNrNj9c-SiENcwjdMDyycY1djRllpesJBjXRzzjL3P9zmyeBedBbX2eKAokL85cJ8SfLAbJqNBVhL2MqEXvoCC13vViO3Vd2S7QBtkHd-9TNK60hb4xRd4KRCjtAR1zIIv7Wz-k9yaL-VtDuDttHC8Ixoe0pFNmBbduzsKfHzA8Ygqi8zRpWYKqL_JQ8NR1szfxFA-_4_Hd9mqXopTUkFtZGcAQDLz0FPGoUyBf9uk7lUg-733zzZvsqSjPFbGTCtC4zf0eapQiVYR6WpVx63ZS7oTKFcv8sFRTGD7RJzQnyNIRrPFw3X9MTJjhVLQ8ScfXXL9QjWnQFWprebDqnVK-li1IyUDcJjYXSvSBdXQWCrCWiSs1ntMRaGJ-ZGAbNXiUkXipi_2N3QPdByTuT1sgTEbM6siqmdwOLotDkjDpbcL4XrQVo20v9gbHGgy6DzCa-7vzFpD-TsexIlXdHgXi4_eeIv5zhoqERpjnmCyI9LJsKZUU7GMQoXmZtQYlb_t1qjg6FA5ihrwSEl6j6us6urhxSgOQfcJXVSdjbrnvIUsunin7Kz25nxSXR24QxS4vG3NTD4izyoLScxy0uorv9kpCeGaJPkedobyUnxup3p_nxnlS7xp_lmkAF0Jkg_BnkFbEO7ghR8Am2KuzNmT_aXmne4yfESlS40l9EDtoudO8THBDwKrPVlCGs8maewQ93XwkfI5jcxcRzR4dgu-pRkhHlVSfZaDHrH9k7DToZeS8pXfpAk1ieybDuPKpvsvVfXimD3WH-MUVqS7zf3uYM2pEIuFFJITuRJ57zc0IHYlGvw386G-ay7uwkfySlSfM-rAnoDWNWy3-wG-DoLPKwhDilUkUdLJInwax8tSaAJR7b_sfcr8duMXMPfgYmj4n53DTQ6fchQS7gkGxmgFNMxK9-s3cmuckHjmcB9EXd5rJ5scZ-HqLrD_e54SiSupnnRHQLDFu0QDBIRPzYqsvuc2jU97VbsQ_tq8yx_6P72hOUYABEA7WLrnumOrXERHiCQFRxYf8ShyM4cu4Stz3WrvFfbS_UZCmDwLDPDsRARFP8LTDt8iRVitWtxzLiFZ-WLRZG33pRbT8z4LKvF9vzeD-dr8rceZlcc4g9wGPHoYRGrBo39_21DkR7Gl2loPSkT-WT3sel9a_F0SVxR8uz4i6s7FKO6mvFaVemNZ31bWMYhLx_kYjoNzkuKppizqpkSKwHudP0cJjdcwZa1rmtFdOJPEWpWYdI9TBzUDqsuyL77QPUVsmvIvC-6aD7IWttT2VE3klTLsRoasb4xxBo-icsZS62M4t_QYiPIKLUgA2eKotF7PqZiBkKlZaQ7VU1_IpXt22utPLBldZUWHvl1XmbiqVfe8nG1Otr2Q47fHK89ll53Wt7v8H0xx6PVVzR77N3wUalSFHz2SaBa0HPqT0a6SEfAxLcIcggq2LftwalBKotbA8-xJ-2qAZhJUU8Fjdekmc_ZizntPZY-J8jiU6Rc_O4z7xHlDk2dAZWx2_VmMzR3eKLrCLMhFZNtf_y-Emd7c-33ys9l7hYoY0JXEtknDh9sQcU6Fpwkf-fE5pCt2R6nuFgW7wC9kPWaf8oYBmvFOLEYFCdvWZmhPtHCYiGigiTcJct7eIOdRwVviVsVKW-b-53j7lJEwvCmZ_LBbcRCubROn5tIYTkJ_0G00?></g></svg>