<svg xmlns="http://www.w3.org/2000/svg" xmlns:xlink="http://www.w3.org/1999/xlink" contentStyleType="text/css" data-diagram-type="DESCRIPTION" height="331px" preserveAspectRatio="none" style="width:1158px;height:331px;background:#FFFFFF;" version="1.1" viewBox="0 0 1158 331" width="1158px" zoomAndPan="magnify"><?plantuml 1.2026.3?><defs/><g><g class="title" data-source-line="40"><text fill="#000000" font-family="sans-serif" font-size="14" font-weight="700" lengthAdjust="spacing" textLength="349.9111" x="400.7106" y="23.5352">Agent session bootstrap &#8212; use cases (objective)</text></g><!--cluster mdd toolchain--><g class="cluster" data-qualified-name="mdd toolchain" data-source-line="46" id="ent0003"><rect fill="none" height="123" rx="2.5" ry="2.5" style="stroke:#181818;stroke-width:1;" width="768.32" x="323.88" y="131.1083"/><text fill="#000000" font-family="sans-serif" font-size="14" font-weight="700" lengthAdjust="spacing" textLength="103.4756" x="656.3022" y="146.6434">mdd toolchain</text></g><!--entity Brief--><g class="entity" data-qualified-name="mdd toolchain.Brief" data-source-line="47" id="ent0004"><ellipse cx="431.053" cy="202.1035" fill="#F1F1F1" rx="91.163" ry="35.5052" style="stroke:#181818;stroke-width:0.5;"/><text fill="#000000" font-family="sans-serif" font-size="14" lengthAdjust="spacing" textLength="134.1621" x="363.9719" y="193.9992">Receive map TOC +</text><text fill="#000000" font-family="sans-serif" font-size="14" lengthAdjust="spacing" textLength="118.624" x="371.741" y="210.4875">freshness brief at</text><text fill="#000000" font-family="sans-serif" font-size="14" lengthAdjust="spacing" textLength="86.0439" x="388.031" y="226.9758">session start</text></g><!--entity First--><g class="entity" data-qualified-name="mdd toolchain.First" data-source-line="48" id="ent0005"><ellipse cx="949.6585" cy="202.1073" fill="#F1F1F1" rx="126.5385" ry="36.449" style="stroke:#181818;stroke-width:0.5;"/><text fill="#000000" font-family="sans-serif" font-size="14" lengthAdjust="spacing" textLength="146.3984" x="876.4593" y="188.1506">Follow diagrams-first</text><text fill="#000000" font-family="sans-serif" font-size="14" lengthAdjust="spacing" textLength="92.6338" x="903.3416" y="204.6388">reading order</text><text fill="#000000" font-family="sans-serif" font-size="14" lengthAdjust="spacing" textLength="182.6904" x="858.3133" y="221.1271">(fresh: read / stale: remap)</text></g><!--entity Agent--><g class="entity" data-qualified-name="Agent" data-source-line="44" id="ent0002"><ellipse cx="86.0488" cy="249.6066" fill="#90EE90" rx="8" ry="8" style="stroke:#181818;stroke-width:0.5;"/><path d="M86.0488,257.6066 L86.0488,284.6066 M73.0488,265.6066 L99.0488,265.6066 M86.0488,284.6066 L73.0488,299.6066 M86.0488,284.6066 L99.0488,299.6066" fill="none" style="stroke:#181818;stroke-width:0.5;"/><text fill="#000000" font-family="sans-serif" font-size="14" lengthAdjust="spacing" textLength="160.0977" x="6" y="314.6417">Agent (Claude / Codex)</text><text fill="#000000" font-family="sans-serif" font-size="14" font-style="italic" lengthAdjust="spacing" textLength="67.5254" x="52.2861" y="238.1534">&#171;missing&#187;</text></g><g class="entity" data-qualified-name="GMN9" data-source-line="56" id="ent0010"><path d="M227.1,43.4883 L227.1,114.7305 A0,0 0 0 0 227.1,114.7305 L427.05,114.7305 L431.05,166.5583 L435.05,114.7305 L634.996,114.7305 A0,0 0 0 0 634.996,114.7305 L634.996,53.4883 L624.996,43.4883 L227.1,43.4883 A0,0 0 0 0 227.1,43.4883" fill="#FEFFDD" style="stroke:#181818;stroke-width:0.5;"/><path d="M624.996,43.4883 L624.996,53.4883 L634.996,53.4883 L624.996,43.4883" fill="#FEFFDD" style="stroke:#181818;stroke-width:0.5;"/><text fill="#000000" font-family="sans-serif" font-size="13" lengthAdjust="spacing" textLength="365.8853" x="233.1" y="61.0566">USE-SESSION-BRIEF: SessionStart hook -&gt; `mdd context`</text><text fill="#000000" font-family="sans-serif" font-size="13" lengthAdjust="spacing" textLength="335.8037" x="233.1" y="76.3672">prints the whole-map TOC + the map-status verdict.</text><text fill="#000000" font-family="sans-serif" font-size="13" lengthAdjust="spacing" textLength="386.896" x="233.1" y="91.6777">Realized by SEQ-SESSION-BRIEF; owned by CMP-SESSION-CLI</text><text fill="#000000" font-family="sans-serif" font-size="13" lengthAdjust="spacing" textLength="124.5347" x="233.1" y="106.9883">+ CMP-INIT-HOOK.</text></g><g class="entity" data-qualified-name="GMN12" data-source-line="63" id="ent0013"><path d="M755.99,43.4883 L755.99,114.7305 A0,0 0 0 0 755.99,114.7305 L945.66,114.7305 L949.66,165.5983 L953.66,114.7305 L1143.3323,114.7305 A0,0 0 0 0 1143.3323,114.7305 L1143.3323,53.4883 L1133.3323,43.4883 L755.99,43.4883 A0,0 0 0 0 755.99,43.4883" fill="#FEFFDD" style="stroke:#181818;stroke-width:0.5;"/><path d="M1133.3323,43.4883 L1133.3323,53.4883 L1143.3323,53.4883 L1133.3323,43.4883" fill="#FEFFDD" style="stroke:#181818;stroke-width:0.5;"/><text fill="#000000" font-family="sans-serif" font-size="13" lengthAdjust="spacing" textLength="351.127" x="761.99" y="61.0566">USE-DIAGRAMS-FIRST: the entrypoint directive encodes</text><text fill="#000000" font-family="sans-serif" font-size="13" lengthAdjust="spacing" textLength="366.3423" x="761.99" y="76.3672">fresh -&gt; read + follow source_links / stale -&gt; /mdd-map</text><text fill="#000000" font-family="sans-serif" font-size="13" lengthAdjust="spacing" textLength="356.2622" x="761.99" y="91.6777">the drifted area first. Realized by SEQ-DIAGRAMS-FIRST;</text><text fill="#000000" font-family="sans-serif" font-size="13" lengthAdjust="spacing" textLength="256.5278" x="761.99" y="106.9883">owned by CMP-ENTRYPOINT-DIRECTIVE.</text></g><!--link Agent to Brief--><g class="link" data-entity-1="ent0002" data-entity-2="ent0004" data-link-type="dependency" data-source-line="51" id="lnk6"><path d="M166.17,255.1983 C221.17,244.1283 288.3577,230.6111 343.6577,219.4911" fill="none" id="Agent-to-Brief" style="stroke:#181818;stroke-width:1;"/><polygon fill="#181818" points="349.54,218.3083,339.9281,216.161,344.6381,219.294,341.5052,224.004,349.54,218.3083" style="stroke:#181818;stroke-width:1;"/></g><!--link Agent to First--><g class="link" data-entity-1="ent0002" data-entity-2="ent0005" data-link-type="dependency" data-source-line="52" id="lnk7"><path d="M166.21,272.2183 C272.94,272.9383 468.78,271.4983 634.99,255.1083 C705.76,248.1283 778.785,235.8858 839.765,224.3258" fill="none" id="Agent-to-First" style="stroke:#181818;stroke-width:1;"/><polygon fill="#181818" points="845.66,223.2083,836.0725,220.9546,840.7475,224.1395,837.5625,228.8146,845.66,223.2083" style="stroke:#181818;stroke-width:1;"/></g><!--link Brief to First--><g class="link" data-entity-1="ent0004" data-entity-2="ent0005" data-link-type="dependency" data-source-line="53" id="lnk8"><path d="M522.63,202.1083 C605.82,202.1083 723.92,202.1083 816.75,202.1083" fill="none" id="Brief-to-First" style="stroke:#181818;stroke-width:1;stroke-dasharray:7,7;"/><polygon fill="#181818" points="822.75,202.1083,813.75,198.1083,817.75,202.1083,813.75,206.1083,822.75,202.1083" style="stroke:#181818;stroke-width:1;"/><text fill="#000000" font-family="sans-serif" font-size="13" lengthAdjust="spacing" textLength="59.3569" x="665.99" y="198.6766">&#171;include&#187;</text></g><?plantuml-src jLNjZXet5Fq_Jt55VWIq2soagb98j2fBXWHbiwGCgLHffSRCUC1bnXxPPWcjAlKX-eHzaXpRmyA4L96gy0VXkRvVvvvxRDP2LaopaZQ6fynm-ZCYkc7fUgdLHcOZLIZzycKfZ15oUNrDJvvVnV7pgwzTuf-iPkxAU7ppu-XPz5Ta7gEd1JFcNB5LMId9fJrJV6EPFHSkcgUMoMLnhlWijKgVAJP-hKX5nSw6l5JPzmNcAVqailQ79EucSP9CfdVTczaa7dUS8UCcFJLTKcjeoN2aKz9HGLjYD2hO1gMDN7r9i2NUj59gJNeZ3NqiimpKb1PLVBoa5PCP2YQxuiIMZgpC4nS3ekrA5RnRieeiMu0AAW-EqXfgur_AA_nphLKyeyME051s2UwmZ7AjIkeXLn_-7QgAZV4vSEewukAOQsvM4bNI0zUPGC9___w7Z3ggPS6N0ZMpmiNSaT82Nv7BAXJ7hBzfTiRoqbV6_6MPmSXXqjwU2RR4q0obJ28WMRs1GzQZ6MU5-2DKdiG_D_5zGMehWstqxlsZRNGxeRQB2enAPEhuTEx6v6uoxxwPJjy6-rPemDhfjJf7mtqr6RwU3TybtV5abioRqstQCDwvGmkp4b9OGjjwLoa1JDgZs-67Lp6mfJuDNyTtymJ_E-ZJBQqX3ZHtDNx0YJq2qCs5DjQFnqrSwOphWIC57L7YqZSaSXhFukHDc6K3HMVELL6eBP1aAU_joW93s-YK_rO8kJOkQK0895pmN6dkrXqfNxYuoNnu6oDku9MBh4NkPigG2x3P5VLHZpVNKE2Mz9MSpgo9sXT30pIpNzzF9tTpt9l5e_dabpWCPBhu7LY91-wU5tBl2-W8GGgexRTgePGrQB82stSf5k3gwjaFdG6PZSxHEJ54ycpQAcrNEohHSK4Ba3Ht0BEJ_GHq9Llp8u83TRCfF94Hh0uGCDjZs8kii4W-_8_QtD8SkcYhVMkTA2fuxZcWnN9bQuB0EOg2_BP2o7Qj6dsl6vywBMAcpdOaQ55qU1DQZZ1MgI9TOULQNWhtxtHhnbFka7K3d4z7T74l3vlkmG4ozx81ZKzvusp7aSQ1Pat-tii6WUzbsqSV1AhsNRo2kvFJ7HztxDmWib7egTkzhbCTpk6A_qgzNdsc0VeNCYq0ZkjVAZot2sKjb0rIk2_tH9e7Nv5Uv6W8B_mg28GDedWGMW_Obq9PosCFJlzJi-1vqLIfNiJ1HjVIIMC1ZD1OSxy6lh8ZBQefzU0-EguQkFbnk8RzG2xsOj6GY7fCxjP-sU5veWP-uDzSUdX-U-qVs_qC?></g></svg>